<?xml version="1.0" encoding="UTF-8" standalone="no"?>
<!DOCTYPE svg PUBLIC "-//W3C//DTD SVG 1.1//EN"
 "http://www.w3.org/Graphics/SVG/1.1/DTD/svg11.dtd">
<!-- Generated by graphviz version 12.1.2 (20240928.0832)
 -->
<!-- Title: adapter.h Pages: 1 -->
<svg width="619pt" height="256pt"
 viewBox="0.00 0.00 618.75 255.75" xmlns="http://www.w3.org/2000/svg" xmlns:xlink="http://www.w3.org/1999/xlink">
<g id="graph0" class="graph" transform="scale(1 1) rotate(0) translate(4 251.75)">
<title>adapter.h</title>
<!-- Node1 -->
<g id="Node000001" class="node">
<title>Node1</title>
<g id="a_Node000001"><a xlink:title=" ">
<polygon fill="#999999" stroke="#666666" points="248.25,-247.75 186.5,-247.75 186.5,-227 248.25,-227 248.25,-247.75"/>
<text text-anchor="middle" x="217.38" y="-234.25" font-family="Helvetica,sans-Serif" font-size="10.00">adapter.h</text>
</a>
</g>
</g>
<!-- Node2 -->
<g id="Node000002" class="node">
<title>Node2</title>
<g id="a_Node000002"><a xlink:title=" ">
<polygon fill="#e0e0e0" stroke="#999999" points="64.75,-77.5 0,-77.5 0,-56.75 64.75,-56.75 64.75,-77.5"/>
<text text-anchor="middle" x="32.38" y="-64" font-family="Helvetica,sans-Serif" font-size="10.00">inttypes.h</text>
</a>
</g>
</g>
<!-- Node1&#45;&gt;Node2 -->
<g id="edge1_Node000001_Node000002" class="edge">
<title>Node1&#45;&gt;Node2</title>
<g id="a_edge1_Node000001_Node000002"><a xlink:title=" ">
<path fill="none" stroke="#63b8ff" d="M186.09,-234.06C154.74,-230.13 107,-219.54 77.38,-191 48.84,-163.52 38.3,-116.46 34.48,-89.25"/>
<polygon fill="#63b8ff" stroke="#63b8ff" points="37.97,-88.99 33.31,-79.47 31.02,-89.82 37.97,-88.99"/>
</a>
</g>
</g>
<!-- Node3 -->
<g id="Node000003" class="node">
<title>Node3</title>
<g id="a_Node000003"><a xlink:title=" ">
<polygon fill="#e0e0e0" stroke="#999999" points="143.88,-77.5 82.88,-77.5 82.88,-56.75 143.88,-56.75 143.88,-77.5"/>
<text text-anchor="middle" x="113.38" y="-64" font-family="Helvetica,sans-Serif" font-size="10.00">stdbool.h</text>
</a>
</g>
</g>
<!-- Node1&#45;&gt;Node3 -->
<g id="edge2_Node000001_Node000003" class="edge">
<title>Node1&#45;&gt;Node3</title>
<g id="a_edge2_Node000001_Node000003"><a xlink:title=" ">
<path fill="none" stroke="#63b8ff" d="M186.06,-235.02C155.7,-231.83 111.14,-221.81 89.38,-191 67.32,-159.78 86.9,-113.46 101.31,-87.53"/>
<polygon fill="#63b8ff" stroke="#63b8ff" points="104.23,-89.46 106.27,-79.07 98.19,-85.92 104.23,-89.46"/>
</a>
</g>
</g>
<!-- Node4 -->
<g id="Node000004" class="node">
<title>Node4</title>
<g id="a_Node000004"><a xlink:href="error_8h.html" target="_top" xlink:title=" ">
<polygon fill="white" stroke="#666666" points="456.25,-191 340.5,-191 340.5,-170.25 456.25,-170.25 456.25,-191"/>
<text text-anchor="middle" x="398.38" y="-177.5" font-family="Helvetica,sans-Serif" font-size="10.00">vlcb/platform/error.h</text>
</a>
</g>
</g>
<!-- Node1&#45;&gt;Node4 -->
<g id="edge3_Node000001_Node000004" class="edge">
<title>Node1&#45;&gt;Node4</title>
<g id="a_edge3_Node000001_Node000004"><a xlink:title=" ">
<path fill="none" stroke="#63b8ff" d="M248.49,-226.96C277.91,-218.06 322.33,-204.63 355.18,-194.69"/>
<polygon fill="#63b8ff" stroke="#63b8ff" points="355.83,-198.15 364.39,-191.91 353.8,-191.45 355.83,-198.15"/>
</a>
</g>
</g>
<!-- Node5 -->
<g id="Node000005" class="node">
<title>Node5</title>
<g id="a_Node000005"><a xlink:href="interface_8h.html" target="_top" xlink:title=" ">
<polygon fill="white" stroke="#666666" points="610.75,-191 474,-191 474,-170.25 610.75,-170.25 610.75,-191"/>
<text text-anchor="middle" x="542.38" y="-177.5" font-family="Helvetica,sans-Serif" font-size="10.00">vlcb/platform/interface.h</text>
</a>
</g>
</g>
<!-- Node1&#45;&gt;Node5 -->
<g id="edge4_Node000001_Node000005" class="edge">
<title>Node1&#45;&gt;Node5</title>
<g id="a_edge4_Node000001_Node000005"><a xlink:title=" ">
<path fill="none" stroke="#63b8ff" d="M248.54,-231.13C299.78,-222.49 403.07,-205.09 472.5,-193.4"/>
<polygon fill="#63b8ff" stroke="#63b8ff" points="472.99,-196.86 482.27,-191.75 471.83,-189.96 472.99,-196.86"/>
</a>
</g>
</g>
<!-- Node7 -->
<g id="Node000007" class="node">
<title>Node7</title>
<g id="a_Node000007"><a xlink:href="packet_8h.html" target="_top" xlink:title=" ">
<polygon fill="white" stroke="#666666" points="216.38,-191 98.38,-191 98.38,-170.25 216.38,-170.25 216.38,-191"/>
<text text-anchor="middle" x="157.38" y="-177.5" font-family="Helvetica,sans-Serif" font-size="10.00">adapter/can/packet.h</text>
</a>
</g>
</g>
<!-- Node1&#45;&gt;Node7 -->
<g id="edge6_Node000001_Node000007" class="edge">
<title>Node1&#45;&gt;Node7</title>
<g id="a_edge6_Node000001_Node000007"><a xlink:title=" ">
<path fill="none" stroke="#63b8ff" d="M206.65,-226.59C198.29,-218.96 186.46,-208.17 176.49,-199.07"/>
<polygon fill="#63b8ff" stroke="#63b8ff" points="178.87,-196.5 169.13,-192.35 174.15,-201.67 178.87,-196.5"/>
</a>
</g>
</g>
<!-- Node11 -->
<g id="Node000011" class="node">
<title>Node11</title>
<g id="a_Node000011"><a xlink:href="addr_8h.html" target="_top" xlink:title=" ">
<polygon fill="white" stroke="#666666" points="322.38,-191 234.38,-191 234.38,-170.25 322.38,-170.25 322.38,-191"/>
<text text-anchor="middle" x="278.38" y="-177.5" font-family="Helvetica,sans-Serif" font-size="10.00">vlcb/net/addr.h</text>
</a>
</g>
</g>
<!-- Node1&#45;&gt;Node11 -->
<g id="edge14_Node000001_Node000011" class="edge">
<title>Node1&#45;&gt;Node11</title>
<g id="a_edge14_Node000001_Node000011"><a xlink:title=" ">
<path fill="none" stroke="#63b8ff" d="M228.28,-226.59C236.87,-218.88 249.05,-207.95 259.25,-198.79"/>
<polygon fill="#63b8ff" stroke="#63b8ff" points="261.33,-201.62 266.44,-192.34 256.66,-196.41 261.33,-201.62"/>
</a>
</g>
</g>
<!-- Node6 -->
<g id="Node000006" class="node">
<title>Node6</title>
<g id="a_Node000006"><a xlink:title=" ">
<polygon fill="#e0e0e0" stroke="#999999" points="569.88,-134.25 514.88,-134.25 514.88,-113.5 569.88,-113.5 569.88,-134.25"/>
<text text-anchor="middle" x="542.38" y="-120.75" font-family="Helvetica,sans-Serif" font-size="10.00">stddef.h</text>
</a>
</g>
</g>
<!-- Node5&#45;&gt;Node6 -->
<g id="edge5_Node000005_Node000006" class="edge">
<title>Node5&#45;&gt;Node6</title>
<g id="a_edge5_Node000005_Node000006"><a xlink:title=" ">
<path fill="none" stroke="#63b8ff" d="M542.38,-169.84C542.38,-163.22 542.38,-154.22 542.38,-146.02"/>
<polygon fill="#63b8ff" stroke="#63b8ff" points="545.88,-146.09 542.38,-136.09 538.88,-146.09 545.88,-146.09"/>
</a>
</g>
</g>
<!-- Node7&#45;&gt;Node3 -->
<g id="edge7_Node000007_Node000003" class="edge">
<title>Node7&#45;&gt;Node3</title>
<g id="a_edge7_Node000007_Node000003"><a xlink:title=" ">
<path fill="none" stroke="#63b8ff" d="M149.29,-169.8C142.45,-161.01 132.92,-147.49 127.38,-134.25 121.33,-119.81 117.79,-102.47 115.77,-89.17"/>
<polygon fill="#63b8ff" stroke="#63b8ff" points="119.26,-88.84 114.48,-79.38 112.32,-89.75 119.26,-88.84"/>
</a>
</g>
</g>
<!-- Node8 -->
<g id="Node000008" class="node">
<title>Node8</title>
<g id="a_Node000008"><a xlink:href="common_2inc_2vlcb_2common_2can_8h.html" target="_top" xlink:title=" ">
<polygon fill="white" stroke="#666666" points="248,-134.25 136.75,-134.25 136.75,-113.5 248,-113.5 248,-134.25"/>
<text text-anchor="middle" x="192.38" y="-120.75" font-family="Helvetica,sans-Serif" font-size="10.00">vlcb/common/can.h</text>
</a>
</g>
</g>
<!-- Node7&#45;&gt;Node8 -->
<g id="edge8_Node000007_Node000008" class="edge">
<title>Node7&#45;&gt;Node8</title>
<g id="a_edge8_Node000007_Node000008"><a xlink:title=" ">
<path fill="none" stroke="#63b8ff" d="M163.63,-169.84C168.21,-162.67 174.57,-152.73 180.14,-144.01"/>
<polygon fill="#63b8ff" stroke="#63b8ff" points="182.92,-146.16 185.36,-135.85 177.02,-142.39 182.92,-146.16"/>
</a>
</g>
</g>
<!-- Node8&#45;&gt;Node2 -->
<g id="edge9_Node000008_Node000002" class="edge">
<title>Node8&#45;&gt;Node2</title>
<g id="a_edge9_Node000008_Node000002"><a xlink:title=" ">
<path fill="none" stroke="#63b8ff" d="M163.77,-113.09C138.14,-104.32 100.3,-91.37 71.81,-81.62"/>
<polygon fill="#63b8ff" stroke="#63b8ff" points="73.03,-78.34 62.43,-78.41 70.76,-84.96 73.03,-78.34"/>
</a>
</g>
</g>
<!-- Node8&#45;&gt;Node3 -->
<g id="edge10_Node000008_Node000003" class="edge">
<title>Node8&#45;&gt;Node3</title>
<g id="a_edge10_Node000008_Node000003"><a xlink:title=" ">
<path fill="none" stroke="#63b8ff" d="M178.25,-113.09C166.68,-105.07 150.07,-93.56 136.56,-84.19"/>
<polygon fill="#63b8ff" stroke="#63b8ff" points="138.83,-81.51 128.62,-78.69 134.85,-87.26 138.83,-81.51"/>
</a>
</g>
</g>
<!-- Node9 -->
<g id="Node000009" class="node">
<title>Node9</title>
<g id="a_Node000009"><a xlink:title=" ">
<polygon fill="#e0e0e0" stroke="#999999" points="323.75,-20.75 271,-20.75 271,0 323.75,0 323.75,-20.75"/>
<text text-anchor="middle" x="297.38" y="-7.25" font-family="Helvetica,sans-Serif" font-size="10.00">stdint.h</text>
</a>
</g>
</g>
<!-- Node8&#45;&gt;Node9 -->
<g id="edge11_Node000008_Node000009" class="edge">
<title>Node8&#45;&gt;Node9</title>
<g id="a_edge11_Node000008_Node000009"><a xlink:title=" ">
<path fill="none" stroke="#63b8ff" d="M194.58,-113.33C198.17,-99.49 206.45,-73.67 221.38,-56.75 232.75,-43.86 248.69,-33.57 263.04,-26.07"/>
<polygon fill="#63b8ff" stroke="#63b8ff" points="264.34,-29.34 271.76,-21.78 261.24,-23.06 264.34,-29.34"/>
</a>
</g>
</g>
<!-- Node10 -->
<g id="Node000010" class="node">
<title>Node10</title>
<g id="a_Node000010"><a xlink:href="opcode_8h.html" target="_top" xlink:title=" ">
<polygon fill="white" stroke="#666666" points="290.5,-77.5 230.25,-77.5 230.25,-56.75 290.5,-56.75 290.5,-77.5"/>
<text text-anchor="middle" x="260.38" y="-64" font-family="Helvetica,sans-Serif" font-size="10.00">opcode.h</text>
</a>
</g>
</g>
<!-- Node8&#45;&gt;Node10 -->
<g id="edge12_Node000008_Node000010" class="edge">
<title>Node8&#45;&gt;Node10</title>
<g id="a_edge12_Node000008_Node000010"><a xlink:title=" ">
<path fill="none" stroke="#63b8ff" d="M204.53,-113.09C214.2,-105.3 227.96,-94.22 239.4,-85.01"/>
<polygon fill="#63b8ff" stroke="#63b8ff" points="241.55,-87.78 247.14,-78.78 237.16,-82.32 241.55,-87.78"/>
</a>
</g>
</g>
<!-- Node10&#45;&gt;Node9 -->
<g id="edge13_Node000010_Node000009" class="edge">
<title>Node10&#45;&gt;Node9</title>
<g id="a_edge13_Node000010_Node000009"><a xlink:title=" ">
<path fill="none" stroke="#63b8ff" d="M266.99,-56.34C271.83,-49.17 278.55,-39.23 284.45,-30.51"/>
<polygon fill="#63b8ff" stroke="#63b8ff" points="287.27,-32.58 289.97,-22.33 281.47,-28.66 287.27,-32.58"/>
</a>
</g>
</g>
<!-- Node11&#45;&gt;Node8 -->
<g id="edge15_Node000011_Node000008" class="edge">
<title>Node11&#45;&gt;Node8</title>
<g id="a_edge15_Node000011_Node000008"><a xlink:title=" ">
<path fill="none" stroke="#63b8ff" d="M263,-169.84C250.28,-161.74 231.97,-150.08 217.18,-140.67"/>
<polygon fill="#63b8ff" stroke="#63b8ff" points="219.21,-137.81 208.89,-135.39 215.45,-143.71 219.21,-137.81"/>
</a>
</g>
</g>
<!-- Node11&#45;&gt;Node9 -->
<g id="edge18_Node000011_Node000009" class="edge">
<title>Node11&#45;&gt;Node9</title>
<g id="a_edge18_Node000011_Node000009"><a xlink:title=" ">
<path fill="none" stroke="#63b8ff" d="M314.72,-169.83C344.23,-161.06 382.38,-147.56 391.38,-134.25 418.39,-94.28 361.23,-49.91 324.7,-26.99"/>
<polygon fill="#63b8ff" stroke="#63b8ff" points="326.7,-24.11 316.33,-21.9 323.06,-30.09 326.7,-24.11"/>
</a>
</g>
</g>
<!-- Node12 -->
<g id="Node000012" class="node">
<title>Node12</title>
<g id="a_Node000012"><a xlink:href="time_8h.html" target="_top" xlink:title=" ">
<polygon fill="white" stroke="#666666" points="382.25,-134.25 266.5,-134.25 266.5,-113.5 382.25,-113.5 382.25,-134.25"/>
<text text-anchor="middle" x="324.38" y="-120.75" font-family="Helvetica,sans-Serif" font-size="10.00">vlcb/platform/time.h</text>
</a>
</g>
</g>
<!-- Node11&#45;&gt;Node12 -->
<g id="edge16_Node000011_Node000012" class="edge">
<title>Node11&#45;&gt;Node12</title>
<g id="a_edge16_Node000011_Node000012"><a xlink:title=" ">
<path fill="none" stroke="#63b8ff" d="M286.6,-169.84C292.81,-162.44 301.52,-152.07 309.01,-143.16"/>
<polygon fill="#63b8ff" stroke="#63b8ff" points="311.5,-145.65 315.25,-135.74 306.14,-141.14 311.5,-145.65"/>
</a>
</g>
</g>
<!-- Node12&#45;&gt;Node9 -->
<g id="edge17_Node000012_Node000009" class="edge">
<title>Node12&#45;&gt;Node9</title>
<g id="a_edge17_Node000012_Node000009"><a xlink:title=" ">
<path fill="none" stroke="#63b8ff" d="M322.07,-113.37C317.75,-95.52 308.33,-56.61 302.45,-32.34"/>
<polygon fill="#63b8ff" stroke="#63b8ff" points="305.86,-31.54 300.1,-22.65 299.06,-33.19 305.86,-31.54"/>
</a>
</g>
</g>
</g>
</svg>
