<?xml version="1.0" encoding="UTF-8" standalone="no"?>
<!DOCTYPE svg PUBLIC "-//W3C//DTD SVG 1.1//EN"
 "http://www.w3.org/Graphics/SVG/1.1/DTD/svg11.dtd">
<!-- Generated by graphviz version 12.1.2 (20240928.0832)
 -->
<!-- Title: adapter.c Pages: 1 -->
<svg width="619pt" height="313pt"
 viewBox="0.00 0.00 618.75 312.50" xmlns="http://www.w3.org/2000/svg" xmlns:xlink="http://www.w3.org/1999/xlink">
<g id="graph0" class="graph" transform="scale(1 1) rotate(0) translate(4 308.5)">
<title>adapter.c</title>
<!-- Node1 -->
<g id="Node000001" class="node">
<title>Node1</title>
<g id="a_Node000001"><a xlink:title=" ">
<polygon fill="#999999" stroke="#666666" points="346.88,-304.5 285.88,-304.5 285.88,-283.75 346.88,-283.75 346.88,-304.5"/>
<text text-anchor="middle" x="316.38" y="-291" font-family="Helvetica,sans-Serif" font-size="10.00">adapter.c</text>
</a>
</g>
</g>
<!-- Node2 -->
<g id="Node000002" class="node">
<title>Node2</title>
<g id="a_Node000002"><a xlink:href="adapter_8h.html" target="_top" xlink:title=" ">
<polygon fill="white" stroke="#666666" points="320.25,-247.75 216.5,-247.75 216.5,-227 320.25,-227 320.25,-247.75"/>
<text text-anchor="middle" x="268.38" y="-234.25" font-family="Helvetica,sans-Serif" font-size="10.00">vlcb/net/adapter.h</text>
</a>
</g>
</g>
<!-- Node1&#45;&gt;Node2 -->
<g id="edge1_Node000001_Node000002" class="edge">
<title>Node1&#45;&gt;Node2</title>
<g id="a_edge1_Node000001_Node000002"><a xlink:title=" ">
<path fill="none" stroke="#63b8ff" d="M307.79,-283.34C301.31,-275.94 292.22,-265.57 284.4,-256.66"/>
<polygon fill="#63b8ff" stroke="#63b8ff" points="287.1,-254.43 277.88,-249.22 281.84,-259.04 287.1,-254.43"/>
</a>
</g>
</g>
<!-- Node13 -->
<g id="Node000013" class="node">
<title>Node13</title>
<g id="a_Node000013"><a xlink:title=" ">
<polygon fill="#e0e0e0" stroke="#999999" points="392.88,-247.75 337.88,-247.75 337.88,-227 392.88,-227 392.88,-247.75"/>
<text text-anchor="middle" x="365.38" y="-234.25" font-family="Helvetica,sans-Serif" font-size="10.00">assert.h</text>
</a>
</g>
</g>
<!-- Node1&#45;&gt;Node13 -->
<g id="edge17_Node000001_Node000013" class="edge">
<title>Node1&#45;&gt;Node13</title>
<g id="a_edge17_Node000001_Node000013"><a xlink:title=" ">
<path fill="none" stroke="#63b8ff" d="M325.14,-283.34C331.82,-275.86 341.23,-265.36 349.26,-256.38"/>
<polygon fill="#63b8ff" stroke="#63b8ff" points="351.62,-258.99 355.68,-249.21 346.4,-254.32 351.62,-258.99"/>
</a>
</g>
</g>
<!-- Node3 -->
<g id="Node000003" class="node">
<title>Node3</title>
<g id="a_Node000003"><a xlink:title=" ">
<polygon fill="#e0e0e0" stroke="#999999" points="64.75,-77.5 0,-77.5 0,-56.75 64.75,-56.75 64.75,-77.5"/>
<text text-anchor="middle" x="32.38" y="-64" font-family="Helvetica,sans-Serif" font-size="10.00">inttypes.h</text>
</a>
</g>
</g>
<!-- Node2&#45;&gt;Node3 -->
<g id="edge2_Node000002_Node000003" class="edge">
<title>Node2&#45;&gt;Node3</title>
<g id="a_edge2_Node000002_Node000003"><a xlink:title=" ">
<path fill="none" stroke="#63b8ff" d="M216.2,-232.22C159.36,-226.56 73.53,-214.35 51.38,-191 25.47,-163.69 26.04,-116.57 29.04,-89.3"/>
<polygon fill="#63b8ff" stroke="#63b8ff" points="32.49,-89.87 30.35,-79.5 25.55,-88.95 32.49,-89.87"/>
</a>
</g>
</g>
<!-- Node4 -->
<g id="Node000004" class="node">
<title>Node4</title>
<g id="a_Node000004"><a xlink:title=" ">
<polygon fill="#e0e0e0" stroke="#999999" points="259.88,-77.5 198.88,-77.5 198.88,-56.75 259.88,-56.75 259.88,-77.5"/>
<text text-anchor="middle" x="229.38" y="-64" font-family="Helvetica,sans-Serif" font-size="10.00">stdbool.h</text>
</a>
</g>
</g>
<!-- Node2&#45;&gt;Node4 -->
<g id="edge3_Node000002_Node000004" class="edge">
<title>Node2&#45;&gt;Node4</title>
<g id="a_edge3_Node000002_Node000004"><a xlink:title=" ">
<path fill="none" stroke="#63b8ff" d="M276.24,-226.69C285.61,-213.95 299.27,-190.77 293.38,-170.25 284.08,-137.91 261.2,-105.9 245.48,-86.56"/>
<polygon fill="#63b8ff" stroke="#63b8ff" points="248.3,-84.48 239.2,-79.07 242.94,-88.98 248.3,-84.48"/>
</a>
</g>
</g>
<!-- Node5 -->
<g id="Node000005" class="node">
<title>Node5</title>
<g id="a_Node000005"><a xlink:href="error_8h.html" target="_top" xlink:title=" ">
<polygon fill="white" stroke="#666666" points="456.25,-191 340.5,-191 340.5,-170.25 456.25,-170.25 456.25,-191"/>
<text text-anchor="middle" x="398.38" y="-177.5" font-family="Helvetica,sans-Serif" font-size="10.00">vlcb/platform/error.h</text>
</a>
</g>
</g>
<!-- Node2&#45;&gt;Node5 -->
<g id="edge4_Node000002_Node000005" class="edge">
<title>Node2&#45;&gt;Node5</title>
<g id="a_edge4_Node000002_Node000005"><a xlink:title=" ">
<path fill="none" stroke="#63b8ff" d="M291.62,-226.59C312.04,-217.98 342.01,-205.36 365,-195.68"/>
<polygon fill="#63b8ff" stroke="#63b8ff" points="366.08,-199.02 373.94,-191.92 363.37,-192.57 366.08,-199.02"/>
</a>
</g>
</g>
<!-- Node6 -->
<g id="Node000006" class="node">
<title>Node6</title>
<g id="a_Node000006"><a xlink:href="interface_8h.html" target="_top" xlink:title=" ">
<polygon fill="white" stroke="#666666" points="610.75,-191 474,-191 474,-170.25 610.75,-170.25 610.75,-191"/>
<text text-anchor="middle" x="542.38" y="-177.5" font-family="Helvetica,sans-Serif" font-size="10.00">vlcb/platform/interface.h</text>
</a>
</g>
</g>
<!-- Node2&#45;&gt;Node6 -->
<g id="edge5_Node000002_Node000006" class="edge">
<title>Node2&#45;&gt;Node6</title>
<g id="a_edge5_Node000002_Node000006"><a xlink:title=" ">
<path fill="none" stroke="#63b8ff" d="M317.68,-226.52C363.7,-217.33 432.51,-203.58 481.85,-193.72"/>
<polygon fill="#63b8ff" stroke="#63b8ff" points="482.4,-197.18 491.52,-191.79 481.03,-190.31 482.4,-197.18"/>
</a>
</g>
</g>
<!-- Node8 -->
<g id="Node000008" class="node">
<title>Node8</title>
<g id="a_Node000008"><a xlink:href="packet_8h.html" target="_top" xlink:title=" ">
<polygon fill="white" stroke="#666666" points="284.38,-191 166.38,-191 166.38,-170.25 284.38,-170.25 284.38,-191"/>
<text text-anchor="middle" x="225.38" y="-177.5" font-family="Helvetica,sans-Serif" font-size="10.00">adapter/can/packet.h</text>
</a>
</g>
</g>
<!-- Node2&#45;&gt;Node8 -->
<g id="edge7_Node000002_Node000008" class="edge">
<title>Node2&#45;&gt;Node8</title>
<g id="a_edge7_Node000002_Node000008"><a xlink:title=" ">
<path fill="none" stroke="#63b8ff" d="M260.69,-226.59C254.94,-219.27 246.91,-209.04 239.96,-200.19"/>
<polygon fill="#63b8ff" stroke="#63b8ff" points="242.86,-198.22 233.93,-192.52 237.35,-202.55 242.86,-198.22"/>
</a>
</g>
</g>
<!-- Node12 -->
<g id="Node000012" class="node">
<title>Node12</title>
<g id="a_Node000012"><a xlink:href="addr_8h.html" target="_top" xlink:title=" ">
<polygon fill="white" stroke="#666666" points="148.38,-191 60.38,-191 60.38,-170.25 148.38,-170.25 148.38,-191"/>
<text text-anchor="middle" x="104.38" y="-177.5" font-family="Helvetica,sans-Serif" font-size="10.00">vlcb/net/addr.h</text>
</a>
</g>
</g>
<!-- Node2&#45;&gt;Node12 -->
<g id="edge15_Node000002_Node000012" class="edge">
<title>Node2&#45;&gt;Node12</title>
<g id="a_edge15_Node000002_Node000012"><a xlink:title=" ">
<path fill="none" stroke="#63b8ff" d="M239.06,-226.59C212.67,-217.78 173.66,-204.75 144.4,-194.99"/>
<polygon fill="#63b8ff" stroke="#63b8ff" points="145.75,-191.75 135.15,-191.9 143.53,-198.39 145.75,-191.75"/>
</a>
</g>
</g>
<!-- Node7 -->
<g id="Node000007" class="node">
<title>Node7</title>
<g id="a_Node000007"><a xlink:title=" ">
<polygon fill="#e0e0e0" stroke="#999999" points="569.88,-134.25 514.88,-134.25 514.88,-113.5 569.88,-113.5 569.88,-134.25"/>
<text text-anchor="middle" x="542.38" y="-120.75" font-family="Helvetica,sans-Serif" font-size="10.00">stddef.h</text>
</a>
</g>
</g>
<!-- Node6&#45;&gt;Node7 -->
<g id="edge6_Node000006_Node000007" class="edge">
<title>Node6&#45;&gt;Node7</title>
<g id="a_edge6_Node000006_Node000007"><a xlink:title=" ">
<path fill="none" stroke="#63b8ff" d="M542.38,-169.84C542.38,-163.22 542.38,-154.22 542.38,-146.02"/>
<polygon fill="#63b8ff" stroke="#63b8ff" points="545.88,-146.09 542.38,-136.09 538.88,-146.09 545.88,-146.09"/>
</a>
</g>
</g>
<!-- Node8&#45;&gt;Node4 -->
<g id="edge8_Node000008_Node000004" class="edge">
<title>Node8&#45;&gt;Node4</title>
<g id="a_edge8_Node000008_Node000004"><a xlink:title=" ">
<path fill="none" stroke="#63b8ff" d="M225.72,-170.12C226.35,-152.35 227.74,-113.72 228.61,-89.43"/>
<polygon fill="#63b8ff" stroke="#63b8ff" points="232.11,-89.56 228.97,-79.44 225.11,-89.31 232.11,-89.56"/>
</a>
</g>
</g>
<!-- Node9 -->
<g id="Node000009" class="node">
<title>Node9</title>
<g id="a_Node000009"><a xlink:href="common_2inc_2vlcb_2common_2can_8h.html" target="_top" xlink:title=" ">
<polygon fill="white" stroke="#666666" points="187,-134.25 75.75,-134.25 75.75,-113.5 187,-113.5 187,-134.25"/>
<text text-anchor="middle" x="131.38" y="-120.75" font-family="Helvetica,sans-Serif" font-size="10.00">vlcb/common/can.h</text>
</a>
</g>
</g>
<!-- Node8&#45;&gt;Node9 -->
<g id="edge9_Node000008_Node000009" class="edge">
<title>Node8&#45;&gt;Node9</title>
<g id="a_edge9_Node000008_Node000009"><a xlink:title=" ">
<path fill="none" stroke="#63b8ff" d="M208.57,-169.84C194.4,-161.58 173.88,-149.63 157.56,-140.13"/>
<polygon fill="#63b8ff" stroke="#63b8ff" points="159.75,-137.35 149.34,-135.34 156.22,-143.4 159.75,-137.35"/>
</a>
</g>
</g>
<!-- Node9&#45;&gt;Node3 -->
<g id="edge10_Node000009_Node000003" class="edge">
<title>Node9&#45;&gt;Node3</title>
<g id="a_edge10_Node000009_Node000003"><a xlink:title=" ">
<path fill="none" stroke="#63b8ff" d="M113.68,-113.09C98.75,-104.83 77.14,-92.88 59.95,-83.38"/>
<polygon fill="#63b8ff" stroke="#63b8ff" points="61.69,-80.34 51.25,-78.56 58.3,-86.46 61.69,-80.34"/>
</a>
</g>
</g>
<!-- Node9&#45;&gt;Node4 -->
<g id="edge11_Node000009_Node000004" class="edge">
<title>Node9&#45;&gt;Node4</title>
<g id="a_edge11_Node000009_Node000004"><a xlink:title=" ">
<path fill="none" stroke="#63b8ff" d="M148.9,-113.09C163.67,-104.83 185.06,-92.88 202.07,-83.38"/>
<polygon fill="#63b8ff" stroke="#63b8ff" points="203.66,-86.5 210.68,-78.57 200.25,-80.39 203.66,-86.5"/>
</a>
</g>
</g>
<!-- Node10 -->
<g id="Node000010" class="node">
<title>Node10</title>
<g id="a_Node000010"><a xlink:title=" ">
<polygon fill="#e0e0e0" stroke="#999999" points="147.75,-20.75 95,-20.75 95,0 147.75,0 147.75,-20.75"/>
<text text-anchor="middle" x="121.38" y="-7.25" font-family="Helvetica,sans-Serif" font-size="10.00">stdint.h</text>
</a>
</g>
</g>
<!-- Node9&#45;&gt;Node10 -->
<g id="edge12_Node000009_Node000010" class="edge">
<title>Node9&#45;&gt;Node10</title>
<g id="a_edge12_Node000009_Node000010"><a xlink:title=" ">
<path fill="none" stroke="#63b8ff" d="M125.68,-113.18C120.79,-104.26 114.11,-90.47 111.38,-77.5 108.15,-62.19 111.09,-44.68 114.6,-31.52"/>
<polygon fill="#63b8ff" stroke="#63b8ff" points="117.84,-32.89 117.38,-22.3 111.14,-30.86 117.84,-32.89"/>
</a>
</g>
</g>
<!-- Node11 -->
<g id="Node000011" class="node">
<title>Node11</title>
<g id="a_Node000011"><a xlink:href="opcode_8h.html" target="_top" xlink:title=" ">
<polygon fill="white" stroke="#666666" points="180.5,-77.5 120.25,-77.5 120.25,-56.75 180.5,-56.75 180.5,-77.5"/>
<text text-anchor="middle" x="150.38" y="-64" font-family="Helvetica,sans-Serif" font-size="10.00">opcode.h</text>
</a>
</g>
</g>
<!-- Node9&#45;&gt;Node11 -->
<g id="edge13_Node000009_Node000011" class="edge">
<title>Node9&#45;&gt;Node11</title>
<g id="a_edge13_Node000009_Node000011"><a xlink:title=" ">
<path fill="none" stroke="#63b8ff" d="M134.77,-113.09C137.12,-106.31 140.34,-97.05 143.24,-88.69"/>
<polygon fill="#63b8ff" stroke="#63b8ff" points="146.54,-89.85 146.51,-79.26 139.93,-87.56 146.54,-89.85"/>
</a>
</g>
</g>
<!-- Node11&#45;&gt;Node10 -->
<g id="edge14_Node000011_Node000010" class="edge">
<title>Node11&#45;&gt;Node10</title>
<g id="a_edge14_Node000011_Node000010"><a xlink:title=" ">
<path fill="none" stroke="#63b8ff" d="M145.19,-56.34C141.48,-49.33 136.36,-39.66 131.81,-31.08"/>
<polygon fill="#63b8ff" stroke="#63b8ff" points="135,-29.61 127.22,-22.42 128.81,-32.89 135,-29.61"/>
</a>
</g>
</g>
<!-- Node12&#45;&gt;Node9 -->
<g id="edge16_Node000012_Node000009" class="edge">
<title>Node12&#45;&gt;Node9</title>
<g id="a_edge16_Node000012_Node000009"><a xlink:title=" ">
<path fill="none" stroke="#63b8ff" d="M109.2,-169.84C112.62,-162.91 117.32,-153.37 121.52,-144.86"/>
<polygon fill="#63b8ff" stroke="#63b8ff" points="124.64,-146.45 125.92,-135.94 118.36,-143.36 124.64,-146.45"/>
</a>
</g>
</g>
</g>
</svg>
