<?xml version="1.0" encoding="UTF-8" standalone="no"?>
<!DOCTYPE svg PUBLIC "-//W3C//DTD SVG 1.1//EN"
 "http://www.w3.org/Graphics/SVG/1.1/DTD/svg11.dtd">
<!-- Generated by graphviz version 12.1.2 (20240928.0832)
 -->
<!-- Title: adapter.h Pages: 1 -->
<svg width="619pt" height="256pt"
 viewBox="0.00 0.00 618.75 255.75" xmlns="http://www.w3.org/2000/svg" xmlns:xlink="http://www.w3.org/1999/xlink">
<g id="graph0" class="graph" transform="scale(1 1) rotate(0) translate(4 251.75)">
<title>adapter.h</title>
<!-- Node1 -->
<g id="Node000001" class="node">
<title>Node1</title>
<g id="a_Node000001"><a xlink:title=" ">
<polygon fill="#999999" stroke="#666666" points="299.25,-247.75 237.5,-247.75 237.5,-227 299.25,-227 299.25,-247.75"/>
<text text-anchor="middle" x="268.38" y="-234.25" font-family="Helvetica,sans-Serif" font-size="10.00">adapter.h</text>
</a>
</g>
</g>
<!-- Node2 -->
<g id="Node000002" class="node">
<title>Node2</title>
<g id="a_Node000002"><a xlink:title=" ">
<polygon fill="#e0e0e0" stroke="#999999" points="64.75,-77.5 0,-77.5 0,-56.75 64.75,-56.75 64.75,-77.5"/>
<text text-anchor="middle" x="32.38" y="-64" font-family="Helvetica,sans-Serif" font-size="10.00">inttypes.h</text>
</a>
</g>
</g>
<!-- Node1&#45;&gt;Node2 -->
<g id="edge1_Node000001_Node000002" class="edge">
<title>Node1&#45;&gt;Node2</title>
<g id="a_edge1_Node000001_Node000002"><a xlink:title=" ">
<path fill="none" stroke="#63b8ff" d="M237.13,-234.14C183.32,-229.61 76.47,-217.46 51.38,-191 25.47,-163.69 26.04,-116.57 29.04,-89.3"/>
<polygon fill="#63b8ff" stroke="#63b8ff" points="32.49,-89.87 30.35,-79.5 25.55,-88.95 32.49,-89.87"/>
</a>
</g>
</g>
<!-- Node3 -->
<g id="Node000003" class="node">
<title>Node3</title>
<g id="a_Node000003"><a xlink:title=" ">
<polygon fill="#e0e0e0" stroke="#999999" points="270.88,-77.5 209.88,-77.5 209.88,-56.75 270.88,-56.75 270.88,-77.5"/>
<text text-anchor="middle" x="240.38" y="-64" font-family="Helvetica,sans-Serif" font-size="10.00">stdbool.h</text>
</a>
</g>
</g>
<!-- Node1&#45;&gt;Node3 -->
<g id="edge2_Node000001_Node000003" class="edge">
<title>Node1&#45;&gt;Node3</title>
<g id="a_edge2_Node000001_Node000003"><a xlink:title=" ">
<path fill="none" stroke="#63b8ff" d="M275.71,-226.55C281.79,-217.75 289.97,-204.24 293.38,-191 295.67,-182.07 295.56,-179.21 293.38,-170.25 285.79,-139.16 266.94,-106.99 253.9,-87.26"/>
<polygon fill="#63b8ff" stroke="#63b8ff" points="256.9,-85.46 248.38,-79.16 251.12,-89.4 256.9,-85.46"/>
</a>
</g>
</g>
<!-- Node4 -->
<g id="Node000004" class="node">
<title>Node4</title>
<g id="a_Node000004"><a xlink:href="error_8h.html" target="_top" xlink:title=" ">
<polygon fill="white" stroke="#666666" points="456.25,-191 340.5,-191 340.5,-170.25 456.25,-170.25 456.25,-191"/>
<text text-anchor="middle" x="398.38" y="-177.5" font-family="Helvetica,sans-Serif" font-size="10.00">vlcb/platform/error.h</text>
</a>
</g>
</g>
<!-- Node1&#45;&gt;Node4 -->
<g id="edge3_Node000001_Node000004" class="edge">
<title>Node1&#45;&gt;Node4</title>
<g id="a_edge3_Node000001_Node000004"><a xlink:title=" ">
<path fill="none" stroke="#63b8ff" d="M291.62,-226.59C312.04,-217.98 342.01,-205.36 365,-195.68"/>
<polygon fill="#63b8ff" stroke="#63b8ff" points="366.08,-199.02 373.94,-191.92 363.37,-192.57 366.08,-199.02"/>
</a>
</g>
</g>
<!-- Node5 -->
<g id="Node000005" class="node">
<title>Node5</title>
<g id="a_Node000005"><a xlink:href="interface_8h.html" target="_top" xlink:title=" ">
<polygon fill="white" stroke="#666666" points="610.75,-191 474,-191 474,-170.25 610.75,-170.25 610.75,-191"/>
<text text-anchor="middle" x="542.38" y="-177.5" font-family="Helvetica,sans-Serif" font-size="10.00">vlcb/platform/interface.h</text>
</a>
</g>
</g>
<!-- Node1&#45;&gt;Node5 -->
<g id="edge4_Node000001_Node000005" class="edge">
<title>Node1&#45;&gt;Node5</title>
<g id="a_edge4_Node000001_Node000005"><a xlink:title=" ">
<path fill="none" stroke="#63b8ff" d="M299.54,-230.15C343.76,-221.31 425.6,-204.96 481.96,-193.7"/>
<polygon fill="#63b8ff" stroke="#63b8ff" points="482.62,-197.13 491.74,-191.74 481.25,-190.27 482.62,-197.13"/>
</a>
</g>
</g>
<!-- Node7 -->
<g id="Node000007" class="node">
<title>Node7</title>
<g id="a_Node000007"><a xlink:href="packet_8h.html" target="_top" xlink:title=" ">
<polygon fill="white" stroke="#666666" points="284.38,-191 166.38,-191 166.38,-170.25 284.38,-170.25 284.38,-191"/>
<text text-anchor="middle" x="225.38" y="-177.5" font-family="Helvetica,sans-Serif" font-size="10.00">adapter/can/packet.h</text>
</a>
</g>
</g>
<!-- Node1&#45;&gt;Node7 -->
<g id="edge6_Node000001_Node000007" class="edge">
<title>Node1&#45;&gt;Node7</title>
<g id="a_edge6_Node000001_Node000007"><a xlink:title=" ">
<path fill="none" stroke="#63b8ff" d="M260.69,-226.59C254.94,-219.27 246.91,-209.04 239.96,-200.19"/>
<polygon fill="#63b8ff" stroke="#63b8ff" points="242.86,-198.22 233.93,-192.52 237.35,-202.55 242.86,-198.22"/>
</a>
</g>
</g>
<!-- Node11 -->
<g id="Node000011" class="node">
<title>Node11</title>
<g id="a_Node000011"><a xlink:href="addr_8h.html" target="_top" xlink:title=" ">
<polygon fill="white" stroke="#666666" points="148.38,-191 60.38,-191 60.38,-170.25 148.38,-170.25 148.38,-191"/>
<text text-anchor="middle" x="104.38" y="-177.5" font-family="Helvetica,sans-Serif" font-size="10.00">vlcb/net/addr.h</text>
</a>
</g>
</g>
<!-- Node1&#45;&gt;Node11 -->
<g id="edge14_Node000001_Node000011" class="edge">
<title>Node1&#45;&gt;Node11</title>
<g id="a_edge14_Node000001_Node000011"><a xlink:title=" ">
<path fill="none" stroke="#63b8ff" d="M239.06,-226.59C212.67,-217.78 173.66,-204.75 144.4,-194.99"/>
<polygon fill="#63b8ff" stroke="#63b8ff" points="145.75,-191.75 135.15,-191.9 143.53,-198.39 145.75,-191.75"/>
</a>
</g>
</g>
<!-- Node6 -->
<g id="Node000006" class="node">
<title>Node6</title>
<g id="a_Node000006"><a xlink:title=" ">
<polygon fill="#e0e0e0" stroke="#999999" points="569.88,-134.25 514.88,-134.25 514.88,-113.5 569.88,-113.5 569.88,-134.25"/>
<text text-anchor="middle" x="542.38" y="-120.75" font-family="Helvetica,sans-Serif" font-size="10.00">stddef.h</text>
</a>
</g>
</g>
<!-- Node5&#45;&gt;Node6 -->
<g id="edge5_Node000005_Node000006" class="edge">
<title>Node5&#45;&gt;Node6</title>
<g id="a_edge5_Node000005_Node000006"><a xlink:title=" ">
<path fill="none" stroke="#63b8ff" d="M542.38,-169.84C542.38,-163.22 542.38,-154.22 542.38,-146.02"/>
<polygon fill="#63b8ff" stroke="#63b8ff" points="545.88,-146.09 542.38,-136.09 538.88,-146.09 545.88,-146.09"/>
</a>
</g>
</g>
<!-- Node7&#45;&gt;Node3 -->
<g id="edge7_Node000007_Node000003" class="edge">
<title>Node7&#45;&gt;Node3</title>
<g id="a_edge7_Node000007_Node000003"><a xlink:title=" ">
<path fill="none" stroke="#63b8ff" d="M226.65,-170.12C229.06,-152.27 234.29,-113.36 237.55,-89.09"/>
<polygon fill="#63b8ff" stroke="#63b8ff" points="240.99,-89.8 238.85,-79.43 234.05,-88.87 240.99,-89.8"/>
</a>
</g>
</g>
<!-- Node8 -->
<g id="Node000008" class="node">
<title>Node8</title>
<g id="a_Node000008"><a xlink:href="common_2inc_2vlcb_2common_2can_8h.html" target="_top" xlink:title=" ">
<polygon fill="white" stroke="#666666" points="192,-134.25 80.75,-134.25 80.75,-113.5 192,-113.5 192,-134.25"/>
<text text-anchor="middle" x="136.38" y="-120.75" font-family="Helvetica,sans-Serif" font-size="10.00">vlcb/common/can.h</text>
</a>
</g>
</g>
<!-- Node7&#45;&gt;Node8 -->
<g id="edge8_Node000007_Node000008" class="edge">
<title>Node7&#45;&gt;Node8</title>
<g id="a_edge8_Node000007_Node000008"><a xlink:title=" ">
<path fill="none" stroke="#63b8ff" d="M209.46,-169.84C196.17,-161.66 176.99,-149.86 161.61,-140.4"/>
<polygon fill="#63b8ff" stroke="#63b8ff" points="163.79,-137.63 153.44,-135.37 160.12,-143.59 163.79,-137.63"/>
</a>
</g>
</g>
<!-- Node8&#45;&gt;Node2 -->
<g id="edge9_Node000008_Node000002" class="edge">
<title>Node8&#45;&gt;Node2</title>
<g id="a_edge9_Node000008_Node000002"><a xlink:title=" ">
<path fill="none" stroke="#63b8ff" d="M117.78,-113.09C101.96,-104.76 78.98,-92.66 60.84,-83.11"/>
<polygon fill="#63b8ff" stroke="#63b8ff" points="62.63,-80.09 52.15,-78.53 59.36,-86.29 62.63,-80.09"/>
</a>
</g>
</g>
<!-- Node8&#45;&gt;Node3 -->
<g id="edge10_Node000008_Node000003" class="edge">
<title>Node8&#45;&gt;Node3</title>
<g id="a_edge10_Node000008_Node000003"><a xlink:title=" ">
<path fill="none" stroke="#63b8ff" d="M154.97,-113.09C170.79,-104.76 193.77,-92.66 211.91,-83.11"/>
<polygon fill="#63b8ff" stroke="#63b8ff" points="213.39,-86.29 220.6,-78.53 210.12,-80.09 213.39,-86.29"/>
</a>
</g>
</g>
<!-- Node9 -->
<g id="Node000009" class="node">
<title>Node9</title>
<g id="a_Node000009"><a xlink:title=" ">
<polygon fill="#e0e0e0" stroke="#999999" points="150.75,-20.75 98,-20.75 98,0 150.75,0 150.75,-20.75"/>
<text text-anchor="middle" x="124.38" y="-7.25" font-family="Helvetica,sans-Serif" font-size="10.00">stdint.h</text>
</a>
</g>
</g>
<!-- Node8&#45;&gt;Node9 -->
<g id="edge11_Node000008_Node000009" class="edge">
<title>Node8&#45;&gt;Node9</title>
<g id="a_edge11_Node000008_Node000009"><a xlink:title=" ">
<path fill="none" stroke="#63b8ff" d="M129.04,-113.05C122.96,-104.25 114.78,-90.74 111.38,-77.5 107.45,-62.23 111.26,-44.72 115.75,-31.55"/>
<polygon fill="#63b8ff" stroke="#63b8ff" points="118.99,-32.87 119.31,-22.28 112.45,-30.36 118.99,-32.87"/>
</a>
</g>
</g>
<!-- Node10 -->
<g id="Node000010" class="node">
<title>Node10</title>
<g id="a_Node000010"><a xlink:href="vlcb__defs_8h.html" target="_top" xlink:title=" ">
<polygon fill="white" stroke="#666666" points="192.12,-77.5 120.62,-77.5 120.62,-56.75 192.12,-56.75 192.12,-77.5"/>
<text text-anchor="middle" x="156.38" y="-64" font-family="Helvetica,sans-Serif" font-size="10.00">vlcb_defs.h</text>
</a>
</g>
</g>
<!-- Node8&#45;&gt;Node10 -->
<g id="edge12_Node000008_Node000010" class="edge">
<title>Node8&#45;&gt;Node10</title>
<g id="a_edge12_Node000008_Node000010"><a xlink:title=" ">
<path fill="none" stroke="#63b8ff" d="M139.95,-113.09C142.45,-106.24 145.89,-96.84 148.97,-88.4"/>
<polygon fill="#63b8ff" stroke="#63b8ff" points="152.17,-89.84 152.31,-79.25 145.59,-87.44 152.17,-89.84"/>
</a>
</g>
</g>
<!-- Node10&#45;&gt;Node9 -->
<g id="edge13_Node000010_Node000009" class="edge">
<title>Node10&#45;&gt;Node9</title>
<g id="a_edge13_Node000010_Node000009"><a xlink:title=" ">
<path fill="none" stroke="#63b8ff" d="M150.65,-56.34C146.51,-49.25 140.78,-39.44 135.72,-30.79"/>
<polygon fill="#63b8ff" stroke="#63b8ff" points="138.88,-29.25 130.81,-22.39 132.83,-32.78 138.88,-29.25"/>
</a>
</g>
</g>
<!-- Node11&#45;&gt;Node8 -->
<g id="edge15_Node000011_Node000008" class="edge">
<title>Node11&#45;&gt;Node8</title>
<g id="a_edge15_Node000011_Node000008"><a xlink:title=" ">
<path fill="none" stroke="#63b8ff" d="M110.1,-169.84C114.24,-162.75 119.97,-152.94 125.03,-144.29"/>
<polygon fill="#63b8ff" stroke="#63b8ff" points="127.92,-146.28 129.94,-135.89 121.87,-142.75 127.92,-146.28"/>
</a>
</g>
</g>
</g>
</svg>
