<?xml version="1.0" encoding="UTF-8" standalone="no"?>
<!DOCTYPE svg PUBLIC "-//W3C//DTD SVG 1.1//EN"
 "http://www.w3.org/Graphics/SVG/1.1/DTD/svg11.dtd">
<!-- Generated by graphviz version 12.1.2 (20240928.0832)
 -->
<!-- Title: vlcb_net_adpt_ErrToStr Pages: 1 -->
<svg width="405pt" height="68pt"
 viewBox="0.00 0.00 404.75 67.75" xmlns="http://www.w3.org/2000/svg" xmlns:xlink="http://www.w3.org/1999/xlink">
<g id="graph0" class="graph" transform="scale(1 1) rotate(0) translate(4 63.75)">
<title>vlcb_net_adpt_ErrToStr</title>
<!-- Node1 -->
<g id="Node000001" class="node">
<title>Node1</title>
<g id="a_Node000001"><a xlink:title=" ">
<polygon fill="#999999" stroke="#666666" points="396.75,-39.75 269.75,-39.75 269.75,-19 396.75,-19 396.75,-39.75"/>
<text text-anchor="middle" x="333.25" y="-26.25" font-family="Helvetica,sans-Serif" font-size="10.00">vlcb_net_adpt_ErrToStr</text>
</a>
</g>
</g>
<!-- Node2 -->
<g id="Node000002" class="node">
<title>Node2</title>
<g id="a_Node000002"><a xlink:href="iface_8c.html#ab1c3b4ca7e0b59ee8d189751e2fe5d7e" target="_top" xlink:title=" ">
<polygon fill="white" stroke="#666666" points="232.25,-59.75 147.25,-59.75 147.25,-39 232.25,-39 232.25,-59.75"/>
<text text-anchor="middle" x="189.75" y="-46.25" font-family="Helvetica,sans-Serif" font-size="10.00">EgressPackets</text>
</a>
</g>
</g>
<!-- Node1&#45;&gt;Node2 -->
<g id="edge1_Node000001_Node000002" class="edge">
<title>Node1&#45;&gt;Node2</title>
<g id="a_edge1_Node000001_Node000002"><a xlink:title=" ">
<path fill="none" stroke="#63b8ff" d="M257.98,-39.87C249.32,-41.1 240.73,-42.31 232.73,-43.44"/>
<polygon fill="#63b8ff" stroke="#63b8ff" points="258.45,-43.34 267.86,-38.48 257.47,-36.41 258.45,-43.34"/>
</a>
</g>
</g>
<!-- Node4 -->
<g id="Node000004" class="node">
<title>Node4</title>
<g id="a_Node000004"><a xlink:href="iface_8c.html#aa4be352a2d0263581236f93031a0d76b" target="_top" xlink:title=" ">
<polygon fill="white" stroke="#666666" points="233.75,-20.75 145.75,-20.75 145.75,0 233.75,0 233.75,-20.75"/>
<text text-anchor="middle" x="189.75" y="-7.25" font-family="Helvetica,sans-Serif" font-size="10.00">IngressPackets</text>
</a>
</g>
</g>
<!-- Node1&#45;&gt;Node4 -->
<g id="edge3_Node000001_Node000004" class="edge">
<title>Node1&#45;&gt;Node4</title>
<g id="a_edge3_Node000001_Node000004"><a xlink:title=" ">
<path fill="none" stroke="#63b8ff" d="M258.11,-19.42C249.85,-18.31 241.65,-17.21 233.97,-16.18"/>
<polygon fill="#63b8ff" stroke="#63b8ff" points="257.49,-22.87 267.86,-20.73 258.42,-15.93 257.49,-22.87"/>
</a>
</g>
</g>
<!-- Node3 -->
<g id="Node000003" class="node">
<title>Node3</title>
<g id="a_Node000003"><a xlink:href="iface_8c.html#abc32be0df72f3b542d2f5a53ecdcfc66" target="_top" xlink:title=" ">
<polygon fill="white" stroke="#666666" points="109.75,-39.75 0,-39.75 0,-19 109.75,-19 109.75,-39.75"/>
<text text-anchor="middle" x="54.88" y="-26.25" font-family="Helvetica,sans-Serif" font-size="10.00">vlcb_net_iface_Poll</text>
</a>
</g>
</g>
<!-- Node2&#45;&gt;Node3 -->
<g id="edge2_Node000002_Node000003" class="edge">
<title>Node2&#45;&gt;Node3</title>
<g id="a_edge2_Node000002_Node000003"><a xlink:title=" ">
<path fill="none" stroke="#63b8ff" d="M135.79,-41.4C127.33,-40.13 118.58,-38.81 110.09,-37.54"/>
<polygon fill="#63b8ff" stroke="#63b8ff" points="135.17,-44.85 145.58,-42.88 136.21,-37.93 135.17,-44.85"/>
</a>
</g>
</g>
<!-- Node4&#45;&gt;Node3 -->
<g id="edge4_Node000004_Node000003" class="edge">
<title>Node4&#45;&gt;Node3</title>
<g id="a_edge4_Node000004_Node000003"><a xlink:title=" ">
<path fill="none" stroke="#63b8ff" d="M134.42,-18.14C126.35,-19.3 118.03,-20.49 109.97,-21.64"/>
<polygon fill="#63b8ff" stroke="#63b8ff" points="134.71,-21.64 144.11,-16.76 133.72,-14.71 134.71,-21.64"/>
</a>
</g>
</g>
</g>
</svg>
