<?xml version="1.0" encoding="UTF-8" standalone="no"?>
<!DOCTYPE svg PUBLIC "-//W3C//DTD SVG 1.1//EN"
 "http://www.w3.org/Graphics/SVG/1.1/DTD/svg11.dtd">
<!-- Generated by graphviz version 12.1.2 (20240928.0832)
 -->
<!-- Title: adapter.c Pages: 1 -->
<svg width="651pt" height="313pt"
 viewBox="0.00 0.00 650.75 312.50" xmlns="http://www.w3.org/2000/svg" xmlns:xlink="http://www.w3.org/1999/xlink">
<g id="graph0" class="graph" transform="scale(1 1) rotate(0) translate(4 308.5)">
<title>adapter.c</title>
<!-- Node1 -->
<g id="Node000001" class="node">
<title>Node1</title>
<g id="a_Node000001"><a xlink:title=" ">
<polygon fill="#999999" stroke="#666666" points="287.88,-304.5 226.88,-304.5 226.88,-283.75 287.88,-283.75 287.88,-304.5"/>
<text text-anchor="middle" x="257.38" y="-291" font-family="Helvetica,sans-Serif" font-size="10.00">adapter.c</text>
</a>
</g>
</g>
<!-- Node2 -->
<g id="Node000002" class="node">
<title>Node2</title>
<g id="a_Node000002"><a xlink:href="adapter_8h.html" target="_top" xlink:title=" ">
<polygon fill="white" stroke="#666666" points="309.25,-247.75 205.5,-247.75 205.5,-227 309.25,-227 309.25,-247.75"/>
<text text-anchor="middle" x="257.38" y="-234.25" font-family="Helvetica,sans-Serif" font-size="10.00">vlcb/net/adapter.h</text>
</a>
</g>
</g>
<!-- Node1&#45;&gt;Node2 -->
<g id="edge1_Node000001_Node000002" class="edge">
<title>Node1&#45;&gt;Node2</title>
<g id="a_edge1_Node000001_Node000002"><a xlink:title=" ">
<path fill="none" stroke="#63b8ff" d="M257.38,-283.34C257.38,-276.72 257.38,-267.72 257.38,-259.52"/>
<polygon fill="#63b8ff" stroke="#63b8ff" points="260.88,-259.59 257.38,-249.59 253.88,-259.59 260.88,-259.59"/>
</a>
</g>
</g>
<!-- Node9 -->
<g id="Node000009" class="node">
<title>Node9</title>
<g id="a_Node000009"><a xlink:href="common_2inc_2vlcb_2common_2can_8h.html" target="_top" xlink:title=" ">
<polygon fill="white" stroke="#666666" points="192,-134.25 80.75,-134.25 80.75,-113.5 192,-113.5 192,-134.25"/>
<text text-anchor="middle" x="136.38" y="-120.75" font-family="Helvetica,sans-Serif" font-size="10.00">vlcb/common/can.h</text>
</a>
</g>
</g>
<!-- Node1&#45;&gt;Node9 -->
<g id="edge18_Node000001_Node000009" class="edge">
<title>Node1&#45;&gt;Node9</title>
<g id="a_edge18_Node000001_Node000009"><a xlink:title=" ">
<path fill="none" stroke="#63b8ff" d="M226.69,-285.32C185.57,-273.03 114.18,-244.8 83.38,-191 72.73,-172.41 91.34,-153.57 109.37,-140.79"/>
<polygon fill="#63b8ff" stroke="#63b8ff" points="110.92,-143.96 117.33,-135.52 107.06,-138.12 110.92,-143.96"/>
</a>
</g>
</g>
<!-- Node13 -->
<g id="Node000013" class="node">
<title>Node13</title>
<g id="a_Node000013"><a xlink:title=" ">
<polygon fill="#e0e0e0" stroke="#999999" points="381.88,-247.75 326.88,-247.75 326.88,-227 381.88,-227 381.88,-247.75"/>
<text text-anchor="middle" x="354.38" y="-234.25" font-family="Helvetica,sans-Serif" font-size="10.00">assert.h</text>
</a>
</g>
</g>
<!-- Node1&#45;&gt;Node13 -->
<g id="edge17_Node000001_Node000013" class="edge">
<title>Node1&#45;&gt;Node13</title>
<g id="a_edge17_Node000001_Node000013"><a xlink:title=" ">
<path fill="none" stroke="#63b8ff" d="M274.72,-283.34C289.34,-275.08 310.51,-263.13 327.35,-253.63"/>
<polygon fill="#63b8ff" stroke="#63b8ff" points="328.88,-256.79 335.87,-248.82 325.44,-250.69 328.88,-256.79"/>
</a>
</g>
</g>
<!-- Node3 -->
<g id="Node000003" class="node">
<title>Node3</title>
<g id="a_Node000003"><a xlink:title=" ">
<polygon fill="#e0e0e0" stroke="#999999" points="64.75,-77.5 0,-77.5 0,-56.75 64.75,-56.75 64.75,-77.5"/>
<text text-anchor="middle" x="32.38" y="-64" font-family="Helvetica,sans-Serif" font-size="10.00">inttypes.h</text>
</a>
</g>
</g>
<!-- Node2&#45;&gt;Node3 -->
<g id="edge2_Node000002_Node000003" class="edge">
<title>Node2&#45;&gt;Node3</title>
<g id="a_edge2_Node000002_Node000003"><a xlink:title=" ">
<path fill="none" stroke="#63b8ff" d="M205.28,-234.79C167.39,-231.03 117.05,-220.31 83.38,-191 52.71,-164.3 40.1,-116.22 35.22,-88.79"/>
<polygon fill="#63b8ff" stroke="#63b8ff" points="38.73,-88.61 33.72,-79.28 31.82,-89.7 38.73,-88.61"/>
</a>
</g>
</g>
<!-- Node4 -->
<g id="Node000004" class="node">
<title>Node4</title>
<g id="a_Node000004"><a xlink:title=" ">
<polygon fill="#e0e0e0" stroke="#999999" points="287.88,-77.5 226.88,-77.5 226.88,-56.75 287.88,-56.75 287.88,-77.5"/>
<text text-anchor="middle" x="257.38" y="-64" font-family="Helvetica,sans-Serif" font-size="10.00">stdbool.h</text>
</a>
</g>
</g>
<!-- Node2&#45;&gt;Node4 -->
<g id="edge3_Node000002_Node000004" class="edge">
<title>Node2&#45;&gt;Node4</title>
<g id="a_edge3_Node000002_Node000004"><a xlink:title=" ">
<path fill="none" stroke="#63b8ff" d="M283.22,-226.54C298.47,-219.24 316.47,-207.64 325.38,-191 329.72,-182.87 328.04,-179.08 325.38,-170.25 315.41,-137.31 290.94,-105.27 274.24,-86.12"/>
<polygon fill="#63b8ff" stroke="#63b8ff" points="277.07,-84.02 267.78,-78.93 271.86,-88.7 277.07,-84.02"/>
</a>
</g>
</g>
<!-- Node5 -->
<g id="Node000005" class="node">
<title>Node5</title>
<g id="a_Node000005"><a xlink:href="error_8h.html" target="_top" xlink:title=" ">
<polygon fill="white" stroke="#666666" points="488.25,-191 372.5,-191 372.5,-170.25 488.25,-170.25 488.25,-191"/>
<text text-anchor="middle" x="430.38" y="-177.5" font-family="Helvetica,sans-Serif" font-size="10.00">vlcb/platform/error.h</text>
</a>
</g>
</g>
<!-- Node2&#45;&gt;Node5 -->
<g id="edge4_Node000002_Node000005" class="edge">
<title>Node2&#45;&gt;Node5</title>
<g id="a_edge4_Node000002_Node000005"><a xlink:title=" ">
<path fill="none" stroke="#63b8ff" d="M288.3,-226.59C316.26,-217.74 357.65,-204.64 388.56,-194.86"/>
<polygon fill="#63b8ff" stroke="#63b8ff" points="389.5,-198.23 397.98,-191.88 387.39,-191.56 389.5,-198.23"/>
</a>
</g>
</g>
<!-- Node6 -->
<g id="Node000006" class="node">
<title>Node6</title>
<g id="a_Node000006"><a xlink:href="interface_8h.html" target="_top" xlink:title=" ">
<polygon fill="white" stroke="#666666" points="642.75,-191 506,-191 506,-170.25 642.75,-170.25 642.75,-191"/>
<text text-anchor="middle" x="574.38" y="-177.5" font-family="Helvetica,sans-Serif" font-size="10.00">vlcb/platform/interface.h</text>
</a>
</g>
</g>
<!-- Node2&#45;&gt;Node6 -->
<g id="edge5_Node000002_Node000006" class="edge">
<title>Node2&#45;&gt;Node6</title>
<g id="a_edge5_Node000002_Node000006"><a xlink:title=" ">
<path fill="none" stroke="#63b8ff" d="M309.72,-227.33C363.5,-218.05 447.44,-203.55 506.34,-193.38"/>
<polygon fill="#63b8ff" stroke="#63b8ff" points="506.65,-196.87 515.9,-191.72 505.45,-189.98 506.65,-196.87"/>
</a>
</g>
</g>
<!-- Node8 -->
<g id="Node000008" class="node">
<title>Node8</title>
<g id="a_Node000008"><a xlink:href="packet_8h.html" target="_top" xlink:title=" ">
<polygon fill="white" stroke="#666666" points="316.38,-191 198.38,-191 198.38,-170.25 316.38,-170.25 316.38,-191"/>
<text text-anchor="middle" x="257.38" y="-177.5" font-family="Helvetica,sans-Serif" font-size="10.00">adapter/can/packet.h</text>
</a>
</g>
</g>
<!-- Node2&#45;&gt;Node8 -->
<g id="edge7_Node000002_Node000008" class="edge">
<title>Node2&#45;&gt;Node8</title>
<g id="a_edge7_Node000002_Node000008"><a xlink:title=" ">
<path fill="none" stroke="#63b8ff" d="M257.38,-226.59C257.38,-219.97 257.38,-210.97 257.38,-202.77"/>
<polygon fill="#63b8ff" stroke="#63b8ff" points="260.88,-202.84 257.38,-192.84 253.88,-202.84 260.88,-202.84"/>
</a>
</g>
</g>
<!-- Node12 -->
<g id="Node000012" class="node">
<title>Node12</title>
<g id="a_Node000012"><a xlink:href="addr_8h.html" target="_top" xlink:title=" ">
<polygon fill="white" stroke="#666666" points="180.38,-191 92.38,-191 92.38,-170.25 180.38,-170.25 180.38,-191"/>
<text text-anchor="middle" x="136.38" y="-177.5" font-family="Helvetica,sans-Serif" font-size="10.00">vlcb/net/addr.h</text>
</a>
</g>
</g>
<!-- Node2&#45;&gt;Node12 -->
<g id="edge15_Node000002_Node000012" class="edge">
<title>Node2&#45;&gt;Node12</title>
<g id="a_edge15_Node000002_Node000012"><a xlink:title=" ">
<path fill="none" stroke="#63b8ff" d="M235.74,-226.59C216.9,-218.06 189.34,-205.59 168.02,-195.94"/>
<polygon fill="#63b8ff" stroke="#63b8ff" points="169.75,-192.89 159.2,-191.95 166.87,-199.26 169.75,-192.89"/>
</a>
</g>
</g>
<!-- Node7 -->
<g id="Node000007" class="node">
<title>Node7</title>
<g id="a_Node000007"><a xlink:title=" ">
<polygon fill="#e0e0e0" stroke="#999999" points="601.88,-134.25 546.88,-134.25 546.88,-113.5 601.88,-113.5 601.88,-134.25"/>
<text text-anchor="middle" x="574.38" y="-120.75" font-family="Helvetica,sans-Serif" font-size="10.00">stddef.h</text>
</a>
</g>
</g>
<!-- Node6&#45;&gt;Node7 -->
<g id="edge6_Node000006_Node000007" class="edge">
<title>Node6&#45;&gt;Node7</title>
<g id="a_edge6_Node000006_Node000007"><a xlink:title=" ">
<path fill="none" stroke="#63b8ff" d="M574.38,-169.84C574.38,-163.22 574.38,-154.22 574.38,-146.02"/>
<polygon fill="#63b8ff" stroke="#63b8ff" points="577.88,-146.09 574.38,-136.09 570.88,-146.09 577.88,-146.09"/>
</a>
</g>
</g>
<!-- Node8&#45;&gt;Node4 -->
<g id="edge8_Node000008_Node000004" class="edge">
<title>Node8&#45;&gt;Node4</title>
<g id="a_edge8_Node000008_Node000004"><a xlink:title=" ">
<path fill="none" stroke="#63b8ff" d="M257.38,-170.12C257.38,-152.35 257.38,-113.72 257.38,-89.43"/>
<polygon fill="#63b8ff" stroke="#63b8ff" points="260.88,-89.44 257.38,-79.44 253.88,-89.44 260.88,-89.44"/>
</a>
</g>
</g>
<!-- Node8&#45;&gt;Node9 -->
<g id="edge9_Node000008_Node000009" class="edge">
<title>Node8&#45;&gt;Node9</title>
<g id="a_edge9_Node000008_Node000009"><a xlink:title=" ">
<path fill="none" stroke="#63b8ff" d="M235.74,-169.84C216.9,-161.31 189.34,-148.84 168.02,-139.19"/>
<polygon fill="#63b8ff" stroke="#63b8ff" points="169.75,-136.14 159.2,-135.2 166.87,-142.51 169.75,-136.14"/>
</a>
</g>
</g>
<!-- Node9&#45;&gt;Node3 -->
<g id="edge10_Node000009_Node000003" class="edge">
<title>Node9&#45;&gt;Node3</title>
<g id="a_edge10_Node000009_Node000003"><a xlink:title=" ">
<path fill="none" stroke="#63b8ff" d="M117.78,-113.09C101.96,-104.76 78.98,-92.66 60.84,-83.11"/>
<polygon fill="#63b8ff" stroke="#63b8ff" points="62.63,-80.09 52.15,-78.53 59.36,-86.29 62.63,-80.09"/>
</a>
</g>
</g>
<!-- Node9&#45;&gt;Node4 -->
<g id="edge11_Node000009_Node000004" class="edge">
<title>Node9&#45;&gt;Node4</title>
<g id="a_edge11_Node000009_Node000004"><a xlink:title=" ">
<path fill="none" stroke="#63b8ff" d="M158.01,-113.09C176.85,-104.56 204.41,-92.09 225.73,-82.44"/>
<polygon fill="#63b8ff" stroke="#63b8ff" points="226.88,-85.76 234.55,-78.45 224,-79.39 226.88,-85.76"/>
</a>
</g>
</g>
<!-- Node10 -->
<g id="Node000010" class="node">
<title>Node10</title>
<g id="a_Node000010"><a xlink:title=" ">
<polygon fill="#e0e0e0" stroke="#999999" points="161.75,-20.75 109,-20.75 109,0 161.75,0 161.75,-20.75"/>
<text text-anchor="middle" x="135.38" y="-7.25" font-family="Helvetica,sans-Serif" font-size="10.00">stdint.h</text>
</a>
</g>
</g>
<!-- Node9&#45;&gt;Node10 -->
<g id="edge12_Node000009_Node000010" class="edge">
<title>Node9&#45;&gt;Node10</title>
<g id="a_edge12_Node000009_Node000010"><a xlink:title=" ">
<path fill="none" stroke="#63b8ff" d="M132.51,-113.33C129.07,-104.28 124.29,-90.22 122.38,-77.5 120.05,-62.09 123.67,-44.81 127.67,-31.78"/>
<polygon fill="#63b8ff" stroke="#63b8ff" points="130.88,-33.21 130.8,-22.62 124.26,-30.95 130.88,-33.21"/>
</a>
</g>
</g>
<!-- Node11 -->
<g id="Node000011" class="node">
<title>Node11</title>
<g id="a_Node000011"><a xlink:href="vlcb__defs_8h.html" target="_top" xlink:title=" ">
<polygon fill="white" stroke="#666666" points="203.12,-77.5 131.62,-77.5 131.62,-56.75 203.12,-56.75 203.12,-77.5"/>
<text text-anchor="middle" x="167.38" y="-64" font-family="Helvetica,sans-Serif" font-size="10.00">vlcb_defs.h</text>
</a>
</g>
</g>
<!-- Node9&#45;&gt;Node11 -->
<g id="edge13_Node000009_Node000011" class="edge">
<title>Node9&#45;&gt;Node11</title>
<g id="a_edge13_Node000009_Node000011"><a xlink:title=" ">
<path fill="none" stroke="#63b8ff" d="M141.92,-113.09C145.88,-106.08 151.36,-96.41 156.22,-87.83"/>
<polygon fill="#63b8ff" stroke="#63b8ff" points="159.25,-89.57 161.14,-79.15 153.16,-86.12 159.25,-89.57"/>
</a>
</g>
</g>
<!-- Node11&#45;&gt;Node10 -->
<g id="edge14_Node000011_Node000010" class="edge">
<title>Node11&#45;&gt;Node10</title>
<g id="a_edge14_Node000011_Node000010"><a xlink:title=" ">
<path fill="none" stroke="#63b8ff" d="M161.65,-56.34C157.51,-49.25 151.78,-39.44 146.72,-30.79"/>
<polygon fill="#63b8ff" stroke="#63b8ff" points="149.88,-29.25 141.81,-22.39 143.83,-32.78 149.88,-29.25"/>
</a>
</g>
</g>
<!-- Node12&#45;&gt;Node9 -->
<g id="edge16_Node000012_Node000009" class="edge">
<title>Node12&#45;&gt;Node9</title>
<g id="a_edge16_Node000012_Node000009"><a xlink:title=" ">
<path fill="none" stroke="#63b8ff" d="M136.38,-169.84C136.38,-163.22 136.38,-154.22 136.38,-146.02"/>
<polygon fill="#63b8ff" stroke="#63b8ff" points="139.88,-146.09 136.38,-136.09 132.88,-146.09 139.88,-146.09"/>
</a>
</g>
</g>
</g>
</svg>
