<?xml version="1.0" encoding="UTF-8" standalone="no"?>
<!DOCTYPE svg PUBLIC "-//W3C//DTD SVG 1.1//EN"
 "http://www.w3.org/Graphics/SVG/1.1/DTD/svg11.dtd">
<!-- Generated by graphviz version 12.1.2 (20240928.0832)
 -->
<!-- Title: addr.h Pages: 1 -->
<svg width="269pt" height="199pt"
 viewBox="0.00 0.00 268.50 199.00" xmlns="http://www.w3.org/2000/svg" xmlns:xlink="http://www.w3.org/1999/xlink">
<g id="graph0" class="graph" transform="scale(1 1) rotate(0) translate(4 195)">
<title>addr.h</title>
<!-- Node1 -->
<g id="Node000001" class="node">
<title>Node1</title>
<g id="a_Node000001"><a xlink:title=" ">
<polygon fill="#999999" stroke="#666666" points="165.38,-191 119.38,-191 119.38,-170.25 165.38,-170.25 165.38,-191"/>
<text text-anchor="middle" x="142.38" y="-177.5" font-family="Helvetica,sans-Serif" font-size="10.00">addr.h</text>
</a>
</g>
</g>
<!-- Node2 -->
<g id="Node000002" class="node">
<title>Node2</title>
<g id="a_Node000002"><a xlink:href="common_2inc_2vlcb_2common_2can_8h.html" target="_top" xlink:title=" ">
<polygon fill="white" stroke="#666666" points="198,-134.25 86.75,-134.25 86.75,-113.5 198,-113.5 198,-134.25"/>
<text text-anchor="middle" x="142.38" y="-120.75" font-family="Helvetica,sans-Serif" font-size="10.00">vlcb/common/can.h</text>
</a>
</g>
</g>
<!-- Node1&#45;&gt;Node2 -->
<g id="edge1_Node000001_Node000002" class="edge">
<title>Node1&#45;&gt;Node2</title>
<g id="a_edge1_Node000001_Node000002"><a xlink:title=" ">
<path fill="none" stroke="#63b8ff" d="M142.38,-169.84C142.38,-163.22 142.38,-154.22 142.38,-146.02"/>
<polygon fill="#63b8ff" stroke="#63b8ff" points="145.88,-146.09 142.38,-136.09 138.88,-146.09 145.88,-146.09"/>
</a>
</g>
</g>
<!-- Node3 -->
<g id="Node000003" class="node">
<title>Node3</title>
<g id="a_Node000003"><a xlink:title=" ">
<polygon fill="#e0e0e0" stroke="#999999" points="64.75,-77.5 0,-77.5 0,-56.75 64.75,-56.75 64.75,-77.5"/>
<text text-anchor="middle" x="32.38" y="-64" font-family="Helvetica,sans-Serif" font-size="10.00">inttypes.h</text>
</a>
</g>
</g>
<!-- Node2&#45;&gt;Node3 -->
<g id="edge2_Node000002_Node000003" class="edge">
<title>Node2&#45;&gt;Node3</title>
<g id="a_edge2_Node000002_Node000003"><a xlink:title=" ">
<path fill="none" stroke="#63b8ff" d="M122.71,-113.09C105.82,-104.68 81.21,-92.43 61.94,-82.84"/>
<polygon fill="#63b8ff" stroke="#63b8ff" points="63.74,-79.83 53.23,-78.5 60.62,-86.09 63.74,-79.83"/>
</a>
</g>
</g>
<!-- Node4 -->
<g id="Node000004" class="node">
<title>Node4</title>
<g id="a_Node000004"><a xlink:title=" ">
<polygon fill="#e0e0e0" stroke="#999999" points="143.88,-77.5 82.88,-77.5 82.88,-56.75 143.88,-56.75 143.88,-77.5"/>
<text text-anchor="middle" x="113.38" y="-64" font-family="Helvetica,sans-Serif" font-size="10.00">stdbool.h</text>
</a>
</g>
</g>
<!-- Node2&#45;&gt;Node4 -->
<g id="edge3_Node000002_Node000004" class="edge">
<title>Node2&#45;&gt;Node4</title>
<g id="a_edge3_Node000002_Node000004"><a xlink:title=" ">
<path fill="none" stroke="#63b8ff" d="M137.19,-113.09C133.48,-106.08 128.36,-96.41 123.81,-87.83"/>
<polygon fill="#63b8ff" stroke="#63b8ff" points="127,-86.36 119.22,-79.17 120.81,-89.64 127,-86.36"/>
</a>
</g>
</g>
<!-- Node5 -->
<g id="Node000005" class="node">
<title>Node5</title>
<g id="a_Node000005"><a xlink:title=" ">
<polygon fill="#e0e0e0" stroke="#999999" points="227.75,-20.75 175,-20.75 175,0 227.75,0 227.75,-20.75"/>
<text text-anchor="middle" x="201.38" y="-7.25" font-family="Helvetica,sans-Serif" font-size="10.00">stdint.h</text>
</a>
</g>
</g>
<!-- Node2&#45;&gt;Node5 -->
<g id="edge4_Node000002_Node000005" class="edge">
<title>Node2&#45;&gt;Node5</title>
<g id="a_edge4_Node000002_Node000005"><a xlink:title=" ">
<path fill="none" stroke="#63b8ff" d="M147.41,-113.37C156.98,-95.27 178.01,-55.53 190.81,-31.35"/>
<polygon fill="#63b8ff" stroke="#63b8ff" points="193.9,-32.99 195.48,-22.51 187.71,-29.71 193.9,-32.99"/>
</a>
</g>
</g>
<!-- Node6 -->
<g id="Node000006" class="node">
<title>Node6</title>
<g id="a_Node000006"><a xlink:href="opcode_8h.html" target="_top" xlink:title=" ">
<polygon fill="white" stroke="#666666" points="260.5,-77.5 200.25,-77.5 200.25,-56.75 260.5,-56.75 260.5,-77.5"/>
<text text-anchor="middle" x="230.38" y="-64" font-family="Helvetica,sans-Serif" font-size="10.00">opcode.h</text>
</a>
</g>
</g>
<!-- Node2&#45;&gt;Node6 -->
<g id="edge5_Node000002_Node000006" class="edge">
<title>Node2&#45;&gt;Node6</title>
<g id="a_edge5_Node000002_Node000006"><a xlink:title=" ">
<path fill="none" stroke="#63b8ff" d="M158.11,-113.09C171.25,-104.91 190.22,-93.11 205.43,-83.65"/>
<polygon fill="#63b8ff" stroke="#63b8ff" points="206.85,-86.88 213.49,-78.63 203.15,-80.94 206.85,-86.88"/>
</a>
</g>
</g>
<!-- Node6&#45;&gt;Node5 -->
<g id="edge6_Node000006_Node000005" class="edge">
<title>Node6&#45;&gt;Node5</title>
<g id="a_edge6_Node000006_Node000005"><a xlink:title=" ">
<path fill="none" stroke="#63b8ff" d="M225.19,-56.34C221.48,-49.33 216.36,-39.66 211.81,-31.08"/>
<polygon fill="#63b8ff" stroke="#63b8ff" points="215,-29.61 207.22,-22.42 208.81,-32.89 215,-29.61"/>
</a>
</g>
</g>
</g>
</svg>
