<?xml version="1.0" encoding="UTF-8" standalone="no"?>
<!DOCTYPE svg PUBLIC "-//W3C//DTD SVG 1.1//EN"
 "http://www.w3.org/Graphics/SVG/1.1/DTD/svg11.dtd">
<!-- Generated by graphviz version 12.1.2 (20240928.0832)
 -->
<!-- Title: addr.h Pages: 1 -->
<svg width="1081pt" height="313pt"
 viewBox="0.00 0.00 1081.38 312.50" xmlns="http://www.w3.org/2000/svg" xmlns:xlink="http://www.w3.org/1999/xlink">
<g id="graph0" class="graph" transform="scale(1 1) rotate(0) translate(4 308.5)">
<title>addr.h</title>
<!-- Node1 -->
<g id="Node000001" class="node">
<title>Node1</title>
<g id="a_Node000001"><a xlink:title=" ">
<polygon fill="#999999" stroke="#666666" points="856.75,-304.5 810.75,-304.5 810.75,-283.75 856.75,-283.75 856.75,-304.5"/>
<text text-anchor="middle" x="833.75" y="-291" font-family="Helvetica,sans-Serif" font-size="10.00">addr.h</text>
</a>
</g>
</g>
<!-- Node2 -->
<g id="Node000002" class="node">
<title>Node2</title>
<g id="a_Node000002"><a xlink:href="adapter_8h.html" target="_top" xlink:title=" ">
<polygon fill="white" stroke="#666666" points="285.62,-247.75 223.88,-247.75 223.88,-227 285.62,-227 285.62,-247.75"/>
<text text-anchor="middle" x="254.75" y="-234.25" font-family="Helvetica,sans-Serif" font-size="10.00">adapter.h</text>
</a>
</g>
</g>
<!-- Node1&#45;&gt;Node2 -->
<g id="edge1_Node000001_Node000002" class="edge">
<title>Node1&#45;&gt;Node2</title>
<g id="a_edge1_Node000001_Node000002"><a xlink:title=" ">
<path fill="none" stroke="#63b8ff" d="M798.93,-289.83C694.55,-279.96 385.38,-250.73 285.94,-241.32"/>
<polygon fill="#63b8ff" stroke="#63b8ff" points="798.54,-293.31 808.83,-290.77 799.2,-286.34 798.54,-293.31"/>
</a>
</g>
</g>
<!-- Node6 -->
<g id="Node000006" class="node">
<title>Node6</title>
<g id="a_Node000006"><a xlink:href="iface__can_8c.html" target="_top" xlink:title=" ">
<polygon fill="white" stroke="#666666" points="560.12,-77.5 489.38,-77.5 489.38,-56.75 560.12,-56.75 560.12,-77.5"/>
<text text-anchor="middle" x="524.75" y="-64" font-family="Helvetica,sans-Serif" font-size="10.00">iface_can.c</text>
</a>
</g>
</g>
<!-- Node1&#45;&gt;Node6 -->
<g id="edge36_Node000001_Node000006" class="edge">
<title>Node1&#45;&gt;Node6</title>
<g id="a_edge36_Node000001_Node000006"><a xlink:title=" ">
<path fill="none" stroke="#63b8ff" d="M828.15,-272.66C820.2,-246.54 803.54,-201.03 776.75,-170.25 746.2,-135.15 731.22,-132.53 688.75,-113.5 665.9,-103.26 601.41,-86.69 560.44,-76.66"/>
<polygon fill="#63b8ff" stroke="#63b8ff" points="824.72,-273.4 830.86,-282.03 831.45,-271.45 824.72,-273.4"/>
</a>
</g>
</g>
<!-- Node9 -->
<g id="Node000009" class="node">
<title>Node9</title>
<g id="a_Node000009"><a xlink:href="iface__can__svc_8c.html" target="_top" xlink:title=" ">
<polygon fill="white" stroke="#666666" points="432,-134.25 339.5,-134.25 339.5,-113.5 432,-113.5 432,-134.25"/>
<text text-anchor="middle" x="385.75" y="-120.75" font-family="Helvetica,sans-Serif" font-size="10.00">iface_can_svc.c</text>
</a>
</g>
</g>
<!-- Node1&#45;&gt;Node9 -->
<g id="edge37_Node000001_Node000009" class="edge">
<title>Node1&#45;&gt;Node9</title>
<g id="a_edge37_Node000001_Node000009"><a xlink:title=" ">
<path fill="none" stroke="#63b8ff" d="M799.38,-286.07C736.49,-272.47 599.46,-239.61 491.75,-191 456.16,-174.94 418.22,-148.77 398.82,-134.65"/>
<polygon fill="#63b8ff" stroke="#63b8ff" points="798.6,-289.48 809.11,-288.14 800.05,-282.64 798.6,-289.48"/>
</a>
</g>
</g>
<!-- Node19 -->
<g id="Node000019" class="node">
<title>Node19</title>
<g id="a_Node000019"><a xlink:href="addr_8c.html" target="_top" xlink:title=" ">
<polygon fill="white" stroke="#666666" points="1073.38,-247.75 1028.12,-247.75 1028.12,-227 1073.38,-227 1073.38,-247.75"/>
<text text-anchor="middle" x="1050.75" y="-234.25" font-family="Helvetica,sans-Serif" font-size="10.00">addr.c</text>
</a>
</g>
</g>
<!-- Node1&#45;&gt;Node19 -->
<g id="edge29_Node000001_Node000019" class="edge">
<title>Node1&#45;&gt;Node19</title>
<g id="a_edge29_Node000001_Node000019"><a xlink:title=" ">
<path fill="none" stroke="#63b8ff" d="M867.98,-284.51C904.19,-275.39 963,-260.58 1013.75,-247.75 1018.25,-246.61 1023.05,-245.4 1027.66,-244.23"/>
<polygon fill="#63b8ff" stroke="#63b8ff" points="867.36,-281.06 858.52,-286.89 869.07,-287.84 867.36,-281.06"/>
</a>
</g>
</g>
<!-- Node20 -->
<g id="Node000020" class="node">
<title>Node20</title>
<g id="a_Node000020"><a xlink:href="socket_2datagram_8c.html" target="_top" xlink:title=" ">
<polygon fill="white" stroke="#666666" points="1035.5,-134.25 964,-134.25 964,-113.5 1035.5,-113.5 1035.5,-134.25"/>
<text text-anchor="middle" x="999.75" y="-120.75" font-family="Helvetica,sans-Serif" font-size="10.00">datagram.c</text>
</a>
</g>
</g>
<!-- Node1&#45;&gt;Node20 -->
<g id="edge30_Node000001_Node000020" class="edge">
<title>Node1&#45;&gt;Node20</title>
<g id="a_edge30_Node000001_Node000020"><a xlink:title=" ">
<path fill="none" stroke="#63b8ff" d="M861.45,-277.74C891.2,-260.06 938.31,-228.59 968.75,-191 982.95,-173.46 992.39,-148.34 996.83,-134.67"/>
<polygon fill="#63b8ff" stroke="#63b8ff" points="859.9,-274.59 853.01,-282.65 863.42,-280.64 859.9,-274.59"/>
</a>
</g>
</g>
<!-- Node21 -->
<g id="Node000021" class="node">
<title>Node21</title>
<g id="a_Node000021"><a xlink:href="socket_2datagram_8h.html" target="_top" xlink:title=" ">
<polygon fill="white" stroke="#666666" points="933.88,-191 861.62,-191 861.62,-170.25 933.88,-170.25 933.88,-191"/>
<text text-anchor="middle" x="897.75" y="-177.5" font-family="Helvetica,sans-Serif" font-size="10.00">datagram.h</text>
</a>
</g>
</g>
<!-- Node1&#45;&gt;Node21 -->
<g id="edge31_Node000001_Node000021" class="edge">
<title>Node1&#45;&gt;Node21</title>
<g id="a_edge31_Node000001_Node000021"><a xlink:title=" ">
<path fill="none" stroke="#63b8ff" d="M844.8,-273.87C858.57,-249.88 881.56,-209.83 892.12,-191.43"/>
<polygon fill="#63b8ff" stroke="#63b8ff" points="841.9,-271.89 839.96,-282.31 847.97,-275.38 841.9,-271.89"/>
</a>
</g>
</g>
<!-- Node22 -->
<g id="Node000022" class="node">
<title>Node22</title>
<g id="a_Node000022"><a xlink:href="socket_8h.html" target="_top" xlink:title=" ">
<polygon fill="white" stroke="#666666" points="768,-247.75 711.5,-247.75 711.5,-227 768,-227 768,-247.75"/>
<text text-anchor="middle" x="739.75" y="-234.25" font-family="Helvetica,sans-Serif" font-size="10.00">socket.h</text>
</a>
</g>
</g>
<!-- Node1&#45;&gt;Node22 -->
<g id="edge38_Node000001_Node000022" class="edge">
<title>Node1&#45;&gt;Node22</title>
<g id="a_edge38_Node000001_Node000022"><a xlink:title=" ">
<path fill="none" stroke="#63b8ff" d="M807.4,-277.78C791.05,-268.25 770.54,-256.31 756.41,-248.08"/>
<polygon fill="#63b8ff" stroke="#63b8ff" points="805.23,-280.57 815.64,-282.58 808.76,-274.52 805.23,-280.57"/>
</a>
</g>
</g>
<!-- Node3 -->
<g id="Node000003" class="node">
<title>Node3</title>
<g id="a_Node000003"><a xlink:href="adapter_8c.html" target="_top" xlink:title=" ">
<polygon fill="white" stroke="#666666" points="207.25,-191 146.25,-191 146.25,-170.25 207.25,-170.25 207.25,-191"/>
<text text-anchor="middle" x="176.75" y="-177.5" font-family="Helvetica,sans-Serif" font-size="10.00">adapter.c</text>
</a>
</g>
</g>
<!-- Node2&#45;&gt;Node3 -->
<g id="edge2_Node000002_Node000003" class="edge">
<title>Node2&#45;&gt;Node3</title>
<g id="a_edge2_Node000002_Node000003"><a xlink:title=" ">
<path fill="none" stroke="#63b8ff" d="M231.72,-220.21C218.36,-210.83 201.96,-199.32 190.57,-191.33"/>
<polygon fill="#63b8ff" stroke="#63b8ff" points="229.37,-222.84 239.57,-225.72 233.39,-217.11 229.37,-222.84"/>
</a>
</g>
</g>
<!-- Node4 -->
<g id="Node000004" class="node">
<title>Node4</title>
<g id="a_Node000004"><a xlink:href="iface_8c.html" target="_top" xlink:title=" ">
<polygon fill="white" stroke="#666666" points="335.88,-77.5 287.62,-77.5 287.62,-56.75 335.88,-56.75 335.88,-77.5"/>
<text text-anchor="middle" x="311.75" y="-64" font-family="Helvetica,sans-Serif" font-size="10.00">iface.c</text>
</a>
</g>
</g>
<!-- Node2&#45;&gt;Node4 -->
<g id="edge3_Node000002_Node000004" class="edge">
<title>Node2&#45;&gt;Node4</title>
<g id="a_edge3_Node000002_Node000004"><a xlink:title=" ">
<path fill="none" stroke="#63b8ff" d="M250.77,-215.28C247.01,-189.8 244.04,-146.28 259.75,-113.5 267.1,-98.16 282.3,-85.87 294.37,-77.98"/>
<polygon fill="#63b8ff" stroke="#63b8ff" points="247.3,-215.74 252.4,-225.02 254.2,-214.58 247.3,-215.74"/>
</a>
</g>
</g>
<!-- Node5 -->
<g id="Node000005" class="node">
<title>Node5</title>
<g id="a_Node000005"><a xlink:href="iface_8h.html" target="_top" xlink:title=" ">
<polygon fill="white" stroke="#666666" points="549.25,-191 500.25,-191 500.25,-170.25 549.25,-170.25 549.25,-191"/>
<text text-anchor="middle" x="524.75" y="-177.5" font-family="Helvetica,sans-Serif" font-size="10.00">iface.h</text>
</a>
</g>
</g>
<!-- Node2&#45;&gt;Node5 -->
<g id="edge4_Node000002_Node000005" class="edge">
<title>Node2&#45;&gt;Node5</title>
<g id="a_edge4_Node000002_Node000005"><a xlink:title=" ">
<path fill="none" stroke="#63b8ff" d="M297.12,-227.78C354.08,-216.23 453.51,-196.07 499.76,-186.69"/>
<polygon fill="#63b8ff" stroke="#63b8ff" points="296.57,-224.32 287.47,-229.74 297.97,-231.18 296.57,-224.32"/>
</a>
</g>
</g>
<!-- Node2&#45;&gt;Node6 -->
<g id="edge24_Node000002_Node000006" class="edge">
<title>Node2&#45;&gt;Node6</title>
<g id="a_edge24_Node000002_Node000006"><a xlink:title=" ">
<path fill="none" stroke="#63b8ff" d="M261.73,-215.82C272.21,-188.14 294.74,-139.39 330.75,-113.5 378.21,-79.38 447.56,-70.53 489.21,-68.46"/>
<polygon fill="#63b8ff" stroke="#63b8ff" points="258.46,-214.56 258.37,-225.15 265.05,-216.93 258.46,-214.56"/>
</a>
</g>
</g>
<!-- Node7 -->
<g id="Node000007" class="node">
<title>Node7</title>
<g id="a_Node000007"><a xlink:href="iface__can_8h.html" target="_top" xlink:title=" ">
<polygon fill="white" stroke="#666666" points="207.5,-134.25 136,-134.25 136,-113.5 207.5,-113.5 207.5,-134.25"/>
<text text-anchor="middle" x="171.75" y="-120.75" font-family="Helvetica,sans-Serif" font-size="10.00">iface_can.h</text>
</a>
</g>
</g>
<!-- Node2&#45;&gt;Node7 -->
<g id="edge25_Node000002_Node000007" class="edge">
<title>Node2&#45;&gt;Node7</title>
<g id="a_edge25_Node000002_Node000007"><a xlink:title=" ">
<path fill="none" stroke="#63b8ff" d="M212.19,-231.81C186,-226.56 154.37,-215.27 137.75,-191 124.91,-172.25 145.8,-148.03 160.1,-134.72"/>
<polygon fill="#63b8ff" stroke="#63b8ff" points="211.45,-235.24 221.9,-233.51 212.66,-228.34 211.45,-235.24"/>
</a>
</g>
</g>
<!-- Node2&#45;&gt;Node9 -->
<g id="edge26_Node000002_Node000009" class="edge">
<title>Node2&#45;&gt;Node9</title>
<g id="a_edge26_Node000002_Node000009"><a xlink:title=" ">
<path fill="none" stroke="#63b8ff" d="M274.41,-219.64C302.13,-196.05 351.83,-153.75 374.24,-134.68"/>
<polygon fill="#63b8ff" stroke="#63b8ff" points="272.42,-216.74 267.07,-225.89 276.96,-222.07 272.42,-216.74"/>
</a>
</g>
</g>
<!-- Node17 -->
<g id="Node000017" class="node">
<title>Node17</title>
<g id="a_Node000017"><a xlink:href="packet__parse_8h.html" target="_top" xlink:title=" ">
<polygon fill="white" stroke="#666666" points="89.5,-191 0,-191 0,-170.25 89.5,-170.25 89.5,-191"/>
<text text-anchor="middle" x="44.75" y="-177.5" font-family="Helvetica,sans-Serif" font-size="10.00">packet_parse.h</text>
</a>
</g>
</g>
<!-- Node2&#45;&gt;Node17 -->
<g id="edge27_Node000002_Node000017" class="edge">
<title>Node2&#45;&gt;Node17</title>
<g id="a_edge27_Node000002_Node000017"><a xlink:title=" ">
<path fill="none" stroke="#63b8ff" d="M213.06,-225.51C175.05,-215.6 119.39,-201.08 82.62,-191.5"/>
<polygon fill="#63b8ff" stroke="#63b8ff" points="211.74,-228.78 222.3,-227.91 213.51,-222 211.74,-228.78"/>
</a>
</g>
</g>
<!-- Node5&#45;&gt;Node4 -->
<g id="edge5_Node000005_Node000004" class="edge">
<title>Node5&#45;&gt;Node4</title>
<g id="a_edge5_Node000005_Node000004"><a xlink:title=" ">
<path fill="none" stroke="#63b8ff" d="M506.62,-162.44C490.41,-147.82 465.45,-127.08 440.75,-113.5 406.42,-94.63 362.76,-81.24 336.05,-74.1"/>
<polygon fill="#63b8ff" stroke="#63b8ff" points="503.84,-164.63 513.56,-168.83 508.58,-159.48 503.84,-164.63"/>
</a>
</g>
</g>
<!-- Node5&#45;&gt;Node6 -->
<g id="edge6_Node000005_Node000006" class="edge">
<title>Node5&#45;&gt;Node6</title>
<g id="a_edge6_Node000005_Node000006"><a xlink:title=" ">
<path fill="none" stroke="#63b8ff" d="M548.32,-162.95C557.1,-155.31 566.06,-145.46 570.75,-134.25 579.98,-112.19 556.35,-90.1 539.65,-77.86"/>
<polygon fill="#63b8ff" stroke="#63b8ff" points="546.23,-160.13 540.61,-169.12 550.61,-165.6 546.23,-160.13"/>
</a>
</g>
</g>
<!-- Node5&#45;&gt;Node7 -->
<g id="edge7_Node000005_Node000007" class="edge">
<title>Node5&#45;&gt;Node7</title>
<g id="a_edge7_Node000005_Node000007"><a xlink:title=" ">
<path fill="none" stroke="#63b8ff" d="M488.59,-174.02C420.83,-163.51 275.47,-140.96 207.79,-130.47"/>
<polygon fill="#63b8ff" stroke="#63b8ff" points="488.01,-177.47 498.43,-175.54 489.09,-170.55 488.01,-177.47"/>
</a>
</g>
</g>
<!-- Node5&#45;&gt;Node9 -->
<g id="edge10_Node000005_Node000009" class="edge">
<title>Node5&#45;&gt;Node9</title>
<g id="a_edge10_Node000005_Node000009"><a xlink:title=" ">
<path fill="none" stroke="#63b8ff" d="M489.49,-165.74C464.78,-156 432.36,-143.23 410.39,-134.58"/>
<polygon fill="#63b8ff" stroke="#63b8ff" points="487.9,-168.87 498.49,-169.28 490.47,-162.36 487.9,-168.87"/>
</a>
</g>
</g>
<!-- Node10 -->
<g id="Node000010" class="node">
<title>Node10</title>
<g id="a_Node000010"><a xlink:href="iface__vlcb_8h.html" target="_top" xlink:title=" ">
<polygon fill="white" stroke="#666666" points="562,-134.25 487.5,-134.25 487.5,-113.5 562,-113.5 562,-134.25"/>
<text text-anchor="middle" x="524.75" y="-120.75" font-family="Helvetica,sans-Serif" font-size="10.00">iface_vlcb.h</text>
</a>
</g>
</g>
<!-- Node5&#45;&gt;Node10 -->
<g id="edge12_Node000005_Node000010" class="edge">
<title>Node5&#45;&gt;Node10</title>
<g id="a_edge12_Node000005_Node000010"><a xlink:title=" ">
<path fill="none" stroke="#63b8ff" d="M524.75,-158.38C524.75,-150.16 524.75,-141.18 524.75,-134.58"/>
<polygon fill="#63b8ff" stroke="#63b8ff" points="521.25,-158.32 524.75,-168.32 528.25,-158.32 521.25,-158.32"/>
</a>
</g>
</g>
<!-- Node11 -->
<g id="Node000011" class="node">
<title>Node11</title>
<g id="a_Node000011"><a xlink:href="module_2inc_2vlcb_2module_8h.html" target="_top" xlink:title=" ">
<polygon fill="white" stroke="#666666" points="813.62,-134.25 751.88,-134.25 751.88,-113.5 813.62,-113.5 813.62,-134.25"/>
<text text-anchor="middle" x="782.75" y="-120.75" font-family="Helvetica,sans-Serif" font-size="10.00">module.h</text>
</a>
</g>
</g>
<!-- Node5&#45;&gt;Node11 -->
<g id="edge15_Node000005_Node000011" class="edge">
<title>Node5&#45;&gt;Node11</title>
<g id="a_edge15_Node000005_Node000011"><a xlink:title=" ">
<path fill="none" stroke="#63b8ff" d="M560.58,-172.02C611.42,-161.23 703.67,-141.66 751.74,-131.45"/>
<polygon fill="#63b8ff" stroke="#63b8ff" points="560.02,-168.56 550.97,-174.06 561.48,-175.41 560.02,-168.56"/>
</a>
</g>
</g>
<!-- Node16 -->
<g id="Node000016" class="node">
<title>Node16</title>
<g id="a_Node000016"><a xlink:href="net_2inc_2vlcb_2net_8h.html" target="_top" xlink:title=" ">
<polygon fill="white" stroke="#666666" points="658.12,-134.25 617.38,-134.25 617.38,-113.5 658.12,-113.5 658.12,-134.25"/>
<text text-anchor="middle" x="637.75" y="-120.75" font-family="Helvetica,sans-Serif" font-size="10.00">net.h</text>
</a>
</g>
</g>
<!-- Node5&#45;&gt;Node16 -->
<g id="edge23_Node000005_Node000016" class="edge">
<title>Node5&#45;&gt;Node16</title>
<g id="a_edge23_Node000005_Node000016"><a xlink:title=" ">
<path fill="none" stroke="#63b8ff" d="M555.05,-164.95C574.92,-155.32 600.34,-143 617.72,-134.58"/>
<polygon fill="#63b8ff" stroke="#63b8ff" points="553.79,-161.67 546.31,-169.18 556.84,-167.97 553.79,-161.67"/>
</a>
</g>
</g>
<!-- Node7&#45;&gt;Node4 -->
<g id="edge8_Node000007_Node000004" class="edge">
<title>Node7&#45;&gt;Node4</title>
<g id="a_edge8_Node000007_Node000004"><a xlink:title=" ">
<path fill="none" stroke="#63b8ff" d="M207.33,-108.96C232.39,-99.16 265.29,-86.29 287.41,-77.65"/>
<polygon fill="#63b8ff" stroke="#63b8ff" points="206.23,-105.63 198.19,-112.54 208.78,-112.15 206.23,-105.63"/>
</a>
</g>
</g>
<!-- Node8 -->
<g id="Node000008" class="node">
<title>Node8</title>
<g id="a_Node000008"><a xlink:href="iface__vlcb_8c.html" target="_top" xlink:title=" ">
<polygon fill="white" stroke="#666666" points="208.62,-77.5 134.88,-77.5 134.88,-56.75 208.62,-56.75 208.62,-77.5"/>
<text text-anchor="middle" x="171.75" y="-64" font-family="Helvetica,sans-Serif" font-size="10.00">iface_vlcb.c</text>
</a>
</g>
</g>
<!-- Node7&#45;&gt;Node8 -->
<g id="edge9_Node000007_Node000008" class="edge">
<title>Node7&#45;&gt;Node8</title>
<g id="a_edge9_Node000007_Node000008"><a xlink:title=" ">
<path fill="none" stroke="#63b8ff" d="M171.75,-101.63C171.75,-93.41 171.75,-84.43 171.75,-77.83"/>
<polygon fill="#63b8ff" stroke="#63b8ff" points="168.25,-101.57 171.75,-111.57 175.25,-101.57 168.25,-101.57"/>
</a>
</g>
</g>
<!-- Node9&#45;&gt;Node6 -->
<g id="edge11_Node000009_Node000006" class="edge">
<title>Node9&#45;&gt;Node6</title>
<g id="a_edge11_Node000009_Node000006"><a xlink:title=" ">
<path fill="none" stroke="#63b8ff" d="M421.01,-108.99C445.72,-99.25 478.14,-86.48 500.11,-77.83"/>
<polygon fill="#63b8ff" stroke="#63b8ff" points="420.03,-105.61 412.01,-112.53 422.6,-112.12 420.03,-105.61"/>
</a>
</g>
</g>
<!-- Node10&#45;&gt;Node4 -->
<g id="edge13_Node000010_Node000004" class="edge">
<title>Node10&#45;&gt;Node4</title>
<g id="a_edge13_Node000010_Node000004"><a xlink:title=" ">
<path fill="none" stroke="#63b8ff" d="M476.23,-110.4C432.64,-99.2 370.41,-83.2 336.35,-74.45"/>
<polygon fill="#63b8ff" stroke="#63b8ff" points="475.14,-113.74 485.69,-112.84 476.88,-106.96 475.14,-113.74"/>
</a>
</g>
</g>
<!-- Node10&#45;&gt;Node6 -->
<g id="edge14_Node000010_Node000006" class="edge">
<title>Node10&#45;&gt;Node6</title>
<g id="a_edge14_Node000010_Node000006"><a xlink:title=" ">
<path fill="none" stroke="#63b8ff" d="M524.75,-101.63C524.75,-93.41 524.75,-84.43 524.75,-77.83"/>
<polygon fill="#63b8ff" stroke="#63b8ff" points="521.25,-101.57 524.75,-111.57 528.25,-101.57 521.25,-101.57"/>
</a>
</g>
</g>
<!-- Node12 -->
<g id="Node000012" class="node">
<title>Node12</title>
<g id="a_Node000012"><a xlink:href="module_8c.html" target="_top" xlink:title=" ">
<polygon fill="white" stroke="#666666" points="737.25,-20.75 676.25,-20.75 676.25,0 737.25,0 737.25,-20.75"/>
<text text-anchor="middle" x="706.75" y="-7.25" font-family="Helvetica,sans-Serif" font-size="10.00">module.c</text>
</a>
</g>
</g>
<!-- Node11&#45;&gt;Node12 -->
<g id="edge16_Node000011_Node000012" class="edge">
<title>Node11&#45;&gt;Node12</title>
<g id="a_edge16_Node000011_Node000012"><a xlink:title=" ">
<path fill="none" stroke="#63b8ff" d="M740.76,-113.79C721.09,-107.2 699.46,-96.07 687.75,-77.5 676.41,-59.52 690.03,-34.57 699.37,-21.04"/>
<polygon fill="#63b8ff" stroke="#63b8ff" points="739.68,-117.12 750.26,-116.64 741.69,-110.41 739.68,-117.12"/>
</a>
</g>
</g>
<!-- Node13 -->
<g id="Node000013" class="node">
<title>Node13</title>
<g id="a_Node000013"><a xlink:href="module_2src_2module_8h.html" target="_top" xlink:title=" ">
<polygon fill="white" stroke="#666666" points="639.62,-77.5 577.88,-77.5 577.88,-56.75 639.62,-56.75 639.62,-77.5"/>
<text text-anchor="middle" x="608.75" y="-64" font-family="Helvetica,sans-Serif" font-size="10.00">module.h</text>
</a>
</g>
</g>
<!-- Node11&#45;&gt;Node13 -->
<g id="edge17_Node000011_Node000013" class="edge">
<title>Node11&#45;&gt;Node13</title>
<g id="a_edge17_Node000011_Node000013"><a xlink:title=" ">
<path fill="none" stroke="#63b8ff" d="M740.72,-109.65C709.64,-99.87 668.01,-86.77 639.88,-77.92"/>
<polygon fill="#63b8ff" stroke="#63b8ff" points="739.61,-112.97 750.2,-112.63 741.71,-106.29 739.61,-112.97"/>
</a>
</g>
</g>
<!-- Node14 -->
<g id="Node000014" class="node">
<title>Node14</title>
<g id="a_Node000014"><a xlink:href="state__machine_8c.html" target="_top" xlink:title=" ">
<polygon fill="white" stroke="#666666" points="926.88,-20.75 830.62,-20.75 830.62,0 926.88,0 926.88,-20.75"/>
<text text-anchor="middle" x="878.75" y="-7.25" font-family="Helvetica,sans-Serif" font-size="10.00">state_machine.c</text>
</a>
</g>
</g>
<!-- Node11&#45;&gt;Node14 -->
<g id="edge19_Node000011_Node000014" class="edge">
<title>Node11&#45;&gt;Node14</title>
<g id="a_edge19_Node000011_Node000014"><a xlink:title=" ">
<path fill="none" stroke="#63b8ff" d="M798.23,-104.9C818.73,-81.08 854.18,-39.92 870.31,-21.18"/>
<polygon fill="#63b8ff" stroke="#63b8ff" points="795.79,-102.36 791.92,-112.22 801.1,-106.93 795.79,-102.36"/>
</a>
</g>
</g>
<!-- Node15 -->
<g id="Node000015" class="node">
<title>Node15</title>
<g id="a_Node000015"><a xlink:href="state__machine_8h.html" target="_top" xlink:title=" ">
<polygon fill="white" stroke="#666666" points="793.25,-77.5 696.25,-77.5 696.25,-56.75 793.25,-56.75 793.25,-77.5"/>
<text text-anchor="middle" x="744.75" y="-64" font-family="Helvetica,sans-Serif" font-size="10.00">state_machine.h</text>
</a>
</g>
</g>
<!-- Node11&#45;&gt;Node15 -->
<g id="edge20_Node000011_Node000015" class="edge">
<title>Node11&#45;&gt;Node15</title>
<g id="a_edge20_Node000011_Node000015"><a xlink:title=" ">
<path fill="none" stroke="#63b8ff" d="M769.4,-103.64C763.34,-94.91 756.44,-84.97 751.48,-77.83"/>
<polygon fill="#63b8ff" stroke="#63b8ff" points="766.52,-105.62 775.09,-111.84 772.27,-101.63 766.52,-105.62"/>
</a>
</g>
</g>
<!-- Node13&#45;&gt;Node12 -->
<g id="edge18_Node000013_Node000012" class="edge">
<title>Node13&#45;&gt;Node12</title>
<g id="a_edge18_Node000013_Node000012"><a xlink:title=" ">
<path fill="none" stroke="#63b8ff" d="M636.23,-50.78C653.27,-41.25 674.65,-29.31 689.38,-21.08"/>
<polygon fill="#63b8ff" stroke="#63b8ff" points="634.61,-47.67 627.59,-55.6 638.03,-53.78 634.61,-47.67"/>
</a>
</g>
</g>
<!-- Node15&#45;&gt;Node12 -->
<g id="edge21_Node000015_Node000012" class="edge">
<title>Node15&#45;&gt;Node12</title>
<g id="a_edge21_Node000015_Node000012"><a xlink:title=" ">
<path fill="none" stroke="#63b8ff" d="M731.4,-46.89C725.34,-38.16 718.44,-28.22 713.48,-21.08"/>
<polygon fill="#63b8ff" stroke="#63b8ff" points="728.52,-48.87 737.09,-55.09 734.27,-44.88 728.52,-48.87"/>
</a>
</g>
</g>
<!-- Node15&#45;&gt;Node14 -->
<g id="edge22_Node000015_Node000014" class="edge">
<title>Node15&#45;&gt;Node14</title>
<g id="a_edge22_Node000015_Node000014"><a xlink:title=" ">
<path fill="none" stroke="#63b8ff" d="M779.06,-52.11C802.85,-42.39 833.91,-29.69 855,-21.08"/>
<polygon fill="#63b8ff" stroke="#63b8ff" points="778.04,-48.74 770.11,-55.76 780.69,-55.22 778.04,-48.74"/>
</a>
</g>
</g>
<!-- Node18 -->
<g id="Node000018" class="node">
<title>Node18</title>
<g id="a_Node000018"><a xlink:href="packet__parse_8c.html" target="_top" xlink:title=" ">
<polygon fill="white" stroke="#666666" points="89.12,-134.25 0.38,-134.25 0.38,-113.5 89.12,-113.5 89.12,-134.25"/>
<text text-anchor="middle" x="44.75" y="-120.75" font-family="Helvetica,sans-Serif" font-size="10.00">packet_parse.c</text>
</a>
</g>
</g>
<!-- Node17&#45;&gt;Node18 -->
<g id="edge28_Node000017_Node000018" class="edge">
<title>Node17&#45;&gt;Node18</title>
<g id="a_edge28_Node000017_Node000018"><a xlink:title=" ">
<path fill="none" stroke="#63b8ff" d="M44.75,-158.38C44.75,-150.16 44.75,-141.18 44.75,-134.58"/>
<polygon fill="#63b8ff" stroke="#63b8ff" points="41.25,-158.32 44.75,-168.32 48.25,-158.32 41.25,-158.32"/>
</a>
</g>
</g>
<!-- Node21&#45;&gt;Node11 -->
<g id="edge34_Node000021_Node000011" class="edge">
<title>Node21&#45;&gt;Node11</title>
<g id="a_edge34_Node000021_Node000011"><a xlink:title=" ">
<path fill="none" stroke="#63b8ff" d="M866.92,-164.95C846.69,-155.32 820.82,-143 803.13,-134.58"/>
<polygon fill="#63b8ff" stroke="#63b8ff" points="865.29,-168.05 875.82,-169.19 868.3,-161.73 865.29,-168.05"/>
</a>
</g>
</g>
<!-- Node21&#45;&gt;Node12 -->
<g id="edge33_Node000021_Node000012" class="edge">
<title>Node21&#45;&gt;Node12</title>
<g id="a_edge33_Node000021_Node000012"><a xlink:title=" ">
<path fill="none" stroke="#63b8ff" d="M886.75,-160.17C871.03,-133.81 839.9,-86.61 802.75,-56.75 782.78,-40.7 756.19,-28.7 736.06,-21.09"/>
<polygon fill="#63b8ff" stroke="#63b8ff" points="883.7,-161.89 891.76,-168.78 889.76,-158.37 883.7,-161.89"/>
</a>
</g>
</g>
<!-- Node21&#45;&gt;Node14 -->
<g id="edge35_Node000021_Node000014" class="edge">
<title>Node21&#45;&gt;Node14</title>
<g id="a_edge35_Node000021_Node000014"><a xlink:title=" ">
<path fill="none" stroke="#63b8ff" d="M905.23,-159.16C913.14,-134.34 923.05,-91.49 911.75,-56.75 907.23,-42.86 896.68,-29.67 888.71,-21.12"/>
<polygon fill="#63b8ff" stroke="#63b8ff" points="902.01,-157.76 902.09,-168.35 908.63,-160.02 902.01,-157.76"/>
</a>
</g>
</g>
<!-- Node21&#45;&gt;Node20 -->
<g id="edge32_Node000021_Node000020" class="edge">
<title>Node21&#45;&gt;Node20</title>
<g id="a_edge32_Node000021_Node000020"><a xlink:title=" ">
<path fill="none" stroke="#63b8ff" d="M926.1,-164.41C943.88,-154.86 966.27,-142.84 981.67,-134.58"/>
<polygon fill="#63b8ff" stroke="#63b8ff" points="924.47,-161.31 917.32,-169.12 927.79,-167.48 924.47,-161.31"/>
</a>
</g>
</g>
<!-- Node22&#45;&gt;Node4 -->
<g id="edge41_Node000022_Node000004" class="edge">
<title>Node22&#45;&gt;Node4</title>
<g id="a_edge41_Node000022_Node000004"><a xlink:title=" ">
<path fill="none" stroke="#63b8ff" d="M699.79,-231.86C607.1,-220.57 381.49,-188.08 330.75,-134.25 315.84,-118.43 312.53,-91.68 311.86,-77.54"/>
<polygon fill="#63b8ff" stroke="#63b8ff" points="699.34,-235.33 709.69,-233.05 700.17,-228.38 699.34,-235.33"/>
</a>
</g>
</g>
<!-- Node22&#45;&gt;Node5 -->
<g id="edge42_Node000022_Node000005" class="edge">
<title>Node22&#45;&gt;Node5</title>
<g id="a_edge42_Node000022_Node000005"><a xlink:title=" ">
<path fill="none" stroke="#63b8ff" d="M700.08,-226.27C656.14,-215.08 586.66,-197.39 549.74,-187.99"/>
<polygon fill="#63b8ff" stroke="#63b8ff" points="699.18,-229.66 709.73,-228.73 700.91,-222.87 699.18,-229.66"/>
</a>
</g>
</g>
<!-- Node22&#45;&gt;Node6 -->
<g id="edge43_Node000022_Node000006" class="edge">
<title>Node22&#45;&gt;Node6</title>
<g id="a_edge43_Node000022_Node000006"><a xlink:title=" ">
<path fill="none" stroke="#63b8ff" d="M723.29,-218.33C716.45,-210.31 708.72,-200.54 702.75,-191 682.59,-158.81 695.24,-138.62 666.75,-113.5 650.83,-99.46 597.03,-84.79 560.42,-76.06"/>
<polygon fill="#63b8ff" stroke="#63b8ff" points="720.53,-220.49 729.77,-225.69 725.79,-215.87 720.53,-220.49"/>
</a>
</g>
</g>
<!-- Node22&#45;&gt;Node14 -->
<g id="edge46_Node000022_Node000014" class="edge">
<title>Node22&#45;&gt;Node14</title>
<g id="a_edge46_Node000022_Node000014"><a xlink:title=" ">
<path fill="none" stroke="#63b8ff" d="M754.86,-217.87C761.57,-209.64 769.56,-199.84 776.75,-191 797.23,-165.81 805.66,-161.85 822.75,-134.25 847.31,-94.59 867.53,-42.34 875.31,-21.04"/>
<polygon fill="#63b8ff" stroke="#63b8ff" points="752.27,-215.51 748.65,-225.47 757.69,-219.94 752.27,-215.51"/>
</a>
</g>
</g>
<!-- Node22&#45;&gt;Node16 -->
<g id="edge44_Node000022_Node000016" class="edge">
<title>Node22&#45;&gt;Node16</title>
<g id="a_edge44_Node000022_Node000016"><a xlink:title=" ">
<path fill="none" stroke="#63b8ff" d="M708.82,-221.23C695.53,-213.58 680.6,-203.29 669.75,-191 654.56,-173.79 644.91,-148.09 640.52,-134.35"/>
<polygon fill="#63b8ff" stroke="#63b8ff" points="706.79,-224.11 717.24,-225.84 710.15,-217.97 706.79,-224.11"/>
</a>
</g>
</g>
<!-- Node22&#45;&gt;Node20 -->
<g id="edge39_Node000022_Node000020" class="edge">
<title>Node22&#45;&gt;Node20</title>
<g id="a_edge39_Node000022_Node000020"><a xlink:title=" ">
<path fill="none" stroke="#63b8ff" d="M779.81,-234.8C822.86,-231.5 891.92,-221.45 942.75,-191 966.41,-176.83 985.24,-149.38 994.15,-134.7"/>
<polygon fill="#63b8ff" stroke="#63b8ff" points="779.66,-231.3 769.91,-235.46 780.12,-238.29 779.66,-231.3"/>
</a>
</g>
</g>
<!-- Node22&#45;&gt;Node21 -->
<g id="edge40_Node000022_Node000021" class="edge">
<title>Node22&#45;&gt;Node21</title>
<g id="a_edge40_Node000022_Node000021"><a xlink:title=" ">
<path fill="none" stroke="#63b8ff" d="M778.66,-222.89C806.8,-213.14 844.16,-200.19 869.48,-191.42"/>
<polygon fill="#63b8ff" stroke="#63b8ff" points="777.73,-219.51 769.43,-226.09 780.02,-226.12 777.73,-219.51"/>
</a>
</g>
</g>
<!-- Node23 -->
<g id="Node000023" class="node">
<title>Node23</title>
<g id="a_Node000023"><a xlink:href="socket_8c.html" target="_top" xlink:title=" ">
<polygon fill="white" stroke="#666666" points="767.62,-191 711.88,-191 711.88,-170.25 767.62,-170.25 767.62,-191"/>
<text text-anchor="middle" x="739.75" y="-177.5" font-family="Helvetica,sans-Serif" font-size="10.00">socket.c</text>
</a>
</g>
</g>
<!-- Node22&#45;&gt;Node23 -->
<g id="edge45_Node000022_Node000023" class="edge">
<title>Node22&#45;&gt;Node23</title>
<g id="a_edge45_Node000022_Node000023"><a xlink:title=" ">
<path fill="none" stroke="#63b8ff" d="M739.75,-215.13C739.75,-206.91 739.75,-197.93 739.75,-191.33"/>
<polygon fill="#63b8ff" stroke="#63b8ff" points="736.25,-215.07 739.75,-225.07 743.25,-215.07 736.25,-215.07"/>
</a>
</g>
</g>
</g>
</svg>
