<?xml version="1.0" encoding="UTF-8" standalone="no"?>
<!DOCTYPE svg PUBLIC "-//W3C//DTD SVG 1.1//EN"
 "http://www.w3.org/Graphics/SVG/1.1/DTD/svg11.dtd">
<!-- Generated by graphviz version 12.1.2 (20240928.0832)
 -->
<!-- Title: addr.c Pages: 1 -->
<svg width="321pt" height="256pt"
 viewBox="0.00 0.00 320.88 255.75" xmlns="http://www.w3.org/2000/svg" xmlns:xlink="http://www.w3.org/1999/xlink">
<g id="graph0" class="graph" transform="scale(1 1) rotate(0) translate(4 251.75)">
<title>addr.c</title>
<!-- Node1 -->
<g id="Node000001" class="node">
<title>Node1</title>
<g id="a_Node000001"><a xlink:title=" ">
<polygon fill="#999999" stroke="#666666" points="233,-247.75 187.75,-247.75 187.75,-227 233,-227 233,-247.75"/>
<text text-anchor="middle" x="210.38" y="-234.25" font-family="Helvetica,sans-Serif" font-size="10.00">addr.c</text>
</a>
</g>
</g>
<!-- Node2 -->
<g id="Node000002" class="node">
<title>Node2</title>
<g id="a_Node000002"><a xlink:href="addr_8h.html" target="_top" xlink:title=" ">
<polygon fill="white" stroke="#666666" points="163.38,-191 75.38,-191 75.38,-170.25 163.38,-170.25 163.38,-191"/>
<text text-anchor="middle" x="119.38" y="-177.5" font-family="Helvetica,sans-Serif" font-size="10.00">vlcb/net/addr.h</text>
</a>
</g>
</g>
<!-- Node1&#45;&gt;Node2 -->
<g id="edge1_Node000001_Node000002" class="edge">
<title>Node1&#45;&gt;Node2</title>
<g id="a_edge1_Node000001_Node000002"><a xlink:title=" ">
<path fill="none" stroke="#63b8ff" d="M194.11,-226.59C180.52,-218.41 160.9,-206.61 145.17,-197.15"/>
<polygon fill="#63b8ff" stroke="#63b8ff" points="147.17,-194.27 136.8,-192.11 143.56,-200.26 147.17,-194.27"/>
</a>
</g>
</g>
<!-- Node3 -->
<g id="Node000003" class="node">
<title>Node3</title>
<g id="a_Node000003"><a xlink:href="common_2inc_2vlcb_2common_2can_8h.html" target="_top" xlink:title=" ">
<polygon fill="white" stroke="#666666" points="188,-134.25 76.75,-134.25 76.75,-113.5 188,-113.5 188,-134.25"/>
<text text-anchor="middle" x="132.38" y="-120.75" font-family="Helvetica,sans-Serif" font-size="10.00">vlcb/common/can.h</text>
</a>
</g>
</g>
<!-- Node1&#45;&gt;Node3 -->
<g id="edge10_Node000001_Node000003" class="edge">
<title>Node1&#45;&gt;Node3</title>
<g id="a_edge10_Node000001_Node000003"><a xlink:title=" ">
<path fill="none" stroke="#63b8ff" d="M205.54,-226.59C198.82,-213.34 185.95,-189.19 172.38,-170.25 165.53,-160.7 157.03,-150.83 149.62,-142.74"/>
<polygon fill="#63b8ff" stroke="#63b8ff" points="152.31,-140.49 142.91,-135.59 147.2,-145.28 152.31,-140.49"/>
</a>
</g>
</g>
<!-- Node5 -->
<g id="Node000005" class="node">
<title>Node5</title>
<g id="a_Node000005"><a xlink:title=" ">
<polygon fill="#e0e0e0" stroke="#999999" points="259.88,-77.5 198.88,-77.5 198.88,-56.75 259.88,-56.75 259.88,-77.5"/>
<text text-anchor="middle" x="229.38" y="-64" font-family="Helvetica,sans-Serif" font-size="10.00">stdbool.h</text>
</a>
</g>
</g>
<!-- Node1&#45;&gt;Node5 -->
<g id="edge9_Node000001_Node000005" class="edge">
<title>Node1&#45;&gt;Node5</title>
<g id="a_edge9_Node000001_Node000005"><a xlink:title=" ">
<path fill="none" stroke="#63b8ff" d="M211.45,-226.85C214.43,-200.48 222.83,-126.08 226.99,-89.28"/>
<polygon fill="#63b8ff" stroke="#63b8ff" points="230.45,-89.8 228.09,-79.47 223.49,-89.02 230.45,-89.8"/>
</a>
</g>
</g>
<!-- Node8 -->
<g id="Node000008" class="node">
<title>Node8</title>
<g id="a_Node000008"><a xlink:title=" ">
<polygon fill="#e0e0e0" stroke="#999999" points="312.88,-191 257.88,-191 257.88,-170.25 312.88,-170.25 312.88,-191"/>
<text text-anchor="middle" x="285.38" y="-177.5" font-family="Helvetica,sans-Serif" font-size="10.00">assert.h</text>
</a>
</g>
</g>
<!-- Node1&#45;&gt;Node8 -->
<g id="edge8_Node000001_Node000008" class="edge">
<title>Node1&#45;&gt;Node8</title>
<g id="a_edge8_Node000001_Node000008"><a xlink:title=" ">
<path fill="none" stroke="#63b8ff" d="M223.78,-226.59C234.66,-218.65 250.23,-207.28 262.99,-197.96"/>
<polygon fill="#63b8ff" stroke="#63b8ff" points="264.85,-200.94 270.86,-192.22 260.72,-195.29 264.85,-200.94"/>
</a>
</g>
</g>
<!-- Node2&#45;&gt;Node3 -->
<g id="edge2_Node000002_Node000003" class="edge">
<title>Node2&#45;&gt;Node3</title>
<g id="a_edge2_Node000002_Node000003"><a xlink:title=" ">
<path fill="none" stroke="#63b8ff" d="M121.7,-169.84C123.29,-163.14 125.46,-154.01 127.42,-145.73"/>
<polygon fill="#63b8ff" stroke="#63b8ff" points="130.82,-146.59 129.72,-136.05 124.01,-144.97 130.82,-146.59"/>
</a>
</g>
</g>
<!-- Node4 -->
<g id="Node000004" class="node">
<title>Node4</title>
<g id="a_Node000004"><a xlink:title=" ">
<polygon fill="#e0e0e0" stroke="#999999" points="64.75,-77.5 0,-77.5 0,-56.75 64.75,-56.75 64.75,-77.5"/>
<text text-anchor="middle" x="32.38" y="-64" font-family="Helvetica,sans-Serif" font-size="10.00">inttypes.h</text>
</a>
</g>
</g>
<!-- Node3&#45;&gt;Node4 -->
<g id="edge3_Node000003_Node000004" class="edge">
<title>Node3&#45;&gt;Node4</title>
<g id="a_edge3_Node000003_Node000004"><a xlink:title=" ">
<path fill="none" stroke="#63b8ff" d="M114.5,-113.09C99.28,-104.76 77.18,-92.66 59.74,-83.11"/>
<polygon fill="#63b8ff" stroke="#63b8ff" points="61.88,-80.29 51.43,-78.56 58.52,-86.43 61.88,-80.29"/>
</a>
</g>
</g>
<!-- Node3&#45;&gt;Node5 -->
<g id="edge4_Node000003_Node000005" class="edge">
<title>Node3&#45;&gt;Node5</title>
<g id="a_edge4_Node000003_Node000005"><a xlink:title=" ">
<path fill="none" stroke="#63b8ff" d="M149.72,-113.09C164.34,-104.83 185.51,-92.88 202.35,-83.38"/>
<polygon fill="#63b8ff" stroke="#63b8ff" points="203.88,-86.54 210.87,-78.57 200.44,-80.44 203.88,-86.54"/>
</a>
</g>
</g>
<!-- Node6 -->
<g id="Node000006" class="node">
<title>Node6</title>
<g id="a_Node000006"><a xlink:title=" ">
<polygon fill="#e0e0e0" stroke="#999999" points="147.75,-20.75 95,-20.75 95,0 147.75,0 147.75,-20.75"/>
<text text-anchor="middle" x="121.38" y="-7.25" font-family="Helvetica,sans-Serif" font-size="10.00">stdint.h</text>
</a>
</g>
</g>
<!-- Node3&#45;&gt;Node6 -->
<g id="edge5_Node000003_Node000006" class="edge">
<title>Node3&#45;&gt;Node6</title>
<g id="a_edge5_Node000003_Node000006"><a xlink:title=" ">
<path fill="none" stroke="#63b8ff" d="M126.4,-113.22C121.27,-104.32 114.25,-90.56 111.38,-77.5 108.01,-62.22 110.96,-44.71 114.51,-31.54"/>
<polygon fill="#63b8ff" stroke="#63b8ff" points="117.75,-32.9 117.33,-22.31 111.06,-30.85 117.75,-32.9"/>
</a>
</g>
</g>
<!-- Node7 -->
<g id="Node000007" class="node">
<title>Node7</title>
<g id="a_Node000007"><a xlink:href="opcode_8h.html" target="_top" xlink:title=" ">
<polygon fill="white" stroke="#666666" points="180.5,-77.5 120.25,-77.5 120.25,-56.75 180.5,-56.75 180.5,-77.5"/>
<text text-anchor="middle" x="150.38" y="-64" font-family="Helvetica,sans-Serif" font-size="10.00">opcode.h</text>
</a>
</g>
</g>
<!-- Node3&#45;&gt;Node7 -->
<g id="edge6_Node000003_Node000007" class="edge">
<title>Node3&#45;&gt;Node7</title>
<g id="a_edge6_Node000003_Node000007"><a xlink:title=" ">
<path fill="none" stroke="#63b8ff" d="M135.59,-113.09C137.82,-106.31 140.87,-97.05 143.61,-88.69"/>
<polygon fill="#63b8ff" stroke="#63b8ff" points="146.91,-89.86 146.71,-79.27 140.26,-87.67 146.91,-89.86"/>
</a>
</g>
</g>
<!-- Node7&#45;&gt;Node6 -->
<g id="edge7_Node000007_Node000006" class="edge">
<title>Node7&#45;&gt;Node6</title>
<g id="a_edge7_Node000007_Node000006"><a xlink:title=" ">
<path fill="none" stroke="#63b8ff" d="M145.19,-56.34C141.48,-49.33 136.36,-39.66 131.81,-31.08"/>
<polygon fill="#63b8ff" stroke="#63b8ff" points="135,-29.61 127.22,-22.42 128.81,-32.89 135,-29.61"/>
</a>
</g>
</g>
</g>
</svg>
