<?xml version="1.0" encoding="UTF-8" standalone="no"?>
<!DOCTYPE svg PUBLIC "-//W3C//DTD SVG 1.1//EN"
 "http://www.w3.org/Graphics/SVG/1.1/DTD/svg11.dtd">
<!-- Generated by graphviz version 12.1.2 (20240928.0832)
 -->
<!-- Title: addr.h Pages: 1 -->
<svg width="1119pt" height="313pt"
 viewBox="0.00 0.00 1119.25 312.50" xmlns="http://www.w3.org/2000/svg" xmlns:xlink="http://www.w3.org/1999/xlink">
<g id="graph0" class="graph" transform="scale(1 1) rotate(0) translate(4 308.5)">
<title>addr.h</title>
<!-- Node1 -->
<g id="Node000001" class="node">
<title>Node1</title>
<g id="a_Node000001"><a xlink:title=" ">
<polygon fill="#999999" stroke="#666666" points="595.5,-304.5 549.5,-304.5 549.5,-283.75 595.5,-283.75 595.5,-304.5"/>
<text text-anchor="middle" x="572.5" y="-291" font-family="Helvetica,sans-Serif" font-size="10.00">addr.h</text>
</a>
</g>
</g>
<!-- Node2 -->
<g id="Node000002" class="node">
<title>Node2</title>
<g id="a_Node000002"><a xlink:href="adapter_8h.html" target="_top" xlink:title=" ">
<polygon fill="white" stroke="#666666" points="266.38,-247.75 204.62,-247.75 204.62,-227 266.38,-227 266.38,-247.75"/>
<text text-anchor="middle" x="235.5" y="-234.25" font-family="Helvetica,sans-Serif" font-size="10.00">adapter.h</text>
</a>
</g>
</g>
<!-- Node1&#45;&gt;Node2 -->
<g id="edge1_Node000001_Node000002" class="edge">
<title>Node1&#45;&gt;Node2</title>
<g id="a_edge1_Node000001_Node000002"><a xlink:title=" ">
<path fill="none" stroke="#63b8ff" d="M538.09,-287.53C472.33,-276.85 329.74,-253.69 266.63,-243.43"/>
<polygon fill="#63b8ff" stroke="#63b8ff" points="537.14,-290.93 547.58,-289.08 538.27,-284.02 537.14,-290.93"/>
</a>
</g>
</g>
<!-- Node18 -->
<g id="Node000018" class="node">
<title>Node18</title>
<g id="a_Node000018"><a xlink:href="addr_8c.html" target="_top" xlink:title=" ">
<polygon fill="white" stroke="#666666" points="561.12,-247.75 515.88,-247.75 515.88,-227 561.12,-227 561.12,-247.75"/>
<text text-anchor="middle" x="538.5" y="-234.25" font-family="Helvetica,sans-Serif" font-size="10.00">addr.c</text>
</a>
</g>
</g>
<!-- Node1&#45;&gt;Node18 -->
<g id="edge26_Node000001_Node000018" class="edge">
<title>Node1&#45;&gt;Node18</title>
<g id="a_edge26_Node000001_Node000018"><a xlink:title=" ">
<path fill="none" stroke="#63b8ff" d="M560.38,-273.6C555,-264.95 548.91,-255.14 544.53,-248.08"/>
<polygon fill="#63b8ff" stroke="#63b8ff" points="557.37,-275.4 565.62,-282.05 563.32,-271.71 557.37,-275.4"/>
</a>
</g>
</g>
<!-- Node19 -->
<g id="Node000019" class="node">
<title>Node19</title>
<g id="a_Node000019"><a xlink:href="socket_2datagram_8c.html" target="_top" xlink:title=" ">
<polygon fill="white" stroke="#666666" points="1111.25,-134.25 1039.75,-134.25 1039.75,-113.5 1111.25,-113.5 1111.25,-134.25"/>
<text text-anchor="middle" x="1075.5" y="-120.75" font-family="Helvetica,sans-Serif" font-size="10.00">datagram.c</text>
</a>
</g>
</g>
<!-- Node1&#45;&gt;Node19 -->
<g id="edge27_Node000001_Node000019" class="edge">
<title>Node1&#45;&gt;Node19</title>
<g id="a_edge27_Node000001_Node000019"><a xlink:title=" ">
<path fill="none" stroke="#63b8ff" d="M607.17,-290.06C705.64,-280.72 984.24,-249.55 1051.5,-191 1068.26,-176.4 1073.32,-149.14 1074.85,-134.6"/>
<polygon fill="#63b8ff" stroke="#63b8ff" points="606.95,-286.57 597.32,-290.98 607.6,-293.54 606.95,-286.57"/>
</a>
</g>
</g>
<!-- Node20 -->
<g id="Node000020" class="node">
<title>Node20</title>
<g id="a_Node000020"><a xlink:href="socket_8h.html" target="_top" xlink:title=" ">
<polygon fill="white" stroke="#666666" points="635.75,-247.75 579.25,-247.75 579.25,-227 635.75,-227 635.75,-247.75"/>
<text text-anchor="middle" x="607.5" y="-234.25" font-family="Helvetica,sans-Serif" font-size="10.00">socket.h</text>
</a>
</g>
</g>
<!-- Node1&#45;&gt;Node20 -->
<g id="edge28_Node000001_Node000020" class="edge">
<title>Node1&#45;&gt;Node20</title>
<g id="a_edge28_Node000001_Node000020"><a xlink:title=" ">
<path fill="none" stroke="#63b8ff" d="M584.8,-273.89C590.38,-265.16 596.73,-255.22 601.3,-248.08"/>
<polygon fill="#63b8ff" stroke="#63b8ff" points="582.01,-271.75 579.57,-282.06 587.91,-275.52 582.01,-271.75"/>
</a>
</g>
</g>
<!-- Node3 -->
<g id="Node000003" class="node">
<title>Node3</title>
<g id="a_Node000003"><a xlink:href="adapter_8c.html" target="_top" xlink:title=" ">
<polygon fill="white" stroke="#666666" points="61,-191 0,-191 0,-170.25 61,-170.25 61,-191"/>
<text text-anchor="middle" x="30.5" y="-177.5" font-family="Helvetica,sans-Serif" font-size="10.00">adapter.c</text>
</a>
</g>
</g>
<!-- Node2&#45;&gt;Node3 -->
<g id="edge2_Node000002_Node000003" class="edge">
<title>Node2&#45;&gt;Node3</title>
<g id="a_edge2_Node000002_Node000003"><a xlink:title=" ">
<path fill="none" stroke="#63b8ff" d="M193.3,-225.11C154.01,-214.61 96.37,-199.22 61.26,-189.84"/>
<polygon fill="#63b8ff" stroke="#63b8ff" points="192.34,-228.47 202.9,-227.67 194.14,-221.71 192.34,-228.47"/>
</a>
</g>
</g>
<!-- Node4 -->
<g id="Node000004" class="node">
<title>Node4</title>
<g id="a_Node000004"><a xlink:href="iface_8c.html" target="_top" xlink:title=" ">
<polygon fill="white" stroke="#666666" points="464.62,-77.5 416.38,-77.5 416.38,-56.75 464.62,-56.75 464.62,-77.5"/>
<text text-anchor="middle" x="440.5" y="-64" font-family="Helvetica,sans-Serif" font-size="10.00">iface.c</text>
</a>
</g>
</g>
<!-- Node2&#45;&gt;Node4 -->
<g id="edge3_Node000002_Node000004" class="edge">
<title>Node2&#45;&gt;Node4</title>
<g id="a_edge3_Node000002_Node000004"><a xlink:title=" ">
<path fill="none" stroke="#63b8ff" d="M232.07,-215.32C228.94,-188.18 228.08,-141.2 253.5,-113.5 300.74,-62.03 338.82,-94.79 406.5,-77.5 409.58,-76.71 412.82,-75.86 416.02,-75"/>
<polygon fill="#63b8ff" stroke="#63b8ff" points="228.58,-215.64 233.43,-225.06 235.51,-214.68 228.58,-215.64"/>
</a>
</g>
</g>
<!-- Node5 -->
<g id="Node000005" class="node">
<title>Node5</title>
<g id="a_Node000005"><a xlink:href="iface_8h.html" target="_top" xlink:title=" ">
<polygon fill="white" stroke="#666666" points="457,-191 408,-191 408,-170.25 457,-170.25 457,-191"/>
<text text-anchor="middle" x="432.5" y="-177.5" font-family="Helvetica,sans-Serif" font-size="10.00">iface.h</text>
</a>
</g>
</g>
<!-- Node2&#45;&gt;Node5 -->
<g id="edge4_Node000002_Node000005" class="edge">
<title>Node2&#45;&gt;Node5</title>
<g id="a_edge4_Node000002_Node000005"><a xlink:title=" ">
<path fill="none" stroke="#63b8ff" d="M277.6,-224.67C317.16,-213.68 375.01,-197.6 407.67,-188.53"/>
<polygon fill="#63b8ff" stroke="#63b8ff" points="276.87,-221.24 268.17,-227.29 278.75,-227.99 276.87,-221.24"/>
</a>
</g>
</g>
<!-- Node6 -->
<g id="Node000006" class="node">
<title>Node6</title>
<g id="a_Node000006"><a xlink:href="iface__can_8c.html" target="_top" xlink:title=" ">
<polygon fill="white" stroke="#666666" points="397.88,-77.5 327.12,-77.5 327.12,-56.75 397.88,-56.75 397.88,-77.5"/>
<text text-anchor="middle" x="362.5" y="-64" font-family="Helvetica,sans-Serif" font-size="10.00">iface_can.c</text>
</a>
</g>
</g>
<!-- Node2&#45;&gt;Node6 -->
<g id="edge22_Node000002_Node000006" class="edge">
<title>Node2&#45;&gt;Node6</title>
<g id="a_edge22_Node000002_Node000006"><a xlink:title=" ">
<path fill="none" stroke="#63b8ff" d="M193.03,-233.45C164.01,-228.98 127.49,-217.95 108.5,-191 99.8,-178.65 87.19,-139.51 109.5,-113.5 140.18,-77.73 272.22,-86.41 318.5,-77.5 321.26,-76.97 324.12,-76.4 326.98,-75.82"/>
<polygon fill="#63b8ff" stroke="#63b8ff" points="192.27,-236.88 202.64,-234.71 193.18,-229.94 192.27,-236.88"/>
</a>
</g>
</g>
<!-- Node7 -->
<g id="Node000007" class="node">
<title>Node7</title>
<g id="a_Node000007"><a xlink:href="iface__can_8h.html" target="_top" xlink:title=" ">
<polygon fill="white" stroke="#666666" points="334.25,-134.25 262.75,-134.25 262.75,-113.5 334.25,-113.5 334.25,-134.25"/>
<text text-anchor="middle" x="298.5" y="-120.75" font-family="Helvetica,sans-Serif" font-size="10.00">iface_can.h</text>
</a>
</g>
</g>
<!-- Node2&#45;&gt;Node7 -->
<g id="edge23_Node000002_Node000007" class="edge">
<title>Node2&#45;&gt;Node7</title>
<g id="a_edge23_Node000002_Node000007"><a xlink:title=" ">
<path fill="none" stroke="#63b8ff" d="M246.38,-217.12C259.93,-193.13 282.56,-153.08 292.96,-134.68"/>
<polygon fill="#63b8ff" stroke="#63b8ff" points="243.49,-215.12 241.62,-225.55 249.58,-218.57 243.49,-215.12"/>
</a>
</g>
</g>
<!-- Node16 -->
<g id="Node000016" class="node">
<title>Node16</title>
<g id="a_Node000016"><a xlink:href="packet__parse_8h.html" target="_top" xlink:title=" ">
<polygon fill="white" stroke="#666666" points="207.25,-191 117.75,-191 117.75,-170.25 207.25,-170.25 207.25,-191"/>
<text text-anchor="middle" x="162.5" y="-177.5" font-family="Helvetica,sans-Serif" font-size="10.00">packet_parse.h</text>
</a>
</g>
</g>
<!-- Node2&#45;&gt;Node16 -->
<g id="edge24_Node000002_Node000016" class="edge">
<title>Node2&#45;&gt;Node16</title>
<g id="a_edge24_Node000002_Node000016"><a xlink:title=" ">
<path fill="none" stroke="#63b8ff" d="M213.58,-219.94C201.14,-210.61 185.99,-199.25 175.44,-191.33"/>
<polygon fill="#63b8ff" stroke="#63b8ff" points="211.14,-222.48 221.24,-225.68 215.34,-216.88 211.14,-222.48"/>
</a>
</g>
</g>
<!-- Node5&#45;&gt;Node4 -->
<g id="edge5_Node000005_Node000004" class="edge">
<title>Node5&#45;&gt;Node4</title>
<g id="a_edge5_Node000005_Node000004"><a xlink:title=" ">
<path fill="none" stroke="#63b8ff" d="M453.49,-162.54C461.34,-154.82 469.36,-145.02 473.5,-134.25 481.52,-113.42 463.39,-90.35 450.96,-77.72"/>
<polygon fill="#63b8ff" stroke="#63b8ff" points="451.39,-159.71 446.34,-169.02 456.1,-164.9 451.39,-159.71"/>
</a>
</g>
</g>
<!-- Node5&#45;&gt;Node6 -->
<g id="edge6_Node000005_Node000006" class="edge">
<title>Node5&#45;&gt;Node6</title>
<g id="a_edge6_Node000005_Node000006"><a xlink:title=" ">
<path fill="none" stroke="#63b8ff" d="M408.3,-162.84C398.74,-155.12 388.41,-145.23 381.5,-134.25 370.17,-116.26 365.41,-91.32 363.56,-77.79"/>
<polygon fill="#63b8ff" stroke="#63b8ff" points="406.17,-165.62 416.24,-168.89 410.4,-160.05 406.17,-165.62"/>
</a>
</g>
</g>
<!-- Node5&#45;&gt;Node7 -->
<g id="edge7_Node000005_Node000007" class="edge">
<title>Node5&#45;&gt;Node7</title>
<g id="a_edge7_Node000005_Node000007"><a xlink:title=" ">
<path fill="none" stroke="#63b8ff" d="M398.19,-165.61C374.4,-155.89 343.34,-143.19 322.25,-134.58"/>
<polygon fill="#63b8ff" stroke="#63b8ff" points="396.56,-168.72 407.14,-169.26 399.21,-162.24 396.56,-168.72"/>
</a>
</g>
</g>
<!-- Node9 -->
<g id="Node000009" class="node">
<title>Node9</title>
<g id="a_Node000009"><a xlink:href="iface__vlcb_8h.html" target="_top" xlink:title=" ">
<polygon fill="white" stroke="#666666" points="464.75,-134.25 390.25,-134.25 390.25,-113.5 464.75,-113.5 464.75,-134.25"/>
<text text-anchor="middle" x="427.5" y="-120.75" font-family="Helvetica,sans-Serif" font-size="10.00">iface_vlcb.h</text>
</a>
</g>
</g>
<!-- Node5&#45;&gt;Node9 -->
<g id="edge10_Node000005_Node000009" class="edge">
<title>Node5&#45;&gt;Node9</title>
<g id="a_edge10_Node000005_Node000009"><a xlink:title=" ">
<path fill="none" stroke="#63b8ff" d="M430.56,-158.38C429.81,-150.16 428.99,-141.18 428.39,-134.58"/>
<polygon fill="#63b8ff" stroke="#63b8ff" points="427.07,-158.69 431.47,-168.33 434.04,-158.05 427.07,-158.69"/>
</a>
</g>
</g>
<!-- Node10 -->
<g id="Node000010" class="node">
<title>Node10</title>
<g id="a_Node000010"><a xlink:href="module_2inc_2vlcb_2module_8h.html" target="_top" xlink:title=" ">
<polygon fill="white" stroke="#666666" points="810.38,-134.25 748.62,-134.25 748.62,-113.5 810.38,-113.5 810.38,-134.25"/>
<text text-anchor="middle" x="779.5" y="-120.75" font-family="Helvetica,sans-Serif" font-size="10.00">module.h</text>
</a>
</g>
</g>
<!-- Node5&#45;&gt;Node10 -->
<g id="edge13_Node000005_Node000010" class="edge">
<title>Node5&#45;&gt;Node10</title>
<g id="a_edge13_Node000005_Node000010"><a xlink:title=" ">
<path fill="none" stroke="#63b8ff" d="M468.47,-173.95C536.67,-163.19 683.73,-139.99 748.17,-129.82"/>
<polygon fill="#63b8ff" stroke="#63b8ff" points="468.28,-170.44 458.95,-175.45 469.37,-177.35 468.28,-170.44"/>
</a>
</g>
</g>
<!-- Node15 -->
<g id="Node000015" class="node">
<title>Node15</title>
<g id="a_Node000015"><a xlink:href="net_2inc_2vlcb_2net_8h.html" target="_top" xlink:title=" ">
<polygon fill="white" stroke="#666666" points="560.88,-134.25 520.12,-134.25 520.12,-113.5 560.88,-113.5 560.88,-134.25"/>
<text text-anchor="middle" x="540.5" y="-120.75" font-family="Helvetica,sans-Serif" font-size="10.00">net.h</text>
</a>
</g>
</g>
<!-- Node5&#45;&gt;Node15 -->
<g id="edge21_Node000005_Node000015" class="edge">
<title>Node5&#45;&gt;Node15</title>
<g id="a_edge21_Node000005_Node000015"><a xlink:title=" ">
<path fill="none" stroke="#63b8ff" d="M461.98,-164.68C480.9,-155.09 504.9,-142.92 521.36,-134.58"/>
<polygon fill="#63b8ff" stroke="#63b8ff" points="460.5,-161.51 453.16,-169.15 463.66,-167.75 460.5,-161.51"/>
</a>
</g>
</g>
<!-- Node7&#45;&gt;Node4 -->
<g id="edge8_Node000007_Node000004" class="edge">
<title>Node7&#45;&gt;Node4</title>
<g id="a_edge8_Node000007_Node000004"><a xlink:title=" ">
<path fill="none" stroke="#63b8ff" d="M334.31,-109.07C359.95,-99.18 393.77,-86.14 416.28,-77.46"/>
<polygon fill="#63b8ff" stroke="#63b8ff" points="333.37,-105.68 325.3,-112.54 335.89,-112.21 333.37,-105.68"/>
</a>
</g>
</g>
<!-- Node8 -->
<g id="Node000008" class="node">
<title>Node8</title>
<g id="a_Node000008"><a xlink:href="iface__vlcb_8c.html" target="_top" xlink:title=" ">
<polygon fill="white" stroke="#666666" points="309.38,-77.5 235.62,-77.5 235.62,-56.75 309.38,-56.75 309.38,-77.5"/>
<text text-anchor="middle" x="272.5" y="-64" font-family="Helvetica,sans-Serif" font-size="10.00">iface_vlcb.c</text>
</a>
</g>
</g>
<!-- Node7&#45;&gt;Node8 -->
<g id="edge9_Node000007_Node000008" class="edge">
<title>Node7&#45;&gt;Node8</title>
<g id="a_edge9_Node000007_Node000008"><a xlink:title=" ">
<path fill="none" stroke="#63b8ff" d="M288.96,-102.78C284.91,-94.27 280.39,-84.74 277.11,-77.83"/>
<polygon fill="#63b8ff" stroke="#63b8ff" points="285.75,-104.19 293.2,-111.72 292.07,-101.18 285.75,-104.19"/>
</a>
</g>
</g>
<!-- Node9&#45;&gt;Node4 -->
<g id="edge11_Node000009_Node000004" class="edge">
<title>Node9&#45;&gt;Node4</title>
<g id="a_edge11_Node000009_Node000004"><a xlink:title=" ">
<path fill="none" stroke="#63b8ff" d="M432.48,-101.92C434.44,-93.63 436.61,-84.5 438.2,-77.83"/>
<polygon fill="#63b8ff" stroke="#63b8ff" points="429.08,-101.08 430.17,-111.61 435.89,-102.69 429.08,-101.08"/>
</a>
</g>
</g>
<!-- Node9&#45;&gt;Node6 -->
<g id="edge12_Node000009_Node000006" class="edge">
<title>Node9&#45;&gt;Node6</title>
<g id="a_edge12_Node000009_Node000006"><a xlink:title=" ">
<path fill="none" stroke="#63b8ff" d="M407.33,-105.89C396.38,-96.66 383.23,-85.59 374.02,-77.83"/>
<polygon fill="#63b8ff" stroke="#63b8ff" points="404.82,-108.35 414.72,-112.11 409.33,-102.99 404.82,-108.35"/>
</a>
</g>
</g>
<!-- Node11 -->
<g id="Node000011" class="node">
<title>Node11</title>
<g id="a_Node000011"><a xlink:href="module_8c.html" target="_top" xlink:title=" ">
<polygon fill="white" stroke="#666666" points="966,-20.75 905,-20.75 905,0 966,0 966,-20.75"/>
<text text-anchor="middle" x="935.5" y="-7.25" font-family="Helvetica,sans-Serif" font-size="10.00">module.c</text>
</a>
</g>
</g>
<!-- Node10&#45;&gt;Node11 -->
<g id="edge14_Node000010_Node000011" class="edge">
<title>Node10&#45;&gt;Node11</title>
<g id="a_edge14_Node000010_Node000011"><a xlink:title=" ">
<path fill="none" stroke="#63b8ff" d="M821.94,-119.19C852.22,-114.36 891.8,-103.21 916.5,-77.5 931.56,-61.82 934.81,-35.02 935.43,-20.83"/>
<polygon fill="#63b8ff" stroke="#63b8ff" points="821.76,-115.68 812.34,-120.54 822.73,-122.61 821.76,-115.68"/>
</a>
</g>
</g>
<!-- Node12 -->
<g id="Node000012" class="node">
<title>Node12</title>
<g id="a_Node000012"><a xlink:href="module_2src_2module_8h.html" target="_top" xlink:title=" ">
<polygon fill="white" stroke="#666666" points="907.38,-77.5 845.62,-77.5 845.62,-56.75 907.38,-56.75 907.38,-77.5"/>
<text text-anchor="middle" x="876.5" y="-64" font-family="Helvetica,sans-Serif" font-size="10.00">module.h</text>
</a>
</g>
</g>
<!-- Node10&#45;&gt;Node12 -->
<g id="edge15_Node000010_Node000012" class="edge">
<title>Node10&#45;&gt;Node12</title>
<g id="a_edge15_Node000010_Node000012"><a xlink:title=" ">
<path fill="none" stroke="#63b8ff" d="M806.69,-107.53C823.57,-98 844.73,-86.06 859.31,-77.83"/>
<polygon fill="#63b8ff" stroke="#63b8ff" points="805.15,-104.38 798.16,-112.34 808.59,-110.48 805.15,-104.38"/>
</a>
</g>
</g>
<!-- Node13 -->
<g id="Node000013" class="node">
<title>Node13</title>
<g id="a_Node000013"><a xlink:href="state__machine_8c.html" target="_top" xlink:title=" ">
<polygon fill="white" stroke="#666666" points="731.62,-20.75 635.38,-20.75 635.38,0 731.62,0 731.62,-20.75"/>
<text text-anchor="middle" x="683.5" y="-7.25" font-family="Helvetica,sans-Serif" font-size="10.00">state_machine.c</text>
</a>
</g>
</g>
<!-- Node10&#45;&gt;Node13 -->
<g id="edge17_Node000010_Node000013" class="edge">
<title>Node10&#45;&gt;Node13</title>
<g id="a_edge17_Node000010_Node000013"><a xlink:title=" ">
<path fill="none" stroke="#63b8ff" d="M754.88,-106.38C744.15,-98.45 731.9,-88.32 722.5,-77.5 706.93,-59.6 694.16,-34.62 687.82,-21.06"/>
<polygon fill="#63b8ff" stroke="#63b8ff" points="752.77,-109.18 762.95,-112.13 756.83,-103.47 752.77,-109.18"/>
</a>
</g>
</g>
<!-- Node14 -->
<g id="Node000014" class="node">
<title>Node14</title>
<g id="a_Node000014"><a xlink:href="state__machine_8h.html" target="_top" xlink:title=" ">
<polygon fill="white" stroke="#666666" points="828,-77.5 731,-77.5 731,-56.75 828,-56.75 828,-77.5"/>
<text text-anchor="middle" x="779.5" y="-64" font-family="Helvetica,sans-Serif" font-size="10.00">state_machine.h</text>
</a>
</g>
</g>
<!-- Node10&#45;&gt;Node14 -->
<g id="edge18_Node000010_Node000014" class="edge">
<title>Node10&#45;&gt;Node14</title>
<g id="a_edge18_Node000010_Node000014"><a xlink:title=" ">
<path fill="none" stroke="#63b8ff" d="M779.5,-101.63C779.5,-93.41 779.5,-84.43 779.5,-77.83"/>
<polygon fill="#63b8ff" stroke="#63b8ff" points="776,-101.57 779.5,-111.57 783,-101.57 776,-101.57"/>
</a>
</g>
</g>
<!-- Node12&#45;&gt;Node11 -->
<g id="edge16_Node000012_Node000011" class="edge">
<title>Node12&#45;&gt;Node11</title>
<g id="a_edge16_Node000012_Node000011"><a xlink:title=" ">
<path fill="none" stroke="#63b8ff" d="M895.41,-48.58C905.22,-39.47 916.85,-28.68 925.04,-21.08"/>
<polygon fill="#63b8ff" stroke="#63b8ff" points="893.11,-45.94 888.16,-55.31 897.87,-51.07 893.11,-45.94"/>
</a>
</g>
</g>
<!-- Node14&#45;&gt;Node11 -->
<g id="edge19_Node000014_Node000011" class="edge">
<title>Node14&#45;&gt;Node11</title>
<g id="a_edge19_Node000014_Node000011"><a xlink:title=" ">
<path fill="none" stroke="#63b8ff" d="M817.92,-52.64C845.7,-42.89 882.59,-29.94 907.59,-21.17"/>
<polygon fill="#63b8ff" stroke="#63b8ff" points="817.09,-49.22 808.82,-55.84 819.41,-55.83 817.09,-49.22"/>
</a>
</g>
</g>
<!-- Node14&#45;&gt;Node13 -->
<g id="edge20_Node000014_Node000013" class="edge">
<title>Node14&#45;&gt;Node13</title>
<g id="a_edge20_Node000014_Node000013"><a xlink:title=" ">
<path fill="none" stroke="#63b8ff" d="M752.59,-50.78C735.89,-41.25 714.94,-29.31 700.51,-21.08"/>
<polygon fill="#63b8ff" stroke="#63b8ff" points="750.6,-53.67 761.02,-55.59 754.07,-47.59 750.6,-53.67"/>
</a>
</g>
</g>
<!-- Node17 -->
<g id="Node000017" class="node">
<title>Node17</title>
<g id="a_Node000017"><a xlink:href="packet__parse_8c.html" target="_top" xlink:title=" ">
<polygon fill="white" stroke="#666666" points="206.88,-134.25 118.12,-134.25 118.12,-113.5 206.88,-113.5 206.88,-134.25"/>
<text text-anchor="middle" x="162.5" y="-120.75" font-family="Helvetica,sans-Serif" font-size="10.00">packet_parse.c</text>
</a>
</g>
</g>
<!-- Node16&#45;&gt;Node17 -->
<g id="edge25_Node000016_Node000017" class="edge">
<title>Node16&#45;&gt;Node17</title>
<g id="a_edge25_Node000016_Node000017"><a xlink:title=" ">
<path fill="none" stroke="#63b8ff" d="M162.5,-158.38C162.5,-150.16 162.5,-141.18 162.5,-134.58"/>
<polygon fill="#63b8ff" stroke="#63b8ff" points="159,-158.32 162.5,-168.32 166,-158.32 159,-158.32"/>
</a>
</g>
</g>
<!-- Node20&#45;&gt;Node4 -->
<g id="edge35_Node000020_Node000004" class="edge">
<title>Node20&#45;&gt;Node4</title>
<g id="a_edge35_Node000020_Node000004"><a xlink:title=" ">
<path fill="none" stroke="#63b8ff" d="M606.61,-215.43C604.35,-188.4 596.5,-141.56 569.5,-113.5 541.51,-84.42 493.81,-73.95 464.92,-70.2"/>
<polygon fill="#63b8ff" stroke="#63b8ff" points="603.1,-215.35 607.22,-225.11 610.08,-214.91 603.1,-215.35"/>
</a>
</g>
</g>
<!-- Node20&#45;&gt;Node5 -->
<g id="edge36_Node000020_Node000005" class="edge">
<title>Node20&#45;&gt;Node5</title>
<g id="a_edge36_Node000020_Node000005"><a xlink:title=" ">
<path fill="none" stroke="#63b8ff" d="M568.06,-224.04C534.11,-213.41 486.15,-198.41 457.31,-189.39"/>
<polygon fill="#63b8ff" stroke="#63b8ff" points="566.96,-227.36 577.55,-227 569.05,-220.68 566.96,-227.36"/>
</a>
</g>
</g>
<!-- Node20&#45;&gt;Node7 -->
<g id="edge37_Node000020_Node000007" class="edge">
<title>Node20&#45;&gt;Node7</title>
<g id="a_edge37_Node000020_Node000007"><a xlink:title=" ">
<path fill="none" stroke="#63b8ff" d="M567.88,-226.54C492.62,-210.39 468.01,-219.45 399.5,-191 364.27,-176.37 328.09,-149.12 310.11,-134.59"/>
<polygon fill="#63b8ff" stroke="#63b8ff" points="566.84,-229.89 577.37,-228.66 568.37,-223.06 566.84,-229.89"/>
</a>
</g>
</g>
<!-- Node20&#45;&gt;Node9 -->
<g id="edge38_Node000020_Node000009" class="edge">
<title>Node20&#45;&gt;Node9</title>
<g id="a_edge38_Node000020_Node000009"><a xlink:title=" ">
<path fill="none" stroke="#63b8ff" d="M582.1,-220.64C544.32,-197.24 474.44,-153.95 443.25,-134.63"/>
<polygon fill="#63b8ff" stroke="#63b8ff" points="580.21,-223.59 590.55,-225.88 583.9,-217.64 580.21,-223.59"/>
</a>
</g>
</g>
<!-- Node20&#45;&gt;Node11 -->
<g id="edge39_Node000020_Node000011" class="edge">
<title>Node20&#45;&gt;Node11</title>
<g id="a_edge39_Node000020_Node000011"><a xlink:title=" ">
<path fill="none" stroke="#63b8ff" d="M647.16,-232.74C691.75,-227.6 765.6,-215.91 824.5,-191 894.83,-161.25 928.38,-149.62 953.5,-77.5 960.39,-57.73 949.3,-33.89 941.69,-20.92"/>
<polygon fill="#63b8ff" stroke="#63b8ff" points="647.01,-229.23 637.45,-233.8 647.77,-236.19 647.01,-229.23"/>
</a>
</g>
</g>
<!-- Node20&#45;&gt;Node13 -->
<g id="edge42_Node000020_Node000013" class="edge">
<title>Node20&#45;&gt;Node13</title>
<g id="a_edge42_Node000020_Node000013"><a xlink:title=" ">
<path fill="none" stroke="#63b8ff" d="M614.45,-215.81C630.33,-168.78 668.82,-54.85 680.25,-21.01"/>
<polygon fill="#63b8ff" stroke="#63b8ff" points="611.13,-214.68 611.25,-225.27 617.77,-216.92 611.13,-214.68"/>
</a>
</g>
</g>
<!-- Node20&#45;&gt;Node15 -->
<g id="edge40_Node000020_Node000015" class="edge">
<title>Node20&#45;&gt;Node15</title>
<g id="a_edge40_Node000020_Node000015"><a xlink:title=" ">
<path fill="none" stroke="#63b8ff" d="M592.74,-217.46C586.79,-209.48 580.03,-199.98 574.5,-191 562.59,-171.65 550.99,-147.65 544.9,-134.54"/>
<polygon fill="#63b8ff" stroke="#63b8ff" points="589.94,-219.56 598.79,-225.39 595.51,-215.31 589.94,-219.56"/>
</a>
</g>
</g>
<!-- Node20&#45;&gt;Node19 -->
<g id="edge29_Node000020_Node000019" class="edge">
<title>Node20&#45;&gt;Node19</title>
<g id="a_edge29_Node000020_Node000019"><a xlink:title=" ">
<path fill="none" stroke="#63b8ff" d="M647.35,-236.02C738.94,-234.57 961.47,-227.3 1025.5,-191 1048.54,-177.94 1064.29,-149.49 1071.33,-134.53"/>
<polygon fill="#63b8ff" stroke="#63b8ff" points="647.55,-232.51 637.6,-236.15 647.65,-239.51 647.55,-232.51"/>
</a>
</g>
</g>
<!-- Node21 -->
<g id="Node000021" class="node">
<title>Node21</title>
<g id="a_Node000021"><a xlink:href="socket_2datagram_8h.html" target="_top" xlink:title=" ">
<polygon fill="white" stroke="#666666" points="815.62,-191 743.38,-191 743.38,-170.25 815.62,-170.25 815.62,-191"/>
<text text-anchor="middle" x="779.5" y="-177.5" font-family="Helvetica,sans-Serif" font-size="10.00">datagram.h</text>
</a>
</g>
</g>
<!-- Node20&#45;&gt;Node21 -->
<g id="edge30_Node000020_Node000021" class="edge">
<title>Node20&#45;&gt;Node21</title>
<g id="a_edge30_Node000020_Node000021"><a xlink:title=" ">
<path fill="none" stroke="#63b8ff" d="M646.73,-223.89C677.67,-214.04 720.22,-200.49 748.73,-191.42"/>
<polygon fill="#63b8ff" stroke="#63b8ff" points="645.81,-220.51 637.34,-226.88 647.94,-227.18 645.81,-220.51"/>
</a>
</g>
</g>
<!-- Node22 -->
<g id="Node000022" class="node">
<title>Node22</title>
<g id="a_Node000022"><a xlink:href="socket_8c.html" target="_top" xlink:title=" ">
<polygon fill="white" stroke="#666666" points="710.38,-191 654.62,-191 654.62,-170.25 710.38,-170.25 710.38,-191"/>
<text text-anchor="middle" x="682.5" y="-177.5" font-family="Helvetica,sans-Serif" font-size="10.00">socket.c</text>
</a>
</g>
</g>
<!-- Node20&#45;&gt;Node22 -->
<g id="edge41_Node000020_Node000022" class="edge">
<title>Node20&#45;&gt;Node22</title>
<g id="a_edge41_Node000020_Node000022"><a xlink:title=" ">
<path fill="none" stroke="#63b8ff" d="M630.02,-219.94C642.8,-210.61 658.36,-199.25 669.21,-191.33"/>
<polygon fill="#63b8ff" stroke="#63b8ff" points="628.14,-216.97 622.13,-225.69 632.27,-222.63 628.14,-216.97"/>
</a>
</g>
</g>
<!-- Node21&#45;&gt;Node10 -->
<g id="edge33_Node000021_Node000010" class="edge">
<title>Node21&#45;&gt;Node10</title>
<g id="a_edge33_Node000021_Node000010"><a xlink:title=" ">
<path fill="none" stroke="#63b8ff" d="M779.5,-158.38C779.5,-150.16 779.5,-141.18 779.5,-134.58"/>
<polygon fill="#63b8ff" stroke="#63b8ff" points="776,-158.32 779.5,-168.32 783,-158.32 776,-158.32"/>
</a>
</g>
</g>
<!-- Node21&#45;&gt;Node11 -->
<g id="edge32_Node000021_Node000011" class="edge">
<title>Node21&#45;&gt;Node11</title>
<g id="a_edge32_Node000021_Node000011"><a xlink:title=" ">
<path fill="none" stroke="#63b8ff" d="M820.86,-165.75C858.62,-150.62 912.16,-122.37 936.5,-77.5 946.24,-59.54 941.95,-34.58 938.44,-21.05"/>
<polygon fill="#63b8ff" stroke="#63b8ff" points="819.67,-162.46 811.59,-169.31 822.18,-168.99 819.67,-162.46"/>
</a>
</g>
</g>
<!-- Node21&#45;&gt;Node13 -->
<g id="edge34_Node000021_Node000013" class="edge">
<title>Node21&#45;&gt;Node13</title>
<g id="a_edge34_Node000021_Node000013"><a xlink:title=" ">
<path fill="none" stroke="#63b8ff" d="M762.17,-161.44C744.74,-142.13 718.37,-109.96 703.5,-77.5 694.71,-58.31 688.55,-34.25 685.56,-21.09"/>
<polygon fill="#63b8ff" stroke="#63b8ff" points="759.54,-163.75 768.9,-168.72 764.68,-159 759.54,-163.75"/>
</a>
</g>
</g>
<!-- Node21&#45;&gt;Node19 -->
<g id="edge31_Node000021_Node000019" class="edge">
<title>Node21&#45;&gt;Node19</title>
<g id="a_edge31_Node000021_Node000019"><a xlink:title=" ">
<path fill="none" stroke="#63b8ff" d="M827.38,-170.77C886.66,-159.8 986.26,-141.38 1039.45,-131.54"/>
<polygon fill="#63b8ff" stroke="#63b8ff" points="826.78,-167.32 817.58,-172.58 828.05,-174.2 826.78,-167.32"/>
</a>
</g>
</g>
</g>
</svg>
