<?xml version="1.0" encoding="UTF-8" standalone="no"?>
<!DOCTYPE svg PUBLIC "-//W3C//DTD SVG 1.1//EN"
 "http://www.w3.org/Graphics/SVG/1.1/DTD/svg11.dtd">
<!-- Generated by graphviz version 12.1.2 (20240928.0832)
 -->
<!-- Title: addr.h Pages: 1 -->
<svg width="440pt" height="199pt"
 viewBox="0.00 0.00 440.25 199.00" xmlns="http://www.w3.org/2000/svg" xmlns:xlink="http://www.w3.org/1999/xlink">
<g id="graph0" class="graph" transform="scale(1 1) rotate(0) translate(4 195)">
<title>addr.h</title>
<!-- Node1 -->
<g id="Node000001" class="node">
<title>Node1</title>
<g id="a_Node000001"><a xlink:title=" ">
<polygon fill="#999999" stroke="#666666" points="311.38,-191 265.38,-191 265.38,-170.25 311.38,-170.25 311.38,-191"/>
<text text-anchor="middle" x="288.38" y="-177.5" font-family="Helvetica,sans-Serif" font-size="10.00">addr.h</text>
</a>
</g>
</g>
<!-- Node2 -->
<g id="Node000002" class="node">
<title>Node2</title>
<g id="a_Node000002"><a xlink:href="common_2inc_2vlcb_2common_2can_8h.html" target="_top" xlink:title=" ">
<polygon fill="white" stroke="#666666" points="228,-134.25 116.75,-134.25 116.75,-113.5 228,-113.5 228,-134.25"/>
<text text-anchor="middle" x="172.38" y="-120.75" font-family="Helvetica,sans-Serif" font-size="10.00">vlcb/common/can.h</text>
</a>
</g>
</g>
<!-- Node1&#45;&gt;Node2 -->
<g id="edge1_Node000001_Node000002" class="edge">
<title>Node1&#45;&gt;Node2</title>
<g id="a_edge1_Node000001_Node000002"><a xlink:title=" ">
<path fill="none" stroke="#63b8ff" d="M267.64,-169.84C249.74,-161.39 223.63,-149.07 203.27,-139.46"/>
<polygon fill="#63b8ff" stroke="#63b8ff" points="204.84,-136.33 194.3,-135.22 201.85,-142.66 204.84,-136.33"/>
</a>
</g>
</g>
<!-- Node5 -->
<g id="Node000005" class="node">
<title>Node5</title>
<g id="a_Node000005"><a xlink:title=" ">
<polygon fill="#e0e0e0" stroke="#999999" points="285.75,-20.75 233,-20.75 233,0 285.75,0 285.75,-20.75"/>
<text text-anchor="middle" x="259.38" y="-7.25" font-family="Helvetica,sans-Serif" font-size="10.00">stdint.h</text>
</a>
</g>
</g>
<!-- Node1&#45;&gt;Node5 -->
<g id="edge9_Node000001_Node000005" class="edge">
<title>Node1&#45;&gt;Node5</title>
<g id="a_edge9_Node000001_Node000005"><a xlink:title=" ">
<path fill="none" stroke="#63b8ff" d="M287.1,-170.03C284.31,-149.29 277.24,-98.76 269.38,-56.75 267.87,-48.73 266,-39.96 264.28,-32.29"/>
<polygon fill="#63b8ff" stroke="#63b8ff" points="267.69,-31.51 262.04,-22.55 260.87,-33.08 267.69,-31.51"/>
</a>
</g>
</g>
<!-- Node7 -->
<g id="Node000007" class="node">
<title>Node7</title>
<g id="a_Node000007"><a xlink:href="time_8h.html" target="_top" xlink:title=" ">
<polygon fill="white" stroke="#666666" points="432.25,-134.25 316.5,-134.25 316.5,-113.5 432.25,-113.5 432.25,-134.25"/>
<text text-anchor="middle" x="374.38" y="-120.75" font-family="Helvetica,sans-Serif" font-size="10.00">vlcb/platform/time.h</text>
</a>
</g>
</g>
<!-- Node1&#45;&gt;Node7 -->
<g id="edge7_Node000001_Node000007" class="edge">
<title>Node1&#45;&gt;Node7</title>
<g id="a_edge7_Node000001_Node000007"><a xlink:title=" ">
<path fill="none" stroke="#63b8ff" d="M303.75,-169.84C316.47,-161.74 334.78,-150.08 349.57,-140.67"/>
<polygon fill="#63b8ff" stroke="#63b8ff" points="351.3,-143.71 357.86,-135.39 347.54,-137.81 351.3,-143.71"/>
</a>
</g>
</g>
<!-- Node3 -->
<g id="Node000003" class="node">
<title>Node3</title>
<g id="a_Node000003"><a xlink:title=" ">
<polygon fill="#e0e0e0" stroke="#999999" points="64.75,-77.5 0,-77.5 0,-56.75 64.75,-56.75 64.75,-77.5"/>
<text text-anchor="middle" x="32.38" y="-64" font-family="Helvetica,sans-Serif" font-size="10.00">inttypes.h</text>
</a>
</g>
</g>
<!-- Node2&#45;&gt;Node3 -->
<g id="edge2_Node000002_Node000003" class="edge">
<title>Node2&#45;&gt;Node3</title>
<g id="a_edge2_Node000002_Node000003"><a xlink:title=" ">
<path fill="none" stroke="#63b8ff" d="M147.35,-113.09C125.15,-104.41 92.49,-91.63 67.64,-81.92"/>
<polygon fill="#63b8ff" stroke="#63b8ff" points="69.19,-78.76 58.6,-78.38 66.64,-85.28 69.19,-78.76"/>
</a>
</g>
</g>
<!-- Node4 -->
<g id="Node000004" class="node">
<title>Node4</title>
<g id="a_Node000004"><a xlink:title=" ">
<polygon fill="#e0e0e0" stroke="#999999" points="143.88,-77.5 82.88,-77.5 82.88,-56.75 143.88,-56.75 143.88,-77.5"/>
<text text-anchor="middle" x="113.38" y="-64" font-family="Helvetica,sans-Serif" font-size="10.00">stdbool.h</text>
</a>
</g>
</g>
<!-- Node2&#45;&gt;Node4 -->
<g id="edge3_Node000002_Node000004" class="edge">
<title>Node2&#45;&gt;Node4</title>
<g id="a_edge3_Node000002_Node000004"><a xlink:title=" ">
<path fill="none" stroke="#63b8ff" d="M161.83,-113.09C153.6,-105.46 141.98,-94.67 132.17,-85.57"/>
<polygon fill="#63b8ff" stroke="#63b8ff" points="134.65,-83.09 124.94,-78.86 129.89,-88.23 134.65,-83.09"/>
</a>
</g>
</g>
<!-- Node2&#45;&gt;Node5 -->
<g id="edge4_Node000002_Node000005" class="edge">
<title>Node2&#45;&gt;Node5</title>
<g id="a_edge4_Node000002_Node000005"><a xlink:title=" ">
<path fill="none" stroke="#63b8ff" d="M173.05,-113.44C174.45,-99.75 178.69,-74.11 191.38,-56.75 200.56,-44.18 214.36,-34.05 227.13,-26.58"/>
<polygon fill="#63b8ff" stroke="#63b8ff" points="228.62,-29.76 235.71,-21.89 225.26,-23.61 228.62,-29.76"/>
</a>
</g>
</g>
<!-- Node6 -->
<g id="Node000006" class="node">
<title>Node6</title>
<g id="a_Node000006"><a xlink:href="opcode_8h.html" target="_top" xlink:title=" ">
<polygon fill="white" stroke="#666666" points="260.5,-77.5 200.25,-77.5 200.25,-56.75 260.5,-56.75 260.5,-77.5"/>
<text text-anchor="middle" x="230.38" y="-64" font-family="Helvetica,sans-Serif" font-size="10.00">opcode.h</text>
</a>
</g>
</g>
<!-- Node2&#45;&gt;Node6 -->
<g id="edge5_Node000002_Node000006" class="edge">
<title>Node2&#45;&gt;Node6</title>
<g id="a_edge5_Node000002_Node000006"><a xlink:title=" ">
<path fill="none" stroke="#63b8ff" d="M182.74,-113.09C190.83,-105.46 202.26,-94.67 211.9,-85.57"/>
<polygon fill="#63b8ff" stroke="#63b8ff" points="214.13,-88.28 218.99,-78.87 209.32,-83.19 214.13,-88.28"/>
</a>
</g>
</g>
<!-- Node6&#45;&gt;Node5 -->
<g id="edge6_Node000006_Node000005" class="edge">
<title>Node6&#45;&gt;Node5</title>
<g id="a_edge6_Node000006_Node000005"><a xlink:title=" ">
<path fill="none" stroke="#63b8ff" d="M235.56,-56.34C239.27,-49.33 244.39,-39.66 248.94,-31.08"/>
<polygon fill="#63b8ff" stroke="#63b8ff" points="251.94,-32.89 253.53,-22.42 245.75,-29.61 251.94,-32.89"/>
</a>
</g>
</g>
<!-- Node7&#45;&gt;Node5 -->
<g id="edge8_Node000007_Node000005" class="edge">
<title>Node7&#45;&gt;Node5</title>
<g id="a_edge8_Node000007_Node000005"><a xlink:title=" ">
<path fill="none" stroke="#63b8ff" d="M364.57,-113.37C345.32,-94.7 302.3,-52.99 277.65,-29.1"/>
<polygon fill="#63b8ff" stroke="#63b8ff" points="280.19,-26.68 270.57,-22.23 275.31,-31.7 280.19,-26.68"/>
</a>
</g>
</g>
</g>
</svg>
