<?xml version="1.0" encoding="UTF-8" standalone="no"?>
<!DOCTYPE svg PUBLIC "-//W3C//DTD SVG 1.1//EN"
 "http://www.w3.org/Graphics/SVG/1.1/DTD/svg11.dtd">
<!-- Generated by graphviz version 12.1.2 (20240928.0832)
 -->
<!-- Title: addr.c Pages: 1 -->
<svg width="382pt" height="256pt"
 viewBox="0.00 0.00 381.91 255.75" xmlns="http://www.w3.org/2000/svg" xmlns:xlink="http://www.w3.org/1999/xlink">
<g id="graph0" class="graph" transform="scale(1 1) rotate(0) translate(4 251.75)">
<title>addr.c</title>
<!-- Node1 -->
<g id="Node000001" class="node">
<title>Node1</title>
<g id="a_Node000001"><a xlink:title=" ">
<polygon fill="#999999" stroke="#666666" points="292.04,-247.75 246.79,-247.75 246.79,-227 292.04,-227 292.04,-247.75"/>
<text text-anchor="middle" x="269.41" y="-234.25" font-family="Helvetica,sans-Serif" font-size="10.00">addr.c</text>
</a>
</g>
</g>
<!-- Node2 -->
<g id="Node000002" class="node">
<title>Node2</title>
<g id="a_Node000002"><a xlink:href="addr_8h.html" target="_top" xlink:title=" ">
<polygon fill="white" stroke="#666666" points="169.41,-191 81.41,-191 81.41,-170.25 169.41,-170.25 169.41,-191"/>
<text text-anchor="middle" x="125.41" y="-177.5" font-family="Helvetica,sans-Serif" font-size="10.00">vlcb/net/addr.h</text>
</a>
</g>
</g>
<!-- Node1&#45;&gt;Node2 -->
<g id="edge1_Node000001_Node000002" class="edge">
<title>Node1&#45;&gt;Node2</title>
<g id="a_edge1_Node000001_Node000002"><a xlink:title=" ">
<path fill="none" stroke="#63b8ff" d="M246.59,-227.7C223.8,-219.03 188.41,-205.58 161.75,-195.44"/>
<polygon fill="#63b8ff" stroke="#63b8ff" points="163.29,-192.28 152.7,-192 160.8,-198.83 163.29,-192.28"/>
</a>
</g>
</g>
<!-- Node3 -->
<g id="Node000003" class="node">
<title>Node3</title>
<g id="a_Node000003"><a xlink:href="common_2inc_2vlcb_2common_2can_8h.html" target="_top" xlink:title=" ">
<polygon fill="white" stroke="#666666" points="262.04,-134.25 150.79,-134.25 150.79,-113.5 262.04,-113.5 262.04,-134.25"/>
<text text-anchor="middle" x="206.41" y="-120.75" font-family="Helvetica,sans-Serif" font-size="10.00">vlcb/common/can.h</text>
</a>
</g>
</g>
<!-- Node1&#45;&gt;Node3 -->
<g id="edge13_Node000001_Node000003" class="edge">
<title>Node1&#45;&gt;Node3</title>
<g id="a_edge13_Node000001_Node000003"><a xlink:title=" ">
<path fill="none" stroke="#63b8ff" d="M264.04,-226.87C253.77,-208.69 231.16,-168.67 217.51,-144.52"/>
<polygon fill="#63b8ff" stroke="#63b8ff" points="220.66,-142.98 212.69,-135.99 214.56,-146.42 220.66,-142.98"/>
</a>
</g>
</g>
<!-- Node5 -->
<g id="Node000005" class="node">
<title>Node5</title>
<g id="a_Node000005"><a xlink:title=" ">
<polygon fill="#e0e0e0" stroke="#999999" points="320.91,-77.5 259.91,-77.5 259.91,-56.75 320.91,-56.75 320.91,-77.5"/>
<text text-anchor="middle" x="290.41" y="-64" font-family="Helvetica,sans-Serif" font-size="10.00">stdbool.h</text>
</a>
</g>
</g>
<!-- Node1&#45;&gt;Node5 -->
<g id="edge12_Node000001_Node000005" class="edge">
<title>Node1&#45;&gt;Node5</title>
<g id="a_edge12_Node000001_Node000005"><a xlink:title=" ">
<path fill="none" stroke="#63b8ff" d="M270.6,-226.85C273.89,-200.48 283.18,-126.08 287.77,-89.28"/>
<polygon fill="#63b8ff" stroke="#63b8ff" points="291.23,-89.83 288.99,-79.47 284.28,-88.96 291.23,-89.83"/>
</a>
</g>
</g>
<!-- Node9 -->
<g id="Node000009" class="node">
<title>Node9</title>
<g id="a_Node000009"><a xlink:title=" ">
<polygon fill="#e0e0e0" stroke="#999999" points="373.91,-191 318.91,-191 318.91,-170.25 373.91,-170.25 373.91,-191"/>
<text text-anchor="middle" x="346.41" y="-177.5" font-family="Helvetica,sans-Serif" font-size="10.00">assert.h</text>
</a>
</g>
</g>
<!-- Node1&#45;&gt;Node9 -->
<g id="edge11_Node000001_Node000009" class="edge">
<title>Node1&#45;&gt;Node9</title>
<g id="a_edge11_Node000001_Node000009"><a xlink:title=" ">
<path fill="none" stroke="#63b8ff" d="M283.18,-226.59C294.35,-218.65 310.33,-207.28 323.43,-197.96"/>
<polygon fill="#63b8ff" stroke="#63b8ff" points="325.41,-200.85 331.53,-192.21 321.35,-195.15 325.41,-200.85"/>
</a>
</g>
</g>
<!-- Node2&#45;&gt;Node3 -->
<g id="edge2_Node000002_Node000003" class="edge">
<title>Node2&#45;&gt;Node3</title>
<g id="a_edge2_Node000002_Node000003"><a xlink:title=" ">
<path fill="none" stroke="#63b8ff" d="M139.89,-169.84C151.76,-161.82 168.79,-150.31 182.64,-140.94"/>
<polygon fill="#63b8ff" stroke="#63b8ff" points="184.48,-143.93 190.8,-135.43 180.56,-138.13 184.48,-143.93"/>
</a>
</g>
</g>
<!-- Node6 -->
<g id="Node000006" class="node">
<title>Node6</title>
<g id="a_Node000006"><a xlink:title=" ">
<polygon fill="#e0e0e0" stroke="#999999" points="119.79,-20.75 67.04,-20.75 67.04,0 119.79,0 119.79,-20.75"/>
<text text-anchor="middle" x="93.41" y="-7.25" font-family="Helvetica,sans-Serif" font-size="10.00">stdint.h</text>
</a>
</g>
</g>
<!-- Node2&#45;&gt;Node6 -->
<g id="edge10_Node000002_Node000006" class="edge">
<title>Node2&#45;&gt;Node6</title>
<g id="a_edge10_Node000002_Node000006"><a xlink:title=" ">
<path fill="none" stroke="#63b8ff" d="M81.02,-174.87C54.91,-169.53 23.88,-158.22 7.41,-134.25 -19.02,-95.77 33.76,-50.91 67.76,-27.49"/>
<polygon fill="#63b8ff" stroke="#63b8ff" points="69.55,-30.51 75.93,-22.05 65.66,-24.68 69.55,-30.51"/>
</a>
</g>
</g>
<!-- Node8 -->
<g id="Node000008" class="node">
<title>Node8</title>
<g id="a_Node000008"><a xlink:href="time_8h.html" target="_top" xlink:title=" ">
<polygon fill="white" stroke="#666666" points="132.29,-134.25 16.54,-134.25 16.54,-113.5 132.29,-113.5 132.29,-134.25"/>
<text text-anchor="middle" x="74.41" y="-120.75" font-family="Helvetica,sans-Serif" font-size="10.00">vlcb/platform/time.h</text>
</a>
</g>
</g>
<!-- Node2&#45;&gt;Node8 -->
<g id="edge8_Node000002_Node000008" class="edge">
<title>Node2&#45;&gt;Node8</title>
<g id="a_edge8_Node000002_Node000008"><a xlink:title=" ">
<path fill="none" stroke="#63b8ff" d="M116.29,-169.84C109.33,-162.36 99.54,-151.86 91.18,-142.88"/>
<polygon fill="#63b8ff" stroke="#63b8ff" points="93.86,-140.62 84.48,-135.69 88.74,-145.39 93.86,-140.62"/>
</a>
</g>
</g>
<!-- Node4 -->
<g id="Node000004" class="node">
<title>Node4</title>
<g id="a_Node000004"><a xlink:title=" ">
<polygon fill="#e0e0e0" stroke="#999999" points="125.79,-77.5 61.04,-77.5 61.04,-56.75 125.79,-56.75 125.79,-77.5"/>
<text text-anchor="middle" x="93.41" y="-64" font-family="Helvetica,sans-Serif" font-size="10.00">inttypes.h</text>
</a>
</g>
</g>
<!-- Node3&#45;&gt;Node4 -->
<g id="edge3_Node000003_Node000004" class="edge">
<title>Node3&#45;&gt;Node4</title>
<g id="a_edge3_Node000003_Node000004"><a xlink:title=" ">
<path fill="none" stroke="#63b8ff" d="M186.21,-113.09C168.85,-104.68 143.58,-92.43 123.78,-82.84"/>
<polygon fill="#63b8ff" stroke="#63b8ff" points="125.33,-79.7 114.8,-78.49 122.27,-86 125.33,-79.7"/>
</a>
</g>
</g>
<!-- Node3&#45;&gt;Node5 -->
<g id="edge4_Node000003_Node000005" class="edge">
<title>Node3&#45;&gt;Node5</title>
<g id="a_edge4_Node000003_Node000005"><a xlink:title=" ">
<path fill="none" stroke="#63b8ff" d="M221.43,-113.09C233.85,-104.99 251.74,-93.33 266.18,-83.92"/>
<polygon fill="#63b8ff" stroke="#63b8ff" points="267.79,-87.05 274.26,-78.65 263.97,-81.18 267.79,-87.05"/>
</a>
</g>
</g>
<!-- Node3&#45;&gt;Node6 -->
<g id="edge5_Node000003_Node000006" class="edge">
<title>Node3&#45;&gt;Node6</title>
<g id="a_edge5_Node000003_Node000006"><a xlink:title=" ">
<path fill="none" stroke="#63b8ff" d="M196.78,-113.37C177.86,-94.7 135.59,-52.99 111.37,-29.1"/>
<polygon fill="#63b8ff" stroke="#63b8ff" points="114,-26.77 104.42,-22.24 109.08,-31.75 114,-26.77"/>
</a>
</g>
</g>
<!-- Node7 -->
<g id="Node000007" class="node">
<title>Node7</title>
<g id="a_Node000007"><a xlink:href="opcode_8h.html" target="_top" xlink:title=" ">
<polygon fill="white" stroke="#666666" points="241.54,-77.5 181.29,-77.5 181.29,-56.75 241.54,-56.75 241.54,-77.5"/>
<text text-anchor="middle" x="211.41" y="-64" font-family="Helvetica,sans-Serif" font-size="10.00">opcode.h</text>
</a>
</g>
</g>
<!-- Node3&#45;&gt;Node7 -->
<g id="edge6_Node000003_Node000007" class="edge">
<title>Node3&#45;&gt;Node7</title>
<g id="a_edge6_Node000003_Node000007"><a xlink:title=" ">
<path fill="none" stroke="#63b8ff" d="M207.3,-113.09C207.91,-106.47 208.73,-97.47 209.48,-89.27"/>
<polygon fill="#63b8ff" stroke="#63b8ff" points="212.96,-89.61 210.39,-79.34 205.99,-88.98 212.96,-89.61"/>
</a>
</g>
</g>
<!-- Node7&#45;&gt;Node6 -->
<g id="edge7_Node000007_Node000006" class="edge">
<title>Node7&#45;&gt;Node6</title>
<g id="a_edge7_Node000007_Node000006"><a xlink:title=" ">
<path fill="none" stroke="#63b8ff" d="M190.31,-56.34C172.02,-47.85 145.31,-35.45 124.56,-25.83"/>
<polygon fill="#63b8ff" stroke="#63b8ff" points="126.24,-22.75 115.7,-21.72 123.29,-29.1 126.24,-22.75"/>
</a>
</g>
</g>
<!-- Node8&#45;&gt;Node6 -->
<g id="edge9_Node000008_Node000006" class="edge">
<title>Node8&#45;&gt;Node6</title>
<g id="a_edge9_Node000008_Node000006"><a xlink:title=" ">
<path fill="none" stroke="#63b8ff" d="M67.07,-113.36C58.03,-100.42 44.76,-76.62 52.41,-56.75 56.56,-45.98 64.57,-36.18 72.42,-28.46"/>
<polygon fill="#63b8ff" stroke="#63b8ff" points="74.52,-31.29 79.57,-21.98 69.81,-26.1 74.52,-31.29"/>
</a>
</g>
</g>
</g>
</svg>
