<?xml version="1.0" encoding="UTF-8" standalone="no"?>
<!DOCTYPE svg PUBLIC "-//W3C//DTD SVG 1.1//EN"
 "http://www.w3.org/Graphics/SVG/1.1/DTD/svg11.dtd">
<!-- Generated by graphviz version 12.1.2 (20240928.0832)
 -->
<!-- Title: vlcb_net_IsWireEndpointValid Pages: 1 -->
<svg width="846pt" height="68pt"
 viewBox="0.00 0.00 845.75 67.75" xmlns="http://www.w3.org/2000/svg" xmlns:xlink="http://www.w3.org/1999/xlink">
<g id="graph0" class="graph" transform="scale(1 1) rotate(0) translate(4 63.75)">
<title>vlcb_net_IsWireEndpointValid</title>
<!-- Node1 -->
<g id="Node000001" class="node">
<title>Node1</title>
<g id="a_Node000001"><a xlink:title=" ">
<polygon fill="#999999" stroke="#666666" points="837.75,-39.75 677.75,-39.75 677.75,-19 837.75,-19 837.75,-39.75"/>
<text text-anchor="middle" x="757.75" y="-26.25" font-family="Helvetica,sans-Serif" font-size="10.00">vlcb_net_IsWireEndpointValid</text>
</a>
</g>
</g>
<!-- Node2 -->
<g id="Node000002" class="node">
<title>Node2</title>
<g id="a_Node000002"><a xlink:href="socket_2datagram_8c.html#a7078de64bfd986745f84ef33ea013ddd" target="_top" xlink:title=" ">
<polygon fill="white" stroke="#666666" points="641.75,-59.75 551.5,-59.75 551.5,-39 641.75,-39 641.75,-59.75"/>
<text text-anchor="middle" x="596.62" y="-46.25" font-family="Helvetica,sans-Serif" font-size="10.00">DispatchPacket</text>
</a>
</g>
</g>
<!-- Node1&#45;&gt;Node2 -->
<g id="edge1_Node000001_Node000002" class="edge">
<title>Node1&#45;&gt;Node2</title>
<g id="a_edge1_Node000001_Node000002"><a xlink:title=" ">
<path fill="none" stroke="#63b8ff" d="M666.28,-40.75C657.98,-41.79 649.85,-42.81 642.24,-43.77"/>
<polygon fill="#63b8ff" stroke="#63b8ff" points="666.67,-44.22 676.15,-39.51 665.79,-37.28 666.67,-44.22"/>
</a>
</g>
</g>
<!-- Node5 -->
<g id="Node000005" class="node">
<title>Node5</title>
<g id="a_Node000005"><a xlink:href="socket_2datagram_8c.html#a61c95cabe20ca7a61ea528e4c70f1245" target="_top" xlink:title=" ">
<polygon fill="white" stroke="#666666" points="639.12,-20.75 554.12,-20.75 554.12,0 639.12,0 639.12,-20.75"/>
<text text-anchor="middle" x="596.62" y="-7.25" font-family="Helvetica,sans-Serif" font-size="10.00">ProcessPacket</text>
</a>
</g>
</g>
<!-- Node1&#45;&gt;Node5 -->
<g id="edge4_Node000001_Node000005" class="edge">
<title>Node1&#45;&gt;Node5</title>
<g id="a_edge4_Node000001_Node000005"><a xlink:title=" ">
<path fill="none" stroke="#63b8ff" d="M666.49,-18.6C657.04,-17.47 647.79,-16.37 639.3,-15.35"/>
<polygon fill="#63b8ff" stroke="#63b8ff" points="665.81,-22.04 676.15,-19.75 666.64,-15.09 665.81,-22.04"/>
</a>
</g>
</g>
<!-- Node3 -->
<g id="Node000003" class="node">
<title>Node3</title>
<g id="a_Node000003"><a xlink:href="iface_8c.html#a671fece11b167dc248031f6928ed836b" target="_top" xlink:title=" ">
<polygon fill="white" stroke="#666666" points="364.12,-59.75 279.12,-59.75 279.12,-39 364.12,-39 364.12,-59.75"/>
<text text-anchor="middle" x="321.62" y="-46.25" font-family="Helvetica,sans-Serif" font-size="10.00">EgressPackets</text>
</a>
</g>
</g>
<!-- Node2&#45;&gt;Node3 -->
<g id="edge2_Node000002_Node000003" class="edge">
<title>Node2&#45;&gt;Node3</title>
<g id="a_edge2_Node000002_Node000003"><a xlink:title=" ">
<path fill="none" stroke="#63b8ff" d="M539.79,-49.38C487.75,-49.38 411.33,-49.38 364.39,-49.38"/>
<polygon fill="#63b8ff" stroke="#63b8ff" points="539.64,-52.88 549.64,-49.38 539.64,-45.88 539.64,-52.88"/>
</a>
</g>
</g>
<!-- Node4 -->
<g id="Node000004" class="node">
<title>Node4</title>
<g id="a_Node000004"><a xlink:href="iface_8c.html#ac759fac91807dd30f90627e4c7a6dce2" target="_top" xlink:title=" ">
<polygon fill="white" stroke="#666666" points="109.75,-39.75 0,-39.75 0,-19 109.75,-19 109.75,-39.75"/>
<text text-anchor="middle" x="54.88" y="-26.25" font-family="Helvetica,sans-Serif" font-size="10.00">vlcb_net_iface_Poll</text>
</a>
</g>
</g>
<!-- Node3&#45;&gt;Node4 -->
<g id="edge3_Node000003_Node000004" class="edge">
<title>Node3&#45;&gt;Node4</title>
<g id="a_edge3_Node000003_Node000004"><a xlink:title=" ">
<path fill="none" stroke="#63b8ff" d="M267.21,-45.34C221.48,-41.89 155.94,-36.93 110,-33.46"/>
<polygon fill="#63b8ff" stroke="#63b8ff" points="266.93,-48.83 277.17,-46.09 267.46,-41.85 266.93,-48.83"/>
</a>
</g>
</g>
<!-- Node6 -->
<g id="Node000006" class="node">
<title>Node6</title>
<g id="a_Node000006"><a xlink:href="iface__vlcb_8c.html#a772411fa3c2c8faf08e996dcec735dbe" target="_top" xlink:title=" ">
<polygon fill="white" stroke="#666666" points="515.5,-20.75 409.5,-20.75 409.5,0 515.5,0 515.5,-20.75"/>
<text text-anchor="middle" x="462.5" y="-7.25" font-family="Helvetica,sans-Serif" font-size="10.00">ProcessVlcbPacket</text>
</a>
</g>
</g>
<!-- Node5&#45;&gt;Node6 -->
<g id="edge5_Node000005_Node000006" class="edge">
<title>Node5&#45;&gt;Node6</title>
<g id="a_edge5_Node000005_Node000006"><a xlink:title=" ">
<path fill="none" stroke="#63b8ff" d="M542.47,-10.38C533.65,-10.38 524.51,-10.38 515.72,-10.38"/>
<polygon fill="#63b8ff" stroke="#63b8ff" points="542.31,-13.88 552.31,-10.38 542.31,-6.88 542.31,-13.88"/>
</a>
</g>
</g>
<!-- Node7 -->
<g id="Node000007" class="node">
<title>Node7</title>
<g id="a_Node000007"><a xlink:href="iface__can_8c.html#a96e0054424451b9fdc03c51cd74b9cb8" target="_top" xlink:title=" ">
<polygon fill="white" stroke="#666666" points="373.5,-20.75 269.75,-20.75 269.75,0 373.5,0 373.5,-20.75"/>
<text text-anchor="middle" x="321.62" y="-7.25" font-family="Helvetica,sans-Serif" font-size="10.00">ProcessCanPacket</text>
</a>
</g>
</g>
<!-- Node6&#45;&gt;Node7 -->
<g id="edge6_Node000006_Node000007" class="edge">
<title>Node6&#45;&gt;Node7</title>
<g id="a_edge6_Node000006_Node000007"><a xlink:title=" ">
<path fill="none" stroke="#63b8ff" d="M397.98,-10.38C389.83,-10.38 381.56,-10.38 373.64,-10.38"/>
<polygon fill="#63b8ff" stroke="#63b8ff" points="397.88,-13.88 407.88,-10.38 397.88,-6.88 397.88,-13.88"/>
</a>
</g>
</g>
<!-- Node8 -->
<g id="Node000008" class="node">
<title>Node8</title>
<g id="a_Node000008"><a xlink:href="iface_8c.html#af59bb4e147a7f433c74828ae07108404" target="_top" xlink:title=" ">
<polygon fill="white" stroke="#666666" points="233.75,-20.75 145.75,-20.75 145.75,0 233.75,0 233.75,-20.75"/>
<text text-anchor="middle" x="189.75" y="-7.25" font-family="Helvetica,sans-Serif" font-size="10.00">IngressPackets</text>
</a>
</g>
</g>
<!-- Node7&#45;&gt;Node8 -->
<g id="edge7_Node000007_Node000008" class="edge">
<title>Node7&#45;&gt;Node8</title>
<g id="a_edge7_Node000007_Node000008"><a xlink:title=" ">
<path fill="none" stroke="#63b8ff" d="M257.99,-10.38C249.93,-10.38 241.82,-10.38 234.17,-10.38"/>
<polygon fill="#63b8ff" stroke="#63b8ff" points="257.78,-13.88 267.78,-10.38 257.78,-6.88 257.78,-13.88"/>
</a>
</g>
</g>
<!-- Node8&#45;&gt;Node4 -->
<g id="edge8_Node000008_Node000004" class="edge">
<title>Node8&#45;&gt;Node4</title>
<g id="a_edge8_Node000008_Node000004"><a xlink:title=" ">
<path fill="none" stroke="#63b8ff" d="M134.42,-18.14C126.35,-19.3 118.03,-20.49 109.97,-21.64"/>
<polygon fill="#63b8ff" stroke="#63b8ff" points="134.71,-21.64 144.11,-16.76 133.72,-14.71 134.71,-21.64"/>
</a>
</g>
</g>
</g>
</svg>
