<?xml version="1.0" encoding="UTF-8" standalone="no"?>
<!DOCTYPE svg PUBLIC "-//W3C//DTD SVG 1.1//EN"
 "http://www.w3.org/Graphics/SVG/1.1/DTD/svg11.dtd">
<!-- Generated by graphviz version 12.1.2 (20240928.0832)
 -->
<!-- Title: addr.c Pages: 1 -->
<svg width="332pt" height="256pt"
 viewBox="0.00 0.00 331.88 255.75" xmlns="http://www.w3.org/2000/svg" xmlns:xlink="http://www.w3.org/1999/xlink">
<g id="graph0" class="graph" transform="scale(1 1) rotate(0) translate(4 251.75)">
<title>addr.c</title>
<!-- Node1 -->
<g id="Node000001" class="node">
<title>Node1</title>
<g id="a_Node000001"><a xlink:title=" ">
<polygon fill="#999999" stroke="#666666" points="244,-247.75 198.75,-247.75 198.75,-227 244,-227 244,-247.75"/>
<text text-anchor="middle" x="221.38" y="-234.25" font-family="Helvetica,sans-Serif" font-size="10.00">addr.c</text>
</a>
</g>
</g>
<!-- Node2 -->
<g id="Node000002" class="node">
<title>Node2</title>
<g id="a_Node000002"><a xlink:href="addr_8h.html" target="_top" xlink:title=" ">
<polygon fill="white" stroke="#666666" points="174.38,-191 86.38,-191 86.38,-170.25 174.38,-170.25 174.38,-191"/>
<text text-anchor="middle" x="130.38" y="-177.5" font-family="Helvetica,sans-Serif" font-size="10.00">vlcb/net/addr.h</text>
</a>
</g>
</g>
<!-- Node1&#45;&gt;Node2 -->
<g id="edge1_Node000001_Node000002" class="edge">
<title>Node1&#45;&gt;Node2</title>
<g id="a_edge1_Node000001_Node000002"><a xlink:title=" ">
<path fill="none" stroke="#63b8ff" d="M205.11,-226.59C191.52,-218.41 171.9,-206.61 156.17,-197.15"/>
<polygon fill="#63b8ff" stroke="#63b8ff" points="158.17,-194.27 147.8,-192.11 154.56,-200.26 158.17,-194.27"/>
</a>
</g>
</g>
<!-- Node3 -->
<g id="Node000003" class="node">
<title>Node3</title>
<g id="a_Node000003"><a xlink:href="common_2inc_2vlcb_2common_2can_8h.html" target="_top" xlink:title=" ">
<polygon fill="white" stroke="#666666" points="199,-134.25 87.75,-134.25 87.75,-113.5 199,-113.5 199,-134.25"/>
<text text-anchor="middle" x="143.38" y="-120.75" font-family="Helvetica,sans-Serif" font-size="10.00">vlcb/common/can.h</text>
</a>
</g>
</g>
<!-- Node1&#45;&gt;Node3 -->
<g id="edge10_Node000001_Node000003" class="edge">
<title>Node1&#45;&gt;Node3</title>
<g id="a_edge10_Node000001_Node000003"><a xlink:title=" ">
<path fill="none" stroke="#63b8ff" d="M216.54,-226.59C209.82,-213.34 196.95,-189.19 183.38,-170.25 176.53,-160.7 168.03,-150.83 160.62,-142.74"/>
<polygon fill="#63b8ff" stroke="#63b8ff" points="163.31,-140.49 153.91,-135.59 158.2,-145.28 163.31,-140.49"/>
</a>
</g>
</g>
<!-- Node5 -->
<g id="Node000005" class="node">
<title>Node5</title>
<g id="a_Node000005"><a xlink:title=" ">
<polygon fill="#e0e0e0" stroke="#999999" points="270.88,-77.5 209.88,-77.5 209.88,-56.75 270.88,-56.75 270.88,-77.5"/>
<text text-anchor="middle" x="240.38" y="-64" font-family="Helvetica,sans-Serif" font-size="10.00">stdbool.h</text>
</a>
</g>
</g>
<!-- Node1&#45;&gt;Node5 -->
<g id="edge9_Node000001_Node000005" class="edge">
<title>Node1&#45;&gt;Node5</title>
<g id="a_edge9_Node000001_Node000005"><a xlink:title=" ">
<path fill="none" stroke="#63b8ff" d="M222.45,-226.85C225.43,-200.48 233.83,-126.08 237.99,-89.28"/>
<polygon fill="#63b8ff" stroke="#63b8ff" points="241.45,-89.8 239.09,-79.47 234.49,-89.02 241.45,-89.8"/>
</a>
</g>
</g>
<!-- Node8 -->
<g id="Node000008" class="node">
<title>Node8</title>
<g id="a_Node000008"><a xlink:title=" ">
<polygon fill="#e0e0e0" stroke="#999999" points="323.88,-191 268.88,-191 268.88,-170.25 323.88,-170.25 323.88,-191"/>
<text text-anchor="middle" x="296.38" y="-177.5" font-family="Helvetica,sans-Serif" font-size="10.00">assert.h</text>
</a>
</g>
</g>
<!-- Node1&#45;&gt;Node8 -->
<g id="edge8_Node000001_Node000008" class="edge">
<title>Node1&#45;&gt;Node8</title>
<g id="a_edge8_Node000001_Node000008"><a xlink:title=" ">
<path fill="none" stroke="#63b8ff" d="M234.78,-226.59C245.66,-218.65 261.23,-207.28 273.99,-197.96"/>
<polygon fill="#63b8ff" stroke="#63b8ff" points="275.85,-200.94 281.86,-192.22 271.72,-195.29 275.85,-200.94"/>
</a>
</g>
</g>
<!-- Node2&#45;&gt;Node3 -->
<g id="edge2_Node000002_Node000003" class="edge">
<title>Node2&#45;&gt;Node3</title>
<g id="a_edge2_Node000002_Node000003"><a xlink:title=" ">
<path fill="none" stroke="#63b8ff" d="M132.7,-169.84C134.29,-163.14 136.46,-154.01 138.42,-145.73"/>
<polygon fill="#63b8ff" stroke="#63b8ff" points="141.82,-146.59 140.72,-136.05 135.01,-144.97 141.82,-146.59"/>
</a>
</g>
</g>
<!-- Node4 -->
<g id="Node000004" class="node">
<title>Node4</title>
<g id="a_Node000004"><a xlink:title=" ">
<polygon fill="#e0e0e0" stroke="#999999" points="64.75,-77.5 0,-77.5 0,-56.75 64.75,-56.75 64.75,-77.5"/>
<text text-anchor="middle" x="32.38" y="-64" font-family="Helvetica,sans-Serif" font-size="10.00">inttypes.h</text>
</a>
</g>
</g>
<!-- Node3&#45;&gt;Node4 -->
<g id="edge3_Node000003_Node000004" class="edge">
<title>Node3&#45;&gt;Node4</title>
<g id="a_edge3_Node000003_Node000004"><a xlink:title=" ">
<path fill="none" stroke="#63b8ff" d="M123.53,-113.09C106.48,-104.68 81.65,-92.43 62.21,-82.84"/>
<polygon fill="#63b8ff" stroke="#63b8ff" points="63.92,-79.78 53.41,-78.5 60.83,-86.06 63.92,-79.78"/>
</a>
</g>
</g>
<!-- Node3&#45;&gt;Node5 -->
<g id="edge4_Node000003_Node000005" class="edge">
<title>Node3&#45;&gt;Node5</title>
<g id="a_edge4_Node000003_Node000005"><a xlink:title=" ">
<path fill="none" stroke="#63b8ff" d="M160.72,-113.09C175.34,-104.83 196.51,-92.88 213.35,-83.38"/>
<polygon fill="#63b8ff" stroke="#63b8ff" points="214.88,-86.54 221.87,-78.57 211.44,-80.44 214.88,-86.54"/>
</a>
</g>
</g>
<!-- Node6 -->
<g id="Node000006" class="node">
<title>Node6</title>
<g id="a_Node000006"><a xlink:title=" ">
<polygon fill="#e0e0e0" stroke="#999999" points="150.75,-20.75 98,-20.75 98,0 150.75,0 150.75,-20.75"/>
<text text-anchor="middle" x="124.38" y="-7.25" font-family="Helvetica,sans-Serif" font-size="10.00">stdint.h</text>
</a>
</g>
</g>
<!-- Node3&#45;&gt;Node6 -->
<g id="edge5_Node000003_Node000006" class="edge">
<title>Node3&#45;&gt;Node6</title>
<g id="a_edge5_Node000003_Node000006"><a xlink:title=" ">
<path fill="none" stroke="#63b8ff" d="M133.71,-113.07C125.98,-104.49 115.75,-91.28 111.38,-77.5 106.56,-62.32 110.54,-44.59 115.33,-31.31"/>
<polygon fill="#63b8ff" stroke="#63b8ff" points="118.44,-32.94 118.97,-22.36 111.95,-30.31 118.44,-32.94"/>
</a>
</g>
</g>
<!-- Node7 -->
<g id="Node000007" class="node">
<title>Node7</title>
<g id="a_Node000007"><a xlink:href="vlcb__defs_8h.html" target="_top" xlink:title=" ">
<polygon fill="white" stroke="#666666" points="192.12,-77.5 120.62,-77.5 120.62,-56.75 192.12,-56.75 192.12,-77.5"/>
<text text-anchor="middle" x="156.38" y="-64" font-family="Helvetica,sans-Serif" font-size="10.00">vlcb_defs.h</text>
</a>
</g>
</g>
<!-- Node3&#45;&gt;Node7 -->
<g id="edge6_Node000003_Node000007" class="edge">
<title>Node3&#45;&gt;Node7</title>
<g id="a_edge6_Node000003_Node000007"><a xlink:title=" ">
<path fill="none" stroke="#63b8ff" d="M145.7,-113.09C147.29,-106.39 149.46,-97.26 151.42,-88.98"/>
<polygon fill="#63b8ff" stroke="#63b8ff" points="154.82,-89.84 153.72,-79.3 148.01,-88.22 154.82,-89.84"/>
</a>
</g>
</g>
<!-- Node7&#45;&gt;Node6 -->
<g id="edge7_Node000007_Node000006" class="edge">
<title>Node7&#45;&gt;Node6</title>
<g id="a_edge7_Node000007_Node000006"><a xlink:title=" ">
<path fill="none" stroke="#63b8ff" d="M150.65,-56.34C146.51,-49.25 140.78,-39.44 135.72,-30.79"/>
<polygon fill="#63b8ff" stroke="#63b8ff" points="138.88,-29.25 130.81,-22.39 132.83,-32.78 138.88,-29.25"/>
</a>
</g>
</g>
</g>
</svg>
