<?xml version="1.0" encoding="UTF-8" standalone="no"?>
<!DOCTYPE svg PUBLIC "-//W3C//DTD SVG 1.1//EN"
 "http://www.w3.org/Graphics/SVG/1.1/DTD/svg11.dtd">
<!-- Generated by graphviz version 12.1.2 (20240928.0832)
 -->
<!-- Title: can_prio_from_opc.c Pages: 1 -->
<svg width="269pt" height="199pt"
 viewBox="0.00 0.00 268.50 199.00" xmlns="http://www.w3.org/2000/svg" xmlns:xlink="http://www.w3.org/1999/xlink">
<g id="graph0" class="graph" transform="scale(1 1) rotate(0) translate(4 195)">
<title>can_prio_from_opc.c</title>
<!-- Node1 -->
<g id="Node000001" class="node">
<title>Node1</title>
<g id="a_Node000001"><a xlink:title=" ">
<polygon fill="#999999" stroke="#666666" points="246.62,-191 130.12,-191 130.12,-170.25 246.62,-170.25 246.62,-191"/>
<text text-anchor="middle" x="188.38" y="-177.5" font-family="Helvetica,sans-Serif" font-size="10.00">can_prio_from_opc.c</text>
</a>
</g>
</g>
<!-- Node2 -->
<g id="Node000002" class="node">
<title>Node2</title>
<g id="a_Node000002"><a xlink:href="common_2inc_2vlcb_2common_2can_8h.html" target="_top" xlink:title=" ">
<polygon fill="white" stroke="#666666" points="202,-134.25 90.75,-134.25 90.75,-113.5 202,-113.5 202,-134.25"/>
<text text-anchor="middle" x="146.38" y="-120.75" font-family="Helvetica,sans-Serif" font-size="10.00">vlcb/common/can.h</text>
</a>
</g>
</g>
<!-- Node1&#45;&gt;Node2 -->
<g id="edge1_Node000001_Node000002" class="edge">
<title>Node1&#45;&gt;Node2</title>
<g id="a_edge1_Node000001_Node000002"><a xlink:title=" ">
<path fill="none" stroke="#63b8ff" d="M180.87,-169.84C175.25,-162.52 167.41,-152.29 160.62,-143.44"/>
<polygon fill="#63b8ff" stroke="#63b8ff" points="163.6,-141.58 154.74,-135.78 158.05,-145.84 163.6,-141.58"/>
</a>
</g>
</g>
<!-- Node6 -->
<g id="Node000006" class="node">
<title>Node6</title>
<g id="a_Node000006"><a xlink:href="opcode_8h.html" target="_top" xlink:title=" ">
<polygon fill="white" stroke="#666666" points="260.5,-77.5 200.25,-77.5 200.25,-56.75 260.5,-56.75 260.5,-77.5"/>
<text text-anchor="middle" x="230.38" y="-64" font-family="Helvetica,sans-Serif" font-size="10.00">opcode.h</text>
</a>
</g>
</g>
<!-- Node1&#45;&gt;Node6 -->
<g id="edge7_Node000001_Node000006" class="edge">
<title>Node1&#45;&gt;Node6</title>
<g id="a_edge7_Node000001_Node000006"><a xlink:title=" ">
<path fill="none" stroke="#63b8ff" d="M194.05,-169.78C199.09,-160.76 206.4,-146.91 211.38,-134.25 217.2,-119.42 222.11,-102.1 225.48,-88.9"/>
<polygon fill="#63b8ff" stroke="#63b8ff" points="228.88,-89.75 227.86,-79.2 222.08,-88.08 228.88,-89.75"/>
</a>
</g>
</g>
<!-- Node3 -->
<g id="Node000003" class="node">
<title>Node3</title>
<g id="a_Node000003"><a xlink:title=" ">
<polygon fill="#e0e0e0" stroke="#999999" points="64.75,-77.5 0,-77.5 0,-56.75 64.75,-56.75 64.75,-77.5"/>
<text text-anchor="middle" x="32.38" y="-64" font-family="Helvetica,sans-Serif" font-size="10.00">inttypes.h</text>
</a>
</g>
</g>
<!-- Node2&#45;&gt;Node3 -->
<g id="edge2_Node000002_Node000003" class="edge">
<title>Node2&#45;&gt;Node3</title>
<g id="a_edge2_Node000002_Node000003"><a xlink:title=" ">
<path fill="none" stroke="#63b8ff" d="M125.99,-113.09C108.41,-104.64 82.75,-92.32 62.74,-82.71"/>
<polygon fill="#63b8ff" stroke="#63b8ff" points="64.47,-79.66 53.94,-78.48 61.44,-85.97 64.47,-79.66"/>
</a>
</g>
</g>
<!-- Node4 -->
<g id="Node000004" class="node">
<title>Node4</title>
<g id="a_Node000004"><a xlink:title=" ">
<polygon fill="#e0e0e0" stroke="#999999" points="143.88,-77.5 82.88,-77.5 82.88,-56.75 143.88,-56.75 143.88,-77.5"/>
<text text-anchor="middle" x="113.38" y="-64" font-family="Helvetica,sans-Serif" font-size="10.00">stdbool.h</text>
</a>
</g>
</g>
<!-- Node2&#45;&gt;Node4 -->
<g id="edge3_Node000002_Node000004" class="edge">
<title>Node2&#45;&gt;Node4</title>
<g id="a_edge3_Node000002_Node000004"><a xlink:title=" ">
<path fill="none" stroke="#63b8ff" d="M140.48,-113.09C136.2,-106 130.29,-96.19 125.08,-87.54"/>
<polygon fill="#63b8ff" stroke="#63b8ff" points="128.16,-85.88 120,-79.12 122.17,-89.5 128.16,-85.88"/>
</a>
</g>
</g>
<!-- Node5 -->
<g id="Node000005" class="node">
<title>Node5</title>
<g id="a_Node000005"><a xlink:title=" ">
<polygon fill="#e0e0e0" stroke="#999999" points="227.75,-20.75 175,-20.75 175,0 227.75,0 227.75,-20.75"/>
<text text-anchor="middle" x="201.38" y="-7.25" font-family="Helvetica,sans-Serif" font-size="10.00">stdint.h</text>
</a>
</g>
</g>
<!-- Node2&#45;&gt;Node5 -->
<g id="edge4_Node000002_Node000005" class="edge">
<title>Node2&#45;&gt;Node5</title>
<g id="a_edge4_Node000002_Node000005"><a xlink:title=" ">
<path fill="none" stroke="#63b8ff" d="M151.06,-113.37C159.99,-95.27 179.59,-55.53 191.52,-31.35"/>
<polygon fill="#63b8ff" stroke="#63b8ff" points="194.59,-33.05 195.87,-22.53 188.31,-29.95 194.59,-33.05"/>
</a>
</g>
</g>
<!-- Node2&#45;&gt;Node6 -->
<g id="edge5_Node000002_Node000006" class="edge">
<title>Node2&#45;&gt;Node6</title>
<g id="a_edge5_Node000002_Node000006"><a xlink:title=" ">
<path fill="none" stroke="#63b8ff" d="M161.39,-113.09C173.82,-104.99 191.7,-93.33 206.15,-83.92"/>
<polygon fill="#63b8ff" stroke="#63b8ff" points="207.75,-87.05 214.22,-78.65 203.93,-81.18 207.75,-87.05"/>
</a>
</g>
</g>
<!-- Node6&#45;&gt;Node5 -->
<g id="edge6_Node000006_Node000005" class="edge">
<title>Node6&#45;&gt;Node5</title>
<g id="a_edge6_Node000006_Node000005"><a xlink:title=" ">
<path fill="none" stroke="#63b8ff" d="M225.19,-56.34C221.48,-49.33 216.36,-39.66 211.81,-31.08"/>
<polygon fill="#63b8ff" stroke="#63b8ff" points="215,-29.61 207.22,-22.42 208.81,-32.89 215,-29.61"/>
</a>
</g>
</g>
</g>
</svg>
