<?xml version="1.0" encoding="UTF-8" standalone="no"?>
<!DOCTYPE svg PUBLIC "-//W3C//DTD SVG 1.1//EN"
 "http://www.w3.org/Graphics/SVG/1.1/DTD/svg11.dtd">
<!-- Generated by graphviz version 12.1.2 (20240928.0832)
 -->
<!-- Title: can_prio_from_opc.c Pages: 1 -->
<svg width="280pt" height="199pt"
 viewBox="0.00 0.00 280.12 199.00" xmlns="http://www.w3.org/2000/svg" xmlns:xlink="http://www.w3.org/1999/xlink">
<g id="graph0" class="graph" transform="scale(1 1) rotate(0) translate(4 195)">
<title>can_prio_from_opc.c</title>
<!-- Node1 -->
<g id="Node000001" class="node">
<title>Node1</title>
<g id="a_Node000001"><a xlink:title=" ">
<polygon fill="#999999" stroke="#666666" points="252.62,-191 136.12,-191 136.12,-170.25 252.62,-170.25 252.62,-191"/>
<text text-anchor="middle" x="194.38" y="-177.5" font-family="Helvetica,sans-Serif" font-size="10.00">can_prio_from_opc.c</text>
</a>
</g>
</g>
<!-- Node2 -->
<g id="Node000002" class="node">
<title>Node2</title>
<g id="a_Node000002"><a xlink:href="common_2inc_2vlcb_2common_2can_8h.html" target="_top" xlink:title=" ">
<polygon fill="white" stroke="#666666" points="208,-134.25 96.75,-134.25 96.75,-113.5 208,-113.5 208,-134.25"/>
<text text-anchor="middle" x="152.38" y="-120.75" font-family="Helvetica,sans-Serif" font-size="10.00">vlcb/common/can.h</text>
</a>
</g>
</g>
<!-- Node1&#45;&gt;Node2 -->
<g id="edge1_Node000001_Node000002" class="edge">
<title>Node1&#45;&gt;Node2</title>
<g id="a_edge1_Node000001_Node000002"><a xlink:title=" ">
<path fill="none" stroke="#63b8ff" d="M186.87,-169.84C181.25,-162.52 173.41,-152.29 166.62,-143.44"/>
<polygon fill="#63b8ff" stroke="#63b8ff" points="169.6,-141.58 160.74,-135.78 164.05,-145.84 169.6,-141.58"/>
</a>
</g>
</g>
<!-- Node6 -->
<g id="Node000006" class="node">
<title>Node6</title>
<g id="a_Node000006"><a xlink:href="vlcb__defs_8h.html" target="_top" xlink:title=" ">
<polygon fill="white" stroke="#666666" points="272.12,-77.5 200.62,-77.5 200.62,-56.75 272.12,-56.75 272.12,-77.5"/>
<text text-anchor="middle" x="236.38" y="-64" font-family="Helvetica,sans-Serif" font-size="10.00">vlcb_defs.h</text>
</a>
</g>
</g>
<!-- Node1&#45;&gt;Node6 -->
<g id="edge7_Node000001_Node000006" class="edge">
<title>Node1&#45;&gt;Node6</title>
<g id="a_edge7_Node000001_Node000006"><a xlink:title=" ">
<path fill="none" stroke="#63b8ff" d="M200.05,-169.78C205.09,-160.76 212.4,-146.91 217.38,-134.25 223.2,-119.42 228.11,-102.1 231.48,-88.9"/>
<polygon fill="#63b8ff" stroke="#63b8ff" points="234.88,-89.75 233.86,-79.2 228.08,-88.08 234.88,-89.75"/>
</a>
</g>
</g>
<!-- Node3 -->
<g id="Node000003" class="node">
<title>Node3</title>
<g id="a_Node000003"><a xlink:title=" ">
<polygon fill="#e0e0e0" stroke="#999999" points="64.75,-77.5 0,-77.5 0,-56.75 64.75,-56.75 64.75,-77.5"/>
<text text-anchor="middle" x="32.38" y="-64" font-family="Helvetica,sans-Serif" font-size="10.00">inttypes.h</text>
</a>
</g>
</g>
<!-- Node2&#45;&gt;Node3 -->
<g id="edge2_Node000002_Node000003" class="edge">
<title>Node2&#45;&gt;Node3</title>
<g id="a_edge2_Node000002_Node000003"><a xlink:title=" ">
<path fill="none" stroke="#63b8ff" d="M130.92,-113.09C112.32,-104.6 85.15,-92.2 64.05,-82.58"/>
<polygon fill="#63b8ff" stroke="#63b8ff" points="65.57,-79.42 55.02,-78.46 62.66,-85.79 65.57,-79.42"/>
</a>
</g>
</g>
<!-- Node4 -->
<g id="Node000004" class="node">
<title>Node4</title>
<g id="a_Node000004"><a xlink:title=" ">
<polygon fill="#e0e0e0" stroke="#999999" points="143.88,-77.5 82.88,-77.5 82.88,-56.75 143.88,-56.75 143.88,-77.5"/>
<text text-anchor="middle" x="113.38" y="-64" font-family="Helvetica,sans-Serif" font-size="10.00">stdbool.h</text>
</a>
</g>
</g>
<!-- Node2&#45;&gt;Node4 -->
<g id="edge3_Node000002_Node000004" class="edge">
<title>Node2&#45;&gt;Node4</title>
<g id="a_edge3_Node000002_Node000004"><a xlink:title=" ">
<path fill="none" stroke="#63b8ff" d="M145.4,-113.09C140.24,-105.85 133.06,-95.76 126.8,-86.97"/>
<polygon fill="#63b8ff" stroke="#63b8ff" points="129.82,-85.18 121.17,-79.06 124.12,-89.24 129.82,-85.18"/>
</a>
</g>
</g>
<!-- Node5 -->
<g id="Node000005" class="node">
<title>Node5</title>
<g id="a_Node000005"><a xlink:title=" ">
<polygon fill="#e0e0e0" stroke="#999999" points="230.75,-20.75 178,-20.75 178,0 230.75,0 230.75,-20.75"/>
<text text-anchor="middle" x="204.38" y="-7.25" font-family="Helvetica,sans-Serif" font-size="10.00">stdint.h</text>
</a>
</g>
</g>
<!-- Node2&#45;&gt;Node5 -->
<g id="edge4_Node000002_Node000005" class="edge">
<title>Node2&#45;&gt;Node5</title>
<g id="a_edge4_Node000002_Node000005"><a xlink:title=" ">
<path fill="none" stroke="#63b8ff" d="M156.81,-113.37C165.25,-95.27 183.78,-55.53 195.06,-31.35"/>
<polygon fill="#63b8ff" stroke="#63b8ff" points="198.11,-33.09 199.16,-22.55 191.77,-30.13 198.11,-33.09"/>
</a>
</g>
</g>
<!-- Node2&#45;&gt;Node6 -->
<g id="edge5_Node000002_Node000006" class="edge">
<title>Node2&#45;&gt;Node6</title>
<g id="a_edge5_Node000002_Node000006"><a xlink:title=" ">
<path fill="none" stroke="#63b8ff" d="M167.39,-113.09C179.82,-104.99 197.7,-93.33 212.15,-83.92"/>
<polygon fill="#63b8ff" stroke="#63b8ff" points="213.75,-87.05 220.22,-78.65 209.93,-81.18 213.75,-87.05"/>
</a>
</g>
</g>
<!-- Node6&#45;&gt;Node5 -->
<g id="edge6_Node000006_Node000005" class="edge">
<title>Node6&#45;&gt;Node5</title>
<g id="a_edge6_Node000006_Node000005"><a xlink:title=" ">
<path fill="none" stroke="#63b8ff" d="M230.65,-56.34C226.51,-49.25 220.78,-39.44 215.72,-30.79"/>
<polygon fill="#63b8ff" stroke="#63b8ff" points="218.88,-29.25 210.81,-22.39 212.83,-32.78 218.88,-29.25"/>
</a>
</g>
</g>
</g>
</svg>
