<?xml version="1.0" encoding="UTF-8" standalone="no"?>
<!DOCTYPE svg PUBLIC "-//W3C//DTD SVG 1.1//EN"
 "http://www.w3.org/Graphics/SVG/1.1/DTD/svg11.dtd">
<!-- Generated by graphviz version 12.1.2 (20240928.0832)
 -->
<!-- Title: can_prio_from_byte.c Pages: 1 -->
<svg width="352pt" height="199pt"
 viewBox="0.00 0.00 351.88 199.00" xmlns="http://www.w3.org/2000/svg" xmlns:xlink="http://www.w3.org/1999/xlink">
<g id="graph0" class="graph" transform="scale(1 1) rotate(0) translate(4 195)">
<title>can_prio_from_byte.c</title>
<!-- Node1 -->
<g id="Node000001" class="node">
<title>Node1</title>
<g id="a_Node000001"><a xlink:title=" ">
<polygon fill="#999999" stroke="#666666" points="303.88,-191 182.88,-191 182.88,-170.25 303.88,-170.25 303.88,-191"/>
<text text-anchor="middle" x="243.38" y="-177.5" font-family="Helvetica,sans-Serif" font-size="10.00">can_prio_from_byte.c</text>
</a>
</g>
</g>
<!-- Node2 -->
<g id="Node000002" class="node">
<title>Node2</title>
<g id="a_Node000002"><a xlink:href="common_2inc_2vlcb_2common_2can_8h.html" target="_top" xlink:title=" ">
<polygon fill="white" stroke="#666666" points="198,-134.25 86.75,-134.25 86.75,-113.5 198,-113.5 198,-134.25"/>
<text text-anchor="middle" x="142.38" y="-120.75" font-family="Helvetica,sans-Serif" font-size="10.00">vlcb/common/can.h</text>
</a>
</g>
</g>
<!-- Node1&#45;&gt;Node2 -->
<g id="edge1_Node000001_Node000002" class="edge">
<title>Node1&#45;&gt;Node2</title>
<g id="a_edge1_Node000001_Node000002"><a xlink:title=" ">
<path fill="none" stroke="#63b8ff" d="M225.32,-169.84C209.95,-161.51 187.63,-149.41 170.02,-139.86"/>
<polygon fill="#63b8ff" stroke="#63b8ff" points="172.07,-136.99 161.61,-135.3 168.73,-143.14 172.07,-136.99"/>
</a>
</g>
</g>
<!-- Node7 -->
<g id="Node000007" class="node">
<title>Node7</title>
<g id="a_Node000007"><a xlink:title=" ">
<polygon fill="#e0e0e0" stroke="#999999" points="270.88,-134.25 215.88,-134.25 215.88,-113.5 270.88,-113.5 270.88,-134.25"/>
<text text-anchor="middle" x="243.38" y="-120.75" font-family="Helvetica,sans-Serif" font-size="10.00">assert.h</text>
</a>
</g>
</g>
<!-- Node1&#45;&gt;Node7 -->
<g id="edge7_Node000001_Node000007" class="edge">
<title>Node1&#45;&gt;Node7</title>
<g id="a_edge7_Node000001_Node000007"><a xlink:title=" ">
<path fill="none" stroke="#63b8ff" d="M243.38,-169.84C243.38,-163.22 243.38,-154.22 243.38,-146.02"/>
<polygon fill="#63b8ff" stroke="#63b8ff" points="246.88,-146.09 243.38,-136.09 239.88,-146.09 246.88,-146.09"/>
</a>
</g>
</g>
<!-- Node8 -->
<g id="Node000008" class="node">
<title>Node8</title>
<g id="a_Node000008"><a xlink:title=" ">
<polygon fill="#e0e0e0" stroke="#999999" points="343.88,-134.25 288.88,-134.25 288.88,-113.5 343.88,-113.5 343.88,-134.25"/>
<text text-anchor="middle" x="316.38" y="-120.75" font-family="Helvetica,sans-Serif" font-size="10.00">stddef.h</text>
</a>
</g>
</g>
<!-- Node1&#45;&gt;Node8 -->
<g id="edge8_Node000001_Node000008" class="edge">
<title>Node1&#45;&gt;Node8</title>
<g id="a_edge8_Node000001_Node000008"><a xlink:title=" ">
<path fill="none" stroke="#63b8ff" d="M256.43,-169.84C267.01,-161.9 282.17,-150.53 294.59,-141.21"/>
<polygon fill="#63b8ff" stroke="#63b8ff" points="296.33,-144.29 302.23,-135.49 292.13,-138.69 296.33,-144.29"/>
</a>
</g>
</g>
<!-- Node3 -->
<g id="Node000003" class="node">
<title>Node3</title>
<g id="a_Node000003"><a xlink:title=" ">
<polygon fill="#e0e0e0" stroke="#999999" points="64.75,-77.5 0,-77.5 0,-56.75 64.75,-56.75 64.75,-77.5"/>
<text text-anchor="middle" x="32.38" y="-64" font-family="Helvetica,sans-Serif" font-size="10.00">inttypes.h</text>
</a>
</g>
</g>
<!-- Node2&#45;&gt;Node3 -->
<g id="edge2_Node000002_Node000003" class="edge">
<title>Node2&#45;&gt;Node3</title>
<g id="a_edge2_Node000002_Node000003"><a xlink:title=" ">
<path fill="none" stroke="#63b8ff" d="M122.71,-113.09C105.82,-104.68 81.21,-92.43 61.94,-82.84"/>
<polygon fill="#63b8ff" stroke="#63b8ff" points="63.74,-79.83 53.23,-78.5 60.62,-86.09 63.74,-79.83"/>
</a>
</g>
</g>
<!-- Node4 -->
<g id="Node000004" class="node">
<title>Node4</title>
<g id="a_Node000004"><a xlink:title=" ">
<polygon fill="#e0e0e0" stroke="#999999" points="143.88,-77.5 82.88,-77.5 82.88,-56.75 143.88,-56.75 143.88,-77.5"/>
<text text-anchor="middle" x="113.38" y="-64" font-family="Helvetica,sans-Serif" font-size="10.00">stdbool.h</text>
</a>
</g>
</g>
<!-- Node2&#45;&gt;Node4 -->
<g id="edge3_Node000002_Node000004" class="edge">
<title>Node2&#45;&gt;Node4</title>
<g id="a_edge3_Node000002_Node000004"><a xlink:title=" ">
<path fill="none" stroke="#63b8ff" d="M137.19,-113.09C133.48,-106.08 128.36,-96.41 123.81,-87.83"/>
<polygon fill="#63b8ff" stroke="#63b8ff" points="127,-86.36 119.22,-79.17 120.81,-89.64 127,-86.36"/>
</a>
</g>
</g>
<!-- Node5 -->
<g id="Node000005" class="node">
<title>Node5</title>
<g id="a_Node000005"><a xlink:title=" ">
<polygon fill="#e0e0e0" stroke="#999999" points="230.75,-20.75 178,-20.75 178,0 230.75,0 230.75,-20.75"/>
<text text-anchor="middle" x="204.38" y="-7.25" font-family="Helvetica,sans-Serif" font-size="10.00">stdint.h</text>
</a>
</g>
</g>
<!-- Node2&#45;&gt;Node5 -->
<g id="edge4_Node000002_Node000005" class="edge">
<title>Node2&#45;&gt;Node5</title>
<g id="a_edge4_Node000002_Node000005"><a xlink:title=" ">
<path fill="none" stroke="#63b8ff" d="M147.66,-113.37C157.77,-95.19 180.02,-55.17 193.45,-31.02"/>
<polygon fill="#63b8ff" stroke="#63b8ff" points="196.39,-32.94 198.19,-22.5 190.27,-29.54 196.39,-32.94"/>
</a>
</g>
</g>
<!-- Node6 -->
<g id="Node000006" class="node">
<title>Node6</title>
<g id="a_Node000006"><a xlink:href="vlcb__defs_8h.html" target="_top" xlink:title=" ">
<polygon fill="white" stroke="#666666" points="272.12,-77.5 200.62,-77.5 200.62,-56.75 272.12,-56.75 272.12,-77.5"/>
<text text-anchor="middle" x="236.38" y="-64" font-family="Helvetica,sans-Serif" font-size="10.00">vlcb_defs.h</text>
</a>
</g>
</g>
<!-- Node2&#45;&gt;Node6 -->
<g id="edge5_Node000002_Node000006" class="edge">
<title>Node2&#45;&gt;Node6</title>
<g id="a_edge5_Node000002_Node000006"><a xlink:title=" ">
<path fill="none" stroke="#63b8ff" d="M159.18,-113.09C173.35,-104.83 193.87,-92.88 210.19,-83.38"/>
<polygon fill="#63b8ff" stroke="#63b8ff" points="211.53,-86.65 218.41,-78.59 208,-80.6 211.53,-86.65"/>
</a>
</g>
</g>
<!-- Node6&#45;&gt;Node5 -->
<g id="edge6_Node000006_Node000005" class="edge">
<title>Node6&#45;&gt;Node5</title>
<g id="a_edge6_Node000006_Node000005"><a xlink:title=" ">
<path fill="none" stroke="#63b8ff" d="M230.65,-56.34C226.51,-49.25 220.78,-39.44 215.72,-30.79"/>
<polygon fill="#63b8ff" stroke="#63b8ff" points="218.88,-29.25 210.81,-22.39 212.83,-32.78 218.88,-29.25"/>
</a>
</g>
</g>
</g>
</svg>
