<?xml version="1.0" encoding="UTF-8" standalone="no"?>
<!DOCTYPE svg PUBLIC "-//W3C//DTD SVG 1.1//EN"
 "http://www.w3.org/Graphics/SVG/1.1/DTD/svg11.dtd">
<!-- Generated by graphviz version 12.1.2 (20240928.0832)
 -->
<!-- Title: can.h Pages: 1 -->
<svg width="1000pt" height="369pt"
 viewBox="0.00 0.00 1000.38 369.25" xmlns="http://www.w3.org/2000/svg" xmlns:xlink="http://www.w3.org/1999/xlink">
<g id="graph0" class="graph" transform="scale(1 1) rotate(0) translate(4 365.25)">
<title>can.h</title>
<!-- Node1 -->
<g id="Node000001" class="node">
<title>Node1</title>
<g id="a_Node000001"><a xlink:title=" ">
<polygon fill="#999999" stroke="#666666" points="493.62,-361.25 451.38,-361.25 451.38,-340.5 493.62,-340.5 493.62,-361.25"/>
<text text-anchor="middle" x="472.5" y="-347.75" font-family="Helvetica,sans-Serif" font-size="10.00">can.h</text>
</a>
</g>
</g>
<!-- Node2 -->
<g id="Node000002" class="node">
<title>Node2</title>
<g id="a_Node000002"><a xlink:href="addr_8c.html" target="_top" xlink:title=" ">
<polygon fill="white" stroke="#666666" points="194.12,-247.75 148.88,-247.75 148.88,-227 194.12,-227 194.12,-247.75"/>
<text text-anchor="middle" x="171.5" y="-234.25" font-family="Helvetica,sans-Serif" font-size="10.00">addr.c</text>
</a>
</g>
</g>
<!-- Node1&#45;&gt;Node2 -->
<g id="edge1_Node000001_Node000002" class="edge">
<title>Node1&#45;&gt;Node2</title>
<g id="a_edge1_Node000001_Node000002"><a xlink:title=" ">
<path fill="none" stroke="#63b8ff" d="M439.43,-350.15C367.72,-349.96 201.49,-345.06 166.5,-304.5 152.96,-288.81 160.93,-262.49 166.86,-248.25"/>
<polygon fill="#63b8ff" stroke="#63b8ff" points="439.38,-353.65 449.38,-350.14 439.37,-346.65 439.38,-353.65"/>
</a>
</g>
</g>
<!-- Node3 -->
<g id="Node000003" class="node">
<title>Node3</title>
<g id="a_Node000003"><a xlink:href="addr_8h.html" target="_top" xlink:title=" ">
<polygon fill="white" stroke="#666666" points="221.5,-304.5 175.5,-304.5 175.5,-283.75 221.5,-283.75 221.5,-304.5"/>
<text text-anchor="middle" x="198.5" y="-291" font-family="Helvetica,sans-Serif" font-size="10.00">addr.h</text>
</a>
</g>
</g>
<!-- Node1&#45;&gt;Node3 -->
<g id="edge2_Node000001_Node000003" class="edge">
<title>Node1&#45;&gt;Node3</title>
<g id="a_edge2_Node000001_Node000003"><a xlink:title=" ">
<path fill="none" stroke="#63b8ff" d="M439.77,-344.8C393.05,-337.32 304.69,-322.28 230.5,-304.5 227.69,-303.83 224.75,-303.06 221.85,-302.26"/>
<polygon fill="#63b8ff" stroke="#63b8ff" points="439.06,-348.23 449.49,-346.34 440.16,-341.32 439.06,-348.23"/>
</a>
</g>
</g>
<!-- Node20 -->
<g id="Node000020" class="node">
<title>Node20</title>
<g id="a_Node000020"><a xlink:href="can__id__is__valid_8c.html" target="_top" xlink:title=" ">
<polygon fill="white" stroke="#666666" points="413.75,-304.5 315.25,-304.5 315.25,-283.75 413.75,-283.75 413.75,-304.5"/>
<text text-anchor="middle" x="364.5" y="-291" font-family="Helvetica,sans-Serif" font-size="10.00">can_id_is_valid.c</text>
</a>
</g>
</g>
<!-- Node1&#45;&gt;Node20 -->
<g id="edge29_Node000001_Node000020" class="edge">
<title>Node1&#45;&gt;Node20</title>
<g id="a_edge29_Node000001_Node000020"><a xlink:title=" ">
<path fill="none" stroke="#63b8ff" d="M443.02,-334.93C424.1,-325.34 400.1,-313.17 383.64,-304.83"/>
<polygon fill="#63b8ff" stroke="#63b8ff" points="441.34,-338 451.84,-339.4 444.5,-331.76 441.34,-338"/>
</a>
</g>
</g>
<!-- Node21 -->
<g id="Node000021" class="node">
<title>Node21</title>
<g id="a_Node000021"><a xlink:href="can__id__new_8c.html" target="_top" xlink:title=" ">
<polygon fill="white" stroke="#666666" points="512.75,-304.5 432.25,-304.5 432.25,-283.75 512.75,-283.75 512.75,-304.5"/>
<text text-anchor="middle" x="472.5" y="-291" font-family="Helvetica,sans-Serif" font-size="10.00">can_id_new.c</text>
</a>
</g>
</g>
<!-- Node1&#45;&gt;Node21 -->
<g id="edge30_Node000001_Node000021" class="edge">
<title>Node1&#45;&gt;Node21</title>
<g id="a_edge30_Node000001_Node000021"><a xlink:title=" ">
<path fill="none" stroke="#63b8ff" d="M472.5,-328.63C472.5,-320.41 472.5,-311.43 472.5,-304.83"/>
<polygon fill="#63b8ff" stroke="#63b8ff" points="469,-328.57 472.5,-338.57 476,-328.57 469,-328.57"/>
</a>
</g>
</g>
<!-- Node22 -->
<g id="Node000022" class="node">
<title>Node22</title>
<g id="a_Node000022"><a xlink:href="can__is__prio__valid_8c.html" target="_top" xlink:title=" ">
<polygon fill="white" stroke="#666666" points="638.62,-304.5 530.38,-304.5 530.38,-283.75 638.62,-283.75 638.62,-304.5"/>
<text text-anchor="middle" x="584.5" y="-291" font-family="Helvetica,sans-Serif" font-size="10.00">can_is_prio_valid.c</text>
</a>
</g>
</g>
<!-- Node1&#45;&gt;Node22 -->
<g id="edge31_Node000001_Node000022" class="edge">
<title>Node1&#45;&gt;Node22</title>
<g id="a_edge31_Node000001_Node000022"><a xlink:title=" ">
<path fill="none" stroke="#63b8ff" d="M502.8,-335.06C522.46,-325.45 547.5,-313.21 564.65,-304.83"/>
<polygon fill="#63b8ff" stroke="#63b8ff" points="501.33,-331.89 493.88,-339.42 504.4,-338.17 501.33,-331.89"/>
</a>
</g>
</g>
<!-- Node23 -->
<g id="Node000023" class="node">
<title>Node23</title>
<g id="a_Node000023"><a xlink:href="can__prio__from__byte_8c.html" target="_top" xlink:title=" ">
<polygon fill="white" stroke="#666666" points="778,-304.5 657,-304.5 657,-283.75 778,-283.75 778,-304.5"/>
<text text-anchor="middle" x="717.5" y="-291" font-family="Helvetica,sans-Serif" font-size="10.00">can_prio_from_byte.c</text>
</a>
</g>
</g>
<!-- Node1&#45;&gt;Node23 -->
<g id="edge32_Node000001_Node000023" class="edge">
<title>Node1&#45;&gt;Node23</title>
<g id="a_edge32_Node000001_Node000023"><a xlink:title=" ">
<path fill="none" stroke="#63b8ff" d="M504.82,-342.65C548.09,-332.98 625.01,-315.79 673.53,-304.95"/>
<polygon fill="#63b8ff" stroke="#63b8ff" points="504.29,-339.19 495.29,-344.78 505.81,-346.02 504.29,-339.19"/>
</a>
</g>
</g>
<!-- Node24 -->
<g id="Node000024" class="node">
<title>Node24</title>
<g id="a_Node000024"><a xlink:href="can__prio__from__opc_8c.html" target="_top" xlink:title=" ">
<polygon fill="white" stroke="#666666" points="912.75,-304.5 796.25,-304.5 796.25,-283.75 912.75,-283.75 912.75,-304.5"/>
<text text-anchor="middle" x="854.5" y="-291" font-family="Helvetica,sans-Serif" font-size="10.00">can_prio_from_opc.c</text>
</a>
</g>
</g>
<!-- Node1&#45;&gt;Node24 -->
<g id="edge33_Node000001_Node000024" class="edge">
<title>Node1&#45;&gt;Node24</title>
<g id="a_edge33_Node000001_Node000024"><a xlink:title=" ">
<path fill="none" stroke="#63b8ff" d="M504.92,-345.23C569.34,-336 714.28,-315.22 795.86,-303.53"/>
<polygon fill="#63b8ff" stroke="#63b8ff" points="504.76,-341.72 495.35,-346.6 505.75,-348.65 504.76,-341.72"/>
</a>
</g>
</g>
<!-- Node25 -->
<g id="Node000025" class="node">
<title>Node25</title>
<g id="a_Node000025"><a xlink:href="general_8h.html" target="_top" xlink:title=" ">
<polygon fill="white" stroke="#666666" points="992.38,-304.5 930.62,-304.5 930.62,-283.75 992.38,-283.75 992.38,-304.5"/>
<text text-anchor="middle" x="961.5" y="-291" font-family="Helvetica,sans-Serif" font-size="10.00">general.h</text>
</a>
</g>
</g>
<!-- Node1&#45;&gt;Node25 -->
<g id="edge34_Node000001_Node000025" class="edge">
<title>Node1&#45;&gt;Node25</title>
<g id="a_edge34_Node000001_Node000025"><a xlink:title=" ">
<path fill="none" stroke="#63b8ff" d="M504.98,-348.04C579.18,-343.53 766.68,-330.35 921.5,-304.5 924.31,-304.03 927.23,-303.48 930.13,-302.88"/>
<polygon fill="#63b8ff" stroke="#63b8ff" points="504.95,-344.54 495.18,-348.62 505.37,-351.52 504.95,-344.54"/>
</a>
</g>
</g>
<!-- Node26 -->
<g id="Node000026" class="node">
<title>Node26</title>
<g id="a_Node000026"><a xlink:href="packet_8h.html" target="_top" xlink:title=" ">
<polygon fill="white" stroke="#666666" points="297.12,-304.5 239.88,-304.5 239.88,-283.75 297.12,-283.75 297.12,-304.5"/>
<text text-anchor="middle" x="268.5" y="-291" font-family="Helvetica,sans-Serif" font-size="10.00">packet.h</text>
</a>
</g>
</g>
<!-- Node1&#45;&gt;Node26 -->
<g id="edge35_Node000001_Node000026" class="edge">
<title>Node1&#45;&gt;Node26</title>
<g id="a_edge35_Node000001_Node000026"><a xlink:title=" ">
<path fill="none" stroke="#63b8ff" d="M440,-341.15C400.69,-330.6 335.13,-313.01 297.48,-302.9"/>
<polygon fill="#63b8ff" stroke="#63b8ff" points="439.03,-344.52 449.59,-343.73 440.84,-337.75 439.03,-344.52"/>
</a>
</g>
</g>
<!-- Node3&#45;&gt;Node2 -->
<g id="edge28_Node000003_Node000002" class="edge">
<title>Node3&#45;&gt;Node2</title>
<g id="a_edge28_Node000003_Node000002"><a xlink:title=" ">
<path fill="none" stroke="#63b8ff" d="M188.59,-273.03C184.39,-264.52 179.69,-254.99 176.29,-248.08"/>
<polygon fill="#63b8ff" stroke="#63b8ff" points="185.44,-274.56 193,-281.98 191.72,-271.46 185.44,-274.56"/>
</a>
</g>
</g>
<!-- Node4 -->
<g id="Node000004" class="node">
<title>Node4</title>
<g id="a_Node000004"><a xlink:href="adapter_8h.html" target="_top" xlink:title=" ">
<polygon fill="white" stroke="#666666" points="286.38,-247.75 224.62,-247.75 224.62,-227 286.38,-227 286.38,-247.75"/>
<text text-anchor="middle" x="255.5" y="-234.25" font-family="Helvetica,sans-Serif" font-size="10.00">adapter.h</text>
</a>
</g>
</g>
<!-- Node3&#45;&gt;Node4 -->
<g id="edge3_Node000003_Node000004" class="edge">
<title>Node3&#45;&gt;Node4</title>
<g id="a_edge3_Node000003_Node000004"><a xlink:title=" ">
<path fill="none" stroke="#63b8ff" d="M216.77,-275.58C226.25,-266.47 237.48,-255.68 245.4,-248.08"/>
<polygon fill="#63b8ff" stroke="#63b8ff" points="214.57,-272.84 209.78,-282.29 219.42,-277.89 214.57,-272.84"/>
</a>
</g>
</g>
<!-- Node5 -->
<g id="Node000005" class="node">
<title>Node5</title>
<g id="a_Node000005"><a xlink:href="adapter_8c.html" target="_top" xlink:title=" ">
<polygon fill="white" stroke="#666666" points="61,-191 0,-191 0,-170.25 61,-170.25 61,-191"/>
<text text-anchor="middle" x="30.5" y="-177.5" font-family="Helvetica,sans-Serif" font-size="10.00">adapter.c</text>
</a>
</g>
</g>
<!-- Node4&#45;&gt;Node5 -->
<g id="edge4_Node000004_Node000005" class="edge">
<title>Node4&#45;&gt;Node5</title>
<g id="a_edge4_Node000004_Node000005"><a xlink:title=" ">
<path fill="none" stroke="#63b8ff" d="M213.24,-226.09C168.97,-215.32 100.51,-198.66 61.16,-189.09"/>
<polygon fill="#63b8ff" stroke="#63b8ff" points="212.2,-229.44 222.74,-228.4 213.86,-222.64 212.2,-229.44"/>
</a>
</g>
</g>
<!-- Node6 -->
<g id="Node000006" class="node">
<title>Node6</title>
<g id="a_Node000006"><a xlink:href="iface_8c.html" target="_top" xlink:title=" ">
<polygon fill="white" stroke="#666666" points="151.62,-77.5 103.38,-77.5 103.38,-56.75 151.62,-56.75 151.62,-77.5"/>
<text text-anchor="middle" x="127.5" y="-64" font-family="Helvetica,sans-Serif" font-size="10.00">iface.c</text>
</a>
</g>
</g>
<!-- Node4&#45;&gt;Node6 -->
<g id="edge5_Node000004_Node000006" class="edge">
<title>Node4&#45;&gt;Node6</title>
<g id="a_edge5_Node000004_Node000006"><a xlink:title=" ">
<path fill="none" stroke="#63b8ff" d="M225.01,-221.28C194.98,-204.57 150.76,-174.57 130.5,-134.25 121.32,-115.97 123.45,-91.14 125.61,-77.71"/>
<polygon fill="#63b8ff" stroke="#63b8ff" points="223.18,-224.27 233.64,-225.92 226.49,-218.1 223.18,-224.27"/>
</a>
</g>
</g>
<!-- Node7 -->
<g id="Node000007" class="node">
<title>Node7</title>
<g id="a_Node000007"><a xlink:href="iface_8h.html" target="_top" xlink:title=" ">
<polygon fill="white" stroke="#666666" points="307,-191 258,-191 258,-170.25 307,-170.25 307,-191"/>
<text text-anchor="middle" x="282.5" y="-177.5" font-family="Helvetica,sans-Serif" font-size="10.00">iface.h</text>
</a>
</g>
</g>
<!-- Node4&#45;&gt;Node7 -->
<g id="edge6_Node000004_Node000007" class="edge">
<title>Node4&#45;&gt;Node7</title>
<g id="a_edge6_Node000004_Node000007"><a xlink:title=" ">
<path fill="none" stroke="#63b8ff" d="M265.41,-216.28C269.61,-207.77 274.31,-198.24 277.71,-191.33"/>
<polygon fill="#63b8ff" stroke="#63b8ff" points="262.28,-214.71 261,-225.23 268.56,-217.81 262.28,-214.71"/>
</a>
</g>
</g>
<!-- Node8 -->
<g id="Node000008" class="node">
<title>Node8</title>
<g id="a_Node000008"><a xlink:href="iface__can_8c.html" target="_top" xlink:title=" ">
<polygon fill="white" stroke="#666666" points="357.88,-77.5 287.12,-77.5 287.12,-56.75 357.88,-56.75 357.88,-77.5"/>
<text text-anchor="middle" x="322.5" y="-64" font-family="Helvetica,sans-Serif" font-size="10.00">iface_can.c</text>
</a>
</g>
</g>
<!-- Node4&#45;&gt;Node8 -->
<g id="edge24_Node000004_Node000008" class="edge">
<title>Node4&#45;&gt;Node8</title>
<g id="a_edge24_Node000004_Node000008"><a xlink:title=" ">
<path fill="none" stroke="#63b8ff" d="M282.42,-220.43C293.96,-212.63 306.96,-202.45 316.5,-191 334.51,-169.39 338.11,-161.64 344.5,-134.25 349.28,-113.75 337.4,-90.57 329.3,-77.82"/>
<polygon fill="#63b8ff" stroke="#63b8ff" points="280.56,-217.46 274.05,-225.82 284.35,-223.35 280.56,-217.46"/>
</a>
</g>
</g>
<!-- Node9 -->
<g id="Node000009" class="node">
<title>Node9</title>
<g id="a_Node000009"><a xlink:href="iface__can_8h.html" target="_top" xlink:title=" ">
<polygon fill="white" stroke="#666666" points="227.25,-134.25 155.75,-134.25 155.75,-113.5 227.25,-113.5 227.25,-134.25"/>
<text text-anchor="middle" x="191.5" y="-120.75" font-family="Helvetica,sans-Serif" font-size="10.00">iface_can.h</text>
</a>
</g>
</g>
<!-- Node4&#45;&gt;Node9 -->
<g id="edge25_Node000004_Node000009" class="edge">
<title>Node4&#45;&gt;Node9</title>
<g id="a_edge25_Node000004_Node000009"><a xlink:title=" ">
<path fill="none" stroke="#63b8ff" d="M244.45,-217.12C230.68,-193.13 207.69,-153.08 197.13,-134.68"/>
<polygon fill="#63b8ff" stroke="#63b8ff" points="241.28,-218.63 249.29,-225.56 247.35,-215.14 241.28,-218.63"/>
</a>
</g>
</g>
<!-- Node18 -->
<g id="Node000018" class="node">
<title>Node18</title>
<g id="a_Node000018"><a xlink:href="packet__parse_8h.html" target="_top" xlink:title=" ">
<polygon fill="white" stroke="#666666" points="572.25,-191 482.75,-191 482.75,-170.25 572.25,-170.25 572.25,-191"/>
<text text-anchor="middle" x="527.5" y="-177.5" font-family="Helvetica,sans-Serif" font-size="10.00">packet_parse.h</text>
</a>
</g>
</g>
<!-- Node4&#45;&gt;Node18 -->
<g id="edge26_Node000004_Node000018" class="edge">
<title>Node4&#45;&gt;Node18</title>
<g id="a_edge26_Node000004_Node000018"><a xlink:title=" ">
<path fill="none" stroke="#63b8ff" d="M297.8,-227.86C348.03,-217.75 431.44,-200.96 482.72,-190.64"/>
<polygon fill="#63b8ff" stroke="#63b8ff" points="297.3,-224.39 288.19,-229.8 298.68,-231.25 297.3,-224.39"/>
</a>
</g>
</g>
<!-- Node7&#45;&gt;Node6 -->
<g id="edge7_Node000007_Node000006" class="edge">
<title>Node7&#45;&gt;Node6</title>
<g id="a_edge7_Node000007_Node000006"><a xlink:title=" ">
<path fill="none" stroke="#63b8ff" d="M246.68,-176.81C216.01,-172.51 172.77,-161.65 146.5,-134.25 131.46,-118.56 128.2,-91.76 127.57,-77.57"/>
<polygon fill="#63b8ff" stroke="#63b8ff" points="245.9,-180.24 256.25,-177.97 246.74,-173.29 245.9,-180.24"/>
</a>
</g>
</g>
<!-- Node7&#45;&gt;Node8 -->
<g id="edge8_Node000007_Node000008" class="edge">
<title>Node7&#45;&gt;Node8</title>
<g id="a_edge8_Node000007_Node000008"><a xlink:title=" ">
<path fill="none" stroke="#63b8ff" d="M306.07,-162.95C314.85,-155.31 323.81,-145.46 328.5,-134.25 336.33,-115.53 330.56,-91.3 326.18,-77.98"/>
<polygon fill="#63b8ff" stroke="#63b8ff" points="303.98,-160.13 298.36,-169.12 308.36,-165.6 303.98,-160.13"/>
</a>
</g>
</g>
<!-- Node7&#45;&gt;Node9 -->
<g id="edge9_Node000007_Node000009" class="edge">
<title>Node7&#45;&gt;Node9</title>
<g id="a_edge9_Node000007_Node000009"><a xlink:title=" ">
<path fill="none" stroke="#63b8ff" d="M256.54,-164.01C240.78,-154.53 221.17,-142.73 207.63,-134.58"/>
<polygon fill="#63b8ff" stroke="#63b8ff" points="254.56,-166.9 264.93,-169.06 258.17,-160.9 254.56,-166.9"/>
</a>
</g>
</g>
<!-- Node11 -->
<g id="Node000011" class="node">
<title>Node11</title>
<g id="a_Node000011"><a xlink:href="iface__vlcb_8h.html" target="_top" xlink:title=" ">
<polygon fill="white" stroke="#666666" points="319.75,-134.25 245.25,-134.25 245.25,-113.5 319.75,-113.5 319.75,-134.25"/>
<text text-anchor="middle" x="282.5" y="-120.75" font-family="Helvetica,sans-Serif" font-size="10.00">iface_vlcb.h</text>
</a>
</g>
</g>
<!-- Node7&#45;&gt;Node11 -->
<g id="edge12_Node000007_Node000011" class="edge">
<title>Node7&#45;&gt;Node11</title>
<g id="a_edge12_Node000007_Node000011"><a xlink:title=" ">
<path fill="none" stroke="#63b8ff" d="M282.5,-158.38C282.5,-150.16 282.5,-141.18 282.5,-134.58"/>
<polygon fill="#63b8ff" stroke="#63b8ff" points="279,-158.32 282.5,-168.32 286,-158.32 279,-158.32"/>
</a>
</g>
</g>
<!-- Node12 -->
<g id="Node000012" class="node">
<title>Node12</title>
<g id="a_Node000012"><a xlink:href="module_2inc_2vlcb_2module_8h.html" target="_top" xlink:title=" ">
<polygon fill="white" stroke="#666666" points="475.38,-134.25 413.62,-134.25 413.62,-113.5 475.38,-113.5 475.38,-134.25"/>
<text text-anchor="middle" x="444.5" y="-120.75" font-family="Helvetica,sans-Serif" font-size="10.00">module.h</text>
</a>
</g>
</g>
<!-- Node7&#45;&gt;Node12 -->
<g id="edge15_Node000007_Node000012" class="edge">
<title>Node7&#45;&gt;Node12</title>
<g id="a_edge15_Node000007_Node000012"><a xlink:title=" ">
<path fill="none" stroke="#63b8ff" d="M318.03,-167.62C347.23,-157.75 388.11,-143.93 415.4,-134.71"/>
<polygon fill="#63b8ff" stroke="#63b8ff" points="317.24,-164.19 308.89,-170.71 319.49,-170.82 317.24,-164.19"/>
</a>
</g>
</g>
<!-- Node17 -->
<g id="Node000017" class="node">
<title>Node17</title>
<g id="a_Node000017"><a xlink:href="net_2inc_2vlcb_2net_8h.html" target="_top" xlink:title=" ">
<polygon fill="white" stroke="#666666" points="533.88,-134.25 493.12,-134.25 493.12,-113.5 533.88,-113.5 533.88,-134.25"/>
<text text-anchor="middle" x="513.5" y="-120.75" font-family="Helvetica,sans-Serif" font-size="10.00">net.h</text>
</a>
</g>
</g>
<!-- Node7&#45;&gt;Node17 -->
<g id="edge23_Node000007_Node000017" class="edge">
<title>Node7&#45;&gt;Node17</title>
<g id="a_edge23_Node000007_Node000017"><a xlink:title=" ">
<path fill="none" stroke="#63b8ff" d="M318.43,-172.59C359.01,-164.41 426.91,-149.99 484.5,-134.25 487.15,-133.52 489.93,-132.71 492.66,-131.86"/>
<polygon fill="#63b8ff" stroke="#63b8ff" points="317.85,-169.14 308.73,-174.53 319.22,-176 317.85,-169.14"/>
</a>
</g>
</g>
<!-- Node9&#45;&gt;Node6 -->
<g id="edge10_Node000009_Node000006" class="edge">
<title>Node9&#45;&gt;Node6</title>
<g id="a_edge10_Node000009_Node000006"><a xlink:title=" ">
<path fill="none" stroke="#63b8ff" d="M171.32,-105.61C160.6,-96.44 147.83,-85.51 138.84,-77.83"/>
<polygon fill="#63b8ff" stroke="#63b8ff" points="169.03,-108.26 178.91,-112.1 173.58,-102.94 169.03,-108.26"/>
</a>
</g>
</g>
<!-- Node10 -->
<g id="Node000010" class="node">
<title>Node10</title>
<g id="a_Node000010"><a xlink:href="iface__vlcb_8c.html" target="_top" xlink:title=" ">
<polygon fill="white" stroke="#666666" points="243.38,-77.5 169.62,-77.5 169.62,-56.75 243.38,-56.75 243.38,-77.5"/>
<text text-anchor="middle" x="206.5" y="-64" font-family="Helvetica,sans-Serif" font-size="10.00">iface_vlcb.c</text>
</a>
</g>
</g>
<!-- Node9&#45;&gt;Node10 -->
<g id="edge11_Node000009_Node000010" class="edge">
<title>Node9&#45;&gt;Node10</title>
<g id="a_edge11_Node000009_Node000010"><a xlink:title=" ">
<path fill="none" stroke="#63b8ff" d="M197.16,-102.21C199.46,-93.84 201.99,-84.58 203.84,-77.83"/>
<polygon fill="#63b8ff" stroke="#63b8ff" points="193.85,-101.06 194.58,-111.63 200.6,-102.91 193.85,-101.06"/>
</a>
</g>
</g>
<!-- Node11&#45;&gt;Node6 -->
<g id="edge13_Node000011_Node000006" class="edge">
<title>Node11&#45;&gt;Node6</title>
<g id="a_edge13_Node000011_Node000006"><a xlink:title=" ">
<path fill="none" stroke="#63b8ff" d="M244.26,-109.37C215.41,-99.18 176.69,-85.5 151.91,-76.75"/>
<polygon fill="#63b8ff" stroke="#63b8ff" points="242.77,-112.55 253.36,-112.58 245.1,-105.95 242.77,-112.55"/>
</a>
</g>
</g>
<!-- Node11&#45;&gt;Node8 -->
<g id="edge14_Node000011_Node000008" class="edge">
<title>Node11&#45;&gt;Node8</title>
<g id="a_edge14_Node000011_Node000008"><a xlink:title=" ">
<path fill="none" stroke="#63b8ff" d="M296.35,-103.92C302.77,-95.13 310.14,-85.05 315.41,-77.83"/>
<polygon fill="#63b8ff" stroke="#63b8ff" points="293.62,-101.73 290.54,-111.86 299.27,-105.85 293.62,-101.73"/>
</a>
</g>
</g>
<!-- Node13 -->
<g id="Node000013" class="node">
<title>Node13</title>
<g id="a_Node000013"><a xlink:href="module_8c.html" target="_top" xlink:title=" ">
<polygon fill="white" stroke="#666666" points="475,-20.75 414,-20.75 414,0 475,0 475,-20.75"/>
<text text-anchor="middle" x="444.5" y="-7.25" font-family="Helvetica,sans-Serif" font-size="10.00">module.c</text>
</a>
</g>
</g>
<!-- Node12&#45;&gt;Node13 -->
<g id="edge16_Node000012_Node000013" class="edge">
<title>Node12&#45;&gt;Node13</title>
<g id="a_edge16_Node000012_Node000013"><a xlink:title=" ">
<path fill="none" stroke="#63b8ff" d="M423.51,-105.57C410.64,-92.73 397.81,-74.46 404.5,-56.75 409.99,-42.21 422.5,-29.32 432.08,-21.03"/>
<polygon fill="#63b8ff" stroke="#63b8ff" points="420.93,-107.95 430.66,-112.14 425.66,-102.79 420.93,-107.95"/>
</a>
</g>
</g>
<!-- Node14 -->
<g id="Node000014" class="node">
<title>Node14</title>
<g id="a_Node000014"><a xlink:href="module_2src_2module_8h.html" target="_top" xlink:title=" ">
<polygon fill="white" stroke="#666666" points="475.38,-77.5 413.62,-77.5 413.62,-56.75 475.38,-56.75 475.38,-77.5"/>
<text text-anchor="middle" x="444.5" y="-64" font-family="Helvetica,sans-Serif" font-size="10.00">module.h</text>
</a>
</g>
</g>
<!-- Node12&#45;&gt;Node14 -->
<g id="edge17_Node000012_Node000014" class="edge">
<title>Node12&#45;&gt;Node14</title>
<g id="a_edge17_Node000012_Node000014"><a xlink:title=" ">
<path fill="none" stroke="#63b8ff" d="M444.5,-101.63C444.5,-93.41 444.5,-84.43 444.5,-77.83"/>
<polygon fill="#63b8ff" stroke="#63b8ff" points="441,-101.57 444.5,-111.57 448,-101.57 441,-101.57"/>
</a>
</g>
</g>
<!-- Node15 -->
<g id="Node000015" class="node">
<title>Node15</title>
<g id="a_Node000015"><a xlink:href="state__machine_8c.html" target="_top" xlink:title=" ">
<polygon fill="white" stroke="#666666" points="627.62,-20.75 531.38,-20.75 531.38,0 627.62,0 627.62,-20.75"/>
<text text-anchor="middle" x="579.5" y="-7.25" font-family="Helvetica,sans-Serif" font-size="10.00">state_machine.c</text>
</a>
</g>
</g>
<!-- Node12&#45;&gt;Node15 -->
<g id="edge19_Node000012_Node000015" class="edge">
<title>Node12&#45;&gt;Node15</title>
<g id="a_edge19_Node000012_Node000015"><a xlink:title=" ">
<path fill="none" stroke="#63b8ff" d="M486.52,-111.9C531.21,-100.04 595.99,-82.18 599.5,-77.5 612.44,-60.22 597.3,-34.55 587.16,-20.83"/>
<polygon fill="#63b8ff" stroke="#63b8ff" points="485.87,-108.45 477.1,-114.39 487.66,-115.22 485.87,-108.45"/>
</a>
</g>
</g>
<!-- Node16 -->
<g id="Node000016" class="node">
<title>Node16</title>
<g id="a_Node000016"><a xlink:href="state__machine_8h.html" target="_top" xlink:title=" ">
<polygon fill="white" stroke="#666666" points="590,-77.5 493,-77.5 493,-56.75 590,-56.75 590,-77.5"/>
<text text-anchor="middle" x="541.5" y="-64" font-family="Helvetica,sans-Serif" font-size="10.00">state_machine.h</text>
</a>
</g>
</g>
<!-- Node12&#45;&gt;Node16 -->
<g id="edge20_Node000012_Node000016" class="edge">
<title>Node12&#45;&gt;Node16</title>
<g id="a_edge20_Node000012_Node000016"><a xlink:title=" ">
<path fill="none" stroke="#63b8ff" d="M471.69,-107.53C488.57,-98 509.73,-86.06 524.31,-77.83"/>
<polygon fill="#63b8ff" stroke="#63b8ff" points="470.15,-104.38 463.16,-112.34 473.59,-110.48 470.15,-104.38"/>
</a>
</g>
</g>
<!-- Node14&#45;&gt;Node13 -->
<g id="edge18_Node000014_Node000013" class="edge">
<title>Node14&#45;&gt;Node13</title>
<g id="a_edge18_Node000014_Node000013"><a xlink:title=" ">
<path fill="none" stroke="#63b8ff" d="M444.5,-44.88C444.5,-36.66 444.5,-27.68 444.5,-21.08"/>
<polygon fill="#63b8ff" stroke="#63b8ff" points="441,-44.82 444.5,-54.82 448,-44.82 441,-44.82"/>
</a>
</g>
</g>
<!-- Node16&#45;&gt;Node13 -->
<g id="edge21_Node000016_Node000013" class="edge">
<title>Node16&#45;&gt;Node13</title>
<g id="a_edge21_Node000016_Node000013"><a xlink:title=" ">
<path fill="none" stroke="#63b8ff" d="M514.31,-50.78C497.43,-41.25 476.27,-29.31 461.69,-21.08"/>
<polygon fill="#63b8ff" stroke="#63b8ff" points="512.41,-53.73 522.84,-55.59 515.85,-47.63 512.41,-53.73"/>
</a>
</g>
</g>
<!-- Node16&#45;&gt;Node15 -->
<g id="edge22_Node000016_Node000015" class="edge">
<title>Node16&#45;&gt;Node15</title>
<g id="a_edge22_Node000016_Node000015"><a xlink:title=" ">
<path fill="none" stroke="#63b8ff" d="M554.85,-46.89C560.91,-38.16 567.81,-28.22 572.77,-21.08"/>
<polygon fill="#63b8ff" stroke="#63b8ff" points="551.98,-44.88 549.16,-55.09 557.73,-48.87 551.98,-44.88"/>
</a>
</g>
</g>
<!-- Node19 -->
<g id="Node000019" class="node">
<title>Node19</title>
<g id="a_Node000019"><a xlink:href="packet__parse_8c.html" target="_top" xlink:title=" ">
<polygon fill="white" stroke="#666666" points="640.88,-134.25 552.12,-134.25 552.12,-113.5 640.88,-113.5 640.88,-134.25"/>
<text text-anchor="middle" x="596.5" y="-120.75" font-family="Helvetica,sans-Serif" font-size="10.00">packet_parse.c</text>
</a>
</g>
</g>
<!-- Node18&#45;&gt;Node19 -->
<g id="edge27_Node000018_Node000019" class="edge">
<title>Node18&#45;&gt;Node19</title>
<g id="a_edge27_Node000018_Node000019"><a xlink:title=" ">
<path fill="none" stroke="#63b8ff" d="M548.56,-162.91C560.26,-153.63 574.39,-142.42 584.27,-134.58"/>
<polygon fill="#63b8ff" stroke="#63b8ff" points="546.68,-159.94 541.02,-168.9 551.03,-165.42 546.68,-159.94"/>
</a>
</g>
</g>
<!-- Node26&#45;&gt;Node4 -->
<g id="edge36_Node000026_Node000004" class="edge">
<title>Node26&#45;&gt;Node4</title>
<g id="a_edge36_Node000026_Node000004"><a xlink:title=" ">
<path fill="none" stroke="#63b8ff" d="M263.52,-272.17C261.56,-263.88 259.39,-254.75 257.8,-248.08"/>
<polygon fill="#63b8ff" stroke="#63b8ff" points="260.11,-272.94 265.83,-281.86 266.92,-271.33 260.11,-272.94"/>
</a>
</g>
</g>
</g>
</svg>
