<?xml version="1.0" encoding="UTF-8" standalone="no"?>
<!DOCTYPE svg PUBLIC "-//W3C//DTD SVG 1.1//EN"
 "http://www.w3.org/Graphics/SVG/1.1/DTD/svg11.dtd">
<!-- Generated by graphviz version 12.1.2 (20240928.0832)
 -->
<!-- Title: can.h Pages: 1 -->
<svg width="1419pt" height="369pt"
 viewBox="0.00 0.00 1419.38 369.25" xmlns="http://www.w3.org/2000/svg" xmlns:xlink="http://www.w3.org/1999/xlink">
<g id="graph0" class="graph" transform="scale(1 1) rotate(0) translate(4 365.25)">
<title>can.h</title>
<!-- Node1 -->
<g id="Node000001" class="node">
<title>Node1</title>
<g id="a_Node000001"><a xlink:title=" ">
<polygon fill="#999999" stroke="#666666" points="892.88,-361.25 850.62,-361.25 850.62,-340.5 892.88,-340.5 892.88,-361.25"/>
<text text-anchor="middle" x="871.75" y="-347.75" font-family="Helvetica,sans-Serif" font-size="10.00">can.h</text>
</a>
</g>
</g>
<!-- Node2 -->
<g id="Node000002" class="node">
<title>Node2</title>
<g id="a_Node000002"><a xlink:href="addr_8c.html" target="_top" xlink:title=" ">
<polygon fill="white" stroke="#666666" points="58.38,-247.75 13.12,-247.75 13.12,-227 58.38,-227 58.38,-247.75"/>
<text text-anchor="middle" x="35.75" y="-234.25" font-family="Helvetica,sans-Serif" font-size="10.00">addr.c</text>
</a>
</g>
</g>
<!-- Node1&#45;&gt;Node2 -->
<g id="edge1_Node000001_Node000002" class="edge">
<title>Node1&#45;&gt;Node2</title>
<g id="a_edge1_Node000001_Node000002"><a xlink:title=" ">
<path fill="none" stroke="#63b8ff" d="M839.49,-347.92C760.7,-342.92 552.31,-328.36 379.75,-304.5 242.3,-285.5 208.3,-277.42 72.75,-247.75 68.22,-246.76 63.4,-245.61 58.79,-244.46"/>
<polygon fill="#63b8ff" stroke="#63b8ff" points="838.86,-351.39 849.06,-348.52 839.3,-344.4 838.86,-351.39"/>
</a>
</g>
</g>
<!-- Node3 -->
<g id="Node000003" class="node">
<title>Node3</title>
<g id="a_Node000003"><a xlink:href="addr_8h.html" target="_top" xlink:title=" ">
<polygon fill="white" stroke="#666666" points="434.75,-304.5 388.75,-304.5 388.75,-283.75 434.75,-283.75 434.75,-304.5"/>
<text text-anchor="middle" x="411.75" y="-291" font-family="Helvetica,sans-Serif" font-size="10.00">addr.h</text>
</a>
</g>
</g>
<!-- Node1&#45;&gt;Node3 -->
<g id="edge2_Node000001_Node000003" class="edge">
<title>Node1&#45;&gt;Node3</title>
<g id="a_edge2_Node000001_Node000003"><a xlink:title=" ">
<path fill="none" stroke="#63b8ff" d="M838.78,-345.95C750.64,-335.46 511.1,-306.95 435.17,-297.91"/>
<polygon fill="#63b8ff" stroke="#63b8ff" points="838.33,-349.42 848.68,-347.13 839.16,-342.47 838.33,-349.42"/>
</a>
</g>
</g>
<!-- Node11 -->
<g id="Node000011" class="node">
<title>Node11</title>
<g id="a_Node000011"><a xlink:href="iface__can__svc_8c.html" target="_top" xlink:title=" ">
<polygon fill="white" stroke="#666666" points="729,-134.25 636.5,-134.25 636.5,-113.5 729,-113.5 729,-134.25"/>
<text text-anchor="middle" x="682.75" y="-120.75" font-family="Helvetica,sans-Serif" font-size="10.00">iface_can_svc.c</text>
</a>
</g>
</g>
<!-- Node1&#45;&gt;Node11 -->
<g id="edge55_Node000001_Node000011" class="edge">
<title>Node1&#45;&gt;Node11</title>
<g id="a_edge55_Node000001_Node000011"><a xlink:title=" ">
<path fill="none" stroke="#63b8ff" d="M839.03,-348.1C783.2,-344.32 673.27,-333.32 649.75,-304.5 607.24,-252.43 657.77,-163.41 676.39,-134.36"/>
<polygon fill="#63b8ff" stroke="#63b8ff" points="838.68,-351.59 848.88,-348.73 839.12,-344.6 838.68,-351.59"/>
</a>
</g>
</g>
<!-- Node25 -->
<g id="Node000025" class="node">
<title>Node25</title>
<g id="a_Node000025"><a xlink:href="can__id__is__valid_8c.html" target="_top" xlink:title=" ">
<polygon fill="white" stroke="#666666" points="757,-304.5 658.5,-304.5 658.5,-283.75 757,-283.75 757,-304.5"/>
<text text-anchor="middle" x="707.75" y="-291" font-family="Helvetica,sans-Serif" font-size="10.00">can_id_is_valid.c</text>
</a>
</g>
</g>
<!-- Node1&#45;&gt;Node25 -->
<g id="edge49_Node000001_Node000025" class="edge">
<title>Node1&#45;&gt;Node25</title>
<g id="a_edge49_Node000001_Node000025"><a xlink:title=" ">
<path fill="none" stroke="#63b8ff" d="M839.67,-339.17C809.95,-329.24 766.1,-314.61 737.24,-304.97"/>
<polygon fill="#63b8ff" stroke="#63b8ff" points="838.28,-342.39 848.87,-342.24 840.5,-335.75 838.28,-342.39"/>
</a>
</g>
</g>
<!-- Node26 -->
<g id="Node000026" class="node">
<title>Node26</title>
<g id="a_Node000026"><a xlink:href="can__id__new_8c.html" target="_top" xlink:title=" ">
<polygon fill="white" stroke="#666666" points="856,-304.5 775.5,-304.5 775.5,-283.75 856,-283.75 856,-304.5"/>
<text text-anchor="middle" x="815.75" y="-291" font-family="Helvetica,sans-Serif" font-size="10.00">can_id_new.c</text>
</a>
</g>
</g>
<!-- Node1&#45;&gt;Node26 -->
<g id="edge50_Node000001_Node000026" class="edge">
<title>Node1&#45;&gt;Node26</title>
<g id="a_edge50_Node000001_Node000026"><a xlink:title=" ">
<path fill="none" stroke="#63b8ff" d="M853.52,-332.05C844.26,-323 833.38,-312.36 825.68,-304.83"/>
<polygon fill="#63b8ff" stroke="#63b8ff" points="851.06,-334.54 860.66,-339.03 855.95,-329.54 851.06,-334.54"/>
</a>
</g>
</g>
<!-- Node27 -->
<g id="Node000027" class="node">
<title>Node27</title>
<g id="a_Node000027"><a xlink:href="can__is__prio__valid_8c.html" target="_top" xlink:title=" ">
<polygon fill="white" stroke="#666666" points="981.88,-304.5 873.62,-304.5 873.62,-283.75 981.88,-283.75 981.88,-304.5"/>
<text text-anchor="middle" x="927.75" y="-291" font-family="Helvetica,sans-Serif" font-size="10.00">can_is_prio_valid.c</text>
</a>
</g>
</g>
<!-- Node1&#45;&gt;Node27 -->
<g id="edge51_Node000001_Node000027" class="edge">
<title>Node1&#45;&gt;Node27</title>
<g id="a_edge51_Node000001_Node000027"><a xlink:title=" ">
<path fill="none" stroke="#63b8ff" d="M889.98,-332.05C899.24,-323 910.12,-312.36 917.82,-304.83"/>
<polygon fill="#63b8ff" stroke="#63b8ff" points="887.55,-329.54 882.84,-339.03 892.44,-334.54 887.55,-329.54"/>
</a>
</g>
</g>
<!-- Node28 -->
<g id="Node000028" class="node">
<title>Node28</title>
<g id="a_Node000028"><a xlink:href="can__prio__from__byte_8c.html" target="_top" xlink:title=" ">
<polygon fill="white" stroke="#666666" points="1121.25,-304.5 1000.25,-304.5 1000.25,-283.75 1121.25,-283.75 1121.25,-304.5"/>
<text text-anchor="middle" x="1060.75" y="-291" font-family="Helvetica,sans-Serif" font-size="10.00">can_prio_from_byte.c</text>
</a>
</g>
</g>
<!-- Node1&#45;&gt;Node28 -->
<g id="edge52_Node000001_Node000028" class="edge">
<title>Node1&#45;&gt;Node28</title>
<g id="a_edge52_Node000001_Node000028"><a xlink:title=" ">
<path fill="none" stroke="#63b8ff" d="M903.84,-340.58C938.02,-330.68 991.89,-315.07 1026.77,-304.97"/>
<polygon fill="#63b8ff" stroke="#63b8ff" points="903.15,-337.14 894.52,-343.28 905.1,-343.86 903.15,-337.14"/>
</a>
</g>
</g>
<!-- Node29 -->
<g id="Node000029" class="node">
<title>Node29</title>
<g id="a_Node000029"><a xlink:href="can__prio__from__opc_8c.html" target="_top" xlink:title=" ">
<polygon fill="white" stroke="#666666" points="1256,-304.5 1139.5,-304.5 1139.5,-283.75 1256,-283.75 1256,-304.5"/>
<text text-anchor="middle" x="1197.75" y="-291" font-family="Helvetica,sans-Serif" font-size="10.00">can_prio_from_opc.c</text>
</a>
</g>
</g>
<!-- Node1&#45;&gt;Node29 -->
<g id="edge53_Node000001_Node000029" class="edge">
<title>Node1&#45;&gt;Node29</title>
<g id="a_edge53_Node000001_Node000029"><a xlink:title=" ">
<path fill="none" stroke="#63b8ff" d="M904.24,-344.42C959.02,-335.22 1070.48,-316.5 1139.19,-304.96"/>
<polygon fill="#63b8ff" stroke="#63b8ff" points="903.91,-340.92 894.63,-346.03 905.07,-347.83 903.91,-340.92"/>
</a>
</g>
</g>
<!-- Node30 -->
<g id="Node000030" class="node">
<title>Node30</title>
<g id="a_Node000030"><a xlink:href="general_8h.html" target="_top" xlink:title=" ">
<polygon fill="white" stroke="#666666" points="1335.62,-304.5 1273.88,-304.5 1273.88,-283.75 1335.62,-283.75 1335.62,-304.5"/>
<text text-anchor="middle" x="1304.75" y="-291" font-family="Helvetica,sans-Serif" font-size="10.00">general.h</text>
</a>
</g>
</g>
<!-- Node1&#45;&gt;Node30 -->
<g id="edge54_Node000001_Node000030" class="edge">
<title>Node1&#45;&gt;Node30</title>
<g id="a_edge54_Node000001_Node000030"><a xlink:title=" ">
<path fill="none" stroke="#63b8ff" d="M904.31,-347.39C971.86,-341.97 1131.98,-327.64 1264.75,-304.5 1267.56,-304.01 1270.47,-303.44 1273.38,-302.84"/>
<polygon fill="#63b8ff" stroke="#63b8ff" points="904.38,-343.88 894.68,-348.16 904.93,-350.86 904.38,-343.88"/>
</a>
</g>
</g>
<!-- Node31 -->
<g id="Node000031" class="node">
<title>Node31</title>
<g id="a_Node000031"><a xlink:href="packet_8h.html" target="_top" xlink:title=" ">
<polygon fill="white" stroke="#666666" points="1411.38,-304.5 1354.12,-304.5 1354.12,-283.75 1411.38,-283.75 1411.38,-304.5"/>
<text text-anchor="middle" x="1382.75" y="-291" font-family="Helvetica,sans-Serif" font-size="10.00">packet.h</text>
</a>
</g>
</g>
<!-- Node1&#45;&gt;Node31 -->
<g id="edge56_Node000001_Node000031" class="edge">
<title>Node1&#45;&gt;Node31</title>
<g id="a_edge56_Node000001_Node000031"><a xlink:title=" ">
<path fill="none" stroke="#63b8ff" d="M904.41,-348.39C981.52,-344.52 1180.71,-332.45 1344.75,-304.5 1347.7,-304 1350.75,-303.39 1353.8,-302.73"/>
<polygon fill="#63b8ff" stroke="#63b8ff" points="904.44,-344.88 894.62,-348.87 904.78,-351.88 904.44,-344.88"/>
</a>
</g>
</g>
<!-- Node3&#45;&gt;Node2 -->
<g id="edge31_Node000003_Node000002" class="edge">
<title>Node3&#45;&gt;Node2</title>
<g id="a_edge31_Node000003_Node000002"><a xlink:title=" ">
<path fill="none" stroke="#63b8ff" d="M377.25,-289.83C315.73,-283.67 183.16,-269.05 72.75,-247.75 68.2,-246.87 63.37,-245.77 58.75,-244.64"/>
<polygon fill="#63b8ff" stroke="#63b8ff" points="376.78,-293.3 387.08,-290.8 377.47,-286.34 376.78,-293.3"/>
</a>
</g>
</g>
<!-- Node4 -->
<g id="Node000004" class="node">
<title>Node4</title>
<g id="a_Node000004"><a xlink:href="adapter_8h.html" target="_top" xlink:title=" ">
<polygon fill="white" stroke="#666666" points="825.62,-247.75 763.88,-247.75 763.88,-227 825.62,-227 825.62,-247.75"/>
<text text-anchor="middle" x="794.75" y="-234.25" font-family="Helvetica,sans-Serif" font-size="10.00">adapter.h</text>
</a>
</g>
</g>
<!-- Node3&#45;&gt;Node4 -->
<g id="edge3_Node000003_Node000004" class="edge">
<title>Node3&#45;&gt;Node4</title>
<g id="a_edge3_Node000003_Node000004"><a xlink:title=" ">
<path fill="none" stroke="#63b8ff" d="M446.1,-288.21C519.94,-277.66 692.81,-252.95 763.65,-242.82"/>
<polygon fill="#63b8ff" stroke="#63b8ff" points="446.03,-284.69 436.63,-289.57 447.02,-291.62 446.03,-284.69"/>
</a>
</g>
</g>
<!-- Node8 -->
<g id="Node000008" class="node">
<title>Node8</title>
<g id="a_Node000008"><a xlink:href="iface__can_8c.html" target="_top" xlink:title=" ">
<polygon fill="white" stroke="#666666" points="543.12,-77.5 472.38,-77.5 472.38,-56.75 543.12,-56.75 543.12,-77.5"/>
<text text-anchor="middle" x="507.75" y="-64" font-family="Helvetica,sans-Serif" font-size="10.00">iface_can.c</text>
</a>
</g>
</g>
<!-- Node3&#45;&gt;Node8 -->
<g id="edge38_Node000003_Node000008" class="edge">
<title>Node3&#45;&gt;Node8</title>
<g id="a_edge38_Node000003_Node000008"><a xlink:title=" ">
<path fill="none" stroke="#63b8ff" d="M422.12,-273.06C433.8,-247.39 448.84,-202.4 429.75,-170.25 412.69,-141.52 380.81,-162.98 363.75,-134.25 359.04,-126.32 358.3,-120.94 363.75,-113.5 370.34,-104.52 431.68,-87.45 472.15,-77.01"/>
<polygon fill="#63b8ff" stroke="#63b8ff" points="418.99,-271.49 417.78,-282.02 425.29,-274.54 418.99,-271.49"/>
</a>
</g>
</g>
<!-- Node3&#45;&gt;Node11 -->
<g id="edge39_Node000003_Node000011" class="edge">
<title>Node3&#45;&gt;Node11</title>
<g id="a_edge39_Node000003_Node000011"><a xlink:title=" ">
<path fill="none" stroke="#63b8ff" d="M442.78,-278.47C460.11,-269.99 481.94,-258.84 500.75,-247.75 517.95,-237.61 628.89,-161.78 668.62,-134.56"/>
<polygon fill="#63b8ff" stroke="#63b8ff" points="441.48,-275.21 434,-282.71 444.53,-281.51 441.48,-275.21"/>
</a>
</g>
</g>
<!-- Node21 -->
<g id="Node000021" class="node">
<title>Node21</title>
<g id="a_Node000021"><a xlink:href="socket_2datagram_8c.html" target="_top" xlink:title=" ">
<polygon fill="white" stroke="#666666" points="71.5,-134.25 0,-134.25 0,-113.5 71.5,-113.5 71.5,-134.25"/>
<text text-anchor="middle" x="35.75" y="-120.75" font-family="Helvetica,sans-Serif" font-size="10.00">datagram.c</text>
</a>
</g>
</g>
<!-- Node3&#45;&gt;Node21 -->
<g id="edge32_Node000003_Node000021" class="edge">
<title>Node3&#45;&gt;Node21</title>
<g id="a_edge32_Node000003_Node000021"><a xlink:title=" ">
<path fill="none" stroke="#63b8ff" d="M377.49,-287.68C317.49,-276.95 191.17,-248.88 100.75,-191 76.07,-175.2 53.63,-148.45 42.72,-134.3"/>
<polygon fill="#63b8ff" stroke="#63b8ff" points="376.64,-291.09 387.09,-289.35 377.83,-284.19 376.64,-291.09"/>
</a>
</g>
</g>
<!-- Node22 -->
<g id="Node000022" class="node">
<title>Node22</title>
<g id="a_Node000022"><a xlink:href="socket_2datagram_8h.html" target="_top" xlink:title=" ">
<polygon fill="white" stroke="#666666" points="224.88,-191 152.62,-191 152.62,-170.25 224.88,-170.25 224.88,-191"/>
<text text-anchor="middle" x="188.75" y="-177.5" font-family="Helvetica,sans-Serif" font-size="10.00">datagram.h</text>
</a>
</g>
</g>
<!-- Node3&#45;&gt;Node22 -->
<g id="edge33_Node000003_Node000022" class="edge">
<title>Node3&#45;&gt;Node22</title>
<g id="a_edge33_Node000003_Node000022"><a xlink:title=" ">
<path fill="none" stroke="#63b8ff" d="M377.85,-280.93C355.32,-272.46 325.31,-260.45 299.75,-247.75 263.99,-229.99 224.3,-204.96 203.43,-191.35"/>
<polygon fill="#63b8ff" stroke="#63b8ff" points="376.55,-284.19 387.14,-284.38 378.99,-277.62 376.55,-284.19"/>
</a>
</g>
</g>
<!-- Node23 -->
<g id="Node000023" class="node">
<title>Node23</title>
<g id="a_Node000023"><a xlink:href="socket_8h.html" target="_top" xlink:title=" ">
<polygon fill="white" stroke="#666666" points="365,-247.75 308.5,-247.75 308.5,-227 365,-227 365,-247.75"/>
<text text-anchor="middle" x="336.75" y="-234.25" font-family="Helvetica,sans-Serif" font-size="10.00">socket.h</text>
</a>
</g>
</g>
<!-- Node3&#45;&gt;Node23 -->
<g id="edge40_Node000003_Node000023" class="edge">
<title>Node3&#45;&gt;Node23</title>
<g id="a_edge40_Node000003_Node000023"><a xlink:title=" ">
<path fill="none" stroke="#63b8ff" d="M389.23,-276.69C376.45,-267.36 360.89,-256 350.04,-248.08"/>
<polygon fill="#63b8ff" stroke="#63b8ff" points="386.98,-279.38 397.12,-282.44 391.11,-273.72 386.98,-279.38"/>
</a>
</g>
</g>
<!-- Node5 -->
<g id="Node000005" class="node">
<title>Node5</title>
<g id="a_Node000005"><a xlink:href="adapter_8c.html" target="_top" xlink:title=" ">
<polygon fill="white" stroke="#666666" points="884.25,-191 823.25,-191 823.25,-170.25 884.25,-170.25 884.25,-191"/>
<text text-anchor="middle" x="853.75" y="-177.5" font-family="Helvetica,sans-Serif" font-size="10.00">adapter.c</text>
</a>
</g>
</g>
<!-- Node4&#45;&gt;Node5 -->
<g id="edge4_Node000004_Node000005" class="edge">
<title>Node4&#45;&gt;Node5</title>
<g id="a_edge4_Node000004_Node000005"><a xlink:title=" ">
<path fill="none" stroke="#63b8ff" d="M813.66,-218.83C823.47,-209.72 835.1,-198.93 843.29,-191.33"/>
<polygon fill="#63b8ff" stroke="#63b8ff" points="811.36,-216.19 806.41,-225.56 816.12,-221.32 811.36,-216.19"/>
</a>
</g>
</g>
<!-- Node6 -->
<g id="Node000006" class="node">
<title>Node6</title>
<g id="a_Node000006"><a xlink:href="iface_8c.html" target="_top" xlink:title=" ">
<polygon fill="white" stroke="#666666" points="632.88,-77.5 584.62,-77.5 584.62,-56.75 632.88,-56.75 632.88,-77.5"/>
<text text-anchor="middle" x="608.75" y="-64" font-family="Helvetica,sans-Serif" font-size="10.00">iface.c</text>
</a>
</g>
</g>
<!-- Node4&#45;&gt;Node6 -->
<g id="edge5_Node000004_Node000006" class="edge">
<title>Node4&#45;&gt;Node6</title>
<g id="a_edge5_Node000004_Node000006"><a xlink:title=" ">
<path fill="none" stroke="#63b8ff" d="M796.83,-215.36C798.28,-188.28 796.46,-141.35 770.75,-113.5 734.9,-74.65 668.76,-68.05 633.08,-67.52"/>
<polygon fill="#63b8ff" stroke="#63b8ff" points="793.36,-214.84 796.09,-225.08 800.34,-215.37 793.36,-214.84"/>
</a>
</g>
</g>
<!-- Node7 -->
<g id="Node000007" class="node">
<title>Node7</title>
<g id="a_Node000007"><a xlink:href="iface_8h.html" target="_top" xlink:title=" ">
<polygon fill="white" stroke="#666666" points="564.25,-191 515.25,-191 515.25,-170.25 564.25,-170.25 564.25,-191"/>
<text text-anchor="middle" x="539.75" y="-177.5" font-family="Helvetica,sans-Serif" font-size="10.00">iface.h</text>
</a>
</g>
</g>
<!-- Node4&#45;&gt;Node7 -->
<g id="edge6_Node000004_Node000007" class="edge">
<title>Node4&#45;&gt;Node7</title>
<g id="a_edge6_Node000004_Node000007"><a xlink:title=" ">
<path fill="none" stroke="#63b8ff" d="M752.29,-227.26C698.58,-215.73 607.86,-196.25 564.4,-186.92"/>
<polygon fill="#63b8ff" stroke="#63b8ff" points="751.49,-230.67 762,-229.34 752.96,-223.82 751.49,-230.67"/>
</a>
</g>
</g>
<!-- Node4&#45;&gt;Node8 -->
<g id="edge26_Node000004_Node000008" class="edge">
<title>Node4&#45;&gt;Node8</title>
<g id="a_edge26_Node000004_Node000008"><a xlink:title=" ">
<path fill="none" stroke="#63b8ff" d="M791.07,-215.38C785.04,-187.57 770.31,-139.06 737.75,-113.5 722.58,-101.59 603.84,-82.45 543.18,-73.31"/>
<polygon fill="#63b8ff" stroke="#63b8ff" points="787.61,-215.92 792.97,-225.06 794.48,-214.57 787.61,-215.92"/>
</a>
</g>
</g>
<!-- Node9 -->
<g id="Node000009" class="node">
<title>Node9</title>
<g id="a_Node000009"><a xlink:href="iface__can_8h.html" target="_top" xlink:title=" ">
<polygon fill="white" stroke="#666666" points="894.5,-134.25 823,-134.25 823,-113.5 894.5,-113.5 894.5,-134.25"/>
<text text-anchor="middle" x="858.75" y="-120.75" font-family="Helvetica,sans-Serif" font-size="10.00">iface_can.h</text>
</a>
</g>
</g>
<!-- Node4&#45;&gt;Node9 -->
<g id="edge27_Node000004_Node000009" class="edge">
<title>Node4&#45;&gt;Node9</title>
<g id="a_edge27_Node000004_Node000009"><a xlink:title=" ">
<path fill="none" stroke="#63b8ff" d="M837.02,-228.19C857.88,-221.8 881.2,-210.56 893.75,-191 906.1,-171.76 884.92,-147.72 870.48,-134.57"/>
<polygon fill="#63b8ff" stroke="#63b8ff" points="836.27,-224.77 827.56,-230.79 838.13,-231.52 836.27,-224.77"/>
</a>
</g>
</g>
<!-- Node4&#45;&gt;Node11 -->
<g id="edge28_Node000004_Node000011" class="edge">
<title>Node4&#45;&gt;Node11</title>
<g id="a_edge28_Node000004_Node000011"><a xlink:title=" ">
<path fill="none" stroke="#63b8ff" d="M774.18,-219.39C764.42,-211.08 752.73,-200.79 742.75,-191 723.27,-171.9 702.22,-147.81 690.96,-134.61"/>
<polygon fill="#63b8ff" stroke="#63b8ff" points="771.77,-221.93 781.68,-225.68 776.27,-216.57 771.77,-221.93"/>
</a>
</g>
</g>
<!-- Node19 -->
<g id="Node000019" class="node">
<title>Node19</title>
<g id="a_Node000019"><a xlink:href="packet__parse_8h.html" target="_top" xlink:title=" ">
<polygon fill="white" stroke="#666666" points="1030.5,-191 941,-191 941,-170.25 1030.5,-170.25 1030.5,-191"/>
<text text-anchor="middle" x="985.75" y="-177.5" font-family="Helvetica,sans-Serif" font-size="10.00">packet_parse.h</text>
</a>
</g>
</g>
<!-- Node4&#45;&gt;Node19 -->
<g id="edge29_Node000004_Node000019" class="edge">
<title>Node4&#45;&gt;Node19</title>
<g id="a_edge29_Node000004_Node000019"><a xlink:title=" ">
<path fill="none" stroke="#63b8ff" d="M836.52,-224.4C870.96,-214.53 919.21,-200.7 951.42,-191.47"/>
<polygon fill="#63b8ff" stroke="#63b8ff" points="835.97,-220.92 827.32,-227.04 837.89,-227.65 835.97,-220.92"/>
</a>
</g>
</g>
<!-- Node7&#45;&gt;Node6 -->
<g id="edge7_Node000007_Node000006" class="edge">
<title>Node7&#45;&gt;Node6</title>
<g id="a_edge7_Node000007_Node000006"><a xlink:title=" ">
<path fill="none" stroke="#63b8ff" d="M560.29,-162.53C568.77,-154.62 578.14,-144.68 584.75,-134.25 596.38,-115.89 603.44,-91.09 606.66,-77.69"/>
<polygon fill="#63b8ff" stroke="#63b8ff" points="558.21,-159.69 553.06,-168.95 562.86,-164.93 558.21,-159.69"/>
</a>
</g>
</g>
<!-- Node7&#45;&gt;Node8 -->
<g id="edge8_Node000007_Node000008" class="edge">
<title>Node7&#45;&gt;Node8</title>
<g id="a_edge8_Node000007_Node000008"><a xlink:title=" ">
<path fill="none" stroke="#63b8ff" d="M504.41,-168.93C487.75,-161.92 469.44,-150.89 459.75,-134.25 447.4,-113.04 473.66,-90.3 491.99,-77.78"/>
<polygon fill="#63b8ff" stroke="#63b8ff" points="503.01,-172.15 513.6,-172.44 505.51,-165.61 503.01,-172.15"/>
</a>
</g>
</g>
<!-- Node7&#45;&gt;Node9 -->
<g id="edge9_Node000007_Node000009" class="edge">
<title>Node7&#45;&gt;Node9</title>
<g id="a_edge9_Node000007_Node000009"><a xlink:title=" ">
<path fill="none" stroke="#63b8ff" d="M575.54,-173.48C636.78,-162.97 761.02,-141.65 822.55,-131.09"/>
<polygon fill="#63b8ff" stroke="#63b8ff" points="575.27,-169.98 566.01,-175.12 576.46,-176.88 575.27,-169.98"/>
</a>
</g>
</g>
<!-- Node7&#45;&gt;Node11 -->
<g id="edge12_Node000007_Node000011" class="edge">
<title>Node7&#45;&gt;Node11</title>
<g id="a_edge12_Node000007_Node000011"><a xlink:title=" ">
<path fill="none" stroke="#63b8ff" d="M575.35,-166C600.77,-156.26 634.36,-143.4 657.16,-134.67"/>
<polygon fill="#63b8ff" stroke="#63b8ff" points="574.16,-162.7 566.07,-169.55 576.66,-169.24 574.16,-162.7"/>
</a>
</g>
</g>
<!-- Node12 -->
<g id="Node000012" class="node">
<title>Node12</title>
<g id="a_Node000012"><a xlink:href="iface__vlcb_8h.html" target="_top" xlink:title=" ">
<polygon fill="white" stroke="#666666" points="543,-134.25 468.5,-134.25 468.5,-113.5 543,-113.5 543,-134.25"/>
<text text-anchor="middle" x="505.75" y="-120.75" font-family="Helvetica,sans-Serif" font-size="10.00">iface_vlcb.h</text>
</a>
</g>
</g>
<!-- Node7&#45;&gt;Node12 -->
<g id="edge14_Node000007_Node000012" class="edge">
<title>Node7&#45;&gt;Node12</title>
<g id="a_edge14_Node000007_Node000012"><a xlink:title=" ">
<path fill="none" stroke="#63b8ff" d="M527.63,-160.1C522.25,-151.45 516.16,-141.64 511.78,-134.58"/>
<polygon fill="#63b8ff" stroke="#63b8ff" points="524.62,-161.9 532.87,-168.55 530.57,-158.21 524.62,-161.9"/>
</a>
</g>
</g>
<!-- Node13 -->
<g id="Node000013" class="node">
<title>Node13</title>
<g id="a_Node000013"><a xlink:href="module_2inc_2vlcb_2module_8h.html" target="_top" xlink:title=" ">
<polygon fill="white" stroke="#666666" points="278.62,-134.25 216.88,-134.25 216.88,-113.5 278.62,-113.5 278.62,-134.25"/>
<text text-anchor="middle" x="247.75" y="-120.75" font-family="Helvetica,sans-Serif" font-size="10.00">module.h</text>
</a>
</g>
</g>
<!-- Node7&#45;&gt;Node13 -->
<g id="edge17_Node000007_Node000013" class="edge">
<title>Node7&#45;&gt;Node13</title>
<g id="a_edge17_Node000007_Node000013"><a xlink:title=" ">
<path fill="none" stroke="#63b8ff" d="M503.74,-172.87C446.01,-162.05 333.72,-140.99 279.1,-130.75"/>
<polygon fill="#63b8ff" stroke="#63b8ff" points="502.89,-176.28 513.37,-174.68 504.18,-169.4 502.89,-176.28"/>
</a>
</g>
</g>
<!-- Node18 -->
<g id="Node000018" class="node">
<title>Node18</title>
<g id="a_Node000018"><a xlink:href="net_2inc_2vlcb_2net_8h.html" target="_top" xlink:title=" ">
<polygon fill="white" stroke="#666666" points="413.12,-134.25 372.38,-134.25 372.38,-113.5 413.12,-113.5 413.12,-134.25"/>
<text text-anchor="middle" x="392.75" y="-120.75" font-family="Helvetica,sans-Serif" font-size="10.00">net.h</text>
</a>
</g>
</g>
<!-- Node7&#45;&gt;Node18 -->
<g id="edge25_Node000007_Node000018" class="edge">
<title>Node7&#45;&gt;Node18</title>
<g id="a_edge25_Node000007_Node000018"><a xlink:title=" ">
<path fill="none" stroke="#63b8ff" d="M504.12,-166.36C475.76,-155.79 437.04,-141.37 413.52,-132.61"/>
<polygon fill="#63b8ff" stroke="#63b8ff" points="502.8,-169.6 513.4,-169.81 505.25,-163.04 502.8,-169.6"/>
</a>
</g>
</g>
<!-- Node9&#45;&gt;Node6 -->
<g id="edge10_Node000009_Node000006" class="edge">
<title>Node9&#45;&gt;Node6</title>
<g id="a_edge10_Node000009_Node000006"><a xlink:title=" ">
<path fill="none" stroke="#63b8ff" d="M811.51,-112.53C758.44,-100.91 674.33,-82.49 633.13,-73.46"/>
<polygon fill="#63b8ff" stroke="#63b8ff" points="810.67,-115.93 821.19,-114.65 812.17,-109.09 810.67,-115.93"/>
</a>
</g>
</g>
<!-- Node10 -->
<g id="Node000010" class="node">
<title>Node10</title>
<g id="a_Node000010"><a xlink:href="iface__vlcb_8c.html" target="_top" xlink:title=" ">
<polygon fill="white" stroke="#666666" points="895.62,-77.5 821.88,-77.5 821.88,-56.75 895.62,-56.75 895.62,-77.5"/>
<text text-anchor="middle" x="858.75" y="-64" font-family="Helvetica,sans-Serif" font-size="10.00">iface_vlcb.c</text>
</a>
</g>
</g>
<!-- Node9&#45;&gt;Node10 -->
<g id="edge11_Node000009_Node000010" class="edge">
<title>Node9&#45;&gt;Node10</title>
<g id="a_edge11_Node000009_Node000010"><a xlink:title=" ">
<path fill="none" stroke="#63b8ff" d="M858.75,-101.63C858.75,-93.41 858.75,-84.43 858.75,-77.83"/>
<polygon fill="#63b8ff" stroke="#63b8ff" points="855.25,-101.57 858.75,-111.57 862.25,-101.57 855.25,-101.57"/>
</a>
</g>
</g>
<!-- Node11&#45;&gt;Node8 -->
<g id="edge13_Node000011_Node000008" class="edge">
<title>Node11&#45;&gt;Node8</title>
<g id="a_edge13_Node000011_Node000008"><a xlink:title=" ">
<path fill="none" stroke="#63b8ff" d="M640.88,-109.78C609.59,-99.99 567.47,-86.81 539.06,-77.92"/>
<polygon fill="#63b8ff" stroke="#63b8ff" points="639.43,-112.99 650.02,-112.63 641.52,-106.31 639.43,-112.99"/>
</a>
</g>
</g>
<!-- Node12&#45;&gt;Node6 -->
<g id="edge15_Node000012_Node000006" class="edge">
<title>Node12&#45;&gt;Node6</title>
<g id="a_edge15_Node000012_Node000006"><a xlink:title=" ">
<path fill="none" stroke="#63b8ff" d="M534.12,-107.79C552.12,-98.23 574.87,-86.13 590.5,-77.83"/>
<polygon fill="#63b8ff" stroke="#63b8ff" points="532.69,-104.59 525.5,-112.38 535.97,-110.77 532.69,-104.59"/>
</a>
</g>
</g>
<!-- Node12&#45;&gt;Node8 -->
<g id="edge16_Node000012_Node000008" class="edge">
<title>Node12&#45;&gt;Node8</title>
<g id="a_edge16_Node000012_Node000008"><a xlink:title=" ">
<path fill="none" stroke="#63b8ff" d="M506.53,-101.63C506.83,-93.41 507.15,-84.43 507.4,-77.83"/>
<polygon fill="#63b8ff" stroke="#63b8ff" points="503.03,-101.45 506.16,-111.57 510.03,-101.71 503.03,-101.45"/>
</a>
</g>
</g>
<!-- Node14 -->
<g id="Node000014" class="node">
<title>Node14</title>
<g id="a_Node000014"><a xlink:href="module_8c.html" target="_top" xlink:title=" ">
<polygon fill="white" stroke="#666666" points="356.25,-20.75 295.25,-20.75 295.25,0 356.25,0 356.25,-20.75"/>
<text text-anchor="middle" x="325.75" y="-7.25" font-family="Helvetica,sans-Serif" font-size="10.00">module.c</text>
</a>
</g>
</g>
<!-- Node13&#45;&gt;Node14 -->
<g id="edge18_Node000013_Node000014" class="edge">
<title>Node13&#45;&gt;Node14</title>
<g id="a_edge18_Node000013_Node000014"><a xlink:title=" ">
<path fill="none" stroke="#63b8ff" d="M289.9,-114.24C310.16,-107.75 332.62,-96.56 344.75,-77.5 356.16,-59.56 342.52,-34.6 333.15,-21.05"/>
<polygon fill="#63b8ff" stroke="#63b8ff" points="289.05,-110.85 280.41,-116.97 290.98,-117.57 289.05,-110.85"/>
</a>
</g>
</g>
<!-- Node15 -->
<g id="Node000015" class="node">
<title>Node15</title>
<g id="a_Node000015"><a xlink:href="module_2src_2module_8h.html" target="_top" xlink:title=" ">
<polygon fill="white" stroke="#666666" points="454.62,-77.5 392.88,-77.5 392.88,-56.75 454.62,-56.75 454.62,-77.5"/>
<text text-anchor="middle" x="423.75" y="-64" font-family="Helvetica,sans-Serif" font-size="10.00">module.h</text>
</a>
</g>
</g>
<!-- Node13&#45;&gt;Node15 -->
<g id="edge19_Node000013_Node000015" class="edge">
<title>Node13&#45;&gt;Node15</title>
<g id="a_edge19_Node000013_Node000015"><a xlink:title=" ">
<path fill="none" stroke="#63b8ff" d="M289.47,-109.9C321.04,-100.08 363.72,-86.8 392.41,-77.87"/>
<polygon fill="#63b8ff" stroke="#63b8ff" points="288.76,-106.45 280.26,-112.76 290.84,-113.13 288.76,-106.45"/>
</a>
</g>
</g>
<!-- Node16 -->
<g id="Node000016" class="node">
<title>Node16</title>
<g id="a_Node000016"><a xlink:href="state__machine_8c.html" target="_top" xlink:title=" ">
<polygon fill="white" stroke="#666666" points="201.88,-20.75 105.62,-20.75 105.62,0 201.88,0 201.88,-20.75"/>
<text text-anchor="middle" x="153.75" y="-7.25" font-family="Helvetica,sans-Serif" font-size="10.00">state_machine.c</text>
</a>
</g>
</g>
<!-- Node13&#45;&gt;Node16 -->
<g id="edge21_Node000013_Node000016" class="edge">
<title>Node13&#45;&gt;Node16</title>
<g id="a_edge21_Node000013_Node000016"><a xlink:title=" ">
<path fill="none" stroke="#63b8ff" d="M232.33,-104.58C212.21,-80.72 177.74,-39.83 162.01,-21.18"/>
<polygon fill="#63b8ff" stroke="#63b8ff" points="229.64,-106.82 238.76,-112.21 234.99,-102.31 229.64,-106.82"/>
</a>
</g>
</g>
<!-- Node17 -->
<g id="Node000017" class="node">
<title>Node17</title>
<g id="a_Node000017"><a xlink:href="state__machine_8h.html" target="_top" xlink:title=" ">
<polygon fill="white" stroke="#666666" points="336.25,-77.5 239.25,-77.5 239.25,-56.75 336.25,-56.75 336.25,-77.5"/>
<text text-anchor="middle" x="287.75" y="-64" font-family="Helvetica,sans-Serif" font-size="10.00">state_machine.h</text>
</a>
</g>
</g>
<!-- Node13&#45;&gt;Node17 -->
<g id="edge22_Node000013_Node000017" class="edge">
<title>Node13&#45;&gt;Node17</title>
<g id="a_edge22_Node000013_Node000017"><a xlink:title=" ">
<path fill="none" stroke="#63b8ff" d="M261.6,-103.92C268.02,-95.13 275.39,-85.05 280.66,-77.83"/>
<polygon fill="#63b8ff" stroke="#63b8ff" points="258.87,-101.73 255.79,-111.86 264.52,-105.85 258.87,-101.73"/>
</a>
</g>
</g>
<!-- Node15&#45;&gt;Node14 -->
<g id="edge20_Node000015_Node000014" class="edge">
<title>Node15&#45;&gt;Node14</title>
<g id="a_edge20_Node000015_Node000014"><a xlink:title=" ">
<path fill="none" stroke="#63b8ff" d="M396.27,-50.78C379.23,-41.25 357.85,-29.31 343.12,-21.08"/>
<polygon fill="#63b8ff" stroke="#63b8ff" points="394.47,-53.78 404.91,-55.6 397.89,-47.67 394.47,-53.78"/>
</a>
</g>
</g>
<!-- Node17&#45;&gt;Node14 -->
<g id="edge23_Node000017_Node000014" class="edge">
<title>Node17&#45;&gt;Node14</title>
<g id="a_edge23_Node000017_Node000014"><a xlink:title=" ">
<path fill="none" stroke="#63b8ff" d="M301.1,-46.89C307.16,-38.16 314.06,-28.22 319.02,-21.08"/>
<polygon fill="#63b8ff" stroke="#63b8ff" points="298.23,-44.88 295.41,-55.09 303.98,-48.87 298.23,-44.88"/>
</a>
</g>
</g>
<!-- Node17&#45;&gt;Node16 -->
<g id="edge24_Node000017_Node000016" class="edge">
<title>Node17&#45;&gt;Node16</title>
<g id="a_edge24_Node000017_Node000016"><a xlink:title=" ">
<path fill="none" stroke="#63b8ff" d="M253.44,-52.11C229.65,-42.39 198.59,-29.69 177.5,-21.08"/>
<polygon fill="#63b8ff" stroke="#63b8ff" points="251.81,-55.22 262.39,-55.76 254.46,-48.74 251.81,-55.22"/>
</a>
</g>
</g>
<!-- Node20 -->
<g id="Node000020" class="node">
<title>Node20</title>
<g id="a_Node000020"><a xlink:href="packet__parse_8c.html" target="_top" xlink:title=" ">
<polygon fill="white" stroke="#666666" points="1030.12,-134.25 941.38,-134.25 941.38,-113.5 1030.12,-113.5 1030.12,-134.25"/>
<text text-anchor="middle" x="985.75" y="-120.75" font-family="Helvetica,sans-Serif" font-size="10.00">packet_parse.c</text>
</a>
</g>
</g>
<!-- Node19&#45;&gt;Node20 -->
<g id="edge30_Node000019_Node000020" class="edge">
<title>Node19&#45;&gt;Node20</title>
<g id="a_edge30_Node000019_Node000020"><a xlink:title=" ">
<path fill="none" stroke="#63b8ff" d="M985.75,-158.38C985.75,-150.16 985.75,-141.18 985.75,-134.58"/>
<polygon fill="#63b8ff" stroke="#63b8ff" points="982.25,-158.32 985.75,-168.32 989.25,-158.32 982.25,-158.32"/>
</a>
</g>
</g>
<!-- Node22&#45;&gt;Node13 -->
<g id="edge36_Node000022_Node000013" class="edge">
<title>Node22&#45;&gt;Node13</title>
<g id="a_edge36_Node000022_Node000013"><a xlink:title=" ">
<path fill="none" stroke="#63b8ff" d="M207.66,-162.08C217.47,-152.97 229.1,-142.18 237.29,-134.58"/>
<polygon fill="#63b8ff" stroke="#63b8ff" points="205.36,-159.44 200.41,-168.81 210.12,-164.57 205.36,-159.44"/>
</a>
</g>
</g>
<!-- Node22&#45;&gt;Node14 -->
<g id="edge35_Node000022_Node000014" class="edge">
<title>Node22&#45;&gt;Node14</title>
<g id="a_edge35_Node000022_Node000014"><a xlink:title=" ">
<path fill="none" stroke="#63b8ff" d="M190.45,-158.87C193.69,-132.07 203.03,-85.46 229.75,-56.75 247.21,-37.99 274.01,-26.23 294.86,-19.39"/>
<polygon fill="#63b8ff" stroke="#63b8ff" points="187,-158.16 189.47,-168.46 193.97,-158.87 187,-158.16"/>
</a>
</g>
</g>
<!-- Node22&#45;&gt;Node16 -->
<g id="edge37_Node000022_Node000016" class="edge">
<title>Node22&#45;&gt;Node16</title>
<g id="a_edge37_Node000022_Node000016"><a xlink:title=" ">
<path fill="none" stroke="#63b8ff" d="M161.74,-163.53C151.18,-155.93 139.9,-145.94 132.75,-134.25 114.56,-104.52 109.97,-89.9 120.75,-56.75 125.27,-42.86 135.82,-29.67 143.79,-21.12"/>
<polygon fill="#63b8ff" stroke="#63b8ff" points="159.6,-166.31 169.85,-168.98 163.51,-160.5 159.6,-166.31"/>
</a>
</g>
</g>
<!-- Node22&#45;&gt;Node21 -->
<g id="edge34_Node000022_Node000021" class="edge">
<title>Node22&#45;&gt;Node21</title>
<g id="a_edge34_Node000022_Node000021"><a xlink:title=" ">
<path fill="none" stroke="#63b8ff" d="M150.71,-166.01C123.5,-156.28 87.53,-143.4 63.12,-134.67"/>
<polygon fill="#63b8ff" stroke="#63b8ff" points="149.38,-169.25 159.97,-169.33 151.74,-162.66 149.38,-169.25"/>
</a>
</g>
</g>
<!-- Node23&#45;&gt;Node6 -->
<g id="edge43_Node000023_Node000006" class="edge">
<title>Node23&#45;&gt;Node6</title>
<g id="a_edge43_Node000023_Node000006"><a xlink:title=" ">
<path fill="none" stroke="#63b8ff" d="M376.11,-223.33C421.4,-207.09 496.61,-176.29 551.75,-134.25 573.45,-117.71 592.81,-91.74 602.4,-77.77"/>
<polygon fill="#63b8ff" stroke="#63b8ff" points="374.97,-220.02 366.69,-226.64 377.29,-226.62 374.97,-220.02"/>
</a>
</g>
</g>
<!-- Node23&#45;&gt;Node7 -->
<g id="edge44_Node000023_Node000007" class="edge">
<title>Node23&#45;&gt;Node7</title>
<g id="a_edge44_Node000023_Node000007"><a xlink:title=" ">
<path fill="none" stroke="#63b8ff" d="M376.35,-225.69C417.36,-214.64 480.17,-197.69 514.75,-188.37"/>
<polygon fill="#63b8ff" stroke="#63b8ff" points="375.61,-222.27 366.87,-228.25 377.43,-229.03 375.61,-222.27"/>
</a>
</g>
</g>
<!-- Node23&#45;&gt;Node8 -->
<g id="edge45_Node000023_Node000008" class="edge">
<title>Node23&#45;&gt;Node8</title>
<g id="a_edge45_Node000023_Node000008"><a xlink:title=" ">
<path fill="none" stroke="#63b8ff" d="M328.47,-216.2C319.08,-189.7 307.81,-143.06 330.75,-113.5 335.15,-107.83 421.81,-87.49 472.21,-76.07"/>
<polygon fill="#63b8ff" stroke="#63b8ff" points="325.15,-217.32 331.99,-225.42 331.69,-214.82 325.15,-217.32"/>
</a>
</g>
</g>
<!-- Node23&#45;&gt;Node16 -->
<g id="edge48_Node000023_Node000016" class="edge">
<title>Node23&#45;&gt;Node16</title>
<g id="a_edge48_Node000023_Node000016"><a xlink:title=" ">
<path fill="none" stroke="#63b8ff" d="M309.77,-220.61C281.2,-202.76 236.36,-171.3 207.75,-134.25 179.26,-97.37 162.33,-43.12 156.28,-21.15"/>
<polygon fill="#63b8ff" stroke="#63b8ff" points="307.85,-223.54 318.21,-225.77 311.5,-217.57 307.85,-223.54"/>
</a>
</g>
</g>
<!-- Node23&#45;&gt;Node18 -->
<g id="edge46_Node000023_Node000018" class="edge">
<title>Node23&#45;&gt;Node18</title>
<g id="a_edge46_Node000023_Node000018"><a xlink:title=" ">
<path fill="none" stroke="#63b8ff" d="M340.38,-215.98C343.31,-202.48 348.21,-184.67 355.75,-170.25 362.91,-156.56 374.61,-143.13 382.94,-134.48"/>
<polygon fill="#63b8ff" stroke="#63b8ff" points="337.01,-214.97 338.51,-225.46 343.88,-216.33 337.01,-214.97"/>
</a>
</g>
</g>
<!-- Node23&#45;&gt;Node21 -->
<g id="edge41_Node000023_Node000021" class="edge">
<title>Node23&#45;&gt;Node21</title>
<g id="a_edge41_Node000023_Node000021"><a xlink:title=" ">
<path fill="none" stroke="#63b8ff" d="M296.71,-230.78C256.86,-224.34 194.49,-211.87 143.75,-191 106.95,-175.87 68.2,-149.08 48.65,-134.68"/>
<polygon fill="#63b8ff" stroke="#63b8ff" points="296.16,-234.24 306.58,-232.32 297.24,-227.32 296.16,-234.24"/>
</a>
</g>
</g>
<!-- Node23&#45;&gt;Node22 -->
<g id="edge42_Node000023_Node000022" class="edge">
<title>Node23&#45;&gt;Node22</title>
<g id="a_edge42_Node000023_Node000022"><a xlink:title=" ">
<path fill="none" stroke="#63b8ff" d="M299.56,-222.62C273.2,-212.87 238.48,-200.02 214.98,-191.33"/>
<polygon fill="#63b8ff" stroke="#63b8ff" points="298.28,-225.87 308.87,-226.06 300.71,-219.31 298.28,-225.87"/>
</a>
</g>
</g>
<!-- Node24 -->
<g id="Node000024" class="node">
<title>Node24</title>
<g id="a_Node000024"><a xlink:href="socket_8c.html" target="_top" xlink:title=" ">
<polygon fill="white" stroke="#666666" points="420.62,-191 364.88,-191 364.88,-170.25 420.62,-170.25 420.62,-191"/>
<text text-anchor="middle" x="392.75" y="-177.5" font-family="Helvetica,sans-Serif" font-size="10.00">socket.c</text>
</a>
</g>
</g>
<!-- Node23&#45;&gt;Node24 -->
<g id="edge47_Node000023_Node000024" class="edge">
<title>Node23&#45;&gt;Node24</title>
<g id="a_edge47_Node000023_Node000024"><a xlink:title=" ">
<path fill="none" stroke="#63b8ff" d="M354.98,-218.55C364.24,-209.5 375.12,-198.86 382.82,-191.33"/>
<polygon fill="#63b8ff" stroke="#63b8ff" points="352.55,-216.04 347.84,-225.53 357.44,-221.04 352.55,-216.04"/>
</a>
</g>
</g>
<!-- Node31&#45;&gt;Node4 -->
<g id="edge57_Node000031_Node000004" class="edge">
<title>Node31&#45;&gt;Node4</title>
<g id="a_edge57_Node000031_Node000004"><a xlink:title=" ">
<path fill="none" stroke="#63b8ff" d="M1342.67,-283.67C1140.44,-251.39 908.7,-241.78 825.97,-239.21"/>
<polygon fill="#63b8ff" stroke="#63b8ff" points="1341.88,-287.09 1352.31,-285.24 1343,-280.18 1341.88,-287.09"/>
</a>
</g>
</g>
</g>
</svg>
