<?xml version="1.0" encoding="UTF-8" standalone="no"?>
<!DOCTYPE svg PUBLIC "-//W3C//DTD SVG 1.1//EN"
 "http://www.w3.org/Graphics/SVG/1.1/DTD/svg11.dtd">
<!-- Generated by graphviz version 12.1.2 (20240928.0832)
 -->
<!-- Title: vlcb_defs_IsCanIdValid Pages: 1 -->
<svg width="547pt" height="158pt"
 viewBox="0.00 0.00 547.25 157.75" xmlns="http://www.w3.org/2000/svg" xmlns:xlink="http://www.w3.org/1999/xlink">
<g id="graph0" class="graph" transform="scale(1 1) rotate(0) translate(4 153.75)">
<title>vlcb_defs_IsCanIdValid</title>
<!-- Node1 -->
<g id="Node000001" class="node">
<title>Node1</title>
<g id="a_Node000001"><a xlink:title="Check if VLCB CAN ID value is valid.">
<polygon fill="#999999" stroke="#666666" points="539.25,-87.75 411.5,-87.75 411.5,-67 539.25,-67 539.25,-87.75"/>
<text text-anchor="middle" x="475.38" y="-74.25" font-family="Helvetica,sans-Serif" font-size="10.00">vlcb_defs_IsCanIdValid</text>
</a>
</g>
</g>
<!-- Node2 -->
<g id="Node000002" class="node">
<title>Node2</title>
<g id="a_Node000002"><a xlink:href="can__id__new_8c.html#a96585647cdbba9c7da0b3ab571b37c77" target="_top" xlink:title="Checked cast from raw byte.">
<polygon fill="white" stroke="#666666" points="353.75,-149.75 236.5,-149.75 236.5,-129 353.75,-129 353.75,-149.75"/>
<text text-anchor="middle" x="295.12" y="-136.25" font-family="Helvetica,sans-Serif" font-size="10.00">vlcb_defs_NewCanId</text>
</a>
</g>
</g>
<!-- Node1&#45;&gt;Node2 -->
<g id="edge1_Node000001_Node000002" class="edge">
<title>Node1&#45;&gt;Node2</title>
<g id="a_edge1_Node000001_Node000002"><a xlink:title=" ">
<path fill="none" stroke="#63b8ff" d="M441.38,-92.91C422.39,-101.46 397.92,-111.84 375.5,-119.38 365.53,-122.73 354.69,-125.81 344.32,-128.5"/>
<polygon fill="#63b8ff" stroke="#63b8ff" points="442.57,-96.21 450.21,-88.88 439.66,-89.84 442.57,-96.21"/>
</a>
</g>
</g>
<!-- Node4 -->
<g id="Node000004" class="node">
<title>Node4</title>
<g id="a_Node000004"><a xlink:href="packet__parse_8c.html#ab1f9c05b53fc44831bb9df729754638a" target="_top" xlink:title=" ">
<polygon fill="white" stroke="#666666" points="371.75,-110.75 218.5,-110.75 218.5,-90 371.75,-90 371.75,-110.75"/>
<text text-anchor="middle" x="295.12" y="-97.25" font-family="Helvetica,sans-Serif" font-size="10.00">vlcb_net_adpt_IsPacketValid</text>
</a>
</g>
</g>
<!-- Node1&#45;&gt;Node4 -->
<g id="edge3_Node000001_Node000004" class="edge">
<title>Node1&#45;&gt;Node4</title>
<g id="a_edge3_Node000001_Node000004"><a xlink:title=" ">
<path fill="none" stroke="#63b8ff" d="M399.63,-87.02C390.52,-88.19 381.21,-89.4 372.08,-90.57"/>
<polygon fill="#63b8ff" stroke="#63b8ff" points="400.06,-90.49 409.53,-85.74 399.16,-83.55 400.06,-90.49"/>
</a>
</g>
</g>
<!-- Node5 -->
<g id="Node000005" class="node">
<title>Node5</title>
<g id="a_Node000005"><a xlink:href="packet__parse_8c.html#acbc4558259bef220d1ce09f4609732f6" target="_top" xlink:title="Construct new CAN frame ID from an inner format packet.">
<polygon fill="white" stroke="#666666" points="375.5,-72.12 214.75,-72.12 214.75,-38.62 375.5,-38.62 375.5,-72.12"/>
<text text-anchor="start" x="222.75" y="-58.62" font-family="Helvetica,sans-Serif" font-size="10.00">vlcb_net_adpt_NewCanFrame</text>
<text text-anchor="middle" x="295.12" y="-45.88" font-family="Helvetica,sans-Serif" font-size="10.00">IdFromPkt</text>
</a>
</g>
</g>
<!-- Node1&#45;&gt;Node5 -->
<g id="edge4_Node000001_Node000005" class="edge">
<title>Node1&#45;&gt;Node5</title>
<g id="a_edge4_Node000001_Node000005"><a xlink:title=" ">
<path fill="none" stroke="#63b8ff" d="M399.63,-68.15C391.75,-67.18 383.73,-66.19 375.8,-65.21"/>
<polygon fill="#63b8ff" stroke="#63b8ff" points="399.17,-71.62 409.53,-69.37 400.03,-64.67 399.17,-71.62"/>
</a>
</g>
</g>
<!-- Node6 -->
<g id="Node000006" class="node">
<title>Node6</title>
<g id="a_Node000006"><a xlink:href="addr_8c.html#a0ab65595519fc6fe5e4b49b6f0fe0ee0" target="_top" xlink:title=" ">
<polygon fill="white" stroke="#666666" points="365,-20.75 225.25,-20.75 225.25,0 365,0 365,-20.75"/>
<text text-anchor="middle" x="295.12" y="-7.25" font-family="Helvetica,sans-Serif" font-size="10.00">vlcb_net_IsWireAddrValid</text>
</a>
</g>
</g>
<!-- Node1&#45;&gt;Node6 -->
<g id="edge5_Node000001_Node000006" class="edge">
<title>Node1&#45;&gt;Node6</title>
<g id="a_edge5_Node000001_Node000006"><a xlink:title=" ">
<path fill="none" stroke="#63b8ff" d="M445.25,-61.16C425.93,-50.92 399.76,-38.05 375.5,-29.38 366.83,-26.27 357.44,-23.52 348.26,-21.14"/>
<polygon fill="#63b8ff" stroke="#63b8ff" points="443.42,-64.15 453.89,-65.81 446.74,-57.98 443.42,-64.15"/>
</a>
</g>
</g>
<!-- Node3 -->
<g id="Node000003" class="node">
<title>Node3</title>
<g id="a_Node000003"><a xlink:href="packet__parse_8c.html#af6d3e10fa48b6a3065dbb5609ea70572" target="_top" xlink:title="Parse the CAN packet data into the inner format.">
<polygon fill="white" stroke="#666666" points="178.75,-149.75 0,-149.75 0,-129 178.75,-129 178.75,-149.75"/>
<text text-anchor="middle" x="89.38" y="-136.25" font-family="Helvetica,sans-Serif" font-size="10.00">vlcb_net_adpt_ParseRawCanData</text>
</a>
</g>
</g>
<!-- Node2&#45;&gt;Node3 -->
<g id="edge2_Node000002_Node000003" class="edge">
<title>Node2&#45;&gt;Node3</title>
<g id="a_edge2_Node000002_Node000003"><a xlink:title=" ">
<path fill="none" stroke="#63b8ff" d="M224.51,-139.38C209.86,-139.38 194.23,-139.38 178.99,-139.38"/>
<polygon fill="#63b8ff" stroke="#63b8ff" points="224.5,-142.88 234.5,-139.38 224.5,-135.88 224.5,-142.88"/>
</a>
</g>
</g>
</g>
</svg>
