<?xml version="1.0" encoding="UTF-8" standalone="no"?>
<!DOCTYPE svg PUBLIC "-//W3C//DTD SVG 1.1//EN"
 "http://www.w3.org/Graphics/SVG/1.1/DTD/svg11.dtd">
<!-- Generated by graphviz version 12.1.2 (20240928.0832)
 -->
<!-- Title: module.h Pages: 1 -->
<svg width="765pt" height="256pt"
 viewBox="0.00 0.00 765.38 255.75" xmlns="http://www.w3.org/2000/svg" xmlns:xlink="http://www.w3.org/1999/xlink">
<g id="graph0" class="graph" transform="scale(1 1) rotate(0) translate(4 251.75)">
<title>module.h</title>
<!-- Node1 -->
<g id="Node000001" class="node">
<title>Node1</title>
<g id="a_Node000001"><a xlink:title=" ">
<polygon fill="#999999" stroke="#666666" points="676.38,-247.75 614.62,-247.75 614.62,-227 676.38,-227 676.38,-247.75"/>
<text text-anchor="middle" x="645.5" y="-234.25" font-family="Helvetica,sans-Serif" font-size="10.00">module.h</text>
</a>
</g>
</g>
<!-- Node2 -->
<g id="Node000002" class="node">
<title>Node2</title>
<g id="a_Node000002"><a xlink:href="net_2inc_2vlcb_2net_2packet_2datagram_2module_8h.html" target="_top" xlink:title=" ">
<polygon fill="white" stroke="#666666" points="317.38,-77.5 255.62,-77.5 255.62,-56.75 317.38,-56.75 317.38,-77.5"/>
<text text-anchor="middle" x="286.5" y="-64" font-family="Helvetica,sans-Serif" font-size="10.00">module.h</text>
</a>
</g>
</g>
<!-- Node1&#45;&gt;Node2 -->
<g id="edge1_Node000001_Node000002" class="edge">
<title>Node1&#45;&gt;Node2</title>
<g id="a_edge1_Node000001_Node000002"><a xlink:title=" ">
<path fill="none" stroke="#63b8ff" d="M614.47,-221.83C542.92,-188.3 367.84,-106.24 307.41,-77.93"/>
<polygon fill="#63b8ff" stroke="#63b8ff" points="612.74,-224.89 623.28,-225.96 615.71,-218.55 612.74,-224.89"/>
</a>
</g>
</g>
<!-- Node7 -->
<g id="Node000007" class="node">
<title>Node7</title>
<g id="a_Node000007"><a xlink:href="param_8c.html" target="_top" xlink:title=" ">
<polygon fill="white" stroke="#666666" points="757.38,-77.5 701.62,-77.5 701.62,-56.75 757.38,-56.75 757.38,-77.5"/>
<text text-anchor="middle" x="729.5" y="-64" font-family="Helvetica,sans-Serif" font-size="10.00">param.c</text>
</a>
</g>
</g>
<!-- Node1&#45;&gt;Node7 -->
<g id="edge6_Node000001_Node000007" class="edge">
<title>Node1&#45;&gt;Node7</title>
<g id="a_edge6_Node000001_Node000007"><a xlink:title=" ">
<path fill="none" stroke="#63b8ff" d="M666.35,-219.1C686.91,-200.58 717.01,-169.11 729.5,-134.25 736.32,-115.23 733.76,-91.11 731.5,-77.89"/>
<polygon fill="#63b8ff" stroke="#63b8ff" points="664.06,-216.46 658.82,-225.67 668.65,-221.73 664.06,-216.46"/>
</a>
</g>
</g>
<!-- Node8 -->
<g id="Node000008" class="node">
<title>Node8</title>
<g id="a_Node000008"><a xlink:href="inc_2vlcb_2module_2param_8h.html" target="_top" xlink:title=" ">
<polygon fill="white" stroke="#666666" points="673.75,-191 617.25,-191 617.25,-170.25 673.75,-170.25 673.75,-191"/>
<text text-anchor="middle" x="645.5" y="-177.5" font-family="Helvetica,sans-Serif" font-size="10.00">param.h</text>
</a>
</g>
</g>
<!-- Node1&#45;&gt;Node8 -->
<g id="edge7_Node000001_Node000008" class="edge">
<title>Node1&#45;&gt;Node8</title>
<g id="a_edge7_Node000001_Node000008"><a xlink:title=" ">
<path fill="none" stroke="#63b8ff" d="M645.5,-215.13C645.5,-206.91 645.5,-197.93 645.5,-191.33"/>
<polygon fill="#63b8ff" stroke="#63b8ff" points="642,-215.07 645.5,-225.07 649,-215.07 642,-215.07"/>
</a>
</g>
</g>
<!-- Node3 -->
<g id="Node000003" class="node">
<title>Node3</title>
<g id="a_Node000003"><a xlink:href="module_8c.html" target="_top" xlink:title=" ">
<polygon fill="white" stroke="#666666" points="570,-20.75 509,-20.75 509,0 570,0 570,-20.75"/>
<text text-anchor="middle" x="539.5" y="-7.25" font-family="Helvetica,sans-Serif" font-size="10.00">module.c</text>
</a>
</g>
</g>
<!-- Node2&#45;&gt;Node3 -->
<g id="edge2_Node000002_Node000003" class="edge">
<title>Node2&#45;&gt;Node3</title>
<g id="a_edge2_Node000002_Node000003"><a xlink:title=" ">
<path fill="none" stroke="#63b8ff" d="M329.02,-56.92C379.86,-45.92 463.7,-27.78 508.69,-18.04"/>
<polygon fill="#63b8ff" stroke="#63b8ff" points="328.29,-53.5 319.26,-59.04 329.77,-60.34 328.29,-53.5"/>
</a>
</g>
</g>
<!-- Node4 -->
<g id="Node000004" class="node">
<title>Node4</title>
<g id="a_Node000004"><a xlink:href="release__node__num__deserialize_8c.html" target="_top" xlink:title=" ">
<polygon fill="white" stroke="#666666" points="175,-20.75 0,-20.75 0,0 175,0 175,-20.75"/>
<text text-anchor="middle" x="87.5" y="-7.25" font-family="Helvetica,sans-Serif" font-size="10.00">release_node_num_deserialize.c</text>
</a>
</g>
</g>
<!-- Node2&#45;&gt;Node4 -->
<g id="edge3_Node000002_Node000004" class="edge">
<title>Node2&#45;&gt;Node4</title>
<g id="a_edge3_Node000002_Node000004"><a xlink:title=" ">
<path fill="none" stroke="#63b8ff" d="M244.75,-54.64C208.71,-44.72 157.2,-30.55 123.08,-21.16"/>
<polygon fill="#63b8ff" stroke="#63b8ff" points="243.38,-57.89 253.95,-57.17 245.23,-51.14 243.38,-57.89"/>
</a>
</g>
</g>
<!-- Node5 -->
<g id="Node000005" class="node">
<title>Node5</title>
<g id="a_Node000005"><a xlink:href="release__node__num__serialize_8c.html" target="_top" xlink:title=" ">
<polygon fill="white" stroke="#666666" points="356,-20.75 193,-20.75 193,0 356,0 356,-20.75"/>
<text text-anchor="middle" x="274.5" y="-7.25" font-family="Helvetica,sans-Serif" font-size="10.00">release_node_num_serialize.c</text>
</a>
</g>
</g>
<!-- Node2&#45;&gt;Node5 -->
<g id="edge4_Node000002_Node000005" class="edge">
<title>Node2&#45;&gt;Node5</title>
<g id="a_edge4_Node000002_Node000005"><a xlink:title=" ">
<path fill="none" stroke="#63b8ff" d="M281.91,-45.17C280.09,-36.88 278.09,-27.75 276.63,-21.08"/>
<polygon fill="#63b8ff" stroke="#63b8ff" points="278.47,-45.84 284.03,-54.86 285.31,-44.34 278.47,-45.84"/>
</a>
</g>
</g>
<!-- Node6 -->
<g id="Node000006" class="node">
<title>Node6</title>
<g id="a_Node000006"><a xlink:href="state__machine_8c.html" target="_top" xlink:title=" ">
<polygon fill="white" stroke="#666666" points="470.62,-20.75 374.38,-20.75 374.38,0 470.62,0 470.62,-20.75"/>
<text text-anchor="middle" x="422.5" y="-7.25" font-family="Helvetica,sans-Serif" font-size="10.00">state_machine.c</text>
</a>
</g>
</g>
<!-- Node2&#45;&gt;Node6 -->
<g id="edge5_Node000002_Node000006" class="edge">
<title>Node2&#45;&gt;Node6</title>
<g id="a_edge5_Node000002_Node000006"><a xlink:title=" ">
<path fill="none" stroke="#63b8ff" d="M321.32,-52.11C345.46,-42.39 377,-29.69 398.4,-21.08"/>
<polygon fill="#63b8ff" stroke="#63b8ff" points="320.19,-48.79 312.22,-55.77 322.8,-55.28 320.19,-48.79"/>
</a>
</g>
</g>
<!-- Node8&#45;&gt;Node3 -->
<g id="edge8_Node000008_Node000003" class="edge">
<title>Node8&#45;&gt;Node3</title>
<g id="a_edge8_Node000008_Node000003"><a xlink:title=" ">
<path fill="none" stroke="#63b8ff" d="M641.21,-158.74C635.1,-132.83 621.95,-88.23 598.5,-56.75 587.31,-41.72 569.86,-29.16 556.84,-21.09"/>
<polygon fill="#63b8ff" stroke="#63b8ff" points="637.75,-159.33 643.33,-168.34 644.59,-157.82 637.75,-159.33"/>
</a>
</g>
</g>
<!-- Node8&#45;&gt;Node7 -->
<g id="edge17_Node000008_Node000007" class="edge">
<title>Node8&#45;&gt;Node7</title>
<g id="a_edge17_Node000008_Node000007"><a xlink:title=" ">
<path fill="none" stroke="#63b8ff" d="M676.43,-164.07C688.61,-156.56 701.75,-146.5 710.5,-134.25 722.86,-116.95 727.22,-91.74 728.73,-77.98"/>
<polygon fill="#63b8ff" stroke="#63b8ff" points="674.77,-160.99 667.85,-169.02 678.26,-167.05 674.77,-160.99"/>
</a>
</g>
</g>
<!-- Node9 -->
<g id="Node000009" class="node">
<title>Node9</title>
<g id="a_Node000009"><a xlink:href="module_2inc_2vlcb_2module_8h.html" target="_top" xlink:title=" ">
<polygon fill="white" stroke="#666666" points="530.38,-134.25 468.62,-134.25 468.62,-113.5 530.38,-113.5 530.38,-134.25"/>
<text text-anchor="middle" x="499.5" y="-120.75" font-family="Helvetica,sans-Serif" font-size="10.00">module.h</text>
</a>
</g>
</g>
<!-- Node8&#45;&gt;Node9 -->
<g id="edge9_Node000008_Node000009" class="edge">
<title>Node8&#45;&gt;Node9</title>
<g id="a_edge9_Node000008_Node000009"><a xlink:title=" ">
<path fill="none" stroke="#63b8ff" d="M608.81,-165.87C582.81,-156.12 548.56,-143.27 525.38,-134.58"/>
<polygon fill="#63b8ff" stroke="#63b8ff" points="607.39,-169.07 617.98,-169.31 609.85,-162.52 607.39,-169.07"/>
</a>
</g>
</g>
<!-- Node12 -->
<g id="Node000012" class="node">
<title>Node12</title>
<g id="a_Node000012"><a xlink:href="src_2param_8h.html" target="_top" xlink:title=" ">
<polygon fill="white" stroke="#666666" points="701.75,-134.25 645.25,-134.25 645.25,-113.5 701.75,-113.5 701.75,-134.25"/>
<text text-anchor="middle" x="673.5" y="-120.75" font-family="Helvetica,sans-Serif" font-size="10.00">param.h</text>
</a>
</g>
</g>
<!-- Node8&#45;&gt;Node12 -->
<g id="edge18_Node000008_Node000012" class="edge">
<title>Node8&#45;&gt;Node12</title>
<g id="a_edge18_Node000008_Node000012"><a xlink:title=" ">
<path fill="none" stroke="#63b8ff" d="M655.63,-159.82C660.02,-151.23 664.97,-141.56 668.54,-134.58"/>
<polygon fill="#63b8ff" stroke="#63b8ff" points="652.63,-157.99 651.2,-168.49 658.86,-161.18 652.63,-157.99"/>
</a>
</g>
</g>
<!-- Node9&#45;&gt;Node3 -->
<g id="edge10_Node000009_Node000003" class="edge">
<title>Node9&#45;&gt;Node3</title>
<g id="a_edge10_Node000009_Node000003"><a xlink:title=" ">
<path fill="none" stroke="#63b8ff" d="M504.57,-102.17C508.01,-89 512.94,-71.68 518.5,-56.75 523.23,-44.06 529.99,-29.99 534.55,-20.93"/>
<polygon fill="#63b8ff" stroke="#63b8ff" points="501.19,-101.29 502.13,-111.84 507.97,-103.01 501.19,-101.29"/>
</a>
</g>
</g>
<!-- Node9&#45;&gt;Node6 -->
<g id="edge13_Node000009_Node000006" class="edge">
<title>Node9&#45;&gt;Node6</title>
<g id="a_edge13_Node000009_Node000006"><a xlink:title=" ">
<path fill="none" stroke="#63b8ff" d="M456.89,-120.93C425.98,-117.02 386.13,-106.26 365.5,-77.5 350.31,-56.32 381.26,-33.75 403.21,-21.22"/>
<polygon fill="#63b8ff" stroke="#63b8ff" points="456.43,-124.4 466.74,-121.96 457.15,-117.44 456.43,-124.4"/>
</a>
</g>
</g>
<!-- Node10 -->
<g id="Node000010" class="node">
<title>Node10</title>
<g id="a_Node000010"><a xlink:href="module_2src_2module_8h.html" target="_top" xlink:title=" ">
<polygon fill="white" stroke="#666666" points="589.38,-77.5 527.62,-77.5 527.62,-56.75 589.38,-56.75 589.38,-77.5"/>
<text text-anchor="middle" x="558.5" y="-64" font-family="Helvetica,sans-Serif" font-size="10.00">module.h</text>
</a>
</g>
</g>
<!-- Node9&#45;&gt;Node10 -->
<g id="edge11_Node000009_Node000010" class="edge">
<title>Node9&#45;&gt;Node10</title>
<g id="a_edge11_Node000009_Node000010"><a xlink:title=" ">
<path fill="none" stroke="#63b8ff" d="M518.41,-105.33C528.22,-96.22 539.85,-85.43 548.04,-77.83"/>
<polygon fill="#63b8ff" stroke="#63b8ff" points="516.11,-102.69 511.16,-112.06 520.87,-107.82 516.11,-102.69"/>
</a>
</g>
</g>
<!-- Node11 -->
<g id="Node000011" class="node">
<title>Node11</title>
<g id="a_Node000011"><a xlink:href="state__machine_8h.html" target="_top" xlink:title=" ">
<polygon fill="white" stroke="#666666" points="471,-77.5 374,-77.5 374,-56.75 471,-56.75 471,-77.5"/>
<text text-anchor="middle" x="422.5" y="-64" font-family="Helvetica,sans-Serif" font-size="10.00">state_machine.h</text>
</a>
</g>
</g>
<!-- Node9&#45;&gt;Node11 -->
<g id="edge14_Node000009_Node000011" class="edge">
<title>Node9&#45;&gt;Node11</title>
<g id="a_edge14_Node000009_Node000011"><a xlink:title=" ">
<path fill="none" stroke="#63b8ff" d="M476.38,-106.44C463.26,-97.11 447.28,-85.75 436.15,-77.83"/>
<polygon fill="#63b8ff" stroke="#63b8ff" points="474.32,-109.27 484.5,-112.21 478.38,-103.56 474.32,-109.27"/>
</a>
</g>
</g>
<!-- Node10&#45;&gt;Node3 -->
<g id="edge12_Node000010_Node000003" class="edge">
<title>Node10&#45;&gt;Node3</title>
<g id="a_edge12_Node000010_Node000003"><a xlink:title=" ">
<path fill="none" stroke="#63b8ff" d="M551.43,-45.74C548.5,-37.3 545.24,-27.91 542.87,-21.08"/>
<polygon fill="#63b8ff" stroke="#63b8ff" points="548.02,-46.61 554.61,-54.91 554.63,-44.31 548.02,-46.61"/>
</a>
</g>
</g>
<!-- Node11&#45;&gt;Node3 -->
<g id="edge15_Node000011_Node000003" class="edge">
<title>Node11&#45;&gt;Node3</title>
<g id="a_edge15_Node000011_Node000003"><a xlink:title=" ">
<path fill="none" stroke="#63b8ff" d="M453.59,-51.58C474.2,-41.93 500.68,-29.54 518.76,-21.08"/>
<polygon fill="#63b8ff" stroke="#63b8ff" points="452.36,-48.29 444.79,-55.7 455.33,-54.63 452.36,-48.29"/>
</a>
</g>
</g>
<!-- Node11&#45;&gt;Node6 -->
<g id="edge16_Node000011_Node000006" class="edge">
<title>Node11&#45;&gt;Node6</title>
<g id="a_edge16_Node000011_Node000006"><a xlink:title=" ">
<path fill="none" stroke="#63b8ff" d="M422.5,-44.88C422.5,-36.66 422.5,-27.68 422.5,-21.08"/>
<polygon fill="#63b8ff" stroke="#63b8ff" points="419,-44.82 422.5,-54.82 426,-44.82 419,-44.82"/>
</a>
</g>
</g>
<!-- Node12&#45;&gt;Node3 -->
<g id="edge19_Node000012_Node000003" class="edge">
<title>Node12&#45;&gt;Node3</title>
<g id="a_edge19_Node000012_Node000003"><a xlink:title=" ">
<path fill="none" stroke="#63b8ff" d="M664.49,-102.9C657.23,-88.59 645.87,-69.65 631.5,-56.75 613.34,-40.45 588.27,-28.6 568.89,-21.11"/>
<polygon fill="#63b8ff" stroke="#63b8ff" points="661.28,-104.3 668.76,-111.81 667.59,-101.28 661.28,-104.3"/>
</a>
</g>
</g>
<!-- Node12&#45;&gt;Node7 -->
<g id="edge20_Node000012_Node000007" class="edge">
<title>Node12&#45;&gt;Node7</title>
<g id="a_edge20_Node000012_Node000007"><a xlink:title=" ">
<path fill="none" stroke="#63b8ff" d="M691.73,-105.05C700.99,-96 711.87,-85.36 719.57,-77.83"/>
<polygon fill="#63b8ff" stroke="#63b8ff" points="689.3,-102.54 684.59,-112.03 694.19,-107.54 689.3,-102.54"/>
</a>
</g>
</g>
</g>
</svg>
