<?xml version="1.0" encoding="UTF-8" standalone="no"?>
<!DOCTYPE svg PUBLIC "-//W3C//DTD SVG 1.1//EN"
 "http://www.w3.org/Graphics/SVG/1.1/DTD/svg11.dtd">
<!-- Generated by graphviz version 12.1.2 (20240928.0832)
 -->
<!-- Title: vlcb_defs_IsCanPriorityValid Pages: 1 -->
<svg width="582pt" height="68pt"
 viewBox="0.00 0.00 581.75 67.75" xmlns="http://www.w3.org/2000/svg" xmlns:xlink="http://www.w3.org/1999/xlink">
<g id="graph0" class="graph" transform="scale(1 1) rotate(0) translate(4 63.75)">
<title>vlcb_defs_IsCanPriorityValid</title>
<!-- Node1 -->
<g id="Node000001" class="node">
<title>Node1</title>
<g id="a_Node000001"><a xlink:title=" ">
<polygon fill="#999999" stroke="#666666" points="573.75,-39.75 419.75,-39.75 419.75,-19 573.75,-19 573.75,-39.75"/>
<text text-anchor="middle" x="496.75" y="-26.25" font-family="Helvetica,sans-Serif" font-size="10.00">vlcb_defs_IsCanPriorityValid</text>
</a>
</g>
</g>
<!-- Node2 -->
<g id="Node000002" class="node">
<title>Node2</title>
<g id="a_Node000002"><a xlink:href="can__prio__from__byte_8c.html#aaf28fed27e9847fafa6adab1bc112f84" target="_top" xlink:title=" ">
<polygon fill="white" stroke="#666666" points="383.75,-59.75 214.75,-59.75 214.75,-39 383.75,-39 383.75,-59.75"/>
<text text-anchor="middle" x="299.25" y="-46.25" font-family="Helvetica,sans-Serif" font-size="10.00">vlcb_defs_CanPriorityFromByte</text>
</a>
</g>
</g>
<!-- Node1&#45;&gt;Node2 -->
<g id="edge1_Node000001_Node000002" class="edge">
<title>Node1&#45;&gt;Node2</title>
<g id="a_edge1_Node000001_Node000002"><a xlink:title=" ">
<path fill="none" stroke="#63b8ff" d="M408.1,-38.34C400.11,-39.16 392.02,-39.99 384.06,-40.8"/>
<polygon fill="#63b8ff" stroke="#63b8ff" points="408.23,-41.85 417.82,-37.35 407.51,-34.88 408.23,-41.85"/>
</a>
</g>
</g>
<!-- Node4 -->
<g id="Node000004" class="node">
<title>Node4</title>
<g id="a_Node000004"><a xlink:href="packet__parse_8c.html#ab1f9c05b53fc44831bb9df729754638a" target="_top" xlink:title=" ">
<polygon fill="white" stroke="#666666" points="375.88,-20.75 222.62,-20.75 222.62,0 375.88,0 375.88,-20.75"/>
<text text-anchor="middle" x="299.25" y="-7.25" font-family="Helvetica,sans-Serif" font-size="10.00">vlcb_net_adpt_IsPacketValid</text>
</a>
</g>
</g>
<!-- Node1&#45;&gt;Node4 -->
<g id="edge3_Node000001_Node000004" class="edge">
<title>Node1&#45;&gt;Node4</title>
<g id="a_edge3_Node000001_Node000004"><a xlink:title=" ">
<path fill="none" stroke="#63b8ff" d="M407.95,-20.84C397.39,-19.82 386.67,-18.77 376.3,-17.77"/>
<polygon fill="#63b8ff" stroke="#63b8ff" points="407.53,-24.32 417.82,-21.8 408.2,-17.35 407.53,-24.32"/>
</a>
</g>
</g>
<!-- Node3 -->
<g id="Node000003" class="node">
<title>Node3</title>
<g id="a_Node000003"><a xlink:href="packet__parse_8c.html#af6d3e10fa48b6a3065dbb5609ea70572" target="_top" xlink:title="Parse the CAN packet data into the inner format.">
<polygon fill="white" stroke="#666666" points="178.75,-59.75 0,-59.75 0,-39 178.75,-39 178.75,-59.75"/>
<text text-anchor="middle" x="89.38" y="-46.25" font-family="Helvetica,sans-Serif" font-size="10.00">vlcb_net_adpt_ParseRawCanData</text>
</a>
</g>
</g>
<!-- Node2&#45;&gt;Node3 -->
<g id="edge2_Node000002_Node000003" class="edge">
<title>Node2&#45;&gt;Node3</title>
<g id="a_edge2_Node000002_Node000003"><a xlink:title=" ">
<path fill="none" stroke="#63b8ff" d="M203.06,-49.38C195.06,-49.38 187,-49.38 179.05,-49.38"/>
<polygon fill="#63b8ff" stroke="#63b8ff" points="202.78,-52.88 212.78,-49.38 202.78,-45.88 202.78,-52.88"/>
</a>
</g>
</g>
</g>
</svg>
