<?xml version="1.0" encoding="UTF-8" standalone="no"?>
<!DOCTYPE svg PUBLIC "-//W3C//DTD SVG 1.1//EN"
 "http://www.w3.org/Graphics/SVG/1.1/DTD/svg11.dtd">
<!-- Generated by graphviz version 12.1.2 (20240928.0832)
 -->
<!-- Title: module.h Pages: 1 -->
<svg width="760pt" height="256pt"
 viewBox="0.00 0.00 760.38 255.75" xmlns="http://www.w3.org/2000/svg" xmlns:xlink="http://www.w3.org/1999/xlink">
<g id="graph0" class="graph" transform="scale(1 1) rotate(0) translate(4 251.75)">
<title>module.h</title>
<!-- Node1 -->
<g id="Node000001" class="node">
<title>Node1</title>
<g id="a_Node000001"><a xlink:title=" ">
<polygon fill="#999999" stroke="#666666" points="574.38,-247.75 512.62,-247.75 512.62,-227 574.38,-227 574.38,-247.75"/>
<text text-anchor="middle" x="543.5" y="-234.25" font-family="Helvetica,sans-Serif" font-size="10.00">module.h</text>
</a>
</g>
</g>
<!-- Node2 -->
<g id="Node000002" class="node">
<title>Node2</title>
<g id="a_Node000002"><a xlink:href="general_8h.html" target="_top" xlink:title=" ">
<polygon fill="white" stroke="#666666" points="446.38,-191 384.62,-191 384.62,-170.25 446.38,-170.25 446.38,-191"/>
<text text-anchor="middle" x="415.5" y="-177.5" font-family="Helvetica,sans-Serif" font-size="10.00">general.h</text>
</a>
</g>
</g>
<!-- Node1&#45;&gt;Node2 -->
<g id="edge1_Node000001_Node000002" class="edge">
<title>Node1&#45;&gt;Node2</title>
<g id="a_edge1_Node000001_Node000002"><a xlink:title=" ">
<path fill="none" stroke="#63b8ff" d="M510.11,-222.09C487.47,-212.41 458.15,-199.87 438.19,-191.33"/>
<polygon fill="#63b8ff" stroke="#63b8ff" points="508.65,-225.28 519.22,-225.99 511.41,-218.84 508.65,-225.28"/>
</a>
</g>
</g>
<!-- Node3 -->
<g id="Node000003" class="node">
<title>Node3</title>
<g id="a_Node000003"><a xlink:href="net_2inc_2vlcb_2net_2packet_2datagram_2module_8h.html" target="_top" xlink:title=" ">
<polygon fill="white" stroke="#666666" points="317.38,-77.5 255.62,-77.5 255.62,-56.75 317.38,-56.75 317.38,-77.5"/>
<text text-anchor="middle" x="286.5" y="-64" font-family="Helvetica,sans-Serif" font-size="10.00">module.h</text>
</a>
</g>
</g>
<!-- Node1&#45;&gt;Node3 -->
<g id="edge2_Node000001_Node000003" class="edge">
<title>Node1&#45;&gt;Node3</title>
<g id="a_edge2_Node000001_Node000003"><a xlink:title=" ">
<path fill="none" stroke="#63b8ff" d="M522.42,-219.59C504.86,-205.84 479.02,-186.13 455.5,-170.25 401.81,-133.99 335.28,-95.6 304.14,-78"/>
<polygon fill="#63b8ff" stroke="#63b8ff" points="520.05,-222.17 530.07,-225.62 524.38,-216.68 520.05,-222.17"/>
</a>
</g>
</g>
<!-- Node8 -->
<g id="Node000008" class="node">
<title>Node8</title>
<g id="a_Node000008"><a xlink:href="param_8c.html" target="_top" xlink:title=" ">
<polygon fill="white" stroke="#666666" points="752.38,-77.5 696.62,-77.5 696.62,-56.75 752.38,-56.75 752.38,-77.5"/>
<text text-anchor="middle" x="724.5" y="-64" font-family="Helvetica,sans-Serif" font-size="10.00">param.c</text>
</a>
</g>
</g>
<!-- Node1&#45;&gt;Node8 -->
<g id="edge7_Node000001_Node000008" class="edge">
<title>Node1&#45;&gt;Node8</title>
<g id="a_edge7_Node000001_Node000008"><a xlink:title=" ">
<path fill="none" stroke="#63b8ff" d="M585.7,-227.07C630.36,-214.61 697.97,-187.59 724.5,-134.25 733.6,-115.95 730.05,-91.13 727.03,-77.7"/>
<polygon fill="#63b8ff" stroke="#63b8ff" points="584.84,-223.68 576.07,-229.62 586.63,-230.45 584.84,-223.68"/>
</a>
</g>
</g>
<!-- Node9 -->
<g id="Node000009" class="node">
<title>Node9</title>
<g id="a_Node000009"><a xlink:href="inc_2vlcb_2module_2param_8h.html" target="_top" xlink:title=" ">
<polygon fill="white" stroke="#666666" points="640.75,-191 584.25,-191 584.25,-170.25 640.75,-170.25 640.75,-191"/>
<text text-anchor="middle" x="612.5" y="-177.5" font-family="Helvetica,sans-Serif" font-size="10.00">param.h</text>
</a>
</g>
</g>
<!-- Node1&#45;&gt;Node9 -->
<g id="edge8_Node000001_Node000009" class="edge">
<title>Node1&#45;&gt;Node9</title>
<g id="a_edge8_Node000001_Node000009"><a xlink:title=" ">
<path fill="none" stroke="#63b8ff" d="M564.56,-219.66C576.26,-210.38 590.39,-199.17 600.27,-191.33"/>
<polygon fill="#63b8ff" stroke="#63b8ff" points="562.68,-216.69 557.02,-225.65 567.03,-222.17 562.68,-216.69"/>
</a>
</g>
</g>
<!-- Node4 -->
<g id="Node000004" class="node">
<title>Node4</title>
<g id="a_Node000004"><a xlink:href="module_8c.html" target="_top" xlink:title=" ">
<polygon fill="white" stroke="#666666" points="570,-20.75 509,-20.75 509,0 570,0 570,-20.75"/>
<text text-anchor="middle" x="539.5" y="-7.25" font-family="Helvetica,sans-Serif" font-size="10.00">module.c</text>
</a>
</g>
</g>
<!-- Node3&#45;&gt;Node4 -->
<g id="edge3_Node000003_Node000004" class="edge">
<title>Node3&#45;&gt;Node4</title>
<g id="a_edge3_Node000003_Node000004"><a xlink:title=" ">
<path fill="none" stroke="#63b8ff" d="M329.02,-56.92C379.86,-45.92 463.7,-27.78 508.69,-18.04"/>
<polygon fill="#63b8ff" stroke="#63b8ff" points="328.29,-53.5 319.26,-59.04 329.77,-60.34 328.29,-53.5"/>
</a>
</g>
</g>
<!-- Node5 -->
<g id="Node000005" class="node">
<title>Node5</title>
<g id="a_Node000005"><a xlink:href="release__node__num__deserialize_8c.html" target="_top" xlink:title=" ">
<polygon fill="white" stroke="#666666" points="175,-20.75 0,-20.75 0,0 175,0 175,-20.75"/>
<text text-anchor="middle" x="87.5" y="-7.25" font-family="Helvetica,sans-Serif" font-size="10.00">release_node_num_deserialize.c</text>
</a>
</g>
</g>
<!-- Node3&#45;&gt;Node5 -->
<g id="edge4_Node000003_Node000005" class="edge">
<title>Node3&#45;&gt;Node5</title>
<g id="a_edge4_Node000003_Node000005"><a xlink:title=" ">
<path fill="none" stroke="#63b8ff" d="M244.75,-54.64C208.71,-44.72 157.2,-30.55 123.08,-21.16"/>
<polygon fill="#63b8ff" stroke="#63b8ff" points="243.38,-57.89 253.95,-57.17 245.23,-51.14 243.38,-57.89"/>
</a>
</g>
</g>
<!-- Node6 -->
<g id="Node000006" class="node">
<title>Node6</title>
<g id="a_Node000006"><a xlink:href="release__node__num__serialize_8c.html" target="_top" xlink:title=" ">
<polygon fill="white" stroke="#666666" points="356,-20.75 193,-20.75 193,0 356,0 356,-20.75"/>
<text text-anchor="middle" x="274.5" y="-7.25" font-family="Helvetica,sans-Serif" font-size="10.00">release_node_num_serialize.c</text>
</a>
</g>
</g>
<!-- Node3&#45;&gt;Node6 -->
<g id="edge5_Node000003_Node000006" class="edge">
<title>Node3&#45;&gt;Node6</title>
<g id="a_edge5_Node000003_Node000006"><a xlink:title=" ">
<path fill="none" stroke="#63b8ff" d="M281.91,-45.17C280.09,-36.88 278.09,-27.75 276.63,-21.08"/>
<polygon fill="#63b8ff" stroke="#63b8ff" points="278.47,-45.84 284.03,-54.86 285.31,-44.34 278.47,-45.84"/>
</a>
</g>
</g>
<!-- Node7 -->
<g id="Node000007" class="node">
<title>Node7</title>
<g id="a_Node000007"><a xlink:href="state__machine_8c.html" target="_top" xlink:title=" ">
<polygon fill="white" stroke="#666666" points="470.62,-20.75 374.38,-20.75 374.38,0 470.62,0 470.62,-20.75"/>
<text text-anchor="middle" x="422.5" y="-7.25" font-family="Helvetica,sans-Serif" font-size="10.00">state_machine.c</text>
</a>
</g>
</g>
<!-- Node3&#45;&gt;Node7 -->
<g id="edge6_Node000003_Node000007" class="edge">
<title>Node3&#45;&gt;Node7</title>
<g id="a_edge6_Node000003_Node000007"><a xlink:title=" ">
<path fill="none" stroke="#63b8ff" d="M321.32,-52.11C345.46,-42.39 377,-29.69 398.4,-21.08"/>
<polygon fill="#63b8ff" stroke="#63b8ff" points="320.19,-48.79 312.22,-55.77 322.8,-55.28 320.19,-48.79"/>
</a>
</g>
</g>
<!-- Node9&#45;&gt;Node4 -->
<g id="edge9_Node000009_Node000004" class="edge">
<title>Node9&#45;&gt;Node4</title>
<g id="a_edge9_Node000009_Node000004"><a xlink:title=" ">
<path fill="none" stroke="#63b8ff" d="M614.87,-158.6C616.74,-132.85 616.57,-88.73 598.5,-56.75 589.6,-41 572.79,-28.91 559.38,-21.18"/>
<polygon fill="#63b8ff" stroke="#63b8ff" points="611.39,-158.14 613.96,-168.42 618.36,-158.78 611.39,-158.14"/>
</a>
</g>
</g>
<!-- Node9&#45;&gt;Node8 -->
<g id="edge18_Node000009_Node000008" class="edge">
<title>Node9&#45;&gt;Node8</title>
<g id="a_edge18_Node000009_Node000008"><a xlink:title=" ">
<path fill="none" stroke="#63b8ff" d="M651.83,-168.71C670.5,-161.68 691.69,-150.7 705.5,-134.25 719.32,-117.78 723.1,-91.78 724.13,-77.79"/>
<polygon fill="#63b8ff" stroke="#63b8ff" points="650.93,-165.32 642.64,-171.91 653.23,-171.93 650.93,-165.32"/>
</a>
</g>
</g>
<!-- Node10 -->
<g id="Node000010" class="node">
<title>Node10</title>
<g id="a_Node000010"><a xlink:href="module_2inc_2vlcb_2module_8h.html" target="_top" xlink:title=" ">
<polygon fill="white" stroke="#666666" points="564.38,-134.25 502.62,-134.25 502.62,-113.5 564.38,-113.5 564.38,-134.25"/>
<text text-anchor="middle" x="533.5" y="-120.75" font-family="Helvetica,sans-Serif" font-size="10.00">module.h</text>
</a>
</g>
</g>
<!-- Node9&#45;&gt;Node10 -->
<g id="edge10_Node000009_Node000010" class="edge">
<title>Node9&#45;&gt;Node10</title>
<g id="a_edge10_Node000009_Node000010"><a xlink:title=" ">
<path fill="none" stroke="#63b8ff" d="M589.18,-163.46C575.64,-154.08 559.04,-142.57 547.5,-134.58"/>
<polygon fill="#63b8ff" stroke="#63b8ff" points="586.92,-166.16 597.13,-168.97 590.91,-160.4 586.92,-166.16"/>
</a>
</g>
</g>
<!-- Node13 -->
<g id="Node000013" class="node">
<title>Node13</title>
<g id="a_Node000013"><a xlink:href="src_2param_8h.html" target="_top" xlink:title=" ">
<polygon fill="white" stroke="#666666" points="696.75,-134.25 640.25,-134.25 640.25,-113.5 696.75,-113.5 696.75,-134.25"/>
<text text-anchor="middle" x="668.5" y="-120.75" font-family="Helvetica,sans-Serif" font-size="10.00">param.h</text>
</a>
</g>
</g>
<!-- Node9&#45;&gt;Node13 -->
<g id="edge19_Node000009_Node000013" class="edge">
<title>Node9&#45;&gt;Node13</title>
<g id="a_edge19_Node000009_Node000013"><a xlink:title=" ">
<path fill="none" stroke="#63b8ff" d="M630.73,-161.8C639.99,-152.75 650.87,-142.11 658.57,-134.58"/>
<polygon fill="#63b8ff" stroke="#63b8ff" points="628.3,-159.29 623.59,-168.78 633.19,-164.29 628.3,-159.29"/>
</a>
</g>
</g>
<!-- Node10&#45;&gt;Node4 -->
<g id="edge11_Node000010_Node000004" class="edge">
<title>Node10&#45;&gt;Node4</title>
<g id="a_edge11_Node000010_Node000004"><a xlink:title=" ">
<path fill="none" stroke="#63b8ff" d="M524.13,-102.4C519.33,-89.35 515.13,-72.07 518.5,-56.75 521.37,-43.69 528.39,-29.93 533.52,-21.03"/>
<polygon fill="#63b8ff" stroke="#63b8ff" points="520.89,-103.72 527.94,-111.63 527.36,-101.05 520.89,-103.72"/>
</a>
</g>
</g>
<!-- Node10&#45;&gt;Node7 -->
<g id="edge14_Node000010_Node000007" class="edge">
<title>Node10&#45;&gt;Node7</title>
<g id="a_edge14_Node000010_Node000007"><a xlink:title=" ">
<path fill="none" stroke="#63b8ff" d="M491.37,-112.85C442.9,-101.11 369.42,-82.62 365.5,-77.5 349.56,-56.68 381.19,-33.8 403.38,-21.16"/>
<polygon fill="#63b8ff" stroke="#63b8ff" points="490.48,-116.23 501.02,-115.17 492.12,-109.43 490.48,-116.23"/>
</a>
</g>
</g>
<!-- Node11 -->
<g id="Node000011" class="node">
<title>Node11</title>
<g id="a_Node000011"><a xlink:href="module_2src_2module_8h.html" target="_top" xlink:title=" ">
<polygon fill="white" stroke="#666666" points="589.38,-77.5 527.62,-77.5 527.62,-56.75 589.38,-56.75 589.38,-77.5"/>
<text text-anchor="middle" x="558.5" y="-64" font-family="Helvetica,sans-Serif" font-size="10.00">module.h</text>
</a>
</g>
</g>
<!-- Node10&#45;&gt;Node11 -->
<g id="edge12_Node000010_Node000011" class="edge">
<title>Node10&#45;&gt;Node11</title>
<g id="a_edge12_Node000010_Node000011"><a xlink:title=" ">
<path fill="none" stroke="#63b8ff" d="M542.67,-102.78C546.56,-94.27 550.91,-84.74 554.07,-77.83"/>
<polygon fill="#63b8ff" stroke="#63b8ff" points="539.57,-101.16 538.6,-111.71 545.94,-104.07 539.57,-101.16"/>
</a>
</g>
</g>
<!-- Node12 -->
<g id="Node000012" class="node">
<title>Node12</title>
<g id="a_Node000012"><a xlink:href="state__machine_8h.html" target="_top" xlink:title=" ">
<polygon fill="white" stroke="#666666" points="471,-77.5 374,-77.5 374,-56.75 471,-56.75 471,-77.5"/>
<text text-anchor="middle" x="422.5" y="-64" font-family="Helvetica,sans-Serif" font-size="10.00">state_machine.h</text>
</a>
</g>
</g>
<!-- Node10&#45;&gt;Node12 -->
<g id="edge15_Node000010_Node000012" class="edge">
<title>Node10&#45;&gt;Node12</title>
<g id="a_edge15_Node000010_Node000012"><a xlink:title=" ">
<path fill="none" stroke="#63b8ff" d="M503.47,-108.06C483.99,-98.45 459.17,-86.21 442.17,-77.83"/>
<polygon fill="#63b8ff" stroke="#63b8ff" points="501.78,-111.13 512.3,-112.42 504.88,-104.85 501.78,-111.13"/>
</a>
</g>
</g>
<!-- Node11&#45;&gt;Node4 -->
<g id="edge13_Node000011_Node000004" class="edge">
<title>Node11&#45;&gt;Node4</title>
<g id="a_edge13_Node000011_Node000004"><a xlink:title=" ">
<path fill="none" stroke="#63b8ff" d="M551.43,-45.74C548.5,-37.3 545.24,-27.91 542.87,-21.08"/>
<polygon fill="#63b8ff" stroke="#63b8ff" points="548.02,-46.61 554.61,-54.91 554.63,-44.31 548.02,-46.61"/>
</a>
</g>
</g>
<!-- Node12&#45;&gt;Node4 -->
<g id="edge16_Node000012_Node000004" class="edge">
<title>Node12&#45;&gt;Node4</title>
<g id="a_edge16_Node000012_Node000004"><a xlink:title=" ">
<path fill="none" stroke="#63b8ff" d="M453.59,-51.58C474.2,-41.93 500.68,-29.54 518.76,-21.08"/>
<polygon fill="#63b8ff" stroke="#63b8ff" points="452.36,-48.29 444.79,-55.7 455.33,-54.63 452.36,-48.29"/>
</a>
</g>
</g>
<!-- Node12&#45;&gt;Node7 -->
<g id="edge17_Node000012_Node000007" class="edge">
<title>Node12&#45;&gt;Node7</title>
<g id="a_edge17_Node000012_Node000007"><a xlink:title=" ">
<path fill="none" stroke="#63b8ff" d="M422.5,-44.88C422.5,-36.66 422.5,-27.68 422.5,-21.08"/>
<polygon fill="#63b8ff" stroke="#63b8ff" points="419,-44.82 422.5,-54.82 426,-44.82 419,-44.82"/>
</a>
</g>
</g>
<!-- Node13&#45;&gt;Node4 -->
<g id="edge20_Node000013_Node000004" class="edge">
<title>Node13&#45;&gt;Node4</title>
<g id="a_edge20_Node000013_Node000004"><a xlink:title=" ">
<path fill="none" stroke="#63b8ff" d="M661.09,-102.88C654.95,-88.56 645.05,-69.61 631.5,-56.75 614.06,-40.2 589.43,-28.48 570.04,-21.11"/>
<polygon fill="#63b8ff" stroke="#63b8ff" points="657.67,-103.77 664.63,-111.76 664.17,-101.17 657.67,-103.77"/>
</a>
</g>
</g>
<!-- Node13&#45;&gt;Node8 -->
<g id="edge21_Node000013_Node000008" class="edge">
<title>Node13&#45;&gt;Node8</title>
<g id="a_edge21_Node000013_Node000008"><a xlink:title=" ">
<path fill="none" stroke="#63b8ff" d="M686.73,-105.05C695.99,-96 706.87,-85.36 714.57,-77.83"/>
<polygon fill="#63b8ff" stroke="#63b8ff" points="684.3,-102.54 679.59,-112.03 689.19,-107.54 684.3,-102.54"/>
</a>
</g>
</g>
</g>
</svg>
