<?xml version="1.0" encoding="UTF-8" standalone="no"?>
<!DOCTYPE svg PUBLIC "-//W3C//DTD SVG 1.1//EN"
 "http://www.w3.org/Graphics/SVG/1.1/DTD/svg11.dtd">
<!-- Generated by graphviz version 12.1.2 (20240928.0832)
 -->
<!-- Title: can.h Pages: 1 -->
<svg width="1185pt" height="369pt"
 viewBox="0.00 0.00 1185.25 369.25" xmlns="http://www.w3.org/2000/svg" xmlns:xlink="http://www.w3.org/1999/xlink">
<g id="graph0" class="graph" transform="scale(1 1) rotate(0) translate(4 365.25)">
<title>can.h</title>
<!-- Node1 -->
<g id="Node000001" class="node">
<title>Node1</title>
<g id="a_Node000001"><a xlink:title=" ">
<polygon fill="#999999" stroke="#666666" points="658.75,-361.25 616.5,-361.25 616.5,-340.5 658.75,-340.5 658.75,-361.25"/>
<text text-anchor="middle" x="637.62" y="-347.75" font-family="Helvetica,sans-Serif" font-size="10.00">can.h</text>
</a>
</g>
</g>
<!-- Node2 -->
<g id="Node000002" class="node">
<title>Node2</title>
<g id="a_Node000002"><a xlink:href="adapter_8c.html" target="_top" xlink:title=" ">
<polygon fill="white" stroke="#666666" points="704.12,-191 643.12,-191 643.12,-170.25 704.12,-170.25 704.12,-191"/>
<text text-anchor="middle" x="673.62" y="-177.5" font-family="Helvetica,sans-Serif" font-size="10.00">adapter.c</text>
</a>
</g>
</g>
<!-- Node1&#45;&gt;Node2 -->
<g id="edge1_Node000001_Node000002" class="edge">
<title>Node1&#45;&gt;Node2</title>
<g id="a_edge1_Node000001_Node000002"><a xlink:title=" ">
<path fill="none" stroke="#63b8ff" d="M604.91,-348.1C549.08,-344.32 439.15,-333.32 415.62,-304.5 409.79,-297.36 410.44,-291.38 415.62,-283.75 442.3,-244.51 580.7,-205.18 643.08,-189.14"/>
<polygon fill="#63b8ff" stroke="#63b8ff" points="604.55,-351.59 614.76,-348.73 605,-344.6 604.55,-351.59"/>
</a>
</g>
</g>
<!-- Node3 -->
<g id="Node000003" class="node">
<title>Node3</title>
<g id="a_Node000003"><a xlink:href="addr_8c.html" target="_top" xlink:title=" ">
<polygon fill="white" stroke="#666666" points="45.25,-247.75 0,-247.75 0,-227 45.25,-227 45.25,-247.75"/>
<text text-anchor="middle" x="22.62" y="-234.25" font-family="Helvetica,sans-Serif" font-size="10.00">addr.c</text>
</a>
</g>
</g>
<!-- Node1&#45;&gt;Node3 -->
<g id="edge2_Node000001_Node000003" class="edge">
<title>Node1&#45;&gt;Node3</title>
<g id="a_edge2_Node000001_Node000003"><a xlink:title=" ">
<path fill="none" stroke="#63b8ff" d="M605.15,-346.35C545.94,-339.7 416.61,-324.21 308.62,-304.5 196.97,-284.12 169.98,-274.3 59.62,-247.75 55.12,-246.66 50.31,-245.47 45.7,-244.31"/>
<polygon fill="#63b8ff" stroke="#63b8ff" points="604.52,-349.8 614.85,-347.42 605.3,-342.84 604.52,-349.8"/>
</a>
</g>
</g>
<!-- Node4 -->
<g id="Node000004" class="node">
<title>Node4</title>
<g id="a_Node000004"><a xlink:href="addr_8h.html" target="_top" xlink:title=" ">
<polygon fill="white" stroke="#666666" points="363.62,-304.5 317.62,-304.5 317.62,-283.75 363.62,-283.75 363.62,-304.5"/>
<text text-anchor="middle" x="340.62" y="-291" font-family="Helvetica,sans-Serif" font-size="10.00">addr.h</text>
</a>
</g>
</g>
<!-- Node1&#45;&gt;Node4 -->
<g id="edge3_Node000001_Node000004" class="edge">
<title>Node1&#45;&gt;Node4</title>
<g id="a_edge3_Node000001_Node000004"><a xlink:title=" ">
<path fill="none" stroke="#63b8ff" d="M605.02,-344.54C556.45,-336.49 462.25,-320.46 382.62,-304.5 376.47,-303.27 369.83,-301.83 363.69,-300.46"/>
<polygon fill="#63b8ff" stroke="#63b8ff" points="604.14,-347.94 614.58,-346.12 605.28,-341.04 604.14,-347.94"/>
</a>
</g>
</g>
<!-- Node24 -->
<g id="Node000024" class="node">
<title>Node24</title>
<g id="a_Node000024"><a xlink:href="can__id__is__valid_8c.html" target="_top" xlink:title=" ">
<polygon fill="white" stroke="#666666" points="522.88,-304.5 424.38,-304.5 424.38,-283.75 522.88,-283.75 522.88,-304.5"/>
<text text-anchor="middle" x="473.62" y="-291" font-family="Helvetica,sans-Serif" font-size="10.00">can_id_is_valid.c</text>
</a>
</g>
</g>
<!-- Node1&#45;&gt;Node24 -->
<g id="edge46_Node000001_Node000024" class="edge">
<title>Node1&#45;&gt;Node24</title>
<g id="a_edge46_Node000001_Node000024"><a xlink:title=" ">
<path fill="none" stroke="#63b8ff" d="M605.55,-339.17C575.82,-329.24 531.98,-314.61 503.11,-304.97"/>
<polygon fill="#63b8ff" stroke="#63b8ff" points="604.16,-342.39 614.75,-342.24 606.37,-335.75 604.16,-342.39"/>
</a>
</g>
</g>
<!-- Node25 -->
<g id="Node000025" class="node">
<title>Node25</title>
<g id="a_Node000025"><a xlink:href="can__id__new_8c.html" target="_top" xlink:title=" ">
<polygon fill="white" stroke="#666666" points="621.88,-304.5 541.38,-304.5 541.38,-283.75 621.88,-283.75 621.88,-304.5"/>
<text text-anchor="middle" x="581.62" y="-291" font-family="Helvetica,sans-Serif" font-size="10.00">can_id_new.c</text>
</a>
</g>
</g>
<!-- Node1&#45;&gt;Node25 -->
<g id="edge47_Node000001_Node000025" class="edge">
<title>Node1&#45;&gt;Node25</title>
<g id="a_edge47_Node000001_Node000025"><a xlink:title=" ">
<path fill="none" stroke="#63b8ff" d="M619.39,-332.05C610.14,-323 599.25,-312.36 591.55,-304.83"/>
<polygon fill="#63b8ff" stroke="#63b8ff" points="616.93,-334.54 626.53,-339.03 621.83,-329.54 616.93,-334.54"/>
</a>
</g>
</g>
<!-- Node26 -->
<g id="Node000026" class="node">
<title>Node26</title>
<g id="a_Node000026"><a xlink:href="can__is__prio__valid_8c.html" target="_top" xlink:title=" ">
<polygon fill="white" stroke="#666666" points="747.75,-304.5 639.5,-304.5 639.5,-283.75 747.75,-283.75 747.75,-304.5"/>
<text text-anchor="middle" x="693.62" y="-291" font-family="Helvetica,sans-Serif" font-size="10.00">can_is_prio_valid.c</text>
</a>
</g>
</g>
<!-- Node1&#45;&gt;Node26 -->
<g id="edge48_Node000001_Node000026" class="edge">
<title>Node1&#45;&gt;Node26</title>
<g id="a_edge48_Node000001_Node000026"><a xlink:title=" ">
<path fill="none" stroke="#63b8ff" d="M655.86,-332.05C665.11,-323 676,-312.36 683.7,-304.83"/>
<polygon fill="#63b8ff" stroke="#63b8ff" points="653.42,-329.54 648.72,-339.03 658.32,-334.54 653.42,-329.54"/>
</a>
</g>
</g>
<!-- Node27 -->
<g id="Node000027" class="node">
<title>Node27</title>
<g id="a_Node000027"><a xlink:href="can__prio__from__byte_8c.html" target="_top" xlink:title=" ">
<polygon fill="white" stroke="#666666" points="887.12,-304.5 766.12,-304.5 766.12,-283.75 887.12,-283.75 887.12,-304.5"/>
<text text-anchor="middle" x="826.62" y="-291" font-family="Helvetica,sans-Serif" font-size="10.00">can_prio_from_byte.c</text>
</a>
</g>
</g>
<!-- Node1&#45;&gt;Node27 -->
<g id="edge49_Node000001_Node000027" class="edge">
<title>Node1&#45;&gt;Node27</title>
<g id="a_edge49_Node000001_Node000027"><a xlink:title=" ">
<path fill="none" stroke="#63b8ff" d="M669.72,-340.58C703.89,-330.68 757.77,-315.07 792.65,-304.97"/>
<polygon fill="#63b8ff" stroke="#63b8ff" points="669.02,-337.14 660.39,-343.28 670.97,-343.86 669.02,-337.14"/>
</a>
</g>
</g>
<!-- Node28 -->
<g id="Node000028" class="node">
<title>Node28</title>
<g id="a_Node000028"><a xlink:href="can__prio__from__opc_8c.html" target="_top" xlink:title=" ">
<polygon fill="white" stroke="#666666" points="1021.88,-304.5 905.38,-304.5 905.38,-283.75 1021.88,-283.75 1021.88,-304.5"/>
<text text-anchor="middle" x="963.62" y="-291" font-family="Helvetica,sans-Serif" font-size="10.00">can_prio_from_opc.c</text>
</a>
</g>
</g>
<!-- Node1&#45;&gt;Node28 -->
<g id="edge50_Node000001_Node000028" class="edge">
<title>Node1&#45;&gt;Node28</title>
<g id="a_edge50_Node000001_Node000028"><a xlink:title=" ">
<path fill="none" stroke="#63b8ff" d="M670.12,-344.42C724.9,-335.22 836.36,-316.5 905.06,-304.96"/>
<polygon fill="#63b8ff" stroke="#63b8ff" points="669.79,-340.92 660.51,-346.03 670.95,-347.83 669.79,-340.92"/>
</a>
</g>
</g>
<!-- Node29 -->
<g id="Node000029" class="node">
<title>Node29</title>
<g id="a_Node000029"><a xlink:href="general_8h.html" target="_top" xlink:title=" ">
<polygon fill="white" stroke="#666666" points="1101.5,-304.5 1039.75,-304.5 1039.75,-283.75 1101.5,-283.75 1101.5,-304.5"/>
<text text-anchor="middle" x="1070.62" y="-291" font-family="Helvetica,sans-Serif" font-size="10.00">general.h</text>
</a>
</g>
</g>
<!-- Node1&#45;&gt;Node29 -->
<g id="edge51_Node000001_Node000029" class="edge">
<title>Node1&#45;&gt;Node29</title>
<g id="a_edge51_Node000001_Node000029"><a xlink:title=" ">
<path fill="none" stroke="#63b8ff" d="M670.19,-347.39C737.73,-341.97 897.86,-327.64 1030.62,-304.5 1033.44,-304.01 1036.34,-303.44 1039.25,-302.84"/>
<polygon fill="#63b8ff" stroke="#63b8ff" points="670.25,-343.88 660.56,-348.16 670.8,-350.86 670.25,-343.88"/>
</a>
</g>
</g>
<!-- Node30 -->
<g id="Node000030" class="node">
<title>Node30</title>
<g id="a_Node000030"><a xlink:href="packet_8h.html" target="_top" xlink:title=" ">
<polygon fill="white" stroke="#666666" points="1177.25,-304.5 1120,-304.5 1120,-283.75 1177.25,-283.75 1177.25,-304.5"/>
<text text-anchor="middle" x="1148.62" y="-291" font-family="Helvetica,sans-Serif" font-size="10.00">packet.h</text>
</a>
</g>
</g>
<!-- Node1&#45;&gt;Node30 -->
<g id="edge52_Node000001_Node000030" class="edge">
<title>Node1&#45;&gt;Node30</title>
<g id="a_edge52_Node000001_Node000030"><a xlink:title=" ">
<path fill="none" stroke="#63b8ff" d="M670.29,-348.39C747.4,-344.52 946.59,-332.45 1110.62,-304.5 1113.57,-304 1116.63,-303.39 1119.67,-302.73"/>
<polygon fill="#63b8ff" stroke="#63b8ff" points="670.32,-344.88 660.5,-348.87 670.66,-351.88 670.32,-344.88"/>
</a>
</g>
</g>
<!-- Node4&#45;&gt;Node3 -->
<g id="edge29_Node000004_Node000003" class="edge">
<title>Node4&#45;&gt;Node3</title>
<g id="a_edge29_Node000004_Node000003"><a xlink:title=" ">
<path fill="none" stroke="#63b8ff" d="M306.03,-288.54C252.82,-281.26 147.8,-266 59.62,-247.75 55.08,-246.81 50.26,-245.68 45.65,-244.54"/>
<polygon fill="#63b8ff" stroke="#63b8ff" points="305.3,-291.97 315.68,-289.85 306.24,-285.04 305.3,-291.97"/>
</a>
</g>
</g>
<!-- Node5 -->
<g id="Node000005" class="node">
<title>Node5</title>
<g id="a_Node000005"><a xlink:href="adapter_8h.html" target="_top" xlink:title=" ">
<polygon fill="white" stroke="#666666" points="782.5,-247.75 720.75,-247.75 720.75,-227 782.5,-227 782.5,-247.75"/>
<text text-anchor="middle" x="751.62" y="-234.25" font-family="Helvetica,sans-Serif" font-size="10.00">adapter.h</text>
</a>
</g>
</g>
<!-- Node4&#45;&gt;Node5 -->
<g id="edge4_Node000004_Node000005" class="edge">
<title>Node4&#45;&gt;Node5</title>
<g id="a_edge4_Node000004_Node000005"><a xlink:title=" ">
<path fill="none" stroke="#63b8ff" d="M375.08,-288.54C453.66,-278.07 645.15,-252.56 720.46,-242.53"/>
<polygon fill="#63b8ff" stroke="#63b8ff" points="374.85,-285.03 365.4,-289.82 375.77,-291.97 374.85,-285.03"/>
</a>
</g>
</g>
<!-- Node20 -->
<g id="Node000020" class="node">
<title>Node20</title>
<g id="a_Node000020"><a xlink:href="socket_2datagram_8c.html" target="_top" xlink:title=" ">
<polygon fill="white" stroke="#666666" points="109.38,-134.25 37.88,-134.25 37.88,-113.5 109.38,-113.5 109.38,-134.25"/>
<text text-anchor="middle" x="73.62" y="-120.75" font-family="Helvetica,sans-Serif" font-size="10.00">datagram.c</text>
</a>
</g>
</g>
<!-- Node4&#45;&gt;Node20 -->
<g id="edge30_Node000004_Node000020" class="edge">
<title>Node4&#45;&gt;Node20</title>
<g id="a_edge30_Node000004_Node000020"><a xlink:title=" ">
<path fill="none" stroke="#63b8ff" d="M308.8,-278.64C270.05,-260.42 203.27,-227.12 150.62,-191 124.76,-173.25 97.64,-148.22 83.51,-134.61"/>
<polygon fill="#63b8ff" stroke="#63b8ff" points="307.04,-281.68 317.58,-282.73 309.99,-275.33 307.04,-281.68"/>
</a>
</g>
</g>
<!-- Node21 -->
<g id="Node000021" class="node">
<title>Node21</title>
<g id="a_Node000021"><a xlink:href="socket_8h.html" target="_top" xlink:title=" ">
<polygon fill="white" stroke="#666666" points="368.88,-247.75 312.38,-247.75 312.38,-227 368.88,-227 368.88,-247.75"/>
<text text-anchor="middle" x="340.62" y="-234.25" font-family="Helvetica,sans-Serif" font-size="10.00">socket.h</text>
</a>
</g>
</g>
<!-- Node4&#45;&gt;Node21 -->
<g id="edge31_Node000004_Node000021" class="edge">
<title>Node4&#45;&gt;Node21</title>
<g id="a_edge31_Node000004_Node000021"><a xlink:title=" ">
<path fill="none" stroke="#63b8ff" d="M340.62,-271.88C340.62,-263.66 340.62,-254.68 340.62,-248.08"/>
<polygon fill="#63b8ff" stroke="#63b8ff" points="337.13,-271.82 340.63,-281.82 344.13,-271.82 337.13,-271.82"/>
</a>
</g>
</g>
<!-- Node5&#45;&gt;Node2 -->
<g id="edge5_Node000005_Node000002" class="edge">
<title>Node5&#45;&gt;Node2</title>
<g id="a_edge5_Node000005_Node000002"><a xlink:title=" ">
<path fill="none" stroke="#63b8ff" d="M728.6,-220.21C715.23,-210.83 698.84,-199.32 687.45,-191.33"/>
<polygon fill="#63b8ff" stroke="#63b8ff" points="726.25,-222.84 736.44,-225.72 730.27,-217.11 726.25,-222.84"/>
</a>
</g>
</g>
<!-- Node6 -->
<g id="Node000006" class="node">
<title>Node6</title>
<g id="a_Node000006"><a xlink:href="iface_8c.html" target="_top" xlink:title=" ">
<polygon fill="white" stroke="#666666" points="582.75,-77.5 534.5,-77.5 534.5,-56.75 582.75,-56.75 582.75,-77.5"/>
<text text-anchor="middle" x="558.62" y="-64" font-family="Helvetica,sans-Serif" font-size="10.00">iface.c</text>
</a>
</g>
</g>
<!-- Node5&#45;&gt;Node6 -->
<g id="edge6_Node000005_Node000006" class="edge">
<title>Node5&#45;&gt;Node6</title>
<g id="a_edge6_Node000005_Node000006"><a xlink:title=" ">
<path fill="none" stroke="#63b8ff" d="M757.45,-215.6C763.6,-188.77 769.45,-142.12 745.62,-113.5 700.93,-59.81 660.31,-94.79 592.62,-77.5 589.54,-76.71 586.31,-75.86 583.11,-75"/>
<polygon fill="#63b8ff" stroke="#63b8ff" points="754.07,-214.68 754.99,-225.24 760.86,-216.41 754.07,-214.68"/>
</a>
</g>
</g>
<!-- Node7 -->
<g id="Node000007" class="node">
<title>Node7</title>
<g id="a_Node000007"><a xlink:href="iface_8h.html" target="_top" xlink:title=" ">
<polygon fill="white" stroke="#666666" points="548.12,-191 499.12,-191 499.12,-170.25 548.12,-170.25 548.12,-191"/>
<text text-anchor="middle" x="523.62" y="-177.5" font-family="Helvetica,sans-Serif" font-size="10.00">iface.h</text>
</a>
</g>
</g>
<!-- Node5&#45;&gt;Node7 -->
<g id="edge7_Node000005_Node000007" class="edge">
<title>Node5&#45;&gt;Node7</title>
<g id="a_edge7_Node000005_Node000007"><a xlink:title=" ">
<path fill="none" stroke="#63b8ff" d="M709.31,-226.21C662.07,-214.87 587.18,-196.89 548.53,-187.6"/>
<polygon fill="#63b8ff" stroke="#63b8ff" points="708.39,-229.59 718.93,-228.52 710.02,-222.79 708.39,-229.59"/>
</a>
</g>
</g>
<!-- Node8 -->
<g id="Node000008" class="node">
<title>Node8</title>
<g id="a_Node000008"><a xlink:href="iface__can_8c.html" target="_top" xlink:title=" ">
<polygon fill="white" stroke="#666666" points="672,-77.5 601.25,-77.5 601.25,-56.75 672,-56.75 672,-77.5"/>
<text text-anchor="middle" x="636.62" y="-64" font-family="Helvetica,sans-Serif" font-size="10.00">iface_can.c</text>
</a>
</g>
</g>
<!-- Node5&#45;&gt;Node8 -->
<g id="edge25_Node000005_Node000008" class="edge">
<title>Node5&#45;&gt;Node8</title>
<g id="a_edge25_Node000005_Node000008"><a xlink:title=" ">
<path fill="none" stroke="#63b8ff" d="M768.94,-218.15C775.15,-210.4 781.41,-200.88 784.62,-191 795.28,-158.24 805.1,-141.2 784.62,-113.5 777.79,-104.26 714.05,-87.12 672.48,-76.75"/>
<polygon fill="#63b8ff" stroke="#63b8ff" points="766.49,-215.63 762.58,-225.48 771.77,-220.22 766.49,-215.63"/>
</a>
</g>
</g>
<!-- Node9 -->
<g id="Node000009" class="node">
<title>Node9</title>
<g id="a_Node000009"><a xlink:href="iface__can_8h.html" target="_top" xlink:title=" ">
<polygon fill="white" stroke="#666666" points="736.38,-134.25 664.88,-134.25 664.88,-113.5 736.38,-113.5 736.38,-134.25"/>
<text text-anchor="middle" x="700.62" y="-120.75" font-family="Helvetica,sans-Serif" font-size="10.00">iface_can.h</text>
</a>
</g>
</g>
<!-- Node5&#45;&gt;Node9 -->
<g id="edge26_Node000005_Node000009" class="edge">
<title>Node5&#45;&gt;Node9</title>
<g id="a_edge26_Node000005_Node000009"><a xlink:title=" ">
<path fill="none" stroke="#63b8ff" d="M742.52,-216.46C731.52,-192.41 713.45,-152.92 705.11,-134.68"/>
<polygon fill="#63b8ff" stroke="#63b8ff" points="739.3,-217.85 746.65,-225.49 745.67,-214.94 739.3,-217.85"/>
</a>
</g>
</g>
<!-- Node18 -->
<g id="Node000018" class="node">
<title>Node18</title>
<g id="a_Node000018"><a xlink:href="packet__parse_8h.html" target="_top" xlink:title=" ">
<polygon fill="white" stroke="#666666" points="926.38,-191 836.88,-191 836.88,-170.25 926.38,-170.25 926.38,-191"/>
<text text-anchor="middle" x="881.62" y="-177.5" font-family="Helvetica,sans-Serif" font-size="10.00">packet_parse.h</text>
</a>
</g>
</g>
<!-- Node5&#45;&gt;Node18 -->
<g id="edge27_Node000005_Node000018" class="edge">
<title>Node5&#45;&gt;Node18</title>
<g id="a_edge27_Node000005_Node000018"><a xlink:title=" ">
<path fill="none" stroke="#63b8ff" d="M785.22,-222.22C808.26,-212.52 838.22,-199.91 858.58,-191.33"/>
<polygon fill="#63b8ff" stroke="#63b8ff" points="784.12,-218.89 776.26,-226 786.84,-225.34 784.12,-218.89"/>
</a>
</g>
</g>
<!-- Node7&#45;&gt;Node6 -->
<g id="edge8_Node000007_Node000006" class="edge">
<title>Node7&#45;&gt;Node6</title>
<g id="a_edge8_Node000007_Node000006"><a xlink:title=" ">
<path fill="none" stroke="#63b8ff" d="M521.15,-158.62C520.33,-145.33 520.67,-127.99 525.62,-113.5 530.35,-99.68 540.87,-86.47 548.77,-77.91"/>
<polygon fill="#63b8ff" stroke="#63b8ff" points="517.65,-158.74 522.04,-168.38 524.62,-158.11 517.65,-158.74"/>
</a>
</g>
</g>
<!-- Node7&#45;&gt;Node8 -->
<g id="edge9_Node000007_Node000008" class="edge">
<title>Node7&#45;&gt;Node8</title>
<g id="a_edge9_Node000007_Node000008"><a xlink:title=" ">
<path fill="none" stroke="#63b8ff" d="M559.18,-170.32C578.99,-163.42 602.62,-152.05 617.62,-134.25 631.48,-117.81 635.25,-91.8 636.26,-77.8"/>
<polygon fill="#63b8ff" stroke="#63b8ff" points="558.25,-166.94 549.79,-173.33 560.38,-173.61 558.25,-166.94"/>
</a>
</g>
</g>
<!-- Node7&#45;&gt;Node9 -->
<g id="edge10_Node000007_Node000009" class="edge">
<title>Node7&#45;&gt;Node9</title>
<g id="a_edge10_Node000007_Node000009"><a xlink:title=" ">
<path fill="none" stroke="#63b8ff" d="M559.3,-168.59C591.38,-158.67 638.08,-144.22 668.89,-134.69"/>
<polygon fill="#63b8ff" stroke="#63b8ff" points="558.57,-165.15 550.06,-171.45 560.64,-171.84 558.57,-165.15"/>
</a>
</g>
</g>
<!-- Node11 -->
<g id="Node000011" class="node">
<title>Node11</title>
<g id="a_Node000011"><a xlink:href="iface__vlcb_8h.html" target="_top" xlink:title=" ">
<polygon fill="white" stroke="#666666" points="608.88,-134.25 534.38,-134.25 534.38,-113.5 608.88,-113.5 608.88,-134.25"/>
<text text-anchor="middle" x="571.62" y="-120.75" font-family="Helvetica,sans-Serif" font-size="10.00">iface_vlcb.h</text>
</a>
</g>
</g>
<!-- Node7&#45;&gt;Node11 -->
<g id="edge13_Node000007_Node000011" class="edge">
<title>Node7&#45;&gt;Node11</title>
<g id="a_edge13_Node000007_Node000011"><a xlink:title=" ">
<path fill="none" stroke="#63b8ff" d="M539.74,-161.24C547.57,-152.31 556.65,-141.95 563.12,-134.58"/>
<polygon fill="#63b8ff" stroke="#63b8ff" points="537.16,-158.87 533.2,-168.7 542.43,-163.49 537.16,-158.87"/>
</a>
</g>
</g>
<!-- Node12 -->
<g id="Node000012" class="node">
<title>Node12</title>
<g id="a_Node000012"><a xlink:href="module_2inc_2vlcb_2module_8h.html" target="_top" xlink:title=" ">
<polygon fill="white" stroke="#666666" points="272.5,-134.25 210.75,-134.25 210.75,-113.5 272.5,-113.5 272.5,-134.25"/>
<text text-anchor="middle" x="241.62" y="-120.75" font-family="Helvetica,sans-Serif" font-size="10.00">module.h</text>
</a>
</g>
</g>
<!-- Node7&#45;&gt;Node12 -->
<g id="edge16_Node000007_Node000012" class="edge">
<title>Node7&#45;&gt;Node12</title>
<g id="a_edge16_Node000007_Node000012"><a xlink:title=" ">
<path fill="none" stroke="#63b8ff" d="M487.72,-169.74C405.06,-150.89 318.22,-136.61 272.88,-129.58"/>
<polygon fill="#63b8ff" stroke="#63b8ff" points="486.82,-173.12 497.35,-171.96 488.4,-166.3 486.82,-173.12"/>
</a>
</g>
</g>
<!-- Node17 -->
<g id="Node000017" class="node">
<title>Node17</title>
<g id="a_Node000017"><a xlink:href="net_8h.html" target="_top" xlink:title=" ">
<polygon fill="white" stroke="#666666" points="469,-134.25 428.25,-134.25 428.25,-113.5 469,-113.5 469,-134.25"/>
<text text-anchor="middle" x="448.62" y="-120.75" font-family="Helvetica,sans-Serif" font-size="10.00">net.h</text>
</a>
</g>
</g>
<!-- Node7&#45;&gt;Node17 -->
<g id="edge24_Node000007_Node000017" class="edge">
<title>Node7&#45;&gt;Node17</title>
<g id="a_edge24_Node000007_Node000017"><a xlink:title=" ">
<path fill="none" stroke="#63b8ff" d="M501.11,-163.19C488.32,-153.86 472.76,-142.5 461.92,-134.58"/>
<polygon fill="#63b8ff" stroke="#63b8ff" points="498.85,-165.88 508.99,-168.94 502.98,-160.22 498.85,-165.88"/>
</a>
</g>
</g>
<!-- Node9&#45;&gt;Node6 -->
<g id="edge11_Node000009_Node000006" class="edge">
<title>Node9&#45;&gt;Node6</title>
<g id="a_edge11_Node000009_Node000006"><a xlink:title=" ">
<path fill="none" stroke="#63b8ff" d="M664.81,-109.07C639.18,-99.18 605.36,-86.14 582.84,-77.46"/>
<polygon fill="#63b8ff" stroke="#63b8ff" points="663.24,-112.21 673.83,-112.54 665.75,-105.68 663.24,-112.21"/>
</a>
</g>
</g>
<!-- Node10 -->
<g id="Node000010" class="node">
<title>Node10</title>
<g id="a_Node000010"><a xlink:href="iface__vlcb_8c.html" target="_top" xlink:title=" ">
<polygon fill="white" stroke="#666666" points="763.5,-77.5 689.75,-77.5 689.75,-56.75 763.5,-56.75 763.5,-77.5"/>
<text text-anchor="middle" x="726.62" y="-64" font-family="Helvetica,sans-Serif" font-size="10.00">iface_vlcb.c</text>
</a>
</g>
</g>
<!-- Node9&#45;&gt;Node10 -->
<g id="edge12_Node000009_Node000010" class="edge">
<title>Node9&#45;&gt;Node10</title>
<g id="a_edge12_Node000009_Node000010"><a xlink:title=" ">
<path fill="none" stroke="#63b8ff" d="M710.17,-102.78C714.21,-94.27 718.74,-84.74 722.02,-77.83"/>
<polygon fill="#63b8ff" stroke="#63b8ff" points="707.05,-101.18 705.92,-111.72 713.37,-104.19 707.05,-101.18"/>
</a>
</g>
</g>
<!-- Node11&#45;&gt;Node6 -->
<g id="edge14_Node000011_Node000006" class="edge">
<title>Node11&#45;&gt;Node6</title>
<g id="a_edge14_Node000011_Node000006"><a xlink:title=" ">
<path fill="none" stroke="#63b8ff" d="M566.65,-101.92C564.68,-93.63 562.51,-84.5 560.93,-77.83"/>
<polygon fill="#63b8ff" stroke="#63b8ff" points="563.24,-102.69 568.95,-111.61 570.05,-101.08 563.24,-102.69"/>
</a>
</g>
</g>
<!-- Node11&#45;&gt;Node8 -->
<g id="edge15_Node000011_Node000008" class="edge">
<title>Node11&#45;&gt;Node8</title>
<g id="a_edge15_Node000011_Node000008"><a xlink:title=" ">
<path fill="none" stroke="#63b8ff" d="M591.79,-105.89C602.75,-96.66 615.89,-85.59 625.1,-77.83"/>
<polygon fill="#63b8ff" stroke="#63b8ff" points="589.8,-102.99 584.4,-112.11 594.31,-108.35 589.8,-102.99"/>
</a>
</g>
</g>
<!-- Node13 -->
<g id="Node000013" class="node">
<title>Node13</title>
<g id="a_Node000013"><a xlink:href="module_8c.html" target="_top" xlink:title=" ">
<polygon fill="white" stroke="#666666" points="116.12,-20.75 55.12,-20.75 55.12,0 116.12,0 116.12,-20.75"/>
<text text-anchor="middle" x="85.62" y="-7.25" font-family="Helvetica,sans-Serif" font-size="10.00">module.c</text>
</a>
</g>
</g>
<!-- Node12&#45;&gt;Node13 -->
<g id="edge17_Node000012_Node000013" class="edge">
<title>Node12&#45;&gt;Node13</title>
<g id="a_edge17_Node000012_Node000013"><a xlink:title=" ">
<path fill="none" stroke="#63b8ff" d="M199.19,-119.19C168.91,-114.36 129.33,-103.21 104.62,-77.5 89.56,-61.82 86.31,-35.02 85.69,-20.83"/>
<polygon fill="#63b8ff" stroke="#63b8ff" points="198.4,-122.61 208.79,-120.54 199.37,-115.68 198.4,-122.61"/>
</a>
</g>
</g>
<!-- Node14 -->
<g id="Node000014" class="node">
<title>Node14</title>
<g id="a_Node000014"><a xlink:href="module_2src_2module_8h.html" target="_top" xlink:title=" ">
<polygon fill="white" stroke="#666666" points="175.5,-77.5 113.75,-77.5 113.75,-56.75 175.5,-56.75 175.5,-77.5"/>
<text text-anchor="middle" x="144.62" y="-64" font-family="Helvetica,sans-Serif" font-size="10.00">module.h</text>
</a>
</g>
</g>
<!-- Node12&#45;&gt;Node14 -->
<g id="edge18_Node000012_Node000014" class="edge">
<title>Node12&#45;&gt;Node14</title>
<g id="a_edge18_Node000012_Node000014"><a xlink:title=" ">
<path fill="none" stroke="#63b8ff" d="M214.43,-107.53C197.56,-98 176.39,-86.06 161.82,-77.83"/>
<polygon fill="#63b8ff" stroke="#63b8ff" points="212.54,-110.48 222.97,-112.34 215.98,-104.38 212.54,-110.48"/>
</a>
</g>
</g>
<!-- Node15 -->
<g id="Node000015" class="node">
<title>Node15</title>
<g id="a_Node000015"><a xlink:href="state__machine_8c.html" target="_top" xlink:title=" ">
<polygon fill="white" stroke="#666666" points="385.75,-20.75 289.5,-20.75 289.5,0 385.75,0 385.75,-20.75"/>
<text text-anchor="middle" x="337.62" y="-7.25" font-family="Helvetica,sans-Serif" font-size="10.00">state_machine.c</text>
</a>
</g>
</g>
<!-- Node12&#45;&gt;Node15 -->
<g id="edge20_Node000012_Node000015" class="edge">
<title>Node12&#45;&gt;Node15</title>
<g id="a_edge20_Node000012_Node000015"><a xlink:title=" ">
<path fill="none" stroke="#63b8ff" d="M266.24,-106.38C276.97,-98.45 289.22,-88.32 298.62,-77.5 314.19,-59.6 326.97,-34.62 333.3,-21.06"/>
<polygon fill="#63b8ff" stroke="#63b8ff" points="264.29,-103.47 258.17,-112.13 268.35,-109.18 264.29,-103.47"/>
</a>
</g>
</g>
<!-- Node16 -->
<g id="Node000016" class="node">
<title>Node16</title>
<g id="a_Node000016"><a xlink:href="state__machine_8h.html" target="_top" xlink:title=" ">
<polygon fill="white" stroke="#666666" points="290.12,-77.5 193.12,-77.5 193.12,-56.75 290.12,-56.75 290.12,-77.5"/>
<text text-anchor="middle" x="241.62" y="-64" font-family="Helvetica,sans-Serif" font-size="10.00">state_machine.h</text>
</a>
</g>
</g>
<!-- Node12&#45;&gt;Node16 -->
<g id="edge21_Node000012_Node000016" class="edge">
<title>Node12&#45;&gt;Node16</title>
<g id="a_edge21_Node000012_Node000016"><a xlink:title=" ">
<path fill="none" stroke="#63b8ff" d="M241.62,-101.63C241.62,-93.41 241.62,-84.43 241.62,-77.83"/>
<polygon fill="#63b8ff" stroke="#63b8ff" points="238.13,-101.57 241.63,-111.57 245.13,-101.57 238.13,-101.57"/>
</a>
</g>
</g>
<!-- Node14&#45;&gt;Node13 -->
<g id="edge19_Node000014_Node000013" class="edge">
<title>Node14&#45;&gt;Node13</title>
<g id="a_edge19_Node000014_Node000013"><a xlink:title=" ">
<path fill="none" stroke="#63b8ff" d="M125.72,-48.58C115.9,-39.47 104.28,-28.68 96.08,-21.08"/>
<polygon fill="#63b8ff" stroke="#63b8ff" points="123.26,-51.07 132.97,-55.31 128.02,-45.94 123.26,-51.07"/>
</a>
</g>
</g>
<!-- Node16&#45;&gt;Node13 -->
<g id="edge22_Node000016_Node000013" class="edge">
<title>Node16&#45;&gt;Node13</title>
<g id="a_edge22_Node000016_Node000013"><a xlink:title=" ">
<path fill="none" stroke="#63b8ff" d="M203.2,-52.64C175.42,-42.89 138.53,-29.94 113.54,-21.17"/>
<polygon fill="#63b8ff" stroke="#63b8ff" points="201.71,-55.83 212.31,-55.84 204.03,-49.22 201.71,-55.83"/>
</a>
</g>
</g>
<!-- Node16&#45;&gt;Node15 -->
<g id="edge23_Node000016_Node000015" class="edge">
<title>Node16&#45;&gt;Node15</title>
<g id="a_edge23_Node000016_Node000015"><a xlink:title=" ">
<path fill="none" stroke="#63b8ff" d="M268.54,-50.78C285.24,-41.25 306.18,-29.31 320.61,-21.08"/>
<polygon fill="#63b8ff" stroke="#63b8ff" points="267.06,-47.59 260.1,-55.59 270.52,-53.67 267.06,-47.59"/>
</a>
</g>
</g>
<!-- Node19 -->
<g id="Node000019" class="node">
<title>Node19</title>
<g id="a_Node000019"><a xlink:href="packet__parse_8c.html" target="_top" xlink:title=" ">
<polygon fill="white" stroke="#666666" points="926,-134.25 837.25,-134.25 837.25,-113.5 926,-113.5 926,-134.25"/>
<text text-anchor="middle" x="881.62" y="-120.75" font-family="Helvetica,sans-Serif" font-size="10.00">packet_parse.c</text>
</a>
</g>
</g>
<!-- Node18&#45;&gt;Node19 -->
<g id="edge28_Node000018_Node000019" class="edge">
<title>Node18&#45;&gt;Node19</title>
<g id="a_edge28_Node000018_Node000019"><a xlink:title=" ">
<path fill="none" stroke="#63b8ff" d="M881.62,-158.38C881.62,-150.16 881.62,-141.18 881.62,-134.58"/>
<polygon fill="#63b8ff" stroke="#63b8ff" points="878.13,-158.32 881.63,-168.32 885.13,-158.32 878.13,-158.32"/>
</a>
</g>
</g>
<!-- Node21&#45;&gt;Node6 -->
<g id="edge38_Node000021_Node000006" class="edge">
<title>Node21&#45;&gt;Node6</title>
<g id="a_edge38_Node000021_Node000006"><a xlink:title=" ">
<path fill="none" stroke="#63b8ff" d="M348.31,-216.1C359.72,-188.74 383.71,-140.36 419.62,-113.5 454.29,-87.58 504.43,-76.06 534.07,-71.25"/>
<polygon fill="#63b8ff" stroke="#63b8ff" points="345.09,-214.73 344.64,-225.31 351.59,-217.32 345.09,-214.73"/>
</a>
</g>
</g>
<!-- Node21&#45;&gt;Node7 -->
<g id="edge39_Node000021_Node000007" class="edge">
<title>Node21&#45;&gt;Node7</title>
<g id="a_edge39_Node000021_Node000007"><a xlink:title=" ">
<path fill="none" stroke="#63b8ff" d="M379.83,-224.64C415.86,-213.87 468.16,-198.22 498.75,-189.07"/>
<polygon fill="#63b8ff" stroke="#63b8ff" points="379.25,-221.17 370.67,-227.39 381.25,-227.87 379.25,-221.17"/>
</a>
</g>
</g>
<!-- Node21&#45;&gt;Node9 -->
<g id="edge40_Node000021_Node000009" class="edge">
<title>Node21&#45;&gt;Node9</title>
<g id="a_edge40_Node000021_Node000009"><a xlink:title=" ">
<path fill="none" stroke="#63b8ff" d="M380.13,-227.51C380.97,-227.34 381.8,-227.17 382.62,-227 468.98,-209.4 494.48,-220.22 577.62,-191 619.25,-176.37 663.86,-149.12 686.17,-134.59"/>
<polygon fill="#63b8ff" stroke="#63b8ff" points="379.59,-224.05 370.54,-229.56 381.05,-230.9 379.59,-224.05"/>
</a>
</g>
</g>
<!-- Node21&#45;&gt;Node11 -->
<g id="edge41_Node000021_Node000011" class="edge">
<title>Node21&#45;&gt;Node11</title>
<g id="a_edge41_Node000021_Node000011"><a xlink:title=" ">
<path fill="none" stroke="#63b8ff" d="M380.14,-227.54C380.97,-227.36 381.8,-227.18 382.62,-227 460.27,-210.35 501.31,-246.99 557.62,-191 572.77,-175.94 573.46,-148.87 572.59,-134.48"/>
<polygon fill="#63b8ff" stroke="#63b8ff" points="379.58,-224.08 370.56,-229.63 381.07,-230.91 379.58,-224.08"/>
</a>
</g>
</g>
<!-- Node21&#45;&gt;Node13 -->
<g id="edge42_Node000021_Node000013" class="edge">
<title>Node21&#45;&gt;Node13</title>
<g id="a_edge42_Node000021_Node000013"><a xlink:title=" ">
<path fill="none" stroke="#63b8ff" d="M300.72,-229.67C223.47,-215.74 58.47,-181.04 28.62,-134.25 3.46,-94.79 51.86,-42.43 74.66,-21.07"/>
<polygon fill="#63b8ff" stroke="#63b8ff" points="299.94,-233.09 310.4,-231.39 301.16,-226.2 299.94,-233.09"/>
</a>
</g>
</g>
<!-- Node21&#45;&gt;Node15 -->
<g id="edge45_Node000021_Node000015" class="edge">
<title>Node21&#45;&gt;Node15</title>
<g id="a_edge45_Node000021_Node000015"><a xlink:title=" ">
<path fill="none" stroke="#63b8ff" d="M340.34,-215.2C339.71,-167.81 338.2,-54.7 337.75,-21.01"/>
<polygon fill="#63b8ff" stroke="#63b8ff" points="336.84,-215.24 340.48,-225.19 343.84,-215.15 336.84,-215.24"/>
</a>
</g>
</g>
<!-- Node21&#45;&gt;Node17 -->
<g id="edge43_Node000021_Node000017" class="edge">
<title>Node21&#45;&gt;Node17</title>
<g id="a_edge43_Node000021_Node000017"><a xlink:title=" ">
<path fill="none" stroke="#63b8ff" d="M357.73,-218.71C380.75,-194.95 420.9,-153.5 439.13,-134.68"/>
<polygon fill="#63b8ff" stroke="#63b8ff" points="355.33,-216.16 350.89,-225.78 360.36,-221.03 355.33,-216.16"/>
</a>
</g>
</g>
<!-- Node21&#45;&gt;Node20 -->
<g id="edge32_Node000021_Node000020" class="edge">
<title>Node21&#45;&gt;Node20</title>
<g id="a_edge32_Node000021_Node000020"><a xlink:title=" ">
<path fill="none" stroke="#63b8ff" d="M300.87,-226.03C271.55,-217.87 230.95,-205.48 196.62,-191 156.64,-174.13 112.44,-148.52 89.46,-134.64"/>
<polygon fill="#63b8ff" stroke="#63b8ff" points="299.89,-229.38 310.46,-228.65 301.73,-222.63 299.89,-229.38"/>
</a>
</g>
</g>
<!-- Node22 -->
<g id="Node000022" class="node">
<title>Node22</title>
<g id="a_Node000022"><a xlink:href="socket_2datagram_8h.html" target="_top" xlink:title=" ">
<polygon fill="white" stroke="#666666" points="277.75,-191 205.5,-191 205.5,-170.25 277.75,-170.25 277.75,-191"/>
<text text-anchor="middle" x="241.62" y="-177.5" font-family="Helvetica,sans-Serif" font-size="10.00">datagram.h</text>
</a>
</g>
</g>
<!-- Node21&#45;&gt;Node22 -->
<g id="edge33_Node000021_Node000022" class="edge">
<title>Node21&#45;&gt;Node22</title>
<g id="a_edge33_Node000021_Node000022"><a xlink:title=" ">
<path fill="none" stroke="#63b8ff" d="M312.87,-221.03C295.65,-211.5 274.05,-199.56 259.17,-191.33"/>
<polygon fill="#63b8ff" stroke="#63b8ff" points="311.16,-224.08 321.6,-225.85 314.54,-217.95 311.16,-224.08"/>
</a>
</g>
</g>
<!-- Node23 -->
<g id="Node000023" class="node">
<title>Node23</title>
<g id="a_Node000023"><a xlink:href="socket_8c.html" target="_top" xlink:title=" ">
<polygon fill="white" stroke="#666666" points="481.5,-191 425.75,-191 425.75,-170.25 481.5,-170.25 481.5,-191"/>
<text text-anchor="middle" x="453.62" y="-177.5" font-family="Helvetica,sans-Serif" font-size="10.00">socket.c</text>
</a>
</g>
</g>
<!-- Node21&#45;&gt;Node23 -->
<g id="edge44_Node000021_Node000023" class="edge">
<title>Node21&#45;&gt;Node23</title>
<g id="a_edge44_Node000021_Node000023"><a xlink:title=" ">
<path fill="none" stroke="#63b8ff" d="M370.92,-221.7C390.79,-212.07 416.22,-199.75 433.6,-191.33"/>
<polygon fill="#63b8ff" stroke="#63b8ff" points="369.66,-218.42 362.19,-225.93 372.71,-224.72 369.66,-218.42"/>
</a>
</g>
</g>
<!-- Node22&#45;&gt;Node12 -->
<g id="edge36_Node000022_Node000012" class="edge">
<title>Node22&#45;&gt;Node12</title>
<g id="a_edge36_Node000022_Node000012"><a xlink:title=" ">
<path fill="none" stroke="#63b8ff" d="M241.62,-158.38C241.62,-150.16 241.62,-141.18 241.62,-134.58"/>
<polygon fill="#63b8ff" stroke="#63b8ff" points="238.13,-158.32 241.63,-168.32 245.13,-158.32 238.13,-158.32"/>
</a>
</g>
</g>
<!-- Node22&#45;&gt;Node13 -->
<g id="edge35_Node000022_Node000013" class="edge">
<title>Node22&#45;&gt;Node13</title>
<g id="a_edge35_Node000022_Node000013"><a xlink:title=" ">
<path fill="none" stroke="#63b8ff" d="M212.55,-164.39C172.24,-142.61 102.71,-102.46 88.62,-77.5 78.57,-59.69 81.05,-34.68 83.49,-21.09"/>
<polygon fill="#63b8ff" stroke="#63b8ff" points="210.8,-167.42 221.26,-169.05 214.1,-161.25 210.8,-167.42"/>
</a>
</g>
</g>
<!-- Node22&#45;&gt;Node15 -->
<g id="edge37_Node000022_Node000015" class="edge">
<title>Node22&#45;&gt;Node15</title>
<g id="a_edge37_Node000022_Node000015"><a xlink:title=" ">
<path fill="none" stroke="#63b8ff" d="M259.29,-161.84C277.28,-142.66 304.6,-110.44 319.62,-77.5 328.31,-58.45 333.56,-34.34 336,-21.13"/>
<polygon fill="#63b8ff" stroke="#63b8ff" points="256.98,-159.19 252.58,-168.82 262.03,-164.03 256.98,-159.19"/>
</a>
</g>
</g>
<!-- Node22&#45;&gt;Node20 -->
<g id="edge34_Node000022_Node000020" class="edge">
<title>Node22&#45;&gt;Node20</title>
<g id="a_edge34_Node000022_Node000020"><a xlink:title=" ">
<path fill="none" stroke="#63b8ff" d="M200.64,-166.27C170.68,-156.51 130.72,-143.48 103.68,-134.67"/>
<polygon fill="#63b8ff" stroke="#63b8ff" points="199.56,-169.6 210.15,-169.37 201.73,-162.94 199.56,-169.6"/>
</a>
</g>
</g>
<!-- Node30&#45;&gt;Node5 -->
<g id="edge53_Node000030_Node000005" class="edge">
<title>Node30&#45;&gt;Node5</title>
<g id="a_edge53_Node000030_Node000005"><a xlink:title=" ">
<path fill="none" stroke="#63b8ff" d="M1108.62,-283.57C982.02,-260.54 843.16,-246.59 782.55,-241.06"/>
<polygon fill="#63b8ff" stroke="#63b8ff" points="1107.7,-286.96 1118.17,-285.34 1108.97,-280.08 1107.7,-286.96"/>
</a>
</g>
</g>
</g>
</svg>
