<?xml version="1.0" encoding="UTF-8" standalone="no"?>
<!DOCTYPE svg PUBLIC "-//W3C//DTD SVG 1.1//EN"
 "http://www.w3.org/Graphics/SVG/1.1/DTD/svg11.dtd">
<!-- Generated by graphviz version 12.1.2 (20240928.0832)
 -->
<!-- Title: net Pages: 1 -->
<svg width="280pt" height="187pt"
 viewBox="0.00 0.00 280.00 187.00" xmlns="http://www.w3.org/2000/svg" xmlns:xlink="http://www.w3.org/1999/xlink">
<g id="graph0" class="graph" transform="scale(1 1) rotate(0) translate(4 183)">
<title>net</title>
<g id="clust1" class="cluster">
<title>clusterdir_92093c0e3f7a85eea7c75b2de4739d96</title>
<g id="a_clust1"><a xlink:href="dir_92093c0e3f7a85eea7c75b2de4739d96.html" target="_top" xlink:title="vlcb">
<polygon fill="#edf0f7" stroke="#7f7f7f" stroke-dasharray="5,2" points="8,-40.75 8,-171 231,-171 231,-40.75 8,-40.75"/>
<text text-anchor="middle" x="119.5" y="-157.5" font-family="Helvetica,sans-Serif" font-size="10.00">vlcb</text>
</a>
</g>
</g>
<g id="clust2" class="cluster">
<title>clusterdir_24b9c8ed87177bc21519ebb42da29035</title>
<g id="a_clust2"><a xlink:href="dir_24b9c8ed87177bc21519ebb42da29035.html" target="_top">
<polygon fill="#edf0f7" stroke="#404040" stroke-width="2" points="16,-48.75 16,-142.25 223,-142.25 223,-48.75 16,-48.75"/>
</a>
</g>
</g>
<!-- dir_24b9c8ed87177bc21519ebb42da29035 -->
<g id="node1" class="node">
<title>dir_24b9c8ed87177bc21519ebb42da29035</title>
<text text-anchor="middle" x="85" y="-120.75" font-family="Helvetica,sans-Serif" font-size="10.00">net</text>
</g>
<!-- dir_42ec0ede0503724f517e30a41a75be6d -->
<g id="node2" class="node">
<title>dir_42ec0ede0503724f517e30a41a75be6d</title>
<g id="a_node2"><a xlink:href="dir_42ec0ede0503724f517e30a41a75be6d.html" target="_top" xlink:title="adapter">
<polygon fill="#a2b4d6" stroke="#404040" points="77.75,-77.5 24.25,-77.5 24.25,-56.75 77.75,-56.75 77.75,-77.5"/>
<text text-anchor="middle" x="51" y="-64" font-family="Helvetica,sans-Serif" font-size="10.00">adapter</text>
</a>
</g>
</g>
<!-- dir_24b9c8ed87177bc21519ebb42da29035&#45;&gt;dir_42ec0ede0503724f517e30a41a75be6d -->
<g id="edge1" class="edge">
<title>dir_24b9c8ed87177bc21519ebb42da29035&#45;&gt;dir_42ec0ede0503724f517e30a41a75be6d</title>
<g id="a_edge1"><a xlink:href="dir_000021_000000.html" target="_top">
<path fill="none" stroke="#63b8ff" d="M79.39,-113.83C74.94,-106.67 68.57,-96.42 62.99,-87.43"/>
<polygon fill="#63b8ff" stroke="#63b8ff" points="66.01,-85.67 57.76,-79.02 60.07,-89.36 66.01,-85.67"/>
</a>
</g>
<g id="a_edge1&#45;headlabel"><a xlink:href="dir_000021_000000.html" target="_top" xlink:title="1">
<text text-anchor="middle" x="69.52" y="-82.81" font-family="Helvetica,sans-Serif" font-size="10.00" fill="#63b8ff">1</text>
</a>
</g>
</g>
<!-- dir_6b971676fcbfb37e3d2472443ff22884 -->
<g id="node3" class="node">
<title>dir_6b971676fcbfb37e3d2472443ff22884</title>
<g id="a_node3"><a xlink:href="dir_6b971676fcbfb37e3d2472443ff22884.html" target="_top" xlink:title="packet">
<polygon fill="#a2b4d6" stroke="#404040" points="144.12,-77.5 95.88,-77.5 95.88,-56.75 144.12,-56.75 144.12,-77.5"/>
<text text-anchor="middle" x="120" y="-64" font-family="Helvetica,sans-Serif" font-size="10.00">packet</text>
</a>
</g>
</g>
<!-- dir_24b9c8ed87177bc21519ebb42da29035&#45;&gt;dir_6b971676fcbfb37e3d2472443ff22884 -->
<g id="edge2" class="edge">
<title>dir_24b9c8ed87177bc21519ebb42da29035&#45;&gt;dir_6b971676fcbfb37e3d2472443ff22884</title>
<g id="a_edge2"><a xlink:href="dir_000021_000023.html" target="_top">
<path fill="none" stroke="#63b8ff" d="M90.78,-113.83C95.36,-106.67 101.91,-96.42 107.66,-87.43"/>
<polygon fill="#63b8ff" stroke="#63b8ff" points="110.61,-89.32 113.04,-79.01 104.71,-85.55 110.61,-89.32"/>
</a>
</g>
<g id="a_edge2&#45;headlabel"><a xlink:href="dir_000021_000023.html" target="_top" xlink:title="2">
<text text-anchor="middle" x="111.88" y="-89.48" font-family="Helvetica,sans-Serif" font-size="10.00" fill="#63b8ff">2</text>
</a>
</g>
</g>
<!-- dir_88aae3d0f25401488c8c6aff1f39c0de -->
<g id="node6" class="node">
<title>dir_88aae3d0f25401488c8c6aff1f39c0de</title>
<g id="a_node6"><a xlink:href="dir_88aae3d0f25401488c8c6aff1f39c0de.html" target="_top" xlink:title="platform">
<polygon fill="#edf0f7" stroke="red" stroke-dasharray="5,2" points="272,-20.75 214,-20.75 214,0 272,0 272,-20.75"/>
<text text-anchor="middle" x="243" y="-7.25" font-family="Helvetica,sans-Serif" font-size="10.00">platform</text>
</a>
</g>
</g>
<!-- dir_24b9c8ed87177bc21519ebb42da29035&#45;&gt;dir_88aae3d0f25401488c8c6aff1f39c0de -->
<g id="edge3" class="edge">
<title>dir_24b9c8ed87177bc21519ebb42da29035&#45;&gt;dir_88aae3d0f25401488c8c6aff1f39c0de</title>
<g id="a_edge3"><a xlink:href="dir_000021_000025.html" target="_top">
<path fill="none" stroke="#63b8ff" d="M100.48,-119.73C132.94,-112.84 206.55,-95.59 224,-77.5 235.67,-65.4 240.26,-46.61 242.01,-32.15"/>
<polygon fill="#63b8ff" stroke="#63b8ff" points="245.49,-32.6 242.82,-22.34 238.51,-32.02 245.49,-32.6"/>
</a>
</g>
<g id="a_edge3&#45;headlabel"><a xlink:href="dir_000021_000025.html" target="_top" xlink:title="6">
<text text-anchor="middle" x="248.15" y="-31.78" font-family="Helvetica,sans-Serif" font-size="10.00" fill="#63b8ff">6</text>
</a>
</g>
</g>
<!-- dir_9a5e51f49964887903df6eed98080585 -->
<g id="node7" class="node">
<title>dir_9a5e51f49964887903df6eed98080585</title>
<g id="a_node7"><a xlink:href="dir_9a5e51f49964887903df6eed98080585.html" target="_top" xlink:title="common">
<polygon fill="#edf0f7" stroke="red" stroke-dasharray="5,2" points="80.38,-20.75 21.62,-20.75 21.62,0 80.38,0 80.38,-20.75"/>
<text text-anchor="middle" x="51" y="-7.25" font-family="Helvetica,sans-Serif" font-size="10.00">common</text>
</a>
</g>
</g>
<!-- dir_24b9c8ed87177bc21519ebb42da29035&#45;&gt;dir_9a5e51f49964887903df6eed98080585 -->
<g id="edge4" class="edge">
<title>dir_24b9c8ed87177bc21519ebb42da29035&#45;&gt;dir_9a5e51f49964887903df6eed98080585</title>
<g id="a_edge4"><a xlink:href="dir_000021_000005.html" target="_top">
<path fill="none" stroke="#63b8ff" d="M69.38,-117.83C52.51,-111.43 26.48,-98.62 15,-77.5 7.2,-63.15 8,-55.51 15,-40.75 17.24,-36.03 20.65,-31.82 24.49,-28.16"/>
<polygon fill="#63b8ff" stroke="#63b8ff" points="26.55,-31 32.14,-22 22.16,-25.55 26.55,-31"/>
</a>
</g>
<g id="a_edge4&#45;headlabel"><a xlink:href="dir_000021_000005.html" target="_top" xlink:title="16">
<text text-anchor="middle" x="26.71" y="-31.39" font-family="Helvetica,sans-Serif" font-size="10.00" fill="#63b8ff">16</text>
</a>
</g>
</g>
<!-- dir_42ec0ede0503724f517e30a41a75be6d&#45;&gt;dir_9a5e51f49964887903df6eed98080585 -->
<g id="edge5" class="edge">
<title>dir_42ec0ede0503724f517e30a41a75be6d&#45;&gt;dir_9a5e51f49964887903df6eed98080585</title>
<g id="a_edge5"><a xlink:href="dir_000000_000005.html" target="_top">
<path fill="none" stroke="#63b8ff" d="M51,-56.34C51,-49.72 51,-40.72 51,-32.52"/>
<polygon fill="#63b8ff" stroke="#63b8ff" points="54.5,-32.59 51,-22.59 47.5,-32.59 54.5,-32.59"/>
</a>
</g>
<g id="a_edge5&#45;headlabel"><a xlink:href="dir_000000_000005.html" target="_top" xlink:title="1">
<text text-anchor="middle" x="57.34" y="-31.55" font-family="Helvetica,sans-Serif" font-size="10.00" fill="#63b8ff">1</text>
</a>
</g>
</g>
<!-- dir_6b971676fcbfb37e3d2472443ff22884&#45;&gt;dir_88aae3d0f25401488c8c6aff1f39c0de -->
<g id="edge6" class="edge">
<title>dir_6b971676fcbfb37e3d2472443ff22884&#45;&gt;dir_88aae3d0f25401488c8c6aff1f39c0de</title>
<g id="a_edge6"><a xlink:href="dir_000023_000025.html" target="_top">
<path fill="none" stroke="#63b8ff" d="M131.03,-56.46C137.4,-51.25 145.77,-45.04 154,-40.75 169.21,-32.83 186.99,-26.45 202.64,-21.69"/>
<polygon fill="#63b8ff" stroke="#63b8ff" points="203.51,-25.08 212.13,-18.93 201.55,-18.36 203.51,-25.08"/>
</a>
</g>
<g id="a_edge6&#45;headlabel"><a xlink:href="dir_000023_000025.html" target="_top" xlink:title="2">
<text text-anchor="middle" x="202.3" y="-25.26" font-family="Helvetica,sans-Serif" font-size="10.00" fill="#63b8ff">2</text>
</a>
</g>
</g>
<!-- dir_6b971676fcbfb37e3d2472443ff22884&#45;&gt;dir_9a5e51f49964887903df6eed98080585 -->
<g id="edge7" class="edge">
<title>dir_6b971676fcbfb37e3d2472443ff22884&#45;&gt;dir_9a5e51f49964887903df6eed98080585</title>
<g id="a_edge7"><a xlink:href="dir_000023_000005.html" target="_top">
<path fill="none" stroke="#63b8ff" d="M107.66,-56.34C97.75,-48.47 83.61,-37.25 71.94,-27.99"/>
<polygon fill="#63b8ff" stroke="#63b8ff" points="74.42,-25.49 64.41,-22.02 70.07,-30.98 74.42,-25.49"/>
</a>
</g>
<g id="a_edge7&#45;headlabel"><a xlink:href="dir_000023_000005.html" target="_top" xlink:title="14">
<text text-anchor="middle" x="77.82" y="-21.44" font-family="Helvetica,sans-Serif" font-size="10.00" fill="#63b8ff">14</text>
</a>
</g>
</g>
<!-- dir_cb3a6b7c030f63d4c970d515581665ff -->
<g id="node4" class="node">
<title>dir_cb3a6b7c030f63d4c970d515581665ff</title>
<g id="a_node4"><a xlink:href="dir_cb3a6b7c030f63d4c970d515581665ff.html" target="_top" xlink:title="socket">
<polygon fill="#a2b4d6" stroke="#404040" points="212.75,-134.25 165.25,-134.25 165.25,-113.5 212.75,-113.5 212.75,-134.25"/>
<text text-anchor="middle" x="189" y="-120.75" font-family="Helvetica,sans-Serif" font-size="10.00">socket</text>
</a>
</g>
</g>
<!-- dir_cb3a6b7c030f63d4c970d515581665ff&#45;&gt;dir_6b971676fcbfb37e3d2472443ff22884 -->
<g id="edge9" class="edge">
<title>dir_cb3a6b7c030f63d4c970d515581665ff&#45;&gt;dir_6b971676fcbfb37e3d2472443ff22884</title>
<g id="a_edge9"><a xlink:href="dir_000028_000023.html" target="_top">
<path fill="none" stroke="#63b8ff" d="M176.66,-113.09C166.75,-105.22 152.61,-94 140.94,-84.74"/>
<polygon fill="#63b8ff" stroke="#63b8ff" points="143.42,-82.24 133.41,-78.77 139.07,-87.73 143.42,-82.24"/>
</a>
</g>
<g id="a_edge9&#45;headlabel"><a xlink:href="dir_000028_000023.html" target="_top" xlink:title="1">
<text text-anchor="middle" x="146.82" y="-78.19" font-family="Helvetica,sans-Serif" font-size="10.00" fill="#63b8ff">1</text>
</a>
</g>
</g>
<!-- dir_3ac2c04303a5c42411ab6c9a66cba75f -->
<g id="node5" class="node">
<title>dir_3ac2c04303a5c42411ab6c9a66cba75f</title>
<g id="a_node5"><a xlink:href="dir_3ac2c04303a5c42411ab6c9a66cba75f.html" target="_top" xlink:title="storage">
<polygon fill="#a2b4d6" stroke="#404040" points="215.38,-77.5 162.62,-77.5 162.62,-56.75 215.38,-56.75 215.38,-77.5"/>
<text text-anchor="middle" x="189" y="-64" font-family="Helvetica,sans-Serif" font-size="10.00">storage</text>
</a>
</g>
</g>
<!-- dir_cb3a6b7c030f63d4c970d515581665ff&#45;&gt;dir_3ac2c04303a5c42411ab6c9a66cba75f -->
<g id="edge8" class="edge">
<title>dir_cb3a6b7c030f63d4c970d515581665ff&#45;&gt;dir_3ac2c04303a5c42411ab6c9a66cba75f</title>
<g id="a_edge8"><a xlink:href="dir_000028_000034.html" target="_top">
<path fill="none" stroke="#63b8ff" d="M189,-113.09C189,-106.47 189,-97.47 189,-89.27"/>
<polygon fill="#63b8ff" stroke="#63b8ff" points="192.5,-89.34 189,-79.34 185.5,-89.34 192.5,-89.34"/>
</a>
</g>
<g id="a_edge8&#45;headlabel"><a xlink:href="dir_000028_000034.html" target="_top" xlink:title="1">
<text text-anchor="middle" x="195.34" y="-88.3" font-family="Helvetica,sans-Serif" font-size="10.00" fill="#63b8ff">1</text>
</a>
</g>
</g>
<!-- dir_cb3a6b7c030f63d4c970d515581665ff&#45;&gt;dir_88aae3d0f25401488c8c6aff1f39c0de -->
<g id="edge10" class="edge">
<title>dir_cb3a6b7c030f63d4c970d515581665ff&#45;&gt;dir_88aae3d0f25401488c8c6aff1f39c0de</title>
<g id="a_edge10"><a xlink:href="dir_000028_000025.html" target="_top">
<path fill="none" stroke="#63b8ff" d="M213.14,-113.85C228.72,-106.61 247.76,-94.77 257,-77.5 264.7,-63.11 259.9,-44.84 253.91,-31.15"/>
<polygon fill="#63b8ff" stroke="#63b8ff" points="257.09,-29.69 249.52,-22.28 250.82,-32.79 257.09,-29.69"/>
</a>
</g>
<g id="a_edge10&#45;headlabel"><a xlink:href="dir_000028_000025.html" target="_top" xlink:title="1">
<text text-anchor="middle" x="260.56" y="-27.17" font-family="Helvetica,sans-Serif" font-size="10.00" fill="#63b8ff">1</text>
</a>
</g>
</g>
</g>
</svg>
