<?xml version="1.0" encoding="UTF-8" standalone="no"?>
<!DOCTYPE svg PUBLIC "-//W3C//DTD SVG 1.1//EN"
 "http://www.w3.org/Graphics/SVG/1.1/DTD/svg11.dtd">
<!-- Generated by graphviz version 12.1.2 (20240928.0832)
 -->
<!-- Title: net Pages: 1 -->
<svg width="158pt" height="158pt"
 viewBox="0.00 0.00 158.00 158.25" xmlns="http://www.w3.org/2000/svg" xmlns:xlink="http://www.w3.org/1999/xlink">
<g id="graph0" class="graph" transform="scale(1 1) rotate(0) translate(4 154.25)">
<title>net</title>
<g id="clust1" class="cluster">
<title>clusterdir_427baa8a9a5be237f298d4545d0d1ce2</title>
<g id="a_clust1"><a xlink:href="dir_427baa8a9a5be237f298d4545d0d1ce2.html" target="_top">
<polygon fill="#edf0f7" stroke="#404040" stroke-width="2" points="8,-48.75 8,-142.25 104,-142.25 104,-48.75 8,-48.75"/>
</a>
</g>
</g>
<!-- dir_427baa8a9a5be237f298d4545d0d1ce2 -->
<g id="node1" class="node">
<title>dir_427baa8a9a5be237f298d4545d0d1ce2</title>
<text text-anchor="middle" x="32" y="-120.75" font-family="Helvetica,sans-Serif" font-size="10.00">net</text>
</g>
<!-- dir_c0575b5e81918ff6cd7d86b5adbed5d0 -->
<g id="node2" class="node">
<title>dir_c0575b5e81918ff6cd7d86b5adbed5d0</title>
<g id="a_node2"><a xlink:href="dir_c0575b5e81918ff6cd7d86b5adbed5d0.html" target="_top" xlink:title="inc">
<polygon fill="#a2b4d6" stroke="#404040" points="96.12,-77.5 65.88,-77.5 65.88,-56.75 96.12,-56.75 96.12,-77.5"/>
<text text-anchor="middle" x="81" y="-64" font-family="Helvetica,sans-Serif" font-size="10.00">inc</text>
</a>
</g>
</g>
<!-- dir_bdd9a5d540de89e9fe90efdfc6973a4f -->
<g id="node4" class="node">
<title>dir_bdd9a5d540de89e9fe90efdfc6973a4f</title>
<g id="a_node4"><a xlink:href="dir_bdd9a5d540de89e9fe90efdfc6973a4f.html" target="_top" xlink:title="common">
<polygon fill="#edf0f7" stroke="red" points="72.38,-20.75 13.62,-20.75 13.62,0 72.38,0 72.38,-20.75"/>
<text text-anchor="middle" x="43" y="-7.25" font-family="Helvetica,sans-Serif" font-size="10.00">common</text>
</a>
</g>
</g>
<!-- dir_c0575b5e81918ff6cd7d86b5adbed5d0&#45;&gt;dir_bdd9a5d540de89e9fe90efdfc6973a4f -->
<g id="edge1" class="edge">
<title>dir_c0575b5e81918ff6cd7d86b5adbed5d0&#45;&gt;dir_bdd9a5d540de89e9fe90efdfc6973a4f</title>
<g id="a_edge1"><a xlink:href="dir_000014_000005.html" target="_top">
<path fill="none" stroke="#63b8ff" d="M74.21,-56.34C69.23,-49.17 62.33,-39.23 56.28,-30.51"/>
<polygon fill="#63b8ff" stroke="#63b8ff" points="59.18,-28.54 50.6,-22.32 53.42,-32.53 59.18,-28.54"/>
</a>
</g>
<g id="a_edge1&#45;headlabel"><a xlink:href="dir_000014_000005.html" target="_top" xlink:title="16">
<text text-anchor="middle" x="62.69" y="-25.51" font-family="Helvetica,sans-Serif" font-size="10.00" fill="#63b8ff">16</text>
</a>
</g>
</g>
<!-- dir_c5a52a81292cf9a5167198f4f346d6d9 -->
<g id="node5" class="node">
<title>dir_c5a52a81292cf9a5167198f4f346d6d9</title>
<g id="a_node5"><a xlink:href="dir_c5a52a81292cf9a5167198f4f346d6d9.html" target="_top" xlink:title="platform">
<polygon fill="#edf0f7" stroke="red" points="150,-20.75 92,-20.75 92,0 150,0 150,-20.75"/>
<text text-anchor="middle" x="121" y="-7.25" font-family="Helvetica,sans-Serif" font-size="10.00">platform</text>
</a>
</g>
</g>
<!-- dir_c0575b5e81918ff6cd7d86b5adbed5d0&#45;&gt;dir_c5a52a81292cf9a5167198f4f346d6d9 -->
<g id="edge2" class="edge">
<title>dir_c0575b5e81918ff6cd7d86b5adbed5d0&#45;&gt;dir_c5a52a81292cf9a5167198f4f346d6d9</title>
<g id="a_edge2"><a xlink:href="dir_000014_000024.html" target="_top">
<path fill="none" stroke="#63b8ff" d="M88.15,-56.34C93.44,-49.1 100.81,-39.01 107.23,-30.22"/>
<polygon fill="#63b8ff" stroke="#63b8ff" points="109.94,-32.44 113.02,-22.3 104.29,-28.31 109.94,-32.44"/>
</a>
</g>
<g id="a_edge2&#45;headlabel"><a xlink:href="dir_000014_000024.html" target="_top" xlink:title="6">
<text text-anchor="middle" x="111.01" y="-32.67" font-family="Helvetica,sans-Serif" font-size="10.00" fill="#63b8ff">6</text>
</a>
</g>
</g>
<!-- dir_1125596c65a252cc7ae564f4b9ccb92e -->
<g id="node3" class="node">
<title>dir_1125596c65a252cc7ae564f4b9ccb92e</title>
<g id="a_node3"><a xlink:href="dir_1125596c65a252cc7ae564f4b9ccb92e.html" target="_top" xlink:title="src">
<polygon fill="#a2b4d6" stroke="#404040" points="96.12,-134.25 65.88,-134.25 65.88,-113.5 96.12,-113.5 96.12,-134.25"/>
<text text-anchor="middle" x="81" y="-120.75" font-family="Helvetica,sans-Serif" font-size="10.00">src</text>
</a>
</g>
</g>
<!-- dir_1125596c65a252cc7ae564f4b9ccb92e&#45;&gt;dir_c0575b5e81918ff6cd7d86b5adbed5d0 -->
<g id="edge4" class="edge">
<title>dir_1125596c65a252cc7ae564f4b9ccb92e&#45;&gt;dir_c0575b5e81918ff6cd7d86b5adbed5d0</title>
<g id="a_edge4"><a xlink:href="dir_000031_000014.html" target="_top">
<path fill="none" stroke="#63b8ff" d="M81,-113.09C81,-106.47 81,-97.47 81,-89.27"/>
<polygon fill="#63b8ff" stroke="#63b8ff" points="84.5,-89.34 81,-79.34 77.5,-89.34 84.5,-89.34"/>
</a>
</g>
<g id="a_edge4&#45;headlabel"><a xlink:href="dir_000031_000014.html" target="_top" xlink:title="27">
<text text-anchor="middle" x="87.34" y="-88.3" font-family="Helvetica,sans-Serif" font-size="10.00" fill="#63b8ff">27</text>
</a>
</g>
</g>
<!-- dir_1125596c65a252cc7ae564f4b9ccb92e&#45;&gt;dir_bdd9a5d540de89e9fe90efdfc6973a4f -->
<g id="edge3" class="edge">
<title>dir_1125596c65a252cc7ae564f4b9ccb92e&#45;&gt;dir_bdd9a5d540de89e9fe90efdfc6973a4f</title>
<g id="a_edge3"><a xlink:href="dir_000031_000005.html" target="_top">
<path fill="none" stroke="#63b8ff" d="M74.83,-113.15C69.41,-104.2 61.67,-90.4 57,-77.5 51.67,-62.79 48.09,-45.45 45.89,-32.23"/>
<polygon fill="#63b8ff" stroke="#63b8ff" points="49.38,-31.88 44.41,-22.52 42.46,-32.93 49.38,-31.88"/>
</a>
</g>
<g id="a_edge3&#45;headlabel"><a xlink:href="dir_000031_000005.html" target="_top" xlink:title="3">
<text text-anchor="middle" x="52.5" y="-30.38" font-family="Helvetica,sans-Serif" font-size="10.00" fill="#63b8ff">3</text>
</a>
</g>
</g>
<!-- dir_1125596c65a252cc7ae564f4b9ccb92e&#45;&gt;dir_c5a52a81292cf9a5167198f4f346d6d9 -->
<g id="edge5" class="edge">
<title>dir_1125596c65a252cc7ae564f4b9ccb92e&#45;&gt;dir_c5a52a81292cf9a5167198f4f346d6d9</title>
<g id="a_edge5"><a xlink:href="dir_000031_000024.html" target="_top">
<path fill="none" stroke="#63b8ff" d="M87.08,-113.12C92.44,-104.15 100.14,-90.33 105,-77.5 110.58,-62.77 114.69,-45.44 117.34,-32.22"/>
<polygon fill="#63b8ff" stroke="#63b8ff" points="120.76,-32.98 119.17,-22.5 113.88,-31.69 120.76,-32.98"/>
</a>
</g>
<g id="a_edge5&#45;headlabel"><a xlink:href="dir_000031_000024.html" target="_top" xlink:title="8">
<text text-anchor="middle" x="123.17" y="-32.42" font-family="Helvetica,sans-Serif" font-size="10.00" fill="#63b8ff">8</text>
</a>
</g>
</g>
</g>
</svg>
