<?xml version="1.0" encoding="UTF-8" standalone="no"?>
<!DOCTYPE svg PUBLIC "-//W3C//DTD SVG 1.1//EN"
 "http://www.w3.org/Graphics/SVG/1.1/DTD/svg11.dtd">
<!-- Generated by graphviz version 12.1.2 (20240928.0832)
 -->
<!-- Title: net Pages: 1 -->
<svg width="280pt" height="187pt"
 viewBox="0.00 0.00 280.00 187.00" xmlns="http://www.w3.org/2000/svg" xmlns:xlink="http://www.w3.org/1999/xlink">
<g id="graph0" class="graph" transform="scale(1 1) rotate(0) translate(4 183)">
<title>net</title>
<g id="clust1" class="cluster">
<title>clusterdir_5314d62625720a050713b0cba532fdc8</title>
<g id="a_clust1"><a xlink:href="dir_5314d62625720a050713b0cba532fdc8.html" target="_top" xlink:title="vlcb">
<polygon fill="#edf0f7" stroke="#7f7f7f" stroke-dasharray="5,2" points="8,-40.75 8,-171 231,-171 231,-40.75 8,-40.75"/>
<text text-anchor="middle" x="119.5" y="-157.5" font-family="Helvetica,sans-Serif" font-size="10.00">vlcb</text>
</a>
</g>
</g>
<g id="clust2" class="cluster">
<title>clusterdir_ca0879ab5012c7f5f5b50184c926c0b0</title>
<g id="a_clust2"><a xlink:href="dir_ca0879ab5012c7f5f5b50184c926c0b0.html" target="_top">
<polygon fill="#edf0f7" stroke="#404040" stroke-width="2" points="16,-48.75 16,-142.25 223,-142.25 223,-48.75 16,-48.75"/>
</a>
</g>
</g>
<!-- dir_ca0879ab5012c7f5f5b50184c926c0b0 -->
<g id="node1" class="node">
<title>dir_ca0879ab5012c7f5f5b50184c926c0b0</title>
<text text-anchor="middle" x="120" y="-120.75" font-family="Helvetica,sans-Serif" font-size="10.00">net</text>
</g>
<!-- dir_251c2cfa7c9e97b936d12c21e60a89ac -->
<g id="node2" class="node">
<title>dir_251c2cfa7c9e97b936d12c21e60a89ac</title>
<g id="a_node2"><a xlink:href="dir_251c2cfa7c9e97b936d12c21e60a89ac.html" target="_top" xlink:title="adapter">
<polygon fill="#a2b4d6" stroke="#404040" points="77.75,-77.5 24.25,-77.5 24.25,-56.75 77.75,-56.75 77.75,-77.5"/>
<text text-anchor="middle" x="51" y="-64" font-family="Helvetica,sans-Serif" font-size="10.00">adapter</text>
</a>
</g>
</g>
<!-- dir_ca0879ab5012c7f5f5b50184c926c0b0&#45;&gt;dir_251c2cfa7c9e97b936d12c21e60a89ac -->
<g id="edge3" class="edge">
<title>dir_ca0879ab5012c7f5f5b50184c926c0b0&#45;&gt;dir_251c2cfa7c9e97b936d12c21e60a89ac</title>
<g id="a_edge3"><a xlink:href="dir_000023_000000.html" target="_top">
<path fill="none" stroke="#63b8ff" d="M108.3,-113.59C98.34,-105.69 83.81,-94.16 71.88,-84.69"/>
<polygon fill="#63b8ff" stroke="#63b8ff" points="74.19,-82.06 64.18,-78.58 69.84,-87.54 74.19,-82.06"/>
</a>
</g>
<g id="a_edge3&#45;headlabel"><a xlink:href="dir_000023_000000.html" target="_top" xlink:title="1">
<text text-anchor="middle" x="77.58" y="-78" font-family="Helvetica,sans-Serif" font-size="10.00" fill="#63b8ff">1</text>
</a>
</g>
</g>
<!-- dir_15b93cc83b32f7c7abf8abbcf8fbe0dc -->
<g id="node3" class="node">
<title>dir_15b93cc83b32f7c7abf8abbcf8fbe0dc</title>
<g id="a_node3"><a xlink:href="dir_15b93cc83b32f7c7abf8abbcf8fbe0dc.html" target="_top" xlink:title="packet">
<polygon fill="#a2b4d6" stroke="#404040" points="144.12,-77.5 95.88,-77.5 95.88,-56.75 144.12,-56.75 144.12,-77.5"/>
<text text-anchor="middle" x="120" y="-64" font-family="Helvetica,sans-Serif" font-size="10.00">packet</text>
</a>
</g>
</g>
<!-- dir_ca0879ab5012c7f5f5b50184c926c0b0&#45;&gt;dir_15b93cc83b32f7c7abf8abbcf8fbe0dc -->
<g id="edge1" class="edge">
<title>dir_ca0879ab5012c7f5f5b50184c926c0b0&#45;&gt;dir_15b93cc83b32f7c7abf8abbcf8fbe0dc</title>
<g id="a_edge1"><a xlink:href="dir_000023_000025.html" target="_top">
<path fill="none" stroke="#63b8ff" d="M120,-113.83C120,-107.14 120,-97.74 120,-89.21"/>
<polygon fill="#63b8ff" stroke="#63b8ff" points="123.5,-89.25 120,-79.25 116.5,-89.25 123.5,-89.25"/>
</a>
</g>
<g id="a_edge1&#45;headlabel"><a xlink:href="dir_000023_000025.html" target="_top" xlink:title="2">
<text text-anchor="middle" x="126.34" y="-88.2" font-family="Helvetica,sans-Serif" font-size="10.00" fill="#63b8ff">2</text>
</a>
</g>
</g>
<!-- dir_1750712cc18dc5981f71fb24918e515c -->
<g id="node5" class="node">
<title>dir_1750712cc18dc5981f71fb24918e515c</title>
<g id="a_node5"><a xlink:href="dir_1750712cc18dc5981f71fb24918e515c.html" target="_top" xlink:title="storage">
<polygon fill="#a2b4d6" stroke="#404040" points="215.38,-77.5 162.62,-77.5 162.62,-56.75 215.38,-56.75 215.38,-77.5"/>
<text text-anchor="middle" x="189" y="-64" font-family="Helvetica,sans-Serif" font-size="10.00">storage</text>
</a>
</g>
</g>
<!-- dir_ca0879ab5012c7f5f5b50184c926c0b0&#45;&gt;dir_1750712cc18dc5981f71fb24918e515c -->
<g id="edge2" class="edge">
<title>dir_ca0879ab5012c7f5f5b50184c926c0b0&#45;&gt;dir_1750712cc18dc5981f71fb24918e515c</title>
<g id="a_edge2"><a xlink:href="dir_000023_000036.html" target="_top">
<path fill="none" stroke="#63b8ff" d="M131.7,-113.59C141.66,-105.69 156.19,-94.16 168.12,-84.69"/>
<polygon fill="#63b8ff" stroke="#63b8ff" points="170.16,-87.54 175.82,-78.58 165.81,-82.06 170.16,-87.54"/>
</a>
</g>
<g id="a_edge2&#45;headlabel"><a xlink:href="dir_000023_000036.html" target="_top" xlink:title="2">
<text text-anchor="middle" x="170.3" y="-87.93" font-family="Helvetica,sans-Serif" font-size="10.00" fill="#63b8ff">2</text>
</a>
</g>
</g>
<!-- dir_bdd9a5d540de89e9fe90efdfc6973a4f -->
<g id="node6" class="node">
<title>dir_bdd9a5d540de89e9fe90efdfc6973a4f</title>
<g id="a_node6"><a xlink:href="dir_bdd9a5d540de89e9fe90efdfc6973a4f.html" target="_top" xlink:title="common">
<polygon fill="#edf0f7" stroke="red" points="80.38,-20.75 21.62,-20.75 21.62,0 80.38,0 80.38,-20.75"/>
<text text-anchor="middle" x="51" y="-7.25" font-family="Helvetica,sans-Serif" font-size="10.00">common</text>
</a>
</g>
</g>
<!-- dir_ca0879ab5012c7f5f5b50184c926c0b0&#45;&gt;dir_bdd9a5d540de89e9fe90efdfc6973a4f -->
<g id="edge4" class="edge">
<title>dir_ca0879ab5012c7f5f5b50184c926c0b0&#45;&gt;dir_bdd9a5d540de89e9fe90efdfc6973a4f</title>
<g id="a_edge4"><a xlink:href="dir_000023_000006.html" target="_top">
<path fill="none" stroke="#63b8ff" d="M104.52,-121.37C80.53,-118.12 35.07,-108.04 15,-77.5 6.03,-63.85 8,-55.51 15,-40.75 17.24,-36.03 20.65,-31.82 24.49,-28.16"/>
<polygon fill="#63b8ff" stroke="#63b8ff" points="26.55,-31 32.14,-22 22.16,-25.55 26.55,-31"/>
</a>
</g>
<g id="a_edge4&#45;headlabel"><a xlink:href="dir_000023_000006.html" target="_top" xlink:title="13">
<text text-anchor="middle" x="26.71" y="-31.39" font-family="Helvetica,sans-Serif" font-size="10.00" fill="#63b8ff">13</text>
</a>
</g>
</g>
<!-- dir_c5a52a81292cf9a5167198f4f346d6d9 -->
<g id="node7" class="node">
<title>dir_c5a52a81292cf9a5167198f4f346d6d9</title>
<g id="a_node7"><a xlink:href="dir_c5a52a81292cf9a5167198f4f346d6d9.html" target="_top" xlink:title="platform">
<polygon fill="#edf0f7" stroke="red" points="272,-20.75 214,-20.75 214,0 272,0 272,-20.75"/>
<text text-anchor="middle" x="243" y="-7.25" font-family="Helvetica,sans-Serif" font-size="10.00">platform</text>
</a>
</g>
</g>
<!-- dir_ca0879ab5012c7f5f5b50184c926c0b0&#45;&gt;dir_c5a52a81292cf9a5167198f4f346d6d9 -->
<g id="edge5" class="edge">
<title>dir_ca0879ab5012c7f5f5b50184c926c0b0&#45;&gt;dir_c5a52a81292cf9a5167198f4f346d6d9</title>
<g id="a_edge5"><a xlink:href="dir_000023_000027.html" target="_top">
<path fill="none" stroke="#63b8ff" d="M135.53,-117.92C161.43,-109.37 211.8,-91.43 224,-77.5 234.96,-64.99 239.62,-46.53 241.59,-32.29"/>
<polygon fill="#63b8ff" stroke="#63b8ff" points="245.04,-32.93 242.57,-22.63 238.08,-32.23 245.04,-32.93"/>
</a>
</g>
<g id="a_edge5&#45;headlabel"><a xlink:href="dir_000023_000027.html" target="_top" xlink:title="7">
<text text-anchor="middle" x="247.66" y="-32.16" font-family="Helvetica,sans-Serif" font-size="10.00" fill="#63b8ff">7</text>
</a>
</g>
</g>
<!-- dir_251c2cfa7c9e97b936d12c21e60a89ac&#45;&gt;dir_bdd9a5d540de89e9fe90efdfc6973a4f -->
<g id="edge6" class="edge">
<title>dir_251c2cfa7c9e97b936d12c21e60a89ac&#45;&gt;dir_bdd9a5d540de89e9fe90efdfc6973a4f</title>
<g id="a_edge6"><a xlink:href="dir_000000_000006.html" target="_top">
<path fill="none" stroke="#63b8ff" d="M51,-56.34C51,-49.72 51,-40.72 51,-32.52"/>
<polygon fill="#63b8ff" stroke="#63b8ff" points="54.5,-32.59 51,-22.59 47.5,-32.59 54.5,-32.59"/>
</a>
</g>
<g id="a_edge6&#45;headlabel"><a xlink:href="dir_000000_000006.html" target="_top" xlink:title="1">
<text text-anchor="middle" x="57.34" y="-31.55" font-family="Helvetica,sans-Serif" font-size="10.00" fill="#63b8ff">1</text>
</a>
</g>
</g>
<!-- dir_15b93cc83b32f7c7abf8abbcf8fbe0dc&#45;&gt;dir_bdd9a5d540de89e9fe90efdfc6973a4f -->
<g id="edge7" class="edge">
<title>dir_15b93cc83b32f7c7abf8abbcf8fbe0dc&#45;&gt;dir_bdd9a5d540de89e9fe90efdfc6973a4f</title>
<g id="a_edge7"><a xlink:href="dir_000025_000006.html" target="_top">
<path fill="none" stroke="#63b8ff" d="M107.66,-56.34C97.75,-48.47 83.61,-37.25 71.94,-27.99"/>
<polygon fill="#63b8ff" stroke="#63b8ff" points="74.42,-25.49 64.41,-22.02 70.07,-30.98 74.42,-25.49"/>
</a>
</g>
<g id="a_edge7&#45;headlabel"><a xlink:href="dir_000025_000006.html" target="_top" xlink:title="11">
<text text-anchor="middle" x="77.82" y="-21.44" font-family="Helvetica,sans-Serif" font-size="10.00" fill="#63b8ff">11</text>
</a>
</g>
</g>
<!-- dir_15b93cc83b32f7c7abf8abbcf8fbe0dc&#45;&gt;dir_c5a52a81292cf9a5167198f4f346d6d9 -->
<g id="edge8" class="edge">
<title>dir_15b93cc83b32f7c7abf8abbcf8fbe0dc&#45;&gt;dir_c5a52a81292cf9a5167198f4f346d6d9</title>
<g id="a_edge8"><a xlink:href="dir_000025_000027.html" target="_top">
<path fill="none" stroke="#63b8ff" d="M131.03,-56.46C137.4,-51.25 145.77,-45.04 154,-40.75 169.21,-32.83 186.99,-26.45 202.64,-21.69"/>
<polygon fill="#63b8ff" stroke="#63b8ff" points="203.51,-25.08 212.13,-18.93 201.55,-18.36 203.51,-25.08"/>
</a>
</g>
<g id="a_edge8&#45;headlabel"><a xlink:href="dir_000025_000027.html" target="_top" xlink:title="2">
<text text-anchor="middle" x="202.3" y="-25.26" font-family="Helvetica,sans-Serif" font-size="10.00" fill="#63b8ff">2</text>
</a>
</g>
</g>
<!-- dir_a03e1dae6f64b92f7d96771dae9e32e0 -->
<g id="node4" class="node">
<title>dir_a03e1dae6f64b92f7d96771dae9e32e0</title>
<g id="a_node4"><a xlink:href="dir_a03e1dae6f64b92f7d96771dae9e32e0.html" target="_top" xlink:title="socket">
<polygon fill="#a2b4d6" stroke="#404040" points="212.75,-134.25 165.25,-134.25 165.25,-113.5 212.75,-113.5 212.75,-134.25"/>
<text text-anchor="middle" x="189" y="-120.75" font-family="Helvetica,sans-Serif" font-size="10.00">socket</text>
</a>
</g>
</g>
<!-- dir_a03e1dae6f64b92f7d96771dae9e32e0&#45;&gt;dir_15b93cc83b32f7c7abf8abbcf8fbe0dc -->
<g id="edge9" class="edge">
<title>dir_a03e1dae6f64b92f7d96771dae9e32e0&#45;&gt;dir_15b93cc83b32f7c7abf8abbcf8fbe0dc</title>
<g id="a_edge9"><a xlink:href="dir_000030_000025.html" target="_top">
<path fill="none" stroke="#63b8ff" d="M176.66,-113.09C166.75,-105.22 152.61,-94 140.94,-84.74"/>
<polygon fill="#63b8ff" stroke="#63b8ff" points="143.42,-82.24 133.41,-78.77 139.07,-87.73 143.42,-82.24"/>
</a>
</g>
<g id="a_edge9&#45;headlabel"><a xlink:href="dir_000030_000025.html" target="_top" xlink:title="1">
<text text-anchor="middle" x="146.82" y="-78.19" font-family="Helvetica,sans-Serif" font-size="10.00" fill="#63b8ff">1</text>
</a>
</g>
</g>
<!-- dir_a03e1dae6f64b92f7d96771dae9e32e0&#45;&gt;dir_1750712cc18dc5981f71fb24918e515c -->
<g id="edge10" class="edge">
<title>dir_a03e1dae6f64b92f7d96771dae9e32e0&#45;&gt;dir_1750712cc18dc5981f71fb24918e515c</title>
<g id="a_edge10"><a xlink:href="dir_000030_000036.html" target="_top">
<path fill="none" stroke="#63b8ff" d="M189,-113.09C189,-106.47 189,-97.47 189,-89.27"/>
<polygon fill="#63b8ff" stroke="#63b8ff" points="192.5,-89.34 189,-79.34 185.5,-89.34 192.5,-89.34"/>
</a>
</g>
<g id="a_edge10&#45;headlabel"><a xlink:href="dir_000030_000036.html" target="_top" xlink:title="1">
<text text-anchor="middle" x="195.34" y="-88.3" font-family="Helvetica,sans-Serif" font-size="10.00" fill="#63b8ff">1</text>
</a>
</g>
</g>
<!-- dir_a03e1dae6f64b92f7d96771dae9e32e0&#45;&gt;dir_c5a52a81292cf9a5167198f4f346d6d9 -->
<g id="edge11" class="edge">
<title>dir_a03e1dae6f64b92f7d96771dae9e32e0&#45;&gt;dir_c5a52a81292cf9a5167198f4f346d6d9</title>
<g id="a_edge11"><a xlink:href="dir_000030_000027.html" target="_top">
<path fill="none" stroke="#63b8ff" d="M213.14,-113.85C228.72,-106.61 247.76,-94.77 257,-77.5 264.7,-63.11 259.9,-44.84 253.91,-31.15"/>
<polygon fill="#63b8ff" stroke="#63b8ff" points="257.09,-29.69 249.52,-22.28 250.82,-32.79 257.09,-29.69"/>
</a>
</g>
<g id="a_edge11&#45;headlabel"><a xlink:href="dir_000030_000027.html" target="_top" xlink:title="1">
<text text-anchor="middle" x="260.56" y="-27.17" font-family="Helvetica,sans-Serif" font-size="10.00" fill="#63b8ff">1</text>
</a>
</g>
</g>
</g>
</svg>
