<?xml version="1.0" encoding="UTF-8" standalone="no"?>
<!DOCTYPE svg PUBLIC "-//W3C//DTD SVG 1.1//EN"
 "http://www.w3.org/Graphics/SVG/1.1/DTD/svg11.dtd">
<!-- Generated by graphviz version 12.1.2 (20240928.0832)
 -->
<!-- Title: module Pages: 1 -->
<svg width="224pt" height="203pt"
 viewBox="0.00 0.00 224.00 203.00" xmlns="http://www.w3.org/2000/svg" xmlns:xlink="http://www.w3.org/1999/xlink">
<g id="graph0" class="graph" transform="scale(1 1) rotate(0) translate(4 199)">
<title>module</title>
<g id="clust1" class="cluster">
<title>clusterdir_e05d7e2b1ecd646af5bb94391405f3b5</title>
<g id="a_clust1"><a xlink:href="dir_e05d7e2b1ecd646af5bb94391405f3b5.html" target="_top" xlink:title="modules">
<polygon fill="#edf0f7" stroke="#404040" stroke-dasharray="5,2" points="8,-8 8,-187 208,-187 208,-8 8,-8"/>
<text text-anchor="middle" x="108" y="-173.5" font-family="Helvetica,sans-Serif" font-size="10.00">modules</text>
</a>
</g>
</g>
<g id="clust2" class="cluster">
<title>clusterdir_80cd063d2badf427fc3463316b28a0a0</title>
<g id="a_clust2"><a xlink:href="dir_80cd063d2badf427fc3463316b28a0a0.html" target="_top">
<polygon fill="#edf0f7" stroke="#404040" stroke-width="2" points="33,-64.75 33,-158.25 150,-158.25 150,-64.75 33,-64.75"/>
</a>
</g>
</g>
<!-- dir_9a5e51f49964887903df6eed98080585 -->
<g id="node1" class="node">
<title>dir_9a5e51f49964887903df6eed98080585</title>
<g id="a_node1"><a xlink:href="dir_9a5e51f49964887903df6eed98080585.html" target="_top" xlink:title="common">
<polygon fill="#a2b4d6" stroke="red" points="74.38,-36.75 15.62,-36.75 15.62,-16 74.38,-16 74.38,-36.75"/>
<text text-anchor="middle" x="45" y="-23.25" font-family="Helvetica,sans-Serif" font-size="10.00">common</text>
</a>
</g>
</g>
<!-- dir_88aae3d0f25401488c8c6aff1f39c0de -->
<g id="node2" class="node">
<title>dir_88aae3d0f25401488c8c6aff1f39c0de</title>
<g id="a_node2"><a xlink:href="dir_88aae3d0f25401488c8c6aff1f39c0de.html" target="_top" xlink:title="platform">
<polygon fill="#a2b4d6" stroke="red" points="150,-36.75 92,-36.75 92,-16 150,-16 150,-36.75"/>
<text text-anchor="middle" x="121" y="-23.25" font-family="Helvetica,sans-Serif" font-size="10.00">platform</text>
</a>
</g>
</g>
<!-- dir_923c80758d00fd62f29a99e232049d19 -->
<g id="node3" class="node">
<title>dir_923c80758d00fd62f29a99e232049d19</title>
<g id="a_node3"><a xlink:href="dir_923c80758d00fd62f29a99e232049d19.html" target="_top" xlink:title="net">
<polygon fill="#a2b4d6" stroke="red" points="199.88,-36.75 168.12,-36.75 168.12,-16 199.88,-16 199.88,-36.75"/>
<text text-anchor="middle" x="184" y="-23.25" font-family="Helvetica,sans-Serif" font-size="10.00">net</text>
</a>
</g>
</g>
<!-- dir_80cd063d2badf427fc3463316b28a0a0 -->
<g id="node4" class="node">
<title>dir_80cd063d2badf427fc3463316b28a0a0</title>
<text text-anchor="middle" x="67" y="-136.75" font-family="Helvetica,sans-Serif" font-size="10.00">module</text>
</g>
<!-- dir_64d289f4a046ac6054a7985256cb4d0b -->
<g id="node5" class="node">
<title>dir_64d289f4a046ac6054a7985256cb4d0b</title>
<g id="a_node5"><a xlink:href="dir_64d289f4a046ac6054a7985256cb4d0b.html" target="_top" xlink:title="inc">
<polygon fill="#a2b4d6" stroke="#404040" points="113.12,-93.5 82.88,-93.5 82.88,-72.75 113.12,-72.75 113.12,-93.5"/>
<text text-anchor="middle" x="98" y="-80" font-family="Helvetica,sans-Serif" font-size="10.00">inc</text>
</a>
</g>
</g>
<!-- dir_64d289f4a046ac6054a7985256cb4d0b&#45;&gt;dir_9a5e51f49964887903df6eed98080585 -->
<g id="edge1" class="edge">
<title>dir_64d289f4a046ac6054a7985256cb4d0b&#45;&gt;dir_9a5e51f49964887903df6eed98080585</title>
<g id="a_edge1"><a xlink:href="dir_000013_000005.html" target="_top">
<path fill="none" stroke="#63b8ff" d="M88.52,-72.34C81.21,-64.78 70.91,-54.14 62.16,-45.1"/>
<polygon fill="#63b8ff" stroke="#63b8ff" points="64.92,-42.92 55.45,-38.17 59.89,-47.79 64.92,-42.92"/>
</a>
</g>
<g id="a_edge1&#45;headlabel"><a xlink:href="dir_000013_000005.html" target="_top" xlink:title="4">
<text text-anchor="middle" x="68.4" y="-39.31" font-family="Helvetica,sans-Serif" font-size="10.00" fill="#63b8ff">4</text>
</a>
</g>
</g>
<!-- dir_64d289f4a046ac6054a7985256cb4d0b&#45;&gt;dir_88aae3d0f25401488c8c6aff1f39c0de -->
<g id="edge2" class="edge">
<title>dir_64d289f4a046ac6054a7985256cb4d0b&#45;&gt;dir_88aae3d0f25401488c8c6aff1f39c0de</title>
<g id="a_edge2"><a xlink:href="dir_000013_000025.html" target="_top">
<path fill="none" stroke="#63b8ff" d="M102.11,-72.34C104.99,-65.49 108.94,-56.09 112.48,-47.65"/>
<polygon fill="#63b8ff" stroke="#63b8ff" points="115.69,-49.05 116.34,-38.47 109.24,-46.34 115.69,-49.05"/>
</a>
</g>
<g id="a_edge2&#45;headlabel"><a xlink:href="dir_000013_000025.html" target="_top" xlink:title="4">
<text text-anchor="middle" x="117.5" y="-48.94" font-family="Helvetica,sans-Serif" font-size="10.00" fill="#63b8ff">4</text>
</a>
</g>
</g>
<!-- dir_64d289f4a046ac6054a7985256cb4d0b&#45;&gt;dir_923c80758d00fd62f29a99e232049d19 -->
<g id="edge3" class="edge">
<title>dir_64d289f4a046ac6054a7985256cb4d0b&#45;&gt;dir_923c80758d00fd62f29a99e232049d19</title>
<g id="a_edge3"><a xlink:href="dir_000013_000020.html" target="_top">
<path fill="none" stroke="#63b8ff" d="M107.69,-72.47C110.57,-69.82 113.81,-67.05 117,-64.75 129.74,-55.56 144.97,-46.9 157.69,-40.24"/>
<polygon fill="#63b8ff" stroke="#63b8ff" points="159,-43.5 166.32,-35.83 155.82,-37.26 159,-43.5"/>
</a>
</g>
<g id="a_edge3&#45;headlabel"><a xlink:href="dir_000013_000020.html" target="_top" xlink:title="2">
<text text-anchor="middle" x="158.44" y="-43.85" font-family="Helvetica,sans-Serif" font-size="10.00" fill="#63b8ff">2</text>
</a>
</g>
</g>
<!-- dir_bc7b7609409d5aa3c182e3acb52d4afb -->
<g id="node6" class="node">
<title>dir_bc7b7609409d5aa3c182e3acb52d4afb</title>
<g id="a_node6"><a xlink:href="dir_bc7b7609409d5aa3c182e3acb52d4afb.html" target="_top" xlink:title="src">
<polygon fill="#a2b4d6" stroke="#404040" points="142.12,-150.25 111.88,-150.25 111.88,-129.5 142.12,-129.5 142.12,-150.25"/>
<text text-anchor="middle" x="127" y="-136.75" font-family="Helvetica,sans-Serif" font-size="10.00">src</text>
</a>
</g>
</g>
<!-- dir_bc7b7609409d5aa3c182e3acb52d4afb&#45;&gt;dir_9a5e51f49964887903df6eed98080585 -->
<g id="edge7" class="edge">
<title>dir_bc7b7609409d5aa3c182e3acb52d4afb&#45;&gt;dir_9a5e51f49964887903df6eed98080585</title>
<g id="a_edge7"><a xlink:href="dir_000031_000005.html" target="_top">
<path fill="none" stroke="#63b8ff" d="M112.36,-129.15C100.72,-120.82 84.68,-107.9 74,-93.5 63.72,-79.64 56.11,-61.56 51.27,-47.81"/>
<polygon fill="#63b8ff" stroke="#63b8ff" points="54.66,-46.9 48.21,-38.5 48.01,-49.09 54.66,-46.9"/>
</a>
</g>
<g id="a_edge7&#45;headlabel"><a xlink:href="dir_000031_000005.html" target="_top" xlink:title="6">
<text text-anchor="middle" x="58" y="-44.87" font-family="Helvetica,sans-Serif" font-size="10.00" fill="#63b8ff">6</text>
</a>
</g>
</g>
<!-- dir_bc7b7609409d5aa3c182e3acb52d4afb&#45;&gt;dir_88aae3d0f25401488c8c6aff1f39c0de -->
<g id="edge5" class="edge">
<title>dir_bc7b7609409d5aa3c182e3acb52d4afb&#45;&gt;dir_88aae3d0f25401488c8c6aff1f39c0de</title>
<g id="a_edge5"><a xlink:href="dir_000031_000025.html" target="_top">
<path fill="none" stroke="#63b8ff" d="M126.49,-129.37C125.53,-111.52 123.43,-72.61 122.13,-48.34"/>
<polygon fill="#63b8ff" stroke="#63b8ff" points="125.64,-48.48 121.61,-38.69 118.65,-48.86 125.64,-48.48"/>
</a>
</g>
<g id="a_edge5&#45;headlabel"><a xlink:href="dir_000031_000025.html" target="_top" xlink:title="6">
<text text-anchor="middle" x="128.59" y="-47.28" font-family="Helvetica,sans-Serif" font-size="10.00" fill="#63b8ff">6</text>
</a>
</g>
</g>
<!-- dir_bc7b7609409d5aa3c182e3acb52d4afb&#45;&gt;dir_923c80758d00fd62f29a99e232049d19 -->
<g id="edge6" class="edge">
<title>dir_bc7b7609409d5aa3c182e3acb52d4afb&#45;&gt;dir_923c80758d00fd62f29a99e232049d19</title>
<g id="a_edge6"><a xlink:href="dir_000031_000020.html" target="_top">
<path fill="none" stroke="#63b8ff" d="M131.86,-129.37C141.11,-111.27 161.43,-71.53 173.79,-47.35"/>
<polygon fill="#63b8ff" stroke="#63b8ff" points="176.87,-49.02 178.3,-38.52 170.63,-45.83 176.87,-49.02"/>
</a>
</g>
<g id="a_edge6&#45;headlabel"><a xlink:href="dir_000031_000020.html" target="_top" xlink:title="8">
<text text-anchor="middle" x="178.45" y="-49.04" font-family="Helvetica,sans-Serif" font-size="10.00" fill="#63b8ff">8</text>
</a>
</g>
</g>
<!-- dir_bc7b7609409d5aa3c182e3acb52d4afb&#45;&gt;dir_64d289f4a046ac6054a7985256cb4d0b -->
<g id="edge4" class="edge">
<title>dir_bc7b7609409d5aa3c182e3acb52d4afb&#45;&gt;dir_64d289f4a046ac6054a7985256cb4d0b</title>
<g id="a_edge4"><a xlink:href="dir_000031_000013.html" target="_top">
<path fill="none" stroke="#63b8ff" d="M121.82,-129.09C118.1,-122.08 112.98,-112.41 108.44,-103.83"/>
<polygon fill="#63b8ff" stroke="#63b8ff" points="111.62,-102.36 103.85,-95.17 105.44,-105.64 111.62,-102.36"/>
</a>
</g>
<g id="a_edge4&#45;headlabel"><a xlink:href="dir_000031_000013.html" target="_top" xlink:title="9">
<text text-anchor="middle" x="115.1" y="-99.75" font-family="Helvetica,sans-Serif" font-size="10.00" fill="#63b8ff">9</text>
</a>
</g>
</g>
</g>
</svg>
