<?xml version="1.0" encoding="UTF-8" standalone="no"?>
<!DOCTYPE svg PUBLIC "-//W3C//DTD SVG 1.1//EN"
 "http://www.w3.org/Graphics/SVG/1.1/DTD/svg11.dtd">
<!-- Generated by graphviz version 12.1.2 (20240928.0832)
 -->
<!-- Title: module Pages: 1 -->
<svg width="192pt" height="158pt"
 viewBox="0.00 0.00 192.25 158.25" xmlns="http://www.w3.org/2000/svg" xmlns:xlink="http://www.w3.org/1999/xlink">
<g id="graph0" class="graph" transform="scale(1 1) rotate(0) translate(4 154.25)">
<title>module</title>
<g id="clust1" class="cluster">
<title>clusterdir_a7b0466279106ea0b8f86f609f621680</title>
<g id="a_clust1"><a xlink:href="dir_a7b0466279106ea0b8f86f609f621680.html" target="_top">
<polygon fill="#edf0f7" stroke="#404040" stroke-width="2" points="11.38,-48.75 11.38,-142.25 128.38,-142.25 128.38,-48.75 11.38,-48.75"/>
</a>
</g>
</g>
<!-- dir_a7b0466279106ea0b8f86f609f621680 -->
<g id="node1" class="node">
<title>dir_a7b0466279106ea0b8f86f609f621680</title>
<text text-anchor="middle" x="45.38" y="-120.75" font-family="Helvetica,sans-Serif" font-size="10.00">module</text>
</g>
<!-- dir_9b91cb305f6dfd5edb8153d5019adc55 -->
<g id="node2" class="node">
<title>dir_9b91cb305f6dfd5edb8153d5019adc55</title>
<g id="a_node2"><a xlink:href="dir_9b91cb305f6dfd5edb8153d5019adc55.html" target="_top" xlink:title="inc">
<polygon fill="#a2b4d6" stroke="#404040" points="98.5,-77.5 68.25,-77.5 68.25,-56.75 98.5,-56.75 98.5,-77.5"/>
<text text-anchor="middle" x="83.38" y="-64" font-family="Helvetica,sans-Serif" font-size="10.00">inc</text>
</a>
</g>
</g>
<!-- dir_bdd9a5d540de89e9fe90efdfc6973a4f -->
<g id="node4" class="node">
<title>dir_bdd9a5d540de89e9fe90efdfc6973a4f</title>
<g id="a_node4"><a xlink:href="dir_bdd9a5d540de89e9fe90efdfc6973a4f.html" target="_top" xlink:title="common">
<polygon fill="#edf0f7" stroke="red" points="58.75,-20.75 0,-20.75 0,0 58.75,0 58.75,-20.75"/>
<text text-anchor="middle" x="29.38" y="-7.25" font-family="Helvetica,sans-Serif" font-size="10.00">common</text>
</a>
</g>
</g>
<!-- dir_9b91cb305f6dfd5edb8153d5019adc55&#45;&gt;dir_bdd9a5d540de89e9fe90efdfc6973a4f -->
<g id="edge1" class="edge">
<title>dir_9b91cb305f6dfd5edb8153d5019adc55&#45;&gt;dir_bdd9a5d540de89e9fe90efdfc6973a4f</title>
<g id="a_edge1"><a xlink:href="dir_000015_000006.html" target="_top">
<path fill="none" stroke="#63b8ff" d="M73.72,-56.34C66.27,-48.78 55.77,-38.14 46.85,-29.1"/>
<polygon fill="#63b8ff" stroke="#63b8ff" points="49.52,-26.82 40.01,-22.16 44.54,-31.73 49.52,-26.82"/>
</a>
</g>
<g id="a_edge1&#45;headlabel"><a xlink:href="dir_000015_000006.html" target="_top" xlink:title="6">
<text text-anchor="middle" x="53.01" y="-23.18" font-family="Helvetica,sans-Serif" font-size="10.00" fill="#63b8ff">6</text>
</a>
</g>
</g>
<!-- dir_c5a52a81292cf9a5167198f4f346d6d9 -->
<g id="node5" class="node">
<title>dir_c5a52a81292cf9a5167198f4f346d6d9</title>
<g id="a_node5"><a xlink:href="dir_c5a52a81292cf9a5167198f4f346d6d9.html" target="_top" xlink:title="platform">
<polygon fill="#edf0f7" stroke="red" points="134.38,-20.75 76.38,-20.75 76.38,0 134.38,0 134.38,-20.75"/>
<text text-anchor="middle" x="105.38" y="-7.25" font-family="Helvetica,sans-Serif" font-size="10.00">platform</text>
</a>
</g>
</g>
<!-- dir_9b91cb305f6dfd5edb8153d5019adc55&#45;&gt;dir_c5a52a81292cf9a5167198f4f346d6d9 -->
<g id="edge2" class="edge">
<title>dir_9b91cb305f6dfd5edb8153d5019adc55&#45;&gt;dir_c5a52a81292cf9a5167198f4f346d6d9</title>
<g id="a_edge2"><a xlink:href="dir_000015_000027.html" target="_top">
<path fill="none" stroke="#63b8ff" d="M87.31,-56.34C90.06,-49.49 93.84,-40.09 97.23,-31.65"/>
<polygon fill="#63b8ff" stroke="#63b8ff" points="100.43,-33.07 100.91,-22.48 93.94,-30.46 100.43,-33.07"/>
</a>
</g>
<g id="a_edge2&#45;headlabel"><a xlink:href="dir_000015_000027.html" target="_top" xlink:title="2">
<text text-anchor="middle" x="102.29" y="-32.93" font-family="Helvetica,sans-Serif" font-size="10.00" fill="#63b8ff">2</text>
</a>
</g>
</g>
<!-- dir_427baa8a9a5be237f298d4545d0d1ce2 -->
<g id="node6" class="node">
<title>dir_427baa8a9a5be237f298d4545d0d1ce2</title>
<g id="a_node6"><a xlink:href="dir_427baa8a9a5be237f298d4545d0d1ce2.html" target="_top" xlink:title="net">
<polygon fill="#edf0f7" stroke="red" points="184.25,-20.75 152.5,-20.75 152.5,0 184.25,0 184.25,-20.75"/>
<text text-anchor="middle" x="168.38" y="-7.25" font-family="Helvetica,sans-Serif" font-size="10.00">net</text>
</a>
</g>
</g>
<!-- dir_9b91cb305f6dfd5edb8153d5019adc55&#45;&gt;dir_427baa8a9a5be237f298d4545d0d1ce2 -->
<g id="edge3" class="edge">
<title>dir_9b91cb305f6dfd5edb8153d5019adc55&#45;&gt;dir_427baa8a9a5be237f298d4545d0d1ce2</title>
<g id="a_edge3"><a xlink:href="dir_000015_000022.html" target="_top">
<path fill="none" stroke="#63b8ff" d="M98.57,-56.34C111.14,-48.24 129.24,-36.58 143.86,-27.17"/>
<polygon fill="#63b8ff" stroke="#63b8ff" points="145.53,-30.26 152.04,-21.9 141.74,-24.37 145.53,-30.26"/>
</a>
</g>
<g id="a_edge3&#45;headlabel"><a xlink:href="dir_000015_000022.html" target="_top" xlink:title="2">
<text text-anchor="middle" x="145.31" y="-30.64" font-family="Helvetica,sans-Serif" font-size="10.00" fill="#63b8ff">2</text>
</a>
</g>
</g>
<!-- dir_f1df6bf3c4d5ecb8cd899af8a2980af4 -->
<g id="node3" class="node">
<title>dir_f1df6bf3c4d5ecb8cd899af8a2980af4</title>
<g id="a_node3"><a xlink:href="dir_f1df6bf3c4d5ecb8cd899af8a2980af4.html" target="_top" xlink:title="src">
<polygon fill="#a2b4d6" stroke="#404040" points="120.5,-134.25 90.25,-134.25 90.25,-113.5 120.5,-113.5 120.5,-134.25"/>
<text text-anchor="middle" x="105.38" y="-120.75" font-family="Helvetica,sans-Serif" font-size="10.00">src</text>
</a>
</g>
</g>
<!-- dir_f1df6bf3c4d5ecb8cd899af8a2980af4&#45;&gt;dir_9b91cb305f6dfd5edb8153d5019adc55 -->
<g id="edge5" class="edge">
<title>dir_f1df6bf3c4d5ecb8cd899af8a2980af4&#45;&gt;dir_9b91cb305f6dfd5edb8153d5019adc55</title>
<g id="a_edge5"><a xlink:href="dir_000033_000015.html" target="_top">
<path fill="none" stroke="#63b8ff" d="M101.44,-113.09C98.69,-106.24 94.91,-96.84 91.52,-88.4"/>
<polygon fill="#63b8ff" stroke="#63b8ff" points="94.81,-87.21 87.84,-79.23 88.32,-89.82 94.81,-87.21"/>
</a>
</g>
<g id="a_edge5&#45;headlabel"><a xlink:href="dir_000033_000015.html" target="_top" xlink:title="9">
<text text-anchor="middle" x="98.23" y="-84.95" font-family="Helvetica,sans-Serif" font-size="10.00" fill="#63b8ff">9</text>
</a>
</g>
</g>
<!-- dir_f1df6bf3c4d5ecb8cd899af8a2980af4&#45;&gt;dir_bdd9a5d540de89e9fe90efdfc6973a4f -->
<g id="edge6" class="edge">
<title>dir_f1df6bf3c4d5ecb8cd899af8a2980af4&#45;&gt;dir_bdd9a5d540de89e9fe90efdfc6973a4f</title>
<g id="a_edge6"><a xlink:href="dir_000033_000006.html" target="_top">
<path fill="none" stroke="#63b8ff" d="M93.2,-113.08C83.14,-104.51 69,-91.3 59.38,-77.5 49.45,-63.27 41.52,-45.22 36.31,-31.57"/>
<polygon fill="#63b8ff" stroke="#63b8ff" points="39.67,-30.56 32.97,-22.35 33.09,-32.94 39.67,-30.56"/>
</a>
</g>
<g id="a_edge6&#45;headlabel"><a xlink:href="dir_000033_000006.html" target="_top" xlink:title="3">
<text text-anchor="middle" x="43.05" y="-28.42" font-family="Helvetica,sans-Serif" font-size="10.00" fill="#63b8ff">3</text>
</a>
</g>
</g>
<!-- dir_f1df6bf3c4d5ecb8cd899af8a2980af4&#45;&gt;dir_c5a52a81292cf9a5167198f4f346d6d9 -->
<g id="edge7" class="edge">
<title>dir_f1df6bf3c4d5ecb8cd899af8a2980af4&#45;&gt;dir_c5a52a81292cf9a5167198f4f346d6d9</title>
<g id="a_edge7"><a xlink:href="dir_000033_000027.html" target="_top">
<path fill="none" stroke="#63b8ff" d="M105.93,-113.14C106.42,-103.96 107.1,-89.8 107.38,-77.5 107.66,-64.73 107.72,-61.52 107.38,-48.75 107.23,-43.49 106.98,-37.81 106.7,-32.52"/>
<polygon fill="#63b8ff" stroke="#63b8ff" points="110.21,-32.5 106.13,-22.72 103.22,-32.9 110.21,-32.5"/>
</a>
</g>
<g id="a_edge7&#45;headlabel"><a xlink:href="dir_000033_000027.html" target="_top" xlink:title="6">
<text text-anchor="middle" x="113.16" y="-31.28" font-family="Helvetica,sans-Serif" font-size="10.00" fill="#63b8ff">6</text>
</a>
</g>
</g>
<!-- dir_f1df6bf3c4d5ecb8cd899af8a2980af4&#45;&gt;dir_427baa8a9a5be237f298d4545d0d1ce2 -->
<g id="edge4" class="edge">
<title>dir_f1df6bf3c4d5ecb8cd899af8a2980af4&#45;&gt;dir_427baa8a9a5be237f298d4545d0d1ce2</title>
<g id="a_edge4"><a xlink:href="dir_000033_000022.html" target="_top">
<path fill="none" stroke="#63b8ff" d="M110.75,-113.37C121.02,-95.19 143.63,-55.17 157.27,-31.02"/>
<polygon fill="#63b8ff" stroke="#63b8ff" points="160.22,-32.92 162.09,-22.49 154.13,-29.48 160.22,-32.92"/>
</a>
</g>
<g id="a_edge4&#45;headlabel"><a xlink:href="dir_000033_000022.html" target="_top" xlink:title="7">
<text text-anchor="middle" x="161.67" y="-33" font-family="Helvetica,sans-Serif" font-size="10.00" fill="#63b8ff">7</text>
</a>
</g>
</g>
</g>
</svg>
