<?xml version="1.0" encoding="UTF-8" standalone="no"?>
<!DOCTYPE svg PUBLIC "-//W3C//DTD SVG 1.1//EN"
 "http://www.w3.org/Graphics/SVG/1.1/DTD/svg11.dtd">
<!-- Generated by graphviz version 12.1.2 (20240928.0832)
 -->
<!-- Title: vlcb Pages: 1 -->
<svg width="180pt" height="187pt"
 viewBox="0.00 0.00 180.38 187.00" xmlns="http://www.w3.org/2000/svg" xmlns:xlink="http://www.w3.org/1999/xlink">
<g id="graph0" class="graph" transform="scale(1 1) rotate(0) translate(4 183)">
<title>vlcb</title>
<g id="clust1" class="cluster">
<title>clusterdir_9b91cb305f6dfd5edb8153d5019adc55</title>
<g id="a_clust1"><a xlink:href="dir_9b91cb305f6dfd5edb8153d5019adc55.html" target="_top" xlink:title="inc">
<polygon fill="#edf0f7" stroke="#7f7f7f" stroke-dasharray="5,2" points="8,-40.75 8,-171 92,-171 92,-40.75 8,-40.75"/>
<text text-anchor="middle" x="50" y="-157.5" font-family="Helvetica,sans-Serif" font-size="10.00">inc</text>
</a>
</g>
</g>
<g id="clust2" class="cluster">
<title>clusterdir_b4686c7d95654e559dd53a51c5f9973d</title>
<g id="a_clust2"><a xlink:href="dir_b4686c7d95654e559dd53a51c5f9973d.html" target="_top">
<polygon fill="#edf0f7" stroke="#404040" stroke-width="2" points="16,-48.75 16,-142.25 84,-142.25 84,-48.75 16,-48.75"/>
</a>
</g>
</g>
<!-- dir_b4686c7d95654e559dd53a51c5f9973d -->
<g id="node1" class="node">
<title>dir_b4686c7d95654e559dd53a51c5f9973d</title>
<text text-anchor="middle" x="58" y="-120.75" font-family="Helvetica,sans-Serif" font-size="10.00">vlcb</text>
</g>
<!-- dir_f673efdf78fd9fab3b10e456f0aece08 -->
<g id="node2" class="node">
<title>dir_f673efdf78fd9fab3b10e456f0aece08</title>
<g id="a_node2"><a xlink:href="dir_f673efdf78fd9fab3b10e456f0aece08.html" target="_top" xlink:title="module">
<polygon fill="#a2b4d6" stroke="#404040" points="76.38,-77.5 23.62,-77.5 23.62,-56.75 76.38,-56.75 76.38,-77.5"/>
<text text-anchor="middle" x="50" y="-64" font-family="Helvetica,sans-Serif" font-size="10.00">module</text>
</a>
</g>
</g>
<!-- dir_b4686c7d95654e559dd53a51c5f9973d&#45;&gt;dir_f673efdf78fd9fab3b10e456f0aece08 -->
<g id="edge3" class="edge">
<title>dir_b4686c7d95654e559dd53a51c5f9973d&#45;&gt;dir_f673efdf78fd9fab3b10e456f0aece08</title>
<g id="a_edge3"><a xlink:href="dir_000039_000020.html" target="_top">
<path fill="none" stroke="#63b8ff" d="M56.68,-113.83C55.69,-107.06 54.3,-97.52 53.04,-88.91"/>
<polygon fill="#63b8ff" stroke="#63b8ff" points="56.53,-88.62 51.62,-79.23 49.61,-89.63 56.53,-88.62"/>
</a>
</g>
<g id="a_edge3&#45;headlabel"><a xlink:href="dir_000039_000020.html" target="_top" xlink:title="3">
<text text-anchor="middle" x="59.64" y="-87.14" font-family="Helvetica,sans-Serif" font-size="10.00" fill="#63b8ff">3</text>
</a>
</g>
</g>
<!-- dir_427baa8a9a5be237f298d4545d0d1ce2 -->
<g id="node3" class="node">
<title>dir_427baa8a9a5be237f298d4545d0d1ce2</title>
<g id="a_node3"><a xlink:href="dir_427baa8a9a5be237f298d4545d0d1ce2.html" target="_top" xlink:title="net">
<polygon fill="#edf0f7" stroke="red" points="131.88,-77.5 100.12,-77.5 100.12,-56.75 131.88,-56.75 131.88,-77.5"/>
<text text-anchor="middle" x="116" y="-64" font-family="Helvetica,sans-Serif" font-size="10.00">net</text>
</a>
</g>
</g>
<!-- dir_b4686c7d95654e559dd53a51c5f9973d&#45;&gt;dir_427baa8a9a5be237f298d4545d0d1ce2 -->
<g id="edge1" class="edge">
<title>dir_b4686c7d95654e559dd53a51c5f9973d&#45;&gt;dir_427baa8a9a5be237f298d4545d0d1ce2</title>
<g id="a_edge1"><a xlink:href="dir_000039_000022.html" target="_top">
<path fill="none" stroke="#63b8ff" d="M67.84,-113.59C75.96,-105.93 87.7,-94.84 97.55,-85.54"/>
<polygon fill="#63b8ff" stroke="#63b8ff" points="99.95,-88.09 104.82,-78.68 95.14,-83 99.95,-88.09"/>
</a>
</g>
<g id="a_edge1&#45;headlabel"><a xlink:href="dir_000039_000022.html" target="_top" xlink:title="2">
<text text-anchor="middle" x="100.38" y="-88.46" font-family="Helvetica,sans-Serif" font-size="10.00" fill="#63b8ff">2</text>
</a>
</g>
</g>
<!-- dir_bdd9a5d540de89e9fe90efdfc6973a4f -->
<g id="node4" class="node">
<title>dir_bdd9a5d540de89e9fe90efdfc6973a4f</title>
<g id="a_node4"><a xlink:href="dir_bdd9a5d540de89e9fe90efdfc6973a4f.html" target="_top" xlink:title="common">
<polygon fill="#edf0f7" stroke="red" points="172.38,-20.75 113.62,-20.75 113.62,0 172.38,0 172.38,-20.75"/>
<text text-anchor="middle" x="143" y="-7.25" font-family="Helvetica,sans-Serif" font-size="10.00">common</text>
</a>
</g>
</g>
<!-- dir_b4686c7d95654e559dd53a51c5f9973d&#45;&gt;dir_bdd9a5d540de89e9fe90efdfc6973a4f -->
<g id="edge2" class="edge">
<title>dir_b4686c7d95654e559dd53a51c5f9973d&#45;&gt;dir_bdd9a5d540de89e9fe90efdfc6973a4f</title>
<g id="a_edge2"><a xlink:href="dir_000039_000006.html" target="_top">
<path fill="none" stroke="#63b8ff" d="M75.92,-118.71C95.71,-113.06 126.66,-100.88 141,-77.5 149.19,-64.16 149.22,-46.28 147.47,-32.48"/>
<polygon fill="#63b8ff" stroke="#63b8ff" points="150.93,-31.95 145.79,-22.69 144.03,-33.14 150.93,-31.95"/>
</a>
</g>
<g id="a_edge2&#45;headlabel"><a xlink:href="dir_000039_000006.html" target="_top" xlink:title="6">
<text text-anchor="middle" x="154.08" y="-30.4" font-family="Helvetica,sans-Serif" font-size="10.00" fill="#63b8ff">6</text>
</a>
</g>
</g>
<!-- dir_f673efdf78fd9fab3b10e456f0aece08&#45;&gt;dir_bdd9a5d540de89e9fe90efdfc6973a4f -->
<g id="edge4" class="edge">
<title>dir_f673efdf78fd9fab3b10e456f0aece08&#45;&gt;dir_bdd9a5d540de89e9fe90efdfc6973a4f</title>
<g id="a_edge4"><a xlink:href="dir_000020_000006.html" target="_top">
<path fill="none" stroke="#63b8ff" d="M65.49,-56.34C73.12,-51.56 82.5,-45.78 91,-40.75 98.94,-36.05 107.65,-31.07 115.62,-26.57"/>
<polygon fill="#63b8ff" stroke="#63b8ff" points="117.24,-29.68 124.25,-21.73 113.81,-23.57 117.24,-29.68"/>
</a>
</g>
<g id="a_edge4&#45;headlabel"><a xlink:href="dir_000020_000006.html" target="_top" xlink:title="5">
<text text-anchor="middle" x="116.81" y="-30.05" font-family="Helvetica,sans-Serif" font-size="10.00" fill="#63b8ff">5</text>
</a>
</g>
</g>
<!-- dir_c5a52a81292cf9a5167198f4f346d6d9 -->
<g id="node5" class="node">
<title>dir_c5a52a81292cf9a5167198f4f346d6d9</title>
<g id="a_node5"><a xlink:href="dir_c5a52a81292cf9a5167198f4f346d6d9.html" target="_top" xlink:title="platform">
<polygon fill="#edf0f7" stroke="red" points="79,-20.75 21,-20.75 21,0 79,0 79,-20.75"/>
<text text-anchor="middle" x="50" y="-7.25" font-family="Helvetica,sans-Serif" font-size="10.00">platform</text>
</a>
</g>
</g>
<!-- dir_f673efdf78fd9fab3b10e456f0aece08&#45;&gt;dir_c5a52a81292cf9a5167198f4f346d6d9 -->
<g id="edge5" class="edge">
<title>dir_f673efdf78fd9fab3b10e456f0aece08&#45;&gt;dir_c5a52a81292cf9a5167198f4f346d6d9</title>
<g id="a_edge5"><a xlink:href="dir_000020_000027.html" target="_top">
<path fill="none" stroke="#63b8ff" d="M50,-56.34C50,-49.72 50,-40.72 50,-32.52"/>
<polygon fill="#63b8ff" stroke="#63b8ff" points="53.5,-32.59 50,-22.59 46.5,-32.59 53.5,-32.59"/>
</a>
</g>
<g id="a_edge5&#45;headlabel"><a xlink:href="dir_000020_000027.html" target="_top" xlink:title="2">
<text text-anchor="middle" x="56.34" y="-31.55" font-family="Helvetica,sans-Serif" font-size="10.00" fill="#63b8ff">2</text>
</a>
</g>
</g>
</g>
</svg>
