<?xml version="1.0" encoding="UTF-8" standalone="no"?>
<!DOCTYPE svg PUBLIC "-//W3C//DTD SVG 1.1//EN"
 "http://www.w3.org/Graphics/SVG/1.1/DTD/svg11.dtd">
<!-- Generated by graphviz version 12.1.2 (20240928.0832)
 -->
<!-- Title: vlcb Pages: 1 -->
<svg width="172pt" height="187pt"
 viewBox="0.00 0.00 172.38 187.00" xmlns="http://www.w3.org/2000/svg" xmlns:xlink="http://www.w3.org/1999/xlink">
<g id="graph0" class="graph" transform="scale(1 1) rotate(0) translate(4 183)">
<title>vlcb</title>
<g id="clust1" class="cluster">
<title>clusterdir_64d289f4a046ac6054a7985256cb4d0b</title>
<g id="a_clust1"><a xlink:href="dir_64d289f4a046ac6054a7985256cb4d0b.html" target="_top" xlink:title="inc">
<polygon fill="#edf0f7" stroke="#7f7f7f" stroke-dasharray="5,2" points="14,-40.75 14,-171 98,-171 98,-40.75 14,-40.75"/>
<text text-anchor="middle" x="56" y="-157.5" font-family="Helvetica,sans-Serif" font-size="10.00">inc</text>
</a>
</g>
</g>
<g id="clust2" class="cluster">
<title>clusterdir_01832012840682d8ca142cfd9f138690</title>
<g id="a_clust2"><a xlink:href="dir_01832012840682d8ca142cfd9f138690.html" target="_top">
<polygon fill="#edf0f7" stroke="#404040" stroke-width="2" points="22,-48.75 22,-142.25 90,-142.25 90,-48.75 22,-48.75"/>
</a>
</g>
</g>
<!-- dir_01832012840682d8ca142cfd9f138690 -->
<g id="node1" class="node">
<title>dir_01832012840682d8ca142cfd9f138690</title>
<text text-anchor="middle" x="60" y="-120.75" font-family="Helvetica,sans-Serif" font-size="10.00">vlcb</text>
</g>
<!-- dir_e38d64fb6790d072d1a373eff95b9421 -->
<g id="node2" class="node">
<title>dir_e38d64fb6790d072d1a373eff95b9421</title>
<g id="a_node2"><a xlink:href="dir_e38d64fb6790d072d1a373eff95b9421.html" target="_top" xlink:title="module">
<polygon fill="#a2b4d6" stroke="#404040" points="82.38,-77.5 29.62,-77.5 29.62,-56.75 82.38,-56.75 82.38,-77.5"/>
<text text-anchor="middle" x="56" y="-64" font-family="Helvetica,sans-Serif" font-size="10.00">module</text>
</a>
</g>
</g>
<!-- dir_01832012840682d8ca142cfd9f138690&#45;&gt;dir_e38d64fb6790d072d1a373eff95b9421 -->
<g id="edge4" class="edge">
<title>dir_01832012840682d8ca142cfd9f138690&#45;&gt;dir_e38d64fb6790d072d1a373eff95b9421</title>
<g id="a_edge4"><a xlink:href="dir_000037_000017.html" target="_top">
<path fill="none" stroke="#63b8ff" d="M59.34,-113.83C58.85,-107.14 58.16,-97.74 57.54,-89.21"/>
<polygon fill="#63b8ff" stroke="#63b8ff" points="61.03,-88.96 56.81,-79.24 54.05,-89.47 61.03,-88.96"/>
</a>
</g>
<g id="a_edge4&#45;headlabel"><a xlink:href="dir_000037_000017.html" target="_top" xlink:title="3">
<text text-anchor="middle" x="64.01" y="-87.7" font-family="Helvetica,sans-Serif" font-size="10.00" fill="#63b8ff">3</text>
</a>
</g>
</g>
<!-- dir_88aae3d0f25401488c8c6aff1f39c0de -->
<g id="node3" class="node">
<title>dir_88aae3d0f25401488c8c6aff1f39c0de</title>
<g id="a_node3"><a xlink:href="dir_88aae3d0f25401488c8c6aff1f39c0de.html" target="_top" xlink:title="platform">
<polygon fill="#edf0f7" stroke="red" stroke-dasharray="5,2" points="58,-20.75 0,-20.75 0,0 58,0 58,-20.75"/>
<text text-anchor="middle" x="29" y="-7.25" font-family="Helvetica,sans-Serif" font-size="10.00">platform</text>
</a>
</g>
</g>
<!-- dir_01832012840682d8ca142cfd9f138690&#45;&gt;dir_88aae3d0f25401488c8c6aff1f39c0de -->
<g id="edge1" class="edge">
<title>dir_01832012840682d8ca142cfd9f138690&#45;&gt;dir_88aae3d0f25401488c8c6aff1f39c0de</title>
<g id="a_edge1"><a xlink:href="dir_000037_000025.html" target="_top">
<path fill="none" stroke="#63b8ff" d="M48.64,-113.82C39.21,-105.53 26.49,-92.3 21,-77.5 15.58,-62.89 18.09,-45.34 21.67,-31.99"/>
<polygon fill="#63b8ff" stroke="#63b8ff" points="24.97,-33.15 24.62,-22.57 18.29,-31.06 24.97,-33.15"/>
</a>
</g>
<g id="a_edge1&#45;headlabel"><a xlink:href="dir_000037_000025.html" target="_top" xlink:title="4">
<text text-anchor="middle" x="27.06" y="-32.86" font-family="Helvetica,sans-Serif" font-size="10.00" fill="#63b8ff">4</text>
</a>
</g>
</g>
<!-- dir_923c80758d00fd62f29a99e232049d19 -->
<g id="node4" class="node">
<title>dir_923c80758d00fd62f29a99e232049d19</title>
<g id="a_node4"><a xlink:href="dir_923c80758d00fd62f29a99e232049d19.html" target="_top" xlink:title="net">
<polygon fill="#edf0f7" stroke="red" stroke-dasharray="5,2" points="137.88,-77.5 106.12,-77.5 106.12,-56.75 137.88,-56.75 137.88,-77.5"/>
<text text-anchor="middle" x="122" y="-64" font-family="Helvetica,sans-Serif" font-size="10.00">net</text>
</a>
</g>
</g>
<!-- dir_01832012840682d8ca142cfd9f138690&#45;&gt;dir_923c80758d00fd62f29a99e232049d19 -->
<g id="edge2" class="edge">
<title>dir_01832012840682d8ca142cfd9f138690&#45;&gt;dir_923c80758d00fd62f29a99e232049d19</title>
<g id="a_edge2"><a xlink:href="dir_000037_000020.html" target="_top">
<path fill="none" stroke="#63b8ff" d="M70.52,-113.59C79.28,-105.85 92,-94.62 102.6,-85.25"/>
<polygon fill="#63b8ff" stroke="#63b8ff" points="104.91,-87.89 110.09,-78.64 100.28,-82.64 104.91,-87.89"/>
</a>
</g>
<g id="a_edge2&#45;headlabel"><a xlink:href="dir_000037_000020.html" target="_top" xlink:title="2">
<text text-anchor="middle" x="105.23" y="-88.27" font-family="Helvetica,sans-Serif" font-size="10.00" fill="#63b8ff">2</text>
</a>
</g>
</g>
<!-- dir_9a5e51f49964887903df6eed98080585 -->
<g id="node5" class="node">
<title>dir_9a5e51f49964887903df6eed98080585</title>
<g id="a_node5"><a xlink:href="dir_9a5e51f49964887903df6eed98080585.html" target="_top" xlink:title="common">
<polygon fill="#edf0f7" stroke="red" stroke-dasharray="5,2" points="164.38,-20.75 105.62,-20.75 105.62,0 164.38,0 164.38,-20.75"/>
<text text-anchor="middle" x="135" y="-7.25" font-family="Helvetica,sans-Serif" font-size="10.00">common</text>
</a>
</g>
</g>
<!-- dir_01832012840682d8ca142cfd9f138690&#45;&gt;dir_9a5e51f49964887903df6eed98080585 -->
<g id="edge3" class="edge">
<title>dir_01832012840682d8ca142cfd9f138690&#45;&gt;dir_9a5e51f49964887903df6eed98080585</title>
<g id="a_edge3"><a xlink:href="dir_000037_000005.html" target="_top">
<path fill="none" stroke="#63b8ff" d="M77.78,-119.34C98.55,-114.15 131.99,-102.26 147,-77.5 155.41,-63.63 151.14,-45.31 145.49,-31.48"/>
<polygon fill="#63b8ff" stroke="#63b8ff" points="148.69,-30.07 141.3,-22.48 142.35,-33.02 148.69,-30.07"/>
</a>
</g>
<g id="a_edge3&#45;headlabel"><a xlink:href="dir_000037_000005.html" target="_top" xlink:title="4">
<text text-anchor="middle" x="152.15" y="-27.63" font-family="Helvetica,sans-Serif" font-size="10.00" fill="#63b8ff">4</text>
</a>
</g>
</g>
<!-- dir_e38d64fb6790d072d1a373eff95b9421&#45;&gt;dir_88aae3d0f25401488c8c6aff1f39c0de -->
<g id="edge5" class="edge">
<title>dir_e38d64fb6790d072d1a373eff95b9421&#45;&gt;dir_88aae3d0f25401488c8c6aff1f39c0de</title>
<g id="a_edge5"><a xlink:href="dir_000017_000025.html" target="_top">
<path fill="none" stroke="#63b8ff" d="M51.17,-56.34C47.76,-49.41 43.05,-39.87 38.86,-31.36"/>
<polygon fill="#63b8ff" stroke="#63b8ff" points="42.02,-29.86 34.45,-22.44 35.74,-32.95 42.02,-29.86"/>
</a>
</g>
<g id="a_edge5&#45;headlabel"><a xlink:href="dir_000017_000025.html" target="_top" xlink:title="3">
<text text-anchor="middle" x="45.48" y="-27.34" font-family="Helvetica,sans-Serif" font-size="10.00" fill="#63b8ff">3</text>
</a>
</g>
</g>
<!-- dir_e38d64fb6790d072d1a373eff95b9421&#45;&gt;dir_9a5e51f49964887903df6eed98080585 -->
<g id="edge6" class="edge">
<title>dir_e38d64fb6790d072d1a373eff95b9421&#45;&gt;dir_9a5e51f49964887903df6eed98080585</title>
<g id="a_edge6"><a xlink:href="dir_000017_000005.html" target="_top">
<path fill="none" stroke="#63b8ff" d="M70.12,-56.34C81.69,-48.32 98.3,-36.81 111.82,-27.44"/>
<polygon fill="#63b8ff" stroke="#63b8ff" points="113.53,-30.51 119.75,-21.94 109.54,-24.76 113.53,-30.51"/>
</a>
</g>
<g id="a_edge6&#45;headlabel"><a xlink:href="dir_000017_000005.html" target="_top" xlink:title="3">
<text text-anchor="middle" x="113.44" y="-30.91" font-family="Helvetica,sans-Serif" font-size="10.00" fill="#63b8ff">3</text>
</a>
</g>
</g>
</g>
</svg>
