<?xml version="1.0" encoding="UTF-8" standalone="no"?>
<!DOCTYPE svg PUBLIC "-//W3C//DTD SVG 1.1//EN"
 "http://www.w3.org/Graphics/SVG/1.1/DTD/svg11.dtd">
<!-- Generated by graphviz version 12.1.2 (20240928.0832)
 -->
<!-- Title: net Pages: 1 -->
<svg width="174pt" height="203pt"
 viewBox="0.00 0.00 174.00 203.00" xmlns="http://www.w3.org/2000/svg" xmlns:xlink="http://www.w3.org/1999/xlink">
<g id="graph0" class="graph" transform="scale(1 1) rotate(0) translate(4 199)">
<title>net</title>
<g id="clust1" class="cluster">
<title>clusterdir_e05d7e2b1ecd646af5bb94391405f3b5</title>
<g id="a_clust1"><a xlink:href="dir_e05d7e2b1ecd646af5bb94391405f3b5.html" target="_top" xlink:title="modules">
<polygon fill="#edf0f7" stroke="#404040" stroke-dasharray="5,2" points="8,-8 8,-187 158,-187 158,-8 8,-8"/>
<text text-anchor="middle" x="83" y="-173.5" font-family="Helvetica,sans-Serif" font-size="10.00">modules</text>
</a>
</g>
</g>
<g id="clust2" class="cluster">
<title>clusterdir_923c80758d00fd62f29a99e232049d19</title>
<g id="a_clust2"><a xlink:href="dir_923c80758d00fd62f29a99e232049d19.html" target="_top">
<polygon fill="#edf0f7" stroke="#404040" stroke-width="2" points="16,-64.75 16,-158.25 112,-158.25 112,-64.75 16,-64.75"/>
</a>
</g>
</g>
<!-- dir_88aae3d0f25401488c8c6aff1f39c0de -->
<g id="node1" class="node">
<title>dir_88aae3d0f25401488c8c6aff1f39c0de</title>
<g id="a_node1"><a xlink:href="dir_88aae3d0f25401488c8c6aff1f39c0de.html" target="_top" xlink:title="platform">
<polygon fill="#a2b4d6" stroke="red" points="74,-36.75 16,-36.75 16,-16 74,-16 74,-36.75"/>
<text text-anchor="middle" x="45" y="-23.25" font-family="Helvetica,sans-Serif" font-size="10.00">platform</text>
</a>
</g>
</g>
<!-- dir_9a5e51f49964887903df6eed98080585 -->
<g id="node2" class="node">
<title>dir_9a5e51f49964887903df6eed98080585</title>
<g id="a_node2"><a xlink:href="dir_9a5e51f49964887903df6eed98080585.html" target="_top" xlink:title="common">
<polygon fill="#a2b4d6" stroke="red" points="150.38,-36.75 91.62,-36.75 91.62,-16 150.38,-16 150.38,-36.75"/>
<text text-anchor="middle" x="121" y="-23.25" font-family="Helvetica,sans-Serif" font-size="10.00">common</text>
</a>
</g>
</g>
<!-- dir_923c80758d00fd62f29a99e232049d19 -->
<g id="node3" class="node">
<title>dir_923c80758d00fd62f29a99e232049d19</title>
<text text-anchor="middle" x="40" y="-136.75" font-family="Helvetica,sans-Serif" font-size="10.00">net</text>
</g>
<!-- dir_5138cdf650ac6d86ddcfb916ed96a97c -->
<g id="node4" class="node">
<title>dir_5138cdf650ac6d86ddcfb916ed96a97c</title>
<g id="a_node4"><a xlink:href="dir_5138cdf650ac6d86ddcfb916ed96a97c.html" target="_top" xlink:title="inc">
<polygon fill="#a2b4d6" stroke="#404040" points="102.12,-93.5 71.88,-93.5 71.88,-72.75 102.12,-72.75 102.12,-93.5"/>
<text text-anchor="middle" x="87" y="-80" font-family="Helvetica,sans-Serif" font-size="10.00">inc</text>
</a>
</g>
</g>
<!-- dir_5138cdf650ac6d86ddcfb916ed96a97c&#45;&gt;dir_88aae3d0f25401488c8c6aff1f39c0de -->
<g id="edge2" class="edge">
<title>dir_5138cdf650ac6d86ddcfb916ed96a97c&#45;&gt;dir_88aae3d0f25401488c8c6aff1f39c0de</title>
<g id="a_edge2"><a xlink:href="dir_000014_000025.html" target="_top">
<path fill="none" stroke="#63b8ff" d="M79.49,-72.34C73.88,-65.02 66.03,-54.79 59.24,-45.94"/>
<polygon fill="#63b8ff" stroke="#63b8ff" points="62.23,-44.08 53.36,-38.28 56.67,-48.34 62.23,-44.08"/>
</a>
</g>
<g id="a_edge2&#45;headlabel"><a xlink:href="dir_000014_000025.html" target="_top" xlink:title="6">
<text text-anchor="middle" x="65.75" y="-40.88" font-family="Helvetica,sans-Serif" font-size="10.00" fill="#63b8ff">6</text>
</a>
</g>
</g>
<!-- dir_5138cdf650ac6d86ddcfb916ed96a97c&#45;&gt;dir_9a5e51f49964887903df6eed98080585 -->
<g id="edge1" class="edge">
<title>dir_5138cdf650ac6d86ddcfb916ed96a97c&#45;&gt;dir_9a5e51f49964887903df6eed98080585</title>
<g id="a_edge1"><a xlink:href="dir_000014_000005.html" target="_top">
<path fill="none" stroke="#63b8ff" d="M93.08,-72.34C97.48,-65.25 103.57,-55.44 108.94,-46.79"/>
<polygon fill="#63b8ff" stroke="#63b8ff" points="111.87,-48.71 114.18,-38.36 105.93,-45.01 111.87,-48.71"/>
</a>
</g>
<g id="a_edge1&#45;headlabel"><a xlink:href="dir_000014_000005.html" target="_top" xlink:title="16">
<text text-anchor="middle" x="113.19" y="-48.85" font-family="Helvetica,sans-Serif" font-size="10.00" fill="#63b8ff">16</text>
</a>
</g>
</g>
<!-- dir_8103d3fde0bf3eea864fcd050a339ac8 -->
<g id="node5" class="node">
<title>dir_8103d3fde0bf3eea864fcd050a339ac8</title>
<g id="a_node5"><a xlink:href="dir_8103d3fde0bf3eea864fcd050a339ac8.html" target="_top" xlink:title="src">
<polygon fill="#a2b4d6" stroke="#404040" points="104.12,-150.25 73.88,-150.25 73.88,-129.5 104.12,-129.5 104.12,-150.25"/>
<text text-anchor="middle" x="89" y="-136.75" font-family="Helvetica,sans-Serif" font-size="10.00">src</text>
</a>
</g>
</g>
<!-- dir_8103d3fde0bf3eea864fcd050a339ac8&#45;&gt;dir_88aae3d0f25401488c8c6aff1f39c0de -->
<g id="edge4" class="edge">
<title>dir_8103d3fde0bf3eea864fcd050a339ac8&#45;&gt;dir_88aae3d0f25401488c8c6aff1f39c0de</title>
<g id="a_edge4"><a xlink:href="dir_000032_000025.html" target="_top">
<path fill="none" stroke="#63b8ff" d="M82.46,-129.16C76.68,-120.21 68.36,-106.42 63,-93.5 56.92,-78.84 52.29,-61.51 49.25,-48.27"/>
<polygon fill="#63b8ff" stroke="#63b8ff" points="52.68,-47.56 47.14,-38.52 45.84,-49.04 52.68,-47.56"/>
</a>
</g>
<g id="a_edge4&#45;headlabel"><a xlink:href="dir_000032_000025.html" target="_top" xlink:title="8">
<text text-anchor="middle" x="55.89" y="-45.87" font-family="Helvetica,sans-Serif" font-size="10.00" fill="#63b8ff">8</text>
</a>
</g>
</g>
<!-- dir_8103d3fde0bf3eea864fcd050a339ac8&#45;&gt;dir_9a5e51f49964887903df6eed98080585 -->
<g id="edge5" class="edge">
<title>dir_8103d3fde0bf3eea864fcd050a339ac8&#45;&gt;dir_9a5e51f49964887903df6eed98080585</title>
<g id="a_edge5"><a xlink:href="dir_000032_000005.html" target="_top">
<path fill="none" stroke="#63b8ff" d="M94.79,-129.14C99.86,-120.18 107.01,-106.38 111,-93.5 115.59,-78.71 118.11,-61.38 119.47,-48.18"/>
<polygon fill="#63b8ff" stroke="#63b8ff" points="122.93,-48.77 120.32,-38.5 115.96,-48.16 122.93,-48.77"/>
</a>
</g>
<g id="a_edge5&#45;headlabel"><a xlink:href="dir_000032_000005.html" target="_top" xlink:title="3">
<text text-anchor="middle" x="125.58" y="-47.97" font-family="Helvetica,sans-Serif" font-size="10.00" fill="#63b8ff">3</text>
</a>
</g>
</g>
<!-- dir_8103d3fde0bf3eea864fcd050a339ac8&#45;&gt;dir_5138cdf650ac6d86ddcfb916ed96a97c -->
<g id="edge3" class="edge">
<title>dir_8103d3fde0bf3eea864fcd050a339ac8&#45;&gt;dir_5138cdf650ac6d86ddcfb916ed96a97c</title>
<g id="a_edge3"><a xlink:href="dir_000032_000014.html" target="_top">
<path fill="none" stroke="#63b8ff" d="M88.64,-129.09C88.4,-122.47 88.07,-113.47 87.77,-105.27"/>
<polygon fill="#63b8ff" stroke="#63b8ff" points="91.27,-105.21 87.41,-95.34 84.28,-105.46 91.27,-105.21"/>
</a>
</g>
<g id="a_edge3&#45;headlabel"><a xlink:href="dir_000032_000014.html" target="_top" xlink:title="27">
<text text-anchor="middle" x="94.19" y="-104.06" font-family="Helvetica,sans-Serif" font-size="10.00" fill="#63b8ff">27</text>
</a>
</g>
</g>
</g>
</svg>
