<?xml version="1.0" encoding="UTF-8" standalone="no"?>
<!DOCTYPE svg PUBLIC "-//W3C//DTD SVG 1.1//EN"
 "http://www.w3.org/Graphics/SVG/1.1/DTD/svg11.dtd">
<!-- Generated by graphviz version 12.1.2 (20240928.0832)
 -->
<!-- Title: vlcb Pages: 1 -->
<svg width="160pt" height="187pt"
 viewBox="0.00 0.00 160.47 187.00" xmlns="http://www.w3.org/2000/svg" xmlns:xlink="http://www.w3.org/1999/xlink">
<g id="graph0" class="graph" transform="scale(1 1) rotate(0) translate(4 183)">
<title>vlcb</title>
<g id="clust1" class="cluster">
<title>clusterdir_9b91cb305f6dfd5edb8153d5019adc55</title>
<g id="a_clust1"><a xlink:href="dir_9b91cb305f6dfd5edb8153d5019adc55.html" target="_top" xlink:title="inc">
<polygon fill="#edf0f7" stroke="#7f7f7f" stroke-dasharray="5,2" points="54.47,-40.75 54.47,-171 138.47,-171 138.47,-40.75 54.47,-40.75"/>
<text text-anchor="middle" x="96.47" y="-157.5" font-family="Helvetica,sans-Serif" font-size="10.00">inc</text>
</a>
</g>
</g>
<g id="clust2" class="cluster">
<title>clusterdir_b4686c7d95654e559dd53a51c5f9973d</title>
<g id="a_clust2"><a xlink:href="dir_b4686c7d95654e559dd53a51c5f9973d.html" target="_top">
<polygon fill="#edf0f7" stroke="#404040" stroke-width="2" points="62.47,-48.75 62.47,-142.25 130.47,-142.25 130.47,-48.75 62.47,-48.75"/>
</a>
</g>
</g>
<!-- dir_b4686c7d95654e559dd53a51c5f9973d -->
<g id="node1" class="node">
<title>dir_b4686c7d95654e559dd53a51c5f9973d</title>
<text text-anchor="middle" x="92.47" y="-120.75" font-family="Helvetica,sans-Serif" font-size="10.00">vlcb</text>
</g>
<!-- dir_f673efdf78fd9fab3b10e456f0aece08 -->
<g id="node2" class="node">
<title>dir_f673efdf78fd9fab3b10e456f0aece08</title>
<g id="a_node2"><a xlink:href="dir_f673efdf78fd9fab3b10e456f0aece08.html" target="_top" xlink:title="module">
<polygon fill="#a2b4d6" stroke="#404040" points="122.84,-77.5 70.09,-77.5 70.09,-56.75 122.84,-56.75 122.84,-77.5"/>
<text text-anchor="middle" x="96.47" y="-64" font-family="Helvetica,sans-Serif" font-size="10.00">module</text>
</a>
</g>
</g>
<!-- dir_b4686c7d95654e559dd53a51c5f9973d&#45;&gt;dir_f673efdf78fd9fab3b10e456f0aece08 -->
<g id="edge4" class="edge">
<title>dir_b4686c7d95654e559dd53a51c5f9973d&#45;&gt;dir_f673efdf78fd9fab3b10e456f0aece08</title>
<g id="a_edge4"><a xlink:href="dir_000036_000017.html" target="_top">
<path fill="none" stroke="#63b8ff" d="M93.13,-113.83C93.62,-107.14 94.3,-97.74 94.93,-89.21"/>
<polygon fill="#63b8ff" stroke="#63b8ff" points="98.42,-89.47 95.65,-79.24 91.44,-88.96 98.42,-89.47"/>
</a>
</g>
<g id="a_edge4&#45;headlabel"><a xlink:href="dir_000036_000017.html" target="_top" xlink:title="3">
<text text-anchor="middle" x="101.1" y="-88.63" font-family="Helvetica,sans-Serif" font-size="10.00" fill="#63b8ff">3</text>
</a>
</g>
</g>
<!-- dir_427baa8a9a5be237f298d4545d0d1ce2 -->
<g id="node3" class="node">
<title>dir_427baa8a9a5be237f298d4545d0d1ce2</title>
<g id="a_node3"><a xlink:href="dir_427baa8a9a5be237f298d4545d0d1ce2.html" target="_top" xlink:title="net">
<polygon fill="#edf0f7" stroke="red" points="46.34,-77.5 14.59,-77.5 14.59,-56.75 46.34,-56.75 46.34,-77.5"/>
<text text-anchor="middle" x="30.47" y="-64" font-family="Helvetica,sans-Serif" font-size="10.00">net</text>
</a>
</g>
</g>
<!-- dir_b4686c7d95654e559dd53a51c5f9973d&#45;&gt;dir_427baa8a9a5be237f298d4545d0d1ce2 -->
<g id="edge1" class="edge">
<title>dir_b4686c7d95654e559dd53a51c5f9973d&#45;&gt;dir_427baa8a9a5be237f298d4545d0d1ce2</title>
<g id="a_edge1"><a xlink:href="dir_000036_000019.html" target="_top">
<path fill="none" stroke="#63b8ff" d="M81.95,-113.59C73.19,-105.85 60.47,-94.62 49.86,-85.25"/>
<polygon fill="#63b8ff" stroke="#63b8ff" points="52.19,-82.64 42.38,-78.64 47.56,-87.89 52.19,-82.64"/>
</a>
</g>
<g id="a_edge1&#45;headlabel"><a xlink:href="dir_000036_000019.html" target="_top" xlink:title="2">
<text text-anchor="middle" x="55.63" y="-78.76" font-family="Helvetica,sans-Serif" font-size="10.00" fill="#63b8ff">2</text>
</a>
</g>
</g>
<!-- dir_bdd9a5d540de89e9fe90efdfc6973a4f -->
<g id="node4" class="node">
<title>dir_bdd9a5d540de89e9fe90efdfc6973a4f</title>
<g id="a_node4"><a xlink:href="dir_bdd9a5d540de89e9fe90efdfc6973a4f.html" target="_top" xlink:title="common">
<polygon fill="#edf0f7" stroke="red" points="59.84,-20.75 1.09,-20.75 1.09,0 59.84,0 59.84,-20.75"/>
<text text-anchor="middle" x="30.47" y="-7.25" font-family="Helvetica,sans-Serif" font-size="10.00">common</text>
</a>
</g>
</g>
<!-- dir_b4686c7d95654e559dd53a51c5f9973d&#45;&gt;dir_bdd9a5d540de89e9fe90efdfc6973a4f -->
<g id="edge2" class="edge">
<title>dir_b4686c7d95654e559dd53a51c5f9973d&#45;&gt;dir_bdd9a5d540de89e9fe90efdfc6973a4f</title>
<g id="a_edge2"><a xlink:href="dir_000036_000005.html" target="_top">
<path fill="none" stroke="#63b8ff" d="M74.69,-119.34C53.92,-114.15 20.48,-102.26 5.47,-77.5 -3,-63.53 -0.17,-56.08 5.47,-40.75 6.9,-36.86 9.1,-33.14 11.61,-29.72"/>
<polygon fill="#63b8ff" stroke="#63b8ff" points="14.24,-32.04 18.15,-22.19 8.95,-27.45 14.24,-32.04"/>
</a>
</g>
<g id="a_edge2&#45;headlabel"><a xlink:href="dir_000036_000005.html" target="_top" xlink:title="4">
<text text-anchor="middle" x="15.01" y="-32.35" font-family="Helvetica,sans-Serif" font-size="10.00" fill="#63b8ff">4</text>
</a>
</g>
</g>
<!-- dir_c5a52a81292cf9a5167198f4f346d6d9 -->
<g id="node5" class="node">
<title>dir_c5a52a81292cf9a5167198f4f346d6d9</title>
<g id="a_node5"><a xlink:href="dir_c5a52a81292cf9a5167198f4f346d6d9.html" target="_top" xlink:title="platform">
<polygon fill="#edf0f7" stroke="red" points="152.47,-20.75 94.47,-20.75 94.47,0 152.47,0 152.47,-20.75"/>
<text text-anchor="middle" x="123.47" y="-7.25" font-family="Helvetica,sans-Serif" font-size="10.00">platform</text>
</a>
</g>
</g>
<!-- dir_b4686c7d95654e559dd53a51c5f9973d&#45;&gt;dir_c5a52a81292cf9a5167198f4f346d6d9 -->
<g id="edge3" class="edge">
<title>dir_b4686c7d95654e559dd53a51c5f9973d&#45;&gt;dir_c5a52a81292cf9a5167198f4f346d6d9</title>
<g id="a_edge3"><a xlink:href="dir_000036_000024.html" target="_top">
<path fill="none" stroke="#63b8ff" d="M103.83,-113.82C113.26,-105.53 125.98,-92.3 131.47,-77.5 136.88,-62.89 134.38,-45.34 130.8,-31.99"/>
<polygon fill="#63b8ff" stroke="#63b8ff" points="134.17,-31.06 127.85,-22.57 127.49,-33.15 134.17,-31.06"/>
</a>
</g>
<g id="a_edge3&#45;headlabel"><a xlink:href="dir_000036_000024.html" target="_top" xlink:title="4">
<text text-anchor="middle" x="137.5" y="-29.08" font-family="Helvetica,sans-Serif" font-size="10.00" fill="#63b8ff">4</text>
</a>
</g>
</g>
<!-- dir_f673efdf78fd9fab3b10e456f0aece08&#45;&gt;dir_bdd9a5d540de89e9fe90efdfc6973a4f -->
<g id="edge5" class="edge">
<title>dir_f673efdf78fd9fab3b10e456f0aece08&#45;&gt;dir_bdd9a5d540de89e9fe90efdfc6973a4f</title>
<g id="a_edge5"><a xlink:href="dir_000017_000005.html" target="_top">
<path fill="none" stroke="#63b8ff" d="M84.67,-56.34C75.28,-48.55 61.93,-37.47 50.83,-28.26"/>
<polygon fill="#63b8ff" stroke="#63b8ff" points="53.26,-25.74 43.33,-22.04 48.79,-31.12 53.26,-25.74"/>
</a>
</g>
<g id="a_edge5&#45;headlabel"><a xlink:href="dir_000017_000005.html" target="_top" xlink:title="3">
<text text-anchor="middle" x="56.68" y="-21.75" font-family="Helvetica,sans-Serif" font-size="10.00" fill="#63b8ff">3</text>
</a>
</g>
</g>
<!-- dir_f673efdf78fd9fab3b10e456f0aece08&#45;&gt;dir_c5a52a81292cf9a5167198f4f346d6d9 -->
<g id="edge6" class="edge">
<title>dir_f673efdf78fd9fab3b10e456f0aece08&#45;&gt;dir_c5a52a81292cf9a5167198f4f346d6d9</title>
<g id="a_edge6"><a xlink:href="dir_000017_000024.html" target="_top">
<path fill="none" stroke="#63b8ff" d="M101.29,-56.34C104.71,-49.41 109.41,-39.87 113.61,-31.36"/>
<polygon fill="#63b8ff" stroke="#63b8ff" points="116.73,-32.95 118.01,-22.44 110.45,-29.86 116.73,-32.95"/>
</a>
</g>
<g id="a_edge6&#45;headlabel"><a xlink:href="dir_000017_000024.html" target="_top" xlink:title="3">
<text text-anchor="middle" x="118.35" y="-32.95" font-family="Helvetica,sans-Serif" font-size="10.00" fill="#63b8ff">3</text>
</a>
</g>
</g>
</g>
</svg>
