<?xml version="1.0" encoding="UTF-8" standalone="no"?>
<!DOCTYPE svg PUBLIC "-//W3C//DTD SVG 1.1//EN"
 "http://www.w3.org/Graphics/SVG/1.1/DTD/svg11.dtd">
<!-- Generated by graphviz version 12.1.2 (20240928.0832)
 -->
<!-- Title: src Pages: 1 -->
<svg width="553pt" height="146pt"
 viewBox="0.00 0.00 553.00 146.25" xmlns="http://www.w3.org/2000/svg" xmlns:xlink="http://www.w3.org/1999/xlink">
<g id="graph0" class="graph" transform="scale(1 1) rotate(0) translate(4 142.25)">
<title>src</title>
<g id="clust1" class="cluster">
<title>clusterdir_923c80758d00fd62f29a99e232049d19</title>
<g id="a_clust1"><a xlink:href="dir_923c80758d00fd62f29a99e232049d19.html" target="_top" xlink:title="net">
<polygon fill="#edf0f7" stroke="#7f7f7f" stroke-dasharray="5,2" points="8,-8 8,-130.25 403,-130.25 403,-8 8,-8"/>
<text text-anchor="middle" x="205.5" y="-116.75" font-family="Helvetica,sans-Serif" font-size="10.00">net</text>
</a>
</g>
</g>
<g id="clust2" class="cluster">
<title>clusterdir_8103d3fde0bf3eea864fcd050a339ac8</title>
<g id="a_clust2"><a xlink:href="dir_8103d3fde0bf3eea864fcd050a339ac8.html" target="_top">
<polygon fill="#edf0f7" stroke="#404040" stroke-width="2" points="16,-64.75 16,-101.5 395,-101.5 395,-64.75 16,-64.75"/>
</a>
</g>
</g>
<!-- dir_5138cdf650ac6d86ddcfb916ed96a97c -->
<g id="node1" class="node">
<title>dir_5138cdf650ac6d86ddcfb916ed96a97c</title>
<g id="a_node1"><a xlink:href="dir_5138cdf650ac6d86ddcfb916ed96a97c.html" target="_top" xlink:title="inc">
<polygon fill="#a2b4d6" stroke="red" points="215.12,-36.75 184.88,-36.75 184.88,-16 215.12,-16 215.12,-36.75"/>
<text text-anchor="middle" x="200" y="-23.25" font-family="Helvetica,sans-Serif" font-size="10.00">inc</text>
</a>
</g>
</g>
<!-- dir_8103d3fde0bf3eea864fcd050a339ac8 -->
<g id="node2" class="node">
<title>dir_8103d3fde0bf3eea864fcd050a339ac8</title>
<text text-anchor="middle" x="110" y="-80" font-family="Helvetica,sans-Serif" font-size="10.00">src</text>
</g>
<!-- dir_8103d3fde0bf3eea864fcd050a339ac8&#45;&gt;dir_5138cdf650ac6d86ddcfb916ed96a97c -->
<g id="edge1" class="edge">
<title>dir_8103d3fde0bf3eea864fcd050a339ac8&#45;&gt;dir_5138cdf650ac6d86ddcfb916ed96a97c</title>
<g id="a_edge1"><a xlink:href="dir_000032_000014.html" target="_top">
<path fill="none" stroke="#63b8ff" d="M122.03,-73.02C125.8,-70.27 130.02,-67.31 134,-64.75 147.03,-56.38 162.01,-47.82 174.4,-41"/>
<polygon fill="#63b8ff" stroke="#63b8ff" points="176.06,-44.08 183.18,-36.23 172.72,-37.93 176.06,-44.08"/>
</a>
</g>
<g id="a_edge1&#45;headlabel"><a xlink:href="dir_000032_000014.html" target="_top" xlink:title="27">
<text text-anchor="middle" x="175.59" y="-44.45" font-family="Helvetica,sans-Serif" font-size="10.00" fill="#63b8ff">27</text>
</a>
</g>
</g>
<!-- dir_9a5e51f49964887903df6eed98080585 -->
<g id="node9" class="node">
<title>dir_9a5e51f49964887903df6eed98080585</title>
<g id="a_node9"><a xlink:href="dir_9a5e51f49964887903df6eed98080585.html" target="_top" xlink:title="common">
<polygon fill="#edf0f7" stroke="red" stroke-dasharray="5,2" points="469.38,-36.75 410.62,-36.75 410.62,-16 469.38,-16 469.38,-36.75"/>
<text text-anchor="middle" x="440" y="-23.25" font-family="Helvetica,sans-Serif" font-size="10.00">common</text>
</a>
</g>
</g>
<!-- dir_8103d3fde0bf3eea864fcd050a339ac8&#45;&gt;dir_9a5e51f49964887903df6eed98080585 -->
<g id="edge2" class="edge">
<title>dir_8103d3fde0bf3eea864fcd050a339ac8&#45;&gt;dir_9a5e51f49964887903df6eed98080585</title>
<g id="a_edge2"><a xlink:href="dir_000032_000005.html" target="_top">
<path fill="none" stroke="#63b8ff" d="M120.05,-73.04C124.1,-69.88 129,-66.66 134,-64.75 244.4,-22.64 284.69,-57.4 398.91,-38.13"/>
<polygon fill="#63b8ff" stroke="#63b8ff" points="399.49,-41.58 408.71,-36.36 398.24,-34.7 399.49,-41.58"/>
</a>
</g>
<g id="a_edge2&#45;headlabel"><a xlink:href="dir_000032_000005.html" target="_top" xlink:title="3">
<text text-anchor="middle" x="397.94" y="-41.62" font-family="Helvetica,sans-Serif" font-size="10.00" fill="#63b8ff">3</text>
</a>
</g>
</g>
<!-- dir_b1d87080b9d51d42f0997a2ae737badd -->
<g id="node3" class="node">
<title>dir_b1d87080b9d51d42f0997a2ae737badd</title>
<g id="a_node3"><a xlink:href="dir_b1d87080b9d51d42f0997a2ae737badd.html" target="_top" xlink:title="adapter">
<polygon fill="#a2b4d6" stroke="#404040" points="328.75,-93.5 275.25,-93.5 275.25,-72.75 328.75,-72.75 328.75,-93.5"/>
<text text-anchor="middle" x="302" y="-80" font-family="Helvetica,sans-Serif" font-size="10.00">adapter</text>
</a>
</g>
</g>
<!-- dir_b1d87080b9d51d42f0997a2ae737badd&#45;&gt;dir_5138cdf650ac6d86ddcfb916ed96a97c -->
<g id="edge3" class="edge">
<title>dir_b1d87080b9d51d42f0997a2ae737badd&#45;&gt;dir_5138cdf650ac6d86ddcfb916ed96a97c</title>
<g id="a_edge3"><a xlink:href="dir_000001_000014.html" target="_top">
<path fill="none" stroke="#63b8ff" d="M283.76,-72.34C267.48,-63.59 243.46,-50.7 225.31,-40.96"/>
<polygon fill="#63b8ff" stroke="#63b8ff" points="227.21,-38.01 216.75,-36.36 223.9,-44.18 227.21,-38.01"/>
</a>
</g>
<g id="a_edge3&#45;headlabel"><a xlink:href="dir_000001_000014.html" target="_top" xlink:title="2">
<text text-anchor="middle" x="230.39" y="-33.37" font-family="Helvetica,sans-Serif" font-size="10.00" fill="#63b8ff">2</text>
</a>
</g>
</g>
<!-- dir_88aae3d0f25401488c8c6aff1f39c0de -->
<g id="node8" class="node">
<title>dir_88aae3d0f25401488c8c6aff1f39c0de</title>
<g id="a_node8"><a xlink:href="dir_88aae3d0f25401488c8c6aff1f39c0de.html" target="_top" xlink:title="platform">
<polygon fill="#edf0f7" stroke="red" stroke-dasharray="5,2" points="545,-36.75 487,-36.75 487,-16 545,-16 545,-36.75"/>
<text text-anchor="middle" x="516" y="-23.25" font-family="Helvetica,sans-Serif" font-size="10.00">platform</text>
</a>
</g>
</g>
<!-- dir_b1d87080b9d51d42f0997a2ae737badd&#45;&gt;dir_88aae3d0f25401488c8c6aff1f39c0de -->
<g id="edge5" class="edge">
<title>dir_b1d87080b9d51d42f0997a2ae737badd&#45;&gt;dir_88aae3d0f25401488c8c6aff1f39c0de</title>
<g id="a_edge5"><a xlink:href="dir_000001_000025.html" target="_top">
<path fill="none" stroke="#63b8ff" d="M319.94,-72.37C325.59,-69.59 331.95,-66.78 338,-64.75 394.87,-45.68 413.98,-50 475.46,-37.18"/>
<polygon fill="#63b8ff" stroke="#63b8ff" points="476.06,-40.63 485.09,-35.09 474.58,-33.79 476.06,-40.63"/>
</a>
</g>
<g id="a_edge5&#45;headlabel"><a xlink:href="dir_000001_000025.html" target="_top" xlink:title="1">
<text text-anchor="middle" x="474.63" y="-40.72" font-family="Helvetica,sans-Serif" font-size="10.00" fill="#63b8ff">1</text>
</a>
</g>
</g>
<!-- dir_b1d87080b9d51d42f0997a2ae737badd&#45;&gt;dir_9a5e51f49964887903df6eed98080585 -->
<g id="edge4" class="edge">
<title>dir_b1d87080b9d51d42f0997a2ae737badd&#45;&gt;dir_9a5e51f49964887903df6eed98080585</title>
<g id="a_edge4"><a xlink:href="dir_000001_000005.html" target="_top">
<path fill="none" stroke="#63b8ff" d="M321.27,-72.39C326.64,-69.8 332.5,-67.08 338,-64.75 358.33,-56.15 381.38,-47.6 400.43,-40.85"/>
<polygon fill="#63b8ff" stroke="#63b8ff" points="401.42,-44.21 409.7,-37.6 399.1,-37.61 401.42,-44.21"/>
</a>
</g>
<g id="a_edge4&#45;headlabel"><a xlink:href="dir_000001_000005.html" target="_top" xlink:title="1">
<text text-anchor="middle" x="400.4" y="-44.46" font-family="Helvetica,sans-Serif" font-size="10.00" fill="#63b8ff">1</text>
</a>
</g>
</g>
<!-- dir_7bcc422cfd6c84d24738cfbbc52a056a -->
<g id="node4" class="node">
<title>dir_7bcc422cfd6c84d24738cfbbc52a056a</title>
<g id="a_node4"><a xlink:href="dir_7bcc422cfd6c84d24738cfbbc52a056a.html" target="_top" xlink:title="iface">
<polygon fill="#a2b4d6" stroke="#404040" points="387,-93.5 347,-93.5 347,-72.75 387,-72.75 387,-93.5"/>
<text text-anchor="middle" x="367" y="-80" font-family="Helvetica,sans-Serif" font-size="10.00">iface</text>
</a>
</g>
</g>
<!-- dir_7bcc422cfd6c84d24738cfbbc52a056a&#45;&gt;dir_5138cdf650ac6d86ddcfb916ed96a97c -->
<g id="edge6" class="edge">
<title>dir_7bcc422cfd6c84d24738cfbbc52a056a&#45;&gt;dir_5138cdf650ac6d86ddcfb916ed96a97c</title>
<g id="a_edge6"><a xlink:href="dir_000011_000014.html" target="_top">
<path fill="none" stroke="#63b8ff" d="M352.36,-72.29C347.89,-69.58 342.86,-66.82 338,-64.75 300.63,-48.85 254.65,-38.01 226.34,-32.25"/>
<polygon fill="#63b8ff" stroke="#63b8ff" points="227.33,-28.88 216.85,-30.39 225.99,-35.75 227.33,-28.88"/>
</a>
</g>
<g id="a_edge6&#45;headlabel"><a xlink:href="dir_000011_000014.html" target="_top" xlink:title="12">
<text text-anchor="middle" x="229.92" y="-23.37" font-family="Helvetica,sans-Serif" font-size="10.00" fill="#63b8ff">12</text>
</a>
</g>
</g>
<!-- dir_7bcc422cfd6c84d24738cfbbc52a056a&#45;&gt;dir_88aae3d0f25401488c8c6aff1f39c0de -->
<g id="edge7" class="edge">
<title>dir_7bcc422cfd6c84d24738cfbbc52a056a&#45;&gt;dir_88aae3d0f25401488c8c6aff1f39c0de</title>
<g id="a_edge7"><a xlink:href="dir_000011_000025.html" target="_top">
<path fill="none" stroke="#63b8ff" d="M387.41,-74.63C410.87,-66.01 449.86,-51.68 478.77,-41.05"/>
<polygon fill="#63b8ff" stroke="#63b8ff" points="479.71,-44.44 487.88,-37.71 477.29,-37.87 479.71,-44.44"/>
</a>
</g>
<g id="a_edge7&#45;headlabel"><a xlink:href="dir_000011_000025.html" target="_top" xlink:title="4">
<text text-anchor="middle" x="478.73" y="-44.7" font-family="Helvetica,sans-Serif" font-size="10.00" fill="#63b8ff">4</text>
</a>
</g>
</g>
<!-- dir_a51c3b514b73972b2220e3c56dfd9104 -->
<g id="node5" class="node">
<title>dir_a51c3b514b73972b2220e3c56dfd9104</title>
<g id="a_node5"><a xlink:href="dir_a51c3b514b73972b2220e3c56dfd9104.html" target="_top" xlink:title="packet">
<polygon fill="#a2b4d6" stroke="#404040" points="191.12,-93.5 142.88,-93.5 142.88,-72.75 191.12,-72.75 191.12,-93.5"/>
<text text-anchor="middle" x="167" y="-80" font-family="Helvetica,sans-Serif" font-size="10.00">packet</text>
</a>
</g>
</g>
<!-- dir_a51c3b514b73972b2220e3c56dfd9104&#45;&gt;dir_5138cdf650ac6d86ddcfb916ed96a97c -->
<g id="edge8" class="edge">
<title>dir_a51c3b514b73972b2220e3c56dfd9104&#45;&gt;dir_5138cdf650ac6d86ddcfb916ed96a97c</title>
<g id="a_edge8"><a xlink:href="dir_000024_000014.html" target="_top">
<path fill="none" stroke="#63b8ff" d="M172.9,-72.34C177.17,-65.25 183.08,-55.44 188.3,-46.79"/>
<polygon fill="#63b8ff" stroke="#63b8ff" points="191.21,-48.75 193.37,-38.37 185.21,-45.13 191.21,-48.75"/>
</a>
</g>
<g id="a_edge8&#45;headlabel"><a xlink:href="dir_000024_000014.html" target="_top" xlink:title="4">
<text text-anchor="middle" x="192.56" y="-48.87" font-family="Helvetica,sans-Serif" font-size="10.00" fill="#63b8ff">4</text>
</a>
</g>
</g>
<!-- dir_a51c3b514b73972b2220e3c56dfd9104&#45;&gt;dir_88aae3d0f25401488c8c6aff1f39c0de -->
<g id="edge9" class="edge">
<title>dir_a51c3b514b73972b2220e3c56dfd9104&#45;&gt;dir_88aae3d0f25401488c8c6aff1f39c0de</title>
<g id="a_edge9"><a xlink:href="dir_000024_000025.html" target="_top">
<path fill="none" stroke="#63b8ff" d="M182.58,-72.35C187.92,-69.43 194.05,-66.54 200,-64.75 315.42,-29.99 353.41,-56.26 475.35,-36.93"/>
<polygon fill="#63b8ff" stroke="#63b8ff" points="475.85,-40.4 485.14,-35.31 474.7,-33.5 475.85,-40.4"/>
</a>
</g>
<g id="a_edge9&#45;headlabel"><a xlink:href="dir_000024_000025.html" target="_top" xlink:title="2">
<text text-anchor="middle" x="474.26" y="-40.42" font-family="Helvetica,sans-Serif" font-size="10.00" fill="#63b8ff">2</text>
</a>
</g>
</g>
<!-- dir_a51c3b514b73972b2220e3c56dfd9104&#45;&gt;dir_9a5e51f49964887903df6eed98080585 -->
<g id="edge10" class="edge">
<title>dir_a51c3b514b73972b2220e3c56dfd9104&#45;&gt;dir_9a5e51f49964887903df6eed98080585</title>
<g id="a_edge10"><a xlink:href="dir_000024_000005.html" target="_top">
<path fill="none" stroke="#63b8ff" d="M182.96,-72.28C188.21,-69.44 194.2,-66.6 200,-64.75 284.8,-37.63 313.74,-54.21 398.94,-38.28"/>
<polygon fill="#63b8ff" stroke="#63b8ff" points="399.57,-41.72 408.7,-36.34 398.21,-34.85 399.57,-41.72"/>
</a>
</g>
<g id="a_edge10&#45;headlabel"><a xlink:href="dir_000024_000005.html" target="_top" xlink:title="1">
<text text-anchor="middle" x="398.08" y="-41.78" font-family="Helvetica,sans-Serif" font-size="10.00" fill="#63b8ff">1</text>
</a>
</g>
</g>
<!-- dir_37faabceefe72a18ec9045b287e36c65 -->
<g id="node6" class="node">
<title>dir_37faabceefe72a18ec9045b287e36c65</title>
<g id="a_node6"><a xlink:href="dir_37faabceefe72a18ec9045b287e36c65.html" target="_top" xlink:title="socket">
<polygon fill="#a2b4d6" stroke="#404040" points="256.75,-93.5 209.25,-93.5 209.25,-72.75 256.75,-72.75 256.75,-93.5"/>
<text text-anchor="middle" x="233" y="-80" font-family="Helvetica,sans-Serif" font-size="10.00">socket</text>
</a>
</g>
</g>
<!-- dir_37faabceefe72a18ec9045b287e36c65&#45;&gt;dir_5138cdf650ac6d86ddcfb916ed96a97c -->
<g id="edge11" class="edge">
<title>dir_37faabceefe72a18ec9045b287e36c65&#45;&gt;dir_5138cdf650ac6d86ddcfb916ed96a97c</title>
<g id="a_edge11"><a xlink:href="dir_000029_000014.html" target="_top">
<path fill="none" stroke="#63b8ff" d="M227.1,-72.34C222.83,-65.25 216.92,-55.44 211.7,-46.79"/>
<polygon fill="#63b8ff" stroke="#63b8ff" points="214.79,-45.13 206.63,-38.37 208.79,-48.75 214.79,-45.13"/>
</a>
</g>
<g id="a_edge11&#45;headlabel"><a xlink:href="dir_000029_000014.html" target="_top" xlink:title="7">
<text text-anchor="middle" x="218.3" y="-42.32" font-family="Helvetica,sans-Serif" font-size="10.00" fill="#63b8ff">7</text>
</a>
</g>
</g>
<!-- dir_37faabceefe72a18ec9045b287e36c65&#45;&gt;dir_88aae3d0f25401488c8c6aff1f39c0de -->
<g id="edge12" class="edge">
<title>dir_37faabceefe72a18ec9045b287e36c65&#45;&gt;dir_88aae3d0f25401488c8c6aff1f39c0de</title>
<g id="a_edge12"><a xlink:href="dir_000029_000025.html" target="_top">
<path fill="none" stroke="#63b8ff" d="M248.95,-72.27C254.21,-69.43 260.2,-66.59 266,-64.75 353.21,-37.01 382.44,-53.08 475.55,-36.98"/>
<polygon fill="#63b8ff" stroke="#63b8ff" points="475.91,-40.47 485.12,-35.24 474.66,-33.58 475.91,-40.47"/>
</a>
</g>
<g id="a_edge12&#45;headlabel"><a xlink:href="dir_000029_000025.html" target="_top" xlink:title="1">
<text text-anchor="middle" x="474.37" y="-40.51" font-family="Helvetica,sans-Serif" font-size="10.00" fill="#63b8ff">1</text>
</a>
</g>
</g>
<!-- dir_ad0225da41cedea3d7b6c68602b0062f -->
<g id="node7" class="node">
<title>dir_ad0225da41cedea3d7b6c68602b0062f</title>
<g id="a_node7"><a xlink:href="dir_ad0225da41cedea3d7b6c68602b0062f.html" target="_top" xlink:title="storage">
<polygon fill="#a2b4d6" stroke="#404040" points="76.38,-93.5 23.62,-93.5 23.62,-72.75 76.38,-72.75 76.38,-93.5"/>
<text text-anchor="middle" x="50" y="-80" font-family="Helvetica,sans-Serif" font-size="10.00">storage</text>
</a>
</g>
</g>
<!-- dir_ad0225da41cedea3d7b6c68602b0062f&#45;&gt;dir_5138cdf650ac6d86ddcfb916ed96a97c -->
<g id="edge13" class="edge">
<title>dir_ad0225da41cedea3d7b6c68602b0062f&#45;&gt;dir_5138cdf650ac6d86ddcfb916ed96a97c</title>
<g id="a_edge13"><a xlink:href="dir_000035_000014.html" target="_top">
<path fill="none" stroke="#63b8ff" d="M69.22,-72.27C74.59,-69.67 80.46,-66.98 86,-64.75 115.58,-52.82 150.56,-41.79 173.9,-34.85"/>
<polygon fill="#63b8ff" stroke="#63b8ff" points="174.58,-38.3 183.2,-32.13 172.62,-31.58 174.58,-38.3"/>
</a>
</g>
<g id="a_edge13&#45;headlabel"><a xlink:href="dir_000035_000014.html" target="_top" xlink:title="1">
<text text-anchor="middle" x="173.39" y="-38.48" font-family="Helvetica,sans-Serif" font-size="10.00" fill="#63b8ff">1</text>
</a>
</g>
</g>
</g>
</svg>
