<?xml version="1.0" encoding="UTF-8" standalone="no"?>
<!DOCTYPE svg PUBLIC "-//W3C//DTD SVG 1.1//EN"
 "http://www.w3.org/Graphics/SVG/1.1/DTD/svg11.dtd">
<!-- Generated by graphviz version 12.1.2 (20240928.0832)
 -->
<!-- Title: htons Pages: 1 -->
<svg width="457pt" height="106pt"
 viewBox="0.00 0.00 456.50 106.25" xmlns="http://www.w3.org/2000/svg" xmlns:xlink="http://www.w3.org/1999/xlink">
<g id="graph0" class="graph" transform="scale(1 1) rotate(0) translate(4 102.25)">
<title>htons</title>
<!-- Node1 -->
<g id="Node000001" class="node">
<title>Node1</title>
<g id="a_Node000001"><a xlink:title=" ">
<polygon fill="#999999" stroke="#666666" points="448.5,-59.5 405.5,-59.5 405.5,-38.75 448.5,-38.75 448.5,-59.5"/>
<text text-anchor="middle" x="427" y="-46" font-family="Helvetica,sans-Serif" font-size="10.00">htons</text>
</a>
</g>
</g>
<!-- Node2 -->
<g id="Node000002" class="node">
<title>Node2</title>
<g id="a_Node000002"><a xlink:href="endian_8h.html#a433eb2718ba6c2a08ff649a475ebe7f6" target="_top" xlink:title=" ">
<polygon fill="white" stroke="#666666" points="307.62,-85.5 264.62,-85.5 264.62,-64.75 307.62,-64.75 307.62,-85.5"/>
<text text-anchor="middle" x="286.12" y="-72" font-family="Helvetica,sans-Serif" font-size="10.00">ntohs</text>
</a>
</g>
</g>
<!-- Node1&#45;&gt;Node2 -->
<g id="edge1_Node000001_Node000002" class="edge">
<title>Node1&#45;&gt;Node2</title>
<g id="a_edge1_Node000001_Node000002"><a xlink:title=" ">
<path fill="none" stroke="#63b8ff" d="M394.24,-55.07C367.81,-60.02 330.92,-66.93 308.06,-71.21"/>
<polygon fill="#63b8ff" stroke="#63b8ff" points="394.54,-58.58 403.72,-53.3 393.25,-51.7 394.54,-58.58"/>
</a>
</g>
</g>
<!-- Node4 -->
<g id="Node000004" class="node">
<title>Node4</title>
<g id="a_Node000004"><a xlink:href="release__node__num__serialize_8c.html#a6ce1648d9ec218fbfc991dc47aa92c95" target="_top" xlink:title=" ">
<polygon fill="white" stroke="#666666" points="369.5,-46.25 202.75,-46.25 202.75,0 369.5,0 369.5,-46.25"/>
<text text-anchor="start" x="210.75" y="-32.75" font-family="Helvetica,sans-Serif" font-size="10.00">vlcb_net_pkt_dgram</text>
<text text-anchor="start" x="210.75" y="-20" font-family="Helvetica,sans-Serif" font-size="10.00">_module_ReleaseNodeNumber</text>
<text text-anchor="middle" x="286.12" y="-7.25" font-family="Helvetica,sans-Serif" font-size="10.00">_serialize</text>
</a>
</g>
</g>
<!-- Node1&#45;&gt;Node4 -->
<g id="edge3_Node000001_Node000004" class="edge">
<title>Node1&#45;&gt;Node4</title>
<g id="a_edge3_Node000001_Node000004"><a xlink:title=" ">
<path fill="none" stroke="#63b8ff" d="M393.95,-43.12C386.53,-41.74 378.31,-40.2 369.81,-38.61"/>
<polygon fill="#63b8ff" stroke="#63b8ff" points="393.25,-46.55 403.72,-44.95 394.54,-39.67 393.25,-46.55"/>
</a>
</g>
</g>
<!-- Node3 -->
<g id="Node000003" class="node">
<title>Node3</title>
<g id="a_Node000003"><a xlink:href="release__node__num__deserialize_8c.html#ac810a606f42e003e28eec332aa3ce27a" target="_top" xlink:title=" ">
<polygon fill="white" stroke="#666666" points="166.75,-98.25 0,-98.25 0,-52 166.75,-52 166.75,-98.25"/>
<text text-anchor="start" x="8" y="-84.75" font-family="Helvetica,sans-Serif" font-size="10.00">vlcb_net_pkt_dgram</text>
<text text-anchor="start" x="8" y="-72" font-family="Helvetica,sans-Serif" font-size="10.00">_module_ReleaseNodeNumber</text>
<text text-anchor="middle" x="83.38" y="-59.25" font-family="Helvetica,sans-Serif" font-size="10.00">_deserialize</text>
</a>
</g>
</g>
<!-- Node2&#45;&gt;Node3 -->
<g id="edge2_Node000002_Node000003" class="edge">
<title>Node2&#45;&gt;Node3</title>
<g id="a_edge2_Node000002_Node000003"><a xlink:title=" ">
<path fill="none" stroke="#63b8ff" d="M253.17,-75.12C229.94,-75.12 197.4,-75.12 167.08,-75.12"/>
<polygon fill="#63b8ff" stroke="#63b8ff" points="252.88,-78.63 262.88,-75.13 252.88,-71.63 252.88,-78.63"/>
</a>
</g>
</g>
</g>
</svg>
