<?xml version="1.0" encoding="UTF-8" standalone="no"?>
<!DOCTYPE svg PUBLIC "-//W3C//DTD SVG 1.1//EN"
 "http://www.w3.org/Graphics/SVG/1.1/DTD/svg11.dtd">
<!-- Generated by graphviz version 12.1.2 (20240928.0832)
 -->
<!-- Title: vlcb_htons Pages: 1 -->
<svg width="482pt" height="106pt"
 viewBox="0.00 0.00 482.00 106.25" xmlns="http://www.w3.org/2000/svg" xmlns:xlink="http://www.w3.org/1999/xlink">
<g id="graph0" class="graph" transform="scale(1 1) rotate(0) translate(4 102.25)">
<title>vlcb_htons</title>
<!-- Node1 -->
<g id="Node000001" class="node">
<title>Node1</title>
<g id="a_Node000001"><a xlink:title=" ">
<polygon fill="#999999" stroke="#666666" points="474,-59.5 405.5,-59.5 405.5,-38.75 474,-38.75 474,-59.5"/>
<text text-anchor="middle" x="439.75" y="-46" font-family="Helvetica,sans-Serif" font-size="10.00">vlcb_htons</text>
</a>
</g>
</g>
<!-- Node2 -->
<g id="Node000002" class="node">
<title>Node2</title>
<g id="a_Node000002"><a xlink:href="release__node__num__serialize_8c.html#a6ce1648d9ec218fbfc991dc47aa92c95" target="_top" xlink:title=" ">
<polygon fill="white" stroke="#666666" points="369.5,-98.25 202.75,-98.25 202.75,-52 369.5,-52 369.5,-98.25"/>
<text text-anchor="start" x="210.75" y="-84.75" font-family="Helvetica,sans-Serif" font-size="10.00">vlcb_net_pkt_dgram</text>
<text text-anchor="start" x="210.75" y="-72" font-family="Helvetica,sans-Serif" font-size="10.00">_module_ReleaseNodeNumber</text>
<text text-anchor="middle" x="286.12" y="-59.25" font-family="Helvetica,sans-Serif" font-size="10.00">_serialize</text>
</a>
</g>
</g>
<!-- Node1&#45;&gt;Node2 -->
<g id="edge1_Node000001_Node000002" class="edge">
<title>Node1&#45;&gt;Node2</title>
<g id="a_edge1_Node000001_Node000002"><a xlink:title=" ">
<path fill="none" stroke="#63b8ff" d="M393.97,-56.8C386.35,-58.11 378.22,-59.5 369.98,-60.92"/>
<polygon fill="#63b8ff" stroke="#63b8ff" points="394.34,-60.29 403.61,-55.15 393.16,-53.39 394.34,-60.29"/>
</a>
</g>
</g>
<!-- Node3 -->
<g id="Node000003" class="node">
<title>Node3</title>
<g id="a_Node000003"><a xlink:href="endian_8h.html#a1e3c39ac48f92947ed3a0ee628ba15cd" target="_top" xlink:title=" ">
<polygon fill="white" stroke="#666666" points="320.38,-33.5 251.88,-33.5 251.88,-12.75 320.38,-12.75 320.38,-33.5"/>
<text text-anchor="middle" x="286.12" y="-20" font-family="Helvetica,sans-Serif" font-size="10.00">vlcb_ntohs</text>
</a>
</g>
</g>
<!-- Node1&#45;&gt;Node3 -->
<g id="edge2_Node000001_Node000003" class="edge">
<title>Node1&#45;&gt;Node3</title>
<g id="a_edge2_Node000001_Node000003"><a xlink:title=" ">
<path fill="none" stroke="#63b8ff" d="M394.01,-41.45C370.54,-37.43 342.26,-32.58 320.68,-28.88"/>
<polygon fill="#63b8ff" stroke="#63b8ff" points="393.16,-44.86 403.61,-43.1 394.34,-37.96 393.16,-44.86"/>
</a>
</g>
</g>
<!-- Node4 -->
<g id="Node000004" class="node">
<title>Node4</title>
<g id="a_Node000004"><a xlink:href="release__node__num__deserialize_8c.html#ac810a606f42e003e28eec332aa3ce27a" target="_top" xlink:title=" ">
<polygon fill="white" stroke="#666666" points="166.75,-46.25 0,-46.25 0,0 166.75,0 166.75,-46.25"/>
<text text-anchor="start" x="8" y="-32.75" font-family="Helvetica,sans-Serif" font-size="10.00">vlcb_net_pkt_dgram</text>
<text text-anchor="start" x="8" y="-20" font-family="Helvetica,sans-Serif" font-size="10.00">_module_ReleaseNodeNumber</text>
<text text-anchor="middle" x="83.38" y="-7.25" font-family="Helvetica,sans-Serif" font-size="10.00">_deserialize</text>
</a>
</g>
</g>
<!-- Node3&#45;&gt;Node4 -->
<g id="edge3_Node000003_Node000004" class="edge">
<title>Node3&#45;&gt;Node4</title>
<g id="a_edge3_Node000003_Node000004"><a xlink:title=" ">
<path fill="none" stroke="#63b8ff" d="M240.1,-23.12C218.55,-23.12 192.05,-23.12 167.05,-23.12"/>
<polygon fill="#63b8ff" stroke="#63b8ff" points="240.01,-26.63 250.01,-23.13 240.01,-19.63 240.01,-26.63"/>
</a>
</g>
</g>
</g>
</svg>
