<?xml version="1.0" encoding="UTF-8" standalone="no"?>
<!DOCTYPE svg PUBLIC "-//W3C//DTD SVG 1.1//EN"
 "http://www.w3.org/Graphics/SVG/1.1/DTD/svg11.dtd">
<!-- Generated by graphviz version 12.1.2 (20240928.0832)
 -->
<!-- Title: error.h Pages: 1 -->
<svg width="1679pt" height="369pt"
 viewBox="0.00 0.00 1678.88 369.25" xmlns="http://www.w3.org/2000/svg" xmlns:xlink="http://www.w3.org/1999/xlink">
<g id="graph0" class="graph" transform="scale(1 1) rotate(0) translate(4 365.25)">
<title>error.h</title>
<!-- Node1 -->
<g id="Node000001" class="node">
<title>Node1</title>
<g id="a_Node000001"><a xlink:title=" ">
<polygon fill="#999999" stroke="#666666" points="606.12,-361.25 558.62,-361.25 558.62,-340.5 606.12,-340.5 606.12,-361.25"/>
<text text-anchor="middle" x="582.38" y="-347.75" font-family="Helvetica,sans-Serif" font-size="10.00">error.h</text>
</a>
</g>
</g>
<!-- Node2 -->
<g id="Node000002" class="node">
<title>Node2</title>
<g id="a_Node000002"><a xlink:href="adapter_8h.html" target="_top" xlink:title=" ">
<polygon fill="white" stroke="#666666" points="395.25,-247.75 333.5,-247.75 333.5,-227 395.25,-227 395.25,-247.75"/>
<text text-anchor="middle" x="364.38" y="-234.25" font-family="Helvetica,sans-Serif" font-size="10.00">adapter.h</text>
</a>
</g>
</g>
<!-- Node1&#45;&gt;Node2 -->
<g id="edge1_Node000001_Node000002" class="edge">
<title>Node1&#45;&gt;Node2</title>
<g id="a_edge1_Node000001_Node000002"><a xlink:title=" ">
<path fill="none" stroke="#63b8ff" d="M553.35,-335.03C508.03,-311.85 421.71,-267.7 383.45,-248.13"/>
<polygon fill="#63b8ff" stroke="#63b8ff" points="551.57,-338.05 562.06,-339.49 554.75,-331.82 551.57,-338.05"/>
</a>
</g>
</g>
<!-- Node19 -->
<g id="Node000019" class="node">
<title>Node19</title>
<g id="a_Node000019"><a xlink:href="packet_2datagram_8h.html" target="_top" xlink:title=" ">
<polygon fill="white" stroke="#666666" points="1244.5,-247.75 1172.25,-247.75 1172.25,-227 1244.5,-227 1244.5,-247.75"/>
<text text-anchor="middle" x="1208.38" y="-234.25" font-family="Helvetica,sans-Serif" font-size="10.00">datagram.h</text>
</a>
</g>
</g>
<!-- Node1&#45;&gt;Node19 -->
<g id="edge29_Node000001_Node000019" class="edge">
<title>Node1&#45;&gt;Node19</title>
<g id="a_edge29_Node000001_Node000019"><a xlink:title=" ">
<path fill="none" stroke="#63b8ff" d="M617.59,-343.6C727.11,-324.1 1061.03,-264.62 1172.05,-244.84"/>
<polygon fill="#63b8ff" stroke="#63b8ff" points="617.25,-340.11 608.02,-345.31 618.48,-347 617.25,-340.11"/>
</a>
</g>
</g>
<!-- Node29 -->
<g id="Node000029" class="node">
<title>Node29</title>
<g id="a_Node000029"><a xlink:href="log_8h.html" target="_top" xlink:title=" ">
<polygon fill="white" stroke="#666666" points="162.38,-134.25 122.38,-134.25 122.38,-113.5 162.38,-113.5 162.38,-134.25"/>
<text text-anchor="middle" x="142.38" y="-120.75" font-family="Helvetica,sans-Serif" font-size="10.00">log.h</text>
</a>
</g>
</g>
<!-- Node1&#45;&gt;Node29 -->
<g id="edge47_Node000001_Node000029" class="edge">
<title>Node1&#45;&gt;Node29</title>
<g id="a_edge47_Node000001_Node000029"><a xlink:title=" ">
<path fill="none" stroke="#63b8ff" d="M547.73,-339.08C520.69,-330.41 482.32,-317.56 449.38,-304.5 392.66,-282.01 377.62,-277.54 324.38,-247.75 257.83,-210.53 184.18,-156.47 155.14,-134.6"/>
<polygon fill="#63b8ff" stroke="#63b8ff" points="546.54,-342.37 557.14,-342.07 548.67,-335.7 546.54,-342.37"/>
</a>
</g>
</g>
<!-- Node31 -->
<g id="Node000031" class="node">
<title>Node31</title>
<g id="a_Node000031"><a xlink:href="vlcb_8h.html" target="_top" xlink:title=" ">
<polygon fill="white" stroke="#666666" points="674,-304.5 628.75,-304.5 628.75,-283.75 674,-283.75 674,-304.5"/>
<text text-anchor="middle" x="651.38" y="-291" font-family="Helvetica,sans-Serif" font-size="10.00">vlcb.h</text>
</a>
</g>
</g>
<!-- Node1&#45;&gt;Node31 -->
<g id="edge54_Node000001_Node000031" class="edge">
<title>Node1&#45;&gt;Node31</title>
<g id="a_edge54_Node000001_Node000031"><a xlink:title=" ">
<path fill="none" stroke="#63b8ff" d="M603.44,-333.16C615.13,-323.88 629.27,-312.67 639.15,-304.83"/>
<polygon fill="#63b8ff" stroke="#63b8ff" points="601.55,-330.19 595.9,-339.15 605.91,-335.67 601.55,-330.19"/>
</a>
</g>
</g>
<!-- Node3 -->
<g id="Node000003" class="node">
<title>Node3</title>
<g id="a_Node000003"><a xlink:href="adapter_8c.html" target="_top" xlink:title=" ">
<polygon fill="white" stroke="#666666" points="365.88,-191 304.88,-191 304.88,-170.25 365.88,-170.25 365.88,-191"/>
<text text-anchor="middle" x="335.38" y="-177.5" font-family="Helvetica,sans-Serif" font-size="10.00">adapter.c</text>
</a>
</g>
</g>
<!-- Node2&#45;&gt;Node3 -->
<g id="edge2_Node000002_Node000003" class="edge">
<title>Node2&#45;&gt;Node3</title>
<g id="a_edge2_Node000002_Node000003"><a xlink:title=" ">
<path fill="none" stroke="#63b8ff" d="M353.88,-216.57C349.33,-207.98 344.21,-198.31 340.51,-191.33"/>
<polygon fill="#63b8ff" stroke="#63b8ff" points="350.71,-218.05 358.48,-225.25 356.89,-214.77 350.71,-218.05"/>
</a>
</g>
</g>
<!-- Node4 -->
<g id="Node000004" class="node">
<title>Node4</title>
<g id="a_Node000004"><a xlink:href="iface_8c.html" target="_top" xlink:title=" ">
<polygon fill="white" stroke="#666666" points="342.5,-77.5 294.25,-77.5 294.25,-56.75 342.5,-56.75 342.5,-77.5"/>
<text text-anchor="middle" x="318.38" y="-64" font-family="Helvetica,sans-Serif" font-size="10.00">iface.c</text>
</a>
</g>
</g>
<!-- Node2&#45;&gt;Node4 -->
<g id="edge3_Node000002_Node000004" class="edge">
<title>Node2&#45;&gt;Node4</title>
<g id="a_edge3_Node000002_Node000004"><a xlink:title=" ">
<path fill="none" stroke="#63b8ff" d="M328.11,-221.46C315.4,-214.25 302.52,-204.24 295.38,-191 274.77,-152.79 300.4,-99.29 312.6,-77.71"/>
<polygon fill="#63b8ff" stroke="#63b8ff" points="326.33,-224.47 336.82,-225.95 329.53,-218.25 326.33,-224.47"/>
</a>
</g>
</g>
<!-- Node5 -->
<g id="Node000005" class="node">
<title>Node5</title>
<g id="a_Node000005"><a xlink:href="iface_8h.html" target="_top" xlink:title=" ">
<polygon fill="white" stroke="#666666" points="547.88,-191 498.88,-191 498.88,-170.25 547.88,-170.25 547.88,-191"/>
<text text-anchor="middle" x="523.38" y="-177.5" font-family="Helvetica,sans-Serif" font-size="10.00">iface.h</text>
</a>
</g>
</g>
<!-- Node2&#45;&gt;Node5 -->
<g id="edge4_Node000002_Node000005" class="edge">
<title>Node2&#45;&gt;Node5</title>
<g id="a_edge4_Node000002_Node000005"><a xlink:title=" ">
<path fill="none" stroke="#63b8ff" d="M403.63,-222.86C433.33,-212.63 473.19,-198.9 498.59,-190.16"/>
<polygon fill="#63b8ff" stroke="#63b8ff" points="402.55,-219.53 394.23,-226.09 404.83,-226.15 402.55,-219.53"/>
</a>
</g>
</g>
<!-- Node6 -->
<g id="Node000006" class="node">
<title>Node6</title>
<g id="a_Node000006"><a xlink:href="iface__can_8c.html" target="_top" xlink:title=" ">
<polygon fill="white" stroke="#666666" points="605.75,-77.5 535,-77.5 535,-56.75 605.75,-56.75 605.75,-77.5"/>
<text text-anchor="middle" x="570.38" y="-64" font-family="Helvetica,sans-Serif" font-size="10.00">iface_can.c</text>
</a>
</g>
</g>
<!-- Node2&#45;&gt;Node6 -->
<g id="edge24_Node000002_Node000006" class="edge">
<title>Node2&#45;&gt;Node6</title>
<g id="a_edge24_Node000002_Node000006"><a xlink:title=" ">
<path fill="none" stroke="#63b8ff" d="M370.16,-215.86C379.33,-184.73 397.75,-127.66 413.38,-113.5 446.91,-83.11 499.6,-72.97 534.56,-69.65"/>
<polygon fill="#63b8ff" stroke="#63b8ff" points="366.86,-214.69 367.45,-225.27 373.58,-216.63 366.86,-214.69"/>
</a>
</g>
</g>
<!-- Node7 -->
<g id="Node000007" class="node">
<title>Node7</title>
<g id="a_Node000007"><a xlink:href="iface__can_8h.html" target="_top" xlink:title=" ">
<polygon fill="white" stroke="#666666" points="252.12,-134.25 180.62,-134.25 180.62,-113.5 252.12,-113.5 252.12,-134.25"/>
<text text-anchor="middle" x="216.38" y="-120.75" font-family="Helvetica,sans-Serif" font-size="10.00">iface_can.h</text>
</a>
</g>
</g>
<!-- Node2&#45;&gt;Node7 -->
<g id="edge25_Node000002_Node000007" class="edge">
<title>Node2&#45;&gt;Node7</title>
<g id="a_edge25_Node000002_Node000007"><a xlink:title=" ">
<path fill="none" stroke="#63b8ff" d="M322.57,-223.66C302.89,-216.27 279.94,-205.52 262.38,-191 242.97,-174.96 228.11,-148.79 221,-134.66"/>
<polygon fill="#63b8ff" stroke="#63b8ff" points="321.39,-226.95 331.98,-227.01 323.74,-220.36 321.39,-226.95"/>
</a>
</g>
</g>
<!-- Node9 -->
<g id="Node000009" class="node">
<title>Node9</title>
<g id="a_Node000009"><a xlink:href="iface__can__svc_8c.html" target="_top" xlink:title=" ">
<polygon fill="white" stroke="#666666" points="514.62,-134.25 422.12,-134.25 422.12,-113.5 514.62,-113.5 514.62,-134.25"/>
<text text-anchor="middle" x="468.38" y="-120.75" font-family="Helvetica,sans-Serif" font-size="10.00">iface_can_svc.c</text>
</a>
</g>
</g>
<!-- Node2&#45;&gt;Node9 -->
<g id="edge26_Node000002_Node000009" class="edge">
<title>Node2&#45;&gt;Node9</title>
<g id="a_edge26_Node000002_Node000009"><a xlink:title=" ">
<path fill="none" stroke="#63b8ff" d="M381.95,-218.52C390.06,-210.22 399.77,-200.17 408.38,-191 427.04,-171.1 448.4,-147.31 459.93,-134.38"/>
<polygon fill="#63b8ff" stroke="#63b8ff" points="379.47,-216.06 374.97,-225.65 384.47,-220.96 379.47,-216.06"/>
</a>
</g>
</g>
<!-- Node17 -->
<g id="Node000017" class="node">
<title>Node17</title>
<g id="a_Node000017"><a xlink:href="packet__parse_8h.html" target="_top" xlink:title=" ">
<polygon fill="white" stroke="#666666" points="112.12,-191 22.62,-191 22.62,-170.25 112.12,-170.25 112.12,-191"/>
<text text-anchor="middle" x="67.38" y="-177.5" font-family="Helvetica,sans-Serif" font-size="10.00">packet_parse.h</text>
</a>
</g>
</g>
<!-- Node2&#45;&gt;Node17 -->
<g id="edge27_Node000002_Node000017" class="edge">
<title>Node2&#45;&gt;Node17</title>
<g id="a_edge27_Node000002_Node000017"><a xlink:title=" ">
<path fill="none" stroke="#63b8ff" d="M321.96,-228.56C266.44,-218.32 169.51,-200.45 112.62,-189.97"/>
<polygon fill="#63b8ff" stroke="#63b8ff" points="321.19,-231.97 331.66,-230.34 322.46,-225.09 321.19,-231.97"/>
</a>
</g>
</g>
<!-- Node5&#45;&gt;Node4 -->
<g id="edge5_Node000005_Node000004" class="edge">
<title>Node5&#45;&gt;Node4</title>
<g id="a_edge5_Node000005_Node000004"><a xlink:title=" ">
<path fill="none" stroke="#63b8ff" d="M488.1,-167.31C466.07,-159.08 437.42,-147.37 413.38,-134.25 381.8,-117.02 347.94,-91.55 330.42,-77.8"/>
<polygon fill="#63b8ff" stroke="#63b8ff" points="486.63,-170.5 497.22,-170.65 489.04,-163.92 486.63,-170.5"/>
</a>
</g>
</g>
<!-- Node5&#45;&gt;Node6 -->
<g id="edge6_Node000005_Node000006" class="edge">
<title>Node5&#45;&gt;Node6</title>
<g id="a_edge6_Node000005_Node000006"><a xlink:title=" ">
<path fill="none" stroke="#63b8ff" d="M559.03,-172.1C579.61,-165.73 603.85,-154.3 616.38,-134.25 629.27,-113.61 603.38,-90.48 585.48,-77.78"/>
<polygon fill="#63b8ff" stroke="#63b8ff" points="558.22,-168.69 549.52,-174.74 560.09,-175.44 558.22,-168.69"/>
</a>
</g>
</g>
<!-- Node5&#45;&gt;Node7 -->
<g id="edge7_Node000005_Node000007" class="edge">
<title>Node5&#45;&gt;Node7</title>
<g id="a_edge7_Node000005_Node000007"><a xlink:title=" ">
<path fill="none" stroke="#63b8ff" d="M487.51,-173.23C428.49,-162.7 311.53,-141.84 252.4,-131.3"/>
<polygon fill="#63b8ff" stroke="#63b8ff" points="486.56,-176.62 497.02,-174.93 487.79,-169.72 486.56,-176.62"/>
</a>
</g>
</g>
<!-- Node5&#45;&gt;Node9 -->
<g id="edge10_Node000005_Node000009" class="edge">
<title>Node5&#45;&gt;Node9</title>
<g id="a_edge10_Node000005_Node000009"><a xlink:title=" ">
<path fill="none" stroke="#63b8ff" d="M505.47,-161.8C496.38,-152.75 485.69,-142.11 478.12,-134.58"/>
<polygon fill="#63b8ff" stroke="#63b8ff" points="502.91,-164.19 512.47,-168.77 507.85,-159.23 502.91,-164.19"/>
</a>
</g>
</g>
<!-- Node10 -->
<g id="Node000010" class="node">
<title>Node10</title>
<g id="a_Node000010"><a xlink:href="iface__vlcb_8h.html" target="_top" xlink:title=" ">
<polygon fill="white" stroke="#666666" points="607.62,-134.25 533.12,-134.25 533.12,-113.5 607.62,-113.5 607.62,-134.25"/>
<text text-anchor="middle" x="570.38" y="-120.75" font-family="Helvetica,sans-Serif" font-size="10.00">iface_vlcb.h</text>
</a>
</g>
</g>
<!-- Node5&#45;&gt;Node10 -->
<g id="edge12_Node000005_Node000010" class="edge">
<title>Node5&#45;&gt;Node10</title>
<g id="a_edge12_Node000005_Node000010"><a xlink:title=" ">
<path fill="none" stroke="#63b8ff" d="M539.16,-161.24C546.82,-152.31 555.72,-141.95 562.05,-134.58"/>
<polygon fill="#63b8ff" stroke="#63b8ff" points="536.62,-158.82 532.76,-168.69 541.93,-163.38 536.62,-158.82"/>
</a>
</g>
</g>
<!-- Node11 -->
<g id="Node000011" class="node">
<title>Node11</title>
<g id="a_Node000011"><a xlink:href="module_2inc_2vlcb_2module_8h.html" target="_top" xlink:title=" ">
<polygon fill="white" stroke="#666666" points="859.25,-134.25 797.5,-134.25 797.5,-113.5 859.25,-113.5 859.25,-134.25"/>
<text text-anchor="middle" x="828.38" y="-120.75" font-family="Helvetica,sans-Serif" font-size="10.00">module.h</text>
</a>
</g>
</g>
<!-- Node5&#45;&gt;Node11 -->
<g id="edge15_Node000005_Node000011" class="edge">
<title>Node5&#45;&gt;Node11</title>
<g id="a_edge15_Node000005_Node000011"><a xlink:title=" ">
<path fill="none" stroke="#63b8ff" d="M559.58,-173.13C620.01,-162.28 740.37,-140.67 797.24,-130.46"/>
<polygon fill="#63b8ff" stroke="#63b8ff" points="559.05,-169.67 549.82,-174.88 560.29,-176.56 559.05,-169.67"/>
</a>
</g>
</g>
<!-- Node16 -->
<g id="Node000016" class="node">
<title>Node16</title>
<g id="a_Node000016"><a xlink:href="net_2inc_2vlcb_2net_8h.html" target="_top" xlink:title=" ">
<polygon fill="white" stroke="#666666" points="741.75,-134.25 701,-134.25 701,-113.5 741.75,-113.5 741.75,-134.25"/>
<text text-anchor="middle" x="721.38" y="-120.75" font-family="Helvetica,sans-Serif" font-size="10.00">net.h</text>
</a>
</g>
</g>
<!-- Node5&#45;&gt;Node16 -->
<g id="edge23_Node000005_Node000016" class="edge">
<title>Node5&#45;&gt;Node16</title>
<g id="a_edge23_Node000005_Node000016"><a xlink:title=" ">
<path fill="none" stroke="#63b8ff" d="M558.98,-169.78C600.28,-158.36 667,-139.91 700.61,-130.62"/>
<polygon fill="#63b8ff" stroke="#63b8ff" points="558.22,-166.36 549.51,-172.4 560.08,-173.11 558.22,-166.36"/>
</a>
</g>
</g>
<!-- Node7&#45;&gt;Node4 -->
<g id="edge8_Node000007_Node000004" class="edge">
<title>Node7&#45;&gt;Node4</title>
<g id="a_edge8_Node000007_Node000004"><a xlink:title=" ">
<path fill="none" stroke="#63b8ff" d="M244.72,-107.66C262.5,-98.11 284.9,-86.09 300.3,-77.83"/>
<polygon fill="#63b8ff" stroke="#63b8ff" points="243.1,-104.56 235.94,-112.37 246.41,-110.73 243.1,-104.56"/>
</a>
</g>
</g>
<!-- Node8 -->
<g id="Node000008" class="node">
<title>Node8</title>
<g id="a_Node000008"><a xlink:href="iface__vlcb_8c.html" target="_top" xlink:title=" ">
<polygon fill="white" stroke="#666666" points="276.25,-77.5 202.5,-77.5 202.5,-56.75 276.25,-56.75 276.25,-77.5"/>
<text text-anchor="middle" x="239.38" y="-64" font-family="Helvetica,sans-Serif" font-size="10.00">iface_vlcb.c</text>
</a>
</g>
</g>
<!-- Node7&#45;&gt;Node8 -->
<g id="edge9_Node000007_Node000008" class="edge">
<title>Node7&#45;&gt;Node8</title>
<g id="a_edge9_Node000007_Node000008"><a xlink:title=" ">
<path fill="none" stroke="#63b8ff" d="M224.94,-102.49C228.48,-94.05 232.43,-84.66 235.3,-77.83"/>
<polygon fill="#63b8ff" stroke="#63b8ff" points="221.72,-101.12 221.07,-111.69 228.17,-103.83 221.72,-101.12"/>
</a>
</g>
</g>
<!-- Node9&#45;&gt;Node6 -->
<g id="edge11_Node000009_Node000006" class="edge">
<title>Node9&#45;&gt;Node6</title>
<g id="a_edge11_Node000009_Node000006"><a xlink:title=" ">
<path fill="none" stroke="#63b8ff" d="M496.72,-107.66C514.5,-98.11 536.9,-86.09 552.3,-77.83"/>
<polygon fill="#63b8ff" stroke="#63b8ff" points="495.1,-104.56 487.94,-112.37 498.41,-110.73 495.1,-104.56"/>
</a>
</g>
</g>
<!-- Node10&#45;&gt;Node4 -->
<g id="edge13_Node000010_Node000004" class="edge">
<title>Node10&#45;&gt;Node4</title>
<g id="a_edge13_Node000010_Node000004"><a xlink:title=" ">
<path fill="none" stroke="#63b8ff" d="M521.68,-112.3C468,-100.63 383.81,-82.34 342.66,-73.4"/>
<polygon fill="#63b8ff" stroke="#63b8ff" points="520.65,-115.65 531.17,-114.36 522.14,-108.81 520.65,-115.65"/>
</a>
</g>
</g>
<!-- Node10&#45;&gt;Node6 -->
<g id="edge14_Node000010_Node000006" class="edge">
<title>Node10&#45;&gt;Node6</title>
<g id="a_edge14_Node000010_Node000006"><a xlink:title=" ">
<path fill="none" stroke="#63b8ff" d="M570.38,-101.63C570.38,-93.41 570.38,-84.43 570.38,-77.83"/>
<polygon fill="#63b8ff" stroke="#63b8ff" points="566.88,-101.57 570.38,-111.57 573.88,-101.57 566.88,-101.57"/>
</a>
</g>
</g>
<!-- Node12 -->
<g id="Node000012" class="node">
<title>Node12</title>
<g id="a_Node000012"><a xlink:href="module_8c.html" target="_top" xlink:title=" ">
<polygon fill="white" stroke="#666666" points="856.88,-20.75 795.88,-20.75 795.88,0 856.88,0 856.88,-20.75"/>
<text text-anchor="middle" x="826.38" y="-7.25" font-family="Helvetica,sans-Serif" font-size="10.00">module.c</text>
</a>
</g>
</g>
<!-- Node11&#45;&gt;Node12 -->
<g id="edge16_Node000011_Node000012" class="edge">
<title>Node11&#45;&gt;Node12</title>
<g id="a_edge16_Node000011_Node000012"><a xlink:title=" ">
<path fill="none" stroke="#63b8ff" d="M797.81,-107.21C786.74,-99.82 775.47,-89.87 769.38,-77.5 758.06,-54.52 786.52,-33.06 807.18,-21.13"/>
<polygon fill="#63b8ff" stroke="#63b8ff" points="795.7,-110.02 806.06,-112.25 799.35,-104.05 795.7,-110.02"/>
</a>
</g>
</g>
<!-- Node13 -->
<g id="Node000013" class="node">
<title>Node13</title>
<g id="a_Node000013"><a xlink:href="module_2src_2module_8h.html" target="_top" xlink:title=" ">
<polygon fill="white" stroke="#666666" points="721.25,-77.5 659.5,-77.5 659.5,-56.75 721.25,-56.75 721.25,-77.5"/>
<text text-anchor="middle" x="690.38" y="-64" font-family="Helvetica,sans-Serif" font-size="10.00">module.h</text>
</a>
</g>
</g>
<!-- Node11&#45;&gt;Node13 -->
<g id="edge17_Node000011_Node000013" class="edge">
<title>Node11&#45;&gt;Node13</title>
<g id="a_edge17_Node000011_Node000013"><a xlink:title=" ">
<path fill="none" stroke="#63b8ff" d="M793.04,-108.86C768.54,-99.14 736.55,-86.44 714.83,-77.83"/>
<polygon fill="#63b8ff" stroke="#63b8ff" points="791.71,-112.09 802.3,-112.53 794.29,-105.59 791.71,-112.09"/>
</a>
</g>
</g>
<!-- Node14 -->
<g id="Node000014" class="node">
<title>Node14</title>
<g id="a_Node000014"><a xlink:href="state__machine_8c.html" target="_top" xlink:title=" ">
<polygon fill="white" stroke="#666666" points="1084.5,-20.75 988.25,-20.75 988.25,0 1084.5,0 1084.5,-20.75"/>
<text text-anchor="middle" x="1036.38" y="-7.25" font-family="Helvetica,sans-Serif" font-size="10.00">state_machine.c</text>
</a>
</g>
</g>
<!-- Node11&#45;&gt;Node14 -->
<g id="edge19_Node000011_Node000014" class="edge">
<title>Node11&#45;&gt;Node14</title>
<g id="a_edge19_Node000011_Node000014"><a xlink:title=" ">
<path fill="none" stroke="#63b8ff" d="M856.34,-107.88C899.65,-84.66 981.74,-40.66 1018.17,-21.13"/>
<polygon fill="#63b8ff" stroke="#63b8ff" points="854.96,-104.65 847.8,-112.46 858.27,-110.82 854.96,-104.65"/>
</a>
</g>
</g>
<!-- Node15 -->
<g id="Node000015" class="node">
<title>Node15</title>
<g id="a_Node000015"><a xlink:href="state__machine_8h.html" target="_top" xlink:title=" ">
<polygon fill="white" stroke="#666666" points="874.88,-77.5 777.88,-77.5 777.88,-56.75 874.88,-56.75 874.88,-77.5"/>
<text text-anchor="middle" x="826.38" y="-64" font-family="Helvetica,sans-Serif" font-size="10.00">state_machine.h</text>
</a>
</g>
</g>
<!-- Node11&#45;&gt;Node15 -->
<g id="edge20_Node000011_Node000015" class="edge">
<title>Node11&#45;&gt;Node15</title>
<g id="a_edge20_Node000011_Node000015"><a xlink:title=" ">
<path fill="none" stroke="#63b8ff" d="M827.6,-101.63C827.3,-93.41 826.97,-84.43 826.73,-77.83"/>
<polygon fill="#63b8ff" stroke="#63b8ff" points="824.1,-101.71 827.96,-111.57 831.09,-101.45 824.1,-101.71"/>
</a>
</g>
</g>
<!-- Node13&#45;&gt;Node12 -->
<g id="edge18_Node000013_Node000012" class="edge">
<title>Node13&#45;&gt;Node12</title>
<g id="a_edge18_Node000013_Node000012"><a xlink:title=" ">
<path fill="none" stroke="#63b8ff" d="M725.2,-52.11C749.34,-42.39 780.87,-29.69 802.27,-21.08"/>
<polygon fill="#63b8ff" stroke="#63b8ff" points="724.06,-48.79 716.09,-55.77 726.68,-55.28 724.06,-48.79"/>
</a>
</g>
</g>
<!-- Node15&#45;&gt;Node12 -->
<g id="edge21_Node000015_Node000012" class="edge">
<title>Node15&#45;&gt;Node12</title>
<g id="a_edge21_Node000015_Node000012"><a xlink:title=" ">
<path fill="none" stroke="#63b8ff" d="M826.38,-44.88C826.38,-36.66 826.38,-27.68 826.38,-21.08"/>
<polygon fill="#63b8ff" stroke="#63b8ff" points="822.88,-44.82 826.38,-54.82 829.88,-44.82 822.88,-44.82"/>
</a>
</g>
</g>
<!-- Node15&#45;&gt;Node14 -->
<g id="edge22_Node000015_Node000014" class="edge">
<title>Node15&#45;&gt;Node14</title>
<g id="a_edge22_Node000015_Node000014"><a xlink:title=" ">
<path fill="none" stroke="#63b8ff" d="M874.66,-53.54C912.4,-43.7 964.11,-30.22 998.8,-21.17"/>
<polygon fill="#63b8ff" stroke="#63b8ff" points="874.18,-50.05 865.38,-55.95 875.94,-56.82 874.18,-50.05"/>
</a>
</g>
</g>
<!-- Node18 -->
<g id="Node000018" class="node">
<title>Node18</title>
<g id="a_Node000018"><a xlink:href="packet__parse_8c.html" target="_top" xlink:title=" ">
<polygon fill="white" stroke="#666666" points="88.75,-77.5 0,-77.5 0,-56.75 88.75,-56.75 88.75,-77.5"/>
<text text-anchor="middle" x="44.38" y="-64" font-family="Helvetica,sans-Serif" font-size="10.00">packet_parse.c</text>
</a>
</g>
</g>
<!-- Node17&#45;&gt;Node18 -->
<g id="edge28_Node000017_Node000018" class="edge">
<title>Node17&#45;&gt;Node18</title>
<g id="a_edge28_Node000017_Node000018"><a xlink:title=" ">
<path fill="none" stroke="#63b8ff" d="M63.13,-159.05C58.16,-134.95 50.13,-96 46.4,-77.93"/>
<polygon fill="#63b8ff" stroke="#63b8ff" points="59.66,-159.55 65.11,-168.64 66.52,-158.14 59.66,-159.55"/>
</a>
</g>
</g>
<!-- Node19&#45;&gt;Node12 -->
<g id="edge40_Node000019_Node000012" class="edge">
<title>Node19&#45;&gt;Node12</title>
<g id="a_edge40_Node000019_Node000012"><a xlink:title=" ">
<path fill="none" stroke="#63b8ff" d="M1171.37,-221.85C1155.99,-214.41 1138.86,-204.12 1126.38,-191 1099.93,-163.21 1116.62,-139.46 1088.38,-113.5 1020.62,-51.23 910.6,-25.29 857.28,-15.94"/>
<polygon fill="#63b8ff" stroke="#63b8ff" points="1169.73,-224.95 1180.28,-225.92 1172.63,-218.58 1169.73,-224.95"/>
</a>
</g>
</g>
<!-- Node19&#45;&gt;Node14 -->
<g id="edge46_Node000019_Node000014" class="edge">
<title>Node19&#45;&gt;Node14</title>
<g id="a_edge46_Node000019_Node000014"><a xlink:title=" ">
<path fill="none" stroke="#63b8ff" d="M1256,-233.31C1313.55,-228.49 1405.32,-216.88 1426.38,-191 1432.19,-183.85 1431.52,-177.9 1426.38,-170.25 1348.76,-54.82 1171.11,-23.21 1084.98,-14.59"/>
<polygon fill="#63b8ff" stroke="#63b8ff" points="1255.83,-229.81 1246.14,-234.09 1256.38,-236.79 1255.83,-229.81"/>
</a>
</g>
</g>
<!-- Node20 -->
<g id="Node000020" class="node">
<title>Node20</title>
<g id="a_Node000020"><a xlink:href="packet_2datagram_8c.html" target="_top" xlink:title=" ">
<polygon fill="white" stroke="#666666" points="1207.12,-191 1135.62,-191 1135.62,-170.25 1207.12,-170.25 1207.12,-191"/>
<text text-anchor="middle" x="1171.38" y="-177.5" font-family="Helvetica,sans-Serif" font-size="10.00">datagram.c</text>
</a>
</g>
</g>
<!-- Node19&#45;&gt;Node20 -->
<g id="edge30_Node000019_Node000020" class="edge">
<title>Node19&#45;&gt;Node20</title>
<g id="a_edge30_Node000019_Node000020"><a xlink:title=" ">
<path fill="none" stroke="#63b8ff" d="M1195.38,-217.14C1189.48,-208.41 1182.76,-198.47 1177.93,-191.33"/>
<polygon fill="#63b8ff" stroke="#63b8ff" points="1192.41,-219.01 1200.91,-225.33 1198.21,-215.09 1192.41,-219.01"/>
</a>
</g>
</g>
<!-- Node21 -->
<g id="Node000021" class="node">
<title>Node21</title>
<g id="a_Node000021"><a xlink:href="socket_2datagram_8c.html" target="_top" xlink:title=" ">
<polygon fill="white" stroke="#666666" points="1079.12,-134.25 1007.62,-134.25 1007.62,-113.5 1079.12,-113.5 1079.12,-134.25"/>
<text text-anchor="middle" x="1043.38" y="-120.75" font-family="Helvetica,sans-Serif" font-size="10.00">datagram.c</text>
</a>
</g>
</g>
<!-- Node19&#45;&gt;Node21 -->
<g id="edge31_Node000019_Node000021" class="edge">
<title>Node19&#45;&gt;Node21</title>
<g id="a_edge31_Node000019_Node000021"><a xlink:title=" ">
<path fill="none" stroke="#63b8ff" d="M1161.04,-224.16C1139.01,-216.93 1113.33,-206.16 1093.38,-191 1072.52,-175.16 1056.04,-148.42 1048.26,-134.28"/>
<polygon fill="#63b8ff" stroke="#63b8ff" points="1159.81,-227.45 1170.4,-227.08 1161.89,-220.76 1159.81,-227.45"/>
</a>
</g>
</g>
<!-- Node22 -->
<g id="Node000022" class="node">
<title>Node22</title>
<g id="a_Node000022"><a xlink:href="socket_2datagram_8h.html" target="_top" xlink:title=" ">
<polygon fill="white" stroke="#666666" points="965.5,-191 893.25,-191 893.25,-170.25 965.5,-170.25 965.5,-191"/>
<text text-anchor="middle" x="929.38" y="-177.5" font-family="Helvetica,sans-Serif" font-size="10.00">datagram.h</text>
</a>
</g>
</g>
<!-- Node19&#45;&gt;Node22 -->
<g id="edge32_Node000019_Node000022" class="edge">
<title>Node19&#45;&gt;Node22</title>
<g id="a_edge32_Node000019_Node000022"><a xlink:title=" ">
<path fill="none" stroke="#63b8ff" d="M1160.67,-227.01C1105.47,-216.18 1015.78,-198.58 965.86,-188.78"/>
<polygon fill="#63b8ff" stroke="#63b8ff" points="1159.93,-230.43 1170.42,-228.93 1161.28,-223.57 1159.93,-230.43"/>
</a>
</g>
</g>
<!-- Node23 -->
<g id="Node000023" class="node">
<title>Node23</title>
<g id="a_Node000023"><a xlink:href="net_2inc_2vlcb_2net_2packet_2datagram_2dcc_8h.html" target="_top" xlink:title=" ">
<polygon fill="white" stroke="#666666" points="1267.12,-191 1225.62,-191 1225.62,-170.25 1267.12,-170.25 1267.12,-191"/>
<text text-anchor="middle" x="1246.38" y="-177.5" font-family="Helvetica,sans-Serif" font-size="10.00">dcc.h</text>
</a>
</g>
</g>
<!-- Node19&#45;&gt;Node23 -->
<g id="edge37_Node000019_Node000023" class="edge">
<title>Node19&#45;&gt;Node23</title>
<g id="a_edge37_Node000019_Node000023"><a xlink:title=" ">
<path fill="none" stroke="#63b8ff" d="M1221.73,-217.14C1227.78,-208.41 1234.68,-198.47 1239.64,-191.33"/>
<polygon fill="#63b8ff" stroke="#63b8ff" points="1218.86,-215.13 1216.03,-225.34 1224.61,-219.12 1218.86,-215.13"/>
</a>
</g>
</g>
<!-- Node24 -->
<g id="Node000024" class="node">
<title>Node24</title>
<g id="a_Node000024"><a xlink:href="net_2inc_2vlcb_2net_2packet_2datagram_2event_8h.html" target="_top" xlink:title=" ">
<polygon fill="white" stroke="#666666" points="1337.75,-191 1285,-191 1285,-170.25 1337.75,-170.25 1337.75,-191"/>
<text text-anchor="middle" x="1311.38" y="-177.5" font-family="Helvetica,sans-Serif" font-size="10.00">event.h</text>
</a>
</g>
</g>
<!-- Node19&#45;&gt;Node24 -->
<g id="edge38_Node000019_Node000024" class="edge">
<title>Node19&#45;&gt;Node24</title>
<g id="a_edge38_Node000019_Node000024"><a xlink:title=" ">
<path fill="none" stroke="#63b8ff" d="M1236.75,-221.29C1254.74,-211.73 1277.5,-199.63 1293.12,-191.33"/>
<polygon fill="#63b8ff" stroke="#63b8ff" points="1235.31,-218.09 1228.13,-225.88 1238.6,-224.27 1235.31,-218.09"/>
</a>
</g>
</g>
<!-- Node25 -->
<g id="Node000025" class="node">
<title>Node25</title>
<g id="a_Node000025"><a xlink:href="general_8h.html" target="_top" xlink:title=" ">
<polygon fill="white" stroke="#666666" points="1417.25,-191 1355.5,-191 1355.5,-170.25 1417.25,-170.25 1417.25,-191"/>
<text text-anchor="middle" x="1386.38" y="-177.5" font-family="Helvetica,sans-Serif" font-size="10.00">general.h</text>
</a>
</g>
</g>
<!-- Node19&#45;&gt;Node25 -->
<g id="edge39_Node000019_Node000025" class="edge">
<title>Node19&#45;&gt;Node25</title>
<g id="a_edge39_Node000019_Node000025"><a xlink:title=" ">
<path fill="none" stroke="#63b8ff" d="M1251.03,-223.26C1283.07,-213.4 1326.24,-200.12 1355.13,-191.24"/>
<polygon fill="#63b8ff" stroke="#63b8ff" points="1250.17,-219.86 1241.64,-226.14 1252.23,-226.55 1250.17,-219.86"/>
</a>
</g>
</g>
<!-- Node26 -->
<g id="Node000026" class="node">
<title>Node26</title>
<g id="a_Node000026"><a xlink:href="net_2inc_2vlcb_2net_2packet_2datagram_2module_8h.html" target="_top" xlink:title=" ">
<polygon fill="white" stroke="#666666" points="1527.25,-77.5 1465.5,-77.5 1465.5,-56.75 1527.25,-56.75 1527.25,-77.5"/>
<text text-anchor="middle" x="1496.38" y="-64" font-family="Helvetica,sans-Serif" font-size="10.00">module.h</text>
</a>
</g>
</g>
<!-- Node19&#45;&gt;Node26 -->
<g id="edge41_Node000019_Node000026" class="edge">
<title>Node19&#45;&gt;Node26</title>
<g id="a_edge41_Node000019_Node000026"><a xlink:title=" ">
<path fill="none" stroke="#63b8ff" d="M1255.97,-233.61C1320.2,-228.92 1429.98,-217.23 1459.38,-191 1493.12,-160.89 1496.61,-101.27 1496.61,-77.87"/>
<polygon fill="#63b8ff" stroke="#63b8ff" points="1255.78,-230.11 1246.05,-234.3 1256.27,-237.09 1255.78,-230.11"/>
</a>
</g>
</g>
<!-- Node22&#45;&gt;Node11 -->
<g id="edge35_Node000022_Node000011" class="edge">
<title>Node22&#45;&gt;Node11</title>
<g id="a_edge35_Node000022_Node000011"><a xlink:title=" ">
<path fill="none" stroke="#63b8ff" d="M901.55,-164.54C883.91,-154.98 861.6,-142.88 846.28,-134.58"/>
<polygon fill="#63b8ff" stroke="#63b8ff" points="899.53,-167.43 909.99,-169.12 902.86,-161.27 899.53,-167.43"/>
</a>
</g>
</g>
<!-- Node22&#45;&gt;Node12 -->
<g id="edge34_Node000022_Node000012" class="edge">
<title>Node22&#45;&gt;Node12</title>
<g id="a_edge34_Node000022_Node000012"><a xlink:title=" ">
<path fill="none" stroke="#63b8ff" d="M925.43,-158.77C919.76,-132.89 907.35,-88.32 884.38,-56.75 873.47,-41.76 856.31,-29.19 843.48,-21.11"/>
<polygon fill="#63b8ff" stroke="#63b8ff" points="921.96,-159.25 927.39,-168.35 928.82,-157.85 921.96,-159.25"/>
</a>
</g>
</g>
<!-- Node22&#45;&gt;Node14 -->
<g id="edge36_Node000022_Node000014" class="edge">
<title>Node22&#45;&gt;Node14</title>
<g id="a_edge36_Node000022_Node000014"><a xlink:title=" ">
<path fill="none" stroke="#63b8ff" d="M947.64,-161.98C976.33,-134.19 1028.95,-82.79 1031.38,-77.5 1039.92,-58.87 1039,-34.18 1037.65,-20.86"/>
<polygon fill="#63b8ff" stroke="#63b8ff" points="945.43,-159.25 940.68,-168.72 950.3,-164.28 945.43,-159.25"/>
</a>
</g>
</g>
<!-- Node22&#45;&gt;Node21 -->
<g id="edge33_Node000022_Node000021" class="edge">
<title>Node22&#45;&gt;Node21</title>
<g id="a_edge33_Node000022_Node000021"><a xlink:title=" ">
<path fill="none" stroke="#63b8ff" d="M959.94,-164.95C979.99,-155.32 1005.64,-143 1023.17,-134.58"/>
<polygon fill="#63b8ff" stroke="#63b8ff" points="958.62,-161.7 951.12,-169.18 961.65,-168.01 958.62,-161.7"/>
</a>
</g>
</g>
<!-- Node26&#45;&gt;Node12 -->
<g id="edge42_Node000026_Node000012" class="edge">
<title>Node26&#45;&gt;Node12</title>
<g id="a_edge42_Node000026_Node000012"><a xlink:title=" ">
<path fill="none" stroke="#63b8ff" d="M1454.1,-62.67C1329.43,-52.48 965.2,-22.72 857.02,-13.88"/>
<polygon fill="#63b8ff" stroke="#63b8ff" points="1453.64,-66.14 1463.89,-63.47 1454.21,-59.17 1453.64,-66.14"/>
</a>
</g>
</g>
<!-- Node26&#45;&gt;Node14 -->
<g id="edge45_Node000026_Node000014" class="edge">
<title>Node26&#45;&gt;Node14</title>
<g id="a_edge45_Node000026_Node000014"><a xlink:title=" ">
<path fill="none" stroke="#63b8ff" d="M1454.41,-57.25C1453.39,-57.07 1452.38,-56.91 1451.38,-56.75 1319.48,-35.85 1162.47,-21.53 1084.82,-15.14"/>
<polygon fill="#63b8ff" stroke="#63b8ff" points="1453.51,-60.64 1463.97,-59 1454.77,-53.75 1453.51,-60.64"/>
</a>
</g>
</g>
<!-- Node27 -->
<g id="Node000027" class="node">
<title>Node27</title>
<g id="a_Node000027"><a xlink:href="release__node__num__deserialize_8c.html" target="_top" xlink:title=" ">
<polygon fill="white" stroke="#666666" points="1489.88,-20.75 1314.88,-20.75 1314.88,0 1489.88,0 1489.88,-20.75"/>
<text text-anchor="middle" x="1402.38" y="-7.25" font-family="Helvetica,sans-Serif" font-size="10.00">release_node_num_deserialize.c</text>
</a>
</g>
</g>
<!-- Node26&#45;&gt;Node27 -->
<g id="edge43_Node000026_Node000027" class="edge">
<title>Node26&#45;&gt;Node27</title>
<g id="a_edge43_Node000026_Node000027"><a xlink:title=" ">
<path fill="none" stroke="#63b8ff" d="M1470.02,-50.78C1453.67,-41.25 1433.16,-29.31 1419.03,-21.08"/>
<polygon fill="#63b8ff" stroke="#63b8ff" points="1467.86,-53.57 1478.26,-55.58 1471.38,-47.52 1467.86,-53.57"/>
</a>
</g>
</g>
<!-- Node28 -->
<g id="Node000028" class="node">
<title>Node28</title>
<g id="a_Node000028"><a xlink:href="release__node__num__serialize_8c.html" target="_top" xlink:title=" ">
<polygon fill="white" stroke="#666666" points="1670.88,-20.75 1507.88,-20.75 1507.88,0 1670.88,0 1670.88,-20.75"/>
<text text-anchor="middle" x="1589.38" y="-7.25" font-family="Helvetica,sans-Serif" font-size="10.00">release_node_num_serialize.c</text>
</a>
</g>
</g>
<!-- Node26&#45;&gt;Node28 -->
<g id="edge44_Node000026_Node000028" class="edge">
<title>Node26&#45;&gt;Node28</title>
<g id="a_edge44_Node000026_Node000028"><a xlink:title=" ">
<path fill="none" stroke="#63b8ff" d="M1522.91,-50.51C1539.01,-41.03 1559.05,-29.23 1572.89,-21.08"/>
<polygon fill="#63b8ff" stroke="#63b8ff" points="1521.15,-47.48 1514.31,-55.57 1524.7,-53.51 1521.15,-47.48"/>
</a>
</g>
</g>
<!-- Node29&#45;&gt;Node4 -->
<g id="edge48_Node000029_Node000004" class="edge">
<title>Node29&#45;&gt;Node4</title>
<g id="a_edge48_Node000029_Node000004"><a xlink:title=" ">
<path fill="none" stroke="#63b8ff" d="M173.54,-112.84C221.38,-97.76 266.75,-83.86 293.89,-75.57"/>
<polygon fill="#63b8ff" stroke="#63b8ff" points="172.57,-109.48 164.09,-115.83 174.68,-116.15 172.57,-109.48"/>
</a>
</g>
</g>
<!-- Node29&#45;&gt;Node6 -->
<g id="edge49_Node000029_Node000006" class="edge">
<title>Node29&#45;&gt;Node6</title>
<g id="a_edge49_Node000029_Node000006"><a xlink:title=" ">
<path fill="none" stroke="#63b8ff" d="M174,-113.31C312,-84.32 466.4,-73.5 534.76,-69.79"/>
<polygon fill="#63b8ff" stroke="#63b8ff" points="173.36,-109.87 164.31,-115.39 174.82,-116.71 173.36,-109.87"/>
</a>
</g>
</g>
<!-- Node29&#45;&gt;Node8 -->
<g id="edge50_Node000029_Node000008" class="edge">
<title>Node29&#45;&gt;Node8</title>
<g id="a_edge50_Node000029_Node000008"><a xlink:title=" ">
<path fill="none" stroke="#63b8ff" d="M169.57,-107.53C186.44,-98 207.61,-86.06 222.18,-77.83"/>
<polygon fill="#63b8ff" stroke="#63b8ff" points="168.02,-104.38 161.03,-112.34 171.46,-110.48 168.02,-104.38"/>
</a>
</g>
</g>
<!-- Node29&#45;&gt;Node12 -->
<g id="edge52_Node000029_Node000012" class="edge">
<title>Node29&#45;&gt;Node12</title>
<g id="a_edge52_Node000029_Node000012"><a xlink:title=" ">
<path fill="none" stroke="#63b8ff" d="M132.96,-102.83C127.63,-88.18 124.04,-68.85 135.38,-56.75 180.98,-8.05 667.13,-9.69 795.46,-10.99"/>
<polygon fill="#63b8ff" stroke="#63b8ff" points="129.68,-104.07 136.77,-111.94 136.14,-101.37 129.68,-104.07"/>
</a>
</g>
</g>
<!-- Node29&#45;&gt;Node18 -->
<g id="edge53_Node000029_Node000018" class="edge">
<title>Node29&#45;&gt;Node18</title>
<g id="a_edge53_Node000029_Node000018"><a xlink:title=" ">
<path fill="none" stroke="#63b8ff" d="M114.9,-107.53C97.85,-98 76.47,-86.06 61.74,-77.83"/>
<polygon fill="#63b8ff" stroke="#63b8ff" points="113.1,-110.53 123.53,-112.35 116.51,-104.42 113.1,-110.53"/>
</a>
</g>
</g>
<!-- Node30 -->
<g id="Node000030" class="node">
<title>Node30</title>
<g id="a_Node000030"><a xlink:href="log_8c.html" target="_top" xlink:title=" ">
<polygon fill="white" stroke="#666666" points="184,-77.5 144.75,-77.5 144.75,-56.75 184,-56.75 184,-77.5"/>
<text text-anchor="middle" x="164.38" y="-64" font-family="Helvetica,sans-Serif" font-size="10.00">log.c</text>
</a>
</g>
</g>
<!-- Node29&#45;&gt;Node30 -->
<g id="edge51_Node000029_Node000030" class="edge">
<title>Node29&#45;&gt;Node30</title>
<g id="a_edge51_Node000029_Node000030"><a xlink:title=" ">
<path fill="none" stroke="#63b8ff" d="M150.56,-102.49C153.96,-94.05 157.73,-84.66 160.48,-77.83"/>
<polygon fill="#63b8ff" stroke="#63b8ff" points="147.35,-101.1 146.87,-111.68 153.85,-103.71 147.35,-101.1"/>
</a>
</g>
</g>
<!-- Node31&#45;&gt;Node6 -->
<g id="edge56_Node000031_Node000006" class="edge">
<title>Node31&#45;&gt;Node6</title>
<g id="a_edge56_Node000031_Node000006"><a xlink:title=" ">
<path fill="none" stroke="#63b8ff" d="M654.89,-272.24C659.73,-236.55 664.57,-162.86 632.38,-113.5 622.17,-97.86 604.59,-85.75 590.74,-78"/>
<polygon fill="#63b8ff" stroke="#63b8ff" points="651.44,-271.65 653.4,-282.07 658.36,-272.7 651.44,-271.65"/>
</a>
</g>
</g>
<!-- Node31&#45;&gt;Node10 -->
<g id="edge57_Node000031_Node000010" class="edge">
<title>Node31&#45;&gt;Node10</title>
<g id="a_edge57_Node000031_Node000010"><a xlink:title=" ">
<path fill="none" stroke="#63b8ff" d="M624.32,-277.06C613.75,-269.46 602.48,-259.46 595.38,-247.75 572.79,-210.52 570.24,-156.47 570.2,-134.6"/>
<polygon fill="#63b8ff" stroke="#63b8ff" points="622.19,-279.84 632.44,-282.51 626.09,-274.03 622.19,-279.84"/>
</a>
</g>
</g>
<!-- Node31&#45;&gt;Node21 -->
<g id="edge55_Node000031_Node000021" class="edge">
<title>Node31&#45;&gt;Node21</title>
<g id="a_edge55_Node000031_Node000021"><a xlink:title=" ">
<path fill="none" stroke="#63b8ff" d="M685.57,-291.19C752.79,-285.78 904.15,-265.59 1002.38,-191 1021.95,-176.13 1034.42,-148.98 1039.99,-134.53"/>
<polygon fill="#63b8ff" stroke="#63b8ff" points="685.62,-287.67 675.91,-291.9 686.14,-294.65 685.62,-287.67"/>
</a>
</g>
</g>
<!-- Node32 -->
<g id="Node000032" class="node">
<title>Node32</title>
<g id="a_Node000032"><a xlink:href="socket_8h.html" target="_top" xlink:title=" ">
<polygon fill="white" stroke="#666666" points="781.62,-247.75 725.12,-247.75 725.12,-227 781.62,-227 781.62,-247.75"/>
<text text-anchor="middle" x="753.38" y="-234.25" font-family="Helvetica,sans-Serif" font-size="10.00">socket.h</text>
</a>
</g>
</g>
<!-- Node31&#45;&gt;Node32 -->
<g id="edge58_Node000031_Node000032" class="edge">
<title>Node31&#45;&gt;Node32</title>
<g id="a_edge58_Node000031_Node000032"><a xlink:title=" ">
<path fill="none" stroke="#63b8ff" d="M679.72,-277.91C697.5,-268.36 719.9,-256.34 735.3,-248.08"/>
<polygon fill="#63b8ff" stroke="#63b8ff" points="678.1,-274.81 670.94,-282.62 681.41,-280.98 678.1,-274.81"/>
</a>
</g>
</g>
<!-- Node34 -->
<g id="Node000034" class="node">
<title>Node34</title>
<g id="a_Node000034"><a xlink:href="vlcb_8c.html" target="_top" xlink:title=" ">
<polygon fill="white" stroke="#666666" points="648.62,-247.75 604.12,-247.75 604.12,-227 648.62,-227 648.62,-247.75"/>
<text text-anchor="middle" x="626.38" y="-234.25" font-family="Helvetica,sans-Serif" font-size="10.00">vlcb.c</text>
</a>
</g>
</g>
<!-- Node31&#45;&gt;Node34 -->
<g id="edge67_Node000031_Node000034" class="edge">
<title>Node31&#45;&gt;Node34</title>
<g id="a_edge67_Node000031_Node000034"><a xlink:title=" ">
<path fill="none" stroke="#63b8ff" d="M642.2,-273.03C638.31,-264.52 633.96,-254.99 630.81,-248.08"/>
<polygon fill="#63b8ff" stroke="#63b8ff" points="638.94,-274.32 646.28,-281.96 645.31,-271.41 638.94,-274.32"/>
</a>
</g>
</g>
<!-- Node32&#45;&gt;Node4 -->
<g id="edge61_Node000032_Node000004" class="edge">
<title>Node32&#45;&gt;Node4</title>
<g id="a_edge61_Node000032_Node000004"><a xlink:title=" ">
<path fill="none" stroke="#63b8ff" d="M713.83,-233.24C661.43,-228.27 566.59,-216.4 489.38,-191 435.99,-173.44 420.84,-168.62 376.38,-134.25 354.63,-117.44 334.79,-91.58 324.93,-77.7"/>
<polygon fill="#63b8ff" stroke="#63b8ff" points="713.19,-236.7 723.46,-234.12 713.82,-229.73 713.19,-236.7"/>
</a>
</g>
</g>
<!-- Node32&#45;&gt;Node5 -->
<g id="edge62_Node000032_Node000005" class="edge">
<title>Node32&#45;&gt;Node5</title>
<g id="a_edge62_Node000032_Node000005"><a xlink:title=" ">
<path fill="none" stroke="#63b8ff" d="M713.61,-226.91C666.04,-215.59 587.87,-196.98 548.18,-187.53"/>
<polygon fill="#63b8ff" stroke="#63b8ff" points="712.7,-230.29 723.24,-229.2 714.32,-223.48 712.7,-230.29"/>
</a>
</g>
</g>
<!-- Node32&#45;&gt;Node6 -->
<g id="edge63_Node000032_Node000006" class="edge">
<title>Node32&#45;&gt;Node6</title>
<g id="a_edge63_Node000032_Node000006"><a xlink:title=" ">
<path fill="none" stroke="#63b8ff" d="M759.74,-215.73C766.58,-189.05 773.6,-142.57 750.38,-113.5 732.57,-91.22 653.34,-78.06 606.13,-72.06"/>
<polygon fill="#63b8ff" stroke="#63b8ff" points="756.38,-214.74 757.03,-225.32 763.12,-216.64 756.38,-214.74"/>
</a>
</g>
</g>
<!-- Node32&#45;&gt;Node14 -->
<g id="edge66_Node000032_Node000014" class="edge">
<title>Node32&#45;&gt;Node14</title>
<g id="a_edge66_Node000032_Node000014"><a xlink:title=" ">
<path fill="none" stroke="#63b8ff" d="M788.93,-222.08C806.88,-214.13 828.56,-203.34 846.38,-191 925.12,-136.47 1003.13,-49.8 1028.13,-21.02"/>
<polygon fill="#63b8ff" stroke="#63b8ff" points="787.77,-218.77 779.98,-225.95 790.55,-225.2 787.77,-218.77"/>
</a>
</g>
</g>
<!-- Node32&#45;&gt;Node16 -->
<g id="edge64_Node000032_Node000016" class="edge">
<title>Node32&#45;&gt;Node16</title>
<g id="a_edge64_Node000032_Node000016"><a xlink:title=" ">
<path fill="none" stroke="#63b8ff" d="M746.84,-215.72C744.44,-207.98 741.73,-199.11 739.38,-191 733.54,-170.89 727.22,-147.18 723.84,-134.32"/>
<polygon fill="#63b8ff" stroke="#63b8ff" points="743.49,-216.73 749.82,-225.22 750.17,-214.63 743.49,-216.73"/>
</a>
</g>
</g>
<!-- Node32&#45;&gt;Node21 -->
<g id="edge59_Node000032_Node000021" class="edge">
<title>Node32&#45;&gt;Node21</title>
<g id="a_edge59_Node000032_Node000021"><a xlink:title=" ">
<path fill="none" stroke="#63b8ff" d="M793.2,-234.81C839.25,-231.55 916.15,-221.56 974.38,-191 1001.11,-176.97 1024.71,-149.47 1036.11,-134.74"/>
<polygon fill="#63b8ff" stroke="#63b8ff" points="793.19,-231.3 783.42,-235.42 793.62,-238.29 793.19,-231.3"/>
</a>
</g>
</g>
<!-- Node32&#45;&gt;Node22 -->
<g id="edge60_Node000032_Node000022" class="edge">
<title>Node32&#45;&gt;Node22</title>
<g id="a_edge60_Node000032_Node000022"><a xlink:title=" ">
<path fill="none" stroke="#63b8ff" d="M792.69,-224.14C824.36,-214.29 868.31,-200.62 897.74,-191.47"/>
<polygon fill="#63b8ff" stroke="#63b8ff" points="792,-220.69 783.49,-227.01 794.08,-227.38 792,-220.69"/>
</a>
</g>
</g>
<!-- Node33 -->
<g id="Node000033" class="node">
<title>Node33</title>
<g id="a_Node000033"><a xlink:href="socket_8c.html" target="_top" xlink:title=" ">
<polygon fill="white" stroke="#666666" points="837.25,-191 781.5,-191 781.5,-170.25 837.25,-170.25 837.25,-191"/>
<text text-anchor="middle" x="809.38" y="-177.5" font-family="Helvetica,sans-Serif" font-size="10.00">socket.c</text>
</a>
</g>
</g>
<!-- Node32&#45;&gt;Node33 -->
<g id="edge65_Node000032_Node000033" class="edge">
<title>Node32&#45;&gt;Node33</title>
<g id="a_edge65_Node000032_Node000033"><a xlink:title=" ">
<path fill="none" stroke="#63b8ff" d="M771.61,-218.55C780.86,-209.5 791.75,-198.86 799.45,-191.33"/>
<polygon fill="#63b8ff" stroke="#63b8ff" points="769.17,-216.04 764.47,-225.53 774.07,-221.04 769.17,-216.04"/>
</a>
</g>
</g>
</g>
</svg>
