<?xml version="1.0" encoding="UTF-8" standalone="no"?>
<!DOCTYPE svg PUBLIC "-//W3C//DTD SVG 1.1//EN"
 "http://www.w3.org/Graphics/SVG/1.1/DTD/svg11.dtd">
<!-- Generated by graphviz version 12.1.2 (20240928.0832)
 -->
<!-- Title: error.h Pages: 1 -->
<svg width="1331pt" height="369pt"
 viewBox="0.00 0.00 1330.62 369.25" xmlns="http://www.w3.org/2000/svg" xmlns:xlink="http://www.w3.org/1999/xlink">
<g id="graph0" class="graph" transform="scale(1 1) rotate(0) translate(4 365.25)">
<title>error.h</title>
<!-- Node1 -->
<g id="Node000001" class="node">
<title>Node1</title>
<g id="a_Node000001"><a xlink:title=" ">
<polygon fill="#999999" stroke="#666666" points="388.5,-361.25 341,-361.25 341,-340.5 388.5,-340.5 388.5,-361.25"/>
<text text-anchor="middle" x="364.75" y="-347.75" font-family="Helvetica,sans-Serif" font-size="10.00">error.h</text>
</a>
</g>
</g>
<!-- Node2 -->
<g id="Node000002" class="node">
<title>Node2</title>
<g id="a_Node000002"><a xlink:href="adapter_8h.html" target="_top" xlink:title=" ">
<polygon fill="white" stroke="#666666" points="270.62,-247.75 208.88,-247.75 208.88,-227 270.62,-227 270.62,-247.75"/>
<text text-anchor="middle" x="239.75" y="-234.25" font-family="Helvetica,sans-Serif" font-size="10.00">adapter.h</text>
</a>
</g>
</g>
<!-- Node1&#45;&gt;Node2 -->
<g id="edge1_Node000001_Node000002" class="edge">
<title>Node1&#45;&gt;Node2</title>
<g id="a_edge1_Node000001_Node000002"><a xlink:title=" ">
<path fill="none" stroke="#63b8ff" d="M345.65,-332.84C319.13,-309.18 272.03,-267.16 250.74,-248.18"/>
<polygon fill="#63b8ff" stroke="#63b8ff" points="343.17,-335.32 352.96,-339.36 347.83,-330.09 343.17,-335.32"/>
</a>
</g>
</g>
<!-- Node18 -->
<g id="Node000018" class="node">
<title>Node18</title>
<g id="a_Node000018"><a xlink:href="packet_2datagram_8h.html" target="_top" xlink:title=" ">
<polygon fill="white" stroke="#666666" points="1029.88,-247.75 957.62,-247.75 957.62,-227 1029.88,-227 1029.88,-247.75"/>
<text text-anchor="middle" x="993.75" y="-234.25" font-family="Helvetica,sans-Serif" font-size="10.00">datagram.h</text>
</a>
</g>
</g>
<!-- Node1&#45;&gt;Node18 -->
<g id="edge26_Node000001_Node000018" class="edge">
<title>Node1&#45;&gt;Node18</title>
<g id="a_edge26_Node000001_Node000018"><a xlink:title=" ">
<path fill="none" stroke="#63b8ff" d="M399.69,-343.68C509.25,-324.26 845.4,-264.67 957.18,-244.86"/>
<polygon fill="#63b8ff" stroke="#63b8ff" points="399.37,-340.18 390.13,-345.38 400.59,-347.08 399.37,-340.18"/>
</a>
</g>
</g>
<!-- Node28 -->
<g id="Node000028" class="node">
<title>Node28</title>
<g id="a_Node000028"><a xlink:href="log_8h.html" target="_top" xlink:title=" ">
<polygon fill="white" stroke="#666666" points="147.75,-134.25 107.75,-134.25 107.75,-113.5 147.75,-113.5 147.75,-134.25"/>
<text text-anchor="middle" x="127.75" y="-120.75" font-family="Helvetica,sans-Serif" font-size="10.00">log.h</text>
</a>
</g>
</g>
<!-- Node1&#45;&gt;Node28 -->
<g id="edge44_Node000001_Node000028" class="edge">
<title>Node1&#45;&gt;Node28</title>
<g id="a_edge44_Node000001_Node000028"><a xlink:title=" ">
<path fill="none" stroke="#63b8ff" d="M329.84,-340.81C270.49,-323.28 151.6,-278.53 102.75,-191 92.22,-172.14 107.99,-147.96 118.87,-134.69"/>
<polygon fill="#63b8ff" stroke="#63b8ff" points="328.85,-344.16 339.43,-343.54 330.77,-337.43 328.85,-344.16"/>
</a>
</g>
</g>
<!-- Node30 -->
<g id="Node000030" class="node">
<title>Node30</title>
<g id="a_Node000030"><a xlink:href="vlcb_8h.html" target="_top" xlink:title=" ">
<polygon fill="white" stroke="#666666" points="523.38,-304.5 478.12,-304.5 478.12,-283.75 523.38,-283.75 523.38,-304.5"/>
<text text-anchor="middle" x="500.75" y="-291" font-family="Helvetica,sans-Serif" font-size="10.00">vlcb.h</text>
</a>
</g>
</g>
<!-- Node1&#45;&gt;Node30 -->
<g id="edge51_Node000001_Node000030" class="edge">
<title>Node1&#45;&gt;Node30</title>
<g id="a_edge51_Node000001_Node000030"><a xlink:title=" ">
<path fill="none" stroke="#63b8ff" d="M399.12,-336.04C423.79,-326.11 456.36,-313 477.89,-304.33"/>
<polygon fill="#63b8ff" stroke="#63b8ff" points="398.12,-332.67 390.16,-339.65 400.74,-339.16 398.12,-332.67"/>
</a>
</g>
</g>
<!-- Node3 -->
<g id="Node000003" class="node">
<title>Node3</title>
<g id="a_Node000003"><a xlink:href="adapter_8c.html" target="_top" xlink:title=" ">
<polygon fill="white" stroke="#666666" points="173.25,-191 112.25,-191 112.25,-170.25 173.25,-170.25 173.25,-191"/>
<text text-anchor="middle" x="142.75" y="-177.5" font-family="Helvetica,sans-Serif" font-size="10.00">adapter.c</text>
</a>
</g>
</g>
<!-- Node2&#45;&gt;Node3 -->
<g id="edge2_Node000002_Node000003" class="edge">
<title>Node2&#45;&gt;Node3</title>
<g id="a_edge2_Node000002_Node000003"><a xlink:title=" ">
<path fill="none" stroke="#63b8ff" d="M212.56,-221.03C195.68,-211.5 174.52,-199.56 159.94,-191.33"/>
<polygon fill="#63b8ff" stroke="#63b8ff" points="210.66,-223.98 221.09,-225.84 214.1,-217.88 210.66,-223.98"/>
</a>
</g>
</g>
<!-- Node4 -->
<g id="Node000004" class="node">
<title>Node4</title>
<g id="a_Node000004"><a xlink:href="iface_8c.html" target="_top" xlink:title=" ">
<polygon fill="white" stroke="#666666" points="431.88,-77.5 383.62,-77.5 383.62,-56.75 431.88,-56.75 431.88,-77.5"/>
<text text-anchor="middle" x="407.75" y="-64" font-family="Helvetica,sans-Serif" font-size="10.00">iface.c</text>
</a>
</g>
</g>
<!-- Node2&#45;&gt;Node4 -->
<g id="edge3_Node000002_Node000004" class="edge">
<title>Node2&#45;&gt;Node4</title>
<g id="a_edge3_Node000002_Node000004"><a xlink:title=" ">
<path fill="none" stroke="#63b8ff" d="M257.02,-218.56C280.37,-194.53 323.4,-150.48 360.75,-113.5 373.32,-101.05 388.03,-86.92 397.59,-77.79"/>
<polygon fill="#63b8ff" stroke="#63b8ff" points="254.59,-216.04 250.14,-225.65 259.61,-220.91 254.59,-216.04"/>
</a>
</g>
</g>
<!-- Node5 -->
<g id="Node000005" class="node">
<title>Node5</title>
<g id="a_Node000005"><a xlink:href="iface_8h.html" target="_top" xlink:title=" ">
<polygon fill="white" stroke="#666666" points="511.25,-191 462.25,-191 462.25,-170.25 511.25,-170.25 511.25,-191"/>
<text text-anchor="middle" x="486.75" y="-177.5" font-family="Helvetica,sans-Serif" font-size="10.00">iface.h</text>
</a>
</g>
</g>
<!-- Node2&#45;&gt;Node5 -->
<g id="edge4_Node000002_Node000005" class="edge">
<title>Node2&#45;&gt;Node5</title>
<g id="a_edge4_Node000002_Node000005"><a xlink:title=" ">
<path fill="none" stroke="#63b8ff" d="M282.17,-226.97C334.01,-215.48 419.98,-196.43 462.04,-187.1"/>
<polygon fill="#63b8ff" stroke="#63b8ff" points="281.52,-223.53 272.51,-229.11 283.03,-230.37 281.52,-223.53"/>
</a>
</g>
</g>
<!-- Node6 -->
<g id="Node000006" class="node">
<title>Node6</title>
<g id="a_Node000006"><a xlink:href="iface__can_8c.html" target="_top" xlink:title=" ">
<polygon fill="white" stroke="#666666" points="365.12,-77.5 294.38,-77.5 294.38,-56.75 365.12,-56.75 365.12,-77.5"/>
<text text-anchor="middle" x="329.75" y="-64" font-family="Helvetica,sans-Serif" font-size="10.00">iface_can.c</text>
</a>
</g>
</g>
<!-- Node2&#45;&gt;Node6 -->
<g id="edge22_Node000002_Node000006" class="edge">
<title>Node2&#45;&gt;Node6</title>
<g id="a_edge22_Node000002_Node000006"><a xlink:title=" ">
<path fill="none" stroke="#63b8ff" d="M222.96,-217.97C201.89,-192.57 171.23,-146.21 194.75,-113.5 200.76,-105.14 256.06,-88.46 293.99,-77.82"/>
<polygon fill="#63b8ff" stroke="#63b8ff" points="220.25,-220.19 229.43,-225.46 225.54,-215.61 220.25,-220.19"/>
</a>
</g>
</g>
<!-- Node7 -->
<g id="Node000007" class="node">
<title>Node7</title>
<g id="a_Node000007"><a xlink:href="iface__can_8h.html" target="_top" xlink:title=" ">
<polygon fill="white" stroke="#666666" points="275.5,-134.25 204,-134.25 204,-113.5 275.5,-113.5 275.5,-134.25"/>
<text text-anchor="middle" x="239.75" y="-120.75" font-family="Helvetica,sans-Serif" font-size="10.00">iface_can.h</text>
</a>
</g>
</g>
<!-- Node2&#45;&gt;Node7 -->
<g id="edge23_Node000002_Node000007" class="edge">
<title>Node2&#45;&gt;Node7</title>
<g id="a_edge23_Node000002_Node000007"><a xlink:title=" ">
<path fill="none" stroke="#63b8ff" d="M239.75,-215.47C239.75,-191.34 239.75,-152.67 239.75,-134.68"/>
<polygon fill="#63b8ff" stroke="#63b8ff" points="236.25,-215.35 239.75,-225.36 243.25,-215.36 236.25,-215.35"/>
</a>
</g>
</g>
<!-- Node16 -->
<g id="Node000016" class="node">
<title>Node16</title>
<g id="a_Node000016"><a xlink:href="packet__parse_8h.html" target="_top" xlink:title=" ">
<polygon fill="white" stroke="#666666" points="89.5,-134.25 0,-134.25 0,-113.5 89.5,-113.5 89.5,-134.25"/>
<text text-anchor="middle" x="44.75" y="-120.75" font-family="Helvetica,sans-Serif" font-size="10.00">packet_parse.h</text>
</a>
</g>
</g>
<!-- Node2&#45;&gt;Node16 -->
<g id="edge24_Node000002_Node000016" class="edge">
<title>Node2&#45;&gt;Node16</title>
<g id="a_edge24_Node000002_Node000016"><a xlink:title=" ">
<path fill="none" stroke="#63b8ff" d="M197.35,-228.45C168.88,-221.72 131.48,-210.04 102.75,-191 79.58,-175.65 60.04,-148.7 50.68,-134.41"/>
<polygon fill="#63b8ff" stroke="#63b8ff" points="196.56,-231.86 207.09,-230.63 198.09,-225.03 196.56,-231.86"/>
</a>
</g>
</g>
<!-- Node5&#45;&gt;Node4 -->
<g id="edge5_Node000005_Node000004" class="edge">
<title>Node5&#45;&gt;Node4</title>
<g id="a_edge5_Node000005_Node000004"><a xlink:title=" ">
<path fill="none" stroke="#63b8ff" d="M491.48,-158.63C493.43,-144.87 493.65,-127 485.75,-113.5 474.2,-93.76 450.45,-81.78 432.18,-75.12"/>
<polygon fill="#63b8ff" stroke="#63b8ff" points="488.06,-157.9 489.68,-168.37 494.94,-159.18 488.06,-157.9"/>
</a>
</g>
</g>
<!-- Node5&#45;&gt;Node6 -->
<g id="edge6_Node000005_Node000006" class="edge">
<title>Node5&#45;&gt;Node6</title>
<g id="a_edge6_Node000005_Node000006"><a xlink:title=" ">
<path fill="none" stroke="#63b8ff" d="M480.71,-159.25C475.46,-144.72 466.49,-125.67 452.75,-113.5 439.37,-101.66 396.14,-87.27 364.71,-77.92"/>
<polygon fill="#63b8ff" stroke="#63b8ff" points="477.37,-160.29 483.81,-168.71 484.02,-158.12 477.37,-160.29"/>
</a>
</g>
</g>
<!-- Node5&#45;&gt;Node7 -->
<g id="edge7_Node000005_Node000007" class="edge">
<title>Node5&#45;&gt;Node7</title>
<g id="a_edge7_Node000005_Node000007"><a xlink:title=" ">
<path fill="none" stroke="#63b8ff" d="M451.06,-171.71C404.27,-161.34 322.66,-143.25 275.73,-132.85"/>
<polygon fill="#63b8ff" stroke="#63b8ff" points="450.17,-175.1 460.69,-173.85 451.68,-168.27 450.17,-175.1"/>
</a>
</g>
</g>
<!-- Node9 -->
<g id="Node000009" class="node">
<title>Node9</title>
<g id="a_Node000009"><a xlink:href="iface__vlcb_8h.html" target="_top" xlink:title=" ">
<polygon fill="white" stroke="#666666" points="444,-134.25 369.5,-134.25 369.5,-113.5 444,-113.5 444,-134.25"/>
<text text-anchor="middle" x="406.75" y="-120.75" font-family="Helvetica,sans-Serif" font-size="10.00">iface_vlcb.h</text>
</a>
</g>
</g>
<!-- Node5&#45;&gt;Node9 -->
<g id="edge10_Node000005_Node000009" class="edge">
<title>Node5&#45;&gt;Node9</title>
<g id="a_edge10_Node000005_Node000009"><a xlink:title=" ">
<path fill="none" stroke="#63b8ff" d="M463.13,-163.46C449.42,-154.08 432.61,-142.57 420.93,-134.58"/>
<polygon fill="#63b8ff" stroke="#63b8ff" points="460.97,-166.22 471.2,-168.98 464.92,-160.45 460.97,-166.22"/>
</a>
</g>
</g>
<!-- Node10 -->
<g id="Node000010" class="node">
<title>Node10</title>
<g id="a_Node000010"><a xlink:href="module_2inc_2vlcb_2module_8h.html" target="_top" xlink:title=" ">
<polygon fill="white" stroke="#666666" points="695.62,-134.25 633.88,-134.25 633.88,-113.5 695.62,-113.5 695.62,-134.25"/>
<text text-anchor="middle" x="664.75" y="-120.75" font-family="Helvetica,sans-Serif" font-size="10.00">module.h</text>
</a>
</g>
</g>
<!-- Node5&#45;&gt;Node10 -->
<g id="edge13_Node000005_Node000010" class="edge">
<title>Node5&#45;&gt;Node10</title>
<g id="a_edge13_Node000005_Node000010"><a xlink:title=" ">
<path fill="none" stroke="#63b8ff" d="M522.33,-168.68C554.88,-158.67 602.56,-144 633.63,-134.45"/>
<polygon fill="#63b8ff" stroke="#63b8ff" points="521.48,-165.28 512.95,-171.57 523.53,-171.97 521.48,-165.28"/>
</a>
</g>
</g>
<!-- Node15 -->
<g id="Node000015" class="node">
<title>Node15</title>
<g id="a_Node000015"><a xlink:href="net_2inc_2vlcb_2net_8h.html" target="_top" xlink:title=" ">
<polygon fill="white" stroke="#666666" points="578.12,-134.25 537.38,-134.25 537.38,-113.5 578.12,-113.5 578.12,-134.25"/>
<text text-anchor="middle" x="557.75" y="-120.75" font-family="Helvetica,sans-Serif" font-size="10.00">net.h</text>
</a>
</g>
</g>
<!-- Node5&#45;&gt;Node15 -->
<g id="edge21_Node000005_Node000015" class="edge">
<title>Node5&#45;&gt;Node15</title>
<g id="a_edge21_Node000005_Node000015"><a xlink:title=" ">
<path fill="none" stroke="#63b8ff" d="M508.42,-162.91C520.46,-153.63 535,-142.42 545.17,-134.58"/>
<polygon fill="#63b8ff" stroke="#63b8ff" points="506.42,-160.03 500.64,-168.91 510.7,-165.58 506.42,-160.03"/>
</a>
</g>
</g>
<!-- Node7&#45;&gt;Node4 -->
<g id="edge8_Node000007_Node000004" class="edge">
<title>Node7&#45;&gt;Node4</title>
<g id="a_edge8_Node000007_Node000004"><a xlink:title=" ">
<path fill="none" stroke="#63b8ff" d="M280.6,-109.56C312.67,-99.11 356.25,-84.91 383.16,-76.14"/>
<polygon fill="#63b8ff" stroke="#63b8ff" points="279.65,-106.19 271.22,-112.62 281.82,-112.85 279.65,-106.19"/>
</a>
</g>
</g>
<!-- Node8 -->
<g id="Node000008" class="node">
<title>Node8</title>
<g id="a_Node000008"><a xlink:href="iface__vlcb_8c.html" target="_top" xlink:title=" ">
<polygon fill="white" stroke="#666666" points="276.62,-77.5 202.88,-77.5 202.88,-56.75 276.62,-56.75 276.62,-77.5"/>
<text text-anchor="middle" x="239.75" y="-64" font-family="Helvetica,sans-Serif" font-size="10.00">iface_vlcb.c</text>
</a>
</g>
</g>
<!-- Node7&#45;&gt;Node8 -->
<g id="edge9_Node000007_Node000008" class="edge">
<title>Node7&#45;&gt;Node8</title>
<g id="a_edge9_Node000007_Node000008"><a xlink:title=" ">
<path fill="none" stroke="#63b8ff" d="M239.75,-101.63C239.75,-93.41 239.75,-84.43 239.75,-77.83"/>
<polygon fill="#63b8ff" stroke="#63b8ff" points="236.25,-101.57 239.75,-111.57 243.25,-101.57 236.25,-101.57"/>
</a>
</g>
</g>
<!-- Node9&#45;&gt;Node4 -->
<g id="edge11_Node000009_Node000004" class="edge">
<title>Node9&#45;&gt;Node4</title>
<g id="a_edge11_Node000009_Node000004"><a xlink:title=" ">
<path fill="none" stroke="#63b8ff" d="M407.14,-101.63C407.29,-93.41 407.45,-84.43 407.57,-77.83"/>
<polygon fill="#63b8ff" stroke="#63b8ff" points="403.64,-101.51 406.96,-111.57 410.64,-101.64 403.64,-101.51"/>
</a>
</g>
</g>
<!-- Node9&#45;&gt;Node6 -->
<g id="edge12_Node000009_Node000006" class="edge">
<title>Node9&#45;&gt;Node6</title>
<g id="a_edge12_Node000009_Node000006"><a xlink:title=" ">
<path fill="none" stroke="#63b8ff" d="M383.63,-106.44C370.51,-97.11 354.53,-85.75 343.4,-77.83"/>
<polygon fill="#63b8ff" stroke="#63b8ff" points="381.57,-109.27 391.75,-112.21 385.63,-103.56 381.57,-109.27"/>
</a>
</g>
</g>
<!-- Node11 -->
<g id="Node000011" class="node">
<title>Node11</title>
<g id="a_Node000011"><a xlink:href="module_8c.html" target="_top" xlink:title=" ">
<polygon fill="white" stroke="#666666" points="686.25,-20.75 625.25,-20.75 625.25,0 686.25,0 686.25,-20.75"/>
<text text-anchor="middle" x="655.75" y="-7.25" font-family="Helvetica,sans-Serif" font-size="10.00">module.c</text>
</a>
</g>
</g>
<!-- Node10&#45;&gt;Node11 -->
<g id="edge14_Node000010_Node000011" class="edge">
<title>Node10&#45;&gt;Node11</title>
<g id="a_edge14_Node000010_Node000011"><a xlink:title=" ">
<path fill="none" stroke="#63b8ff" d="M622.57,-112.47C581.75,-101.99 525.12,-86.14 518.75,-77.5 489.47,-37.73 576.06,-20.78 624.87,-14.53"/>
<polygon fill="#63b8ff" stroke="#63b8ff" points="621.59,-115.84 632.14,-114.91 623.31,-109.05 621.59,-115.84"/>
</a>
</g>
</g>
<!-- Node12 -->
<g id="Node000012" class="node">
<title>Node12</title>
<g id="a_Node000012"><a xlink:href="module_2src_2module_8h.html" target="_top" xlink:title=" ">
<polygon fill="white" stroke="#666666" points="589.62,-77.5 527.88,-77.5 527.88,-56.75 589.62,-56.75 589.62,-77.5"/>
<text text-anchor="middle" x="558.75" y="-64" font-family="Helvetica,sans-Serif" font-size="10.00">module.h</text>
</a>
</g>
</g>
<!-- Node10&#45;&gt;Node12 -->
<g id="edge15_Node000010_Node000012" class="edge">
<title>Node10&#45;&gt;Node12</title>
<g id="a_edge15_Node000010_Node000012"><a xlink:title=" ">
<path fill="none" stroke="#63b8ff" d="M635.81,-107.93C617.25,-98.34 593.69,-86.17 577.54,-77.83"/>
<polygon fill="#63b8ff" stroke="#63b8ff" points="633.96,-110.91 644.45,-112.39 637.18,-104.69 633.96,-110.91"/>
</a>
</g>
</g>
<!-- Node13 -->
<g id="Node000013" class="node">
<title>Node13</title>
<g id="a_Node000013"><a xlink:href="state__machine_8c.html" target="_top" xlink:title=" ">
<polygon fill="white" stroke="#666666" points="897.88,-20.75 801.62,-20.75 801.62,0 897.88,0 897.88,-20.75"/>
<text text-anchor="middle" x="849.75" y="-7.25" font-family="Helvetica,sans-Serif" font-size="10.00">state_machine.c</text>
</a>
</g>
</g>
<!-- Node10&#45;&gt;Node13 -->
<g id="edge17_Node000010_Node000013" class="edge">
<title>Node10&#45;&gt;Node13</title>
<g id="a_edge17_Node000010_Node000013"><a xlink:title=" ">
<path fill="none" stroke="#63b8ff" d="M690.36,-107.44C729.07,-84.11 801.37,-40.54 833.56,-21.13"/>
<polygon fill="#63b8ff" stroke="#63b8ff" points="688.9,-104.23 682.14,-112.39 692.51,-110.23 688.9,-104.23"/>
</a>
</g>
</g>
<!-- Node14 -->
<g id="Node000014" class="node">
<title>Node14</title>
<g id="a_Node000014"><a xlink:href="state__machine_8h.html" target="_top" xlink:title=" ">
<polygon fill="white" stroke="#666666" points="704.25,-77.5 607.25,-77.5 607.25,-56.75 704.25,-56.75 704.25,-77.5"/>
<text text-anchor="middle" x="655.75" y="-64" font-family="Helvetica,sans-Serif" font-size="10.00">state_machine.h</text>
</a>
</g>
</g>
<!-- Node10&#45;&gt;Node14 -->
<g id="edge18_Node000010_Node000014" class="edge">
<title>Node10&#45;&gt;Node14</title>
<g id="a_edge18_Node000010_Node000014"><a xlink:title=" ">
<path fill="none" stroke="#63b8ff" d="M661.3,-101.92C659.94,-93.63 658.44,-84.5 657.35,-77.83"/>
<polygon fill="#63b8ff" stroke="#63b8ff" points="657.82,-102.29 662.9,-111.59 664.73,-101.16 657.82,-102.29"/>
</a>
</g>
</g>
<!-- Node12&#45;&gt;Node11 -->
<g id="edge16_Node000012_Node000011" class="edge">
<title>Node12&#45;&gt;Node11</title>
<g id="a_edge16_Node000012_Node000011"><a xlink:title=" ">
<path fill="none" stroke="#63b8ff" d="M585.94,-50.78C602.82,-41.25 623.98,-29.31 638.56,-21.08"/>
<polygon fill="#63b8ff" stroke="#63b8ff" points="584.4,-47.63 577.41,-55.59 587.84,-53.73 584.4,-47.63"/>
</a>
</g>
</g>
<!-- Node14&#45;&gt;Node11 -->
<g id="edge19_Node000014_Node000011" class="edge">
<title>Node14&#45;&gt;Node11</title>
<g id="a_edge19_Node000014_Node000011"><a xlink:title=" ">
<path fill="none" stroke="#63b8ff" d="M655.75,-44.88C655.75,-36.66 655.75,-27.68 655.75,-21.08"/>
<polygon fill="#63b8ff" stroke="#63b8ff" points="652.25,-44.82 655.75,-54.82 659.25,-44.82 652.25,-44.82"/>
</a>
</g>
</g>
<!-- Node14&#45;&gt;Node13 -->
<g id="edge20_Node000014_Node000013" class="edge">
<title>Node14&#45;&gt;Node13</title>
<g id="a_edge20_Node000014_Node000013"><a xlink:title=" ">
<path fill="none" stroke="#63b8ff" d="M701.25,-53.28C736.04,-43.47 783.27,-30.14 815.04,-21.17"/>
<polygon fill="#63b8ff" stroke="#63b8ff" points="700.56,-49.84 691.89,-55.93 702.46,-56.58 700.56,-49.84"/>
</a>
</g>
</g>
<!-- Node17 -->
<g id="Node000017" class="node">
<title>Node17</title>
<g id="a_Node000017"><a xlink:href="packet__parse_8c.html" target="_top" xlink:title=" ">
<polygon fill="white" stroke="#666666" points="89.12,-77.5 0.38,-77.5 0.38,-56.75 89.12,-56.75 89.12,-77.5"/>
<text text-anchor="middle" x="44.75" y="-64" font-family="Helvetica,sans-Serif" font-size="10.00">packet_parse.c</text>
</a>
</g>
</g>
<!-- Node16&#45;&gt;Node17 -->
<g id="edge25_Node000016_Node000017" class="edge">
<title>Node16&#45;&gt;Node17</title>
<g id="a_edge25_Node000016_Node000017"><a xlink:title=" ">
<path fill="none" stroke="#63b8ff" d="M44.75,-101.63C44.75,-93.41 44.75,-84.43 44.75,-77.83"/>
<polygon fill="#63b8ff" stroke="#63b8ff" points="41.25,-101.57 44.75,-111.57 48.25,-101.57 41.25,-101.57"/>
</a>
</g>
</g>
<!-- Node18&#45;&gt;Node11 -->
<g id="edge37_Node000018_Node000011" class="edge">
<title>Node18&#45;&gt;Node11</title>
<g id="a_edge37_Node000018_Node000011"><a xlink:title=" ">
<path fill="none" stroke="#63b8ff" d="M983.64,-216.81C967.42,-186.06 935.61,-128.37 917.75,-113.5 847.21,-54.78 738.98,-27.23 686.46,-16.73"/>
<polygon fill="#63b8ff" stroke="#63b8ff" points="980.42,-218.21 988.15,-225.45 986.62,-214.97 980.42,-218.21"/>
</a>
</g>
</g>
<!-- Node18&#45;&gt;Node13 -->
<g id="edge43_Node000018_Node000013" class="edge">
<title>Node18&#45;&gt;Node13</title>
<g id="a_edge43_Node000018_Node000013"><a xlink:title=" ">
<path fill="none" stroke="#63b8ff" d="M989.46,-215.62C983.54,-190.14 971.23,-146.3 950.75,-113.5 926.05,-73.95 883.54,-37.69 862.42,-21.01"/>
<polygon fill="#63b8ff" stroke="#63b8ff" points="986.03,-216.32 991.59,-225.33 992.86,-214.82 986.03,-216.32"/>
</a>
</g>
</g>
<!-- Node19 -->
<g id="Node000019" class="node">
<title>Node19</title>
<g id="a_Node000019"><a xlink:href="packet_2datagram_8c.html" target="_top" xlink:title=" ">
<polygon fill="white" stroke="#666666" points="1112.5,-191 1041,-191 1041,-170.25 1112.5,-170.25 1112.5,-191"/>
<text text-anchor="middle" x="1076.75" y="-177.5" font-family="Helvetica,sans-Serif" font-size="10.00">datagram.c</text>
</a>
</g>
</g>
<!-- Node18&#45;&gt;Node19 -->
<g id="edge27_Node000018_Node000019" class="edge">
<title>Node18&#45;&gt;Node19</title>
<g id="a_edge27_Node000018_Node000019"><a xlink:title=" ">
<path fill="none" stroke="#63b8ff" d="M1017.84,-220.48C1032.14,-211.05 1049.8,-199.4 1062.04,-191.33"/>
<polygon fill="#63b8ff" stroke="#63b8ff" points="1016.27,-217.33 1009.85,-225.75 1020.13,-223.17 1016.27,-217.33"/>
</a>
</g>
</g>
<!-- Node20 -->
<g id="Node000020" class="node">
<title>Node20</title>
<g id="a_Node000020"><a xlink:href="socket_2datagram_8c.html" target="_top" xlink:title=" ">
<polygon fill="white" stroke="#666666" points="908.5,-134.25 837,-134.25 837,-113.5 908.5,-113.5 908.5,-134.25"/>
<text text-anchor="middle" x="872.75" y="-120.75" font-family="Helvetica,sans-Serif" font-size="10.00">datagram.c</text>
</a>
</g>
</g>
<!-- Node18&#45;&gt;Node20 -->
<g id="edge28_Node000018_Node000020" class="edge">
<title>Node18&#45;&gt;Node20</title>
<g id="a_edge28_Node000018_Node000020"><a xlink:title=" ">
<path fill="none" stroke="#63b8ff" d="M964.85,-221.07C951.27,-213.12 935.33,-202.63 922.75,-191 903.94,-173.61 887.11,-148.44 878.61,-134.71"/>
<polygon fill="#63b8ff" stroke="#63b8ff" points="962.94,-224.01 973.37,-225.89 966.39,-217.92 962.94,-224.01"/>
</a>
</g>
</g>
<!-- Node21 -->
<g id="Node000021" class="node">
<title>Node21</title>
<g id="a_Node000021"><a xlink:href="socket_2datagram_8h.html" target="_top" xlink:title=" ">
<polygon fill="white" stroke="#666666" points="794.88,-191 722.62,-191 722.62,-170.25 794.88,-170.25 794.88,-191"/>
<text text-anchor="middle" x="758.75" y="-177.5" font-family="Helvetica,sans-Serif" font-size="10.00">datagram.h</text>
</a>
</g>
</g>
<!-- Node18&#45;&gt;Node21 -->
<g id="edge29_Node000018_Node000021" class="edge">
<title>Node18&#45;&gt;Node21</title>
<g id="a_edge29_Node000018_Node000021"><a xlink:title=" ">
<path fill="none" stroke="#63b8ff" d="M946.16,-225.29C901.57,-214.9 835.89,-199.6 795.3,-190.14"/>
<polygon fill="#63b8ff" stroke="#63b8ff" points="945.28,-228.68 955.82,-227.54 946.87,-221.86 945.28,-228.68"/>
</a>
</g>
</g>
<!-- Node22 -->
<g id="Node000022" class="node">
<title>Node22</title>
<g id="a_Node000022"><a xlink:href="net_2inc_2vlcb_2net_2packet_2datagram_2dcc_8h.html" target="_top" xlink:title=" ">
<polygon fill="white" stroke="#666666" points="1172.5,-191 1131,-191 1131,-170.25 1172.5,-170.25 1172.5,-191"/>
<text text-anchor="middle" x="1151.75" y="-177.5" font-family="Helvetica,sans-Serif" font-size="10.00">dcc.h</text>
</a>
</g>
</g>
<!-- Node18&#45;&gt;Node22 -->
<g id="edge34_Node000018_Node000022" class="edge">
<title>Node18&#45;&gt;Node22</title>
<g id="a_edge34_Node000018_Node000022"><a xlink:title=" ">
<path fill="none" stroke="#63b8ff" d="M1032.86,-222.82C1063.84,-212.09 1105.91,-197.51 1130.81,-188.88"/>
<polygon fill="#63b8ff" stroke="#63b8ff" points="1031.73,-219.51 1023.43,-226.09 1034.02,-226.12 1031.73,-219.51"/>
</a>
</g>
</g>
<!-- Node23 -->
<g id="Node000023" class="node">
<title>Node23</title>
<g id="a_Node000023"><a xlink:href="net_2inc_2vlcb_2net_2packet_2datagram_2event_8h.html" target="_top" xlink:title=" ">
<polygon fill="white" stroke="#666666" points="1243.12,-191 1190.38,-191 1190.38,-170.25 1243.12,-170.25 1243.12,-191"/>
<text text-anchor="middle" x="1216.75" y="-177.5" font-family="Helvetica,sans-Serif" font-size="10.00">event.h</text>
</a>
</g>
</g>
<!-- Node18&#45;&gt;Node23 -->
<g id="edge35_Node000018_Node000023" class="edge">
<title>Node18&#45;&gt;Node23</title>
<g id="a_edge35_Node000018_Node000023"><a xlink:title=" ">
<path fill="none" stroke="#63b8ff" d="M1040.97,-225.32C1079.04,-216.33 1133.92,-203.18 1181.75,-191 1184.43,-190.32 1187.23,-189.59 1190.01,-188.86"/>
<polygon fill="#63b8ff" stroke="#63b8ff" points="1040.61,-221.81 1031.68,-227.51 1042.22,-228.62 1040.61,-221.81"/>
</a>
</g>
</g>
<!-- Node24 -->
<g id="Node000024" class="node">
<title>Node24</title>
<g id="a_Node000024"><a xlink:href="general_8h.html" target="_top" xlink:title=" ">
<polygon fill="white" stroke="#666666" points="1322.62,-191 1260.88,-191 1260.88,-170.25 1322.62,-170.25 1322.62,-191"/>
<text text-anchor="middle" x="1291.75" y="-177.5" font-family="Helvetica,sans-Serif" font-size="10.00">general.h</text>
</a>
</g>
</g>
<!-- Node18&#45;&gt;Node24 -->
<g id="edge36_Node000018_Node000024" class="edge">
<title>Node18&#45;&gt;Node24</title>
<g id="a_edge36_Node000018_Node000024"><a xlink:title=" ">
<path fill="none" stroke="#63b8ff" d="M1041.37,-228.82C1093.26,-220.4 1178.64,-205.98 1251.75,-191 1254.68,-190.4 1257.73,-189.74 1260.78,-189.06"/>
<polygon fill="#63b8ff" stroke="#63b8ff" points="1041,-225.34 1031.68,-230.39 1042.11,-232.25 1041,-225.34"/>
</a>
</g>
</g>
<!-- Node25 -->
<g id="Node000025" class="node">
<title>Node25</title>
<g id="a_Node000025"><a xlink:href="net_2inc_2vlcb_2net_2packet_2datagram_2module_8h.html" target="_top" xlink:title=" ">
<polygon fill="white" stroke="#666666" points="1053.62,-77.5 991.88,-77.5 991.88,-56.75 1053.62,-56.75 1053.62,-77.5"/>
<text text-anchor="middle" x="1022.75" y="-64" font-family="Helvetica,sans-Serif" font-size="10.00">module.h</text>
</a>
</g>
</g>
<!-- Node18&#45;&gt;Node25 -->
<g id="edge38_Node000018_Node000025" class="edge">
<title>Node18&#45;&gt;Node25</title>
<g id="a_edge38_Node000018_Node000025"><a xlink:title=" ">
<path fill="none" stroke="#63b8ff" d="M997.32,-215.66C1003.61,-179.15 1016.44,-104.71 1021.05,-77.97"/>
<polygon fill="#63b8ff" stroke="#63b8ff" points="993.9,-214.91 995.65,-225.36 1000.8,-216.1 993.9,-214.91"/>
</a>
</g>
</g>
<!-- Node21&#45;&gt;Node10 -->
<g id="edge32_Node000021_Node000010" class="edge">
<title>Node21&#45;&gt;Node10</title>
<g id="a_edge32_Node000021_Node000010"><a xlink:title=" ">
<path fill="none" stroke="#63b8ff" d="M732.4,-164.28C716.05,-154.75 695.54,-142.81 681.41,-134.58"/>
<polygon fill="#63b8ff" stroke="#63b8ff" points="730.23,-167.07 740.64,-169.08 733.76,-161.02 730.23,-167.07"/>
</a>
</g>
</g>
<!-- Node21&#45;&gt;Node11 -->
<g id="edge31_Node000021_Node000011" class="edge">
<title>Node21&#45;&gt;Node11</title>
<g id="a_edge31_Node000021_Node000011"><a xlink:title=" ">
<path fill="none" stroke="#63b8ff" d="M754.81,-158.77C749.13,-132.89 736.72,-88.32 713.75,-56.75 702.84,-41.76 685.68,-29.19 672.86,-21.11"/>
<polygon fill="#63b8ff" stroke="#63b8ff" points="751.33,-159.25 756.77,-168.35 758.19,-157.85 751.33,-159.25"/>
</a>
</g>
</g>
<!-- Node21&#45;&gt;Node13 -->
<g id="edge33_Node000021_Node000013" class="edge">
<title>Node21&#45;&gt;Node13</title>
<g id="a_edge33_Node000021_Node000013"><a xlink:title=" ">
<path fill="none" stroke="#63b8ff" d="M777.06,-162C805.81,-134.23 858.52,-82.88 860.75,-77.5 868.58,-58.57 860.45,-34.42 854.6,-21.17"/>
<polygon fill="#63b8ff" stroke="#63b8ff" points="774.85,-159.28 770.08,-168.74 779.71,-164.31 774.85,-159.28"/>
</a>
</g>
</g>
<!-- Node21&#45;&gt;Node20 -->
<g id="edge30_Node000021_Node000020" class="edge">
<title>Node21&#45;&gt;Node20</title>
<g id="a_edge30_Node000021_Node000020"><a xlink:title=" ">
<path fill="none" stroke="#63b8ff" d="M789.32,-164.95C809.36,-155.32 835.01,-143 852.55,-134.58"/>
<polygon fill="#63b8ff" stroke="#63b8ff" points="787.99,-161.7 780.5,-169.18 791.02,-168.01 787.99,-161.7"/>
</a>
</g>
</g>
<!-- Node25&#45;&gt;Node11 -->
<g id="edge39_Node000025_Node000011" class="edge">
<title>Node25&#45;&gt;Node11</title>
<g id="a_edge39_Node000025_Node000011"><a xlink:title=" ">
<path fill="none" stroke="#63b8ff" d="M980.16,-59.77C905.4,-48.62 752.3,-25.78 686.7,-15.99"/>
<polygon fill="#63b8ff" stroke="#63b8ff" points="979.56,-63.22 989.96,-61.23 980.59,-56.3 979.56,-63.22"/>
</a>
</g>
</g>
<!-- Node25&#45;&gt;Node13 -->
<g id="edge42_Node000025_Node000013" class="edge">
<title>Node25&#45;&gt;Node13</title>
<g id="a_edge42_Node000025_Node000013"><a xlink:title=" ">
<path fill="none" stroke="#63b8ff" d="M980.96,-52.9C950.06,-43.12 908.67,-30.02 880.7,-21.17"/>
<polygon fill="#63b8ff" stroke="#63b8ff" points="979.79,-56.2 990.38,-55.88 981.9,-49.53 979.79,-56.2"/>
</a>
</g>
</g>
<!-- Node26 -->
<g id="Node000026" class="node">
<title>Node26</title>
<g id="a_Node000026"><a xlink:href="release__node__num__deserialize_8c.html" target="_top" xlink:title=" ">
<polygon fill="white" stroke="#666666" points="1097.25,-20.75 922.25,-20.75 922.25,0 1097.25,0 1097.25,-20.75"/>
<text text-anchor="middle" x="1009.75" y="-7.25" font-family="Helvetica,sans-Serif" font-size="10.00">release_node_num_deserialize.c</text>
</a>
</g>
</g>
<!-- Node25&#45;&gt;Node26 -->
<g id="edge40_Node000025_Node000026" class="edge">
<title>Node25&#45;&gt;Node26</title>
<g id="a_edge40_Node000025_Node000026"><a xlink:title=" ">
<path fill="none" stroke="#63b8ff" d="M1017.77,-45.17C1015.81,-36.88 1013.64,-27.75 1012.05,-21.08"/>
<polygon fill="#63b8ff" stroke="#63b8ff" points="1014.36,-45.94 1020.08,-54.86 1021.17,-44.33 1014.36,-45.94"/>
</a>
</g>
</g>
<!-- Node27 -->
<g id="Node000027" class="node">
<title>Node27</title>
<g id="a_Node000027"><a xlink:href="release__node__num__serialize_8c.html" target="_top" xlink:title=" ">
<polygon fill="white" stroke="#666666" points="1278.25,-20.75 1115.25,-20.75 1115.25,0 1278.25,0 1278.25,-20.75"/>
<text text-anchor="middle" x="1196.75" y="-7.25" font-family="Helvetica,sans-Serif" font-size="10.00">release_node_num_serialize.c</text>
</a>
</g>
</g>
<!-- Node25&#45;&gt;Node27 -->
<g id="edge41_Node000025_Node000027" class="edge">
<title>Node25&#45;&gt;Node27</title>
<g id="a_edge41_Node000025_Node000027"><a xlink:title=" ">
<path fill="none" stroke="#63b8ff" d="M1064.78,-52.9C1095.86,-43.12 1137.49,-30.02 1165.62,-21.17"/>
<polygon fill="#63b8ff" stroke="#63b8ff" points="1063.79,-49.54 1055.3,-55.88 1065.89,-56.22 1063.79,-49.54"/>
</a>
</g>
</g>
<!-- Node28&#45;&gt;Node4 -->
<g id="edge45_Node000028_Node000004" class="edge">
<title>Node28&#45;&gt;Node4</title>
<g id="a_edge45_Node000028_Node000004"><a xlink:title=" ">
<path fill="none" stroke="#63b8ff" d="M159.18,-117.97C206.12,-110.45 297.24,-95.07 373.75,-77.5 376.85,-76.79 380.1,-75.98 383.3,-75.14"/>
<polygon fill="#63b8ff" stroke="#63b8ff" points="158.78,-114.49 149.46,-119.52 159.88,-121.41 158.78,-114.49"/>
</a>
</g>
</g>
<!-- Node28&#45;&gt;Node6 -->
<g id="edge46_Node000028_Node000006" class="edge">
<title>Node28&#45;&gt;Node6</title>
<g id="a_edge46_Node000028_Node000006"><a xlink:title=" ">
<path fill="none" stroke="#63b8ff" d="M159.26,-114.18C160.1,-113.95 160.93,-113.72 161.75,-113.5 207.36,-101.05 259.99,-86.87 294.01,-77.72"/>
<polygon fill="#63b8ff" stroke="#63b8ff" points="158.42,-110.78 149.7,-116.81 160.27,-117.53 158.42,-110.78"/>
</a>
</g>
</g>
<!-- Node28&#45;&gt;Node8 -->
<g id="edge47_Node000028_Node000008" class="edge">
<title>Node28&#45;&gt;Node8</title>
<g id="a_edge47_Node000028_Node000008"><a xlink:title=" ">
<path fill="none" stroke="#63b8ff" d="M158.05,-108.06C177.71,-98.45 202.75,-86.21 219.9,-77.83"/>
<polygon fill="#63b8ff" stroke="#63b8ff" points="156.58,-104.89 149.13,-112.42 159.65,-111.17 156.58,-104.89"/>
</a>
</g>
</g>
<!-- Node28&#45;&gt;Node11 -->
<g id="edge49_Node000028_Node000011" class="edge">
<title>Node28&#45;&gt;Node11</title>
<g id="a_edge49_Node000028_Node000011"><a xlink:title=" ">
<path fill="none" stroke="#63b8ff" d="M124.08,-102.06C122.77,-87.31 123.93,-68.18 135.75,-56.75 171.01,-22.65 518.54,-13.77 624.95,-11.85"/>
<polygon fill="#63b8ff" stroke="#63b8ff" points="120.57,-102.22 125.37,-111.66 127.51,-101.28 120.57,-102.22"/>
</a>
</g>
</g>
<!-- Node28&#45;&gt;Node17 -->
<g id="edge50_Node000028_Node000017" class="edge">
<title>Node28&#45;&gt;Node17</title>
<g id="a_edge50_Node000028_Node000017"><a xlink:title=" ">
<path fill="none" stroke="#63b8ff" d="M103.66,-106.98C89.36,-97.55 71.7,-85.9 59.46,-77.83"/>
<polygon fill="#63b8ff" stroke="#63b8ff" points="101.37,-109.67 111.65,-112.25 105.23,-103.83 101.37,-109.67"/>
</a>
</g>
</g>
<!-- Node29 -->
<g id="Node000029" class="node">
<title>Node29</title>
<g id="a_Node000029"><a xlink:href="log_8c.html" target="_top" xlink:title=" ">
<polygon fill="white" stroke="#666666" points="184.38,-77.5 145.12,-77.5 145.12,-56.75 184.38,-56.75 184.38,-77.5"/>
<text text-anchor="middle" x="164.75" y="-64" font-family="Helvetica,sans-Serif" font-size="10.00">log.c</text>
</a>
</g>
</g>
<!-- Node28&#45;&gt;Node29 -->
<g id="edge48_Node000028_Node000029" class="edge">
<title>Node28&#45;&gt;Node29</title>
<g id="a_edge48_Node000028_Node000029"><a xlink:title=" ">
<path fill="none" stroke="#63b8ff" d="M140.75,-103.64C146.65,-94.91 153.37,-84.97 158.19,-77.83"/>
<polygon fill="#63b8ff" stroke="#63b8ff" points="137.91,-101.59 135.21,-111.83 143.71,-105.51 137.91,-101.59"/>
</a>
</g>
</g>
<!-- Node30&#45;&gt;Node6 -->
<g id="edge53_Node000030_Node000006" class="edge">
<title>Node30&#45;&gt;Node6</title>
<g id="a_edge53_Node000030_Node000006"><a xlink:title=" ">
<path fill="none" stroke="#63b8ff" d="M482.54,-275.9C453.92,-248.13 397.83,-190.81 360.75,-134.25 348.51,-115.59 338.45,-91.33 333.36,-77.99"/>
<polygon fill="#63b8ff" stroke="#63b8ff" points="479.77,-278.09 489.4,-282.49 484.62,-273.04 479.77,-278.09"/>
</a>
</g>
</g>
<!-- Node30&#45;&gt;Node9 -->
<g id="edge54_Node000030_Node000009" class="edge">
<title>Node30&#45;&gt;Node9</title>
<g id="a_edge54_Node000030_Node000009"><a xlink:title=" ">
<path fill="none" stroke="#63b8ff" d="M489.97,-273.82C469.88,-237.86 427.39,-161.81 412.25,-134.72"/>
<polygon fill="#63b8ff" stroke="#63b8ff" points="486.76,-275.25 494.69,-282.28 492.87,-271.84 486.76,-275.25"/>
</a>
</g>
</g>
<!-- Node30&#45;&gt;Node20 -->
<g id="edge52_Node000030_Node000020" class="edge">
<title>Node30&#45;&gt;Node20</title>
<g id="a_edge52_Node000030_Node000020"><a xlink:title=" ">
<path fill="none" stroke="#63b8ff" d="M534.77,-291.03C599.57,-285.4 742.23,-264.86 831.75,-191 850.71,-175.35 863.44,-148.53 869.21,-134.33"/>
<polygon fill="#63b8ff" stroke="#63b8ff" points="534.8,-287.52 525.11,-291.8 535.36,-294.5 534.8,-287.52"/>
</a>
</g>
</g>
<!-- Node31 -->
<g id="Node000031" class="node">
<title>Node31</title>
<g id="a_Node000031"><a xlink:href="socket_8h.html" target="_top" xlink:title=" ">
<polygon fill="white" stroke="#666666" points="611,-247.75 554.5,-247.75 554.5,-227 611,-227 611,-247.75"/>
<text text-anchor="middle" x="582.75" y="-234.25" font-family="Helvetica,sans-Serif" font-size="10.00">socket.h</text>
</a>
</g>
</g>
<!-- Node30&#45;&gt;Node31 -->
<g id="edge55_Node000030_Node000031" class="edge">
<title>Node30&#45;&gt;Node31</title>
<g id="a_edge55_Node000030_Node000031"><a xlink:title=" ">
<path fill="none" stroke="#63b8ff" d="M524.96,-276.96C539.01,-267.58 556.24,-256.07 568.22,-248.08"/>
<polygon fill="#63b8ff" stroke="#63b8ff" points="523.04,-274.03 516.67,-282.5 526.93,-279.85 523.04,-274.03"/>
</a>
</g>
</g>
<!-- Node33 -->
<g id="Node000033" class="node">
<title>Node33</title>
<g id="a_Node000033"><a xlink:href="vlcb_8c.html" target="_top" xlink:title=" ">
<polygon fill="white" stroke="#666666" points="674,-247.75 629.5,-247.75 629.5,-227 674,-227 674,-247.75"/>
<text text-anchor="middle" x="651.75" y="-234.25" font-family="Helvetica,sans-Serif" font-size="10.00">vlcb.c</text>
</a>
</g>
</g>
<!-- Node30&#45;&gt;Node33 -->
<g id="edge63_Node000030_Node000033" class="edge">
<title>Node30&#45;&gt;Node33</title>
<g id="a_edge63_Node000030_Node000033"><a xlink:title=" ">
<path fill="none" stroke="#63b8ff" d="M534.48,-280.9C563.31,-270.44 604.01,-255.68 629.1,-246.59"/>
<polygon fill="#63b8ff" stroke="#63b8ff" points="533.31,-277.59 525.11,-284.29 535.7,-284.18 533.31,-277.59"/>
</a>
</g>
</g>
<!-- Node31&#45;&gt;Node4 -->
<g id="edge58_Node000031_Node000004" class="edge">
<title>Node31&#45;&gt;Node4</title>
<g id="a_edge58_Node000031_Node000004"><a xlink:title=" ">
<path fill="none" stroke="#63b8ff" d="M590.56,-216.19C599.38,-189.67 609.71,-143.01 586.75,-113.5 567.85,-89.21 476.61,-75.83 432.17,-70.66"/>
<polygon fill="#63b8ff" stroke="#63b8ff" points="587.34,-214.8 587.25,-225.4 593.93,-217.17 587.34,-214.8"/>
</a>
</g>
</g>
<!-- Node31&#45;&gt;Node5 -->
<g id="edge59_Node000031_Node000005" class="edge">
<title>Node31&#45;&gt;Node5</title>
<g id="a_edge59_Node000031_Node000005"><a xlink:title=" ">
<path fill="none" stroke="#63b8ff" d="M555.84,-221.03C539.14,-211.5 518.19,-199.56 503.76,-191.33"/>
<polygon fill="#63b8ff" stroke="#63b8ff" points="553.85,-223.92 564.27,-225.84 557.32,-217.84 553.85,-223.92"/>
</a>
</g>
</g>
<!-- Node31&#45;&gt;Node13 -->
<g id="edge62_Node000031_Node000013" class="edge">
<title>Node31&#45;&gt;Node13</title>
<g id="a_edge62_Node000031_Node000013"><a xlink:title=" ">
<path fill="none" stroke="#63b8ff" d="M618.91,-222.24C636.84,-214.39 658.33,-203.64 675.75,-191 749.9,-137.21 820.02,-50.06 842.38,-21.09"/>
<polygon fill="#63b8ff" stroke="#63b8ff" points="617.78,-218.92 609.95,-226.05 620.52,-225.37 617.78,-218.92"/>
</a>
</g>
</g>
<!-- Node31&#45;&gt;Node15 -->
<g id="edge60_Node000031_Node000015" class="edge">
<title>Node31&#45;&gt;Node15</title>
<g id="a_edge60_Node000031_Node000015"><a xlink:title=" ">
<path fill="none" stroke="#63b8ff" d="M575.77,-215.84C573.32,-208.11 570.69,-199.21 568.75,-191 564.04,-171.07 560.61,-147.29 558.92,-134.37"/>
<polygon fill="#63b8ff" stroke="#63b8ff" points="572.44,-216.9 578.89,-225.3 579.09,-214.71 572.44,-216.9"/>
</a>
</g>
</g>
<!-- Node31&#45;&gt;Node20 -->
<g id="edge56_Node000031_Node000020" class="edge">
<title>Node31&#45;&gt;Node20</title>
<g id="a_edge56_Node000031_Node000020"><a xlink:title=" ">
<path fill="none" stroke="#63b8ff" d="M622.16,-226.89C704.09,-210.62 733.21,-227.65 803.75,-191 830.84,-176.92 854.63,-148.92 865.87,-134.28"/>
<polygon fill="#63b8ff" stroke="#63b8ff" points="621.89,-223.37 612.83,-228.85 623.34,-230.22 621.89,-223.37"/>
</a>
</g>
</g>
<!-- Node31&#45;&gt;Node21 -->
<g id="edge57_Node000031_Node000021" class="edge">
<title>Node31&#45;&gt;Node21</title>
<g id="a_edge57_Node000031_Node000021"><a xlink:title=" ">
<path fill="none" stroke="#63b8ff" d="M622.07,-224.14C653.74,-214.29 697.69,-200.62 727.12,-191.47"/>
<polygon fill="#63b8ff" stroke="#63b8ff" points="621.37,-220.69 612.86,-227.01 623.45,-227.38 621.37,-220.69"/>
</a>
</g>
</g>
<!-- Node32 -->
<g id="Node000032" class="node">
<title>Node32</title>
<g id="a_Node000032"><a xlink:href="socket_8c.html" target="_top" xlink:title=" ">
<polygon fill="white" stroke="#666666" points="666.62,-191 610.88,-191 610.88,-170.25 666.62,-170.25 666.62,-191"/>
<text text-anchor="middle" x="638.75" y="-177.5" font-family="Helvetica,sans-Serif" font-size="10.00">socket.c</text>
</a>
</g>
</g>
<!-- Node31&#45;&gt;Node32 -->
<g id="edge61_Node000031_Node000032" class="edge">
<title>Node31&#45;&gt;Node32</title>
<g id="a_edge61_Node000031_Node000032"><a xlink:title=" ">
<path fill="none" stroke="#63b8ff" d="M600.98,-218.55C610.24,-209.5 621.12,-198.86 628.82,-191.33"/>
<polygon fill="#63b8ff" stroke="#63b8ff" points="598.55,-216.04 593.84,-225.53 603.44,-221.04 598.55,-216.04"/>
</a>
</g>
</g>
</g>
</svg>
