<?xml version="1.0" encoding="UTF-8" standalone="no"?>
<!DOCTYPE svg PUBLIC "-//W3C//DTD SVG 1.1//EN"
 "http://www.w3.org/Graphics/SVG/1.1/DTD/svg11.dtd">
<!-- Generated by graphviz version 12.1.2 (20240928.0832)
 -->
<!-- Title: error.h Pages: 1 -->
<svg width="1420pt" height="369pt"
 viewBox="0.00 0.00 1420.25 369.25" xmlns="http://www.w3.org/2000/svg" xmlns:xlink="http://www.w3.org/1999/xlink">
<g id="graph0" class="graph" transform="scale(1 1) rotate(0) translate(4 365.25)">
<title>error.h</title>
<!-- Node1 -->
<g id="Node000001" class="node">
<title>Node1</title>
<g id="a_Node000001"><a xlink:title=" ">
<polygon fill="#999999" stroke="#666666" points="415.5,-361.25 368,-361.25 368,-340.5 415.5,-340.5 415.5,-361.25"/>
<text text-anchor="middle" x="391.75" y="-347.75" font-family="Helvetica,sans-Serif" font-size="10.00">error.h</text>
</a>
</g>
</g>
<!-- Node2 -->
<g id="Node000002" class="node">
<title>Node2</title>
<g id="a_Node000002"><a xlink:href="adapter_8h.html" target="_top" xlink:title=" ">
<polygon fill="white" stroke="#666666" points="271.62,-247.75 209.88,-247.75 209.88,-227 271.62,-227 271.62,-247.75"/>
<text text-anchor="middle" x="240.75" y="-234.25" font-family="Helvetica,sans-Serif" font-size="10.00">adapter.h</text>
</a>
</g>
</g>
<!-- Node1&#45;&gt;Node2 -->
<g id="edge1_Node000001_Node000002" class="edge">
<title>Node1&#45;&gt;Node2</title>
<g id="a_edge1_Node000001_Node000002"><a xlink:title=" ">
<path fill="none" stroke="#63b8ff" d="M369.62,-333.53C337.75,-310 279.91,-267.29 253.96,-248.13"/>
<polygon fill="#63b8ff" stroke="#63b8ff" points="367.27,-336.15 377.4,-339.28 371.43,-330.52 367.27,-336.15"/>
</a>
</g>
</g>
<!-- Node18 -->
<g id="Node000018" class="node">
<title>Node18</title>
<g id="a_Node000018"><a xlink:href="packet_2datagram_8h.html" target="_top" xlink:title=" ">
<polygon fill="white" stroke="#666666" points="1141.88,-247.75 1069.62,-247.75 1069.62,-227 1141.88,-227 1141.88,-247.75"/>
<text text-anchor="middle" x="1105.75" y="-234.25" font-family="Helvetica,sans-Serif" font-size="10.00">datagram.h</text>
</a>
</g>
</g>
<!-- Node1&#45;&gt;Node18 -->
<g id="edge26_Node000001_Node000018" class="edge">
<title>Node1&#45;&gt;Node18</title>
<g id="a_edge26_Node000001_Node000018"><a xlink:title=" ">
<path fill="none" stroke="#63b8ff" d="M427.09,-344.36C548.36,-325.42 946.9,-263.18 1069.52,-244.03"/>
<polygon fill="#63b8ff" stroke="#63b8ff" points="426.75,-340.87 417.41,-345.87 427.83,-347.78 426.75,-340.87"/>
</a>
</g>
</g>
<!-- Node28 -->
<g id="Node000028" class="node">
<title>Node28</title>
<g id="a_Node000028"><a xlink:href="log_8h.html" target="_top" xlink:title=" ">
<polygon fill="white" stroke="#666666" points="147.75,-134.25 107.75,-134.25 107.75,-113.5 147.75,-113.5 147.75,-134.25"/>
<text text-anchor="middle" x="127.75" y="-120.75" font-family="Helvetica,sans-Serif" font-size="10.00">log.h</text>
</a>
</g>
</g>
<!-- Node1&#45;&gt;Node28 -->
<g id="edge44_Node000001_Node000028" class="edge">
<title>Node1&#45;&gt;Node28</title>
<g id="a_edge44_Node000001_Node000028"><a xlink:title=" ">
<path fill="none" stroke="#63b8ff" d="M356.97,-336.8C316.39,-320.37 248.73,-289.21 200.75,-247.75 176.39,-226.7 172.18,-218.68 155.75,-191 144.55,-172.13 135.52,-147.95 130.96,-134.68"/>
<polygon fill="#63b8ff" stroke="#63b8ff" points="355.67,-340.05 366.25,-340.48 358.25,-333.54 355.67,-340.05"/>
</a>
</g>
</g>
<!-- Node30 -->
<g id="Node000030" class="node">
<title>Node30</title>
<g id="a_Node000030"><a xlink:href="vlcb_8h.html" target="_top" xlink:title=" ">
<polygon fill="white" stroke="#666666" points="490.38,-304.5 445.12,-304.5 445.12,-283.75 490.38,-283.75 490.38,-304.5"/>
<text text-anchor="middle" x="467.75" y="-291" font-family="Helvetica,sans-Serif" font-size="10.00">vlcb.h</text>
</a>
</g>
</g>
<!-- Node1&#45;&gt;Node30 -->
<g id="edge51_Node000001_Node000030" class="edge">
<title>Node1&#45;&gt;Node30</title>
<g id="a_edge51_Node000001_Node000030"><a xlink:title=" ">
<path fill="none" stroke="#63b8ff" d="M414.57,-333.44C427.52,-324.11 443.29,-312.75 454.28,-304.83"/>
<polygon fill="#63b8ff" stroke="#63b8ff" points="412.63,-330.52 406.57,-339.2 416.72,-336.2 412.63,-330.52"/>
</a>
</g>
</g>
<!-- Node3 -->
<g id="Node000003" class="node">
<title>Node3</title>
<g id="a_Node000003"><a xlink:href="adapter_8c.html" target="_top" xlink:title=" ">
<polygon fill="white" stroke="#666666" points="233.25,-191 172.25,-191 172.25,-170.25 233.25,-170.25 233.25,-191"/>
<text text-anchor="middle" x="202.75" y="-177.5" font-family="Helvetica,sans-Serif" font-size="10.00">adapter.c</text>
</a>
</g>
</g>
<!-- Node2&#45;&gt;Node3 -->
<g id="edge2_Node000002_Node000003" class="edge">
<title>Node2&#45;&gt;Node3</title>
<g id="a_edge2_Node000002_Node000003"><a xlink:title=" ">
<path fill="none" stroke="#63b8ff" d="M227.4,-217.14C221.34,-208.41 214.44,-198.47 209.48,-191.33"/>
<polygon fill="#63b8ff" stroke="#63b8ff" points="224.52,-219.12 233.09,-225.34 230.27,-215.13 224.52,-219.12"/>
</a>
</g>
</g>
<!-- Node4 -->
<g id="Node000004" class="node">
<title>Node4</title>
<g id="a_Node000004"><a xlink:href="iface_8c.html" target="_top" xlink:title=" ">
<polygon fill="white" stroke="#666666" points="459.88,-77.5 411.62,-77.5 411.62,-56.75 459.88,-56.75 459.88,-77.5"/>
<text text-anchor="middle" x="435.75" y="-64" font-family="Helvetica,sans-Serif" font-size="10.00">iface.c</text>
</a>
</g>
</g>
<!-- Node2&#45;&gt;Node4 -->
<g id="edge3_Node000002_Node000004" class="edge">
<title>Node2&#45;&gt;Node4</title>
<g id="a_edge3_Node000002_Node000004"><a xlink:title=" ">
<path fill="none" stroke="#63b8ff" d="M244.05,-215.57C249.45,-188.33 262.74,-140.84 292.75,-113.5 310.27,-97.54 375.16,-81.34 411.2,-73.31"/>
<polygon fill="#63b8ff" stroke="#63b8ff" points="240.62,-214.88 242.31,-225.34 247.51,-216.11 240.62,-214.88"/>
</a>
</g>
</g>
<!-- Node5 -->
<g id="Node000005" class="node">
<title>Node5</title>
<g id="a_Node000005"><a xlink:href="iface_8h.html" target="_top" xlink:title=" ">
<polygon fill="white" stroke="#666666" points="464.25,-191 415.25,-191 415.25,-170.25 464.25,-170.25 464.25,-191"/>
<text text-anchor="middle" x="439.75" y="-177.5" font-family="Helvetica,sans-Serif" font-size="10.00">iface.h</text>
</a>
</g>
</g>
<!-- Node2&#45;&gt;Node5 -->
<g id="edge4_Node000002_Node000005" class="edge">
<title>Node2&#45;&gt;Node5</title>
<g id="a_edge4_Node000002_Node000005"><a xlink:title=" ">
<path fill="none" stroke="#63b8ff" d="M282.85,-224.79C322.89,-213.78 381.78,-197.57 414.85,-188.48"/>
<polygon fill="#63b8ff" stroke="#63b8ff" points="282.02,-221.39 273.3,-227.42 283.87,-228.14 282.02,-221.39"/>
</a>
</g>
</g>
<!-- Node6 -->
<g id="Node000006" class="node">
<title>Node6</title>
<g id="a_Node000006"><a xlink:href="iface__can_8c.html" target="_top" xlink:title=" ">
<polygon fill="white" stroke="#666666" points="366.12,-77.5 295.38,-77.5 295.38,-56.75 366.12,-56.75 366.12,-77.5"/>
<text text-anchor="middle" x="330.75" y="-64" font-family="Helvetica,sans-Serif" font-size="10.00">iface_can.c</text>
</a>
</g>
</g>
<!-- Node2&#45;&gt;Node6 -->
<g id="edge22_Node000002_Node000006" class="edge">
<title>Node2&#45;&gt;Node6</title>
<g id="a_edge22_Node000002_Node000006"><a xlink:title=" ">
<path fill="none" stroke="#63b8ff" d="M199.42,-222.28C185.22,-215.22 170.86,-205.1 162.75,-191 158.15,-183.01 159.14,-178.74 162.75,-170.25 185.61,-116.55 252.89,-89.02 295.05,-76.66"/>
<polygon fill="#63b8ff" stroke="#63b8ff" points="197.71,-225.35 208.27,-226.27 200.59,-218.97 197.71,-225.35"/>
</a>
</g>
</g>
<!-- Node7 -->
<g id="Node000007" class="node">
<title>Node7</title>
<g id="a_Node000007"><a xlink:href="iface__can_8h.html" target="_top" xlink:title=" ">
<polygon fill="white" stroke="#666666" points="373.5,-134.25 302,-134.25 302,-113.5 373.5,-113.5 373.5,-134.25"/>
<text text-anchor="middle" x="337.75" y="-120.75" font-family="Helvetica,sans-Serif" font-size="10.00">iface_can.h</text>
</a>
</g>
</g>
<!-- Node2&#45;&gt;Node7 -->
<g id="edge23_Node000002_Node000007" class="edge">
<title>Node2&#45;&gt;Node7</title>
<g id="a_edge23_Node000002_Node000007"><a xlink:title=" ">
<path fill="none" stroke="#63b8ff" d="M256.39,-218.4C277.11,-194.58 312.92,-153.42 329.22,-134.68"/>
<polygon fill="#63b8ff" stroke="#63b8ff" points="253.94,-215.88 250.01,-225.73 259.22,-220.48 253.94,-215.88"/>
</a>
</g>
</g>
<!-- Node16 -->
<g id="Node000016" class="node">
<title>Node16</title>
<g id="a_Node000016"><a xlink:href="packet__parse_8h.html" target="_top" xlink:title=" ">
<polygon fill="white" stroke="#666666" points="89.5,-134.25 0,-134.25 0,-113.5 89.5,-113.5 89.5,-134.25"/>
<text text-anchor="middle" x="44.75" y="-120.75" font-family="Helvetica,sans-Serif" font-size="10.00">packet_parse.h</text>
</a>
</g>
</g>
<!-- Node2&#45;&gt;Node16 -->
<g id="edge24_Node000002_Node000016" class="edge">
<title>Node2&#45;&gt;Node16</title>
<g id="a_edge24_Node000002_Node000016"><a xlink:title=" ">
<path fill="none" stroke="#63b8ff" d="M199.75,-222.67C178.24,-214.73 151.85,-203.79 129.75,-191 100.78,-174.24 70.77,-148.59 55.33,-134.67"/>
<polygon fill="#63b8ff" stroke="#63b8ff" points="198.48,-225.94 209.08,-226.03 200.85,-219.35 198.48,-225.94"/>
</a>
</g>
</g>
<!-- Node5&#45;&gt;Node4 -->
<g id="edge5_Node000005_Node000004" class="edge">
<title>Node5&#45;&gt;Node4</title>
<g id="a_edge5_Node000005_Node000004"><a xlink:title=" ">
<path fill="none" stroke="#63b8ff" d="M439,-158.72C438.13,-134.59 436.75,-95.92 436.1,-77.93"/>
<polygon fill="#63b8ff" stroke="#63b8ff" points="435.5,-158.74 439.35,-168.61 442.49,-158.49 435.5,-158.74"/>
</a>
</g>
</g>
<!-- Node5&#45;&gt;Node6 -->
<g id="edge6_Node000005_Node000006" class="edge">
<title>Node5&#45;&gt;Node6</title>
<g id="a_edge6_Node000005_Node000006"><a xlink:title=" ">
<path fill="none" stroke="#63b8ff" d="M424.85,-160.94C413.72,-147.34 397.88,-128.72 382.75,-113.5 369.74,-100.41 353.57,-86.65 342.74,-77.76"/>
<polygon fill="#63b8ff" stroke="#63b8ff" points="422.08,-163.08 431.09,-168.65 427.52,-158.68 422.08,-163.08"/>
</a>
</g>
</g>
<!-- Node5&#45;&gt;Node7 -->
<g id="edge7_Node000005_Node000007" class="edge">
<title>Node5&#45;&gt;Node7</title>
<g id="a_edge7_Node000005_Node000007"><a xlink:title=" ">
<path fill="none" stroke="#63b8ff" d="M411.4,-164.41C393.62,-154.86 371.23,-142.84 355.83,-134.58"/>
<polygon fill="#63b8ff" stroke="#63b8ff" points="409.71,-167.48 420.18,-169.12 413.03,-161.31 409.71,-167.48"/>
</a>
</g>
</g>
<!-- Node9 -->
<g id="Node000009" class="node">
<title>Node9</title>
<g id="a_Node000009"><a xlink:href="iface__vlcb_8h.html" target="_top" xlink:title=" ">
<polygon fill="white" stroke="#666666" points="542,-134.25 467.5,-134.25 467.5,-113.5 542,-113.5 542,-134.25"/>
<text text-anchor="middle" x="504.75" y="-120.75" font-family="Helvetica,sans-Serif" font-size="10.00">iface_vlcb.h</text>
</a>
</g>
</g>
<!-- Node5&#45;&gt;Node9 -->
<g id="edge10_Node000005_Node000009" class="edge">
<title>Node5&#45;&gt;Node9</title>
<g id="a_edge10_Node000005_Node000009"><a xlink:title=" ">
<path fill="none" stroke="#63b8ff" d="M459.92,-162.64C470.87,-153.41 484.02,-142.34 493.23,-134.58"/>
<polygon fill="#63b8ff" stroke="#63b8ff" points="457.92,-159.74 452.53,-168.86 462.43,-165.1 457.92,-159.74"/>
</a>
</g>
</g>
<!-- Node10 -->
<g id="Node000010" class="node">
<title>Node10</title>
<g id="a_Node000010"><a xlink:href="module_2inc_2vlcb_2module_8h.html" target="_top" xlink:title=" ">
<polygon fill="white" stroke="#666666" points="804.62,-134.25 742.88,-134.25 742.88,-113.5 804.62,-113.5 804.62,-134.25"/>
<text text-anchor="middle" x="773.75" y="-120.75" font-family="Helvetica,sans-Serif" font-size="10.00">module.h</text>
</a>
</g>
</g>
<!-- Node5&#45;&gt;Node10 -->
<g id="edge13_Node000005_Node000010" class="edge">
<title>Node5&#45;&gt;Node10</title>
<g id="a_edge13_Node000005_Node000010"><a xlink:title=" ">
<path fill="none" stroke="#63b8ff" d="M475.61,-173.75C541.41,-162.96 680.39,-140.18 742.55,-129.99"/>
<polygon fill="#63b8ff" stroke="#63b8ff" points="475.38,-170.24 466.08,-175.31 476.51,-177.15 475.38,-170.24"/>
</a>
</g>
</g>
<!-- Node15 -->
<g id="Node000015" class="node">
<title>Node15</title>
<g id="a_Node000015"><a xlink:href="net_8h.html" target="_top" xlink:title=" ">
<polygon fill="white" stroke="#666666" points="601.12,-134.25 560.38,-134.25 560.38,-113.5 601.12,-113.5 601.12,-134.25"/>
<text text-anchor="middle" x="580.75" y="-120.75" font-family="Helvetica,sans-Serif" font-size="10.00">net.h</text>
</a>
</g>
</g>
<!-- Node5&#45;&gt;Node15 -->
<g id="edge21_Node000005_Node000015" class="edge">
<title>Node5&#45;&gt;Node15</title>
<g id="a_edge21_Node000005_Node000015"><a xlink:title=" ">
<path fill="none" stroke="#63b8ff" d="M475.15,-165.88C502,-155.45 537.97,-141.49 560.23,-132.84"/>
<polygon fill="#63b8ff" stroke="#63b8ff" points="474.1,-162.53 466.04,-169.41 476.63,-169.06 474.1,-162.53"/>
</a>
</g>
</g>
<!-- Node7&#45;&gt;Node4 -->
<g id="edge8_Node000007_Node000004" class="edge">
<title>Node7&#45;&gt;Node4</title>
<g id="a_edge8_Node000007_Node000004"><a xlink:title=" ">
<path fill="none" stroke="#63b8ff" d="M365.23,-107.53C382.27,-98 403.65,-86.06 418.38,-77.83"/>
<polygon fill="#63b8ff" stroke="#63b8ff" points="363.61,-104.42 356.59,-112.35 367.03,-110.53 363.61,-104.42"/>
</a>
</g>
</g>
<!-- Node8 -->
<g id="Node000008" class="node">
<title>Node8</title>
<g id="a_Node000008"><a xlink:href="iface__vlcb_8c.html" target="_top" xlink:title=" ">
<polygon fill="white" stroke="#666666" points="277.62,-77.5 203.88,-77.5 203.88,-56.75 277.62,-56.75 277.62,-77.5"/>
<text text-anchor="middle" x="240.75" y="-64" font-family="Helvetica,sans-Serif" font-size="10.00">iface_vlcb.c</text>
</a>
</g>
</g>
<!-- Node7&#45;&gt;Node8 -->
<g id="edge9_Node000007_Node000008" class="edge">
<title>Node7&#45;&gt;Node8</title>
<g id="a_edge9_Node000007_Node000008"><a xlink:title=" ">
<path fill="none" stroke="#63b8ff" d="M310.56,-107.53C293.68,-98 272.52,-86.06 257.94,-77.83"/>
<polygon fill="#63b8ff" stroke="#63b8ff" points="308.66,-110.48 319.09,-112.34 312.1,-104.38 308.66,-110.48"/>
</a>
</g>
</g>
<!-- Node9&#45;&gt;Node4 -->
<g id="edge11_Node000009_Node000004" class="edge">
<title>Node9&#45;&gt;Node4</title>
<g id="a_edge11_Node000009_Node000004"><a xlink:title=" ">
<path fill="none" stroke="#63b8ff" d="M483.69,-106.16C471.99,-96.88 457.86,-85.67 447.98,-77.83"/>
<polygon fill="#63b8ff" stroke="#63b8ff" points="481.22,-108.67 491.23,-112.15 485.57,-103.19 481.22,-108.67"/>
</a>
</g>
</g>
<!-- Node9&#45;&gt;Node6 -->
<g id="edge12_Node000009_Node000006" class="edge">
<title>Node9&#45;&gt;Node6</title>
<g id="a_edge12_Node000009_Node000006"><a xlink:title=" ">
<path fill="none" stroke="#63b8ff" d="M462.72,-109.65C431.64,-99.87 390.01,-86.77 361.88,-77.92"/>
<polygon fill="#63b8ff" stroke="#63b8ff" points="461.61,-112.97 472.2,-112.63 463.71,-106.29 461.61,-112.97"/>
</a>
</g>
</g>
<!-- Node11 -->
<g id="Node000011" class="node">
<title>Node11</title>
<g id="a_Node000011"><a xlink:href="module_8c.html" target="_top" xlink:title=" ">
<polygon fill="white" stroke="#666666" points="748.25,-20.75 687.25,-20.75 687.25,0 748.25,0 748.25,-20.75"/>
<text text-anchor="middle" x="717.75" y="-7.25" font-family="Helvetica,sans-Serif" font-size="10.00">module.c</text>
</a>
</g>
</g>
<!-- Node10&#45;&gt;Node11 -->
<g id="edge14_Node000010_Node000011" class="edge">
<title>Node10&#45;&gt;Node11</title>
<g id="a_edge14_Node000010_Node000011"><a xlink:title=" ">
<path fill="none" stroke="#63b8ff" d="M733.57,-108.22C720.04,-101.13 706.43,-91.13 698.75,-77.5 688.31,-58.98 701.57,-34.25 710.63,-20.89"/>
<polygon fill="#63b8ff" stroke="#63b8ff" points="731.91,-111.3 742.44,-112.43 734.91,-104.98 731.91,-111.3"/>
</a>
</g>
</g>
<!-- Node12 -->
<g id="Node000012" class="node">
<title>Node12</title>
<g id="a_Node000012"><a xlink:href="module_2src_2module_8h.html" target="_top" xlink:title=" ">
<polygon fill="white" stroke="#666666" points="650.62,-77.5 588.88,-77.5 588.88,-56.75 650.62,-56.75 650.62,-77.5"/>
<text text-anchor="middle" x="619.75" y="-64" font-family="Helvetica,sans-Serif" font-size="10.00">module.h</text>
</a>
</g>
</g>
<!-- Node10&#45;&gt;Node12 -->
<g id="edge15_Node000010_Node000012" class="edge">
<title>Node10&#45;&gt;Node12</title>
<g id="a_edge15_Node000010_Node000012"><a xlink:title=" ">
<path fill="none" stroke="#63b8ff" d="M735.46,-109.26C708.08,-99.53 671.87,-86.65 647.3,-77.92"/>
<polygon fill="#63b8ff" stroke="#63b8ff" points="734.2,-112.53 744.79,-112.58 736.54,-105.93 734.2,-112.53"/>
</a>
</g>
</g>
<!-- Node13 -->
<g id="Node000013" class="node">
<title>Node13</title>
<g id="a_Node000013"><a xlink:href="state__machine_8c.html" target="_top" xlink:title=" ">
<polygon fill="white" stroke="#666666" points="975.88,-20.75 879.62,-20.75 879.62,0 975.88,0 975.88,-20.75"/>
<text text-anchor="middle" x="927.75" y="-7.25" font-family="Helvetica,sans-Serif" font-size="10.00">state_machine.c</text>
</a>
</g>
</g>
<!-- Node10&#45;&gt;Node13 -->
<g id="edge17_Node000010_Node000013" class="edge">
<title>Node10&#45;&gt;Node13</title>
<g id="a_edge17_Node000010_Node000013"><a xlink:title=" ">
<path fill="none" stroke="#63b8ff" d="M796.32,-106.53C828.83,-83 887.82,-40.29 914.27,-21.13"/>
<polygon fill="#63b8ff" stroke="#63b8ff" points="794.42,-103.59 788.37,-112.29 798.53,-109.26 794.42,-103.59"/>
</a>
</g>
</g>
<!-- Node14 -->
<g id="Node000014" class="node">
<title>Node14</title>
<g id="a_Node000014"><a xlink:href="state__machine_8h.html" target="_top" xlink:title=" ">
<polygon fill="white" stroke="#666666" points="804.25,-77.5 707.25,-77.5 707.25,-56.75 804.25,-56.75 804.25,-77.5"/>
<text text-anchor="middle" x="755.75" y="-64" font-family="Helvetica,sans-Serif" font-size="10.00">state_machine.h</text>
</a>
</g>
</g>
<!-- Node10&#45;&gt;Node14 -->
<g id="edge18_Node000010_Node000014" class="edge">
<title>Node10&#45;&gt;Node14</title>
<g id="a_edge18_Node000010_Node000014"><a xlink:title=" ">
<path fill="none" stroke="#63b8ff" d="M766.95,-102.21C764.2,-93.84 761.16,-84.58 758.94,-77.83"/>
<polygon fill="#63b8ff" stroke="#63b8ff" points="763.61,-103.24 770.06,-111.65 770.26,-101.06 763.61,-103.24"/>
</a>
</g>
</g>
<!-- Node12&#45;&gt;Node11 -->
<g id="edge16_Node000012_Node000011" class="edge">
<title>Node12&#45;&gt;Node11</title>
<g id="a_edge16_Node000012_Node000011"><a xlink:title=" ">
<path fill="none" stroke="#63b8ff" d="M647.23,-50.78C664.27,-41.25 685.65,-29.31 700.38,-21.08"/>
<polygon fill="#63b8ff" stroke="#63b8ff" points="645.61,-47.67 638.59,-55.6 649.03,-53.78 645.61,-47.67"/>
</a>
</g>
</g>
<!-- Node14&#45;&gt;Node11 -->
<g id="edge19_Node000014_Node000011" class="edge">
<title>Node14&#45;&gt;Node11</title>
<g id="a_edge19_Node000014_Node000011"><a xlink:title=" ">
<path fill="none" stroke="#63b8ff" d="M742.4,-46.89C736.34,-38.16 729.44,-28.22 724.48,-21.08"/>
<polygon fill="#63b8ff" stroke="#63b8ff" points="739.52,-48.87 748.09,-55.09 745.27,-44.88 739.52,-48.87"/>
</a>
</g>
</g>
<!-- Node14&#45;&gt;Node13 -->
<g id="edge20_Node000014_Node000013" class="edge">
<title>Node14&#45;&gt;Node13</title>
<g id="a_edge20_Node000014_Node000013"><a xlink:title=" ">
<path fill="none" stroke="#63b8ff" d="M797.3,-52.9C828.02,-43.12 869.17,-30.02 896.98,-21.17"/>
<polygon fill="#63b8ff" stroke="#63b8ff" points="796.41,-49.51 787.94,-55.88 798.53,-56.18 796.41,-49.51"/>
</a>
</g>
</g>
<!-- Node17 -->
<g id="Node000017" class="node">
<title>Node17</title>
<g id="a_Node000017"><a xlink:href="packet__parse_8c.html" target="_top" xlink:title=" ">
<polygon fill="white" stroke="#666666" points="90.12,-77.5 1.38,-77.5 1.38,-56.75 90.12,-56.75 90.12,-77.5"/>
<text text-anchor="middle" x="45.75" y="-64" font-family="Helvetica,sans-Serif" font-size="10.00">packet_parse.c</text>
</a>
</g>
</g>
<!-- Node16&#45;&gt;Node17 -->
<g id="edge25_Node000016_Node000017" class="edge">
<title>Node16&#45;&gt;Node17</title>
<g id="a_edge25_Node000016_Node000017"><a xlink:title=" ">
<path fill="none" stroke="#63b8ff" d="M45.14,-101.63C45.29,-93.41 45.45,-84.43 45.57,-77.83"/>
<polygon fill="#63b8ff" stroke="#63b8ff" points="41.64,-101.51 44.96,-111.57 48.64,-101.64 41.64,-101.51"/>
</a>
</g>
</g>
<!-- Node18&#45;&gt;Node11 -->
<g id="edge37_Node000018_Node000011" class="edge">
<title>Node18&#45;&gt;Node11</title>
<g id="a_edge37_Node000018_Node000011"><a xlink:title=" ">
<path fill="none" stroke="#63b8ff" d="M1096.96,-216.15C1083.85,-188.49 1056.52,-139.37 1017.75,-113.5 930.1,-55.03 805.71,-26.89 748.59,-16.42"/>
<polygon fill="#63b8ff" stroke="#63b8ff" points="1093.74,-217.53 1101.07,-225.18 1100.11,-214.63 1093.74,-217.53"/>
</a>
</g>
</g>
<!-- Node18&#45;&gt;Node13 -->
<g id="edge43_Node000018_Node000013" class="edge">
<title>Node18&#45;&gt;Node13</title>
<g id="a_edge43_Node000018_Node000013"><a xlink:title=" ">
<path fill="none" stroke="#63b8ff" d="M1112.2,-216.24C1122.43,-180.01 1137.7,-103.29 1100.75,-56.75 1085.3,-37.3 1021.59,-24.43 975.97,-17.52"/>
<polygon fill="#63b8ff" stroke="#63b8ff" points="1108.96,-214.84 1109.44,-225.42 1115.67,-216.85 1108.96,-214.84"/>
</a>
</g>
</g>
<!-- Node19 -->
<g id="Node000019" class="node">
<title>Node19</title>
<g id="a_Node000019"><a xlink:href="packet_2datagram_8c.html" target="_top" xlink:title=" ">
<polygon fill="white" stroke="#666666" points="1224.5,-191 1153,-191 1153,-170.25 1224.5,-170.25 1224.5,-191"/>
<text text-anchor="middle" x="1188.75" y="-177.5" font-family="Helvetica,sans-Serif" font-size="10.00">datagram.c</text>
</a>
</g>
</g>
<!-- Node18&#45;&gt;Node19 -->
<g id="edge27_Node000018_Node000019" class="edge">
<title>Node18&#45;&gt;Node19</title>
<g id="a_edge27_Node000018_Node000019"><a xlink:title=" ">
<path fill="none" stroke="#63b8ff" d="M1129.84,-220.48C1144.14,-211.05 1161.8,-199.4 1174.04,-191.33"/>
<polygon fill="#63b8ff" stroke="#63b8ff" points="1128.27,-217.33 1121.85,-225.75 1132.13,-223.17 1128.27,-217.33"/>
</a>
</g>
</g>
<!-- Node20 -->
<g id="Node000020" class="node">
<title>Node20</title>
<g id="a_Node000020"><a xlink:href="socket_2datagram_8c.html" target="_top" xlink:title=" ">
<polygon fill="white" stroke="#666666" points="1008.5,-134.25 937,-134.25 937,-113.5 1008.5,-113.5 1008.5,-134.25"/>
<text text-anchor="middle" x="972.75" y="-120.75" font-family="Helvetica,sans-Serif" font-size="10.00">datagram.c</text>
</a>
</g>
</g>
<!-- Node18&#45;&gt;Node20 -->
<g id="edge28_Node000018_Node000020" class="edge">
<title>Node18&#45;&gt;Node20</title>
<g id="a_edge28_Node000018_Node000020"><a xlink:title=" ">
<path fill="none" stroke="#63b8ff" d="M1058.45,-229.1C1034,-222.95 1005.62,-211.65 987.75,-191 973.88,-174.98 972.1,-148.8 972.26,-134.66"/>
<polygon fill="#63b8ff" stroke="#63b8ff" points="1057.35,-232.44 1067.88,-231.25 1058.91,-225.62 1057.35,-232.44"/>
</a>
</g>
</g>
<!-- Node21 -->
<g id="Node000021" class="node">
<title>Node21</title>
<g id="a_Node000021"><a xlink:href="socket_2datagram_8h.html" target="_top" xlink:title=" ">
<polygon fill="white" stroke="#666666" points="864.88,-191 792.62,-191 792.62,-170.25 864.88,-170.25 864.88,-191"/>
<text text-anchor="middle" x="828.75" y="-177.5" font-family="Helvetica,sans-Serif" font-size="10.00">datagram.h</text>
</a>
</g>
</g>
<!-- Node18&#45;&gt;Node21 -->
<g id="edge29_Node000018_Node000021" class="edge">
<title>Node18&#45;&gt;Node21</title>
<g id="a_edge29_Node000018_Node000021"><a xlink:title=" ">
<path fill="none" stroke="#63b8ff" d="M1058.12,-226.96C1003.42,-216.15 914.88,-198.65 865.33,-188.85"/>
<polygon fill="#63b8ff" stroke="#63b8ff" points="1057.28,-230.36 1067.77,-228.87 1058.64,-223.49 1057.28,-230.36"/>
</a>
</g>
</g>
<!-- Node22 -->
<g id="Node000022" class="node">
<title>Node22</title>
<g id="a_Node000022"><a xlink:href="net_2inc_2vlcb_2net_2packet_2datagram_2dcc_8h.html" target="_top" xlink:title=" ">
<polygon fill="white" stroke="#666666" points="1322.5,-191 1281,-191 1281,-170.25 1322.5,-170.25 1322.5,-191"/>
<text text-anchor="middle" x="1301.75" y="-177.5" font-family="Helvetica,sans-Serif" font-size="10.00">dcc.h</text>
</a>
</g>
</g>
<!-- Node18&#45;&gt;Node22 -->
<g id="edge34_Node000018_Node000022" class="edge">
<title>Node18&#45;&gt;Node22</title>
<g id="a_edge34_Node000018_Node000022"><a xlink:title=" ">
<path fill="none" stroke="#63b8ff" d="M1151.78,-223.52C1192.47,-212.15 1249.97,-196.09 1280.6,-187.53"/>
<polygon fill="#63b8ff" stroke="#63b8ff" points="1150.94,-220.12 1142.25,-226.18 1152.82,-226.86 1150.94,-220.12"/>
</a>
</g>
</g>
<!-- Node23 -->
<g id="Node000023" class="node">
<title>Node23</title>
<g id="a_Node000023"><a xlink:href="net_2inc_2vlcb_2net_2packet_2datagram_2event_8h.html" target="_top" xlink:title=" ">
<polygon fill="white" stroke="#666666" points="1393.12,-191 1340.38,-191 1340.38,-170.25 1393.12,-170.25 1393.12,-191"/>
<text text-anchor="middle" x="1366.75" y="-177.5" font-family="Helvetica,sans-Serif" font-size="10.00">event.h</text>
</a>
</g>
</g>
<!-- Node18&#45;&gt;Node23 -->
<g id="edge35_Node000018_Node000023" class="edge">
<title>Node18&#45;&gt;Node23</title>
<g id="a_edge35_Node000018_Node000023"><a xlink:title=" ">
<path fill="none" stroke="#63b8ff" d="M1153.4,-227.72C1199.27,-219.17 1270.5,-205.34 1331.75,-191 1334.45,-190.37 1337.25,-189.68 1340.04,-188.97"/>
<polygon fill="#63b8ff" stroke="#63b8ff" points="1152.99,-224.24 1143.79,-229.5 1154.27,-231.12 1152.99,-224.24"/>
</a>
</g>
</g>
<!-- Node24 -->
<g id="Node000024" class="node">
<title>Node24</title>
<g id="a_Node000024"><a xlink:href="general_8h.html" target="_top" xlink:title=" ">
<polygon fill="white" stroke="#666666" points="1058.62,-191 996.88,-191 996.88,-170.25 1058.62,-170.25 1058.62,-191"/>
<text text-anchor="middle" x="1027.75" y="-177.5" font-family="Helvetica,sans-Serif" font-size="10.00">general.h</text>
</a>
</g>
</g>
<!-- Node18&#45;&gt;Node24 -->
<g id="edge36_Node000018_Node000024" class="edge">
<title>Node18&#45;&gt;Node24</title>
<g id="a_edge36_Node000018_Node000024"><a xlink:title=" ">
<path fill="none" stroke="#63b8ff" d="M1082.72,-220.21C1069.36,-210.83 1052.96,-199.32 1041.57,-191.33"/>
<polygon fill="#63b8ff" stroke="#63b8ff" points="1080.37,-222.84 1090.57,-225.72 1084.39,-217.11 1080.37,-222.84"/>
</a>
</g>
</g>
<!-- Node25 -->
<g id="Node000025" class="node">
<title>Node25</title>
<g id="a_Node000025"><a xlink:href="net_2inc_2vlcb_2net_2packet_2datagram_2module_8h.html" target="_top" xlink:title=" ">
<polygon fill="white" stroke="#666666" points="1214.62,-77.5 1152.88,-77.5 1152.88,-56.75 1214.62,-56.75 1214.62,-77.5"/>
<text text-anchor="middle" x="1183.75" y="-64" font-family="Helvetica,sans-Serif" font-size="10.00">module.h</text>
</a>
</g>
</g>
<!-- Node18&#45;&gt;Node25 -->
<g id="edge38_Node000018_Node000025" class="edge">
<title>Node18&#45;&gt;Node25</title>
<g id="a_edge38_Node000018_Node000025"><a xlink:title=" ">
<path fill="none" stroke="#63b8ff" d="M1153.65,-232.72C1181.96,-227.81 1215.7,-216.56 1233.75,-191 1260.33,-153.38 1214.86,-99.54 1193.7,-77.79"/>
<polygon fill="#63b8ff" stroke="#63b8ff" points="1153.19,-229.25 1143.82,-234.19 1154.22,-236.18 1153.19,-229.25"/>
</a>
</g>
</g>
<!-- Node21&#45;&gt;Node10 -->
<g id="edge32_Node000021_Node000010" class="edge">
<title>Node21&#45;&gt;Node10</title>
<g id="a_edge32_Node000021_Node000010"><a xlink:title=" ">
<path fill="none" stroke="#63b8ff" d="M810.84,-161.8C801.75,-152.75 791.06,-142.11 783.5,-134.58"/>
<polygon fill="#63b8ff" stroke="#63b8ff" points="808.29,-164.19 817.84,-168.77 813.23,-159.23 808.29,-164.19"/>
</a>
</g>
</g>
<!-- Node21&#45;&gt;Node11 -->
<g id="edge31_Node000021_Node000011" class="edge">
<title>Node21&#45;&gt;Node11</title>
<g id="a_edge31_Node000021_Node000011"><a xlink:title=" ">
<path fill="none" stroke="#63b8ff" d="M831.92,-158.64C834.72,-132.27 835.48,-86.85 813.75,-56.75 798.32,-35.38 770.17,-23.72 748.33,-17.6"/>
<polygon fill="#63b8ff" stroke="#63b8ff" points="828.47,-158.03 830.66,-168.4 835.41,-158.92 828.47,-158.03"/>
</a>
</g>
</g>
<!-- Node21&#45;&gt;Node13 -->
<g id="edge33_Node000021_Node000013" class="edge">
<title>Node21&#45;&gt;Node13</title>
<g id="a_edge33_Node000021_Node000013"><a xlink:title=" ">
<path fill="none" stroke="#63b8ff" d="M852.43,-163.26C875.86,-145.38 910.02,-114.33 922.75,-77.5 929.37,-58.35 929.25,-34.28 928.53,-21.1"/>
<polygon fill="#63b8ff" stroke="#63b8ff" points="850.63,-160.23 844.66,-168.98 854.78,-165.87 850.63,-160.23"/>
</a>
</g>
</g>
<!-- Node21&#45;&gt;Node20 -->
<g id="edge30_Node000021_Node000020" class="edge">
<title>Node21&#45;&gt;Node20</title>
<g id="a_edge30_Node000021_Node000020"><a xlink:title=" ">
<path fill="none" stroke="#63b8ff" d="M864.93,-165.87C890.58,-156.12 924.36,-143.27 947.23,-134.58"/>
<polygon fill="#63b8ff" stroke="#63b8ff" points="864.01,-162.47 855.91,-169.3 866.5,-169.02 864.01,-162.47"/>
</a>
</g>
</g>
<!-- Node25&#45;&gt;Node11 -->
<g id="edge39_Node000025_Node000011" class="edge">
<title>Node25&#45;&gt;Node11</title>
<g id="a_edge39_Node000025_Node000011"><a xlink:title=" ">
<path fill="none" stroke="#63b8ff" d="M1141.26,-61.13C1048.48,-50.23 829.62,-24.52 748.61,-15"/>
<polygon fill="#63b8ff" stroke="#63b8ff" points="1140.61,-64.58 1150.95,-62.27 1141.42,-57.63 1140.61,-64.58"/>
</a>
</g>
</g>
<!-- Node25&#45;&gt;Node13 -->
<g id="edge42_Node000025_Node000013" class="edge">
<title>Node25&#45;&gt;Node13</title>
<g id="a_edge42_Node000025_Node000013"><a xlink:title=" ">
<path fill="none" stroke="#63b8ff" d="M1141.49,-57.09C1095.28,-47.2 1021.45,-31.41 973.79,-21.22"/>
<polygon fill="#63b8ff" stroke="#63b8ff" points="1140.62,-60.48 1151.14,-59.15 1142.09,-53.64 1140.62,-60.48"/>
</a>
</g>
</g>
<!-- Node26 -->
<g id="Node000026" class="node">
<title>Node26</title>
<g id="a_Node000026"><a xlink:href="release__node__num__deserialize_8c.html" target="_top" xlink:title=" ">
<polygon fill="white" stroke="#666666" points="1231.25,-20.75 1056.25,-20.75 1056.25,0 1231.25,0 1231.25,-20.75"/>
<text text-anchor="middle" x="1143.75" y="-7.25" font-family="Helvetica,sans-Serif" font-size="10.00">release_node_num_deserialize.c</text>
</a>
</g>
</g>
<!-- Node25&#45;&gt;Node26 -->
<g id="edge40_Node000025_Node000026" class="edge">
<title>Node25&#45;&gt;Node26</title>
<g id="a_edge40_Node000025_Node000026"><a xlink:title=" ">
<path fill="none" stroke="#63b8ff" d="M1169.9,-47.17C1163.48,-38.38 1156.11,-28.3 1150.84,-21.08"/>
<polygon fill="#63b8ff" stroke="#63b8ff" points="1166.98,-49.1 1175.71,-55.11 1172.63,-44.98 1166.98,-49.1"/>
</a>
</g>
</g>
<!-- Node27 -->
<g id="Node000027" class="node">
<title>Node27</title>
<g id="a_Node000027"><a xlink:href="release__node__num__serialize_8c.html" target="_top" xlink:title=" ">
<polygon fill="white" stroke="#666666" points="1412.25,-20.75 1249.25,-20.75 1249.25,0 1412.25,0 1412.25,-20.75"/>
<text text-anchor="middle" x="1330.75" y="-7.25" font-family="Helvetica,sans-Serif" font-size="10.00">release_node_num_serialize.c</text>
</a>
</g>
</g>
<!-- Node25&#45;&gt;Node27 -->
<g id="edge41_Node000025_Node000027" class="edge">
<title>Node25&#45;&gt;Node27</title>
<g id="a_edge41_Node000025_Node000027"><a xlink:title=" ">
<path fill="none" stroke="#63b8ff" d="M1220.69,-52.37C1246.87,-42.62 1281.36,-29.77 1304.7,-21.08"/>
<polygon fill="#63b8ff" stroke="#63b8ff" points="1219.6,-49.04 1211.45,-55.81 1222.04,-55.6 1219.6,-49.04"/>
</a>
</g>
</g>
<!-- Node28&#45;&gt;Node4 -->
<g id="edge45_Node000028_Node000004" class="edge">
<title>Node28&#45;&gt;Node4</title>
<g id="a_edge45_Node000028_Node000004"><a xlink:title=" ">
<path fill="none" stroke="#63b8ff" d="M159.24,-117.28C220.79,-106.34 355.85,-82.33 411.28,-72.48"/>
<polygon fill="#63b8ff" stroke="#63b8ff" points="158.68,-113.82 149.45,-119.02 159.91,-120.71 158.68,-113.82"/>
</a>
</g>
</g>
<!-- Node28&#45;&gt;Node6 -->
<g id="edge46_Node000028_Node000006" class="edge">
<title>Node28&#45;&gt;Node6</title>
<g id="a_edge46_Node000028_Node000006"><a xlink:title=" ">
<path fill="none" stroke="#63b8ff" d="M159.26,-114.18C160.1,-113.95 160.93,-113.72 161.75,-113.5 207.77,-100.98 260.91,-86.75 295.12,-77.62"/>
<polygon fill="#63b8ff" stroke="#63b8ff" points="158.42,-110.78 149.7,-116.8 160.27,-117.53 158.42,-110.78"/>
</a>
</g>
</g>
<!-- Node28&#45;&gt;Node8 -->
<g id="edge47_Node000028_Node000008" class="edge">
<title>Node28&#45;&gt;Node8</title>
<g id="a_edge47_Node000028_Node000008"><a xlink:title=" ">
<path fill="none" stroke="#63b8ff" d="M158.05,-108.2C177.92,-98.57 203.34,-86.25 220.72,-77.83"/>
<polygon fill="#63b8ff" stroke="#63b8ff" points="156.79,-104.92 149.31,-112.43 159.84,-111.22 156.79,-104.92"/>
</a>
</g>
</g>
<!-- Node28&#45;&gt;Node11 -->
<g id="edge49_Node000028_Node000011" class="edge">
<title>Node28&#45;&gt;Node11</title>
<g id="a_edge49_Node000028_Node000011"><a xlink:title=" ">
<path fill="none" stroke="#63b8ff" d="M140.68,-104.28C152.71,-88.63 172.14,-67.19 194.75,-56.75 283.18,-15.91 588.55,-11.63 686.94,-11.34"/>
<polygon fill="#63b8ff" stroke="#63b8ff" points="138.18,-101.77 135.09,-111.9 143.83,-105.91 138.18,-101.77"/>
</a>
</g>
</g>
<!-- Node28&#45;&gt;Node17 -->
<g id="edge50_Node000028_Node000017" class="edge">
<title>Node28&#45;&gt;Node17</title>
<g id="a_edge50_Node000028_Node000017"><a xlink:title=" ">
<path fill="none" stroke="#63b8ff" d="M103.54,-106.71C89.49,-97.33 72.26,-85.82 60.28,-77.83"/>
<polygon fill="#63b8ff" stroke="#63b8ff" points="101.57,-109.6 111.83,-112.25 105.46,-103.78 101.57,-109.6"/>
</a>
</g>
</g>
<!-- Node29 -->
<g id="Node000029" class="node">
<title>Node29</title>
<g id="a_Node000029"><a xlink:href="log_8c.html" target="_top" xlink:title=" ">
<polygon fill="white" stroke="#666666" points="147.38,-77.5 108.12,-77.5 108.12,-56.75 147.38,-56.75 147.38,-77.5"/>
<text text-anchor="middle" x="127.75" y="-64" font-family="Helvetica,sans-Serif" font-size="10.00">log.c</text>
</a>
</g>
</g>
<!-- Node28&#45;&gt;Node29 -->
<g id="edge48_Node000028_Node000029" class="edge">
<title>Node28&#45;&gt;Node29</title>
<g id="a_edge48_Node000028_Node000029"><a xlink:title=" ">
<path fill="none" stroke="#63b8ff" d="M127.75,-101.63C127.75,-93.41 127.75,-84.43 127.75,-77.83"/>
<polygon fill="#63b8ff" stroke="#63b8ff" points="124.25,-101.57 127.75,-111.57 131.25,-101.57 124.25,-101.57"/>
</a>
</g>
</g>
<!-- Node30&#45;&gt;Node6 -->
<g id="edge53_Node000030_Node000006" class="edge">
<title>Node30&#45;&gt;Node6</title>
<g id="a_edge53_Node000030_Node000006"><a xlink:title=" ">
<path fill="none" stroke="#63b8ff" d="M439.12,-277.85C397.48,-253.76 322.01,-202.58 292.75,-134.25 283.68,-113.07 304.5,-90.13 318.76,-77.61"/>
<polygon fill="#63b8ff" stroke="#63b8ff" points="437.18,-280.77 447.61,-282.64 440.62,-274.67 437.18,-280.77"/>
</a>
</g>
</g>
<!-- Node30&#45;&gt;Node9 -->
<g id="edge54_Node000030_Node000009" class="edge">
<title>Node30&#45;&gt;Node9</title>
<g id="a_edge54_Node000030_Node000009"><a xlink:title=" ">
<path fill="none" stroke="#63b8ff" d="M472.31,-272.41C480.33,-235.9 496.7,-161.46 502.59,-134.72"/>
<polygon fill="#63b8ff" stroke="#63b8ff" points="468.9,-271.6 470.17,-282.12 475.74,-273.1 468.9,-271.6"/>
</a>
</g>
</g>
<!-- Node30&#45;&gt;Node20 -->
<g id="edge52_Node000030_Node000020" class="edge">
<title>Node30&#45;&gt;Node20</title>
<g id="a_edge52_Node000030_Node000020"><a xlink:title=" ">
<path fill="none" stroke="#63b8ff" d="M502.16,-291.51C579.33,-286.57 770.1,-266.98 906.75,-191 932.55,-176.65 955.02,-149.28 965.86,-134.66"/>
<polygon fill="#63b8ff" stroke="#63b8ff" points="502.07,-288.01 492.29,-292.09 502.48,-294.99 502.07,-288.01"/>
</a>
</g>
</g>
<!-- Node31 -->
<g id="Node000031" class="node">
<title>Node31</title>
<g id="a_Node000031"><a xlink:href="socket_8h.html" target="_top" xlink:title=" ">
<polygon fill="white" stroke="#666666" points="653,-247.75 596.5,-247.75 596.5,-227 653,-227 653,-247.75"/>
<text text-anchor="middle" x="624.75" y="-234.25" font-family="Helvetica,sans-Serif" font-size="10.00">socket.h</text>
</a>
</g>
</g>
<!-- Node30&#45;&gt;Node31 -->
<g id="edge55_Node000030_Node000031" class="edge">
<title>Node30&#45;&gt;Node31</title>
<g id="a_edge55_Node000030_Node000031"><a xlink:title=" ">
<path fill="none" stroke="#63b8ff" d="M501.19,-281.46C529.57,-271.57 569.82,-257.53 596.58,-248.2"/>
<polygon fill="#63b8ff" stroke="#63b8ff" points="500.3,-278.07 492.01,-284.67 502.6,-284.68 500.3,-278.07"/>
</a>
</g>
</g>
<!-- Node33 -->
<g id="Node000033" class="node">
<title>Node33</title>
<g id="a_Node000033"><a xlink:href="vlcb_8c.html" target="_top" xlink:title=" ">
<polygon fill="white" stroke="#666666" points="465,-247.75 420.5,-247.75 420.5,-227 465,-227 465,-247.75"/>
<text text-anchor="middle" x="442.75" y="-234.25" font-family="Helvetica,sans-Serif" font-size="10.00">vlcb.c</text>
</a>
</g>
</g>
<!-- Node30&#45;&gt;Node33 -->
<g id="edge66_Node000030_Node000033" class="edge">
<title>Node30&#45;&gt;Node33</title>
<g id="a_edge66_Node000030_Node000033"><a xlink:title=" ">
<path fill="none" stroke="#63b8ff" d="M458.58,-273.03C454.69,-264.52 450.34,-254.99 447.18,-248.08"/>
<polygon fill="#63b8ff" stroke="#63b8ff" points="455.31,-274.32 462.65,-281.96 461.68,-271.41 455.31,-274.32"/>
</a>
</g>
</g>
<!-- Node31&#45;&gt;Node4 -->
<g id="edge58_Node000031_Node000004" class="edge">
<title>Node31&#45;&gt;Node4</title>
<g id="a_edge58_Node000031_Node000004"><a xlink:title=" ">
<path fill="none" stroke="#63b8ff" d="M651.67,-220.35C668.98,-207.82 686.69,-189.36 677.75,-170.25 639.19,-87.85 513.76,-71.86 460.28,-68.81"/>
<polygon fill="#63b8ff" stroke="#63b8ff" points="649.87,-217.34 643.52,-225.83 653.77,-223.15 649.87,-217.34"/>
</a>
</g>
</g>
<!-- Node31&#45;&gt;Node5 -->
<g id="edge59_Node000031_Node000005" class="edge">
<title>Node31&#45;&gt;Node5</title>
<g id="a_edge59_Node000031_Node000005"><a xlink:title=" ">
<path fill="none" stroke="#63b8ff" d="M585.5,-224.76C549.01,-213.96 495.74,-198.19 464.72,-189.02"/>
<polygon fill="#63b8ff" stroke="#63b8ff" points="584.22,-228.03 594.8,-227.51 586.2,-221.32 584.22,-228.03"/>
</a>
</g>
</g>
<!-- Node31&#45;&gt;Node7 -->
<g id="edge60_Node000031_Node000007" class="edge">
<title>Node31&#45;&gt;Node7</title>
<g id="a_edge60_Node000031_Node000007"><a xlink:title=" ">
<path fill="none" stroke="#63b8ff" d="M584.86,-234.78C539.16,-231.49 463.17,-221.47 405.75,-191 379.28,-176.95 356.08,-149.46 344.87,-134.73"/>
<polygon fill="#63b8ff" stroke="#63b8ff" points="584.37,-238.26 594.57,-235.4 584.81,-231.27 584.37,-238.26"/>
</a>
</g>
</g>
<!-- Node31&#45;&gt;Node9 -->
<g id="edge61_Node000031_Node000009" class="edge">
<title>Node31&#45;&gt;Node9</title>
<g id="a_edge61_Node000031_Node000009"><a xlink:title=" ">
<path fill="none" stroke="#63b8ff" d="M596.27,-221.01C582.88,-213.04 567.17,-202.55 554.75,-191 535.99,-173.55 519.15,-148.4 510.62,-134.69"/>
<polygon fill="#63b8ff" stroke="#63b8ff" points="594.24,-223.88 604.65,-225.83 597.73,-217.81 594.24,-223.88"/>
</a>
</g>
</g>
<!-- Node31&#45;&gt;Node11 -->
<g id="edge62_Node000031_Node000011" class="edge">
<title>Node31&#45;&gt;Node11</title>
<g id="a_edge62_Node000031_Node000011"><a xlink:title=" ">
<path fill="none" stroke="#63b8ff" d="M605.32,-218.43C598.38,-210.74 591.38,-201.19 587.75,-191 575.74,-157.27 621.94,-147.17 609.75,-113.5 600.04,-86.67 563.02,-79.86 579.75,-56.75 604.08,-23.14 654.12,-13.99 686.79,-11.74"/>
<polygon fill="#63b8ff" stroke="#63b8ff" points="602.69,-220.75 612.19,-225.45 607.69,-215.85 602.69,-220.75"/>
</a>
</g>
</g>
<!-- Node31&#45;&gt;Node13 -->
<g id="edge65_Node000031_Node000013" class="edge">
<title>Node31&#45;&gt;Node13</title>
<g id="a_edge65_Node000031_Node000013"><a xlink:title=" ">
<path fill="none" stroke="#63b8ff" d="M659.03,-221.99C698.51,-204.51 764.3,-172.56 813.75,-134.25 859.99,-98.43 903.9,-43.11 920.63,-20.99"/>
<polygon fill="#63b8ff" stroke="#63b8ff" points="657.78,-218.71 650.01,-225.92 660.57,-225.13 657.78,-218.71"/>
</a>
</g>
</g>
<!-- Node31&#45;&gt;Node15 -->
<g id="edge63_Node000031_Node000015" class="edge">
<title>Node31&#45;&gt;Node15</title>
<g id="a_edge63_Node000031_Node000015"><a xlink:title=" ">
<path fill="none" stroke="#63b8ff" d="M645.05,-219.12C658.26,-205.71 671.39,-186.7 661.75,-170.25 648.87,-148.28 621.04,-136.14 601.61,-130.07"/>
<polygon fill="#63b8ff" stroke="#63b8ff" points="643.01,-216.23 638.12,-225.63 647.8,-221.34 643.01,-216.23"/>
</a>
</g>
</g>
<!-- Node31&#45;&gt;Node20 -->
<g id="edge56_Node000031_Node000020" class="edge">
<title>Node31&#45;&gt;Node20</title>
<g id="a_edge56_Node000031_Node000020"><a xlink:title=" ">
<path fill="none" stroke="#63b8ff" d="M664.78,-234.1C715.17,-230.11 803.61,-219.39 873.75,-191 908.62,-176.89 943.95,-149.42 961.46,-134.72"/>
<polygon fill="#63b8ff" stroke="#63b8ff" points="664.65,-230.6 654.94,-234.82 665.17,-237.58 664.65,-230.6"/>
</a>
</g>
</g>
<!-- Node31&#45;&gt;Node21 -->
<g id="edge57_Node000031_Node000021" class="edge">
<title>Node31&#45;&gt;Node21</title>
<g id="a_edge57_Node000031_Node000021"><a xlink:title=" ">
<path fill="none" stroke="#63b8ff" d="M664,-225.84C701.08,-215.89 756.26,-201.08 792.37,-191.39"/>
<polygon fill="#63b8ff" stroke="#63b8ff" points="663.33,-222.4 654.58,-228.37 665.14,-229.16 663.33,-222.4"/>
</a>
</g>
</g>
<!-- Node32 -->
<g id="Node000032" class="node">
<title>Node32</title>
<g id="a_Node000032"><a xlink:href="socket_8c.html" target="_top" xlink:title=" ">
<polygon fill="white" stroke="#666666" points="652.62,-191 596.88,-191 596.88,-170.25 652.62,-170.25 652.62,-191"/>
<text text-anchor="middle" x="624.75" y="-177.5" font-family="Helvetica,sans-Serif" font-size="10.00">socket.c</text>
</a>
</g>
</g>
<!-- Node31&#45;&gt;Node32 -->
<g id="edge64_Node000031_Node000032" class="edge">
<title>Node31&#45;&gt;Node32</title>
<g id="a_edge64_Node000031_Node000032"><a xlink:title=" ">
<path fill="none" stroke="#63b8ff" d="M624.75,-215.13C624.75,-206.91 624.75,-197.93 624.75,-191.33"/>
<polygon fill="#63b8ff" stroke="#63b8ff" points="621.25,-215.07 624.75,-225.07 628.25,-215.07 621.25,-215.07"/>
</a>
</g>
</g>
</g>
</svg>
