<?xml version="1.0" encoding="UTF-8" standalone="no"?>
<!DOCTYPE svg PUBLIC "-//W3C//DTD SVG 1.1//EN"
 "http://www.w3.org/Graphics/SVG/1.1/DTD/svg11.dtd">
<!-- Generated by graphviz version 12.1.2 (20240928.0832)
 -->
<!-- Title: general.h Pages: 1 -->
<svg width="693pt" height="199pt"
 viewBox="0.00 0.00 692.62 199.00" xmlns="http://www.w3.org/2000/svg" xmlns:xlink="http://www.w3.org/1999/xlink">
<g id="graph0" class="graph" transform="scale(1 1) rotate(0) translate(4 195)">
<title>general.h</title>
<!-- Node1 -->
<g id="Node000001" class="node">
<title>Node1</title>
<g id="a_Node000001"><a xlink:title=" ">
<polygon fill="#999999" stroke="#666666" points="346.38,-191 284.62,-191 284.62,-170.25 346.38,-170.25 346.38,-191"/>
<text text-anchor="middle" x="315.5" y="-177.5" font-family="Helvetica,sans-Serif" font-size="10.00">general.h</text>
</a>
</g>
</g>
<!-- Node2 -->
<g id="Node000002" class="node">
<title>Node2</title>
<g id="a_Node000002"><a xlink:href="common_2inc_2vlcb_2common_2can_8h.html" target="_top" xlink:title=" ">
<polygon fill="white" stroke="#666666" points="124.12,-134.25 12.88,-134.25 12.88,-113.5 124.12,-113.5 124.12,-134.25"/>
<text text-anchor="middle" x="68.5" y="-120.75" font-family="Helvetica,sans-Serif" font-size="10.00">vlcb/common/can.h</text>
</a>
</g>
</g>
<!-- Node1&#45;&gt;Node2 -->
<g id="edge1_Node000001_Node000002" class="edge">
<title>Node1&#45;&gt;Node2</title>
<g id="a_edge1_Node000001_Node000002"><a xlink:title=" ">
<path fill="none" stroke="#63b8ff" d="M284.22,-172.69C243.99,-163.77 173.45,-148.14 124.01,-137.18"/>
<polygon fill="#63b8ff" stroke="#63b8ff" points="124.87,-133.78 114.35,-135.04 123.35,-140.62 124.87,-133.78"/>
</a>
</g>
</g>
<!-- Node5 -->
<g id="Node000005" class="node">
<title>Node5</title>
<g id="a_Node000005"><a xlink:title=" ">
<polygon fill="#e0e0e0" stroke="#999999" points="179.88,-20.75 127.12,-20.75 127.12,0 179.88,0 179.88,-20.75"/>
<text text-anchor="middle" x="153.5" y="-7.25" font-family="Helvetica,sans-Serif" font-size="10.00">stdint.h</text>
</a>
</g>
</g>
<!-- Node1&#45;&gt;Node5 -->
<g id="edge15_Node000001_Node000005" class="edge">
<title>Node1&#45;&gt;Node5</title>
<g id="a_edge15_Node000001_Node000005"><a xlink:title=" ">
<path fill="none" stroke="#63b8ff" d="M346.69,-175.26C388.7,-168.68 460.01,-154.75 475.5,-134.25 490.15,-114.86 475.02,-71.06 458.5,-56.75 419.21,-22.72 264.03,-14.21 191.38,-12.08"/>
<polygon fill="#63b8ff" stroke="#63b8ff" points="191.65,-8.59 181.57,-11.82 191.47,-15.59 191.65,-8.59"/>
</a>
</g>
</g>
<!-- Node6 -->
<g id="Node000006" class="node">
<title>Node6</title>
<g id="a_Node000006"><a xlink:href="vlcb__defs_8h.html" target="_top" xlink:title=" ">
<polygon fill="white" stroke="#666666" points="189.25,-77.5 117.75,-77.5 117.75,-56.75 189.25,-56.75 189.25,-77.5"/>
<text text-anchor="middle" x="153.5" y="-64" font-family="Helvetica,sans-Serif" font-size="10.00">vlcb_defs.h</text>
</a>
</g>
</g>
<!-- Node1&#45;&gt;Node6 -->
<g id="edge9_Node000001_Node000006" class="edge">
<title>Node1&#45;&gt;Node6</title>
<g id="a_edge9_Node000001_Node000006"><a xlink:title=" ">
<path fill="none" stroke="#63b8ff" d="M284.32,-178.24C251.7,-175.09 201.2,-165.15 171.5,-134.25 159.89,-122.18 155.61,-103.39 154.1,-88.92"/>
<polygon fill="#63b8ff" stroke="#63b8ff" points="157.61,-88.86 153.48,-79.1 150.62,-89.31 157.61,-88.86"/>
</a>
</g>
</g>
<!-- Node7 -->
<g id="Node000007" class="node">
<title>Node7</title>
<g id="a_Node000007"><a xlink:href="node_8h.html" target="_top" xlink:title=" ">
<polygon fill="white" stroke="#666666" points="298.5,-134.25 180.5,-134.25 180.5,-113.5 298.5,-113.5 298.5,-134.25"/>
<text text-anchor="middle" x="239.5" y="-120.75" font-family="Helvetica,sans-Serif" font-size="10.00">vlcb/common/node.h</text>
</a>
</g>
</g>
<!-- Node1&#45;&gt;Node7 -->
<g id="edge7_Node000001_Node000007" class="edge">
<title>Node1&#45;&gt;Node7</title>
<g id="a_edge7_Node000001_Node000007"><a xlink:title=" ">
<path fill="none" stroke="#63b8ff" d="M301.91,-169.84C290.89,-161.9 275.11,-150.53 262.18,-141.21"/>
<polygon fill="#63b8ff" stroke="#63b8ff" points="264.36,-138.47 254.2,-135.46 260.27,-144.15 264.36,-138.47"/>
</a>
</g>
</g>
<!-- Node8 -->
<g id="Node000008" class="node">
<title>Node8</title>
<g id="a_Node000008"><a xlink:href="packet_2datagram_8h.html" target="_top" xlink:title=" ">
<polygon fill="white" stroke="#666666" points="466.25,-134.25 316.75,-134.25 316.75,-113.5 466.25,-113.5 466.25,-134.25"/>
<text text-anchor="middle" x="391.5" y="-120.75" font-family="Helvetica,sans-Serif" font-size="10.00">vlcb/net/packet/datagram.h</text>
</a>
</g>
</g>
<!-- Node1&#45;&gt;Node8 -->
<g id="edge10_Node000001_Node000008" class="edge">
<title>Node1&#45;&gt;Node8</title>
<g id="a_edge10_Node000001_Node000008"><a xlink:title=" ">
<path fill="none" stroke="#63b8ff" d="M329.09,-169.84C340.11,-161.9 355.89,-150.53 368.82,-141.21"/>
<polygon fill="#63b8ff" stroke="#63b8ff" points="370.73,-144.15 376.8,-135.46 366.64,-138.47 370.73,-144.15"/>
</a>
</g>
</g>
<!-- Node10 -->
<g id="Node000010" class="node">
<title>Node10</title>
<g id="a_Node000010"><a xlink:href="serialization_8h.html" target="_top" xlink:title=" ">
<polygon fill="white" stroke="#666666" points="684.62,-134.25 522.38,-134.25 522.38,-113.5 684.62,-113.5 684.62,-134.25"/>
<text text-anchor="middle" x="603.5" y="-120.75" font-family="Helvetica,sans-Serif" font-size="10.00">vlcb/net/packet/serialization.h</text>
</a>
</g>
</g>
<!-- Node1&#45;&gt;Node10 -->
<g id="edge14_Node000001_Node000010" class="edge">
<title>Node1&#45;&gt;Node10</title>
<g id="a_edge14_Node000001_Node000010"><a xlink:title=" ">
<path fill="none" stroke="#63b8ff" d="M346.87,-173.66C393.16,-164.86 480.74,-148.21 540.59,-136.83"/>
<polygon fill="#63b8ff" stroke="#63b8ff" points="541.14,-140.29 550.31,-134.99 539.84,-133.42 541.14,-140.29"/>
</a>
</g>
</g>
<!-- Node3 -->
<g id="Node000003" class="node">
<title>Node3</title>
<g id="a_Node000003"><a xlink:title=" ">
<polygon fill="#e0e0e0" stroke="#999999" points="271.88,-77.5 207.12,-77.5 207.12,-56.75 271.88,-56.75 271.88,-77.5"/>
<text text-anchor="middle" x="239.5" y="-64" font-family="Helvetica,sans-Serif" font-size="10.00">inttypes.h</text>
</a>
</g>
</g>
<!-- Node2&#45;&gt;Node3 -->
<g id="edge2_Node000002_Node000003" class="edge">
<title>Node2&#45;&gt;Node3</title>
<g id="a_edge2_Node000002_Node000003"><a xlink:title=" ">
<path fill="none" stroke="#63b8ff" d="M99.07,-113.09C126.71,-104.24 167.62,-91.14 198.16,-81.36"/>
<polygon fill="#63b8ff" stroke="#63b8ff" points="199.01,-84.76 207.46,-78.38 196.87,-78.1 199.01,-84.76"/>
</a>
</g>
</g>
<!-- Node4 -->
<g id="Node000004" class="node">
<title>Node4</title>
<g id="a_Node000004"><a xlink:title=" ">
<polygon fill="#e0e0e0" stroke="#999999" points="61,-77.5 0,-77.5 0,-56.75 61,-56.75 61,-77.5"/>
<text text-anchor="middle" x="30.5" y="-64" font-family="Helvetica,sans-Serif" font-size="10.00">stdbool.h</text>
</a>
</g>
</g>
<!-- Node2&#45;&gt;Node4 -->
<g id="edge3_Node000002_Node000004" class="edge">
<title>Node2&#45;&gt;Node4</title>
<g id="a_edge3_Node000002_Node000004"><a xlink:title=" ">
<path fill="none" stroke="#63b8ff" d="M61.71,-113.09C56.73,-105.92 49.83,-95.98 43.78,-87.26"/>
<polygon fill="#63b8ff" stroke="#63b8ff" points="46.68,-85.29 38.1,-79.07 40.92,-89.28 46.68,-85.29"/>
</a>
</g>
</g>
<!-- Node2&#45;&gt;Node5 -->
<g id="edge4_Node000002_Node000005" class="edge">
<title>Node2&#45;&gt;Node5</title>
<g id="a_edge4_Node000002_Node000005"><a xlink:title=" ">
<path fill="none" stroke="#63b8ff" d="M73.29,-113.44C80.21,-100.19 93.81,-75.58 108.5,-56.75 116.2,-46.88 125.85,-36.9 134.24,-28.82"/>
<polygon fill="#63b8ff" stroke="#63b8ff" points="136.39,-31.6 141.29,-22.21 131.6,-26.5 136.39,-31.6"/>
</a>
</g>
</g>
<!-- Node2&#45;&gt;Node6 -->
<g id="edge5_Node000002_Node000006" class="edge">
<title>Node2&#45;&gt;Node6</title>
<g id="a_edge5_Node000002_Node000006"><a xlink:title=" ">
<path fill="none" stroke="#63b8ff" d="M83.7,-113.09C96.27,-104.99 114.36,-93.33 128.98,-83.92"/>
<polygon fill="#63b8ff" stroke="#63b8ff" points="130.65,-87.01 137.16,-78.65 126.86,-81.12 130.65,-87.01"/>
</a>
</g>
</g>
<!-- Node6&#45;&gt;Node5 -->
<g id="edge6_Node000006_Node000005" class="edge">
<title>Node6&#45;&gt;Node5</title>
<g id="a_edge6_Node000006_Node000005"><a xlink:title=" ">
<path fill="none" stroke="#63b8ff" d="M153.5,-56.34C153.5,-49.72 153.5,-40.72 153.5,-32.52"/>
<polygon fill="#63b8ff" stroke="#63b8ff" points="157,-32.59 153.5,-22.59 150,-32.59 157,-32.59"/>
</a>
</g>
</g>
<!-- Node7&#45;&gt;Node3 -->
<g id="edge8_Node000007_Node000003" class="edge">
<title>Node7&#45;&gt;Node3</title>
<g id="a_edge8_Node000007_Node000003"><a xlink:title=" ">
<path fill="none" stroke="#63b8ff" d="M239.5,-113.09C239.5,-106.47 239.5,-97.47 239.5,-89.27"/>
<polygon fill="#63b8ff" stroke="#63b8ff" points="243,-89.34 239.5,-79.34 236,-89.34 243,-89.34"/>
</a>
</g>
</g>
<!-- Node8&#45;&gt;Node3 -->
<g id="edge11_Node000008_Node000003" class="edge">
<title>Node8&#45;&gt;Node3</title>
<g id="a_edge11_Node000008_Node000003"><a xlink:title=" ">
<path fill="none" stroke="#63b8ff" d="M364.33,-113.09C340.08,-104.36 304.35,-91.48 277.32,-81.75"/>
<polygon fill="#63b8ff" stroke="#63b8ff" points="278.71,-78.53 268.12,-78.43 276.34,-85.12 278.71,-78.53"/>
</a>
</g>
</g>
<!-- Node8&#45;&gt;Node6 -->
<g id="edge12_Node000008_Node000006" class="edge">
<title>Node8&#45;&gt;Node6</title>
<g id="a_edge12_Node000008_Node000006"><a xlink:title=" ">
<path fill="none" stroke="#63b8ff" d="M348.68,-113.02C306.91,-103.41 243.53,-88.84 200.42,-78.92"/>
<polygon fill="#63b8ff" stroke="#63b8ff" points="201.38,-75.55 190.85,-76.72 199.81,-82.37 201.38,-75.55"/>
</a>
</g>
</g>
<!-- Node9 -->
<g id="Node000009" class="node">
<title>Node9</title>
<g id="a_Node000009"><a xlink:href="error_8h.html" target="_top" xlink:title=" ">
<polygon fill="white" stroke="#666666" points="449.38,-77.5 333.62,-77.5 333.62,-56.75 449.38,-56.75 449.38,-77.5"/>
<text text-anchor="middle" x="391.5" y="-64" font-family="Helvetica,sans-Serif" font-size="10.00">vlcb/platform/error.h</text>
</a>
</g>
</g>
<!-- Node8&#45;&gt;Node9 -->
<g id="edge13_Node000008_Node000009" class="edge">
<title>Node8&#45;&gt;Node9</title>
<g id="a_edge13_Node000008_Node000009"><a xlink:title=" ">
<path fill="none" stroke="#63b8ff" d="M391.5,-113.09C391.5,-106.47 391.5,-97.47 391.5,-89.27"/>
<polygon fill="#63b8ff" stroke="#63b8ff" points="395,-89.34 391.5,-79.34 388,-89.34 395,-89.34"/>
</a>
</g>
</g>
</g>
</svg>
