<?xml version="1.0" encoding="UTF-8" standalone="no"?>
<!DOCTYPE svg PUBLIC "-//W3C//DTD SVG 1.1//EN"
 "http://www.w3.org/Graphics/SVG/1.1/DTD/svg11.dtd">
<!-- Generated by graphviz version 12.1.2 (20240928.0832)
 -->
<!-- Title: general.h Pages: 1 -->
<svg width="786pt" height="199pt"
 viewBox="0.00 0.00 786.08 199.00" xmlns="http://www.w3.org/2000/svg" xmlns:xlink="http://www.w3.org/1999/xlink">
<g id="graph0" class="graph" transform="scale(1 1) rotate(0) translate(4 195)">
<title>general.h</title>
<!-- Node1 -->
<g id="Node000001" class="node">
<title>Node1</title>
<g id="a_Node000001"><a xlink:title=" ">
<polygon fill="#999999" stroke="#666666" points="343.83,-191 282.08,-191 282.08,-170.25 343.83,-170.25 343.83,-191"/>
<text text-anchor="middle" x="312.96" y="-177.5" font-family="Helvetica,sans-Serif" font-size="10.00">general.h</text>
</a>
</g>
</g>
<!-- Node2 -->
<g id="Node000002" class="node">
<title>Node2</title>
<g id="a_Node000002"><a xlink:href="common_2inc_2vlcb_2common_2can_8h.html" target="_top" xlink:title=" ">
<polygon fill="white" stroke="#666666" points="294.58,-134.25 183.33,-134.25 183.33,-113.5 294.58,-113.5 294.58,-134.25"/>
<text text-anchor="middle" x="238.96" y="-120.75" font-family="Helvetica,sans-Serif" font-size="10.00">vlcb/common/can.h</text>
</a>
</g>
</g>
<!-- Node1&#45;&gt;Node2 -->
<g id="edge1_Node000001_Node000002" class="edge">
<title>Node1&#45;&gt;Node2</title>
<g id="a_edge1_Node000001_Node000002"><a xlink:title=" ">
<path fill="none" stroke="#63b8ff" d="M299.73,-169.84C289,-161.9 273.63,-150.53 261.04,-141.21"/>
<polygon fill="#63b8ff" stroke="#63b8ff" points="263.41,-138.61 253.29,-135.48 259.25,-144.24 263.41,-138.61"/>
</a>
</g>
</g>
<!-- Node5 -->
<g id="Node000005" class="node">
<title>Node5</title>
<g id="a_Node000005"><a xlink:title=" ">
<polygon fill="#e0e0e0" stroke="#999999" points="192.33,-20.75 139.58,-20.75 139.58,0 192.33,0 192.33,-20.75"/>
<text text-anchor="middle" x="165.96" y="-7.25" font-family="Helvetica,sans-Serif" font-size="10.00">stdint.h</text>
</a>
</g>
</g>
<!-- Node1&#45;&gt;Node5 -->
<g id="edge16_Node000001_Node000005" class="edge">
<title>Node1&#45;&gt;Node5</title>
<g id="a_edge16_Node000001_Node000005"><a xlink:title=" ">
<path fill="none" stroke="#63b8ff" d="M281.73,-180.59C216.51,-180.67 66.85,-170.23 5.96,-77.5 -24.38,-31.29 71.46,-17.35 127.83,-13.16"/>
<polygon fill="#63b8ff" stroke="#63b8ff" points="127.95,-16.66 137.69,-12.51 127.48,-9.68 127.95,-16.66"/>
</a>
</g>
</g>
<!-- Node7 -->
<g id="Node000007" class="node">
<title>Node7</title>
<g id="a_Node000007"><a xlink:href="common_2inc_2vlcb_2common_2module_8h.html" target="_top" xlink:title=" ">
<polygon fill="white" stroke="#666666" points="145.33,-77.5 14.58,-77.5 14.58,-56.75 145.33,-56.75 145.33,-77.5"/>
<text text-anchor="middle" x="79.96" y="-64" font-family="Helvetica,sans-Serif" font-size="10.00">vlcb/common/module.h</text>
</a>
</g>
</g>
<!-- Node1&#45;&gt;Node7 -->
<g id="edge7_Node000001_Node000007" class="edge">
<title>Node1&#45;&gt;Node7</title>
<g id="a_edge7_Node000001_Node000007"><a xlink:title=" ">
<path fill="none" stroke="#63b8ff" d="M281.83,-172.31C252.96,-164.87 209.25,-151.93 173.96,-134.25 146.74,-120.62 118.57,-99.75 100.26,-85.11"/>
<polygon fill="#63b8ff" stroke="#63b8ff" points="102.54,-82.45 92.58,-78.85 98.12,-87.88 102.54,-82.45"/>
</a>
</g>
</g>
<!-- Node8 -->
<g id="Node000008" class="node">
<title>Node8</title>
<g id="a_Node000008"><a xlink:href="node_8h.html" target="_top" xlink:title=" ">
<polygon fill="white" stroke="#666666" points="597.96,-134.25 479.96,-134.25 479.96,-113.5 597.96,-113.5 597.96,-134.25"/>
<text text-anchor="middle" x="538.96" y="-120.75" font-family="Helvetica,sans-Serif" font-size="10.00">vlcb/common/node.h</text>
</a>
</g>
</g>
<!-- Node1&#45;&gt;Node8 -->
<g id="edge9_Node000001_Node000008" class="edge">
<title>Node1&#45;&gt;Node8</title>
<g id="a_edge9_Node000001_Node000008"><a xlink:title=" ">
<path fill="none" stroke="#63b8ff" d="M343.91,-172.13C380.83,-163.18 443.11,-148.1 487.35,-137.38"/>
<polygon fill="#63b8ff" stroke="#63b8ff" points="488.1,-140.8 497,-135.04 486.46,-133.99 488.1,-140.8"/>
</a>
</g>
</g>
<!-- Node9 -->
<g id="Node000009" class="node">
<title>Node9</title>
<g id="a_Node000009"><a xlink:href="packet_2datagram_8h.html" target="_top" xlink:title=" ">
<polygon fill="white" stroke="#666666" points="461.71,-134.25 312.21,-134.25 312.21,-113.5 461.71,-113.5 461.71,-134.25"/>
<text text-anchor="middle" x="386.96" y="-120.75" font-family="Helvetica,sans-Serif" font-size="10.00">vlcb/net/packet/datagram.h</text>
</a>
</g>
</g>
<!-- Node1&#45;&gt;Node9 -->
<g id="edge11_Node000001_Node000009" class="edge">
<title>Node1&#45;&gt;Node9</title>
<g id="a_edge11_Node000001_Node000009"><a xlink:title=" ">
<path fill="none" stroke="#63b8ff" d="M326.19,-169.84C336.92,-161.9 352.28,-150.53 364.88,-141.21"/>
<polygon fill="#63b8ff" stroke="#63b8ff" points="366.67,-144.24 372.63,-135.48 362.51,-138.61 366.67,-144.24"/>
</a>
</g>
</g>
<!-- Node11 -->
<g id="Node000011" class="node">
<title>Node11</title>
<g id="a_Node000011"><a xlink:href="serialization_8h.html" target="_top" xlink:title=" ">
<polygon fill="white" stroke="#666666" points="778.08,-134.25 615.83,-134.25 615.83,-113.5 778.08,-113.5 778.08,-134.25"/>
<text text-anchor="middle" x="696.96" y="-120.75" font-family="Helvetica,sans-Serif" font-size="10.00">vlcb/net/packet/serialization.h</text>
</a>
</g>
</g>
<!-- Node1&#45;&gt;Node11 -->
<g id="edge15_Node000001_Node000011" class="edge">
<title>Node1&#45;&gt;Node11</title>
<g id="a_edge15_Node000001_Node000011"><a xlink:title=" ">
<path fill="none" stroke="#63b8ff" d="M344.06,-175.19C402.78,-166.82 531.67,-148.44 616.36,-136.37"/>
<polygon fill="#63b8ff" stroke="#63b8ff" points="616.84,-139.83 626.25,-134.96 615.85,-132.9 616.84,-139.83"/>
</a>
</g>
</g>
<!-- Node3 -->
<g id="Node000003" class="node">
<title>Node3</title>
<g id="a_Node000003"><a xlink:title=" ">
<polygon fill="#e0e0e0" stroke="#999999" points="557.33,-77.5 492.58,-77.5 492.58,-56.75 557.33,-56.75 557.33,-77.5"/>
<text text-anchor="middle" x="524.96" y="-64" font-family="Helvetica,sans-Serif" font-size="10.00">inttypes.h</text>
</a>
</g>
</g>
<!-- Node2&#45;&gt;Node3 -->
<g id="edge2_Node000002_Node000003" class="edge">
<title>Node2&#45;&gt;Node3</title>
<g id="a_edge2_Node000002_Node000003"><a xlink:title=" ">
<path fill="none" stroke="#63b8ff" d="M295.04,-113.17C342.26,-104.85 411.85,-92.23 481.19,-78.01"/>
<polygon fill="#63b8ff" stroke="#63b8ff" points="481.74,-81.47 490.83,-76.02 480.33,-74.62 481.74,-81.47"/>
</a>
</g>
</g>
<!-- Node4 -->
<g id="Node000004" class="node">
<title>Node4</title>
<g id="a_Node000004"><a xlink:title=" ">
<polygon fill="#e0e0e0" stroke="#999999" points="224.46,-77.5 163.46,-77.5 163.46,-56.75 224.46,-56.75 224.46,-77.5"/>
<text text-anchor="middle" x="193.96" y="-64" font-family="Helvetica,sans-Serif" font-size="10.00">stdbool.h</text>
</a>
</g>
</g>
<!-- Node2&#45;&gt;Node4 -->
<g id="edge3_Node000002_Node000004" class="edge">
<title>Node2&#45;&gt;Node4</title>
<g id="a_edge3_Node000002_Node000004"><a xlink:title=" ">
<path fill="none" stroke="#63b8ff" d="M230.91,-113.09C224.9,-105.77 216.49,-95.54 209.22,-86.69"/>
<polygon fill="#63b8ff" stroke="#63b8ff" points="211.95,-84.5 202.9,-79 206.54,-88.95 211.95,-84.5"/>
</a>
</g>
</g>
<!-- Node2&#45;&gt;Node5 -->
<g id="edge4_Node000002_Node000005" class="edge">
<title>Node2&#45;&gt;Node5</title>
<g id="a_edge4_Node000002_Node000005"><a xlink:title=" ">
<path fill="none" stroke="#63b8ff" d="M240.73,-113.13C242.68,-99.5 244.3,-74.44 233.96,-56.75 226.33,-43.7 213.28,-33.65 200.63,-26.37"/>
<polygon fill="#63b8ff" stroke="#63b8ff" points="202.51,-23.4 192.03,-21.82 199.24,-29.59 202.51,-23.4"/>
</a>
</g>
</g>
<!-- Node6 -->
<g id="Node000006" class="node">
<title>Node6</title>
<g id="a_Node000006"><a xlink:href="opcode_8h.html" target="_top" xlink:title=" ">
<polygon fill="white" stroke="#666666" points="341.08,-77.5 280.83,-77.5 280.83,-56.75 341.08,-56.75 341.08,-77.5"/>
<text text-anchor="middle" x="310.96" y="-64" font-family="Helvetica,sans-Serif" font-size="10.00">opcode.h</text>
</a>
</g>
</g>
<!-- Node2&#45;&gt;Node6 -->
<g id="edge5_Node000002_Node000006" class="edge">
<title>Node2&#45;&gt;Node6</title>
<g id="a_edge5_Node000002_Node000006"><a xlink:title=" ">
<path fill="none" stroke="#63b8ff" d="M251.83,-113.09C262.17,-105.22 276.93,-94 289.11,-84.74"/>
<polygon fill="#63b8ff" stroke="#63b8ff" points="291.15,-87.58 296.99,-78.74 286.92,-82.01 291.15,-87.58"/>
</a>
</g>
</g>
<!-- Node6&#45;&gt;Node5 -->
<g id="edge6_Node000006_Node000005" class="edge">
<title>Node6&#45;&gt;Node5</title>
<g id="a_edge6_Node000006_Node000005"><a xlink:title=" ">
<path fill="none" stroke="#63b8ff" d="M285.04,-56.34C261.94,-47.62 227.92,-34.77 202.14,-25.04"/>
<polygon fill="#63b8ff" stroke="#63b8ff" points="203.67,-21.87 193.07,-21.61 201.19,-28.42 203.67,-21.87"/>
</a>
</g>
</g>
<!-- Node7&#45;&gt;Node5 -->
<g id="edge8_Node000007_Node000005" class="edge">
<title>Node7&#45;&gt;Node5</title>
<g id="a_edge8_Node000007_Node000005"><a xlink:title=" ">
<path fill="none" stroke="#63b8ff" d="M95.33,-56.34C108.05,-48.24 126.36,-36.58 141.15,-27.17"/>
<polygon fill="#63b8ff" stroke="#63b8ff" points="142.88,-30.21 149.44,-21.89 139.13,-24.31 142.88,-30.21"/>
</a>
</g>
</g>
<!-- Node8&#45;&gt;Node3 -->
<g id="edge10_Node000008_Node000003" class="edge">
<title>Node8&#45;&gt;Node3</title>
<g id="a_edge10_Node000008_Node000003"><a xlink:title=" ">
<path fill="none" stroke="#63b8ff" d="M536.46,-113.09C534.74,-106.39 532.41,-97.26 530.29,-88.98"/>
<polygon fill="#63b8ff" stroke="#63b8ff" points="533.68,-88.12 527.82,-79.29 526.9,-89.85 533.68,-88.12"/>
</a>
</g>
</g>
<!-- Node9&#45;&gt;Node3 -->
<g id="edge12_Node000009_Node000003" class="edge">
<title>Node9&#45;&gt;Node3</title>
<g id="a_edge12_Node000009_Node000003"><a xlink:title=" ">
<path fill="none" stroke="#63b8ff" d="M411.63,-113.09C433.41,-104.44 465.42,-91.75 489.86,-82.05"/>
<polygon fill="#63b8ff" stroke="#63b8ff" points="491.09,-85.33 499.09,-78.39 488.51,-78.82 491.09,-85.33"/>
</a>
</g>
</g>
<!-- Node9&#45;&gt;Node6 -->
<g id="edge13_Node000009_Node000006" class="edge">
<title>Node9&#45;&gt;Node6</title>
<g id="a_edge13_Node000009_Node000006"><a xlink:title=" ">
<path fill="none" stroke="#63b8ff" d="M373.37,-113.09C362.35,-105.15 346.57,-93.78 333.64,-84.46"/>
<polygon fill="#63b8ff" stroke="#63b8ff" points="335.82,-81.72 325.66,-78.71 331.73,-87.4 335.82,-81.72"/>
</a>
</g>
</g>
<!-- Node10 -->
<g id="Node000010" class="node">
<title>Node10</title>
<g id="a_Node000010"><a xlink:href="error_8h.html" target="_top" xlink:title=" ">
<polygon fill="white" stroke="#666666" points="474.83,-77.5 359.08,-77.5 359.08,-56.75 474.83,-56.75 474.83,-77.5"/>
<text text-anchor="middle" x="416.96" y="-64" font-family="Helvetica,sans-Serif" font-size="10.00">vlcb/platform/error.h</text>
</a>
</g>
</g>
<!-- Node9&#45;&gt;Node10 -->
<g id="edge14_Node000009_Node000010" class="edge">
<title>Node9&#45;&gt;Node10</title>
<g id="a_edge14_Node000009_Node000010"><a xlink:title=" ">
<path fill="none" stroke="#63b8ff" d="M392.32,-113.09C396.16,-106.08 401.46,-96.41 406.16,-87.83"/>
<polygon fill="#63b8ff" stroke="#63b8ff" points="409.18,-89.61 410.92,-79.16 403.04,-86.24 409.18,-89.61"/>
</a>
</g>
</g>
</g>
</svg>
