<?xml version="1.0" encoding="UTF-8" standalone="no"?>
<!DOCTYPE svg PUBLIC "-//W3C//DTD SVG 1.1//EN"
 "http://www.w3.org/Graphics/SVG/1.1/DTD/svg11.dtd">
<!-- Generated by graphviz version 12.1.2 (20240928.0832)
 -->
<!-- Title: iface_vlcb.c Pages: 1 -->
<svg width="1083pt" height="439pt"
 viewBox="0.00 0.00 1082.88 438.75" xmlns="http://www.w3.org/2000/svg" xmlns:xlink="http://www.w3.org/1999/xlink">
<g id="graph0" class="graph" transform="scale(1 1) rotate(0) translate(4 434.75)">
<title>iface_vlcb.c</title>
<!-- Node1 -->
<g id="Node000001" class="node">
<title>Node1</title>
<g id="a_Node000001"><a xlink:title=" ">
<polygon fill="#999999" stroke="#666666" points="888.75,-430.75 815,-430.75 815,-410 888.75,-410 888.75,-430.75"/>
<text text-anchor="middle" x="851.88" y="-417.25" font-family="Helvetica,sans-Serif" font-size="10.00">iface_vlcb.c</text>
</a>
</g>
</g>
<!-- Node2 -->
<g id="Node000002" class="node">
<title>Node2</title>
<g id="a_Node000002"><a xlink:title=" ">
<polygon fill="#e0e0e0" stroke="#999999" points="658.38,-374 603.38,-374 603.38,-353.25 658.38,-353.25 658.38,-374"/>
<text text-anchor="middle" x="630.88" y="-360.5" font-family="Helvetica,sans-Serif" font-size="10.00">assert.h</text>
</a>
</g>
</g>
<!-- Node1&#45;&gt;Node2 -->
<g id="edge1_Node000001_Node000002" class="edge">
<title>Node1&#45;&gt;Node2</title>
<g id="a_edge1_Node000001_Node000002"><a xlink:title=" ">
<path fill="none" stroke="#63b8ff" d="M814.63,-410.4C779.58,-401.93 725.33,-388.71 669.87,-374.74"/>
<polygon fill="#63b8ff" stroke="#63b8ff" points="670.79,-371.36 660.24,-372.3 669.08,-378.14 670.79,-371.36"/>
</a>
</g>
</g>
<!-- Node3 -->
<g id="Node000003" class="node">
<title>Node3</title>
<g id="a_Node000003"><a xlink:title=" ">
<polygon fill="#e0e0e0" stroke="#999999" points="679.38,-134.25 624.38,-134.25 624.38,-113.5 679.38,-113.5 679.38,-134.25"/>
<text text-anchor="middle" x="651.88" y="-120.75" font-family="Helvetica,sans-Serif" font-size="10.00">stddef.h</text>
</a>
</g>
</g>
<!-- Node1&#45;&gt;Node3 -->
<g id="edge2_Node000001_Node000003" class="edge">
<title>Node1&#45;&gt;Node3</title>
<g id="a_edge2_Node000001_Node000003"><a xlink:title=" ">
<path fill="none" stroke="#63b8ff" d="M856.05,-409.89C871.2,-373.9 919.32,-244.06 859.88,-170.25 839.09,-144.44 745.34,-132.52 691.07,-127.7"/>
<polygon fill="#63b8ff" stroke="#63b8ff" points="691.57,-124.23 681.31,-126.88 690.98,-131.21 691.57,-124.23"/>
</a>
</g>
</g>
<!-- Node4 -->
<g id="Node000004" class="node">
<title>Node4</title>
<g id="a_Node000004"><a xlink:title=" ">
<polygon fill="#e0e0e0" stroke="#999999" points="352.25,-20.75 299.5,-20.75 299.5,0 352.25,0 352.25,-20.75"/>
<text text-anchor="middle" x="325.88" y="-7.25" font-family="Helvetica,sans-Serif" font-size="10.00">stdint.h</text>
</a>
</g>
</g>
<!-- Node1&#45;&gt;Node4 -->
<g id="edge3_Node000001_Node000004" class="edge">
<title>Node1&#45;&gt;Node4</title>
<g id="a_edge3_Node000001_Node000004"><a xlink:title=" ">
<path fill="none" stroke="#63b8ff" d="M889.2,-417.32C952.68,-411.59 1074.88,-389.9 1074.88,-307.88 1074.88,-307.88 1074.88,-307.88 1074.88,-122.88 1074.88,-50.23 516.61,-19.91 364.02,-12.98"/>
<polygon fill="#63b8ff" stroke="#63b8ff" points="364.19,-9.49 354.04,-12.54 363.88,-16.48 364.19,-9.49"/>
</a>
</g>
</g>
<!-- Node5 -->
<g id="Node000005" class="node">
<title>Node5</title>
<g id="a_Node000005"><a xlink:href="iface__can_8h.html" target="_top" xlink:title=" ">
<polygon fill="white" stroke="#666666" points="747.62,-374 676.12,-374 676.12,-353.25 747.62,-353.25 747.62,-374"/>
<text text-anchor="middle" x="711.88" y="-360.5" font-family="Helvetica,sans-Serif" font-size="10.00">iface_can.h</text>
</a>
</g>
</g>
<!-- Node1&#45;&gt;Node5 -->
<g id="edge4_Node000001_Node000005" class="edge">
<title>Node1&#45;&gt;Node5</title>
<g id="a_edge4_Node000001_Node000005"><a xlink:title=" ">
<path fill="none" stroke="#63b8ff" d="M826.85,-409.59C804.65,-400.91 771.99,-388.13 747.14,-378.42"/>
<polygon fill="#63b8ff" stroke="#63b8ff" points="748.69,-375.26 738.1,-374.88 746.14,-381.78 748.69,-375.26"/>
</a>
</g>
</g>
<!-- Node10 -->
<g id="Node000010" class="node">
<title>Node10</title>
<g id="a_Node000010"><a xlink:href="interface_8h.html" target="_top" xlink:title=" ">
<polygon fill="white" stroke="#666666" points="752.25,-197.38 615.5,-197.38 615.5,-176.62 752.25,-176.62 752.25,-197.38"/>
<text text-anchor="middle" x="683.88" y="-183.88" font-family="Helvetica,sans-Serif" font-size="10.00">vlcb/platform/interface.h</text>
</a>
</g>
</g>
<!-- Node1&#45;&gt;Node10 -->
<g id="edge40_Node000001_Node000010" class="edge">
<title>Node1&#45;&gt;Node10</title>
<g id="a_edge40_Node000001_Node000010"><a xlink:title=" ">
<path fill="none" stroke="#63b8ff" d="M847.52,-409.7C834.57,-381.53 794.11,-297.94 744.88,-239.75 733.76,-226.62 719.12,-214.08 706.97,-204.63"/>
<polygon fill="#63b8ff" stroke="#63b8ff" points="709.17,-201.9 699.08,-198.68 704.95,-207.49 709.17,-201.9"/>
</a>
</g>
</g>
<!-- Node20 -->
<g id="Node000020" class="node">
<title>Node20</title>
<g id="a_Node000020"><a xlink:href="log_8h.html" target="_top" xlink:title=" ">
<polygon fill="white" stroke="#666666" points="1047,-317.25 938.75,-317.25 938.75,-296.5 1047,-296.5 1047,-317.25"/>
<text text-anchor="middle" x="992.88" y="-303.75" font-family="Helvetica,sans-Serif" font-size="10.00">vlcb/platform/log.h</text>
</a>
</g>
</g>
<!-- Node1&#45;&gt;Node20 -->
<g id="edge41_Node000001_Node000020" class="edge">
<title>Node1&#45;&gt;Node20</title>
<g id="a_edge41_Node000001_Node000020"><a xlink:title=" ">
<path fill="none" stroke="#63b8ff" d="M869.99,-409.57C885.21,-401 907.24,-387.79 924.88,-374 943.81,-359.19 963.27,-339.76 976.49,-325.8"/>
<polygon fill="#63b8ff" stroke="#63b8ff" points="978.92,-328.33 983.18,-318.63 973.8,-323.55 978.92,-328.33"/>
</a>
</g>
</g>
<!-- Node6 -->
<g id="Node000006" class="node">
<title>Node6</title>
<g id="a_Node000006"><a xlink:href="adapter_8h.html" target="_top" xlink:title=" ">
<polygon fill="white" stroke="#666666" points="735.75,-260.5 632,-260.5 632,-239.75 735.75,-239.75 735.75,-260.5"/>
<text text-anchor="middle" x="683.88" y="-247" font-family="Helvetica,sans-Serif" font-size="10.00">vlcb/net/adapter.h</text>
</a>
</g>
</g>
<!-- Node5&#45;&gt;Node6 -->
<g id="edge5_Node000005_Node000006" class="edge">
<title>Node5&#45;&gt;Node6</title>
<g id="a_edge5_Node000005_Node000006"><a xlink:title=" ">
<path fill="none" stroke="#63b8ff" d="M709.49,-353.12C705.01,-335.27 695.23,-296.36 689.14,-272.09"/>
<polygon fill="#63b8ff" stroke="#63b8ff" points="692.53,-271.24 686.7,-262.39 685.75,-272.94 692.53,-271.24"/>
</a>
</g>
</g>
<!-- Node16 -->
<g id="Node000016" class="node">
<title>Node16</title>
<g id="a_Node000016"><a xlink:href="iface_8h.html" target="_top" xlink:title=" ">
<polygon fill="white" stroke="#666666" points="640.38,-317.25 549.38,-317.25 549.38,-296.5 640.38,-296.5 640.38,-317.25"/>
<text text-anchor="middle" x="594.88" y="-303.75" font-family="Helvetica,sans-Serif" font-size="10.00">vlcb/net/iface.h</text>
</a>
</g>
</g>
<!-- Node5&#45;&gt;Node16 -->
<g id="edge24_Node000005_Node000016" class="edge">
<title>Node5&#45;&gt;Node16</title>
<g id="a_edge24_Node000005_Node000016"><a xlink:title=" ">
<path fill="none" stroke="#63b8ff" d="M690.96,-352.84C672.91,-344.39 646.57,-332.07 626.04,-322.46"/>
<polygon fill="#63b8ff" stroke="#63b8ff" points="627.52,-319.29 616.98,-318.22 624.56,-325.63 627.52,-319.29"/>
</a>
</g>
</g>
<!-- Node7 -->
<g id="Node000007" class="node">
<title>Node7</title>
<g id="a_Node000007"><a xlink:title=" ">
<polygon fill="#e0e0e0" stroke="#999999" points="843.25,-77.5 778.5,-77.5 778.5,-56.75 843.25,-56.75 843.25,-77.5"/>
<text text-anchor="middle" x="810.88" y="-64" font-family="Helvetica,sans-Serif" font-size="10.00">inttypes.h</text>
</a>
</g>
</g>
<!-- Node6&#45;&gt;Node7 -->
<g id="edge6_Node000006_Node000007" class="edge">
<title>Node6&#45;&gt;Node7</title>
<g id="a_edge6_Node000006_Node000007"><a xlink:title=" ">
<path fill="none" stroke="#63b8ff" d="M736.12,-242.73C782.34,-235.88 844.75,-223.27 859.88,-203.75 887.84,-167.66 851.09,-114.15 827.64,-86.37"/>
<polygon fill="#63b8ff" stroke="#63b8ff" points="830.53,-84.35 821.31,-79.13 825.26,-88.96 830.53,-84.35"/>
</a>
</g>
</g>
<!-- Node8 -->
<g id="Node000008" class="node">
<title>Node8</title>
<g id="a_Node000008"><a xlink:title=" ">
<polygon fill="#e0e0e0" stroke="#999999" points="399.38,-77.5 338.38,-77.5 338.38,-56.75 399.38,-56.75 399.38,-77.5"/>
<text text-anchor="middle" x="368.88" y="-64" font-family="Helvetica,sans-Serif" font-size="10.00">stdbool.h</text>
</a>
</g>
</g>
<!-- Node6&#45;&gt;Node8 -->
<g id="edge7_Node000006_Node000008" class="edge">
<title>Node6&#45;&gt;Node8</title>
<g id="a_edge7_Node000006_Node000008"><a xlink:title=" ">
<path fill="none" stroke="#63b8ff" d="M631.55,-240.92C560.32,-229.56 440.74,-209.78 432.88,-203.75 395.47,-175.06 378.96,-119.11 372.5,-88.81"/>
<polygon fill="#63b8ff" stroke="#63b8ff" points="376.01,-88.52 370.66,-79.37 369.14,-89.86 376.01,-88.52"/>
</a>
</g>
</g>
<!-- Node9 -->
<g id="Node000009" class="node">
<title>Node9</title>
<g id="a_Node000009"><a xlink:href="error_8h.html" target="_top" xlink:title=" ">
<polygon fill="white" stroke="#666666" points="1022.75,-134.25 907,-134.25 907,-113.5 1022.75,-113.5 1022.75,-134.25"/>
<text text-anchor="middle" x="964.88" y="-120.75" font-family="Helvetica,sans-Serif" font-size="10.00">vlcb/platform/error.h</text>
</a>
</g>
</g>
<!-- Node6&#45;&gt;Node9 -->
<g id="edge8_Node000006_Node000009" class="edge">
<title>Node6&#45;&gt;Node9</title>
<g id="a_edge8_Node000006_Node000009"><a xlink:title=" ">
<path fill="none" stroke="#63b8ff" d="M735.99,-246.6C780.3,-242.48 844.29,-231.72 892.88,-203.75 918.38,-189.07 939.94,-162.27 952.64,-144.02"/>
<polygon fill="#63b8ff" stroke="#63b8ff" points="955.41,-146.18 958.06,-135.92 949.59,-142.28 955.41,-146.18"/>
</a>
</g>
</g>
<!-- Node6&#45;&gt;Node10 -->
<g id="edge9_Node000006_Node000010" class="edge">
<title>Node6&#45;&gt;Node10</title>
<g id="a_edge9_Node000006_Node000010"><a xlink:title=" ">
<path fill="none" stroke="#63b8ff" d="M683.88,-239.3C683.88,-231.15 683.88,-219.26 683.88,-208.98"/>
<polygon fill="#63b8ff" stroke="#63b8ff" points="687.38,-209.11 683.88,-199.11 680.38,-209.11 687.38,-209.11"/>
</a>
</g>
</g>
<!-- Node11 -->
<g id="Node000011" class="node">
<title>Node11</title>
<g id="a_Node000011"><a xlink:href="packet_8h.html" target="_top" xlink:title=" ">
<polygon fill="white" stroke="#666666" points="559.88,-197.38 441.88,-197.38 441.88,-176.62 559.88,-176.62 559.88,-197.38"/>
<text text-anchor="middle" x="500.88" y="-183.88" font-family="Helvetica,sans-Serif" font-size="10.00">adapter/can/packet.h</text>
</a>
</g>
</g>
<!-- Node6&#45;&gt;Node11 -->
<g id="edge11_Node000006_Node000011" class="edge">
<title>Node6&#45;&gt;Node11</title>
<g id="a_edge11_Node000006_Node000011"><a xlink:title=" ">
<path fill="none" stroke="#63b8ff" d="M654.47,-239.3C623.66,-229.01 575.05,-212.78 540.79,-201.33"/>
<polygon fill="#63b8ff" stroke="#63b8ff" points="542.23,-198.12 531.64,-198.28 540.02,-204.76 542.23,-198.12"/>
</a>
</g>
</g>
<!-- Node14 -->
<g id="Node000014" class="node">
<title>Node14</title>
<g id="a_Node000014"><a xlink:href="addr_8h.html" target="_top" xlink:title=" ">
<polygon fill="white" stroke="#666666" points="199.88,-197.38 111.88,-197.38 111.88,-176.62 199.88,-176.62 199.88,-197.38"/>
<text text-anchor="middle" x="155.88" y="-183.88" font-family="Helvetica,sans-Serif" font-size="10.00">vlcb/net/addr.h</text>
</a>
</g>
</g>
<!-- Node6&#45;&gt;Node14 -->
<g id="edge19_Node000006_Node000014" class="edge">
<title>Node6&#45;&gt;Node14</title>
<g id="a_edge19_Node000006_Node000014"><a xlink:title=" ">
<path fill="none" stroke="#63b8ff" d="M631.66,-240.9C628.69,-240.49 625.75,-240.11 622.88,-239.75 456.29,-218.99 413.26,-226.08 246.88,-203.75 235.31,-202.2 222.98,-200.26 211.23,-198.27"/>
<polygon fill="#63b8ff" stroke="#63b8ff" points="212.15,-194.88 201.7,-196.62 210.95,-201.78 212.15,-194.88"/>
</a>
</g>
</g>
<!-- Node10&#45;&gt;Node3 -->
<g id="edge10_Node000010_Node000003" class="edge">
<title>Node10&#45;&gt;Node3</title>
<g id="a_edge10_Node000010_Node000003"><a xlink:title=" ">
<path fill="none" stroke="#63b8ff" d="M678.73,-176.18C674.28,-167.66 667.69,-155.08 662.15,-144.51"/>
<polygon fill="#63b8ff" stroke="#63b8ff" points="665.34,-143.05 657.6,-135.81 659.14,-146.29 665.34,-143.05"/>
</a>
</g>
</g>
<!-- Node11&#45;&gt;Node8 -->
<g id="edge12_Node000011_Node000008" class="edge">
<title>Node11&#45;&gt;Node8</title>
<g id="a_edge12_Node000011_Node000008"><a xlink:title=" ">
<path fill="none" stroke="#63b8ff" d="M490.07,-176.35C467.74,-156.41 416.22,-110.4 388.07,-85.27"/>
<polygon fill="#63b8ff" stroke="#63b8ff" points="390.75,-82.96 380.96,-78.91 386.08,-88.18 390.75,-82.96"/>
</a>
</g>
</g>
<!-- Node12 -->
<g id="Node000012" class="node">
<title>Node12</title>
<g id="a_Node000012"><a xlink:href="common_2inc_2vlcb_2common_2can_8h.html" target="_top" xlink:title=" ">
<polygon fill="white" stroke="#666666" points="574.5,-134.25 463.25,-134.25 463.25,-113.5 574.5,-113.5 574.5,-134.25"/>
<text text-anchor="middle" x="518.88" y="-120.75" font-family="Helvetica,sans-Serif" font-size="10.00">vlcb/common/can.h</text>
</a>
</g>
</g>
<!-- Node11&#45;&gt;Node12 -->
<g id="edge13_Node000011_Node000012" class="edge">
<title>Node11&#45;&gt;Node12</title>
<g id="a_edge13_Node000011_Node000012"><a xlink:title=" ">
<path fill="none" stroke="#63b8ff" d="M503.77,-176.18C506.2,-167.93 509.75,-155.87 512.8,-145.51"/>
<polygon fill="#63b8ff" stroke="#63b8ff" points="516.15,-146.5 515.62,-135.92 509.44,-144.53 516.15,-146.5"/>
</a>
</g>
</g>
<!-- Node12&#45;&gt;Node4 -->
<g id="edge16_Node000012_Node000004" class="edge">
<title>Node12&#45;&gt;Node4</title>
<g id="a_edge16_Node000012_Node000004"><a xlink:title=" ">
<path fill="none" stroke="#63b8ff" d="M502.97,-113.03C481.68,-99.93 442.7,-76.15 408.88,-56.75 390.76,-46.36 370.17,-35.1 354.02,-26.39"/>
<polygon fill="#63b8ff" stroke="#63b8ff" points="355.93,-23.44 345.46,-21.79 352.61,-29.61 355.93,-23.44"/>
</a>
</g>
</g>
<!-- Node12&#45;&gt;Node7 -->
<g id="edge14_Node000012_Node000007" class="edge">
<title>Node12&#45;&gt;Node7</title>
<g id="a_edge14_Node000012_Node000007"><a xlink:title=" ">
<path fill="none" stroke="#63b8ff" d="M571.42,-113.02C627.29,-102.55 714.66,-86.17 766.98,-76.35"/>
<polygon fill="#63b8ff" stroke="#63b8ff" points="767.55,-79.81 776.74,-74.53 766.26,-72.93 767.55,-79.81"/>
</a>
</g>
</g>
<!-- Node12&#45;&gt;Node8 -->
<g id="edge15_Node000012_Node000008" class="edge">
<title>Node12&#45;&gt;Node8</title>
<g id="a_edge15_Node000012_Node000008"><a xlink:title=" ">
<path fill="none" stroke="#63b8ff" d="M492.06,-113.09C468.14,-104.36 432.87,-91.48 406.2,-81.75"/>
<polygon fill="#63b8ff" stroke="#63b8ff" points="407.73,-78.58 397.13,-78.44 405.33,-85.16 407.73,-78.58"/>
</a>
</g>
</g>
<!-- Node13 -->
<g id="Node000013" class="node">
<title>Node13</title>
<g id="a_Node000013"><a xlink:href="opcode_8h.html" target="_top" xlink:title=" ">
<polygon fill="white" stroke="#666666" points="549,-77.5 488.75,-77.5 488.75,-56.75 549,-56.75 549,-77.5"/>
<text text-anchor="middle" x="518.88" y="-64" font-family="Helvetica,sans-Serif" font-size="10.00">opcode.h</text>
</a>
</g>
</g>
<!-- Node12&#45;&gt;Node13 -->
<g id="edge17_Node000012_Node000013" class="edge">
<title>Node12&#45;&gt;Node13</title>
<g id="a_edge17_Node000012_Node000013"><a xlink:title=" ">
<path fill="none" stroke="#63b8ff" d="M518.88,-113.09C518.88,-106.47 518.88,-97.47 518.88,-89.27"/>
<polygon fill="#63b8ff" stroke="#63b8ff" points="522.38,-89.34 518.88,-79.34 515.38,-89.34 522.38,-89.34"/>
</a>
</g>
</g>
<!-- Node13&#45;&gt;Node4 -->
<g id="edge18_Node000013_Node000004" class="edge">
<title>Node13&#45;&gt;Node4</title>
<g id="a_edge18_Node000013_Node000004"><a xlink:title=" ">
<path fill="none" stroke="#63b8ff" d="M488.29,-57.45C454.39,-47.83 399.68,-32.31 363.26,-21.98"/>
<polygon fill="#63b8ff" stroke="#63b8ff" points="364.62,-18.73 354.04,-19.36 362.71,-25.46 364.62,-18.73"/>
</a>
</g>
</g>
<!-- Node14&#45;&gt;Node4 -->
<g id="edge23_Node000014_Node000004" class="edge">
<title>Node14&#45;&gt;Node4</title>
<g id="a_edge23_Node000014_Node000004"><a xlink:title=" ">
<path fill="none" stroke="#63b8ff" d="M165.26,-176.36C192.71,-148.16 273.17,-65.52 308.69,-29.03"/>
<polygon fill="#63b8ff" stroke="#63b8ff" points="310.79,-31.89 315.26,-22.28 305.77,-27.01 310.79,-31.89"/>
</a>
</g>
</g>
<!-- Node14&#45;&gt;Node12 -->
<g id="edge20_Node000014_Node000012" class="edge">
<title>Node14&#45;&gt;Node12</title>
<g id="a_edge20_Node000014_Node000012"><a xlink:title=" ">
<path fill="none" stroke="#63b8ff" d="M200.3,-178.26C215.11,-175.69 231.7,-172.83 246.88,-170.25 316.75,-158.37 396.78,-145.06 451.84,-135.94"/>
<polygon fill="#63b8ff" stroke="#63b8ff" points="452.07,-139.45 461.36,-134.36 450.93,-132.54 452.07,-139.45"/>
</a>
</g>
</g>
<!-- Node15 -->
<g id="Node000015" class="node">
<title>Node15</title>
<g id="a_Node000015"><a xlink:href="time_8h.html" target="_top" xlink:title=" ">
<polygon fill="white" stroke="#666666" points="115.75,-77.5 0,-77.5 0,-56.75 115.75,-56.75 115.75,-77.5"/>
<text text-anchor="middle" x="57.88" y="-64" font-family="Helvetica,sans-Serif" font-size="10.00">vlcb/platform/time.h</text>
</a>
</g>
</g>
<!-- Node14&#45;&gt;Node15 -->
<g id="edge21_Node000014_Node000015" class="edge">
<title>Node14&#45;&gt;Node15</title>
<g id="a_edge21_Node000014_Node000015"><a xlink:title=" ">
<path fill="none" stroke="#63b8ff" d="M147.86,-176.35C131.56,-156.75 94.34,-111.99 73.23,-86.59"/>
<polygon fill="#63b8ff" stroke="#63b8ff" points="76.06,-84.52 66.97,-79.07 70.67,-89 76.06,-84.52"/>
</a>
</g>
</g>
<!-- Node15&#45;&gt;Node4 -->
<g id="edge22_Node000015_Node000004" class="edge">
<title>Node15&#45;&gt;Node4</title>
<g id="a_edge22_Node000015_Node000004"><a xlink:title=" ">
<path fill="none" stroke="#63b8ff" d="M106.1,-56.27C158.31,-45.61 240.48,-28.82 288.17,-19.08"/>
<polygon fill="#63b8ff" stroke="#63b8ff" points="288.65,-22.55 297.74,-17.12 287.25,-15.69 288.65,-22.55"/>
</a>
</g>
</g>
<!-- Node16&#45;&gt;Node6 -->
<g id="edge26_Node000016_Node000006" class="edge">
<title>Node16&#45;&gt;Node6</title>
<g id="a_edge26_Node000016_Node000006"><a xlink:title=" ">
<path fill="none" stroke="#63b8ff" d="M610.79,-296.09C624.08,-287.91 643.26,-276.11 658.64,-266.65"/>
<polygon fill="#63b8ff" stroke="#63b8ff" points="660.13,-269.84 666.81,-261.62 656.46,-263.88 660.13,-269.84"/>
</a>
</g>
</g>
<!-- Node16&#45;&gt;Node8 -->
<g id="edge25_Node000016_Node000008" class="edge">
<title>Node16&#45;&gt;Node8</title>
<g id="a_edge25_Node000016_Node000008"><a xlink:title=" ">
<path fill="none" stroke="#63b8ff" d="M549.17,-303.49C438.12,-296.64 159.04,-272.77 102.88,-203.75 37.44,-123.34 236.57,-85.8 326.84,-73.21"/>
<polygon fill="#63b8ff" stroke="#63b8ff" points="327.11,-76.71 336.56,-71.9 326.18,-69.77 327.11,-76.71"/>
</a>
</g>
</g>
<!-- Node17 -->
<g id="Node000017" class="node">
<title>Node17</title>
<g id="a_Node000017"><a xlink:href="socket_8h.html" target="_top" xlink:title=" ">
<polygon fill="white" stroke="#666666" points="614.12,-260.5 557.62,-260.5 557.62,-239.75 614.12,-239.75 614.12,-260.5"/>
<text text-anchor="middle" x="585.88" y="-247" font-family="Helvetica,sans-Serif" font-size="10.00">socket.h</text>
</a>
</g>
</g>
<!-- Node16&#45;&gt;Node17 -->
<g id="edge27_Node000016_Node000017" class="edge">
<title>Node16&#45;&gt;Node17</title>
<g id="a_edge27_Node000016_Node000017"><a xlink:title=" ">
<path fill="none" stroke="#63b8ff" d="M593.27,-296.09C592.17,-289.39 590.66,-280.26 589.3,-271.98"/>
<polygon fill="#63b8ff" stroke="#63b8ff" points="592.79,-271.62 587.72,-262.32 585.88,-272.76 592.79,-271.62"/>
</a>
</g>
</g>
<!-- Node17&#45;&gt;Node3 -->
<g id="edge29_Node000017_Node000003" class="edge">
<title>Node17&#45;&gt;Node3</title>
<g id="a_edge29_Node000017_Node000003"><a xlink:title=" ">
<path fill="none" stroke="#63b8ff" d="M586.85,-239.28C588.73,-223.72 593.9,-192.87 606.88,-170.25 612.94,-159.68 622.08,-149.83 630.55,-142.02"/>
<polygon fill="#63b8ff" stroke="#63b8ff" points="632.59,-144.89 637.83,-135.68 627.99,-139.61 632.59,-144.89"/>
</a>
</g>
</g>
<!-- Node17&#45;&gt;Node8 -->
<g id="edge28_Node000017_Node000008" class="edge">
<title>Node17&#45;&gt;Node8</title>
<g id="a_edge28_Node000017_Node000008"><a xlink:title=" ">
<path fill="none" stroke="#63b8ff" d="M557.3,-247.42C479.31,-242.49 267.26,-227.04 246.88,-203.75 208.1,-159.43 290.01,-107.95 337.75,-83.08"/>
<polygon fill="#63b8ff" stroke="#63b8ff" points="339.25,-86.25 346.58,-78.6 336.08,-80.01 339.25,-86.25"/>
</a>
</g>
</g>
<!-- Node17&#45;&gt;Node10 -->
<g id="edge39_Node000017_Node000010" class="edge">
<title>Node17&#45;&gt;Node10</title>
<g id="a_edge39_Node000017_Node000010"><a xlink:title=" ">
<path fill="none" stroke="#63b8ff" d="M601.62,-239.3C616.98,-229.72 640.59,-215 658.58,-203.77"/>
<polygon fill="#63b8ff" stroke="#63b8ff" points="660.25,-206.86 666.88,-198.6 656.55,-200.92 660.25,-206.86"/>
</a>
</g>
</g>
<!-- Node17&#45;&gt;Node14 -->
<g id="edge34_Node000017_Node000014" class="edge">
<title>Node17&#45;&gt;Node14</title>
<g id="a_edge34_Node000017_Node000014"><a xlink:title=" ">
<path fill="none" stroke="#63b8ff" d="M557.19,-247.04C494.47,-242.17 340.62,-228.55 213.88,-203.75 209.27,-202.85 204.49,-201.78 199.74,-200.62"/>
<polygon fill="#63b8ff" stroke="#63b8ff" points="200.83,-197.29 190.27,-198.2 199.09,-204.07 200.83,-197.29"/>
</a>
</g>
</g>
<!-- Node18 -->
<g id="Node000018" class="node">
<title>Node18</title>
<g id="a_Node000018"><a xlink:href="vlcb_8h.html" target="_top" xlink:title=" ">
<polygon fill="white" stroke="#666666" points="851.12,-197.38 770.62,-197.38 770.62,-176.62 851.12,-176.62 851.12,-197.38"/>
<text text-anchor="middle" x="810.88" y="-183.88" font-family="Helvetica,sans-Serif" font-size="10.00">packet/vlcb.h</text>
</a>
</g>
</g>
<!-- Node17&#45;&gt;Node18 -->
<g id="edge30_Node000017_Node000018" class="edge">
<title>Node17&#45;&gt;Node18</title>
<g id="a_edge30_Node000017_Node000018"><a xlink:title=" ">
<path fill="none" stroke="#63b8ff" d="M614.46,-241.8C660.36,-230.02 746.81,-207.79 760.88,-203.75 763.77,-202.92 766.75,-202.04 769.75,-201.14"/>
<polygon fill="#63b8ff" stroke="#63b8ff" points="770.56,-204.55 779.1,-198.27 768.51,-197.86 770.56,-204.55"/>
</a>
</g>
</g>
<!-- Node19 -->
<g id="Node000019" class="node">
<title>Node19</title>
<g id="a_Node000019"><a xlink:href="packet__buf_8h.html" target="_top" xlink:title=" ">
<polygon fill="white" stroke="#666666" points="385.88,-203.75 255.88,-203.75 255.88,-170.25 385.88,-170.25 385.88,-203.75"/>
<text text-anchor="start" x="263.88" y="-190.25" font-family="Helvetica,sans-Serif" font-size="10.00">vlcb/net/storage/packet</text>
<text text-anchor="middle" x="320.88" y="-177.5" font-family="Helvetica,sans-Serif" font-size="10.00">_buf.h</text>
</a>
</g>
</g>
<!-- Node17&#45;&gt;Node19 -->
<g id="edge35_Node000017_Node000019" class="edge">
<title>Node17&#45;&gt;Node19</title>
<g id="a_edge35_Node000017_Node000019"><a xlink:title=" ">
<path fill="none" stroke="#63b8ff" d="M557.26,-242.53C519.34,-233.78 451,-218.01 397.51,-205.68"/>
<polygon fill="#63b8ff" stroke="#63b8ff" points="398.35,-202.28 387.82,-203.44 396.78,-209.1 398.35,-202.28"/>
</a>
</g>
</g>
<!-- Node18&#45;&gt;Node7 -->
<g id="edge31_Node000018_Node000007" class="edge">
<title>Node18&#45;&gt;Node7</title>
<g id="a_edge31_Node000018_Node000007"><a xlink:title=" ">
<path fill="none" stroke="#63b8ff" d="M810.88,-176.35C810.88,-157.44 810.88,-115.11 810.88,-89.35"/>
<polygon fill="#63b8ff" stroke="#63b8ff" points="814.38,-89.42 810.88,-79.42 807.38,-89.42 814.38,-89.42"/>
</a>
</g>
</g>
<!-- Node18&#45;&gt;Node9 -->
<g id="edge33_Node000018_Node000009" class="edge">
<title>Node18&#45;&gt;Node9</title>
<g id="a_edge33_Node000018_Node000009"><a xlink:title=" ">
<path fill="none" stroke="#63b8ff" d="M835.62,-176.18C861.1,-166.06 901.04,-150.21 929.78,-138.8"/>
<polygon fill="#63b8ff" stroke="#63b8ff" points="930.78,-142.17 938.79,-135.23 928.2,-135.67 930.78,-142.17"/>
</a>
</g>
</g>
<!-- Node18&#45;&gt;Node13 -->
<g id="edge32_Node000018_Node000013" class="edge">
<title>Node18&#45;&gt;Node13</title>
<g id="a_edge32_Node000018_Node000013"><a xlink:title=" ">
<path fill="none" stroke="#63b8ff" d="M797.27,-176.2C775.4,-160.85 730.66,-131.09 688.88,-113.5 646.76,-95.77 595.82,-83.27 560.74,-75.94"/>
<polygon fill="#63b8ff" stroke="#63b8ff" points="561.47,-72.51 550.98,-73.95 560.08,-79.37 561.47,-72.51"/>
</a>
</g>
</g>
<!-- Node19&#45;&gt;Node3 -->
<g id="edge37_Node000019_Node000003" class="edge">
<title>Node19&#45;&gt;Node3</title>
<g id="a_edge37_Node000019_Node000003"><a xlink:title=" ">
<path fill="none" stroke="#63b8ff" d="M386.27,-173.92C453.81,-161.45 556.99,-142.4 612.78,-132.09"/>
<polygon fill="#63b8ff" stroke="#63b8ff" points="613.25,-135.57 622.45,-130.31 611.98,-128.68 613.25,-135.57"/>
</a>
</g>
</g>
<!-- Node19&#45;&gt;Node4 -->
<g id="edge38_Node000019_Node000004" class="edge">
<title>Node19&#45;&gt;Node4</title>
<g id="a_edge38_Node000019_Node000004"><a xlink:title=" ">
<path fill="none" stroke="#63b8ff" d="M321.34,-169.88C322.25,-138.15 324.27,-67.59 325.28,-32.31"/>
<polygon fill="#63b8ff" stroke="#63b8ff" points="328.77,-32.65 325.55,-22.56 321.77,-32.45 328.77,-32.65"/>
</a>
</g>
</g>
<!-- Node19&#45;&gt;Node8 -->
<g id="edge36_Node000019_Node000008" class="edge">
<title>Node19&#45;&gt;Node8</title>
<g id="a_edge36_Node000019_Node000008"><a xlink:title=" ">
<path fill="none" stroke="#63b8ff" d="M327.35,-170.1C335.97,-148.92 351.24,-111.43 360.66,-88.29"/>
<polygon fill="#63b8ff" stroke="#63b8ff" points="363.78,-89.92 364.31,-79.33 357.3,-87.28 363.78,-89.92"/>
</a>
</g>
</g>
<!-- Node20&#45;&gt;Node9 -->
<g id="edge42_Node000020_Node000009" class="edge">
<title>Node20&#45;&gt;Node9</title>
<g id="a_edge42_Node000020_Node000009"><a xlink:title=" ">
<path fill="none" stroke="#63b8ff" d="M991.37,-296.14C986.99,-267.85 974.19,-185.12 968.13,-145.93"/>
<polygon fill="#63b8ff" stroke="#63b8ff" points="971.61,-145.5 966.62,-136.15 964.69,-146.57 971.61,-145.5"/>
</a>
</g>
</g>
</g>
</svg>
