<?xml version="1.0" encoding="UTF-8" standalone="no"?>
<!DOCTYPE svg PUBLIC "-//W3C//DTD SVG 1.1//EN"
 "http://www.w3.org/Graphics/SVG/1.1/DTD/svg11.dtd">
<!-- Generated by graphviz version 12.1.2 (20240928.0832)
 -->
<!-- Title: ProcessCanPacket Pages: 1 -->
<svg width="382pt" height="29pt"
 viewBox="0.00 0.00 381.50 28.75" xmlns="http://www.w3.org/2000/svg" xmlns:xlink="http://www.w3.org/1999/xlink">
<g id="graph0" class="graph" transform="scale(1 1) rotate(0) translate(4 24.75)">
<title>ProcessCanPacket</title>
<!-- Node1 -->
<g id="Node000001" class="node">
<title>Node1</title>
<g id="a_Node000001"><a xlink:title=" ">
<polygon fill="#999999" stroke="#666666" points="373.5,-20.75 269.75,-20.75 269.75,0 373.5,0 373.5,-20.75"/>
<text text-anchor="middle" x="321.62" y="-7.25" font-family="Helvetica,sans-Serif" font-size="10.00">ProcessCanPacket</text>
</a>
</g>
</g>
<!-- Node2 -->
<g id="Node000002" class="node">
<title>Node2</title>
<g id="a_Node000002"><a xlink:href="iface_8c.html#aa4be352a2d0263581236f93031a0d76b" target="_top" xlink:title=" ">
<polygon fill="white" stroke="#666666" points="233.75,-20.75 145.75,-20.75 145.75,0 233.75,0 233.75,-20.75"/>
<text text-anchor="middle" x="189.75" y="-7.25" font-family="Helvetica,sans-Serif" font-size="10.00">IngressPackets</text>
</a>
</g>
</g>
<!-- Node1&#45;&gt;Node2 -->
<g id="edge1_Node000001_Node000002" class="edge">
<title>Node1&#45;&gt;Node2</title>
<g id="a_edge1_Node000001_Node000002"><a xlink:title=" ">
<path fill="none" stroke="#63b8ff" d="M257.99,-10.38C249.93,-10.38 241.82,-10.38 234.17,-10.38"/>
<polygon fill="#63b8ff" stroke="#63b8ff" points="257.78,-13.88 267.78,-10.38 257.78,-6.88 257.78,-13.88"/>
</a>
</g>
</g>
<!-- Node3 -->
<g id="Node000003" class="node">
<title>Node3</title>
<g id="a_Node000003"><a xlink:href="iface_8c.html#abc32be0df72f3b542d2f5a53ecdcfc66" target="_top" xlink:title=" ">
<polygon fill="white" stroke="#666666" points="109.75,-20.75 0,-20.75 0,0 109.75,0 109.75,-20.75"/>
<text text-anchor="middle" x="54.88" y="-7.25" font-family="Helvetica,sans-Serif" font-size="10.00">vlcb_net_iface_Poll</text>
</a>
</g>
</g>
<!-- Node2&#45;&gt;Node3 -->
<g id="edge2_Node000002_Node000003" class="edge">
<title>Node2&#45;&gt;Node3</title>
<g id="a_edge2_Node000002_Node000003"><a xlink:title=" ">
<path fill="none" stroke="#63b8ff" d="M134.14,-10.38C126.16,-10.38 117.94,-10.38 109.97,-10.38"/>
<polygon fill="#63b8ff" stroke="#63b8ff" points="134.1,-13.88 144.1,-10.38 134.1,-6.88 134.1,-13.88"/>
</a>
</g>
</g>
</g>
</svg>
