<?xml version="1.0" encoding="UTF-8" standalone="no"?>
<!DOCTYPE svg PUBLIC "-//W3C//DTD SVG 1.1//EN"
 "http://www.w3.org/Graphics/SVG/1.1/DTD/svg11.dtd">
<!-- Generated by graphviz version 12.1.2 (20240928.0832)
 -->
<!-- Title: iface.h Pages: 1 -->
<svg width="517pt" height="199pt"
 viewBox="0.00 0.00 516.50 199.00" xmlns="http://www.w3.org/2000/svg" xmlns:xlink="http://www.w3.org/1999/xlink">
<g id="graph0" class="graph" transform="scale(1 1) rotate(0) translate(4 195)">
<title>iface.h</title>
<!-- Node1 -->
<g id="Node000001" class="node">
<title>Node1</title>
<g id="a_Node000001"><a xlink:title=" ">
<polygon fill="#999999" stroke="#666666" points="203.88,-191 154.88,-191 154.88,-170.25 203.88,-170.25 203.88,-191"/>
<text text-anchor="middle" x="179.38" y="-177.5" font-family="Helvetica,sans-Serif" font-size="10.00">iface.h</text>
</a>
</g>
</g>
<!-- Node2 -->
<g id="Node000002" class="node">
<title>Node2</title>
<g id="a_Node000002"><a xlink:href="iface_8c.html" target="_top" xlink:title=" ">
<polygon fill="white" stroke="#666666" points="146.5,-77.5 98.25,-77.5 98.25,-56.75 146.5,-56.75 146.5,-77.5"/>
<text text-anchor="middle" x="122.38" y="-64" font-family="Helvetica,sans-Serif" font-size="10.00">iface.c</text>
</a>
</g>
</g>
<!-- Node1&#45;&gt;Node2 -->
<g id="edge1_Node000001_Node000002" class="edge">
<title>Node1&#45;&gt;Node2</title>
<g id="a_edge1_Node000001_Node000002"><a xlink:title=" ">
<path fill="none" stroke="#63b8ff" d="M169.36,-160.04C157.09,-136.02 136.75,-96.25 127.38,-77.93"/>
<polygon fill="#63b8ff" stroke="#63b8ff" points="166.16,-161.46 173.83,-168.77 172.39,-158.27 166.16,-161.46"/>
</a>
</g>
</g>
<!-- Node3 -->
<g id="Node000003" class="node">
<title>Node3</title>
<g id="a_Node000003"><a xlink:href="iface__can_8c.html" target="_top" xlink:title=" ">
<polygon fill="white" stroke="#666666" points="70.75,-77.5 0,-77.5 0,-56.75 70.75,-56.75 70.75,-77.5"/>
<text text-anchor="middle" x="35.38" y="-64" font-family="Helvetica,sans-Serif" font-size="10.00">iface_can.c</text>
</a>
</g>
</g>
<!-- Node1&#45;&gt;Node3 -->
<g id="edge2_Node000001_Node000003" class="edge">
<title>Node1&#45;&gt;Node3</title>
<g id="a_edge2_Node000001_Node000003"><a xlink:title=" ">
<path fill="none" stroke="#63b8ff" d="M143.27,-179.28C109.57,-176.81 60.91,-167.25 36.38,-134.25 24.04,-117.67 28.56,-91.71 32.33,-77.76"/>
<polygon fill="#63b8ff" stroke="#63b8ff" points="142.82,-182.76 152.99,-179.81 143.2,-175.77 142.82,-182.76"/>
</a>
</g>
</g>
<!-- Node4 -->
<g id="Node000004" class="node">
<title>Node4</title>
<g id="a_Node000004"><a xlink:href="iface__can_8h.html" target="_top" xlink:title=" ">
<polygon fill="white" stroke="#666666" points="247.12,-134.25 175.62,-134.25 175.62,-113.5 247.12,-113.5 247.12,-134.25"/>
<text text-anchor="middle" x="211.38" y="-120.75" font-family="Helvetica,sans-Serif" font-size="10.00">iface_can.h</text>
</a>
</g>
</g>
<!-- Node1&#45;&gt;Node4 -->
<g id="edge3_Node000001_Node000004" class="edge">
<title>Node1&#45;&gt;Node4</title>
<g id="a_edge3_Node000001_Node000004"><a xlink:title=" ">
<path fill="none" stroke="#63b8ff" d="M190.78,-160.1C195.85,-151.45 201.58,-141.64 205.7,-134.58"/>
<polygon fill="#63b8ff" stroke="#63b8ff" points="187.88,-158.13 185.86,-168.53 193.93,-161.66 187.88,-158.13"/>
</a>
</g>
</g>
<!-- Node6 -->
<g id="Node000006" class="node">
<title>Node6</title>
<g id="a_Node000006"><a xlink:href="iface__vlcb_8h.html" target="_top" xlink:title=" ">
<polygon fill="white" stroke="#666666" points="119.62,-134.25 45.12,-134.25 45.12,-113.5 119.62,-113.5 119.62,-134.25"/>
<text text-anchor="middle" x="82.38" y="-120.75" font-family="Helvetica,sans-Serif" font-size="10.00">iface_vlcb.h</text>
</a>
</g>
</g>
<!-- Node1&#45;&gt;Node6 -->
<g id="edge6_Node000001_Node000006" class="edge">
<title>Node1&#45;&gt;Node6</title>
<g id="a_edge6_Node000001_Node000006"><a xlink:title=" ">
<path fill="none" stroke="#63b8ff" d="M152.18,-164.28C135.31,-154.75 114.14,-142.81 99.57,-134.58"/>
<polygon fill="#63b8ff" stroke="#63b8ff" points="150.29,-167.23 160.72,-169.09 153.73,-161.13 150.29,-167.23"/>
</a>
</g>
</g>
<!-- Node7 -->
<g id="Node000007" class="node">
<title>Node7</title>
<g id="a_Node000007"><a xlink:href="module_2inc_2vlcb_2module_8h.html" target="_top" xlink:title=" ">
<polygon fill="white" stroke="#666666" points="328.25,-134.25 266.5,-134.25 266.5,-113.5 328.25,-113.5 328.25,-134.25"/>
<text text-anchor="middle" x="297.38" y="-120.75" font-family="Helvetica,sans-Serif" font-size="10.00">module.h</text>
</a>
</g>
</g>
<!-- Node1&#45;&gt;Node7 -->
<g id="edge9_Node000001_Node000007" class="edge">
<title>Node1&#45;&gt;Node7</title>
<g id="a_edge9_Node000001_Node000007"><a xlink:title=" ">
<path fill="none" stroke="#63b8ff" d="M210.73,-165.08C231.52,-155.43 258.23,-143.04 276.46,-134.58"/>
<polygon fill="#63b8ff" stroke="#63b8ff" points="209.44,-161.82 201.84,-169.2 212.39,-168.17 209.44,-161.82"/>
</a>
</g>
</g>
<!-- Node12 -->
<g id="Node000012" class="node">
<title>Node12</title>
<g id="a_Node000012"><a xlink:href="net_8h.html" target="_top" xlink:title=" ">
<polygon fill="white" stroke="#666666" points="386.75,-134.25 346,-134.25 346,-113.5 386.75,-113.5 386.75,-134.25"/>
<text text-anchor="middle" x="366.38" y="-120.75" font-family="Helvetica,sans-Serif" font-size="10.00">net.h</text>
</a>
</g>
</g>
<!-- Node1&#45;&gt;Node12 -->
<g id="edge17_Node000001_Node000012" class="edge">
<title>Node1&#45;&gt;Node12</title>
<g id="a_edge17_Node000001_Node000012"><a xlink:title=" ">
<path fill="none" stroke="#63b8ff" d="M215.4,-169.64C247.49,-160.67 295.68,-146.97 337.38,-134.25 340.11,-133.42 342.98,-132.52 345.81,-131.62"/>
<polygon fill="#63b8ff" stroke="#63b8ff" points="214.5,-166.26 205.81,-172.32 216.38,-173 214.5,-166.26"/>
</a>
</g>
</g>
<!-- Node4&#45;&gt;Node2 -->
<g id="edge4_Node000004_Node000002" class="edge">
<title>Node4&#45;&gt;Node2</title>
<g id="a_edge4_Node000004_Node000002"><a xlink:title=" ">
<path fill="none" stroke="#63b8ff" d="M185.98,-107.26C170.58,-97.78 151.4,-85.98 138.15,-77.83"/>
<polygon fill="#63b8ff" stroke="#63b8ff" points="183.82,-110.04 194.17,-112.29 187.49,-104.07 183.82,-110.04"/>
</a>
</g>
</g>
<!-- Node5 -->
<g id="Node000005" class="node">
<title>Node5</title>
<g id="a_Node000005"><a xlink:href="iface__vlcb_8c.html" target="_top" xlink:title=" ">
<polygon fill="white" stroke="#666666" points="238.25,-77.5 164.5,-77.5 164.5,-56.75 238.25,-56.75 238.25,-77.5"/>
<text text-anchor="middle" x="201.38" y="-64" font-family="Helvetica,sans-Serif" font-size="10.00">iface_vlcb.c</text>
</a>
</g>
</g>
<!-- Node4&#45;&gt;Node5 -->
<g id="edge5_Node000004_Node000005" class="edge">
<title>Node4&#45;&gt;Node5</title>
<g id="a_edge5_Node000004_Node000005"><a xlink:title=" ">
<path fill="none" stroke="#63b8ff" d="M207.55,-101.92C206.03,-93.63 204.37,-84.5 203.15,-77.83"/>
<polygon fill="#63b8ff" stroke="#63b8ff" points="204.08,-102.39 209.32,-111.6 210.96,-101.13 204.08,-102.39"/>
</a>
</g>
</g>
<!-- Node6&#45;&gt;Node2 -->
<g id="edge7_Node000006_Node000002" class="edge">
<title>Node6&#45;&gt;Node2</title>
<g id="a_edge7_Node000006_Node000002"><a xlink:title=" ">
<path fill="none" stroke="#63b8ff" d="M96.22,-103.92C102.65,-95.13 110.01,-85.05 115.29,-77.83"/>
<polygon fill="#63b8ff" stroke="#63b8ff" points="93.49,-101.73 90.42,-111.86 99.14,-105.85 93.49,-101.73"/>
</a>
</g>
</g>
<!-- Node6&#45;&gt;Node3 -->
<g id="edge8_Node000006_Node000003" class="edge">
<title>Node6&#45;&gt;Node3</title>
<g id="a_edge8_Node000006_Node000003"><a xlink:title=" ">
<path fill="none" stroke="#63b8ff" d="M66.59,-104.49C58.93,-95.56 50.03,-85.2 43.7,-77.83"/>
<polygon fill="#63b8ff" stroke="#63b8ff" points="63.82,-106.63 72.99,-111.94 69.13,-102.07 63.82,-106.63"/>
</a>
</g>
</g>
<!-- Node8 -->
<g id="Node000008" class="node">
<title>Node8</title>
<g id="a_Node000008"><a xlink:href="module_8c.html" target="_top" xlink:title=" ">
<polygon fill="white" stroke="#666666" points="355.88,-20.75 294.88,-20.75 294.88,0 355.88,0 355.88,-20.75"/>
<text text-anchor="middle" x="325.38" y="-7.25" font-family="Helvetica,sans-Serif" font-size="10.00">module.c</text>
</a>
</g>
</g>
<!-- Node7&#45;&gt;Node8 -->
<g id="edge10_Node000007_Node000008" class="edge">
<title>Node7&#45;&gt;Node8</title>
<g id="a_edge10_Node000007_Node000008"><a xlink:title=" ">
<path fill="none" stroke="#63b8ff" d="M288.25,-102.73C283.51,-89.36 279.76,-71.61 285.38,-56.75 290.87,-42.21 303.38,-29.32 312.96,-21.03"/>
<polygon fill="#63b8ff" stroke="#63b8ff" points="284.91,-103.8 291.9,-111.76 291.4,-101.18 284.91,-103.8"/>
</a>
</g>
</g>
<!-- Node9 -->
<g id="Node000009" class="node">
<title>Node9</title>
<g id="a_Node000009"><a xlink:href="module_2src_2module_8h.html" target="_top" xlink:title=" ">
<polygon fill="white" stroke="#666666" points="356.25,-77.5 294.5,-77.5 294.5,-56.75 356.25,-56.75 356.25,-77.5"/>
<text text-anchor="middle" x="325.38" y="-64" font-family="Helvetica,sans-Serif" font-size="10.00">module.h</text>
</a>
</g>
</g>
<!-- Node7&#45;&gt;Node9 -->
<g id="edge11_Node000007_Node000009" class="edge">
<title>Node7&#45;&gt;Node9</title>
<g id="a_edge11_Node000007_Node000009"><a xlink:title=" ">
<path fill="none" stroke="#63b8ff" d="M307.5,-103.07C311.9,-94.48 316.84,-84.81 320.41,-77.83"/>
<polygon fill="#63b8ff" stroke="#63b8ff" points="304.51,-101.24 303.07,-111.74 310.74,-104.43 304.51,-101.24"/>
</a>
</g>
</g>
<!-- Node10 -->
<g id="Node000010" class="node">
<title>Node10</title>
<g id="a_Node000010"><a xlink:href="state__machine_8c.html" target="_top" xlink:title=" ">
<polygon fill="white" stroke="#666666" points="508.5,-20.75 412.25,-20.75 412.25,0 508.5,0 508.5,-20.75"/>
<text text-anchor="middle" x="460.38" y="-7.25" font-family="Helvetica,sans-Serif" font-size="10.00">state_machine.c</text>
</a>
</g>
</g>
<!-- Node7&#45;&gt;Node10 -->
<g id="edge13_Node000007_Node000010" class="edge">
<title>Node7&#45;&gt;Node10</title>
<g id="a_edge13_Node000007_Node000010"><a xlink:title=" ">
<path fill="none" stroke="#63b8ff" d="M339.51,-112.76C393.2,-99.83 479.27,-78.92 480.38,-77.5 493.68,-60.5 478.39,-34.71 468.13,-20.9"/>
<polygon fill="#63b8ff" stroke="#63b8ff" points="338.96,-109.29 330.06,-115.04 340.6,-116.1 338.96,-109.29"/>
</a>
</g>
</g>
<!-- Node11 -->
<g id="Node000011" class="node">
<title>Node11</title>
<g id="a_Node000011"><a xlink:href="state__machine_8h.html" target="_top" xlink:title=" ">
<polygon fill="white" stroke="#666666" points="470.88,-77.5 373.88,-77.5 373.88,-56.75 470.88,-56.75 470.88,-77.5"/>
<text text-anchor="middle" x="422.38" y="-64" font-family="Helvetica,sans-Serif" font-size="10.00">state_machine.h</text>
</a>
</g>
</g>
<!-- Node7&#45;&gt;Node11 -->
<g id="edge14_Node000007_Node000011" class="edge">
<title>Node7&#45;&gt;Node11</title>
<g id="a_edge14_Node000007_Node000011"><a xlink:title=" ">
<path fill="none" stroke="#63b8ff" d="M329.98,-108.59C352.09,-98.91 380.73,-86.37 400.22,-77.83"/>
<polygon fill="#63b8ff" stroke="#63b8ff" points="328.86,-105.26 321.11,-112.48 331.67,-111.67 328.86,-105.26"/>
</a>
</g>
</g>
<!-- Node9&#45;&gt;Node8 -->
<g id="edge12_Node000009_Node000008" class="edge">
<title>Node9&#45;&gt;Node8</title>
<g id="a_edge12_Node000009_Node000008"><a xlink:title=" ">
<path fill="none" stroke="#63b8ff" d="M325.38,-44.88C325.38,-36.66 325.38,-27.68 325.38,-21.08"/>
<polygon fill="#63b8ff" stroke="#63b8ff" points="321.88,-44.82 325.38,-54.82 328.88,-44.82 321.88,-44.82"/>
</a>
</g>
</g>
<!-- Node11&#45;&gt;Node8 -->
<g id="edge15_Node000011_Node000008" class="edge">
<title>Node11&#45;&gt;Node8</title>
<g id="a_edge15_Node000011_Node000008"><a xlink:title=" ">
<path fill="none" stroke="#63b8ff" d="M395.18,-50.78C378.31,-41.25 357.14,-29.31 342.57,-21.08"/>
<polygon fill="#63b8ff" stroke="#63b8ff" points="393.29,-53.73 403.72,-55.59 396.73,-47.63 393.29,-53.73"/>
</a>
</g>
</g>
<!-- Node11&#45;&gt;Node10 -->
<g id="edge16_Node000011_Node000010" class="edge">
<title>Node11&#45;&gt;Node10</title>
<g id="a_edge16_Node000011_Node000010"><a xlink:title=" ">
<path fill="none" stroke="#63b8ff" d="M435.73,-46.89C441.78,-38.16 448.68,-28.22 453.64,-21.08"/>
<polygon fill="#63b8ff" stroke="#63b8ff" points="432.86,-44.88 430.03,-55.09 438.61,-48.87 432.86,-44.88"/>
</a>
</g>
</g>
</g>
</svg>
