<?xml version="1.0" encoding="UTF-8" standalone="no"?>
<!DOCTYPE svg PUBLIC "-//W3C//DTD SVG 1.1//EN"
 "http://www.w3.org/Graphics/SVG/1.1/DTD/svg11.dtd">
<!-- Generated by graphviz version 12.1.2 (20240928.0832)
 -->
<!-- Title: iface.c Pages: 1 -->
<svg width="806pt" height="426pt"
 viewBox="0.00 0.00 806.00 426.00" xmlns="http://www.w3.org/2000/svg" xmlns:xlink="http://www.w3.org/1999/xlink">
<g id="graph0" class="graph" transform="scale(1 1) rotate(0) translate(4 422)">
<title>iface.c</title>
<!-- Node1 -->
<g id="Node000001" class="node">
<title>Node1</title>
<g id="a_Node000001"><a xlink:title=" ">
<polygon fill="#999999" stroke="#666666" points="447.12,-418 398.88,-418 398.88,-397.25 447.12,-397.25 447.12,-418"/>
<text text-anchor="middle" x="423" y="-404.5" font-family="Helvetica,sans-Serif" font-size="10.00">iface.c</text>
</a>
</g>
</g>
<!-- Node2 -->
<g id="Node000002" class="node">
<title>Node2</title>
<g id="a_Node000002"><a xlink:href="iface_8h.html" target="_top" xlink:title=" ">
<polygon fill="white" stroke="#666666" points="330.5,-304.5 239.5,-304.5 239.5,-283.75 330.5,-283.75 330.5,-304.5"/>
<text text-anchor="middle" x="285" y="-291" font-family="Helvetica,sans-Serif" font-size="10.00">vlcb/net/iface.h</text>
</a>
</g>
</g>
<!-- Node1&#45;&gt;Node2 -->
<g id="edge1_Node000001_Node000002" class="edge">
<title>Node1&#45;&gt;Node2</title>
<g id="a_edge1_Node000001_Node000002"><a xlink:title=" ">
<path fill="none" stroke="#63b8ff" d="M398.58,-406.37C367,-404.57 313,-396.2 287,-361.25 277.46,-348.42 277.7,-329.99 279.91,-315.84"/>
<polygon fill="#63b8ff" stroke="#63b8ff" points="283.3,-316.74 281.86,-306.25 276.44,-315.35 283.3,-316.74"/>
</a>
</g>
</g>
<!-- Node4 -->
<g id="Node000004" class="node">
<title>Node4</title>
<g id="a_Node000004"><a xlink:href="adapter_8h.html" target="_top" xlink:title=" ">
<polygon fill="white" stroke="#666666" points="423.88,-247.75 362.12,-247.75 362.12,-227 423.88,-227 423.88,-247.75"/>
<text text-anchor="middle" x="393" y="-234.25" font-family="Helvetica,sans-Serif" font-size="10.00">adapter.h</text>
</a>
</g>
</g>
<!-- Node1&#45;&gt;Node4 -->
<g id="edge36_Node000001_Node000004" class="edge">
<title>Node1&#45;&gt;Node4</title>
<g id="a_edge36_Node000001_Node000004"><a xlink:title=" ">
<path fill="none" stroke="#63b8ff" d="M447.35,-403.62C488.2,-397.43 564.08,-380.35 543,-340.5 519.67,-296.4 467.8,-267.78 431.63,-252.36"/>
<polygon fill="#63b8ff" stroke="#63b8ff" points="433.4,-249.31 422.82,-248.76 430.75,-255.78 433.4,-249.31"/>
</a>
</g>
</g>
<!-- Node8 -->
<g id="Node000008" class="node">
<title>Node8</title>
<g id="a_Node000008"><a xlink:title=" ">
<polygon fill="#e0e0e0" stroke="#999999" points="121.5,-134.25 66.5,-134.25 66.5,-113.5 121.5,-113.5 121.5,-134.25"/>
<text text-anchor="middle" x="94" y="-120.75" font-family="Helvetica,sans-Serif" font-size="10.00">stddef.h</text>
</a>
</g>
</g>
<!-- Node1&#45;&gt;Node8 -->
<g id="edge28_Node000001_Node000008" class="edge">
<title>Node1&#45;&gt;Node8</title>
<g id="a_edge28_Node000001_Node000008"><a xlink:title=" ">
<path fill="none" stroke="#63b8ff" d="M398.43,-405.49C308.15,-400.66 0,-378.1 0,-295.12 0,-295.12 0,-295.12 0,-236.38 0,-194.21 39.79,-159.71 67.59,-140.76"/>
<polygon fill="#63b8ff" stroke="#63b8ff" points="69.46,-143.71 75.93,-135.32 65.64,-137.85 69.46,-143.71"/>
</a>
</g>
</g>
<!-- Node11 -->
<g id="Node000011" class="node">
<title>Node11</title>
<g id="a_Node000011"><a xlink:title=" ">
<polygon fill="#e0e0e0" stroke="#999999" points="512.38,-20.75 459.62,-20.75 459.62,0 512.38,0 512.38,-20.75"/>
<text text-anchor="middle" x="486" y="-7.25" font-family="Helvetica,sans-Serif" font-size="10.00">stdint.h</text>
</a>
</g>
</g>
<!-- Node1&#45;&gt;Node11 -->
<g id="edge29_Node000001_Node000011" class="edge">
<title>Node1&#45;&gt;Node11</title>
<g id="a_edge29_Node000001_Node000011"><a xlink:title=" ">
<path fill="none" stroke="#63b8ff" d="M447.6,-404.68C531.03,-397.43 798,-368.48 798,-295.12 798,-295.12 798,-295.12 798,-122.88 798,-65.32 607.34,-29.61 524.1,-16.77"/>
<polygon fill="#63b8ff" stroke="#63b8ff" points="524.78,-13.33 514.37,-15.3 523.73,-20.25 524.78,-13.33"/>
</a>
</g>
</g>
<!-- Node14 -->
<g id="Node000014" class="node">
<title>Node14</title>
<g id="a_Node000014"><a xlink:href="socket_8h.html" target="_top" xlink:title=" ">
<polygon fill="white" stroke="#666666" points="219.25,-247.75 162.75,-247.75 162.75,-227 219.25,-227 219.25,-247.75"/>
<text text-anchor="middle" x="191" y="-234.25" font-family="Helvetica,sans-Serif" font-size="10.00">socket.h</text>
</a>
</g>
</g>
<!-- Node1&#45;&gt;Node14 -->
<g id="edge37_Node000001_Node000014" class="edge">
<title>Node1&#45;&gt;Node14</title>
<g id="a_edge37_Node000001_Node000014"><a xlink:title=" ">
<path fill="none" stroke="#63b8ff" d="M398.48,-403.74C367.4,-399.1 313.26,-387.67 275,-361.25 237.23,-335.17 211.43,-286.12 199.18,-258.54"/>
<polygon fill="#63b8ff" stroke="#63b8ff" points="202.49,-257.38 195.35,-249.55 196.05,-260.13 202.49,-257.38"/>
</a>
</g>
</g>
<!-- Node16 -->
<g id="Node000016" class="node">
<title>Node16</title>
<g id="a_Node000016"><a xlink:title=" ">
<polygon fill="#e0e0e0" stroke="#999999" points="533.5,-361.25 478.5,-361.25 478.5,-340.5 533.5,-340.5 533.5,-361.25"/>
<text text-anchor="middle" x="506" y="-347.75" font-family="Helvetica,sans-Serif" font-size="10.00">assert.h</text>
</a>
</g>
</g>
<!-- Node1&#45;&gt;Node16 -->
<g id="edge27_Node000001_Node000016" class="edge">
<title>Node1&#45;&gt;Node16</title>
<g id="a_edge27_Node000001_Node000016"><a xlink:title=" ">
<path fill="none" stroke="#63b8ff" d="M437.84,-396.84C450.11,-388.74 467.79,-377.08 482.06,-367.67"/>
<polygon fill="#63b8ff" stroke="#63b8ff" points="483.61,-370.84 490.03,-362.41 479.75,-365 483.61,-370.84"/>
</a>
</g>
</g>
<!-- Node17 -->
<g id="Node000017" class="node">
<title>Node17</title>
<g id="a_Node000017"><a xlink:href="iface__can_8h.html" target="_top" xlink:title=" ">
<polygon fill="white" stroke="#666666" points="367.75,-361.25 296.25,-361.25 296.25,-340.5 367.75,-340.5 367.75,-361.25"/>
<text text-anchor="middle" x="332" y="-347.75" font-family="Helvetica,sans-Serif" font-size="10.00">iface_can.h</text>
</a>
</g>
</g>
<!-- Node1&#45;&gt;Node17 -->
<g id="edge30_Node000001_Node000017" class="edge">
<title>Node1&#45;&gt;Node17</title>
<g id="a_edge30_Node000001_Node000017"><a xlink:title=" ">
<path fill="none" stroke="#63b8ff" d="M406.73,-396.84C393.14,-388.66 373.53,-376.86 357.8,-367.4"/>
<polygon fill="#63b8ff" stroke="#63b8ff" points="359.8,-364.52 349.43,-362.36 356.19,-370.51 359.8,-364.52"/>
</a>
</g>
</g>
<!-- Node18 -->
<g id="Node000018" class="node">
<title>Node18</title>
<g id="a_Node000018"><a xlink:href="iface__vlcb_8h.html" target="_top" xlink:title=" ">
<polygon fill="white" stroke="#666666" points="460.25,-361.25 385.75,-361.25 385.75,-340.5 460.25,-340.5 460.25,-361.25"/>
<text text-anchor="middle" x="423" y="-347.75" font-family="Helvetica,sans-Serif" font-size="10.00">iface_vlcb.h</text>
</a>
</g>
</g>
<!-- Node1&#45;&gt;Node18 -->
<g id="edge33_Node000001_Node000018" class="edge">
<title>Node1&#45;&gt;Node18</title>
<g id="a_edge33_Node000001_Node000018"><a xlink:title=" ">
<path fill="none" stroke="#63b8ff" d="M423,-396.84C423,-390.22 423,-381.22 423,-373.02"/>
<polygon fill="#63b8ff" stroke="#63b8ff" points="426.5,-373.09 423,-363.09 419.5,-373.09 426.5,-373.09"/>
</a>
</g>
</g>
<!-- Node19 -->
<g id="Node000019" class="node">
<title>Node19</title>
<g id="a_Node000019"><a xlink:href="log_8h.html" target="_top" xlink:title=" ">
<polygon fill="white" stroke="#666666" points="720.12,-304.5 611.88,-304.5 611.88,-283.75 720.12,-283.75 720.12,-304.5"/>
<text text-anchor="middle" x="666" y="-291" font-family="Helvetica,sans-Serif" font-size="10.00">vlcb/platform/log.h</text>
</a>
</g>
</g>
<!-- Node1&#45;&gt;Node19 -->
<g id="edge38_Node000001_Node000019" class="edge">
<title>Node1&#45;&gt;Node19</title>
<g id="a_edge38_Node000001_Node000019"><a xlink:title=" ">
<path fill="none" stroke="#63b8ff" d="M447.55,-402.08C478.61,-395.72 533.2,-382.51 576,-361.25 602.52,-348.08 629.43,-327.09 646.82,-312.3"/>
<polygon fill="#63b8ff" stroke="#63b8ff" points="649.05,-315 654.3,-305.8 644.46,-309.72 649.05,-315"/>
</a>
</g>
</g>
<!-- Node3 -->
<g id="Node000003" class="node">
<title>Node3</title>
<g id="a_Node000003"><a xlink:title=" ">
<polygon fill="#e0e0e0" stroke="#999999" points="336.5,-77.5 275.5,-77.5 275.5,-56.75 336.5,-56.75 336.5,-77.5"/>
<text text-anchor="middle" x="306" y="-64" font-family="Helvetica,sans-Serif" font-size="10.00">stdbool.h</text>
</a>
</g>
</g>
<!-- Node2&#45;&gt;Node3 -->
<g id="edge2_Node000002_Node000003" class="edge">
<title>Node2&#45;&gt;Node3</title>
<g id="a_edge2_Node000002_Node000003"><a xlink:title=" ">
<path fill="none" stroke="#63b8ff" d="M285.65,-283.37C287.48,-256.35 293.02,-178.22 300,-113.5 300.86,-105.51 301.98,-96.75 303.02,-89.07"/>
<polygon fill="#63b8ff" stroke="#63b8ff" points="306.46,-89.73 304.37,-79.34 299.52,-88.77 306.46,-89.73"/>
</a>
</g>
</g>
<!-- Node2&#45;&gt;Node4 -->
<g id="edge3_Node000002_Node000004" class="edge">
<title>Node2&#45;&gt;Node4</title>
<g id="a_edge3_Node000002_Node000004"><a xlink:title=" ">
<path fill="none" stroke="#63b8ff" d="M304.31,-283.34C320.82,-274.97 344.83,-262.79 363.71,-253.22"/>
<polygon fill="#63b8ff" stroke="#63b8ff" points="365.17,-256.41 372.51,-248.76 362.01,-250.16 365.17,-256.41"/>
</a>
</g>
</g>
<!-- Node2&#45;&gt;Node14 -->
<g id="edge19_Node000002_Node000014" class="edge">
<title>Node2&#45;&gt;Node14</title>
<g id="a_edge19_Node000002_Node000014"><a xlink:title=" ">
<path fill="none" stroke="#63b8ff" d="M268.19,-283.34C254.03,-275.08 233.51,-263.13 217.19,-253.63"/>
<polygon fill="#63b8ff" stroke="#63b8ff" points="219.37,-250.85 208.97,-248.84 215.85,-256.9 219.37,-250.85"/>
</a>
</g>
</g>
<!-- Node4&#45;&gt;Node3 -->
<g id="edge5_Node000004_Node000003" class="edge">
<title>Node4&#45;&gt;Node3</title>
<g id="a_edge5_Node000004_Node000003"><a xlink:title=" ">
<path fill="none" stroke="#63b8ff" d="M369.03,-226.54C353.92,-219.06 335.38,-207.27 325,-191 305.14,-159.86 303.34,-115.46 304.33,-89.43"/>
<polygon fill="#63b8ff" stroke="#63b8ff" points="307.82,-89.66 304.91,-79.48 300.83,-89.26 307.82,-89.66"/>
</a>
</g>
</g>
<!-- Node5 -->
<g id="Node000005" class="node">
<title>Node5</title>
<g id="a_Node000005"><a xlink:title=" ">
<polygon fill="#e0e0e0" stroke="#999999" points="599.38,-77.5 534.62,-77.5 534.62,-56.75 599.38,-56.75 599.38,-77.5"/>
<text text-anchor="middle" x="567" y="-64" font-family="Helvetica,sans-Serif" font-size="10.00">inttypes.h</text>
</a>
</g>
</g>
<!-- Node4&#45;&gt;Node5 -->
<g id="edge4_Node000004_Node000005" class="edge">
<title>Node4&#45;&gt;Node5</title>
<g id="a_edge4_Node000004_Node000005"><a xlink:title=" ">
<path fill="none" stroke="#63b8ff" d="M424.29,-235.37C490.72,-232.63 643,-222.93 682,-191 709.61,-168.39 723.86,-142.45 703,-113.5 682.14,-84.54 641.98,-73.79 610.68,-69.93"/>
<polygon fill="#63b8ff" stroke="#63b8ff" points="611.42,-66.49 601.11,-68.95 610.71,-73.45 611.42,-66.49"/>
</a>
</g>
</g>
<!-- Node6 -->
<g id="Node000006" class="node">
<title>Node6</title>
<g id="a_Node000006"><a xlink:href="error_8h.html" target="_top" xlink:title=" ">
<polygon fill="white" stroke="#666666" points="693.88,-134.25 578.12,-134.25 578.12,-113.5 693.88,-113.5 693.88,-134.25"/>
<text text-anchor="middle" x="636" y="-120.75" font-family="Helvetica,sans-Serif" font-size="10.00">vlcb/platform/error.h</text>
</a>
</g>
</g>
<!-- Node4&#45;&gt;Node6 -->
<g id="edge6_Node000004_Node000006" class="edge">
<title>Node4&#45;&gt;Node6</title>
<g id="a_edge6_Node000004_Node000006"><a xlink:title=" ">
<path fill="none" stroke="#63b8ff" d="M424.33,-236C489.14,-234.49 634.44,-227.08 665,-191 676.96,-176.88 665.48,-157.05 653.61,-142.79"/>
<polygon fill="#63b8ff" stroke="#63b8ff" points="656.31,-140.56 647.02,-135.47 651.11,-145.24 656.31,-140.56"/>
</a>
</g>
</g>
<!-- Node7 -->
<g id="Node000007" class="node">
<title>Node7</title>
<g id="a_Node000007"><a xlink:href="interface_8h.html" target="_top" xlink:title=" ">
<polygon fill="white" stroke="#666666" points="240.38,-191 103.62,-191 103.62,-170.25 240.38,-170.25 240.38,-191"/>
<text text-anchor="middle" x="172" y="-177.5" font-family="Helvetica,sans-Serif" font-size="10.00">vlcb/platform/interface.h</text>
</a>
</g>
</g>
<!-- Node4&#45;&gt;Node7 -->
<g id="edge7_Node000004_Node000007" class="edge">
<title>Node4&#45;&gt;Node7</title>
<g id="a_edge7_Node000004_Node000007"><a xlink:title=" ">
<path fill="none" stroke="#63b8ff" d="M361.8,-228.65C325.65,-219.69 265.56,-204.8 222.68,-194.18"/>
<polygon fill="#63b8ff" stroke="#63b8ff" points="223.64,-190.81 213.09,-191.81 221.96,-197.61 223.64,-190.81"/>
</a>
</g>
</g>
<!-- Node9 -->
<g id="Node000009" class="node">
<title>Node9</title>
<g id="a_Node000009"><a xlink:href="packet_8h.html" target="_top" xlink:title=" ">
<polygon fill="white" stroke="#666666" points="452,-191 334,-191 334,-170.25 452,-170.25 452,-191"/>
<text text-anchor="middle" x="393" y="-177.5" font-family="Helvetica,sans-Serif" font-size="10.00">adapter/can/packet.h</text>
</a>
</g>
</g>
<!-- Node4&#45;&gt;Node9 -->
<g id="edge9_Node000004_Node000009" class="edge">
<title>Node4&#45;&gt;Node9</title>
<g id="a_edge9_Node000004_Node000009"><a xlink:title=" ">
<path fill="none" stroke="#63b8ff" d="M393,-226.59C393,-219.97 393,-210.97 393,-202.77"/>
<polygon fill="#63b8ff" stroke="#63b8ff" points="396.5,-202.84 393,-192.84 389.5,-202.84 396.5,-202.84"/>
</a>
</g>
</g>
<!-- Node13 -->
<g id="Node000013" class="node">
<title>Node13</title>
<g id="a_Node000013"><a xlink:href="addr_8h.html" target="_top" xlink:title=" ">
<polygon fill="white" stroke="#666666" points="558,-191 470,-191 470,-170.25 558,-170.25 558,-191"/>
<text text-anchor="middle" x="514" y="-177.5" font-family="Helvetica,sans-Serif" font-size="10.00">vlcb/net/addr.h</text>
</a>
</g>
</g>
<!-- Node4&#45;&gt;Node13 -->
<g id="edge17_Node000004_Node000013" class="edge">
<title>Node4&#45;&gt;Node13</title>
<g id="a_edge17_Node000004_Node000013"><a xlink:title=" ">
<path fill="none" stroke="#63b8ff" d="M414.63,-226.59C433.47,-218.06 461.04,-205.59 482.36,-195.94"/>
<polygon fill="#63b8ff" stroke="#63b8ff" points="483.51,-199.26 491.18,-191.95 480.62,-192.89 483.51,-199.26"/>
</a>
</g>
</g>
<!-- Node7&#45;&gt;Node8 -->
<g id="edge8_Node000007_Node000008" class="edge">
<title>Node7&#45;&gt;Node8</title>
<g id="a_edge8_Node000007_Node000008"><a xlink:title=" ">
<path fill="none" stroke="#63b8ff" d="M158.06,-169.84C146.63,-161.82 130.23,-150.31 116.89,-140.94"/>
<polygon fill="#63b8ff" stroke="#63b8ff" points="119.26,-138.33 109.06,-135.45 115.24,-144.06 119.26,-138.33"/>
</a>
</g>
</g>
<!-- Node9&#45;&gt;Node3 -->
<g id="edge10_Node000009_Node000003" class="edge">
<title>Node9&#45;&gt;Node3</title>
<g id="a_edge10_Node000009_Node000003"><a xlink:title=" ">
<path fill="none" stroke="#63b8ff" d="M385.58,-170.12C371.21,-151.7 339.33,-110.84 320.57,-86.8"/>
<polygon fill="#63b8ff" stroke="#63b8ff" points="323.49,-84.85 314.58,-79.12 317.97,-89.16 323.49,-84.85"/>
</a>
</g>
</g>
<!-- Node10 -->
<g id="Node000010" class="node">
<title>Node10</title>
<g id="a_Node000010"><a xlink:href="common_2inc_2vlcb_2common_2can_8h.html" target="_top" xlink:title=" ">
<polygon fill="white" stroke="#666666" points="483.62,-134.25 372.38,-134.25 372.38,-113.5 483.62,-113.5 483.62,-134.25"/>
<text text-anchor="middle" x="428" y="-120.75" font-family="Helvetica,sans-Serif" font-size="10.00">vlcb/common/can.h</text>
</a>
</g>
</g>
<!-- Node9&#45;&gt;Node10 -->
<g id="edge11_Node000009_Node000010" class="edge">
<title>Node9&#45;&gt;Node10</title>
<g id="a_edge11_Node000009_Node000010"><a xlink:title=" ">
<path fill="none" stroke="#63b8ff" d="M399.26,-169.84C403.84,-162.67 410.2,-152.73 415.77,-144.01"/>
<polygon fill="#63b8ff" stroke="#63b8ff" points="418.54,-146.16 420.98,-135.85 412.65,-142.39 418.54,-146.16"/>
</a>
</g>
</g>
<!-- Node10&#45;&gt;Node3 -->
<g id="edge13_Node000010_Node000003" class="edge">
<title>Node10&#45;&gt;Node3</title>
<g id="a_edge13_Node000010_Node000003"><a xlink:title=" ">
<path fill="none" stroke="#63b8ff" d="M406.19,-113.09C387.19,-104.56 359.4,-92.09 337.91,-82.44"/>
<polygon fill="#63b8ff" stroke="#63b8ff" points="339.56,-79.35 329,-78.45 336.69,-85.74 339.56,-79.35"/>
</a>
</g>
</g>
<!-- Node10&#45;&gt;Node5 -->
<g id="edge12_Node000010_Node000005" class="edge">
<title>Node10&#45;&gt;Node5</title>
<g id="a_edge12_Node000010_Node000005"><a xlink:title=" ">
<path fill="none" stroke="#63b8ff" d="M452.85,-113.09C474.89,-104.41 507.32,-91.63 531.98,-81.92"/>
<polygon fill="#63b8ff" stroke="#63b8ff" points="532.93,-85.3 540.96,-78.38 530.37,-78.79 532.93,-85.3"/>
</a>
</g>
</g>
<!-- Node10&#45;&gt;Node11 -->
<g id="edge14_Node000010_Node000011" class="edge">
<title>Node10&#45;&gt;Node11</title>
<g id="a_edge14_Node000010_Node000011"><a xlink:title=" ">
<path fill="none" stroke="#63b8ff" d="M429.4,-113.41C431.66,-100.12 436.9,-75.46 447,-56.75 452.32,-46.89 460.07,-37.29 467.27,-29.48"/>
<polygon fill="#63b8ff" stroke="#63b8ff" points="469.78,-31.92 474.23,-22.3 464.76,-27.05 469.78,-31.92"/>
</a>
</g>
</g>
<!-- Node12 -->
<g id="Node000012" class="node">
<title>Node12</title>
<g id="a_Node000012"><a xlink:href="opcode_8h.html" target="_top" xlink:title=" ">
<polygon fill="white" stroke="#666666" points="516.12,-77.5 455.88,-77.5 455.88,-56.75 516.12,-56.75 516.12,-77.5"/>
<text text-anchor="middle" x="486" y="-64" font-family="Helvetica,sans-Serif" font-size="10.00">opcode.h</text>
</a>
</g>
</g>
<!-- Node10&#45;&gt;Node12 -->
<g id="edge15_Node000010_Node000012" class="edge">
<title>Node10&#45;&gt;Node12</title>
<g id="a_edge15_Node000010_Node000012"><a xlink:title=" ">
<path fill="none" stroke="#63b8ff" d="M438.37,-113.09C446.45,-105.46 457.88,-94.67 467.52,-85.57"/>
<polygon fill="#63b8ff" stroke="#63b8ff" points="469.75,-88.28 474.62,-78.87 464.95,-83.19 469.75,-88.28"/>
</a>
</g>
</g>
<!-- Node12&#45;&gt;Node11 -->
<g id="edge16_Node000012_Node000011" class="edge">
<title>Node12&#45;&gt;Node11</title>
<g id="a_edge16_Node000012_Node000011"><a xlink:title=" ">
<path fill="none" stroke="#63b8ff" d="M486,-56.34C486,-49.72 486,-40.72 486,-32.52"/>
<polygon fill="#63b8ff" stroke="#63b8ff" points="489.5,-32.59 486,-22.59 482.5,-32.59 489.5,-32.59"/>
</a>
</g>
</g>
<!-- Node13&#45;&gt;Node10 -->
<g id="edge18_Node000013_Node000010" class="edge">
<title>Node13&#45;&gt;Node10</title>
<g id="a_edge18_Node000013_Node000010"><a xlink:title=" ">
<path fill="none" stroke="#63b8ff" d="M498.62,-169.84C485.91,-161.74 467.6,-150.08 452.81,-140.67"/>
<polygon fill="#63b8ff" stroke="#63b8ff" points="454.83,-137.81 444.52,-135.39 451.07,-143.71 454.83,-137.81"/>
</a>
</g>
</g>
<!-- Node14&#45;&gt;Node3 -->
<g id="edge20_Node000014_Node000003" class="edge">
<title>Node14&#45;&gt;Node3</title>
<g id="a_edge20_Node000014_Node000003"><a xlink:title=" ">
<path fill="none" stroke="#63b8ff" d="M162.4,-230.25C138.84,-223.92 105.86,-211.94 84,-191 57.66,-165.77 33.63,-141.51 57,-113.5 82.9,-82.45 200.26,-72.59 264.18,-69.51"/>
<polygon fill="#63b8ff" stroke="#63b8ff" points="264.12,-73.01 273.95,-69.07 263.81,-66.02 264.12,-73.01"/>
</a>
</g>
</g>
<!-- Node14&#45;&gt;Node7 -->
<g id="edge26_Node000014_Node000007" class="edge">
<title>Node14&#45;&gt;Node7</title>
<g id="a_edge26_Node000014_Node000007"><a xlink:title=" ">
<path fill="none" stroke="#63b8ff" d="M187.6,-226.59C185.25,-219.81 182.04,-210.55 179.14,-202.19"/>
<polygon fill="#63b8ff" stroke="#63b8ff" points="182.45,-201.06 175.86,-192.76 175.84,-203.35 182.45,-201.06"/>
</a>
</g>
</g>
<!-- Node14&#45;&gt;Node8 -->
<g id="edge21_Node000014_Node000008" class="edge">
<title>Node14&#45;&gt;Node8</title>
<g id="a_edge21_Node000014_Node000008"><a xlink:title=" ">
<path fill="none" stroke="#63b8ff" d="M162.5,-231.32C139.95,-225.68 109.87,-214.09 95,-191 86.34,-177.56 86.81,-159.18 89.03,-145.21"/>
<polygon fill="#63b8ff" stroke="#63b8ff" points="92.38,-146.28 90.95,-135.79 85.53,-144.89 92.38,-146.28"/>
</a>
</g>
</g>
<!-- Node15 -->
<g id="Node000015" class="node">
<title>Node15</title>
<g id="a_Node000015"><a xlink:href="vlcb_8h.html" target="_top" xlink:title=" ">
<polygon fill="white" stroke="#666666" points="656.25,-191 575.75,-191 575.75,-170.25 656.25,-170.25 656.25,-191"/>
<text text-anchor="middle" x="616" y="-177.5" font-family="Helvetica,sans-Serif" font-size="10.00">packet/vlcb.h</text>
</a>
</g>
</g>
<!-- Node14&#45;&gt;Node15 -->
<g id="edge22_Node000014_Node000015" class="edge">
<title>Node14&#45;&gt;Node15</title>
<g id="a_edge22_Node000014_Node000015"><a xlink:title=" ">
<path fill="none" stroke="#63b8ff" d="M219.39,-233.62C280.51,-227.56 429.28,-212.03 564.06,-191.37"/>
<polygon fill="#63b8ff" stroke="#63b8ff" points="564.55,-194.84 573.9,-189.85 563.48,-187.92 564.55,-194.84"/>
</a>
</g>
</g>
<!-- Node15&#45;&gt;Node5 -->
<g id="edge23_Node000015_Node000005" class="edge">
<title>Node15&#45;&gt;Node5</title>
<g id="a_edge23_Node000015_Node000005"><a xlink:title=" ">
<path fill="none" stroke="#63b8ff" d="M601.14,-170.08C590.05,-162.02 575.7,-149.39 569,-134.25 562.73,-120.08 562.51,-102.49 563.71,-89.01"/>
<polygon fill="#63b8ff" stroke="#63b8ff" points="567.18,-89.45 564.95,-79.1 560.24,-88.58 567.18,-89.45"/>
</a>
</g>
</g>
<!-- Node15&#45;&gt;Node6 -->
<g id="edge25_Node000015_Node000006" class="edge">
<title>Node15&#45;&gt;Node6</title>
<g id="a_edge25_Node000015_Node000006"><a xlink:title=" ">
<path fill="none" stroke="#63b8ff" d="M619.58,-169.84C622.08,-162.99 625.51,-153.59 628.59,-145.15"/>
<polygon fill="#63b8ff" stroke="#63b8ff" points="631.79,-146.59 631.94,-136 625.22,-144.19 631.79,-146.59"/>
</a>
</g>
</g>
<!-- Node15&#45;&gt;Node12 -->
<g id="edge24_Node000015_Node000012" class="edge">
<title>Node15&#45;&gt;Node12</title>
<g id="a_edge24_Node000015_Node000012"><a xlink:title=" ">
<path fill="none" stroke="#63b8ff" d="M603.85,-170.05C592.41,-160.98 574.87,-146.9 560,-134.25 540.88,-117.97 519.54,-98.8 504.71,-85.3"/>
<polygon fill="#63b8ff" stroke="#63b8ff" points="507.26,-82.88 497.52,-78.72 502.54,-88.05 507.26,-82.88"/>
</a>
</g>
</g>
<!-- Node17&#45;&gt;Node2 -->
<g id="edge32_Node000017_Node000002" class="edge">
<title>Node17&#45;&gt;Node2</title>
<g id="a_edge32_Node000017_Node000002"><a xlink:title=" ">
<path fill="none" stroke="#63b8ff" d="M323.6,-340.09C317.25,-332.69 308.35,-322.32 300.7,-313.41"/>
<polygon fill="#63b8ff" stroke="#63b8ff" points="303.49,-311.28 294.32,-305.98 298.17,-315.84 303.49,-311.28"/>
</a>
</g>
</g>
<!-- Node17&#45;&gt;Node4 -->
<g id="edge31_Node000017_Node000004" class="edge">
<title>Node17&#45;&gt;Node4</title>
<g id="a_edge31_Node000017_Node000004"><a xlink:title=" ">
<path fill="none" stroke="#63b8ff" d="M337.2,-340.37C347.14,-322.19 369.04,-282.17 382.25,-258.02"/>
<polygon fill="#63b8ff" stroke="#63b8ff" points="385.18,-259.96 386.91,-249.5 379.04,-256.6 385.18,-259.96"/>
</a>
</g>
</g>
<!-- Node18&#45;&gt;Node2 -->
<g id="edge34_Node000018_Node000002" class="edge">
<title>Node18&#45;&gt;Node2</title>
<g id="a_edge34_Node000018_Node000002"><a xlink:title=" ">
<path fill="none" stroke="#63b8ff" d="M398.33,-340.09C376.55,-331.44 344.54,-318.75 320.09,-309.05"/>
<polygon fill="#63b8ff" stroke="#63b8ff" points="321.45,-305.82 310.86,-305.39 318.87,-312.33 321.45,-305.82"/>
</a>
</g>
</g>
<!-- Node18&#45;&gt;Node15 -->
<g id="edge35_Node000018_Node000015" class="edge">
<title>Node18&#45;&gt;Node15</title>
<g id="a_edge35_Node000018_Node000015"><a xlink:title=" ">
<path fill="none" stroke="#63b8ff" d="M434.21,-340.1C465.79,-312.57 555.8,-234.11 596.08,-198.99"/>
<polygon fill="#63b8ff" stroke="#63b8ff" points="598.38,-201.63 603.62,-192.42 593.78,-196.35 598.38,-201.63"/>
</a>
</g>
</g>
<!-- Node19&#45;&gt;Node6 -->
<g id="edge39_Node000019_Node000006" class="edge">
<title>Node19&#45;&gt;Node6</title>
<g id="a_edge39_Node000019_Node000006"><a xlink:title=" ">
<path fill="none" stroke="#63b8ff" d="M670.48,-283.44C679.69,-262.09 698.52,-209.75 682,-170.25 677.31,-159.04 668.35,-149.19 659.57,-141.55"/>
<polygon fill="#63b8ff" stroke="#63b8ff" points="661.86,-138.9 651.86,-135.38 657.48,-144.37 661.86,-138.9"/>
</a>
</g>
</g>
</g>
</svg>
