<?xml version="1.0" encoding="UTF-8" standalone="no"?>
<!DOCTYPE svg PUBLIC "-//W3C//DTD SVG 1.1//EN"
 "http://www.w3.org/Graphics/SVG/1.1/DTD/svg11.dtd">
<!-- Generated by graphviz version 12.1.2 (20240928.0832)
 -->
<!-- Title: EgressPackets Pages: 1 -->
<svg width="618pt" height="430pt"
 viewBox="0.00 0.00 618.00 430.12" xmlns="http://www.w3.org/2000/svg" xmlns:xlink="http://www.w3.org/1999/xlink">
<g id="graph0" class="graph" transform="scale(1 1) rotate(0) translate(4 426.12)">
<title>EgressPackets</title>
<!-- Node1 -->
<g id="Node000001" class="node">
<title>Node1</title>
<g id="a_Node000001"><a xlink:title=" ">
<polygon fill="#999999" stroke="#666666" points="85,-195.12 0,-195.12 0,-174.38 85,-174.38 85,-195.12"/>
<text text-anchor="middle" x="42.5" y="-181.62" font-family="Helvetica,sans-Serif" font-size="10.00">EgressPackets</text>
</a>
</g>
</g>
<!-- Node2 -->
<g id="Node000002" class="node">
<title>Node2</title>
<g id="a_Node000002"><a xlink:href="socket_2datagram_8c.html#a7078de64bfd986745f84ef33ea013ddd" target="_top" xlink:title=" ">
<polygon fill="white" stroke="#666666" points="239.38,-366.12 149.12,-366.12 149.12,-345.38 239.38,-345.38 239.38,-366.12"/>
<text text-anchor="middle" x="194.25" y="-352.62" font-family="Helvetica,sans-Serif" font-size="10.00">DispatchPacket</text>
</a>
</g>
</g>
<!-- Node1&#45;&gt;Node2 -->
<g id="edge1_Node000001_Node000002" class="edge">
<title>Node1&#45;&gt;Node2</title>
<g id="a_edge1_Node000001_Node000002"><a xlink:title=" ">
<path fill="none" stroke="#63b8ff" d="M47.66,-195.3C57.42,-218.97 83.79,-277.07 121,-313.75 131.58,-324.17 145.24,-332.98 157.84,-339.79"/>
<polygon fill="#63b8ff" stroke="#63b8ff" points="156.23,-342.9 166.73,-344.34 159.43,-336.67 156.23,-342.9"/>
</a>
</g>
</g>
<!-- Node7 -->
<g id="Node000007" class="node">
<title>Node7</title>
<g id="a_Node000007"><a xlink:href="iface__vlcb_8c.html#a0d6563489a49082e53653774882bd0c9" target="_top" xlink:title=" ">
<polygon fill="white" stroke="#666666" points="249.88,-305.12 138.62,-305.12 138.62,-284.38 249.88,-284.38 249.88,-305.12"/>
<text text-anchor="middle" x="194.25" y="-291.62" font-family="Helvetica,sans-Serif" font-size="10.00">DispatchVlcbPacket</text>
</a>
</g>
</g>
<!-- Node1&#45;&gt;Node7 -->
<g id="edge6_Node000001_Node000007" class="edge">
<title>Node1&#45;&gt;Node7</title>
<g id="a_edge6_Node000001_Node000007"><a xlink:title=" ">
<path fill="none" stroke="#63b8ff" d="M49.7,-195.43C61.25,-214.36 87.91,-253.77 121,-274.75 123.73,-276.48 126.61,-278.06 129.59,-279.51"/>
<polygon fill="#63b8ff" stroke="#63b8ff" points="128.03,-282.65 138.61,-283.34 130.77,-276.21 128.03,-282.65"/>
</a>
</g>
</g>
<!-- Node9 -->
<g id="Node000009" class="node">
<title>Node9</title>
<g id="a_Node000009"><a xlink:href="adapter_8c.html#a74b46c574ae26bb9f527b6b157cb644e" target="_top" xlink:title=" ">
<polygon fill="white" stroke="#666666" points="257.75,-266.12 130.75,-266.12 130.75,-245.38 257.75,-245.38 257.75,-266.12"/>
<text text-anchor="middle" x="194.25" y="-252.62" font-family="Helvetica,sans-Serif" font-size="10.00">vlcb_net_adpt_ErrToStr</text>
</a>
</g>
</g>
<!-- Node1&#45;&gt;Node9 -->
<g id="edge8_Node000001_Node000009" class="edge">
<title>Node1&#45;&gt;Node9</title>
<g id="a_edge8_Node000001_Node000009"><a xlink:title=" ">
<path fill="none" stroke="#63b8ff" d="M56.68,-195.62C71.48,-207.33 96.63,-225.75 121,-236.75 124.71,-238.42 128.59,-239.97 132.54,-241.4"/>
<polygon fill="#63b8ff" stroke="#63b8ff" points="131.1,-244.61 141.7,-244.43 133.3,-237.96 131.1,-244.61"/>
</a>
</g>
</g>
<!-- Node10 -->
<g id="Node000010" class="node">
<title>Node10</title>
<g id="a_Node000010"><a xlink:href="socket_8h.html#af1798c6232affacea2af6454ee98581d" target="_top" xlink:title=" ">
<polygon fill="white" stroke="#666666" points="267.5,-227.5 121,-227.5 121,-194 267.5,-194 267.5,-227.5"/>
<text text-anchor="start" x="129" y="-214" font-family="Helvetica,sans-Serif" font-size="10.00">vlcb_net_sock_DispatchErr</text>
<text text-anchor="middle" x="194.25" y="-201.25" font-family="Helvetica,sans-Serif" font-size="10.00">ToStr</text>
</a>
</g>
</g>
<!-- Node1&#45;&gt;Node10 -->
<g id="edge9_Node000001_Node000010" class="edge">
<title>Node1&#45;&gt;Node10</title>
<g id="a_edge9_Node000001_Node000010"><a xlink:title=" ">
<path fill="none" stroke="#63b8ff" d="M85.21,-191.99C92.77,-193.3 100.89,-194.71 109.16,-196.15"/>
<polygon fill="#63b8ff" stroke="#63b8ff" points="108.56,-199.6 119.01,-197.86 109.76,-192.7 108.56,-199.6"/>
</a>
</g>
</g>
<!-- Node11 -->
<g id="Node000011" class="node">
<title>Node11</title>
<g id="a_Node000011"><a xlink:href="socket_8c.html#a9401eccd14dd3acd44764c5e8a05beaf" target="_top" xlink:title=" ">
<polygon fill="white" stroke="#666666" points="246.88,-175.5 141.62,-175.5 141.62,-142 246.88,-142 246.88,-175.5"/>
<text text-anchor="start" x="149.62" y="-162" font-family="Helvetica,sans-Serif" font-size="10.00">vlcb_net_sock_list</text>
<text text-anchor="middle" x="194.25" y="-149.25" font-family="Helvetica,sans-Serif" font-size="10.00">_GetIterator</text>
</a>
</g>
</g>
<!-- Node1&#45;&gt;Node11 -->
<g id="edge10_Node000001_Node000011" class="edge">
<title>Node1&#45;&gt;Node11</title>
<g id="a_edge10_Node000001_Node000011"><a xlink:title=" ">
<path fill="none" stroke="#63b8ff" d="M85.21,-177.51C99.21,-175.08 115.15,-172.31 130.4,-169.66"/>
<polygon fill="#63b8ff" stroke="#63b8ff" points="130.6,-173.18 139.85,-168.02 129.4,-166.28 130.6,-173.18"/>
</a>
</g>
</g>
<!-- Node12 -->
<g id="Node000012" class="node">
<title>Node12</title>
<g id="a_Node000012"><a xlink:href="socket_8c.html#a176c72971ceb14a338d824d7a3bb0fac" target="_top" xlink:title=" ">
<polygon fill="white" stroke="#666666" points="436.12,-108.5 330.88,-108.5 330.88,-75 436.12,-75 436.12,-108.5"/>
<text text-anchor="start" x="338.88" y="-95" font-family="Helvetica,sans-Serif" font-size="10.00">vlcb_net_sock_list</text>
<text text-anchor="middle" x="383.5" y="-82.25" font-family="Helvetica,sans-Serif" font-size="10.00">_iter_HasNext</text>
</a>
</g>
</g>
<!-- Node1&#45;&gt;Node12 -->
<g id="edge11_Node000001_Node000012" class="edge">
<title>Node1&#45;&gt;Node12</title>
<g id="a_edge11_Node000001_Node000012"><a xlink:title=" ">
<path fill="none" stroke="#63b8ff" d="M55.69,-174.06C70.2,-161.97 95.65,-142.68 121,-132.75 185.62,-107.45 264.99,-97.73 319.23,-94.01"/>
<polygon fill="#63b8ff" stroke="#63b8ff" points="319.14,-97.53 328.9,-93.4 318.7,-90.54 319.14,-97.53"/>
</a>
</g>
</g>
<!-- Node13 -->
<g id="Node000013" class="node">
<title>Node13</title>
<g id="a_Node000013"><a xlink:href="socket_8c.html#a81bef9c5afd9ccbb9d0a52b2ae1da9b2" target="_top" xlink:title=" ">
<polygon fill="white" stroke="#666666" points="246.88,-85.5 141.62,-85.5 141.62,-52 246.88,-52 246.88,-85.5"/>
<text text-anchor="start" x="149.62" y="-72" font-family="Helvetica,sans-Serif" font-size="10.00">vlcb_net_sock_list</text>
<text text-anchor="middle" x="194.25" y="-59.25" font-family="Helvetica,sans-Serif" font-size="10.00">_iter_Next</text>
</a>
</g>
</g>
<!-- Node1&#45;&gt;Node13 -->
<g id="edge12_Node000001_Node000013" class="edge">
<title>Node1&#45;&gt;Node13</title>
<g id="a_edge12_Node000001_Node000013"><a xlink:title=" ">
<path fill="none" stroke="#63b8ff" d="M50.93,-173.99C63.54,-156.4 90.73,-121.28 121,-99.75 125.42,-96.6 130.22,-93.68 135.16,-91"/>
<polygon fill="#63b8ff" stroke="#63b8ff" points="136.73,-94.13 144.09,-86.5 133.58,-87.88 136.73,-94.13"/>
</a>
</g>
</g>
<!-- Node14 -->
<g id="Node000014" class="node">
<title>Node14</title>
<g id="a_Node000014"><a xlink:href="socket_8h.html#abc6ab24adb81104732076d7fe4bcda01" target="_top" xlink:title=" ">
<polygon fill="white" stroke="#666666" points="255.5,-33.5 133,-33.5 133,0 255.5,0 255.5,-33.5"/>
<text text-anchor="start" x="141" y="-20" font-family="Helvetica,sans-Serif" font-size="10.00">vlcb_net_sock_packet</text>
<text text-anchor="middle" x="194.25" y="-7.25" font-family="Helvetica,sans-Serif" font-size="10.00">_token_Refuse</text>
</a>
</g>
</g>
<!-- Node1&#45;&gt;Node14 -->
<g id="edge14_Node000001_Node000014" class="edge">
<title>Node1&#45;&gt;Node14</title>
<g id="a_edge14_Node000001_Node000014"><a xlink:title=" ">
<path fill="none" stroke="#63b8ff" d="M46.41,-174.17C54.11,-148.06 77.49,-80.02 121,-42.75 122.11,-41.8 123.26,-40.88 124.44,-40"/>
<polygon fill="#63b8ff" stroke="#63b8ff" points="126.24,-43 132.76,-34.65 122.45,-37.11 126.24,-43"/>
</a>
</g>
</g>
<!-- Node3 -->
<g id="Node000003" class="node">
<title>Node3</title>
<g id="a_Node000003"><a xlink:href="addr_8h.html#a83d3f92953278599a373c60afe6806c6" target="_top" xlink:title=" ">
<polygon fill="white" stroke="#666666" points="463.5,-422.12 303.5,-422.12 303.5,-401.38 463.5,-401.38 463.5,-422.12"/>
<text text-anchor="middle" x="383.5" y="-408.62" font-family="Helvetica,sans-Serif" font-size="10.00">vlcb_net_IsWireEndpointValid</text>
</a>
</g>
</g>
<!-- Node2&#45;&gt;Node3 -->
<g id="edge2_Node000002_Node000003" class="edge">
<title>Node2&#45;&gt;Node3</title>
<g id="a_edge2_Node000002_Node000003"><a xlink:title=" ">
<path fill="none" stroke="#63b8ff" d="M224.42,-366.55C246.07,-374.36 276.42,-384.88 303.5,-392.75 309.84,-394.59 316.49,-396.39 323.14,-398.11"/>
<polygon fill="#63b8ff" stroke="#63b8ff" points="322.25,-401.49 332.8,-400.54 323.96,-394.7 322.25,-401.49"/>
</a>
</g>
</g>
<!-- Node4 -->
<g id="Node000004" class="node">
<title>Node4</title>
<g id="a_Node000004"><a xlink:href="packet__buf_8c.html#a029619a9922642b39c89b7f3da28ce70" target="_top" xlink:title=" ">
<polygon fill="white" stroke="#666666" points="438.75,-383.5 328.25,-383.5 328.25,-350 438.75,-350 438.75,-383.5"/>
<text text-anchor="start" x="336.25" y="-370" font-family="Helvetica,sans-Serif" font-size="10.00">vlcb_net_packetbuf</text>
<text text-anchor="middle" x="383.5" y="-357.25" font-family="Helvetica,sans-Serif" font-size="10.00">_PopDeferred</text>
</a>
</g>
</g>
<!-- Node2&#45;&gt;Node4 -->
<g id="edge3_Node000002_Node000004" class="edge">
<title>Node2&#45;&gt;Node4</title>
<g id="a_edge3_Node000002_Node000004"><a xlink:title=" ">
<path fill="none" stroke="#63b8ff" d="M239.63,-358.36C262.6,-359.71 291.11,-361.38 316.61,-362.88"/>
<polygon fill="#63b8ff" stroke="#63b8ff" points="316.38,-366.37 326.57,-363.46 316.79,-359.38 316.38,-366.37"/>
</a>
</g>
</g>
<!-- Node6 -->
<g id="Node000006" class="node">
<title>Node6</title>
<g id="a_Node000006"><a xlink:href="vlcb_8c.html#a6f58b6fc33b3f723dd7254df2648a6e1" target="_top" xlink:title=" ">
<polygon fill="white" stroke="#666666" points="462.75,-332.12 304.25,-332.12 304.25,-311.38 462.75,-311.38 462.75,-332.12"/>
<text text-anchor="middle" x="383.5" y="-318.62" font-family="Helvetica,sans-Serif" font-size="10.00">vlcb_net_pkt_NewUnchecked</text>
</a>
</g>
</g>
<!-- Node2&#45;&gt;Node6 -->
<g id="edge5_Node000002_Node000006" class="edge">
<title>Node2&#45;&gt;Node6</title>
<g id="a_edge5_Node000002_Node000006"><a xlink:title=" ">
<path fill="none" stroke="#63b8ff" d="M239.63,-347.69C261.1,-343.79 287.4,-339.02 311.57,-334.63"/>
<polygon fill="#63b8ff" stroke="#63b8ff" points="312.15,-338.08 321.37,-332.85 310.9,-331.19 312.15,-338.08"/>
</a>
</g>
</g>
<!-- Node5 -->
<g id="Node000005" class="node">
<title>Node5</title>
<g id="a_Node000005"><a xlink:href="packet__buf_8c.html#a3901c362d723ea046af64e2b96ad24b6" target="_top" xlink:title=" ">
<polygon fill="white" stroke="#666666" points="610,-383.5 499.5,-383.5 499.5,-350 610,-350 610,-383.5"/>
<text text-anchor="start" x="507.5" y="-370" font-family="Helvetica,sans-Serif" font-size="10.00">vlcb_net_packetbuf</text>
<text text-anchor="middle" x="554.75" y="-357.25" font-family="Helvetica,sans-Serif" font-size="10.00">_IsEmpty</text>
</a>
</g>
</g>
<!-- Node4&#45;&gt;Node5 -->
<g id="edge4_Node000004_Node000005" class="edge">
<title>Node4&#45;&gt;Node5</title>
<g id="a_edge4_Node000004_Node000005"><a xlink:title=" ">
<path fill="none" stroke="#63b8ff" d="M438.98,-366.75C454.46,-366.75 471.48,-366.75 487.57,-366.75"/>
<polygon fill="#63b8ff" stroke="#63b8ff" points="487.57,-370.25 497.57,-366.75 487.57,-363.25 487.57,-370.25"/>
</a>
</g>
</g>
<!-- Node8 -->
<g id="Node000008" class="node">
<title>Node8</title>
<g id="a_Node000008"><a xlink:href="iface__can_8c.html#a76a59452e911a2f524037904fd59f0bf" target="_top" xlink:title=" ">
<polygon fill="white" stroke="#666666" points="438,-293.12 329,-293.12 329,-272.38 438,-272.38 438,-293.12"/>
<text text-anchor="middle" x="383.5" y="-279.62" font-family="Helvetica,sans-Serif" font-size="10.00">DispatchCanPacket</text>
</a>
</g>
</g>
<!-- Node7&#45;&gt;Node8 -->
<g id="edge7_Node000007_Node000008" class="edge">
<title>Node7&#45;&gt;Node8</title>
<g id="a_edge7_Node000007_Node000008"><a xlink:title=" ">
<path fill="none" stroke="#63b8ff" d="M250.17,-291.23C271.21,-289.88 295.42,-288.33 317.33,-286.93"/>
<polygon fill="#63b8ff" stroke="#63b8ff" points="317.29,-290.44 327.04,-286.3 316.84,-283.45 317.29,-290.44"/>
</a>
</g>
</g>
<!-- Node13&#45;&gt;Node12 -->
<g id="edge13_Node000013_Node000012" class="edge">
<title>Node13&#45;&gt;Node12</title>
<g id="a_edge13_Node000013_Node000012"><a xlink:title=" ">
<path fill="none" stroke="#63b8ff" d="M246.91,-75.1C269.33,-77.85 295.8,-81.1 319.37,-84"/>
<polygon fill="#63b8ff" stroke="#63b8ff" points="318.83,-87.46 329.18,-85.2 319.68,-80.51 318.83,-87.46"/>
</a>
</g>
</g>
<!-- Node15 -->
<g id="Node000015" class="node">
<title>Node15</title>
<g id="a_Node000015"><a xlink:href="packet__buf_8c.html#aa2023dbabc1a378dc35eb2e8070322cc" target="_top" xlink:title=" ">
<polygon fill="white" stroke="#666666" points="441.38,-33.5 325.62,-33.5 325.62,0 441.38,0 441.38,-33.5"/>
<text text-anchor="start" x="333.62" y="-20" font-family="Helvetica,sans-Serif" font-size="10.00">vlcb_net_packetbuf</text>
<text text-anchor="middle" x="383.5" y="-7.25" font-family="Helvetica,sans-Serif" font-size="10.00">_PopDeferredRefuse</text>
</a>
</g>
</g>
<!-- Node14&#45;&gt;Node15 -->
<g id="edge15_Node000014_Node000015" class="edge">
<title>Node14&#45;&gt;Node15</title>
<g id="a_edge15_Node000014_Node000015"><a xlink:title=" ">
<path fill="none" stroke="#63b8ff" d="M255.79,-16.75C274.37,-16.75 294.94,-16.75 314.02,-16.75"/>
<polygon fill="#63b8ff" stroke="#63b8ff" points="313.84,-20.25 323.84,-16.75 313.84,-13.25 313.84,-20.25"/>
</a>
</g>
</g>
</g>
</svg>
