<?xml version="1.0" encoding="UTF-8" standalone="no"?>
<!DOCTYPE svg PUBLIC "-//W3C//DTD SVG 1.1//EN"
 "http://www.w3.org/Graphics/SVG/1.1/DTD/svg11.dtd">
<!-- Generated by graphviz version 12.1.2 (20240928.0832)
 -->
<!-- Title: iface_can.c Pages: 1 -->
<svg width="851pt" height="426pt"
 viewBox="0.00 0.00 850.88 426.00" xmlns="http://www.w3.org/2000/svg" xmlns:xlink="http://www.w3.org/1999/xlink">
<g id="graph0" class="graph" transform="scale(1 1) rotate(0) translate(4 422)">
<title>iface_can.c</title>
<!-- Node1 -->
<g id="Node000001" class="node">
<title>Node1</title>
<g id="a_Node000001"><a xlink:title=" ">
<polygon fill="#999999" stroke="#666666" points="427.38,-418 356.62,-418 356.62,-397.25 427.38,-397.25 427.38,-418"/>
<text text-anchor="middle" x="392" y="-404.5" font-family="Helvetica,sans-Serif" font-size="10.00">iface_can.c</text>
</a>
</g>
</g>
<!-- Node2 -->
<g id="Node000002" class="node">
<title>Node2</title>
<g id="a_Node000002"><a xlink:title=" ">
<polygon fill="#e0e0e0" stroke="#999999" points="259.5,-77.5 198.5,-77.5 198.5,-56.75 259.5,-56.75 259.5,-77.5"/>
<text text-anchor="middle" x="229" y="-64" font-family="Helvetica,sans-Serif" font-size="10.00">stdbool.h</text>
</a>
</g>
</g>
<!-- Node1&#45;&gt;Node2 -->
<g id="edge1_Node000001_Node000002" class="edge">
<title>Node1&#45;&gt;Node2</title>
<g id="a_edge1_Node000001_Node000002"><a xlink:title=" ">
<path fill="none" stroke="#63b8ff" d="M356.17,-404.12C259.4,-396.39 0,-368.8 0,-295.12 0,-295.12 0,-295.12 0,-179.62 0,-97.45 120.68,-75.82 186.83,-70.14"/>
<polygon fill="#63b8ff" stroke="#63b8ff" points="186.9,-73.65 196.61,-69.4 186.37,-66.67 186.9,-73.65"/>
</a>
</g>
</g>
<!-- Node3 -->
<g id="Node000003" class="node">
<title>Node3</title>
<g id="a_Node000003"><a xlink:title=" ">
<polygon fill="#e0e0e0" stroke="#999999" points="197.5,-134.25 142.5,-134.25 142.5,-113.5 197.5,-113.5 197.5,-134.25"/>
<text text-anchor="middle" x="170" y="-120.75" font-family="Helvetica,sans-Serif" font-size="10.00">stddef.h</text>
</a>
</g>
</g>
<!-- Node1&#45;&gt;Node3 -->
<g id="edge2_Node000001_Node000003" class="edge">
<title>Node1&#45;&gt;Node3</title>
<g id="a_edge2_Node000001_Node000003"><a xlink:title=" ">
<path fill="none" stroke="#63b8ff" d="M356.37,-401.77C273.72,-389.51 76,-354.03 76,-295.12 76,-295.12 76,-295.12 76,-236.38 76,-194.21 115.79,-159.71 143.59,-140.76"/>
<polygon fill="#63b8ff" stroke="#63b8ff" points="145.46,-143.71 151.93,-135.32 141.64,-137.85 145.46,-143.71"/>
</a>
</g>
</g>
<!-- Node4 -->
<g id="Node000004" class="node">
<title>Node4</title>
<g id="a_Node000004"><a xlink:title=" ">
<polygon fill="#e0e0e0" stroke="#999999" points="332.38,-361.25 279.62,-361.25 279.62,-340.5 332.38,-340.5 332.38,-361.25"/>
<text text-anchor="middle" x="306" y="-347.75" font-family="Helvetica,sans-Serif" font-size="10.00">string.h</text>
</a>
</g>
</g>
<!-- Node1&#45;&gt;Node4 -->
<g id="edge3_Node000001_Node000004" class="edge">
<title>Node1&#45;&gt;Node4</title>
<g id="a_edge3_Node000001_Node000004"><a xlink:title=" ">
<path fill="none" stroke="#63b8ff" d="M376.62,-396.84C363.91,-388.74 345.6,-377.08 330.81,-367.67"/>
<polygon fill="#63b8ff" stroke="#63b8ff" points="332.83,-364.81 322.52,-362.39 329.07,-370.71 332.83,-364.81"/>
</a>
</g>
</g>
<!-- Node5 -->
<g id="Node000005" class="node">
<title>Node5</title>
<g id="a_Node000005"><a xlink:href="iface__vlcb_8h.html" target="_top" xlink:title=" ">
<polygon fill="white" stroke="#666666" points="462.25,-361.25 387.75,-361.25 387.75,-340.5 462.25,-340.5 462.25,-361.25"/>
<text text-anchor="middle" x="425" y="-347.75" font-family="Helvetica,sans-Serif" font-size="10.00">iface_vlcb.h</text>
</a>
</g>
</g>
<!-- Node1&#45;&gt;Node5 -->
<g id="edge4_Node000001_Node000005" class="edge">
<title>Node1&#45;&gt;Node5</title>
<g id="a_edge4_Node000001_Node000005"><a xlink:title=" ">
<path fill="none" stroke="#63b8ff" d="M397.9,-396.84C402.17,-389.75 408.08,-379.94 413.3,-371.29"/>
<polygon fill="#63b8ff" stroke="#63b8ff" points="416.21,-373.25 418.37,-362.87 410.21,-369.63 416.21,-373.25"/>
</a>
</g>
</g>
<!-- Node6 -->
<g id="Node000006" class="node">
<title>Node6</title>
<g id="a_Node000006"><a xlink:href="iface_8h.html" target="_top" xlink:title=" ">
<polygon fill="white" stroke="#666666" points="396.5,-304.5 305.5,-304.5 305.5,-283.75 396.5,-283.75 396.5,-304.5"/>
<text text-anchor="middle" x="351" y="-291" font-family="Helvetica,sans-Serif" font-size="10.00">vlcb/net/iface.h</text>
</a>
</g>
</g>
<!-- Node1&#45;&gt;Node6 -->
<g id="edge35_Node000001_Node000006" class="edge">
<title>Node1&#45;&gt;Node6</title>
<g id="a_edge35_Node000001_Node000006"><a xlink:title=" ">
<path fill="none" stroke="#63b8ff" d="M388.5,-397.12C381.88,-379.11 367.37,-339.64 358.47,-315.43"/>
<polygon fill="#63b8ff" stroke="#63b8ff" points="361.86,-314.52 355.13,-306.35 355.29,-316.94 361.86,-314.52"/>
</a>
</g>
</g>
<!-- Node7 -->
<g id="Node000007" class="node">
<title>Node7</title>
<g id="a_Node000007"><a xlink:href="adapter_8h.html" target="_top" xlink:title=" ">
<polygon fill="white" stroke="#666666" points="446.88,-247.75 385.12,-247.75 385.12,-227 446.88,-227 446.88,-247.75"/>
<text text-anchor="middle" x="416" y="-234.25" font-family="Helvetica,sans-Serif" font-size="10.00">adapter.h</text>
</a>
</g>
</g>
<!-- Node1&#45;&gt;Node7 -->
<g id="edge34_Node000001_Node000007" class="edge">
<title>Node1&#45;&gt;Node7</title>
<g id="a_edge34_Node000001_Node000007"><a xlink:title=" ">
<path fill="none" stroke="#63b8ff" d="M424.3,-396.91C441.42,-389.94 460.94,-378.63 471,-361.25 491.75,-325.4 457.41,-280.29 434.31,-255.93"/>
<polygon fill="#63b8ff" stroke="#63b8ff" points="437.01,-253.69 427.49,-249.03 432.03,-258.6 437.01,-253.69"/>
</a>
</g>
</g>
<!-- Node17 -->
<g id="Node000017" class="node">
<title>Node17</title>
<g id="a_Node000017"><a xlink:href="vlcb_8h.html" target="_top" xlink:title=" ">
<polygon fill="white" stroke="#666666" points="732.25,-191 651.75,-191 651.75,-170.25 732.25,-170.25 732.25,-191"/>
<text text-anchor="middle" x="692" y="-177.5" font-family="Helvetica,sans-Serif" font-size="10.00">packet/vlcb.h</text>
</a>
</g>
</g>
<!-- Node1&#45;&gt;Node17 -->
<g id="edge36_Node000001_Node000017" class="edge">
<title>Node1&#45;&gt;Node17</title>
<g id="a_edge36_Node000001_Node000017"><a xlink:title=" ">
<path fill="none" stroke="#63b8ff" d="M417.49,-396.88C437.45,-388.72 465.51,-376.04 488,-361.25 564.37,-311.03 641.96,-233.97 675.2,-199.44"/>
<polygon fill="#63b8ff" stroke="#63b8ff" points="677.6,-202 681.97,-192.35 672.54,-197.16 677.6,-202"/>
</a>
</g>
</g>
<!-- Node18 -->
<g id="Node000018" class="node">
<title>Node18</title>
<g id="a_Node000018"><a xlink:href="log_8h.html" target="_top" xlink:title=" ">
<polygon fill="white" stroke="#666666" points="804.12,-304.5 695.88,-304.5 695.88,-283.75 804.12,-283.75 804.12,-304.5"/>
<text text-anchor="middle" x="750" y="-291" font-family="Helvetica,sans-Serif" font-size="10.00">vlcb/platform/log.h</text>
</a>
</g>
</g>
<!-- Node1&#45;&gt;Node18 -->
<g id="edge37_Node000001_Node000018" class="edge">
<title>Node1&#45;&gt;Node18</title>
<g id="a_edge37_Node000001_Node000018"><a xlink:title=" ">
<path fill="none" stroke="#63b8ff" d="M427.6,-403.76C475.85,-399.03 564.13,-387.38 635,-361.25 669.1,-348.68 704.87,-326.47 727.28,-311.29"/>
<polygon fill="#63b8ff" stroke="#63b8ff" points="729.1,-314.29 735.34,-305.73 725.12,-308.53 729.1,-314.29"/>
</a>
</g>
</g>
<!-- Node5&#45;&gt;Node6 -->
<g id="edge5_Node000005_Node000006" class="edge">
<title>Node5&#45;&gt;Node6</title>
<g id="a_edge5_Node000005_Node000006"><a xlink:title=" ">
<path fill="none" stroke="#63b8ff" d="M411.77,-340.09C401.04,-332.15 385.68,-320.78 373.08,-311.46"/>
<polygon fill="#63b8ff" stroke="#63b8ff" points="375.45,-308.86 365.33,-305.73 371.29,-314.49 375.45,-308.86"/>
</a>
</g>
</g>
<!-- Node16 -->
<g id="Node000016" class="node">
<title>Node16</title>
<g id="a_Node000016"><a xlink:href="socket_8h.html" target="_top" xlink:title=" ">
<polygon fill="white" stroke="#666666" points="367.25,-247.75 310.75,-247.75 310.75,-227 367.25,-227 367.25,-247.75"/>
<text text-anchor="middle" x="339" y="-234.25" font-family="Helvetica,sans-Serif" font-size="10.00">socket.h</text>
</a>
</g>
</g>
<!-- Node5&#45;&gt;Node16 -->
<g id="edge33_Node000005_Node000016" class="edge">
<title>Node5&#45;&gt;Node16</title>
<g id="a_edge33_Node000005_Node000016"><a xlink:title=" ">
<path fill="none" stroke="#63b8ff" d="M424.31,-340.45C422.89,-326.77 418.63,-301.15 406,-283.75 396.95,-271.28 383.36,-261.16 370.78,-253.68"/>
<polygon fill="#63b8ff" stroke="#63b8ff" points="372.77,-250.78 362.33,-248.98 369.37,-256.9 372.77,-250.78"/>
</a>
</g>
</g>
<!-- Node5&#45;&gt;Node17 -->
<g id="edge32_Node000005_Node000017" class="edge">
<title>Node5&#45;&gt;Node17</title>
<g id="a_edge32_Node000005_Node000017"><a xlink:title=" ">
<path fill="none" stroke="#63b8ff" d="M438.38,-340.13C468.08,-318.68 542.01,-266.14 607,-227 624.98,-216.17 645.77,-205.05 662.28,-196.53"/>
<polygon fill="#63b8ff" stroke="#63b8ff" points="663.78,-199.69 671.09,-192.03 660.6,-193.46 663.78,-199.69"/>
</a>
</g>
</g>
<!-- Node6&#45;&gt;Node2 -->
<g id="edge6_Node000006_Node000002" class="edge">
<title>Node6&#45;&gt;Node2</title>
<g id="a_edge6_Node000006_Node000002"><a xlink:title=" ">
<path fill="none" stroke="#63b8ff" d="M305.02,-283.98C255.26,-271.63 177.23,-244.67 134,-191 112.09,-163.8 101.67,-142.59 121,-113.5 135.66,-91.45 163.34,-80.09 187.01,-74.25"/>
<polygon fill="#63b8ff" stroke="#63b8ff" points="187.72,-77.68 196.75,-72.13 186.23,-70.84 187.72,-77.68"/>
</a>
</g>
</g>
<!-- Node6&#45;&gt;Node7 -->
<g id="edge7_Node000006_Node000007" class="edge">
<title>Node6&#45;&gt;Node7</title>
<g id="a_edge7_Node000006_Node000007"><a xlink:title=" ">
<path fill="none" stroke="#63b8ff" d="M362.62,-283.34C371.86,-275.55 385.01,-264.47 395.95,-255.26"/>
<polygon fill="#63b8ff" stroke="#63b8ff" points="397.93,-258.17 403.32,-249.05 393.42,-252.82 397.93,-258.17"/>
</a>
</g>
</g>
<!-- Node6&#45;&gt;Node16 -->
<g id="edge23_Node000006_Node000016" class="edge">
<title>Node6&#45;&gt;Node16</title>
<g id="a_edge23_Node000006_Node000016"><a xlink:title=" ">
<path fill="none" stroke="#63b8ff" d="M348.85,-283.34C347.39,-276.64 345.39,-267.51 343.57,-259.23"/>
<polygon fill="#63b8ff" stroke="#63b8ff" points="347.01,-258.58 341.45,-249.56 340.17,-260.07 347.01,-258.58"/>
</a>
</g>
</g>
<!-- Node7&#45;&gt;Node2 -->
<g id="edge9_Node000007_Node000002" class="edge">
<title>Node7&#45;&gt;Node2</title>
<g id="a_edge9_Node000007_Node000002"><a xlink:title=" ">
<path fill="none" stroke="#63b8ff" d="M404.53,-226.75C393.73,-217.64 377.14,-203.53 363,-191 321.16,-153.92 273.07,-109.33 247.41,-85.37"/>
<polygon fill="#63b8ff" stroke="#63b8ff" points="250.12,-83.11 240.42,-78.84 245.33,-88.23 250.12,-83.11"/>
</a>
</g>
</g>
<!-- Node8 -->
<g id="Node000008" class="node">
<title>Node8</title>
<g id="a_Node000008"><a xlink:title=" ">
<polygon fill="#e0e0e0" stroke="#999999" points="640.38,-77.5 575.62,-77.5 575.62,-56.75 640.38,-56.75 640.38,-77.5"/>
<text text-anchor="middle" x="608" y="-64" font-family="Helvetica,sans-Serif" font-size="10.00">inttypes.h</text>
</a>
</g>
</g>
<!-- Node7&#45;&gt;Node8 -->
<g id="edge8_Node000007_Node000008" class="edge">
<title>Node7&#45;&gt;Node8</title>
<g id="a_edge8_Node000007_Node000008"><a xlink:title=" ">
<path fill="none" stroke="#63b8ff" d="M447.03,-229.95C499.36,-218.98 599.99,-197.2 605,-191 628.39,-162.06 621.31,-115.53 614.41,-88.81"/>
<polygon fill="#63b8ff" stroke="#63b8ff" points="617.78,-87.87 611.69,-79.2 611.05,-89.78 617.78,-87.87"/>
</a>
</g>
</g>
<!-- Node9 -->
<g id="Node000009" class="node">
<title>Node9</title>
<g id="a_Node000009"><a xlink:href="error_8h.html" target="_top" xlink:title=" ">
<polygon fill="white" stroke="#666666" points="842.88,-134.25 727.12,-134.25 727.12,-113.5 842.88,-113.5 842.88,-134.25"/>
<text text-anchor="middle" x="785" y="-120.75" font-family="Helvetica,sans-Serif" font-size="10.00">vlcb/platform/error.h</text>
</a>
</g>
</g>
<!-- Node7&#45;&gt;Node9 -->
<g id="edge10_Node000007_Node000009" class="edge">
<title>Node7&#45;&gt;Node9</title>
<g id="a_edge10_Node000007_Node000009"><a xlink:title=" ">
<path fill="none" stroke="#63b8ff" d="M447.31,-235.23C518.96,-232.12 692.41,-221.55 741,-191 758.12,-180.24 770.06,-160.11 777.14,-144.88"/>
<polygon fill="#63b8ff" stroke="#63b8ff" points="780.31,-146.38 781.02,-135.81 773.87,-143.63 780.31,-146.38"/>
</a>
</g>
</g>
<!-- Node10 -->
<g id="Node000010" class="node">
<title>Node10</title>
<g id="a_Node000010"><a xlink:href="interface_8h.html" target="_top" xlink:title=" ">
<polygon fill="white" stroke="#666666" points="316.38,-191 179.62,-191 179.62,-170.25 316.38,-170.25 316.38,-191"/>
<text text-anchor="middle" x="248" y="-177.5" font-family="Helvetica,sans-Serif" font-size="10.00">vlcb/platform/interface.h</text>
</a>
</g>
</g>
<!-- Node7&#45;&gt;Node10 -->
<g id="edge11_Node000007_Node000010" class="edge">
<title>Node7&#45;&gt;Node10</title>
<g id="a_edge11_Node000007_Node000010"><a xlink:title=" ">
<path fill="none" stroke="#63b8ff" d="M385.96,-226.59C358.81,-217.74 318.62,-204.64 288.61,-194.86"/>
<polygon fill="#63b8ff" stroke="#63b8ff" points="290.09,-191.66 279.5,-191.89 287.92,-198.32 290.09,-191.66"/>
</a>
</g>
</g>
<!-- Node11 -->
<g id="Node000011" class="node">
<title>Node11</title>
<g id="a_Node000011"><a xlink:href="packet_8h.html" target="_top" xlink:title=" ">
<polygon fill="white" stroke="#666666" points="596,-191 478,-191 478,-170.25 596,-170.25 596,-191"/>
<text text-anchor="middle" x="537" y="-177.5" font-family="Helvetica,sans-Serif" font-size="10.00">adapter/can/packet.h</text>
</a>
</g>
</g>
<!-- Node7&#45;&gt;Node11 -->
<g id="edge13_Node000007_Node000011" class="edge">
<title>Node7&#45;&gt;Node11</title>
<g id="a_edge13_Node000007_Node000011"><a xlink:title=" ">
<path fill="none" stroke="#63b8ff" d="M437.63,-226.59C456.47,-218.06 484.04,-205.59 505.36,-195.94"/>
<polygon fill="#63b8ff" stroke="#63b8ff" points="506.51,-199.26 514.18,-191.95 503.62,-192.89 506.51,-199.26"/>
</a>
</g>
</g>
<!-- Node15 -->
<g id="Node000015" class="node">
<title>Node15</title>
<g id="a_Node000015"><a xlink:href="addr_8h.html" target="_top" xlink:title=" ">
<polygon fill="white" stroke="#666666" points="460,-191 372,-191 372,-170.25 460,-170.25 460,-191"/>
<text text-anchor="middle" x="416" y="-177.5" font-family="Helvetica,sans-Serif" font-size="10.00">vlcb/net/addr.h</text>
</a>
</g>
</g>
<!-- Node7&#45;&gt;Node15 -->
<g id="edge21_Node000007_Node000015" class="edge">
<title>Node7&#45;&gt;Node15</title>
<g id="a_edge21_Node000007_Node000015"><a xlink:title=" ">
<path fill="none" stroke="#63b8ff" d="M416,-226.59C416,-219.97 416,-210.97 416,-202.77"/>
<polygon fill="#63b8ff" stroke="#63b8ff" points="419.5,-202.84 416,-192.84 412.5,-202.84 419.5,-202.84"/>
</a>
</g>
</g>
<!-- Node10&#45;&gt;Node3 -->
<g id="edge12_Node000010_Node000003" class="edge">
<title>Node10&#45;&gt;Node3</title>
<g id="a_edge12_Node000010_Node000003"><a xlink:title=" ">
<path fill="none" stroke="#63b8ff" d="M234.06,-169.84C222.63,-161.82 206.23,-150.31 192.89,-140.94"/>
<polygon fill="#63b8ff" stroke="#63b8ff" points="195.26,-138.33 185.06,-135.45 191.24,-144.06 195.26,-138.33"/>
</a>
</g>
</g>
<!-- Node11&#45;&gt;Node2 -->
<g id="edge14_Node000011_Node000002" class="edge">
<title>Node11&#45;&gt;Node2</title>
<g id="a_edge14_Node000011_Node000002"><a xlink:title=" ">
<path fill="none" stroke="#63b8ff" d="M510.96,-169.86C476.16,-156.84 412.54,-133.16 358,-113.5 327.85,-102.63 293.61,-90.6 268,-81.66"/>
<polygon fill="#63b8ff" stroke="#63b8ff" points="269.25,-78.4 258.66,-78.41 266.95,-85.01 269.25,-78.4"/>
</a>
</g>
</g>
<!-- Node12 -->
<g id="Node000012" class="node">
<title>Node12</title>
<g id="a_Node000012"><a xlink:href="common_2inc_2vlcb_2common_2can_8h.html" target="_top" xlink:title=" ">
<polygon fill="white" stroke="#666666" points="593.62,-134.25 482.38,-134.25 482.38,-113.5 593.62,-113.5 593.62,-134.25"/>
<text text-anchor="middle" x="538" y="-120.75" font-family="Helvetica,sans-Serif" font-size="10.00">vlcb/common/can.h</text>
</a>
</g>
</g>
<!-- Node11&#45;&gt;Node12 -->
<g id="edge15_Node000011_Node000012" class="edge">
<title>Node11&#45;&gt;Node12</title>
<g id="a_edge15_Node000011_Node000012"><a xlink:title=" ">
<path fill="none" stroke="#63b8ff" d="M537.18,-169.84C537.3,-163.22 537.46,-154.22 537.61,-146.02"/>
<polygon fill="#63b8ff" stroke="#63b8ff" points="541.11,-146.15 537.8,-136.09 534.11,-146.03 541.11,-146.15"/>
</a>
</g>
</g>
<!-- Node12&#45;&gt;Node2 -->
<g id="edge17_Node000012_Node000002" class="edge">
<title>Node12&#45;&gt;Node2</title>
<g id="a_edge17_Node000012_Node000002"><a xlink:title=" ">
<path fill="none" stroke="#63b8ff" d="M482.4,-113.02C421.57,-102.25 325.45,-85.21 270.74,-75.52"/>
<polygon fill="#63b8ff" stroke="#63b8ff" points="271.67,-72.13 261.21,-73.83 270.45,-79.02 271.67,-72.13"/>
</a>
</g>
</g>
<!-- Node12&#45;&gt;Node8 -->
<g id="edge16_Node000012_Node000008" class="edge">
<title>Node12&#45;&gt;Node8</title>
<g id="a_edge16_Node000012_Node000008"><a xlink:title=" ">
<path fill="none" stroke="#63b8ff" d="M550.51,-113.09C560.57,-105.22 574.91,-94 586.76,-84.74"/>
<polygon fill="#63b8ff" stroke="#63b8ff" points="588.68,-87.68 594.4,-78.76 584.37,-82.16 588.68,-87.68"/>
</a>
</g>
</g>
<!-- Node13 -->
<g id="Node000013" class="node">
<title>Node13</title>
<g id="a_Node000013"><a xlink:title=" ">
<polygon fill="#e0e0e0" stroke="#999999" points="643.38,-20.75 590.62,-20.75 590.62,0 643.38,0 643.38,-20.75"/>
<text text-anchor="middle" x="617" y="-7.25" font-family="Helvetica,sans-Serif" font-size="10.00">stdint.h</text>
</a>
</g>
</g>
<!-- Node12&#45;&gt;Node13 -->
<g id="edge18_Node000012_Node000013" class="edge">
<title>Node12&#45;&gt;Node13</title>
<g id="a_edge18_Node000012_Node000013"><a xlink:title=" ">
<path fill="none" stroke="#63b8ff" d="M540.81,-113.24C545.04,-99.76 553.97,-74.86 567,-56.75 574.7,-46.04 585.29,-35.99 594.74,-28.07"/>
<polygon fill="#63b8ff" stroke="#63b8ff" points="596.86,-30.86 602.48,-21.88 592.49,-25.39 596.86,-30.86"/>
</a>
</g>
</g>
<!-- Node14 -->
<g id="Node000014" class="node">
<title>Node14</title>
<g id="a_Node000014"><a xlink:href="vlcb__defs_8h.html" target="_top" xlink:title=" ">
<polygon fill="white" stroke="#666666" points="729.75,-77.5 658.25,-77.5 658.25,-56.75 729.75,-56.75 729.75,-77.5"/>
<text text-anchor="middle" x="694" y="-64" font-family="Helvetica,sans-Serif" font-size="10.00">vlcb_defs.h</text>
</a>
</g>
</g>
<!-- Node12&#45;&gt;Node14 -->
<g id="edge19_Node000012_Node000014" class="edge">
<title>Node12&#45;&gt;Node14</title>
<g id="a_edge19_Node000012_Node000014"><a xlink:title=" ">
<path fill="none" stroke="#63b8ff" d="M565.89,-113.09C590.88,-104.32 627.77,-91.37 655.56,-81.62"/>
<polygon fill="#63b8ff" stroke="#63b8ff" points="656.38,-85.04 664.66,-78.42 654.07,-78.43 656.38,-85.04"/>
</a>
</g>
</g>
<!-- Node14&#45;&gt;Node13 -->
<g id="edge20_Node000014_Node000013" class="edge">
<title>Node14&#45;&gt;Node13</title>
<g id="a_edge20_Node000014_Node000013"><a xlink:title=" ">
<path fill="none" stroke="#63b8ff" d="M680.23,-56.34C669.07,-48.4 653.08,-37.03 639.98,-27.71"/>
<polygon fill="#63b8ff" stroke="#63b8ff" points="642.06,-24.9 631.88,-21.96 638,-30.6 642.06,-24.9"/>
</a>
</g>
</g>
<!-- Node15&#45;&gt;Node12 -->
<g id="edge22_Node000015_Node000012" class="edge">
<title>Node15&#45;&gt;Node12</title>
<g id="a_edge22_Node000015_Node000012"><a xlink:title=" ">
<path fill="none" stroke="#63b8ff" d="M437.81,-169.84C456.81,-161.31 484.6,-148.84 506.09,-139.19"/>
<polygon fill="#63b8ff" stroke="#63b8ff" points="507.31,-142.49 515,-135.2 504.44,-136.1 507.31,-142.49"/>
</a>
</g>
</g>
<!-- Node16&#45;&gt;Node2 -->
<g id="edge24_Node000016_Node000002" class="edge">
<title>Node16&#45;&gt;Node2</title>
<g id="a_edge24_Node000016_Node000002"><a xlink:title=" ">
<path fill="none" stroke="#63b8ff" d="M310.35,-236.49C271.72,-235.17 202.72,-227.39 159,-191 131.07,-167.76 113.56,-144.19 133,-113.5 144.99,-94.58 167.22,-83.4 187.27,-76.87"/>
<polygon fill="#63b8ff" stroke="#63b8ff" points="188.04,-80.29 196.66,-74.13 186.08,-73.57 188.04,-80.29"/>
</a>
</g>
</g>
<!-- Node16&#45;&gt;Node3 -->
<g id="edge25_Node000016_Node000003" class="edge">
<title>Node16&#45;&gt;Node3</title>
<g id="a_edge25_Node000016_Node000003"><a xlink:title=" ">
<path fill="none" stroke="#63b8ff" d="M310.3,-232.78C266.96,-226.71 188.02,-212.88 171,-191 161.19,-178.38 161.75,-159.93 164.31,-145.73"/>
<polygon fill="#63b8ff" stroke="#63b8ff" points="167.7,-146.59 166.52,-136.06 160.88,-145.03 167.7,-146.59"/>
</a>
</g>
</g>
<!-- Node16&#45;&gt;Node10 -->
<g id="edge31_Node000016_Node000010" class="edge">
<title>Node16&#45;&gt;Node10</title>
<g id="a_edge31_Node000016_Node000010"><a xlink:title=" ">
<path fill="none" stroke="#63b8ff" d="M322.73,-226.59C309.14,-218.41 289.53,-206.61 273.8,-197.15"/>
<polygon fill="#63b8ff" stroke="#63b8ff" points="275.8,-194.27 265.43,-192.11 272.19,-200.26 275.8,-194.27"/>
</a>
</g>
</g>
<!-- Node16&#45;&gt;Node15 -->
<g id="edge30_Node000016_Node000015" class="edge">
<title>Node16&#45;&gt;Node15</title>
<g id="a_edge30_Node000016_Node000015"><a xlink:title=" ">
<path fill="none" stroke="#63b8ff" d="M352.77,-226.59C363.93,-218.65 379.92,-207.28 393.02,-197.96"/>
<polygon fill="#63b8ff" stroke="#63b8ff" points="395,-200.85 401.12,-192.21 390.94,-195.15 395,-200.85"/>
</a>
</g>
</g>
<!-- Node16&#45;&gt;Node17 -->
<g id="edge26_Node000016_Node000017" class="edge">
<title>Node16&#45;&gt;Node17</title>
<g id="a_edge26_Node000016_Node000017"><a xlink:title=" ">
<path fill="none" stroke="#63b8ff" d="M367.62,-228.81C370.44,-228.16 373.27,-227.54 376,-227 468.39,-208.72 577.35,-194.71 640.18,-187.36"/>
<polygon fill="#63b8ff" stroke="#63b8ff" points="640.33,-190.87 649.86,-186.24 639.52,-183.92 640.33,-190.87"/>
</a>
</g>
</g>
<!-- Node17&#45;&gt;Node8 -->
<g id="edge27_Node000017_Node000008" class="edge">
<title>Node17&#45;&gt;Node8</title>
<g id="a_edge27_Node000017_Node000008"><a xlink:title=" ">
<path fill="none" stroke="#63b8ff" d="M684.84,-170.12C670.96,-151.7 640.18,-110.84 622.07,-86.8"/>
<polygon fill="#63b8ff" stroke="#63b8ff" points="625.11,-85.02 616.29,-79.13 619.52,-89.23 625.11,-85.02"/>
</a>
</g>
</g>
<!-- Node17&#45;&gt;Node9 -->
<g id="edge29_Node000017_Node000009" class="edge">
<title>Node17&#45;&gt;Node9</title>
<g id="a_edge29_Node000017_Node000009"><a xlink:title=" ">
<path fill="none" stroke="#63b8ff" d="M708.63,-169.84C722.51,-161.66 742.56,-149.86 758.63,-140.4"/>
<polygon fill="#63b8ff" stroke="#63b8ff" points="760.37,-143.44 767.21,-135.35 756.82,-137.4 760.37,-143.44"/>
</a>
</g>
</g>
<!-- Node17&#45;&gt;Node14 -->
<g id="edge28_Node000017_Node000014" class="edge">
<title>Node17&#45;&gt;Node14</title>
<g id="a_edge28_Node000017_Node000014"><a xlink:title=" ">
<path fill="none" stroke="#63b8ff" d="M692.17,-170.12C692.49,-152.35 693.18,-113.72 693.62,-89.43"/>
<polygon fill="#63b8ff" stroke="#63b8ff" points="697.12,-89.5 693.8,-79.44 690.12,-89.37 697.12,-89.5"/>
</a>
</g>
</g>
<!-- Node18&#45;&gt;Node9 -->
<g id="edge38_Node000018_Node000009" class="edge">
<title>Node18&#45;&gt;Node9</title>
<g id="a_edge38_Node000018_Node000009"><a xlink:title=" ">
<path fill="none" stroke="#63b8ff" d="M751.98,-283.6C757.49,-257.12 773.08,-182.18 780.7,-145.55"/>
<polygon fill="#63b8ff" stroke="#63b8ff" points="784.03,-146.7 782.64,-136.2 777.18,-145.28 784.03,-146.7"/>
</a>
</g>
</g>
</g>
</svg>
