<?xml version="1.0" encoding="UTF-8" standalone="no"?>
<!DOCTYPE svg PUBLIC "-//W3C//DTD SVG 1.1//EN"
 "http://www.w3.org/Graphics/SVG/1.1/DTD/svg11.dtd">
<!-- Generated by graphviz version 12.1.2 (20240928.0832)
 -->
<!-- Title: iface_vlcb.h Pages: 1 -->
<svg width="146pt" height="86pt"
 viewBox="0.00 0.00 145.50 85.50" xmlns="http://www.w3.org/2000/svg" xmlns:xlink="http://www.w3.org/1999/xlink">
<g id="graph0" class="graph" transform="scale(1 1) rotate(0) translate(4 81.5)">
<title>iface_vlcb.h</title>
<!-- Node1 -->
<g id="Node000001" class="node">
<title>Node1</title>
<g id="a_Node000001"><a xlink:title=" ">
<polygon fill="#999999" stroke="#666666" points="100.38,-77.5 25.88,-77.5 25.88,-56.75 100.38,-56.75 100.38,-77.5"/>
<text text-anchor="middle" x="63.12" y="-64" font-family="Helvetica,sans-Serif" font-size="10.00">iface_vlcb.h</text>
</a>
</g>
</g>
<!-- Node2 -->
<g id="Node000002" class="node">
<title>Node2</title>
<g id="a_Node000002"><a xlink:href="iface_8c.html" target="_top" xlink:title=" ">
<polygon fill="white" stroke="#666666" points="48.25,-20.75 0,-20.75 0,0 48.25,0 48.25,-20.75"/>
<text text-anchor="middle" x="24.12" y="-7.25" font-family="Helvetica,sans-Serif" font-size="10.00">iface.c</text>
</a>
</g>
</g>
<!-- Node1&#45;&gt;Node2 -->
<g id="edge1_Node000001_Node000002" class="edge">
<title>Node1&#45;&gt;Node2</title>
<g id="a_edge1_Node000001_Node000002"><a xlink:title=" ">
<path fill="none" stroke="#63b8ff" d="M49.63,-47.17C43.36,-38.38 36.18,-28.3 31.04,-21.08"/>
<polygon fill="#63b8ff" stroke="#63b8ff" points="46.62,-48.99 55.27,-55.1 52.32,-44.93 46.62,-48.99"/>
</a>
</g>
</g>
<!-- Node3 -->
<g id="Node000003" class="node">
<title>Node3</title>
<g id="a_Node000003"><a xlink:href="iface__can_8c.html" target="_top" xlink:title=" ">
<polygon fill="white" stroke="#666666" points="137.5,-20.75 66.75,-20.75 66.75,0 137.5,0 137.5,-20.75"/>
<text text-anchor="middle" x="102.12" y="-7.25" font-family="Helvetica,sans-Serif" font-size="10.00">iface_can.c</text>
</a>
</g>
</g>
<!-- Node1&#45;&gt;Node3 -->
<g id="edge2_Node000001_Node000003" class="edge">
<title>Node1&#45;&gt;Node3</title>
<g id="a_edge2_Node000001_Node000003"><a xlink:title=" ">
<path fill="none" stroke="#63b8ff" d="M76.62,-47.17C82.89,-38.38 90.07,-28.3 95.21,-21.08"/>
<polygon fill="#63b8ff" stroke="#63b8ff" points="73.93,-44.93 70.98,-55.1 79.63,-48.99 73.93,-44.93"/>
</a>
</g>
</g>
</g>
</svg>
