<?xml version="1.0" encoding="UTF-8" standalone="no"?>
<!DOCTYPE svg PUBLIC "-//W3C//DTD SVG 1.1//EN"
 "http://www.w3.org/Graphics/SVG/1.1/DTD/svg11.dtd">
<!-- Generated by graphviz version 12.1.2 (20240928.0832)
 -->
<!-- Title: iface.c Pages: 1 -->
<svg width="793pt" height="426pt"
 viewBox="0.00 0.00 792.65 426.00" xmlns="http://www.w3.org/2000/svg" xmlns:xlink="http://www.w3.org/1999/xlink">
<g id="graph0" class="graph" transform="scale(1 1) rotate(0) translate(4 422)">
<title>iface.c</title>
<!-- Node1 -->
<g id="Node000001" class="node">
<title>Node1</title>
<g id="a_Node000001"><a xlink:title=" ">
<polygon fill="#999999" stroke="#666666" points="363.78,-418 315.53,-418 315.53,-397.25 363.78,-397.25 363.78,-418"/>
<text text-anchor="middle" x="339.65" y="-404.5" font-family="Helvetica,sans-Serif" font-size="10.00">iface.c</text>
</a>
</g>
</g>
<!-- Node2 -->
<g id="Node000002" class="node">
<title>Node2</title>
<g id="a_Node000002"><a xlink:href="iface_8h.html" target="_top" xlink:title=" ">
<polygon fill="white" stroke="#666666" points="307.15,-304.5 216.15,-304.5 216.15,-283.75 307.15,-283.75 307.15,-304.5"/>
<text text-anchor="middle" x="261.65" y="-291" font-family="Helvetica,sans-Serif" font-size="10.00">vlcb/net/iface.h</text>
</a>
</g>
</g>
<!-- Node1&#45;&gt;Node2 -->
<g id="edge1_Node000001_Node000002" class="edge">
<title>Node1&#45;&gt;Node2</title>
<g id="a_edge1_Node000001_Node000002"><a xlink:title=" ">
<path fill="none" stroke="#63b8ff" d="M327.56,-396.77C317.56,-388.16 303.45,-374.93 293.65,-361.25 283.43,-346.97 274.95,-328.93 269.29,-315.3"/>
<polygon fill="#63b8ff" stroke="#63b8ff" points="272.57,-314.07 265.63,-306.07 266.06,-316.65 272.57,-314.07"/>
</a>
</g>
</g>
<!-- Node4 -->
<g id="Node000004" class="node">
<title>Node4</title>
<g id="a_Node000004"><a xlink:href="adapter_8h.html" target="_top" xlink:title=" ">
<polygon fill="white" stroke="#666666" points="404.53,-247.75 342.78,-247.75 342.78,-227 404.53,-227 404.53,-247.75"/>
<text text-anchor="middle" x="373.65" y="-234.25" font-family="Helvetica,sans-Serif" font-size="10.00">adapter.h</text>
</a>
</g>
</g>
<!-- Node1&#45;&gt;Node4 -->
<g id="edge39_Node000001_Node000004" class="edge">
<title>Node1&#45;&gt;Node4</title>
<g id="a_edge39_Node000001_Node000004"><a xlink:title=" ">
<path fill="none" stroke="#63b8ff" d="M364.14,-405.22C392.54,-402.13 438.19,-392.31 459.65,-361.25 486.19,-322.84 433.37,-277.96 399.33,-254.51"/>
<polygon fill="#63b8ff" stroke="#63b8ff" points="401.42,-251.7 391.15,-249.06 397.53,-257.52 401.42,-251.7"/>
</a>
</g>
</g>
<!-- Node8 -->
<g id="Node000008" class="node">
<title>Node8</title>
<g id="a_Node000008"><a xlink:title=" ">
<polygon fill="#e0e0e0" stroke="#999999" points="92.15,-134.25 37.15,-134.25 37.15,-113.5 92.15,-113.5 92.15,-134.25"/>
<text text-anchor="middle" x="64.65" y="-120.75" font-family="Helvetica,sans-Serif" font-size="10.00">stddef.h</text>
</a>
</g>
</g>
<!-- Node1&#45;&gt;Node8 -->
<g id="edge29_Node000001_Node000008" class="edge">
<title>Node1&#45;&gt;Node8</title>
<g id="a_edge29_Node000001_Node000008"><a xlink:title=" ">
<path fill="none" stroke="#63b8ff" d="M315.09,-403.29C241.3,-392.61 26.65,-356.27 26.65,-295.12 26.65,-295.12 26.65,-295.12 26.65,-236.38 26.65,-202.76 42.31,-166.35 53.53,-144.59"/>
<polygon fill="#63b8ff" stroke="#63b8ff" points="56.51,-146.44 58.16,-135.97 50.34,-143.12 56.51,-146.44"/>
</a>
</g>
</g>
<!-- Node11 -->
<g id="Node000011" class="node">
<title>Node11</title>
<g id="a_Node000011"><a xlink:title=" ">
<polygon fill="#e0e0e0" stroke="#999999" points="639.03,-20.75 586.28,-20.75 586.28,0 639.03,0 639.03,-20.75"/>
<text text-anchor="middle" x="612.65" y="-7.25" font-family="Helvetica,sans-Serif" font-size="10.00">stdint.h</text>
</a>
</g>
</g>
<!-- Node1&#45;&gt;Node11 -->
<g id="edge30_Node000001_Node000011" class="edge">
<title>Node1&#45;&gt;Node11</title>
<g id="a_edge30_Node000001_Node000011"><a xlink:title=" ">
<path fill="none" stroke="#63b8ff" d="M364.21,-405.8C457.5,-402.02 784.65,-382.54 784.65,-295.12 784.65,-295.12 784.65,-295.12 784.65,-122.88 784.65,-59.49 701.38,-30.33 650.72,-18.45"/>
<polygon fill="#63b8ff" stroke="#63b8ff" points="651.52,-15.05 641,-16.31 650.02,-21.88 651.52,-15.05"/>
</a>
</g>
</g>
<!-- Node14 -->
<g id="Node000014" class="node">
<title>Node14</title>
<g id="a_Node000014"><a xlink:href="socket_8h.html" target="_top" xlink:title=" ">
<polygon fill="white" stroke="#666666" points="215.9,-247.75 159.4,-247.75 159.4,-227 215.9,-227 215.9,-247.75"/>
<text text-anchor="middle" x="187.65" y="-234.25" font-family="Helvetica,sans-Serif" font-size="10.00">socket.h</text>
</a>
</g>
</g>
<!-- Node1&#45;&gt;Node14 -->
<g id="edge40_Node000001_Node000014" class="edge">
<title>Node1&#45;&gt;Node14</title>
<g id="a_edge40_Node000001_Node000014"><a xlink:title=" ">
<path fill="none" stroke="#63b8ff" d="M315.22,-403.9C271.77,-398.49 183.88,-384.84 165.65,-361.25 142.35,-331.09 161.45,-284.37 175.69,-258.09"/>
<polygon fill="#63b8ff" stroke="#63b8ff" points="178.67,-259.91 180.6,-249.49 172.6,-256.44 178.67,-259.91"/>
</a>
</g>
</g>
<!-- Node16 -->
<g id="Node000016" class="node">
<title>Node16</title>
<g id="a_Node000016"><a xlink:title=" ">
<polygon fill="#e0e0e0" stroke="#999999" points="450.15,-361.25 395.15,-361.25 395.15,-340.5 450.15,-340.5 450.15,-361.25"/>
<text text-anchor="middle" x="422.65" y="-347.75" font-family="Helvetica,sans-Serif" font-size="10.00">assert.h</text>
</a>
</g>
</g>
<!-- Node1&#45;&gt;Node16 -->
<g id="edge28_Node000001_Node000016" class="edge">
<title>Node1&#45;&gt;Node16</title>
<g id="a_edge28_Node000001_Node000016"><a xlink:title=" ">
<path fill="none" stroke="#63b8ff" d="M354.49,-396.84C366.76,-388.74 384.44,-377.08 398.71,-367.67"/>
<polygon fill="#63b8ff" stroke="#63b8ff" points="400.26,-370.84 406.68,-362.41 396.4,-365 400.26,-370.84"/>
</a>
</g>
</g>
<!-- Node17 -->
<g id="Node000017" class="node">
<title>Node17</title>
<g id="a_Node000017"><a xlink:href="iface__can_8h.html" target="_top" xlink:title=" ">
<polygon fill="white" stroke="#666666" points="246.4,-361.25 174.9,-361.25 174.9,-340.5 246.4,-340.5 246.4,-361.25"/>
<text text-anchor="middle" x="210.65" y="-347.75" font-family="Helvetica,sans-Serif" font-size="10.00">iface_can.h</text>
</a>
</g>
</g>
<!-- Node1&#45;&gt;Node17 -->
<g id="edge31_Node000001_Node000017" class="edge">
<title>Node1&#45;&gt;Node17</title>
<g id="a_edge31_Node000001_Node000017"><a xlink:title=" ">
<path fill="none" stroke="#63b8ff" d="M316.59,-396.84C296.41,-388.27 266.85,-375.73 244.08,-366.06"/>
<polygon fill="#63b8ff" stroke="#63b8ff" points="245.48,-362.85 234.91,-362.17 242.74,-369.3 245.48,-362.85"/>
</a>
</g>
</g>
<!-- Node18 -->
<g id="Node000018" class="node">
<title>Node18</title>
<g id="a_Node000018"><a xlink:href="iface__vlcb_8h.html" target="_top" xlink:title=" ">
<polygon fill="white" stroke="#666666" points="376.9,-361.25 302.4,-361.25 302.4,-340.5 376.9,-340.5 376.9,-361.25"/>
<text text-anchor="middle" x="339.65" y="-347.75" font-family="Helvetica,sans-Serif" font-size="10.00">iface_vlcb.h</text>
</a>
</g>
</g>
<!-- Node1&#45;&gt;Node18 -->
<g id="edge35_Node000001_Node000018" class="edge">
<title>Node1&#45;&gt;Node18</title>
<g id="a_edge35_Node000001_Node000018"><a xlink:title=" ">
<path fill="none" stroke="#63b8ff" d="M339.65,-396.84C339.65,-390.22 339.65,-381.22 339.65,-373.02"/>
<polygon fill="#63b8ff" stroke="#63b8ff" points="343.15,-373.09 339.65,-363.09 336.15,-373.09 343.15,-373.09"/>
</a>
</g>
</g>
<!-- Node19 -->
<g id="Node000019" class="node">
<title>Node19</title>
<g id="a_Node000019"><a xlink:href="log_8h.html" target="_top" xlink:title=" ">
<polygon fill="white" stroke="#666666" points="702.78,-304.5 594.53,-304.5 594.53,-283.75 702.78,-283.75 702.78,-304.5"/>
<text text-anchor="middle" x="648.65" y="-291" font-family="Helvetica,sans-Serif" font-size="10.00">vlcb/platform/log.h</text>
</a>
</g>
</g>
<!-- Node1&#45;&gt;Node19 -->
<g id="edge41_Node000001_Node000019" class="edge">
<title>Node1&#45;&gt;Node19</title>
<g id="a_edge41_Node000001_Node000019"><a xlink:title=" ">
<path fill="none" stroke="#63b8ff" d="M364.04,-400.3C394.46,-392.21 447.93,-377.3 492.65,-361.25 536.61,-345.47 586.05,-323.83 617.26,-309.66"/>
<polygon fill="#63b8ff" stroke="#63b8ff" points="618.48,-312.95 626.13,-305.62 615.58,-306.59 618.48,-312.95"/>
</a>
</g>
</g>
<!-- Node3 -->
<g id="Node000003" class="node">
<title>Node3</title>
<g id="a_Node000003"><a xlink:title=" ">
<polygon fill="#e0e0e0" stroke="#999999" points="287.15,-77.5 226.15,-77.5 226.15,-56.75 287.15,-56.75 287.15,-77.5"/>
<text text-anchor="middle" x="256.65" y="-64" font-family="Helvetica,sans-Serif" font-size="10.00">stdbool.h</text>
</a>
</g>
</g>
<!-- Node2&#45;&gt;Node3 -->
<g id="edge2_Node000002_Node000003" class="edge">
<title>Node2&#45;&gt;Node3</title>
<g id="a_edge2_Node000002_Node000003"><a xlink:title=" ">
<path fill="none" stroke="#63b8ff" d="M223.24,-283.26C138.15,-259.63 -53.5,-195.61 14.65,-113.5 39.59,-83.45 152.22,-73.18 214.65,-69.76"/>
<polygon fill="#63b8ff" stroke="#63b8ff" points="214.74,-73.26 224.55,-69.26 214.38,-66.27 214.74,-73.26"/>
</a>
</g>
</g>
<!-- Node2&#45;&gt;Node4 -->
<g id="edge3_Node000002_Node000004" class="edge">
<title>Node2&#45;&gt;Node4</title>
<g id="a_edge3_Node000002_Node000004"><a xlink:title=" ">
<path fill="none" stroke="#63b8ff" d="M281.67,-283.34C298.87,-274.93 323.93,-262.68 343.55,-253.09"/>
<polygon fill="#63b8ff" stroke="#63b8ff" points="344.99,-256.28 352.44,-248.74 341.92,-249.99 344.99,-256.28"/>
</a>
</g>
</g>
<!-- Node2&#45;&gt;Node14 -->
<g id="edge19_Node000002_Node000014" class="edge">
<title>Node2&#45;&gt;Node14</title>
<g id="a_edge19_Node000002_Node000014"><a xlink:title=" ">
<path fill="none" stroke="#63b8ff" d="M248.42,-283.34C237.69,-275.4 222.33,-264.03 209.73,-254.71"/>
<polygon fill="#63b8ff" stroke="#63b8ff" points="212.1,-252.11 201.98,-248.98 207.94,-257.74 212.1,-252.11"/>
</a>
</g>
</g>
<!-- Node4&#45;&gt;Node3 -->
<g id="edge5_Node000004_Node000003" class="edge">
<title>Node4&#45;&gt;Node3</title>
<g id="a_edge5_Node000004_Node000003"><a xlink:title=" ">
<path fill="none" stroke="#63b8ff" d="M342.65,-230.18C320.46,-224.07 291.78,-212.42 275.65,-191 253.23,-161.21 252.41,-115.68 254.26,-89.21"/>
<polygon fill="#63b8ff" stroke="#63b8ff" points="257.73,-89.69 255.15,-79.41 250.76,-89.05 257.73,-89.69"/>
</a>
</g>
</g>
<!-- Node5 -->
<g id="Node000005" class="node">
<title>Node5</title>
<g id="a_Node000005"><a xlink:title=" ">
<polygon fill="#e0e0e0" stroke="#999999" points="559.03,-77.5 494.28,-77.5 494.28,-56.75 559.03,-56.75 559.03,-77.5"/>
<text text-anchor="middle" x="526.65" y="-64" font-family="Helvetica,sans-Serif" font-size="10.00">inttypes.h</text>
</a>
</g>
</g>
<!-- Node4&#45;&gt;Node5 -->
<g id="edge4_Node000004_Node000005" class="edge">
<title>Node4&#45;&gt;Node5</title>
<g id="a_edge4_Node000004_Node000005"><a xlink:title=" ">
<path fill="none" stroke="#63b8ff" d="M404.81,-230.77C442.77,-223.25 503.58,-208.78 517.65,-191 540.79,-161.75 536.58,-115.33 531.55,-88.71"/>
<polygon fill="#63b8ff" stroke="#63b8ff" points="535.02,-88.23 529.51,-79.18 528.18,-89.69 535.02,-88.23"/>
</a>
</g>
</g>
<!-- Node6 -->
<g id="Node000006" class="node">
<title>Node6</title>
<g id="a_Node000006"><a xlink:href="error_8h.html" target="_top" xlink:title=" ">
<polygon fill="white" stroke="#666666" points="756.53,-134.25 640.78,-134.25 640.78,-113.5 756.53,-113.5 756.53,-134.25"/>
<text text-anchor="middle" x="698.65" y="-120.75" font-family="Helvetica,sans-Serif" font-size="10.00">vlcb/platform/error.h</text>
</a>
</g>
</g>
<!-- Node4&#45;&gt;Node6 -->
<g id="edge6_Node000004_Node000006" class="edge">
<title>Node4&#45;&gt;Node6</title>
<g id="a_edge6_Node000004_Node000006"><a xlink:title=" ">
<path fill="none" stroke="#63b8ff" d="M404.89,-234.41C468.98,-229.88 612.73,-217.05 653.65,-191 670.83,-180.06 683.09,-159.96 690.43,-144.78"/>
<polygon fill="#63b8ff" stroke="#63b8ff" points="693.58,-146.31 694.47,-135.75 687.19,-143.45 693.58,-146.31"/>
</a>
</g>
</g>
<!-- Node7 -->
<g id="Node000007" class="node">
<title>Node7</title>
<g id="a_Node000007"><a xlink:href="interface_8h.html" target="_top" xlink:title=" ">
<polygon fill="white" stroke="#666666" points="229.03,-191 92.28,-191 92.28,-170.25 229.03,-170.25 229.03,-191"/>
<text text-anchor="middle" x="160.65" y="-177.5" font-family="Helvetica,sans-Serif" font-size="10.00">vlcb/platform/interface.h</text>
</a>
</g>
</g>
<!-- Node4&#45;&gt;Node7 -->
<g id="edge7_Node000004_Node000007" class="edge">
<title>Node4&#45;&gt;Node7</title>
<g id="a_edge7_Node000004_Node000007"><a xlink:title=" ">
<path fill="none" stroke="#63b8ff" d="M342.68,-228.41C307.87,-219.47 250.9,-204.82 209.96,-194.3"/>
<polygon fill="#63b8ff" stroke="#63b8ff" points="210.89,-190.92 200.33,-191.83 209.15,-197.7 210.89,-190.92"/>
</a>
</g>
</g>
<!-- Node9 -->
<g id="Node000009" class="node">
<title>Node9</title>
<g id="a_Node000009"><a xlink:href="packet_8h.html" target="_top" xlink:title=" ">
<polygon fill="white" stroke="#666666" points="402.65,-191 284.65,-191 284.65,-170.25 402.65,-170.25 402.65,-191"/>
<text text-anchor="middle" x="343.65" y="-177.5" font-family="Helvetica,sans-Serif" font-size="10.00">adapter/can/packet.h</text>
</a>
</g>
</g>
<!-- Node4&#45;&gt;Node9 -->
<g id="edge9_Node000004_Node000009" class="edge">
<title>Node4&#45;&gt;Node9</title>
<g id="a_edge9_Node000004_Node000009"><a xlink:title=" ">
<path fill="none" stroke="#63b8ff" d="M368.29,-226.59C364.45,-219.58 359.15,-209.91 354.45,-201.33"/>
<polygon fill="#63b8ff" stroke="#63b8ff" points="357.57,-199.74 349.69,-192.66 351.43,-203.11 357.57,-199.74"/>
</a>
</g>
</g>
<!-- Node13 -->
<g id="Node000013" class="node">
<title>Node13</title>
<g id="a_Node000013"><a xlink:href="addr_8h.html" target="_top" xlink:title=" ">
<polygon fill="white" stroke="#666666" points="508.65,-191 420.65,-191 420.65,-170.25 508.65,-170.25 508.65,-191"/>
<text text-anchor="middle" x="464.65" y="-177.5" font-family="Helvetica,sans-Serif" font-size="10.00">vlcb/net/addr.h</text>
</a>
</g>
</g>
<!-- Node4&#45;&gt;Node13 -->
<g id="edge17_Node000004_Node000013" class="edge">
<title>Node4&#45;&gt;Node13</title>
<g id="a_edge17_Node000004_Node000013"><a xlink:title=" ">
<path fill="none" stroke="#63b8ff" d="M389.92,-226.59C403.51,-218.41 423.13,-206.61 438.85,-197.15"/>
<polygon fill="#63b8ff" stroke="#63b8ff" points="440.46,-200.26 447.23,-192.11 436.85,-194.27 440.46,-200.26"/>
</a>
</g>
</g>
<!-- Node7&#45;&gt;Node8 -->
<g id="edge8_Node000007_Node000008" class="edge">
<title>Node7&#45;&gt;Node8</title>
<g id="a_edge8_Node000007_Node000008"><a xlink:title=" ">
<path fill="none" stroke="#63b8ff" d="M143.49,-169.84C129.02,-161.58 108.06,-149.63 91.39,-140.13"/>
<polygon fill="#63b8ff" stroke="#63b8ff" points="93.4,-137.24 82.98,-135.33 89.93,-143.32 93.4,-137.24"/>
</a>
</g>
</g>
<!-- Node9&#45;&gt;Node3 -->
<g id="edge10_Node000009_Node000003" class="edge">
<title>Node9&#45;&gt;Node3</title>
<g id="a_edge10_Node000009_Node000003"><a xlink:title=" ">
<path fill="none" stroke="#63b8ff" d="M336.23,-170.12C321.86,-151.7 289.98,-110.84 271.22,-86.8"/>
<polygon fill="#63b8ff" stroke="#63b8ff" points="274.14,-84.85 265.23,-79.12 268.62,-89.16 274.14,-84.85"/>
</a>
</g>
</g>
<!-- Node10 -->
<g id="Node000010" class="node">
<title>Node10</title>
<g id="a_Node000010"><a xlink:href="common_2inc_2vlcb_2common_2can_8h.html" target="_top" xlink:title=" ">
<polygon fill="white" stroke="#666666" points="508.28,-134.25 397.03,-134.25 397.03,-113.5 508.28,-113.5 508.28,-134.25"/>
<text text-anchor="middle" x="452.65" y="-120.75" font-family="Helvetica,sans-Serif" font-size="10.00">vlcb/common/can.h</text>
</a>
</g>
</g>
<!-- Node9&#45;&gt;Node10 -->
<g id="edge11_Node000009_Node000010" class="edge">
<title>Node9&#45;&gt;Node10</title>
<g id="a_edge11_Node000009_Node000010"><a xlink:title=" ">
<path fill="none" stroke="#63b8ff" d="M363.14,-169.84C379.8,-161.47 404.03,-149.29 423.09,-139.72"/>
<polygon fill="#63b8ff" stroke="#63b8ff" points="424.61,-142.87 431.98,-135.26 421.47,-136.62 424.61,-142.87"/>
</a>
</g>
</g>
<!-- Node10&#45;&gt;Node3 -->
<g id="edge13_Node000010_Node000003" class="edge">
<title>Node10&#45;&gt;Node3</title>
<g id="a_edge13_Node000010_Node000003"><a xlink:title=" ">
<path fill="none" stroke="#63b8ff" d="M417.61,-113.09C384.23,-103.76 333.94,-89.71 298.47,-79.81"/>
<polygon fill="#63b8ff" stroke="#63b8ff" points="299.55,-76.47 288.98,-77.15 297.67,-83.22 299.55,-76.47"/>
</a>
</g>
</g>
<!-- Node10&#45;&gt;Node5 -->
<g id="edge12_Node000010_Node000005" class="edge">
<title>Node10&#45;&gt;Node5</title>
<g id="a_edge12_Node000010_Node000005"><a xlink:title=" ">
<path fill="none" stroke="#63b8ff" d="M465.88,-113.09C476.61,-105.15 491.98,-93.78 504.57,-84.46"/>
<polygon fill="#63b8ff" stroke="#63b8ff" points="506.36,-87.49 512.32,-78.73 502.2,-81.86 506.36,-87.49"/>
</a>
</g>
</g>
<!-- Node10&#45;&gt;Node11 -->
<g id="edge14_Node000010_Node000011" class="edge">
<title>Node10&#45;&gt;Node11</title>
<g id="a_edge14_Node000010_Node000011"><a xlink:title=" ">
<path fill="none" stroke="#63b8ff" d="M454.95,-113.38C458.87,-99.13 468.18,-72.24 485.65,-56.75 510.63,-34.59 547.2,-23.04 574.69,-17.15"/>
<polygon fill="#63b8ff" stroke="#63b8ff" points="575.23,-20.61 584.37,-15.25 573.88,-13.75 575.23,-20.61"/>
</a>
</g>
</g>
<!-- Node12 -->
<g id="Node000012" class="node">
<title>Node12</title>
<g id="a_Node000012"><a xlink:href="vlcb__defs_8h.html" target="_top" xlink:title=" ">
<polygon fill="white" stroke="#666666" points="648.4,-77.5 576.9,-77.5 576.9,-56.75 648.4,-56.75 648.4,-77.5"/>
<text text-anchor="middle" x="612.65" y="-64" font-family="Helvetica,sans-Serif" font-size="10.00">vlcb_defs.h</text>
</a>
</g>
</g>
<!-- Node10&#45;&gt;Node12 -->
<g id="edge15_Node000010_Node000012" class="edge">
<title>Node10&#45;&gt;Node12</title>
<g id="a_edge15_Node000010_Node000012"><a xlink:title=" ">
<path fill="none" stroke="#63b8ff" d="M481.26,-113.09C506.89,-104.32 544.72,-91.37 573.22,-81.62"/>
<polygon fill="#63b8ff" stroke="#63b8ff" points="574.26,-84.96 582.59,-78.41 572,-78.34 574.26,-84.96"/>
</a>
</g>
</g>
<!-- Node12&#45;&gt;Node11 -->
<g id="edge16_Node000012_Node000011" class="edge">
<title>Node12&#45;&gt;Node11</title>
<g id="a_edge16_Node000012_Node000011"><a xlink:title=" ">
<path fill="none" stroke="#63b8ff" d="M612.65,-56.34C612.65,-49.72 612.65,-40.72 612.65,-32.52"/>
<polygon fill="#63b8ff" stroke="#63b8ff" points="616.15,-32.59 612.65,-22.59 609.15,-32.59 616.15,-32.59"/>
</a>
</g>
</g>
<!-- Node13&#45;&gt;Node10 -->
<g id="edge18_Node000013_Node000010" class="edge">
<title>Node13&#45;&gt;Node10</title>
<g id="a_edge18_Node000013_Node000010"><a xlink:title=" ">
<path fill="none" stroke="#63b8ff" d="M462.51,-169.84C461.04,-163.14 459.04,-154.01 457.22,-145.73"/>
<polygon fill="#63b8ff" stroke="#63b8ff" points="460.66,-145.08 455.1,-136.06 453.82,-146.57 460.66,-145.08"/>
</a>
</g>
</g>
<!-- Node14&#45;&gt;Node3 -->
<g id="edge20_Node000014_Node000003" class="edge">
<title>Node14&#45;&gt;Node3</title>
<g id="a_edge20_Node000014_Node000003"><a xlink:title=" ">
<path fill="none" stroke="#63b8ff" d="M159.09,-228.3C102.21,-210.84 -16.14,-166.82 27.65,-113.5 50.86,-85.24 155.15,-74.27 214.67,-70.26"/>
<polygon fill="#63b8ff" stroke="#63b8ff" points="214.67,-73.77 224.43,-69.65 214.23,-66.78 214.67,-73.77"/>
</a>
</g>
</g>
<!-- Node14&#45;&gt;Node7 -->
<g id="edge27_Node000014_Node000007" class="edge">
<title>Node14&#45;&gt;Node7</title>
<g id="a_edge27_Node000014_Node000007"><a xlink:title=" ">
<path fill="none" stroke="#63b8ff" d="M182.82,-226.59C179.41,-219.66 174.7,-210.12 170.51,-201.61"/>
<polygon fill="#63b8ff" stroke="#63b8ff" points="173.67,-200.11 166.11,-192.69 167.39,-203.2 173.67,-200.11"/>
</a>
</g>
</g>
<!-- Node14&#45;&gt;Node8 -->
<g id="edge21_Node000014_Node000008" class="edge">
<title>Node14&#45;&gt;Node8</title>
<g id="a_edge21_Node000014_Node000008"><a xlink:title=" ">
<path fill="none" stroke="#63b8ff" d="M158.94,-230.91C135.48,-224.98 103.13,-213.22 83.65,-191 72.69,-178.49 68.03,-160.03 66.06,-145.79"/>
<polygon fill="#63b8ff" stroke="#63b8ff" points="69.57,-145.73 65.09,-136.13 62.61,-146.43 69.57,-145.73"/>
</a>
</g>
</g>
<!-- Node14&#45;&gt;Node13 -->
<g id="edge26_Node000014_Node000013" class="edge">
<title>Node14&#45;&gt;Node13</title>
<g id="a_edge26_Node000014_Node000013"><a xlink:title=" ">
<path fill="none" stroke="#63b8ff" d="M216.25,-230.72C261.61,-221.76 350.85,-204.12 409.1,-192.6"/>
<polygon fill="#63b8ff" stroke="#63b8ff" points="409.7,-196.05 418.83,-190.68 408.34,-189.19 409.7,-196.05"/>
</a>
</g>
</g>
<!-- Node15 -->
<g id="Node000015" class="node">
<title>Node15</title>
<g id="a_Node000015"><a xlink:href="vlcb_8h.html" target="_top" xlink:title=" ">
<polygon fill="white" stroke="#666666" points="644.9,-191 564.4,-191 564.4,-170.25 644.9,-170.25 644.9,-191"/>
<text text-anchor="middle" x="604.65" y="-177.5" font-family="Helvetica,sans-Serif" font-size="10.00">packet/vlcb.h</text>
</a>
</g>
</g>
<!-- Node14&#45;&gt;Node15 -->
<g id="edge22_Node000014_Node000015" class="edge">
<title>Node14&#45;&gt;Node15</title>
<g id="a_edge22_Node000014_Node000015"><a xlink:title=" ">
<path fill="none" stroke="#63b8ff" d="M216.31,-232.61C285.78,-223.49 463.96,-200.1 552.75,-188.44"/>
<polygon fill="#63b8ff" stroke="#63b8ff" points="553.19,-191.91 562.65,-187.14 552.28,-184.97 553.19,-191.91"/>
</a>
</g>
</g>
<!-- Node15&#45;&gt;Node5 -->
<g id="edge23_Node000015_Node000005" class="edge">
<title>Node15&#45;&gt;Node5</title>
<g id="a_edge23_Node000015_Node000005"><a xlink:title=" ">
<path fill="none" stroke="#63b8ff" d="M598,-170.12C585.17,-151.78 556.78,-111.2 539.94,-87.12"/>
<polygon fill="#63b8ff" stroke="#63b8ff" points="542.97,-85.35 534.37,-79.17 537.24,-89.37 542.97,-85.35"/>
</a>
</g>
</g>
<!-- Node15&#45;&gt;Node6 -->
<g id="edge25_Node000015_Node000006" class="edge">
<title>Node15&#45;&gt;Node6</title>
<g id="a_edge25_Node000015_Node000006"><a xlink:title=" ">
<path fill="none" stroke="#63b8ff" d="M621.46,-169.84C635.62,-161.58 656.14,-149.63 672.46,-140.13"/>
<polygon fill="#63b8ff" stroke="#63b8ff" points="673.8,-143.4 680.68,-135.34 670.28,-137.35 673.8,-143.4"/>
</a>
</g>
</g>
<!-- Node15&#45;&gt;Node12 -->
<g id="edge24_Node000015_Node000012" class="edge">
<title>Node15&#45;&gt;Node12</title>
<g id="a_edge24_Node000015_Node000012"><a xlink:title=" ">
<path fill="none" stroke="#63b8ff" d="M605.33,-170.12C606.61,-152.27 609.41,-113.36 611.15,-89.09"/>
<polygon fill="#63b8ff" stroke="#63b8ff" points="614.61,-89.66 611.84,-79.43 607.63,-89.16 614.61,-89.66"/>
</a>
</g>
</g>
<!-- Node17&#45;&gt;Node2 -->
<g id="edge33_Node000017_Node000002" class="edge">
<title>Node17&#45;&gt;Node2</title>
<g id="a_edge33_Node000017_Node000002"><a xlink:title=" ">
<path fill="none" stroke="#63b8ff" d="M219.77,-340.09C226.73,-332.61 236.52,-322.11 244.88,-313.13"/>
<polygon fill="#63b8ff" stroke="#63b8ff" points="247.33,-315.64 251.58,-305.94 242.2,-310.87 247.33,-315.64"/>
</a>
</g>
</g>
<!-- Node17&#45;&gt;Node4 -->
<g id="edge32_Node000017_Node000004" class="edge">
<title>Node17&#45;&gt;Node4</title>
<g id="a_edge32_Node000017_Node000004"><a xlink:title=" ">
<path fill="none" stroke="#63b8ff" d="M243.73,-340.08C265.72,-332.56 294.52,-320.7 316.65,-304.5 334.54,-291.41 350.59,-271.69 361.07,-257.19"/>
<polygon fill="#63b8ff" stroke="#63b8ff" points="363.67,-259.58 366.52,-249.38 357.93,-255.58 363.67,-259.58"/>
</a>
</g>
</g>
<!-- Node17&#45;&gt;Node14 -->
<g id="edge34_Node000017_Node000014" class="edge">
<title>Node17&#45;&gt;Node14</title>
<g id="a_edge34_Node000017_Node000014"><a xlink:title=" ">
<path fill="none" stroke="#63b8ff" d="M208.69,-340.37C205.01,-322.52 196.98,-283.61 191.98,-259.34"/>
<polygon fill="#63b8ff" stroke="#63b8ff" points="195.43,-258.74 189.98,-249.66 188.57,-260.16 195.43,-258.74"/>
</a>
</g>
</g>
<!-- Node18&#45;&gt;Node2 -->
<g id="edge36_Node000018_Node000002" class="edge">
<title>Node18&#45;&gt;Node2</title>
<g id="a_edge36_Node000018_Node000002"><a xlink:title=" ">
<path fill="none" stroke="#63b8ff" d="M325.71,-340.09C314.28,-332.07 297.88,-320.56 284.54,-311.19"/>
<polygon fill="#63b8ff" stroke="#63b8ff" points="286.91,-308.58 276.71,-305.7 282.89,-314.31 286.91,-308.58"/>
</a>
</g>
</g>
<!-- Node18&#45;&gt;Node14 -->
<g id="edge38_Node000018_Node000014" class="edge">
<title>Node18&#45;&gt;Node14</title>
<g id="a_edge38_Node000018_Node000014"><a xlink:title=" ">
<path fill="none" stroke="#63b8ff" d="M338.91,-340.42C337.3,-326.23 332.27,-299.42 316.65,-283.75 292.86,-259.88 255.8,-248.53 227.49,-243.16"/>
<polygon fill="#63b8ff" stroke="#63b8ff" points="228.28,-239.74 217.84,-241.51 227.11,-246.64 228.28,-239.74"/>
</a>
</g>
</g>
<!-- Node18&#45;&gt;Node15 -->
<g id="edge37_Node000018_Node000015" class="edge">
<title>Node18&#45;&gt;Node15</title>
<g id="a_edge37_Node000018_Node000015"><a xlink:title=" ">
<path fill="none" stroke="#63b8ff" d="M355.04,-340.1C399.04,-312.17 525.66,-231.78 579.71,-197.46"/>
<polygon fill="#63b8ff" stroke="#63b8ff" points="581.37,-200.55 587.94,-192.24 577.62,-194.64 581.37,-200.55"/>
</a>
</g>
</g>
<!-- Node19&#45;&gt;Node6 -->
<g id="edge42_Node000019_Node000006" class="edge">
<title>Node19&#45;&gt;Node6</title>
<g id="a_edge42_Node000019_Node000006"><a xlink:title=" ">
<path fill="none" stroke="#63b8ff" d="M651.48,-283.6C659.35,-257.12 681.62,-182.18 692.51,-145.55"/>
<polygon fill="#63b8ff" stroke="#63b8ff" points="695.8,-146.75 695.29,-136.17 689.09,-144.76 695.8,-146.75"/>
</a>
</g>
</g>
</g>
</svg>
