<?xml version="1.0" encoding="UTF-8" standalone="no"?>
<!DOCTYPE svg PUBLIC "-//W3C//DTD SVG 1.1//EN"
 "http://www.w3.org/Graphics/SVG/1.1/DTD/svg11.dtd">
<!-- Generated by graphviz version 12.1.2 (20240928.0832)
 -->
<!-- Title: EgressPackets Pages: 1 -->
<svg width="597pt" height="294pt"
 viewBox="0.00 0.00 597.00 293.50" xmlns="http://www.w3.org/2000/svg" xmlns:xlink="http://www.w3.org/1999/xlink">
<g id="graph0" class="graph" transform="scale(1 1) rotate(0) translate(4 289.5)">
<title>EgressPackets</title>
<!-- Node1 -->
<g id="Node000001" class="node">
<title>Node1</title>
<g id="a_Node000001"><a xlink:title=" ">
<polygon fill="#999999" stroke="#666666" points="85,-139.12 0,-139.12 0,-118.38 85,-118.38 85,-139.12"/>
<text text-anchor="middle" x="42.5" y="-125.62" font-family="Helvetica,sans-Serif" font-size="10.00">EgressPackets</text>
</a>
</g>
</g>
<!-- Node2 -->
<g id="Node000002" class="node">
<title>Node2</title>
<g id="a_Node000002"><a xlink:href="socket_2datagram_8c.html#a29815c6431ed6e303052217a8ecca9cc" target="_top" xlink:title=" ">
<polygon fill="white" stroke="#666666" points="229.62,-240.12 139.38,-240.12 139.38,-219.38 229.62,-219.38 229.62,-240.12"/>
<text text-anchor="middle" x="184.5" y="-226.62" font-family="Helvetica,sans-Serif" font-size="10.00">DispatchPacket</text>
</a>
</g>
</g>
<!-- Node1&#45;&gt;Node2 -->
<g id="edge1_Node000001_Node000002" class="edge">
<title>Node1&#45;&gt;Node2</title>
<g id="a_edge1_Node000001_Node000002"><a xlink:title=" ">
<path fill="none" stroke="#63b8ff" d="M51.03,-139.58C63.59,-156.86 90.47,-190.67 121,-209.75 123.72,-211.45 126.59,-213.01 129.56,-214.46"/>
<polygon fill="#63b8ff" stroke="#63b8ff" points="127.92,-217.57 138.49,-218.3 130.69,-211.14 127.92,-217.57"/>
</a>
</g>
</g>
<!-- Node6 -->
<g id="Node000006" class="node">
<title>Node6</title>
<g id="a_Node000006"><a xlink:href="iface__vlcb_8c.html#a0d6563489a49082e53653774882bd0c9" target="_top" xlink:title=" ">
<polygon fill="white" stroke="#666666" points="240.12,-201.12 128.88,-201.12 128.88,-180.38 240.12,-180.38 240.12,-201.12"/>
<text text-anchor="middle" x="184.5" y="-187.62" font-family="Helvetica,sans-Serif" font-size="10.00">DispatchVlcbPacket</text>
</a>
</g>
</g>
<!-- Node1&#45;&gt;Node6 -->
<g id="edge5_Node000001_Node000006" class="edge">
<title>Node1&#45;&gt;Node6</title>
<g id="a_edge5_Node000001_Node000006"><a xlink:title=" ">
<path fill="none" stroke="#63b8ff" d="M61.19,-139.58C76.6,-148.7 99.74,-161.68 121,-170.75 125.54,-172.69 130.34,-174.54 135.18,-176.29"/>
<polygon fill="#63b8ff" stroke="#63b8ff" points="133.71,-179.49 144.31,-179.43 135.99,-172.87 133.71,-179.49"/>
</a>
</g>
</g>
<!-- Node8 -->
<g id="Node000008" class="node">
<title>Node8</title>
<g id="a_Node000008"><a xlink:href="adapter_8c.html#a74b46c574ae26bb9f527b6b157cb644e" target="_top" xlink:title=" ">
<polygon fill="white" stroke="#666666" points="248,-162.12 121,-162.12 121,-141.38 248,-141.38 248,-162.12"/>
<text text-anchor="middle" x="184.5" y="-148.62" font-family="Helvetica,sans-Serif" font-size="10.00">vlcb_net_adpt_ErrToStr</text>
</a>
</g>
</g>
<!-- Node1&#45;&gt;Node8 -->
<g id="edge7_Node000001_Node000008" class="edge">
<title>Node1&#45;&gt;Node8</title>
<g id="a_edge7_Node000001_Node000008"><a xlink:title=" ">
<path fill="none" stroke="#63b8ff" d="M85.13,-135.59C92.77,-136.84 100.96,-138.19 109.23,-139.55"/>
<polygon fill="#63b8ff" stroke="#63b8ff" points="108.59,-142.99 119.02,-141.16 109.72,-136.08 108.59,-142.99"/>
</a>
</g>
</g>
<!-- Node9 -->
<g id="Node000009" class="node">
<title>Node9</title>
<g id="a_Node000009"><a xlink:href="socket_8c.html#a9401eccd14dd3acd44764c5e8a05beaf" target="_top" xlink:title=" ">
<polygon fill="white" stroke="#666666" points="237.12,-123.5 131.88,-123.5 131.88,-90 237.12,-90 237.12,-123.5"/>
<text text-anchor="start" x="139.88" y="-110" font-family="Helvetica,sans-Serif" font-size="10.00">vlcb_net_sock_list</text>
<text text-anchor="middle" x="184.5" y="-97.25" font-family="Helvetica,sans-Serif" font-size="10.00">_GetIterator</text>
</a>
</g>
</g>
<!-- Node1&#45;&gt;Node9 -->
<g id="edge8_Node000001_Node000009" class="edge">
<title>Node1&#45;&gt;Node9</title>
<g id="a_edge8_Node000001_Node000009"><a xlink:title=" ">
<path fill="none" stroke="#63b8ff" d="M85.13,-122.21C96.18,-120.47 108.37,-118.56 120.3,-116.68"/>
<polygon fill="#63b8ff" stroke="#63b8ff" points="120.78,-120.15 130.11,-115.14 119.69,-113.23 120.78,-120.15"/>
</a>
</g>
</g>
<!-- Node10 -->
<g id="Node000010" class="node">
<title>Node10</title>
<g id="a_Node000010"><a xlink:href="socket_8c.html#a176c72971ceb14a338d824d7a3bb0fac" target="_top" xlink:title=" ">
<polygon fill="white" stroke="#666666" points="415.88,-56.5 310.62,-56.5 310.62,-23 415.88,-23 415.88,-56.5"/>
<text text-anchor="start" x="318.62" y="-43" font-family="Helvetica,sans-Serif" font-size="10.00">vlcb_net_sock_list</text>
<text text-anchor="middle" x="363.25" y="-30.25" font-family="Helvetica,sans-Serif" font-size="10.00">_iter_HasNext</text>
</a>
</g>
</g>
<!-- Node1&#45;&gt;Node10 -->
<g id="edge9_Node000001_Node000010" class="edge">
<title>Node1&#45;&gt;Node10</title>
<g id="a_edge9_Node000001_Node000010"><a xlink:title=" ">
<path fill="none" stroke="#63b8ff" d="M57.2,-117.96C72.05,-106.84 96.87,-89.87 121,-80.75 179.07,-58.8 249.44,-48.55 299.16,-43.79"/>
<polygon fill="#63b8ff" stroke="#63b8ff" points="299.23,-47.3 308.88,-42.92 298.6,-40.33 299.23,-47.3"/>
</a>
</g>
</g>
<!-- Node11 -->
<g id="Node000011" class="node">
<title>Node11</title>
<g id="a_Node000011"><a xlink:href="socket_8c.html#a81bef9c5afd9ccbb9d0a52b2ae1da9b2" target="_top" xlink:title=" ">
<polygon fill="white" stroke="#666666" points="237.12,-33.5 131.88,-33.5 131.88,0 237.12,0 237.12,-33.5"/>
<text text-anchor="start" x="139.88" y="-20" font-family="Helvetica,sans-Serif" font-size="10.00">vlcb_net_sock_list</text>
<text text-anchor="middle" x="184.5" y="-7.25" font-family="Helvetica,sans-Serif" font-size="10.00">_iter_Next</text>
</a>
</g>
</g>
<!-- Node1&#45;&gt;Node11 -->
<g id="edge10_Node000001_Node000011" class="edge">
<title>Node1&#45;&gt;Node11</title>
<g id="a_edge10_Node000001_Node000011"><a xlink:title=" ">
<path fill="none" stroke="#63b8ff" d="M51.81,-117.89C65.03,-101.17 92.3,-68.85 121,-47.75 125.01,-44.81 129.33,-42.01 133.78,-39.39"/>
<polygon fill="#63b8ff" stroke="#63b8ff" points="135.24,-42.58 142.29,-34.67 131.84,-36.46 135.24,-42.58"/>
</a>
</g>
</g>
<!-- Node3 -->
<g id="Node000003" class="node">
<title>Node3</title>
<g id="a_Node000003"><a xlink:href="packet__buf_8c.html#a2ea3a27beac9f24f9dc6acdbfb28906c" target="_top" xlink:title=" ">
<polygon fill="white" stroke="#666666" points="430.12,-279.12 296.38,-279.12 296.38,-258.38 430.12,-258.38 430.12,-279.12"/>
<text text-anchor="middle" x="363.25" y="-265.62" font-family="Helvetica,sans-Serif" font-size="10.00">vlcb_net_packetbuf_Pop</text>
</a>
</g>
</g>
<!-- Node2&#45;&gt;Node3 -->
<g id="edge2_Node000002_Node000003" class="edge">
<title>Node2&#45;&gt;Node3</title>
<g id="a_edge2_Node000002_Node000003"><a xlink:title=" ">
<path fill="none" stroke="#63b8ff" d="M230.1,-239.59C251.91,-244.4 278.47,-250.26 302.05,-255.47"/>
<polygon fill="#63b8ff" stroke="#63b8ff" points="301,-258.82 311.52,-257.56 302.5,-251.98 301,-258.82"/>
</a>
</g>
</g>
<!-- Node5 -->
<g id="Node000005" class="node">
<title>Node5</title>
<g id="a_Node000005"><a xlink:href="vlcb_8c.html#a6f58b6fc33b3f723dd7254df2648a6e1" target="_top" xlink:title=" ">
<polygon fill="white" stroke="#666666" points="442.5,-240.12 284,-240.12 284,-219.38 442.5,-219.38 442.5,-240.12"/>
<text text-anchor="middle" x="363.25" y="-226.62" font-family="Helvetica,sans-Serif" font-size="10.00">vlcb_net_pkt_NewUnchecked</text>
</a>
</g>
</g>
<!-- Node2&#45;&gt;Node5 -->
<g id="edge4_Node000002_Node000005" class="edge">
<title>Node2&#45;&gt;Node5</title>
<g id="a_edge4_Node000002_Node000005"><a xlink:title=" ">
<path fill="none" stroke="#63b8ff" d="M230.1,-229.75C243.06,-229.75 257.7,-229.75 272.39,-229.75"/>
<polygon fill="#63b8ff" stroke="#63b8ff" points="272.09,-233.25 282.09,-229.75 272.09,-226.25 272.09,-233.25"/>
</a>
</g>
</g>
<!-- Node4 -->
<g id="Node000004" class="node">
<title>Node4</title>
<g id="a_Node000004"><a xlink:href="packet__buf_8c.html#a3901c362d723ea046af64e2b96ad24b6" target="_top" xlink:title=" ">
<polygon fill="white" stroke="#666666" points="589,-285.5 478.5,-285.5 478.5,-252 589,-252 589,-285.5"/>
<text text-anchor="start" x="486.5" y="-272" font-family="Helvetica,sans-Serif" font-size="10.00">vlcb_net_packetbuf</text>
<text text-anchor="middle" x="533.75" y="-259.25" font-family="Helvetica,sans-Serif" font-size="10.00">_IsEmpty</text>
</a>
</g>
</g>
<!-- Node3&#45;&gt;Node4 -->
<g id="edge3_Node000003_Node000004" class="edge">
<title>Node3&#45;&gt;Node4</title>
<g id="a_edge3_Node000003_Node000004"><a xlink:title=" ">
<path fill="none" stroke="#63b8ff" d="M430.36,-268.75C442.38,-268.75 454.91,-268.75 466.92,-268.75"/>
<polygon fill="#63b8ff" stroke="#63b8ff" points="466.73,-272.25 476.73,-268.75 466.73,-265.25 466.73,-272.25"/>
</a>
</g>
</g>
<!-- Node7 -->
<g id="Node000007" class="node">
<title>Node7</title>
<g id="a_Node000007"><a xlink:href="iface__can_8c.html#a76a59452e911a2f524037904fd59f0bf" target="_top" xlink:title=" ">
<polygon fill="white" stroke="#666666" points="417.75,-201.12 308.75,-201.12 308.75,-180.38 417.75,-180.38 417.75,-201.12"/>
<text text-anchor="middle" x="363.25" y="-187.62" font-family="Helvetica,sans-Serif" font-size="10.00">DispatchCanPacket</text>
</a>
</g>
</g>
<!-- Node6&#45;&gt;Node7 -->
<g id="edge6_Node000006_Node000007" class="edge">
<title>Node6&#45;&gt;Node7</title>
<g id="a_edge6_Node000006_Node000007"><a xlink:title=" ">
<path fill="none" stroke="#63b8ff" d="M240.46,-190.75C258.42,-190.75 278.53,-190.75 297.16,-190.75"/>
<polygon fill="#63b8ff" stroke="#63b8ff" points="297.03,-194.25 307.03,-190.75 297.03,-187.25 297.03,-194.25"/>
</a>
</g>
</g>
<!-- Node11&#45;&gt;Node10 -->
<g id="edge11_Node000011_Node000010" class="edge">
<title>Node11&#45;&gt;Node10</title>
<g id="a_edge11_Node000011_Node000010"><a xlink:title=" ">
<path fill="none" stroke="#63b8ff" d="M237.57,-23.53C256.82,-26.03 278.84,-28.9 298.97,-31.52"/>
<polygon fill="#63b8ff" stroke="#63b8ff" points="298.37,-34.97 308.74,-32.79 299.28,-28.03 298.37,-34.97"/>
</a>
</g>
</g>
</g>
</svg>
