<?xml version="1.0" encoding="UTF-8" standalone="no"?>
<!DOCTYPE svg PUBLIC "-//W3C//DTD SVG 1.1//EN"
 "http://www.w3.org/Graphics/SVG/1.1/DTD/svg11.dtd">
<!-- Generated by graphviz version 12.1.2 (20240928.0832)
 -->
<!-- Title: ToggleUsedId Pages: 1 -->
<svg width="660pt" height="68pt"
 viewBox="0.00 0.00 660.25 67.75" xmlns="http://www.w3.org/2000/svg" xmlns:xlink="http://www.w3.org/1999/xlink">
<g id="graph0" class="graph" transform="scale(1 1) rotate(0) translate(4 63.75)">
<title>ToggleUsedId</title>
<!-- Node1 -->
<g id="Node000001" class="node">
<title>Node1</title>
<g id="a_Node000001"><a xlink:title=" ">
<polygon fill="#999999" stroke="#666666" points="652.25,-39.75 571,-39.75 571,-19 652.25,-19 652.25,-39.75"/>
<text text-anchor="middle" x="611.62" y="-26.25" font-family="Helvetica,sans-Serif" font-size="10.00">ToggleUsedId</text>
</a>
</g>
</g>
<!-- Node2 -->
<g id="Node000002" class="node">
<title>Node2</title>
<g id="a_Node000002"><a xlink:href="iface__can__svc_8c.html#ac408b1836518b97c2875b59ffaa7fdc0" target="_top" xlink:title=" ">
<polygon fill="white" stroke="#666666" points="535,-59.75 409.5,-59.75 409.5,-39 535,-39 535,-59.75"/>
<text text-anchor="middle" x="472.25" y="-46.25" font-family="Helvetica,sans-Serif" font-size="10.00">CanSvcEventConsume</text>
</a>
</g>
</g>
<!-- Node1&#45;&gt;Node2 -->
<g id="edge1_Node000001_Node000002" class="edge">
<title>Node1&#45;&gt;Node2</title>
<g id="a_edge1_Node000001_Node000002"><a xlink:title=" ">
<path fill="none" stroke="#63b8ff" d="M559.35,-36.84C551.54,-37.98 543.4,-39.16 535.38,-40.33"/>
<polygon fill="#63b8ff" stroke="#63b8ff" points="559.63,-40.34 569.02,-35.43 558.62,-33.41 559.63,-40.34"/>
</a>
</g>
</g>
<!-- Node6 -->
<g id="Node000006" class="node">
<title>Node6</title>
<g id="a_Node000006"><a xlink:href="iface__can__svc_8c.html#a0583c97314d46b6e4329c04cf959c575" target="_top" xlink:title=" ">
<polygon fill="white" stroke="#666666" points="517,-20.75 427.5,-20.75 427.5,0 517,0 517,-20.75"/>
<text text-anchor="middle" x="472.25" y="-7.25" font-family="Helvetica,sans-Serif" font-size="10.00">CanSvcProcess</text>
</a>
</g>
</g>
<!-- Node1&#45;&gt;Node6 -->
<g id="edge5_Node000001_Node000006" class="edge">
<title>Node1&#45;&gt;Node6</title>
<g id="a_edge5_Node000001_Node000006"><a xlink:title=" ">
<path fill="none" stroke="#63b8ff" d="M559.27,-22.27C545.53,-20.37 530.81,-18.34 517.49,-16.49"/>
<polygon fill="#63b8ff" stroke="#63b8ff" points="558.64,-25.72 569.02,-23.62 559.6,-18.78 558.64,-25.72"/>
</a>
</g>
</g>
<!-- Node3 -->
<g id="Node000003" class="node">
<title>Node3</title>
<g id="a_Node000003"><a xlink:href="iface__can_8c.html#a96e0054424451b9fdc03c51cd74b9cb8" target="_top" xlink:title=" ">
<polygon fill="white" stroke="#666666" points="373.5,-39.75 269.75,-39.75 269.75,-19 373.5,-19 373.5,-39.75"/>
<text text-anchor="middle" x="321.62" y="-26.25" font-family="Helvetica,sans-Serif" font-size="10.00">ProcessCanPacket</text>
</a>
</g>
</g>
<!-- Node2&#45;&gt;Node3 -->
<g id="edge2_Node000002_Node000003" class="edge">
<title>Node2&#45;&gt;Node3</title>
<g id="a_edge2_Node000002_Node000003"><a xlink:title=" ">
<path fill="none" stroke="#63b8ff" d="M397.68,-39.47C389.58,-38.39 381.47,-37.29 373.73,-36.25"/>
<polygon fill="#63b8ff" stroke="#63b8ff" points="397.2,-42.94 407.58,-40.81 398.14,-36 397.2,-42.94"/>
</a>
</g>
</g>
<!-- Node4 -->
<g id="Node000004" class="node">
<title>Node4</title>
<g id="a_Node000004"><a xlink:href="iface_8c.html#af59bb4e147a7f433c74828ae07108404" target="_top" xlink:title=" ">
<polygon fill="white" stroke="#666666" points="233.75,-39.75 145.75,-39.75 145.75,-19 233.75,-19 233.75,-39.75"/>
<text text-anchor="middle" x="189.75" y="-26.25" font-family="Helvetica,sans-Serif" font-size="10.00">IngressPackets</text>
</a>
</g>
</g>
<!-- Node3&#45;&gt;Node4 -->
<g id="edge3_Node000003_Node000004" class="edge">
<title>Node3&#45;&gt;Node4</title>
<g id="a_edge3_Node000003_Node000004"><a xlink:title=" ">
<path fill="none" stroke="#63b8ff" d="M257.99,-29.38C249.93,-29.38 241.82,-29.38 234.17,-29.38"/>
<polygon fill="#63b8ff" stroke="#63b8ff" points="257.78,-32.88 267.78,-29.38 257.78,-25.88 257.78,-32.88"/>
</a>
</g>
</g>
<!-- Node5 -->
<g id="Node000005" class="node">
<title>Node5</title>
<g id="a_Node000005"><a xlink:href="iface_8c.html#ac759fac91807dd30f90627e4c7a6dce2" target="_top" xlink:title=" ">
<polygon fill="white" stroke="#666666" points="109.75,-39.75 0,-39.75 0,-19 109.75,-19 109.75,-39.75"/>
<text text-anchor="middle" x="54.88" y="-26.25" font-family="Helvetica,sans-Serif" font-size="10.00">vlcb_net_iface_Poll</text>
</a>
</g>
</g>
<!-- Node4&#45;&gt;Node5 -->
<g id="edge4_Node000004_Node000005" class="edge">
<title>Node4&#45;&gt;Node5</title>
<g id="a_edge4_Node000004_Node000005"><a xlink:title=" ">
<path fill="none" stroke="#63b8ff" d="M134.14,-29.38C126.16,-29.38 117.94,-29.38 109.97,-29.38"/>
<polygon fill="#63b8ff" stroke="#63b8ff" points="134.1,-32.88 144.1,-29.38 134.1,-25.88 134.1,-32.88"/>
</a>
</g>
</g>
<!-- Node6&#45;&gt;Node3 -->
<g id="edge6_Node000006_Node000003" class="edge">
<title>Node6&#45;&gt;Node3</title>
<g id="a_edge6_Node000006_Node000003"><a xlink:title=" ">
<path fill="none" stroke="#63b8ff" d="M415.8,-17.46C402.1,-19.22 387.47,-21.09 373.96,-22.81"/>
<polygon fill="#63b8ff" stroke="#63b8ff" points="416.08,-20.96 425.56,-16.22 415.2,-14.01 416.08,-20.96"/>
</a>
</g>
</g>
</g>
</svg>
