<?xml version="1.0" encoding="UTF-8" standalone="no"?>
<!DOCTYPE svg PUBLIC "-//W3C//DTD SVG 1.1//EN"
 "http://www.w3.org/Graphics/SVG/1.1/DTD/svg11.dtd">
<!-- Generated by graphviz version 12.1.2 (20240928.0832)
 -->
<!-- Title: vlcb_net_iface_Poll Pages: 1 -->
<svg width="1095pt" height="756pt"
 viewBox="0.00 0.00 1095.00 755.50" xmlns="http://www.w3.org/2000/svg" xmlns:xlink="http://www.w3.org/1999/xlink">
<g id="graph0" class="graph" transform="scale(1 1) rotate(0) translate(4 751.5)">
<title>vlcb_net_iface_Poll</title>
<!-- Node1 -->
<g id="Node000001" class="node">
<title>Node1</title>
<g id="a_Node000001"><a xlink:title=" ">
<polygon fill="#999999" stroke="#666666" points="109.75,-515.12 0,-515.12 0,-494.38 109.75,-494.38 109.75,-515.12"/>
<text text-anchor="middle" x="54.88" y="-501.62" font-family="Helvetica,sans-Serif" font-size="10.00">vlcb_net_iface_Poll</text>
</a>
</g>
</g>
<!-- Node2 -->
<g id="Node000002" class="node">
<title>Node2</title>
<g id="a_Node000002"><a xlink:href="iface_8c.html#a671fece11b167dc248031f6928ed836b" target="_top" xlink:title=" ">
<polygon fill="white" stroke="#666666" points="523.75,-541.12 438.75,-541.12 438.75,-520.38 523.75,-520.38 523.75,-541.12"/>
<text text-anchor="middle" x="481.25" y="-527.62" font-family="Helvetica,sans-Serif" font-size="10.00">EgressPackets</text>
</a>
</g>
</g>
<!-- Node1&#45;&gt;Node2 -->
<g id="edge1_Node000001_Node000002" class="edge">
<title>Node1&#45;&gt;Node2</title>
<g id="a_edge1_Node000001_Node000002"><a xlink:title=" ">
<path fill="none" stroke="#63b8ff" d="M110.05,-508.07C191.84,-513.08 345.87,-522.52 427.06,-527.49"/>
<polygon fill="#63b8ff" stroke="#63b8ff" points="426.79,-530.98 436.98,-528.1 427.22,-523.99 426.79,-530.98"/>
</a>
</g>
</g>
<!-- Node17 -->
<g id="Node000017" class="node">
<title>Node17</title>
<g id="a_Node000017"><a xlink:href="iface_8c.html#af59bb4e147a7f433c74828ae07108404" target="_top" xlink:title=" ">
<polygon fill="white" stroke="#666666" points="233.75,-496.12 145.75,-496.12 145.75,-475.38 233.75,-475.38 233.75,-496.12"/>
<text text-anchor="middle" x="189.75" y="-482.62" font-family="Helvetica,sans-Serif" font-size="10.00">IngressPackets</text>
</a>
</g>
</g>
<!-- Node1&#45;&gt;Node17 -->
<g id="edge17_Node000001_Node000017" class="edge">
<title>Node1&#45;&gt;Node17</title>
<g id="a_edge17_Node000001_Node000017"><a xlink:title=" ">
<path fill="none" stroke="#63b8ff" d="M109.92,-497.02C117.93,-495.88 126.19,-494.7 134.21,-493.55"/>
<polygon fill="#63b8ff" stroke="#63b8ff" points="134.43,-497.05 143.84,-492.17 133.44,-490.12 134.43,-497.05"/>
</a>
</g>
</g>
<!-- Node3 -->
<g id="Node000003" class="node">
<title>Node3</title>
<g id="a_Node000003"><a xlink:href="socket_2datagram_8c.html#a7078de64bfd986745f84ef33ea013ddd" target="_top" xlink:title=" ">
<polygon fill="white" stroke="#666666" points="711.88,-663.12 621.62,-663.12 621.62,-642.38 711.88,-642.38 711.88,-663.12"/>
<text text-anchor="middle" x="666.75" y="-649.62" font-family="Helvetica,sans-Serif" font-size="10.00">DispatchPacket</text>
</a>
</g>
</g>
<!-- Node2&#45;&gt;Node3 -->
<g id="edge2_Node000002_Node000003" class="edge">
<title>Node2&#45;&gt;Node3</title>
<g id="a_edge2_Node000002_Node000003"><a xlink:title=" ">
<path fill="none" stroke="#63b8ff" d="M490.36,-541.54C506.66,-562.44 545.57,-608.53 589,-632.75 595.63,-636.45 602.95,-639.48 610.38,-641.96"/>
<polygon fill="#63b8ff" stroke="#63b8ff" points="609.21,-645.26 619.8,-644.78 611.22,-638.56 609.21,-645.26"/>
</a>
</g>
</g>
<!-- Node8 -->
<g id="Node000008" class="node">
<title>Node8</title>
<g id="a_Node000008"><a xlink:href="iface__vlcb_8c.html#a0d6563489a49082e53653774882bd0c9" target="_top" xlink:title=" ">
<polygon fill="white" stroke="#666666" points="722.38,-624.12 611.12,-624.12 611.12,-603.38 722.38,-603.38 722.38,-624.12"/>
<text text-anchor="middle" x="666.75" y="-610.62" font-family="Helvetica,sans-Serif" font-size="10.00">DispatchVlcbPacket</text>
</a>
</g>
</g>
<!-- Node2&#45;&gt;Node8 -->
<g id="edge7_Node000002_Node000008" class="edge">
<title>Node2&#45;&gt;Node8</title>
<g id="a_edge7_Node000002_Node000008"><a xlink:title=" ">
<path fill="none" stroke="#63b8ff" d="M499.09,-541.46C519.69,-554.22 555.9,-575.6 589,-589.75 597.21,-593.26 606.12,-596.52 614.85,-599.42"/>
<polygon fill="#63b8ff" stroke="#63b8ff" points="613.73,-602.74 624.32,-602.45 615.86,-596.07 613.73,-602.74"/>
</a>
</g>
</g>
<!-- Node10 -->
<g id="Node000010" class="node">
<title>Node10</title>
<g id="a_Node000010"><a xlink:href="adapter_8c.html#a74b46c574ae26bb9f527b6b157cb644e" target="_top" xlink:title=" ">
<polygon fill="white" stroke="#666666" points="730.25,-496.12 603.25,-496.12 603.25,-475.38 730.25,-475.38 730.25,-496.12"/>
<text text-anchor="middle" x="666.75" y="-482.62" font-family="Helvetica,sans-Serif" font-size="10.00">vlcb_net_adpt_ErrToStr</text>
</a>
</g>
</g>
<!-- Node2&#45;&gt;Node10 -->
<g id="edge9_Node000002_Node000010" class="edge">
<title>Node2&#45;&gt;Node10</title>
<g id="a_edge9_Node000002_Node000010"><a xlink:title=" ">
<path fill="none" stroke="#63b8ff" d="M523.89,-520.54C549.54,-514.25 582.73,-506.11 610.55,-499.29"/>
<polygon fill="#63b8ff" stroke="#63b8ff" points="611.37,-502.69 620.25,-496.91 609.7,-495.89 611.37,-502.69"/>
</a>
</g>
</g>
<!-- Node11 -->
<g id="Node000011" class="node">
<title>Node11</title>
<g id="a_Node000011"><a xlink:href="socket_8h.html#af1798c6232affacea2af6454ee98581d" target="_top" xlink:title=" ">
<polygon fill="white" stroke="#666666" points="740,-547.5 593.5,-547.5 593.5,-514 740,-514 740,-547.5"/>
<text text-anchor="start" x="601.5" y="-534" font-family="Helvetica,sans-Serif" font-size="10.00">vlcb_net_sock_DispatchErr</text>
<text text-anchor="middle" x="666.75" y="-521.25" font-family="Helvetica,sans-Serif" font-size="10.00">ToStr</text>
</a>
</g>
</g>
<!-- Node2&#45;&gt;Node11 -->
<g id="edge10_Node000002_Node000011" class="edge">
<title>Node2&#45;&gt;Node11</title>
<g id="a_edge10_Node000002_Node000011"><a xlink:title=" ">
<path fill="none" stroke="#63b8ff" d="M523.89,-530.75C541.12,-530.75 561.75,-530.75 581.87,-530.75"/>
<polygon fill="#63b8ff" stroke="#63b8ff" points="581.78,-534.25 591.78,-530.75 581.78,-527.25 581.78,-534.25"/>
</a>
</g>
</g>
<!-- Node12 -->
<g id="Node000012" class="node">
<title>Node12</title>
<g id="a_Node000012"><a xlink:href="socket_8c.html#a9401eccd14dd3acd44764c5e8a05beaf" target="_top" xlink:title=" ">
<polygon fill="white" stroke="#666666" points="719.38,-457.5 614.12,-457.5 614.12,-424 719.38,-424 719.38,-457.5"/>
<text text-anchor="start" x="622.12" y="-444" font-family="Helvetica,sans-Serif" font-size="10.00">vlcb_net_sock_list</text>
<text text-anchor="middle" x="666.75" y="-431.25" font-family="Helvetica,sans-Serif" font-size="10.00">_GetIterator</text>
</a>
</g>
</g>
<!-- Node2&#45;&gt;Node12 -->
<g id="edge11_Node000002_Node000012" class="edge">
<title>Node2&#45;&gt;Node12</title>
<g id="a_edge11_Node000002_Node000012"><a xlink:title=" ">
<path fill="none" stroke="#63b8ff" d="M497.94,-519.88C518.25,-506.16 555.07,-482.45 589,-466.75 593.58,-464.63 598.38,-462.6 603.25,-460.67"/>
<polygon fill="#63b8ff" stroke="#63b8ff" points="604.44,-463.96 612.55,-457.14 601.96,-457.41 604.44,-463.96"/>
</a>
</g>
</g>
<!-- Node13 -->
<g id="Node000013" class="node">
<title>Node13</title>
<g id="a_Node000013"><a xlink:href="socket_8c.html#a176c72971ceb14a338d824d7a3bb0fac" target="_top" xlink:title=" ">
<polygon fill="white" stroke="#666666" points="913.12,-306.5 807.88,-306.5 807.88,-273 913.12,-273 913.12,-306.5"/>
<text text-anchor="start" x="815.88" y="-293" font-family="Helvetica,sans-Serif" font-size="10.00">vlcb_net_sock_list</text>
<text text-anchor="middle" x="860.5" y="-280.25" font-family="Helvetica,sans-Serif" font-size="10.00">_iter_HasNext</text>
</a>
</g>
</g>
<!-- Node2&#45;&gt;Node13 -->
<g id="edge12_Node000002_Node000013" class="edge">
<title>Node2&#45;&gt;Node13</title>
<g id="a_edge12_Node000002_Node000013"><a xlink:title=" ">
<path fill="none" stroke="#63b8ff" d="M502.51,-541.47C550.7,-565.32 673.42,-616.18 744.5,-556.75 813.79,-498.82 735.41,-435.01 780.5,-356.75 790.39,-339.59 806.39,-324.79 821.42,-313.5"/>
<polygon fill="#63b8ff" stroke="#63b8ff" points="823.26,-316.49 829.35,-307.82 819.19,-310.8 823.26,-316.49"/>
</a>
</g>
</g>
<!-- Node14 -->
<g id="Node000014" class="node">
<title>Node14</title>
<g id="a_Node000014"><a xlink:href="socket_8c.html#a81bef9c5afd9ccbb9d0a52b2ae1da9b2" target="_top" xlink:title=" ">
<polygon fill="white" stroke="#666666" points="719.38,-367.5 614.12,-367.5 614.12,-334 719.38,-334 719.38,-367.5"/>
<text text-anchor="start" x="622.12" y="-354" font-family="Helvetica,sans-Serif" font-size="10.00">vlcb_net_sock_list</text>
<text text-anchor="middle" x="666.75" y="-341.25" font-family="Helvetica,sans-Serif" font-size="10.00">_iter_Next</text>
</a>
</g>
</g>
<!-- Node2&#45;&gt;Node14 -->
<g id="edge13_Node000002_Node000014" class="edge">
<title>Node2&#45;&gt;Node14</title>
<g id="a_edge13_Node000002_Node000014"><a xlink:title=" ">
<path fill="none" stroke="#63b8ff" d="M486.75,-520.04C498.97,-492.22 535.47,-417.07 589,-376.75 593.52,-373.35 598.51,-370.37 603.72,-367.77"/>
<polygon fill="#63b8ff" stroke="#63b8ff" points="604.83,-371.1 612.55,-363.84 601.99,-364.71 604.83,-371.1"/>
</a>
</g>
</g>
<!-- Node15 -->
<g id="Node000015" class="node">
<title>Node15</title>
<g id="a_Node000015"><a xlink:href="socket_8h.html#abc6ab24adb81104732076d7fe4bcda01" target="_top" xlink:title=" ">
<polygon fill="white" stroke="#666666" points="728,-736.5 605.5,-736.5 605.5,-703 728,-703 728,-736.5"/>
<text text-anchor="start" x="613.5" y="-723" font-family="Helvetica,sans-Serif" font-size="10.00">vlcb_net_sock_packet</text>
<text text-anchor="middle" x="666.75" y="-710.25" font-family="Helvetica,sans-Serif" font-size="10.00">_token_Refuse</text>
</a>
</g>
</g>
<!-- Node2&#45;&gt;Node15 -->
<g id="edge15_Node000002_Node000015" class="edge">
<title>Node2&#45;&gt;Node15</title>
<g id="a_edge15_Node000002_Node000015"><a xlink:title=" ">
<path fill="none" stroke="#63b8ff" d="M488.39,-541.34C503.23,-566.3 543.23,-629.89 589,-671.75 599.15,-681.03 611.32,-689.58 622.96,-696.8"/>
<polygon fill="#63b8ff" stroke="#63b8ff" points="620.87,-699.63 631.25,-701.77 624.47,-693.63 620.87,-699.63"/>
</a>
</g>
</g>
<!-- Node4 -->
<g id="Node000004" class="node">
<title>Node4</title>
<g id="a_Node000004"><a xlink:href="addr_8h.html#a83d3f92953278599a373c60afe6806c6" target="_top" xlink:title=" ">
<polygon fill="white" stroke="#666666" points="940.5,-512.12 780.5,-512.12 780.5,-491.38 940.5,-491.38 940.5,-512.12"/>
<text text-anchor="middle" x="860.5" y="-498.62" font-family="Helvetica,sans-Serif" font-size="10.00">vlcb_net_IsWireEndpointValid</text>
</a>
</g>
</g>
<!-- Node3&#45;&gt;Node4 -->
<g id="edge3_Node000003_Node000004" class="edge">
<title>Node3&#45;&gt;Node4</title>
<g id="a_edge3_Node000003_Node000004"><a xlink:title=" ">
<path fill="none" stroke="#63b8ff" d="M712.05,-647.09C723.38,-644.13 735.02,-639.62 744.5,-632.75 768.46,-615.39 761.64,-599.54 780.5,-576.75 798,-555.61 821.05,-534.33 837.73,-519.87"/>
<polygon fill="#63b8ff" stroke="#63b8ff" points="839.78,-522.72 845.11,-513.56 835.24,-517.4 839.78,-522.72"/>
</a>
</g>
</g>
<!-- Node5 -->
<g id="Node000005" class="node">
<title>Node5</title>
<g id="a_Node000005"><a xlink:href="packet__buf_8c.html#a029619a9922642b39c89b7f3da28ce70" target="_top" xlink:title=" ">
<polygon fill="white" stroke="#666666" points="915.75,-657.5 805.25,-657.5 805.25,-624 915.75,-624 915.75,-657.5"/>
<text text-anchor="start" x="813.25" y="-644" font-family="Helvetica,sans-Serif" font-size="10.00">vlcb_net_packetbuf</text>
<text text-anchor="middle" x="860.5" y="-631.25" font-family="Helvetica,sans-Serif" font-size="10.00">_PopDeferred</text>
</a>
</g>
</g>
<!-- Node3&#45;&gt;Node5 -->
<g id="edge4_Node000003_Node000005" class="edge">
<title>Node3&#45;&gt;Node5</title>
<g id="a_edge4_Node000003_Node000005"><a xlink:title=" ">
<path fill="none" stroke="#63b8ff" d="M712.22,-649.97C736.42,-648.45 766.83,-646.55 793.72,-644.87"/>
<polygon fill="#63b8ff" stroke="#63b8ff" points="793.73,-648.37 803.49,-644.26 793.29,-641.39 793.73,-648.37"/>
</a>
</g>
</g>
<!-- Node7 -->
<g id="Node000007" class="node">
<title>Node7</title>
<g id="a_Node000007"><a xlink:href="vlcb_8c.html#a6f58b6fc33b3f723dd7254df2648a6e1" target="_top" xlink:title=" ">
<polygon fill="white" stroke="#666666" points="939.75,-696.12 781.25,-696.12 781.25,-675.38 939.75,-675.38 939.75,-696.12"/>
<text text-anchor="middle" x="860.5" y="-682.62" font-family="Helvetica,sans-Serif" font-size="10.00">vlcb_net_pkt_NewUnchecked</text>
</a>
</g>
</g>
<!-- Node3&#45;&gt;Node7 -->
<g id="edge6_Node000003_Node000007" class="edge">
<title>Node3&#45;&gt;Node7</title>
<g id="a_edge6_Node000003_Node000007"><a xlink:title=" ">
<path fill="none" stroke="#63b8ff" d="M712.22,-660.4C733.91,-664.14 760.57,-668.72 785.22,-672.97"/>
<polygon fill="#63b8ff" stroke="#63b8ff" points="784.44,-676.38 794.89,-674.63 785.63,-669.49 784.44,-676.38"/>
</a>
</g>
</g>
<!-- Node6 -->
<g id="Node000006" class="node">
<title>Node6</title>
<g id="a_Node000006"><a xlink:href="packet__buf_8c.html#a3901c362d723ea046af64e2b96ad24b6" target="_top" xlink:title=" ">
<polygon fill="white" stroke="#666666" points="1087,-657.5 976.5,-657.5 976.5,-624 1087,-624 1087,-657.5"/>
<text text-anchor="start" x="984.5" y="-644" font-family="Helvetica,sans-Serif" font-size="10.00">vlcb_net_packetbuf</text>
<text text-anchor="middle" x="1031.75" y="-631.25" font-family="Helvetica,sans-Serif" font-size="10.00">_IsEmpty</text>
</a>
</g>
</g>
<!-- Node5&#45;&gt;Node6 -->
<g id="edge5_Node000005_Node000006" class="edge">
<title>Node5&#45;&gt;Node6</title>
<g id="a_edge5_Node000005_Node000006"><a xlink:title=" ">
<path fill="none" stroke="#63b8ff" d="M915.98,-640.75C931.46,-640.75 948.48,-640.75 964.57,-640.75"/>
<polygon fill="#63b8ff" stroke="#63b8ff" points="964.57,-644.25 974.57,-640.75 964.57,-637.25 964.57,-644.25"/>
</a>
</g>
</g>
<!-- Node9 -->
<g id="Node000009" class="node">
<title>Node9</title>
<g id="a_Node000009"><a xlink:href="iface__can_8c.html#a76a59452e911a2f524037904fd59f0bf" target="_top" xlink:title=" ">
<polygon fill="white" stroke="#666666" points="915,-606.12 806,-606.12 806,-585.38 915,-585.38 915,-606.12"/>
<text text-anchor="middle" x="860.5" y="-592.62" font-family="Helvetica,sans-Serif" font-size="10.00">DispatchCanPacket</text>
</a>
</g>
</g>
<!-- Node8&#45;&gt;Node9 -->
<g id="edge8_Node000008_Node000009" class="edge">
<title>Node8&#45;&gt;Node9</title>
<g id="a_edge8_Node000008_Node000009"><a xlink:title=" ">
<path fill="none" stroke="#63b8ff" d="M722.7,-608.59C745.05,-606.49 771.05,-604.05 794.35,-601.87"/>
<polygon fill="#63b8ff" stroke="#63b8ff" points="794.4,-605.38 804.03,-600.96 793.75,-598.41 794.4,-605.38"/>
</a>
</g>
</g>
<!-- Node14&#45;&gt;Node13 -->
<g id="edge14_Node000014_Node000013" class="edge">
<title>Node14&#45;&gt;Node13</title>
<g id="a_edge14_Node000014_Node000013"><a xlink:title=" ">
<path fill="none" stroke="#63b8ff" d="M719.64,-334.24C743.41,-326.68 771.78,-317.66 796.74,-309.72"/>
<polygon fill="#63b8ff" stroke="#63b8ff" points="797.66,-313.1 806.13,-306.73 795.54,-306.43 797.66,-313.1"/>
</a>
</g>
</g>
<!-- Node16 -->
<g id="Node000016" class="node">
<title>Node16</title>
<g id="a_Node000016"><a xlink:href="packet__buf_8c.html#aa2023dbabc1a378dc35eb2e8070322cc" target="_top" xlink:title=" ">
<polygon fill="white" stroke="#666666" points="918.38,-747.5 802.62,-747.5 802.62,-714 918.38,-714 918.38,-747.5"/>
<text text-anchor="start" x="810.62" y="-734" font-family="Helvetica,sans-Serif" font-size="10.00">vlcb_net_packetbuf</text>
<text text-anchor="middle" x="860.5" y="-721.25" font-family="Helvetica,sans-Serif" font-size="10.00">_PopDeferredRefuse</text>
</a>
</g>
</g>
<!-- Node15&#45;&gt;Node16 -->
<g id="edge16_Node000015_Node000016" class="edge">
<title>Node15&#45;&gt;Node16</title>
<g id="a_edge16_Node000015_Node000016"><a xlink:title=" ">
<path fill="none" stroke="#63b8ff" d="M728.42,-723.23C748.23,-724.37 770.37,-725.64 790.74,-726.81"/>
<polygon fill="#63b8ff" stroke="#63b8ff" points="790.47,-730.3 800.65,-727.37 790.87,-723.31 790.47,-730.3"/>
</a>
</g>
</g>
<!-- Node17&#45;&gt;Node10 -->
<g id="edge40_Node000017_Node000010" class="edge">
<title>Node17&#45;&gt;Node10</title>
<g id="a_edge40_Node000017_Node000010"><a xlink:title=" ">
<path fill="none" stroke="#63b8ff" d="M234.16,-485.75C315.43,-485.75 491.34,-485.75 591.68,-485.75"/>
<polygon fill="#63b8ff" stroke="#63b8ff" points="591.42,-489.25 601.42,-485.75 591.42,-482.25 591.42,-489.25"/>
</a>
</g>
</g>
<!-- Node18 -->
<g id="Node000018" class="node">
<title>Node18</title>
<g id="a_Node000018"><a xlink:href="iface__can_8c.html#a96e0054424451b9fdc03c51cd74b9cb8" target="_top" xlink:title=" ">
<polygon fill="white" stroke="#666666" points="373.5,-292.12 269.75,-292.12 269.75,-271.38 373.5,-271.38 373.5,-292.12"/>
<text text-anchor="middle" x="321.62" y="-278.62" font-family="Helvetica,sans-Serif" font-size="10.00">ProcessCanPacket</text>
</a>
</g>
</g>
<!-- Node17&#45;&gt;Node18 -->
<g id="edge18_Node000017_Node000018" class="edge">
<title>Node17&#45;&gt;Node18</title>
<g id="a_edge18_Node000017_Node000018"><a xlink:title=" ">
<path fill="none" stroke="#63b8ff" d="M197.55,-475.07C218.24,-442.57 280.67,-344.51 307.8,-301.89"/>
<polygon fill="#63b8ff" stroke="#63b8ff" points="310.66,-303.92 313.08,-293.6 304.76,-300.16 310.66,-303.92"/>
</a>
</g>
</g>
<!-- Node18&#45;&gt;Node12 -->
<g id="edge37_Node000018_Node000012" class="edge">
<title>Node18&#45;&gt;Node12</title>
<g id="a_edge37_Node000018_Node000012"><a xlink:title=" ">
<path fill="none" stroke="#63b8ff" d="M329.29,-292.48C342.2,-312.33 372.64,-354.78 409.5,-376.75 469.26,-412.36 548.18,-428.24 602.57,-435.27"/>
<polygon fill="#63b8ff" stroke="#63b8ff" points="601.93,-438.72 612.28,-436.46 602.78,-431.77 601.93,-438.72"/>
</a>
</g>
</g>
<!-- Node18&#45;&gt;Node13 -->
<g id="edge38_Node000018_Node000013" class="edge">
<title>Node18&#45;&gt;Node13</title>
<g id="a_edge38_Node000018_Node000013"><a xlink:title=" ">
<path fill="none" stroke="#63b8ff" d="M336.24,-270.96C389.94,-229.76 591.63,-88.19 744.5,-157.75 791.72,-179.24 827.1,-230.76 845.43,-262.71"/>
<polygon fill="#63b8ff" stroke="#63b8ff" points="842.34,-264.35 850.26,-271.4 848.46,-260.96 842.34,-264.35"/>
</a>
</g>
</g>
<!-- Node18&#45;&gt;Node14 -->
<g id="edge39_Node000018_Node000014" class="edge">
<title>Node18&#45;&gt;Node14</title>
<g id="a_edge39_Node000018_Node000014"><a xlink:title=" ">
<path fill="none" stroke="#63b8ff" d="M371.29,-292.6C383.73,-295.31 397.1,-298.19 409.5,-300.75 475.25,-314.35 550.71,-328.95 602.62,-338.84"/>
<polygon fill="#63b8ff" stroke="#63b8ff" points="601.69,-342.23 612.17,-340.66 603,-335.35 601.69,-342.23"/>
</a>
</g>
</g>
<!-- Node19 -->
<g id="Node000019" class="node">
<title>Node19</title>
<g id="a_Node000019"><a xlink:href="iface__can__svc_8c.html#ac408b1836518b97c2875b59ffaa7fdc0" target="_top" xlink:title=" ">
<polygon fill="white" stroke="#666666" points="544,-111.12 418.5,-111.12 418.5,-90.38 544,-90.38 544,-111.12"/>
<text text-anchor="middle" x="481.25" y="-97.62" font-family="Helvetica,sans-Serif" font-size="10.00">CanSvcEventConsume</text>
</a>
</g>
</g>
<!-- Node18&#45;&gt;Node19 -->
<g id="edge19_Node000018_Node000019" class="edge">
<title>Node18&#45;&gt;Node19</title>
<g id="a_edge19_Node000018_Node000019"><a xlink:title=" ">
<path fill="none" stroke="#63b8ff" d="M325.52,-271.24C333.76,-243.23 360.02,-166.1 409.5,-124.75 413.35,-121.53 417.66,-118.73 422.2,-116.31"/>
<polygon fill="#63b8ff" stroke="#63b8ff" points="423.44,-119.59 431.03,-112.2 420.49,-113.24 423.44,-119.59"/>
</a>
</g>
</g>
<!-- Node21 -->
<g id="Node000021" class="node">
<title>Node21</title>
<g id="a_Node000021"><a xlink:href="iface__can__svc_8c.html#a0583c97314d46b6e4329c04cf959c575" target="_top" xlink:title=" ">
<polygon fill="white" stroke="#666666" points="526,-72.12 436.5,-72.12 436.5,-51.38 526,-51.38 526,-72.12"/>
<text text-anchor="middle" x="481.25" y="-58.62" font-family="Helvetica,sans-Serif" font-size="10.00">CanSvcProcess</text>
</a>
</g>
</g>
<!-- Node18&#45;&gt;Node21 -->
<g id="edge21_Node000018_Node000021" class="edge">
<title>Node18&#45;&gt;Node21</title>
<g id="a_edge21_Node000018_Node000021"><a xlink:title=" ">
<path fill="none" stroke="#63b8ff" d="M324.02,-271.21C328.96,-238.03 348.79,-134.81 409.5,-81.75 414.19,-77.66 419.65,-74.39 425.43,-71.8"/>
<polygon fill="#63b8ff" stroke="#63b8ff" points="426.52,-75.13 434.66,-68.34 424.07,-68.57 426.52,-75.13"/>
</a>
</g>
</g>
<!-- Node23 -->
<g id="Node000023" class="node">
<title>Node23</title>
<g id="a_Node000023"><a xlink:href="iface__vlcb_8c.html#a772411fa3c2c8faf08e996dcec735dbe" target="_top" xlink:title=" ">
<polygon fill="white" stroke="#666666" points="534.25,-292.12 428.25,-292.12 428.25,-271.38 534.25,-271.38 534.25,-292.12"/>
<text text-anchor="middle" x="481.25" y="-278.62" font-family="Helvetica,sans-Serif" font-size="10.00">ProcessVlcbPacket</text>
</a>
</g>
</g>
<!-- Node18&#45;&gt;Node23 -->
<g id="edge24_Node000018_Node000023" class="edge">
<title>Node18&#45;&gt;Node23</title>
<g id="a_edge24_Node000018_Node000023"><a xlink:title=" ">
<path fill="none" stroke="#63b8ff" d="M373.8,-281.75C387.49,-281.75 402.45,-281.75 416.72,-281.75"/>
<polygon fill="#63b8ff" stroke="#63b8ff" points="416.47,-285.25 426.47,-281.75 416.47,-278.25 416.47,-285.25"/>
</a>
</g>
</g>
<!-- Node30 -->
<g id="Node000030" class="node">
<title>Node30</title>
<g id="a_Node000030"><a xlink:href="vlcb_8c.html#a4e4a44bda5ebfb3ee1340066623890ad" target="_top" xlink:title=" ">
<polygon fill="white" stroke="#666666" points="553,-33.5 409.5,-33.5 409.5,0 553,0 553,-33.5"/>
<text text-anchor="start" x="417.5" y="-20" font-family="Helvetica,sans-Serif" font-size="10.00">vlcb_net_pkt_ConstructErr</text>
<text text-anchor="middle" x="481.25" y="-7.25" font-family="Helvetica,sans-Serif" font-size="10.00">ToStr</text>
</a>
</g>
</g>
<!-- Node18&#45;&gt;Node30 -->
<g id="edge35_Node000018_Node000030" class="edge">
<title>Node18&#45;&gt;Node30</title>
<g id="a_edge35_Node000018_Node000030"><a xlink:title=" ">
<path fill="none" stroke="#63b8ff" d="M323.4,-271.02C326.62,-234.01 342.19,-110.3 409.5,-42.75 410.23,-42.02 410.98,-41.31 411.75,-40.62"/>
<polygon fill="#63b8ff" stroke="#63b8ff" points="413.54,-43.65 419.46,-34.86 409.35,-38.04 413.54,-43.65"/>
</a>
</g>
</g>
<!-- Node31 -->
<g id="Node000031" class="node">
<title>Node31</title>
<g id="a_Node000031"><a xlink:href="vlcb_8c.html#a4f542a7ed4e87e0e5597469e99484180" target="_top" xlink:title=" ">
<polygon fill="white" stroke="#666666" points="533.88,-368.12 428.62,-368.12 428.62,-347.38 533.88,-347.38 533.88,-368.12"/>
<text text-anchor="middle" x="481.25" y="-354.62" font-family="Helvetica,sans-Serif" font-size="10.00">vlcb_net_pkt_New</text>
</a>
</g>
</g>
<!-- Node18&#45;&gt;Node31 -->
<g id="edge36_Node000018_Node000031" class="edge">
<title>Node18&#45;&gt;Node31</title>
<g id="a_edge36_Node000018_Node000031"><a xlink:title=" ">
<path fill="none" stroke="#63b8ff" d="M338.39,-292.59C355.39,-303.93 383.49,-321.72 409.5,-333.75 416.95,-337.19 425.03,-340.4 432.99,-343.28"/>
<polygon fill="#63b8ff" stroke="#63b8ff" points="431.65,-346.52 442.25,-346.49 433.95,-339.91 431.65,-346.52"/>
</a>
</g>
</g>
<!-- Node20 -->
<g id="Node000020" class="node">
<title>Node20</title>
<g id="a_Node000020"><a xlink:href="iface__can__svc_8c.html#a39dbc9176a838580211b17ab57f3ecab" target="_top" xlink:title=" ">
<polygon fill="white" stroke="#666666" points="707.38,-111.12 626.12,-111.12 626.12,-90.38 707.38,-90.38 707.38,-111.12"/>
<text text-anchor="middle" x="666.75" y="-97.62" font-family="Helvetica,sans-Serif" font-size="10.00">ToggleUsedId</text>
</a>
</g>
</g>
<!-- Node19&#45;&gt;Node20 -->
<g id="edge20_Node000019_Node000020" class="edge">
<title>Node19&#45;&gt;Node20</title>
<g id="a_edge20_Node000019_Node000020"><a xlink:title=" ">
<path fill="none" stroke="#63b8ff" d="M544.37,-100.75C567.2,-100.75 592.77,-100.75 614.53,-100.75"/>
<polygon fill="#63b8ff" stroke="#63b8ff" points="614.34,-104.25 624.34,-100.75 614.34,-97.25 614.34,-104.25"/>
</a>
</g>
</g>
<!-- Node21&#45;&gt;Node20 -->
<g id="edge23_Node000021_Node000020" class="edge">
<title>Node21&#45;&gt;Node20</title>
<g id="a_edge23_Node000021_Node000020"><a xlink:title=" ">
<path fill="none" stroke="#63b8ff" d="M526.2,-71.09C552.86,-76.76 586.97,-84.01 614.8,-89.92"/>
<polygon fill="#63b8ff" stroke="#63b8ff" points="613.92,-93.31 624.43,-91.97 615.38,-86.47 613.92,-93.31"/>
</a>
</g>
</g>
<!-- Node22 -->
<g id="Node000022" class="node">
<title>Node22</title>
<g id="a_Node000022"><a xlink:href="iface__can__svc_8c.html#a9b6b01728115744f4674fc751a5919f5" target="_top" xlink:title=" ">
<polygon fill="white" stroke="#666666" points="709.25,-72.12 624.25,-72.12 624.25,-51.38 709.25,-51.38 709.25,-72.12"/>
<text text-anchor="middle" x="666.75" y="-58.62" font-family="Helvetica,sans-Serif" font-size="10.00">ResolveFreeId</text>
</a>
</g>
</g>
<!-- Node21&#45;&gt;Node22 -->
<g id="edge22_Node000021_Node000022" class="edge">
<title>Node21&#45;&gt;Node22</title>
<g id="a_edge22_Node000021_Node000022"><a xlink:title=" ">
<path fill="none" stroke="#63b8ff" d="M526.2,-61.75C552.18,-61.75 585.25,-61.75 612.68,-61.75"/>
<polygon fill="#63b8ff" stroke="#63b8ff" points="612.53,-65.25 622.53,-61.75 612.53,-58.25 612.53,-65.25"/>
</a>
</g>
</g>
<!-- Node23&#45;&gt;Node12 -->
<g id="edge31_Node000023_Node000012" class="edge">
<title>Node23&#45;&gt;Node12</title>
<g id="a_edge31_Node000023_Node000012"><a xlink:title=" ">
<path fill="none" stroke="#63b8ff" d="M499.83,-292.6C515.41,-302.92 537.96,-319.67 553,-338.75 576.14,-368.1 561.09,-389.89 589,-414.75 593.35,-418.63 598.31,-421.93 603.56,-424.74"/>
<polygon fill="#63b8ff" stroke="#63b8ff" points="602.01,-427.89 612.56,-428.93 604.97,-421.54 602.01,-427.89"/>
</a>
</g>
</g>
<!-- Node23&#45;&gt;Node13 -->
<g id="edge32_Node000023_Node000013" class="edge">
<title>Node23&#45;&gt;Node13</title>
<g id="a_edge32_Node000023_Node000013"><a xlink:title=" ">
<path fill="none" stroke="#63b8ff" d="M508.46,-270.9C529.74,-262.7 560.75,-252.14 589,-247.75 657.29,-237.14 676.45,-235.71 744.5,-247.75 767.39,-251.8 791.7,-260.05 812.05,-268.18"/>
<polygon fill="#63b8ff" stroke="#63b8ff" points="810.63,-271.38 821.21,-271.95 813.29,-264.9 810.63,-271.38"/>
</a>
</g>
</g>
<!-- Node23&#45;&gt;Node14 -->
<g id="edge33_Node000023_Node000014" class="edge">
<title>Node23&#45;&gt;Node14</title>
<g id="a_edge33_Node000023_Node000014"><a xlink:title=" ">
<path fill="none" stroke="#63b8ff" d="M517.57,-292.51C529.02,-296.32 541.68,-300.88 553,-305.75 569.62,-312.9 572.38,-317.6 589,-324.75 593.56,-326.71 598.32,-328.62 603.13,-330.47"/>
<polygon fill="#63b8ff" stroke="#63b8ff" points="601.71,-333.67 612.3,-333.85 604.13,-327.1 601.71,-333.67"/>
</a>
</g>
</g>
<!-- Node24 -->
<g id="Node000024" class="node">
<title>Node24</title>
<g id="a_Node000024"><a xlink:href="socket_2datagram_8c.html#a61c95cabe20ca7a61ea528e4c70f1245" target="_top" xlink:title=" ">
<polygon fill="white" stroke="#666666" points="709.25,-406.12 624.25,-406.12 624.25,-385.38 709.25,-385.38 709.25,-406.12"/>
<text text-anchor="middle" x="666.75" y="-392.62" font-family="Helvetica,sans-Serif" font-size="10.00">ProcessPacket</text>
</a>
</g>
</g>
<!-- Node23&#45;&gt;Node24 -->
<g id="edge25_Node000023_Node000024" class="edge">
<title>Node23&#45;&gt;Node24</title>
<g id="a_edge25_Node000023_Node000024"><a xlink:title=" ">
<path fill="none" stroke="#63b8ff" d="M496.81,-292.56C511.45,-303.65 534.45,-321.63 553,-338.75 570.1,-354.53 568.9,-365.04 589,-376.75 596.34,-381.03 604.62,-384.35 612.95,-386.92"/>
<polygon fill="#63b8ff" stroke="#63b8ff" points="611.83,-390.24 622.4,-389.5 613.67,-383.49 611.83,-390.24"/>
</a>
</g>
</g>
<!-- Node27 -->
<g id="Node000027" class="node">
<title>Node27</title>
<g id="a_Node000027"><a xlink:href="socket_2datagram_8c.html#a97bab8fe9b6021439207f5bf70a2f2a3" target="_top" xlink:title=" ">
<polygon fill="white" stroke="#666666" points="716,-316.12 617.5,-316.12 617.5,-295.38 716,-295.38 716,-316.12"/>
<text text-anchor="middle" x="666.75" y="-302.62" font-family="Helvetica,sans-Serif" font-size="10.00">SupportsProtocol</text>
</a>
</g>
</g>
<!-- Node23&#45;&gt;Node27 -->
<g id="edge29_Node000023_Node000027" class="edge">
<title>Node23&#45;&gt;Node27</title>
<g id="a_edge29_Node000023_Node000027"><a xlink:title=" ">
<path fill="none" stroke="#63b8ff" d="M534.34,-288.56C556.64,-291.48 582.81,-294.9 605.9,-297.92"/>
<polygon fill="#63b8ff" stroke="#63b8ff" points="605.43,-301.39 615.8,-299.22 606.34,-294.45 605.43,-301.39"/>
</a>
</g>
</g>
<!-- Node28 -->
<g id="Node000028" class="node">
<title>Node28</title>
<g id="a_Node000028"><a xlink:href="vlcb_8c.html#a16634e516c94526e5bc818f75db5558c" target="_top" xlink:title=" ">
<polygon fill="white" stroke="#666666" points="744.5,-277.12 589,-277.12 589,-256.38 744.5,-256.38 744.5,-277.12"/>
<text text-anchor="middle" x="666.75" y="-263.62" font-family="Helvetica,sans-Serif" font-size="10.00">vlcb_net_pkt_DetectProtocol</text>
</a>
</g>
</g>
<!-- Node23&#45;&gt;Node28 -->
<g id="edge30_Node000023_Node000028" class="edge">
<title>Node23&#45;&gt;Node28</title>
<g id="a_edge30_Node000023_Node000028"><a xlink:title=" ">
<path fill="none" stroke="#63b8ff" d="M534.34,-277.49C547.77,-276.39 562.6,-275.18 577.31,-273.98"/>
<polygon fill="#63b8ff" stroke="#63b8ff" points="577.33,-277.49 587.01,-273.19 576.75,-270.51 577.33,-277.49"/>
</a>
</g>
</g>
<!-- Node29 -->
<g id="Node000029" class="node">
<title>Node29</title>
<g id="a_Node000029"><a xlink:href="socket_8c.html#a8e1f8d2c6242378d1d4eda56527a4a26" target="_top" xlink:title=" ">
<polygon fill="white" stroke="#666666" points="737.38,-200.5 596.12,-200.5 596.12,-167 737.38,-167 737.38,-200.5"/>
<text text-anchor="start" x="604.12" y="-187" font-family="Helvetica,sans-Serif" font-size="10.00">vlcb_net_sock_ProcessErr</text>
<text text-anchor="middle" x="666.75" y="-174.25" font-family="Helvetica,sans-Serif" font-size="10.00">ToStr</text>
</a>
</g>
</g>
<!-- Node23&#45;&gt;Node29 -->
<g id="edge34_Node000023_Node000029" class="edge">
<title>Node23&#45;&gt;Node29</title>
<g id="a_edge34_Node000023_Node000029"><a xlink:title=" ">
<path fill="none" stroke="#63b8ff" d="M497.31,-271.1C517.54,-257.08 554.9,-232.17 589,-214.75 595.3,-211.53 602.01,-208.41 608.75,-205.46"/>
<polygon fill="#63b8ff" stroke="#63b8ff" points="610.07,-208.7 617.9,-201.57 607.33,-202.26 610.07,-208.7"/>
</a>
</g>
</g>
<!-- Node24&#45;&gt;Node4 -->
<g id="edge26_Node000024_Node000004" class="edge">
<title>Node24&#45;&gt;Node4</title>
<g id="a_edge26_Node000024_Node000004"><a xlink:title=" ">
<path fill="none" stroke="#63b8ff" d="M709.44,-402.84C721.12,-405.68 733.6,-409.55 744.5,-414.75 781.67,-432.48 818.55,-463.35 840.17,-483.15"/>
<polygon fill="#63b8ff" stroke="#63b8ff" points="837.66,-485.59 847.35,-489.85 842.43,-480.47 837.66,-485.59"/>
</a>
</g>
</g>
<!-- Node25 -->
<g id="Node000025" class="node">
<title>Node25</title>
<g id="a_Node000025"><a xlink:href="packet__buf_8c.html#afa80d4fb078473100610ba106bd5cb46" target="_top" xlink:title=" ">
<polygon fill="white" stroke="#666666" points="930,-425.12 791,-425.12 791,-404.38 930,-404.38 930,-425.12"/>
<text text-anchor="middle" x="860.5" y="-411.62" font-family="Helvetica,sans-Serif" font-size="10.00">vlcb_net_packetbuf_Push</text>
</a>
</g>
</g>
<!-- Node24&#45;&gt;Node25 -->
<g id="edge27_Node000024_Node000025" class="edge">
<title>Node24&#45;&gt;Node25</title>
<g id="a_edge27_Node000024_Node000025"><a xlink:title=" ">
<path fill="none" stroke="#63b8ff" d="M709.36,-399.87C729.9,-401.91 755.39,-404.43 779.5,-406.82"/>
<polygon fill="#63b8ff" stroke="#63b8ff" points="779.03,-410.29 789.33,-407.8 779.72,-403.33 779.03,-410.29"/>
</a>
</g>
</g>
<!-- Node26 -->
<g id="Node000026" class="node">
<title>Node26</title>
<g id="a_Node000026"><a xlink:href="packet_2datagram_8c.html#a965c07c3bd42101143dfbec7857547c2" target="_top" xlink:title=" ">
<polygon fill="white" stroke="#666666" points="931.5,-386.12 789.5,-386.12 789.5,-365.38 931.5,-365.38 931.5,-386.12"/>
<text text-anchor="middle" x="860.5" y="-372.62" font-family="Helvetica,sans-Serif" font-size="10.00">vlcb_net_pkt_dgram_New</text>
</a>
</g>
</g>
<!-- Node24&#45;&gt;Node26 -->
<g id="edge28_Node000024_Node000026" class="edge">
<title>Node24&#45;&gt;Node26</title>
<g id="a_edge28_Node000024_Node000026"><a xlink:title=" ">
<path fill="none" stroke="#63b8ff" d="M709.36,-391.41C729.52,-389.31 754.45,-386.71 778.16,-384.23"/>
<polygon fill="#63b8ff" stroke="#63b8ff" points="778.23,-387.75 787.81,-383.23 777.5,-380.78 778.23,-387.75"/>
</a>
</g>
</g>
</g>
</svg>
