<?xml version="1.0" encoding="UTF-8" standalone="no"?>
<!DOCTYPE svg PUBLIC "-//W3C//DTD SVG 1.1//EN"
 "http://www.w3.org/Graphics/SVG/1.1/DTD/svg11.dtd">
<!-- Generated by graphviz version 12.1.2 (20240928.0832)
 -->
<!-- Title: iface_vlcb.h Pages: 1 -->
<svg width="664pt" height="369pt"
 viewBox="0.00 0.00 663.93 369.25" xmlns="http://www.w3.org/2000/svg" xmlns:xlink="http://www.w3.org/1999/xlink">
<g id="graph0" class="graph" transform="scale(1 1) rotate(0) translate(4 365.25)">
<title>iface_vlcb.h</title>
<!-- Node1 -->
<g id="Node000001" class="node">
<title>Node1</title>
<g id="a_Node000001"><a xlink:title=" ">
<polygon fill="#999999" stroke="#666666" points="458.93,-361.25 384.43,-361.25 384.43,-340.5 458.93,-340.5 458.93,-361.25"/>
<text text-anchor="middle" x="421.68" y="-347.75" font-family="Helvetica,sans-Serif" font-size="10.00">iface_vlcb.h</text>
</a>
</g>
</g>
<!-- Node2 -->
<g id="Node000002" class="node">
<title>Node2</title>
<g id="a_Node000002"><a xlink:href="iface_8h.html" target="_top" xlink:title=" ">
<polygon fill="white" stroke="#666666" points="382.18,-304.5 291.18,-304.5 291.18,-283.75 382.18,-283.75 382.18,-304.5"/>
<text text-anchor="middle" x="336.68" y="-291" font-family="Helvetica,sans-Serif" font-size="10.00">vlcb/net/iface.h</text>
</a>
</g>
</g>
<!-- Node1&#45;&gt;Node2 -->
<g id="edge1_Node000001_Node000002" class="edge">
<title>Node1&#45;&gt;Node2</title>
<g id="a_edge1_Node000001_Node000002"><a xlink:title=" ">
<path fill="none" stroke="#63b8ff" d="M406.48,-340.09C393.91,-331.99 375.81,-320.33 361.19,-310.92"/>
<polygon fill="#63b8ff" stroke="#63b8ff" points="363.32,-308.12 353.01,-305.65 359.53,-314.01 363.32,-308.12"/>
</a>
</g>
</g>
<!-- Node14 -->
<g id="Node000014" class="node">
<title>Node14</title>
<g id="a_Node000014"><a xlink:href="socket_8h.html" target="_top" xlink:title=" ">
<polygon fill="white" stroke="#666666" points="449.93,-247.75 393.43,-247.75 393.43,-227 449.93,-227 449.93,-247.75"/>
<text text-anchor="middle" x="421.68" y="-234.25" font-family="Helvetica,sans-Serif" font-size="10.00">socket.h</text>
</a>
</g>
</g>
<!-- Node1&#45;&gt;Node14 -->
<g id="edge29_Node000001_Node000014" class="edge">
<title>Node1&#45;&gt;Node14</title>
<g id="a_edge29_Node000001_Node000014"><a xlink:title=" ">
<path fill="none" stroke="#63b8ff" d="M421.68,-340.37C421.68,-322.6 421.68,-283.97 421.68,-259.68"/>
<polygon fill="#63b8ff" stroke="#63b8ff" points="425.18,-259.69 421.68,-249.69 418.18,-259.69 425.18,-259.69"/>
</a>
</g>
</g>
<!-- Node15 -->
<g id="Node000015" class="node">
<title>Node15</title>
<g id="a_Node000015"><a xlink:href="vlcb_8h.html" target="_top" xlink:title=" ">
<polygon fill="white" stroke="#666666" points="655.93,-191 575.43,-191 575.43,-170.25 655.93,-170.25 655.93,-191"/>
<text text-anchor="middle" x="615.68" y="-177.5" font-family="Helvetica,sans-Serif" font-size="10.00">packet/vlcb.h</text>
</a>
</g>
</g>
<!-- Node1&#45;&gt;Node15 -->
<g id="edge28_Node000001_Node000015" class="edge">
<title>Node1&#45;&gt;Node15</title>
<g id="a_edge28_Node000001_Node000015"><a xlink:title=" ">
<path fill="none" stroke="#63b8ff" d="M432.95,-340.1C464.76,-312.51 555.55,-233.77 595.91,-198.77"/>
<polygon fill="#63b8ff" stroke="#63b8ff" points="597.97,-201.61 603.23,-192.42 593.39,-196.32 597.97,-201.61"/>
</a>
</g>
</g>
<!-- Node3 -->
<g id="Node000003" class="node">
<title>Node3</title>
<g id="a_Node000003"><a xlink:title=" ">
<polygon fill="#e0e0e0" stroke="#999999" points="116.18,-77.5 55.18,-77.5 55.18,-56.75 116.18,-56.75 116.18,-77.5"/>
<text text-anchor="middle" x="85.68" y="-64" font-family="Helvetica,sans-Serif" font-size="10.00">stdbool.h</text>
</a>
</g>
</g>
<!-- Node2&#45;&gt;Node3 -->
<g id="edge2_Node000002_Node000003" class="edge">
<title>Node2&#45;&gt;Node3</title>
<g id="a_edge2_Node000002_Node000003"><a xlink:title=" ">
<path fill="none" stroke="#63b8ff" d="M290.74,-285.77C208.13,-271.49 39.87,-237.33 5.68,-191 -5.47,-175.89 2.04,-135.34 16.68,-113.5 25.3,-100.62 38.95,-90.53 51.83,-83.17"/>
<polygon fill="#63b8ff" stroke="#63b8ff" points="53.36,-86.32 60.56,-78.55 50.08,-80.13 53.36,-86.32"/>
</a>
</g>
</g>
<!-- Node4 -->
<g id="Node000004" class="node">
<title>Node4</title>
<g id="a_Node000004"><a xlink:href="adapter_8h.html" target="_top" xlink:title=" ">
<polygon fill="white" stroke="#666666" points="310.55,-247.75 248.8,-247.75 248.8,-227 310.55,-227 310.55,-247.75"/>
<text text-anchor="middle" x="279.68" y="-234.25" font-family="Helvetica,sans-Serif" font-size="10.00">adapter.h</text>
</a>
</g>
</g>
<!-- Node2&#45;&gt;Node4 -->
<g id="edge3_Node000002_Node000004" class="edge">
<title>Node2&#45;&gt;Node4</title>
<g id="a_edge3_Node000002_Node000004"><a xlink:title=" ">
<path fill="none" stroke="#63b8ff" d="M326.49,-283.34C318.54,-275.71 307.31,-264.92 297.84,-255.82"/>
<polygon fill="#63b8ff" stroke="#63b8ff" points="300.51,-253.53 290.87,-249.13 295.66,-258.58 300.51,-253.53"/>
</a>
</g>
</g>
<!-- Node2&#45;&gt;Node14 -->
<g id="edge19_Node000002_Node000014" class="edge">
<title>Node2&#45;&gt;Node14</title>
<g id="a_edge19_Node000002_Node000014"><a xlink:title=" ">
<path fill="none" stroke="#63b8ff" d="M351.87,-283.34C364.44,-275.24 382.54,-263.58 397.16,-254.17"/>
<polygon fill="#63b8ff" stroke="#63b8ff" points="398.83,-257.26 405.34,-248.9 395.04,-251.37 398.83,-257.26"/>
</a>
</g>
</g>
<!-- Node4&#45;&gt;Node3 -->
<g id="edge5_Node000004_Node000003" class="edge">
<title>Node4&#45;&gt;Node3</title>
<g id="a_edge5_Node000004_Node000003"><a xlink:title=" ">
<path fill="none" stroke="#63b8ff" d="M248.65,-235.77C185.97,-233.81 47.76,-225.58 18.68,-191 -9.55,-157.44 35.32,-110.13 64.25,-85.14"/>
<polygon fill="#63b8ff" stroke="#63b8ff" points="66.38,-87.92 71.81,-78.82 61.89,-82.55 66.38,-87.92"/>
</a>
</g>
</g>
<!-- Node5 -->
<g id="Node000005" class="node">
<title>Node5</title>
<g id="a_Node000005"><a xlink:title=" ">
<polygon fill="#e0e0e0" stroke="#999999" points="318.05,-77.5 253.3,-77.5 253.3,-56.75 318.05,-56.75 318.05,-77.5"/>
<text text-anchor="middle" x="285.68" y="-64" font-family="Helvetica,sans-Serif" font-size="10.00">inttypes.h</text>
</a>
</g>
</g>
<!-- Node4&#45;&gt;Node5 -->
<g id="edge4_Node000004_Node000005" class="edge">
<title>Node4&#45;&gt;Node5</title>
<g id="a_edge4_Node000004_Node000005"><a xlink:title=" ">
<path fill="none" stroke="#63b8ff" d="M280.02,-226.85C280.96,-200.48 283.61,-126.08 284.92,-89.28"/>
<polygon fill="#63b8ff" stroke="#63b8ff" points="288.41,-89.6 285.27,-79.48 281.42,-89.35 288.41,-89.6"/>
</a>
</g>
</g>
<!-- Node6 -->
<g id="Node000006" class="node">
<title>Node6</title>
<g id="a_Node000006"><a xlink:href="error_8h.html" target="_top" xlink:title=" ">
<polygon fill="white" stroke="#666666" points="558.55,-134.25 442.8,-134.25 442.8,-113.5 558.55,-113.5 558.55,-134.25"/>
<text text-anchor="middle" x="500.68" y="-120.75" font-family="Helvetica,sans-Serif" font-size="10.00">vlcb/platform/error.h</text>
</a>
</g>
</g>
<!-- Node4&#45;&gt;Node6 -->
<g id="edge6_Node000004_Node000006" class="edge">
<title>Node4&#45;&gt;Node6</title>
<g id="a_edge6_Node000004_Node000006"><a xlink:title=" ">
<path fill="none" stroke="#63b8ff" d="M311.03,-234.48C347.84,-230.91 409.36,-220.62 452.68,-191 469.83,-179.27 483.06,-159.32 491.25,-144.4"/>
<polygon fill="#63b8ff" stroke="#63b8ff" points="494.14,-146.44 495.61,-135.95 487.92,-143.23 494.14,-146.44"/>
</a>
</g>
</g>
<!-- Node7 -->
<g id="Node000007" class="node">
<title>Node7</title>
<g id="a_Node000007"><a xlink:href="interface_8h.html" target="_top" xlink:title=" ">
<polygon fill="white" stroke="#666666" points="444.05,-191 307.3,-191 307.3,-170.25 444.05,-170.25 444.05,-191"/>
<text text-anchor="middle" x="375.68" y="-177.5" font-family="Helvetica,sans-Serif" font-size="10.00">vlcb/platform/interface.h</text>
</a>
</g>
</g>
<!-- Node4&#45;&gt;Node7 -->
<g id="edge7_Node000004_Node000007" class="edge">
<title>Node4&#45;&gt;Node7</title>
<g id="a_edge7_Node000004_Node000007"><a xlink:title=" ">
<path fill="none" stroke="#63b8ff" d="M296.84,-226.59C311.31,-218.33 332.27,-206.38 348.93,-196.88"/>
<polygon fill="#63b8ff" stroke="#63b8ff" points="350.4,-200.07 357.35,-192.08 346.93,-193.99 350.4,-200.07"/>
</a>
</g>
</g>
<!-- Node9 -->
<g id="Node000009" class="node">
<title>Node9</title>
<g id="a_Node000009"><a xlink:href="packet_8h.html" target="_top" xlink:title=" ">
<polygon fill="white" stroke="#666666" points="145.68,-191 27.68,-191 27.68,-170.25 145.68,-170.25 145.68,-191"/>
<text text-anchor="middle" x="86.68" y="-177.5" font-family="Helvetica,sans-Serif" font-size="10.00">adapter/can/packet.h</text>
</a>
</g>
</g>
<!-- Node4&#45;&gt;Node9 -->
<g id="edge9_Node000004_Node000009" class="edge">
<title>Node4&#45;&gt;Node9</title>
<g id="a_edge9_Node000004_Node000009"><a xlink:title=" ">
<path fill="none" stroke="#63b8ff" d="M248.67,-227.58C217.09,-218.62 167.8,-204.64 131.88,-194.45"/>
<polygon fill="#63b8ff" stroke="#63b8ff" points="133.23,-191.19 122.65,-191.83 131.31,-197.93 133.23,-191.19"/>
</a>
</g>
</g>
<!-- Node13 -->
<g id="Node000013" class="node">
<title>Node13</title>
<g id="a_Node000013"><a xlink:href="addr_8h.html" target="_top" xlink:title=" ">
<polygon fill="white" stroke="#666666" points="251.68,-191 163.68,-191 163.68,-170.25 251.68,-170.25 251.68,-191"/>
<text text-anchor="middle" x="207.68" y="-177.5" font-family="Helvetica,sans-Serif" font-size="10.00">vlcb/net/addr.h</text>
</a>
</g>
</g>
<!-- Node4&#45;&gt;Node13 -->
<g id="edge17_Node000004_Node000013" class="edge">
<title>Node4&#45;&gt;Node13</title>
<g id="a_edge17_Node000004_Node000013"><a xlink:title=" ">
<path fill="none" stroke="#63b8ff" d="M266.8,-226.59C256.46,-218.72 241.71,-207.5 229.52,-198.24"/>
<polygon fill="#63b8ff" stroke="#63b8ff" points="231.72,-195.51 221.64,-192.24 227.48,-201.08 231.72,-195.51"/>
</a>
</g>
</g>
<!-- Node8 -->
<g id="Node000008" class="node">
<title>Node8</title>
<g id="a_Node000008"><a xlink:title=" ">
<polygon fill="#e0e0e0" stroke="#999999" points="414.18,-134.25 359.18,-134.25 359.18,-113.5 414.18,-113.5 414.18,-134.25"/>
<text text-anchor="middle" x="386.68" y="-120.75" font-family="Helvetica,sans-Serif" font-size="10.00">stddef.h</text>
</a>
</g>
</g>
<!-- Node7&#45;&gt;Node8 -->
<g id="edge8_Node000007_Node000008" class="edge">
<title>Node7&#45;&gt;Node8</title>
<g id="a_edge8_Node000007_Node000008"><a xlink:title=" ">
<path fill="none" stroke="#63b8ff" d="M377.64,-169.84C378.99,-163.14 380.82,-154.01 382.49,-145.73"/>
<polygon fill="#63b8ff" stroke="#63b8ff" points="385.89,-146.56 384.43,-136.06 379.03,-145.18 385.89,-146.56"/>
</a>
</g>
</g>
<!-- Node9&#45;&gt;Node3 -->
<g id="edge10_Node000009_Node000003" class="edge">
<title>Node9&#45;&gt;Node3</title>
<g id="a_edge10_Node000009_Node000003"><a xlink:title=" ">
<path fill="none" stroke="#63b8ff" d="M86.59,-170.12C86.43,-152.35 86.09,-113.72 85.87,-89.43"/>
<polygon fill="#63b8ff" stroke="#63b8ff" points="89.37,-89.41 85.78,-79.44 82.37,-89.47 89.37,-89.41"/>
</a>
</g>
</g>
<!-- Node10 -->
<g id="Node000010" class="node">
<title>Node10</title>
<g id="a_Node000010"><a xlink:href="common_2inc_2vlcb_2common_2can_8h.html" target="_top" xlink:title=" ">
<polygon fill="white" stroke="#666666" points="263.3,-134.25 152.05,-134.25 152.05,-113.5 263.3,-113.5 263.3,-134.25"/>
<text text-anchor="middle" x="207.68" y="-120.75" font-family="Helvetica,sans-Serif" font-size="10.00">vlcb/common/can.h</text>
</a>
</g>
</g>
<!-- Node9&#45;&gt;Node10 -->
<g id="edge11_Node000009_Node000010" class="edge">
<title>Node9&#45;&gt;Node10</title>
<g id="a_edge11_Node000009_Node000010"><a xlink:title=" ">
<path fill="none" stroke="#63b8ff" d="M108.31,-169.84C127.15,-161.31 154.71,-148.84 176.03,-139.19"/>
<polygon fill="#63b8ff" stroke="#63b8ff" points="177.19,-142.51 184.85,-135.2 174.3,-136.14 177.19,-142.51"/>
</a>
</g>
</g>
<!-- Node10&#45;&gt;Node3 -->
<g id="edge13_Node000010_Node000003" class="edge">
<title>Node10&#45;&gt;Node3</title>
<g id="a_edge13_Node000010_Node000003"><a xlink:title=" ">
<path fill="none" stroke="#63b8ff" d="M185.87,-113.09C166.87,-104.56 139.08,-92.09 117.58,-82.44"/>
<polygon fill="#63b8ff" stroke="#63b8ff" points="119.24,-79.35 108.68,-78.45 116.37,-85.74 119.24,-79.35"/>
</a>
</g>
</g>
<!-- Node10&#45;&gt;Node5 -->
<g id="edge12_Node000010_Node000005" class="edge">
<title>Node10&#45;&gt;Node5</title>
<g id="a_edge12_Node000010_Node000005"><a xlink:title=" ">
<path fill="none" stroke="#63b8ff" d="M221.62,-113.09C233.05,-105.07 249.45,-93.56 262.79,-84.19"/>
<polygon fill="#63b8ff" stroke="#63b8ff" points="264.44,-87.31 270.61,-78.7 260.42,-81.58 264.44,-87.31"/>
</a>
</g>
</g>
<!-- Node11 -->
<g id="Node000011" class="node">
<title>Node11</title>
<g id="a_Node000011"><a xlink:title=" ">
<polygon fill="#e0e0e0" stroke="#999999" points="319.05,-20.75 266.3,-20.75 266.3,0 319.05,0 319.05,-20.75"/>
<text text-anchor="middle" x="292.68" y="-7.25" font-family="Helvetica,sans-Serif" font-size="10.00">stdint.h</text>
</a>
</g>
</g>
<!-- Node10&#45;&gt;Node11 -->
<g id="edge14_Node000010_Node000011" class="edge">
<title>Node10&#45;&gt;Node11</title>
<g id="a_edge14_Node000010_Node000011"><a xlink:title=" ">
<path fill="none" stroke="#63b8ff" d="M211.88,-113.34C218.02,-99.98 230.29,-75.22 244.68,-56.75 252.71,-46.44 263.11,-36.31 272.17,-28.25"/>
<polygon fill="#63b8ff" stroke="#63b8ff" points="274.21,-31.11 279.5,-21.94 269.64,-25.81 274.21,-31.11"/>
</a>
</g>
</g>
<!-- Node12 -->
<g id="Node000012" class="node">
<title>Node12</title>
<g id="a_Node000012"><a xlink:href="vlcb__defs_8h.html" target="_top" xlink:title=" ">
<polygon fill="white" stroke="#666666" points="407.43,-77.5 335.93,-77.5 335.93,-56.75 407.43,-56.75 407.43,-77.5"/>
<text text-anchor="middle" x="371.68" y="-64" font-family="Helvetica,sans-Serif" font-size="10.00">vlcb_defs.h</text>
</a>
</g>
</g>
<!-- Node10&#45;&gt;Node12 -->
<g id="edge15_Node000010_Node000012" class="edge">
<title>Node10&#45;&gt;Node12</title>
<g id="a_edge15_Node000010_Node000012"><a xlink:title=" ">
<path fill="none" stroke="#63b8ff" d="M237,-113.09C263.38,-104.28 302.39,-91.25 331.65,-81.49"/>
<polygon fill="#63b8ff" stroke="#63b8ff" points="332.52,-84.89 340.9,-78.4 330.31,-78.25 332.52,-84.89"/>
</a>
</g>
</g>
<!-- Node12&#45;&gt;Node11 -->
<g id="edge16_Node000012_Node000011" class="edge">
<title>Node12&#45;&gt;Node11</title>
<g id="a_edge16_Node000012_Node000011"><a xlink:title=" ">
<path fill="none" stroke="#63b8ff" d="M357.55,-56.34C345.98,-48.32 329.37,-36.81 315.86,-27.44"/>
<polygon fill="#63b8ff" stroke="#63b8ff" points="318.14,-24.76 307.92,-21.94 314.15,-30.51 318.14,-24.76"/>
</a>
</g>
</g>
<!-- Node13&#45;&gt;Node10 -->
<g id="edge18_Node000013_Node000010" class="edge">
<title>Node13&#45;&gt;Node10</title>
<g id="a_edge18_Node000013_Node000010"><a xlink:title=" ">
<path fill="none" stroke="#63b8ff" d="M207.68,-169.84C207.68,-163.22 207.68,-154.22 207.68,-146.02"/>
<polygon fill="#63b8ff" stroke="#63b8ff" points="211.18,-146.09 207.68,-136.09 204.18,-146.09 211.18,-146.09"/>
</a>
</g>
</g>
<!-- Node14&#45;&gt;Node3 -->
<g id="edge20_Node000014_Node000003" class="edge">
<title>Node14&#45;&gt;Node3</title>
<g id="a_edge20_Node000014_Node000003"><a xlink:title=" ">
<path fill="none" stroke="#63b8ff" d="M432.26,-226.86C446.36,-213.06 467.86,-187.29 452.68,-170.25 406.55,-118.46 203.95,-166.74 142.68,-134.25 122.66,-123.64 106.58,-102.87 96.67,-87.42"/>
<polygon fill="#63b8ff" stroke="#63b8ff" points="99.78,-85.81 91.6,-79.07 93.8,-89.43 99.78,-85.81"/>
</a>
</g>
</g>
<!-- Node14&#45;&gt;Node7 -->
<g id="edge27_Node000014_Node000007" class="edge">
<title>Node14&#45;&gt;Node7</title>
<g id="a_edge27_Node000014_Node000007"><a xlink:title=" ">
<path fill="none" stroke="#63b8ff" d="M413.45,-226.59C407.24,-219.19 398.53,-208.82 391.04,-199.91"/>
<polygon fill="#63b8ff" stroke="#63b8ff" points="393.92,-197.89 384.8,-192.49 388.56,-202.4 393.92,-197.89"/>
</a>
</g>
</g>
<!-- Node14&#45;&gt;Node8 -->
<g id="edge21_Node000014_Node000008" class="edge">
<title>Node14&#45;&gt;Node8</title>
<g id="a_edge21_Node000014_Node000008"><a xlink:title=" ">
<path fill="none" stroke="#63b8ff" d="M443.88,-226.53C467.7,-214.51 500.26,-192.97 485.68,-170.25 472.37,-149.52 446.97,-138.14 425.23,-131.96"/>
<polygon fill="#63b8ff" stroke="#63b8ff" points="426.29,-128.62 415.74,-129.55 424.57,-135.4 426.29,-128.62"/>
</a>
</g>
</g>
<!-- Node14&#45;&gt;Node13 -->
<g id="edge26_Node000014_Node000013" class="edge">
<title>Node14&#45;&gt;Node13</title>
<g id="a_edge26_Node000014_Node000013"><a xlink:title=" ">
<path fill="none" stroke="#63b8ff" d="M393.26,-229.1C358.58,-220.23 299.35,-205.08 257.13,-194.28"/>
<polygon fill="#63b8ff" stroke="#63b8ff" points="258,-190.89 247.45,-191.8 256.27,-197.67 258,-190.89"/>
</a>
</g>
</g>
<!-- Node14&#45;&gt;Node15 -->
<g id="edge22_Node000014_Node000015" class="edge">
<title>Node14&#45;&gt;Node15</title>
<g id="a_edge22_Node000014_Node000015"><a xlink:title=" ">
<path fill="none" stroke="#63b8ff" d="M450.3,-228.3C481.73,-219.43 532.63,-205.06 569.68,-194.61"/>
<polygon fill="#63b8ff" stroke="#63b8ff" points="570.56,-197.99 579.23,-191.91 568.66,-191.26 570.56,-197.99"/>
</a>
</g>
</g>
<!-- Node15&#45;&gt;Node5 -->
<g id="edge23_Node000015_Node000005" class="edge">
<title>Node15&#45;&gt;Node5</title>
<g id="a_edge23_Node000015_Node000005"><a xlink:title=" ">
<path fill="none" stroke="#63b8ff" d="M611.72,-170.09C605.02,-155.28 589.99,-127.04 567.68,-113.5 478.17,-59.17 435.94,-95.02 329.5,-77.79"/>
<polygon fill="#63b8ff" stroke="#63b8ff" points="330.25,-74.37 319.79,-76.08 329.04,-81.26 330.25,-74.37"/>
</a>
</g>
</g>
<!-- Node15&#45;&gt;Node6 -->
<g id="edge25_Node000015_Node000006" class="edge">
<title>Node15&#45;&gt;Node6</title>
<g id="a_edge25_Node000015_Node000006"><a xlink:title=" ">
<path fill="none" stroke="#63b8ff" d="M595.12,-169.84C577.37,-161.39 551.49,-149.07 531.31,-139.46"/>
<polygon fill="#63b8ff" stroke="#63b8ff" points="532.96,-136.37 522.43,-135.23 529.95,-142.69 532.96,-136.37"/>
</a>
</g>
</g>
<!-- Node15&#45;&gt;Node12 -->
<g id="edge24_Node000015_Node000012" class="edge">
<title>Node15&#45;&gt;Node12</title>
<g id="a_edge24_Node000015_Node000012"><a xlink:title=" ">
<path fill="none" stroke="#63b8ff" d="M616.49,-169.99C617.14,-155.56 616.03,-128.44 600.68,-113.5 575.35,-88.86 478.28,-76.73 418.95,-71.51"/>
<polygon fill="#63b8ff" stroke="#63b8ff" points="419.39,-68.03 409.13,-70.68 418.8,-75.01 419.39,-68.03"/>
</a>
</g>
</g>
</g>
</svg>
