<?xml version="1.0" encoding="UTF-8" standalone="no"?>
<!DOCTYPE svg PUBLIC "-//W3C//DTD SVG 1.1//EN"
 "http://www.w3.org/Graphics/SVG/1.1/DTD/svg11.dtd">
<!-- Generated by graphviz version 12.1.2 (20240928.0832)
 -->
<!-- Title: ProcessCanPacket Pages: 1 -->
<svg width="679pt" height="414pt"
 viewBox="0.00 0.00 678.75 414.12" xmlns="http://www.w3.org/2000/svg" xmlns:xlink="http://www.w3.org/1999/xlink">
<g id="graph0" class="graph" transform="scale(1 1) rotate(0) translate(4 410.12)">
<title>ProcessCanPacket</title>
<!-- Node1 -->
<g id="Node000001" class="node">
<title>Node1</title>
<g id="a_Node000001"><a xlink:title=" ">
<polygon fill="#999999" stroke="#666666" points="103.75,-252.12 0,-252.12 0,-231.38 103.75,-231.38 103.75,-252.12"/>
<text text-anchor="middle" x="51.88" y="-238.62" font-family="Helvetica,sans-Serif" font-size="10.00">ProcessCanPacket</text>
</a>
</g>
</g>
<!-- Node2 -->
<g id="Node000002" class="node">
<title>Node2</title>
<g id="a_Node000002"><a xlink:href="iface__can__svc_8c.html#ac408b1836518b97c2875b59ffaa7fdc0" target="_top" xlink:title=" ">
<polygon fill="white" stroke="#666666" points="274.25,-406.12 148.75,-406.12 148.75,-385.38 274.25,-385.38 274.25,-406.12"/>
<text text-anchor="middle" x="211.5" y="-392.62" font-family="Helvetica,sans-Serif" font-size="10.00">CanSvcEventConsume</text>
</a>
</g>
</g>
<!-- Node1&#45;&gt;Node2 -->
<g id="edge1_Node000001_Node000002" class="edge">
<title>Node1&#45;&gt;Node2</title>
<g id="a_edge1_Node000001_Node000002"><a xlink:title=" ">
<path fill="none" stroke="#63b8ff" d="M56.68,-252.31C66.37,-277.66 94.46,-342.34 139.75,-375.75 141.79,-377.26 143.95,-378.65 146.18,-379.94"/>
<polygon fill="#63b8ff" stroke="#63b8ff" points="144.53,-383.03 155.05,-384.28 147.61,-376.74 144.53,-383.03"/>
</a>
</g>
</g>
<!-- Node4 -->
<g id="Node000004" class="node">
<title>Node4</title>
<g id="a_Node000004"><a xlink:href="iface__can__svc_8c.html#a0583c97314d46b6e4329c04cf959c575" target="_top" xlink:title=" ">
<polygon fill="white" stroke="#666666" points="256.25,-367.12 166.75,-367.12 166.75,-346.38 256.25,-346.38 256.25,-367.12"/>
<text text-anchor="middle" x="211.5" y="-353.62" font-family="Helvetica,sans-Serif" font-size="10.00">CanSvcProcess</text>
</a>
</g>
</g>
<!-- Node1&#45;&gt;Node4 -->
<g id="edge3_Node000001_Node000004" class="edge">
<title>Node1&#45;&gt;Node4</title>
<g id="a_edge3_Node000001_Node000004"><a xlink:title=" ">
<path fill="none" stroke="#63b8ff" d="M60.46,-252.62C74.18,-271.53 104.95,-310.55 139.75,-332.75 145.21,-336.24 151.24,-339.27 157.4,-341.91"/>
<polygon fill="#63b8ff" stroke="#63b8ff" points="155.82,-345.05 166.41,-345.42 158.36,-338.53 155.82,-345.05"/>
</a>
</g>
</g>
<!-- Node6 -->
<g id="Node000006" class="node">
<title>Node6</title>
<g id="a_Node000006"><a xlink:href="iface__vlcb_8c.html#a772411fa3c2c8faf08e996dcec735dbe" target="_top" xlink:title=" ">
<polygon fill="white" stroke="#666666" points="264.5,-210.12 158.5,-210.12 158.5,-189.38 264.5,-189.38 264.5,-210.12"/>
<text text-anchor="middle" x="211.5" y="-196.62" font-family="Helvetica,sans-Serif" font-size="10.00">ProcessVlcbPacket</text>
</a>
</g>
</g>
<!-- Node1&#45;&gt;Node6 -->
<g id="edge6_Node000001_Node000006" class="edge">
<title>Node1&#45;&gt;Node6</title>
<g id="a_edge6_Node000001_Node000006"><a xlink:title=" ">
<path fill="none" stroke="#63b8ff" d="M93.47,-230.93C113.34,-225.64 137.49,-219.2 158.68,-213.56"/>
<polygon fill="#63b8ff" stroke="#63b8ff" points="159.55,-216.95 168.31,-210.99 157.75,-210.18 159.55,-216.95"/>
</a>
</g>
</g>
<!-- Node13 -->
<g id="Node000013" class="node">
<title>Node13</title>
<g id="a_Node000013"><a xlink:href="socket_8c.html#a9401eccd14dd3acd44764c5e8a05beaf" target="_top" xlink:title=" ">
<polygon fill="white" stroke="#666666" points="449.62,-33.5 344.38,-33.5 344.38,0 449.62,0 449.62,-33.5"/>
<text text-anchor="start" x="352.38" y="-20" font-family="Helvetica,sans-Serif" font-size="10.00">vlcb_net_sock_list</text>
<text text-anchor="middle" x="397" y="-7.25" font-family="Helvetica,sans-Serif" font-size="10.00">_GetIterator</text>
</a>
</g>
</g>
<!-- Node1&#45;&gt;Node13 -->
<g id="edge20_Node000001_Node000013" class="edge">
<title>Node1&#45;&gt;Node13</title>
<g id="a_edge20_Node000001_Node000013"><a xlink:title=" ">
<path fill="none" stroke="#63b8ff" d="M65.23,-230.91C81.33,-217.33 110.84,-194.2 139.75,-180.75 199.57,-152.92 234.62,-187.34 283.25,-142.75 318.07,-110.83 285.53,-75.83 319.25,-42.75 323.58,-38.5 328.63,-34.95 334.03,-31.97"/>
<polygon fill="#63b8ff" stroke="#63b8ff" points="335.16,-35.31 342.69,-27.87 332.16,-28.99 335.16,-35.31"/>
</a>
</g>
</g>
<!-- Node14 -->
<g id="Node000014" class="node">
<title>Node14</title>
<g id="a_Node000014"><a xlink:href="socket_8c.html#a176c72971ceb14a338d824d7a3bb0fac" target="_top" xlink:title=" ">
<polygon fill="white" stroke="#666666" points="643.38,-290.5 538.12,-290.5 538.12,-257 643.38,-257 643.38,-290.5"/>
<text text-anchor="start" x="546.12" y="-277" font-family="Helvetica,sans-Serif" font-size="10.00">vlcb_net_sock_list</text>
<text text-anchor="middle" x="590.75" y="-264.25" font-family="Helvetica,sans-Serif" font-size="10.00">_iter_HasNext</text>
</a>
</g>
</g>
<!-- Node1&#45;&gt;Node14 -->
<g id="edge21_Node000001_Node000014" class="edge">
<title>Node1&#45;&gt;Node14</title>
<g id="a_edge21_Node000001_Node000014"><a xlink:title=" ">
<path fill="none" stroke="#63b8ff" d="M81.49,-252.6C98.27,-258.64 119.99,-265.89 139.75,-270.75 284.87,-306.44 326.23,-316.33 474.75,-299.75 491.85,-297.84 510.13,-294.38 526.96,-290.59"/>
<polygon fill="#63b8ff" stroke="#63b8ff" points="527.37,-294.09 536.31,-288.42 525.78,-287.28 527.37,-294.09"/>
</a>
</g>
</g>
<!-- Node15 -->
<g id="Node000015" class="node">
<title>Node15</title>
<g id="a_Node000015"><a xlink:href="socket_8c.html#a81bef9c5afd9ccbb9d0a52b2ae1da9b2" target="_top" xlink:title=" ">
<polygon fill="white" stroke="#666666" points="449.62,-290.5 344.38,-290.5 344.38,-257 449.62,-257 449.62,-290.5"/>
<text text-anchor="start" x="352.38" y="-277" font-family="Helvetica,sans-Serif" font-size="10.00">vlcb_net_sock_list</text>
<text text-anchor="middle" x="397" y="-264.25" font-family="Helvetica,sans-Serif" font-size="10.00">_iter_Next</text>
</a>
</g>
</g>
<!-- Node1&#45;&gt;Node15 -->
<g id="edge22_Node000001_Node000015" class="edge">
<title>Node1&#45;&gt;Node15</title>
<g id="a_edge22_Node000001_Node000015"><a xlink:title=" ">
<path fill="none" stroke="#63b8ff" d="M104.24,-246.54C165.18,-252.22 266.76,-261.7 332.55,-267.83"/>
<polygon fill="#63b8ff" stroke="#63b8ff" points="332.21,-271.32 342.49,-268.76 332.86,-264.35 332.21,-271.32"/>
</a>
</g>
</g>
<!-- Node17 -->
<g id="Node000017" class="node">
<title>Node17</title>
<g id="a_Node000017"><a xlink:href="vlcb_8c.html#a4e4a44bda5ebfb3ee1340066623890ad" target="_top" xlink:title=" ">
<polygon fill="white" stroke="#666666" points="283.25,-133.5 139.75,-133.5 139.75,-100 283.25,-100 283.25,-133.5"/>
<text text-anchor="start" x="147.75" y="-120" font-family="Helvetica,sans-Serif" font-size="10.00">vlcb_net_pkt_ConstructErr</text>
<text text-anchor="middle" x="211.5" y="-107.25" font-family="Helvetica,sans-Serif" font-size="10.00">ToStr</text>
</a>
</g>
</g>
<!-- Node1&#45;&gt;Node17 -->
<g id="edge18_Node000001_Node000017" class="edge">
<title>Node1&#45;&gt;Node17</title>
<g id="a_edge18_Node000001_Node000017"><a xlink:title=" ">
<path fill="none" stroke="#63b8ff" d="M60.36,-231.11C74.16,-212.16 105.36,-172.24 139.75,-147.75 144.1,-144.66 148.8,-141.77 153.64,-139.11"/>
<polygon fill="#63b8ff" stroke="#63b8ff" points="155.06,-142.32 162.37,-134.66 151.87,-136.09 155.06,-142.32"/>
</a>
</g>
</g>
<!-- Node18 -->
<g id="Node000018" class="node">
<title>Node18</title>
<g id="a_Node000018"><a xlink:href="vlcb_8c.html#a4f542a7ed4e87e0e5597469e99484180" target="_top" xlink:title=" ">
<polygon fill="white" stroke="#666666" points="264.12,-82.12 158.88,-82.12 158.88,-61.38 264.12,-61.38 264.12,-82.12"/>
<text text-anchor="middle" x="211.5" y="-68.62" font-family="Helvetica,sans-Serif" font-size="10.00">vlcb_net_pkt_New</text>
</a>
</g>
</g>
<!-- Node1&#45;&gt;Node18 -->
<g id="edge19_Node000001_Node000018" class="edge">
<title>Node1&#45;&gt;Node18</title>
<g id="a_edge19_Node000001_Node000018"><a xlink:title=" ">
<path fill="none" stroke="#63b8ff" d="M55.87,-231.07C64.2,-203.36 90.36,-128.73 139.75,-90.75 142.35,-88.75 145.14,-86.96 148.06,-85.36"/>
<polygon fill="#63b8ff" stroke="#63b8ff" points="149.4,-88.6 157.02,-81.24 146.48,-82.24 149.4,-88.6"/>
</a>
</g>
</g>
<!-- Node3 -->
<g id="Node000003" class="node">
<title>Node3</title>
<g id="a_Node000003"><a xlink:href="iface__can__svc_8c.html#a39dbc9176a838580211b17ab57f3ecab" target="_top" xlink:title=" ">
<polygon fill="white" stroke="#666666" points="437.62,-406.12 356.38,-406.12 356.38,-385.38 437.62,-385.38 437.62,-406.12"/>
<text text-anchor="middle" x="397" y="-392.62" font-family="Helvetica,sans-Serif" font-size="10.00">ToggleUsedId</text>
</a>
</g>
</g>
<!-- Node2&#45;&gt;Node3 -->
<g id="edge2_Node000002_Node000003" class="edge">
<title>Node2&#45;&gt;Node3</title>
<g id="a_edge2_Node000002_Node000003"><a xlink:title=" ">
<path fill="none" stroke="#63b8ff" d="M274.62,-395.75C297.45,-395.75 323.02,-395.75 344.78,-395.75"/>
<polygon fill="#63b8ff" stroke="#63b8ff" points="344.59,-399.25 354.59,-395.75 344.59,-392.25 344.59,-399.25"/>
</a>
</g>
</g>
<!-- Node4&#45;&gt;Node3 -->
<g id="edge5_Node000004_Node000003" class="edge">
<title>Node4&#45;&gt;Node3</title>
<g id="a_edge5_Node000004_Node000003"><a xlink:title=" ">
<path fill="none" stroke="#63b8ff" d="M256.45,-366.09C283.11,-371.76 317.22,-379.01 345.05,-384.92"/>
<polygon fill="#63b8ff" stroke="#63b8ff" points="344.17,-388.31 354.68,-386.97 345.63,-381.47 344.17,-388.31"/>
</a>
</g>
</g>
<!-- Node5 -->
<g id="Node000005" class="node">
<title>Node5</title>
<g id="a_Node000005"><a xlink:href="iface__can__svc_8c.html#a9b6b01728115744f4674fc751a5919f5" target="_top" xlink:title=" ">
<polygon fill="white" stroke="#666666" points="439.5,-367.12 354.5,-367.12 354.5,-346.38 439.5,-346.38 439.5,-367.12"/>
<text text-anchor="middle" x="397" y="-353.62" font-family="Helvetica,sans-Serif" font-size="10.00">ResolveFreeId</text>
</a>
</g>
</g>
<!-- Node4&#45;&gt;Node5 -->
<g id="edge4_Node000004_Node000005" class="edge">
<title>Node4&#45;&gt;Node5</title>
<g id="a_edge4_Node000004_Node000005"><a xlink:title=" ">
<path fill="none" stroke="#63b8ff" d="M256.45,-356.75C282.43,-356.75 315.5,-356.75 342.93,-356.75"/>
<polygon fill="#63b8ff" stroke="#63b8ff" points="342.78,-360.25 352.78,-356.75 342.78,-353.25 342.78,-360.25"/>
</a>
</g>
</g>
<!-- Node7 -->
<g id="Node000007" class="node">
<title>Node7</title>
<g id="a_Node000007"><a xlink:href="socket_2datagram_8c.html#a61c95cabe20ca7a61ea528e4c70f1245" target="_top" xlink:title=" ">
<polygon fill="white" stroke="#666666" points="439.5,-72.12 354.5,-72.12 354.5,-51.38 439.5,-51.38 439.5,-72.12"/>
<text text-anchor="middle" x="397" y="-58.62" font-family="Helvetica,sans-Serif" font-size="10.00">ProcessPacket</text>
</a>
</g>
</g>
<!-- Node6&#45;&gt;Node7 -->
<g id="edge7_Node000006_Node000007" class="edge">
<title>Node6&#45;&gt;Node7</title>
<g id="a_edge7_Node000006_Node000007"><a xlink:title=" ">
<path fill="none" stroke="#63b8ff" d="M262.39,-188.98C270.02,-185.68 277.32,-181.37 283.25,-175.75 314.52,-146.11 287.63,-115.01 319.25,-85.75 326.1,-79.41 334.6,-74.75 343.43,-71.32"/>
<polygon fill="#63b8ff" stroke="#63b8ff" points="344.45,-74.67 352.83,-68.19 342.24,-68.02 344.45,-74.67"/>
</a>
</g>
</g>
<!-- Node11 -->
<g id="Node000011" class="node">
<title>Node11</title>
<g id="a_Node000011"><a xlink:href="socket_2datagram_8c.html#a97bab8fe9b6021439207f5bf70a2f2a3" target="_top" xlink:title=" ">
<polygon fill="white" stroke="#666666" points="446.25,-239.12 347.75,-239.12 347.75,-218.38 446.25,-218.38 446.25,-239.12"/>
<text text-anchor="middle" x="397" y="-225.62" font-family="Helvetica,sans-Serif" font-size="10.00">SupportsProtocol</text>
</a>
</g>
</g>
<!-- Node6&#45;&gt;Node11 -->
<g id="edge11_Node000006_Node000011" class="edge">
<title>Node6&#45;&gt;Node11</title>
<g id="a_edge11_Node000006_Node000011"><a xlink:title=" ">
<path fill="none" stroke="#63b8ff" d="M264.59,-207.98C286.99,-211.52 313.3,-215.68 336.47,-219.34"/>
<polygon fill="#63b8ff" stroke="#63b8ff" points="335.64,-222.75 346.06,-220.86 336.73,-215.84 335.64,-222.75"/>
</a>
</g>
</g>
<!-- Node12 -->
<g id="Node000012" class="node">
<title>Node12</title>
<g id="a_Node000012"><a xlink:href="vlcb_8c.html#a16634e516c94526e5bc818f75db5558c" target="_top" xlink:title=" ">
<polygon fill="white" stroke="#666666" points="474.75,-200.12 319.25,-200.12 319.25,-179.38 474.75,-179.38 474.75,-200.12"/>
<text text-anchor="middle" x="397" y="-186.62" font-family="Helvetica,sans-Serif" font-size="10.00">vlcb_net_pkt_DetectProtocol</text>
</a>
</g>
</g>
<!-- Node6&#45;&gt;Node12 -->
<g id="edge12_Node000006_Node000012" class="edge">
<title>Node6&#45;&gt;Node12</title>
<g id="a_edge12_Node000006_Node000012"><a xlink:title=" ">
<path fill="none" stroke="#63b8ff" d="M264.59,-196.91C278.02,-196.18 292.85,-195.37 307.56,-194.57"/>
<polygon fill="#63b8ff" stroke="#63b8ff" points="307.46,-198.08 317.25,-194.04 307.08,-191.09 307.46,-198.08"/>
</a>
</g>
</g>
<!-- Node6&#45;&gt;Node13 -->
<g id="edge13_Node000006_Node000013" class="edge">
<title>Node6&#45;&gt;Node13</title>
<g id="a_edge13_Node000006_Node000013"><a xlink:title=" ">
<path fill="none" stroke="#63b8ff" d="M264.4,-188.9C271.43,-185.61 278.01,-181.33 283.25,-175.75 325.17,-131.11 277.32,-87.38 319.25,-42.75 323.46,-38.26 328.48,-34.55 333.9,-31.48"/>
<polygon fill="#63b8ff" stroke="#63b8ff" points="335.15,-34.76 342.64,-27.27 332.11,-28.46 335.15,-34.76"/>
</a>
</g>
</g>
<!-- Node6&#45;&gt;Node14 -->
<g id="edge14_Node000006_Node000014" class="edge">
<title>Node6&#45;&gt;Node14</title>
<g id="a_edge14_Node000006_Node000014"><a xlink:title=" ">
<path fill="none" stroke="#63b8ff" d="M259.35,-188.91C267.84,-185.58 276.22,-181.29 283.25,-175.75 306.79,-157.21 293.01,-133.21 319.25,-118.75 379.78,-85.39 413.02,-87.68 474.75,-118.75 527.64,-145.37 562.31,-209.1 578.71,-246.02"/>
<polygon fill="#63b8ff" stroke="#63b8ff" points="575.47,-247.34 582.62,-255.15 581.9,-244.58 575.47,-247.34"/>
</a>
</g>
</g>
<!-- Node6&#45;&gt;Node15 -->
<g id="edge15_Node000006_Node000015" class="edge">
<title>Node6&#45;&gt;Node15</title>
<g id="a_edge15_Node000006_Node000015"><a xlink:title=" ">
<path fill="none" stroke="#63b8ff" d="M234.73,-210.5C256.14,-220.67 289.56,-236.08 319.25,-247.75 323.87,-249.57 328.67,-251.37 333.52,-253.14"/>
<polygon fill="#63b8ff" stroke="#63b8ff" points="332.13,-256.36 342.72,-256.43 334.48,-249.77 332.13,-256.36"/>
</a>
</g>
</g>
<!-- Node16 -->
<g id="Node000016" class="node">
<title>Node16</title>
<g id="a_Node000016"><a xlink:href="socket_8c.html#a8e1f8d2c6242378d1d4eda56527a4a26" target="_top" xlink:title=" ">
<polygon fill="white" stroke="#666666" points="467.62,-161.5 326.38,-161.5 326.38,-128 467.62,-128 467.62,-161.5"/>
<text text-anchor="start" x="334.38" y="-148" font-family="Helvetica,sans-Serif" font-size="10.00">vlcb_net_sock_ProcessErr</text>
<text text-anchor="middle" x="397" y="-135.25" font-family="Helvetica,sans-Serif" font-size="10.00">ToStr</text>
</a>
</g>
</g>
<!-- Node6&#45;&gt;Node16 -->
<g id="edge17_Node000006_Node000016" class="edge">
<title>Node6&#45;&gt;Node16</title>
<g id="a_edge17_Node000006_Node000016"><a xlink:title=" ">
<path fill="none" stroke="#63b8ff" d="M248.75,-188.88C271.24,-182.14 300.86,-173.27 327.63,-165.24"/>
<polygon fill="#63b8ff" stroke="#63b8ff" points="328.49,-168.64 337.06,-162.42 326.48,-161.93 328.49,-168.64"/>
</a>
</g>
</g>
<!-- Node8 -->
<g id="Node000008" class="node">
<title>Node8</title>
<g id="a_Node000008"><a xlink:href="addr_8h.html#a83d3f92953278599a373c60afe6806c6" target="_top" xlink:title=" ">
<polygon fill="white" stroke="#666666" points="670.75,-33.12 510.75,-33.12 510.75,-12.38 670.75,-12.38 670.75,-33.12"/>
<text text-anchor="middle" x="590.75" y="-19.62" font-family="Helvetica,sans-Serif" font-size="10.00">vlcb_net_IsWireEndpointValid</text>
</a>
</g>
</g>
<!-- Node7&#45;&gt;Node8 -->
<g id="edge8_Node000007_Node000008" class="edge">
<title>Node7&#45;&gt;Node8</title>
<g id="a_edge8_Node000007_Node000008"><a xlink:title=" ">
<path fill="none" stroke="#63b8ff" d="M439.61,-53.29C464.69,-48.19 497.17,-41.58 525.5,-35.82"/>
<polygon fill="#63b8ff" stroke="#63b8ff" points="525.95,-39.3 535.06,-33.87 524.56,-32.44 525.95,-39.3"/>
</a>
</g>
</g>
<!-- Node9 -->
<g id="Node000009" class="node">
<title>Node9</title>
<g id="a_Node000009"><a xlink:href="packet__buf_8c.html#afa80d4fb078473100610ba106bd5cb46" target="_top" xlink:title=" ">
<polygon fill="white" stroke="#666666" points="660.25,-111.12 521.25,-111.12 521.25,-90.38 660.25,-90.38 660.25,-111.12"/>
<text text-anchor="middle" x="590.75" y="-97.62" font-family="Helvetica,sans-Serif" font-size="10.00">vlcb_net_packetbuf_Push</text>
</a>
</g>
</g>
<!-- Node7&#45;&gt;Node9 -->
<g id="edge9_Node000007_Node000009" class="edge">
<title>Node7&#45;&gt;Node9</title>
<g id="a_edge9_Node000007_Node000009"><a xlink:title=" ">
<path fill="none" stroke="#63b8ff" d="M439.61,-70.21C464.69,-75.31 497.17,-81.92 525.5,-87.68"/>
<polygon fill="#63b8ff" stroke="#63b8ff" points="524.56,-91.06 535.06,-89.63 525.95,-84.2 524.56,-91.06"/>
</a>
</g>
</g>
<!-- Node10 -->
<g id="Node000010" class="node">
<title>Node10</title>
<g id="a_Node000010"><a xlink:href="packet_2datagram_8c.html#a965c07c3bd42101143dfbec7857547c2" target="_top" xlink:title=" ">
<polygon fill="white" stroke="#666666" points="661.75,-72.12 519.75,-72.12 519.75,-51.38 661.75,-51.38 661.75,-72.12"/>
<text text-anchor="middle" x="590.75" y="-58.62" font-family="Helvetica,sans-Serif" font-size="10.00">vlcb_net_pkt_dgram_New</text>
</a>
</g>
</g>
<!-- Node7&#45;&gt;Node10 -->
<g id="edge10_Node000007_Node000010" class="edge">
<title>Node7&#45;&gt;Node10</title>
<g id="a_edge10_Node000007_Node000010"><a xlink:title=" ">
<path fill="none" stroke="#63b8ff" d="M439.61,-61.75C459.67,-61.75 484.47,-61.75 508.09,-61.75"/>
<polygon fill="#63b8ff" stroke="#63b8ff" points="508.05,-65.25 518.05,-61.75 508.05,-58.25 508.05,-65.25"/>
</a>
</g>
</g>
<!-- Node15&#45;&gt;Node14 -->
<g id="edge16_Node000015_Node000014" class="edge">
<title>Node15&#45;&gt;Node14</title>
<g id="a_edge16_Node000015_Node000014"><a xlink:title=" ">
<path fill="none" stroke="#63b8ff" d="M449.89,-273.75C473.44,-273.75 501.52,-273.75 526.32,-273.75"/>
<polygon fill="#63b8ff" stroke="#63b8ff" points="526.3,-277.25 536.3,-273.75 526.3,-270.25 526.3,-277.25"/>
</a>
</g>
</g>
</g>
</svg>
