<?xml version="1.0" encoding="UTF-8" standalone="no"?>
<!DOCTYPE svg PUBLIC "-//W3C//DTD SVG 1.1//EN"
 "http://www.w3.org/Graphics/SVG/1.1/DTD/svg11.dtd">
<!-- Generated by graphviz version 12.1.2 (20240928.0832)
 -->
<!-- Title: iface_can.h Pages: 1 -->
<svg width="627pt" height="369pt"
 viewBox="0.00 0.00 626.79 369.25" xmlns="http://www.w3.org/2000/svg" xmlns:xlink="http://www.w3.org/1999/xlink">
<g id="graph0" class="graph" transform="scale(1 1) rotate(0) translate(4 365.25)">
<title>iface_can.h</title>
<!-- Node1 -->
<g id="Node000001" class="node">
<title>Node1</title>
<g id="a_Node000001"><a xlink:title=" ">
<polygon fill="#999999" stroke="#666666" points="475.12,-361.25 403.62,-361.25 403.62,-340.5 475.12,-340.5 475.12,-361.25"/>
<text text-anchor="middle" x="439.38" y="-347.75" font-family="Helvetica,sans-Serif" font-size="10.00">iface_can.h</text>
</a>
</g>
</g>
<!-- Node2 -->
<g id="Node000002" class="node">
<title>Node2</title>
<g id="a_Node000002"><a xlink:href="adapter_8h.html" target="_top" xlink:title=" ">
<polygon fill="white" stroke="#666666" points="442.25,-247.75 338.5,-247.75 338.5,-227 442.25,-227 442.25,-247.75"/>
<text text-anchor="middle" x="390.38" y="-234.25" font-family="Helvetica,sans-Serif" font-size="10.00">vlcb/net/adapter.h</text>
</a>
</g>
</g>
<!-- Node1&#45;&gt;Node2 -->
<g id="edge1_Node000001_Node000002" class="edge">
<title>Node1&#45;&gt;Node2</title>
<g id="a_edge1_Node000001_Node000002"><a xlink:title=" ">
<path fill="none" stroke="#63b8ff" d="M435.2,-340.37C427.28,-322.36 409.94,-282.89 399.3,-258.68"/>
<polygon fill="#63b8ff" stroke="#63b8ff" points="402.52,-257.31 395.29,-249.56 396.11,-260.12 402.52,-257.31"/>
</a>
</g>
</g>
<!-- Node13 -->
<g id="Node000013" class="node">
<title>Node13</title>
<g id="a_Node000013"><a xlink:href="iface_8h.html" target="_top" xlink:title=" ">
<polygon fill="white" stroke="#666666" points="527.88,-304.5 436.88,-304.5 436.88,-283.75 527.88,-283.75 527.88,-304.5"/>
<text text-anchor="middle" x="482.38" y="-291" font-family="Helvetica,sans-Serif" font-size="10.00">vlcb/net/iface.h</text>
</a>
</g>
</g>
<!-- Node1&#45;&gt;Node13 -->
<g id="edge17_Node000001_Node000013" class="edge">
<title>Node1&#45;&gt;Node13</title>
<g id="a_edge17_Node000001_Node000013"><a xlink:title=" ">
<path fill="none" stroke="#63b8ff" d="M447.06,-340.09C452.81,-332.77 460.84,-322.54 467.79,-313.69"/>
<polygon fill="#63b8ff" stroke="#63b8ff" points="470.4,-316.05 473.82,-306.02 464.89,-311.72 470.4,-316.05"/>
</a>
</g>
</g>
<!-- Node3 -->
<g id="Node000003" class="node">
<title>Node3</title>
<g id="a_Node000003"><a xlink:title=" ">
<polygon fill="#e0e0e0" stroke="#999999" points="64.75,-77.5 0,-77.5 0,-56.75 64.75,-56.75 64.75,-77.5"/>
<text text-anchor="middle" x="32.38" y="-64" font-family="Helvetica,sans-Serif" font-size="10.00">inttypes.h</text>
</a>
</g>
</g>
<!-- Node2&#45;&gt;Node3 -->
<g id="edge2_Node000002_Node000003" class="edge">
<title>Node2&#45;&gt;Node3</title>
<g id="a_edge2_Node000002_Node000003"><a xlink:title=" ">
<path fill="none" stroke="#63b8ff" d="M338.1,-233.87C239.62,-228.61 34.56,-214.89 13.38,-191 -12.05,-162.33 6.93,-114.33 20.95,-87.6"/>
<polygon fill="#63b8ff" stroke="#63b8ff" points="23.82,-89.63 25.6,-79.19 17.7,-86.25 23.82,-89.63"/>
</a>
</g>
</g>
<!-- Node4 -->
<g id="Node000004" class="node">
<title>Node4</title>
<g id="a_Node000004"><a xlink:title=" ">
<polygon fill="#e0e0e0" stroke="#999999" points="440.88,-77.5 379.88,-77.5 379.88,-56.75 440.88,-56.75 440.88,-77.5"/>
<text text-anchor="middle" x="410.38" y="-64" font-family="Helvetica,sans-Serif" font-size="10.00">stdbool.h</text>
</a>
</g>
</g>
<!-- Node2&#45;&gt;Node4 -->
<g id="edge3_Node000002_Node000004" class="edge">
<title>Node2&#45;&gt;Node4</title>
<g id="a_edge3_Node000002_Node000004"><a xlink:title=" ">
<path fill="none" stroke="#63b8ff" d="M391.51,-226.85C394.64,-200.48 403.49,-126.08 407.86,-89.28"/>
<polygon fill="#63b8ff" stroke="#63b8ff" points="411.32,-89.81 409.03,-79.47 404.37,-88.99 411.32,-89.81"/>
</a>
</g>
</g>
<!-- Node5 -->
<g id="Node000005" class="node">
<title>Node5</title>
<g id="a_Node000005"><a xlink:href="error_8h.html" target="_top" xlink:title=" ">
<polygon fill="white" stroke="#666666" points="382.25,-134.25 266.5,-134.25 266.5,-113.5 382.25,-113.5 382.25,-134.25"/>
<text text-anchor="middle" x="324.38" y="-120.75" font-family="Helvetica,sans-Serif" font-size="10.00">vlcb/platform/error.h</text>
</a>
</g>
</g>
<!-- Node2&#45;&gt;Node5 -->
<g id="edge4_Node000002_Node000005" class="edge">
<title>Node2&#45;&gt;Node5</title>
<g id="a_edge4_Node000002_Node000005"><a xlink:title=" ">
<path fill="none" stroke="#63b8ff" d="M385.28,-226.86C378.3,-213.92 365.27,-190.12 353.38,-170.25 348.17,-161.55 342.17,-152.08 336.98,-144.05"/>
<polygon fill="#63b8ff" stroke="#63b8ff" points="339.98,-142.24 331.59,-135.78 334.12,-146.07 339.98,-142.24"/>
</a>
</g>
</g>
<!-- Node6 -->
<g id="Node000006" class="node">
<title>Node6</title>
<g id="a_Node000006"><a xlink:href="interface_8h.html" target="_top" xlink:title=" ">
<polygon fill="white" stroke="#666666" points="574.75,-191 438,-191 438,-170.25 574.75,-170.25 574.75,-191"/>
<text text-anchor="middle" x="506.38" y="-177.5" font-family="Helvetica,sans-Serif" font-size="10.00">vlcb/platform/interface.h</text>
</a>
</g>
</g>
<!-- Node2&#45;&gt;Node6 -->
<g id="edge5_Node000002_Node000006" class="edge">
<title>Node2&#45;&gt;Node6</title>
<g id="a_edge5_Node000002_Node000006"><a xlink:title=" ">
<path fill="none" stroke="#63b8ff" d="M411.11,-226.59C429.01,-218.14 455.12,-205.82 475.48,-196.21"/>
<polygon fill="#63b8ff" stroke="#63b8ff" points="476.9,-199.41 484.45,-191.97 473.91,-193.08 476.9,-199.41"/>
</a>
</g>
</g>
<!-- Node8 -->
<g id="Node000008" class="node">
<title>Node8</title>
<g id="a_Node000008"><a xlink:href="packet_8h.html" target="_top" xlink:title=" ">
<polygon fill="white" stroke="#666666" points="246.38,-191 128.38,-191 128.38,-170.25 246.38,-170.25 246.38,-191"/>
<text text-anchor="middle" x="187.38" y="-177.5" font-family="Helvetica,sans-Serif" font-size="10.00">adapter/can/packet.h</text>
</a>
</g>
</g>
<!-- Node2&#45;&gt;Node8 -->
<g id="edge7_Node000002_Node000008" class="edge">
<title>Node2&#45;&gt;Node8</title>
<g id="a_edge7_Node000002_Node000008"><a xlink:title=" ">
<path fill="none" stroke="#63b8ff" d="M354.08,-226.59C320.7,-217.58 271,-204.18 234.55,-194.35"/>
<polygon fill="#63b8ff" stroke="#63b8ff" points="235.72,-191.04 225.16,-191.81 233.9,-197.8 235.72,-191.04"/>
</a>
</g>
</g>
<!-- Node12 -->
<g id="Node000012" class="node">
<title>Node12</title>
<g id="a_Node000012"><a xlink:href="addr_8h.html" target="_top" xlink:title=" ">
<polygon fill="white" stroke="#666666" points="110.38,-191 22.38,-191 22.38,-170.25 110.38,-170.25 110.38,-191"/>
<text text-anchor="middle" x="66.38" y="-177.5" font-family="Helvetica,sans-Serif" font-size="10.00">vlcb/net/addr.h</text>
</a>
</g>
</g>
<!-- Node2&#45;&gt;Node12 -->
<g id="edge15_Node000002_Node000012" class="edge">
<title>Node2&#45;&gt;Node12</title>
<g id="a_edge15_Node000002_Node000012"><a xlink:title=" ">
<path fill="none" stroke="#63b8ff" d="M338.15,-227.78C285.9,-219.14 202.93,-205.34 121.56,-191.37"/>
<polygon fill="#63b8ff" stroke="#63b8ff" points="122.56,-187.98 112.11,-189.74 121.37,-194.88 122.56,-187.98"/>
</a>
</g>
</g>
<!-- Node7 -->
<g id="Node000007" class="node">
<title>Node7</title>
<g id="a_Node000007"><a xlink:title=" ">
<polygon fill="#e0e0e0" stroke="#999999" points="572.88,-134.25 517.88,-134.25 517.88,-113.5 572.88,-113.5 572.88,-134.25"/>
<text text-anchor="middle" x="545.38" y="-120.75" font-family="Helvetica,sans-Serif" font-size="10.00">stddef.h</text>
</a>
</g>
</g>
<!-- Node6&#45;&gt;Node7 -->
<g id="edge6_Node000006_Node000007" class="edge">
<title>Node6&#45;&gt;Node7</title>
<g id="a_edge6_Node000006_Node000007"><a xlink:title=" ">
<path fill="none" stroke="#63b8ff" d="M513.35,-169.84C518.51,-162.6 525.69,-152.51 531.95,-143.72"/>
<polygon fill="#63b8ff" stroke="#63b8ff" points="534.63,-145.99 537.58,-135.81 528.93,-141.93 534.63,-145.99"/>
</a>
</g>
</g>
<!-- Node8&#45;&gt;Node4 -->
<g id="edge8_Node000008_Node000004" class="edge">
<title>Node8&#45;&gt;Node4</title>
<g id="a_edge8_Node000008_Node000004"><a xlink:title=" ">
<path fill="none" stroke="#63b8ff" d="M194.93,-170.05C206.75,-155.7 231.01,-128.69 257.38,-113.5 292.12,-93.48 336.48,-81.6 368.48,-75.05"/>
<polygon fill="#63b8ff" stroke="#63b8ff" points="369.03,-78.5 378.18,-73.16 367.7,-71.63 369.03,-78.5"/>
</a>
</g>
</g>
<!-- Node9 -->
<g id="Node000009" class="node">
<title>Node9</title>
<g id="a_Node000009"><a xlink:href="common_2inc_2vlcb_2common_2can_8h.html" target="_top" xlink:title=" ">
<polygon fill="white" stroke="#666666" points="172,-134.25 60.75,-134.25 60.75,-113.5 172,-113.5 172,-134.25"/>
<text text-anchor="middle" x="116.38" y="-120.75" font-family="Helvetica,sans-Serif" font-size="10.00">vlcb/common/can.h</text>
</a>
</g>
</g>
<!-- Node8&#45;&gt;Node9 -->
<g id="edge9_Node000008_Node000009" class="edge">
<title>Node8&#45;&gt;Node9</title>
<g id="a_edge9_Node000008_Node000009"><a xlink:title=" ">
<path fill="none" stroke="#63b8ff" d="M174.68,-169.84C164.48,-161.97 149.93,-150.75 137.92,-141.49"/>
<polygon fill="#63b8ff" stroke="#63b8ff" points="140.21,-138.84 130.16,-135.5 135.94,-144.38 140.21,-138.84"/>
</a>
</g>
</g>
<!-- Node9&#45;&gt;Node3 -->
<g id="edge10_Node000009_Node000003" class="edge">
<title>Node9&#45;&gt;Node3</title>
<g id="a_edge10_Node000009_Node000003"><a xlink:title=" ">
<path fill="none" stroke="#63b8ff" d="M101.36,-113.09C88.93,-104.99 71.05,-93.33 56.6,-83.92"/>
<polygon fill="#63b8ff" stroke="#63b8ff" points="58.82,-81.18 48.53,-78.65 55,-87.05 58.82,-81.18"/>
</a>
</g>
</g>
<!-- Node9&#45;&gt;Node4 -->
<g id="edge11_Node000009_Node000004" class="edge">
<title>Node9&#45;&gt;Node4</title>
<g id="a_edge11_Node000009_Node000004"><a xlink:title=" ">
<path fill="none" stroke="#63b8ff" d="M169.28,-113.02C226.3,-102.4 315.91,-85.72 368.32,-75.96"/>
<polygon fill="#63b8ff" stroke="#63b8ff" points="368.87,-79.41 378.06,-74.14 367.59,-72.53 368.87,-79.41"/>
</a>
</g>
</g>
<!-- Node10 -->
<g id="Node000010" class="node">
<title>Node10</title>
<g id="a_Node000010"><a xlink:title=" ">
<polygon fill="#e0e0e0" stroke="#999999" points="171.75,-20.75 119,-20.75 119,0 171.75,0 171.75,-20.75"/>
<text text-anchor="middle" x="145.38" y="-7.25" font-family="Helvetica,sans-Serif" font-size="10.00">stdint.h</text>
</a>
</g>
</g>
<!-- Node9&#45;&gt;Node10 -->
<g id="edge12_Node000009_Node000010" class="edge">
<title>Node9&#45;&gt;Node10</title>
<g id="a_edge12_Node000009_Node000010"><a xlink:title=" ">
<path fill="none" stroke="#63b8ff" d="M118.85,-113.37C123.51,-95.44 133.7,-56.25 140.01,-32.01"/>
<polygon fill="#63b8ff" stroke="#63b8ff" points="143.32,-33.2 142.45,-22.64 136.54,-31.44 143.32,-33.2"/>
</a>
</g>
</g>
<!-- Node11 -->
<g id="Node000011" class="node">
<title>Node11</title>
<g id="a_Node000011"><a xlink:href="opcode_8h.html" target="_top" xlink:title=" ">
<polygon fill="white" stroke="#666666" points="204.5,-77.5 144.25,-77.5 144.25,-56.75 204.5,-56.75 204.5,-77.5"/>
<text text-anchor="middle" x="174.38" y="-64" font-family="Helvetica,sans-Serif" font-size="10.00">opcode.h</text>
</a>
</g>
</g>
<!-- Node9&#45;&gt;Node11 -->
<g id="edge13_Node000009_Node000011" class="edge">
<title>Node9&#45;&gt;Node11</title>
<g id="a_edge13_Node000009_Node000011"><a xlink:title=" ">
<path fill="none" stroke="#63b8ff" d="M126.74,-113.09C134.83,-105.46 146.26,-94.67 155.9,-85.57"/>
<polygon fill="#63b8ff" stroke="#63b8ff" points="158.13,-88.28 162.99,-78.87 153.32,-83.19 158.13,-88.28"/>
</a>
</g>
</g>
<!-- Node11&#45;&gt;Node10 -->
<g id="edge14_Node000011_Node000010" class="edge">
<title>Node11&#45;&gt;Node10</title>
<g id="a_edge14_Node000011_Node000010"><a xlink:title=" ">
<path fill="none" stroke="#63b8ff" d="M169.19,-56.34C165.48,-49.33 160.36,-39.66 155.81,-31.08"/>
<polygon fill="#63b8ff" stroke="#63b8ff" points="159,-29.61 151.22,-22.42 152.81,-32.89 159,-29.61"/>
</a>
</g>
</g>
<!-- Node12&#45;&gt;Node9 -->
<g id="edge16_Node000012_Node000009" class="edge">
<title>Node12&#45;&gt;Node9</title>
<g id="a_edge16_Node000012_Node000009"><a xlink:title=" ">
<path fill="none" stroke="#63b8ff" d="M75.31,-169.84C82.14,-162.36 91.74,-151.86 99.93,-142.88"/>
<polygon fill="#63b8ff" stroke="#63b8ff" points="102.33,-145.44 106.49,-135.7 97.16,-140.72 102.33,-145.44"/>
</a>
</g>
</g>
<!-- Node13&#45;&gt;Node2 -->
<g id="edge19_Node000013_Node000002" class="edge">
<title>Node13&#45;&gt;Node2</title>
<g id="a_edge19_Node000013_Node000002"><a xlink:title=" ">
<path fill="none" stroke="#63b8ff" d="M465.93,-283.34C452.19,-275.16 432.36,-263.36 416.46,-253.9"/>
<polygon fill="#63b8ff" stroke="#63b8ff" points="418.36,-250.96 407.98,-248.85 414.78,-256.97 418.36,-250.96"/>
</a>
</g>
</g>
<!-- Node13&#45;&gt;Node4 -->
<g id="edge18_Node000013_Node000004" class="edge">
<title>Node13&#45;&gt;Node4</title>
<g id="a_edge18_Node000013_Node000004"><a xlink:title=" ">
<path fill="none" stroke="#63b8ff" d="M505.86,-283.32C537.6,-268.61 592.82,-237.49 615.38,-191 625.26,-170.62 610.72,-121.9 602.38,-113.5 581.71,-92.69 502.76,-79.41 452.76,-72.91"/>
<polygon fill="#63b8ff" stroke="#63b8ff" points="453.2,-69.43 442.84,-71.66 452.32,-76.38 453.2,-69.43"/>
</a>
</g>
</g>
<!-- Node14 -->
<g id="Node000014" class="node">
<title>Node14</title>
<g id="a_Node000014"><a xlink:href="socket_8h.html" target="_top" xlink:title=" ">
<polygon fill="white" stroke="#666666" points="534.62,-247.75 478.12,-247.75 478.12,-227 534.62,-227 534.62,-247.75"/>
<text text-anchor="middle" x="506.38" y="-234.25" font-family="Helvetica,sans-Serif" font-size="10.00">socket.h</text>
</a>
</g>
</g>
<!-- Node13&#45;&gt;Node14 -->
<g id="edge20_Node000013_Node000014" class="edge">
<title>Node13&#45;&gt;Node14</title>
<g id="a_edge20_Node000013_Node000014"><a xlink:title=" ">
<path fill="none" stroke="#63b8ff" d="M486.67,-283.34C489.7,-276.41 493.88,-266.87 497.61,-258.36"/>
<polygon fill="#63b8ff" stroke="#63b8ff" points="500.7,-260.03 501.51,-249.46 494.29,-257.22 500.7,-260.03"/>
</a>
</g>
</g>
<!-- Node14&#45;&gt;Node4 -->
<g id="edge21_Node000014_Node000004" class="edge">
<title>Node14&#45;&gt;Node4</title>
<g id="a_edge21_Node000014_Node000004"><a xlink:title=" ">
<path fill="none" stroke="#63b8ff" d="M534.99,-230.88C556.79,-225.03 585.38,-213.4 599.38,-191 612.22,-170.45 593.72,-124.48 582.38,-113.5 547.68,-79.93 491.22,-70.44 452.51,-68.14"/>
<polygon fill="#63b8ff" stroke="#63b8ff" points="452.77,-64.65 442.63,-67.7 452.46,-71.64 452.77,-64.65"/>
</a>
</g>
</g>
<!-- Node14&#45;&gt;Node6 -->
<g id="edge27_Node000014_Node000006" class="edge">
<title>Node14&#45;&gt;Node6</title>
<g id="a_edge27_Node000014_Node000006"><a xlink:title=" ">
<path fill="none" stroke="#63b8ff" d="M506.38,-226.59C506.38,-219.97 506.38,-210.97 506.38,-202.77"/>
<polygon fill="#63b8ff" stroke="#63b8ff" points="509.88,-202.84 506.38,-192.84 502.88,-202.84 509.88,-202.84"/>
</a>
</g>
</g>
<!-- Node14&#45;&gt;Node7 -->
<g id="edge22_Node000014_Node000007" class="edge">
<title>Node14&#45;&gt;Node7</title>
<g id="a_edge22_Node000014_Node000007"><a xlink:title=" ">
<path fill="none" stroke="#63b8ff" d="M534.75,-227.74C552.14,-220.81 572.98,-209.19 583.38,-191 592.84,-174.43 579.61,-155.57 566.24,-142.24"/>
<polygon fill="#63b8ff" stroke="#63b8ff" points="568.93,-139.96 559.2,-135.75 564.18,-145.1 568.93,-139.96"/>
</a>
</g>
</g>
<!-- Node15 -->
<g id="Node000015" class="node">
<title>Node15</title>
<g id="a_Node000015"><a xlink:href="vlcb_8h.html" target="_top" xlink:title=" ">
<polygon fill="white" stroke="#666666" points="344.62,-191 264.12,-191 264.12,-170.25 344.62,-170.25 344.62,-191"/>
<text text-anchor="middle" x="304.38" y="-177.5" font-family="Helvetica,sans-Serif" font-size="10.00">packet/vlcb.h</text>
</a>
</g>
</g>
<!-- Node14&#45;&gt;Node15 -->
<g id="edge23_Node000014_Node000015" class="edge">
<title>Node14&#45;&gt;Node15</title>
<g id="a_edge23_Node000014_Node000015"><a xlink:title=" ">
<path fill="none" stroke="#63b8ff" d="M477.86,-228.65C445.1,-219.77 390.83,-205.06 351.7,-194.45"/>
<polygon fill="#63b8ff" stroke="#63b8ff" points="352.62,-191.08 342.05,-191.84 350.79,-197.83 352.62,-191.08"/>
</a>
</g>
</g>
<!-- Node15&#45;&gt;Node3 -->
<g id="edge24_Node000015_Node000003" class="edge">
<title>Node15&#45;&gt;Node3</title>
<g id="a_edge24_Node000015_Node000003"><a xlink:title=" ">
<path fill="none" stroke="#63b8ff" d="M263.74,-171.8C260.91,-171.27 258.1,-170.75 255.38,-170.25 164.83,-153.6 119.81,-195.84 51.38,-134.25 38.75,-122.89 34.29,-103.75 32.82,-88.98"/>
<polygon fill="#63b8ff" stroke="#63b8ff" points="36.33,-89.15 32.26,-79.37 29.34,-89.56 36.33,-89.15"/>
</a>
</g>
</g>
<!-- Node15&#45;&gt;Node5 -->
<g id="edge26_Node000015_Node000005" class="edge">
<title>Node15&#45;&gt;Node5</title>
<g id="a_edge26_Node000015_Node000005"><a xlink:title=" ">
<path fill="none" stroke="#63b8ff" d="M307.95,-169.84C310.45,-162.99 313.89,-153.59 316.97,-145.15"/>
<polygon fill="#63b8ff" stroke="#63b8ff" points="320.17,-146.59 320.31,-136 313.59,-144.19 320.17,-146.59"/>
</a>
</g>
</g>
<!-- Node15&#45;&gt;Node11 -->
<g id="edge25_Node000015_Node000011" class="edge">
<title>Node15&#45;&gt;Node11</title>
<g id="a_edge25_Node000015_Node000011"><a xlink:title=" ">
<path fill="none" stroke="#63b8ff" d="M293.29,-170.12C271.34,-151.29 222.05,-109.01 194.31,-85.22"/>
<polygon fill="#63b8ff" stroke="#63b8ff" points="196.82,-82.76 186.95,-78.91 192.26,-88.08 196.82,-82.76"/>
</a>
</g>
</g>
</g>
</svg>
