<?xml version="1.0" encoding="UTF-8" standalone="no"?>
<!DOCTYPE svg PUBLIC "-//W3C//DTD SVG 1.1//EN"
 "http://www.w3.org/Graphics/SVG/1.1/DTD/svg11.dtd">
<!-- Generated by graphviz version 12.1.2 (20240928.0832)
 -->
<!-- Title: ProcessCanPacket Pages: 1 -->
<svg width="661pt" height="319pt"
 viewBox="0.00 0.00 660.75 319.12" xmlns="http://www.w3.org/2000/svg" xmlns:xlink="http://www.w3.org/1999/xlink">
<g id="graph0" class="graph" transform="scale(1 1) rotate(0) translate(4 315.12)">
<title>ProcessCanPacket</title>
<!-- Node1 -->
<g id="Node000001" class="node">
<title>Node1</title>
<g id="a_Node000001"><a xlink:title=" ">
<polygon fill="#999999" stroke="#666666" points="103.75,-124.12 0,-124.12 0,-103.38 103.75,-103.38 103.75,-124.12"/>
<text text-anchor="middle" x="51.88" y="-110.62" font-family="Helvetica,sans-Serif" font-size="10.00">ProcessCanPacket</text>
</a>
</g>
</g>
<!-- Node2 -->
<g id="Node000002" class="node">
<title>Node2</title>
<g id="a_Node000002"><a xlink:href="iface__vlcb_8c.html#a772411fa3c2c8faf08e996dcec735dbe" target="_top" xlink:title=" ">
<polygon fill="white" stroke="#666666" points="264.5,-169.12 158.5,-169.12 158.5,-148.38 264.5,-148.38 264.5,-169.12"/>
<text text-anchor="middle" x="211.5" y="-155.62" font-family="Helvetica,sans-Serif" font-size="10.00">ProcessVlcbPacket</text>
</a>
</g>
</g>
<!-- Node1&#45;&gt;Node2 -->
<g id="edge1_Node000001_Node000002" class="edge">
<title>Node1&#45;&gt;Node2</title>
<g id="a_edge1_Node000001_Node000002"><a xlink:title=" ">
<path fill="none" stroke="#63b8ff" d="M88.31,-124.6C104.04,-129.36 122.79,-134.94 139.75,-139.75 145.71,-141.44 151.97,-143.18 158.2,-144.88"/>
<polygon fill="#63b8ff" stroke="#63b8ff" points="157.26,-148.26 167.83,-147.5 159.1,-141.5 157.26,-148.26"/>
</a>
</g>
</g>
<!-- Node12 -->
<g id="Node000012" class="node">
<title>Node12</title>
<g id="a_Node000012"><a xlink:href="vlcb_8c.html#a4e4a44bda5ebfb3ee1340066623890ad" target="_top" xlink:title=" ">
<polygon fill="white" stroke="#666666" points="283.25,-130.5 139.75,-130.5 139.75,-97 283.25,-97 283.25,-130.5"/>
<text text-anchor="start" x="147.75" y="-117" font-family="Helvetica,sans-Serif" font-size="10.00">vlcb_net_pkt_ConstructErr</text>
<text text-anchor="middle" x="211.5" y="-104.25" font-family="Helvetica,sans-Serif" font-size="10.00">ToStr</text>
</a>
</g>
</g>
<!-- Node1&#45;&gt;Node12 -->
<g id="edge12_Node000001_Node000012" class="edge">
<title>Node1&#45;&gt;Node12</title>
<g id="a_edge12_Node000001_Node000012"><a xlink:title=" ">
<path fill="none" stroke="#63b8ff" d="M104.05,-113.75C111.84,-113.75 120.04,-113.75 128.29,-113.75"/>
<polygon fill="#63b8ff" stroke="#63b8ff" points="128.02,-117.25 138.02,-113.75 128.02,-110.25 128.02,-117.25"/>
</a>
</g>
</g>
<!-- Node13 -->
<g id="Node000013" class="node">
<title>Node13</title>
<g id="a_Node000013"><a xlink:href="vlcb_8c.html#a4f542a7ed4e87e0e5597469e99484180" target="_top" xlink:title=" ">
<polygon fill="white" stroke="#666666" points="264.12,-79.12 158.88,-79.12 158.88,-58.38 264.12,-58.38 264.12,-79.12"/>
<text text-anchor="middle" x="211.5" y="-65.62" font-family="Helvetica,sans-Serif" font-size="10.00">vlcb_net_pkt_New</text>
</a>
</g>
</g>
<!-- Node1&#45;&gt;Node13 -->
<g id="edge13_Node000001_Node000013" class="edge">
<title>Node1&#45;&gt;Node13</title>
<g id="a_edge13_Node000001_Node000013"><a xlink:title=" ">
<path fill="none" stroke="#63b8ff" d="M88.31,-102.9C104.04,-98.14 122.79,-92.56 139.75,-87.75 145.71,-86.06 151.97,-84.32 158.2,-82.62"/>
<polygon fill="#63b8ff" stroke="#63b8ff" points="159.1,-86 167.83,-80 157.26,-79.24 159.1,-86"/>
</a>
</g>
</g>
<!-- Node3 -->
<g id="Node000003" class="node">
<title>Node3</title>
<g id="a_Node000003"><a xlink:href="socket_2datagram_8c.html#a61c95cabe20ca7a61ea528e4c70f1245" target="_top" xlink:title=" ">
<polygon fill="white" stroke="#666666" points="439.5,-292.12 354.5,-292.12 354.5,-271.38 439.5,-271.38 439.5,-292.12"/>
<text text-anchor="middle" x="397" y="-278.62" font-family="Helvetica,sans-Serif" font-size="10.00">ProcessPacket</text>
</a>
</g>
</g>
<!-- Node2&#45;&gt;Node3 -->
<g id="edge2_Node000002_Node000003" class="edge">
<title>Node2&#45;&gt;Node3</title>
<g id="a_edge2_Node000002_Node000003"><a xlink:title=" ">
<path fill="none" stroke="#63b8ff" d="M220.33,-169.32C236.44,-190.28 275.45,-237.18 319.25,-261.75 326.68,-265.92 335.01,-269.24 343.36,-271.88"/>
<polygon fill="#63b8ff" stroke="#63b8ff" points="342.24,-275.2 352.82,-274.56 344.15,-268.47 342.24,-275.2"/>
</a>
</g>
</g>
<!-- Node6 -->
<g id="Node000006" class="node">
<title>Node6</title>
<g id="a_Node000006"><a xlink:href="socket_2datagram_8c.html#a97bab8fe9b6021439207f5bf70a2f2a3" target="_top" xlink:title=" ">
<polygon fill="white" stroke="#666666" points="446.25,-253.12 347.75,-253.12 347.75,-232.38 446.25,-232.38 446.25,-253.12"/>
<text text-anchor="middle" x="397" y="-239.62" font-family="Helvetica,sans-Serif" font-size="10.00">SupportsProtocol</text>
</a>
</g>
</g>
<!-- Node2&#45;&gt;Node6 -->
<g id="edge5_Node000002_Node000006" class="edge">
<title>Node2&#45;&gt;Node6</title>
<g id="a_edge5_Node000002_Node000006"><a xlink:title=" ">
<path fill="none" stroke="#63b8ff" d="M227.33,-169.52C247.3,-183.58 284.38,-208.11 319.25,-222.75 324.8,-225.08 330.7,-227.2 336.66,-229.11"/>
<polygon fill="#63b8ff" stroke="#63b8ff" points="335.37,-232.38 345.95,-231.89 337.38,-225.67 335.37,-232.38"/>
</a>
</g>
</g>
<!-- Node7 -->
<g id="Node000007" class="node">
<title>Node7</title>
<g id="a_Node000007"><a xlink:href="vlcb_8c.html#a16634e516c94526e5bc818f75db5558c" target="_top" xlink:title=" ">
<polygon fill="white" stroke="#666666" points="474.75,-214.12 319.25,-214.12 319.25,-193.38 474.75,-193.38 474.75,-214.12"/>
<text text-anchor="middle" x="397" y="-200.62" font-family="Helvetica,sans-Serif" font-size="10.00">vlcb_net_pkt_DetectProtocol</text>
</a>
</g>
</g>
<!-- Node2&#45;&gt;Node7 -->
<g id="edge6_Node000002_Node000007" class="edge">
<title>Node2&#45;&gt;Node7</title>
<g id="a_edge6_Node000002_Node000007"><a xlink:title=" ">
<path fill="none" stroke="#63b8ff" d="M256.45,-169.53C281.8,-175.74 313.9,-183.62 340.92,-190.24"/>
<polygon fill="#63b8ff" stroke="#63b8ff" points="339.75,-193.56 350.3,-192.54 341.42,-186.76 339.75,-193.56"/>
</a>
</g>
</g>
<!-- Node8 -->
<g id="Node000008" class="node">
<title>Node8</title>
<g id="a_Node000008"><a xlink:href="socket_8c.html#a9401eccd14dd3acd44764c5e8a05beaf" target="_top" xlink:title=" ">
<polygon fill="white" stroke="#666666" points="449.62,-175.5 344.38,-175.5 344.38,-142 449.62,-142 449.62,-175.5"/>
<text text-anchor="start" x="352.38" y="-162" font-family="Helvetica,sans-Serif" font-size="10.00">vlcb_net_sock_list</text>
<text text-anchor="middle" x="397" y="-149.25" font-family="Helvetica,sans-Serif" font-size="10.00">_GetIterator</text>
</a>
</g>
</g>
<!-- Node2&#45;&gt;Node8 -->
<g id="edge7_Node000002_Node000008" class="edge">
<title>Node2&#45;&gt;Node8</title>
<g id="a_edge7_Node000002_Node000008"><a xlink:title=" ">
<path fill="none" stroke="#63b8ff" d="M264.59,-158.75C285.8,-158.75 310.5,-158.75 332.73,-158.75"/>
<polygon fill="#63b8ff" stroke="#63b8ff" points="332.58,-162.25 342.58,-158.75 332.58,-155.25 332.58,-162.25"/>
</a>
</g>
</g>
<!-- Node9 -->
<g id="Node000009" class="node">
<title>Node9</title>
<g id="a_Node000009"><a xlink:href="socket_8c.html#a176c72971ceb14a338d824d7a3bb0fac" target="_top" xlink:title=" ">
<polygon fill="white" stroke="#666666" points="634.38,-108.5 529.12,-108.5 529.12,-75 634.38,-75 634.38,-108.5"/>
<text text-anchor="start" x="537.12" y="-95" font-family="Helvetica,sans-Serif" font-size="10.00">vlcb_net_sock_list</text>
<text text-anchor="middle" x="581.75" y="-82.25" font-family="Helvetica,sans-Serif" font-size="10.00">_iter_HasNext</text>
</a>
</g>
</g>
<!-- Node2&#45;&gt;Node9 -->
<g id="edge8_Node000002_Node000009" class="edge">
<title>Node2&#45;&gt;Node9</title>
<g id="a_edge8_Node000002_Node000009"><a xlink:title=" ">
<path fill="none" stroke="#63b8ff" d="M253.64,-147.88C273.39,-142.88 297.46,-137.1 319.25,-132.75 386.63,-119.29 464.51,-107.56 517.64,-100.14"/>
<polygon fill="#63b8ff" stroke="#63b8ff" points="518,-103.62 527.42,-98.78 517.04,-96.69 518,-103.62"/>
</a>
</g>
</g>
<!-- Node10 -->
<g id="Node000010" class="node">
<title>Node10</title>
<g id="a_Node000010"><a xlink:href="socket_8c.html#a81bef9c5afd9ccbb9d0a52b2ae1da9b2" target="_top" xlink:title=" ">
<polygon fill="white" stroke="#666666" points="449.62,-85.5 344.38,-85.5 344.38,-52 449.62,-52 449.62,-85.5"/>
<text text-anchor="start" x="352.38" y="-72" font-family="Helvetica,sans-Serif" font-size="10.00">vlcb_net_sock_list</text>
<text text-anchor="middle" x="397" y="-59.25" font-family="Helvetica,sans-Serif" font-size="10.00">_iter_Next</text>
</a>
</g>
</g>
<!-- Node2&#45;&gt;Node10 -->
<g id="edge9_Node000002_Node000010" class="edge">
<title>Node2&#45;&gt;Node10</title>
<g id="a_edge9_Node000002_Node000010"><a xlink:title=" ">
<path fill="none" stroke="#63b8ff" d="M264.94,-148.37C271.35,-146.04 277.61,-143.21 283.25,-139.75 303.64,-127.25 299.66,-113.47 319.25,-99.75 323.91,-96.48 328.97,-93.49 334.19,-90.75"/>
<polygon fill="#63b8ff" stroke="#63b8ff" points="335.53,-94 343,-86.48 332.47,-87.7 335.53,-94"/>
</a>
</g>
</g>
<!-- Node11 -->
<g id="Node000011" class="node">
<title>Node11</title>
<g id="a_Node000011"><a xlink:href="socket_8c.html#a8e1f8d2c6242378d1d4eda56527a4a26" target="_top" xlink:title=" ">
<polygon fill="white" stroke="#666666" points="467.62,-33.5 326.38,-33.5 326.38,0 467.62,0 467.62,-33.5"/>
<text text-anchor="start" x="334.38" y="-20" font-family="Helvetica,sans-Serif" font-size="10.00">vlcb_net_sock_ProcessErr</text>
<text text-anchor="middle" x="397" y="-7.25" font-family="Helvetica,sans-Serif" font-size="10.00">ToStr</text>
</a>
</g>
</g>
<!-- Node2&#45;&gt;Node11 -->
<g id="edge11_Node000002_Node000011" class="edge">
<title>Node2&#45;&gt;Node11</title>
<g id="a_edge11_Node000002_Node000011"><a xlink:title=" ">
<path fill="none" stroke="#63b8ff" d="M264.93,-150.86C271.64,-148.15 277.99,-144.55 283.25,-139.75 317.24,-108.78 286.27,-74.8 319.25,-42.75 320,-42.02 320.77,-41.31 321.56,-40.62"/>
<polygon fill="#63b8ff" stroke="#63b8ff" points="323.44,-43.58 329.47,-34.87 319.32,-37.92 323.44,-43.58"/>
</a>
</g>
</g>
<!-- Node4 -->
<g id="Node000004" class="node">
<title>Node4</title>
<g id="a_Node000004"><a xlink:href="packet__buf_8c.html#afa80d4fb078473100610ba106bd5cb46" target="_top" xlink:title=" ">
<polygon fill="white" stroke="#666666" points="651.25,-311.12 512.25,-311.12 512.25,-290.38 651.25,-290.38 651.25,-311.12"/>
<text text-anchor="middle" x="581.75" y="-297.62" font-family="Helvetica,sans-Serif" font-size="10.00">vlcb_net_packetbuf_Push</text>
</a>
</g>
</g>
<!-- Node3&#45;&gt;Node4 -->
<g id="edge3_Node000003_Node000004" class="edge">
<title>Node3&#45;&gt;Node4</title>
<g id="a_edge3_Node000003_Node000004"><a xlink:title=" ">
<path fill="none" stroke="#63b8ff" d="M439.93,-286.11C457.97,-287.98 479.7,-290.24 500.62,-292.42"/>
<polygon fill="#63b8ff" stroke="#63b8ff" points="499.99,-295.87 510.3,-293.42 500.71,-288.91 499.99,-295.87"/>
</a>
</g>
</g>
<!-- Node5 -->
<g id="Node000005" class="node">
<title>Node5</title>
<g id="a_Node000005"><a xlink:href="packet_2datagram_8c.html#a965c07c3bd42101143dfbec7857547c2" target="_top" xlink:title=" ">
<polygon fill="white" stroke="#666666" points="652.75,-272.12 510.75,-272.12 510.75,-251.38 652.75,-251.38 652.75,-272.12"/>
<text text-anchor="middle" x="581.75" y="-258.62" font-family="Helvetica,sans-Serif" font-size="10.00">vlcb_net_pkt_dgram_New</text>
</a>
</g>
</g>
<!-- Node3&#45;&gt;Node5 -->
<g id="edge4_Node000003_Node000005" class="edge">
<title>Node3&#45;&gt;Node5</title>
<g id="a_edge4_Node000003_Node000005"><a xlink:title=" ">
<path fill="none" stroke="#63b8ff" d="M439.93,-277.16C457.53,-275.23 478.64,-272.92 499.09,-270.69"/>
<polygon fill="#63b8ff" stroke="#63b8ff" points="499.3,-274.19 508.86,-269.62 498.54,-267.23 499.3,-274.19"/>
</a>
</g>
</g>
<!-- Node10&#45;&gt;Node9 -->
<g id="edge10_Node000010_Node000009" class="edge">
<title>Node10&#45;&gt;Node9</title>
<g id="a_edge10_Node000010_Node000009"><a xlink:title=" ">
<path fill="none" stroke="#63b8ff" d="M449.88,-75.28C470.91,-77.93 495.39,-81.01 517.45,-83.78"/>
<polygon fill="#63b8ff" stroke="#63b8ff" points="516.88,-87.24 527.24,-85.02 517.75,-80.29 516.88,-87.24"/>
</a>
</g>
</g>
</g>
</svg>
