<?xml version="1.0" encoding="UTF-8" standalone="no"?>
<!DOCTYPE svg PUBLIC "-//W3C//DTD SVG 1.1//EN"
 "http://www.w3.org/Graphics/SVG/1.1/DTD/svg11.dtd">
<!-- Generated by graphviz version 12.1.2 (20240928.0832)
 -->
<!-- Title: iface.h Pages: 1 -->
<svg width="860pt" height="325pt"
 viewBox="0.00 0.00 860.02 325.25" xmlns="http://www.w3.org/2000/svg" xmlns:xlink="http://www.w3.org/1999/xlink">
<g id="graph0" class="graph" transform="scale(1 1) rotate(0) translate(4 321.25)">
<title>iface.h</title>
<!-- Node1 -->
<g id="Node000001" class="node">
<title>Node1</title>
<g id="a_Node000001"><a xlink:title=" ">
<polygon fill="#999999" stroke="#666666" points="325.9,-317.25 276.9,-317.25 276.9,-296.5 325.9,-296.5 325.9,-317.25"/>
<text text-anchor="middle" x="301.4" y="-303.75" font-family="Helvetica,sans-Serif" font-size="10.00">iface.h</text>
</a>
</g>
</g>
<!-- Node2 -->
<g id="Node000002" class="node">
<title>Node2</title>
<g id="a_Node000002"><a xlink:title=" ">
<polygon fill="#e0e0e0" stroke="#999999" points="87.9,-77.5 26.9,-77.5 26.9,-56.75 87.9,-56.75 87.9,-77.5"/>
<text text-anchor="middle" x="57.4" y="-64" font-family="Helvetica,sans-Serif" font-size="10.00">stdbool.h</text>
</a>
</g>
</g>
<!-- Node1&#45;&gt;Node2 -->
<g id="edge1_Node000001_Node000002" class="edge">
<title>Node1&#45;&gt;Node2</title>
<g id="a_edge1_Node000001_Node000002"><a xlink:title=" ">
<path fill="none" stroke="#63b8ff" d="M276.67,-306.17C217.51,-305.37 67.94,-294.09 3.4,-203.75 -6.68,-189.64 9.44,-119.34 12.4,-113.5 17.91,-102.63 26.98,-92.73 35.54,-84.98"/>
<polygon fill="#63b8ff" stroke="#63b8ff" points="37.58,-87.83 42.94,-78.7 33.05,-82.5 37.58,-87.83"/>
</a>
</g>
</g>
<!-- Node3 -->
<g id="Node000003" class="node">
<title>Node3</title>
<g id="a_Node000003"><a xlink:href="adapter_8h.html" target="_top" xlink:title=" ">
<polygon fill="white" stroke="#666666" points="332.28,-260.5 270.53,-260.5 270.53,-239.75 332.28,-239.75 332.28,-260.5"/>
<text text-anchor="middle" x="301.4" y="-247" font-family="Helvetica,sans-Serif" font-size="10.00">adapter.h</text>
</a>
</g>
</g>
<!-- Node1&#45;&gt;Node3 -->
<g id="edge2_Node000001_Node000003" class="edge">
<title>Node1&#45;&gt;Node3</title>
<g id="a_edge2_Node000001_Node000003"><a xlink:title=" ">
<path fill="none" stroke="#63b8ff" d="M301.4,-296.09C301.4,-289.47 301.4,-280.47 301.4,-272.27"/>
<polygon fill="#63b8ff" stroke="#63b8ff" points="304.9,-272.34 301.4,-262.34 297.9,-272.34 304.9,-272.34"/>
</a>
</g>
</g>
<!-- Node14 -->
<g id="Node000014" class="node">
<title>Node14</title>
<g id="a_Node000014"><a xlink:href="socket_8h.html" target="_top" xlink:title=" ">
<polygon fill="white" stroke="#666666" points="518.65,-260.5 462.15,-260.5 462.15,-239.75 518.65,-239.75 518.65,-260.5"/>
<text text-anchor="middle" x="490.4" y="-247" font-family="Helvetica,sans-Serif" font-size="10.00">socket.h</text>
</a>
</g>
</g>
<!-- Node1&#45;&gt;Node14 -->
<g id="edge21_Node000001_Node000014" class="edge">
<title>Node1&#45;&gt;Node14</title>
<g id="a_edge21_Node000001_Node000014"><a xlink:title=" ">
<path fill="none" stroke="#63b8ff" d="M326.11,-298.72C357.9,-289.51 413.48,-273.41 451.09,-262.51"/>
<polygon fill="#63b8ff" stroke="#63b8ff" points="451.58,-266.01 460.22,-259.87 449.64,-259.29 451.58,-266.01"/>
</a>
</g>
</g>
<!-- Node3&#45;&gt;Node2 -->
<g id="edge4_Node000003_Node000002" class="edge">
<title>Node3&#45;&gt;Node2</title>
<g id="a_edge4_Node000003_Node000002"><a xlink:title=" ">
<path fill="none" stroke="#63b8ff" d="M270.2,-248.96C203.67,-247.88 51.36,-241.26 19.4,-203.75 -9.54,-169.78 22.09,-115.33 42.64,-86.85"/>
<polygon fill="#63b8ff" stroke="#63b8ff" points="45.22,-89.25 48.42,-79.15 39.62,-85.05 45.22,-89.25"/>
</a>
</g>
</g>
<!-- Node4 -->
<g id="Node000004" class="node">
<title>Node4</title>
<g id="a_Node000004"><a xlink:title=" ">
<polygon fill="#e0e0e0" stroke="#999999" points="314.78,-77.5 250.03,-77.5 250.03,-56.75 314.78,-56.75 314.78,-77.5"/>
<text text-anchor="middle" x="282.4" y="-64" font-family="Helvetica,sans-Serif" font-size="10.00">inttypes.h</text>
</a>
</g>
</g>
<!-- Node3&#45;&gt;Node4 -->
<g id="edge3_Node000003_Node000004" class="edge">
<title>Node3&#45;&gt;Node4</title>
<g id="a_edge3_Node000003_Node000004"><a xlink:title=" ">
<path fill="none" stroke="#63b8ff" d="M300.38,-239.39C297.41,-211.1 288.73,-128.37 284.61,-89.18"/>
<polygon fill="#63b8ff" stroke="#63b8ff" points="288.11,-88.99 283.59,-79.41 281.15,-89.72 288.11,-88.99"/>
</a>
</g>
</g>
<!-- Node5 -->
<g id="Node000005" class="node">
<title>Node5</title>
<g id="a_Node000005"><a xlink:href="error_8h.html" target="_top" xlink:title=" ">
<polygon fill="white" stroke="#666666" points="426.28,-134.25 310.53,-134.25 310.53,-113.5 426.28,-113.5 426.28,-134.25"/>
<text text-anchor="middle" x="368.4" y="-120.75" font-family="Helvetica,sans-Serif" font-size="10.00">vlcb/platform/error.h</text>
</a>
</g>
</g>
<!-- Node3&#45;&gt;Node5 -->
<g id="edge5_Node000003_Node000005" class="edge">
<title>Node3&#45;&gt;Node5</title>
<g id="a_edge5_Node000003_Node000005"><a xlink:title=" ">
<path fill="none" stroke="#63b8ff" d="M305.61,-239.47C312.26,-224.41 325.85,-194.54 339.4,-170.25 344.34,-161.39 350.3,-151.9 355.53,-143.89"/>
<polygon fill="#63b8ff" stroke="#63b8ff" points="358.38,-145.93 361,-135.67 352.55,-142.06 358.38,-145.93"/>
</a>
</g>
</g>
<!-- Node6 -->
<g id="Node000006" class="node">
<title>Node6</title>
<g id="a_Node000006"><a xlink:href="interface_8h.html" target="_top" xlink:title=" ">
<polygon fill="white" stroke="#666666" points="836.78,-197.38 700.03,-197.38 700.03,-176.62 836.78,-176.62 836.78,-197.38"/>
<text text-anchor="middle" x="768.4" y="-183.88" font-family="Helvetica,sans-Serif" font-size="10.00">vlcb/platform/interface.h</text>
</a>
</g>
</g>
<!-- Node3&#45;&gt;Node6 -->
<g id="edge6_Node000003_Node000006" class="edge">
<title>Node3&#45;&gt;Node6</title>
<g id="a_edge6_Node000003_Node000006"><a xlink:title=" ">
<path fill="none" stroke="#63b8ff" d="M332.62,-246.41C398.93,-240.45 558.64,-225.01 691.4,-203.75 698.3,-202.65 705.52,-201.35 712.65,-199.99"/>
<polygon fill="#63b8ff" stroke="#63b8ff" points="713.11,-203.47 722.25,-198.11 711.76,-196.6 713.11,-203.47"/>
</a>
</g>
</g>
<!-- Node8 -->
<g id="Node000008" class="node">
<title>Node8</title>
<g id="a_Node000008"><a xlink:href="packet_8h.html" target="_top" xlink:title=" ">
<polygon fill="white" stroke="#666666" points="146.4,-197.38 28.4,-197.38 28.4,-176.62 146.4,-176.62 146.4,-197.38"/>
<text text-anchor="middle" x="87.4" y="-183.88" font-family="Helvetica,sans-Serif" font-size="10.00">adapter/can/packet.h</text>
</a>
</g>
</g>
<!-- Node3&#45;&gt;Node8 -->
<g id="edge8_Node000003_Node000008" class="edge">
<title>Node3&#45;&gt;Node8</title>
<g id="a_edge8_Node000003_Node000008"><a xlink:title=" ">
<path fill="none" stroke="#63b8ff" d="M270.29,-240.24C234.08,-229.89 173.98,-212.73 132.62,-200.92"/>
<polygon fill="#63b8ff" stroke="#63b8ff" points="133.78,-197.61 123.2,-198.23 131.86,-204.34 133.78,-197.61"/>
</a>
</g>
</g>
<!-- Node12 -->
<g id="Node000012" class="node">
<title>Node12</title>
<g id="a_Node000012"><a xlink:href="addr_8h.html" target="_top" xlink:title=" ">
<polygon fill="white" stroke="#666666" points="534.4,-197.38 446.4,-197.38 446.4,-176.62 534.4,-176.62 534.4,-197.38"/>
<text text-anchor="middle" x="490.4" y="-183.88" font-family="Helvetica,sans-Serif" font-size="10.00">vlcb/net/addr.h</text>
</a>
</g>
</g>
<!-- Node3&#45;&gt;Node12 -->
<g id="edge16_Node000003_Node000012" class="edge">
<title>Node3&#45;&gt;Node12</title>
<g id="a_edge16_Node000003_Node000012"><a xlink:title=" ">
<path fill="none" stroke="#63b8ff" d="M331.77,-239.3C363.59,-229.01 413.79,-212.78 449.18,-201.33"/>
<polygon fill="#63b8ff" stroke="#63b8ff" points="450.23,-204.67 458.67,-198.26 448.08,-198.01 450.23,-204.67"/>
</a>
</g>
</g>
<!-- Node7 -->
<g id="Node000007" class="node">
<title>Node7</title>
<g id="a_Node000007"><a xlink:title=" ">
<polygon fill="#e0e0e0" stroke="#999999" points="795.9,-134.25 740.9,-134.25 740.9,-113.5 795.9,-113.5 795.9,-134.25"/>
<text text-anchor="middle" x="768.4" y="-120.75" font-family="Helvetica,sans-Serif" font-size="10.00">stddef.h</text>
</a>
</g>
</g>
<!-- Node6&#45;&gt;Node7 -->
<g id="edge7_Node000006_Node000007" class="edge">
<title>Node6&#45;&gt;Node7</title>
<g id="a_edge7_Node000006_Node000007"><a xlink:title=" ">
<path fill="none" stroke="#63b8ff" d="M768.4,-176.18C768.4,-168.02 768.4,-156.13 768.4,-145.85"/>
<polygon fill="#63b8ff" stroke="#63b8ff" points="771.9,-145.98 768.4,-135.98 764.9,-145.98 771.9,-145.98"/>
</a>
</g>
</g>
<!-- Node8&#45;&gt;Node2 -->
<g id="edge9_Node000008_Node000002" class="edge">
<title>Node8&#45;&gt;Node2</title>
<g id="a_edge9_Node000008_Node000002"><a xlink:title=" ">
<path fill="none" stroke="#63b8ff" d="M81.24,-176.13C75.28,-166.03 66.55,-149.67 62.4,-134.25 58.41,-119.42 57.23,-102.1 57,-88.9"/>
<polygon fill="#63b8ff" stroke="#63b8ff" points="60.5,-89.25 57.02,-79.24 53.5,-89.24 60.5,-89.25"/>
</a>
</g>
</g>
<!-- Node9 -->
<g id="Node000009" class="node">
<title>Node9</title>
<g id="a_Node000009"><a xlink:href="common_2inc_2vlcb_2common_2can_8h.html" target="_top" xlink:title=" ">
<polygon fill="white" stroke="#666666" points="254.03,-134.25 142.78,-134.25 142.78,-113.5 254.03,-113.5 254.03,-134.25"/>
<text text-anchor="middle" x="198.4" y="-120.75" font-family="Helvetica,sans-Serif" font-size="10.00">vlcb/common/can.h</text>
</a>
</g>
</g>
<!-- Node8&#45;&gt;Node9 -->
<g id="edge10_Node000008_Node000009" class="edge">
<title>Node8&#45;&gt;Node9</title>
<g id="a_edge10_Node000008_Node000009"><a xlink:title=" ">
<path fill="none" stroke="#63b8ff" d="M105.24,-176.18C122.88,-166.47 150.13,-151.46 170.61,-140.18"/>
<polygon fill="#63b8ff" stroke="#63b8ff" points="172.22,-143.29 179.29,-135.4 168.84,-137.16 172.22,-143.29"/>
</a>
</g>
</g>
<!-- Node9&#45;&gt;Node2 -->
<g id="edge12_Node000009_Node000002" class="edge">
<title>Node9&#45;&gt;Node2</title>
<g id="a_edge12_Node000009_Node000002"><a xlink:title=" ">
<path fill="none" stroke="#63b8ff" d="M173.2,-113.09C150.84,-104.41 117.94,-91.63 92.92,-81.92"/>
<polygon fill="#63b8ff" stroke="#63b8ff" points="94.39,-78.73 83.8,-78.38 91.86,-85.26 94.39,-78.73"/>
</a>
</g>
</g>
<!-- Node9&#45;&gt;Node4 -->
<g id="edge11_Node000009_Node000004" class="edge">
<title>Node9&#45;&gt;Node4</title>
<g id="a_edge11_Node000009_Node000004"><a xlink:title=" ">
<path fill="none" stroke="#63b8ff" d="M213.42,-113.09C225.84,-104.99 243.73,-93.33 258.17,-83.92"/>
<polygon fill="#63b8ff" stroke="#63b8ff" points="259.78,-87.05 266.25,-78.65 255.96,-81.18 259.78,-87.05"/>
</a>
</g>
</g>
<!-- Node10 -->
<g id="Node000010" class="node">
<title>Node10</title>
<g id="a_Node000010"><a xlink:title=" ">
<polygon fill="#e0e0e0" stroke="#999999" points="511.78,-20.75 459.03,-20.75 459.03,0 511.78,0 511.78,-20.75"/>
<text text-anchor="middle" x="485.4" y="-7.25" font-family="Helvetica,sans-Serif" font-size="10.00">stdint.h</text>
</a>
</g>
</g>
<!-- Node9&#45;&gt;Node10 -->
<g id="edge13_Node000009_Node000010" class="edge">
<title>Node9&#45;&gt;Node10</title>
<g id="a_edge13_Node000009_Node000010"><a xlink:title=" ">
<path fill="none" stroke="#63b8ff" d="M201.72,-113.45C207.4,-98.78 220.45,-70.75 241.4,-56.75 274.57,-34.59 387.4,-20.75 447.31,-14.79"/>
<polygon fill="#63b8ff" stroke="#63b8ff" points="447.42,-18.29 457.04,-13.84 446.75,-11.32 447.42,-18.29"/>
</a>
</g>
</g>
<!-- Node11 -->
<g id="Node000011" class="node">
<title>Node11</title>
<g id="a_Node000011"><a xlink:href="opcode_8h.html" target="_top" xlink:title=" ">
<polygon fill="white" stroke="#666666" points="409.53,-77.5 349.28,-77.5 349.28,-56.75 409.53,-56.75 409.53,-77.5"/>
<text text-anchor="middle" x="379.4" y="-64" font-family="Helvetica,sans-Serif" font-size="10.00">opcode.h</text>
</a>
</g>
</g>
<!-- Node9&#45;&gt;Node11 -->
<g id="edge14_Node000009_Node000011" class="edge">
<title>Node9&#45;&gt;Node11</title>
<g id="a_edge14_Node000009_Node000011"><a xlink:title=" ">
<path fill="none" stroke="#63b8ff" d="M230.76,-113.09C260.69,-104.03 305.32,-90.53 337.87,-80.69"/>
<polygon fill="#63b8ff" stroke="#63b8ff" points="338.82,-84.06 347.38,-77.81 336.8,-77.36 338.82,-84.06"/>
</a>
</g>
</g>
<!-- Node11&#45;&gt;Node10 -->
<g id="edge15_Node000011_Node000010" class="edge">
<title>Node11&#45;&gt;Node10</title>
<g id="a_edge15_Node000011_Node000010"><a xlink:title=" ">
<path fill="none" stroke="#63b8ff" d="M398.35,-56.34C414.48,-48.01 437.91,-35.91 456.39,-26.36"/>
<polygon fill="#63b8ff" stroke="#63b8ff" points="457.99,-29.47 465.27,-21.77 454.78,-23.25 457.99,-29.47"/>
</a>
</g>
</g>
<!-- Node12&#45;&gt;Node9 -->
<g id="edge17_Node000012_Node000009" class="edge">
<title>Node12&#45;&gt;Node9</title>
<g id="a_edge17_Node000012_Node000009"><a xlink:title=" ">
<path fill="none" stroke="#63b8ff" d="M459.16,-176.14C452.04,-174.06 444.49,-171.97 437.4,-170.25 379.84,-156.27 313.61,-143.99 265.49,-135.74"/>
<polygon fill="#63b8ff" stroke="#63b8ff" points="266.22,-132.31 255.77,-134.09 265.05,-139.22 266.22,-132.31"/>
</a>
</g>
</g>
<!-- Node12&#45;&gt;Node10 -->
<g id="edge20_Node000012_Node000010" class="edge">
<title>Node12&#45;&gt;Node10</title>
<g id="a_edge20_Node000012_Node000010"><a xlink:title=" ">
<path fill="none" stroke="#63b8ff" d="M501.71,-176.14C525.27,-154.33 575.61,-100.5 552.4,-56.75 545.44,-43.63 532.8,-33.61 520.36,-26.36"/>
<polygon fill="#63b8ff" stroke="#63b8ff" points="522.35,-23.45 511.87,-21.85 519.06,-29.63 522.35,-23.45"/>
</a>
</g>
</g>
<!-- Node13 -->
<g id="Node000013" class="node">
<title>Node13</title>
<g id="a_Node000013"><a xlink:href="time_8h.html" target="_top" xlink:title=" ">
<polygon fill="white" stroke="#666666" points="543.28,-77.5 427.53,-77.5 427.53,-56.75 543.28,-56.75 543.28,-77.5"/>
<text text-anchor="middle" x="485.4" y="-64" font-family="Helvetica,sans-Serif" font-size="10.00">vlcb/platform/time.h</text>
</a>
</g>
</g>
<!-- Node12&#45;&gt;Node13 -->
<g id="edge18_Node000012_Node000013" class="edge">
<title>Node12&#45;&gt;Node13</title>
<g id="a_edge18_Node000012_Node000013"><a xlink:title=" ">
<path fill="none" stroke="#63b8ff" d="M495.33,-176.15C501.67,-162.21 511.34,-135.91 506.4,-113.5 504.47,-104.73 500.67,-95.64 496.83,-87.91"/>
<polygon fill="#63b8ff" stroke="#63b8ff" points="499.91,-86.26 492.1,-79.11 493.75,-89.58 499.91,-86.26"/>
</a>
</g>
</g>
<!-- Node13&#45;&gt;Node10 -->
<g id="edge19_Node000013_Node000010" class="edge">
<title>Node13&#45;&gt;Node10</title>
<g id="a_edge19_Node000013_Node000010"><a xlink:title=" ">
<path fill="none" stroke="#63b8ff" d="M485.4,-56.34C485.4,-49.72 485.4,-40.72 485.4,-32.52"/>
<polygon fill="#63b8ff" stroke="#63b8ff" points="488.9,-32.59 485.4,-22.59 481.9,-32.59 488.9,-32.59"/>
</a>
</g>
</g>
<!-- Node14&#45;&gt;Node2 -->
<g id="edge22_Node000014_Node000002" class="edge">
<title>Node14&#45;&gt;Node2</title>
<g id="a_edge22_Node000014_Node000002"><a xlink:title=" ">
<path fill="none" stroke="#63b8ff" d="M461.77,-243.57C381.5,-227.56 156.36,-179.59 97.4,-134.25 82.13,-122.5 71.4,-103.13 64.93,-88.38"/>
<polygon fill="#63b8ff" stroke="#63b8ff" points="68.21,-87.14 61.21,-79.18 61.72,-89.76 68.21,-87.14"/>
</a>
</g>
</g>
<!-- Node14&#45;&gt;Node6 -->
<g id="edge33_Node000014_Node000006" class="edge">
<title>Node14&#45;&gt;Node6</title>
<g id="a_edge33_Node000014_Node000006"><a xlink:title=" ">
<path fill="none" stroke="#63b8ff" d="M519.11,-242.81C564.72,-232.78 654.56,-213.03 713.02,-200.18"/>
<polygon fill="#63b8ff" stroke="#63b8ff" points="713.41,-203.67 722.43,-198.11 711.91,-196.84 713.41,-203.67"/>
</a>
</g>
</g>
<!-- Node14&#45;&gt;Node7 -->
<g id="edge23_Node000014_Node000007" class="edge">
<title>Node14&#45;&gt;Node7</title>
<g id="a_edge23_Node000014_Node000007"><a xlink:title=" ">
<path fill="none" stroke="#63b8ff" d="M518.87,-247.61C599.31,-243.05 823.87,-228.21 845.4,-203.75 855.24,-192.57 852.79,-183.18 845.4,-170.25 836.98,-155.51 821.68,-145.08 806.94,-137.97"/>
<polygon fill="#63b8ff" stroke="#63b8ff" points="808.35,-134.76 797.78,-133.97 805.55,-141.18 808.35,-134.76"/>
</a>
</g>
</g>
<!-- Node14&#45;&gt;Node12 -->
<g id="edge28_Node000014_Node000012" class="edge">
<title>Node14&#45;&gt;Node12</title>
<g id="a_edge28_Node000014_Node000012"><a xlink:title=" ">
<path fill="none" stroke="#63b8ff" d="M490.4,-239.3C490.4,-231.15 490.4,-219.26 490.4,-208.98"/>
<polygon fill="#63b8ff" stroke="#63b8ff" points="493.9,-209.11 490.4,-199.11 486.9,-209.11 493.9,-209.11"/>
</a>
</g>
</g>
<!-- Node15 -->
<g id="Node000015" class="node">
<title>Node15</title>
<g id="a_Node000015"><a xlink:href="vlcb_8h.html" target="_top" xlink:title=" ">
<polygon fill="white" stroke="#666666" points="428.65,-197.38 348.15,-197.38 348.15,-176.62 428.65,-176.62 428.65,-197.38"/>
<text text-anchor="middle" x="388.4" y="-183.88" font-family="Helvetica,sans-Serif" font-size="10.00">packet/vlcb.h</text>
</a>
</g>
</g>
<!-- Node14&#45;&gt;Node15 -->
<g id="edge24_Node000014_Node000015" class="edge">
<title>Node14&#45;&gt;Node15</title>
<g id="a_edge24_Node000014_Node000015"><a xlink:title=" ">
<path fill="none" stroke="#63b8ff" d="M474.01,-239.3C457.95,-229.68 433.22,-214.86 414.46,-203.62"/>
<polygon fill="#63b8ff" stroke="#63b8ff" points="416.43,-200.71 406.05,-198.57 412.83,-206.72 416.43,-200.71"/>
</a>
</g>
</g>
<!-- Node16 -->
<g id="Node000016" class="node">
<title>Node16</title>
<g id="a_Node000016"><a xlink:href="packet__buf_8h.html" target="_top" xlink:title=" ">
<polygon fill="white" stroke="#666666" points="682.4,-203.75 552.4,-203.75 552.4,-170.25 682.4,-170.25 682.4,-203.75"/>
<text text-anchor="start" x="560.4" y="-190.25" font-family="Helvetica,sans-Serif" font-size="10.00">vlcb/net/storage/packet</text>
<text text-anchor="middle" x="617.4" y="-177.5" font-family="Helvetica,sans-Serif" font-size="10.00">_buf.h</text>
</a>
</g>
</g>
<!-- Node14&#45;&gt;Node16 -->
<g id="edge29_Node000014_Node000016" class="edge">
<title>Node14&#45;&gt;Node16</title>
<g id="a_edge29_Node000014_Node000016"><a xlink:title=" ">
<path fill="none" stroke="#63b8ff" d="M510.81,-239.3C527.68,-231.18 552.24,-219.36 573.53,-209.12"/>
<polygon fill="#63b8ff" stroke="#63b8ff" points="574.82,-212.38 582.31,-204.89 571.78,-206.07 574.82,-212.38"/>
</a>
</g>
</g>
<!-- Node15&#45;&gt;Node4 -->
<g id="edge25_Node000015_Node000004" class="edge">
<title>Node15&#45;&gt;Node4</title>
<g id="a_edge25_Node000015_Node000004"><a xlink:title=" ">
<path fill="none" stroke="#63b8ff" d="M402.64,-176.35C421.76,-162.19 451.55,-135.14 435.4,-113.5 422.25,-95.88 366.6,-82.67 326.2,-75.17"/>
<polygon fill="#63b8ff" stroke="#63b8ff" points="326.95,-71.75 316.49,-73.43 325.72,-78.64 326.95,-71.75"/>
</a>
</g>
</g>
<!-- Node15&#45;&gt;Node5 -->
<g id="edge27_Node000015_Node000005" class="edge">
<title>Node15&#45;&gt;Node5</title>
<g id="a_edge27_Node000015_Node000005"><a xlink:title=" ">
<path fill="none" stroke="#63b8ff" d="M385.19,-176.18C382.46,-167.84 378.46,-155.61 375.05,-145.18"/>
<polygon fill="#63b8ff" stroke="#63b8ff" points="378.45,-144.32 372.01,-135.91 371.8,-146.5 378.45,-144.32"/>
</a>
</g>
</g>
<!-- Node15&#45;&gt;Node11 -->
<g id="edge26_Node000015_Node000011" class="edge">
<title>Node15&#45;&gt;Node11</title>
<g id="a_edge26_Node000015_Node000011"><a xlink:title=" ">
<path fill="none" stroke="#63b8ff" d="M415.06,-176.15C444.31,-163.73 485.05,-140.67 468.4,-113.5 457.85,-96.27 438.47,-85.33 420.49,-78.52"/>
<polygon fill="#63b8ff" stroke="#63b8ff" points="421.88,-75.29 411.28,-75.37 419.61,-81.92 421.88,-75.29"/>
</a>
</g>
</g>
<!-- Node16&#45;&gt;Node2 -->
<g id="edge30_Node000016_Node000002" class="edge">
<title>Node16&#45;&gt;Node2</title>
<g id="a_edge30_Node000016_Node000002"><a xlink:title=" ">
<path fill="none" stroke="#63b8ff" d="M552.11,-171.65C549.17,-171.15 546.26,-170.68 543.4,-170.25 362.5,-143.16 301.76,-205.79 133.4,-134.25 108.64,-123.73 86.2,-101.98 72.23,-86.29"/>
<polygon fill="#63b8ff" stroke="#63b8ff" points="75.18,-84.35 66.01,-79.04 69.86,-88.91 75.18,-84.35"/>
</a>
</g>
</g>
<!-- Node16&#45;&gt;Node7 -->
<g id="edge31_Node000016_Node000007" class="edge">
<title>Node16&#45;&gt;Node7</title>
<g id="a_edge31_Node000016_Node000007"><a xlink:title=" ">
<path fill="none" stroke="#63b8ff" d="M657.47,-169.78C681.2,-160.18 710.96,-148.13 733.69,-138.93"/>
<polygon fill="#63b8ff" stroke="#63b8ff" points="734.86,-142.23 742.82,-135.23 732.23,-135.74 734.86,-142.23"/>
</a>
</g>
</g>
<!-- Node16&#45;&gt;Node10 -->
<g id="edge32_Node000016_Node000010" class="edge">
<title>Node16&#45;&gt;Node10</title>
<g id="a_edge32_Node000016_Node000010"><a xlink:title=" ">
<path fill="none" stroke="#63b8ff" d="M615.15,-169.83C610.72,-143.36 598.61,-90.35 569.4,-56.75 556.92,-42.38 538.73,-31.78 522.47,-24.44"/>
<polygon fill="#63b8ff" stroke="#63b8ff" points="524.11,-21.34 513.53,-20.68 521.39,-27.79 524.11,-21.34"/>
</a>
</g>
</g>
</g>
</svg>
