<?xml version="1.0" encoding="UTF-8" standalone="no"?>
<!DOCTYPE svg PUBLIC "-//W3C//DTD SVG 1.1//EN"
 "http://www.w3.org/Graphics/SVG/1.1/DTD/svg11.dtd">
<!-- Generated by graphviz version 12.1.2 (20240928.0832)
 -->
<!-- Title: IngressPackets Pages: 1 -->
<svg width="826pt" height="414pt"
 viewBox="0.00 0.00 826.00 414.12" xmlns="http://www.w3.org/2000/svg" xmlns:xlink="http://www.w3.org/1999/xlink">
<g id="graph0" class="graph" transform="scale(1 1) rotate(0) translate(4 410.12)">
<title>IngressPackets</title>
<!-- Node1 -->
<g id="Node000001" class="node">
<title>Node1</title>
<g id="a_Node000001"><a xlink:title=" ">
<polygon fill="#999999" stroke="#666666" points="88,-216.12 0,-216.12 0,-195.38 88,-195.38 88,-216.12"/>
<text text-anchor="middle" x="44" y="-202.62" font-family="Helvetica,sans-Serif" font-size="10.00">IngressPackets</text>
</a>
</g>
</g>
<!-- Node2 -->
<g id="Node000002" class="node">
<title>Node2</title>
<g id="a_Node000002"><a xlink:href="iface__can_8c.html#a96e0054424451b9fdc03c51cd74b9cb8" target="_top" xlink:title=" ">
<polygon fill="white" stroke="#666666" points="239.38,-236.12 135.62,-236.12 135.62,-215.38 239.38,-215.38 239.38,-236.12"/>
<text text-anchor="middle" x="187.5" y="-222.62" font-family="Helvetica,sans-Serif" font-size="10.00">ProcessCanPacket</text>
</a>
</g>
</g>
<!-- Node1&#45;&gt;Node2 -->
<g id="edge1_Node000001_Node000002" class="edge">
<title>Node1&#45;&gt;Node2</title>
<g id="a_edge1_Node000001_Node000002"><a xlink:title=" ">
<path fill="none" stroke="#63b8ff" d="M88.22,-211.86C99.61,-213.47 112.13,-215.24 124.3,-216.96"/>
<polygon fill="#63b8ff" stroke="#63b8ff" points="123.45,-220.37 133.84,-218.31 124.43,-213.44 123.45,-220.37"/>
</a>
</g>
</g>
<!-- Node20 -->
<g id="Node000020" class="node">
<title>Node20</title>
<g id="a_Node000020"><a xlink:href="adapter_8c.html#a74b46c574ae26bb9f527b6b157cb644e" target="_top" xlink:title=" ">
<polygon fill="white" stroke="#666666" points="251,-197.12 124,-197.12 124,-176.38 251,-176.38 251,-197.12"/>
<text text-anchor="middle" x="187.5" y="-183.62" font-family="Helvetica,sans-Serif" font-size="10.00">vlcb_net_adpt_ErrToStr</text>
</a>
</g>
</g>
<!-- Node1&#45;&gt;Node20 -->
<g id="edge24_Node000001_Node000020" class="edge">
<title>Node1&#45;&gt;Node20</title>
<g id="a_edge24_Node000001_Node000020"><a xlink:title=" ">
<path fill="none" stroke="#63b8ff" d="M88.22,-199.95C95.93,-198.91 104.16,-197.81 112.45,-196.69"/>
<polygon fill="#63b8ff" stroke="#63b8ff" points="112.8,-200.18 122.25,-195.38 111.87,-193.24 112.8,-200.18"/>
</a>
</g>
</g>
<!-- Node3 -->
<g id="Node000003" class="node">
<title>Node3</title>
<g id="a_Node000003"><a xlink:href="iface__can__svc_8c.html#ac408b1836518b97c2875b59ffaa7fdc0" target="_top" xlink:title=" ">
<polygon fill="white" stroke="#666666" points="421.5,-406.12 296,-406.12 296,-385.38 421.5,-385.38 421.5,-406.12"/>
<text text-anchor="middle" x="358.75" y="-392.62" font-family="Helvetica,sans-Serif" font-size="10.00">CanSvcEventConsume</text>
</a>
</g>
</g>
<!-- Node2&#45;&gt;Node3 -->
<g id="edge2_Node000002_Node000003" class="edge">
<title>Node2&#45;&gt;Node3</title>
<g id="a_edge2_Node000002_Node000003"><a xlink:title=" ">
<path fill="none" stroke="#63b8ff" d="M192.38,-236.34C203,-263.8 235.24,-337.8 287,-375.75 289.05,-377.25 291.21,-378.64 293.45,-379.93"/>
<polygon fill="#63b8ff" stroke="#63b8ff" points="291.8,-383.02 302.32,-384.26 294.87,-376.73 291.8,-383.02"/>
</a>
</g>
</g>
<!-- Node5 -->
<g id="Node000005" class="node">
<title>Node5</title>
<g id="a_Node000005"><a xlink:href="iface__can__svc_8c.html#a0583c97314d46b6e4329c04cf959c575" target="_top" xlink:title=" ">
<polygon fill="white" stroke="#666666" points="403.5,-367.12 314,-367.12 314,-346.38 403.5,-346.38 403.5,-367.12"/>
<text text-anchor="middle" x="358.75" y="-353.62" font-family="Helvetica,sans-Serif" font-size="10.00">CanSvcProcess</text>
</a>
</g>
</g>
<!-- Node2&#45;&gt;Node5 -->
<g id="edge4_Node000002_Node000005" class="edge">
<title>Node2&#45;&gt;Node5</title>
<g id="a_edge4_Node000002_Node000005"><a xlink:title=" ">
<path fill="none" stroke="#63b8ff" d="M195.58,-236.51C210.18,-257.87 245.73,-305.9 287,-332.75 292.36,-336.24 298.29,-339.28 304.35,-341.9"/>
<polygon fill="#63b8ff" stroke="#63b8ff" points="302.63,-344.99 313.22,-345.39 305.2,-338.47 302.63,-344.99"/>
</a>
</g>
</g>
<!-- Node7 -->
<g id="Node000007" class="node">
<title>Node7</title>
<g id="a_Node000007"><a xlink:href="iface__vlcb_8c.html#a772411fa3c2c8faf08e996dcec735dbe" target="_top" xlink:title=" ">
<polygon fill="white" stroke="#666666" points="411.75,-211.12 305.75,-211.12 305.75,-190.38 411.75,-190.38 411.75,-211.12"/>
<text text-anchor="middle" x="358.75" y="-197.62" font-family="Helvetica,sans-Serif" font-size="10.00">ProcessVlcbPacket</text>
</a>
</g>
</g>
<!-- Node2&#45;&gt;Node7 -->
<g id="edge7_Node000002_Node000007" class="edge">
<title>Node2&#45;&gt;Node7</title>
<g id="a_edge7_Node000002_Node000007"><a xlink:title=" ">
<path fill="none" stroke="#63b8ff" d="M239.74,-218.18C256.9,-215.65 276.24,-212.79 294.23,-210.13"/>
<polygon fill="#63b8ff" stroke="#63b8ff" points="294.64,-213.61 304.02,-208.69 293.61,-206.69 294.64,-213.61"/>
</a>
</g>
</g>
<!-- Node14 -->
<g id="Node000014" class="node">
<title>Node14</title>
<g id="a_Node000014"><a xlink:href="socket_8c.html#a9401eccd14dd3acd44764c5e8a05beaf" target="_top" xlink:title=" ">
<polygon fill="white" stroke="#666666" points="596.88,-33.5 491.62,-33.5 491.62,0 596.88,0 596.88,-33.5"/>
<text text-anchor="start" x="499.62" y="-20" font-family="Helvetica,sans-Serif" font-size="10.00">vlcb_net_sock_list</text>
<text text-anchor="middle" x="544.25" y="-7.25" font-family="Helvetica,sans-Serif" font-size="10.00">_GetIterator</text>
</a>
</g>
</g>
<!-- Node2&#45;&gt;Node14 -->
<g id="edge21_Node000002_Node000014" class="edge">
<title>Node2&#45;&gt;Node14</title>
<g id="a_edge21_Node000002_Node000014"><a xlink:title=" ">
<path fill="none" stroke="#63b8ff" d="M228.16,-214.9C235.89,-212.27 243.82,-209.21 251,-205.75 268.32,-197.41 269.47,-189.65 287,-181.75 347.15,-154.64 381.94,-188.41 430.5,-143.75 465.57,-111.49 432.54,-76.18 466.5,-42.75 470.82,-38.49 475.87,-34.93 481.27,-31.96"/>
<polygon fill="#63b8ff" stroke="#63b8ff" points="482.39,-35.3 489.93,-27.85 479.39,-28.97 482.39,-35.3"/>
</a>
</g>
</g>
<!-- Node15 -->
<g id="Node000015" class="node">
<title>Node15</title>
<g id="a_Node000015"><a xlink:href="socket_8c.html#a176c72971ceb14a338d824d7a3bb0fac" target="_top" xlink:title=" ">
<polygon fill="white" stroke="#666666" points="790.62,-290.5 685.38,-290.5 685.38,-257 790.62,-257 790.62,-290.5"/>
<text text-anchor="start" x="693.38" y="-277" font-family="Helvetica,sans-Serif" font-size="10.00">vlcb_net_sock_list</text>
<text text-anchor="middle" x="738" y="-264.25" font-family="Helvetica,sans-Serif" font-size="10.00">_iter_HasNext</text>
</a>
</g>
</g>
<!-- Node2&#45;&gt;Node15 -->
<g id="edge22_Node000002_Node000015" class="edge">
<title>Node2&#45;&gt;Node15</title>
<g id="a_edge22_Node000002_Node000015"><a xlink:title=" ">
<path fill="none" stroke="#63b8ff" d="M214.05,-236.61C233.72,-244.65 261.73,-255.45 287,-262.75 430.91,-304.33 473.13,-316.37 622,-299.75 639.1,-297.84 657.38,-294.38 674.21,-290.59"/>
<polygon fill="#63b8ff" stroke="#63b8ff" points="674.62,-294.09 683.56,-288.42 673.03,-287.28 674.62,-294.09"/>
</a>
</g>
</g>
<!-- Node16 -->
<g id="Node000016" class="node">
<title>Node16</title>
<g id="a_Node000016"><a xlink:href="socket_8c.html#a81bef9c5afd9ccbb9d0a52b2ae1da9b2" target="_top" xlink:title=" ">
<polygon fill="white" stroke="#666666" points="596.88,-290.5 491.62,-290.5 491.62,-257 596.88,-257 596.88,-290.5"/>
<text text-anchor="start" x="499.62" y="-277" font-family="Helvetica,sans-Serif" font-size="10.00">vlcb_net_sock_list</text>
<text text-anchor="middle" x="544.25" y="-264.25" font-family="Helvetica,sans-Serif" font-size="10.00">_iter_Next</text>
</a>
</g>
</g>
<!-- Node2&#45;&gt;Node16 -->
<g id="edge23_Node000002_Node000016" class="edge">
<title>Node2&#45;&gt;Node16</title>
<g id="a_edge23_Node000002_Node000016"><a xlink:title=" ">
<path fill="none" stroke="#63b8ff" d="M239.7,-232.68C303.23,-241.27 411.52,-255.93 480.12,-265.21"/>
<polygon fill="#63b8ff" stroke="#63b8ff" points="479.32,-268.63 489.69,-266.5 480.25,-261.69 479.32,-268.63"/>
</a>
</g>
</g>
<!-- Node18 -->
<g id="Node000018" class="node">
<title>Node18</title>
<g id="a_Node000018"><a xlink:href="vlcb_8c.html#a4e4a44bda5ebfb3ee1340066623890ad" target="_top" xlink:title=" ">
<polygon fill="white" stroke="#666666" points="430.5,-134.5 287,-134.5 287,-101 430.5,-101 430.5,-134.5"/>
<text text-anchor="start" x="295" y="-121" font-family="Helvetica,sans-Serif" font-size="10.00">vlcb_net_pkt_ConstructErr</text>
<text text-anchor="middle" x="358.75" y="-108.25" font-family="Helvetica,sans-Serif" font-size="10.00">ToStr</text>
</a>
</g>
</g>
<!-- Node2&#45;&gt;Node18 -->
<g id="edge19_Node000002_Node000018" class="edge">
<title>Node2&#45;&gt;Node18</title>
<g id="a_edge19_Node000002_Node000018"><a xlink:title=" ">
<path fill="none" stroke="#63b8ff" d="M235.06,-214.94C240.75,-212.47 246.22,-209.45 251,-205.75 274.7,-187.41 264.28,-168.29 287,-148.75 290.55,-145.7 294.44,-142.91 298.52,-140.36"/>
<polygon fill="#63b8ff" stroke="#63b8ff" points="299.99,-143.54 306.98,-135.58 296.55,-137.45 299.99,-143.54"/>
</a>
</g>
</g>
<!-- Node19 -->
<g id="Node000019" class="node">
<title>Node19</title>
<g id="a_Node000019"><a xlink:href="vlcb_8c.html#a4f542a7ed4e87e0e5597469e99484180" target="_top" xlink:title=" ">
<polygon fill="white" stroke="#666666" points="411.38,-83.12 306.12,-83.12 306.12,-62.38 411.38,-62.38 411.38,-83.12"/>
<text text-anchor="middle" x="358.75" y="-69.62" font-family="Helvetica,sans-Serif" font-size="10.00">vlcb_net_pkt_New</text>
</a>
</g>
</g>
<!-- Node2&#45;&gt;Node19 -->
<g id="edge20_Node000002_Node000019" class="edge">
<title>Node2&#45;&gt;Node19</title>
<g id="a_edge20_Node000002_Node000019"><a xlink:title=" ">
<path fill="none" stroke="#63b8ff" d="M238.2,-214.95C242.91,-212.49 247.3,-209.46 251,-205.75 288.5,-168.11 248.62,-128.49 287,-91.75 289.58,-89.28 292.45,-87.12 295.51,-85.24"/>
<polygon fill="#63b8ff" stroke="#63b8ff" points="297.06,-88.37 304.46,-80.79 293.94,-82.11 297.06,-88.37"/>
</a>
</g>
</g>
<!-- Node4 -->
<g id="Node000004" class="node">
<title>Node4</title>
<g id="a_Node000004"><a xlink:href="iface__can__svc_8c.html#a39dbc9176a838580211b17ab57f3ecab" target="_top" xlink:title=" ">
<polygon fill="white" stroke="#666666" points="584.88,-406.12 503.62,-406.12 503.62,-385.38 584.88,-385.38 584.88,-406.12"/>
<text text-anchor="middle" x="544.25" y="-392.62" font-family="Helvetica,sans-Serif" font-size="10.00">ToggleUsedId</text>
</a>
</g>
</g>
<!-- Node3&#45;&gt;Node4 -->
<g id="edge3_Node000003_Node000004" class="edge">
<title>Node3&#45;&gt;Node4</title>
<g id="a_edge3_Node000003_Node000004"><a xlink:title=" ">
<path fill="none" stroke="#63b8ff" d="M421.87,-395.75C444.7,-395.75 470.27,-395.75 492.03,-395.75"/>
<polygon fill="#63b8ff" stroke="#63b8ff" points="491.84,-399.25 501.84,-395.75 491.84,-392.25 491.84,-399.25"/>
</a>
</g>
</g>
<!-- Node5&#45;&gt;Node4 -->
<g id="edge6_Node000005_Node000004" class="edge">
<title>Node5&#45;&gt;Node4</title>
<g id="a_edge6_Node000005_Node000004"><a xlink:title=" ">
<path fill="none" stroke="#63b8ff" d="M403.7,-366.09C430.36,-371.76 464.47,-379.01 492.3,-384.92"/>
<polygon fill="#63b8ff" stroke="#63b8ff" points="491.42,-388.31 501.93,-386.97 492.88,-381.47 491.42,-388.31"/>
</a>
</g>
</g>
<!-- Node6 -->
<g id="Node000006" class="node">
<title>Node6</title>
<g id="a_Node000006"><a xlink:href="iface__can__svc_8c.html#a9b6b01728115744f4674fc751a5919f5" target="_top" xlink:title=" ">
<polygon fill="white" stroke="#666666" points="586.75,-367.12 501.75,-367.12 501.75,-346.38 586.75,-346.38 586.75,-367.12"/>
<text text-anchor="middle" x="544.25" y="-353.62" font-family="Helvetica,sans-Serif" font-size="10.00">ResolveFreeId</text>
</a>
</g>
</g>
<!-- Node5&#45;&gt;Node6 -->
<g id="edge5_Node000005_Node000006" class="edge">
<title>Node5&#45;&gt;Node6</title>
<g id="a_edge5_Node000005_Node000006"><a xlink:title=" ">
<path fill="none" stroke="#63b8ff" d="M403.7,-356.75C429.68,-356.75 462.75,-356.75 490.18,-356.75"/>
<polygon fill="#63b8ff" stroke="#63b8ff" points="490.03,-360.25 500.03,-356.75 490.03,-353.25 490.03,-360.25"/>
</a>
</g>
</g>
<!-- Node8 -->
<g id="Node000008" class="node">
<title>Node8</title>
<g id="a_Node000008"><a xlink:href="socket_2datagram_8c.html#a61c95cabe20ca7a61ea528e4c70f1245" target="_top" xlink:title=" ">
<polygon fill="white" stroke="#666666" points="586.75,-72.12 501.75,-72.12 501.75,-51.38 586.75,-51.38 586.75,-72.12"/>
<text text-anchor="middle" x="544.25" y="-58.62" font-family="Helvetica,sans-Serif" font-size="10.00">ProcessPacket</text>
</a>
</g>
</g>
<!-- Node7&#45;&gt;Node8 -->
<g id="edge8_Node000007_Node000008" class="edge">
<title>Node7&#45;&gt;Node8</title>
<g id="a_edge8_Node000007_Node000008"><a xlink:title=" ">
<path fill="none" stroke="#63b8ff" d="M409.66,-190C417.29,-186.7 424.58,-182.38 430.5,-176.75 462.01,-146.77 434.63,-115.35 466.5,-85.75 473.34,-79.4 481.83,-74.73 490.66,-71.3"/>
<polygon fill="#63b8ff" stroke="#63b8ff" points="491.68,-74.65 500.06,-68.17 489.47,-68 491.68,-74.65"/>
</a>
</g>
</g>
<!-- Node12 -->
<g id="Node000012" class="node">
<title>Node12</title>
<g id="a_Node000012"><a xlink:href="socket_2datagram_8c.html#a97bab8fe9b6021439207f5bf70a2f2a3" target="_top" xlink:title=" ">
<polygon fill="white" stroke="#666666" points="593.5,-239.12 495,-239.12 495,-218.38 593.5,-218.38 593.5,-239.12"/>
<text text-anchor="middle" x="544.25" y="-225.62" font-family="Helvetica,sans-Serif" font-size="10.00">SupportsProtocol</text>
</a>
</g>
</g>
<!-- Node7&#45;&gt;Node12 -->
<g id="edge12_Node000007_Node000012" class="edge">
<title>Node7&#45;&gt;Node12</title>
<g id="a_edge12_Node000007_Node000012"><a xlink:title=" ">
<path fill="none" stroke="#63b8ff" d="M411.84,-208.7C434.24,-212.12 460.55,-216.13 483.72,-219.67"/>
<polygon fill="#63b8ff" stroke="#63b8ff" points="482.9,-223.08 493.31,-221.13 483.95,-216.16 482.9,-223.08"/>
</a>
</g>
</g>
<!-- Node13 -->
<g id="Node000013" class="node">
<title>Node13</title>
<g id="a_Node000013"><a xlink:href="vlcb_8c.html#a16634e516c94526e5bc818f75db5558c" target="_top" xlink:title=" ">
<polygon fill="white" stroke="#666666" points="622,-200.12 466.5,-200.12 466.5,-179.38 622,-179.38 622,-200.12"/>
<text text-anchor="middle" x="544.25" y="-186.62" font-family="Helvetica,sans-Serif" font-size="10.00">vlcb_net_pkt_DetectProtocol</text>
</a>
</g>
</g>
<!-- Node7&#45;&gt;Node13 -->
<g id="edge13_Node000007_Node000013" class="edge">
<title>Node7&#45;&gt;Node13</title>
<g id="a_edge13_Node000007_Node000013"><a xlink:title=" ">
<path fill="none" stroke="#63b8ff" d="M411.84,-197.63C425.27,-196.82 440.1,-195.93 454.81,-195.05"/>
<polygon fill="#63b8ff" stroke="#63b8ff" points="454.73,-198.56 464.5,-194.47 454.31,-191.58 454.73,-198.56"/>
</a>
</g>
</g>
<!-- Node7&#45;&gt;Node14 -->
<g id="edge14_Node000007_Node000014" class="edge">
<title>Node7&#45;&gt;Node14</title>
<g id="a_edge14_Node000007_Node000014"><a xlink:title=" ">
<path fill="none" stroke="#63b8ff" d="M411.66,-189.91C418.69,-186.62 425.27,-182.33 430.5,-176.75 472.67,-131.76 424.32,-87.73 466.5,-42.75 470.71,-38.26 475.72,-34.55 481.14,-31.47"/>
<polygon fill="#63b8ff" stroke="#63b8ff" points="482.39,-34.76 489.88,-27.26 479.35,-28.45 482.39,-34.76"/>
</a>
</g>
</g>
<!-- Node7&#45;&gt;Node15 -->
<g id="edge15_Node000007_Node000015" class="edge">
<title>Node7&#45;&gt;Node15</title>
<g id="a_edge15_Node000007_Node000015"><a xlink:title=" ">
<path fill="none" stroke="#63b8ff" d="M406.63,-189.95C415.12,-186.62 423.49,-182.32 430.5,-176.75 454.26,-157.88 439.99,-133.5 466.5,-118.75 526.9,-85.15 560.27,-87.68 622,-118.75 674.89,-145.37 709.56,-209.1 725.96,-246.02"/>
<polygon fill="#63b8ff" stroke="#63b8ff" points="722.72,-247.34 729.87,-255.15 729.15,-244.58 722.72,-247.34"/>
</a>
</g>
</g>
<!-- Node7&#45;&gt;Node16 -->
<g id="edge16_Node000007_Node000016" class="edge">
<title>Node7&#45;&gt;Node16</title>
<g id="a_edge16_Node000007_Node000016"><a xlink:title=" ">
<path fill="none" stroke="#63b8ff" d="M382.83,-211.62C404.28,-221.55 437.24,-236.38 466.5,-247.75 471.12,-249.55 475.93,-251.34 480.78,-253.1"/>
<polygon fill="#63b8ff" stroke="#63b8ff" points="479.4,-256.33 489.99,-256.38 481.74,-249.73 479.4,-256.33"/>
</a>
</g>
</g>
<!-- Node17 -->
<g id="Node000017" class="node">
<title>Node17</title>
<g id="a_Node000017"><a xlink:href="socket_8c.html#a8e1f8d2c6242378d1d4eda56527a4a26" target="_top" xlink:title=" ">
<polygon fill="white" stroke="#666666" points="614.88,-161.5 473.62,-161.5 473.62,-128 614.88,-128 614.88,-161.5"/>
<text text-anchor="start" x="481.62" y="-148" font-family="Helvetica,sans-Serif" font-size="10.00">vlcb_net_sock_ProcessErr</text>
<text text-anchor="middle" x="544.25" y="-135.25" font-family="Helvetica,sans-Serif" font-size="10.00">ToStr</text>
</a>
</g>
</g>
<!-- Node7&#45;&gt;Node17 -->
<g id="edge18_Node000007_Node000017" class="edge">
<title>Node7&#45;&gt;Node17</title>
<g id="a_edge18_Node000007_Node000017"><a xlink:title=" ">
<path fill="none" stroke="#63b8ff" d="M395.13,-189.95C418.12,-182.94 448.81,-173.57 476.29,-165.18"/>
<polygon fill="#63b8ff" stroke="#63b8ff" points="477.05,-168.61 485.59,-162.35 475.01,-161.92 477.05,-168.61"/>
</a>
</g>
</g>
<!-- Node9 -->
<g id="Node000009" class="node">
<title>Node9</title>
<g id="a_Node000009"><a xlink:href="addr_8h.html#a83d3f92953278599a373c60afe6806c6" target="_top" xlink:title=" ">
<polygon fill="white" stroke="#666666" points="818,-33.12 658,-33.12 658,-12.38 818,-12.38 818,-33.12"/>
<text text-anchor="middle" x="738" y="-19.62" font-family="Helvetica,sans-Serif" font-size="10.00">vlcb_net_IsWireEndpointValid</text>
</a>
</g>
</g>
<!-- Node8&#45;&gt;Node9 -->
<g id="edge9_Node000008_Node000009" class="edge">
<title>Node8&#45;&gt;Node9</title>
<g id="a_edge9_Node000008_Node000009"><a xlink:title=" ">
<path fill="none" stroke="#63b8ff" d="M586.86,-53.29C611.94,-48.19 644.42,-41.58 672.75,-35.82"/>
<polygon fill="#63b8ff" stroke="#63b8ff" points="673.2,-39.3 682.31,-33.87 671.81,-32.44 673.2,-39.3"/>
</a>
</g>
</g>
<!-- Node10 -->
<g id="Node000010" class="node">
<title>Node10</title>
<g id="a_Node000010"><a xlink:href="packet__buf_8c.html#afa80d4fb078473100610ba106bd5cb46" target="_top" xlink:title=" ">
<polygon fill="white" stroke="#666666" points="807.5,-111.12 668.5,-111.12 668.5,-90.38 807.5,-90.38 807.5,-111.12"/>
<text text-anchor="middle" x="738" y="-97.62" font-family="Helvetica,sans-Serif" font-size="10.00">vlcb_net_packetbuf_Push</text>
</a>
</g>
</g>
<!-- Node8&#45;&gt;Node10 -->
<g id="edge10_Node000008_Node000010" class="edge">
<title>Node8&#45;&gt;Node10</title>
<g id="a_edge10_Node000008_Node000010"><a xlink:title=" ">
<path fill="none" stroke="#63b8ff" d="M586.86,-70.21C611.94,-75.31 644.42,-81.92 672.75,-87.68"/>
<polygon fill="#63b8ff" stroke="#63b8ff" points="671.81,-91.06 682.31,-89.63 673.2,-84.2 671.81,-91.06"/>
</a>
</g>
</g>
<!-- Node11 -->
<g id="Node000011" class="node">
<title>Node11</title>
<g id="a_Node000011"><a xlink:href="packet_2datagram_8c.html#a965c07c3bd42101143dfbec7857547c2" target="_top" xlink:title=" ">
<polygon fill="white" stroke="#666666" points="809,-72.12 667,-72.12 667,-51.38 809,-51.38 809,-72.12"/>
<text text-anchor="middle" x="738" y="-58.62" font-family="Helvetica,sans-Serif" font-size="10.00">vlcb_net_pkt_dgram_New</text>
</a>
</g>
</g>
<!-- Node8&#45;&gt;Node11 -->
<g id="edge11_Node000008_Node000011" class="edge">
<title>Node8&#45;&gt;Node11</title>
<g id="a_edge11_Node000008_Node000011"><a xlink:title=" ">
<path fill="none" stroke="#63b8ff" d="M586.86,-61.75C606.92,-61.75 631.72,-61.75 655.34,-61.75"/>
<polygon fill="#63b8ff" stroke="#63b8ff" points="655.3,-65.25 665.3,-61.75 655.3,-58.25 655.3,-65.25"/>
</a>
</g>
</g>
<!-- Node16&#45;&gt;Node15 -->
<g id="edge17_Node000016_Node000015" class="edge">
<title>Node16&#45;&gt;Node15</title>
<g id="a_edge17_Node000016_Node000015"><a xlink:title=" ">
<path fill="none" stroke="#63b8ff" d="M597.14,-273.75C620.69,-273.75 648.77,-273.75 673.57,-273.75"/>
<polygon fill="#63b8ff" stroke="#63b8ff" points="673.55,-277.25 683.55,-273.75 673.55,-270.25 673.55,-277.25"/>
</a>
</g>
</g>
</g>
</svg>
