<?xml version="1.0" encoding="UTF-8" standalone="no"?>
<!DOCTYPE svg PUBLIC "-//W3C//DTD SVG 1.1//EN"
 "http://www.w3.org/Graphics/SVG/1.1/DTD/svg11.dtd">
<!-- Generated by graphviz version 12.1.2 (20240928.0832)
 -->
<!-- Title: iface_can.h Pages: 1 -->
<svg width="828pt" height="382pt"
 viewBox="0.00 0.00 828.24 382.00" xmlns="http://www.w3.org/2000/svg" xmlns:xlink="http://www.w3.org/1999/xlink">
<g id="graph0" class="graph" transform="scale(1 1) rotate(0) translate(4 378)">
<title>iface_can.h</title>
<!-- Node1 -->
<g id="Node000001" class="node">
<title>Node1</title>
<g id="a_Node000001"><a xlink:title=" ">
<polygon fill="#999999" stroke="#666666" points="373.5,-374 302,-374 302,-353.25 373.5,-353.25 373.5,-374"/>
<text text-anchor="middle" x="337.75" y="-360.5" font-family="Helvetica,sans-Serif" font-size="10.00">iface_can.h</text>
</a>
</g>
</g>
<!-- Node2 -->
<g id="Node000002" class="node">
<title>Node2</title>
<g id="a_Node000002"><a xlink:href="adapter_8h.html" target="_top" xlink:title=" ">
<polygon fill="white" stroke="#666666" points="456.63,-260.5 352.88,-260.5 352.88,-239.75 456.63,-239.75 456.63,-260.5"/>
<text text-anchor="middle" x="404.75" y="-247" font-family="Helvetica,sans-Serif" font-size="10.00">vlcb/net/adapter.h</text>
</a>
</g>
</g>
<!-- Node1&#45;&gt;Node2 -->
<g id="edge1_Node000001_Node000002" class="edge">
<title>Node1&#45;&gt;Node2</title>
<g id="a_edge1_Node000001_Node000002"><a xlink:title=" ">
<path fill="none" stroke="#63b8ff" d="M343.47,-353.12C354.39,-334.94 378.43,-294.92 392.95,-270.77"/>
<polygon fill="#63b8ff" stroke="#63b8ff" points="395.93,-272.6 398.09,-262.22 389.93,-268.99 395.93,-272.6"/>
</a>
</g>
</g>
<!-- Node14 -->
<g id="Node000014" class="node">
<title>Node14</title>
<g id="a_Node000014"><a xlink:href="iface_8h.html" target="_top" xlink:title=" ">
<polygon fill="white" stroke="#666666" points="346.25,-317.25 255.25,-317.25 255.25,-296.5 346.25,-296.5 346.25,-317.25"/>
<text text-anchor="middle" x="300.75" y="-303.75" font-family="Helvetica,sans-Serif" font-size="10.00">vlcb/net/iface.h</text>
</a>
</g>
</g>
<!-- Node1&#45;&gt;Node14 -->
<g id="edge20_Node000001_Node000014" class="edge">
<title>Node1&#45;&gt;Node14</title>
<g id="a_edge20_Node000001_Node000014"><a xlink:title=" ">
<path fill="none" stroke="#63b8ff" d="M331.14,-352.84C326.3,-345.67 319.57,-335.73 313.68,-327.01"/>
<polygon fill="#63b8ff" stroke="#63b8ff" points="316.66,-325.16 308.16,-318.83 310.86,-329.08 316.66,-325.16"/>
</a>
</g>
</g>
<!-- Node3 -->
<g id="Node000003" class="node">
<title>Node3</title>
<g id="a_Node000003"><a xlink:title=" ">
<polygon fill="#e0e0e0" stroke="#999999" points="667.13,-77.5 602.38,-77.5 602.38,-56.75 667.13,-56.75 667.13,-77.5"/>
<text text-anchor="middle" x="634.75" y="-64" font-family="Helvetica,sans-Serif" font-size="10.00">inttypes.h</text>
</a>
</g>
</g>
<!-- Node2&#45;&gt;Node3 -->
<g id="edge2_Node000002_Node000003" class="edge">
<title>Node2&#45;&gt;Node3</title>
<g id="a_edge2_Node000002_Node000003"><a xlink:title=" ">
<path fill="none" stroke="#63b8ff" d="M456.96,-248.09C527.68,-245.46 648.28,-236.2 675.75,-203.75 704.76,-169.49 671.58,-115.16 650.13,-86.78"/>
<polygon fill="#63b8ff" stroke="#63b8ff" points="653.02,-84.79 644.09,-79.09 647.51,-89.11 653.02,-84.79"/>
</a>
</g>
</g>
<!-- Node4 -->
<g id="Node000004" class="node">
<title>Node4</title>
<g id="a_Node000004"><a xlink:title=" ">
<polygon fill="#e0e0e0" stroke="#999999" points="250.25,-77.5 189.25,-77.5 189.25,-56.75 250.25,-56.75 250.25,-77.5"/>
<text text-anchor="middle" x="219.75" y="-64" font-family="Helvetica,sans-Serif" font-size="10.00">stdbool.h</text>
</a>
</g>
</g>
<!-- Node2&#45;&gt;Node4 -->
<g id="edge3_Node000002_Node000004" class="edge">
<title>Node2&#45;&gt;Node4</title>
<g id="a_edge3_Node000002_Node000004"><a xlink:title=" ">
<path fill="none" stroke="#63b8ff" d="M402.02,-239.25C397.11,-223.09 385.44,-190.74 365.75,-170.25 342.61,-146.15 327.42,-152.98 299.75,-134.25 277.55,-119.22 254.13,-99.32 238.41,-85.29"/>
<polygon fill="#63b8ff" stroke="#63b8ff" points="241,-82.92 231.23,-78.81 236.31,-88.11 241,-82.92"/>
</a>
</g>
</g>
<!-- Node5 -->
<g id="Node000005" class="node">
<title>Node5</title>
<g id="a_Node000005"><a xlink:href="error_8h.html" target="_top" xlink:title=" ">
<polygon fill="white" stroke="#666666" points="424.63,-134.25 308.88,-134.25 308.88,-113.5 424.63,-113.5 424.63,-134.25"/>
<text text-anchor="middle" x="366.75" y="-120.75" font-family="Helvetica,sans-Serif" font-size="10.00">vlcb/platform/error.h</text>
</a>
</g>
</g>
<!-- Node2&#45;&gt;Node5 -->
<g id="edge4_Node000002_Node000005" class="edge">
<title>Node2&#45;&gt;Node5</title>
<g id="a_edge4_Node000002_Node000005"><a xlink:title=" ">
<path fill="none" stroke="#63b8ff" d="M405.64,-239.31C406.67,-224.04 407.25,-193.9 398.75,-170.25 395.27,-160.56 389.12,-151.05 383.13,-143.26"/>
<polygon fill="#63b8ff" stroke="#63b8ff" points="385.88,-141.09 376.82,-135.6 380.48,-145.54 385.88,-141.09"/>
</a>
</g>
</g>
<!-- Node6 -->
<g id="Node000006" class="node">
<title>Node6</title>
<g id="a_Node000006"><a xlink:href="interface_8h.html" target="_top" xlink:title=" ">
<polygon fill="white" stroke="#666666" points="357.13,-197.38 220.38,-197.38 220.38,-176.62 357.13,-176.62 357.13,-197.38"/>
<text text-anchor="middle" x="288.75" y="-183.88" font-family="Helvetica,sans-Serif" font-size="10.00">vlcb/platform/interface.h</text>
</a>
</g>
</g>
<!-- Node2&#45;&gt;Node6 -->
<g id="edge5_Node000002_Node000006" class="edge">
<title>Node2&#45;&gt;Node6</title>
<g id="a_edge5_Node000002_Node000006"><a xlink:title=" ">
<path fill="none" stroke="#63b8ff" d="M386.12,-239.3C367.6,-229.55 338.94,-214.45 317.51,-203.15"/>
<polygon fill="#63b8ff" stroke="#63b8ff" points="319.16,-200.07 308.68,-198.5 315.9,-206.26 319.16,-200.07"/>
</a>
</g>
</g>
<!-- Node8 -->
<g id="Node000008" class="node">
<title>Node8</title>
<g id="a_Node000008"><a xlink:href="packet_8h.html" target="_top" xlink:title=" ">
<polygon fill="white" stroke="#666666" points="666.75,-197.38 548.75,-197.38 548.75,-176.62 666.75,-176.62 666.75,-197.38"/>
<text text-anchor="middle" x="607.75" y="-183.88" font-family="Helvetica,sans-Serif" font-size="10.00">adapter/can/packet.h</text>
</a>
</g>
</g>
<!-- Node2&#45;&gt;Node8 -->
<g id="edge7_Node000002_Node000008" class="edge">
<title>Node2&#45;&gt;Node8</title>
<g id="a_edge7_Node000002_Node000008"><a xlink:title=" ">
<path fill="none" stroke="#63b8ff" d="M437.37,-239.3C471.85,-228.92 526.4,-212.49 564.47,-201.03"/>
<polygon fill="#63b8ff" stroke="#63b8ff" points="565.2,-204.47 573.77,-198.23 563.19,-197.76 565.2,-204.47"/>
</a>
</g>
</g>
<!-- Node12 -->
<g id="Node000012" class="node">
<title>Node12</title>
<g id="a_Node000012"><a xlink:href="addr_8h.html" target="_top" xlink:title=" ">
<polygon fill="white" stroke="#666666" points="811.75,-197.38 723.75,-197.38 723.75,-176.62 811.75,-176.62 811.75,-197.38"/>
<text text-anchor="middle" x="767.75" y="-183.88" font-family="Helvetica,sans-Serif" font-size="10.00">vlcb/net/addr.h</text>
</a>
</g>
</g>
<!-- Node2&#45;&gt;Node12 -->
<g id="edge15_Node000002_Node000012" class="edge">
<title>Node2&#45;&gt;Node12</title>
<g id="a_edge15_Node000002_Node000012"><a xlink:title=" ">
<path fill="none" stroke="#63b8ff" d="M456.89,-243.26C517.88,-235.96 621.73,-222.18 709.75,-203.75 714.11,-202.84 718.62,-201.79 723.12,-200.68"/>
<polygon fill="#63b8ff" stroke="#63b8ff" points="723.9,-204.1 732.71,-198.21 722.16,-197.32 723.9,-204.1"/>
</a>
</g>
</g>
<!-- Node7 -->
<g id="Node000007" class="node">
<title>Node7</title>
<g id="a_Node000007"><a xlink:title=" ">
<polygon fill="#e0e0e0" stroke="#999999" points="221.25,-134.25 166.25,-134.25 166.25,-113.5 221.25,-113.5 221.25,-134.25"/>
<text text-anchor="middle" x="193.75" y="-120.75" font-family="Helvetica,sans-Serif" font-size="10.00">stddef.h</text>
</a>
</g>
</g>
<!-- Node6&#45;&gt;Node7 -->
<g id="edge6_Node000006_Node000007" class="edge">
<title>Node6&#45;&gt;Node7</title>
<g id="a_edge6_Node000006_Node000007"><a xlink:title=" ">
<path fill="none" stroke="#63b8ff" d="M273.49,-176.18C258.67,-166.64 235.92,-152.01 218.51,-140.81"/>
<polygon fill="#63b8ff" stroke="#63b8ff" points="220.56,-137.96 210.25,-135.49 216.77,-143.84 220.56,-137.96"/>
</a>
</g>
</g>
<!-- Node8&#45;&gt;Node4 -->
<g id="edge8_Node000008_Node000004" class="edge">
<title>Node8&#45;&gt;Node4</title>
<g id="a_edge8_Node000008_Node000004"><a xlink:title=" ">
<path fill="none" stroke="#63b8ff" d="M587.59,-176.14C555.63,-160.86 491.09,-131.35 433.75,-113.5 375.29,-95.3 305.59,-82.03 261.99,-74.69"/>
<polygon fill="#63b8ff" stroke="#63b8ff" points="262.62,-71.25 252.18,-73.07 261.48,-78.16 262.62,-71.25"/>
</a>
</g>
</g>
<!-- Node9 -->
<g id="Node000009" class="node">
<title>Node9</title>
<g id="a_Node000009"><a xlink:href="common_2inc_2vlcb_2common_2can_8h.html" target="_top" xlink:title=" ">
<polygon fill="white" stroke="#666666" points="630.38,-134.25 519.13,-134.25 519.13,-113.5 630.38,-113.5 630.38,-134.25"/>
<text text-anchor="middle" x="574.75" y="-120.75" font-family="Helvetica,sans-Serif" font-size="10.00">vlcb/common/can.h</text>
</a>
</g>
</g>
<!-- Node8&#45;&gt;Node9 -->
<g id="edge9_Node000008_Node000009" class="edge">
<title>Node8&#45;&gt;Node9</title>
<g id="a_edge9_Node000008_Node000009"><a xlink:title=" ">
<path fill="none" stroke="#63b8ff" d="M602.45,-176.18C597.85,-167.66 591.06,-155.08 585.35,-144.51"/>
<polygon fill="#63b8ff" stroke="#63b8ff" points="588.48,-142.94 580.65,-135.8 582.32,-146.26 588.48,-142.94"/>
</a>
</g>
</g>
<!-- Node9&#45;&gt;Node3 -->
<g id="edge10_Node000009_Node000003" class="edge">
<title>Node9&#45;&gt;Node3</title>
<g id="a_edge10_Node000009_Node000003"><a xlink:title=" ">
<path fill="none" stroke="#63b8ff" d="M585.48,-113.09C593.84,-105.46 605.67,-94.67 615.64,-85.57"/>
<polygon fill="#63b8ff" stroke="#63b8ff" points="617.97,-88.17 623,-78.85 613.26,-83 617.97,-88.17"/>
</a>
</g>
</g>
<!-- Node9&#45;&gt;Node4 -->
<g id="edge11_Node000009_Node000004" class="edge">
<title>Node9&#45;&gt;Node4</title>
<g id="a_edge11_Node000009_Node000004"><a xlink:title=" ">
<path fill="none" stroke="#63b8ff" d="M518.89,-114.26C447.57,-103.26 325.77,-84.47 261.81,-74.61"/>
<polygon fill="#63b8ff" stroke="#63b8ff" points="262.47,-71.17 252.06,-73.11 261.41,-78.09 262.47,-71.17"/>
</a>
</g>
</g>
<!-- Node10 -->
<g id="Node000010" class="node">
<title>Node10</title>
<g id="a_Node000010"><a xlink:title=" ">
<polygon fill="#e0e0e0" stroke="#999999" points="601.13,-20.75 548.38,-20.75 548.38,0 601.13,0 601.13,-20.75"/>
<text text-anchor="middle" x="574.75" y="-7.25" font-family="Helvetica,sans-Serif" font-size="10.00">stdint.h</text>
</a>
</g>
</g>
<!-- Node9&#45;&gt;Node10 -->
<g id="edge12_Node000009_Node000010" class="edge">
<title>Node9&#45;&gt;Node10</title>
<g id="a_edge12_Node000009_Node000010"><a xlink:title=" ">
<path fill="none" stroke="#63b8ff" d="M574.75,-113.37C574.75,-95.6 574.75,-56.97 574.75,-32.68"/>
<polygon fill="#63b8ff" stroke="#63b8ff" points="578.25,-32.69 574.75,-22.69 571.25,-32.69 578.25,-32.69"/>
</a>
</g>
</g>
<!-- Node11 -->
<g id="Node000011" class="node">
<title>Node11</title>
<g id="a_Node000011"><a xlink:href="opcode_8h.html" target="_top" xlink:title=" ">
<polygon fill="white" stroke="#666666" points="546.88,-77.5 486.63,-77.5 486.63,-56.75 546.88,-56.75 546.88,-77.5"/>
<text text-anchor="middle" x="516.75" y="-64" font-family="Helvetica,sans-Serif" font-size="10.00">opcode.h</text>
</a>
</g>
</g>
<!-- Node9&#45;&gt;Node11 -->
<g id="edge13_Node000009_Node000011" class="edge">
<title>Node9&#45;&gt;Node11</title>
<g id="a_edge13_Node000009_Node000011"><a xlink:title=" ">
<path fill="none" stroke="#63b8ff" d="M564.38,-113.09C556.3,-105.46 544.87,-94.67 535.23,-85.57"/>
<polygon fill="#63b8ff" stroke="#63b8ff" points="537.81,-83.19 528.13,-78.87 533,-88.28 537.81,-83.19"/>
</a>
</g>
</g>
<!-- Node11&#45;&gt;Node10 -->
<g id="edge14_Node000011_Node000010" class="edge">
<title>Node11&#45;&gt;Node10</title>
<g id="a_edge14_Node000011_Node000010"><a xlink:title=" ">
<path fill="none" stroke="#63b8ff" d="M527.12,-56.34C535.21,-48.71 546.64,-37.92 556.27,-28.82"/>
<polygon fill="#63b8ff" stroke="#63b8ff" points="558.5,-31.53 563.37,-22.12 553.7,-26.44 558.5,-31.53"/>
</a>
</g>
</g>
<!-- Node12&#45;&gt;Node9 -->
<g id="edge16_Node000012_Node000009" class="edge">
<title>Node12&#45;&gt;Node9</title>
<g id="a_edge16_Node000012_Node000009"><a xlink:title=" ">
<path fill="none" stroke="#63b8ff" d="M736.74,-176.18C704.11,-165.84 652.54,-149.51 616.38,-138.06"/>
<polygon fill="#63b8ff" stroke="#63b8ff" points="617.72,-134.81 607.13,-135.13 615.6,-141.48 617.72,-134.81"/>
</a>
</g>
</g>
<!-- Node12&#45;&gt;Node10 -->
<g id="edge19_Node000012_Node000010" class="edge">
<title>Node12&#45;&gt;Node10</title>
<g id="a_edge19_Node000012_Node000010"><a xlink:title=" ">
<path fill="none" stroke="#63b8ff" d="M776.33,-176.42C795.97,-153.32 840.24,-93.69 809.75,-56.75 785.2,-27.01 672.7,-16.54 612.7,-13.03"/>
<polygon fill="#63b8ff" stroke="#63b8ff" points="613.13,-9.55 602.95,-12.5 612.75,-16.54 613.13,-9.55"/>
</a>
</g>
</g>
<!-- Node13 -->
<g id="Node000013" class="node">
<title>Node13</title>
<g id="a_Node000013"><a xlink:href="time_8h.html" target="_top" xlink:title=" ">
<polygon fill="white" stroke="#666666" points="800.63,-77.5 684.88,-77.5 684.88,-56.75 800.63,-56.75 800.63,-77.5"/>
<text text-anchor="middle" x="742.75" y="-64" font-family="Helvetica,sans-Serif" font-size="10.00">vlcb/platform/time.h</text>
</a>
</g>
</g>
<!-- Node12&#45;&gt;Node13 -->
<g id="edge17_Node000012_Node000013" class="edge">
<title>Node12&#45;&gt;Node13</title>
<g id="a_edge17_Node000012_Node000013"><a xlink:title=" ">
<path fill="none" stroke="#63b8ff" d="M765.71,-176.35C761.68,-157.36 752.64,-114.72 747.18,-89"/>
<polygon fill="#63b8ff" stroke="#63b8ff" points="750.64,-88.44 745.14,-79.39 743.79,-89.89 750.64,-88.44"/>
</a>
</g>
</g>
<!-- Node13&#45;&gt;Node10 -->
<g id="edge18_Node000013_Node000010" class="edge">
<title>Node13&#45;&gt;Node10</title>
<g id="a_edge18_Node000013_Node000010"><a xlink:title=" ">
<path fill="none" stroke="#63b8ff" d="M712.72,-56.34C684.56,-47.16 642.37,-33.41 612.06,-23.53"/>
<polygon fill="#63b8ff" stroke="#63b8ff" points="613.51,-20.33 602.92,-20.55 611.34,-26.98 613.51,-20.33"/>
</a>
</g>
</g>
<!-- Node14&#45;&gt;Node2 -->
<g id="edge22_Node000014_Node000002" class="edge">
<title>Node14&#45;&gt;Node2</title>
<g id="a_edge22_Node000014_Node000002"><a xlink:title=" ">
<path fill="none" stroke="#63b8ff" d="M319.35,-296.09C335.17,-287.76 358.15,-275.66 376.29,-266.11"/>
<polygon fill="#63b8ff" stroke="#63b8ff" points="377.76,-269.29 384.98,-261.53 374.5,-263.09 377.76,-269.29"/>
</a>
</g>
</g>
<!-- Node14&#45;&gt;Node4 -->
<g id="edge21_Node000014_Node000004" class="edge">
<title>Node14&#45;&gt;Node4</title>
<g id="a_edge21_Node000014_Node000004"><a xlink:title=" ">
<path fill="none" stroke="#63b8ff" d="M254.76,-305C188.1,-300.95 66.51,-282.49 10.75,-203.75 -13.67,-169.25 7.53,-139.63 40.75,-113.5 80.23,-82.45 138.43,-72.41 177.65,-69.3"/>
<polygon fill="#63b8ff" stroke="#63b8ff" points="177.66,-72.8 187.41,-68.65 177.2,-65.82 177.66,-72.8"/>
</a>
</g>
</g>
<!-- Node15 -->
<g id="Node000015" class="node">
<title>Node15</title>
<g id="a_Node000015"><a xlink:href="socket_8h.html" target="_top" xlink:title=" ">
<polygon fill="white" stroke="#666666" points="317,-260.5 260.5,-260.5 260.5,-239.75 317,-239.75 317,-260.5"/>
<text text-anchor="middle" x="288.75" y="-247" font-family="Helvetica,sans-Serif" font-size="10.00">socket.h</text>
</a>
</g>
</g>
<!-- Node14&#45;&gt;Node15 -->
<g id="edge23_Node000014_Node000015" class="edge">
<title>Node14&#45;&gt;Node15</title>
<g id="a_edge23_Node000014_Node000015"><a xlink:title=" ">
<path fill="none" stroke="#63b8ff" d="M298.61,-296.09C297.14,-289.39 295.14,-280.26 293.32,-271.98"/>
<polygon fill="#63b8ff" stroke="#63b8ff" points="296.76,-271.33 291.2,-262.31 289.93,-272.82 296.76,-271.33"/>
</a>
</g>
</g>
<!-- Node15&#45;&gt;Node4 -->
<g id="edge24_Node000015_Node000004" class="edge">
<title>Node15&#45;&gt;Node4</title>
<g id="a_edge24_Node000015_Node000004"><a xlink:title=" ">
<path fill="none" stroke="#63b8ff" d="M260.33,-248.64C198.62,-246.91 55.53,-239.1 25.75,-203.75 -24.63,-143.93 107.12,-98.1 178.05,-78.51"/>
<polygon fill="#63b8ff" stroke="#63b8ff" points="178.66,-81.97 187.41,-75.99 176.84,-75.21 178.66,-81.97"/>
</a>
</g>
</g>
<!-- Node15&#45;&gt;Node6 -->
<g id="edge35_Node000015_Node000006" class="edge">
<title>Node15&#45;&gt;Node6</title>
<g id="a_edge35_Node000015_Node000006"><a xlink:title=" ">
<path fill="none" stroke="#63b8ff" d="M288.75,-239.3C288.75,-231.15 288.75,-219.26 288.75,-208.98"/>
<polygon fill="#63b8ff" stroke="#63b8ff" points="292.25,-209.11 288.75,-199.11 285.25,-209.11 292.25,-209.11"/>
</a>
</g>
</g>
<!-- Node15&#45;&gt;Node7 -->
<g id="edge25_Node000015_Node000007" class="edge">
<title>Node15&#45;&gt;Node7</title>
<g id="a_edge25_Node000015_Node000007"><a xlink:title=" ">
<path fill="none" stroke="#63b8ff" d="M260.94,-239.3C244.24,-232.01 223.93,-220.41 211.75,-203.75 199.47,-186.94 195.37,-163.16 194.1,-146.11"/>
<polygon fill="#63b8ff" stroke="#63b8ff" points="197.6,-145.96 193.66,-136.12 190.61,-146.27 197.6,-145.96"/>
</a>
</g>
</g>
<!-- Node15&#45;&gt;Node12 -->
<g id="edge30_Node000015_Node000012" class="edge">
<title>Node15&#45;&gt;Node12</title>
<g id="a_edge30_Node000015_Node000012"><a xlink:title=" ">
<path fill="none" stroke="#63b8ff" d="M317.25,-243.93C325.76,-242.47 335.12,-240.95 343.75,-239.75 490.75,-219.27 528.76,-224.28 675.75,-203.75 687.55,-202.1 700.16,-200.1 712.14,-198.09"/>
<polygon fill="#63b8ff" stroke="#63b8ff" points="712.63,-201.56 721.89,-196.42 711.45,-194.66 712.63,-201.56"/>
</a>
</g>
</g>
<!-- Node16 -->
<g id="Node000016" class="node">
<title>Node16</title>
<g id="a_Node000016"><a xlink:href="vlcb_8h.html" target="_top" xlink:title=" ">
<polygon fill="white" stroke="#666666" points="531,-197.38 450.5,-197.38 450.5,-176.62 531,-176.62 531,-197.38"/>
<text text-anchor="middle" x="490.75" y="-183.88" font-family="Helvetica,sans-Serif" font-size="10.00">packet/vlcb.h</text>
</a>
</g>
</g>
<!-- Node15&#45;&gt;Node16 -->
<g id="edge26_Node000015_Node000016" class="edge">
<title>Node15&#45;&gt;Node16</title>
<g id="a_edge26_Node000015_Node000016"><a xlink:title=" ">
<path fill="none" stroke="#63b8ff" d="M317.27,-240.5C351.19,-230.23 408.18,-212.99 447.53,-201.08"/>
<polygon fill="#63b8ff" stroke="#63b8ff" points="448.37,-204.48 456.93,-198.24 446.34,-197.78 448.37,-204.48"/>
</a>
</g>
</g>
<!-- Node17 -->
<g id="Node000017" class="node">
<title>Node17</title>
<g id="a_Node000017"><a xlink:href="packet__buf_8h.html" target="_top" xlink:title=" ">
<polygon fill="white" stroke="#666666" points="164.75,-203.75 34.75,-203.75 34.75,-170.25 164.75,-170.25 164.75,-203.75"/>
<text text-anchor="start" x="42.75" y="-190.25" font-family="Helvetica,sans-Serif" font-size="10.00">vlcb/net/storage/packet</text>
<text text-anchor="middle" x="99.75" y="-177.5" font-family="Helvetica,sans-Serif" font-size="10.00">_buf.h</text>
</a>
</g>
</g>
<!-- Node15&#45;&gt;Node17 -->
<g id="edge31_Node000015_Node000017" class="edge">
<title>Node15&#45;&gt;Node17</title>
<g id="a_edge31_Node000015_Node000017"><a xlink:title=" ">
<path fill="none" stroke="#63b8ff" d="M260.05,-239.84C233.68,-231.31 193.74,-218.4 160.32,-207.59"/>
<polygon fill="#63b8ff" stroke="#63b8ff" points="161.76,-204.38 151.17,-204.63 159.61,-211.04 161.76,-204.38"/>
</a>
</g>
</g>
<!-- Node16&#45;&gt;Node3 -->
<g id="edge27_Node000016_Node000003" class="edge">
<title>Node16&#45;&gt;Node3</title>
<g id="a_edge27_Node000016_Node000003"><a xlink:title=" ">
<path fill="none" stroke="#63b8ff" d="M520.45,-176.16C563.4,-161.87 637.95,-136.79 639.75,-134.25 649.14,-121.06 646.7,-102.41 642.6,-88.27"/>
<polygon fill="#63b8ff" stroke="#63b8ff" points="646.02,-87.45 639.48,-79.12 639.4,-89.71 646.02,-87.45"/>
</a>
</g>
</g>
<!-- Node16&#45;&gt;Node5 -->
<g id="edge29_Node000016_Node000005" class="edge">
<title>Node16&#45;&gt;Node5</title>
<g id="a_edge29_Node000016_Node000005"><a xlink:title=" ">
<path fill="none" stroke="#63b8ff" d="M470.83,-176.18C450.85,-166.33 419.84,-151.05 396.86,-139.72"/>
<polygon fill="#63b8ff" stroke="#63b8ff" points="398.5,-136.62 387.98,-135.34 395.41,-142.9 398.5,-136.62"/>
</a>
</g>
</g>
<!-- Node16&#45;&gt;Node11 -->
<g id="edge28_Node000016_Node000011" class="edge">
<title>Node16&#45;&gt;Node11</title>
<g id="a_edge28_Node000016_Node000011"><a xlink:title=" ">
<path fill="none" stroke="#63b8ff" d="M492.88,-176.35C497.07,-157.36 506.48,-114.72 512.15,-89"/>
<polygon fill="#63b8ff" stroke="#63b8ff" points="515.53,-89.9 514.27,-79.38 508.7,-88.39 515.53,-89.9"/>
</a>
</g>
</g>
<!-- Node17&#45;&gt;Node4 -->
<g id="edge32_Node000017_Node000004" class="edge">
<title>Node17&#45;&gt;Node4</title>
<g id="a_edge32_Node000017_Node000004"><a xlink:title=" ">
<path fill="none" stroke="#63b8ff" d="M110.39,-169.96C121.06,-154.52 138.49,-131.01 156.75,-113.5 168.08,-102.64 182.13,-92.28 194.09,-84.2"/>
<polygon fill="#63b8ff" stroke="#63b8ff" points="195.83,-87.24 202.27,-78.83 191.99,-81.39 195.83,-87.24"/>
</a>
</g>
</g>
<!-- Node17&#45;&gt;Node7 -->
<g id="edge33_Node000017_Node000007" class="edge">
<title>Node17&#45;&gt;Node7</title>
<g id="a_edge33_Node000017_Node000007"><a xlink:title=" ">
<path fill="none" stroke="#63b8ff" d="M124.45,-169.94C138.28,-160.95 155.47,-149.77 169.27,-140.8"/>
<polygon fill="#63b8ff" stroke="#63b8ff" points="170.87,-143.93 177.35,-135.54 167.06,-138.06 170.87,-143.93"/>
</a>
</g>
</g>
<!-- Node17&#45;&gt;Node10 -->
<g id="edge34_Node000017_Node000010" class="edge">
<title>Node17&#45;&gt;Node10</title>
<g id="a_edge34_Node000017_Node000010"><a xlink:title=" ">
<path fill="none" stroke="#63b8ff" d="M104.06,-169.92C112.78,-141.01 135.57,-81 179.75,-56.75 240.65,-23.32 449.98,-14.41 536.68,-12.13"/>
<polygon fill="#63b8ff" stroke="#63b8ff" points="536.65,-15.63 546.56,-11.88 536.47,-8.63 536.65,-15.63"/>
</a>
</g>
</g>
</g>
</svg>
