<?xml version="1.0" encoding="UTF-8" standalone="no"?>
<!DOCTYPE svg PUBLIC "-//W3C//DTD SVG 1.1//EN"
 "http://www.w3.org/Graphics/SVG/1.1/DTD/svg11.dtd">
<!-- Generated by graphviz version 12.1.2 (20240928.0832)
 -->
<!-- Title: iface_can.h Pages: 1 -->
<svg width="663pt" height="369pt"
 viewBox="0.00 0.00 663.49 369.25" xmlns="http://www.w3.org/2000/svg" xmlns:xlink="http://www.w3.org/1999/xlink">
<g id="graph0" class="graph" transform="scale(1 1) rotate(0) translate(4 365.25)">
<title>iface_can.h</title>
<!-- Node1 -->
<g id="Node000001" class="node">
<title>Node1</title>
<g id="a_Node000001"><a xlink:title=" ">
<polygon fill="#999999" stroke="#666666" points="376.99,-361.25 305.49,-361.25 305.49,-340.5 376.99,-340.5 376.99,-361.25"/>
<text text-anchor="middle" x="341.24" y="-347.75" font-family="Helvetica,sans-Serif" font-size="10.00">iface_can.h</text>
</a>
</g>
</g>
<!-- Node2 -->
<g id="Node000002" class="node">
<title>Node2</title>
<g id="a_Node000002"><a xlink:href="adapter_8h.html" target="_top" xlink:title=" ">
<polygon fill="white" stroke="#666666" points="326.11,-247.75 222.36,-247.75 222.36,-227 326.11,-227 326.11,-247.75"/>
<text text-anchor="middle" x="274.24" y="-234.25" font-family="Helvetica,sans-Serif" font-size="10.00">vlcb/net/adapter.h</text>
</a>
</g>
</g>
<!-- Node1&#45;&gt;Node2 -->
<g id="edge1_Node000001_Node000002" class="edge">
<title>Node1&#45;&gt;Node2</title>
<g id="a_edge1_Node000001_Node000002"><a xlink:title=" ">
<path fill="none" stroke="#63b8ff" d="M340.1,-340.26C338.16,-326.79 333.29,-301.91 322.24,-283.75 315.62,-272.88 305.72,-262.9 296.62,-255.09"/>
<polygon fill="#63b8ff" stroke="#63b8ff" points="299.09,-252.59 289.12,-249 294.68,-258.02 299.09,-252.59"/>
</a>
</g>
</g>
<!-- Node13 -->
<g id="Node000013" class="node">
<title>Node13</title>
<g id="a_Node000013"><a xlink:href="iface_8h.html" target="_top" xlink:title=" ">
<polygon fill="white" stroke="#666666" points="312.74,-304.5 221.74,-304.5 221.74,-283.75 312.74,-283.75 312.74,-304.5"/>
<text text-anchor="middle" x="267.24" y="-291" font-family="Helvetica,sans-Serif" font-size="10.00">vlcb/net/iface.h</text>
</a>
</g>
</g>
<!-- Node1&#45;&gt;Node13 -->
<g id="edge17_Node000001_Node000013" class="edge">
<title>Node1&#45;&gt;Node13</title>
<g id="a_edge17_Node000001_Node000013"><a xlink:title=" ">
<path fill="none" stroke="#63b8ff" d="M328.01,-340.09C317.27,-332.15 301.91,-320.78 289.32,-311.46"/>
<polygon fill="#63b8ff" stroke="#63b8ff" points="291.69,-308.86 281.57,-305.73 287.53,-314.49 291.69,-308.86"/>
</a>
</g>
</g>
<!-- Node14 -->
<g id="Node000014" class="node">
<title>Node14</title>
<g id="a_Node000014"><a xlink:href="socket_8h.html" target="_top" xlink:title=" ">
<polygon fill="white" stroke="#666666" points="407.49,-247.75 350.99,-247.75 350.99,-227 407.49,-227 407.49,-247.75"/>
<text text-anchor="middle" x="379.24" y="-234.25" font-family="Helvetica,sans-Serif" font-size="10.00">socket.h</text>
</a>
</g>
</g>
<!-- Node1&#45;&gt;Node14 -->
<g id="edge29_Node000001_Node000014" class="edge">
<title>Node1&#45;&gt;Node14</title>
<g id="a_edge29_Node000001_Node000014"><a xlink:title=" ">
<path fill="none" stroke="#63b8ff" d="M344.48,-340.37C350.59,-322.44 363.94,-283.25 372.21,-259.01"/>
<polygon fill="#63b8ff" stroke="#63b8ff" points="375.5,-260.2 375.41,-249.61 368.87,-257.94 375.5,-260.2"/>
</a>
</g>
</g>
<!-- Node3 -->
<g id="Node000003" class="node">
<title>Node3</title>
<g id="a_Node000003"><a xlink:title=" ">
<polygon fill="#e0e0e0" stroke="#999999" points="317.61,-77.5 252.86,-77.5 252.86,-56.75 317.61,-56.75 317.61,-77.5"/>
<text text-anchor="middle" x="285.24" y="-64" font-family="Helvetica,sans-Serif" font-size="10.00">inttypes.h</text>
</a>
</g>
</g>
<!-- Node2&#45;&gt;Node3 -->
<g id="edge2_Node000002_Node000003" class="edge">
<title>Node2&#45;&gt;Node3</title>
<g id="a_edge2_Node000002_Node000003"><a xlink:title=" ">
<path fill="none" stroke="#63b8ff" d="M274.86,-226.85C276.58,-200.48 281.45,-126.08 283.85,-89.28"/>
<polygon fill="#63b8ff" stroke="#63b8ff" points="287.34,-89.68 284.5,-79.48 280.35,-89.23 287.34,-89.68"/>
</a>
</g>
</g>
<!-- Node4 -->
<g id="Node000004" class="node">
<title>Node4</title>
<g id="a_Node000004"><a xlink:title=" ">
<polygon fill="#e0e0e0" stroke="#999999" points="115.74,-77.5 54.74,-77.5 54.74,-56.75 115.74,-56.75 115.74,-77.5"/>
<text text-anchor="middle" x="85.24" y="-64" font-family="Helvetica,sans-Serif" font-size="10.00">stdbool.h</text>
</a>
</g>
</g>
<!-- Node2&#45;&gt;Node4 -->
<g id="edge3_Node000002_Node000004" class="edge">
<title>Node2&#45;&gt;Node4</title>
<g id="a_edge3_Node000002_Node000004"><a xlink:title=" ">
<path fill="none" stroke="#63b8ff" d="M222.05,-234.75C154.87,-231.44 43.72,-221.4 18.24,-191 -9.93,-157.4 34.91,-110.11 63.83,-85.13"/>
<polygon fill="#63b8ff" stroke="#63b8ff" points="65.95,-87.91 71.38,-78.82 61.46,-82.54 65.95,-87.91"/>
</a>
</g>
</g>
<!-- Node5 -->
<g id="Node000005" class="node">
<title>Node5</title>
<g id="a_Node000005"><a xlink:href="error_8h.html" target="_top" xlink:title=" ">
<polygon fill="white" stroke="#666666" points="558.11,-134.25 442.36,-134.25 442.36,-113.5 558.11,-113.5 558.11,-134.25"/>
<text text-anchor="middle" x="500.24" y="-120.75" font-family="Helvetica,sans-Serif" font-size="10.00">vlcb/platform/error.h</text>
</a>
</g>
</g>
<!-- Node2&#45;&gt;Node5 -->
<g id="edge4_Node000002_Node000005" class="edge">
<title>Node2&#45;&gt;Node5</title>
<g id="a_edge4_Node000002_Node000005"><a xlink:title=" ">
<path fill="none" stroke="#63b8ff" d="M326.38,-227.16C371.24,-218.5 431.85,-204.83 452.24,-191 469.43,-179.33 482.66,-159.37 490.84,-144.43"/>
<polygon fill="#63b8ff" stroke="#63b8ff" points="493.73,-146.46 495.19,-135.97 487.5,-143.26 493.73,-146.46"/>
</a>
</g>
</g>
<!-- Node6 -->
<g id="Node000006" class="node">
<title>Node6</title>
<g id="a_Node000006"><a xlink:href="interface_8h.html" target="_top" xlink:title=" ">
<polygon fill="white" stroke="#666666" points="443.61,-191 306.86,-191 306.86,-170.25 443.61,-170.25 443.61,-191"/>
<text text-anchor="middle" x="375.24" y="-177.5" font-family="Helvetica,sans-Serif" font-size="10.00">vlcb/platform/interface.h</text>
</a>
</g>
</g>
<!-- Node2&#45;&gt;Node6 -->
<g id="edge5_Node000002_Node000006" class="edge">
<title>Node2&#45;&gt;Node6</title>
<g id="a_edge5_Node000002_Node000006"><a xlink:title=" ">
<path fill="none" stroke="#63b8ff" d="M292.29,-226.59C307.66,-218.26 329.98,-206.16 347.6,-196.61"/>
<polygon fill="#63b8ff" stroke="#63b8ff" points="348.88,-199.89 356.01,-192.05 345.55,-193.74 348.88,-199.89"/>
</a>
</g>
</g>
<!-- Node8 -->
<g id="Node000008" class="node">
<title>Node8</title>
<g id="a_Node000008"><a xlink:href="packet_8h.html" target="_top" xlink:title=" ">
<polygon fill="white" stroke="#666666" points="145.24,-191 27.24,-191 27.24,-170.25 145.24,-170.25 145.24,-191"/>
<text text-anchor="middle" x="86.24" y="-177.5" font-family="Helvetica,sans-Serif" font-size="10.00">adapter/can/packet.h</text>
</a>
</g>
</g>
<!-- Node2&#45;&gt;Node8 -->
<g id="edge7_Node000002_Node000008" class="edge">
<title>Node2&#45;&gt;Node8</title>
<g id="a_edge7_Node000002_Node000008"><a xlink:title=" ">
<path fill="none" stroke="#63b8ff" d="M240.63,-226.59C209.98,-217.66 164.47,-204.41 130.8,-194.6"/>
<polygon fill="#63b8ff" stroke="#63b8ff" points="131.91,-191.28 121.33,-191.84 129.95,-198 131.91,-191.28"/>
</a>
</g>
</g>
<!-- Node12 -->
<g id="Node000012" class="node">
<title>Node12</title>
<g id="a_Node000012"><a xlink:href="addr_8h.html" target="_top" xlink:title=" ">
<polygon fill="white" stroke="#666666" points="251.24,-191 163.24,-191 163.24,-170.25 251.24,-170.25 251.24,-191"/>
<text text-anchor="middle" x="207.24" y="-177.5" font-family="Helvetica,sans-Serif" font-size="10.00">vlcb/net/addr.h</text>
</a>
</g>
</g>
<!-- Node2&#45;&gt;Node12 -->
<g id="edge15_Node000002_Node000012" class="edge">
<title>Node2&#45;&gt;Node12</title>
<g id="a_edge15_Node000002_Node000012"><a xlink:title=" ">
<path fill="none" stroke="#63b8ff" d="M262.26,-226.59C252.73,-218.8 239.18,-207.72 227.9,-198.51"/>
<polygon fill="#63b8ff" stroke="#63b8ff" points="230.24,-195.9 220.28,-192.29 225.81,-201.32 230.24,-195.9"/>
</a>
</g>
</g>
<!-- Node7 -->
<g id="Node000007" class="node">
<title>Node7</title>
<g id="a_Node000007"><a xlink:title=" ">
<polygon fill="#e0e0e0" stroke="#999999" points="408.74,-134.25 353.74,-134.25 353.74,-113.5 408.74,-113.5 408.74,-134.25"/>
<text text-anchor="middle" x="381.24" y="-120.75" font-family="Helvetica,sans-Serif" font-size="10.00">stddef.h</text>
</a>
</g>
</g>
<!-- Node6&#45;&gt;Node7 -->
<g id="edge6_Node000006_Node000007" class="edge">
<title>Node6&#45;&gt;Node7</title>
<g id="a_edge6_Node000006_Node000007"><a xlink:title=" ">
<path fill="none" stroke="#63b8ff" d="M376.31,-169.84C377.04,-163.22 378.02,-154.22 378.92,-146.02"/>
<polygon fill="#63b8ff" stroke="#63b8ff" points="382.4,-146.4 380.01,-136.08 375.44,-145.64 382.4,-146.4"/>
</a>
</g>
</g>
<!-- Node8&#45;&gt;Node4 -->
<g id="edge8_Node000008_Node000004" class="edge">
<title>Node8&#45;&gt;Node4</title>
<g id="a_edge8_Node000008_Node000004"><a xlink:title=" ">
<path fill="none" stroke="#63b8ff" d="M86.15,-170.12C85.99,-152.35 85.65,-113.72 85.43,-89.43"/>
<polygon fill="#63b8ff" stroke="#63b8ff" points="88.93,-89.41 85.34,-79.44 81.93,-89.47 88.93,-89.41"/>
</a>
</g>
</g>
<!-- Node9 -->
<g id="Node000009" class="node">
<title>Node9</title>
<g id="a_Node000009"><a xlink:href="common_2inc_2vlcb_2common_2can_8h.html" target="_top" xlink:title=" ">
<polygon fill="white" stroke="#666666" points="262.86,-134.25 151.61,-134.25 151.61,-113.5 262.86,-113.5 262.86,-134.25"/>
<text text-anchor="middle" x="207.24" y="-120.75" font-family="Helvetica,sans-Serif" font-size="10.00">vlcb/common/can.h</text>
</a>
</g>
</g>
<!-- Node8&#45;&gt;Node9 -->
<g id="edge9_Node000008_Node000009" class="edge">
<title>Node8&#45;&gt;Node9</title>
<g id="a_edge9_Node000008_Node000009"><a xlink:title=" ">
<path fill="none" stroke="#63b8ff" d="M107.87,-169.84C126.71,-161.31 154.27,-148.84 175.59,-139.19"/>
<polygon fill="#63b8ff" stroke="#63b8ff" points="176.75,-142.51 184.41,-135.2 173.86,-136.14 176.75,-142.51"/>
</a>
</g>
</g>
<!-- Node9&#45;&gt;Node3 -->
<g id="edge10_Node000009_Node000003" class="edge">
<title>Node9&#45;&gt;Node3</title>
<g id="a_edge10_Node000009_Node000003"><a xlink:title=" ">
<path fill="none" stroke="#63b8ff" d="M221.18,-113.09C232.61,-105.07 249.01,-93.56 262.35,-84.19"/>
<polygon fill="#63b8ff" stroke="#63b8ff" points="264,-87.31 270.17,-78.7 259.98,-81.58 264,-87.31"/>
</a>
</g>
</g>
<!-- Node9&#45;&gt;Node4 -->
<g id="edge11_Node000009_Node000004" class="edge">
<title>Node9&#45;&gt;Node4</title>
<g id="a_edge11_Node000009_Node000004"><a xlink:title=" ">
<path fill="none" stroke="#63b8ff" d="M185.43,-113.09C166.43,-104.56 138.64,-92.09 117.14,-82.44"/>
<polygon fill="#63b8ff" stroke="#63b8ff" points="118.8,-79.35 108.24,-78.45 115.93,-85.74 118.8,-79.35"/>
</a>
</g>
</g>
<!-- Node10 -->
<g id="Node000010" class="node">
<title>Node10</title>
<g id="a_Node000010"><a xlink:title=" ">
<polygon fill="#e0e0e0" stroke="#999999" points="312.61,-20.75 259.86,-20.75 259.86,0 312.61,0 312.61,-20.75"/>
<text text-anchor="middle" x="286.24" y="-7.25" font-family="Helvetica,sans-Serif" font-size="10.00">stdint.h</text>
</a>
</g>
</g>
<!-- Node9&#45;&gt;Node10 -->
<g id="edge12_Node000009_Node000010" class="edge">
<title>Node9&#45;&gt;Node10</title>
<g id="a_edge12_Node000009_Node000010"><a xlink:title=" ">
<path fill="none" stroke="#63b8ff" d="M211.83,-113.03C218.24,-99.71 230.63,-75.48 244.24,-56.75 251.28,-47.06 260.17,-37.19 267.95,-29.14"/>
<polygon fill="#63b8ff" stroke="#63b8ff" points="270.19,-31.86 274.76,-22.3 265.23,-26.92 270.19,-31.86"/>
</a>
</g>
</g>
<!-- Node11 -->
<g id="Node000011" class="node">
<title>Node11</title>
<g id="a_Node000011"><a xlink:href="vlcb__defs_8h.html" target="_top" xlink:title=" ">
<polygon fill="white" stroke="#666666" points="406.99,-77.5 335.49,-77.5 335.49,-56.75 406.99,-56.75 406.99,-77.5"/>
<text text-anchor="middle" x="371.24" y="-64" font-family="Helvetica,sans-Serif" font-size="10.00">vlcb_defs.h</text>
</a>
</g>
</g>
<!-- Node9&#45;&gt;Node11 -->
<g id="edge13_Node000009_Node000011" class="edge">
<title>Node9&#45;&gt;Node11</title>
<g id="a_edge13_Node000009_Node000011"><a xlink:title=" ">
<path fill="none" stroke="#63b8ff" d="M236.56,-113.09C262.95,-104.28 301.96,-91.25 331.21,-81.49"/>
<polygon fill="#63b8ff" stroke="#63b8ff" points="332.08,-84.89 340.46,-78.4 329.87,-78.25 332.08,-84.89"/>
</a>
</g>
</g>
<!-- Node11&#45;&gt;Node10 -->
<g id="edge14_Node000011_Node000010" class="edge">
<title>Node11&#45;&gt;Node10</title>
<g id="a_edge14_Node000011_Node000010"><a xlink:title=" ">
<path fill="none" stroke="#63b8ff" d="M356.04,-56.34C343.47,-48.24 325.37,-36.58 310.76,-27.17"/>
<polygon fill="#63b8ff" stroke="#63b8ff" points="312.88,-24.37 302.57,-21.9 309.09,-30.26 312.88,-24.37"/>
</a>
</g>
</g>
<!-- Node12&#45;&gt;Node9 -->
<g id="edge16_Node000012_Node000009" class="edge">
<title>Node12&#45;&gt;Node9</title>
<g id="a_edge16_Node000012_Node000009"><a xlink:title=" ">
<path fill="none" stroke="#63b8ff" d="M207.24,-169.84C207.24,-163.22 207.24,-154.22 207.24,-146.02"/>
<polygon fill="#63b8ff" stroke="#63b8ff" points="210.74,-146.09 207.24,-136.09 203.74,-146.09 210.74,-146.09"/>
</a>
</g>
</g>
<!-- Node13&#45;&gt;Node2 -->
<g id="edge19_Node000013_Node000002" class="edge">
<title>Node13&#45;&gt;Node2</title>
<g id="a_edge19_Node000013_Node000002"><a xlink:title=" ">
<path fill="none" stroke="#63b8ff" d="M268.49,-283.34C269.35,-276.64 270.51,-267.51 271.57,-259.23"/>
<polygon fill="#63b8ff" stroke="#63b8ff" points="275.01,-259.94 272.81,-249.58 268.07,-259.06 275.01,-259.94"/>
</a>
</g>
</g>
<!-- Node13&#45;&gt;Node4 -->
<g id="edge18_Node000013_Node000004" class="edge">
<title>Node13&#45;&gt;Node4</title>
<g id="a_edge18_Node000013_Node000004"><a xlink:title=" ">
<path fill="none" stroke="#63b8ff" d="M221.46,-290.3C160.28,-283.79 53.93,-262.24 5.24,-191 -5.5,-175.29 2.74,-133.65 16.24,-113.5 24.86,-100.62 38.51,-90.53 51.4,-83.17"/>
<polygon fill="#63b8ff" stroke="#63b8ff" points="52.92,-86.32 60.12,-78.55 49.64,-80.13 52.92,-86.32"/>
</a>
</g>
</g>
<!-- Node13&#45;&gt;Node14 -->
<g id="edge20_Node000013_Node000014" class="edge">
<title>Node13&#45;&gt;Node14</title>
<g id="a_edge20_Node000013_Node000014"><a xlink:title=" ">
<path fill="none" stroke="#63b8ff" d="M287.26,-283.34C304.46,-274.93 329.52,-262.68 349.13,-253.09"/>
<polygon fill="#63b8ff" stroke="#63b8ff" points="350.58,-256.28 358.03,-248.74 347.51,-249.99 350.58,-256.28"/>
</a>
</g>
</g>
<!-- Node14&#45;&gt;Node4 -->
<g id="edge21_Node000014_Node000004" class="edge">
<title>Node14&#45;&gt;Node4</title>
<g id="a_edge21_Node000014_Node000004"><a xlink:title=" ">
<path fill="none" stroke="#63b8ff" d="M404.47,-226.57C432.58,-214.25 471.69,-192.09 452.24,-170.25 406.11,-118.46 203.51,-166.74 142.24,-134.25 122.22,-123.64 106.14,-102.87 96.23,-87.42"/>
<polygon fill="#63b8ff" stroke="#63b8ff" points="99.34,-85.81 91.17,-79.07 93.36,-89.43 99.34,-85.81"/>
</a>
</g>
</g>
<!-- Node14&#45;&gt;Node6 -->
<g id="edge28_Node000014_Node000006" class="edge">
<title>Node14&#45;&gt;Node6</title>
<g id="a_edge28_Node000014_Node000006"><a xlink:title=" ">
<path fill="none" stroke="#63b8ff" d="M378.52,-226.59C378.04,-219.97 377.38,-210.97 376.78,-202.77"/>
<polygon fill="#63b8ff" stroke="#63b8ff" points="380.28,-202.56 376.06,-192.84 373.29,-203.07 380.28,-202.56"/>
</a>
</g>
</g>
<!-- Node14&#45;&gt;Node7 -->
<g id="edge22_Node000014_Node000007" class="edge">
<title>Node14&#45;&gt;Node7</title>
<g id="a_edge22_Node000014_Node000007"><a xlink:title=" ">
<path fill="none" stroke="#63b8ff" d="M407.74,-232.85C432.9,-228.07 468.15,-216.9 485.24,-191 504.4,-161.95 457.22,-143.12 420.27,-133.25"/>
<polygon fill="#63b8ff" stroke="#63b8ff" points="421.23,-129.88 410.68,-130.84 419.53,-136.67 421.23,-129.88"/>
</a>
</g>
</g>
<!-- Node14&#45;&gt;Node12 -->
<g id="edge27_Node000014_Node000012" class="edge">
<title>Node14&#45;&gt;Node12</title>
<g id="a_edge27_Node000014_Node000012"><a xlink:title=" ">
<path fill="none" stroke="#63b8ff" d="M350.84,-227.33C323.01,-218.48 280.3,-204.88 248.68,-194.82"/>
<polygon fill="#63b8ff" stroke="#63b8ff" points="250.04,-191.58 239.45,-191.88 247.92,-198.25 250.04,-191.58"/>
</a>
</g>
</g>
<!-- Node15 -->
<g id="Node000015" class="node">
<title>Node15</title>
<g id="a_Node000015"><a xlink:href="vlcb_8h.html" target="_top" xlink:title=" ">
<polygon fill="white" stroke="#666666" points="655.49,-191 574.99,-191 574.99,-170.25 655.49,-170.25 655.49,-191"/>
<text text-anchor="middle" x="615.24" y="-177.5" font-family="Helvetica,sans-Serif" font-size="10.00">packet/vlcb.h</text>
</a>
</g>
</g>
<!-- Node14&#45;&gt;Node15 -->
<g id="edge23_Node000014_Node000015" class="edge">
<title>Node14&#45;&gt;Node15</title>
<g id="a_edge23_Node000014_Node000015"><a xlink:title=" ">
<path fill="none" stroke="#63b8ff" d="M407.7,-229.77C446.29,-220.82 515.87,-204.68 563.75,-193.57"/>
<polygon fill="#63b8ff" stroke="#63b8ff" points="564.4,-197.01 573.35,-191.34 562.82,-190.19 564.4,-197.01"/>
</a>
</g>
</g>
<!-- Node15&#45;&gt;Node3 -->
<g id="edge24_Node000015_Node000003" class="edge">
<title>Node15&#45;&gt;Node3</title>
<g id="a_edge24_Node000015_Node000003"><a xlink:title=" ">
<path fill="none" stroke="#63b8ff" d="M611.28,-170.09C604.59,-155.28 589.55,-127.04 567.24,-113.5 477.73,-59.17 435.5,-95.02 329.06,-77.79"/>
<polygon fill="#63b8ff" stroke="#63b8ff" points="329.81,-74.37 319.35,-76.08 328.6,-81.26 329.81,-74.37"/>
</a>
</g>
</g>
<!-- Node15&#45;&gt;Node5 -->
<g id="edge26_Node000015_Node000005" class="edge">
<title>Node15&#45;&gt;Node5</title>
<g id="a_edge26_Node000015_Node000005"><a xlink:title=" ">
<path fill="none" stroke="#63b8ff" d="M594.68,-169.84C576.93,-161.39 551.05,-149.07 530.87,-139.46"/>
<polygon fill="#63b8ff" stroke="#63b8ff" points="532.52,-136.37 521.99,-135.23 529.51,-142.69 532.52,-136.37"/>
</a>
</g>
</g>
<!-- Node15&#45;&gt;Node11 -->
<g id="edge25_Node000015_Node000011" class="edge">
<title>Node15&#45;&gt;Node11</title>
<g id="a_edge25_Node000015_Node000011"><a xlink:title=" ">
<path fill="none" stroke="#63b8ff" d="M616.05,-169.99C616.7,-155.56 615.59,-128.44 600.24,-113.5 574.91,-88.86 477.84,-76.73 418.51,-71.51"/>
<polygon fill="#63b8ff" stroke="#63b8ff" points="418.95,-68.03 408.69,-70.68 418.36,-75.01 418.95,-68.03"/>
</a>
</g>
</g>
</g>
</svg>
