<?xml version="1.0" encoding="UTF-8" standalone="no"?>
<!DOCTYPE svg PUBLIC "-//W3C//DTD SVG 1.1//EN"
 "http://www.w3.org/Graphics/SVG/1.1/DTD/svg11.dtd">
<!-- Generated by graphviz version 12.1.2 (20240928.0832)
 -->
<!-- Title: CanSvcProcess Pages: 1 -->
<svg width="219pt" height="68pt"
 viewBox="0.00 0.00 218.50 67.75" xmlns="http://www.w3.org/2000/svg" xmlns:xlink="http://www.w3.org/1999/xlink">
<g id="graph0" class="graph" transform="scale(1 1) rotate(0) translate(4 63.75)">
<title>CanSvcProcess</title>
<!-- Node1 -->
<g id="Node000001" class="node">
<title>Node1</title>
<g id="a_Node000001"><a xlink:title=" ">
<polygon fill="#999999" stroke="#666666" points="89.5,-39.75 0,-39.75 0,-19 89.5,-19 89.5,-39.75"/>
<text text-anchor="middle" x="44.75" y="-26.25" font-family="Helvetica,sans-Serif" font-size="10.00">CanSvcProcess</text>
</a>
</g>
</g>
<!-- Node2 -->
<g id="Node000002" class="node">
<title>Node2</title>
<g id="a_Node000002"><a xlink:href="iface__can__svc_8c.html#a9b6b01728115744f4674fc751a5919f5" target="_top" xlink:title=" ">
<polygon fill="white" stroke="#666666" points="210.5,-59.75 125.5,-59.75 125.5,-39 210.5,-39 210.5,-59.75"/>
<text text-anchor="middle" x="168" y="-46.25" font-family="Helvetica,sans-Serif" font-size="10.00">ResolveFreeId</text>
</a>
</g>
</g>
<!-- Node1&#45;&gt;Node2 -->
<g id="edge1_Node000001_Node000002" class="edge">
<title>Node1&#45;&gt;Node2</title>
<g id="a_edge1_Node000001_Node000002"><a xlink:title=" ">
<path fill="none" stroke="#63b8ff" d="M89.87,-36.65C97.69,-37.94 105.91,-39.3 113.95,-40.62"/>
<polygon fill="#63b8ff" stroke="#63b8ff" points="113.21,-44.05 123.65,-42.22 114.35,-37.14 113.21,-44.05"/>
</a>
</g>
</g>
<!-- Node3 -->
<g id="Node000003" class="node">
<title>Node3</title>
<g id="a_Node000003"><a xlink:href="iface__can__svc_8c.html#a39dbc9176a838580211b17ab57f3ecab" target="_top" xlink:title=" ">
<polygon fill="white" stroke="#666666" points="208.62,-20.75 127.38,-20.75 127.38,0 208.62,0 208.62,-20.75"/>
<text text-anchor="middle" x="168" y="-7.25" font-family="Helvetica,sans-Serif" font-size="10.00">ToggleUsedId</text>
</a>
</g>
</g>
<!-- Node1&#45;&gt;Node3 -->
<g id="edge2_Node000001_Node000003" class="edge">
<title>Node1&#45;&gt;Node3</title>
<g id="a_edge2_Node000001_Node000003"><a xlink:title=" ">
<path fill="none" stroke="#63b8ff" d="M89.87,-22.46C98.34,-21.13 107.28,-19.73 115.95,-18.37"/>
<polygon fill="#63b8ff" stroke="#63b8ff" points="116.31,-21.86 125.64,-16.86 115.22,-14.95 116.31,-21.86"/>
</a>
</g>
</g>
</g>
</svg>
