<?xml version="1.0" encoding="UTF-8" standalone="no"?>
<!DOCTYPE svg PUBLIC "-//W3C//DTD SVG 1.1//EN"
 "http://www.w3.org/Graphics/SVG/1.1/DTD/svg11.dtd">
<!-- Generated by graphviz version 12.1.2 (20240928.0832)
 -->
<!-- Title: ProcessVlcbPacket Pages: 1 -->
<svg width="484pt" height="319pt"
 viewBox="0.00 0.00 483.50 319.12" xmlns="http://www.w3.org/2000/svg" xmlns:xlink="http://www.w3.org/1999/xlink">
<g id="graph0" class="graph" transform="scale(1 1) rotate(0) translate(4 315.12)">
<title>ProcessVlcbPacket</title>
<!-- Node1 -->
<g id="Node000001" class="node">
<title>Node1</title>
<g id="a_Node000001"><a xlink:title=" ">
<polygon fill="#999999" stroke="#666666" points="106,-169.12 0,-169.12 0,-148.38 106,-148.38 106,-169.12"/>
<text text-anchor="middle" x="53" y="-155.62" font-family="Helvetica,sans-Serif" font-size="10.00">ProcessVlcbPacket</text>
</a>
</g>
</g>
<!-- Node2 -->
<g id="Node000002" class="node">
<title>Node2</title>
<g id="a_Node000002"><a xlink:href="socket_2datagram_8c.html#a61c95cabe20ca7a61ea528e4c70f1245" target="_top" xlink:title=" ">
<polygon fill="white" stroke="#666666" points="262.25,-292.12 177.25,-292.12 177.25,-271.38 262.25,-271.38 262.25,-292.12"/>
<text text-anchor="middle" x="219.75" y="-278.62" font-family="Helvetica,sans-Serif" font-size="10.00">ProcessPacket</text>
</a>
</g>
</g>
<!-- Node1&#45;&gt;Node2 -->
<g id="edge1_Node000001_Node000002" class="edge">
<title>Node1&#45;&gt;Node2</title>
<g id="a_edge1_Node000001_Node000002"><a xlink:title=" ">
<path fill="none" stroke="#63b8ff" d="M59.99,-169.36C72.42,-190.39 103.13,-237.41 142,-261.75 149.3,-266.32 157.62,-269.85 166.02,-272.58"/>
<polygon fill="#63b8ff" stroke="#63b8ff" points="165.01,-275.93 175.58,-275.31 166.93,-269.2 165.01,-275.93"/>
</a>
</g>
</g>
<!-- Node5 -->
<g id="Node000005" class="node">
<title>Node5</title>
<g id="a_Node000005"><a xlink:href="socket_2datagram_8c.html#a97bab8fe9b6021439207f5bf70a2f2a3" target="_top" xlink:title=" ">
<polygon fill="white" stroke="#666666" points="269,-253.12 170.5,-253.12 170.5,-232.38 269,-232.38 269,-253.12"/>
<text text-anchor="middle" x="219.75" y="-239.62" font-family="Helvetica,sans-Serif" font-size="10.00">SupportsProtocol</text>
</a>
</g>
</g>
<!-- Node1&#45;&gt;Node5 -->
<g id="edge4_Node000001_Node000005" class="edge">
<title>Node1&#45;&gt;Node5</title>
<g id="a_edge4_Node000001_Node000005"><a xlink:title=" ">
<path fill="none" stroke="#63b8ff" d="M65.61,-169.43C81.62,-183.61 111.95,-208.53 142,-222.75 147.52,-225.36 153.44,-227.67 159.44,-229.7"/>
<polygon fill="#63b8ff" stroke="#63b8ff" points="158.25,-233 168.84,-232.61 160.32,-226.31 158.25,-233"/>
</a>
</g>
</g>
<!-- Node6 -->
<g id="Node000006" class="node">
<title>Node6</title>
<g id="a_Node000006"><a xlink:href="vlcb_8c.html#a16634e516c94526e5bc818f75db5558c" target="_top" xlink:title=" ">
<polygon fill="white" stroke="#666666" points="297.5,-214.12 142,-214.12 142,-193.38 297.5,-193.38 297.5,-214.12"/>
<text text-anchor="middle" x="219.75" y="-200.62" font-family="Helvetica,sans-Serif" font-size="10.00">vlcb_net_pkt_DetectProtocol</text>
</a>
</g>
</g>
<!-- Node1&#45;&gt;Node6 -->
<g id="edge5_Node000001_Node000006" class="edge">
<title>Node1&#45;&gt;Node6</title>
<g id="a_edge5_Node000001_Node000006"><a xlink:title=" ">
<path fill="none" stroke="#63b8ff" d="M89.44,-169.61C105.44,-174.42 124.63,-180.04 142,-184.75 148.69,-186.57 155.74,-188.41 162.73,-190.19"/>
<polygon fill="#63b8ff" stroke="#63b8ff" points="161.6,-193.51 172.15,-192.56 163.31,-186.73 161.6,-193.51"/>
</a>
</g>
</g>
<!-- Node7 -->
<g id="Node000007" class="node">
<title>Node7</title>
<g id="a_Node000007"><a xlink:href="socket_8c.html#a9401eccd14dd3acd44764c5e8a05beaf" target="_top" xlink:title=" ">
<polygon fill="white" stroke="#666666" points="272.38,-175.5 167.12,-175.5 167.12,-142 272.38,-142 272.38,-175.5"/>
<text text-anchor="start" x="175.12" y="-162" font-family="Helvetica,sans-Serif" font-size="10.00">vlcb_net_sock_list</text>
<text text-anchor="middle" x="219.75" y="-149.25" font-family="Helvetica,sans-Serif" font-size="10.00">_GetIterator</text>
</a>
</g>
</g>
<!-- Node1&#45;&gt;Node7 -->
<g id="edge6_Node000001_Node000007" class="edge">
<title>Node1&#45;&gt;Node7</title>
<g id="a_edge6_Node000001_Node000007"><a xlink:title=" ">
<path fill="none" stroke="#63b8ff" d="M106.13,-158.75C121.83,-158.75 139.23,-158.75 155.57,-158.75"/>
<polygon fill="#63b8ff" stroke="#63b8ff" points="155.17,-162.25 165.17,-158.75 155.17,-155.25 155.17,-162.25"/>
</a>
</g>
</g>
<!-- Node8 -->
<g id="Node000008" class="node">
<title>Node8</title>
<g id="a_Node000008"><a xlink:href="socket_8c.html#a176c72971ceb14a338d824d7a3bb0fac" target="_top" xlink:title=" ">
<polygon fill="white" stroke="#666666" points="457.12,-108.5 351.88,-108.5 351.88,-75 457.12,-75 457.12,-108.5"/>
<text text-anchor="start" x="359.88" y="-95" font-family="Helvetica,sans-Serif" font-size="10.00">vlcb_net_sock_list</text>
<text text-anchor="middle" x="404.5" y="-82.25" font-family="Helvetica,sans-Serif" font-size="10.00">_iter_HasNext</text>
</a>
</g>
</g>
<!-- Node1&#45;&gt;Node8 -->
<g id="edge7_Node000001_Node000008" class="edge">
<title>Node1&#45;&gt;Node8</title>
<g id="a_edge7_Node000001_Node000008"><a xlink:title=" ">
<path fill="none" stroke="#63b8ff" d="M86.74,-147.96C103.19,-142.82 123.51,-136.91 142,-132.75 209.04,-117.66 286.98,-106.21 340.21,-99.3"/>
<polygon fill="#63b8ff" stroke="#63b8ff" points="340.54,-102.78 350.02,-98.04 339.65,-95.84 340.54,-102.78"/>
</a>
</g>
</g>
<!-- Node9 -->
<g id="Node000009" class="node">
<title>Node9</title>
<g id="a_Node000009"><a xlink:href="socket_8c.html#a81bef9c5afd9ccbb9d0a52b2ae1da9b2" target="_top" xlink:title=" ">
<polygon fill="white" stroke="#666666" points="272.38,-85.5 167.12,-85.5 167.12,-52 272.38,-52 272.38,-85.5"/>
<text text-anchor="start" x="175.12" y="-72" font-family="Helvetica,sans-Serif" font-size="10.00">vlcb_net_sock_list</text>
<text text-anchor="middle" x="219.75" y="-59.25" font-family="Helvetica,sans-Serif" font-size="10.00">_iter_Next</text>
</a>
</g>
</g>
<!-- Node1&#45;&gt;Node9 -->
<g id="edge8_Node000001_Node000009" class="edge">
<title>Node1&#45;&gt;Node9</title>
<g id="a_edge8_Node000001_Node000009"><a xlink:title=" ">
<path fill="none" stroke="#63b8ff" d="M68.07,-147.98C84.98,-135.35 114.53,-114.3 142,-99.75 148.17,-96.48 154.76,-93.34 161.38,-90.39"/>
<polygon fill="#63b8ff" stroke="#63b8ff" points="162.58,-93.69 170.39,-86.52 159.82,-87.25 162.58,-93.69"/>
</a>
</g>
</g>
<!-- Node10 -->
<g id="Node000010" class="node">
<title>Node10</title>
<g id="a_Node000010"><a xlink:href="socket_8c.html#a8e1f8d2c6242378d1d4eda56527a4a26" target="_top" xlink:title=" ">
<polygon fill="white" stroke="#666666" points="290.38,-33.5 149.12,-33.5 149.12,0 290.38,0 290.38,-33.5"/>
<text text-anchor="start" x="157.12" y="-20" font-family="Helvetica,sans-Serif" font-size="10.00">vlcb_net_sock_ProcessErr</text>
<text text-anchor="middle" x="219.75" y="-7.25" font-family="Helvetica,sans-Serif" font-size="10.00">ToStr</text>
</a>
</g>
</g>
<!-- Node1&#45;&gt;Node10 -->
<g id="edge10_Node000001_Node000010" class="edge">
<title>Node1&#45;&gt;Node10</title>
<g id="a_edge10_Node000001_Node000010"><a xlink:title=" ">
<path fill="none" stroke="#63b8ff" d="M59.25,-148.09C70.96,-125.4 101.39,-72 142,-42.75 143.76,-41.49 145.58,-40.28 147.45,-39.13"/>
<polygon fill="#63b8ff" stroke="#63b8ff" points="148.74,-42.41 155.85,-34.55 145.39,-36.26 148.74,-42.41"/>
</a>
</g>
</g>
<!-- Node3 -->
<g id="Node000003" class="node">
<title>Node3</title>
<g id="a_Node000003"><a xlink:href="packet__buf_8c.html#afa80d4fb078473100610ba106bd5cb46" target="_top" xlink:title=" ">
<polygon fill="white" stroke="#666666" points="474,-311.12 335,-311.12 335,-290.38 474,-290.38 474,-311.12"/>
<text text-anchor="middle" x="404.5" y="-297.62" font-family="Helvetica,sans-Serif" font-size="10.00">vlcb_net_packetbuf_Push</text>
</a>
</g>
</g>
<!-- Node2&#45;&gt;Node3 -->
<g id="edge2_Node000002_Node000003" class="edge">
<title>Node2&#45;&gt;Node3</title>
<g id="a_edge2_Node000002_Node000003"><a xlink:title=" ">
<path fill="none" stroke="#63b8ff" d="M262.68,-286.11C280.72,-287.98 302.45,-290.24 323.37,-292.42"/>
<polygon fill="#63b8ff" stroke="#63b8ff" points="322.74,-295.87 333.05,-293.42 323.46,-288.91 322.74,-295.87"/>
</a>
</g>
</g>
<!-- Node4 -->
<g id="Node000004" class="node">
<title>Node4</title>
<g id="a_Node000004"><a xlink:href="packet_2datagram_8c.html#a965c07c3bd42101143dfbec7857547c2" target="_top" xlink:title=" ">
<polygon fill="white" stroke="#666666" points="475.5,-272.12 333.5,-272.12 333.5,-251.38 475.5,-251.38 475.5,-272.12"/>
<text text-anchor="middle" x="404.5" y="-258.62" font-family="Helvetica,sans-Serif" font-size="10.00">vlcb_net_pkt_dgram_New</text>
</a>
</g>
</g>
<!-- Node2&#45;&gt;Node4 -->
<g id="edge3_Node000002_Node000004" class="edge">
<title>Node2&#45;&gt;Node4</title>
<g id="a_edge3_Node000002_Node000004"><a xlink:title=" ">
<path fill="none" stroke="#63b8ff" d="M262.68,-277.16C280.28,-275.23 301.39,-272.92 321.84,-270.69"/>
<polygon fill="#63b8ff" stroke="#63b8ff" points="322.05,-274.19 331.61,-269.62 321.29,-267.23 322.05,-274.19"/>
</a>
</g>
</g>
<!-- Node9&#45;&gt;Node8 -->
<g id="edge9_Node000009_Node000008" class="edge">
<title>Node9&#45;&gt;Node8</title>
<g id="a_edge9_Node000009_Node000008"><a xlink:title=" ">
<path fill="none" stroke="#63b8ff" d="M272.63,-75.28C293.66,-77.93 318.14,-81.01 340.2,-83.78"/>
<polygon fill="#63b8ff" stroke="#63b8ff" points="339.63,-87.24 349.99,-85.02 340.5,-80.29 339.63,-87.24"/>
</a>
</g>
</g>
</g>
</svg>
