<?xml version="1.0" encoding="UTF-8" standalone="no"?>
<!DOCTYPE svg PUBLIC "-//W3C//DTD SVG 1.1//EN"
 "http://www.w3.org/Graphics/SVG/1.1/DTD/svg11.dtd">
<!-- Generated by graphviz version 12.1.2 (20240928.0832)
 -->
<!-- Title: iface.c Pages: 1 -->
<svg width="974pt" height="439pt"
 viewBox="0.00 0.00 974.12 438.75" xmlns="http://www.w3.org/2000/svg" xmlns:xlink="http://www.w3.org/1999/xlink">
<g id="graph0" class="graph" transform="scale(1 1) rotate(0) translate(4 434.75)">
<title>iface.c</title>
<!-- Node1 -->
<g id="Node000001" class="node">
<title>Node1</title>
<g id="a_Node000001"><a xlink:title=" ">
<polygon fill="#999999" stroke="#666666" points="546.12,-430.75 497.88,-430.75 497.88,-410 546.12,-410 546.12,-430.75"/>
<text text-anchor="middle" x="522" y="-417.25" font-family="Helvetica,sans-Serif" font-size="10.00">iface.c</text>
</a>
</g>
</g>
<!-- Node2 -->
<g id="Node000002" class="node">
<title>Node2</title>
<g id="a_Node000002"><a xlink:href="iface_8h.html" target="_top" xlink:title=" ">
<polygon fill="white" stroke="#666666" points="574.5,-317.25 483.5,-317.25 483.5,-296.5 574.5,-296.5 574.5,-317.25"/>
<text text-anchor="middle" x="529" y="-303.75" font-family="Helvetica,sans-Serif" font-size="10.00">vlcb/net/iface.h</text>
</a>
</g>
</g>
<!-- Node1&#45;&gt;Node2 -->
<g id="edge1_Node000001_Node000002" class="edge">
<title>Node1&#45;&gt;Node2</title>
<g id="a_edge1_Node000001_Node000002"><a xlink:title=" ">
<path fill="none" stroke="#63b8ff" d="M507.45,-409.71C490.83,-397.37 467.12,-374.99 477,-353.25 482.34,-341.51 492.37,-331.63 502.22,-324.11"/>
<polygon fill="#63b8ff" stroke="#63b8ff" points="504.02,-327.12 510.2,-318.51 500,-321.39 504.02,-327.12"/>
</a>
</g>
</g>
<!-- Node4 -->
<g id="Node000004" class="node">
<title>Node4</title>
<g id="a_Node000004"><a xlink:href="adapter_8h.html" target="_top" xlink:title=" ">
<polygon fill="white" stroke="#666666" points="649.88,-260.5 588.12,-260.5 588.12,-239.75 649.88,-239.75 649.88,-260.5"/>
<text text-anchor="middle" x="619" y="-247" font-family="Helvetica,sans-Serif" font-size="10.00">adapter.h</text>
</a>
</g>
</g>
<!-- Node1&#45;&gt;Node4 -->
<g id="edge44_Node000001_Node000004" class="edge">
<title>Node1&#45;&gt;Node4</title>
<g id="a_edge44_Node000001_Node000004"><a xlink:title=" ">
<path fill="none" stroke="#63b8ff" d="M546.35,-417.81C574.3,-414.56 619,-404.58 640,-374 661.45,-342.77 643.74,-296.78 630.4,-270.83"/>
<polygon fill="#63b8ff" stroke="#63b8ff" points="633.48,-269.18 625.63,-262.07 627.33,-272.52 633.48,-269.18"/>
</a>
</g>
</g>
<!-- Node8 -->
<g id="Node000008" class="node">
<title>Node8</title>
<g id="a_Node000008"><a xlink:title=" ">
<polygon fill="#e0e0e0" stroke="#999999" points="151.5,-134.25 96.5,-134.25 96.5,-113.5 151.5,-113.5 151.5,-134.25"/>
<text text-anchor="middle" x="124" y="-120.75" font-family="Helvetica,sans-Serif" font-size="10.00">stddef.h</text>
</a>
</g>
</g>
<!-- Node1&#45;&gt;Node8 -->
<g id="edge36_Node000001_Node000008" class="edge">
<title>Node1&#45;&gt;Node8</title>
<g id="a_edge36_Node000001_Node000008"><a xlink:title=" ">
<path fill="none" stroke="#63b8ff" d="M497.67,-419.04C399.52,-417.06 38,-403.27 38,-307.88 38,-307.88 38,-307.88 38,-249.12 38,-204.03 76.77,-163.48 102.25,-141.7"/>
<polygon fill="#63b8ff" stroke="#63b8ff" points="104.27,-144.56 109.77,-135.51 99.82,-139.16 104.27,-144.56"/>
</a>
</g>
</g>
<!-- Node11 -->
<g id="Node000011" class="node">
<title>Node11</title>
<g id="a_Node000011"><a xlink:title=" ">
<polygon fill="#e0e0e0" stroke="#999999" points="432.38,-20.75 379.62,-20.75 379.62,0 432.38,0 432.38,-20.75"/>
<text text-anchor="middle" x="406" y="-7.25" font-family="Helvetica,sans-Serif" font-size="10.00">stdint.h</text>
</a>
</g>
</g>
<!-- Node1&#45;&gt;Node11 -->
<g id="edge37_Node000001_Node000011" class="edge">
<title>Node1&#45;&gt;Node11</title>
<g id="a_edge37_Node000001_Node000011"><a xlink:title=" ">
<path fill="none" stroke="#63b8ff" d="M497.48,-418.85C415.51,-416.78 151.93,-407.61 75,-374 34.28,-356.21 0,-352.31 0,-307.88 0,-307.88 0,-307.88 0,-122.88 0,-47.02 266.9,-20.87 367.9,-13.69"/>
<polygon fill="#63b8ff" stroke="#63b8ff" points="368.11,-17.19 377.85,-13.01 367.64,-10.2 368.11,-17.19"/>
</a>
</g>
</g>
<!-- Node15 -->
<g id="Node000015" class="node">
<title>Node15</title>
<g id="a_Node000015"><a xlink:href="socket_8h.html" target="_top" xlink:title=" ">
<polygon fill="white" stroke="#666666" points="446.25,-260.5 389.75,-260.5 389.75,-239.75 446.25,-239.75 446.25,-260.5"/>
<text text-anchor="middle" x="418" y="-247" font-family="Helvetica,sans-Serif" font-size="10.00">socket.h</text>
</a>
</g>
</g>
<!-- Node1&#45;&gt;Node15 -->
<g id="edge45_Node000001_Node000015" class="edge">
<title>Node1&#45;&gt;Node15</title>
<g id="a_edge45_Node000001_Node000015"><a xlink:title=" ">
<path fill="none" stroke="#63b8ff" d="M507.91,-409.55C496.71,-401.16 481.27,-388.22 471,-374 447.62,-341.63 431.74,-297.34 423.83,-271.72"/>
<polygon fill="#63b8ff" stroke="#63b8ff" points="427.22,-270.83 421.02,-262.24 420.51,-272.82 427.22,-270.83"/>
</a>
</g>
</g>
<!-- Node18 -->
<g id="Node000018" class="node">
<title>Node18</title>
<g id="a_Node000018"><a xlink:title=" ">
<polygon fill="#e0e0e0" stroke="#999999" points="630.5,-374 575.5,-374 575.5,-353.25 630.5,-353.25 630.5,-374"/>
<text text-anchor="middle" x="603" y="-360.5" font-family="Helvetica,sans-Serif" font-size="10.00">assert.h</text>
</a>
</g>
</g>
<!-- Node1&#45;&gt;Node18 -->
<g id="edge35_Node000001_Node000018" class="edge">
<title>Node1&#45;&gt;Node18</title>
<g id="a_edge35_Node000001_Node000018"><a xlink:title=" ">
<path fill="none" stroke="#63b8ff" d="M536.48,-409.59C548.35,-401.57 565.37,-390.06 579.23,-380.69"/>
<polygon fill="#63b8ff" stroke="#63b8ff" points="581.07,-383.68 587.39,-375.18 577.15,-377.88 581.07,-383.68"/>
</a>
</g>
</g>
<!-- Node19 -->
<g id="Node000019" class="node">
<title>Node19</title>
<g id="a_Node000019"><a xlink:href="iface__can_8h.html" target="_top" xlink:title=" ">
<polygon fill="white" stroke="#666666" points="557.75,-374 486.25,-374 486.25,-353.25 557.75,-353.25 557.75,-374"/>
<text text-anchor="middle" x="522" y="-360.5" font-family="Helvetica,sans-Serif" font-size="10.00">iface_can.h</text>
</a>
</g>
</g>
<!-- Node1&#45;&gt;Node19 -->
<g id="edge38_Node000001_Node000019" class="edge">
<title>Node1&#45;&gt;Node19</title>
<g id="a_edge38_Node000001_Node000019"><a xlink:title=" ">
<path fill="none" stroke="#63b8ff" d="M522,-409.59C522,-402.97 522,-393.97 522,-385.77"/>
<polygon fill="#63b8ff" stroke="#63b8ff" points="525.5,-385.84 522,-375.84 518.5,-385.84 525.5,-385.84"/>
</a>
</g>
</g>
<!-- Node20 -->
<g id="Node000020" class="node">
<title>Node20</title>
<g id="a_Node000020"><a xlink:href="iface__vlcb_8h.html" target="_top" xlink:title=" ">
<polygon fill="white" stroke="#666666" points="761.25,-374 686.75,-374 686.75,-353.25 761.25,-353.25 761.25,-374"/>
<text text-anchor="middle" x="724" y="-360.5" font-family="Helvetica,sans-Serif" font-size="10.00">iface_vlcb.h</text>
</a>
</g>
</g>
<!-- Node1&#45;&gt;Node20 -->
<g id="edge41_Node000001_Node000020" class="edge">
<title>Node1&#45;&gt;Node20</title>
<g id="a_edge41_Node000001_Node000020"><a xlink:title=" ">
<path fill="none" stroke="#63b8ff" d="M546.37,-412.77C578.5,-404.06 635.73,-388.55 676.55,-377.49"/>
<polygon fill="#63b8ff" stroke="#63b8ff" points="677.4,-380.88 686.13,-374.89 675.57,-374.13 677.4,-380.88"/>
</a>
</g>
</g>
<!-- Node21 -->
<g id="Node000021" class="node">
<title>Node21</title>
<g id="a_Node000021"><a xlink:href="log_8h.html" target="_top" xlink:title=" ">
<polygon fill="white" stroke="#666666" points="966.12,-317.25 857.88,-317.25 857.88,-296.5 966.12,-296.5 966.12,-317.25"/>
<text text-anchor="middle" x="912" y="-303.75" font-family="Helvetica,sans-Serif" font-size="10.00">vlcb/platform/log.h</text>
</a>
</g>
</g>
<!-- Node1&#45;&gt;Node21 -->
<g id="edge46_Node000001_Node000021" class="edge">
<title>Node1&#45;&gt;Node21</title>
<g id="a_edge46_Node000001_Node000021"><a xlink:title=" ">
<path fill="none" stroke="#63b8ff" d="M546.44,-416.99C591.5,-412.14 690.34,-399.37 770,-374 811.59,-360.75 856.84,-338.13 884.82,-323.09"/>
<polygon fill="#63b8ff" stroke="#63b8ff" points="886.22,-326.31 893.32,-318.45 882.87,-320.16 886.22,-326.31"/>
</a>
</g>
</g>
<!-- Node3 -->
<g id="Node000003" class="node">
<title>Node3</title>
<g id="a_Node000003"><a xlink:title=" ">
<polygon fill="#e0e0e0" stroke="#999999" points="591.5,-77.5 530.5,-77.5 530.5,-56.75 591.5,-56.75 591.5,-77.5"/>
<text text-anchor="middle" x="561" y="-64" font-family="Helvetica,sans-Serif" font-size="10.00">stdbool.h</text>
</a>
</g>
</g>
<!-- Node2&#45;&gt;Node3 -->
<g id="edge2_Node000002_Node000003" class="edge">
<title>Node2&#45;&gt;Node3</title>
<g id="a_edge2_Node000002_Node000003"><a xlink:title=" ">
<path fill="none" stroke="#63b8ff" d="M530.29,-296.26C535.04,-261.02 551.54,-138.39 558.19,-88.99"/>
<polygon fill="#63b8ff" stroke="#63b8ff" points="561.62,-89.74 559.49,-79.36 554.69,-88.8 561.62,-89.74"/>
</a>
</g>
</g>
<!-- Node2&#45;&gt;Node4 -->
<g id="edge3_Node000002_Node000004" class="edge">
<title>Node2&#45;&gt;Node4</title>
<g id="a_edge3_Node000002_Node000004"><a xlink:title=" ">
<path fill="none" stroke="#63b8ff" d="M545.09,-296.09C558.53,-287.91 577.93,-276.11 593.49,-266.65"/>
<polygon fill="#63b8ff" stroke="#63b8ff" points="595.03,-269.8 601.76,-261.62 591.39,-263.82 595.03,-269.8"/>
</a>
</g>
</g>
<!-- Node2&#45;&gt;Node15 -->
<g id="edge22_Node000002_Node000015" class="edge">
<title>Node2&#45;&gt;Node15</title>
<g id="a_edge22_Node000002_Node000015"><a xlink:title=" ">
<path fill="none" stroke="#63b8ff" d="M509.16,-296.09C492.11,-287.68 467.28,-275.43 447.84,-265.84"/>
<polygon fill="#63b8ff" stroke="#63b8ff" points="449.55,-262.78 439.03,-261.5 446.45,-269.06 449.55,-262.78"/>
</a>
</g>
</g>
<!-- Node4&#45;&gt;Node3 -->
<g id="edge5_Node000004_Node000003" class="edge">
<title>Node4&#45;&gt;Node3</title>
<g id="a_edge5_Node000004_Node000003"><a xlink:title=" ">
<path fill="none" stroke="#63b8ff" d="M615.88,-239.39C606.77,-210.97 580.07,-127.65 567.58,-88.67"/>
<polygon fill="#63b8ff" stroke="#63b8ff" points="570.98,-87.8 564.6,-79.35 564.31,-89.94 570.98,-87.8"/>
</a>
</g>
</g>
<!-- Node5 -->
<g id="Node000005" class="node">
<title>Node5</title>
<g id="a_Node000005"><a xlink:title=" ">
<polygon fill="#e0e0e0" stroke="#999999" points="839.38,-77.5 774.62,-77.5 774.62,-56.75 839.38,-56.75 839.38,-77.5"/>
<text text-anchor="middle" x="807" y="-64" font-family="Helvetica,sans-Serif" font-size="10.00">inttypes.h</text>
</a>
</g>
</g>
<!-- Node4&#45;&gt;Node5 -->
<g id="edge4_Node000004_Node000005" class="edge">
<title>Node4&#45;&gt;Node5</title>
<g id="a_edge4_Node000004_Node000005"><a xlink:title=" ">
<path fill="none" stroke="#63b8ff" d="M650.07,-248.86C700.32,-247.33 801.53,-239.59 878,-203.75 921.26,-183.48 939.92,-177.6 960,-134.25 981.09,-88.73 903.43,-74.53 851.11,-70.12"/>
<polygon fill="#63b8ff" stroke="#63b8ff" points="851.46,-66.63 841.23,-69.38 850.95,-73.61 851.46,-66.63"/>
</a>
</g>
</g>
<!-- Node6 -->
<g id="Node000006" class="node">
<title>Node6</title>
<g id="a_Node000006"><a xlink:href="error_8h.html" target="_top" xlink:title=" ">
<polygon fill="white" stroke="#666666" points="950.88,-134.25 835.12,-134.25 835.12,-113.5 950.88,-113.5 950.88,-134.25"/>
<text text-anchor="middle" x="893" y="-120.75" font-family="Helvetica,sans-Serif" font-size="10.00">vlcb/platform/error.h</text>
</a>
</g>
</g>
<!-- Node4&#45;&gt;Node6 -->
<g id="edge6_Node000004_Node000006" class="edge">
<title>Node4&#45;&gt;Node6</title>
<g id="a_edge6_Node000004_Node000006"><a xlink:title=" ">
<path fill="none" stroke="#63b8ff" d="M650.18,-246.35C705.86,-240.85 819.5,-227.07 851,-203.75 870.24,-189.51 881.54,-163.78 887.49,-145.58"/>
<polygon fill="#63b8ff" stroke="#63b8ff" points="890.81,-146.7 890.29,-136.12 884.1,-144.72 890.81,-146.7"/>
</a>
</g>
</g>
<!-- Node7 -->
<g id="Node000007" class="node">
<title>Node7</title>
<g id="a_Node000007"><a xlink:href="interface_8h.html" target="_top" xlink:title=" ">
<polygon fill="white" stroke="#666666" points="240.38,-197.38 103.62,-197.38 103.62,-176.62 240.38,-176.62 240.38,-197.38"/>
<text text-anchor="middle" x="172" y="-183.88" font-family="Helvetica,sans-Serif" font-size="10.00">vlcb/platform/interface.h</text>
</a>
</g>
</g>
<!-- Node4&#45;&gt;Node7 -->
<g id="edge7_Node000004_Node000007" class="edge">
<title>Node4&#45;&gt;Node7</title>
<g id="a_edge7_Node000004_Node000007"><a xlink:title=" ">
<path fill="none" stroke="#63b8ff" d="M587.69,-246.14C523.8,-239.85 373.87,-224.14 249,-203.75 242.28,-202.65 235.25,-201.38 228.29,-200.05"/>
<polygon fill="#63b8ff" stroke="#63b8ff" points="229.06,-196.64 218.57,-198.14 227.71,-203.5 229.06,-196.64"/>
</a>
</g>
</g>
<!-- Node9 -->
<g id="Node000009" class="node">
<title>Node9</title>
<g id="a_Node000009"><a xlink:href="packet_8h.html" target="_top" xlink:title=" ">
<polygon fill="white" stroke="#666666" points="744,-197.38 626,-197.38 626,-176.62 744,-176.62 744,-197.38"/>
<text text-anchor="middle" x="685" y="-183.88" font-family="Helvetica,sans-Serif" font-size="10.00">adapter/can/packet.h</text>
</a>
</g>
</g>
<!-- Node4&#45;&gt;Node9 -->
<g id="edge9_Node000004_Node000009" class="edge">
<title>Node4&#45;&gt;Node9</title>
<g id="a_edge9_Node000004_Node000009"><a xlink:title=" ">
<path fill="none" stroke="#63b8ff" d="M629.6,-239.3C639.48,-230.16 654.41,-216.33 666.29,-205.33"/>
<polygon fill="#63b8ff" stroke="#63b8ff" points="668.57,-207.99 673.53,-198.62 663.81,-202.85 668.57,-207.99"/>
</a>
</g>
</g>
<!-- Node13 -->
<g id="Node000013" class="node">
<title>Node13</title>
<g id="a_Node000013"><a xlink:href="addr_8h.html" target="_top" xlink:title=" ">
<polygon fill="white" stroke="#666666" points="532,-197.38 444,-197.38 444,-176.62 532,-176.62 532,-197.38"/>
<text text-anchor="middle" x="488" y="-183.88" font-family="Helvetica,sans-Serif" font-size="10.00">vlcb/net/addr.h</text>
</a>
</g>
</g>
<!-- Node4&#45;&gt;Node13 -->
<g id="edge17_Node000004_Node000013" class="edge">
<title>Node4&#45;&gt;Node13</title>
<g id="a_edge17_Node000004_Node000013"><a xlink:title=" ">
<path fill="none" stroke="#63b8ff" d="M597.95,-239.3C576.66,-229.37 543.49,-213.89 519.15,-202.54"/>
<polygon fill="#63b8ff" stroke="#63b8ff" points="520.91,-199.49 510.37,-198.44 517.95,-205.84 520.91,-199.49"/>
</a>
</g>
</g>
<!-- Node7&#45;&gt;Node8 -->
<g id="edge8_Node000007_Node000008" class="edge">
<title>Node7&#45;&gt;Node8</title>
<g id="a_edge8_Node000007_Node000008"><a xlink:title=" ">
<path fill="none" stroke="#63b8ff" d="M164.29,-176.18C157.39,-167.39 147.09,-154.28 138.63,-143.51"/>
<polygon fill="#63b8ff" stroke="#63b8ff" points="141.4,-141.36 132.47,-135.66 135.89,-145.69 141.4,-141.36"/>
</a>
</g>
</g>
<!-- Node9&#45;&gt;Node3 -->
<g id="edge10_Node000009_Node000003" class="edge">
<title>Node9&#45;&gt;Node3</title>
<g id="a_edge10_Node000009_Node000003"><a xlink:title=" ">
<path fill="none" stroke="#63b8ff" d="M671.25,-176.13C657.7,-166.15 636.67,-150.01 620,-134.25 603.83,-118.96 587.1,-99.84 575.6,-86.1"/>
<polygon fill="#63b8ff" stroke="#63b8ff" points="578.58,-84.21 569.52,-78.73 573.18,-88.67 578.58,-84.21"/>
</a>
</g>
</g>
<!-- Node10 -->
<g id="Node000010" class="node">
<title>Node10</title>
<g id="a_Node000010"><a xlink:href="common_2inc_2vlcb_2common_2can_8h.html" target="_top" xlink:title=" ">
<polygon fill="white" stroke="#666666" points="740.62,-134.25 629.38,-134.25 629.38,-113.5 740.62,-113.5 740.62,-134.25"/>
<text text-anchor="middle" x="685" y="-120.75" font-family="Helvetica,sans-Serif" font-size="10.00">vlcb/common/can.h</text>
</a>
</g>
</g>
<!-- Node9&#45;&gt;Node10 -->
<g id="edge11_Node000009_Node000010" class="edge">
<title>Node9&#45;&gt;Node10</title>
<g id="a_edge11_Node000009_Node000010"><a xlink:title=" ">
<path fill="none" stroke="#63b8ff" d="M685,-176.18C685,-168.02 685,-156.13 685,-145.85"/>
<polygon fill="#63b8ff" stroke="#63b8ff" points="688.5,-145.98 685,-135.98 681.5,-145.98 688.5,-145.98"/>
</a>
</g>
</g>
<!-- Node10&#45;&gt;Node3 -->
<g id="edge13_Node000010_Node000003" class="edge">
<title>Node10&#45;&gt;Node3</title>
<g id="a_edge13_Node000010_Node000003"><a xlink:title=" ">
<path fill="none" stroke="#63b8ff" d="M662.83,-113.09C643.52,-104.56 615.28,-92.09 593.43,-82.44"/>
<polygon fill="#63b8ff" stroke="#63b8ff" points="594.92,-79.28 584.36,-78.44 592.1,-85.68 594.92,-79.28"/>
</a>
</g>
</g>
<!-- Node10&#45;&gt;Node5 -->
<g id="edge12_Node000010_Node000005" class="edge">
<title>Node10&#45;&gt;Node5</title>
<g id="a_edge12_Node000010_Node000005"><a xlink:title=" ">
<path fill="none" stroke="#63b8ff" d="M706.81,-113.09C725.81,-104.56 753.6,-92.09 775.09,-82.44"/>
<polygon fill="#63b8ff" stroke="#63b8ff" points="776.31,-85.74 784,-78.45 773.44,-79.35 776.31,-85.74"/>
</a>
</g>
</g>
<!-- Node10&#45;&gt;Node11 -->
<g id="edge14_Node000010_Node000011" class="edge">
<title>Node10&#45;&gt;Node11</title>
<g id="a_edge14_Node000010_Node000011"><a xlink:title=" ">
<path fill="none" stroke="#63b8ff" d="M675.63,-113.16C661.06,-98.63 631.45,-71.37 601,-56.75 549.81,-32.16 484.54,-20.48 444.01,-15.24"/>
<polygon fill="#63b8ff" stroke="#63b8ff" points="444.62,-11.79 434.27,-14.06 443.77,-18.74 444.62,-11.79"/>
</a>
</g>
</g>
<!-- Node12 -->
<g id="Node000012" class="node">
<title>Node12</title>
<g id="a_Node000012"><a xlink:href="opcode_8h.html" target="_top" xlink:title=" ">
<polygon fill="white" stroke="#666666" points="715.12,-77.5 654.88,-77.5 654.88,-56.75 715.12,-56.75 715.12,-77.5"/>
<text text-anchor="middle" x="685" y="-64" font-family="Helvetica,sans-Serif" font-size="10.00">opcode.h</text>
</a>
</g>
</g>
<!-- Node10&#45;&gt;Node12 -->
<g id="edge15_Node000010_Node000012" class="edge">
<title>Node10&#45;&gt;Node12</title>
<g id="a_edge15_Node000010_Node000012"><a xlink:title=" ">
<path fill="none" stroke="#63b8ff" d="M685,-113.09C685,-106.47 685,-97.47 685,-89.27"/>
<polygon fill="#63b8ff" stroke="#63b8ff" points="688.5,-89.34 685,-79.34 681.5,-89.34 688.5,-89.34"/>
</a>
</g>
</g>
<!-- Node12&#45;&gt;Node11 -->
<g id="edge16_Node000012_Node000011" class="edge">
<title>Node12&#45;&gt;Node11</title>
<g id="a_edge16_Node000012_Node000011"><a xlink:title=" ">
<path fill="none" stroke="#63b8ff" d="M654.82,-59.94C649.55,-58.87 644.12,-57.77 639,-56.75 570.22,-43.04 489.91,-27.51 443.81,-18.63"/>
<polygon fill="#63b8ff" stroke="#63b8ff" points="444.54,-15.21 434.06,-16.76 443.22,-22.08 444.54,-15.21"/>
</a>
</g>
</g>
<!-- Node13&#45;&gt;Node10 -->
<g id="edge18_Node000013_Node000010" class="edge">
<title>Node13&#45;&gt;Node10</title>
<g id="a_edge18_Node000013_Node000010"><a xlink:title=" ">
<path fill="none" stroke="#63b8ff" d="M519.65,-176.18C552.97,-165.84 605.6,-149.51 642.51,-138.06"/>
<polygon fill="#63b8ff" stroke="#63b8ff" points="643.47,-141.43 651.98,-135.12 641.39,-134.74 643.47,-141.43"/>
</a>
</g>
</g>
<!-- Node13&#45;&gt;Node11 -->
<g id="edge21_Node000013_Node000011" class="edge">
<title>Node13&#45;&gt;Node11</title>
<g id="a_edge21_Node000013_Node000011"><a xlink:title=" ">
<path fill="none" stroke="#63b8ff" d="M472.84,-176.24C448.43,-159.49 401.29,-122.7 383,-77.5 376.67,-61.85 383.97,-43.72 391.99,-30.41"/>
<polygon fill="#63b8ff" stroke="#63b8ff" points="394.85,-32.43 397.48,-22.16 389.02,-28.55 394.85,-32.43"/>
</a>
</g>
</g>
<!-- Node14 -->
<g id="Node000014" class="node">
<title>Node14</title>
<g id="a_Node000014"><a xlink:href="time_8h.html" target="_top" xlink:title=" ">
<polygon fill="white" stroke="#666666" points="507.88,-77.5 392.12,-77.5 392.12,-56.75 507.88,-56.75 507.88,-77.5"/>
<text text-anchor="middle" x="450" y="-64" font-family="Helvetica,sans-Serif" font-size="10.00">vlcb/platform/time.h</text>
</a>
</g>
</g>
<!-- Node13&#45;&gt;Node14 -->
<g id="edge19_Node000013_Node000014" class="edge">
<title>Node13&#45;&gt;Node14</title>
<g id="a_edge19_Node000013_Node000014"><a xlink:title=" ">
<path fill="none" stroke="#63b8ff" d="M484.89,-176.35C478.74,-157.27 464.9,-114.33 456.62,-88.65"/>
<polygon fill="#63b8ff" stroke="#63b8ff" points="460.02,-87.79 453.62,-79.35 453.35,-89.94 460.02,-87.79"/>
</a>
</g>
</g>
<!-- Node14&#45;&gt;Node11 -->
<g id="edge20_Node000014_Node000011" class="edge">
<title>Node14&#45;&gt;Node11</title>
<g id="a_edge20_Node000014_Node000011"><a xlink:title=" ">
<path fill="none" stroke="#63b8ff" d="M442.13,-56.34C436.25,-49.02 428.03,-38.79 420.92,-29.94"/>
<polygon fill="#63b8ff" stroke="#63b8ff" points="423.74,-27.86 414.75,-22.26 418.28,-32.25 423.74,-27.86"/>
</a>
</g>
</g>
<!-- Node15&#45;&gt;Node3 -->
<g id="edge23_Node000015_Node000003" class="edge">
<title>Node15&#45;&gt;Node3</title>
<g id="a_edge23_Node000015_Node000003"><a xlink:title=" ">
<path fill="none" stroke="#63b8ff" d="M418.06,-239.64C418.57,-224.03 421.36,-192.45 435,-170.25 459,-131.19 503.43,-100.51 532.6,-83.35"/>
<polygon fill="#63b8ff" stroke="#63b8ff" points="533.97,-86.6 540.91,-78.6 530.49,-80.52 533.97,-86.6"/>
</a>
</g>
</g>
<!-- Node15&#45;&gt;Node7 -->
<g id="edge34_Node000015_Node000007" class="edge">
<title>Node15&#45;&gt;Node7</title>
<g id="a_edge34_Node000015_Node000007"><a xlink:title=" ">
<path fill="none" stroke="#63b8ff" d="M389.3,-241.99C348.41,-231.83 272.78,-213.04 222.42,-200.53"/>
<polygon fill="#63b8ff" stroke="#63b8ff" points="223.47,-197.18 212.92,-198.17 221.78,-203.98 223.47,-197.18"/>
</a>
</g>
</g>
<!-- Node15&#45;&gt;Node8 -->
<g id="edge24_Node000015_Node000008" class="edge">
<title>Node15&#45;&gt;Node8</title>
<g id="a_edge24_Node000015_Node000008"><a xlink:title=" ">
<path fill="none" stroke="#63b8ff" d="M389.45,-249.65C317.75,-250.31 133.13,-247.61 95,-203.75 79.98,-186.47 94.27,-160.73 107.59,-143.4"/>
<polygon fill="#63b8ff" stroke="#63b8ff" points="110.09,-145.87 113.73,-135.92 104.68,-141.43 110.09,-145.87"/>
</a>
</g>
</g>
<!-- Node15&#45;&gt;Node13 -->
<g id="edge29_Node000015_Node000013" class="edge">
<title>Node15&#45;&gt;Node13</title>
<g id="a_edge29_Node000015_Node000013"><a xlink:title=" ">
<path fill="none" stroke="#63b8ff" d="M429.25,-239.3C439.82,-230.07 455.87,-216.06 468.52,-205.01"/>
<polygon fill="#63b8ff" stroke="#63b8ff" points="470.64,-207.8 475.87,-198.59 466.04,-202.53 470.64,-207.8"/>
</a>
</g>
</g>
<!-- Node16 -->
<g id="Node000016" class="node">
<title>Node16</title>
<g id="a_Node000016"><a xlink:href="vlcb_8h.html" target="_top" xlink:title=" ">
<polygon fill="white" stroke="#666666" points="842.25,-197.38 761.75,-197.38 761.75,-176.62 842.25,-176.62 842.25,-197.38"/>
<text text-anchor="middle" x="802" y="-183.88" font-family="Helvetica,sans-Serif" font-size="10.00">packet/vlcb.h</text>
</a>
</g>
</g>
<!-- Node15&#45;&gt;Node16 -->
<g id="edge25_Node000015_Node000016" class="edge">
<title>Node15&#45;&gt;Node16</title>
<g id="a_edge25_Node000015_Node000016"><a xlink:title=" ">
<path fill="none" stroke="#63b8ff" d="M446.54,-246.97C504.74,-242.2 641.1,-229.1 753,-203.75 756.38,-202.98 759.85,-202.09 763.32,-201.12"/>
<polygon fill="#63b8ff" stroke="#63b8ff" points="764.22,-204.51 772.8,-198.29 762.22,-197.8 764.22,-204.51"/>
</a>
</g>
</g>
<!-- Node17 -->
<g id="Node000017" class="node">
<title>Node17</title>
<g id="a_Node000017"><a xlink:href="packet__buf_8h.html" target="_top" xlink:title=" ">
<polygon fill="white" stroke="#666666" points="388,-203.75 258,-203.75 258,-170.25 388,-170.25 388,-203.75"/>
<text text-anchor="start" x="266" y="-190.25" font-family="Helvetica,sans-Serif" font-size="10.00">vlcb/net/storage/packet</text>
<text text-anchor="middle" x="323" y="-177.5" font-family="Helvetica,sans-Serif" font-size="10.00">_buf.h</text>
</a>
</g>
</g>
<!-- Node15&#45;&gt;Node17 -->
<g id="edge30_Node000015_Node000017" class="edge">
<title>Node15&#45;&gt;Node17</title>
<g id="a_edge30_Node000015_Node000017"><a xlink:title=" ">
<path fill="none" stroke="#63b8ff" d="M402.74,-239.3C390.57,-231.48 373.07,-220.22 357.57,-210.24"/>
<polygon fill="#63b8ff" stroke="#63b8ff" points="359.81,-207.52 349.51,-205.05 356.02,-213.41 359.81,-207.52"/>
</a>
</g>
</g>
<!-- Node16&#45;&gt;Node5 -->
<g id="edge26_Node000016_Node000005" class="edge">
<title>Node16&#45;&gt;Node5</title>
<g id="a_edge26_Node000016_Node000005"><a xlink:title=" ">
<path fill="none" stroke="#63b8ff" d="M802.41,-176.35C803.21,-157.44 805.01,-115.11 806.1,-89.35"/>
<polygon fill="#63b8ff" stroke="#63b8ff" points="809.59,-89.56 806.52,-79.42 802.6,-89.26 809.59,-89.56"/>
</a>
</g>
</g>
<!-- Node16&#45;&gt;Node6 -->
<g id="edge28_Node000016_Node000006" class="edge">
<title>Node16&#45;&gt;Node6</title>
<g id="a_edge28_Node000016_Node000006"><a xlink:title=" ">
<path fill="none" stroke="#63b8ff" d="M816.62,-176.18C830.82,-166.64 852.6,-152.01 869.28,-140.81"/>
<polygon fill="#63b8ff" stroke="#63b8ff" points="870.81,-144 877.16,-135.52 866.91,-138.19 870.81,-144"/>
</a>
</g>
</g>
<!-- Node16&#45;&gt;Node12 -->
<g id="edge27_Node000016_Node000012" class="edge">
<title>Node16&#45;&gt;Node12</title>
<g id="a_edge27_Node000016_Node000012"><a xlink:title=" ">
<path fill="none" stroke="#63b8ff" d="M796.51,-176.29C787.88,-161.59 770.06,-133.31 750,-113.5 738.56,-102.21 724.03,-91.78 711.61,-83.77"/>
<polygon fill="#63b8ff" stroke="#63b8ff" points="713.83,-81.02 703.49,-78.7 710.12,-86.96 713.83,-81.02"/>
</a>
</g>
</g>
<!-- Node17&#45;&gt;Node3 -->
<g id="edge31_Node000017_Node000003" class="edge">
<title>Node17&#45;&gt;Node3</title>
<g id="a_edge31_Node000017_Node000003"><a xlink:title=" ">
<path fill="none" stroke="#63b8ff" d="M341.39,-169.95C360.63,-153.84 392.26,-129.21 423,-113.5 453.69,-97.81 490.95,-85.94 519.01,-78.29"/>
<polygon fill="#63b8ff" stroke="#63b8ff" points="519.81,-81.69 528.58,-75.75 518.01,-74.93 519.81,-81.69"/>
</a>
</g>
</g>
<!-- Node17&#45;&gt;Node8 -->
<g id="edge32_Node000017_Node000008" class="edge">
<title>Node17&#45;&gt;Node8</title>
<g id="a_edge32_Node000017_Node000008"><a xlink:title=" ">
<path fill="none" stroke="#63b8ff" d="M270.19,-169.78C236.35,-159.39 193.19,-146.13 162.56,-136.72"/>
<polygon fill="#63b8ff" stroke="#63b8ff" points="163.92,-133.47 153.33,-133.88 161.86,-140.17 163.92,-133.47"/>
</a>
</g>
</g>
<!-- Node17&#45;&gt;Node11 -->
<g id="edge33_Node000017_Node000011" class="edge">
<title>Node17&#45;&gt;Node11</title>
<g id="a_edge33_Node000017_Node000011"><a xlink:title=" ">
<path fill="none" stroke="#63b8ff" d="M328.63,-170.08C337.64,-145.28 356.36,-96.18 377,-56.75 381.64,-47.88 387.47,-38.49 392.69,-30.57"/>
<polygon fill="#63b8ff" stroke="#63b8ff" points="395.5,-32.67 398.19,-22.42 389.69,-28.75 395.5,-32.67"/>
</a>
</g>
</g>
<!-- Node19&#45;&gt;Node2 -->
<g id="edge40_Node000019_Node000002" class="edge">
<title>Node19&#45;&gt;Node2</title>
<g id="a_edge40_Node000019_Node000002"><a xlink:title=" ">
<path fill="none" stroke="#63b8ff" d="M523.25,-352.84C524.11,-346.14 525.27,-337.01 526.33,-328.73"/>
<polygon fill="#63b8ff" stroke="#63b8ff" points="529.77,-329.44 527.57,-319.08 522.83,-328.56 529.77,-329.44"/>
</a>
</g>
</g>
<!-- Node19&#45;&gt;Node4 -->
<g id="edge39_Node000019_Node000004" class="edge">
<title>Node19&#45;&gt;Node4</title>
<g id="a_edge39_Node000019_Node000004"><a xlink:title=" ">
<path fill="none" stroke="#63b8ff" d="M539.45,-352.85C552.89,-344.67 571.26,-331.98 584,-317.25 595.81,-303.59 605.12,-285.25 611.16,-271.36"/>
<polygon fill="#63b8ff" stroke="#63b8ff" points="614.3,-272.91 614.87,-262.33 607.83,-270.25 614.3,-272.91"/>
</a>
</g>
</g>
<!-- Node20&#45;&gt;Node2 -->
<g id="edge42_Node000020_Node000002" class="edge">
<title>Node20&#45;&gt;Node2</title>
<g id="a_edge42_Node000020_Node000002"><a xlink:title=" ">
<path fill="none" stroke="#63b8ff" d="M689.14,-352.84C657.21,-343.87 609.74,-330.54 574.77,-320.73"/>
<polygon fill="#63b8ff" stroke="#63b8ff" points="575.92,-317.41 565.35,-318.08 574.03,-324.15 575.92,-317.41"/>
</a>
</g>
</g>
<!-- Node20&#45;&gt;Node16 -->
<g id="edge43_Node000020_Node000016" class="edge">
<title>Node20&#45;&gt;Node16</title>
<g id="a_edge43_Node000020_Node000016"><a xlink:title=" ">
<path fill="none" stroke="#63b8ff" d="M728.3,-352.99C740.63,-325.38 776.27,-245.6 793.06,-208.03"/>
<polygon fill="#63b8ff" stroke="#63b8ff" points="796.11,-209.76 797,-199.2 789.72,-206.91 796.11,-209.76"/>
</a>
</g>
</g>
<!-- Node21&#45;&gt;Node6 -->
<g id="edge47_Node000021_Node000006" class="edge">
<title>Node21&#45;&gt;Node6</title>
<g id="a_edge47_Node000021_Node000006"><a xlink:title=" ">
<path fill="none" stroke="#63b8ff" d="M910.98,-296.14C908.01,-267.85 899.32,-185.12 895.21,-145.93"/>
<polygon fill="#63b8ff" stroke="#63b8ff" points="898.71,-145.74 894.18,-136.16 891.75,-146.47 898.71,-145.74"/>
</a>
</g>
</g>
</g>
</svg>
