<?xml version="1.0" encoding="UTF-8" standalone="no"?>
<!DOCTYPE svg PUBLIC "-//W3C//DTD SVG 1.1//EN"
 "http://www.w3.org/Graphics/SVG/1.1/DTD/svg11.dtd">
<!-- Generated by graphviz version 12.1.2 (20240928.0832)
 -->
<!-- Title: iface_can_svc.c Pages: 1 -->
<svg width="1012pt" height="382pt"
 viewBox="0.00 0.00 1011.88 382.00" xmlns="http://www.w3.org/2000/svg" xmlns:xlink="http://www.w3.org/1999/xlink">
<g id="graph0" class="graph" transform="scale(1 1) rotate(0) translate(4 378)">
<title>iface_can_svc.c</title>
<!-- Node1 -->
<g id="Node000001" class="node">
<title>Node1</title>
<g id="a_Node000001"><a xlink:title=" ">
<polygon fill="#999999" stroke="#666666" points="547.12,-374 454.62,-374 454.62,-353.25 547.12,-353.25 547.12,-374"/>
<text text-anchor="middle" x="500.88" y="-360.5" font-family="Helvetica,sans-Serif" font-size="10.00">iface_can_svc.c</text>
</a>
</g>
</g>
<!-- Node2 -->
<g id="Node000002" class="node">
<title>Node2</title>
<g id="a_Node000002"><a xlink:href="common_2inc_2vlcb_2common_2can_8h.html" target="_top" xlink:title=" ">
<polygon fill="white" stroke="#666666" points="321.5,-134.25 210.25,-134.25 210.25,-113.5 321.5,-113.5 321.5,-134.25"/>
<text text-anchor="middle" x="265.88" y="-120.75" font-family="Helvetica,sans-Serif" font-size="10.00">vlcb/common/can.h</text>
</a>
</g>
</g>
<!-- Node1&#45;&gt;Node2 -->
<g id="edge1_Node000001_Node000002" class="edge">
<title>Node1&#45;&gt;Node2</title>
<g id="a_edge1_Node000001_Node000002"><a xlink:title=" ">
<path fill="none" stroke="#63b8ff" d="M469.09,-352.85C414.4,-334.1 303.99,-287.34 258.88,-203.75 249.1,-185.64 253.15,-161.75 258.2,-145.02"/>
<polygon fill="#63b8ff" stroke="#63b8ff" points="261.45,-146.32 261.38,-135.73 254.83,-144.06 261.45,-146.32"/>
</a>
</g>
</g>
<!-- Node5 -->
<g id="Node000005" class="node">
<title>Node5</title>
<g id="a_Node000005"><a xlink:title=" ">
<polygon fill="#e0e0e0" stroke="#999999" points="351.25,-20.75 298.5,-20.75 298.5,0 351.25,0 351.25,-20.75"/>
<text text-anchor="middle" x="324.88" y="-7.25" font-family="Helvetica,sans-Serif" font-size="10.00">stdint.h</text>
</a>
</g>
</g>
<!-- Node1&#45;&gt;Node5 -->
<g id="edge40_Node000001_Node000005" class="edge">
<title>Node1&#45;&gt;Node5</title>
<g id="a_edge40_Node000001_Node000005"><a xlink:title=" ">
<path fill="none" stroke="#63b8ff" d="M547.29,-362.15C671.82,-359.62 1003.88,-344.15 1003.88,-251.12 1003.88,-251.12 1003.88,-251.12 1003.88,-122.88 1003.88,-57.37 505.45,-22.26 362.67,-13.55"/>
<polygon fill="#63b8ff" stroke="#63b8ff" points="363.2,-10.08 353,-12.97 362.78,-17.06 363.2,-10.08"/>
</a>
</g>
</g>
<!-- Node7 -->
<g id="Node000007" class="node">
<title>Node7</title>
<g id="a_Node000007"><a xlink:href="adapter_8h.html" target="_top" xlink:title=" ">
<polygon fill="white" stroke="#666666" points="552.75,-260.5 449,-260.5 449,-239.75 552.75,-239.75 552.75,-260.5"/>
<text text-anchor="middle" x="500.88" y="-247" font-family="Helvetica,sans-Serif" font-size="10.00">vlcb/net/adapter.h</text>
</a>
</g>
</g>
<!-- Node1&#45;&gt;Node7 -->
<g id="edge7_Node000001_Node000007" class="edge">
<title>Node1&#45;&gt;Node7</title>
<g id="a_edge7_Node000001_Node000007"><a xlink:title=" ">
<path fill="none" stroke="#63b8ff" d="M500.88,-353.12C500.88,-335.35 500.88,-296.72 500.88,-272.43"/>
<polygon fill="#63b8ff" stroke="#63b8ff" points="504.38,-272.44 500.88,-262.44 497.38,-272.44 504.38,-272.44"/>
</a>
</g>
</g>
<!-- Node9 -->
<g id="Node000009" class="node">
<title>Node9</title>
<g id="a_Node000009"><a xlink:href="interface_8h.html" target="_top" xlink:title=" ">
<polygon fill="white" stroke="#666666" points="752.25,-197.38 615.5,-197.38 615.5,-176.62 752.25,-176.62 752.25,-197.38"/>
<text text-anchor="middle" x="683.88" y="-183.88" font-family="Helvetica,sans-Serif" font-size="10.00">vlcb/platform/interface.h</text>
</a>
</g>
</g>
<!-- Node1&#45;&gt;Node9 -->
<g id="edge38_Node000001_Node000009" class="edge">
<title>Node1&#45;&gt;Node9</title>
<g id="a_edge38_Node000001_Node000009"><a xlink:title=" ">
<path fill="none" stroke="#63b8ff" d="M547.45,-358.51C578.02,-353.45 616.84,-342.22 641.88,-317.25 671.43,-287.78 680.19,-237.32 682.79,-208.95"/>
<polygon fill="#63b8ff" stroke="#63b8ff" points="686.27,-209.36 683.49,-199.13 679.29,-208.86 686.27,-209.36"/>
</a>
</g>
</g>
<!-- Node12 -->
<g id="Node000012" class="node">
<title>Node12</title>
<g id="a_Node000012"><a xlink:href="addr_8h.html" target="_top" xlink:title=" ">
<polygon fill="white" stroke="#666666" points="173.88,-197.38 85.88,-197.38 85.88,-176.62 173.88,-176.62 173.88,-197.38"/>
<text text-anchor="middle" x="129.88" y="-183.88" font-family="Helvetica,sans-Serif" font-size="10.00">vlcb/net/addr.h</text>
</a>
</g>
</g>
<!-- Node1&#45;&gt;Node12 -->
<g id="edge21_Node000001_Node000012" class="edge">
<title>Node1&#45;&gt;Node12</title>
<g id="a_edge21_Node000001_Node000012"><a xlink:title=" ">
<path fill="none" stroke="#63b8ff" d="M454.37,-359.17C386.26,-353.4 263.42,-340.15 225.88,-317.25 182.69,-290.91 152.59,-237.22 138.65,-208.01"/>
<polygon fill="#63b8ff" stroke="#63b8ff" points="141.95,-206.8 134.59,-199.17 135.58,-209.72 141.95,-206.8"/>
</a>
</g>
</g>
<!-- Node13 -->
<g id="Node000013" class="node">
<title>Node13</title>
<g id="a_Node000013"><a xlink:href="time_8h.html" target="_top" xlink:title=" ">
<polygon fill="white" stroke="#666666" points="115.75,-134.25 0,-134.25 0,-113.5 115.75,-113.5 115.75,-134.25"/>
<text text-anchor="middle" x="57.88" y="-120.75" font-family="Helvetica,sans-Serif" font-size="10.00">vlcb/platform/time.h</text>
</a>
</g>
</g>
<!-- Node1&#45;&gt;Node13 -->
<g id="edge39_Node000001_Node000013" class="edge">
<title>Node1&#45;&gt;Node13</title>
<g id="a_edge39_Node000001_Node000013"><a xlink:title=" ">
<path fill="none" stroke="#63b8ff" d="M454.24,-359.1C380.63,-352.96 241.32,-338.88 196.88,-317.25 130.86,-285.13 113.66,-267.28 76.88,-203.75 66.41,-185.68 61.7,-162.1 59.58,-145.44"/>
<polygon fill="#63b8ff" stroke="#63b8ff" points="63.09,-145.35 58.57,-135.76 56.13,-146.07 63.09,-145.35"/>
</a>
</g>
</g>
<!-- Node14 -->
<g id="Node000014" class="node">
<title>Node14</title>
<g id="a_Node000014"><a xlink:href="iface_8h.html" target="_top" xlink:title=" ">
<polygon fill="white" stroke="#666666" points="632.38,-317.25 541.38,-317.25 541.38,-296.5 632.38,-296.5 632.38,-317.25"/>
<text text-anchor="middle" x="586.88" y="-303.75" font-family="Helvetica,sans-Serif" font-size="10.00">vlcb/net/iface.h</text>
</a>
</g>
</g>
<!-- Node1&#45;&gt;Node14 -->
<g id="edge22_Node000001_Node000014" class="edge">
<title>Node1&#45;&gt;Node14</title>
<g id="a_edge22_Node000001_Node000014"><a xlink:title=" ">
<path fill="none" stroke="#63b8ff" d="M516.25,-352.84C528.97,-344.74 547.28,-333.08 562.07,-323.67"/>
<polygon fill="#63b8ff" stroke="#63b8ff" points="563.8,-326.71 570.36,-318.39 560.04,-320.81 563.8,-326.71"/>
</a>
</g>
</g>
<!-- Node3 -->
<g id="Node000003" class="node">
<title>Node3</title>
<g id="a_Node000003"><a xlink:title=" ">
<polygon fill="#e0e0e0" stroke="#999999" points="268.25,-77.5 203.5,-77.5 203.5,-56.75 268.25,-56.75 268.25,-77.5"/>
<text text-anchor="middle" x="235.88" y="-64" font-family="Helvetica,sans-Serif" font-size="10.00">inttypes.h</text>
</a>
</g>
</g>
<!-- Node2&#45;&gt;Node3 -->
<g id="edge2_Node000002_Node000003" class="edge">
<title>Node2&#45;&gt;Node3</title>
<g id="a_edge2_Node000002_Node000003"><a xlink:title=" ">
<path fill="none" stroke="#63b8ff" d="M260.51,-113.09C256.67,-106.08 251.37,-96.41 246.67,-87.83"/>
<polygon fill="#63b8ff" stroke="#63b8ff" points="249.79,-86.24 241.92,-79.16 243.66,-89.61 249.79,-86.24"/>
</a>
</g>
</g>
<!-- Node4 -->
<g id="Node000004" class="node">
<title>Node4</title>
<g id="a_Node000004"><a xlink:title=" ">
<polygon fill="#e0e0e0" stroke="#999999" points="647.38,-77.5 586.38,-77.5 586.38,-56.75 647.38,-56.75 647.38,-77.5"/>
<text text-anchor="middle" x="616.88" y="-64" font-family="Helvetica,sans-Serif" font-size="10.00">stdbool.h</text>
</a>
</g>
</g>
<!-- Node2&#45;&gt;Node4 -->
<g id="edge3_Node000002_Node000004" class="edge">
<title>Node2&#45;&gt;Node4</title>
<g id="a_edge3_Node000002_Node000004"><a xlink:title=" ">
<path fill="none" stroke="#63b8ff" d="M321.88,-114.14C392.39,-103.14 511.92,-84.5 575.01,-74.66"/>
<polygon fill="#63b8ff" stroke="#63b8ff" points="575.27,-78.16 584.61,-73.16 574.19,-71.24 575.27,-78.16"/>
</a>
</g>
</g>
<!-- Node2&#45;&gt;Node5 -->
<g id="edge4_Node000002_Node000005" class="edge">
<title>Node2&#45;&gt;Node5</title>
<g id="a_edge4_Node000002_Node000005"><a xlink:title=" ">
<path fill="none" stroke="#63b8ff" d="M270.91,-113.37C280.48,-95.27 301.51,-55.53 314.31,-31.35"/>
<polygon fill="#63b8ff" stroke="#63b8ff" points="317.4,-32.99 318.98,-22.51 311.21,-29.71 317.4,-32.99"/>
</a>
</g>
</g>
<!-- Node6 -->
<g id="Node000006" class="node">
<title>Node6</title>
<g id="a_Node000006"><a xlink:href="opcode_8h.html" target="_top" xlink:title=" ">
<polygon fill="white" stroke="#666666" points="384,-77.5 323.75,-77.5 323.75,-56.75 384,-56.75 384,-77.5"/>
<text text-anchor="middle" x="353.88" y="-64" font-family="Helvetica,sans-Serif" font-size="10.00">opcode.h</text>
</a>
</g>
</g>
<!-- Node2&#45;&gt;Node6 -->
<g id="edge5_Node000002_Node000006" class="edge">
<title>Node2&#45;&gt;Node6</title>
<g id="a_edge5_Node000002_Node000006"><a xlink:title=" ">
<path fill="none" stroke="#63b8ff" d="M281.61,-113.09C294.75,-104.91 313.72,-93.11 328.93,-83.65"/>
<polygon fill="#63b8ff" stroke="#63b8ff" points="330.35,-86.88 336.99,-78.63 326.65,-80.94 330.35,-86.88"/>
</a>
</g>
</g>
<!-- Node6&#45;&gt;Node5 -->
<g id="edge6_Node000006_Node000005" class="edge">
<title>Node6&#45;&gt;Node5</title>
<g id="a_edge6_Node000006_Node000005"><a xlink:title=" ">
<path fill="none" stroke="#63b8ff" d="M348.69,-56.34C344.98,-49.33 339.86,-39.66 335.31,-31.08"/>
<polygon fill="#63b8ff" stroke="#63b8ff" points="338.5,-29.61 330.72,-22.42 332.31,-32.89 338.5,-29.61"/>
</a>
</g>
</g>
<!-- Node7&#45;&gt;Node3 -->
<g id="edge8_Node000007_Node000003" class="edge">
<title>Node7&#45;&gt;Node3</title>
<g id="a_edge8_Node000007_Node000003"><a xlink:title=" ">
<path fill="none" stroke="#63b8ff" d="M448.71,-249.34C397.16,-247.36 317.69,-238.24 258.88,-203.75 224.17,-183.4 214.58,-172.07 200.88,-134.25 194.62,-116.99 205.95,-98.62 217.34,-85.64"/>
<polygon fill="#63b8ff" stroke="#63b8ff" points="219.61,-88.34 223.99,-78.69 214.55,-83.5 219.61,-88.34"/>
</a>
</g>
</g>
<!-- Node7&#45;&gt;Node4 -->
<g id="edge9_Node000007_Node000004" class="edge">
<title>Node7&#45;&gt;Node4</title>
<g id="a_edge9_Node000007_Node000004"><a xlink:title=" ">
<path fill="none" stroke="#63b8ff" d="M507.8,-239.45C521.74,-219.89 553.94,-174.1 578.88,-134.25 588.53,-118.82 598.78,-100.89 606.19,-87.59"/>
<polygon fill="#63b8ff" stroke="#63b8ff" points="609.17,-89.44 610.95,-79 603.04,-86.05 609.17,-89.44"/>
</a>
</g>
</g>
<!-- Node8 -->
<g id="Node000008" class="node">
<title>Node8</title>
<g id="a_Node000008"><a xlink:href="error_8h.html" target="_top" xlink:title=" ">
<polygon fill="white" stroke="#666666" points="569.75,-134.25 454,-134.25 454,-113.5 569.75,-113.5 569.75,-134.25"/>
<text text-anchor="middle" x="511.88" y="-120.75" font-family="Helvetica,sans-Serif" font-size="10.00">vlcb/platform/error.h</text>
</a>
</g>
</g>
<!-- Node7&#45;&gt;Node8 -->
<g id="edge10_Node000007_Node000008" class="edge">
<title>Node7&#45;&gt;Node8</title>
<g id="a_edge10_Node000007_Node000008"><a xlink:title=" ">
<path fill="none" stroke="#63b8ff" d="M501.74,-239.38C503.51,-219.32 507.61,-173.07 510.02,-145.88"/>
<polygon fill="#63b8ff" stroke="#63b8ff" points="513.49,-146.36 510.88,-136.09 506.51,-145.74 513.49,-146.36"/>
</a>
</g>
</g>
<!-- Node7&#45;&gt;Node9 -->
<g id="edge11_Node000007_Node000009" class="edge">
<title>Node7&#45;&gt;Node9</title>
<g id="a_edge11_Node000007_Node000009"><a xlink:title=" ">
<path fill="none" stroke="#63b8ff" d="M530.28,-239.3C561.09,-229.01 609.7,-212.78 643.96,-201.33"/>
<polygon fill="#63b8ff" stroke="#63b8ff" points="644.73,-204.76 653.11,-198.28 642.52,-198.12 644.73,-204.76"/>
</a>
</g>
</g>
<!-- Node11 -->
<g id="Node000011" class="node">
<title>Node11</title>
<g id="a_Node000011"><a xlink:href="packet_8h.html" target="_top" xlink:title=" ">
<polygon fill="white" stroke="#666666" points="385.88,-197.38 267.88,-197.38 267.88,-176.62 385.88,-176.62 385.88,-197.38"/>
<text text-anchor="middle" x="326.88" y="-183.88" font-family="Helvetica,sans-Serif" font-size="10.00">adapter/can/packet.h</text>
</a>
</g>
</g>
<!-- Node7&#45;&gt;Node11 -->
<g id="edge13_Node000007_Node000011" class="edge">
<title>Node7&#45;&gt;Node11</title>
<g id="a_edge13_Node000007_Node000011"><a xlink:title=" ">
<path fill="none" stroke="#63b8ff" d="M472.92,-239.3C443.75,-229.06 397.8,-212.92 365.25,-201.48"/>
<polygon fill="#63b8ff" stroke="#63b8ff" points="366.78,-198.31 356.19,-198.3 364.46,-204.91 366.78,-198.31"/>
</a>
</g>
</g>
<!-- Node7&#45;&gt;Node12 -->
<g id="edge16_Node000007_Node000012" class="edge">
<title>Node7&#45;&gt;Node12</title>
<g id="a_edge16_Node000007_Node000012"><a xlink:title=" ">
<path fill="none" stroke="#63b8ff" d="M448.75,-243.53C386.36,-236.38 278.87,-222.63 187.88,-203.75 183.52,-202.85 179,-201.81 174.5,-200.7"/>
<polygon fill="#63b8ff" stroke="#63b8ff" points="175.47,-197.33 164.91,-198.23 173.72,-204.11 175.47,-197.33"/>
</a>
</g>
</g>
<!-- Node10 -->
<g id="Node000010" class="node">
<title>Node10</title>
<g id="a_Node000010"><a xlink:title=" ">
<polygon fill="#e0e0e0" stroke="#999999" points="807.38,-134.25 752.38,-134.25 752.38,-113.5 807.38,-113.5 807.38,-134.25"/>
<text text-anchor="middle" x="779.88" y="-120.75" font-family="Helvetica,sans-Serif" font-size="10.00">stddef.h</text>
</a>
</g>
</g>
<!-- Node9&#45;&gt;Node10 -->
<g id="edge12_Node000009_Node000010" class="edge">
<title>Node9&#45;&gt;Node10</title>
<g id="a_edge12_Node000009_Node000010"><a xlink:title=" ">
<path fill="none" stroke="#63b8ff" d="M699.3,-176.18C714.27,-166.64 737.26,-152.01 754.85,-140.81"/>
<polygon fill="#63b8ff" stroke="#63b8ff" points="756.66,-143.81 763.21,-135.48 752.9,-137.9 756.66,-143.81"/>
</a>
</g>
</g>
<!-- Node11&#45;&gt;Node2 -->
<g id="edge15_Node000011_Node000002" class="edge">
<title>Node11&#45;&gt;Node2</title>
<g id="a_edge15_Node000011_Node000002"><a xlink:title=" ">
<path fill="none" stroke="#63b8ff" d="M317.07,-176.18C308.04,-167.13 294.42,-153.47 283.49,-142.53"/>
<polygon fill="#63b8ff" stroke="#63b8ff" points="286.06,-140.15 276.52,-135.54 281.11,-145.09 286.06,-140.15"/>
</a>
</g>
</g>
<!-- Node11&#45;&gt;Node4 -->
<g id="edge14_Node000011_Node000004" class="edge">
<title>Node11&#45;&gt;Node4</title>
<g id="a_edge14_Node000011_Node000004"><a xlink:title=" ">
<path fill="none" stroke="#63b8ff" d="M339.98,-176.15C361.04,-160.75 404.2,-130.91 444.88,-113.5 487.66,-95.19 539.67,-82.71 575.22,-75.55"/>
<polygon fill="#63b8ff" stroke="#63b8ff" points="575.53,-79.05 584.67,-73.7 574.18,-72.18 575.53,-79.05"/>
</a>
</g>
</g>
<!-- Node12&#45;&gt;Node2 -->
<g id="edge17_Node000012_Node000002" class="edge">
<title>Node12&#45;&gt;Node2</title>
<g id="a_edge17_Node000012_Node000002"><a xlink:title=" ">
<path fill="none" stroke="#63b8ff" d="M151.73,-176.18C173.93,-166.2 208.57,-150.63 233.87,-139.26"/>
<polygon fill="#63b8ff" stroke="#63b8ff" points="235.01,-142.58 242.7,-135.29 232.14,-136.2 235.01,-142.58"/>
</a>
</g>
</g>
<!-- Node12&#45;&gt;Node5 -->
<g id="edge20_Node000012_Node000005" class="edge">
<title>Node12&#45;&gt;Node5</title>
<g id="a_edge20_Node000012_Node000005"><a xlink:title=" ">
<path fill="none" stroke="#63b8ff" d="M132.06,-176.35C137.95,-152.56 156.36,-90.55 194.88,-56.75 220.85,-33.95 258.95,-22.43 287.2,-16.72"/>
<polygon fill="#63b8ff" stroke="#63b8ff" points="287.57,-20.21 296.76,-14.96 286.29,-13.33 287.57,-20.21"/>
</a>
</g>
</g>
<!-- Node12&#45;&gt;Node13 -->
<g id="edge18_Node000012_Node000013" class="edge">
<title>Node12&#45;&gt;Node13</title>
<g id="a_edge18_Node000012_Node000013"><a xlink:title=" ">
<path fill="none" stroke="#63b8ff" d="M118.31,-176.18C107.43,-166.95 90.92,-152.93 77.91,-141.88"/>
<polygon fill="#63b8ff" stroke="#63b8ff" points="80.22,-139.25 70.33,-135.45 75.69,-144.59 80.22,-139.25"/>
</a>
</g>
</g>
<!-- Node13&#45;&gt;Node5 -->
<g id="edge19_Node000013_Node000005" class="edge">
<title>Node13&#45;&gt;Node5</title>
<g id="a_edge19_Node000013_Node000005"><a xlink:title=" ">
<path fill="none" stroke="#63b8ff" d="M65.6,-113.11C77.69,-98.51 102.56,-71.17 129.88,-56.75 180.23,-30.16 246,-19.02 286.83,-14.45"/>
<polygon fill="#63b8ff" stroke="#63b8ff" points="287.06,-17.94 296.64,-13.43 286.34,-10.98 287.06,-17.94"/>
</a>
</g>
</g>
<!-- Node14&#45;&gt;Node4 -->
<g id="edge23_Node000014_Node000004" class="edge">
<title>Node14&#45;&gt;Node4</title>
<g id="a_edge23_Node000014_Node000004"><a xlink:title=" ">
<path fill="none" stroke="#63b8ff" d="M632.63,-299.75C720.76,-286.92 908.78,-254.15 946.88,-203.75 1023.65,-102.16 764.31,-76.27 659.17,-70.01"/>
<polygon fill="#63b8ff" stroke="#63b8ff" points="659.42,-66.52 649.24,-69.46 659.03,-73.51 659.42,-66.52"/>
</a>
</g>
</g>
<!-- Node14&#45;&gt;Node7 -->
<g id="edge24_Node000014_Node000007" class="edge">
<title>Node14&#45;&gt;Node7</title>
<g id="a_edge24_Node000014_Node000007"><a xlink:title=" ">
<path fill="none" stroke="#63b8ff" d="M571.5,-296.09C558.78,-287.99 540.47,-276.33 525.68,-266.92"/>
<polygon fill="#63b8ff" stroke="#63b8ff" points="527.71,-264.06 517.39,-261.64 523.95,-269.96 527.71,-264.06"/>
</a>
</g>
</g>
<!-- Node15 -->
<g id="Node000015" class="node">
<title>Node15</title>
<g id="a_Node000015"><a xlink:href="socket_8h.html" target="_top" xlink:title=" ">
<polygon fill="white" stroke="#666666" points="627.12,-260.5 570.62,-260.5 570.62,-239.75 627.12,-239.75 627.12,-260.5"/>
<text text-anchor="middle" x="598.88" y="-247" font-family="Helvetica,sans-Serif" font-size="10.00">socket.h</text>
</a>
</g>
</g>
<!-- Node14&#45;&gt;Node15 -->
<g id="edge25_Node000014_Node000015" class="edge">
<title>Node14&#45;&gt;Node15</title>
<g id="a_edge25_Node000014_Node000015"><a xlink:title=" ">
<path fill="none" stroke="#63b8ff" d="M589.02,-296.09C590.49,-289.39 592.49,-280.26 594.3,-271.98"/>
<polygon fill="#63b8ff" stroke="#63b8ff" points="597.7,-272.82 596.42,-262.31 590.86,-271.33 597.7,-272.82"/>
</a>
</g>
</g>
<!-- Node15&#45;&gt;Node4 -->
<g id="edge26_Node000015_Node000004" class="edge">
<title>Node15&#45;&gt;Node4</title>
<g id="a_edge26_Node000015_Node000004"><a xlink:title=" ">
<path fill="none" stroke="#63b8ff" d="M599.75,-239.4C601.1,-224.49 603.89,-195.12 606.88,-170.25 608.8,-154.21 610.15,-150.31 611.88,-134.25 613.49,-119.14 614.77,-102.03 615.63,-89"/>
<polygon fill="#63b8ff" stroke="#63b8ff" points="619.12,-89.27 616.25,-79.07 612.14,-88.83 619.12,-89.27"/>
</a>
</g>
</g>
<!-- Node15&#45;&gt;Node9 -->
<g id="edge37_Node000015_Node000009" class="edge">
<title>Node15&#45;&gt;Node9</title>
<g id="a_edge37_Node000015_Node000009"><a xlink:title=" ">
<path fill="none" stroke="#63b8ff" d="M612.53,-239.3C625.67,-229.86 645.76,-215.41 661.28,-204.25"/>
<polygon fill="#63b8ff" stroke="#63b8ff" points="662.95,-207.36 669.02,-198.68 658.86,-201.68 662.95,-207.36"/>
</a>
</g>
</g>
<!-- Node15&#45;&gt;Node10 -->
<g id="edge27_Node000015_Node000010" class="edge">
<title>Node15&#45;&gt;Node10</title>
<g id="a_edge27_Node000015_Node000010"><a xlink:title=" ">
<path fill="none" stroke="#63b8ff" d="M627.55,-249.39C663.8,-248.11 725.71,-240.23 760.88,-203.75 775.66,-188.41 779.61,-163.65 780.36,-145.97"/>
<polygon fill="#63b8ff" stroke="#63b8ff" points="783.86,-146.12 780.44,-136.09 776.86,-146.06 783.86,-146.12"/>
</a>
</g>
</g>
<!-- Node15&#45;&gt;Node12 -->
<g id="edge32_Node000015_Node000012" class="edge">
<title>Node15&#45;&gt;Node12</title>
<g id="a_edge32_Node000015_Node000012"><a xlink:title=" ">
<path fill="none" stroke="#63b8ff" d="M570.27,-241.49C567.45,-240.85 564.61,-240.26 561.88,-239.75 428.53,-215.04 393.52,-219.97 258.88,-203.75 234.83,-200.85 208.26,-197.62 185.52,-194.83"/>
<polygon fill="#63b8ff" stroke="#63b8ff" points="186.2,-191.39 175.85,-193.65 185.35,-198.34 186.2,-191.39"/>
</a>
</g>
</g>
<!-- Node16 -->
<g id="Node000016" class="node">
<title>Node16</title>
<g id="a_Node000016"><a xlink:href="vlcb_8h.html" target="_top" xlink:title=" ">
<polygon fill="white" stroke="#666666" points="484.12,-197.38 403.62,-197.38 403.62,-176.62 484.12,-176.62 484.12,-197.38"/>
<text text-anchor="middle" x="443.88" y="-183.88" font-family="Helvetica,sans-Serif" font-size="10.00">packet/vlcb.h</text>
</a>
</g>
</g>
<!-- Node15&#45;&gt;Node16 -->
<g id="edge28_Node000015_Node000016" class="edge">
<title>Node15&#45;&gt;Node16</title>
<g id="a_edge28_Node000015_Node000016"><a xlink:title=" ">
<path fill="none" stroke="#63b8ff" d="M573.97,-239.3C548.32,-229.19 508.12,-213.34 479.2,-201.93"/>
<polygon fill="#63b8ff" stroke="#63b8ff" points="480.71,-198.76 470.12,-198.35 478.14,-205.28 480.71,-198.76"/>
</a>
</g>
</g>
<!-- Node17 -->
<g id="Node000017" class="node">
<title>Node17</title>
<g id="a_Node000017"><a xlink:href="packet__buf_8h.html" target="_top" xlink:title=" ">
<polygon fill="white" stroke="#666666" points="937.88,-203.75 807.88,-203.75 807.88,-170.25 937.88,-170.25 937.88,-203.75"/>
<text text-anchor="start" x="815.88" y="-190.25" font-family="Helvetica,sans-Serif" font-size="10.00">vlcb/net/storage/packet</text>
<text text-anchor="middle" x="872.88" y="-177.5" font-family="Helvetica,sans-Serif" font-size="10.00">_buf.h</text>
</a>
</g>
</g>
<!-- Node15&#45;&gt;Node17 -->
<g id="edge33_Node000015_Node000017" class="edge">
<title>Node15&#45;&gt;Node17</title>
<g id="a_edge33_Node000015_Node000017"><a xlink:title=" ">
<path fill="none" stroke="#63b8ff" d="M627.42,-242.76C667.06,-233.91 740.24,-217.59 796.42,-205.06"/>
<polygon fill="#63b8ff" stroke="#63b8ff" points="796.94,-208.53 805.93,-202.93 795.41,-201.69 796.94,-208.53"/>
</a>
</g>
</g>
<!-- Node16&#45;&gt;Node3 -->
<g id="edge29_Node000016_Node000003" class="edge">
<title>Node16&#45;&gt;Node3</title>
<g id="a_edge29_Node000016_Node000003"><a xlink:title=" ">
<path fill="none" stroke="#63b8ff" d="M429.95,-176.26C408.96,-161.77 367.74,-134.02 330.88,-113.5 310.72,-102.28 287.34,-91.09 268.82,-82.63"/>
<polygon fill="#63b8ff" stroke="#63b8ff" points="270.47,-79.54 259.92,-78.61 267.59,-85.92 270.47,-79.54"/>
</a>
</g>
</g>
<!-- Node16&#45;&gt;Node6 -->
<g id="edge30_Node000016_Node000006" class="edge">
<title>Node16&#45;&gt;Node6</title>
<g id="a_edge30_Node000016_Node000006"><a xlink:title=" ">
<path fill="none" stroke="#63b8ff" d="M439.49,-176.53C432.6,-162.15 418.3,-134.26 401.88,-113.5 393.76,-103.25 383.36,-93.13 374.31,-85.06"/>
<polygon fill="#63b8ff" stroke="#63b8ff" points="376.85,-82.62 366.99,-78.73 372.27,-87.92 376.85,-82.62"/>
</a>
</g>
</g>
<!-- Node16&#45;&gt;Node8 -->
<g id="edge31_Node000016_Node000008" class="edge">
<title>Node16&#45;&gt;Node8</title>
<g id="a_edge31_Node000016_Node000008"><a xlink:title=" ">
<path fill="none" stroke="#63b8ff" d="M454.8,-176.18C465.07,-166.95 480.66,-152.93 492.96,-141.88"/>
<polygon fill="#63b8ff" stroke="#63b8ff" points="494.98,-144.77 500.08,-135.48 490.3,-139.56 494.98,-144.77"/>
</a>
</g>
</g>
<!-- Node17&#45;&gt;Node4 -->
<g id="edge34_Node000017_Node000004" class="edge">
<title>Node17&#45;&gt;Node4</title>
<g id="a_edge34_Node000017_Node000004"><a xlink:title=" ">
<path fill="none" stroke="#63b8ff" d="M864.72,-169.77C855.45,-153.03 838.73,-127.45 816.88,-113.5 768.59,-82.68 702.01,-72.68 659.2,-69.5"/>
<polygon fill="#63b8ff" stroke="#63b8ff" points="659.5,-66.01 649.3,-68.87 659.05,-73 659.5,-66.01"/>
</a>
</g>
</g>
<!-- Node17&#45;&gt;Node5 -->
<g id="edge36_Node000017_Node000005" class="edge">
<title>Node17&#45;&gt;Node5</title>
<g id="a_edge36_Node000017_Node000005"><a xlink:title=" ">
<path fill="none" stroke="#63b8ff" d="M870.08,-169.85C866.4,-153.42 858.37,-128.32 841.88,-113.5 770.63,-49.46 470.03,-21.86 362.95,-13.93"/>
<polygon fill="#63b8ff" stroke="#63b8ff" points="363.48,-10.46 353.25,-13.23 362.98,-17.44 363.48,-10.46"/>
</a>
</g>
</g>
<!-- Node17&#45;&gt;Node10 -->
<g id="edge35_Node000017_Node000010" class="edge">
<title>Node17&#45;&gt;Node10</title>
<g id="a_edge35_Node000017_Node000010"><a xlink:title=" ">
<path fill="none" stroke="#63b8ff" d="M848.44,-169.94C834.76,-160.95 817.75,-149.77 804.1,-140.8"/>
<polygon fill="#63b8ff" stroke="#63b8ff" points="806.39,-138.12 796.11,-135.55 802.55,-143.97 806.39,-138.12"/>
</a>
</g>
</g>
</g>
</svg>
