<?xml version="1.0" encoding="UTF-8" standalone="no"?>
<!DOCTYPE svg PUBLIC "-//W3C//DTD SVG 1.1//EN"
 "http://www.w3.org/Graphics/SVG/1.1/DTD/svg11.dtd">
<!-- Generated by graphviz version 12.1.2 (20240928.0832)
 -->
<!-- Title: iface.h Pages: 1 -->
<svg width="567pt" height="199pt"
 viewBox="0.00 0.00 566.75 199.00" xmlns="http://www.w3.org/2000/svg" xmlns:xlink="http://www.w3.org/1999/xlink">
<g id="graph0" class="graph" transform="scale(1 1) rotate(0) translate(4 195)">
<title>iface.h</title>
<!-- Node1 -->
<g id="Node000001" class="node">
<title>Node1</title>
<g id="a_Node000001"><a xlink:title=" ">
<polygon fill="#999999" stroke="#666666" points="262.38,-191 213.38,-191 213.38,-170.25 262.38,-170.25 262.38,-191"/>
<text text-anchor="middle" x="237.88" y="-177.5" font-family="Helvetica,sans-Serif" font-size="10.00">iface.h</text>
</a>
</g>
</g>
<!-- Node2 -->
<g id="Node000002" class="node">
<title>Node2</title>
<g id="a_Node000002"><a xlink:href="iface_8c.html" target="_top" xlink:title=" ">
<polygon fill="white" stroke="#666666" points="140,-77.5 91.75,-77.5 91.75,-56.75 140,-56.75 140,-77.5"/>
<text text-anchor="middle" x="115.88" y="-64" font-family="Helvetica,sans-Serif" font-size="10.00">iface.c</text>
</a>
</g>
</g>
<!-- Node1&#45;&gt;Node2 -->
<g id="edge1_Node000001_Node000002" class="edge">
<title>Node1&#45;&gt;Node2</title>
<g id="a_edge1_Node000001_Node000002"><a xlink:title=" ">
<path fill="none" stroke="#63b8ff" d="M201.74,-174.23C176.87,-168.58 145.15,-157.14 126.88,-134.25 113.8,-117.88 113.68,-91.84 114.75,-77.82"/>
<polygon fill="#63b8ff" stroke="#63b8ff" points="200.97,-177.65 211.47,-176.21 202.37,-170.79 200.97,-177.65"/>
</a>
</g>
</g>
<!-- Node3 -->
<g id="Node000003" class="node">
<title>Node3</title>
<g id="a_Node000003"><a xlink:href="iface__can_8c.html" target="_top" xlink:title=" ">
<polygon fill="white" stroke="#666666" points="273.25,-77.5 202.5,-77.5 202.5,-56.75 273.25,-56.75 273.25,-77.5"/>
<text text-anchor="middle" x="237.88" y="-64" font-family="Helvetica,sans-Serif" font-size="10.00">iface_can.c</text>
</a>
</g>
</g>
<!-- Node1&#45;&gt;Node3 -->
<g id="edge2_Node000001_Node000003" class="edge">
<title>Node1&#45;&gt;Node3</title>
<g id="a_edge2_Node000001_Node000003"><a xlink:title=" ">
<path fill="none" stroke="#63b8ff" d="M237.88,-158.72C237.88,-134.59 237.88,-95.92 237.88,-77.93"/>
<polygon fill="#63b8ff" stroke="#63b8ff" points="234.38,-158.6 237.88,-168.61 241.38,-158.61 234.38,-158.6"/>
</a>
</g>
</g>
<!-- Node4 -->
<g id="Node000004" class="node">
<title>Node4</title>
<g id="a_Node000004"><a xlink:href="iface__can_8h.html" target="_top" xlink:title=" ">
<polygon fill="white" stroke="#666666" points="79.62,-134.25 8.12,-134.25 8.12,-113.5 79.62,-113.5 79.62,-134.25"/>
<text text-anchor="middle" x="43.88" y="-120.75" font-family="Helvetica,sans-Serif" font-size="10.00">iface_can.h</text>
</a>
</g>
</g>
<!-- Node1&#45;&gt;Node4 -->
<g id="edge3_Node000001_Node000004" class="edge">
<title>Node1&#45;&gt;Node4</title>
<g id="a_edge3_Node000001_Node000004"><a xlink:title=" ">
<path fill="none" stroke="#63b8ff" d="M202.16,-169.55C166.93,-159.6 113.44,-144.51 78.57,-134.67"/>
<polygon fill="#63b8ff" stroke="#63b8ff" points="200.88,-172.82 211.45,-172.17 202.78,-166.08 200.88,-172.82"/>
</a>
</g>
</g>
<!-- Node6 -->
<g id="Node000006" class="node">
<title>Node6</title>
<g id="a_Node000006"><a xlink:href="iface__can__svc_8c.html" target="_top" xlink:title=" ">
<polygon fill="white" stroke="#666666" points="358.12,-134.25 265.62,-134.25 265.62,-113.5 358.12,-113.5 358.12,-134.25"/>
<text text-anchor="middle" x="311.88" y="-120.75" font-family="Helvetica,sans-Serif" font-size="10.00">iface_can_svc.c</text>
</a>
</g>
</g>
<!-- Node1&#45;&gt;Node6 -->
<g id="edge6_Node000001_Node000006" class="edge">
<title>Node1&#45;&gt;Node6</title>
<g id="a_edge6_Node000001_Node000006"><a xlink:title=" ">
<path fill="none" stroke="#63b8ff" d="M260.09,-163.19C272.7,-153.86 288.06,-142.5 298.76,-134.58"/>
<polygon fill="#63b8ff" stroke="#63b8ff" points="258.28,-160.18 252.32,-168.94 262.44,-165.8 258.28,-160.18"/>
</a>
</g>
</g>
<!-- Node7 -->
<g id="Node000007" class="node">
<title>Node7</title>
<g id="a_Node000007"><a xlink:href="iface__vlcb_8h.html" target="_top" xlink:title=" ">
<polygon fill="white" stroke="#666666" points="210.12,-134.25 135.62,-134.25 135.62,-113.5 210.12,-113.5 210.12,-134.25"/>
<text text-anchor="middle" x="172.88" y="-120.75" font-family="Helvetica,sans-Serif" font-size="10.00">iface_vlcb.h</text>
</a>
</g>
</g>
<!-- Node1&#45;&gt;Node7 -->
<g id="edge8_Node000001_Node000007" class="edge">
<title>Node1&#45;&gt;Node7</title>
<g id="a_edge8_Node000001_Node000007"><a xlink:title=" ">
<path fill="none" stroke="#63b8ff" d="M217.71,-162.64C206.75,-153.41 193.61,-142.34 184.4,-134.58"/>
<polygon fill="#63b8ff" stroke="#63b8ff" points="215.19,-165.1 225.1,-168.86 219.7,-159.74 215.19,-165.1"/>
</a>
</g>
</g>
<!-- Node8 -->
<g id="Node000008" class="node">
<title>Node8</title>
<g id="a_Node000008"><a xlink:href="module_2inc_2vlcb_2module_8h.html" target="_top" xlink:title=" ">
<polygon fill="white" stroke="#666666" points="437.75,-134.25 376,-134.25 376,-113.5 437.75,-113.5 437.75,-134.25"/>
<text text-anchor="middle" x="406.88" y="-120.75" font-family="Helvetica,sans-Serif" font-size="10.00">module.h</text>
</a>
</g>
</g>
<!-- Node1&#45;&gt;Node8 -->
<g id="edge11_Node000001_Node000008" class="edge">
<title>Node1&#45;&gt;Node8</title>
<g id="a_edge11_Node000001_Node000008"><a xlink:title=" ">
<path fill="none" stroke="#63b8ff" d="M273.41,-168.11C303.93,-158.23 347.45,-144.13 376.4,-134.75"/>
<polygon fill="#63b8ff" stroke="#63b8ff" points="272.69,-164.67 264.25,-171.08 274.84,-171.33 272.69,-164.67"/>
</a>
</g>
</g>
<!-- Node13 -->
<g id="Node000013" class="node">
<title>Node13</title>
<g id="a_Node000013"><a xlink:href="net_2inc_2vlcb_2net_8h.html" target="_top" xlink:title=" ">
<polygon fill="white" stroke="#666666" points="496.25,-134.25 455.5,-134.25 455.5,-113.5 496.25,-113.5 496.25,-134.25"/>
<text text-anchor="middle" x="475.88" y="-120.75" font-family="Helvetica,sans-Serif" font-size="10.00">net.h</text>
</a>
</g>
</g>
<!-- Node1&#45;&gt;Node13 -->
<g id="edge19_Node000001_Node000013" class="edge">
<title>Node1&#45;&gt;Node13</title>
<g id="a_edge19_Node000001_Node000013"><a xlink:title=" ">
<path fill="none" stroke="#63b8ff" d="M274.1,-172.89C315.99,-164.84 386.87,-150.42 446.88,-134.25 449.53,-133.53 452.31,-132.72 455.04,-131.88"/>
<polygon fill="#63b8ff" stroke="#63b8ff" points="273.5,-169.44 264.33,-174.75 274.8,-176.32 273.5,-169.44"/>
</a>
</g>
</g>
<!-- Node4&#45;&gt;Node2 -->
<g id="edge4_Node000004_Node000002" class="edge">
<title>Node4&#45;&gt;Node2</title>
<g id="a_edge4_Node000004_Node000002"><a xlink:title=" ">
<path fill="none" stroke="#63b8ff" d="M65.85,-106.16C78.06,-96.88 92.81,-85.67 103.11,-77.83"/>
<polygon fill="#63b8ff" stroke="#63b8ff" points="63.79,-103.33 57.95,-112.17 68.03,-108.9 63.79,-103.33"/>
</a>
</g>
</g>
<!-- Node5 -->
<g id="Node000005" class="node">
<title>Node5</title>
<g id="a_Node000005"><a xlink:href="iface__vlcb_8c.html" target="_top" xlink:title=" ">
<polygon fill="white" stroke="#666666" points="73.75,-77.5 0,-77.5 0,-56.75 73.75,-56.75 73.75,-77.5"/>
<text text-anchor="middle" x="36.88" y="-64" font-family="Helvetica,sans-Serif" font-size="10.00">iface_vlcb.c</text>
</a>
</g>
</g>
<!-- Node4&#45;&gt;Node5 -->
<g id="edge5_Node000004_Node000005" class="edge">
<title>Node4&#45;&gt;Node5</title>
<g id="a_edge5_Node000004_Node000005"><a xlink:title=" ">
<path fill="none" stroke="#63b8ff" d="M41.2,-101.92C40.14,-93.63 38.97,-84.5 38.12,-77.83"/>
<polygon fill="#63b8ff" stroke="#63b8ff" points="37.69,-102.11 42.43,-111.59 44.64,-101.22 37.69,-102.11"/>
</a>
</g>
</g>
<!-- Node6&#45;&gt;Node3 -->
<g id="edge7_Node000006_Node000003" class="edge">
<title>Node6&#45;&gt;Node3</title>
<g id="a_edge7_Node000006_Node000003"><a xlink:title=" ">
<path fill="none" stroke="#63b8ff" d="M289.66,-106.44C277.05,-97.11 261.69,-85.75 250.99,-77.83"/>
<polygon fill="#63b8ff" stroke="#63b8ff" points="287.31,-109.05 297.43,-112.19 291.47,-103.43 287.31,-109.05"/>
</a>
</g>
</g>
<!-- Node7&#45;&gt;Node2 -->
<g id="edge9_Node000007_Node000002" class="edge">
<title>Node7&#45;&gt;Node2</title>
<g id="a_edge9_Node000007_Node000002"><a xlink:title=" ">
<path fill="none" stroke="#63b8ff" d="M154.61,-105.33C145.12,-96.22 133.9,-85.43 125.98,-77.83"/>
<polygon fill="#63b8ff" stroke="#63b8ff" points="151.96,-107.64 161.59,-112.04 156.81,-102.59 151.96,-107.64"/>
</a>
</g>
</g>
<!-- Node7&#45;&gt;Node3 -->
<g id="edge10_Node000007_Node000003" class="edge">
<title>Node7&#45;&gt;Node3</title>
<g id="a_edge10_Node000007_Node000003"><a xlink:title=" ">
<path fill="none" stroke="#63b8ff" d="M193.04,-105.89C204,-96.66 217.14,-85.59 226.35,-77.83"/>
<polygon fill="#63b8ff" stroke="#63b8ff" points="191.05,-102.99 185.65,-112.11 195.56,-108.35 191.05,-102.99"/>
</a>
</g>
</g>
<!-- Node9 -->
<g id="Node000009" class="node">
<title>Node9</title>
<g id="a_Node000009"><a xlink:href="module_8c.html" target="_top" xlink:title=" ">
<polygon fill="white" stroke="#666666" points="499.38,-20.75 438.38,-20.75 438.38,0 499.38,0 499.38,-20.75"/>
<text text-anchor="middle" x="468.88" y="-7.25" font-family="Helvetica,sans-Serif" font-size="10.00">module.c</text>
</a>
</g>
</g>
<!-- Node8&#45;&gt;Node9 -->
<g id="edge12_Node000008_Node000009" class="edge">
<title>Node8&#45;&gt;Node9</title>
<g id="a_edge12_Node000008_Node000009"><a xlink:title=" ">
<path fill="none" stroke="#63b8ff" d="M427.07,-105.58C435.15,-97.73 443.94,-87.88 449.88,-77.5 460.42,-59.04 465.49,-34.28 467.6,-20.91"/>
<polygon fill="#63b8ff" stroke="#63b8ff" points="424.84,-102.88 419.85,-112.22 429.57,-108.03 424.84,-102.88"/>
</a>
</g>
</g>
<!-- Node10 -->
<g id="Node000010" class="node">
<title>Node10</title>
<g id="a_Node000010"><a xlink:href="module_2src_2module_8h.html" target="_top" xlink:title=" ">
<polygon fill="white" stroke="#666666" points="558.75,-77.5 497,-77.5 497,-56.75 558.75,-56.75 558.75,-77.5"/>
<text text-anchor="middle" x="527.88" y="-64" font-family="Helvetica,sans-Serif" font-size="10.00">module.h</text>
</a>
</g>
</g>
<!-- Node8&#45;&gt;Node10 -->
<g id="edge13_Node000008_Node000010" class="edge">
<title>Node8&#45;&gt;Node10</title>
<g id="a_edge13_Node000008_Node000010"><a xlink:title=" ">
<path fill="none" stroke="#63b8ff" d="M438.73,-108.46C460.09,-98.8 487.65,-86.33 506.43,-77.83"/>
<polygon fill="#63b8ff" stroke="#63b8ff" points="437.55,-105.15 429.89,-112.46 440.44,-111.53 437.55,-105.15"/>
</a>
</g>
</g>
<!-- Node11 -->
<g id="Node000011" class="node">
<title>Node11</title>
<g id="a_Node000011"><a xlink:href="state__machine_8c.html" target="_top" xlink:title=" ">
<polygon fill="white" stroke="#666666" points="392,-20.75 295.75,-20.75 295.75,0 392,0 392,-20.75"/>
<text text-anchor="middle" x="343.88" y="-7.25" font-family="Helvetica,sans-Serif" font-size="10.00">state_machine.c</text>
</a>
</g>
</g>
<!-- Node8&#45;&gt;Node11 -->
<g id="edge15_Node000008_Node000011" class="edge">
<title>Node8&#45;&gt;Node11</title>
<g id="a_edge15_Node000008_Node000011"><a xlink:title=" ">
<path fill="none" stroke="#63b8ff" d="M368.87,-108.19C355.67,-101.04 342.33,-91 334.88,-77.5 324.91,-59.44 333.15,-34.53 339.1,-21.02"/>
<polygon fill="#63b8ff" stroke="#63b8ff" points="366.96,-111.15 377.47,-112.44 370.05,-104.87 366.96,-111.15"/>
</a>
</g>
</g>
<!-- Node12 -->
<g id="Node000012" class="node">
<title>Node12</title>
<g id="a_Node000012"><a xlink:href="state__machine_8h.html" target="_top" xlink:title=" ">
<polygon fill="white" stroke="#666666" points="440.38,-77.5 343.38,-77.5 343.38,-56.75 440.38,-56.75 440.38,-77.5"/>
<text text-anchor="middle" x="391.88" y="-64" font-family="Helvetica,sans-Serif" font-size="10.00">state_machine.h</text>
</a>
</g>
</g>
<!-- Node8&#45;&gt;Node12 -->
<g id="edge16_Node000008_Node000012" class="edge">
<title>Node8&#45;&gt;Node12</title>
<g id="a_edge16_Node000008_Node000012"><a xlink:title=" ">
<path fill="none" stroke="#63b8ff" d="M401.21,-102.21C398.92,-93.84 396.38,-84.58 394.53,-77.83"/>
<polygon fill="#63b8ff" stroke="#63b8ff" points="397.78,-102.91 403.79,-111.63 404.53,-101.06 397.78,-102.91"/>
</a>
</g>
</g>
<!-- Node10&#45;&gt;Node9 -->
<g id="edge14_Node000010_Node000009" class="edge">
<title>Node10&#45;&gt;Node9</title>
<g id="a_edge14_Node000010_Node000009"><a xlink:title=" ">
<path fill="none" stroke="#63b8ff" d="M508.97,-48.58C499.15,-39.47 487.53,-28.68 479.33,-21.08"/>
<polygon fill="#63b8ff" stroke="#63b8ff" points="506.51,-51.07 516.22,-55.31 511.27,-45.94 506.51,-51.07"/>
</a>
</g>
</g>
<!-- Node12&#45;&gt;Node9 -->
<g id="edge17_Node000012_Node000009" class="edge">
<title>Node12&#45;&gt;Node9</title>
<g id="a_edge17_Node000012_Node000009"><a xlink:title=" ">
<path fill="none" stroke="#63b8ff" d="M414.99,-49.69C428.12,-40.36 444.09,-29 455.23,-21.08"/>
<polygon fill="#63b8ff" stroke="#63b8ff" points="413,-46.81 406.87,-55.46 417.05,-52.52 413,-46.81"/>
</a>
</g>
</g>
<!-- Node12&#45;&gt;Node11 -->
<g id="edge18_Node000012_Node000011" class="edge">
<title>Node12&#45;&gt;Node11</title>
<g id="a_edge18_Node000012_Node000011"><a xlink:title=" ">
<path fill="none" stroke="#63b8ff" d="M375.76,-47.74C367.93,-38.81 358.85,-28.45 352.38,-21.08"/>
<polygon fill="#63b8ff" stroke="#63b8ff" points="373.07,-49.99 382.3,-55.2 378.34,-45.37 373.07,-49.99"/>
</a>
</g>
</g>
</g>
</svg>
