<?xml version="1.0" encoding="UTF-8" standalone="no"?>
<!DOCTYPE svg PUBLIC "-//W3C//DTD SVG 1.1//EN"
 "http://www.w3.org/Graphics/SVG/1.1/DTD/svg11.dtd">
<!-- Generated by graphviz version 12.1.2 (20240928.0832)
 -->
<!-- Title: IngressPackets Pages: 1 -->
<svg width="808pt" height="319pt"
 viewBox="0.00 0.00 808.00 319.12" xmlns="http://www.w3.org/2000/svg" xmlns:xlink="http://www.w3.org/1999/xlink">
<g id="graph0" class="graph" transform="scale(1 1) rotate(0) translate(4 315.12)">
<title>IngressPackets</title>
<!-- Node1 -->
<g id="Node000001" class="node">
<title>Node1</title>
<g id="a_Node000001"><a xlink:title=" ">
<polygon fill="#999999" stroke="#666666" points="88,-104.12 0,-104.12 0,-83.38 88,-83.38 88,-104.12"/>
<text text-anchor="middle" x="44" y="-90.62" font-family="Helvetica,sans-Serif" font-size="10.00">IngressPackets</text>
</a>
</g>
</g>
<!-- Node2 -->
<g id="Node000002" class="node">
<title>Node2</title>
<g id="a_Node000002"><a xlink:href="iface__can_8c.html#a8aa9c1f4ce14446285c7f5b9240f83d9" target="_top" xlink:title=" ">
<polygon fill="white" stroke="#666666" points="239.38,-124.12 135.62,-124.12 135.62,-103.38 239.38,-103.38 239.38,-124.12"/>
<text text-anchor="middle" x="187.5" y="-110.62" font-family="Helvetica,sans-Serif" font-size="10.00">ProcessCanPacket</text>
</a>
</g>
</g>
<!-- Node1&#45;&gt;Node2 -->
<g id="edge1_Node000001_Node000002" class="edge">
<title>Node1&#45;&gt;Node2</title>
<g id="a_edge1_Node000001_Node000002"><a xlink:title=" ">
<path fill="none" stroke="#63b8ff" d="M88.22,-99.86C99.61,-101.47 112.13,-103.24 124.3,-104.96"/>
<polygon fill="#63b8ff" stroke="#63b8ff" points="123.45,-108.37 133.84,-106.31 124.43,-101.44 123.45,-108.37"/>
</a>
</g>
</g>
<!-- Node15 -->
<g id="Node000015" class="node">
<title>Node15</title>
<g id="a_Node000015"><a xlink:href="adapter_8c.html#a74b46c574ae26bb9f527b6b157cb644e" target="_top" xlink:title=" ">
<polygon fill="white" stroke="#666666" points="251,-85.12 124,-85.12 124,-64.38 251,-64.38 251,-85.12"/>
<text text-anchor="middle" x="187.5" y="-71.62" font-family="Helvetica,sans-Serif" font-size="10.00">vlcb_net_adpt_ErrToStr</text>
</a>
</g>
</g>
<!-- Node1&#45;&gt;Node15 -->
<g id="edge15_Node000001_Node000015" class="edge">
<title>Node1&#45;&gt;Node15</title>
<g id="a_edge15_Node000001_Node000015"><a xlink:title=" ">
<path fill="none" stroke="#63b8ff" d="M88.22,-87.95C95.93,-86.91 104.16,-85.81 112.45,-84.69"/>
<polygon fill="#63b8ff" stroke="#63b8ff" points="112.8,-88.18 122.25,-83.38 111.87,-81.24 112.8,-88.18"/>
</a>
</g>
</g>
<!-- Node3 -->
<g id="Node000003" class="node">
<title>Node3</title>
<g id="a_Node000003"><a xlink:href="iface__vlcb_8c.html#a772411fa3c2c8faf08e996dcec735dbe" target="_top" xlink:title=" ">
<polygon fill="white" stroke="#666666" points="411.75,-169.12 305.75,-169.12 305.75,-148.38 411.75,-148.38 411.75,-169.12"/>
<text text-anchor="middle" x="358.75" y="-155.62" font-family="Helvetica,sans-Serif" font-size="10.00">ProcessVlcbPacket</text>
</a>
</g>
</g>
<!-- Node2&#45;&gt;Node3 -->
<g id="edge2_Node000002_Node000003" class="edge">
<title>Node2&#45;&gt;Node3</title>
<g id="a_edge2_Node000002_Node000003"><a xlink:title=" ">
<path fill="none" stroke="#63b8ff" d="M229.04,-124.53C252.11,-130.66 281.24,-138.41 305.95,-144.98"/>
<polygon fill="#63b8ff" stroke="#63b8ff" points="304.93,-148.33 315.49,-147.51 306.73,-141.56 304.93,-148.33"/>
</a>
</g>
</g>
<!-- Node13 -->
<g id="Node000013" class="node">
<title>Node13</title>
<g id="a_Node000013"><a xlink:href="vlcb_8c.html#a4e4a44bda5ebfb3ee1340066623890ad" target="_top" xlink:title=" ">
<polygon fill="white" stroke="#666666" points="430.5,-130.5 287,-130.5 287,-97 430.5,-97 430.5,-130.5"/>
<text text-anchor="start" x="295" y="-117" font-family="Helvetica,sans-Serif" font-size="10.00">vlcb_net_pkt_ConstructErr</text>
<text text-anchor="middle" x="358.75" y="-104.25" font-family="Helvetica,sans-Serif" font-size="10.00">ToStr</text>
</a>
</g>
</g>
<!-- Node2&#45;&gt;Node13 -->
<g id="edge13_Node000002_Node000013" class="edge">
<title>Node2&#45;&gt;Node13</title>
<g id="a_edge13_Node000002_Node000013"><a xlink:title=" ">
<path fill="none" stroke="#63b8ff" d="M239.74,-113.75C251.06,-113.75 263.33,-113.75 275.54,-113.75"/>
<polygon fill="#63b8ff" stroke="#63b8ff" points="275.19,-117.25 285.19,-113.75 275.19,-110.25 275.19,-117.25"/>
</a>
</g>
</g>
<!-- Node14 -->
<g id="Node000014" class="node">
<title>Node14</title>
<g id="a_Node000014"><a xlink:href="vlcb_8c.html#a4f542a7ed4e87e0e5597469e99484180" target="_top" xlink:title=" ">
<polygon fill="white" stroke="#666666" points="411.38,-79.12 306.12,-79.12 306.12,-58.38 411.38,-58.38 411.38,-79.12"/>
<text text-anchor="middle" x="358.75" y="-65.62" font-family="Helvetica,sans-Serif" font-size="10.00">vlcb_net_pkt_New</text>
</a>
</g>
</g>
<!-- Node2&#45;&gt;Node14 -->
<g id="edge14_Node000002_Node000014" class="edge">
<title>Node2&#45;&gt;Node14</title>
<g id="a_edge14_Node000002_Node000014"><a xlink:title=" ">
<path fill="none" stroke="#63b8ff" d="M229.04,-102.97C252.11,-96.84 281.24,-89.09 305.95,-82.52"/>
<polygon fill="#63b8ff" stroke="#63b8ff" points="306.73,-85.94 315.49,-79.99 304.93,-79.17 306.73,-85.94"/>
</a>
</g>
</g>
<!-- Node4 -->
<g id="Node000004" class="node">
<title>Node4</title>
<g id="a_Node000004"><a xlink:href="socket_2datagram_8c.html#a61c95cabe20ca7a61ea528e4c70f1245" target="_top" xlink:title=" ">
<polygon fill="white" stroke="#666666" points="586.75,-292.12 501.75,-292.12 501.75,-271.38 586.75,-271.38 586.75,-292.12"/>
<text text-anchor="middle" x="544.25" y="-278.62" font-family="Helvetica,sans-Serif" font-size="10.00">ProcessPacket</text>
</a>
</g>
</g>
<!-- Node3&#45;&gt;Node4 -->
<g id="edge3_Node000003_Node000004" class="edge">
<title>Node3&#45;&gt;Node4</title>
<g id="a_edge3_Node000003_Node000004"><a xlink:title=" ">
<path fill="none" stroke="#63b8ff" d="M367.58,-169.32C383.69,-190.28 422.7,-237.18 466.5,-261.75 473.93,-265.92 482.26,-269.24 490.61,-271.88"/>
<polygon fill="#63b8ff" stroke="#63b8ff" points="489.49,-275.2 500.07,-274.56 491.4,-268.47 489.49,-275.2"/>
</a>
</g>
</g>
<!-- Node7 -->
<g id="Node000007" class="node">
<title>Node7</title>
<g id="a_Node000007"><a xlink:href="socket_2datagram_8c.html#a97bab8fe9b6021439207f5bf70a2f2a3" target="_top" xlink:title=" ">
<polygon fill="white" stroke="#666666" points="593.5,-253.12 495,-253.12 495,-232.38 593.5,-232.38 593.5,-253.12"/>
<text text-anchor="middle" x="544.25" y="-239.62" font-family="Helvetica,sans-Serif" font-size="10.00">SupportsProtocol</text>
</a>
</g>
</g>
<!-- Node3&#45;&gt;Node7 -->
<g id="edge6_Node000003_Node000007" class="edge">
<title>Node3&#45;&gt;Node7</title>
<g id="a_edge6_Node000003_Node000007"><a xlink:title=" ">
<path fill="none" stroke="#63b8ff" d="M374.58,-169.52C394.55,-183.58 431.63,-208.11 466.5,-222.75 472.05,-225.08 477.95,-227.2 483.91,-229.11"/>
<polygon fill="#63b8ff" stroke="#63b8ff" points="482.62,-232.38 493.2,-231.89 484.63,-225.67 482.62,-232.38"/>
</a>
</g>
</g>
<!-- Node8 -->
<g id="Node000008" class="node">
<title>Node8</title>
<g id="a_Node000008"><a xlink:href="vlcb_8c.html#a16634e516c94526e5bc818f75db5558c" target="_top" xlink:title=" ">
<polygon fill="white" stroke="#666666" points="622,-214.12 466.5,-214.12 466.5,-193.38 622,-193.38 622,-214.12"/>
<text text-anchor="middle" x="544.25" y="-200.62" font-family="Helvetica,sans-Serif" font-size="10.00">vlcb_net_pkt_DetectProtocol</text>
</a>
</g>
</g>
<!-- Node3&#45;&gt;Node8 -->
<g id="edge7_Node000003_Node000008" class="edge">
<title>Node3&#45;&gt;Node8</title>
<g id="a_edge7_Node000003_Node000008"><a xlink:title=" ">
<path fill="none" stroke="#63b8ff" d="M403.7,-169.53C429.05,-175.74 461.15,-183.62 488.17,-190.24"/>
<polygon fill="#63b8ff" stroke="#63b8ff" points="487,-193.56 497.55,-192.54 488.67,-186.76 487,-193.56"/>
</a>
</g>
</g>
<!-- Node9 -->
<g id="Node000009" class="node">
<title>Node9</title>
<g id="a_Node000009"><a xlink:href="socket_8c.html#a9401eccd14dd3acd44764c5e8a05beaf" target="_top" xlink:title=" ">
<polygon fill="white" stroke="#666666" points="596.88,-175.5 491.62,-175.5 491.62,-142 596.88,-142 596.88,-175.5"/>
<text text-anchor="start" x="499.62" y="-162" font-family="Helvetica,sans-Serif" font-size="10.00">vlcb_net_sock_list</text>
<text text-anchor="middle" x="544.25" y="-149.25" font-family="Helvetica,sans-Serif" font-size="10.00">_GetIterator</text>
</a>
</g>
</g>
<!-- Node3&#45;&gt;Node9 -->
<g id="edge8_Node000003_Node000009" class="edge">
<title>Node3&#45;&gt;Node9</title>
<g id="a_edge8_Node000003_Node000009"><a xlink:title=" ">
<path fill="none" stroke="#63b8ff" d="M411.84,-158.75C433.05,-158.75 457.75,-158.75 479.98,-158.75"/>
<polygon fill="#63b8ff" stroke="#63b8ff" points="479.83,-162.25 489.83,-158.75 479.83,-155.25 479.83,-162.25"/>
</a>
</g>
</g>
<!-- Node10 -->
<g id="Node000010" class="node">
<title>Node10</title>
<g id="a_Node000010"><a xlink:href="socket_8c.html#a176c72971ceb14a338d824d7a3bb0fac" target="_top" xlink:title=" ">
<polygon fill="white" stroke="#666666" points="781.62,-108.5 676.38,-108.5 676.38,-75 781.62,-75 781.62,-108.5"/>
<text text-anchor="start" x="684.38" y="-95" font-family="Helvetica,sans-Serif" font-size="10.00">vlcb_net_sock_list</text>
<text text-anchor="middle" x="729" y="-82.25" font-family="Helvetica,sans-Serif" font-size="10.00">_iter_HasNext</text>
</a>
</g>
</g>
<!-- Node3&#45;&gt;Node10 -->
<g id="edge9_Node000003_Node000010" class="edge">
<title>Node3&#45;&gt;Node10</title>
<g id="a_edge9_Node000003_Node000010"><a xlink:title=" ">
<path fill="none" stroke="#63b8ff" d="M400.89,-147.88C420.64,-142.88 444.71,-137.1 466.5,-132.75 533.88,-119.29 611.76,-107.56 664.89,-100.14"/>
<polygon fill="#63b8ff" stroke="#63b8ff" points="665.25,-103.62 674.67,-98.78 664.29,-96.69 665.25,-103.62"/>
</a>
</g>
</g>
<!-- Node11 -->
<g id="Node000011" class="node">
<title>Node11</title>
<g id="a_Node000011"><a xlink:href="socket_8c.html#a81bef9c5afd9ccbb9d0a52b2ae1da9b2" target="_top" xlink:title=" ">
<polygon fill="white" stroke="#666666" points="596.88,-85.5 491.62,-85.5 491.62,-52 596.88,-52 596.88,-85.5"/>
<text text-anchor="start" x="499.62" y="-72" font-family="Helvetica,sans-Serif" font-size="10.00">vlcb_net_sock_list</text>
<text text-anchor="middle" x="544.25" y="-59.25" font-family="Helvetica,sans-Serif" font-size="10.00">_iter_Next</text>
</a>
</g>
</g>
<!-- Node3&#45;&gt;Node11 -->
<g id="edge10_Node000003_Node000011" class="edge">
<title>Node3&#45;&gt;Node11</title>
<g id="a_edge10_Node000003_Node000011"><a xlink:title=" ">
<path fill="none" stroke="#63b8ff" d="M412.19,-148.37C418.6,-146.04 424.86,-143.21 430.5,-139.75 450.89,-127.25 446.91,-113.47 466.5,-99.75 471.16,-96.48 476.22,-93.49 481.44,-90.75"/>
<polygon fill="#63b8ff" stroke="#63b8ff" points="482.78,-94 490.25,-86.48 479.72,-87.7 482.78,-94"/>
</a>
</g>
</g>
<!-- Node12 -->
<g id="Node000012" class="node">
<title>Node12</title>
<g id="a_Node000012"><a xlink:href="socket_8c.html#a8e1f8d2c6242378d1d4eda56527a4a26" target="_top" xlink:title=" ">
<polygon fill="white" stroke="#666666" points="614.88,-33.5 473.62,-33.5 473.62,0 614.88,0 614.88,-33.5"/>
<text text-anchor="start" x="481.62" y="-20" font-family="Helvetica,sans-Serif" font-size="10.00">vlcb_net_sock_ProcessErr</text>
<text text-anchor="middle" x="544.25" y="-7.25" font-family="Helvetica,sans-Serif" font-size="10.00">ToStr</text>
</a>
</g>
</g>
<!-- Node3&#45;&gt;Node12 -->
<g id="edge12_Node000003_Node000012" class="edge">
<title>Node3&#45;&gt;Node12</title>
<g id="a_edge12_Node000003_Node000012"><a xlink:title=" ">
<path fill="none" stroke="#63b8ff" d="M412.18,-150.86C418.89,-148.15 425.24,-144.55 430.5,-139.75 464.49,-108.78 433.52,-74.8 466.5,-42.75 467.25,-42.02 468.02,-41.31 468.81,-40.62"/>
<polygon fill="#63b8ff" stroke="#63b8ff" points="470.69,-43.58 476.72,-34.87 466.57,-37.92 470.69,-43.58"/>
</a>
</g>
</g>
<!-- Node5 -->
<g id="Node000005" class="node">
<title>Node5</title>
<g id="a_Node000005"><a xlink:href="packet__buf_8c.html#afa80d4fb078473100610ba106bd5cb46" target="_top" xlink:title=" ">
<polygon fill="white" stroke="#666666" points="798.5,-311.12 659.5,-311.12 659.5,-290.38 798.5,-290.38 798.5,-311.12"/>
<text text-anchor="middle" x="729" y="-297.62" font-family="Helvetica,sans-Serif" font-size="10.00">vlcb_net_packetbuf_Push</text>
</a>
</g>
</g>
<!-- Node4&#45;&gt;Node5 -->
<g id="edge4_Node000004_Node000005" class="edge">
<title>Node4&#45;&gt;Node5</title>
<g id="a_edge4_Node000004_Node000005"><a xlink:title=" ">
<path fill="none" stroke="#63b8ff" d="M587.18,-286.11C605.22,-287.98 626.95,-290.24 647.87,-292.42"/>
<polygon fill="#63b8ff" stroke="#63b8ff" points="647.24,-295.87 657.55,-293.42 647.96,-288.91 647.24,-295.87"/>
</a>
</g>
</g>
<!-- Node6 -->
<g id="Node000006" class="node">
<title>Node6</title>
<g id="a_Node000006"><a xlink:href="packet_2datagram_8c.html#a965c07c3bd42101143dfbec7857547c2" target="_top" xlink:title=" ">
<polygon fill="white" stroke="#666666" points="800,-272.12 658,-272.12 658,-251.38 800,-251.38 800,-272.12"/>
<text text-anchor="middle" x="729" y="-258.62" font-family="Helvetica,sans-Serif" font-size="10.00">vlcb_net_pkt_dgram_New</text>
</a>
</g>
</g>
<!-- Node4&#45;&gt;Node6 -->
<g id="edge5_Node000004_Node000006" class="edge">
<title>Node4&#45;&gt;Node6</title>
<g id="a_edge5_Node000004_Node000006"><a xlink:title=" ">
<path fill="none" stroke="#63b8ff" d="M587.18,-277.16C604.78,-275.23 625.89,-272.92 646.34,-270.69"/>
<polygon fill="#63b8ff" stroke="#63b8ff" points="646.55,-274.19 656.11,-269.62 645.79,-267.23 646.55,-274.19"/>
</a>
</g>
</g>
<!-- Node11&#45;&gt;Node10 -->
<g id="edge11_Node000011_Node000010" class="edge">
<title>Node11&#45;&gt;Node10</title>
<g id="a_edge11_Node000011_Node000010"><a xlink:title=" ">
<path fill="none" stroke="#63b8ff" d="M597.13,-75.28C618.16,-77.93 642.64,-81.01 664.7,-83.78"/>
<polygon fill="#63b8ff" stroke="#63b8ff" points="664.13,-87.24 674.49,-85.02 665,-80.29 664.13,-87.24"/>
</a>
</g>
</g>
</g>
</svg>
