<?xml version="1.0" encoding="UTF-8" standalone="no"?>
<!DOCTYPE svg PUBLIC "-//W3C//DTD SVG 1.1//EN"
 "http://www.w3.org/Graphics/SVG/1.1/DTD/svg11.dtd">
<!-- Generated by graphviz version 12.1.2 (20240928.0832)
 -->
<!-- Title: iface_can.c Pages: 1 -->
<svg width="1110pt" height="439pt"
 viewBox="0.00 0.00 1110.38 438.75" xmlns="http://www.w3.org/2000/svg" xmlns:xlink="http://www.w3.org/1999/xlink">
<g id="graph0" class="graph" transform="scale(1 1) rotate(0) translate(4 434.75)">
<title>iface_can.c</title>
<!-- Node1 -->
<g id="Node000001" class="node">
<title>Node1</title>
<g id="a_Node000001"><a xlink:title=" ">
<polygon fill="#999999" stroke="#666666" points="549.38,-430.75 478.62,-430.75 478.62,-410 549.38,-410 549.38,-430.75"/>
<text text-anchor="middle" x="514" y="-417.25" font-family="Helvetica,sans-Serif" font-size="10.00">iface_can.c</text>
</a>
</g>
</g>
<!-- Node2 -->
<g id="Node000002" class="node">
<title>Node2</title>
<g id="a_Node000002"><a xlink:title=" ">
<polygon fill="#e0e0e0" stroke="#999999" points="362.5,-77.5 301.5,-77.5 301.5,-56.75 362.5,-56.75 362.5,-77.5"/>
<text text-anchor="middle" x="332" y="-64" font-family="Helvetica,sans-Serif" font-size="10.00">stdbool.h</text>
</a>
</g>
</g>
<!-- Node1&#45;&gt;Node2 -->
<g id="edge1_Node000001_Node000002" class="edge">
<title>Node1&#45;&gt;Node2</title>
<g id="a_edge1_Node000001_Node000002"><a xlink:title=" ">
<path fill="none" stroke="#63b8ff" d="M478.26,-419.26C361.7,-417.93 0,-405.92 0,-307.88 0,-307.88 0,-307.88 0,-186 0,-125.2 200.26,-87.74 289.71,-74.04"/>
<polygon fill="#63b8ff" stroke="#63b8ff" points="290.2,-77.51 299.57,-72.56 289.16,-70.58 290.2,-77.51"/>
</a>
</g>
</g>
<!-- Node3 -->
<g id="Node000003" class="node">
<title>Node3</title>
<g id="a_Node000003"><a xlink:title=" ">
<polygon fill="#e0e0e0" stroke="#999999" points="737.5,-134.25 682.5,-134.25 682.5,-113.5 737.5,-113.5 737.5,-134.25"/>
<text text-anchor="middle" x="710" y="-120.75" font-family="Helvetica,sans-Serif" font-size="10.00">stddef.h</text>
</a>
</g>
</g>
<!-- Node1&#45;&gt;Node3 -->
<g id="edge2_Node000001_Node000003" class="edge">
<title>Node1&#45;&gt;Node3</title>
<g id="a_edge2_Node000001_Node000003"><a xlink:title=" ">
<path fill="none" stroke="#63b8ff" d="M549.72,-419.17C665.35,-417.55 1022,-404.72 1022,-307.88 1022,-307.88 1022,-307.88 1022,-249.12 1022,-205.87 1001.63,-193.24 965,-170.25 929.67,-148.07 811.6,-134.21 749.29,-128.25"/>
<polygon fill="#63b8ff" stroke="#63b8ff" points="749.76,-124.78 739.48,-127.34 749.11,-131.75 749.76,-124.78"/>
</a>
</g>
</g>
<!-- Node4 -->
<g id="Node000004" class="node">
<title>Node4</title>
<g id="a_Node000004"><a xlink:title=" ">
<polygon fill="#e0e0e0" stroke="#999999" points="1102.38,-374 1049.62,-374 1049.62,-353.25 1102.38,-353.25 1102.38,-374"/>
<text text-anchor="middle" x="1076" y="-360.5" font-family="Helvetica,sans-Serif" font-size="10.00">string.h</text>
</a>
</g>
</g>
<!-- Node1&#45;&gt;Node4 -->
<g id="edge3_Node000001_Node000004" class="edge">
<title>Node1&#45;&gt;Node4</title>
<g id="a_edge3_Node000001_Node000004"><a xlink:title=" ">
<path fill="none" stroke="#63b8ff" d="M549.66,-418.04C634.44,-414.48 854.55,-403 1036,-374 1036.82,-373.87 1037.65,-373.73 1038.48,-373.59"/>
<polygon fill="#63b8ff" stroke="#63b8ff" points="1038.81,-377.09 1047.94,-371.71 1037.45,-370.22 1038.81,-377.09"/>
</a>
</g>
</g>
<!-- Node5 -->
<g id="Node000005" class="node">
<title>Node5</title>
<g id="a_Node000005"><a xlink:href="iface__can__svc_8c.html" target="_top" xlink:title=" ">
<polygon fill="white" stroke="#666666" points="829.25,-374 736.75,-374 736.75,-353.25 829.25,-353.25 829.25,-374"/>
<text text-anchor="middle" x="783" y="-360.5" font-family="Helvetica,sans-Serif" font-size="10.00">iface_can_svc.c</text>
</a>
</g>
</g>
<!-- Node1&#45;&gt;Node5 -->
<g id="edge4_Node000001_Node000005" class="edge">
<title>Node1&#45;&gt;Node5</title>
<g id="a_edge4_Node000001_Node000005"><a xlink:title=" ">
<path fill="none" stroke="#63b8ff" d="M549.72,-412.1C594.55,-402.98 672.01,-387.21 725.3,-376.37"/>
<polygon fill="#63b8ff" stroke="#63b8ff" points="725.69,-379.86 734.8,-374.44 724.3,-373 725.69,-379.86"/>
</a>
</g>
</g>
<!-- Node10 -->
<g id="Node000010" class="node">
<title>Node10</title>
<g id="a_Node000010"><a xlink:href="adapter_8h.html" target="_top" xlink:title=" ">
<polygon fill="white" stroke="#666666" points="513.88,-260.5 410.12,-260.5 410.12,-239.75 513.88,-239.75 513.88,-260.5"/>
<text text-anchor="middle" x="462" y="-247" font-family="Helvetica,sans-Serif" font-size="10.00">vlcb/net/adapter.h</text>
</a>
</g>
</g>
<!-- Node1&#45;&gt;Node10 -->
<g id="edge48_Node000001_Node000010" class="edge">
<title>Node1&#45;&gt;Node10</title>
<g id="a_edge48_Node000001_Node000010"><a xlink:title=" ">
<path fill="none" stroke="#63b8ff" d="M506.72,-409.61C494.21,-392.17 469.13,-354.04 460,-317.25 456.31,-302.38 457.01,-285.06 458.52,-271.87"/>
<polygon fill="#63b8ff" stroke="#63b8ff" points="461.95,-272.61 459.9,-262.21 455.02,-271.62 461.95,-272.61"/>
</a>
</g>
</g>
<!-- Node14 -->
<g id="Node000014" class="node">
<title>Node14</title>
<g id="a_Node000014"><a xlink:href="addr_8h.html" target="_top" xlink:title=" ">
<polygon fill="white" stroke="#666666" points="956,-197.38 868,-197.38 868,-176.62 956,-176.62 956,-197.38"/>
<text text-anchor="middle" x="912" y="-183.88" font-family="Helvetica,sans-Serif" font-size="10.00">vlcb/net/addr.h</text>
</a>
</g>
</g>
<!-- Node1&#45;&gt;Node14 -->
<g id="edge49_Node000001_Node000014" class="edge">
<title>Node1&#45;&gt;Node14</title>
<g id="a_edge49_Node000001_Node000014"><a xlink:title=" ">
<path fill="none" stroke="#63b8ff" d="M549.83,-418.78C624.57,-416.86 793.83,-408.68 838,-374 890.67,-332.65 905.97,-248.17 910.32,-208.92"/>
<polygon fill="#63b8ff" stroke="#63b8ff" points="913.79,-209.46 911.26,-199.17 906.82,-208.8 913.79,-209.46"/>
</a>
</g>
</g>
<!-- Node16 -->
<g id="Node000016" class="node">
<title>Node16</title>
<g id="a_Node000016"><a xlink:href="iface_8h.html" target="_top" xlink:title=" ">
<polygon fill="white" stroke="#666666" points="559.5,-317.25 468.5,-317.25 468.5,-296.5 559.5,-296.5 559.5,-317.25"/>
<text text-anchor="middle" x="514" y="-303.75" font-family="Helvetica,sans-Serif" font-size="10.00">vlcb/net/iface.h</text>
</a>
</g>
</g>
<!-- Node1&#45;&gt;Node16 -->
<g id="edge50_Node000001_Node000016" class="edge">
<title>Node1&#45;&gt;Node16</title>
<g id="a_edge50_Node000001_Node000016"><a xlink:title=" ">
<path fill="none" stroke="#63b8ff" d="M514,-409.87C514,-392.1 514,-353.47 514,-329.18"/>
<polygon fill="#63b8ff" stroke="#63b8ff" points="517.5,-329.19 514,-319.19 510.5,-329.19 517.5,-329.19"/>
</a>
</g>
</g>
<!-- Node17 -->
<g id="Node000017" class="node">
<title>Node17</title>
<g id="a_Node000017"><a xlink:href="socket_8h.html" target="_top" xlink:title=" ">
<polygon fill="white" stroke="#666666" points="610.25,-260.5 553.75,-260.5 553.75,-239.75 610.25,-239.75 610.25,-260.5"/>
<text text-anchor="middle" x="582" y="-247" font-family="Helvetica,sans-Serif" font-size="10.00">socket.h</text>
</a>
</g>
</g>
<!-- Node1&#45;&gt;Node17 -->
<g id="edge52_Node000001_Node000017" class="edge">
<title>Node1&#45;&gt;Node17</title>
<g id="a_edge52_Node000001_Node000017"><a xlink:title=" ">
<path fill="none" stroke="#63b8ff" d="M520.51,-409.69C532.05,-392.08 556.09,-353.27 569,-317.25 574.26,-302.56 577.57,-285.23 579.53,-271.99"/>
<polygon fill="#63b8ff" stroke="#63b8ff" points="582.98,-272.66 580.82,-262.28 576.04,-271.74 582.98,-272.66"/>
</a>
</g>
</g>
<!-- Node18 -->
<g id="Node000018" class="node">
<title>Node18</title>
<g id="a_Node000018"><a xlink:href="vlcb_8h.html" target="_top" xlink:title=" ">
<polygon fill="white" stroke="#666666" points="260.25,-197.38 179.75,-197.38 179.75,-176.62 260.25,-176.62 260.25,-197.38"/>
<text text-anchor="middle" x="220" y="-183.88" font-family="Helvetica,sans-Serif" font-size="10.00">packet/vlcb.h</text>
</a>
</g>
</g>
<!-- Node1&#45;&gt;Node18 -->
<g id="edge51_Node000001_Node000018" class="edge">
<title>Node1&#45;&gt;Node18</title>
<g id="a_edge51_Node000001_Node000018"><a xlink:title=" ">
<path fill="none" stroke="#63b8ff" d="M478.16,-418.68C438.12,-416.21 373.14,-406.91 329,-374 271.06,-330.8 238.51,-246.94 226.01,-208.34"/>
<polygon fill="#63b8ff" stroke="#63b8ff" points="229.41,-207.47 223.1,-198.96 222.72,-209.54 229.41,-207.47"/>
</a>
</g>
</g>
<!-- Node20 -->
<g id="Node000020" class="node">
<title>Node20</title>
<g id="a_Node000020"><a xlink:href="iface__vlcb_8h.html" target="_top" xlink:title=" ">
<polygon fill="white" stroke="#666666" points="412.25,-374 337.75,-374 337.75,-353.25 412.25,-353.25 412.25,-374"/>
<text text-anchor="middle" x="375" y="-360.5" font-family="Helvetica,sans-Serif" font-size="10.00">iface_vlcb.h</text>
</a>
</g>
</g>
<!-- Node1&#45;&gt;Node20 -->
<g id="edge45_Node000001_Node000020" class="edge">
<title>Node1&#45;&gt;Node20</title>
<g id="a_edge45_Node000001_Node000020"><a xlink:title=" ">
<path fill="none" stroke="#63b8ff" d="M489.15,-409.59C467.11,-400.91 434.68,-388.13 410.02,-378.42"/>
<polygon fill="#63b8ff" stroke="#63b8ff" points="411.63,-375.29 401.04,-374.88 409.07,-381.8 411.63,-375.29"/>
</a>
</g>
</g>
<!-- Node21 -->
<g id="Node000021" class="node">
<title>Node21</title>
<g id="a_Node000021"><a xlink:href="log_8h.html" target="_top" xlink:title=" ">
<polygon fill="white" stroke="#666666" points="136.12,-317.25 27.88,-317.25 27.88,-296.5 136.12,-296.5 136.12,-317.25"/>
<text text-anchor="middle" x="82" y="-303.75" font-family="Helvetica,sans-Serif" font-size="10.00">vlcb/platform/log.h</text>
</a>
</g>
</g>
<!-- Node1&#45;&gt;Node21 -->
<g id="edge53_Node000001_Node000021" class="edge">
<title>Node1&#45;&gt;Node21</title>
<g id="a_edge53_Node000001_Node000021"><a xlink:title=" ">
<path fill="none" stroke="#63b8ff" d="M478.21,-417.8C398.23,-413.82 207.55,-401.64 150,-374 127.38,-363.14 107.6,-341.78 95.29,-326.27"/>
<polygon fill="#63b8ff" stroke="#63b8ff" points="98.38,-324.56 89.55,-318.72 92.81,-328.8 98.38,-324.56"/>
</a>
</g>
</g>
<!-- Node6 -->
<g id="Node000006" class="node">
<title>Node6</title>
<g id="a_Node000006"><a xlink:href="common_2inc_2vlcb_2common_2can_8h.html" target="_top" xlink:title=" ">
<polygon fill="white" stroke="#666666" points="623.62,-134.25 512.38,-134.25 512.38,-113.5 623.62,-113.5 623.62,-134.25"/>
<text text-anchor="middle" x="568" y="-120.75" font-family="Helvetica,sans-Serif" font-size="10.00">vlcb/common/can.h</text>
</a>
</g>
</g>
<!-- Node5&#45;&gt;Node6 -->
<g id="edge5_Node000005_Node000006" class="edge">
<title>Node5&#45;&gt;Node6</title>
<g id="a_edge5_Node000005_Node000006"><a xlink:title=" ">
<path fill="none" stroke="#63b8ff" d="M786.79,-352.84C798.05,-321.99 827.81,-225.5 783,-170.25 764.59,-147.55 691.22,-135.77 635.26,-129.97"/>
<polygon fill="#63b8ff" stroke="#63b8ff" points="635.77,-126.5 625.48,-129 635.08,-133.47 635.77,-126.5"/>
</a>
</g>
</g>
<!-- Node8 -->
<g id="Node000008" class="node">
<title>Node8</title>
<g id="a_Node000008"><a xlink:title=" ">
<polygon fill="#e0e0e0" stroke="#999999" points="751.38,-20.75 698.62,-20.75 698.62,0 751.38,0 751.38,-20.75"/>
<text text-anchor="middle" x="725" y="-7.25" font-family="Helvetica,sans-Serif" font-size="10.00">stdint.h</text>
</a>
</g>
</g>
<!-- Node5&#45;&gt;Node8 -->
<g id="edge44_Node000005_Node000008" class="edge">
<title>Node5&#45;&gt;Node8</title>
<g id="a_edge44_Node000005_Node000008"><a xlink:title=" ">
<path fill="none" stroke="#63b8ff" d="M829.68,-355.14C908.62,-339.54 1060,-295.59 1060,-188 1060,-188 1060,-188 1060,-122.88 1060,-60.9 851,-27.27 763.16,-15.87"/>
<polygon fill="#63b8ff" stroke="#63b8ff" points="763.71,-12.41 753.35,-14.63 762.83,-19.35 763.71,-12.41"/>
</a>
</g>
</g>
<!-- Node5&#45;&gt;Node10 -->
<g id="edge11_Node000005_Node000010" class="edge">
<title>Node5&#45;&gt;Node10</title>
<g id="a_edge11_Node000005_Node000010"><a xlink:title=" ">
<path fill="none" stroke="#63b8ff" d="M754.79,-352.83C697.24,-332.83 566.17,-287.31 500.7,-264.57"/>
<polygon fill="#63b8ff" stroke="#63b8ff" points="502.05,-261.33 491.46,-261.36 499.75,-267.94 502.05,-261.33"/>
</a>
</g>
</g>
<!-- Node12 -->
<g id="Node000012" class="node">
<title>Node12</title>
<g id="a_Node000012"><a xlink:href="interface_8h.html" target="_top" xlink:title=" ">
<polygon fill="white" stroke="#666666" points="774.38,-197.38 637.62,-197.38 637.62,-176.62 774.38,-176.62 774.38,-197.38"/>
<text text-anchor="middle" x="706" y="-183.88" font-family="Helvetica,sans-Serif" font-size="10.00">vlcb/platform/interface.h</text>
</a>
</g>
</g>
<!-- Node5&#45;&gt;Node12 -->
<g id="edge42_Node000005_Node000012" class="edge">
<title>Node5&#45;&gt;Node12</title>
<g id="a_edge42_Node000005_Node000012"><a xlink:title=" ">
<path fill="none" stroke="#63b8ff" d="M778.75,-352.99C766.58,-325.38 731.4,-245.6 714.83,-208.03"/>
<polygon fill="#63b8ff" stroke="#63b8ff" points="718.18,-206.95 710.94,-199.21 711.77,-209.77 718.18,-206.95"/>
</a>
</g>
</g>
<!-- Node5&#45;&gt;Node14 -->
<g id="edge25_Node000005_Node000014" class="edge">
<title>Node5&#45;&gt;Node14</title>
<g id="a_edge25_Node000005_Node000014"><a xlink:title=" ">
<path fill="none" stroke="#63b8ff" d="M790.12,-352.99C810.69,-325.15 870.47,-244.22 897.92,-207.06"/>
<polygon fill="#63b8ff" stroke="#63b8ff" points="900.72,-209.16 903.84,-199.04 895.09,-205 900.72,-209.16"/>
</a>
</g>
</g>
<!-- Node15 -->
<g id="Node000015" class="node">
<title>Node15</title>
<g id="a_Node000015"><a xlink:href="time_8h.html" target="_top" xlink:title=" ">
<polygon fill="white" stroke="#666666" points="969.88,-134.25 854.12,-134.25 854.12,-113.5 969.88,-113.5 969.88,-134.25"/>
<text text-anchor="middle" x="912" y="-120.75" font-family="Helvetica,sans-Serif" font-size="10.00">vlcb/platform/time.h</text>
</a>
</g>
</g>
<!-- Node5&#45;&gt;Node15 -->
<g id="edge43_Node000005_Node000015" class="edge">
<title>Node5&#45;&gt;Node15</title>
<g id="a_edge43_Node000005_Node000015"><a xlink:title=" ">
<path fill="none" stroke="#63b8ff" d="M803.1,-352.75C843.1,-331.81 931.66,-278.66 965,-203.75 971.05,-190.15 971.23,-183.77 965,-170.25 959.59,-158.49 949.46,-148.65 939.5,-141.16"/>
<polygon fill="#63b8ff" stroke="#63b8ff" points="941.62,-138.37 931.4,-135.58 937.65,-144.14 941.62,-138.37"/>
</a>
</g>
</g>
<!-- Node5&#45;&gt;Node16 -->
<g id="edge26_Node000005_Node000016" class="edge">
<title>Node5&#45;&gt;Node16</title>
<g id="a_edge26_Node000005_Node000016"><a xlink:title=" ">
<path fill="none" stroke="#63b8ff" d="M736.45,-353.15C690.55,-343.81 620.32,-329.52 571.08,-319.49"/>
<polygon fill="#63b8ff" stroke="#63b8ff" points="571.96,-316.1 561.46,-317.54 570.56,-322.96 571.96,-316.1"/>
</a>
</g>
</g>
<!-- Node6&#45;&gt;Node2 -->
<g id="edge7_Node000006_Node000002" class="edge">
<title>Node6&#45;&gt;Node2</title>
<g id="a_edge7_Node000006_Node000002"><a xlink:title=" ">
<path fill="none" stroke="#63b8ff" d="M525.54,-113.02C482.62,-103.07 416.72,-87.78 373.98,-77.86"/>
<polygon fill="#63b8ff" stroke="#63b8ff" points="374.85,-74.47 364.32,-75.62 373.27,-81.29 374.85,-74.47"/>
</a>
</g>
</g>
<!-- Node7 -->
<g id="Node000007" class="node">
<title>Node7</title>
<g id="a_Node000007"><a xlink:title=" ">
<polygon fill="#e0e0e0" stroke="#999999" points="540.38,-77.5 475.62,-77.5 475.62,-56.75 540.38,-56.75 540.38,-77.5"/>
<text text-anchor="middle" x="508" y="-64" font-family="Helvetica,sans-Serif" font-size="10.00">inttypes.h</text>
</a>
</g>
</g>
<!-- Node6&#45;&gt;Node7 -->
<g id="edge6_Node000006_Node000007" class="edge">
<title>Node6&#45;&gt;Node7</title>
<g id="a_edge6_Node000006_Node000007"><a xlink:title=" ">
<path fill="none" stroke="#63b8ff" d="M557.27,-113.09C548.91,-105.46 537.09,-94.67 527.12,-85.57"/>
<polygon fill="#63b8ff" stroke="#63b8ff" points="529.5,-83 519.75,-78.85 524.78,-88.17 529.5,-83"/>
</a>
</g>
</g>
<!-- Node6&#45;&gt;Node8 -->
<g id="edge8_Node000006_Node000008" class="edge">
<title>Node6&#45;&gt;Node8</title>
<g id="a_edge8_Node000006_Node000008"><a xlink:title=" ">
<path fill="none" stroke="#63b8ff" d="M576.95,-113.04C589.78,-99.3 614.56,-74.11 639,-56.75 655.6,-44.96 675.64,-34.21 692.2,-26.14"/>
<polygon fill="#63b8ff" stroke="#63b8ff" points="693.61,-29.34 701.14,-21.88 690.61,-23.02 693.61,-29.34"/>
</a>
</g>
</g>
<!-- Node9 -->
<g id="Node000009" class="node">
<title>Node9</title>
<g id="a_Node000009"><a xlink:href="opcode_8h.html" target="_top" xlink:title=" ">
<polygon fill="white" stroke="#666666" points="457.12,-77.5 396.88,-77.5 396.88,-56.75 457.12,-56.75 457.12,-77.5"/>
<text text-anchor="middle" x="427" y="-64" font-family="Helvetica,sans-Serif" font-size="10.00">opcode.h</text>
</a>
</g>
</g>
<!-- Node6&#45;&gt;Node9 -->
<g id="edge9_Node000006_Node000009" class="edge">
<title>Node6&#45;&gt;Node9</title>
<g id="a_edge9_Node000006_Node000009"><a xlink:title=" ">
<path fill="none" stroke="#63b8ff" d="M542.79,-113.09C520.44,-104.41 487.54,-91.63 462.52,-81.92"/>
<polygon fill="#63b8ff" stroke="#63b8ff" points="463.99,-78.73 453.4,-78.38 461.46,-85.26 463.99,-78.73"/>
</a>
</g>
</g>
<!-- Node9&#45;&gt;Node8 -->
<g id="edge10_Node000009_Node000008" class="edge">
<title>Node9&#45;&gt;Node8</title>
<g id="a_edge10_Node000009_Node000008"><a xlink:title=" ">
<path fill="none" stroke="#63b8ff" d="M457.54,-58.78C460.73,-58.07 463.93,-57.38 467,-56.75 544.75,-40.81 636.39,-25.52 686.85,-17.4"/>
<polygon fill="#63b8ff" stroke="#63b8ff" points="687.35,-20.86 696.67,-15.82 686.24,-13.95 687.35,-20.86"/>
</a>
</g>
</g>
<!-- Node10&#45;&gt;Node2 -->
<g id="edge13_Node000010_Node000002" class="edge">
<title>Node10&#45;&gt;Node2</title>
<g id="a_edge13_Node000010_Node000002"><a xlink:title=" ">
<path fill="none" stroke="#63b8ff" d="M409.92,-247.39C334.2,-243.86 198.63,-233.48 161,-203.75 134.87,-183.1 139.34,-166.94 133,-134.25 131.24,-125.2 127.25,-120.71 133,-113.5 152.26,-89.36 237.56,-77.05 290.03,-71.66"/>
<polygon fill="#63b8ff" stroke="#63b8ff" points="290.21,-75.16 299.82,-70.7 289.53,-68.19 290.21,-75.16"/>
</a>
</g>
</g>
<!-- Node10&#45;&gt;Node7 -->
<g id="edge12_Node000010_Node000007" class="edge">
<title>Node10&#45;&gt;Node7</title>
<g id="a_edge12_Node000010_Node000007"><a xlink:title=" ">
<path fill="none" stroke="#63b8ff" d="M464.27,-239.39C467.77,-224.48 474.72,-195.1 481,-170.25 488.14,-141.99 496.82,-109.46 502.38,-88.86"/>
<polygon fill="#63b8ff" stroke="#63b8ff" points="505.69,-89.99 504.93,-79.43 498.94,-88.17 505.69,-89.99"/>
</a>
</g>
</g>
<!-- Node11 -->
<g id="Node000011" class="node">
<title>Node11</title>
<g id="a_Node000011"><a xlink:href="error_8h.html" target="_top" xlink:title=" ">
<polygon fill="white" stroke="#666666" points="257.88,-134.25 142.12,-134.25 142.12,-113.5 257.88,-113.5 257.88,-134.25"/>
<text text-anchor="middle" x="200" y="-120.75" font-family="Helvetica,sans-Serif" font-size="10.00">vlcb/platform/error.h</text>
</a>
</g>
</g>
<!-- Node10&#45;&gt;Node11 -->
<g id="edge14_Node000010_Node000011" class="edge">
<title>Node10&#45;&gt;Node11</title>
<g id="a_edge14_Node000010_Node000011"><a xlink:title=" ">
<path fill="none" stroke="#63b8ff" d="M409.77,-248.78C334.47,-247.05 201.14,-238.95 171,-203.75 156.11,-186.36 170.37,-160.65 183.64,-143.35"/>
<polygon fill="#63b8ff" stroke="#63b8ff" points="186.13,-145.84 189.76,-135.89 180.72,-141.4 186.13,-145.84"/>
</a>
</g>
</g>
<!-- Node10&#45;&gt;Node12 -->
<g id="edge15_Node000010_Node000012" class="edge">
<title>Node10&#45;&gt;Node12</title>
<g id="a_edge15_Node000010_Node000012"><a xlink:title=" ">
<path fill="none" stroke="#63b8ff" d="M501.2,-239.3C543.27,-228.77 610.2,-212 656.02,-200.52"/>
<polygon fill="#63b8ff" stroke="#63b8ff" points="656.58,-203.99 665.43,-198.16 654.88,-197.2 656.58,-203.99"/>
</a>
</g>
</g>
<!-- Node13 -->
<g id="Node000013" class="node">
<title>Node13</title>
<g id="a_Node000013"><a xlink:href="packet_8h.html" target="_top" xlink:title=" ">
<polygon fill="white" stroke="#666666" points="396,-197.38 278,-197.38 278,-176.62 396,-176.62 396,-197.38"/>
<text text-anchor="middle" x="337" y="-183.88" font-family="Helvetica,sans-Serif" font-size="10.00">adapter/can/packet.h</text>
</a>
</g>
</g>
<!-- Node10&#45;&gt;Node13 -->
<g id="edge17_Node000010_Node000013" class="edge">
<title>Node10&#45;&gt;Node13</title>
<g id="a_edge17_Node000010_Node000013"><a xlink:title=" ">
<path fill="none" stroke="#63b8ff" d="M441.92,-239.3C421.78,-229.46 390.52,-214.17 367.35,-202.84"/>
<polygon fill="#63b8ff" stroke="#63b8ff" points="368.91,-199.71 358.39,-198.46 365.84,-206 368.91,-199.71"/>
</a>
</g>
</g>
<!-- Node10&#45;&gt;Node14 -->
<g id="edge20_Node000010_Node000014" class="edge">
<title>Node10&#45;&gt;Node14</title>
<g id="a_edge20_Node000010_Node000014"><a xlink:title=" ">
<path fill="none" stroke="#63b8ff" d="M514.06,-242.05C599.53,-230.44 768.82,-207.45 856.49,-195.54"/>
<polygon fill="#63b8ff" stroke="#63b8ff" points="856.85,-199.02 866.29,-194.21 855.91,-192.09 856.85,-199.02"/>
</a>
</g>
</g>
<!-- Node12&#45;&gt;Node3 -->
<g id="edge16_Node000012_Node000003" class="edge">
<title>Node12&#45;&gt;Node3</title>
<g id="a_edge16_Node000012_Node000003"><a xlink:title=" ">
<path fill="none" stroke="#63b8ff" d="M706.64,-176.18C707.18,-168.02 707.95,-156.13 708.63,-145.85"/>
<polygon fill="#63b8ff" stroke="#63b8ff" points="712.11,-146.19 709.27,-135.98 705.13,-145.73 712.11,-146.19"/>
</a>
</g>
</g>
<!-- Node13&#45;&gt;Node2 -->
<g id="edge18_Node000013_Node000002" class="edge">
<title>Node13&#45;&gt;Node2</title>
<g id="a_edge18_Node000013_Node000002"><a xlink:title=" ">
<path fill="none" stroke="#63b8ff" d="M336.59,-176.35C335.79,-157.44 333.99,-115.11 332.9,-89.35"/>
<polygon fill="#63b8ff" stroke="#63b8ff" points="336.4,-89.26 332.48,-79.42 329.41,-89.56 336.4,-89.26"/>
</a>
</g>
</g>
<!-- Node13&#45;&gt;Node6 -->
<g id="edge19_Node000013_Node000006" class="edge">
<title>Node13&#45;&gt;Node6</title>
<g id="a_edge19_Node000013_Node000006"><a xlink:title=" ">
<path fill="none" stroke="#63b8ff" d="M374.11,-176.18C413.69,-165.71 476.5,-149.09 519.85,-137.62"/>
<polygon fill="#63b8ff" stroke="#63b8ff" points="520.74,-141 529.51,-135.06 518.95,-134.23 520.74,-141"/>
</a>
</g>
</g>
<!-- Node14&#45;&gt;Node6 -->
<g id="edge21_Node000014_Node000006" class="edge">
<title>Node14&#45;&gt;Node6</title>
<g id="a_edge21_Node000014_Node000006"><a xlink:title=" ">
<path fill="none" stroke="#63b8ff" d="M867.73,-178.13C808.6,-167.63 703.33,-148.92 634.6,-136.71"/>
<polygon fill="#63b8ff" stroke="#63b8ff" points="635.42,-133.3 624.96,-135 634.2,-140.19 635.42,-133.3"/>
</a>
</g>
</g>
<!-- Node14&#45;&gt;Node8 -->
<g id="edge24_Node000014_Node000008" class="edge">
<title>Node14&#45;&gt;Node8</title>
<g id="a_edge24_Node000014_Node000008"><a xlink:title=" ">
<path fill="none" stroke="#63b8ff" d="M898.21,-176.22C884.34,-166.19 862.56,-149.89 845,-134.25 805.7,-99.26 763.57,-54.13 741.17,-29.46"/>
<polygon fill="#63b8ff" stroke="#63b8ff" points="743.92,-27.27 734.62,-22.19 738.72,-31.96 743.92,-27.27"/>
</a>
</g>
</g>
<!-- Node14&#45;&gt;Node15 -->
<g id="edge22_Node000014_Node000015" class="edge">
<title>Node14&#45;&gt;Node15</title>
<g id="a_edge22_Node000014_Node000015"><a xlink:title=" ">
<path fill="none" stroke="#63b8ff" d="M912,-176.18C912,-168.02 912,-156.13 912,-145.85"/>
<polygon fill="#63b8ff" stroke="#63b8ff" points="915.5,-145.98 912,-135.98 908.5,-145.98 915.5,-145.98"/>
</a>
</g>
</g>
<!-- Node15&#45;&gt;Node8 -->
<g id="edge23_Node000015_Node000008" class="edge">
<title>Node15&#45;&gt;Node8</title>
<g id="a_edge23_Node000015_Node000008"><a xlink:title=" ">
<path fill="none" stroke="#63b8ff" d="M897.38,-113.15C877.42,-99.97 840.43,-75.89 808,-56.75 790.13,-46.2 769.69,-35.02 753.56,-26.39"/>
<polygon fill="#63b8ff" stroke="#63b8ff" points="755.47,-23.44 744.99,-21.83 752.18,-29.62 755.47,-23.44"/>
</a>
</g>
</g>
<!-- Node16&#45;&gt;Node2 -->
<g id="edge27_Node000016_Node000002" class="edge">
<title>Node16&#45;&gt;Node2</title>
<g id="a_edge27_Node000016_Node000002"><a xlink:title=" ">
<path fill="none" stroke="#63b8ff" d="M468.2,-299.91C377.25,-287.1 178.89,-253.97 135,-203.75 108.48,-173.4 100.75,-144.92 126,-113.5 146.14,-88.44 235.59,-76.41 289.78,-71.32"/>
<polygon fill="#63b8ff" stroke="#63b8ff" points="289.94,-74.82 299.59,-70.45 289.32,-67.85 289.94,-74.82"/>
</a>
</g>
</g>
<!-- Node16&#45;&gt;Node10 -->
<g id="edge28_Node000016_Node000010" class="edge">
<title>Node16&#45;&gt;Node10</title>
<g id="a_edge28_Node000016_Node000010"><a xlink:title=" ">
<path fill="none" stroke="#63b8ff" d="M504.7,-296.09C497.6,-288.61 487.63,-278.11 479.1,-269.13"/>
<polygon fill="#63b8ff" stroke="#63b8ff" points="481.68,-266.77 472.26,-261.93 476.61,-271.59 481.68,-266.77"/>
</a>
</g>
</g>
<!-- Node16&#45;&gt;Node17 -->
<g id="edge29_Node000016_Node000017" class="edge">
<title>Node16&#45;&gt;Node17</title>
<g id="a_edge29_Node000016_Node000017"><a xlink:title=" ">
<path fill="none" stroke="#63b8ff" d="M526.16,-296.09C535.83,-288.3 549.58,-277.22 561.02,-268.01"/>
<polygon fill="#63b8ff" stroke="#63b8ff" points="563.18,-270.78 568.77,-261.78 558.79,-265.32 563.18,-270.78"/>
</a>
</g>
</g>
<!-- Node17&#45;&gt;Node2 -->
<g id="edge30_Node000017_Node000002" class="edge">
<title>Node17&#45;&gt;Node2</title>
<g id="a_edge30_Node000017_Node000002"><a xlink:title=" ">
<path fill="none" stroke="#63b8ff" d="M554.21,-239.38C533.21,-231.39 504.15,-218.93 481,-203.75 427.39,-168.6 374.17,-114.26 348.26,-86.23"/>
<polygon fill="#63b8ff" stroke="#63b8ff" points="350.91,-83.94 341.58,-78.91 345.74,-88.66 350.91,-83.94"/>
</a>
</g>
</g>
<!-- Node17&#45;&gt;Node3 -->
<g id="edge31_Node000017_Node000003" class="edge">
<title>Node17&#45;&gt;Node3</title>
<g id="a_edge31_Node000017_Node000003"><a xlink:title=" ">
<path fill="none" stroke="#63b8ff" d="M610.56,-246.96C660.81,-242.5 761.72,-230.37 783,-203.75 792.3,-192.12 790.23,-183.26 783,-170.25 775.32,-156.43 761.48,-146.27 747.91,-139.12"/>
<polygon fill="#63b8ff" stroke="#63b8ff" points="749.58,-136.04 739.05,-134.87 746.56,-142.35 749.58,-136.04"/>
</a>
</g>
</g>
<!-- Node17&#45;&gt;Node12 -->
<g id="edge41_Node000017_Node000012" class="edge">
<title>Node17&#45;&gt;Node12</title>
<g id="a_edge41_Node000017_Node000012"><a xlink:title=" ">
<path fill="none" stroke="#63b8ff" d="M601.92,-239.3C621.9,-229.46 652.91,-214.17 675.89,-202.84"/>
<polygon fill="#63b8ff" stroke="#63b8ff" points="677.35,-206.03 684.77,-198.47 674.25,-199.75 677.35,-206.03"/>
</a>
</g>
</g>
<!-- Node17&#45;&gt;Node14 -->
<g id="edge36_Node000017_Node000014" class="edge">
<title>Node17&#45;&gt;Node14</title>
<g id="a_edge36_Node000017_Node000014"><a xlink:title=" ">
<path fill="none" stroke="#63b8ff" d="M610.37,-245.34C660.04,-238.52 765.84,-223.02 854,-203.75 858.29,-202.81 862.74,-201.76 867.18,-200.65"/>
<polygon fill="#63b8ff" stroke="#63b8ff" points="867.83,-204.09 876.63,-198.2 866.07,-197.32 867.83,-204.09"/>
</a>
</g>
</g>
<!-- Node17&#45;&gt;Node18 -->
<g id="edge32_Node000017_Node000018" class="edge">
<title>Node17&#45;&gt;Node18</title>
<g id="a_edge32_Node000017_Node000018"><a xlink:title=" ">
<path fill="none" stroke="#63b8ff" d="M553.51,-244.5C543.83,-242.95 532.95,-241.25 523,-239.75 410.25,-222.8 380.12,-229.29 269,-203.75 265.63,-202.97 262.15,-202.07 258.68,-201.1"/>
<polygon fill="#63b8ff" stroke="#63b8ff" points="259.79,-197.78 249.21,-198.26 257.78,-204.49 259.79,-197.78"/>
</a>
</g>
</g>
<!-- Node19 -->
<g id="Node000019" class="node">
<title>Node19</title>
<g id="a_Node000019"><a xlink:href="packet__buf_8h.html" target="_top" xlink:title=" ">
<polygon fill="white" stroke="#666666" points="620,-203.75 490,-203.75 490,-170.25 620,-170.25 620,-203.75"/>
<text text-anchor="start" x="498" y="-190.25" font-family="Helvetica,sans-Serif" font-size="10.00">vlcb/net/storage/packet</text>
<text text-anchor="middle" x="555" y="-177.5" font-family="Helvetica,sans-Serif" font-size="10.00">_buf.h</text>
</a>
</g>
</g>
<!-- Node17&#45;&gt;Node19 -->
<g id="edge37_Node000017_Node000019" class="edge">
<title>Node17&#45;&gt;Node19</title>
<g id="a_edge37_Node000017_Node000019"><a xlink:title=" ">
<path fill="none" stroke="#63b8ff" d="M577.66,-239.3C574.69,-232.59 570.61,-223.34 566.72,-214.54"/>
<polygon fill="#63b8ff" stroke="#63b8ff" points="570.02,-213.35 562.78,-205.62 563.62,-216.18 570.02,-213.35"/>
</a>
</g>
</g>
<!-- Node18&#45;&gt;Node7 -->
<g id="edge33_Node000018_Node000007" class="edge">
<title>Node18&#45;&gt;Node7</title>
<g id="a_edge33_Node000018_Node000007"><a xlink:title=" ">
<path fill="none" stroke="#63b8ff" d="M244.06,-176.15C295.12,-155.26 414.46,-106.41 473.57,-82.22"/>
<polygon fill="#63b8ff" stroke="#63b8ff" points="474.88,-85.46 482.81,-78.43 472.23,-78.98 474.88,-85.46"/>
</a>
</g>
</g>
<!-- Node18&#45;&gt;Node9 -->
<g id="edge34_Node000018_Node000009" class="edge">
<title>Node18&#45;&gt;Node9</title>
<g id="a_edge34_Node000018_Node000009"><a xlink:title=" ">
<path fill="none" stroke="#63b8ff" d="M237.29,-176.15C273.38,-155.6 356.93,-108.03 400.1,-83.45"/>
<polygon fill="#63b8ff" stroke="#63b8ff" points="401.63,-86.6 408.59,-78.61 398.17,-80.52 401.63,-86.6"/>
</a>
</g>
</g>
<!-- Node18&#45;&gt;Node11 -->
<g id="edge35_Node000018_Node000011" class="edge">
<title>Node18&#45;&gt;Node11</title>
<g id="a_edge35_Node000018_Node000011"><a xlink:title=" ">
<path fill="none" stroke="#63b8ff" d="M216.79,-176.18C214.06,-167.84 210.06,-155.61 206.64,-145.18"/>
<polygon fill="#63b8ff" stroke="#63b8ff" points="210.05,-144.32 203.61,-135.91 203.39,-146.5 210.05,-144.32"/>
</a>
</g>
</g>
<!-- Node19&#45;&gt;Node2 -->
<g id="edge38_Node000019_Node000002" class="edge">
<title>Node19&#45;&gt;Node2</title>
<g id="a_edge38_Node000019_Node000002"><a xlink:title=" ">
<path fill="none" stroke="#63b8ff" d="M526.09,-169.89C499.24,-155.02 458.1,-132.43 422,-113.5 402.11,-103.07 379.54,-91.69 361.98,-82.94"/>
<polygon fill="#63b8ff" stroke="#63b8ff" points="363.62,-79.85 353.11,-78.53 360.51,-86.12 363.62,-79.85"/>
</a>
</g>
</g>
<!-- Node19&#45;&gt;Node3 -->
<g id="edge39_Node000019_Node000003" class="edge">
<title>Node19&#45;&gt;Node3</title>
<g id="a_edge39_Node000019_Node000003"><a xlink:title=" ">
<path fill="none" stroke="#63b8ff" d="M596.13,-169.78C620.6,-160.13 651.32,-148.02 674.68,-138.8"/>
<polygon fill="#63b8ff" stroke="#63b8ff" points="675.75,-142.14 683.77,-135.22 673.18,-135.63 675.75,-142.14"/>
</a>
</g>
</g>
<!-- Node19&#45;&gt;Node8 -->
<g id="edge40_Node000019_Node000008" class="edge">
<title>Node19&#45;&gt;Node8</title>
<g id="a_edge40_Node000019_Node000008"><a xlink:title=" ">
<path fill="none" stroke="#63b8ff" d="M584.14,-169.95C599.59,-160.66 618.35,-148.09 633,-134.25 666.9,-102.22 697.45,-56.56 713.38,-30.88"/>
<polygon fill="#63b8ff" stroke="#63b8ff" points="716.28,-32.84 718.49,-22.48 710.3,-29.2 716.28,-32.84"/>
</a>
</g>
</g>
<!-- Node20&#45;&gt;Node16 -->
<g id="edge46_Node000020_Node000016" class="edge">
<title>Node20&#45;&gt;Node16</title>
<g id="a_edge46_Node000020_Node000016"><a xlink:title=" ">
<path fill="none" stroke="#63b8ff" d="M399.85,-352.84C421.89,-344.16 454.32,-331.38 478.98,-321.67"/>
<polygon fill="#63b8ff" stroke="#63b8ff" points="479.93,-325.05 487.96,-318.13 477.37,-318.54 479.93,-325.05"/>
</a>
</g>
</g>
<!-- Node20&#45;&gt;Node18 -->
<g id="edge47_Node000020_Node000018" class="edge">
<title>Node20&#45;&gt;Node18</title>
<g id="a_edge47_Node000020_Node000018"><a xlink:title=" ">
<path fill="none" stroke="#63b8ff" d="M366.45,-352.99C341.52,-324.91 268.67,-242.84 236.08,-206.12"/>
<polygon fill="#63b8ff" stroke="#63b8ff" points="238.98,-204.11 229.72,-198.95 233.74,-208.76 238.98,-204.11"/>
</a>
</g>
</g>
<!-- Node21&#45;&gt;Node11 -->
<g id="edge54_Node000021_Node000011" class="edge">
<title>Node21&#45;&gt;Node11</title>
<g id="a_edge54_Node000021_Node000011"><a xlink:title=" ">
<path fill="none" stroke="#63b8ff" d="M86.8,-296.3C98.34,-273.61 129.08,-215.09 161,-170.25 167.74,-160.78 176.04,-150.92 183.25,-142.82"/>
<polygon fill="#63b8ff" stroke="#63b8ff" points="185.62,-145.41 189.76,-135.66 180.44,-140.7 185.62,-145.41"/>
</a>
</g>
</g>
</g>
</svg>
