<?xml version="1.0" encoding="UTF-8" standalone="no"?>
<!DOCTYPE svg PUBLIC "-//W3C//DTD SVG 1.1//EN"
 "http://www.w3.org/Graphics/SVG/1.1/DTD/svg11.dtd">
<!-- Generated by graphviz version 12.1.2 (20240928.0832)
 -->
<!-- Title: iface_vlcb.h Pages: 1 -->
<svg width="633pt" height="369pt"
 viewBox="0.00 0.00 632.79 369.25" xmlns="http://www.w3.org/2000/svg" xmlns:xlink="http://www.w3.org/1999/xlink">
<g id="graph0" class="graph" transform="scale(1 1) rotate(0) translate(4 365.25)">
<title>iface_vlcb.h</title>
<!-- Node1 -->
<g id="Node000001" class="node">
<title>Node1</title>
<g id="a_Node000001"><a xlink:title=" ">
<polygon fill="#999999" stroke="#666666" points="295.62,-361.25 221.12,-361.25 221.12,-340.5 295.62,-340.5 295.62,-361.25"/>
<text text-anchor="middle" x="258.38" y="-347.75" font-family="Helvetica,sans-Serif" font-size="10.00">iface_vlcb.h</text>
</a>
</g>
</g>
<!-- Node2 -->
<g id="Node000002" class="node">
<title>Node2</title>
<g id="a_Node000002"><a xlink:href="iface_8h.html" target="_top" xlink:title=" ">
<polygon fill="white" stroke="#666666" points="424.88,-304.5 333.88,-304.5 333.88,-283.75 424.88,-283.75 424.88,-304.5"/>
<text text-anchor="middle" x="379.38" y="-291" font-family="Helvetica,sans-Serif" font-size="10.00">vlcb/net/iface.h</text>
</a>
</g>
</g>
<!-- Node1&#45;&gt;Node2 -->
<g id="edge1_Node000001_Node000002" class="edge">
<title>Node1&#45;&gt;Node2</title>
<g id="a_edge1_Node000001_Node000002"><a xlink:title=" ">
<path fill="none" stroke="#63b8ff" d="M280.01,-340.09C298.85,-331.56 326.41,-319.09 347.73,-309.44"/>
<polygon fill="#63b8ff" stroke="#63b8ff" points="348.88,-312.76 356.55,-305.45 346,-306.39 348.88,-312.76"/>
</a>
</g>
</g>
<!-- Node15 -->
<g id="Node000015" class="node">
<title>Node15</title>
<g id="a_Node000015"><a xlink:href="vlcb_8h.html" target="_top" xlink:title=" ">
<polygon fill="white" stroke="#666666" points="108.62,-191 28.12,-191 28.12,-170.25 108.62,-170.25 108.62,-191"/>
<text text-anchor="middle" x="68.38" y="-177.5" font-family="Helvetica,sans-Serif" font-size="10.00">packet/vlcb.h</text>
</a>
</g>
</g>
<!-- Node1&#45;&gt;Node15 -->
<g id="edge27_Node000001_Node000015" class="edge">
<title>Node1&#45;&gt;Node15</title>
<g id="a_edge27_Node000001_Node000015"><a xlink:title=" ">
<path fill="none" stroke="#63b8ff" d="M247.34,-340.1C216.25,-312.57 127.64,-234.11 87.98,-198.99"/>
<polygon fill="#63b8ff" stroke="#63b8ff" points="90.38,-196.44 80.58,-192.43 85.74,-201.68 90.38,-196.44"/>
</a>
</g>
</g>
<!-- Node3 -->
<g id="Node000003" class="node">
<title>Node3</title>
<g id="a_Node000003"><a xlink:title=" ">
<polygon fill="#e0e0e0" stroke="#999999" points="446.88,-77.5 385.88,-77.5 385.88,-56.75 446.88,-56.75 446.88,-77.5"/>
<text text-anchor="middle" x="416.38" y="-64" font-family="Helvetica,sans-Serif" font-size="10.00">stdbool.h</text>
</a>
</g>
</g>
<!-- Node2&#45;&gt;Node3 -->
<g id="edge2_Node000002_Node000003" class="edge">
<title>Node2&#45;&gt;Node3</title>
<g id="a_edge2_Node000002_Node000003"><a xlink:title=" ">
<path fill="none" stroke="#63b8ff" d="M425.24,-290.59C485.1,-284.4 586.35,-263.21 621.38,-191 631.26,-170.62 616.72,-121.9 608.38,-113.5 587.71,-92.69 508.76,-79.41 458.76,-72.91"/>
<polygon fill="#63b8ff" stroke="#63b8ff" points="459.2,-69.43 448.84,-71.66 458.32,-76.38 459.2,-69.43"/>
</a>
</g>
</g>
<!-- Node4 -->
<g id="Node000004" class="node">
<title>Node4</title>
<g id="a_Node000004"><a xlink:href="adapter_8h.html" target="_top" xlink:title=" ">
<polygon fill="white" stroke="#666666" points="360.25,-247.75 298.5,-247.75 298.5,-227 360.25,-227 360.25,-247.75"/>
<text text-anchor="middle" x="329.38" y="-234.25" font-family="Helvetica,sans-Serif" font-size="10.00">adapter.h</text>
</a>
</g>
</g>
<!-- Node2&#45;&gt;Node4 -->
<g id="edge3_Node000002_Node000004" class="edge">
<title>Node2&#45;&gt;Node4</title>
<g id="a_edge3_Node000002_Node000004"><a xlink:title=" ">
<path fill="none" stroke="#63b8ff" d="M370.44,-283.34C363.61,-275.86 354.01,-265.36 345.82,-256.38"/>
<polygon fill="#63b8ff" stroke="#63b8ff" points="348.59,-254.22 339.26,-249.2 343.42,-258.94 348.59,-254.22"/>
</a>
</g>
</g>
<!-- Node14 -->
<g id="Node000014" class="node">
<title>Node14</title>
<g id="a_Node000014"><a xlink:href="socket_8h.html" target="_top" xlink:title=" ">
<polygon fill="white" stroke="#666666" points="540.62,-247.75 484.12,-247.75 484.12,-227 540.62,-227 540.62,-247.75"/>
<text text-anchor="middle" x="512.38" y="-234.25" font-family="Helvetica,sans-Serif" font-size="10.00">socket.h</text>
</a>
</g>
</g>
<!-- Node2&#45;&gt;Node14 -->
<g id="edge19_Node000002_Node000014" class="edge">
<title>Node2&#45;&gt;Node14</title>
<g id="a_edge19_Node000002_Node000014"><a xlink:title=" ">
<path fill="none" stroke="#63b8ff" d="M403.15,-283.34C424.05,-274.73 454.71,-262.11 478.23,-252.43"/>
<polygon fill="#63b8ff" stroke="#63b8ff" points="479.49,-255.7 487.4,-248.65 476.82,-249.22 479.49,-255.7"/>
</a>
</g>
</g>
<!-- Node4&#45;&gt;Node3 -->
<g id="edge5_Node000004_Node000003" class="edge">
<title>Node4&#45;&gt;Node3</title>
<g id="a_edge5_Node000004_Node000003"><a xlink:title=" ">
<path fill="none" stroke="#63b8ff" d="M353.35,-226.54C368.45,-219.06 386.99,-207.27 397.38,-191 417.24,-159.86 419.04,-115.46 418.05,-89.43"/>
<polygon fill="#63b8ff" stroke="#63b8ff" points="421.54,-89.26 417.47,-79.48 414.55,-89.66 421.54,-89.26"/>
</a>
</g>
</g>
<!-- Node5 -->
<g id="Node000005" class="node">
<title>Node5</title>
<g id="a_Node000005"><a xlink:title=" ">
<polygon fill="#e0e0e0" stroke="#999999" points="64.75,-77.5 0,-77.5 0,-56.75 64.75,-56.75 64.75,-77.5"/>
<text text-anchor="middle" x="32.38" y="-64" font-family="Helvetica,sans-Serif" font-size="10.00">inttypes.h</text>
</a>
</g>
</g>
<!-- Node4&#45;&gt;Node5 -->
<g id="edge4_Node000004_Node000005" class="edge">
<title>Node4&#45;&gt;Node5</title>
<g id="a_edge4_Node000004_Node000005"><a xlink:title=" ">
<path fill="none" stroke="#63b8ff" d="M298.08,-236.72C226.69,-236.77 55.21,-232.46 19.38,-191 -5.42,-162.31 10.22,-114.67 22.28,-87.91"/>
<polygon fill="#63b8ff" stroke="#63b8ff" points="25.29,-89.74 26.45,-79.21 18.97,-86.72 25.29,-89.74"/>
</a>
</g>
</g>
<!-- Node6 -->
<g id="Node000006" class="node">
<title>Node6</title>
<g id="a_Node000006"><a xlink:href="error_8h.html" target="_top" xlink:title=" ">
<polygon fill="white" stroke="#666666" points="214.25,-134.25 98.5,-134.25 98.5,-113.5 214.25,-113.5 214.25,-134.25"/>
<text text-anchor="middle" x="156.38" y="-120.75" font-family="Helvetica,sans-Serif" font-size="10.00">vlcb/platform/error.h</text>
</a>
</g>
</g>
<!-- Node4&#45;&gt;Node6 -->
<g id="edge6_Node000004_Node000006" class="edge">
<title>Node4&#45;&gt;Node6</title>
<g id="a_edge6_Node000004_Node000006"><a xlink:title=" ">
<path fill="none" stroke="#63b8ff" d="M298.14,-232.78C252.92,-226.86 172.7,-213.42 155.38,-191 145.5,-178.22 146.78,-159.53 149.93,-145.28"/>
<polygon fill="#63b8ff" stroke="#63b8ff" points="153.2,-146.6 152.43,-136.04 146.44,-144.78 153.2,-146.6"/>
</a>
</g>
</g>
<!-- Node7 -->
<g id="Node000007" class="node">
<title>Node7</title>
<g id="a_Node000007"><a xlink:href="interface_8h.html" target="_top" xlink:title=" ">
<polygon fill="white" stroke="#666666" points="580.75,-191 444,-191 444,-170.25 580.75,-170.25 580.75,-191"/>
<text text-anchor="middle" x="512.38" y="-177.5" font-family="Helvetica,sans-Serif" font-size="10.00">vlcb/platform/interface.h</text>
</a>
</g>
</g>
<!-- Node4&#45;&gt;Node7 -->
<g id="edge7_Node000004_Node000007" class="edge">
<title>Node4&#45;&gt;Node7</title>
<g id="a_edge7_Node000004_Node000007"><a xlink:title=" ">
<path fill="none" stroke="#63b8ff" d="M360.42,-227.09C390.19,-218.18 435.43,-204.65 468.81,-194.66"/>
<polygon fill="#63b8ff" stroke="#63b8ff" points="469.61,-198.07 478.18,-191.85 467.6,-191.37 469.61,-198.07"/>
</a>
</g>
</g>
<!-- Node9 -->
<g id="Node000009" class="node">
<title>Node9</title>
<g id="a_Node000009"><a xlink:href="packet_8h.html" target="_top" xlink:title=" ">
<polygon fill="white" stroke="#666666" points="388.38,-191 270.38,-191 270.38,-170.25 388.38,-170.25 388.38,-191"/>
<text text-anchor="middle" x="329.38" y="-177.5" font-family="Helvetica,sans-Serif" font-size="10.00">adapter/can/packet.h</text>
</a>
</g>
</g>
<!-- Node4&#45;&gt;Node9 -->
<g id="edge9_Node000004_Node000009" class="edge">
<title>Node4&#45;&gt;Node9</title>
<g id="a_edge9_Node000004_Node000009"><a xlink:title=" ">
<path fill="none" stroke="#63b8ff" d="M329.38,-226.59C329.38,-219.97 329.38,-210.97 329.38,-202.77"/>
<polygon fill="#63b8ff" stroke="#63b8ff" points="332.88,-202.84 329.38,-192.84 325.88,-202.84 332.88,-202.84"/>
</a>
</g>
</g>
<!-- Node13 -->
<g id="Node000013" class="node">
<title>Node13</title>
<g id="a_Node000013"><a xlink:href="addr_8h.html" target="_top" xlink:title=" ">
<polygon fill="white" stroke="#666666" points="252.38,-191 164.38,-191 164.38,-170.25 252.38,-170.25 252.38,-191"/>
<text text-anchor="middle" x="208.38" y="-177.5" font-family="Helvetica,sans-Serif" font-size="10.00">vlcb/net/addr.h</text>
</a>
</g>
</g>
<!-- Node4&#45;&gt;Node13 -->
<g id="edge17_Node000004_Node000013" class="edge">
<title>Node4&#45;&gt;Node13</title>
<g id="a_edge17_Node000004_Node000013"><a xlink:title=" ">
<path fill="none" stroke="#63b8ff" d="M307.74,-226.59C288.9,-218.06 261.34,-205.59 240.02,-195.94"/>
<polygon fill="#63b8ff" stroke="#63b8ff" points="241.75,-192.89 231.2,-191.95 238.87,-199.26 241.75,-192.89"/>
</a>
</g>
</g>
<!-- Node8 -->
<g id="Node000008" class="node">
<title>Node8</title>
<g id="a_Node000008"><a xlink:title=" ">
<polygon fill="#e0e0e0" stroke="#999999" points="578.88,-134.25 523.88,-134.25 523.88,-113.5 578.88,-113.5 578.88,-134.25"/>
<text text-anchor="middle" x="551.38" y="-120.75" font-family="Helvetica,sans-Serif" font-size="10.00">stddef.h</text>
</a>
</g>
</g>
<!-- Node7&#45;&gt;Node8 -->
<g id="edge8_Node000007_Node000008" class="edge">
<title>Node7&#45;&gt;Node8</title>
<g id="a_edge8_Node000007_Node000008"><a xlink:title=" ">
<path fill="none" stroke="#63b8ff" d="M519.35,-169.84C524.51,-162.6 531.69,-152.51 537.95,-143.72"/>
<polygon fill="#63b8ff" stroke="#63b8ff" points="540.63,-145.99 543.58,-135.81 534.93,-141.93 540.63,-145.99"/>
</a>
</g>
</g>
<!-- Node9&#45;&gt;Node3 -->
<g id="edge10_Node000009_Node000003" class="edge">
<title>Node9&#45;&gt;Node3</title>
<g id="a_edge10_Node000009_Node000003"><a xlink:title=" ">
<path fill="none" stroke="#63b8ff" d="M336.79,-170.12C351.17,-151.7 383.05,-110.84 401.8,-86.8"/>
<polygon fill="#63b8ff" stroke="#63b8ff" points="404.4,-89.16 407.8,-79.12 398.89,-84.85 404.4,-89.16"/>
</a>
</g>
</g>
<!-- Node10 -->
<g id="Node000010" class="node">
<title>Node10</title>
<g id="a_Node000010"><a xlink:href="common_2inc_2vlcb_2common_2can_8h.html" target="_top" xlink:title=" ">
<polygon fill="white" stroke="#666666" points="344,-134.25 232.75,-134.25 232.75,-113.5 344,-113.5 344,-134.25"/>
<text text-anchor="middle" x="288.38" y="-120.75" font-family="Helvetica,sans-Serif" font-size="10.00">vlcb/common/can.h</text>
</a>
</g>
</g>
<!-- Node9&#45;&gt;Node10 -->
<g id="edge11_Node000009_Node000010" class="edge">
<title>Node9&#45;&gt;Node10</title>
<g id="a_edge11_Node000009_Node000010"><a xlink:title=" ">
<path fill="none" stroke="#63b8ff" d="M322.05,-169.84C316.62,-162.6 309.07,-152.51 302.49,-143.72"/>
<polygon fill="#63b8ff" stroke="#63b8ff" points="305.34,-141.7 296.55,-135.79 299.74,-145.89 305.34,-141.7"/>
</a>
</g>
</g>
<!-- Node10&#45;&gt;Node3 -->
<g id="edge13_Node000010_Node000003" class="edge">
<title>Node10&#45;&gt;Node3</title>
<g id="a_edge13_Node000010_Node000003"><a xlink:title=" ">
<path fill="none" stroke="#63b8ff" d="M311.26,-113.09C331.28,-104.52 360.61,-91.98 383.21,-82.31"/>
<polygon fill="#63b8ff" stroke="#63b8ff" points="384.48,-85.57 392.3,-78.42 381.73,-79.14 384.48,-85.57"/>
</a>
</g>
</g>
<!-- Node10&#45;&gt;Node5 -->
<g id="edge12_Node000010_Node000005" class="edge">
<title>Node10&#45;&gt;Node5</title>
<g id="a_edge12_Node000010_Node000005"><a xlink:title=" ">
<path fill="none" stroke="#63b8ff" d="M242.31,-113.02C195.2,-102.95 122.54,-87.41 76.24,-77.51"/>
<polygon fill="#63b8ff" stroke="#63b8ff" points="77.06,-74.1 66.55,-75.43 75.6,-80.95 77.06,-74.1"/>
</a>
</g>
</g>
<!-- Node11 -->
<g id="Node000011" class="node">
<title>Node11</title>
<g id="a_Node000011"><a xlink:title=" ">
<polygon fill="#e0e0e0" stroke="#999999" points="285.75,-20.75 233,-20.75 233,0 285.75,0 285.75,-20.75"/>
<text text-anchor="middle" x="259.38" y="-7.25" font-family="Helvetica,sans-Serif" font-size="10.00">stdint.h</text>
</a>
</g>
</g>
<!-- Node10&#45;&gt;Node11 -->
<g id="edge14_Node000010_Node000011" class="edge">
<title>Node10&#45;&gt;Node11</title>
<g id="a_edge14_Node000010_Node000011"><a xlink:title=" ">
<path fill="none" stroke="#63b8ff" d="M285.9,-113.37C281.24,-95.44 271.05,-56.25 264.74,-32.01"/>
<polygon fill="#63b8ff" stroke="#63b8ff" points="268.21,-31.44 262.3,-22.64 261.43,-33.2 268.21,-31.44"/>
</a>
</g>
</g>
<!-- Node12 -->
<g id="Node000012" class="node">
<title>Node12</title>
<g id="a_Node000012"><a xlink:href="opcode_8h.html" target="_top" xlink:title=" ">
<polygon fill="white" stroke="#666666" points="260.5,-77.5 200.25,-77.5 200.25,-56.75 260.5,-56.75 260.5,-77.5"/>
<text text-anchor="middle" x="230.38" y="-64" font-family="Helvetica,sans-Serif" font-size="10.00">opcode.h</text>
</a>
</g>
</g>
<!-- Node10&#45;&gt;Node12 -->
<g id="edge15_Node000010_Node000012" class="edge">
<title>Node10&#45;&gt;Node12</title>
<g id="a_edge15_Node000010_Node000012"><a xlink:title=" ">
<path fill="none" stroke="#63b8ff" d="M278.01,-113.09C269.92,-105.46 258.49,-94.67 248.85,-85.57"/>
<polygon fill="#63b8ff" stroke="#63b8ff" points="251.43,-83.19 241.76,-78.87 246.62,-88.28 251.43,-83.19"/>
</a>
</g>
</g>
<!-- Node12&#45;&gt;Node11 -->
<g id="edge16_Node000012_Node000011" class="edge">
<title>Node12&#45;&gt;Node11</title>
<g id="a_edge16_Node000012_Node000011"><a xlink:title=" ">
<path fill="none" stroke="#63b8ff" d="M235.56,-56.34C239.27,-49.33 244.39,-39.66 248.94,-31.08"/>
<polygon fill="#63b8ff" stroke="#63b8ff" points="251.94,-32.89 253.53,-22.42 245.75,-29.61 251.94,-32.89"/>
</a>
</g>
</g>
<!-- Node13&#45;&gt;Node10 -->
<g id="edge18_Node000013_Node000010" class="edge">
<title>Node13&#45;&gt;Node10</title>
<g id="a_edge18_Node000013_Node000010"><a xlink:title=" ">
<path fill="none" stroke="#63b8ff" d="M222.68,-169.84C234.39,-161.82 251.21,-150.31 264.9,-140.94"/>
<polygon fill="#63b8ff" stroke="#63b8ff" points="266.67,-143.97 272.95,-135.43 262.72,-138.19 266.67,-143.97"/>
</a>
</g>
</g>
<!-- Node14&#45;&gt;Node3 -->
<g id="edge20_Node000014_Node000003" class="edge">
<title>Node14&#45;&gt;Node3</title>
<g id="a_edge20_Node000014_Node000003"><a xlink:title=" ">
<path fill="none" stroke="#63b8ff" d="M540.99,-230.88C562.79,-225.03 591.38,-213.4 605.38,-191 618.22,-170.45 599.72,-124.48 588.38,-113.5 553.68,-79.93 497.22,-70.44 458.51,-68.14"/>
<polygon fill="#63b8ff" stroke="#63b8ff" points="458.77,-64.65 448.63,-67.7 458.46,-71.64 458.77,-64.65"/>
</a>
</g>
</g>
<!-- Node14&#45;&gt;Node7 -->
<g id="edge26_Node000014_Node000007" class="edge">
<title>Node14&#45;&gt;Node7</title>
<g id="a_edge26_Node000014_Node000007"><a xlink:title=" ">
<path fill="none" stroke="#63b8ff" d="M512.38,-226.59C512.38,-219.97 512.38,-210.97 512.38,-202.77"/>
<polygon fill="#63b8ff" stroke="#63b8ff" points="515.88,-202.84 512.38,-192.84 508.88,-202.84 515.88,-202.84"/>
</a>
</g>
</g>
<!-- Node14&#45;&gt;Node8 -->
<g id="edge21_Node000014_Node000008" class="edge">
<title>Node14&#45;&gt;Node8</title>
<g id="a_edge21_Node000014_Node000008"><a xlink:title=" ">
<path fill="none" stroke="#63b8ff" d="M540.75,-227.74C558.14,-220.81 578.98,-209.19 589.38,-191 598.84,-174.43 585.61,-155.57 572.24,-142.24"/>
<polygon fill="#63b8ff" stroke="#63b8ff" points="574.93,-139.96 565.2,-135.75 570.18,-145.1 574.93,-139.96"/>
</a>
</g>
</g>
<!-- Node14&#45;&gt;Node15 -->
<g id="edge22_Node000014_Node000015" class="edge">
<title>Node14&#45;&gt;Node15</title>
<g id="a_edge22_Node000014_Node000015"><a xlink:title=" ">
<path fill="none" stroke="#63b8ff" d="M483.93,-232.87C410.62,-223.83 214.43,-199.64 120.24,-188.02"/>
<polygon fill="#63b8ff" stroke="#63b8ff" points="120.86,-184.57 110.51,-186.82 120,-191.52 120.86,-184.57"/>
</a>
</g>
</g>
<!-- Node15&#45;&gt;Node5 -->
<g id="edge23_Node000015_Node000005" class="edge">
<title>Node15&#45;&gt;Node5</title>
<g id="a_edge23_Node000015_Node000005"><a xlink:title=" ">
<path fill="none" stroke="#63b8ff" d="M65.31,-170.12C59.52,-152.19 46.86,-113 39.04,-88.76"/>
<polygon fill="#63b8ff" stroke="#63b8ff" points="42.41,-87.81 36,-79.37 35.75,-89.96 42.41,-87.81"/>
</a>
</g>
</g>
<!-- Node15&#45;&gt;Node6 -->
<g id="edge25_Node000015_Node000006" class="edge">
<title>Node15&#45;&gt;Node6</title>
<g id="a_edge25_Node000015_Node000006"><a xlink:title=" ">
<path fill="none" stroke="#63b8ff" d="M84.11,-169.84C97.25,-161.66 116.22,-149.86 131.43,-140.4"/>
<polygon fill="#63b8ff" stroke="#63b8ff" points="132.85,-143.63 139.49,-135.38 129.15,-137.69 132.85,-143.63"/>
</a>
</g>
</g>
<!-- Node15&#45;&gt;Node12 -->
<g id="edge24_Node000015_Node000012" class="edge">
<title>Node15&#45;&gt;Node12</title>
<g id="a_edge24_Node000015_Node000012"><a xlink:title=" ">
<path fill="none" stroke="#63b8ff" d="M68.75,-170.14C69.82,-155.9 73.9,-129.03 89.38,-113.5 115.61,-87.17 157.16,-76.11 188.38,-71.46"/>
<polygon fill="#63b8ff" stroke="#63b8ff" points="188.82,-74.94 198.28,-70.18 187.91,-68 188.82,-74.94"/>
</a>
</g>
</g>
</g>
</svg>
