<?xml version="1.0" encoding="UTF-8" standalone="no"?>
<!DOCTYPE svg PUBLIC "-//W3C//DTD SVG 1.1//EN"
 "http://www.w3.org/Graphics/SVG/1.1/DTD/svg11.dtd">
<!-- Generated by graphviz version 12.1.2 (20240928.0832)
 -->
<!-- Title: iface.h Pages: 1 -->
<svg width="663pt" height="313pt"
 viewBox="0.00 0.00 663.28 312.50" xmlns="http://www.w3.org/2000/svg" xmlns:xlink="http://www.w3.org/1999/xlink">
<g id="graph0" class="graph" transform="scale(1 1) rotate(0) translate(4 308.5)">
<title>iface.h</title>
<!-- Node1 -->
<g id="Node000001" class="node">
<title>Node1</title>
<g id="a_Node000001"><a xlink:title=" ">
<polygon fill="#999999" stroke="#666666" points="267.53,-304.5 218.53,-304.5 218.53,-283.75 267.53,-283.75 267.53,-304.5"/>
<text text-anchor="middle" x="243.03" y="-291" font-family="Helvetica,sans-Serif" font-size="10.00">iface.h</text>
</a>
</g>
</g>
<!-- Node2 -->
<g id="Node000002" class="node">
<title>Node2</title>
<g id="a_Node000002"><a xlink:title=" ">
<polygon fill="#e0e0e0" stroke="#999999" points="115.53,-77.5 54.53,-77.5 54.53,-56.75 115.53,-56.75 115.53,-77.5"/>
<text text-anchor="middle" x="85.03" y="-64" font-family="Helvetica,sans-Serif" font-size="10.00">stdbool.h</text>
</a>
</g>
</g>
<!-- Node1&#45;&gt;Node2 -->
<g id="edge1_Node000001_Node000002" class="edge">
<title>Node1&#45;&gt;Node2</title>
<g id="a_edge1_Node000001_Node000002"><a xlink:title=" ">
<path fill="none" stroke="#63b8ff" d="M218.31,-291.09C167.85,-285.46 53.65,-264.77 5.03,-191 -5.52,-175 3.07,-132.85 16.03,-113.5 24.66,-100.62 38.3,-90.53 51.19,-83.17"/>
<polygon fill="#63b8ff" stroke="#63b8ff" points="52.71,-86.32 59.91,-78.55 49.43,-80.13 52.71,-86.32"/>
</a>
</g>
</g>
<!-- Node3 -->
<g id="Node000003" class="node">
<title>Node3</title>
<g id="a_Node000003"><a xlink:href="adapter_8h.html" target="_top" xlink:title=" ">
<polygon fill="white" stroke="#666666" points="273.9,-247.75 212.15,-247.75 212.15,-227 273.9,-227 273.9,-247.75"/>
<text text-anchor="middle" x="243.03" y="-234.25" font-family="Helvetica,sans-Serif" font-size="10.00">adapter.h</text>
</a>
</g>
</g>
<!-- Node1&#45;&gt;Node3 -->
<g id="edge2_Node000001_Node000003" class="edge">
<title>Node1&#45;&gt;Node3</title>
<g id="a_edge2_Node000001_Node000003"><a xlink:title=" ">
<path fill="none" stroke="#63b8ff" d="M243.03,-283.34C243.03,-276.72 243.03,-267.72 243.03,-259.52"/>
<polygon fill="#63b8ff" stroke="#63b8ff" points="246.53,-259.59 243.03,-249.59 239.53,-259.59 246.53,-259.59"/>
</a>
</g>
</g>
<!-- Node13 -->
<g id="Node000013" class="node">
<title>Node13</title>
<g id="a_Node000013"><a xlink:href="socket_8h.html" target="_top" xlink:title=" ">
<polygon fill="white" stroke="#666666" points="499.28,-247.75 442.78,-247.75 442.78,-227 499.28,-227 499.28,-247.75"/>
<text text-anchor="middle" x="471.03" y="-234.25" font-family="Helvetica,sans-Serif" font-size="10.00">socket.h</text>
</a>
</g>
</g>
<!-- Node1&#45;&gt;Node13 -->
<g id="edge18_Node000001_Node000013" class="edge">
<title>Node1&#45;&gt;Node13</title>
<g id="a_edge18_Node000001_Node000013"><a xlink:title=" ">
<path fill="none" stroke="#63b8ff" d="M267.86,-287.16C307.21,-277.71 384.22,-259.22 431.31,-247.91"/>
<polygon fill="#63b8ff" stroke="#63b8ff" points="431.93,-251.36 440.83,-245.63 430.29,-244.56 431.93,-251.36"/>
</a>
</g>
</g>
<!-- Node3&#45;&gt;Node2 -->
<g id="edge4_Node000003_Node000002" class="edge">
<title>Node3&#45;&gt;Node2</title>
<g id="a_edge4_Node000003_Node000002"><a xlink:title=" ">
<path fill="none" stroke="#63b8ff" d="M211.98,-234.81C156.11,-231.27 42.2,-220.53 18.03,-191 -9.74,-157.07 34.94,-109.91 63.72,-85.04"/>
<polygon fill="#63b8ff" stroke="#63b8ff" points="65.8,-87.86 71.23,-78.76 61.32,-82.49 65.8,-87.86"/>
</a>
</g>
</g>
<!-- Node4 -->
<g id="Node000004" class="node">
<title>Node4</title>
<g id="a_Node000004"><a xlink:title=" ">
<polygon fill="#e0e0e0" stroke="#999999" points="317.4,-77.5 252.65,-77.5 252.65,-56.75 317.4,-56.75 317.4,-77.5"/>
<text text-anchor="middle" x="285.03" y="-64" font-family="Helvetica,sans-Serif" font-size="10.00">inttypes.h</text>
</a>
</g>
</g>
<!-- Node3&#45;&gt;Node4 -->
<g id="edge3_Node000003_Node000004" class="edge">
<title>Node3&#45;&gt;Node4</title>
<g id="a_edge3_Node000003_Node000004"><a xlink:title=" ">
<path fill="none" stroke="#63b8ff" d="M247.1,-226.78C250.85,-217.69 256.36,-203.6 260.03,-191 270.29,-155.76 277.88,-113.64 281.87,-88.99"/>
<polygon fill="#63b8ff" stroke="#63b8ff" points="285.29,-89.73 283.38,-79.31 278.38,-88.65 285.29,-89.73"/>
</a>
</g>
</g>
<!-- Node5 -->
<g id="Node000005" class="node">
<title>Node5</title>
<g id="a_Node000005"><a xlink:href="error_8h.html" target="_top" xlink:title=" ">
<polygon fill="white" stroke="#666666" points="557.9,-134.25 442.15,-134.25 442.15,-113.5 557.9,-113.5 557.9,-134.25"/>
<text text-anchor="middle" x="500.03" y="-120.75" font-family="Helvetica,sans-Serif" font-size="10.00">vlcb/platform/error.h</text>
</a>
</g>
</g>
<!-- Node3&#45;&gt;Node5 -->
<g id="edge5_Node000003_Node000005" class="edge">
<title>Node3&#45;&gt;Node5</title>
<g id="a_edge5_Node000003_Node000005"><a xlink:title=" ">
<path fill="none" stroke="#63b8ff" d="M274.37,-236.35C317.71,-234.91 396.84,-227.03 452.03,-191 469.43,-179.64 482.63,-159.64 490.74,-144.6"/>
<polygon fill="#63b8ff" stroke="#63b8ff" points="493.66,-146.57 495.05,-136.07 487.42,-143.41 493.66,-146.57"/>
</a>
</g>
</g>
<!-- Node6 -->
<g id="Node000006" class="node">
<title>Node6</title>
<g id="a_Node000006"><a xlink:href="interface_8h.html" target="_top" xlink:title=" ">
<polygon fill="white" stroke="#666666" points="443.4,-191 306.65,-191 306.65,-170.25 443.4,-170.25 443.4,-191"/>
<text text-anchor="middle" x="375.03" y="-177.5" font-family="Helvetica,sans-Serif" font-size="10.00">vlcb/platform/interface.h</text>
</a>
</g>
</g>
<!-- Node3&#45;&gt;Node6 -->
<g id="edge6_Node000003_Node000006" class="edge">
<title>Node3&#45;&gt;Node6</title>
<g id="a_edge6_Node000003_Node000006"><a xlink:title=" ">
<path fill="none" stroke="#63b8ff" d="M266.63,-226.59C287.37,-217.98 317.8,-205.36 341.14,-195.68"/>
<polygon fill="#63b8ff" stroke="#63b8ff" points="342.34,-198.97 350.24,-191.91 339.66,-192.51 342.34,-198.97"/>
</a>
</g>
</g>
<!-- Node8 -->
<g id="Node000008" class="node">
<title>Node8</title>
<g id="a_Node000008"><a xlink:href="packet_8h.html" target="_top" xlink:title=" ">
<polygon fill="white" stroke="#666666" points="145.03,-191 27.03,-191 27.03,-170.25 145.03,-170.25 145.03,-191"/>
<text text-anchor="middle" x="86.03" y="-177.5" font-family="Helvetica,sans-Serif" font-size="10.00">adapter/can/packet.h</text>
</a>
</g>
</g>
<!-- Node3&#45;&gt;Node8 -->
<g id="edge8_Node000003_Node000008" class="edge">
<title>Node3&#45;&gt;Node8</title>
<g id="a_edge8_Node000003_Node000008"><a xlink:title=" ">
<path fill="none" stroke="#63b8ff" d="M214.96,-226.59C189.81,-217.82 152.68,-204.87 124.72,-195.12"/>
<polygon fill="#63b8ff" stroke="#63b8ff" points="126.14,-191.91 115.55,-191.92 123.84,-198.52 126.14,-191.91"/>
</a>
</g>
</g>
<!-- Node12 -->
<g id="Node000012" class="node">
<title>Node12</title>
<g id="a_Node000012"><a xlink:href="addr_8h.html" target="_top" xlink:title=" ">
<polygon fill="white" stroke="#666666" points="251.03,-191 163.03,-191 163.03,-170.25 251.03,-170.25 251.03,-191"/>
<text text-anchor="middle" x="207.03" y="-177.5" font-family="Helvetica,sans-Serif" font-size="10.00">vlcb/net/addr.h</text>
</a>
</g>
</g>
<!-- Node3&#45;&gt;Node12 -->
<g id="edge16_Node000003_Node000012" class="edge">
<title>Node3&#45;&gt;Node12</title>
<g id="a_edge16_Node000003_Node000012"><a xlink:title=" ">
<path fill="none" stroke="#63b8ff" d="M236.59,-226.59C231.88,-219.42 225.34,-209.48 219.61,-200.76"/>
<polygon fill="#63b8ff" stroke="#63b8ff" points="222.66,-199.03 214.24,-192.59 216.81,-202.87 222.66,-199.03"/>
</a>
</g>
</g>
<!-- Node7 -->
<g id="Node000007" class="node">
<title>Node7</title>
<g id="a_Node000007"><a xlink:title=" ">
<polygon fill="#e0e0e0" stroke="#999999" points="413.53,-134.25 358.53,-134.25 358.53,-113.5 413.53,-113.5 413.53,-134.25"/>
<text text-anchor="middle" x="386.03" y="-120.75" font-family="Helvetica,sans-Serif" font-size="10.00">stddef.h</text>
</a>
</g>
</g>
<!-- Node6&#45;&gt;Node7 -->
<g id="edge7_Node000006_Node000007" class="edge">
<title>Node6&#45;&gt;Node7</title>
<g id="a_edge7_Node000006_Node000007"><a xlink:title=" ">
<path fill="none" stroke="#63b8ff" d="M377,-169.84C378.34,-163.14 380.18,-154.01 381.84,-145.73"/>
<polygon fill="#63b8ff" stroke="#63b8ff" points="385.24,-146.56 383.78,-136.06 378.38,-145.18 385.24,-146.56"/>
</a>
</g>
</g>
<!-- Node8&#45;&gt;Node2 -->
<g id="edge9_Node000008_Node000002" class="edge">
<title>Node8&#45;&gt;Node2</title>
<g id="a_edge9_Node000008_Node000002"><a xlink:title=" ">
<path fill="none" stroke="#63b8ff" d="M85.94,-170.12C85.78,-152.35 85.44,-113.72 85.22,-89.43"/>
<polygon fill="#63b8ff" stroke="#63b8ff" points="88.72,-89.41 85.13,-79.44 81.72,-89.47 88.72,-89.41"/>
</a>
</g>
</g>
<!-- Node9 -->
<g id="Node000009" class="node">
<title>Node9</title>
<g id="a_Node000009"><a xlink:href="common_2inc_2vlcb_2common_2can_8h.html" target="_top" xlink:title=" ">
<polygon fill="white" stroke="#666666" points="262.65,-134.25 151.4,-134.25 151.4,-113.5 262.65,-113.5 262.65,-134.25"/>
<text text-anchor="middle" x="207.03" y="-120.75" font-family="Helvetica,sans-Serif" font-size="10.00">vlcb/common/can.h</text>
</a>
</g>
</g>
<!-- Node8&#45;&gt;Node9 -->
<g id="edge10_Node000008_Node000009" class="edge">
<title>Node8&#45;&gt;Node9</title>
<g id="a_edge10_Node000008_Node000009"><a xlink:title=" ">
<path fill="none" stroke="#63b8ff" d="M107.66,-169.84C126.5,-161.31 154.07,-148.84 175.38,-139.19"/>
<polygon fill="#63b8ff" stroke="#63b8ff" points="176.54,-142.51 184.21,-135.2 173.65,-136.14 176.54,-142.51"/>
</a>
</g>
</g>
<!-- Node9&#45;&gt;Node2 -->
<g id="edge12_Node000009_Node000002" class="edge">
<title>Node9&#45;&gt;Node2</title>
<g id="a_edge12_Node000009_Node000002"><a xlink:title=" ">
<path fill="none" stroke="#63b8ff" d="M185.22,-113.09C166.22,-104.56 138.43,-92.09 116.93,-82.44"/>
<polygon fill="#63b8ff" stroke="#63b8ff" points="118.59,-79.35 108.03,-78.45 115.72,-85.74 118.59,-79.35"/>
</a>
</g>
</g>
<!-- Node9&#45;&gt;Node4 -->
<g id="edge11_Node000009_Node000004" class="edge">
<title>Node9&#45;&gt;Node4</title>
<g id="a_edge11_Node000009_Node000004"><a xlink:title=" ">
<path fill="none" stroke="#63b8ff" d="M220.97,-113.09C232.4,-105.07 248.8,-93.56 262.14,-84.19"/>
<polygon fill="#63b8ff" stroke="#63b8ff" points="263.79,-87.31 269.97,-78.7 259.77,-81.58 263.79,-87.31"/>
</a>
</g>
</g>
<!-- Node10 -->
<g id="Node000010" class="node">
<title>Node10</title>
<g id="a_Node000010"><a xlink:title=" ">
<polygon fill="#e0e0e0" stroke="#999999" points="315.4,-20.75 262.65,-20.75 262.65,0 315.4,0 315.4,-20.75"/>
<text text-anchor="middle" x="289.03" y="-7.25" font-family="Helvetica,sans-Serif" font-size="10.00">stdint.h</text>
</a>
</g>
</g>
<!-- Node9&#45;&gt;Node10 -->
<g id="edge13_Node000009_Node000010" class="edge">
<title>Node9&#45;&gt;Node10</title>
<g id="a_edge13_Node000009_Node000010"><a xlink:title=" ">
<path fill="none" stroke="#63b8ff" d="M211.32,-113.41C217.55,-100.12 229.94,-75.45 244.03,-56.75 251.56,-46.75 261.19,-36.76 269.61,-28.7"/>
<polygon fill="#63b8ff" stroke="#63b8ff" points="271.75,-31.49 276.7,-22.12 266.99,-26.36 271.75,-31.49"/>
</a>
</g>
</g>
<!-- Node11 -->
<g id="Node000011" class="node">
<title>Node11</title>
<g id="a_Node000011"><a xlink:href="opcode_8h.html" target="_top" xlink:title=" ">
<polygon fill="white" stroke="#666666" points="396.15,-77.5 335.9,-77.5 335.9,-56.75 396.15,-56.75 396.15,-77.5"/>
<text text-anchor="middle" x="366.03" y="-64" font-family="Helvetica,sans-Serif" font-size="10.00">opcode.h</text>
</a>
</g>
</g>
<!-- Node9&#45;&gt;Node11 -->
<g id="edge14_Node000009_Node000011" class="edge">
<title>Node9&#45;&gt;Node11</title>
<g id="a_edge14_Node000009_Node000011"><a xlink:title=" ">
<path fill="none" stroke="#63b8ff" d="M235.46,-113.09C260.93,-104.32 298.53,-91.37 326.84,-81.62"/>
<polygon fill="#63b8ff" stroke="#63b8ff" points="327.83,-84.98 336.15,-78.41 325.56,-78.36 327.83,-84.98"/>
</a>
</g>
</g>
<!-- Node11&#45;&gt;Node10 -->
<g id="edge15_Node000011_Node000010" class="edge">
<title>Node11&#45;&gt;Node10</title>
<g id="a_edge15_Node000011_Node000010"><a xlink:title=" ">
<path fill="none" stroke="#63b8ff" d="M352.26,-56.34C341.09,-48.4 325.11,-37.03 312.01,-27.71"/>
<polygon fill="#63b8ff" stroke="#63b8ff" points="314.09,-24.9 303.91,-21.96 310.03,-30.6 314.09,-24.9"/>
</a>
</g>
</g>
<!-- Node12&#45;&gt;Node9 -->
<g id="edge17_Node000012_Node000009" class="edge">
<title>Node12&#45;&gt;Node9</title>
<g id="a_edge17_Node000012_Node000009"><a xlink:title=" ">
<path fill="none" stroke="#63b8ff" d="M207.03,-169.84C207.03,-163.22 207.03,-154.22 207.03,-146.02"/>
<polygon fill="#63b8ff" stroke="#63b8ff" points="210.53,-146.09 207.03,-136.09 203.53,-146.09 210.53,-146.09"/>
</a>
</g>
</g>
<!-- Node13&#45;&gt;Node2 -->
<g id="edge19_Node000013_Node000002" class="edge">
<title>Node13&#45;&gt;Node2</title>
<g id="a_edge19_Node000013_Node000002"><a xlink:title=" ">
<path fill="none" stroke="#63b8ff" d="M471.34,-226.52C471.22,-211.8 468.61,-184.31 452.03,-170.25 346.24,-80.54 264.58,-199.22 142.03,-134.25 122.01,-123.64 105.93,-102.87 96.02,-87.42"/>
<polygon fill="#63b8ff" stroke="#63b8ff" points="99.13,-85.81 90.96,-79.07 93.15,-89.43 99.13,-85.81"/>
</a>
</g>
</g>
<!-- Node13&#45;&gt;Node6 -->
<g id="edge25_Node000013_Node000006" class="edge">
<title>Node13&#45;&gt;Node6</title>
<g id="a_edge25_Node000013_Node000006"><a xlink:title=" ">
<path fill="none" stroke="#63b8ff" d="M453.87,-226.59C439.4,-218.33 418.44,-206.38 401.77,-196.88"/>
<polygon fill="#63b8ff" stroke="#63b8ff" points="403.78,-193.99 393.36,-192.08 400.31,-200.07 403.78,-193.99"/>
</a>
</g>
</g>
<!-- Node13&#45;&gt;Node7 -->
<g id="edge20_Node000013_Node000007" class="edge">
<title>Node13&#45;&gt;Node7</title>
<g id="a_edge20_Node000013_Node000007"><a xlink:title=" ">
<path fill="none" stroke="#63b8ff" d="M477.28,-226.6C485.13,-212.93 496.31,-187.83 485.03,-170.25 471.73,-149.52 446.32,-138.14 424.58,-131.96"/>
<polygon fill="#63b8ff" stroke="#63b8ff" points="425.65,-128.62 415.09,-129.55 423.92,-135.4 425.65,-128.62"/>
</a>
</g>
</g>
<!-- Node14 -->
<g id="Node000014" class="node">
<title>Node14</title>
<g id="a_Node000014"><a xlink:href="vlcb_8h.html" target="_top" xlink:title=" ">
<polygon fill="white" stroke="#666666" points="655.28,-191 574.78,-191 574.78,-170.25 655.28,-170.25 655.28,-191"/>
<text text-anchor="middle" x="615.03" y="-177.5" font-family="Helvetica,sans-Serif" font-size="10.00">packet/vlcb.h</text>
</a>
</g>
</g>
<!-- Node13&#45;&gt;Node14 -->
<g id="edge21_Node000013_Node000014" class="edge">
<title>Node13&#45;&gt;Node14</title>
<g id="a_edge21_Node000013_Node000014"><a xlink:title=" ">
<path fill="none" stroke="#63b8ff" d="M496.77,-226.59C519.61,-217.91 553.2,-205.13 578.75,-195.42"/>
<polygon fill="#63b8ff" stroke="#63b8ff" points="579.99,-198.69 588.09,-191.87 577.5,-192.15 579.99,-198.69"/>
</a>
</g>
</g>
<!-- Node14&#45;&gt;Node4 -->
<g id="edge22_Node000014_Node000004" class="edge">
<title>Node14&#45;&gt;Node4</title>
<g id="a_edge22_Node000014_Node000004"><a xlink:title=" ">
<path fill="none" stroke="#63b8ff" d="M611.07,-170.09C604.37,-155.28 589.34,-127.05 567.03,-113.5 477.91,-59.36 435.89,-94.73 328.81,-77.58"/>
<polygon fill="#63b8ff" stroke="#63b8ff" points="329.48,-74.14 319.03,-75.88 328.29,-81.04 329.48,-74.14"/>
</a>
</g>
</g>
<!-- Node14&#45;&gt;Node5 -->
<g id="edge24_Node000014_Node000005" class="edge">
<title>Node14&#45;&gt;Node5</title>
<g id="a_edge24_Node000014_Node000005"><a xlink:title=" ">
<path fill="none" stroke="#63b8ff" d="M594.47,-169.84C576.73,-161.39 550.84,-149.07 530.66,-139.46"/>
<polygon fill="#63b8ff" stroke="#63b8ff" points="532.31,-136.37 521.78,-135.23 529.3,-142.69 532.31,-136.37"/>
</a>
</g>
</g>
<!-- Node14&#45;&gt;Node11 -->
<g id="edge23_Node000014_Node000011" class="edge">
<title>Node14&#45;&gt;Node11</title>
<g id="a_edge23_Node000014_Node000011"><a xlink:title=" ">
<path fill="none" stroke="#63b8ff" d="M615.85,-169.98C616.51,-155.54 615.42,-128.41 600.03,-113.5 573.14,-87.45 467.37,-75.56 407.65,-70.82"/>
<polygon fill="#63b8ff" stroke="#63b8ff" points="408.1,-67.35 397.87,-70.08 407.58,-74.33 408.1,-67.35"/>
</a>
</g>
</g>
</g>
</svg>
