<?xml version="1.0" encoding="UTF-8" standalone="no"?>
<!DOCTYPE svg PUBLIC "-//W3C//DTD SVG 1.1//EN"
 "http://www.w3.org/Graphics/SVG/1.1/DTD/svg11.dtd">
<!-- Generated by graphviz version 12.1.2 (20240928.0832)
 -->
<!-- Title: iface_vlcb.c Pages: 1 -->
<svg width="890pt" height="426pt"
 viewBox="0.00 0.00 889.50 426.00" xmlns="http://www.w3.org/2000/svg" xmlns:xlink="http://www.w3.org/1999/xlink">
<g id="graph0" class="graph" transform="scale(1 1) rotate(0) translate(4 422)">
<title>iface_vlcb.c</title>
<!-- Node1 -->
<g id="Node000001" class="node">
<title>Node1</title>
<g id="a_Node000001"><a xlink:title=" ">
<polygon fill="#999999" stroke="#666666" points="335.38,-418 261.62,-418 261.62,-397.25 335.38,-397.25 335.38,-418"/>
<text text-anchor="middle" x="298.5" y="-404.5" font-family="Helvetica,sans-Serif" font-size="10.00">iface_vlcb.c</text>
</a>
</g>
</g>
<!-- Node2 -->
<g id="Node000002" class="node">
<title>Node2</title>
<g id="a_Node000002"><a xlink:title=" ">
<polygon fill="#e0e0e0" stroke="#999999" points="55,-361.25 0,-361.25 0,-340.5 55,-340.5 55,-361.25"/>
<text text-anchor="middle" x="27.5" y="-347.75" font-family="Helvetica,sans-Serif" font-size="10.00">assert.h</text>
</a>
</g>
</g>
<!-- Node1&#45;&gt;Node2 -->
<g id="edge1_Node000001_Node000002" class="edge">
<title>Node1&#45;&gt;Node2</title>
<g id="a_edge1_Node000001_Node000002"><a xlink:title=" ">
<path fill="none" stroke="#63b8ff" d="M261.16,-399.51C215.78,-390.8 136.92,-375.45 69.5,-361.25 68.51,-361.04 67.5,-360.83 66.49,-360.61"/>
<polygon fill="#63b8ff" stroke="#63b8ff" points="67.49,-357.25 56.97,-358.54 66,-364.09 67.49,-357.25"/>
</a>
</g>
</g>
<!-- Node3 -->
<g id="Node000003" class="node">
<title>Node3</title>
<g id="a_Node000003"><a xlink:title=" ">
<polygon fill="#e0e0e0" stroke="#999999" points="149,-134.25 94,-134.25 94,-113.5 149,-113.5 149,-134.25"/>
<text text-anchor="middle" x="121.5" y="-120.75" font-family="Helvetica,sans-Serif" font-size="10.00">stddef.h</text>
</a>
</g>
</g>
<!-- Node1&#45;&gt;Node3 -->
<g id="edge2_Node000001_Node000003" class="edge">
<title>Node1&#45;&gt;Node3</title>
<g id="a_edge2_Node000001_Node000003"><a xlink:title=" ">
<path fill="none" stroke="#63b8ff" d="M261.54,-403.99C200.07,-397.37 83.5,-374.38 83.5,-295.12 83.5,-295.12 83.5,-295.12 83.5,-236.38 83.5,-202.76 99.16,-166.35 110.38,-144.59"/>
<polygon fill="#63b8ff" stroke="#63b8ff" points="113.36,-146.44 115.01,-135.97 107.19,-143.12 113.36,-146.44"/>
</a>
</g>
</g>
<!-- Node4 -->
<g id="Node000004" class="node">
<title>Node4</title>
<g id="a_Node000004"><a xlink:title=" ">
<polygon fill="#e0e0e0" stroke="#999999" points="601.88,-20.75 549.12,-20.75 549.12,0 601.88,0 601.88,-20.75"/>
<text text-anchor="middle" x="575.5" y="-7.25" font-family="Helvetica,sans-Serif" font-size="10.00">stdint.h</text>
</a>
</g>
</g>
<!-- Node1&#45;&gt;Node4 -->
<g id="edge3_Node000001_Node000004" class="edge">
<title>Node1&#45;&gt;Node4</title>
<g id="a_edge3_Node000001_Node000004"><a xlink:title=" ">
<path fill="none" stroke="#63b8ff" d="M335.86,-403.46C464.53,-392.08 881.5,-350.9 881.5,-295.12 881.5,-295.12 881.5,-295.12 881.5,-122.88 881.5,-66.42 695.33,-30.2 613.42,-16.99"/>
<polygon fill="#63b8ff" stroke="#63b8ff" points="614.04,-13.55 603.62,-15.45 612.95,-20.46 614.04,-13.55"/>
</a>
</g>
</g>
<!-- Node5 -->
<g id="Node000005" class="node">
<title>Node5</title>
<g id="a_Node000005"><a xlink:href="iface__can_8h.html" target="_top" xlink:title=" ">
<polygon fill="white" stroke="#666666" points="365.25,-361.25 293.75,-361.25 293.75,-340.5 365.25,-340.5 365.25,-361.25"/>
<text text-anchor="middle" x="329.5" y="-347.75" font-family="Helvetica,sans-Serif" font-size="10.00">iface_can.h</text>
</a>
</g>
</g>
<!-- Node1&#45;&gt;Node5 -->
<g id="edge4_Node000001_Node000005" class="edge">
<title>Node1&#45;&gt;Node5</title>
<g id="a_edge4_Node000001_Node000005"><a xlink:title=" ">
<path fill="none" stroke="#63b8ff" d="M304.04,-396.84C308.01,-389.83 313.49,-380.16 318.34,-371.58"/>
<polygon fill="#63b8ff" stroke="#63b8ff" points="321.38,-373.32 323.26,-362.9 315.29,-369.87 321.38,-373.32"/>
</a>
</g>
</g>
<!-- Node10 -->
<g id="Node000010" class="node">
<title>Node10</title>
<g id="a_Node000010"><a xlink:href="interface_8h.html" target="_top" xlink:title=" ">
<polygon fill="white" stroke="#666666" points="285.88,-191 149.12,-191 149.12,-170.25 285.88,-170.25 285.88,-191"/>
<text text-anchor="middle" x="217.5" y="-177.5" font-family="Helvetica,sans-Serif" font-size="10.00">vlcb/platform/interface.h</text>
</a>
</g>
</g>
<!-- Node1&#45;&gt;Node10 -->
<g id="edge34_Node000001_Node000010" class="edge">
<title>Node1&#45;&gt;Node10</title>
<g id="a_edge34_Node000001_Node000010"><a xlink:title=" ">
<path fill="none" stroke="#63b8ff" d="M295.02,-396.96C282.79,-362.99 241.62,-248.64 224.78,-201.84"/>
<polygon fill="#63b8ff" stroke="#63b8ff" points="228.16,-200.9 221.48,-192.68 221.57,-203.28 228.16,-200.9"/>
</a>
</g>
</g>
<!-- Node18 -->
<g id="Node000018" class="node">
<title>Node18</title>
<g id="a_Node000018"><a xlink:href="log_8h.html" target="_top" xlink:title=" ">
<polygon fill="white" stroke="#666666" points="721.62,-304.5 613.38,-304.5 613.38,-283.75 721.62,-283.75 721.62,-304.5"/>
<text text-anchor="middle" x="667.5" y="-291" font-family="Helvetica,sans-Serif" font-size="10.00">vlcb/platform/log.h</text>
</a>
</g>
</g>
<!-- Node1&#45;&gt;Node18 -->
<g id="edge35_Node000001_Node000018" class="edge">
<title>Node1&#45;&gt;Node18</title>
<g id="a_edge35_Node000001_Node000018"><a xlink:title=" ">
<path fill="none" stroke="#63b8ff" d="M330.92,-396.83C397.42,-376.74 549.25,-330.86 624.12,-308.23"/>
<polygon fill="#63b8ff" stroke="#63b8ff" points="625.01,-311.62 633.57,-305.38 622.99,-304.92 625.01,-311.62"/>
</a>
</g>
</g>
<!-- Node6 -->
<g id="Node000006" class="node">
<title>Node6</title>
<g id="a_Node000006"><a xlink:href="adapter_8h.html" target="_top" xlink:title=" ">
<polygon fill="white" stroke="#666666" points="509.38,-247.75 405.62,-247.75 405.62,-227 509.38,-227 509.38,-247.75"/>
<text text-anchor="middle" x="457.5" y="-234.25" font-family="Helvetica,sans-Serif" font-size="10.00">vlcb/net/adapter.h</text>
</a>
</g>
</g>
<!-- Node5&#45;&gt;Node6 -->
<g id="edge5_Node000005_Node000006" class="edge">
<title>Node5&#45;&gt;Node6</title>
<g id="a_edge5_Node000005_Node000006"><a xlink:title=" ">
<path fill="none" stroke="#63b8ff" d="M356.16,-340.08C374.38,-332.42 398.25,-320.41 415.5,-304.5 429.7,-291.4 441.07,-272.48 448.38,-258.23"/>
<polygon fill="#63b8ff" stroke="#63b8ff" points="451.46,-259.89 452.69,-249.37 445.17,-256.83 451.46,-259.89"/>
</a>
</g>
</g>
<!-- Node15 -->
<g id="Node000015" class="node">
<title>Node15</title>
<g id="a_Node000015"><a xlink:href="iface_8h.html" target="_top" xlink:title=" ">
<polygon fill="white" stroke="#666666" points="406,-304.5 315,-304.5 315,-283.75 406,-283.75 406,-304.5"/>
<text text-anchor="middle" x="360.5" y="-291" font-family="Helvetica,sans-Serif" font-size="10.00">vlcb/net/iface.h</text>
</a>
</g>
</g>
<!-- Node5&#45;&gt;Node15 -->
<g id="edge21_Node000005_Node000015" class="edge">
<title>Node5&#45;&gt;Node15</title>
<g id="a_edge21_Node000005_Node000015"><a xlink:title=" ">
<path fill="none" stroke="#63b8ff" d="M335.04,-340.09C339.01,-333.08 344.49,-323.41 349.34,-314.83"/>
<polygon fill="#63b8ff" stroke="#63b8ff" points="352.38,-316.57 354.26,-306.15 346.29,-313.12 352.38,-316.57"/>
</a>
</g>
</g>
<!-- Node16 -->
<g id="Node000016" class="node">
<title>Node16</title>
<g id="a_Node000016"><a xlink:href="socket_8h.html" target="_top" xlink:title=" ">
<polygon fill="white" stroke="#666666" points="323.75,-247.75 267.25,-247.75 267.25,-227 323.75,-227 323.75,-247.75"/>
<text text-anchor="middle" x="295.5" y="-234.25" font-family="Helvetica,sans-Serif" font-size="10.00">socket.h</text>
</a>
</g>
</g>
<!-- Node5&#45;&gt;Node16 -->
<g id="edge33_Node000005_Node000016" class="edge">
<title>Node5&#45;&gt;Node16</title>
<g id="a_edge33_Node000005_Node000016"><a xlink:title=" ">
<path fill="none" stroke="#63b8ff" d="M323.47,-340.16C318.2,-331.22 310.74,-317.42 306.5,-304.5 301.66,-289.75 298.88,-272.42 297.32,-259.2"/>
<polygon fill="#63b8ff" stroke="#63b8ff" points="300.83,-259.11 296.33,-249.52 293.87,-259.82 300.83,-259.11"/>
</a>
</g>
</g>
<!-- Node7 -->
<g id="Node000007" class="node">
<title>Node7</title>
<g id="a_Node000007"><a xlink:title=" ">
<polygon fill="#e0e0e0" stroke="#999999" points="693.88,-77.5 629.12,-77.5 629.12,-56.75 693.88,-56.75 693.88,-77.5"/>
<text text-anchor="middle" x="661.5" y="-64" font-family="Helvetica,sans-Serif" font-size="10.00">inttypes.h</text>
</a>
</g>
</g>
<!-- Node6&#45;&gt;Node7 -->
<g id="edge6_Node000006_Node000007" class="edge">
<title>Node6&#45;&gt;Node7</title>
<g id="a_edge6_Node000006_Node000007"><a xlink:title=" ">
<path fill="none" stroke="#63b8ff" d="M509.61,-234.98C586.97,-231.9 727.19,-222.06 765.5,-191 793.22,-168.52 806.98,-142.72 786.5,-113.5 768.33,-87.58 733.77,-76.41 705.58,-71.62"/>
<polygon fill="#63b8ff" stroke="#63b8ff" points="706.26,-68.18 695.85,-70.2 705.25,-75.11 706.26,-68.18"/>
</a>
</g>
</g>
<!-- Node8 -->
<g id="Node000008" class="node">
<title>Node8</title>
<g id="a_Node000008"><a xlink:title=" ">
<polygon fill="#e0e0e0" stroke="#999999" points="420,-77.5 359,-77.5 359,-56.75 420,-56.75 420,-77.5"/>
<text text-anchor="middle" x="389.5" y="-64" font-family="Helvetica,sans-Serif" font-size="10.00">stdbool.h</text>
</a>
</g>
</g>
<!-- Node6&#45;&gt;Node8 -->
<g id="edge7_Node000006_Node000008" class="edge">
<title>Node6&#45;&gt;Node8</title>
<g id="a_edge7_Node000006_Node000008"><a xlink:title=" ">
<path fill="none" stroke="#63b8ff" d="M442.53,-226.72C431.27,-218.6 416.45,-205.95 408.5,-191 391.16,-158.39 388.51,-114.48 388.66,-88.95"/>
<polygon fill="#63b8ff" stroke="#63b8ff" points="392.16,-89.31 388.89,-79.23 385.16,-89.15 392.16,-89.31"/>
</a>
</g>
</g>
<!-- Node9 -->
<g id="Node000009" class="node">
<title>Node9</title>
<g id="a_Node000009"><a xlink:href="error_8h.html" target="_top" xlink:title=" ">
<polygon fill="white" stroke="#666666" points="777.38,-134.25 661.62,-134.25 661.62,-113.5 777.38,-113.5 777.38,-134.25"/>
<text text-anchor="middle" x="719.5" y="-120.75" font-family="Helvetica,sans-Serif" font-size="10.00">vlcb/platform/error.h</text>
</a>
</g>
</g>
<!-- Node6&#45;&gt;Node9 -->
<g id="edge8_Node000006_Node000009" class="edge">
<title>Node6&#45;&gt;Node9</title>
<g id="a_edge8_Node000006_Node000009"><a xlink:title=" ">
<path fill="none" stroke="#63b8ff" d="M509.73,-236.03C585.03,-234.3 718.36,-226.2 748.5,-191 760.54,-176.94 749.04,-157.1 737.15,-142.83"/>
<polygon fill="#63b8ff" stroke="#63b8ff" points="739.84,-140.58 730.54,-135.49 734.64,-145.26 739.84,-140.58"/>
</a>
</g>
</g>
<!-- Node6&#45;&gt;Node10 -->
<g id="edge9_Node000006_Node000010" class="edge">
<title>Node6&#45;&gt;Node10</title>
<g id="a_edge9_Node000006_Node000010"><a xlink:title=" ">
<path fill="none" stroke="#63b8ff" d="M414.32,-226.52C374.42,-217.42 315,-203.87 271.88,-194.03"/>
<polygon fill="#63b8ff" stroke="#63b8ff" points="272.75,-190.64 262.22,-191.83 271.19,-197.46 272.75,-190.64"/>
</a>
</g>
</g>
<!-- Node11 -->
<g id="Node000011" class="node">
<title>Node11</title>
<g id="a_Node000011"><a xlink:href="packet_8h.html" target="_top" xlink:title=" ">
<polygon fill="white" stroke="#666666" points="641.5,-191 523.5,-191 523.5,-170.25 641.5,-170.25 641.5,-191"/>
<text text-anchor="middle" x="582.5" y="-177.5" font-family="Helvetica,sans-Serif" font-size="10.00">adapter/can/packet.h</text>
</a>
</g>
</g>
<!-- Node6&#45;&gt;Node11 -->
<g id="edge11_Node000006_Node000011" class="edge">
<title>Node6&#45;&gt;Node11</title>
<g id="a_edge11_Node000006_Node000011"><a xlink:title=" ">
<path fill="none" stroke="#63b8ff" d="M479.85,-226.59C499.31,-218.06 527.79,-205.59 549.81,-195.94"/>
<polygon fill="#63b8ff" stroke="#63b8ff" points="551.2,-199.15 558.96,-191.94 548.4,-192.74 551.2,-199.15"/>
</a>
</g>
</g>
<!-- Node14 -->
<g id="Node000014" class="node">
<title>Node14</title>
<g id="a_Node000014"><a xlink:href="addr_8h.html" target="_top" xlink:title=" ">
<polygon fill="white" stroke="#666666" points="505.5,-191 417.5,-191 417.5,-170.25 505.5,-170.25 505.5,-191"/>
<text text-anchor="middle" x="461.5" y="-177.5" font-family="Helvetica,sans-Serif" font-size="10.00">vlcb/net/addr.h</text>
</a>
</g>
</g>
<!-- Node6&#45;&gt;Node14 -->
<g id="edge19_Node000006_Node000014" class="edge">
<title>Node6&#45;&gt;Node14</title>
<g id="a_edge19_Node000006_Node000014"><a xlink:title=" ">
<path fill="none" stroke="#63b8ff" d="M458.22,-226.59C458.7,-219.97 459.36,-210.97 459.96,-202.77"/>
<polygon fill="#63b8ff" stroke="#63b8ff" points="463.44,-203.07 460.68,-192.84 456.46,-202.56 463.44,-203.07"/>
</a>
</g>
</g>
<!-- Node10&#45;&gt;Node3 -->
<g id="edge10_Node000010_Node000003" class="edge">
<title>Node10&#45;&gt;Node3</title>
<g id="a_edge10_Node000010_Node000003"><a xlink:title=" ">
<path fill="none" stroke="#63b8ff" d="M200.34,-169.84C185.87,-161.58 164.91,-149.63 148.24,-140.13"/>
<polygon fill="#63b8ff" stroke="#63b8ff" points="150.25,-137.24 139.83,-135.33 146.78,-143.32 150.25,-137.24"/>
</a>
</g>
</g>
<!-- Node11&#45;&gt;Node8 -->
<g id="edge12_Node000011_Node000008" class="edge">
<title>Node11&#45;&gt;Node8</title>
<g id="a_edge12_Node000011_Node000008"><a xlink:title=" ">
<path fill="none" stroke="#63b8ff" d="M532.41,-169.75C505.37,-162.8 472.34,-151.58 446.5,-134.25 427.89,-121.77 411.76,-101.64 401.45,-86.87"/>
<polygon fill="#63b8ff" stroke="#63b8ff" points="404.6,-85.28 396.13,-78.91 398.78,-89.17 404.6,-85.28"/>
</a>
</g>
</g>
<!-- Node12 -->
<g id="Node000012" class="node">
<title>Node12</title>
<g id="a_Node000012"><a xlink:href="common_2inc_2vlcb_2common_2can_8h.html" target="_top" xlink:title=" ">
<polygon fill="white" stroke="#666666" points="567.12,-134.25 455.88,-134.25 455.88,-113.5 567.12,-113.5 567.12,-134.25"/>
<text text-anchor="middle" x="511.5" y="-120.75" font-family="Helvetica,sans-Serif" font-size="10.00">vlcb/common/can.h</text>
</a>
</g>
</g>
<!-- Node11&#45;&gt;Node12 -->
<g id="edge13_Node000011_Node000012" class="edge">
<title>Node11&#45;&gt;Node12</title>
<g id="a_edge13_Node000011_Node000012"><a xlink:title=" ">
<path fill="none" stroke="#63b8ff" d="M569.81,-169.84C559.61,-161.97 545.06,-150.75 533.04,-141.49"/>
<polygon fill="#63b8ff" stroke="#63b8ff" points="535.34,-138.84 525.28,-135.5 531.06,-144.38 535.34,-138.84"/>
</a>
</g>
</g>
<!-- Node12&#45;&gt;Node4 -->
<g id="edge16_Node000012_Node000004" class="edge">
<title>Node12&#45;&gt;Node4</title>
<g id="a_edge16_Node000012_Node000004"><a xlink:title=" ">
<path fill="none" stroke="#63b8ff" d="M512.72,-113.31C514.76,-99.89 519.74,-75.09 530.5,-56.75 536.67,-46.24 545.83,-36.39 554.27,-28.58"/>
<polygon fill="#63b8ff" stroke="#63b8ff" points="556.31,-31.45 561.53,-22.22 551.7,-26.18 556.31,-31.45"/>
</a>
</g>
</g>
<!-- Node12&#45;&gt;Node7 -->
<g id="edge14_Node000012_Node000007" class="edge">
<title>Node12&#45;&gt;Node7</title>
<g id="a_edge14_Node000012_Node000007"><a xlink:title=" ">
<path fill="none" stroke="#63b8ff" d="M538.32,-113.09C562.24,-104.36 597.5,-91.48 624.18,-81.75"/>
<polygon fill="#63b8ff" stroke="#63b8ff" points="625.05,-85.16 633.24,-78.44 622.65,-78.58 625.05,-85.16"/>
</a>
</g>
</g>
<!-- Node12&#45;&gt;Node8 -->
<g id="edge15_Node000012_Node000008" class="edge">
<title>Node12&#45;&gt;Node8</title>
<g id="a_edge15_Node000012_Node000008"><a xlink:title=" ">
<path fill="none" stroke="#63b8ff" d="M489.69,-113.09C470.69,-104.56 442.9,-92.09 421.41,-82.44"/>
<polygon fill="#63b8ff" stroke="#63b8ff" points="423.06,-79.35 412.5,-78.45 420.19,-85.74 423.06,-79.35"/>
</a>
</g>
</g>
<!-- Node13 -->
<g id="Node000013" class="node">
<title>Node13</title>
<g id="a_Node000013"><a xlink:href="vlcb__defs_8h.html" target="_top" xlink:title=" ">
<polygon fill="white" stroke="#666666" points="611.25,-77.5 539.75,-77.5 539.75,-56.75 611.25,-56.75 611.25,-77.5"/>
<text text-anchor="middle" x="575.5" y="-64" font-family="Helvetica,sans-Serif" font-size="10.00">vlcb_defs.h</text>
</a>
</g>
</g>
<!-- Node12&#45;&gt;Node13 -->
<g id="edge17_Node000012_Node000013" class="edge">
<title>Node12&#45;&gt;Node13</title>
<g id="a_edge17_Node000012_Node000013"><a xlink:title=" ">
<path fill="none" stroke="#63b8ff" d="M522.94,-113.09C531.95,-105.38 544.73,-94.45 555.43,-85.29"/>
<polygon fill="#63b8ff" stroke="#63b8ff" points="557.68,-87.97 563.01,-78.81 553.13,-82.65 557.68,-87.97"/>
</a>
</g>
</g>
<!-- Node13&#45;&gt;Node4 -->
<g id="edge18_Node000013_Node000004" class="edge">
<title>Node13&#45;&gt;Node4</title>
<g id="a_edge18_Node000013_Node000004"><a xlink:title=" ">
<path fill="none" stroke="#63b8ff" d="M575.5,-56.34C575.5,-49.72 575.5,-40.72 575.5,-32.52"/>
<polygon fill="#63b8ff" stroke="#63b8ff" points="579,-32.59 575.5,-22.59 572,-32.59 579,-32.59"/>
</a>
</g>
</g>
<!-- Node14&#45;&gt;Node12 -->
<g id="edge20_Node000014_Node000012" class="edge">
<title>Node14&#45;&gt;Node12</title>
<g id="a_edge20_Node000014_Node000012"><a xlink:title=" ">
<path fill="none" stroke="#63b8ff" d="M470.44,-169.84C477.26,-162.36 486.86,-151.86 495.06,-142.88"/>
<polygon fill="#63b8ff" stroke="#63b8ff" points="497.46,-145.44 501.62,-135.7 492.29,-140.72 497.46,-145.44"/>
</a>
</g>
</g>
<!-- Node15&#45;&gt;Node6 -->
<g id="edge23_Node000015_Node000006" class="edge">
<title>Node15&#45;&gt;Node6</title>
<g id="a_edge23_Node000015_Node000006"><a xlink:title=" ">
<path fill="none" stroke="#63b8ff" d="M377.84,-283.34C392.46,-275.08 413.64,-263.13 430.48,-253.63"/>
<polygon fill="#63b8ff" stroke="#63b8ff" points="432,-256.79 438.99,-248.82 428.56,-250.69 432,-256.79"/>
</a>
</g>
</g>
<!-- Node15&#45;&gt;Node8 -->
<g id="edge22_Node000015_Node000008" class="edge">
<title>Node15&#45;&gt;Node8</title>
<g id="a_edge22_Node000015_Node000008"><a xlink:title=" ">
<path fill="none" stroke="#63b8ff" d="M361.75,-283.46C366.11,-249.63 380.74,-136.11 386.82,-88.94"/>
<polygon fill="#63b8ff" stroke="#63b8ff" points="390.26,-89.62 388.07,-79.26 383.32,-88.73 390.26,-89.62"/>
</a>
</g>
</g>
<!-- Node15&#45;&gt;Node16 -->
<g id="edge24_Node000015_Node000016" class="edge">
<title>Node15&#45;&gt;Node16</title>
<g id="a_edge24_Node000015_Node000016"><a xlink:title=" ">
<path fill="none" stroke="#63b8ff" d="M348.88,-283.34C339.64,-275.55 326.49,-264.47 315.55,-255.26"/>
<polygon fill="#63b8ff" stroke="#63b8ff" points="318.08,-252.82 308.18,-249.05 313.57,-258.17 318.08,-252.82"/>
</a>
</g>
</g>
<!-- Node16&#45;&gt;Node3 -->
<g id="edge26_Node000016_Node000003" class="edge">
<title>Node16&#45;&gt;Node3</title>
<g id="a_edge26_Node000016_Node000003"><a xlink:title=" ">
<path fill="none" stroke="#63b8ff" d="M266.77,-235.93C232.12,-233.82 174.32,-224.99 140.5,-191 128.64,-179.08 124.08,-160.28 122.37,-145.76"/>
<polygon fill="#63b8ff" stroke="#63b8ff" points="125.87,-145.61 121.62,-135.9 118.89,-146.14 125.87,-145.61"/>
</a>
</g>
</g>
<!-- Node16&#45;&gt;Node8 -->
<g id="edge25_Node000016_Node000008" class="edge">
<title>Node16&#45;&gt;Node8</title>
<g id="a_edge25_Node000016_Node000008"><a xlink:title=" ">
<path fill="none" stroke="#63b8ff" d="M297.04,-226.68C300.87,-204.87 312.36,-150.93 337.5,-113.5 344.99,-102.34 355.9,-92.25 365.79,-84.44"/>
<polygon fill="#63b8ff" stroke="#63b8ff" points="367.7,-87.38 373.61,-78.59 363.51,-81.78 367.7,-87.38"/>
</a>
</g>
</g>
<!-- Node16&#45;&gt;Node10 -->
<g id="edge32_Node000016_Node000010" class="edge">
<title>Node16&#45;&gt;Node10</title>
<g id="a_edge32_Node000016_Node000010"><a xlink:title=" ">
<path fill="none" stroke="#63b8ff" d="M281.56,-226.59C270.13,-218.57 253.73,-207.06 240.39,-197.69"/>
<polygon fill="#63b8ff" stroke="#63b8ff" points="242.76,-195.08 232.56,-192.2 238.74,-200.81 242.76,-195.08"/>
</a>
</g>
</g>
<!-- Node16&#45;&gt;Node14 -->
<g id="edge31_Node000016_Node000014" class="edge">
<title>Node16&#45;&gt;Node14</title>
<g id="a_edge31_Node000016_Node000014"><a xlink:title=" ">
<path fill="none" stroke="#63b8ff" d="M324.04,-226.96C350.79,-218.14 391.05,-204.86 421.09,-194.95"/>
<polygon fill="#63b8ff" stroke="#63b8ff" points="421.82,-198.4 430.22,-191.94 419.63,-191.75 421.82,-198.4"/>
</a>
</g>
</g>
<!-- Node17 -->
<g id="Node000017" class="node">
<title>Node17</title>
<g id="a_Node000017"><a xlink:href="vlcb_8h.html" target="_top" xlink:title=" ">
<polygon fill="white" stroke="#666666" points="739.75,-191 659.25,-191 659.25,-170.25 739.75,-170.25 739.75,-191"/>
<text text-anchor="middle" x="699.5" y="-177.5" font-family="Helvetica,sans-Serif" font-size="10.00">packet/vlcb.h</text>
</a>
</g>
</g>
<!-- Node16&#45;&gt;Node17 -->
<g id="edge27_Node000016_Node000017" class="edge">
<title>Node16&#45;&gt;Node17</title>
<g id="a_edge27_Node000016_Node000017"><a xlink:title=" ">
<path fill="none" stroke="#63b8ff" d="M324.12,-233.33C382.85,-226.94 521.47,-211.2 647.87,-191.34"/>
<polygon fill="#63b8ff" stroke="#63b8ff" points="648.07,-194.85 657.4,-189.83 646.97,-187.94 648.07,-194.85"/>
</a>
</g>
</g>
<!-- Node17&#45;&gt;Node7 -->
<g id="edge28_Node000017_Node000007" class="edge">
<title>Node17&#45;&gt;Node7</title>
<g id="a_edge28_Node000017_Node000007"><a xlink:title=" ">
<path fill="none" stroke="#63b8ff" d="M684.05,-169.8C672.96,-161.76 658.88,-149.28 652.5,-134.25 646.34,-119.73 649.27,-101.96 653.37,-88.49"/>
<polygon fill="#63b8ff" stroke="#63b8ff" points="656.56,-89.99 656.58,-79.39 649.96,-87.66 656.56,-89.99"/>
</a>
</g>
</g>
<!-- Node17&#45;&gt;Node9 -->
<g id="edge30_Node000017_Node000009" class="edge">
<title>Node17&#45;&gt;Node9</title>
<g id="a_edge30_Node000017_Node000009"><a xlink:title=" ">
<path fill="none" stroke="#63b8ff" d="M703.08,-169.84C705.58,-162.99 709.01,-153.59 712.09,-145.15"/>
<polygon fill="#63b8ff" stroke="#63b8ff" points="715.29,-146.59 715.44,-136 708.72,-144.19 715.29,-146.59"/>
</a>
</g>
</g>
<!-- Node17&#45;&gt;Node13 -->
<g id="edge29_Node000017_Node000013" class="edge">
<title>Node17&#45;&gt;Node13</title>
<g id="a_edge29_Node000017_Node000013"><a xlink:title=" ">
<path fill="none" stroke="#63b8ff" d="M687.05,-169.79C675.75,-160.77 658.74,-146.92 644.5,-134.25 626.6,-118.33 606.95,-99.33 593.21,-85.8"/>
<polygon fill="#63b8ff" stroke="#63b8ff" points="595.75,-83.39 586.19,-78.84 590.83,-88.37 595.75,-83.39"/>
</a>
</g>
</g>
<!-- Node18&#45;&gt;Node9 -->
<g id="edge36_Node000018_Node000009" class="edge">
<title>Node18&#45;&gt;Node9</title>
<g id="a_edge36_Node000018_Node000009"><a xlink:title=" ">
<path fill="none" stroke="#63b8ff" d="M682.39,-283.39C705.38,-267.35 748.63,-232.95 765.5,-191 768.94,-182.44 769.06,-178.76 765.5,-170.25 760.81,-159.04 751.85,-149.19 743.07,-141.55"/>
<polygon fill="#63b8ff" stroke="#63b8ff" points="745.36,-138.9 735.36,-135.38 740.98,-144.37 745.36,-138.9"/>
</a>
</g>
</g>
</g>
</svg>
