<?xml version="1.0" encoding="UTF-8" standalone="no"?>
<!DOCTYPE svg PUBLIC "-//W3C//DTD SVG 1.1//EN"
 "http://www.w3.org/Graphics/SVG/1.1/DTD/svg11.dtd">
<!-- Generated by graphviz version 12.1.2 (20240928.0832)
 -->
<!-- Title: iface_vlcb.c Pages: 1 -->
<svg width="890pt" height="426pt"
 viewBox="0.00 0.00 889.50 426.00" xmlns="http://www.w3.org/2000/svg" xmlns:xlink="http://www.w3.org/1999/xlink">
<g id="graph0" class="graph" transform="scale(1 1) rotate(0) translate(4 422)">
<title>iface_vlcb.c</title>
<!-- Node1 -->
<g id="Node000001" class="node">
<title>Node1</title>
<g id="a_Node000001"><a xlink:title=" ">
<polygon fill="#999999" stroke="#666666" points="474.38,-418 400.62,-418 400.62,-397.25 474.38,-397.25 474.38,-418"/>
<text text-anchor="middle" x="437.5" y="-404.5" font-family="Helvetica,sans-Serif" font-size="10.00">iface_vlcb.c</text>
</a>
</g>
</g>
<!-- Node2 -->
<g id="Node000002" class="node">
<title>Node2</title>
<g id="a_Node000002"><a xlink:title=" ">
<polygon fill="#e0e0e0" stroke="#999999" points="55,-361.25 0,-361.25 0,-340.5 55,-340.5 55,-361.25"/>
<text text-anchor="middle" x="27.5" y="-347.75" font-family="Helvetica,sans-Serif" font-size="10.00">assert.h</text>
</a>
</g>
</g>
<!-- Node1&#45;&gt;Node2 -->
<g id="edge1_Node000001_Node000002" class="edge">
<title>Node1&#45;&gt;Node2</title>
<g id="a_edge1_Node000001_Node000002"><a xlink:title=" ">
<path fill="none" stroke="#63b8ff" d="M400.24,-403.24C333.59,-396.91 189.7,-382.03 69.5,-361.25 68.5,-361.08 67.49,-360.9 66.47,-360.71"/>
<polygon fill="#63b8ff" stroke="#63b8ff" points="67.41,-357.33 56.92,-358.8 66.04,-364.19 67.41,-357.33"/>
</a>
</g>
</g>
<!-- Node3 -->
<g id="Node000003" class="node">
<title>Node3</title>
<g id="a_Node000003"><a xlink:title=" ">
<polygon fill="#e0e0e0" stroke="#999999" points="813,-134.25 758,-134.25 758,-113.5 813,-113.5 813,-134.25"/>
<text text-anchor="middle" x="785.5" y="-120.75" font-family="Helvetica,sans-Serif" font-size="10.00">stddef.h</text>
</a>
</g>
</g>
<!-- Node1&#45;&gt;Node3 -->
<g id="edge2_Node000001_Node000003" class="edge">
<title>Node1&#45;&gt;Node3</title>
<g id="a_edge2_Node000001_Node000003"><a xlink:title=" ">
<path fill="none" stroke="#63b8ff" d="M474.59,-405.24C581.3,-400.25 881.5,-378.77 881.5,-295.12 881.5,-295.12 881.5,-295.12 881.5,-236.38 881.5,-205.8 881.22,-194.42 862.5,-170.25 852.18,-156.92 836.75,-146.74 822.41,-139.42"/>
<polygon fill="#63b8ff" stroke="#63b8ff" points="824.15,-136.38 813.62,-135.25 821.15,-142.7 824.15,-136.38"/>
</a>
</g>
</g>
<!-- Node4 -->
<g id="Node000004" class="node">
<title>Node4</title>
<g id="a_Node000004"><a xlink:title=" ">
<polygon fill="#e0e0e0" stroke="#999999" points="383.88,-20.75 331.12,-20.75 331.12,0 383.88,0 383.88,-20.75"/>
<text text-anchor="middle" x="357.5" y="-7.25" font-family="Helvetica,sans-Serif" font-size="10.00">stdint.h</text>
</a>
</g>
</g>
<!-- Node1&#45;&gt;Node4 -->
<g id="edge3_Node000001_Node000004" class="edge">
<title>Node1&#45;&gt;Node4</title>
<g id="a_edge3_Node000001_Node000004"><a xlink:title=" ">
<path fill="none" stroke="#63b8ff" d="M400.28,-402.9C309.4,-392.78 83.5,-361.01 83.5,-295.12 83.5,-295.12 83.5,-295.12 83.5,-122.88 83.5,-72.44 244.8,-33.76 319.88,-18.49"/>
<polygon fill="#63b8ff" stroke="#63b8ff" points="320.12,-22.01 329.24,-16.62 318.75,-15.14 320.12,-22.01"/>
</a>
</g>
</g>
<!-- Node5 -->
<g id="Node000005" class="node">
<title>Node5</title>
<g id="a_Node000005"><a xlink:href="iface__can_8h.html" target="_top" xlink:title=" ">
<polygon fill="white" stroke="#666666" points="524.25,-361.25 452.75,-361.25 452.75,-340.5 524.25,-340.5 524.25,-361.25"/>
<text text-anchor="middle" x="488.5" y="-347.75" font-family="Helvetica,sans-Serif" font-size="10.00">iface_can.h</text>
</a>
</g>
</g>
<!-- Node1&#45;&gt;Node5 -->
<g id="edge4_Node000001_Node000005" class="edge">
<title>Node1&#45;&gt;Node5</title>
<g id="a_edge4_Node000001_Node000005"><a xlink:title=" ">
<path fill="none" stroke="#63b8ff" d="M446.62,-396.84C453.58,-389.36 463.37,-378.86 471.73,-369.88"/>
<polygon fill="#63b8ff" stroke="#63b8ff" points="474.17,-372.39 478.43,-362.69 469.05,-367.62 474.17,-372.39"/>
</a>
</g>
</g>
<!-- Node10 -->
<g id="Node000010" class="node">
<title>Node10</title>
<g id="a_Node000010"><a xlink:href="interface_8h.html" target="_top" xlink:title=" ">
<polygon fill="white" stroke="#666666" points="853.88,-191 717.12,-191 717.12,-170.25 853.88,-170.25 853.88,-191"/>
<text text-anchor="middle" x="785.5" y="-177.5" font-family="Helvetica,sans-Serif" font-size="10.00">vlcb/platform/interface.h</text>
</a>
</g>
</g>
<!-- Node1&#45;&gt;Node10 -->
<g id="edge32_Node000001_Node000010" class="edge">
<title>Node1&#45;&gt;Node10</title>
<g id="a_edge32_Node000001_Node000010"><a xlink:title=" ">
<path fill="none" stroke="#63b8ff" d="M458.58,-396.92C478.09,-387.87 507.88,-373.91 533.5,-361.25 582.82,-336.88 597.94,-335.33 643.5,-304.5 691.81,-271.82 741.95,-224.8 767.77,-199.45"/>
<polygon fill="#63b8ff" stroke="#63b8ff" points="770.13,-202.04 774.77,-192.51 765.2,-197.07 770.13,-202.04"/>
</a>
</g>
</g>
<!-- Node18 -->
<g id="Node000018" class="node">
<title>Node18</title>
<g id="a_Node000018"><a xlink:href="log_8h.html" target="_top" xlink:title=" ">
<polygon fill="white" stroke="#666666" points="339.62,-304.5 231.38,-304.5 231.38,-283.75 339.62,-283.75 339.62,-304.5"/>
<text text-anchor="middle" x="285.5" y="-291" font-family="Helvetica,sans-Serif" font-size="10.00">vlcb/platform/log.h</text>
</a>
</g>
</g>
<!-- Node1&#45;&gt;Node18 -->
<g id="edge33_Node000001_Node000018" class="edge">
<title>Node1&#45;&gt;Node18</title>
<g id="a_edge33_Node000001_Node000018"><a xlink:title=" ">
<path fill="none" stroke="#63b8ff" d="M424.28,-396.93C398.23,-377.81 340.01,-335.11 307.87,-311.54"/>
<polygon fill="#63b8ff" stroke="#63b8ff" points="310.15,-308.87 300.02,-305.78 306.01,-314.51 310.15,-308.87"/>
</a>
</g>
</g>
<!-- Node6 -->
<g id="Node000006" class="node">
<title>Node6</title>
<g id="a_Node000006"><a xlink:href="adapter_8h.html" target="_top" xlink:title=" ">
<polygon fill="white" stroke="#666666" points="540.38,-247.75 436.62,-247.75 436.62,-227 540.38,-227 540.38,-247.75"/>
<text text-anchor="middle" x="488.5" y="-234.25" font-family="Helvetica,sans-Serif" font-size="10.00">vlcb/net/adapter.h</text>
</a>
</g>
</g>
<!-- Node5&#45;&gt;Node6 -->
<g id="edge5_Node000005_Node000006" class="edge">
<title>Node5&#45;&gt;Node6</title>
<g id="a_edge5_Node000005_Node000006"><a xlink:title=" ">
<path fill="none" stroke="#63b8ff" d="M488.5,-340.37C488.5,-322.6 488.5,-283.97 488.5,-259.68"/>
<polygon fill="#63b8ff" stroke="#63b8ff" points="492,-259.69 488.5,-249.69 485,-259.69 492,-259.69"/>
</a>
</g>
</g>
<!-- Node15 -->
<g id="Node000015" class="node">
<title>Node15</title>
<g id="a_Node000015"><a xlink:href="iface_8h.html" target="_top" xlink:title=" ">
<polygon fill="white" stroke="#666666" points="634,-304.5 543,-304.5 543,-283.75 634,-283.75 634,-304.5"/>
<text text-anchor="middle" x="588.5" y="-291" font-family="Helvetica,sans-Serif" font-size="10.00">vlcb/net/iface.h</text>
</a>
</g>
</g>
<!-- Node5&#45;&gt;Node15 -->
<g id="edge21_Node000005_Node000015" class="edge">
<title>Node5&#45;&gt;Node15</title>
<g id="a_edge21_Node000005_Node000015"><a xlink:title=" ">
<path fill="none" stroke="#63b8ff" d="M506.38,-340.09C521.59,-331.76 543.69,-319.66 561.13,-310.11"/>
<polygon fill="#63b8ff" stroke="#63b8ff" points="562.36,-313.43 569.45,-305.56 559,-307.29 562.36,-313.43"/>
</a>
</g>
</g>
<!-- Node7 -->
<g id="Node000007" class="node">
<title>Node7</title>
<g id="a_Node000007"><a xlink:title=" ">
<polygon fill="#e0e0e0" stroke="#999999" points="308.88,-77.5 244.12,-77.5 244.12,-56.75 308.88,-56.75 308.88,-77.5"/>
<text text-anchor="middle" x="276.5" y="-64" font-family="Helvetica,sans-Serif" font-size="10.00">inttypes.h</text>
</a>
</g>
</g>
<!-- Node6&#45;&gt;Node7 -->
<g id="edge6_Node000006_Node000007" class="edge">
<title>Node6&#45;&gt;Node7</title>
<g id="a_edge6_Node000006_Node000007"><a xlink:title=" ">
<path fill="none" stroke="#63b8ff" d="M436.25,-236.96C376.79,-235.66 278.13,-227.46 202.5,-191 168.85,-174.78 155.55,-168.44 140.5,-134.25 122.8,-94.05 186.33,-78.15 232.47,-71.96"/>
<polygon fill="#63b8ff" stroke="#63b8ff" points="232.76,-75.45 242.27,-70.77 231.92,-68.5 232.76,-75.45"/>
</a>
</g>
</g>
<!-- Node8 -->
<g id="Node000008" class="node">
<title>Node8</title>
<g id="a_Node000008"><a xlink:title=" ">
<polygon fill="#e0e0e0" stroke="#999999" points="606,-77.5 545,-77.5 545,-56.75 606,-56.75 606,-77.5"/>
<text text-anchor="middle" x="575.5" y="-64" font-family="Helvetica,sans-Serif" font-size="10.00">stdbool.h</text>
</a>
</g>
</g>
<!-- Node6&#45;&gt;Node8 -->
<g id="edge7_Node000006_Node000008" class="edge">
<title>Node6&#45;&gt;Node8</title>
<g id="a_edge7_Node000006_Node000008"><a xlink:title=" ">
<path fill="none" stroke="#63b8ff" d="M512.47,-226.54C527.58,-219.06 546.12,-207.27 556.5,-191 576.36,-159.86 578.16,-115.46 577.17,-89.43"/>
<polygon fill="#63b8ff" stroke="#63b8ff" points="580.67,-89.26 576.59,-79.48 573.68,-89.66 580.67,-89.26"/>
</a>
</g>
</g>
<!-- Node9 -->
<g id="Node000009" class="node">
<title>Node9</title>
<g id="a_Node000009"><a xlink:href="error_8h.html" target="_top" xlink:title=" ">
<polygon fill="white" stroke="#666666" points="265.38,-134.25 149.62,-134.25 149.62,-113.5 265.38,-113.5 265.38,-134.25"/>
<text text-anchor="middle" x="207.5" y="-120.75" font-family="Helvetica,sans-Serif" font-size="10.00">vlcb/platform/error.h</text>
</a>
</g>
</g>
<!-- Node6&#45;&gt;Node9 -->
<g id="edge8_Node000006_Node000009" class="edge">
<title>Node6&#45;&gt;Node9</title>
<g id="a_edge8_Node000006_Node000009"><a xlink:title=" ">
<path fill="none" stroke="#63b8ff" d="M436.4,-234.82C366.08,-231.57 246.17,-221.58 216.5,-191 205.14,-179.3 203.55,-160.47 204.43,-145.89"/>
<polygon fill="#63b8ff" stroke="#63b8ff" points="207.9,-146.28 205.48,-135.97 200.94,-145.54 207.9,-146.28"/>
</a>
</g>
</g>
<!-- Node6&#45;&gt;Node10 -->
<g id="edge9_Node000006_Node000010" class="edge">
<title>Node6&#45;&gt;Node10</title>
<g id="a_edge9_Node000006_Node000010"><a xlink:title=" ">
<path fill="none" stroke="#63b8ff" d="M540.57,-226.78C590.74,-217.53 666.77,-203.51 720.8,-193.55"/>
<polygon fill="#63b8ff" stroke="#63b8ff" points="721.29,-197.02 730.49,-191.77 720.02,-190.14 721.29,-197.02"/>
</a>
</g>
</g>
<!-- Node11 -->
<g id="Node000011" class="node">
<title>Node11</title>
<g id="a_Node000011"><a xlink:href="packet_8h.html" target="_top" xlink:title=" ">
<polygon fill="white" stroke="#666666" points="547.5,-191 429.5,-191 429.5,-170.25 547.5,-170.25 547.5,-191"/>
<text text-anchor="middle" x="488.5" y="-177.5" font-family="Helvetica,sans-Serif" font-size="10.00">adapter/can/packet.h</text>
</a>
</g>
</g>
<!-- Node6&#45;&gt;Node11 -->
<g id="edge11_Node000006_Node000011" class="edge">
<title>Node6&#45;&gt;Node11</title>
<g id="a_edge11_Node000006_Node000011"><a xlink:title=" ">
<path fill="none" stroke="#63b8ff" d="M488.5,-226.59C488.5,-219.97 488.5,-210.97 488.5,-202.77"/>
<polygon fill="#63b8ff" stroke="#63b8ff" points="492,-202.84 488.5,-192.84 485,-202.84 492,-202.84"/>
</a>
</g>
</g>
<!-- Node14 -->
<g id="Node000014" class="node">
<title>Node14</title>
<g id="a_Node000014"><a xlink:href="addr_8h.html" target="_top" xlink:title=" ">
<polygon fill="white" stroke="#666666" points="411.5,-191 323.5,-191 323.5,-170.25 411.5,-170.25 411.5,-191"/>
<text text-anchor="middle" x="367.5" y="-177.5" font-family="Helvetica,sans-Serif" font-size="10.00">vlcb/net/addr.h</text>
</a>
</g>
</g>
<!-- Node6&#45;&gt;Node14 -->
<g id="edge19_Node000006_Node000014" class="edge">
<title>Node6&#45;&gt;Node14</title>
<g id="a_edge19_Node000006_Node000014"><a xlink:title=" ">
<path fill="none" stroke="#63b8ff" d="M466.87,-226.59C448.03,-218.06 420.46,-205.59 399.14,-195.94"/>
<polygon fill="#63b8ff" stroke="#63b8ff" points="400.88,-192.89 390.32,-191.95 397.99,-199.26 400.88,-192.89"/>
</a>
</g>
</g>
<!-- Node10&#45;&gt;Node3 -->
<g id="edge10_Node000010_Node000003" class="edge">
<title>Node10&#45;&gt;Node3</title>
<g id="a_edge10_Node000010_Node000003"><a xlink:title=" ">
<path fill="none" stroke="#63b8ff" d="M785.5,-169.84C785.5,-163.22 785.5,-154.22 785.5,-146.02"/>
<polygon fill="#63b8ff" stroke="#63b8ff" points="789,-146.09 785.5,-136.09 782,-146.09 789,-146.09"/>
</a>
</g>
</g>
<!-- Node11&#45;&gt;Node8 -->
<g id="edge12_Node000011_Node000008" class="edge">
<title>Node11&#45;&gt;Node8</title>
<g id="a_edge12_Node000011_Node000008"><a xlink:title=" ">
<path fill="none" stroke="#63b8ff" d="M495.92,-170.12C510.29,-151.7 542.17,-110.84 560.93,-86.8"/>
<polygon fill="#63b8ff" stroke="#63b8ff" points="563.53,-89.16 566.92,-79.12 558.01,-84.85 563.53,-89.16"/>
</a>
</g>
</g>
<!-- Node12 -->
<g id="Node000012" class="node">
<title>Node12</title>
<g id="a_Node000012"><a xlink:href="common_2inc_2vlcb_2common_2can_8h.html" target="_top" xlink:title=" ">
<polygon fill="white" stroke="#666666" points="471.12,-134.25 359.88,-134.25 359.88,-113.5 471.12,-113.5 471.12,-134.25"/>
<text text-anchor="middle" x="415.5" y="-120.75" font-family="Helvetica,sans-Serif" font-size="10.00">vlcb/common/can.h</text>
</a>
</g>
</g>
<!-- Node11&#45;&gt;Node12 -->
<g id="edge13_Node000011_Node000012" class="edge">
<title>Node11&#45;&gt;Node12</title>
<g id="a_edge13_Node000011_Node000012"><a xlink:title=" ">
<path fill="none" stroke="#63b8ff" d="M475.45,-169.84C464.86,-161.9 449.71,-150.53 437.28,-141.21"/>
<polygon fill="#63b8ff" stroke="#63b8ff" points="439.75,-138.69 429.65,-135.49 435.55,-144.29 439.75,-138.69"/>
</a>
</g>
</g>
<!-- Node12&#45;&gt;Node4 -->
<g id="edge16_Node000012_Node000004" class="edge">
<title>Node12&#45;&gt;Node4</title>
<g id="a_edge16_Node000012_Node000004"><a xlink:title=" ">
<path fill="none" stroke="#63b8ff" d="M414.1,-113.41C411.84,-100.12 406.6,-75.46 396.5,-56.75 391.18,-46.89 383.43,-37.29 376.23,-29.48"/>
<polygon fill="#63b8ff" stroke="#63b8ff" points="378.74,-27.05 369.27,-22.3 373.72,-31.92 378.74,-27.05"/>
</a>
</g>
</g>
<!-- Node12&#45;&gt;Node7 -->
<g id="edge14_Node000012_Node000007" class="edge">
<title>Node12&#45;&gt;Node7</title>
<g id="a_edge14_Node000012_Node000007"><a xlink:title=" ">
<path fill="none" stroke="#63b8ff" d="M390.65,-113.09C368.61,-104.41 336.18,-91.63 311.52,-81.92"/>
<polygon fill="#63b8ff" stroke="#63b8ff" points="313.13,-78.79 302.54,-78.38 310.57,-85.3 313.13,-78.79"/>
</a>
</g>
</g>
<!-- Node12&#45;&gt;Node8 -->
<g id="edge15_Node000012_Node000008" class="edge">
<title>Node12&#45;&gt;Node8</title>
<g id="a_edge15_Node000012_Node000008"><a xlink:title=" ">
<path fill="none" stroke="#63b8ff" d="M444.1,-113.09C469.74,-104.32 507.57,-91.37 536.07,-81.62"/>
<polygon fill="#63b8ff" stroke="#63b8ff" points="537.11,-84.96 545.44,-78.41 534.85,-78.34 537.11,-84.96"/>
</a>
</g>
</g>
<!-- Node13 -->
<g id="Node000013" class="node">
<title>Node13</title>
<g id="a_Node000013"><a xlink:href="opcode_8h.html" target="_top" xlink:title=" ">
<polygon fill="white" stroke="#666666" points="387.62,-77.5 327.38,-77.5 327.38,-56.75 387.62,-56.75 387.62,-77.5"/>
<text text-anchor="middle" x="357.5" y="-64" font-family="Helvetica,sans-Serif" font-size="10.00">opcode.h</text>
</a>
</g>
</g>
<!-- Node12&#45;&gt;Node13 -->
<g id="edge17_Node000012_Node000013" class="edge">
<title>Node12&#45;&gt;Node13</title>
<g id="a_edge17_Node000012_Node000013"><a xlink:title=" ">
<path fill="none" stroke="#63b8ff" d="M405.13,-113.09C397.05,-105.46 385.62,-94.67 375.98,-85.57"/>
<polygon fill="#63b8ff" stroke="#63b8ff" points="378.55,-83.19 368.88,-78.87 373.75,-88.28 378.55,-83.19"/>
</a>
</g>
</g>
<!-- Node13&#45;&gt;Node4 -->
<g id="edge18_Node000013_Node000004" class="edge">
<title>Node13&#45;&gt;Node4</title>
<g id="a_edge18_Node000013_Node000004"><a xlink:title=" ">
<path fill="none" stroke="#63b8ff" d="M357.5,-56.34C357.5,-49.72 357.5,-40.72 357.5,-32.52"/>
<polygon fill="#63b8ff" stroke="#63b8ff" points="361,-32.59 357.5,-22.59 354,-32.59 361,-32.59"/>
</a>
</g>
</g>
<!-- Node14&#45;&gt;Node12 -->
<g id="edge20_Node000014_Node000012" class="edge">
<title>Node14&#45;&gt;Node12</title>
<g id="a_edge20_Node000014_Node000012"><a xlink:title=" ">
<path fill="none" stroke="#63b8ff" d="M376.08,-169.84C382.57,-162.44 391.65,-152.07 399.47,-143.16"/>
<polygon fill="#63b8ff" stroke="#63b8ff" points="402.03,-145.54 406,-135.72 396.77,-140.93 402.03,-145.54"/>
</a>
</g>
</g>
<!-- Node15&#45;&gt;Node6 -->
<g id="edge23_Node000015_Node000006" class="edge">
<title>Node15&#45;&gt;Node6</title>
<g id="a_edge23_Node000015_Node000006"><a xlink:title=" ">
<path fill="none" stroke="#63b8ff" d="M570.62,-283.34C555.41,-275.01 533.31,-262.91 515.87,-253.36"/>
<polygon fill="#63b8ff" stroke="#63b8ff" points="518,-250.54 507.55,-248.81 514.64,-256.68 518,-250.54"/>
</a>
</g>
</g>
<!-- Node15&#45;&gt;Node8 -->
<g id="edge22_Node000015_Node000008" class="edge">
<title>Node15&#45;&gt;Node8</title>
<g id="a_edge22_Node000015_Node000008"><a xlink:title=" ">
<path fill="none" stroke="#63b8ff" d="M589.77,-283.3C593.05,-256.1 600.81,-177.54 590.5,-113.5 589.15,-105.12 586.49,-96.2 583.77,-88.5"/>
<polygon fill="#63b8ff" stroke="#63b8ff" points="587.14,-87.51 580.32,-79.4 580.6,-89.99 587.14,-87.51"/>
</a>
</g>
</g>
<!-- Node16 -->
<g id="Node000016" class="node">
<title>Node16</title>
<g id="a_Node000016"><a xlink:href="socket_8h.html" target="_top" xlink:title=" ">
<polygon fill="white" stroke="#666666" points="697.75,-247.75 641.25,-247.75 641.25,-227 697.75,-227 697.75,-247.75"/>
<text text-anchor="middle" x="669.5" y="-234.25" font-family="Helvetica,sans-Serif" font-size="10.00">socket.h</text>
</a>
</g>
</g>
<!-- Node15&#45;&gt;Node16 -->
<g id="edge24_Node000015_Node000016" class="edge">
<title>Node15&#45;&gt;Node16</title>
<g id="a_edge24_Node000015_Node000016"><a xlink:title=" ">
<path fill="none" stroke="#63b8ff" d="M602.98,-283.34C614.85,-275.32 631.87,-263.81 645.73,-254.44"/>
<polygon fill="#63b8ff" stroke="#63b8ff" points="647.57,-257.43 653.89,-248.93 643.65,-251.63 647.57,-257.43"/>
</a>
</g>
</g>
<!-- Node16&#45;&gt;Node3 -->
<g id="edge26_Node000016_Node000003" class="edge">
<title>Node16&#45;&gt;Node3</title>
<g id="a_edge26_Node000016_Node000003"><a xlink:title=" ">
<path fill="none" stroke="#63b8ff" d="M673.28,-226.84C679.14,-213.01 691.53,-187.21 708.5,-170.25 721.04,-157.72 737.73,-147.33 752.36,-139.67"/>
<polygon fill="#63b8ff" stroke="#63b8ff" points="753.82,-142.86 761.21,-135.26 750.7,-136.59 753.82,-142.86"/>
</a>
</g>
</g>
<!-- Node16&#45;&gt;Node8 -->
<g id="edge25_Node000016_Node000008" class="edge">
<title>Node16&#45;&gt;Node8</title>
<g id="a_edge25_Node000016_Node000008"><a xlink:title=" ">
<path fill="none" stroke="#63b8ff" d="M667.96,-226.68C664.13,-204.87 652.64,-150.93 627.5,-113.5 620.01,-102.34 609.1,-92.25 599.21,-84.44"/>
<polygon fill="#63b8ff" stroke="#63b8ff" points="601.49,-81.78 591.39,-78.59 597.3,-87.38 601.49,-81.78"/>
</a>
</g>
</g>
<!-- Node16&#45;&gt;Node10 -->
<g id="edge31_Node000016_Node000010" class="edge">
<title>Node16&#45;&gt;Node10</title>
<g id="a_edge31_Node000016_Node000010"><a xlink:title=" ">
<path fill="none" stroke="#63b8ff" d="M690.24,-226.59C708.14,-218.14 734.24,-205.82 754.6,-196.21"/>
<polygon fill="#63b8ff" stroke="#63b8ff" points="756.02,-199.41 763.57,-191.97 753.04,-193.08 756.02,-199.41"/>
</a>
</g>
</g>
<!-- Node17 -->
<g id="Node000017" class="node">
<title>Node17</title>
<g id="a_Node000017"><a xlink:href="vlcb_8h.html" target="_top" xlink:title=" ">
<polygon fill="white" stroke="#666666" points="305.75,-191 225.25,-191 225.25,-170.25 305.75,-170.25 305.75,-191"/>
<text text-anchor="middle" x="265.5" y="-177.5" font-family="Helvetica,sans-Serif" font-size="10.00">packet/vlcb.h</text>
</a>
</g>
</g>
<!-- Node16&#45;&gt;Node17 -->
<g id="edge27_Node000016_Node000017" class="edge">
<title>Node16&#45;&gt;Node17</title>
<g id="a_edge27_Node000016_Node000017"><a xlink:title=" ">
<path fill="none" stroke="#63b8ff" d="M640.88,-233.33C582.15,-226.94 443.53,-211.2 317.13,-191.34"/>
<polygon fill="#63b8ff" stroke="#63b8ff" points="318.03,-187.94 307.6,-189.83 316.93,-194.85 318.03,-187.94"/>
</a>
</g>
</g>
<!-- Node17&#45;&gt;Node7 -->
<g id="edge28_Node000017_Node000007" class="edge">
<title>Node17&#45;&gt;Node7</title>
<g id="a_edge28_Node000017_Node000007"><a xlink:title=" ">
<path fill="none" stroke="#63b8ff" d="M267.9,-169.96C270.05,-160.82 273.09,-146.7 274.5,-134.25 276.21,-119.19 276.69,-102.08 276.75,-89.04"/>
<polygon fill="#63b8ff" stroke="#63b8ff" points="280.25,-89.08 276.71,-79.09 273.25,-89.1 280.25,-89.08"/>
</a>
</g>
</g>
<!-- Node17&#45;&gt;Node9 -->
<g id="edge30_Node000017_Node000009" class="edge">
<title>Node17&#45;&gt;Node9</title>
<g id="a_edge30_Node000017_Node000009"><a xlink:title=" ">
<path fill="none" stroke="#63b8ff" d="M255.13,-169.84C247.05,-162.21 235.62,-151.42 225.98,-142.32"/>
<polygon fill="#63b8ff" stroke="#63b8ff" points="228.55,-139.94 218.88,-135.62 223.75,-145.03 228.55,-139.94"/>
</a>
</g>
</g>
<!-- Node17&#45;&gt;Node13 -->
<g id="edge29_Node000017_Node000013" class="edge">
<title>Node17&#45;&gt;Node13</title>
<g id="a_edge29_Node000017_Node000013"><a xlink:title=" ">
<path fill="none" stroke="#63b8ff" d="M273.34,-170.12C288.54,-151.7 322.26,-110.84 342.09,-86.8"/>
<polygon fill="#63b8ff" stroke="#63b8ff" points="344.79,-89.03 348.45,-79.09 339.39,-84.58 344.79,-89.03"/>
</a>
</g>
</g>
<!-- Node18&#45;&gt;Node9 -->
<g id="edge34_Node000018_Node000009" class="edge">
<title>Node18&#45;&gt;Node9</title>
<g id="a_edge34_Node000018_Node000009"><a xlink:title=" ">
<path fill="none" stroke="#63b8ff" d="M273.47,-283.38C254.09,-266.81 216.72,-231.05 202.5,-191 197.31,-176.38 198.97,-158.83 201.7,-145.49"/>
<polygon fill="#63b8ff" stroke="#63b8ff" points="205.03,-146.63 204,-136.09 198.23,-144.97 205.03,-146.63"/>
</a>
</g>
</g>
</g>
</svg>
