<?xml version="1.0" encoding="UTF-8" standalone="no"?>
<!DOCTYPE svg PUBLIC "-//W3C//DTD SVG 1.1//EN"
 "http://www.w3.org/Graphics/SVG/1.1/DTD/svg11.dtd">
<!-- Generated by graphviz version 12.1.2 (20240928.0832)
 -->
<!-- Title: iface_vlcb.h Pages: 1 -->
<svg width="870pt" height="382pt"
 viewBox="0.00 0.00 869.87 382.00" xmlns="http://www.w3.org/2000/svg" xmlns:xlink="http://www.w3.org/1999/xlink">
<g id="graph0" class="graph" transform="scale(1 1) rotate(0) translate(4 378)">
<title>iface_vlcb.h</title>
<!-- Node1 -->
<g id="Node000001" class="node">
<title>Node1</title>
<g id="a_Node000001"><a xlink:title=" ">
<polygon fill="#999999" stroke="#666666" points="326.6,-374 252.1,-374 252.1,-353.25 326.6,-353.25 326.6,-374"/>
<text text-anchor="middle" x="289.35" y="-360.5" font-family="Helvetica,sans-Serif" font-size="10.00">iface_vlcb.h</text>
</a>
</g>
</g>
<!-- Node2 -->
<g id="Node000002" class="node">
<title>Node2</title>
<g id="a_Node000002"><a xlink:href="iface_8h.html" target="_top" xlink:title=" ">
<polygon fill="white" stroke="#666666" points="464.85,-317.25 373.85,-317.25 373.85,-296.5 464.85,-296.5 464.85,-317.25"/>
<text text-anchor="middle" x="419.35" y="-303.75" font-family="Helvetica,sans-Serif" font-size="10.00">vlcb/net/iface.h</text>
</a>
</g>
</g>
<!-- Node1&#45;&gt;Node2 -->
<g id="edge1_Node000001_Node000002" class="edge">
<title>Node1&#45;&gt;Node2</title>
<g id="a_edge1_Node000001_Node000002"><a xlink:title=" ">
<path fill="none" stroke="#63b8ff" d="M312.59,-352.84C333.02,-344.23 362.99,-331.61 385.98,-321.93"/>
<polygon fill="#63b8ff" stroke="#63b8ff" points="387.06,-325.27 394.91,-318.17 384.34,-318.82 387.06,-325.27"/>
</a>
</g>
</g>
<!-- Node16 -->
<g id="Node000016" class="node">
<title>Node16</title>
<g id="a_Node000016"><a xlink:href="vlcb_8h.html" target="_top" xlink:title=" ">
<polygon fill="white" stroke="#666666" points="125.6,-197.38 45.1,-197.38 45.1,-176.62 125.6,-176.62 125.6,-197.38"/>
<text text-anchor="middle" x="85.35" y="-183.88" font-family="Helvetica,sans-Serif" font-size="10.00">packet/vlcb.h</text>
</a>
</g>
</g>
<!-- Node1&#45;&gt;Node16 -->
<g id="edge35_Node000001_Node000016" class="edge">
<title>Node1&#45;&gt;Node16</title>
<g id="a_edge35_Node000001_Node000016"><a xlink:title=" ">
<path fill="none" stroke="#63b8ff" d="M278.09,-352.99C245.01,-324.67 147.78,-241.44 105.44,-205.2"/>
<polygon fill="#63b8ff" stroke="#63b8ff" points="107.85,-202.65 97.97,-198.81 103.29,-207.97 107.85,-202.65"/>
</a>
</g>
</g>
<!-- Node3 -->
<g id="Node000003" class="node">
<title>Node3</title>
<g id="a_Node000003"><a xlink:title=" ">
<polygon fill="#e0e0e0" stroke="#999999" points="554.85,-77.5 493.85,-77.5 493.85,-56.75 554.85,-56.75 554.85,-77.5"/>
<text text-anchor="middle" x="524.35" y="-64" font-family="Helvetica,sans-Serif" font-size="10.00">stdbool.h</text>
</a>
</g>
</g>
<!-- Node2&#45;&gt;Node3 -->
<g id="edge2_Node000002_Node000003" class="edge">
<title>Node2&#45;&gt;Node3</title>
<g id="a_edge2_Node000002_Node000003"><a xlink:title=" ">
<path fill="none" stroke="#63b8ff" d="M465.03,-301.96C565.41,-292.31 800.01,-263.71 847.35,-203.75 924.73,-105.73 670.17,-77.7 566.39,-70.44"/>
<polygon fill="#63b8ff" stroke="#63b8ff" points="566.8,-66.96 556.6,-69.79 566.34,-73.95 566.8,-66.96"/>
</a>
</g>
</g>
<!-- Node4 -->
<g id="Node000004" class="node">
<title>Node4</title>
<g id="a_Node000004"><a xlink:href="adapter_8h.html" target="_top" xlink:title=" ">
<polygon fill="white" stroke="#666666" points="396.22,-260.5 334.47,-260.5 334.47,-239.75 396.22,-239.75 396.22,-260.5"/>
<text text-anchor="middle" x="365.35" y="-247" font-family="Helvetica,sans-Serif" font-size="10.00">adapter.h</text>
</a>
</g>
</g>
<!-- Node2&#45;&gt;Node4 -->
<g id="edge3_Node000002_Node000004" class="edge">
<title>Node2&#45;&gt;Node4</title>
<g id="a_edge3_Node000002_Node000004"><a xlink:title=" ">
<path fill="none" stroke="#63b8ff" d="M409.69,-296.09C402.25,-288.53 391.74,-277.89 382.83,-268.85"/>
<polygon fill="#63b8ff" stroke="#63b8ff" points="385.5,-266.57 375.98,-261.91 380.51,-271.48 385.5,-266.57"/>
</a>
</g>
</g>
<!-- Node15 -->
<g id="Node000015" class="node">
<title>Node15</title>
<g id="a_Node000015"><a xlink:href="socket_8h.html" target="_top" xlink:title=" ">
<polygon fill="white" stroke="#666666" points="595.6,-260.5 539.1,-260.5 539.1,-239.75 595.6,-239.75 595.6,-260.5"/>
<text text-anchor="middle" x="567.35" y="-247" font-family="Helvetica,sans-Serif" font-size="10.00">socket.h</text>
</a>
</g>
</g>
<!-- Node2&#45;&gt;Node15 -->
<g id="edge22_Node000002_Node000015" class="edge">
<title>Node2&#45;&gt;Node15</title>
<g id="a_edge22_Node000002_Node000015"><a xlink:title=" ">
<path fill="none" stroke="#63b8ff" d="M445.81,-296.09C469.38,-287.37 504.11,-274.52 530.42,-264.79"/>
<polygon fill="#63b8ff" stroke="#63b8ff" points="531.53,-268.11 539.7,-261.35 529.1,-261.54 531.53,-268.11"/>
</a>
</g>
</g>
<!-- Node4&#45;&gt;Node3 -->
<g id="edge5_Node000004_Node000003" class="edge">
<title>Node4&#45;&gt;Node3</title>
<g id="a_edge5_Node000004_Node000003"><a xlink:title=" ">
<path fill="none" stroke="#63b8ff" d="M365.58,-239.29C366.4,-223.46 369.88,-191.92 384.35,-170.25 411.28,-129.89 459.84,-99.85 492.09,-83.15"/>
<polygon fill="#63b8ff" stroke="#63b8ff" points="493.63,-86.29 500.99,-78.68 490.49,-80.04 493.63,-86.29"/>
</a>
</g>
</g>
<!-- Node5 -->
<g id="Node000005" class="node">
<title>Node5</title>
<g id="a_Node000005"><a xlink:title=" ">
<polygon fill="#e0e0e0" stroke="#999999" points="223.72,-77.5 158.97,-77.5 158.97,-56.75 223.72,-56.75 223.72,-77.5"/>
<text text-anchor="middle" x="191.35" y="-64" font-family="Helvetica,sans-Serif" font-size="10.00">inttypes.h</text>
</a>
</g>
</g>
<!-- Node4&#45;&gt;Node5 -->
<g id="edge4_Node000004_Node000005" class="edge">
<title>Node4&#45;&gt;Node5</title>
<g id="a_edge4_Node000004_Node000005"><a xlink:title=" ">
<path fill="none" stroke="#63b8ff" d="M334.23,-249.38C298.61,-247.85 241.24,-239.5 210.35,-203.75 182.59,-171.62 184.31,-118.32 187.89,-89.02"/>
<polygon fill="#63b8ff" stroke="#63b8ff" points="191.34,-89.63 189.3,-79.24 184.41,-88.64 191.34,-89.63"/>
</a>
</g>
</g>
<!-- Node6 -->
<g id="Node000006" class="node">
<title>Node6</title>
<g id="a_Node000006"><a xlink:href="error_8h.html" target="_top" xlink:title=" ">
<polygon fill="white" stroke="#666666" points="163.22,-134.25 47.47,-134.25 47.47,-113.5 163.22,-113.5 163.22,-134.25"/>
<text text-anchor="middle" x="105.35" y="-120.75" font-family="Helvetica,sans-Serif" font-size="10.00">vlcb/platform/error.h</text>
</a>
</g>
</g>
<!-- Node4&#45;&gt;Node6 -->
<g id="edge6_Node000004_Node000006" class="edge">
<title>Node4&#45;&gt;Node6</title>
<g id="a_edge6_Node000004_Node000006"><a xlink:title=" ">
<path fill="none" stroke="#63b8ff" d="M334.31,-247.2C295.23,-243.58 227.21,-233.22 177.35,-203.75 152.01,-188.77 130.42,-162.05 117.66,-143.9"/>
<polygon fill="#63b8ff" stroke="#63b8ff" points="120.71,-142.16 112.21,-135.84 114.92,-146.09 120.71,-142.16"/>
</a>
</g>
</g>
<!-- Node7 -->
<g id="Node000007" class="node">
<title>Node7</title>
<g id="a_Node000007"><a xlink:href="interface_8h.html" target="_top" xlink:title=" ">
<polygon fill="white" stroke="#666666" points="635.72,-197.38 498.97,-197.38 498.97,-176.62 635.72,-176.62 635.72,-197.38"/>
<text text-anchor="middle" x="567.35" y="-183.88" font-family="Helvetica,sans-Serif" font-size="10.00">vlcb/platform/interface.h</text>
</a>
</g>
</g>
<!-- Node4&#45;&gt;Node7 -->
<g id="edge7_Node000004_Node000007" class="edge">
<title>Node4&#45;&gt;Node7</title>
<g id="a_edge7_Node000004_Node000007"><a xlink:title=" ">
<path fill="none" stroke="#63b8ff" d="M396.47,-239.71C430.61,-229.38 485.66,-212.72 524.02,-201.11"/>
<polygon fill="#63b8ff" stroke="#63b8ff" points="524.85,-204.52 533.41,-198.27 522.82,-197.82 524.85,-204.52"/>
</a>
</g>
</g>
<!-- Node9 -->
<g id="Node000009" class="node">
<title>Node9</title>
<g id="a_Node000009"><a xlink:href="packet_8h.html" target="_top" xlink:title=" ">
<polygon fill="white" stroke="#666666" points="337.35,-197.38 219.35,-197.38 219.35,-176.62 337.35,-176.62 337.35,-197.38"/>
<text text-anchor="middle" x="278.35" y="-183.88" font-family="Helvetica,sans-Serif" font-size="10.00">adapter/can/packet.h</text>
</a>
</g>
</g>
<!-- Node4&#45;&gt;Node9 -->
<g id="edge9_Node000004_Node000009" class="edge">
<title>Node4&#45;&gt;Node9</title>
<g id="a_edge9_Node000004_Node000009"><a xlink:title=" ">
<path fill="none" stroke="#63b8ff" d="M351.37,-239.3C337.93,-229.86 317.36,-215.41 301.47,-204.25"/>
<polygon fill="#63b8ff" stroke="#63b8ff" points="303.72,-201.55 293.53,-198.67 299.7,-207.28 303.72,-201.55"/>
</a>
</g>
</g>
<!-- Node13 -->
<g id="Node000013" class="node">
<title>Node13</title>
<g id="a_Node000013"><a xlink:href="addr_8h.html" target="_top" xlink:title=" ">
<polygon fill="white" stroke="#666666" points="481.35,-197.38 393.35,-197.38 393.35,-176.62 481.35,-176.62 481.35,-197.38"/>
<text text-anchor="middle" x="437.35" y="-183.88" font-family="Helvetica,sans-Serif" font-size="10.00">vlcb/net/addr.h</text>
</a>
</g>
</g>
<!-- Node4&#45;&gt;Node13 -->
<g id="edge17_Node000004_Node000013" class="edge">
<title>Node4&#45;&gt;Node13</title>
<g id="a_edge17_Node000004_Node000013"><a xlink:title=" ">
<path fill="none" stroke="#63b8ff" d="M376.92,-239.3C387.79,-230.07 404.3,-216.06 417.32,-205.01"/>
<polygon fill="#63b8ff" stroke="#63b8ff" points="419.53,-207.71 424.89,-198.57 415,-202.38 419.53,-207.71"/>
</a>
</g>
</g>
<!-- Node8 -->
<g id="Node000008" class="node">
<title>Node8</title>
<g id="a_Node000008"><a xlink:title=" ">
<polygon fill="#e0e0e0" stroke="#999999" points="689.85,-134.25 634.85,-134.25 634.85,-113.5 689.85,-113.5 689.85,-134.25"/>
<text text-anchor="middle" x="662.35" y="-120.75" font-family="Helvetica,sans-Serif" font-size="10.00">stddef.h</text>
</a>
</g>
</g>
<!-- Node7&#45;&gt;Node8 -->
<g id="edge8_Node000007_Node000008" class="edge">
<title>Node7&#45;&gt;Node8</title>
<g id="a_edge8_Node000007_Node000008"><a xlink:title=" ">
<path fill="none" stroke="#63b8ff" d="M582.61,-176.18C597.43,-166.64 620.18,-152.01 637.59,-140.81"/>
<polygon fill="#63b8ff" stroke="#63b8ff" points="639.33,-143.84 645.85,-135.49 635.55,-137.96 639.33,-143.84"/>
</a>
</g>
</g>
<!-- Node9&#45;&gt;Node3 -->
<g id="edge10_Node000009_Node000003" class="edge">
<title>Node9&#45;&gt;Node3</title>
<g id="a_edge10_Node000009_Node000003"><a xlink:title=" ">
<path fill="none" stroke="#63b8ff" d="M289.92,-176.3C308.54,-161.09 346.79,-131.52 383.35,-113.5 400.99,-104.81 447.88,-90.31 482.77,-80.04"/>
<polygon fill="#63b8ff" stroke="#63b8ff" points="483.56,-83.46 492.18,-77.29 481.6,-76.74 483.56,-83.46"/>
</a>
</g>
</g>
<!-- Node10 -->
<g id="Node000010" class="node">
<title>Node10</title>
<g id="a_Node000010"><a xlink:href="common_2inc_2vlcb_2common_2can_8h.html" target="_top" xlink:title=" ">
<polygon fill="white" stroke="#666666" points="330.97,-134.25 219.72,-134.25 219.72,-113.5 330.97,-113.5 330.97,-134.25"/>
<text text-anchor="middle" x="275.35" y="-120.75" font-family="Helvetica,sans-Serif" font-size="10.00">vlcb/common/can.h</text>
</a>
</g>
</g>
<!-- Node9&#45;&gt;Node10 -->
<g id="edge11_Node000009_Node000010" class="edge">
<title>Node9&#45;&gt;Node10</title>
<g id="a_edge11_Node000009_Node000010"><a xlink:title=" ">
<path fill="none" stroke="#63b8ff" d="M277.87,-176.18C277.47,-168.02 276.88,-156.13 276.38,-145.85"/>
<polygon fill="#63b8ff" stroke="#63b8ff" points="279.88,-145.8 275.89,-135.98 272.89,-146.14 279.88,-145.8"/>
</a>
</g>
</g>
<!-- Node10&#45;&gt;Node3 -->
<g id="edge13_Node000010_Node000003" class="edge">
<title>Node10&#45;&gt;Node3</title>
<g id="a_edge13_Node000010_Node000003"><a xlink:title=" ">
<path fill="none" stroke="#63b8ff" d="M322.54,-113C362.73,-104.52 422.3,-91.78 482.8,-78.05"/>
<polygon fill="#63b8ff" stroke="#63b8ff" points="483.26,-81.53 492.23,-75.9 481.7,-74.71 483.26,-81.53"/>
</a>
</g>
</g>
<!-- Node10&#45;&gt;Node5 -->
<g id="edge12_Node000010_Node000005" class="edge">
<title>Node10&#45;&gt;Node5</title>
<g id="a_edge12_Node000010_Node000005"><a xlink:title=" ">
<path fill="none" stroke="#63b8ff" d="M260.33,-113.09C247.91,-104.99 230.02,-93.33 215.58,-83.92"/>
<polygon fill="#63b8ff" stroke="#63b8ff" points="217.79,-81.18 207.5,-78.65 213.97,-87.05 217.79,-81.18"/>
</a>
</g>
</g>
<!-- Node11 -->
<g id="Node000011" class="node">
<title>Node11</title>
<g id="a_Node000011"><a xlink:title=" ">
<polygon fill="#e0e0e0" stroke="#999999" points="444.72,-20.75 391.97,-20.75 391.97,0 444.72,0 444.72,-20.75"/>
<text text-anchor="middle" x="418.35" y="-7.25" font-family="Helvetica,sans-Serif" font-size="10.00">stdint.h</text>
</a>
</g>
</g>
<!-- Node10&#45;&gt;Node11 -->
<g id="edge14_Node000010_Node000011" class="edge">
<title>Node10&#45;&gt;Node11</title>
<g id="a_edge14_Node000010_Node000011"><a xlink:title=" ">
<path fill="none" stroke="#63b8ff" d="M285.83,-113.04C300.18,-99.73 326.95,-75.52 351.35,-56.75 364.79,-46.41 380.46,-35.73 393.26,-27.33"/>
<polygon fill="#63b8ff" stroke="#63b8ff" points="395.06,-30.34 401.54,-21.96 391.25,-24.46 395.06,-30.34"/>
</a>
</g>
</g>
<!-- Node12 -->
<g id="Node000012" class="node">
<title>Node12</title>
<g id="a_Node000012"><a xlink:href="opcode_8h.html" target="_top" xlink:title=" ">
<polygon fill="white" stroke="#666666" points="304.47,-77.5 244.22,-77.5 244.22,-56.75 304.47,-56.75 304.47,-77.5"/>
<text text-anchor="middle" x="274.35" y="-64" font-family="Helvetica,sans-Serif" font-size="10.00">opcode.h</text>
</a>
</g>
</g>
<!-- Node10&#45;&gt;Node12 -->
<g id="edge15_Node000010_Node000012" class="edge">
<title>Node10&#45;&gt;Node12</title>
<g id="a_edge15_Node000010_Node000012"><a xlink:title=" ">
<path fill="none" stroke="#63b8ff" d="M275.17,-113.09C275.05,-106.47 274.88,-97.47 274.73,-89.27"/>
<polygon fill="#63b8ff" stroke="#63b8ff" points="278.24,-89.28 274.55,-79.34 271.24,-89.4 278.24,-89.28"/>
</a>
</g>
</g>
<!-- Node12&#45;&gt;Node11 -->
<g id="edge16_Node000012_Node000011" class="edge">
<title>Node12&#45;&gt;Node11</title>
<g id="a_edge16_Node000012_Node000011"><a xlink:title=" ">
<path fill="none" stroke="#63b8ff" d="M300.09,-56.34C322.92,-47.66 356.52,-34.88 382.07,-25.17"/>
<polygon fill="#63b8ff" stroke="#63b8ff" points="383.31,-28.44 391.41,-21.62 380.82,-21.9 383.31,-28.44"/>
</a>
</g>
</g>
<!-- Node13&#45;&gt;Node10 -->
<g id="edge18_Node000013_Node000010" class="edge">
<title>Node13&#45;&gt;Node10</title>
<g id="a_edge18_Node000013_Node000010"><a xlink:title=" ">
<path fill="none" stroke="#63b8ff" d="M411.32,-176.18C384.4,-166.02 342.13,-150.07 311.87,-138.65"/>
<polygon fill="#63b8ff" stroke="#63b8ff" points="313.32,-135.46 302.73,-135.21 310.85,-142.01 313.32,-135.46"/>
</a>
</g>
</g>
<!-- Node13&#45;&gt;Node11 -->
<g id="edge21_Node000013_Node000011" class="edge">
<title>Node13&#45;&gt;Node11</title>
<g id="a_edge21_Node000013_Node000011"><a xlink:title=" ">
<path fill="none" stroke="#63b8ff" d="M461.03,-176.21C507.04,-155.79 600.91,-106.4 564.35,-56.75 539.67,-23.24 490.46,-13.76 456.02,-11.44"/>
<polygon fill="#63b8ff" stroke="#63b8ff" points="456.64,-7.96 446.48,-10.98 456.3,-14.96 456.64,-7.96"/>
</a>
</g>
</g>
<!-- Node14 -->
<g id="Node000014" class="node">
<title>Node14</title>
<g id="a_Node000014"><a xlink:href="time_8h.html" target="_top" xlink:title=" ">
<polygon fill="white" stroke="#666666" points="476.22,-77.5 360.47,-77.5 360.47,-56.75 476.22,-56.75 476.22,-77.5"/>
<text text-anchor="middle" x="418.35" y="-64" font-family="Helvetica,sans-Serif" font-size="10.00">vlcb/platform/time.h</text>
</a>
</g>
</g>
<!-- Node13&#45;&gt;Node14 -->
<g id="edge19_Node000013_Node000014" class="edge">
<title>Node13&#45;&gt;Node14</title>
<g id="a_edge19_Node000013_Node000014"><a xlink:title=" ">
<path fill="none" stroke="#63b8ff" d="M435.79,-176.35C432.73,-157.36 425.86,-114.72 421.71,-89"/>
<polygon fill="#63b8ff" stroke="#63b8ff" points="425.21,-88.71 420.17,-79.4 418.3,-89.83 425.21,-88.71"/>
</a>
</g>
</g>
<!-- Node14&#45;&gt;Node11 -->
<g id="edge20_Node000014_Node000011" class="edge">
<title>Node14&#45;&gt;Node11</title>
<g id="a_edge20_Node000014_Node000011"><a xlink:title=" ">
<path fill="none" stroke="#63b8ff" d="M418.35,-56.34C418.35,-49.72 418.35,-40.72 418.35,-32.52"/>
<polygon fill="#63b8ff" stroke="#63b8ff" points="421.85,-32.59 418.35,-22.59 414.85,-32.59 421.85,-32.59"/>
</a>
</g>
</g>
<!-- Node15&#45;&gt;Node3 -->
<g id="edge23_Node000015_Node000003" class="edge">
<title>Node15&#45;&gt;Node3</title>
<g id="a_edge23_Node000015_Node000003"><a xlink:title=" ">
<path fill="none" stroke="#63b8ff" d="M595.77,-248.64C657.48,-246.91 800.57,-239.1 830.35,-203.75 839.94,-192.36 838,-183.02 830.35,-170.25 802.67,-124.03 643.79,-89.61 566.53,-75.35"/>
<polygon fill="#63b8ff" stroke="#63b8ff" points="567.26,-71.93 556.79,-73.58 566.01,-78.81 567.26,-71.93"/>
</a>
</g>
</g>
<!-- Node15&#45;&gt;Node7 -->
<g id="edge34_Node000015_Node000007" class="edge">
<title>Node15&#45;&gt;Node7</title>
<g id="a_edge34_Node000015_Node000007"><a xlink:title=" ">
<path fill="none" stroke="#63b8ff" d="M567.35,-239.3C567.35,-231.15 567.35,-219.26 567.35,-208.98"/>
<polygon fill="#63b8ff" stroke="#63b8ff" points="570.85,-209.11 567.35,-199.11 563.85,-209.11 570.85,-209.11"/>
</a>
</g>
</g>
<!-- Node15&#45;&gt;Node8 -->
<g id="edge24_Node000015_Node000008" class="edge">
<title>Node15&#45;&gt;Node8</title>
<g id="a_edge24_Node000015_Node000008"><a xlink:title=" ">
<path fill="none" stroke="#63b8ff" d="M595.16,-239.3C611.86,-232.01 632.17,-220.41 644.35,-203.75 656.64,-186.94 660.73,-163.16 662,-146.11"/>
<polygon fill="#63b8ff" stroke="#63b8ff" points="665.49,-146.27 662.44,-136.12 658.5,-145.96 665.49,-146.27"/>
</a>
</g>
</g>
<!-- Node15&#45;&gt;Node13 -->
<g id="edge29_Node000015_Node000013" class="edge">
<title>Node15&#45;&gt;Node13</title>
<g id="a_edge29_Node000015_Node000013"><a xlink:title=" ">
<path fill="none" stroke="#63b8ff" d="M546.46,-239.3C525.42,-229.41 492.71,-214.03 468.59,-202.69"/>
<polygon fill="#63b8ff" stroke="#63b8ff" points="470.09,-199.53 459.55,-198.44 467.11,-205.86 470.09,-199.53"/>
</a>
</g>
</g>
<!-- Node15&#45;&gt;Node16 -->
<g id="edge25_Node000015_Node000016" class="edge">
<title>Node15&#45;&gt;Node16</title>
<g id="a_edge25_Node000015_Node000016"><a xlink:title=" ">
<path fill="none" stroke="#63b8ff" d="M538.64,-245.48C459.7,-235.47 238.55,-207.43 137.23,-194.58"/>
<polygon fill="#63b8ff" stroke="#63b8ff" points="137.93,-191.14 127.56,-193.35 137.05,-198.08 137.93,-191.14"/>
</a>
</g>
</g>
<!-- Node17 -->
<g id="Node000017" class="node">
<title>Node17</title>
<g id="a_Node000017"><a xlink:href="packet__buf_8h.html" target="_top" xlink:title=" ">
<polygon fill="white" stroke="#666666" points="821.35,-203.75 691.35,-203.75 691.35,-170.25 821.35,-170.25 821.35,-203.75"/>
<text text-anchor="start" x="699.35" y="-190.25" font-family="Helvetica,sans-Serif" font-size="10.00">vlcb/net/storage/packet</text>
<text text-anchor="middle" x="756.35" y="-177.5" font-family="Helvetica,sans-Serif" font-size="10.00">_buf.h</text>
</a>
</g>
</g>
<!-- Node15&#45;&gt;Node17 -->
<g id="edge30_Node000015_Node000017" class="edge">
<title>Node15&#45;&gt;Node17</title>
<g id="a_edge30_Node000015_Node000017"><a xlink:title=" ">
<path fill="none" stroke="#63b8ff" d="M596.05,-239.84C622.42,-231.31 662.36,-218.4 695.78,-207.59"/>
<polygon fill="#63b8ff" stroke="#63b8ff" points="696.49,-211.04 704.93,-204.63 694.34,-204.38 696.49,-211.04"/>
</a>
</g>
</g>
<!-- Node16&#45;&gt;Node5 -->
<g id="edge26_Node000016_Node000005" class="edge">
<title>Node16&#45;&gt;Node5</title>
<g id="a_edge26_Node000016_Node000005"><a xlink:title=" ">
<path fill="none" stroke="#63b8ff" d="M59.52,-176.23C29.15,-163.29 -14.74,-139.08 5.35,-113.5 22.69,-91.42 98.16,-78.72 147.47,-72.64"/>
<polygon fill="#63b8ff" stroke="#63b8ff" points="147.76,-76.13 157.28,-71.48 146.94,-69.17 147.76,-76.13"/>
</a>
</g>
</g>
<!-- Node16&#45;&gt;Node6 -->
<g id="edge28_Node000016_Node000006" class="edge">
<title>Node16&#45;&gt;Node6</title>
<g id="a_edge28_Node000016_Node000006"><a xlink:title=" ">
<path fill="none" stroke="#63b8ff" d="M88.56,-176.18C91.29,-167.84 95.29,-155.61 98.71,-145.18"/>
<polygon fill="#63b8ff" stroke="#63b8ff" points="101.95,-146.5 101.74,-135.91 95.3,-144.32 101.95,-146.5"/>
</a>
</g>
</g>
<!-- Node16&#45;&gt;Node12 -->
<g id="edge27_Node000016_Node000012" class="edge">
<title>Node16&#45;&gt;Node12</title>
<g id="a_edge27_Node000016_Node000012"><a xlink:title=" ">
<path fill="none" stroke="#63b8ff" d="M71.14,-176.35C51.67,-161.97 20.99,-134.38 38.35,-113.5 66.38,-79.79 189.39,-86.28 232.35,-77.5 232.59,-77.45 232.82,-77.4 233.06,-77.35"/>
<polygon fill="#63b8ff" stroke="#63b8ff" points="233.56,-80.83 242.61,-75.33 232.1,-73.98 233.56,-80.83"/>
</a>
</g>
</g>
<!-- Node17&#45;&gt;Node3 -->
<g id="edge31_Node000017_Node000003" class="edge">
<title>Node17&#45;&gt;Node3</title>
<g id="a_edge31_Node000017_Node000003"><a xlink:title=" ">
<path fill="none" stroke="#63b8ff" d="M747.89,-169.9C738.33,-153.27 721.19,-127.78 699.35,-113.5 658.88,-87.04 603.74,-75.99 566.24,-71.39"/>
<polygon fill="#63b8ff" stroke="#63b8ff" points="567.04,-67.96 556.71,-70.33 566.26,-74.92 567.04,-67.96"/>
</a>
</g>
</g>
<!-- Node17&#45;&gt;Node8 -->
<g id="edge32_Node000017_Node000008" class="edge">
<title>Node17&#45;&gt;Node8</title>
<g id="a_edge32_Node000017_Node000008"><a xlink:title=" ">
<path fill="none" stroke="#63b8ff" d="M731.65,-169.94C717.82,-160.95 700.63,-149.77 686.83,-140.8"/>
<polygon fill="#63b8ff" stroke="#63b8ff" points="689.04,-138.06 678.75,-135.54 685.23,-143.93 689.04,-138.06"/>
</a>
</g>
</g>
<!-- Node17&#45;&gt;Node11 -->
<g id="edge33_Node000017_Node000011" class="edge">
<title>Node17&#45;&gt;Node11</title>
<g id="a_edge33_Node000017_Node000011"><a xlink:title=" ">
<path fill="none" stroke="#63b8ff" d="M752.98,-169.81C748.83,-153.59 740.29,-128.88 724.35,-113.5 648.85,-40.64 519.98,-19.73 456.28,-13.75"/>
<polygon fill="#63b8ff" stroke="#63b8ff" points="456.95,-10.29 446.68,-12.93 456.35,-17.27 456.95,-10.29"/>
</a>
</g>
</g>
</g>
</svg>
