<?xml version="1.0" encoding="UTF-8" standalone="no"?>
<!DOCTYPE svg PUBLIC "-//W3C//DTD SVG 1.1//EN"
 "http://www.w3.org/Graphics/SVG/1.1/DTD/svg11.dtd">
<!-- Generated by graphviz version 12.1.2 (20240928.0832)
 -->
<!-- Title: vlcb_net_iface_Poll Pages: 1 -->
<svg width="1094pt" height="492pt"
 viewBox="0.00 0.00 1093.50 491.75" xmlns="http://www.w3.org/2000/svg" xmlns:xlink="http://www.w3.org/1999/xlink">
<g id="graph0" class="graph" transform="scale(1 1) rotate(0) translate(4 487.75)">
<title>vlcb_net_iface_Poll</title>
<!-- Node1 -->
<g id="Node000001" class="node">
<title>Node1</title>
<g id="a_Node000001"><a xlink:title=" ">
<polygon fill="#999999" stroke="#666666" points="109.75,-329.75 0,-329.75 0,-309 109.75,-309 109.75,-329.75"/>
<text text-anchor="middle" x="54.88" y="-316.25" font-family="Helvetica,sans-Serif" font-size="10.00">vlcb_net_iface_Poll</text>
</a>
</g>
</g>
<!-- Node2 -->
<g id="Node000002" class="node">
<title>Node2</title>
<g id="a_Node000002"><a xlink:href="iface_8c.html#ab1c3b4ca7e0b59ee8d189751e2fe5d7e" target="_top" xlink:title=" ">
<polygon fill="white" stroke="#666666" points="523.75,-348.75 438.75,-348.75 438.75,-328 523.75,-328 523.75,-348.75"/>
<text text-anchor="middle" x="481.25" y="-335.25" font-family="Helvetica,sans-Serif" font-size="10.00">EgressPackets</text>
</a>
</g>
</g>
<!-- Node1&#45;&gt;Node2 -->
<g id="edge1_Node000001_Node000002" class="edge">
<title>Node1&#45;&gt;Node2</title>
<g id="a_edge1_Node000001_Node000002"><a xlink:title=" ">
<path fill="none" stroke="#63b8ff" d="M110.05,-321.8C191.84,-325.46 345.87,-332.36 427.06,-335.99"/>
<polygon fill="#63b8ff" stroke="#63b8ff" points="426.84,-339.49 436.98,-336.44 427.15,-332.49 426.84,-339.49"/>
</a>
</g>
</g>
<!-- Node13 -->
<g id="Node000013" class="node">
<title>Node13</title>
<g id="a_Node000013"><a xlink:href="iface_8c.html#aa4be352a2d0263581236f93031a0d76b" target="_top" xlink:title=" ">
<polygon fill="white" stroke="#666666" points="233.75,-310.75 145.75,-310.75 145.75,-290 233.75,-290 233.75,-310.75"/>
<text text-anchor="middle" x="189.75" y="-297.25" font-family="Helvetica,sans-Serif" font-size="10.00">IngressPackets</text>
</a>
</g>
</g>
<!-- Node1&#45;&gt;Node13 -->
<g id="edge13_Node000001_Node000013" class="edge">
<title>Node1&#45;&gt;Node13</title>
<g id="a_edge13_Node000001_Node000013"><a xlink:title=" ">
<path fill="none" stroke="#63b8ff" d="M109.92,-311.65C117.93,-310.5 126.19,-309.32 134.21,-308.17"/>
<polygon fill="#63b8ff" stroke="#63b8ff" points="134.43,-311.68 143.84,-306.8 133.44,-304.75 134.43,-311.68"/>
</a>
</g>
</g>
<!-- Node3 -->
<g id="Node000003" class="node">
<title>Node3</title>
<g id="a_Node000003"><a xlink:href="socket_2datagram_8c.html#a29815c6431ed6e303052217a8ecca9cc" target="_top" xlink:title=" ">
<polygon fill="white" stroke="#666666" points="711.88,-444.75 621.62,-444.75 621.62,-424 711.88,-424 711.88,-444.75"/>
<text text-anchor="middle" x="666.75" y="-431.25" font-family="Helvetica,sans-Serif" font-size="10.00">DispatchPacket</text>
</a>
</g>
</g>
<!-- Node2&#45;&gt;Node3 -->
<g id="edge2_Node000002_Node000003" class="edge">
<title>Node2&#45;&gt;Node3</title>
<g id="a_edge2_Node000002_Node000003"><a xlink:title=" ">
<path fill="none" stroke="#63b8ff" d="M494.14,-349.09C512.94,-365.49 551.28,-396.76 589,-414.38 595.71,-417.51 602.99,-420.21 610.3,-422.52"/>
<polygon fill="#63b8ff" stroke="#63b8ff" points="609.32,-425.88 619.9,-425.31 611.28,-419.16 609.32,-425.88"/>
</a>
</g>
</g>
<!-- Node7 -->
<g id="Node000007" class="node">
<title>Node7</title>
<g id="a_Node000007"><a xlink:href="iface__vlcb_8c.html#a0d6563489a49082e53653774882bd0c9" target="_top" xlink:title=" ">
<polygon fill="white" stroke="#666666" points="722.38,-405.75 611.12,-405.75 611.12,-385 722.38,-385 722.38,-405.75"/>
<text text-anchor="middle" x="666.75" y="-392.25" font-family="Helvetica,sans-Serif" font-size="10.00">DispatchVlcbPacket</text>
</a>
</g>
</g>
<!-- Node2&#45;&gt;Node7 -->
<g id="edge6_Node000002_Node000007" class="edge">
<title>Node2&#45;&gt;Node7</title>
<g id="a_edge6_Node000002_Node000007"><a xlink:title=" ">
<path fill="none" stroke="#63b8ff" d="M517.2,-349.23C546.4,-358.3 588.27,-371.31 620.12,-381.2"/>
<polygon fill="#63b8ff" stroke="#63b8ff" points="618.9,-384.49 629.49,-384.11 620.98,-377.8 618.9,-384.49"/>
</a>
</g>
</g>
<!-- Node9 -->
<g id="Node000009" class="node">
<title>Node9</title>
<g id="a_Node000009"><a xlink:href="adapter_8c.html#a74b46c574ae26bb9f527b6b157cb644e" target="_top" xlink:title=" ">
<polygon fill="white" stroke="#666666" points="730.25,-329.75 603.25,-329.75 603.25,-309 730.25,-309 730.25,-329.75"/>
<text text-anchor="middle" x="666.75" y="-316.25" font-family="Helvetica,sans-Serif" font-size="10.00">vlcb_net_adpt_ErrToStr</text>
</a>
</g>
</g>
<!-- Node2&#45;&gt;Node9 -->
<g id="edge8_Node000002_Node000009" class="edge">
<title>Node2&#45;&gt;Node9</title>
<g id="a_edge8_Node000002_Node000009"><a xlink:title=" ">
<path fill="none" stroke="#63b8ff" d="M523.89,-334.06C543.97,-331.98 568.68,-329.43 591.81,-327.03"/>
<polygon fill="#63b8ff" stroke="#63b8ff" points="591.92,-330.54 601.51,-326.03 591.2,-323.58 591.92,-330.54"/>
</a>
</g>
</g>
<!-- Node10 -->
<g id="Node000010" class="node">
<title>Node10</title>
<g id="a_Node000010"><a xlink:href="socket_8c.html#a9401eccd14dd3acd44764c5e8a05beaf" target="_top" xlink:title=" ">
<polygon fill="white" stroke="#666666" points="719.38,-239.12 614.12,-239.12 614.12,-205.62 719.38,-205.62 719.38,-239.12"/>
<text text-anchor="start" x="622.12" y="-225.62" font-family="Helvetica,sans-Serif" font-size="10.00">vlcb_net_sock_list</text>
<text text-anchor="middle" x="666.75" y="-212.88" font-family="Helvetica,sans-Serif" font-size="10.00">_GetIterator</text>
</a>
</g>
</g>
<!-- Node2&#45;&gt;Node10 -->
<g id="edge9_Node000002_Node000010" class="edge">
<title>Node2&#45;&gt;Node10</title>
<g id="a_edge9_Node000002_Node000010"><a xlink:title=" ">
<path fill="none" stroke="#63b8ff" d="M492.16,-327.73C509.93,-309.21 549.09,-270.88 589,-248.38 593.58,-245.79 598.47,-243.4 603.46,-241.22"/>
<polygon fill="#63b8ff" stroke="#63b8ff" points="604.48,-244.58 612.42,-237.57 601.84,-238.1 604.48,-244.58"/>
</a>
</g>
</g>
<!-- Node11 -->
<g id="Node000011" class="node">
<title>Node11</title>
<g id="a_Node000011"><a xlink:href="socket_8c.html#a176c72971ceb14a338d824d7a3bb0fac" target="_top" xlink:title=" ">
<polygon fill="white" stroke="#666666" points="912.38,-291.12 807.12,-291.12 807.12,-257.62 912.38,-257.62 912.38,-291.12"/>
<text text-anchor="start" x="815.12" y="-277.62" font-family="Helvetica,sans-Serif" font-size="10.00">vlcb_net_sock_list</text>
<text text-anchor="middle" x="859.75" y="-264.88" font-family="Helvetica,sans-Serif" font-size="10.00">_iter_HasNext</text>
</a>
</g>
</g>
<!-- Node2&#45;&gt;Node11 -->
<g id="edge10_Node000002_Node000011" class="edge">
<title>Node2&#45;&gt;Node11</title>
<g id="a_edge10_Node000002_Node000011"><a xlink:title=" ">
<path fill="none" stroke="#63b8ff" d="M523.95,-344.76C576.39,-351.35 668.73,-358.15 744.5,-338.38 774.64,-330.51 805.25,-312.73 827.18,-297.9"/>
<polygon fill="#63b8ff" stroke="#63b8ff" points="829.16,-300.79 835.38,-292.21 825.17,-295.04 829.16,-300.79"/>
</a>
</g>
</g>
<!-- Node12 -->
<g id="Node000012" class="node">
<title>Node12</title>
<g id="a_Node000012"><a xlink:href="socket_8c.html#a81bef9c5afd9ccbb9d0a52b2ae1da9b2" target="_top" xlink:title=" ">
<polygon fill="white" stroke="#666666" points="719.38,-291.12 614.12,-291.12 614.12,-257.62 719.38,-257.62 719.38,-291.12"/>
<text text-anchor="start" x="622.12" y="-277.62" font-family="Helvetica,sans-Serif" font-size="10.00">vlcb_net_sock_list</text>
<text text-anchor="middle" x="666.75" y="-264.88" font-family="Helvetica,sans-Serif" font-size="10.00">_iter_Next</text>
</a>
</g>
</g>
<!-- Node2&#45;&gt;Node12 -->
<g id="edge11_Node000002_Node000012" class="edge">
<title>Node2&#45;&gt;Node12</title>
<g id="a_edge11_Node000002_Node000012"><a xlink:title=" ">
<path fill="none" stroke="#63b8ff" d="M512.12,-327.61C533.5,-319.93 562.98,-309.41 589,-300.38 593.76,-298.72 598.7,-297.02 603.66,-295.32"/>
<polygon fill="#63b8ff" stroke="#63b8ff" points="604.76,-298.64 613.09,-292.1 602.49,-292.02 604.76,-298.64"/>
</a>
</g>
</g>
<!-- Node4 -->
<g id="Node000004" class="node">
<title>Node4</title>
<g id="a_Node000004"><a xlink:href="packet__buf_8c.html#a2ea3a27beac9f24f9dc6acdbfb28906c" target="_top" xlink:title=" ">
<polygon fill="white" stroke="#666666" points="926.62,-444.75 792.88,-444.75 792.88,-424 926.62,-424 926.62,-444.75"/>
<text text-anchor="middle" x="859.75" y="-431.25" font-family="Helvetica,sans-Serif" font-size="10.00">vlcb_net_packetbuf_Pop</text>
</a>
</g>
</g>
<!-- Node3&#45;&gt;Node4 -->
<g id="edge3_Node000003_Node000004" class="edge">
<title>Node3&#45;&gt;Node4</title>
<g id="a_edge3_Node000003_Node000004"><a xlink:title=" ">
<path fill="none" stroke="#63b8ff" d="M712.05,-434.38C732.6,-434.38 757.64,-434.38 781.18,-434.38"/>
<polygon fill="#63b8ff" stroke="#63b8ff" points="781.07,-437.88 791.07,-434.38 781.07,-430.88 781.07,-437.88"/>
</a>
</g>
</g>
<!-- Node6 -->
<g id="Node000006" class="node">
<title>Node6</title>
<g id="a_Node000006"><a xlink:href="vlcb_8c.html#a6f58b6fc33b3f723dd7254df2648a6e1" target="_top" xlink:title=" ">
<polygon fill="white" stroke="#666666" points="939,-483.75 780.5,-483.75 780.5,-463 939,-463 939,-483.75"/>
<text text-anchor="middle" x="859.75" y="-470.25" font-family="Helvetica,sans-Serif" font-size="10.00">vlcb_net_pkt_NewUnchecked</text>
</a>
</g>
</g>
<!-- Node3&#45;&gt;Node6 -->
<g id="edge5_Node000003_Node000006" class="edge">
<title>Node3&#45;&gt;Node6</title>
<g id="a_edge5_Node000003_Node000006"><a xlink:title=" ">
<path fill="none" stroke="#63b8ff" d="M712.05,-443.42C736.55,-448.42 767.44,-454.73 794.55,-460.27"/>
<polygon fill="#63b8ff" stroke="#63b8ff" points="793.53,-463.63 804.03,-462.2 794.93,-456.77 793.53,-463.63"/>
</a>
</g>
</g>
<!-- Node5 -->
<g id="Node000005" class="node">
<title>Node5</title>
<g id="a_Node000005"><a xlink:href="packet__buf_8c.html#a3901c362d723ea046af64e2b96ad24b6" target="_top" xlink:title=" ">
<polygon fill="white" stroke="#666666" points="1085.5,-451.12 975,-451.12 975,-417.62 1085.5,-417.62 1085.5,-451.12"/>
<text text-anchor="start" x="983" y="-437.62" font-family="Helvetica,sans-Serif" font-size="10.00">vlcb_net_packetbuf</text>
<text text-anchor="middle" x="1030.25" y="-424.88" font-family="Helvetica,sans-Serif" font-size="10.00">_IsEmpty</text>
</a>
</g>
</g>
<!-- Node4&#45;&gt;Node5 -->
<g id="edge4_Node000004_Node000005" class="edge">
<title>Node4&#45;&gt;Node5</title>
<g id="a_edge4_Node000004_Node000005"><a xlink:title=" ">
<path fill="none" stroke="#63b8ff" d="M926.86,-434.38C938.88,-434.38 951.41,-434.38 963.42,-434.38"/>
<polygon fill="#63b8ff" stroke="#63b8ff" points="963.23,-437.88 973.23,-434.38 963.23,-430.88 963.23,-437.88"/>
</a>
</g>
</g>
<!-- Node8 -->
<g id="Node000008" class="node">
<title>Node8</title>
<g id="a_Node000008"><a xlink:href="iface__can_8c.html#a76a59452e911a2f524037904fd59f0bf" target="_top" xlink:title=" ">
<polygon fill="white" stroke="#666666" points="914.25,-405.75 805.25,-405.75 805.25,-385 914.25,-385 914.25,-405.75"/>
<text text-anchor="middle" x="859.75" y="-392.25" font-family="Helvetica,sans-Serif" font-size="10.00">DispatchCanPacket</text>
</a>
</g>
</g>
<!-- Node7&#45;&gt;Node8 -->
<g id="edge7_Node000007_Node000008" class="edge">
<title>Node7&#45;&gt;Node8</title>
<g id="a_edge7_Node000007_Node000008"><a xlink:title=" ">
<path fill="none" stroke="#63b8ff" d="M722.74,-395.38C744.8,-395.38 770.4,-395.38 793.4,-395.38"/>
<polygon fill="#63b8ff" stroke="#63b8ff" points="793.29,-398.88 803.29,-395.38 793.29,-391.88 793.29,-398.88"/>
</a>
</g>
</g>
<!-- Node12&#45;&gt;Node11 -->
<g id="edge12_Node000012_Node000011" class="edge">
<title>Node12&#45;&gt;Node11</title>
<g id="a_edge12_Node000012_Node000011"><a xlink:title=" ">
<path fill="none" stroke="#63b8ff" d="M719.69,-274.38C743.05,-274.38 770.84,-274.38 795.42,-274.38"/>
<polygon fill="#63b8ff" stroke="#63b8ff" points="795.31,-277.88 805.31,-274.38 795.31,-270.88 795.31,-277.88"/>
</a>
</g>
</g>
<!-- Node13&#45;&gt;Node9 -->
<g id="edge27_Node000013_Node000009" class="edge">
<title>Node13&#45;&gt;Node9</title>
<g id="a_edge27_Node000013_Node000009"><a xlink:title=" ">
<path fill="none" stroke="#63b8ff" d="M234.16,-302.11C315.43,-305.36 491.34,-312.4 591.68,-316.41"/>
<polygon fill="#63b8ff" stroke="#63b8ff" points="591.29,-319.9 601.42,-316.8 591.57,-312.9 591.29,-319.9"/>
</a>
</g>
</g>
<!-- Node14 -->
<g id="Node000014" class="node">
<title>Node14</title>
<g id="a_Node000014"><a xlink:href="iface__can_8c.html#a8aa9c1f4ce14446285c7f5b9240f83d9" target="_top" xlink:title=" ">
<polygon fill="white" stroke="#666666" points="373.5,-146.75 269.75,-146.75 269.75,-126 373.5,-126 373.5,-146.75"/>
<text text-anchor="middle" x="321.62" y="-133.25" font-family="Helvetica,sans-Serif" font-size="10.00">ProcessCanPacket</text>
</a>
</g>
</g>
<!-- Node13&#45;&gt;Node14 -->
<g id="edge14_Node000013_Node000014" class="edge">
<title>Node13&#45;&gt;Node14</title>
<g id="a_edge14_Node000013_Node000014"><a xlink:title=" ">
<path fill="none" stroke="#63b8ff" d="M199.27,-289.61C220.83,-262.39 277.79,-190.46 305.31,-155.71"/>
<polygon fill="#63b8ff" stroke="#63b8ff" points="307.84,-158.16 311.3,-148.15 302.35,-153.82 307.84,-158.16"/>
</a>
</g>
</g>
<!-- Node15 -->
<g id="Node000015" class="node">
<title>Node15</title>
<g id="a_Node000015"><a xlink:href="iface__vlcb_8c.html#a772411fa3c2c8faf08e996dcec735dbe" target="_top" xlink:title=" ">
<polygon fill="white" stroke="#666666" points="534.25,-168.75 428.25,-168.75 428.25,-148 534.25,-148 534.25,-168.75"/>
<text text-anchor="middle" x="481.25" y="-155.25" font-family="Helvetica,sans-Serif" font-size="10.00">ProcessVlcbPacket</text>
</a>
</g>
</g>
<!-- Node14&#45;&gt;Node15 -->
<g id="edge15_Node000014_Node000015" class="edge">
<title>Node14&#45;&gt;Node15</title>
<g id="a_edge15_Node000014_Node000015"><a xlink:title=" ">
<path fill="none" stroke="#63b8ff" d="M373.8,-143.52C387.49,-145.43 402.45,-147.52 416.72,-149.51"/>
<polygon fill="#63b8ff" stroke="#63b8ff" points="416.09,-152.95 426.48,-150.87 417.06,-146.02 416.09,-152.95"/>
</a>
</g>
</g>
<!-- Node22 -->
<g id="Node000022" class="node">
<title>Node22</title>
<g id="a_Node000022"><a xlink:href="vlcb_8c.html#a4e4a44bda5ebfb3ee1340066623890ad" target="_top" xlink:title=" ">
<polygon fill="white" stroke="#666666" points="553,-130.12 409.5,-130.12 409.5,-96.62 553,-96.62 553,-130.12"/>
<text text-anchor="start" x="417.5" y="-116.62" font-family="Helvetica,sans-Serif" font-size="10.00">vlcb_net_pkt_ConstructErr</text>
<text text-anchor="middle" x="481.25" y="-103.88" font-family="Helvetica,sans-Serif" font-size="10.00">ToStr</text>
</a>
</g>
</g>
<!-- Node14&#45;&gt;Node22 -->
<g id="edge25_Node000014_Node000022" class="edge">
<title>Node14&#45;&gt;Node22</title>
<g id="a_edge25_Node000014_Node000022"><a xlink:title=" ">
<path fill="none" stroke="#63b8ff" d="M373.8,-128.91C381.59,-127.77 389.79,-126.57 398.04,-125.37"/>
<polygon fill="#63b8ff" stroke="#63b8ff" points="398.39,-128.86 407.78,-123.95 397.38,-121.93 398.39,-128.86"/>
</a>
</g>
</g>
<!-- Node23 -->
<g id="Node000023" class="node">
<title>Node23</title>
<g id="a_Node000023"><a xlink:href="vlcb_8c.html#a4f542a7ed4e87e0e5597469e99484180" target="_top" xlink:title=" ">
<polygon fill="white" stroke="#666666" points="533.88,-78.75 428.62,-78.75 428.62,-58 533.88,-58 533.88,-78.75"/>
<text text-anchor="middle" x="481.25" y="-65.25" font-family="Helvetica,sans-Serif" font-size="10.00">vlcb_net_pkt_New</text>
</a>
</g>
</g>
<!-- Node14&#45;&gt;Node23 -->
<g id="edge26_Node000014_Node000023" class="edge">
<title>Node14&#45;&gt;Node23</title>
<g id="a_edge26_Node000014_Node000023"><a xlink:title=" ">
<path fill="none" stroke="#63b8ff" d="M338.66,-125.7C355.64,-114.79 383.53,-97.99 409.5,-87.38 413.62,-85.69 417.94,-84.11 422.32,-82.64"/>
<polygon fill="#63b8ff" stroke="#63b8ff" points="423.33,-85.99 431.83,-79.66 421.24,-79.31 423.33,-85.99"/>
</a>
</g>
</g>
<!-- Node15&#45;&gt;Node10 -->
<g id="edge21_Node000015_Node000010" class="edge">
<title>Node15&#45;&gt;Node10</title>
<g id="a_edge21_Node000015_Node000010"><a xlink:title=" ">
<path fill="none" stroke="#63b8ff" d="M513.38,-169.23C538.62,-178.04 574.95,-190.71 605.8,-201.47"/>
<polygon fill="#63b8ff" stroke="#63b8ff" points="604.44,-204.7 615.03,-204.69 606.74,-198.09 604.44,-204.7"/>
</a>
</g>
</g>
<!-- Node15&#45;&gt;Node11 -->
<g id="edge22_Node000015_Node000011" class="edge">
<title>Node15&#45;&gt;Node11</title>
<g id="a_edge22_Node000015_Node000011"><a xlink:title=" ">
<path fill="none" stroke="#63b8ff" d="M534.52,-159.05C588.75,-161.32 675.16,-169.36 744.5,-196.38 776.81,-208.96 809.01,-232.16 830.96,-250"/>
<polygon fill="#63b8ff" stroke="#63b8ff" points="828.61,-252.6 838.54,-256.3 833.08,-247.22 828.61,-252.6"/>
</a>
</g>
</g>
<!-- Node15&#45;&gt;Node12 -->
<g id="edge23_Node000015_Node000012" class="edge">
<title>Node15&#45;&gt;Node12</title>
<g id="a_edge23_Node000015_Node000012"><a xlink:title=" ">
<path fill="none" stroke="#63b8ff" d="M492.16,-169.02C509.93,-187.54 549.09,-225.87 589,-248.38 593.58,-250.96 598.47,-253.35 603.46,-255.53"/>
<polygon fill="#63b8ff" stroke="#63b8ff" points="601.84,-258.65 612.42,-259.18 604.48,-252.17 601.84,-258.65"/>
</a>
</g>
</g>
<!-- Node16 -->
<g id="Node000016" class="node">
<title>Node16</title>
<g id="a_Node000016"><a xlink:href="socket_2datagram_8c.html#a61c95cabe20ca7a61ea528e4c70f1245" target="_top" xlink:title=" ">
<polygon fill="white" stroke="#666666" points="709.25,-59.75 624.25,-59.75 624.25,-39 709.25,-39 709.25,-59.75"/>
<text text-anchor="middle" x="666.75" y="-46.25" font-family="Helvetica,sans-Serif" font-size="10.00">ProcessPacket</text>
</a>
</g>
</g>
<!-- Node15&#45;&gt;Node16 -->
<g id="edge16_Node000015_Node000016" class="edge">
<title>Node15&#45;&gt;Node16</title>
<g id="a_edge16_Node000015_Node000016"><a xlink:title=" ">
<path fill="none" stroke="#63b8ff" d="M534.56,-149.78C541.21,-147.18 547.57,-143.78 553,-139.38 580.47,-117.07 561.31,-90.4 589,-68.38 595.95,-62.85 604.29,-58.9 612.87,-56.09"/>
<polygon fill="#63b8ff" stroke="#63b8ff" points="613.6,-59.51 622.32,-53.5 611.75,-52.76 613.6,-59.51"/>
</a>
</g>
</g>
<!-- Node19 -->
<g id="Node000019" class="node">
<title>Node19</title>
<g id="a_Node000019"><a xlink:href="socket_2datagram_8c.html#a97bab8fe9b6021439207f5bf70a2f2a3" target="_top" xlink:title=" ">
<polygon fill="white" stroke="#666666" points="716,-20.75 617.5,-20.75 617.5,0 716,0 716,-20.75"/>
<text text-anchor="middle" x="666.75" y="-7.25" font-family="Helvetica,sans-Serif" font-size="10.00">SupportsProtocol</text>
</a>
</g>
</g>
<!-- Node15&#45;&gt;Node19 -->
<g id="edge19_Node000015_Node000019" class="edge">
<title>Node15&#45;&gt;Node19</title>
<g id="a_edge19_Node000015_Node000019"><a xlink:title=" ">
<path fill="none" stroke="#63b8ff" d="M534.49,-150.81C541.3,-148.06 547.73,-144.35 553,-139.38 590.08,-104.34 551.79,-65.28 589,-30.38 594.14,-25.55 600.29,-21.86 606.85,-19.04"/>
<polygon fill="#63b8ff" stroke="#63b8ff" points="607.72,-22.44 615.97,-15.79 605.38,-15.85 607.72,-22.44"/>
</a>
</g>
</g>
<!-- Node20 -->
<g id="Node000020" class="node">
<title>Node20</title>
<g id="a_Node000020"><a xlink:href="vlcb_8c.html#a16634e516c94526e5bc818f75db5558c" target="_top" xlink:title=" ">
<polygon fill="white" stroke="#666666" points="744.5,-149.75 589,-149.75 589,-129 744.5,-129 744.5,-149.75"/>
<text text-anchor="middle" x="666.75" y="-136.25" font-family="Helvetica,sans-Serif" font-size="10.00">vlcb_net_pkt_DetectProtocol</text>
</a>
</g>
</g>
<!-- Node15&#45;&gt;Node20 -->
<g id="edge20_Node000015_Node000020" class="edge">
<title>Node15&#45;&gt;Node20</title>
<g id="a_edge20_Node000015_Node000020"><a xlink:title=" ">
<path fill="none" stroke="#63b8ff" d="M534.34,-152.98C547.77,-151.59 562.6,-150.06 577.31,-148.53"/>
<polygon fill="#63b8ff" stroke="#63b8ff" points="577.42,-152.04 587.01,-147.53 576.7,-145.08 577.42,-152.04"/>
</a>
</g>
</g>
<!-- Node21 -->
<g id="Node000021" class="node">
<title>Node21</title>
<g id="a_Node000021"><a xlink:href="socket_8c.html#a8e1f8d2c6242378d1d4eda56527a4a26" target="_top" xlink:title=" ">
<polygon fill="white" stroke="#666666" points="737.38,-111.12 596.12,-111.12 596.12,-77.62 737.38,-77.62 737.38,-111.12"/>
<text text-anchor="start" x="604.12" y="-97.62" font-family="Helvetica,sans-Serif" font-size="10.00">vlcb_net_sock_ProcessErr</text>
<text text-anchor="middle" x="666.75" y="-84.88" font-family="Helvetica,sans-Serif" font-size="10.00">ToStr</text>
</a>
</g>
</g>
<!-- Node15&#45;&gt;Node21 -->
<g id="edge24_Node000015_Node000021" class="edge">
<title>Node15&#45;&gt;Node21</title>
<g id="a_edge24_Node000015_Node000021"><a xlink:title=" ">
<path fill="none" stroke="#63b8ff" d="M528.4,-147.58C536.7,-145.19 545.19,-142.44 553,-139.38 569.84,-132.77 572.38,-127.52 589,-120.38 592.96,-118.67 597.07,-117.01 601.24,-115.39"/>
<polygon fill="#63b8ff" stroke="#63b8ff" points="602.11,-118.8 610.25,-112.02 599.65,-112.25 602.11,-118.8"/>
</a>
</g>
</g>
<!-- Node17 -->
<g id="Node000017" class="node">
<title>Node17</title>
<g id="a_Node000017"><a xlink:href="packet__buf_8c.html#afa80d4fb078473100610ba106bd5cb46" target="_top" xlink:title=" ">
<polygon fill="white" stroke="#666666" points="929.25,-78.75 790.25,-78.75 790.25,-58 929.25,-58 929.25,-78.75"/>
<text text-anchor="middle" x="859.75" y="-65.25" font-family="Helvetica,sans-Serif" font-size="10.00">vlcb_net_packetbuf_Push</text>
</a>
</g>
</g>
<!-- Node16&#45;&gt;Node17 -->
<g id="edge17_Node000016_Node000017" class="edge">
<title>Node16&#45;&gt;Node17</title>
<g id="a_edge17_Node000016_Node000017"><a xlink:title=" ">
<path fill="none" stroke="#63b8ff" d="M709.67,-53.54C729.95,-55.56 755.01,-58.06 778.75,-60.42"/>
<polygon fill="#63b8ff" stroke="#63b8ff" points="778.11,-63.87 788.4,-61.38 778.8,-56.9 778.11,-63.87"/>
</a>
</g>
</g>
<!-- Node18 -->
<g id="Node000018" class="node">
<title>Node18</title>
<g id="a_Node000018"><a xlink:href="packet_2datagram_8c.html#a965c07c3bd42101143dfbec7857547c2" target="_top" xlink:title=" ">
<polygon fill="white" stroke="#666666" points="930.75,-39.75 788.75,-39.75 788.75,-19 930.75,-19 930.75,-39.75"/>
<text text-anchor="middle" x="859.75" y="-26.25" font-family="Helvetica,sans-Serif" font-size="10.00">vlcb_net_pkt_dgram_New</text>
</a>
</g>
</g>
<!-- Node16&#45;&gt;Node18 -->
<g id="edge18_Node000016_Node000018" class="edge">
<title>Node16&#45;&gt;Node18</title>
<g id="a_edge18_Node000016_Node000018"><a xlink:title=" ">
<path fill="none" stroke="#63b8ff" d="M709.67,-44.99C729.48,-42.91 753.85,-40.36 777.1,-37.92"/>
<polygon fill="#63b8ff" stroke="#63b8ff" points="777.32,-41.42 786.9,-36.9 776.59,-34.46 777.32,-41.42"/>
</a>
</g>
</g>
</g>
</svg>
