<?xml version="1.0" encoding="UTF-8" standalone="no"?>
<!DOCTYPE svg PUBLIC "-//W3C//DTD SVG 1.1//EN"
 "http://www.w3.org/Graphics/SVG/1.1/DTD/svg11.dtd">
<!-- Generated by graphviz version 12.1.2 (20240928.0832)
 -->
<!-- Title: iface_can.c Pages: 1 -->
<svg width="852pt" height="426pt"
 viewBox="0.00 0.00 852.49 426.00" xmlns="http://www.w3.org/2000/svg" xmlns:xlink="http://www.w3.org/1999/xlink">
<g id="graph0" class="graph" transform="scale(1 1) rotate(0) translate(4 422)">
<title>iface_can.c</title>
<!-- Node1 -->
<g id="Node000001" class="node">
<title>Node1</title>
<g id="a_Node000001"><a xlink:title=" ">
<polygon fill="#999999" stroke="#666666" points="465.99,-418 395.24,-418 395.24,-397.25 465.99,-397.25 465.99,-418"/>
<text text-anchor="middle" x="430.62" y="-404.5" font-family="Helvetica,sans-Serif" font-size="10.00">iface_can.c</text>
</a>
</g>
</g>
<!-- Node2 -->
<g id="Node000002" class="node">
<title>Node2</title>
<g id="a_Node000002"><a xlink:title=" ">
<polygon fill="#e0e0e0" stroke="#999999" points="356.12,-77.5 295.12,-77.5 295.12,-56.75 356.12,-56.75 356.12,-77.5"/>
<text text-anchor="middle" x="325.62" y="-64" font-family="Helvetica,sans-Serif" font-size="10.00">stdbool.h</text>
</a>
</g>
</g>
<!-- Node1&#45;&gt;Node2 -->
<g id="edge1_Node000001_Node000002" class="edge">
<title>Node1&#45;&gt;Node2</title>
<g id="a_edge1_Node000001_Node000002"><a xlink:title=" ">
<path fill="none" stroke="#63b8ff" d="M394.92,-404.72C316.6,-400.12 132.16,-386.83 75.62,-361.25 35.13,-342.93 0.62,-339.56 0.62,-295.12 0.62,-295.12 0.62,-295.12 0.62,-179.62 0.62,-148.79 -1.85,-133.5 21.62,-113.5 60.27,-80.57 209.47,-71.52 283.48,-69.05"/>
<polygon fill="#63b8ff" stroke="#63b8ff" points="283.29,-72.56 293.18,-68.75 283.07,-65.56 283.29,-72.56"/>
</a>
</g>
</g>
<!-- Node3 -->
<g id="Node000003" class="node">
<title>Node3</title>
<g id="a_Node000003"><a xlink:title=" ">
<polygon fill="#e0e0e0" stroke="#999999" points="86.12,-134.25 31.12,-134.25 31.12,-113.5 86.12,-113.5 86.12,-134.25"/>
<text text-anchor="middle" x="58.62" y="-120.75" font-family="Helvetica,sans-Serif" font-size="10.00">stddef.h</text>
</a>
</g>
</g>
<!-- Node1&#45;&gt;Node3 -->
<g id="edge2_Node000001_Node000003" class="edge">
<title>Node1&#45;&gt;Node3</title>
<g id="a_edge2_Node000001_Node000003"><a xlink:title=" ">
<path fill="none" stroke="#63b8ff" d="M394.79,-404.12C298.02,-396.39 38.62,-368.8 38.62,-295.12 38.62,-295.12 38.62,-295.12 38.62,-236.38 38.62,-204.33 46.72,-167.91 52.61,-145.67"/>
<polygon fill="#63b8ff" stroke="#63b8ff" points="55.97,-146.64 55.26,-136.07 49.22,-144.78 55.97,-146.64"/>
</a>
</g>
</g>
<!-- Node4 -->
<g id="Node000004" class="node">
<title>Node4</title>
<g id="a_Node000004"><a xlink:title=" ">
<polygon fill="#e0e0e0" stroke="#999999" points="370.99,-361.25 318.24,-361.25 318.24,-340.5 370.99,-340.5 370.99,-361.25"/>
<text text-anchor="middle" x="344.62" y="-347.75" font-family="Helvetica,sans-Serif" font-size="10.00">string.h</text>
</a>
</g>
</g>
<!-- Node1&#45;&gt;Node4 -->
<g id="edge3_Node000001_Node000004" class="edge">
<title>Node1&#45;&gt;Node4</title>
<g id="a_edge3_Node000001_Node000004"><a xlink:title=" ">
<path fill="none" stroke="#63b8ff" d="M415.24,-396.84C402.52,-388.74 384.21,-377.08 369.42,-367.67"/>
<polygon fill="#63b8ff" stroke="#63b8ff" points="371.45,-364.81 361.14,-362.39 367.69,-370.71 371.45,-364.81"/>
</a>
</g>
</g>
<!-- Node5 -->
<g id="Node000005" class="node">
<title>Node5</title>
<g id="a_Node000005"><a xlink:href="iface__vlcb_8h.html" target="_top" xlink:title=" ">
<polygon fill="white" stroke="#666666" points="500.87,-361.25 426.37,-361.25 426.37,-340.5 500.87,-340.5 500.87,-361.25"/>
<text text-anchor="middle" x="463.62" y="-347.75" font-family="Helvetica,sans-Serif" font-size="10.00">iface_vlcb.h</text>
</a>
</g>
</g>
<!-- Node1&#45;&gt;Node5 -->
<g id="edge4_Node000001_Node000005" class="edge">
<title>Node1&#45;&gt;Node5</title>
<g id="a_edge4_Node000001_Node000005"><a xlink:title=" ">
<path fill="none" stroke="#63b8ff" d="M436.52,-396.84C440.79,-389.75 446.7,-379.94 451.91,-371.29"/>
<polygon fill="#63b8ff" stroke="#63b8ff" points="454.82,-373.25 456.99,-362.87 448.83,-369.63 454.82,-373.25"/>
</a>
</g>
</g>
<!-- Node6 -->
<g id="Node000006" class="node">
<title>Node6</title>
<g id="a_Node000006"><a xlink:href="iface_8h.html" target="_top" xlink:title=" ">
<polygon fill="white" stroke="#666666" points="444.12,-304.5 353.12,-304.5 353.12,-283.75 444.12,-283.75 444.12,-304.5"/>
<text text-anchor="middle" x="398.62" y="-291" font-family="Helvetica,sans-Serif" font-size="10.00">vlcb/net/iface.h</text>
</a>
</g>
</g>
<!-- Node1&#45;&gt;Node6 -->
<g id="edge33_Node000001_Node000006" class="edge">
<title>Node1&#45;&gt;Node6</title>
<g id="a_edge33_Node000001_Node000006"><a xlink:title=" ">
<path fill="none" stroke="#63b8ff" d="M427.89,-397.12C422.74,-379.19 411.5,-340 404.54,-315.76"/>
<polygon fill="#63b8ff" stroke="#63b8ff" points="407.97,-315.03 401.85,-306.38 401.24,-316.96 407.97,-315.03"/>
</a>
</g>
</g>
<!-- Node7 -->
<g id="Node000007" class="node">
<title>Node7</title>
<g id="a_Node000007"><a xlink:href="adapter_8h.html" target="_top" xlink:title=" ">
<polygon fill="white" stroke="#666666" points="462.49,-247.75 400.74,-247.75 400.74,-227 462.49,-227 462.49,-247.75"/>
<text text-anchor="middle" x="431.62" y="-234.25" font-family="Helvetica,sans-Serif" font-size="10.00">adapter.h</text>
</a>
</g>
</g>
<!-- Node1&#45;&gt;Node7 -->
<g id="edge32_Node000001_Node000007" class="edge">
<title>Node1&#45;&gt;Node7</title>
<g id="a_edge32_Node000001_Node000007"><a xlink:title=" ">
<path fill="none" stroke="#63b8ff" d="M462.91,-396.91C480.03,-389.94 499.55,-378.63 509.62,-361.25 532.12,-322.38 485.76,-278.24 455.33,-254.9"/>
<polygon fill="#63b8ff" stroke="#63b8ff" points="457.45,-252.11 447.33,-248.98 453.29,-257.74 457.45,-252.11"/>
</a>
</g>
</g>
<!-- Node17 -->
<g id="Node000017" class="node">
<title>Node17</title>
<g id="a_Node000017"><a xlink:href="vlcb_8h.html" target="_top" xlink:title=" ">
<polygon fill="white" stroke="#666666" points="732.87,-191 652.37,-191 652.37,-170.25 732.87,-170.25 732.87,-191"/>
<text text-anchor="middle" x="692.62" y="-177.5" font-family="Helvetica,sans-Serif" font-size="10.00">packet/vlcb.h</text>
</a>
</g>
</g>
<!-- Node1&#45;&gt;Node17 -->
<g id="edge34_Node000001_Node000017" class="edge">
<title>Node1&#45;&gt;Node17</title>
<g id="a_edge34_Node000001_Node000017"><a xlink:title=" ">
<path fill="none" stroke="#63b8ff" d="M458.22,-396.86C478.29,-389.01 505.51,-376.74 526.62,-361.25 592.36,-313 652.88,-236.06 679.02,-200.62"/>
<polygon fill="#63b8ff" stroke="#63b8ff" points="681.78,-202.78 684.84,-192.63 676.12,-198.66 681.78,-202.78"/>
</a>
</g>
</g>
<!-- Node18 -->
<g id="Node000018" class="node">
<title>Node18</title>
<g id="a_Node000018"><a xlink:href="log_8h.html" target="_top" xlink:title=" ">
<polygon fill="white" stroke="#666666" points="808.74,-304.5 700.49,-304.5 700.49,-283.75 808.74,-283.75 808.74,-304.5"/>
<text text-anchor="middle" x="754.62" y="-291" font-family="Helvetica,sans-Serif" font-size="10.00">vlcb/platform/log.h</text>
</a>
</g>
</g>
<!-- Node1&#45;&gt;Node18 -->
<g id="edge35_Node000001_Node000018" class="edge">
<title>Node1&#45;&gt;Node18</title>
<g id="a_edge35_Node000001_Node000018"><a xlink:title=" ">
<path fill="none" stroke="#63b8ff" d="M466.32,-402.64C509.48,-397.02 583.78,-384.71 643.62,-361.25 676.43,-348.39 710.78,-326.41 732.41,-311.34"/>
<polygon fill="#63b8ff" stroke="#63b8ff" points="734.32,-314.29 740.45,-305.65 730.27,-308.58 734.32,-314.29"/>
</a>
</g>
</g>
<!-- Node5&#45;&gt;Node6 -->
<g id="edge5_Node000005_Node000006" class="edge">
<title>Node5&#45;&gt;Node6</title>
<g id="a_edge5_Node000005_Node000006"><a xlink:title=" ">
<path fill="none" stroke="#63b8ff" d="M452,-340.09C442.75,-332.3 429.6,-321.22 418.67,-312.01"/>
<polygon fill="#63b8ff" stroke="#63b8ff" points="421.2,-309.57 411.3,-305.8 416.69,-314.92 421.2,-309.57"/>
</a>
</g>
</g>
<!-- Node5&#45;&gt;Node17 -->
<g id="edge31_Node000005_Node000017" class="edge">
<title>Node5&#45;&gt;Node17</title>
<g id="a_edge31_Node000005_Node000017"><a xlink:title=" ">
<path fill="none" stroke="#63b8ff" d="M474.61,-340.03C499.06,-318.38 560.12,-265.47 615.62,-227 631.37,-216.08 649.84,-205.14 664.74,-196.73"/>
<polygon fill="#63b8ff" stroke="#63b8ff" points="666.06,-200.01 673.09,-192.09 662.65,-193.89 666.06,-200.01"/>
</a>
</g>
</g>
<!-- Node6&#45;&gt;Node2 -->
<g id="edge6_Node000006_Node000002" class="edge">
<title>Node6&#45;&gt;Node2</title>
<g id="a_edge6_Node000006_Node000002"><a xlink:title=" ">
<path fill="none" stroke="#63b8ff" d="M392.3,-283.25C377.27,-259.06 339.82,-194.4 328.62,-134.25 325.84,-119.34 325.13,-102.22 325.09,-89.14"/>
<polygon fill="#63b8ff" stroke="#63b8ff" points="328.59,-89.19 325.21,-79.15 321.59,-89.11 328.59,-89.19"/>
</a>
</g>
</g>
<!-- Node6&#45;&gt;Node7 -->
<g id="edge7_Node000006_Node000007" class="edge">
<title>Node6&#45;&gt;Node7</title>
<g id="a_edge7_Node000006_Node000007"><a xlink:title=" ">
<path fill="none" stroke="#63b8ff" d="M404.52,-283.34C408.79,-276.25 414.7,-266.44 419.91,-257.79"/>
<polygon fill="#63b8ff" stroke="#63b8ff" points="422.82,-259.75 424.99,-249.37 416.83,-256.13 422.82,-259.75"/>
</a>
</g>
</g>
<!-- Node16 -->
<g id="Node000016" class="node">
<title>Node16</title>
<g id="a_Node000016"><a xlink:href="socket_8h.html" target="_top" xlink:title=" ">
<polygon fill="white" stroke="#666666" points="238.87,-247.75 182.37,-247.75 182.37,-227 238.87,-227 238.87,-247.75"/>
<text text-anchor="middle" x="210.62" y="-234.25" font-family="Helvetica,sans-Serif" font-size="10.00">socket.h</text>
</a>
</g>
</g>
<!-- Node6&#45;&gt;Node16 -->
<g id="edge23_Node000006_Node000016" class="edge">
<title>Node6&#45;&gt;Node16</title>
<g id="a_edge23_Node000006_Node000016"><a xlink:title=" ">
<path fill="none" stroke="#63b8ff" d="M365.01,-283.34C332.84,-273.97 284.31,-259.84 250.27,-249.92"/>
<polygon fill="#63b8ff" stroke="#63b8ff" points="251.36,-246.59 240.78,-247.16 249.4,-253.31 251.36,-246.59"/>
</a>
</g>
</g>
<!-- Node7&#45;&gt;Node2 -->
<g id="edge9_Node000007_Node000002" class="edge">
<title>Node7&#45;&gt;Node2</title>
<g id="a_edge9_Node000007_Node000002"><a xlink:title=" ">
<path fill="none" stroke="#63b8ff" d="M409.38,-226.51C394.45,-218.83 375.42,-206.81 363.62,-191 340.55,-160.09 331.31,-114.95 327.74,-88.86"/>
<polygon fill="#63b8ff" stroke="#63b8ff" points="331.25,-88.74 326.59,-79.22 324.3,-89.57 331.25,-88.74"/>
</a>
</g>
</g>
<!-- Node8 -->
<g id="Node000008" class="node">
<title>Node8</title>
<g id="a_Node000008"><a xlink:title=" ">
<polygon fill="#e0e0e0" stroke="#999999" points="646.99,-77.5 582.24,-77.5 582.24,-56.75 646.99,-56.75 646.99,-77.5"/>
<text text-anchor="middle" x="614.62" y="-64" font-family="Helvetica,sans-Serif" font-size="10.00">inttypes.h</text>
</a>
</g>
</g>
<!-- Node7&#45;&gt;Node8 -->
<g id="edge8_Node000007_Node000008" class="edge">
<title>Node7&#45;&gt;Node8</title>
<g id="a_edge8_Node000007_Node000008"><a xlink:title=" ">
<path fill="none" stroke="#63b8ff" d="M462.88,-229.21C511.71,-217.89 600.99,-196.56 605.62,-191 629.49,-162.34 625.01,-115.71 619.73,-88.89"/>
<polygon fill="#63b8ff" stroke="#63b8ff" points="623.18,-88.27 617.6,-79.27 616.35,-89.79 623.18,-88.27"/>
</a>
</g>
</g>
<!-- Node9 -->
<g id="Node000009" class="node">
<title>Node9</title>
<g id="a_Node000009"><a xlink:href="error_8h.html" target="_top" xlink:title=" ">
<polygon fill="white" stroke="#666666" points="844.49,-134.25 728.74,-134.25 728.74,-113.5 844.49,-113.5 844.49,-134.25"/>
<text text-anchor="middle" x="786.62" y="-120.75" font-family="Helvetica,sans-Serif" font-size="10.00">vlcb/platform/error.h</text>
</a>
</g>
</g>
<!-- Node7&#45;&gt;Node9 -->
<g id="edge10_Node000007_Node000009" class="edge">
<title>Node7&#45;&gt;Node9</title>
<g id="a_edge10_Node000007_Node000009"><a xlink:title=" ">
<path fill="none" stroke="#63b8ff" d="M462.75,-234.97C531.83,-231.35 695.45,-219.9 741.62,-191 758.88,-180.2 771.13,-160.08 778.44,-144.86"/>
<polygon fill="#63b8ff" stroke="#63b8ff" points="781.61,-146.35 782.47,-135.79 775.21,-143.51 781.61,-146.35"/>
</a>
</g>
</g>
<!-- Node10 -->
<g id="Node000010" class="node">
<title>Node10</title>
<g id="a_Node000010"><a xlink:href="interface_8h.html" target="_top" xlink:title=" ">
<polygon fill="white" stroke="#666666" points="278.99,-191 142.24,-191 142.24,-170.25 278.99,-170.25 278.99,-191"/>
<text text-anchor="middle" x="210.62" y="-177.5" font-family="Helvetica,sans-Serif" font-size="10.00">vlcb/platform/interface.h</text>
</a>
</g>
</g>
<!-- Node7&#45;&gt;Node10 -->
<g id="edge11_Node000007_Node000010" class="edge">
<title>Node7&#45;&gt;Node10</title>
<g id="a_edge11_Node000007_Node000010"><a xlink:title=" ">
<path fill="none" stroke="#63b8ff" d="M400.42,-228.65C364.27,-219.69 304.18,-204.8 261.3,-194.18"/>
<polygon fill="#63b8ff" stroke="#63b8ff" points="262.26,-190.81 251.71,-191.81 260.58,-197.61 262.26,-190.81"/>
</a>
</g>
</g>
<!-- Node11 -->
<g id="Node000011" class="node">
<title>Node11</title>
<g id="a_Node000011"><a xlink:href="packet_8h.html" target="_top" xlink:title=" ">
<polygon fill="white" stroke="#666666" points="490.62,-191 372.62,-191 372.62,-170.25 490.62,-170.25 490.62,-191"/>
<text text-anchor="middle" x="431.62" y="-177.5" font-family="Helvetica,sans-Serif" font-size="10.00">adapter/can/packet.h</text>
</a>
</g>
</g>
<!-- Node7&#45;&gt;Node11 -->
<g id="edge13_Node000007_Node000011" class="edge">
<title>Node7&#45;&gt;Node11</title>
<g id="a_edge13_Node000007_Node000011"><a xlink:title=" ">
<path fill="none" stroke="#63b8ff" d="M431.62,-226.59C431.62,-219.97 431.62,-210.97 431.62,-202.77"/>
<polygon fill="#63b8ff" stroke="#63b8ff" points="435.12,-202.84 431.62,-192.84 428.12,-202.84 435.12,-202.84"/>
</a>
</g>
</g>
<!-- Node15 -->
<g id="Node000015" class="node">
<title>Node15</title>
<g id="a_Node000015"><a xlink:href="addr_8h.html" target="_top" xlink:title=" ">
<polygon fill="white" stroke="#666666" points="596.62,-191 508.62,-191 508.62,-170.25 596.62,-170.25 596.62,-191"/>
<text text-anchor="middle" x="552.62" y="-177.5" font-family="Helvetica,sans-Serif" font-size="10.00">vlcb/net/addr.h</text>
</a>
</g>
</g>
<!-- Node7&#45;&gt;Node15 -->
<g id="edge21_Node000007_Node000015" class="edge">
<title>Node7&#45;&gt;Node15</title>
<g id="a_edge21_Node000007_Node000015"><a xlink:title=" ">
<path fill="none" stroke="#63b8ff" d="M453.25,-226.59C472.09,-218.06 499.65,-205.59 520.97,-195.94"/>
<polygon fill="#63b8ff" stroke="#63b8ff" points="522.13,-199.26 529.79,-191.95 519.24,-192.89 522.13,-199.26"/>
</a>
</g>
</g>
<!-- Node10&#45;&gt;Node3 -->
<g id="edge12_Node000010_Node000003" class="edge">
<title>Node10&#45;&gt;Node3</title>
<g id="a_edge12_Node000010_Node000003"><a xlink:title=" ">
<path fill="none" stroke="#63b8ff" d="M183.44,-169.84C159.2,-161.11 123.47,-148.23 96.44,-138.5"/>
<polygon fill="#63b8ff" stroke="#63b8ff" points="97.83,-135.28 87.24,-135.18 95.46,-141.87 97.83,-135.28"/>
</a>
</g>
</g>
<!-- Node11&#45;&gt;Node2 -->
<g id="edge14_Node000011_Node000002" class="edge">
<title>Node11&#45;&gt;Node2</title>
<g id="a_edge14_Node000011_Node000002"><a xlink:title=" ">
<path fill="none" stroke="#63b8ff" d="M422.58,-170.12C404.91,-151.53 365.53,-110.11 342.77,-86.16"/>
<polygon fill="#63b8ff" stroke="#63b8ff" points="345.4,-83.86 335.98,-79.02 340.33,-88.68 345.4,-83.86"/>
</a>
</g>
</g>
<!-- Node12 -->
<g id="Node000012" class="node">
<title>Node12</title>
<g id="a_Node000012"><a xlink:href="common_2inc_2vlcb_2common_2can_8h.html" target="_top" xlink:title=" ">
<polygon fill="white" stroke="#666666" points="596.24,-134.25 484.99,-134.25 484.99,-113.5 596.24,-113.5 596.24,-134.25"/>
<text text-anchor="middle" x="540.62" y="-120.75" font-family="Helvetica,sans-Serif" font-size="10.00">vlcb/common/can.h</text>
</a>
</g>
</g>
<!-- Node11&#45;&gt;Node12 -->
<g id="edge15_Node000011_Node000012" class="edge">
<title>Node11&#45;&gt;Node12</title>
<g id="a_edge15_Node000011_Node000012"><a xlink:title=" ">
<path fill="none" stroke="#63b8ff" d="M451.1,-169.84C467.77,-161.47 492,-149.29 511.05,-139.72"/>
<polygon fill="#63b8ff" stroke="#63b8ff" points="512.58,-142.87 519.95,-135.26 509.44,-136.62 512.58,-142.87"/>
</a>
</g>
</g>
<!-- Node12&#45;&gt;Node2 -->
<g id="edge17_Node000012_Node000002" class="edge">
<title>Node12&#45;&gt;Node2</title>
<g id="a_edge17_Node000012_Node000002"><a xlink:title=" ">
<path fill="none" stroke="#63b8ff" d="M502.18,-113.09C464.25,-103.43 406.44,-88.71 367.39,-78.76"/>
<polygon fill="#63b8ff" stroke="#63b8ff" points="368.44,-75.42 357.88,-76.34 366.71,-82.2 368.44,-75.42"/>
</a>
</g>
</g>
<!-- Node12&#45;&gt;Node8 -->
<g id="edge16_Node000012_Node000008" class="edge">
<title>Node12&#45;&gt;Node8</title>
<g id="a_edge16_Node000012_Node000008"><a xlink:title=" ">
<path fill="none" stroke="#63b8ff" d="M553.85,-113.09C564.58,-105.15 579.94,-93.78 592.53,-84.46"/>
<polygon fill="#63b8ff" stroke="#63b8ff" points="594.33,-87.49 600.29,-78.73 590.16,-81.86 594.33,-87.49"/>
</a>
</g>
</g>
<!-- Node13 -->
<g id="Node000013" class="node">
<title>Node13</title>
<g id="a_Node000013"><a xlink:title=" ">
<polygon fill="#e0e0e0" stroke="#999999" points="646.99,-20.75 594.24,-20.75 594.24,0 646.99,0 646.99,-20.75"/>
<text text-anchor="middle" x="620.62" y="-7.25" font-family="Helvetica,sans-Serif" font-size="10.00">stdint.h</text>
</a>
</g>
</g>
<!-- Node12&#45;&gt;Node13 -->
<g id="edge18_Node000012_Node000013" class="edge">
<title>Node12&#45;&gt;Node13</title>
<g id="a_edge18_Node000012_Node000013"><a xlink:title=" ">
<path fill="none" stroke="#63b8ff" d="M544.18,-113.33C549.43,-99.94 560.11,-75.16 573.62,-56.75 581.09,-46.57 590.95,-36.66 599.71,-28.72"/>
<polygon fill="#63b8ff" stroke="#63b8ff" points="601.92,-31.43 607.15,-22.21 597.32,-26.16 601.92,-31.43"/>
</a>
</g>
</g>
<!-- Node14 -->
<g id="Node000014" class="node">
<title>Node14</title>
<g id="a_Node000014"><a xlink:href="opcode_8h.html" target="_top" xlink:title=" ">
<polygon fill="white" stroke="#666666" points="725.74,-77.5 665.49,-77.5 665.49,-56.75 725.74,-56.75 725.74,-77.5"/>
<text text-anchor="middle" x="695.62" y="-64" font-family="Helvetica,sans-Serif" font-size="10.00">opcode.h</text>
</a>
</g>
</g>
<!-- Node12&#45;&gt;Node14 -->
<g id="edge19_Node000012_Node000014" class="edge">
<title>Node12&#45;&gt;Node14</title>
<g id="a_edge19_Node000012_Node000014"><a xlink:title=" ">
<path fill="none" stroke="#63b8ff" d="M568.33,-113.09C593.05,-104.36 629.49,-91.48 657.05,-81.75"/>
<polygon fill="#63b8ff" stroke="#63b8ff" points="658.2,-85.06 666.46,-78.42 655.86,-78.46 658.2,-85.06"/>
</a>
</g>
</g>
<!-- Node14&#45;&gt;Node13 -->
<g id="edge20_Node000014_Node000013" class="edge">
<title>Node14&#45;&gt;Node13</title>
<g id="a_edge20_Node000014_Node000013"><a xlink:title=" ">
<path fill="none" stroke="#63b8ff" d="M682.21,-56.34C671.33,-48.4 655.76,-37.03 643,-27.71"/>
<polygon fill="#63b8ff" stroke="#63b8ff" points="645.27,-25.04 635.13,-21.97 641.15,-30.69 645.27,-25.04"/>
</a>
</g>
</g>
<!-- Node15&#45;&gt;Node12 -->
<g id="edge22_Node000015_Node000012" class="edge">
<title>Node15&#45;&gt;Node12</title>
<g id="a_edge22_Node000015_Node000012"><a xlink:title=" ">
<path fill="none" stroke="#63b8ff" d="M550.47,-169.84C549,-163.14 547,-154.01 545.19,-145.73"/>
<polygon fill="#63b8ff" stroke="#63b8ff" points="548.63,-145.08 543.07,-136.06 541.79,-146.57 548.63,-145.08"/>
</a>
</g>
</g>
<!-- Node16&#45;&gt;Node2 -->
<g id="edge24_Node000016_Node000002" class="edge">
<title>Node16&#45;&gt;Node2</title>
<g id="a_edge24_Node000016_Node000002"><a xlink:title=" ">
<path fill="none" stroke="#63b8ff" d="M182.42,-226.59C154.74,-215.32 118.69,-195.1 133.62,-170.25 166.06,-116.25 237.78,-89.26 283.79,-77.01"/>
<polygon fill="#63b8ff" stroke="#63b8ff" points="284.59,-80.41 293.43,-74.57 282.88,-73.63 284.59,-80.41"/>
</a>
</g>
</g>
<!-- Node16&#45;&gt;Node3 -->
<g id="edge25_Node000016_Node000003" class="edge">
<title>Node16&#45;&gt;Node3</title>
<g id="a_edge25_Node000016_Node000003"><a xlink:title=" ">
<path fill="none" stroke="#63b8ff" d="M182.34,-229.86C158.49,-223.23 124.51,-211.05 100.62,-191 85.82,-178.58 74.51,-159.59 67.38,-145.14"/>
<polygon fill="#63b8ff" stroke="#63b8ff" points="70.58,-143.72 63.2,-136.11 64.22,-146.66 70.58,-143.72"/>
</a>
</g>
</g>
<!-- Node16&#45;&gt;Node10 -->
<g id="edge30_Node000016_Node000010" class="edge">
<title>Node16&#45;&gt;Node10</title>
<g id="a_edge30_Node000016_Node000010"><a xlink:title=" ">
<path fill="none" stroke="#63b8ff" d="M210.62,-226.59C210.62,-219.97 210.62,-210.97 210.62,-202.77"/>
<polygon fill="#63b8ff" stroke="#63b8ff" points="214.12,-202.84 210.62,-192.84 207.12,-202.84 214.12,-202.84"/>
</a>
</g>
</g>
<!-- Node16&#45;&gt;Node17 -->
<g id="edge26_Node000016_Node000017" class="edge">
<title>Node16&#45;&gt;Node17</title>
<g id="a_edge26_Node000016_Node000017"><a xlink:title=" ">
<path fill="none" stroke="#63b8ff" d="M239.33,-233.11C318.26,-224.15 539.42,-199.03 640.74,-187.52"/>
<polygon fill="#63b8ff" stroke="#63b8ff" points="640.86,-191.03 650.4,-186.42 640.07,-184.07 640.86,-191.03"/>
</a>
</g>
</g>
<!-- Node17&#45;&gt;Node8 -->
<g id="edge27_Node000017_Node000008" class="edge">
<title>Node17&#45;&gt;Node8</title>
<g id="a_edge27_Node000017_Node000008"><a xlink:title=" ">
<path fill="none" stroke="#63b8ff" d="M685.97,-170.12C673.14,-151.78 644.75,-111.2 627.91,-87.12"/>
<polygon fill="#63b8ff" stroke="#63b8ff" points="630.94,-85.35 622.34,-79.17 625.21,-89.37 630.94,-85.35"/>
</a>
</g>
</g>
<!-- Node17&#45;&gt;Node9 -->
<g id="edge29_Node000017_Node000009" class="edge">
<title>Node17&#45;&gt;Node9</title>
<g id="a_edge29_Node000017_Node000009"><a xlink:title=" ">
<path fill="none" stroke="#63b8ff" d="M709.42,-169.84C723.59,-161.58 744.11,-149.63 760.43,-140.13"/>
<polygon fill="#63b8ff" stroke="#63b8ff" points="761.77,-143.4 768.65,-135.34 758.25,-137.35 761.77,-143.4"/>
</a>
</g>
</g>
<!-- Node17&#45;&gt;Node14 -->
<g id="edge28_Node000017_Node000014" class="edge">
<title>Node17&#45;&gt;Node14</title>
<g id="a_edge28_Node000017_Node000014"><a xlink:title=" ">
<path fill="none" stroke="#63b8ff" d="M692.87,-170.12C693.35,-152.35 694.39,-113.72 695.04,-89.43"/>
<polygon fill="#63b8ff" stroke="#63b8ff" points="698.54,-89.53 695.31,-79.44 691.55,-89.34 698.54,-89.53"/>
</a>
</g>
</g>
<!-- Node18&#45;&gt;Node9 -->
<g id="edge36_Node000018_Node000009" class="edge">
<title>Node18&#45;&gt;Node9</title>
<g id="a_edge36_Node000018_Node000009"><a xlink:title=" ">
<path fill="none" stroke="#63b8ff" d="M756.43,-283.6C761.44,-257.23 775.6,-182.83 782.59,-146.03"/>
<polygon fill="#63b8ff" stroke="#63b8ff" points="786.03,-146.68 784.46,-136.2 779.16,-145.37 786.03,-146.68"/>
</a>
</g>
</g>
</g>
</svg>
