<?xml version="1.0" encoding="UTF-8" standalone="no"?>
<!DOCTYPE svg PUBLIC "-//W3C//DTD SVG 1.1//EN"
 "http://www.w3.org/Graphics/SVG/1.1/DTD/svg11.dtd">
<!-- Generated by graphviz version 12.1.2 (20240928.0832)
 -->
<!-- Title: led.h Pages: 1 -->
<svg width="241pt" height="142pt"
 viewBox="0.00 0.00 241.38 142.25" xmlns="http://www.w3.org/2000/svg" xmlns:xlink="http://www.w3.org/1999/xlink">
<g id="graph0" class="graph" transform="scale(1 1) rotate(0) translate(4 138.25)">
<title>led.h</title>
<!-- Node1 -->
<g id="Node000001" class="node">
<title>Node1</title>
<g id="a_Node000001"><a xlink:title=" ">
<polygon fill="#999999" stroke="#666666" points="109.5,-134.25 69.5,-134.25 69.5,-113.5 109.5,-113.5 109.5,-134.25"/>
<text text-anchor="middle" x="89.5" y="-120.75" font-family="Helvetica,sans-Serif" font-size="10.00">led.h</text>
</a>
</g>
</g>
<!-- Node2 -->
<g id="Node000002" class="node">
<title>Node2</title>
<g id="a_Node000002"><a xlink:title=" ">
<polygon fill="#e0e0e0" stroke="#999999" points="61,-77.5 0,-77.5 0,-56.75 61,-56.75 61,-77.5"/>
<text text-anchor="middle" x="30.5" y="-64" font-family="Helvetica,sans-Serif" font-size="10.00">stdbool.h</text>
</a>
</g>
</g>
<!-- Node1&#45;&gt;Node2 -->
<g id="edge1_Node000001_Node000002" class="edge">
<title>Node1&#45;&gt;Node2</title>
<g id="a_edge1_Node000001_Node000002"><a xlink:title=" ">
<path fill="none" stroke="#63b8ff" d="M78.95,-113.09C70.73,-105.46 59.1,-94.67 49.3,-85.57"/>
<polygon fill="#63b8ff" stroke="#63b8ff" points="51.78,-83.09 42.07,-78.86 47.02,-88.23 51.78,-83.09"/>
</a>
</g>
</g>
<!-- Node3 -->
<g id="Node000003" class="node">
<title>Node3</title>
<g id="a_Node000003"><a xlink:title=" ">
<polygon fill="#e0e0e0" stroke="#999999" points="158.88,-20.75 106.12,-20.75 106.12,0 158.88,0 158.88,-20.75"/>
<text text-anchor="middle" x="132.5" y="-7.25" font-family="Helvetica,sans-Serif" font-size="10.00">stdint.h</text>
</a>
</g>
</g>
<!-- Node1&#45;&gt;Node3 -->
<g id="edge2_Node000001_Node000003" class="edge">
<title>Node1&#45;&gt;Node3</title>
<g id="a_edge2_Node000001_Node000003"><a xlink:title=" ">
<path fill="none" stroke="#63b8ff" d="M91.6,-113.25C94.61,-100.19 100.64,-76.25 108.5,-56.75 111.99,-48.1 116.64,-38.94 120.91,-31.13"/>
<polygon fill="#63b8ff" stroke="#63b8ff" points="123.92,-32.92 125.8,-22.5 117.83,-29.47 123.92,-32.92"/>
</a>
</g>
</g>
<!-- Node4 -->
<g id="Node000004" class="node">
<title>Node4</title>
<g id="a_Node000004"><a xlink:href="time_8h.html" target="_top" xlink:title=" ">
<polygon fill="white" stroke="#666666" points="233.38,-77.5 117.62,-77.5 117.62,-56.75 233.38,-56.75 233.38,-77.5"/>
<text text-anchor="middle" x="175.5" y="-64" font-family="Helvetica,sans-Serif" font-size="10.00">vlcb/platform/time.h</text>
</a>
</g>
</g>
<!-- Node1&#45;&gt;Node4 -->
<g id="edge3_Node000001_Node000004" class="edge">
<title>Node1&#45;&gt;Node4</title>
<g id="a_edge3_Node000001_Node000004"><a xlink:title=" ">
<path fill="none" stroke="#63b8ff" d="M104.88,-113.09C117.59,-104.99 135.9,-93.33 150.69,-83.92"/>
<polygon fill="#63b8ff" stroke="#63b8ff" points="152.43,-86.96 158.98,-78.64 148.67,-81.06 152.43,-86.96"/>
</a>
</g>
</g>
<!-- Node4&#45;&gt;Node3 -->
<g id="edge4_Node000004_Node000003" class="edge">
<title>Node4&#45;&gt;Node3</title>
<g id="a_edge4_Node000004_Node000003"><a xlink:title=" ">
<path fill="none" stroke="#63b8ff" d="M167.81,-56.34C162.06,-49.02 154.03,-38.79 147.08,-29.94"/>
<polygon fill="#63b8ff" stroke="#63b8ff" points="149.99,-27.97 141.06,-22.27 144.48,-32.3 149.99,-27.97"/>
</a>
</g>
</g>
</g>
</svg>
