<?xml version="1.0" encoding="UTF-8" standalone="no"?>
<!DOCTYPE svg PUBLIC "-//W3C//DTD SVG 1.1//EN"
 "http://www.w3.org/Graphics/SVG/1.1/DTD/svg11.dtd">
<!-- Generated by graphviz version 12.1.2 (20240928.0832)
 -->
<!-- Title: param.h Pages: 1 -->
<svg width="616pt" height="142pt"
 viewBox="0.00 0.00 615.69 142.25" xmlns="http://www.w3.org/2000/svg" xmlns:xlink="http://www.w3.org/1999/xlink">
<g id="graph0" class="graph" transform="scale(1 1) rotate(0) translate(4 138.25)">
<title>param.h</title>
<!-- Node1 -->
<g id="Node000001" class="node">
<title>Node1</title>
<g id="a_Node000001"><a xlink:title=" ">
<polygon fill="#999999" stroke="#666666" points="284.69,-134.25 228.19,-134.25 228.19,-113.5 284.69,-113.5 284.69,-134.25"/>
<text text-anchor="middle" x="256.44" y="-120.75" font-family="Helvetica,sans-Serif" font-size="10.00">param.h</text>
</a>
</g>
</g>
<!-- Node2 -->
<g id="Node000002" class="node">
<title>Node2</title>
<g id="a_Node000002"><a xlink:title=" ">
<polygon fill="#e0e0e0" stroke="#999999" points="282.81,-20.75 230.06,-20.75 230.06,0 282.81,0 282.81,-20.75"/>
<text text-anchor="middle" x="256.44" y="-7.25" font-family="Helvetica,sans-Serif" font-size="10.00">stdint.h</text>
</a>
</g>
</g>
<!-- Node1&#45;&gt;Node2 -->
<g id="edge1_Node000001_Node000002" class="edge">
<title>Node1&#45;&gt;Node2</title>
<g id="a_edge1_Node000001_Node000002"><a xlink:title=" ">
<path fill="none" stroke="#63b8ff" d="M227.84,-122.14C167.97,-119.94 32.66,-111.26 4.44,-77.5 -1.48,-70.42 -1.48,-63.83 4.44,-56.75 31.28,-24.64 154.95,-15.22 218.5,-12.48"/>
<polygon fill="#63b8ff" stroke="#63b8ff" points="218.26,-15.99 228.12,-12.1 217.99,-9 218.26,-15.99"/>
</a>
</g>
</g>
<!-- Node3 -->
<g id="Node000003" class="node">
<title>Node3</title>
<g id="a_Node000003"><a xlink:href="manufacturer_8h.html" target="_top" xlink:title=" ">
<polygon fill="white" stroke="#666666" points="173.06,-77.5 13.81,-77.5 13.81,-56.75 173.06,-56.75 173.06,-77.5"/>
<text text-anchor="middle" x="93.44" y="-64" font-family="Helvetica,sans-Serif" font-size="10.00">vlcb/common/manufacturer.h</text>
</a>
</g>
</g>
<!-- Node1&#45;&gt;Node3 -->
<g id="edge2_Node000001_Node000003" class="edge">
<title>Node1&#45;&gt;Node3</title>
<g id="a_edge2_Node000001_Node000003"><a xlink:title=" ">
<path fill="none" stroke="#63b8ff" d="M228.04,-113.34C201.84,-104.54 162.66,-91.38 133.32,-81.52"/>
<polygon fill="#63b8ff" stroke="#63b8ff" points="134.63,-78.27 124.04,-78.4 132.4,-84.91 134.63,-78.27"/>
</a>
</g>
</g>
<!-- Node4 -->
<g id="Node000004" class="node">
<title>Node4</title>
<g id="a_Node000004"><a xlink:href="common_2inc_2vlcb_2common_2module_8h.html" target="_top" xlink:title=" ">
<polygon fill="white" stroke="#666666" points="321.81,-77.5 191.06,-77.5 191.06,-56.75 321.81,-56.75 321.81,-77.5"/>
<text text-anchor="middle" x="256.44" y="-64" font-family="Helvetica,sans-Serif" font-size="10.00">vlcb/common/module.h</text>
</a>
</g>
</g>
<!-- Node1&#45;&gt;Node4 -->
<g id="edge4_Node000001_Node000004" class="edge">
<title>Node1&#45;&gt;Node4</title>
<g id="a_edge4_Node000001_Node000004"><a xlink:title=" ">
<path fill="none" stroke="#63b8ff" d="M256.44,-113.09C256.44,-106.47 256.44,-97.47 256.44,-89.27"/>
<polygon fill="#63b8ff" stroke="#63b8ff" points="259.94,-89.34 256.44,-79.34 252.94,-89.34 259.94,-89.34"/>
</a>
</g>
</g>
<!-- Node5 -->
<g id="Node000005" class="node">
<title>Node5</title>
<g id="a_Node000005"><a xlink:href="common_2inc_2vlcb_2common_2net_8h.html" target="_top" xlink:title=" ">
<polygon fill="white" stroke="#666666" points="449.31,-77.5 339.56,-77.5 339.56,-56.75 449.31,-56.75 449.31,-77.5"/>
<text text-anchor="middle" x="394.44" y="-64" font-family="Helvetica,sans-Serif" font-size="10.00">vlcb/common/net.h</text>
</a>
</g>
</g>
<!-- Node1&#45;&gt;Node5 -->
<g id="edge6_Node000001_Node000005" class="edge">
<title>Node1&#45;&gt;Node5</title>
<g id="a_edge6_Node000001_Node000005"><a xlink:title=" ">
<path fill="none" stroke="#63b8ff" d="M281.11,-113.09C302.89,-104.44 334.89,-91.75 359.34,-82.05"/>
<polygon fill="#63b8ff" stroke="#63b8ff" points="360.57,-85.33 368.57,-78.39 357.99,-78.82 360.57,-85.33"/>
</a>
</g>
</g>
<!-- Node6 -->
<g id="Node000006" class="node">
<title>Node6</title>
<g id="a_Node000006"><a xlink:href="processor_8h.html" target="_top" xlink:title=" ">
<polygon fill="white" stroke="#666666" points="607.69,-77.5 467.19,-77.5 467.19,-56.75 607.69,-56.75 607.69,-77.5"/>
<text text-anchor="middle" x="537.44" y="-64" font-family="Helvetica,sans-Serif" font-size="10.00">vlcb/common/processor.h</text>
</a>
</g>
</g>
<!-- Node1&#45;&gt;Node6 -->
<g id="edge8_Node000001_Node000006" class="edge">
<title>Node1&#45;&gt;Node6</title>
<g id="a_edge8_Node000001_Node000006"><a xlink:title=" ">
<path fill="none" stroke="#63b8ff" d="M284.93,-117.32C329.43,-108.65 416.47,-91.69 475.79,-80.14"/>
<polygon fill="#63b8ff" stroke="#63b8ff" points="476.26,-83.61 485.41,-78.26 474.92,-76.74 476.26,-83.61"/>
</a>
</g>
</g>
<!-- Node3&#45;&gt;Node2 -->
<g id="edge3_Node000003_Node000002" class="edge">
<title>Node3&#45;&gt;Node2</title>
<g id="a_edge3_Node000003_Node000002"><a xlink:title=" ">
<path fill="none" stroke="#63b8ff" d="M122.58,-56.34C149.54,-47.28 189.75,-33.78 219.06,-23.93"/>
<polygon fill="#63b8ff" stroke="#63b8ff" points="219.91,-27.34 228.27,-20.83 217.68,-20.7 219.91,-27.34"/>
</a>
</g>
</g>
<!-- Node4&#45;&gt;Node2 -->
<g id="edge5_Node000004_Node000002" class="edge">
<title>Node4&#45;&gt;Node2</title>
<g id="a_edge5_Node000004_Node000002"><a xlink:title=" ">
<path fill="none" stroke="#63b8ff" d="M256.44,-56.34C256.44,-49.72 256.44,-40.72 256.44,-32.52"/>
<polygon fill="#63b8ff" stroke="#63b8ff" points="259.94,-32.59 256.44,-22.59 252.94,-32.59 259.94,-32.59"/>
</a>
</g>
</g>
<!-- Node5&#45;&gt;Node2 -->
<g id="edge7_Node000005_Node000002" class="edge">
<title>Node5&#45;&gt;Node2</title>
<g id="a_edge7_Node000005_Node000002"><a xlink:title=" ">
<path fill="none" stroke="#63b8ff" d="M369.76,-56.34C347.98,-47.69 315.98,-35 291.53,-25.3"/>
<polygon fill="#63b8ff" stroke="#63b8ff" points="292.89,-22.07 282.3,-21.64 290.31,-28.58 292.89,-22.07"/>
</a>
</g>
</g>
<!-- Node6&#45;&gt;Node2 -->
<g id="edge9_Node000006_Node000002" class="edge">
<title>Node6&#45;&gt;Node2</title>
<g id="a_edge9_Node000006_Node000002"><a xlink:title=" ">
<path fill="none" stroke="#63b8ff" d="M486.87,-56.27C431.58,-45.5 344.22,-28.48 294.46,-18.78"/>
<polygon fill="#63b8ff" stroke="#63b8ff" points="295.22,-15.37 284.74,-16.89 293.89,-22.24 295.22,-15.37"/>
</a>
</g>
</g>
</g>
</svg>
