<?xml version="1.0" encoding="UTF-8" standalone="no"?>
<!DOCTYPE svg PUBLIC "-//W3C//DTD SVG 1.1//EN"
 "http://www.w3.org/Graphics/SVG/1.1/DTD/svg11.dtd">
<!-- Generated by graphviz version 12.1.2 (20240928.0832)
 -->
<!-- Title: interface.h Pages: 1 -->
<svg width="1045pt" height="313pt"
 viewBox="0.00 0.00 1044.79 312.50" xmlns="http://www.w3.org/2000/svg" xmlns:xlink="http://www.w3.org/1999/xlink">
<g id="graph0" class="graph" transform="scale(1 1) rotate(0) translate(4 308.5)">
<title>interface.h</title>
<!-- Node1 -->
<g id="Node000001" class="node">
<title>Node1</title>
<g id="a_Node000001"><a xlink:title=" ">
<polygon fill="#999999" stroke="#666666" points="866.04,-304.5 797.54,-304.5 797.54,-283.75 866.04,-283.75 866.04,-304.5"/>
<text text-anchor="middle" x="831.79" y="-291" font-family="Helvetica,sans-Serif" font-size="10.00">interface.h</text>
</a>
</g>
</g>
<!-- Node2 -->
<g id="Node000002" class="node">
<title>Node2</title>
<g id="a_Node000002"><a xlink:href="adapter_8h.html" target="_top" xlink:title=" ">
<polygon fill="white" stroke="#666666" points="284.67,-247.75 222.92,-247.75 222.92,-227 284.67,-227 284.67,-247.75"/>
<text text-anchor="middle" x="253.79" y="-234.25" font-family="Helvetica,sans-Serif" font-size="10.00">adapter.h</text>
</a>
</g>
</g>
<!-- Node1&#45;&gt;Node2 -->
<g id="edge1_Node000001_Node000002" class="edge">
<title>Node1&#45;&gt;Node2</title>
<g id="a_edge1_Node000001_Node000002"><a xlink:title=" ">
<path fill="none" stroke="#63b8ff" d="M786.01,-288.79C672.57,-278.04 380.72,-250.4 284.83,-241.32"/>
<polygon fill="#63b8ff" stroke="#63b8ff" points="785.57,-292.26 795.86,-289.72 786.23,-285.29 785.57,-292.26"/>
</a>
</g>
</g>
<!-- Node8 -->
<g id="Node000008" class="node">
<title>Node8</title>
<g id="a_Node000008"><a xlink:href="iface__vlcb_8c.html" target="_top" xlink:title=" ">
<polygon fill="white" stroke="#666666" points="176.67,-77.5 102.92,-77.5 102.92,-56.75 176.67,-56.75 176.67,-77.5"/>
<text text-anchor="middle" x="139.79" y="-64" font-family="Helvetica,sans-Serif" font-size="10.00">iface_vlcb.c</text>
</a>
</g>
</g>
<!-- Node1&#45;&gt;Node8 -->
<g id="edge32_Node000001_Node000008" class="edge">
<title>Node1&#45;&gt;Node8</title>
<g id="a_edge32_Node000001_Node000008"><a xlink:title=" ">
<path fill="none" stroke="#63b8ff" d="M785.82,-292.83C682.7,-291.5 425.36,-284.43 213.79,-247.75 120.64,-231.6 66.03,-266.24 8.79,-191 -27.74,-142.98 65.8,-97.35 113.65,-77.93"/>
<polygon fill="#63b8ff" stroke="#63b8ff" points="785.78,-296.33 795.82,-292.95 785.86,-289.33 785.78,-296.33"/>
</a>
</g>
</g>
<!-- Node11 -->
<g id="Node000011" class="node">
<title>Node11</title>
<g id="a_Node000011"><a xlink:href="module_8c.html" target="_top" xlink:title=" ">
<polygon fill="white" stroke="#666666" points="722.29,-20.75 661.29,-20.75 661.29,0 722.29,0 722.29,-20.75"/>
<text text-anchor="middle" x="691.79" y="-7.25" font-family="Helvetica,sans-Serif" font-size="10.00">module.c</text>
</a>
</g>
</g>
<!-- Node1&#45;&gt;Node11 -->
<g id="edge33_Node000001_Node000011" class="edge">
<title>Node1&#45;&gt;Node11</title>
<g id="a_edge33_Node000001_Node000011"><a xlink:title=" ">
<path fill="none" stroke="#63b8ff" d="M877.5,-283.4C926.94,-269.88 998.79,-240.16 998.79,-181.62 998.79,-181.62 998.79,-181.62 998.79,-122.88 998.79,-64.54 800.48,-27.95 722.63,-15.83"/>
<polygon fill="#63b8ff" stroke="#63b8ff" points="876.66,-280 867.86,-285.89 878.42,-286.78 876.66,-280"/>
</a>
</g>
</g>
<!-- Node13 -->
<g id="Node000013" class="node">
<title>Node13</title>
<g id="a_Node000013"><a xlink:href="state__machine_8c.html" target="_top" xlink:title=" ">
<polygon fill="white" stroke="#666666" points="940.92,-20.75 844.67,-20.75 844.67,0 940.92,0 940.92,-20.75"/>
<text text-anchor="middle" x="892.79" y="-7.25" font-family="Helvetica,sans-Serif" font-size="10.00">state_machine.c</text>
</a>
</g>
</g>
<!-- Node1&#45;&gt;Node13 -->
<g id="edge45_Node000001_Node000013" class="edge">
<title>Node1&#45;&gt;Node13</title>
<g id="a_edge45_Node000001_Node000013"><a xlink:title=" ">
<path fill="none" stroke="#63b8ff" d="M877.6,-293.16C917.91,-290.78 975.8,-281.13 1012.79,-247.75 1036,-226.8 1036.79,-212.89 1036.79,-181.62 1036.79,-181.62 1036.79,-181.62 1036.79,-122.88 1036.79,-91.61 1034.75,-79 1012.79,-56.75 993.71,-37.41 965.56,-26.2 941.32,-19.76"/>
<polygon fill="#63b8ff" stroke="#63b8ff" points="877.56,-289.66 867.72,-293.61 877.87,-296.66 877.56,-289.66"/>
</a>
</g>
</g>
<!-- Node18 -->
<g id="Node000018" class="node">
<title>Node18</title>
<g id="a_Node000018"><a xlink:href="socket_2datagram_8c.html" target="_top" xlink:title=" ">
<polygon fill="white" stroke="#666666" points="970.54,-134.25 899.04,-134.25 899.04,-113.5 970.54,-113.5 970.54,-134.25"/>
<text text-anchor="middle" x="934.79" y="-120.75" font-family="Helvetica,sans-Serif" font-size="10.00">datagram.c</text>
</a>
</g>
</g>
<!-- Node1&#45;&gt;Node18 -->
<g id="edge26_Node000001_Node000018" class="edge">
<title>Node1&#45;&gt;Node18</title>
<g id="a_edge26_Node000001_Node000018"><a xlink:title=" ">
<path fill="none" stroke="#63b8ff" d="M853.48,-276.47C875.64,-258.13 909.1,-226.49 925.79,-191 934.57,-172.34 935.49,-147.66 935.24,-134.35"/>
<polygon fill="#63b8ff" stroke="#63b8ff" points="851.53,-273.55 845.93,-282.54 855.92,-279 851.53,-273.55"/>
</a>
</g>
</g>
<!-- Node19 -->
<g id="Node000019" class="node">
<title>Node19</title>
<g id="a_Node000019"><a xlink:href="socket_2datagram_8h.html" target="_top" xlink:title=" ">
<polygon fill="white" stroke="#666666" points="894.92,-191 822.67,-191 822.67,-170.25 894.92,-170.25 894.92,-191"/>
<text text-anchor="middle" x="858.79" y="-177.5" font-family="Helvetica,sans-Serif" font-size="10.00">datagram.h</text>
</a>
</g>
</g>
<!-- Node1&#45;&gt;Node19 -->
<g id="edge27_Node000001_Node000019" class="edge">
<title>Node1&#45;&gt;Node19</title>
<g id="a_edge27_Node000001_Node000019"><a xlink:title=" ">
<path fill="none" stroke="#63b8ff" d="M836.77,-272.55C842.61,-248.45 852.04,-209.5 856.42,-191.43"/>
<polygon fill="#63b8ff" stroke="#63b8ff" points="833.4,-271.6 834.45,-282.15 840.2,-273.25 833.4,-271.6"/>
</a>
</g>
</g>
<!-- Node20 -->
<g id="Node000020" class="node">
<title>Node20</title>
<g id="a_Node000020"><a xlink:href="socket_8h.html" target="_top" xlink:title=" ">
<polygon fill="white" stroke="#666666" points="673.04,-247.75 616.54,-247.75 616.54,-227 673.04,-227 673.04,-247.75"/>
<text text-anchor="middle" x="644.79" y="-234.25" font-family="Helvetica,sans-Serif" font-size="10.00">socket.h</text>
</a>
</g>
</g>
<!-- Node1&#45;&gt;Node20 -->
<g id="edge34_Node000001_Node000020" class="edge">
<title>Node1&#45;&gt;Node20</title>
<g id="a_edge34_Node000001_Node000020"><a xlink:title=" ">
<path fill="none" stroke="#63b8ff" d="M787.39,-280.12C752.06,-269.78 703.69,-255.62 673.34,-246.73"/>
<polygon fill="#63b8ff" stroke="#63b8ff" points="786.33,-283.46 796.91,-282.91 788.29,-276.74 786.33,-283.46"/>
</a>
</g>
</g>
<!-- Node22 -->
<g id="Node000022" class="node">
<title>Node22</title>
<g id="a_Node000022"><a xlink:href="ui_8h.html" target="_top" xlink:title=" ">
<polygon fill="white" stroke="#666666" points="816.79,-247.75 782.79,-247.75 782.79,-227 816.79,-227 816.79,-247.75"/>
<text text-anchor="middle" x="799.79" y="-234.25" font-family="Helvetica,sans-Serif" font-size="10.00">ui.h</text>
</a>
</g>
</g>
<!-- Node1&#45;&gt;Node22 -->
<g id="edge46_Node000001_Node000022" class="edge">
<title>Node1&#45;&gt;Node22</title>
<g id="a_edge46_Node000001_Node000022"><a xlink:title=" ">
<path fill="none" stroke="#63b8ff" d="M820.38,-273.6C815.32,-264.95 809.59,-255.14 805.46,-248.08"/>
<polygon fill="#63b8ff" stroke="#63b8ff" points="817.24,-275.16 825.31,-282.03 823.28,-271.63 817.24,-275.16"/>
</a>
</g>
</g>
<!-- Node3 -->
<g id="Node000003" class="node">
<title>Node3</title>
<g id="a_Node000003"><a xlink:href="adapter_8c.html" target="_top" xlink:title=" ">
<polygon fill="white" stroke="#666666" points="79.29,-191 18.29,-191 18.29,-170.25 79.29,-170.25 79.29,-191"/>
<text text-anchor="middle" x="48.79" y="-177.5" font-family="Helvetica,sans-Serif" font-size="10.00">adapter.c</text>
</a>
</g>
</g>
<!-- Node2&#45;&gt;Node3 -->
<g id="edge2_Node000002_Node000003" class="edge">
<title>Node2&#45;&gt;Node3</title>
<g id="a_edge2_Node000002_Node000003"><a xlink:title=" ">
<path fill="none" stroke="#63b8ff" d="M211.6,-225.11C172.3,-214.61 114.66,-199.22 79.55,-189.84"/>
<polygon fill="#63b8ff" stroke="#63b8ff" points="210.63,-228.47 221.19,-227.67 212.44,-221.71 210.63,-228.47"/>
</a>
</g>
</g>
<!-- Node4 -->
<g id="Node000004" class="node">
<title>Node4</title>
<g id="a_Node000004"><a xlink:href="iface_8c.html" target="_top" xlink:title=" ">
<polygon fill="white" stroke="#666666" points="461.92,-77.5 413.67,-77.5 413.67,-56.75 461.92,-56.75 461.92,-77.5"/>
<text text-anchor="middle" x="437.79" y="-64" font-family="Helvetica,sans-Serif" font-size="10.00">iface.c</text>
</a>
</g>
</g>
<!-- Node2&#45;&gt;Node4 -->
<g id="edge3_Node000002_Node000004" class="edge">
<title>Node2&#45;&gt;Node4</title>
<g id="a_edge3_Node000002_Node000004"><a xlink:title=" ">
<path fill="none" stroke="#63b8ff" d="M250.31,-215.46C247.08,-188.49 245.97,-141.68 270.79,-113.5 311.26,-67.54 344.72,-93.64 403.79,-77.5 406.86,-76.66 410.09,-75.78 413.28,-74.9"/>
<polygon fill="#63b8ff" stroke="#63b8ff" points="246.81,-215.74 251.69,-225.14 253.74,-214.74 246.81,-215.74"/>
</a>
</g>
</g>
<!-- Node5 -->
<g id="Node000005" class="node">
<title>Node5</title>
<g id="a_Node000005"><a xlink:href="iface_8h.html" target="_top" xlink:title=" ">
<polygon fill="white" stroke="#666666" points="474.29,-191 425.29,-191 425.29,-170.25 474.29,-170.25 474.29,-191"/>
<text text-anchor="middle" x="449.79" y="-177.5" font-family="Helvetica,sans-Serif" font-size="10.00">iface.h</text>
</a>
</g>
</g>
<!-- Node2&#45;&gt;Node5 -->
<g id="edge4_Node000002_Node000005" class="edge">
<title>Node2&#45;&gt;Node5</title>
<g id="a_edge4_Node000002_Node000005"><a xlink:title=" ">
<path fill="none" stroke="#63b8ff" d="M295.93,-224.6C335.28,-213.61 392.67,-197.58 425.09,-188.53"/>
<polygon fill="#63b8ff" stroke="#63b8ff" points="295,-221.23 286.31,-227.29 296.88,-227.97 295,-221.23"/>
</a>
</g>
</g>
<!-- Node6 -->
<g id="Node000006" class="node">
<title>Node6</title>
<g id="a_Node000006"><a xlink:href="iface__can_8c.html" target="_top" xlink:title=" ">
<polygon fill="white" stroke="#666666" points="395.17,-77.5 324.42,-77.5 324.42,-56.75 395.17,-56.75 395.17,-77.5"/>
<text text-anchor="middle" x="359.79" y="-64" font-family="Helvetica,sans-Serif" font-size="10.00">iface_can.c</text>
</a>
</g>
</g>
<!-- Node2&#45;&gt;Node6 -->
<g id="edge22_Node000002_Node000006" class="edge">
<title>Node2&#45;&gt;Node6</title>
<g id="a_edge22_Node000002_Node000006"><a xlink:title=" ">
<path fill="none" stroke="#63b8ff" d="M211.33,-233.45C182.3,-228.98 145.78,-217.95 126.79,-191 106.95,-162.84 104.89,-140.08 126.79,-113.5 151.36,-83.68 264.93,-73.2 323.95,-69.73"/>
<polygon fill="#63b8ff" stroke="#63b8ff" points="210.56,-236.88 220.93,-234.71 211.47,-229.94 210.56,-236.88"/>
</a>
</g>
</g>
<!-- Node7 -->
<g id="Node000007" class="node">
<title>Node7</title>
<g id="a_Node000007"><a xlink:href="iface__can_8h.html" target="_top" xlink:title=" ">
<polygon fill="white" stroke="#666666" points="351.54,-134.25 280.04,-134.25 280.04,-113.5 351.54,-113.5 351.54,-134.25"/>
<text text-anchor="middle" x="315.79" y="-120.75" font-family="Helvetica,sans-Serif" font-size="10.00">iface_can.h</text>
</a>
</g>
</g>
<!-- Node2&#45;&gt;Node7 -->
<g id="edge23_Node000002_Node000007" class="edge">
<title>Node2&#45;&gt;Node7</title>
<g id="a_edge23_Node000002_Node000007"><a xlink:title=" ">
<path fill="none" stroke="#63b8ff" d="M264.5,-217.12C277.84,-193.13 300.11,-153.08 310.34,-134.68"/>
<polygon fill="#63b8ff" stroke="#63b8ff" points="261.61,-215.11 259.81,-225.55 267.73,-218.51 261.61,-215.11"/>
</a>
</g>
</g>
<!-- Node16 -->
<g id="Node000016" class="node">
<title>Node16</title>
<g id="a_Node000016"><a xlink:href="packet__parse_8h.html" target="_top" xlink:title=" ">
<polygon fill="white" stroke="#666666" points="225.54,-191 136.04,-191 136.04,-170.25 225.54,-170.25 225.54,-191"/>
<text text-anchor="middle" x="180.79" y="-177.5" font-family="Helvetica,sans-Serif" font-size="10.00">packet_parse.h</text>
</a>
</g>
</g>
<!-- Node2&#45;&gt;Node16 -->
<g id="edge24_Node000002_Node000016" class="edge">
<title>Node2&#45;&gt;Node16</title>
<g id="a_edge24_Node000002_Node000016"><a xlink:title=" ">
<path fill="none" stroke="#63b8ff" d="M231.87,-219.94C219.43,-210.61 204.28,-199.25 193.73,-191.33"/>
<polygon fill="#63b8ff" stroke="#63b8ff" points="229.43,-222.48 239.53,-225.68 233.63,-216.88 229.43,-222.48"/>
</a>
</g>
</g>
<!-- Node5&#45;&gt;Node4 -->
<g id="edge5_Node000005_Node000004" class="edge">
<title>Node5&#45;&gt;Node4</title>
<g id="a_edge5_Node000005_Node000004"><a xlink:title=" ">
<path fill="none" stroke="#63b8ff" d="M442.63,-159.19C440.27,-151.48 437.96,-142.56 436.79,-134.25 433.98,-114.24 435.51,-90.49 436.74,-77.6"/>
<polygon fill="#63b8ff" stroke="#63b8ff" points="439.28,-160.22 445.73,-168.62 445.93,-158.03 439.28,-160.22"/>
</a>
</g>
</g>
<!-- Node5&#45;&gt;Node6 -->
<g id="edge6_Node000005_Node000006" class="edge">
<title>Node5&#45;&gt;Node6</title>
<g id="a_edge6_Node000005_Node000006"><a xlink:title=" ">
<path fill="none" stroke="#63b8ff" d="M435.02,-161.33C415.76,-137.47 382.76,-96.58 367.7,-77.93"/>
<polygon fill="#63b8ff" stroke="#63b8ff" points="432.16,-163.36 441.17,-168.94 437.61,-158.96 432.16,-163.36"/>
</a>
</g>
</g>
<!-- Node5&#45;&gt;Node7 -->
<g id="edge7_Node000005_Node000007" class="edge">
<title>Node5&#45;&gt;Node7</title>
<g id="a_edge7_Node000005_Node000007"><a xlink:title=" ">
<path fill="none" stroke="#63b8ff" d="M415.48,-165.61C391.69,-155.89 360.63,-143.19 339.54,-134.58"/>
<polygon fill="#63b8ff" stroke="#63b8ff" points="413.85,-168.72 424.43,-169.26 416.5,-162.24 413.85,-168.72"/>
</a>
</g>
</g>
<!-- Node9 -->
<g id="Node000009" class="node">
<title>Node9</title>
<g id="a_Node000009"><a xlink:href="iface__vlcb_8h.html" target="_top" xlink:title=" ">
<polygon fill="white" stroke="#666666" points="520.04,-134.25 445.54,-134.25 445.54,-113.5 520.04,-113.5 520.04,-134.25"/>
<text text-anchor="middle" x="482.79" y="-120.75" font-family="Helvetica,sans-Serif" font-size="10.00">iface_vlcb.h</text>
</a>
</g>
</g>
<!-- Node5&#45;&gt;Node9 -->
<g id="edge10_Node000005_Node000009" class="edge">
<title>Node5&#45;&gt;Node9</title>
<g id="a_edge10_Node000005_Node000009"><a xlink:title=" ">
<path fill="none" stroke="#63b8ff" d="M461.56,-160.1C466.78,-151.45 472.69,-141.64 476.94,-134.58"/>
<polygon fill="#63b8ff" stroke="#63b8ff" points="458.64,-158.17 456.47,-168.54 464.63,-161.78 458.64,-158.17"/>
</a>
</g>
</g>
<!-- Node10 -->
<g id="Node000010" class="node">
<title>Node10</title>
<g id="a_Node000010"><a xlink:href="module_2inc_2vlcb_2module_8h.html" target="_top" xlink:title=" ">
<polygon fill="white" stroke="#666666" points="750.67,-134.25 688.92,-134.25 688.92,-113.5 750.67,-113.5 750.67,-134.25"/>
<text text-anchor="middle" x="719.79" y="-120.75" font-family="Helvetica,sans-Serif" font-size="10.00">module.h</text>
</a>
</g>
</g>
<!-- Node5&#45;&gt;Node10 -->
<g id="edge13_Node000005_Node000010" class="edge">
<title>Node5&#45;&gt;Node10</title>
<g id="a_edge13_Node000005_Node000010"><a xlink:title=" ">
<path fill="none" stroke="#63b8ff" d="M485.67,-172.35C539.03,-161.53 638.4,-141.38 688.79,-131.16"/>
<polygon fill="#63b8ff" stroke="#63b8ff" points="485.3,-168.85 476.19,-174.27 486.69,-175.71 485.3,-168.85"/>
</a>
</g>
</g>
<!-- Node15 -->
<g id="Node000015" class="node">
<title>Node15</title>
<g id="a_Node000015"><a xlink:href="net_8h.html" target="_top" xlink:title=" ">
<polygon fill="white" stroke="#666666" points="579.17,-134.25 538.42,-134.25 538.42,-113.5 579.17,-113.5 579.17,-134.25"/>
<text text-anchor="middle" x="558.79" y="-120.75" font-family="Helvetica,sans-Serif" font-size="10.00">net.h</text>
</a>
</g>
</g>
<!-- Node5&#45;&gt;Node15 -->
<g id="edge21_Node000005_Node000015" class="edge">
<title>Node5&#45;&gt;Node15</title>
<g id="a_edge21_Node000005_Node000015"><a xlink:title=" ">
<path fill="none" stroke="#63b8ff" d="M479.55,-164.68C498.64,-155.09 522.86,-142.92 539.47,-134.58"/>
<polygon fill="#63b8ff" stroke="#63b8ff" points="478,-161.54 470.63,-169.16 481.14,-167.8 478,-161.54"/>
</a>
</g>
</g>
<!-- Node7&#45;&gt;Node4 -->
<g id="edge8_Node000007_Node000004" class="edge">
<title>Node7&#45;&gt;Node4</title>
<g id="a_edge8_Node000007_Node000004"><a xlink:title=" ">
<path fill="none" stroke="#63b8ff" d="M347.91,-108.46C369.45,-98.8 397.23,-86.33 416.17,-77.83"/>
<polygon fill="#63b8ff" stroke="#63b8ff" points="346.67,-105.18 338.98,-112.47 349.54,-111.57 346.67,-105.18"/>
</a>
</g>
</g>
<!-- Node7&#45;&gt;Node8 -->
<g id="edge9_Node000007_Node000008" class="edge">
<title>Node7&#45;&gt;Node8</title>
<g id="a_edge9_Node000007_Node000008"><a xlink:title=" ">
<path fill="none" stroke="#63b8ff" d="M273.69,-109.78C242.21,-99.99 199.86,-86.81 171.28,-77.92"/>
<polygon fill="#63b8ff" stroke="#63b8ff" points="272.29,-113.01 282.88,-112.64 274.37,-106.32 272.29,-113.01"/>
</a>
</g>
</g>
<!-- Node9&#45;&gt;Node4 -->
<g id="edge11_Node000009_Node000004" class="edge">
<title>Node9&#45;&gt;Node4</title>
<g id="a_edge11_Node000009_Node000004"><a xlink:title=" ">
<path fill="none" stroke="#63b8ff" d="M467.45,-104.21C460.16,-95.34 451.76,-85.12 445.77,-77.83"/>
<polygon fill="#63b8ff" stroke="#63b8ff" points="464.73,-106.41 473.79,-111.92 470.14,-101.97 464.73,-106.41"/>
</a>
</g>
</g>
<!-- Node9&#45;&gt;Node6 -->
<g id="edge12_Node000009_Node000006" class="edge">
<title>Node9&#45;&gt;Node6</title>
<g id="a_edge12_Node000009_Node000006"><a xlink:title=" ">
<path fill="none" stroke="#63b8ff" d="M450.41,-108.46C428.69,-98.8 400.68,-86.33 381.59,-77.83"/>
<polygon fill="#63b8ff" stroke="#63b8ff" points="448.86,-111.6 459.42,-112.47 451.71,-105.21 448.86,-111.6"/>
</a>
</g>
</g>
<!-- Node10&#45;&gt;Node11 -->
<g id="edge14_Node000010_Node000011" class="edge">
<title>Node10&#45;&gt;Node11</title>
<g id="a_edge14_Node000010_Node000011"><a xlink:title=" ">
<path fill="none" stroke="#63b8ff" d="M677.62,-111.95C647.83,-103.28 611.69,-90.49 602.79,-77.5 584.52,-50.82 628.56,-30.68 660.99,-19.99"/>
<polygon fill="#63b8ff" stroke="#63b8ff" points="676.63,-115.3 687.2,-114.65 678.53,-108.57 676.63,-115.3"/>
</a>
</g>
</g>
<!-- Node12 -->
<g id="Node000012" class="node">
<title>Node12</title>
<g id="a_Node000012"><a xlink:href="module_2src_2module_8h.html" target="_top" xlink:title=" ">
<polygon fill="white" stroke="#666666" points="673.67,-77.5 611.92,-77.5 611.92,-56.75 673.67,-56.75 673.67,-77.5"/>
<text text-anchor="middle" x="642.79" y="-64" font-family="Helvetica,sans-Serif" font-size="10.00">module.h</text>
</a>
</g>
</g>
<!-- Node10&#45;&gt;Node12 -->
<g id="edge15_Node000010_Node000012" class="edge">
<title>Node10&#45;&gt;Node12</title>
<g id="a_edge15_Node000010_Node000012"><a xlink:title=" ">
<path fill="none" stroke="#63b8ff" d="M696.67,-106.44C683.55,-97.11 667.57,-85.75 656.44,-77.83"/>
<polygon fill="#63b8ff" stroke="#63b8ff" points="694.61,-109.27 704.79,-112.21 698.67,-103.56 694.61,-109.27"/>
</a>
</g>
</g>
<!-- Node10&#45;&gt;Node13 -->
<g id="edge17_Node000010_Node000013" class="edge">
<title>Node10&#45;&gt;Node13</title>
<g id="a_edge17_Node000010_Node000013"><a xlink:title=" ">
<path fill="none" stroke="#63b8ff" d="M747.44,-107.52C762.5,-98.97 781.37,-87.97 797.79,-77.5 827.62,-58.49 861.33,-34.36 879.49,-21.14"/>
<polygon fill="#63b8ff" stroke="#63b8ff" points="746.01,-104.31 739.01,-112.26 749.44,-110.41 746.01,-104.31"/>
</a>
</g>
</g>
<!-- Node14 -->
<g id="Node000014" class="node">
<title>Node14</title>
<g id="a_Node000014"><a xlink:href="state__machine_8h.html" target="_top" xlink:title=" ">
<polygon fill="white" stroke="#666666" points="788.29,-77.5 691.29,-77.5 691.29,-56.75 788.29,-56.75 788.29,-77.5"/>
<text text-anchor="middle" x="739.79" y="-64" font-family="Helvetica,sans-Serif" font-size="10.00">state_machine.h</text>
</a>
</g>
</g>
<!-- Node10&#45;&gt;Node14 -->
<g id="edge18_Node000010_Node000014" class="edge">
<title>Node10&#45;&gt;Node14</title>
<g id="a_edge18_Node000010_Node000014"><a xlink:title=" ">
<path fill="none" stroke="#63b8ff" d="M727.24,-102.49C730.32,-94.05 733.75,-84.66 736.25,-77.83"/>
<polygon fill="#63b8ff" stroke="#63b8ff" points="724.03,-101.07 723.89,-111.67 730.6,-103.47 724.03,-101.07"/>
</a>
</g>
</g>
<!-- Node12&#45;&gt;Node11 -->
<g id="edge16_Node000012_Node000011" class="edge">
<title>Node12&#45;&gt;Node11</title>
<g id="a_edge16_Node000012_Node000011"><a xlink:title=" ">
<path fill="none" stroke="#63b8ff" d="M658.99,-48.02C667.04,-39.03 676.44,-28.53 683.11,-21.08"/>
<polygon fill="#63b8ff" stroke="#63b8ff" points="656.62,-45.42 652.56,-55.21 661.84,-50.09 656.62,-45.42"/>
</a>
</g>
</g>
<!-- Node14&#45;&gt;Node11 -->
<g id="edge19_Node000014_Node000011" class="edge">
<title>Node14&#45;&gt;Node11</title>
<g id="a_edge19_Node000014_Node000011"><a xlink:title=" ">
<path fill="none" stroke="#63b8ff" d="M723.67,-47.74C715.85,-38.81 706.76,-28.45 700.3,-21.08"/>
<polygon fill="#63b8ff" stroke="#63b8ff" points="720.99,-49.99 730.21,-55.2 726.25,-45.37 720.99,-49.99"/>
</a>
</g>
</g>
<!-- Node14&#45;&gt;Node13 -->
<g id="edge20_Node000014_Node000013" class="edge">
<title>Node14&#45;&gt;Node13</title>
<g id="a_edge20_Node000014_Node000013"><a xlink:title=" ">
<path fill="none" stroke="#63b8ff" d="M777.84,-52.51C805.04,-42.78 841.01,-29.9 865.42,-21.17"/>
<polygon fill="#63b8ff" stroke="#63b8ff" points="776.81,-49.16 768.57,-55.83 779.16,-55.75 776.81,-49.16"/>
</a>
</g>
</g>
<!-- Node17 -->
<g id="Node000017" class="node">
<title>Node17</title>
<g id="a_Node000017"><a xlink:href="packet__parse_8c.html" target="_top" xlink:title=" ">
<polygon fill="white" stroke="#666666" points="224.17,-134.25 135.42,-134.25 135.42,-113.5 224.17,-113.5 224.17,-134.25"/>
<text text-anchor="middle" x="179.79" y="-120.75" font-family="Helvetica,sans-Serif" font-size="10.00">packet_parse.c</text>
</a>
</g>
</g>
<!-- Node16&#45;&gt;Node17 -->
<g id="edge25_Node000016_Node000017" class="edge">
<title>Node16&#45;&gt;Node17</title>
<g id="a_edge25_Node000016_Node000017"><a xlink:title=" ">
<path fill="none" stroke="#63b8ff" d="M180.4,-158.38C180.25,-150.16 180.09,-141.18 179.97,-134.58"/>
<polygon fill="#63b8ff" stroke="#63b8ff" points="176.9,-158.39 180.58,-168.32 183.9,-158.26 176.9,-158.39"/>
</a>
</g>
</g>
<!-- Node19&#45;&gt;Node10 -->
<g id="edge30_Node000019_Node000010" class="edge">
<title>Node19&#45;&gt;Node10</title>
<g id="a_edge30_Node000019_Node000010"><a xlink:title=" ">
<path fill="none" stroke="#63b8ff" d="M823.53,-165.74C798.82,-156 766.4,-143.23 744.43,-134.58"/>
<polygon fill="#63b8ff" stroke="#63b8ff" points="821.95,-168.87 832.53,-169.28 824.51,-162.36 821.95,-168.87"/>
</a>
</g>
</g>
<!-- Node19&#45;&gt;Node11 -->
<g id="edge29_Node000019_Node000011" class="edge">
<title>Node19&#45;&gt;Node11</title>
<g id="a_edge29_Node000019_Node000011"><a xlink:title=" ">
<path fill="none" stroke="#63b8ff" d="M853.46,-159.18C845.5,-132.38 828.11,-85.41 797.79,-56.75 776.7,-36.81 745.49,-24.9 722.4,-18.32"/>
<polygon fill="#63b8ff" stroke="#63b8ff" points="849.99,-159.79 856.05,-168.48 856.73,-157.91 849.99,-159.79"/>
</a>
</g>
</g>
<!-- Node19&#45;&gt;Node13 -->
<g id="edge31_Node000019_Node000013" class="edge">
<title>Node19&#45;&gt;Node13</title>
<g id="a_edge31_Node000019_Node000013"><a xlink:title=" ">
<path fill="none" stroke="#63b8ff" d="M868.19,-159.53C874.33,-146.42 882.53,-128.94 889.79,-113.5 897.32,-97.49 902.92,-94.77 906.79,-77.5 911.26,-57.58 903.19,-34.19 897.56,-21.25"/>
<polygon fill="#63b8ff" stroke="#63b8ff" points="865.12,-157.85 864.05,-168.39 871.46,-160.82 865.12,-157.85"/>
</a>
</g>
</g>
<!-- Node19&#45;&gt;Node18 -->
<g id="edge28_Node000019_Node000018" class="edge">
<title>Node19&#45;&gt;Node18</title>
<g id="a_edge28_Node000019_Node000018"><a xlink:title=" ">
<path fill="none" stroke="#63b8ff" d="M881.61,-163.19C894.56,-153.86 910.33,-142.5 921.32,-134.58"/>
<polygon fill="#63b8ff" stroke="#63b8ff" points="879.67,-160.27 873.61,-168.95 883.77,-165.95 879.67,-160.27"/>
</a>
</g>
</g>
<!-- Node20&#45;&gt;Node4 -->
<g id="edge37_Node000020_Node000004" class="edge">
<title>Node20&#45;&gt;Node4</title>
<g id="a_edge37_Node000020_Node000004"><a xlink:title=" ">
<path fill="none" stroke="#63b8ff" d="M637.76,-216.27C626.53,-185.23 604.16,-127.72 587.79,-113.5 551.74,-82.19 494.62,-72.48 462.27,-69.48"/>
<polygon fill="#63b8ff" stroke="#63b8ff" points="634.32,-217.05 640.97,-225.3 640.92,-214.71 634.32,-217.05"/>
</a>
</g>
</g>
<!-- Node20&#45;&gt;Node5 -->
<g id="edge38_Node000020_Node000005" class="edge">
<title>Node20&#45;&gt;Node5</title>
<g id="a_edge38_Node000020_Node000005"><a xlink:title=" ">
<path fill="none" stroke="#63b8ff" d="M605.5,-225.34C566.48,-214.39 507.84,-197.92 474.78,-188.64"/>
<polygon fill="#63b8ff" stroke="#63b8ff" points="604.41,-228.67 614.98,-228 606.3,-221.93 604.41,-228.67"/>
</a>
</g>
</g>
<!-- Node20&#45;&gt;Node7 -->
<g id="edge39_Node000020_Node000007" class="edge">
<title>Node20&#45;&gt;Node7</title>
<g id="a_edge39_Node000020_Node000007"><a xlink:title=" ">
<path fill="none" stroke="#63b8ff" d="M604.64,-233.06C558.02,-228.16 479.51,-216.64 416.79,-191 381.48,-176.57 345.33,-149.23 327.38,-134.64"/>
<polygon fill="#63b8ff" stroke="#63b8ff" points="604.26,-236.54 614.55,-234.04 604.95,-229.57 604.26,-236.54"/>
</a>
</g>
</g>
<!-- Node20&#45;&gt;Node9 -->
<g id="edge40_Node000020_Node000009" class="edge">
<title>Node20&#45;&gt;Node9</title>
<g id="a_edge40_Node000020_Node000009"><a xlink:title=" ">
<path fill="none" stroke="#63b8ff" d="M620.22,-220.53C606.98,-211.91 590.41,-201 575.79,-191 547.18,-171.43 514.22,-147.71 496.24,-134.67"/>
<polygon fill="#63b8ff" stroke="#63b8ff" points="618.05,-223.29 628.34,-225.79 621.86,-217.42 618.05,-223.29"/>
</a>
</g>
</g>
<!-- Node20&#45;&gt;Node11 -->
<g id="edge41_Node000020_Node000011" class="edge">
<title>Node20&#45;&gt;Node11</title>
<g id="a_edge41_Node000020_Node000011"><a xlink:title=" ">
<path fill="none" stroke="#63b8ff" d="M641.3,-215.72C638.87,-202.57 635.26,-185.25 630.79,-170.25 623.08,-144.32 618.58,-138.72 608.79,-113.5 602.58,-97.5 597.96,-94.37 594.79,-77.5 593.09,-68.44 589.84,-64.53 594.79,-56.75 609.26,-34.01 638.46,-22.47 661.06,-16.74"/>
<polygon fill="#63b8ff" stroke="#63b8ff" points="637.82,-216.11 643.01,-225.35 644.71,-214.89 637.82,-216.11"/>
</a>
</g>
</g>
<!-- Node20&#45;&gt;Node13 -->
<g id="edge44_Node000020_Node000013" class="edge">
<title>Node20&#45;&gt;Node13</title>
<g id="a_edge44_Node000020_Node000013"><a xlink:title=" ">
<path fill="none" stroke="#63b8ff" d="M682.27,-222.23C700.07,-214.51 721.06,-203.89 737.79,-191 806.64,-137.96 867.29,-50.33 886.49,-21.16"/>
<polygon fill="#63b8ff" stroke="#63b8ff" points="680.95,-218.99 673.07,-226.07 683.64,-225.45 680.95,-218.99"/>
</a>
</g>
</g>
<!-- Node20&#45;&gt;Node15 -->
<g id="edge42_Node000020_Node000015" class="edge">
<title>Node20&#45;&gt;Node15</title>
<g id="a_edge42_Node000020_Node000015"><a xlink:title=" ">
<path fill="none" stroke="#63b8ff" d="M622.23,-219.84C612.38,-211.87 601.19,-201.72 592.79,-191 578.63,-172.91 567.72,-148.01 562.39,-134.51"/>
<polygon fill="#63b8ff" stroke="#63b8ff" points="619.89,-222.45 629.93,-225.83 624.19,-216.93 619.89,-222.45"/>
</a>
</g>
</g>
<!-- Node20&#45;&gt;Node18 -->
<g id="edge35_Node000020_Node000018" class="edge">
<title>Node20&#45;&gt;Node18</title>
<g id="a_edge35_Node000020_Node000018"><a xlink:title=" ">
<path fill="none" stroke="#63b8ff" d="M684.32,-233.87C748.1,-229.11 870,-216.85 903.79,-191 922.12,-176.98 930.06,-149.47 933.11,-134.74"/>
<polygon fill="#63b8ff" stroke="#63b8ff" points="684.36,-230.36 674.63,-234.56 684.86,-237.34 684.36,-230.36"/>
</a>
</g>
</g>
<!-- Node20&#45;&gt;Node19 -->
<g id="edge36_Node000020_Node000019" class="edge">
<title>Node20&#45;&gt;Node19</title>
<g id="a_edge36_Node000020_Node000019"><a xlink:title=" ">
<path fill="none" stroke="#63b8ff" d="M684.26,-226.28C723.75,-216.18 783.99,-200.76 822.37,-190.94"/>
<polygon fill="#63b8ff" stroke="#63b8ff" points="683.5,-222.86 674.68,-228.73 685.23,-229.64 683.5,-222.86"/>
</a>
</g>
</g>
<!-- Node21 -->
<g id="Node000021" class="node">
<title>Node21</title>
<g id="a_Node000021"><a xlink:href="socket_8c.html" target="_top" xlink:title=" ">
<polygon fill="white" stroke="#666666" points="728.67,-191 672.92,-191 672.92,-170.25 728.67,-170.25 728.67,-191"/>
<text text-anchor="middle" x="700.79" y="-177.5" font-family="Helvetica,sans-Serif" font-size="10.00">socket.c</text>
</a>
</g>
</g>
<!-- Node20&#45;&gt;Node21 -->
<g id="edge43_Node000020_Node000021" class="edge">
<title>Node20&#45;&gt;Node21</title>
<g id="a_edge43_Node000020_Node000021"><a xlink:title=" ">
<path fill="none" stroke="#63b8ff" d="M663.02,-218.55C672.28,-209.5 683.17,-198.86 690.87,-191.33"/>
<polygon fill="#63b8ff" stroke="#63b8ff" points="660.59,-216.04 655.89,-225.53 665.48,-221.04 660.59,-216.04"/>
</a>
</g>
</g>
<!-- Node22&#45;&gt;Node10 -->
<g id="edge47_Node000022_Node000010" class="edge">
<title>Node22&#45;&gt;Node10</title>
<g id="a_edge47_Node000022_Node000010"><a xlink:title=" ">
<path fill="none" stroke="#63b8ff" d="M786.44,-217.76C769.28,-193.86 740.15,-153.25 726.82,-134.68"/>
<polygon fill="#63b8ff" stroke="#63b8ff" points="783.41,-219.55 792.09,-225.64 789.1,-215.47 783.41,-219.55"/>
</a>
</g>
</g>
</g>
</svg>
