<?xml version="1.0" encoding="UTF-8" standalone="no"?>
<!DOCTYPE svg PUBLIC "-//W3C//DTD SVG 1.1//EN"
 "http://www.w3.org/Graphics/SVG/1.1/DTD/svg11.dtd">
<!-- Generated by graphviz version 12.1.2 (20240928.0832)
 -->
<!-- Title: interface.h Pages: 1 -->
<svg width="934pt" height="313pt"
 viewBox="0.00 0.00 934.00 312.50" xmlns="http://www.w3.org/2000/svg" xmlns:xlink="http://www.w3.org/1999/xlink">
<g id="graph0" class="graph" transform="scale(1 1) rotate(0) translate(4 308.5)">
<title>interface.h</title>
<!-- Node1 -->
<g id="Node000001" class="node">
<title>Node1</title>
<g id="a_Node000001"><a xlink:title=" ">
<polygon fill="#999999" stroke="#666666" points="647.25,-304.5 578.75,-304.5 578.75,-283.75 647.25,-283.75 647.25,-304.5"/>
<text text-anchor="middle" x="613" y="-291" font-family="Helvetica,sans-Serif" font-size="10.00">interface.h</text>
</a>
</g>
</g>
<!-- Node2 -->
<g id="Node000002" class="node">
<title>Node2</title>
<g id="a_Node000002"><a xlink:href="adapter_8h.html" target="_top" xlink:title=" ">
<polygon fill="white" stroke="#666666" points="332.88,-247.75 271.12,-247.75 271.12,-227 332.88,-227 332.88,-247.75"/>
<text text-anchor="middle" x="302" y="-234.25" font-family="Helvetica,sans-Serif" font-size="10.00">adapter.h</text>
</a>
</g>
</g>
<!-- Node1&#45;&gt;Node2 -->
<g id="edge1_Node000001_Node000002" class="edge">
<title>Node1&#45;&gt;Node2</title>
<g id="a_edge1_Node000001_Node000002"><a xlink:title=" ">
<path fill="none" stroke="#63b8ff" d="M567.58,-285.13C503.62,-273.87 388.65,-253.63 333.36,-243.9"/>
<polygon fill="#63b8ff" stroke="#63b8ff" points="566.58,-288.51 577.04,-286.79 567.8,-281.61 566.58,-288.51"/>
</a>
</g>
</g>
<!-- Node8 -->
<g id="Node000008" class="node">
<title>Node8</title>
<g id="a_Node000008"><a xlink:href="iface__vlcb_8c.html" target="_top" xlink:title=" ">
<polygon fill="white" stroke="#666666" points="181.88,-77.5 108.12,-77.5 108.12,-56.75 181.88,-56.75 181.88,-77.5"/>
<text text-anchor="middle" x="145" y="-64" font-family="Helvetica,sans-Serif" font-size="10.00">iface_vlcb.c</text>
</a>
</g>
</g>
<!-- Node1&#45;&gt;Node8 -->
<g id="edge32_Node000001_Node000008" class="edge">
<title>Node1&#45;&gt;Node8</title>
<g id="a_edge32_Node000001_Node000008"><a xlink:title=" ">
<path fill="none" stroke="#63b8ff" d="M567.06,-292.24C445.16,-288.78 118.61,-271.98 57,-191 49.24,-180.8 38.27,-145.4 58,-113.5 69.02,-95.68 89.53,-84.51 107.88,-77.71"/>
<polygon fill="#63b8ff" stroke="#63b8ff" points="566.94,-295.73 577.03,-292.5 567.12,-288.74 566.94,-295.73"/>
</a>
</g>
</g>
<!-- Node11 -->
<g id="Node000011" class="node">
<title>Node11</title>
<g id="a_Node000011"><a xlink:href="module_8c.html" target="_top" xlink:title=" ">
<polygon fill="white" stroke="#666666" points="598.5,-20.75 537.5,-20.75 537.5,0 598.5,0 598.5,-20.75"/>
<text text-anchor="middle" x="568" y="-7.25" font-family="Helvetica,sans-Serif" font-size="10.00">module.c</text>
</a>
</g>
</g>
<!-- Node1&#45;&gt;Node11 -->
<g id="edge33_Node000001_Node000011" class="edge">
<title>Node1&#45;&gt;Node11</title>
<g id="a_edge33_Node000001_Node000011"><a xlink:title=" ">
<path fill="none" stroke="#63b8ff" d="M567.1,-291.64C459.45,-287.74 193.47,-275.51 109,-247.75 55.17,-230.06 0,-238.29 0,-181.62 0,-181.62 0,-181.62 0,-122.88 0,-12.46 418.53,-9.45 537.06,-10.81"/>
<polygon fill="#63b8ff" stroke="#63b8ff" points="566.89,-295.14 577.01,-291.99 567.14,-288.14 566.89,-295.14"/>
</a>
</g>
</g>
<!-- Node13 -->
<g id="Node000013" class="node">
<title>Node13</title>
<g id="a_Node000013"><a xlink:href="state__machine_8c.html" target="_top" xlink:title=" ">
<polygon fill="white" stroke="#666666" points="846.12,-20.75 749.88,-20.75 749.88,0 846.12,0 846.12,-20.75"/>
<text text-anchor="middle" x="798" y="-7.25" font-family="Helvetica,sans-Serif" font-size="10.00">state_machine.c</text>
</a>
</g>
</g>
<!-- Node1&#45;&gt;Node13 -->
<g id="edge42_Node000001_Node000013" class="edge">
<title>Node1&#45;&gt;Node13</title>
<g id="a_edge42_Node000001_Node000013"><a xlink:title=" ">
<path fill="none" stroke="#63b8ff" d="M658.81,-286.58C745.74,-272.86 926,-237.66 926,-181.62 926,-181.62 926,-181.62 926,-122.88 926,-69.97 863.07,-36.44 825.46,-21.12"/>
<polygon fill="#63b8ff" stroke="#63b8ff" points="658.54,-283.08 649.19,-288.06 659.61,-290 658.54,-283.08"/>
</a>
</g>
</g>
<!-- Node18 -->
<g id="Node000018" class="node">
<title>Node18</title>
<g id="a_Node000018"><a xlink:href="socket_2datagram_8c.html" target="_top" xlink:title=" ">
<polygon fill="white" stroke="#666666" points="859.75,-134.25 788.25,-134.25 788.25,-113.5 859.75,-113.5 859.75,-134.25"/>
<text text-anchor="middle" x="824" y="-120.75" font-family="Helvetica,sans-Serif" font-size="10.00">datagram.c</text>
</a>
</g>
</g>
<!-- Node1&#45;&gt;Node18 -->
<g id="edge26_Node000001_Node000018" class="edge">
<title>Node1&#45;&gt;Node18</title>
<g id="a_edge26_Node000001_Node000018"><a xlink:title=" ">
<path fill="none" stroke="#63b8ff" d="M658.49,-286.95C711.11,-277.06 795.08,-252.09 831,-191 841.42,-173.29 833.96,-148.24 828.45,-134.62"/>
<polygon fill="#63b8ff" stroke="#63b8ff" points="658.18,-283.45 648.94,-288.63 659.4,-290.35 658.18,-283.45"/>
</a>
</g>
</g>
<!-- Node19 -->
<g id="Node000019" class="node">
<title>Node19</title>
<g id="a_Node000019"><a xlink:href="socket_2datagram_8h.html" target="_top" xlink:title=" ">
<polygon fill="white" stroke="#666666" points="710.12,-191 637.88,-191 637.88,-170.25 710.12,-170.25 710.12,-191"/>
<text text-anchor="middle" x="674" y="-177.5" font-family="Helvetica,sans-Serif" font-size="10.00">datagram.h</text>
</a>
</g>
</g>
<!-- Node1&#45;&gt;Node19 -->
<g id="edge27_Node000001_Node000019" class="edge">
<title>Node1&#45;&gt;Node19</title>
<g id="a_edge27_Node000001_Node000019"><a xlink:title=" ">
<path fill="none" stroke="#63b8ff" d="M623.71,-273.54C636.85,-249.52 658.61,-209.75 668.64,-191.43"/>
<polygon fill="#63b8ff" stroke="#63b8ff" points="620.66,-271.84 618.93,-282.29 626.8,-275.2 620.66,-271.84"/>
</a>
</g>
</g>
<!-- Node20 -->
<g id="Node000020" class="node">
<title>Node20</title>
<g id="a_Node000020"><a xlink:href="socket_8h.html" target="_top" xlink:title=" ">
<polygon fill="white" stroke="#666666" points="720.25,-247.75 663.75,-247.75 663.75,-227 720.25,-227 720.25,-247.75"/>
<text text-anchor="middle" x="692" y="-234.25" font-family="Helvetica,sans-Serif" font-size="10.00">socket.h</text>
</a>
</g>
</g>
<!-- Node1&#45;&gt;Node20 -->
<g id="edge34_Node000001_Node000020" class="edge">
<title>Node1&#45;&gt;Node20</title>
<g id="a_edge34_Node000001_Node000020"><a xlink:title=" ">
<path fill="none" stroke="#63b8ff" d="M636.32,-276.96C649.86,-267.58 666.46,-256.07 678,-248.08"/>
<polygon fill="#63b8ff" stroke="#63b8ff" points="634.59,-273.9 628.37,-282.47 638.58,-279.66 634.59,-273.9"/>
</a>
</g>
</g>
<!-- Node22 -->
<g id="Node000022" class="node">
<title>Node22</title>
<g id="a_Node000022"><a xlink:href="ui_8h.html" target="_top" xlink:title=" ">
<polygon fill="white" stroke="#666666" points="608,-247.75 574,-247.75 574,-227 608,-227 608,-247.75"/>
<text text-anchor="middle" x="591" y="-234.25" font-family="Helvetica,sans-Serif" font-size="10.00">ui.h</text>
</a>
</g>
</g>
<!-- Node1&#45;&gt;Node22 -->
<g id="edge43_Node000001_Node000022" class="edge">
<title>Node1&#45;&gt;Node22</title>
<g id="a_edge43_Node000001_Node000022"><a xlink:title=" ">
<path fill="none" stroke="#63b8ff" d="M604.81,-272.74C601.42,-264.3 597.64,-254.91 594.9,-248.08"/>
<polygon fill="#63b8ff" stroke="#63b8ff" points="601.53,-273.96 608.5,-281.93 608.02,-271.35 601.53,-273.96"/>
</a>
</g>
</g>
<!-- Node3 -->
<g id="Node000003" class="node">
<title>Node3</title>
<g id="a_Node000003"><a xlink:href="adapter_8c.html" target="_top" xlink:title=" ">
<polygon fill="white" stroke="#666666" points="273.5,-191 212.5,-191 212.5,-170.25 273.5,-170.25 273.5,-191"/>
<text text-anchor="middle" x="243" y="-177.5" font-family="Helvetica,sans-Serif" font-size="10.00">adapter.c</text>
</a>
</g>
</g>
<!-- Node2&#45;&gt;Node3 -->
<g id="edge2_Node000002_Node000003" class="edge">
<title>Node2&#45;&gt;Node3</title>
<g id="a_edge2_Node000002_Node000003"><a xlink:title=" ">
<path fill="none" stroke="#63b8ff" d="M283.09,-218.83C273.28,-209.72 261.65,-198.93 253.46,-191.33"/>
<polygon fill="#63b8ff" stroke="#63b8ff" points="280.63,-221.32 290.34,-225.56 285.39,-216.19 280.63,-221.32"/>
</a>
</g>
</g>
<!-- Node4 -->
<g id="Node000004" class="node">
<title>Node4</title>
<g id="a_Node000004"><a xlink:href="iface_8c.html" target="_top" xlink:title=" ">
<polygon fill="white" stroke="#666666" points="364.12,-77.5 315.88,-77.5 315.88,-56.75 364.12,-56.75 364.12,-77.5"/>
<text text-anchor="middle" x="340" y="-64" font-family="Helvetica,sans-Serif" font-size="10.00">iface.c</text>
</a>
</g>
</g>
<!-- Node2&#45;&gt;Node4 -->
<g id="edge3_Node000002_Node000004" class="edge">
<title>Node2&#45;&gt;Node4</title>
<g id="a_edge3_Node000002_Node000004"><a xlink:title=" ">
<path fill="none" stroke="#63b8ff" d="M305.36,-215.62C309.49,-191.07 317.07,-149.04 326,-113.5 329.13,-101.03 333.65,-86.91 336.69,-77.78"/>
<polygon fill="#63b8ff" stroke="#63b8ff" points="301.95,-214.81 303.77,-225.25 308.85,-215.95 301.95,-214.81"/>
</a>
</g>
</g>
<!-- Node5 -->
<g id="Node000005" class="node">
<title>Node5</title>
<g id="a_Node000005"><a xlink:href="iface_8h.html" target="_top" xlink:title=" ">
<polygon fill="white" stroke="#666666" points="524.5,-191 475.5,-191 475.5,-170.25 524.5,-170.25 524.5,-191"/>
<text text-anchor="middle" x="500" y="-177.5" font-family="Helvetica,sans-Serif" font-size="10.00">iface.h</text>
</a>
</g>
</g>
<!-- Node2&#45;&gt;Node5 -->
<g id="edge4_Node000002_Node000005" class="edge">
<title>Node2&#45;&gt;Node5</title>
<g id="a_edge4_Node000002_Node000005"><a xlink:title=" ">
<path fill="none" stroke="#63b8ff" d="M344.31,-224.67C384.07,-213.68 442.22,-197.6 475.04,-188.53"/>
<polygon fill="#63b8ff" stroke="#63b8ff" points="343.54,-221.26 334.83,-227.3 345.4,-228 343.54,-221.26"/>
</a>
</g>
</g>
<!-- Node6 -->
<g id="Node000006" class="node">
<title>Node6</title>
<g id="a_Node000006"><a xlink:href="iface__can_8c.html" target="_top" xlink:title=" ">
<polygon fill="white" stroke="#666666" points="460.38,-77.5 389.62,-77.5 389.62,-56.75 460.38,-56.75 460.38,-77.5"/>
<text text-anchor="middle" x="425" y="-64" font-family="Helvetica,sans-Serif" font-size="10.00">iface_can.c</text>
</a>
</g>
</g>
<!-- Node2&#45;&gt;Node6 -->
<g id="edge22_Node000002_Node000006" class="edge">
<title>Node2&#45;&gt;Node6</title>
<g id="a_edge22_Node000002_Node000006"><a xlink:title=" ">
<path fill="none" stroke="#63b8ff" d="M315.44,-217.99C341.44,-182.43 397.83,-105.3 417.8,-77.97"/>
<polygon fill="#63b8ff" stroke="#63b8ff" points="312.93,-215.49 309.86,-225.63 318.59,-219.62 312.93,-215.49"/>
</a>
</g>
</g>
<!-- Node7 -->
<g id="Node000007" class="node">
<title>Node7</title>
<g id="a_Node000007"><a xlink:href="iface__can_8h.html" target="_top" xlink:title=" ">
<polygon fill="white" stroke="#666666" points="259.75,-134.25 188.25,-134.25 188.25,-113.5 259.75,-113.5 259.75,-134.25"/>
<text text-anchor="middle" x="224" y="-120.75" font-family="Helvetica,sans-Serif" font-size="10.00">iface_can.h</text>
</a>
</g>
</g>
<!-- Node2&#45;&gt;Node7 -->
<g id="edge23_Node000002_Node000007" class="edge">
<title>Node2&#45;&gt;Node7</title>
<g id="a_edge23_Node000002_Node000007"><a xlink:title=" ">
<path fill="none" stroke="#63b8ff" d="M260.14,-228.08C239.49,-221.65 216.41,-210.42 204,-191 192.5,-173.01 206.66,-148.07 216.36,-134.54"/>
<polygon fill="#63b8ff" stroke="#63b8ff" points="258.93,-231.38 269.5,-230.69 260.81,-224.63 258.93,-231.38"/>
</a>
</g>
</g>
<!-- Node16 -->
<g id="Node000016" class="node">
<title>Node16</title>
<g id="a_Node000016"><a xlink:href="packet__parse_8h.html" target="_top" xlink:title=" ">
<polygon fill="white" stroke="#666666" points="155.75,-191 66.25,-191 66.25,-170.25 155.75,-170.25 155.75,-191"/>
<text text-anchor="middle" x="111" y="-177.5" font-family="Helvetica,sans-Serif" font-size="10.00">packet_parse.h</text>
</a>
</g>
</g>
<!-- Node2&#45;&gt;Node16 -->
<g id="edge24_Node000002_Node000016" class="edge">
<title>Node2&#45;&gt;Node16</title>
<g id="a_edge24_Node000002_Node000016"><a xlink:title=" ">
<path fill="none" stroke="#63b8ff" d="M260.23,-224.4C225.79,-214.53 177.54,-200.7 145.33,-191.47"/>
<polygon fill="#63b8ff" stroke="#63b8ff" points="258.86,-227.65 269.43,-227.04 260.78,-220.92 258.86,-227.65"/>
</a>
</g>
</g>
<!-- Node5&#45;&gt;Node4 -->
<g id="edge5_Node000005_Node000004" class="edge">
<title>Node5&#45;&gt;Node4</title>
<g id="a_edge5_Node000005_Node000004"><a xlink:title=" ">
<path fill="none" stroke="#63b8ff" d="M476.99,-163.59C443.31,-140.12 381.61,-97.12 354,-77.88"/>
<polygon fill="#63b8ff" stroke="#63b8ff" points="474.63,-166.21 484.84,-169.06 478.64,-160.47 474.63,-166.21"/>
</a>
</g>
</g>
<!-- Node5&#45;&gt;Node6 -->
<g id="edge6_Node000005_Node000006" class="edge">
<title>Node5&#45;&gt;Node6</title>
<g id="a_edge6_Node000005_Node000006"><a xlink:title=" ">
<path fill="none" stroke="#63b8ff" d="M516.43,-161.51C526.88,-147.69 536.77,-128.54 527,-113.5 518.84,-100.94 483.38,-87.02 456.54,-77.95"/>
<polygon fill="#63b8ff" stroke="#63b8ff" points="513.97,-159 510.3,-168.94 519.37,-163.45 513.97,-159"/>
</a>
</g>
</g>
<!-- Node5&#45;&gt;Node7 -->
<g id="edge7_Node000005_Node000007" class="edge">
<title>Node5&#45;&gt;Node7</title>
<g id="a_edge7_Node000005_Node000007"><a xlink:title=" ">
<path fill="none" stroke="#63b8ff" d="M463.81,-172.45C410.82,-161.93 312.7,-142.47 259.89,-131.99"/>
<polygon fill="#63b8ff" stroke="#63b8ff" points="463.05,-175.86 473.54,-174.38 464.41,-169 463.05,-175.86"/>
</a>
</g>
</g>
<!-- Node9 -->
<g id="Node000009" class="node">
<title>Node9</title>
<g id="a_Node000009"><a xlink:href="iface__vlcb_8h.html" target="_top" xlink:title=" ">
<polygon fill="white" stroke="#666666" points="518.25,-134.25 443.75,-134.25 443.75,-113.5 518.25,-113.5 518.25,-134.25"/>
<text text-anchor="middle" x="481" y="-120.75" font-family="Helvetica,sans-Serif" font-size="10.00">iface_vlcb.h</text>
</a>
</g>
</g>
<!-- Node5&#45;&gt;Node9 -->
<g id="edge10_Node000005_Node000009" class="edge">
<title>Node5&#45;&gt;Node9</title>
<g id="a_edge10_Node000005_Node000009"><a xlink:title=" ">
<path fill="none" stroke="#63b8ff" d="M492.93,-159.24C490,-150.8 486.74,-141.41 484.37,-134.58"/>
<polygon fill="#63b8ff" stroke="#63b8ff" points="489.52,-160.11 496.11,-168.41 496.13,-157.81 489.52,-160.11"/>
</a>
</g>
</g>
<!-- Node10 -->
<g id="Node000010" class="node">
<title>Node10</title>
<g id="a_Node000010"><a xlink:href="module_2inc_2vlcb_2module_8h.html" target="_top" xlink:title=" ">
<polygon fill="white" stroke="#666666" points="693.88,-134.25 632.12,-134.25 632.12,-113.5 693.88,-113.5 693.88,-134.25"/>
<text text-anchor="middle" x="663" y="-120.75" font-family="Helvetica,sans-Serif" font-size="10.00">module.h</text>
</a>
</g>
</g>
<!-- Node5&#45;&gt;Node10 -->
<g id="edge13_Node000005_Node000010" class="edge">
<title>Node5&#45;&gt;Node10</title>
<g id="a_edge13_Node000005_Node000010"><a xlink:title=" ">
<path fill="none" stroke="#63b8ff" d="M535.41,-167.73C564.87,-157.84 606.31,-143.92 633.87,-134.66"/>
<polygon fill="#63b8ff" stroke="#63b8ff" points="534.56,-164.33 526.19,-170.83 536.78,-170.96 534.56,-164.33"/>
</a>
</g>
</g>
<!-- Node15 -->
<g id="Node000015" class="node">
<title>Node15</title>
<g id="a_Node000015"><a xlink:href="net_2inc_2vlcb_2net_8h.html" target="_top" xlink:title=" ">
<polygon fill="white" stroke="#666666" points="614.38,-134.25 573.62,-134.25 573.62,-113.5 614.38,-113.5 614.38,-134.25"/>
<text text-anchor="middle" x="594" y="-120.75" font-family="Helvetica,sans-Serif" font-size="10.00">net.h</text>
</a>
</g>
</g>
<!-- Node5&#45;&gt;Node15 -->
<g id="edge21_Node000005_Node000015" class="edge">
<title>Node5&#45;&gt;Node15</title>
<g id="a_edge21_Node000005_Node000015"><a xlink:title=" ">
<path fill="none" stroke="#63b8ff" d="M526.35,-164.28C542.7,-154.75 563.21,-142.81 577.34,-134.58"/>
<polygon fill="#63b8ff" stroke="#63b8ff" points="524.99,-161.02 518.11,-169.08 528.52,-167.07 524.99,-161.02"/>
</a>
</g>
</g>
<!-- Node7&#45;&gt;Node4 -->
<g id="edge8_Node000007_Node000004" class="edge">
<title>Node7&#45;&gt;Node4</title>
<g id="a_edge8_Node000007_Node000004"><a xlink:title=" ">
<path fill="none" stroke="#63b8ff" d="M255.1,-108.2C275.5,-98.57 301.6,-86.25 319.44,-77.83"/>
<polygon fill="#63b8ff" stroke="#63b8ff" points="253.66,-105.01 246.11,-112.44 256.64,-111.34 253.66,-105.01"/>
</a>
</g>
</g>
<!-- Node7&#45;&gt;Node8 -->
<g id="edge9_Node000007_Node000008" class="edge">
<title>Node7&#45;&gt;Node8</title>
<g id="a_edge9_Node000007_Node000008"><a xlink:title=" ">
<path fill="none" stroke="#63b8ff" d="M200.68,-106.71C187.14,-97.33 170.54,-85.82 159,-77.83"/>
<polygon fill="#63b8ff" stroke="#63b8ff" points="198.42,-109.41 208.63,-112.22 202.41,-103.65 198.42,-109.41"/>
</a>
</g>
</g>
<!-- Node9&#45;&gt;Node4 -->
<g id="edge11_Node000009_Node000004" class="edge">
<title>Node9&#45;&gt;Node4</title>
<g id="a_edge11_Node000009_Node000004"><a xlink:title=" ">
<path fill="none" stroke="#63b8ff" d="M445.17,-108.96C419.92,-99.16 386.79,-86.29 364.52,-77.65"/>
<polygon fill="#63b8ff" stroke="#63b8ff" points="443.79,-112.18 454.38,-112.54 446.33,-105.66 443.79,-112.18"/>
</a>
</g>
</g>
<!-- Node9&#45;&gt;Node6 -->
<g id="edge12_Node000009_Node000006" class="edge">
<title>Node9&#45;&gt;Node6</title>
<g id="a_edge12_Node000009_Node000006"><a xlink:title=" ">
<path fill="none" stroke="#63b8ff" d="M462.77,-105.05C453.51,-96 442.63,-85.36 434.93,-77.83"/>
<polygon fill="#63b8ff" stroke="#63b8ff" points="460.31,-107.54 469.91,-112.03 465.2,-102.54 460.31,-107.54"/>
</a>
</g>
</g>
<!-- Node10&#45;&gt;Node11 -->
<g id="edge14_Node000010_Node000011" class="edge">
<title>Node10&#45;&gt;Node11</title>
<g id="a_edge14_Node000010_Node000011"><a xlink:title=" ">
<path fill="none" stroke="#63b8ff" d="M627.44,-108.22C613.4,-100.85 598.21,-90.65 588,-77.5 574.76,-60.45 570.25,-34.68 568.74,-20.89"/>
<polygon fill="#63b8ff" stroke="#63b8ff" points="625.5,-111.17 636.02,-112.42 628.58,-104.88 625.5,-111.17"/>
</a>
</g>
</g>
<!-- Node12 -->
<g id="Node000012" class="node">
<title>Node12</title>
<g id="a_Node000012"><a xlink:href="module_2src_2module_8h.html" target="_top" xlink:title=" ">
<polygon fill="white" stroke="#666666" points="539.88,-77.5 478.12,-77.5 478.12,-56.75 539.88,-56.75 539.88,-77.5"/>
<text text-anchor="middle" x="509" y="-64" font-family="Helvetica,sans-Serif" font-size="10.00">module.h</text>
</a>
</g>
</g>
<!-- Node10&#45;&gt;Node12 -->
<g id="edge15_Node000010_Node000012" class="edge">
<title>Node10&#45;&gt;Node12</title>
<g id="a_edge15_Node000010_Node000012"><a xlink:title=" ">
<path fill="none" stroke="#63b8ff" d="M624.71,-109.26C597.33,-99.53 561.12,-86.65 536.55,-77.92"/>
<polygon fill="#63b8ff" stroke="#63b8ff" points="623.45,-112.53 634.04,-112.58 625.79,-105.93 623.45,-112.53"/>
</a>
</g>
</g>
<!-- Node10&#45;&gt;Node13 -->
<g id="edge17_Node000010_Node000013" class="edge">
<title>Node10&#45;&gt;Node13</title>
<g id="a_edge17_Node000010_Node000013"><a xlink:title=" ">
<path fill="none" stroke="#63b8ff" d="M683.26,-106.14C711.83,-82.55 763.04,-40.25 786.13,-21.18"/>
<polygon fill="#63b8ff" stroke="#63b8ff" points="681.16,-103.34 675.68,-112.4 685.62,-108.74 681.16,-103.34"/>
</a>
</g>
</g>
<!-- Node14 -->
<g id="Node000014" class="node">
<title>Node14</title>
<g id="a_Node000014"><a xlink:href="state__machine_8h.html" target="_top" xlink:title=" ">
<polygon fill="white" stroke="#666666" points="693.5,-77.5 596.5,-77.5 596.5,-56.75 693.5,-56.75 693.5,-77.5"/>
<text text-anchor="middle" x="645" y="-64" font-family="Helvetica,sans-Serif" font-size="10.00">state_machine.h</text>
</a>
</g>
</g>
<!-- Node10&#45;&gt;Node14 -->
<g id="edge18_Node000010_Node000014" class="edge">
<title>Node10&#45;&gt;Node14</title>
<g id="a_edge18_Node000010_Node000014"><a xlink:title=" ">
<path fill="none" stroke="#63b8ff" d="M656.2,-102.21C653.45,-93.84 650.41,-84.58 648.19,-77.83"/>
<polygon fill="#63b8ff" stroke="#63b8ff" points="652.86,-103.24 659.31,-111.65 659.51,-101.06 652.86,-103.24"/>
</a>
</g>
</g>
<!-- Node12&#45;&gt;Node11 -->
<g id="edge16_Node000012_Node000011" class="edge">
<title>Node12&#45;&gt;Node11</title>
<g id="a_edge16_Node000012_Node000011"><a xlink:title=" ">
<path fill="none" stroke="#63b8ff" d="M527.91,-48.58C537.72,-39.47 549.35,-28.68 557.54,-21.08"/>
<polygon fill="#63b8ff" stroke="#63b8ff" points="525.61,-45.94 520.66,-55.31 530.37,-51.07 525.61,-45.94"/>
</a>
</g>
</g>
<!-- Node14&#45;&gt;Node11 -->
<g id="edge19_Node000014_Node000011" class="edge">
<title>Node14&#45;&gt;Node11</title>
<g id="a_edge19_Node000014_Node000011"><a xlink:title=" ">
<path fill="none" stroke="#63b8ff" d="M621.88,-49.69C608.76,-40.36 592.78,-29 581.65,-21.08"/>
<polygon fill="#63b8ff" stroke="#63b8ff" points="619.82,-52.52 630,-55.46 623.88,-46.81 619.82,-52.52"/>
</a>
</g>
</g>
<!-- Node14&#45;&gt;Node13 -->
<g id="edge20_Node000014_Node000013" class="edge">
<title>Node14&#45;&gt;Node13</title>
<g id="a_edge20_Node000014_Node000013"><a xlink:title=" ">
<path fill="none" stroke="#63b8ff" d="M683.04,-52.51C710.25,-42.78 746.22,-29.9 770.63,-21.17"/>
<polygon fill="#63b8ff" stroke="#63b8ff" points="682.01,-49.16 673.78,-55.83 684.37,-55.75 682.01,-49.16"/>
</a>
</g>
</g>
<!-- Node17 -->
<g id="Node000017" class="node">
<title>Node17</title>
<g id="a_Node000017"><a xlink:href="packet__parse_8c.html" target="_top" xlink:title=" ">
<polygon fill="white" stroke="#666666" points="155.38,-134.25 66.62,-134.25 66.62,-113.5 155.38,-113.5 155.38,-134.25"/>
<text text-anchor="middle" x="111" y="-120.75" font-family="Helvetica,sans-Serif" font-size="10.00">packet_parse.c</text>
</a>
</g>
</g>
<!-- Node16&#45;&gt;Node17 -->
<g id="edge25_Node000016_Node000017" class="edge">
<title>Node16&#45;&gt;Node17</title>
<g id="a_edge25_Node000016_Node000017"><a xlink:title=" ">
<path fill="none" stroke="#63b8ff" d="M111,-158.38C111,-150.16 111,-141.18 111,-134.58"/>
<polygon fill="#63b8ff" stroke="#63b8ff" points="107.5,-158.32 111,-168.32 114.5,-158.32 107.5,-158.32"/>
</a>
</g>
</g>
<!-- Node19&#45;&gt;Node10 -->
<g id="edge30_Node000019_Node000010" class="edge">
<title>Node19&#45;&gt;Node10</title>
<g id="a_edge30_Node000019_Node000010"><a xlink:title=" ">
<path fill="none" stroke="#63b8ff" d="M669.79,-158.67C668.12,-150.38 666.29,-141.25 664.95,-134.58"/>
<polygon fill="#63b8ff" stroke="#63b8ff" points="666.33,-159.24 671.74,-168.35 673.2,-157.86 666.33,-159.24"/>
</a>
</g>
</g>
<!-- Node19&#45;&gt;Node11 -->
<g id="edge29_Node000019_Node000011" class="edge">
<title>Node19&#45;&gt;Node11</title>
<g id="a_edge29_Node000019_Node000011"><a xlink:title=" ">
<path fill="none" stroke="#63b8ff" d="M689.39,-160.87C694.8,-153.12 700.23,-143.73 703,-134.25 712.66,-101.19 723.11,-84.72 703,-56.75 679.4,-23.92 630.88,-14.52 598.9,-12.01"/>
<polygon fill="#63b8ff" stroke="#63b8ff" points="686.64,-158.7 683.41,-168.79 692.23,-162.92 686.64,-158.7"/>
</a>
</g>
</g>
<!-- Node19&#45;&gt;Node13 -->
<g id="edge31_Node000019_Node000013" class="edge">
<title>Node19&#45;&gt;Node13</title>
<g id="a_edge31_Node000019_Node000013"><a xlink:title=" ">
<path fill="none" stroke="#63b8ff" d="M693.62,-162.16C702.18,-154.08 712.05,-144.1 720,-134.25 751.58,-95.12 781.19,-42.58 792.82,-21.12"/>
<polygon fill="#63b8ff" stroke="#63b8ff" points="691.4,-159.44 686.42,-168.79 696.15,-164.59 691.4,-159.44"/>
</a>
</g>
</g>
<!-- Node19&#45;&gt;Node18 -->
<g id="edge28_Node000019_Node000018" class="edge">
<title>Node19&#45;&gt;Node18</title>
<g id="a_edge28_Node000019_Node000018"><a xlink:title=" ">
<path fill="none" stroke="#63b8ff" d="M711.3,-166.01C737.97,-156.28 773.23,-143.4 797.16,-134.67"/>
<polygon fill="#63b8ff" stroke="#63b8ff" points="710.43,-162.6 702.24,-169.32 712.83,-169.18 710.43,-162.6"/>
</a>
</g>
</g>
<!-- Node20&#45;&gt;Node4 -->
<g id="edge37_Node000020_Node000004" class="edge">
<title>Node20&#45;&gt;Node4</title>
<g id="a_edge37_Node000020_Node000004"><a xlink:title=" ">
<path fill="none" stroke="#63b8ff" d="M652.09,-230.85C596.52,-222.72 499.03,-206.8 467,-191 410.87,-163.31 363.55,-101.72 346.64,-77.85"/>
<polygon fill="#63b8ff" stroke="#63b8ff" points="651.38,-234.28 661.78,-232.24 652.38,-227.35 651.38,-234.28"/>
</a>
</g>
</g>
<!-- Node20&#45;&gt;Node5 -->
<g id="edge38_Node000020_Node000005" class="edge">
<title>Node20&#45;&gt;Node5</title>
<g id="a_edge38_Node000020_Node000005"><a xlink:title=" ">
<path fill="none" stroke="#63b8ff" d="M652.51,-225.11C614.23,-214.2 557.35,-197.98 524.96,-188.74"/>
<polygon fill="#63b8ff" stroke="#63b8ff" points="651.22,-228.39 661.8,-227.76 653.14,-221.66 651.22,-228.39"/>
</a>
</g>
</g>
<!-- Node20&#45;&gt;Node13 -->
<g id="edge41_Node000020_Node000013" class="edge">
<title>Node20&#45;&gt;Node13</title>
<g id="a_edge41_Node000020_Node000013"><a xlink:title=" ">
<path fill="none" stroke="#63b8ff" d="M731.87,-230.58C761.58,-224.65 801.88,-213.05 831,-191 855.2,-172.67 860.17,-163.29 869,-134.25 882.97,-88.28 834.46,-41.05 810.55,-21.15"/>
<polygon fill="#63b8ff" stroke="#63b8ff" points="731.33,-227.12 722.13,-232.38 732.6,-234 731.33,-227.12"/>
</a>
</g>
</g>
<!-- Node20&#45;&gt;Node15 -->
<g id="edge39_Node000020_Node000015" class="edge">
<title>Node20&#45;&gt;Node15</title>
<g id="a_edge39_Node000020_Node000015"><a xlink:title=" ">
<path fill="none" stroke="#63b8ff" d="M664.69,-220.69C652.71,-212.86 639.1,-202.59 629,-191 613.81,-173.57 602.82,-148.41 597.54,-134.7"/>
<polygon fill="#63b8ff" stroke="#63b8ff" points="662.64,-223.53 672.98,-225.86 666.35,-217.6 662.64,-223.53"/>
</a>
</g>
</g>
<!-- Node20&#45;&gt;Node18 -->
<g id="edge35_Node000020_Node000018" class="edge">
<title>Node20&#45;&gt;Node18</title>
<g id="a_edge35_Node000020_Node000018"><a xlink:title=" ">
<path fill="none" stroke="#63b8ff" d="M707.68,-218.58C720.34,-204.69 738.94,-185.3 757,-170.25 773.3,-156.67 793.68,-143.32 807.66,-134.66"/>
<polygon fill="#63b8ff" stroke="#63b8ff" points="705.38,-215.9 701.31,-225.68 710.59,-220.58 705.38,-215.9"/>
</a>
</g>
</g>
<!-- Node20&#45;&gt;Node19 -->
<g id="edge36_Node000020_Node000019" class="edge">
<title>Node20&#45;&gt;Node19</title>
<g id="a_edge36_Node000020_Node000019"><a xlink:title=" ">
<path fill="none" stroke="#63b8ff" d="M685.2,-215.71C682.45,-207.34 679.41,-198.08 677.19,-191.33"/>
<polygon fill="#63b8ff" stroke="#63b8ff" points="681.86,-216.74 688.31,-225.15 688.51,-214.56 681.86,-216.74"/>
</a>
</g>
</g>
<!-- Node21 -->
<g id="Node000021" class="node">
<title>Node21</title>
<g id="a_Node000021"><a xlink:href="socket_8c.html" target="_top" xlink:title=" ">
<polygon fill="white" stroke="#666666" points="821.88,-191 766.12,-191 766.12,-170.25 821.88,-170.25 821.88,-191"/>
<text text-anchor="middle" x="794" y="-177.5" font-family="Helvetica,sans-Serif" font-size="10.00">socket.c</text>
</a>
</g>
</g>
<!-- Node20&#45;&gt;Node21 -->
<g id="edge40_Node000020_Node000021" class="edge">
<title>Node20&#45;&gt;Node21</title>
<g id="a_edge40_Node000020_Node000021"><a xlink:title=" ">
<path fill="none" stroke="#63b8ff" d="M720.35,-221.16C738.13,-211.61 760.52,-199.59 775.92,-191.33"/>
<polygon fill="#63b8ff" stroke="#63b8ff" points="718.72,-218.06 711.57,-225.87 722.04,-224.23 718.72,-218.06"/>
</a>
</g>
</g>
<!-- Node22&#45;&gt;Node10 -->
<g id="edge44_Node000022_Node000010" class="edge">
<title>Node22&#45;&gt;Node10</title>
<g id="a_edge44_Node000022_Node000010"><a xlink:title=" ">
<path fill="none" stroke="#63b8ff" d="M601.45,-216.76C608.77,-203.4 618.99,-185.46 629,-170.25 637.34,-157.59 647.95,-143.74 655.08,-134.72"/>
<polygon fill="#63b8ff" stroke="#63b8ff" points="598.45,-214.95 596.78,-225.41 604.61,-218.28 598.45,-214.95"/>
</a>
</g>
</g>
</g>
</svg>
