<?xml version="1.0" encoding="UTF-8" standalone="no"?>
<!DOCTYPE svg PUBLIC "-//W3C//DTD SVG 1.1//EN"
 "http://www.w3.org/Graphics/SVG/1.1/DTD/svg11.dtd">
<!-- Generated by graphviz version 12.1.2 (20240928.0832)
 -->
<!-- Title: interface.h Pages: 1 -->
<svg width="1072pt" height="313pt"
 viewBox="0.00 0.00 1071.65 312.50" xmlns="http://www.w3.org/2000/svg" xmlns:xlink="http://www.w3.org/1999/xlink">
<g id="graph0" class="graph" transform="scale(1 1) rotate(0) translate(4 308.5)">
<title>interface.h</title>
<!-- Node1 -->
<g id="Node000001" class="node">
<title>Node1</title>
<g id="a_Node000001"><a xlink:title=" ">
<polygon fill="#999999" stroke="#666666" points="813.9,-304.5 745.4,-304.5 745.4,-283.75 813.9,-283.75 813.9,-304.5"/>
<text text-anchor="middle" x="779.65" y="-291" font-family="Helvetica,sans-Serif" font-size="10.00">interface.h</text>
</a>
</g>
</g>
<!-- Node2 -->
<g id="Node000002" class="node">
<title>Node2</title>
<g id="a_Node000002"><a xlink:href="adapter_8h.html" target="_top" xlink:title=" ">
<polygon fill="white" stroke="#666666" points="321.53,-247.75 259.78,-247.75 259.78,-227 321.53,-227 321.53,-247.75"/>
<text text-anchor="middle" x="290.65" y="-234.25" font-family="Helvetica,sans-Serif" font-size="10.00">adapter.h</text>
</a>
</g>
</g>
<!-- Node1&#45;&gt;Node2 -->
<g id="edge1_Node000001_Node000002" class="edge">
<title>Node1&#45;&gt;Node2</title>
<g id="a_edge1_Node000001_Node000002"><a xlink:title=" ">
<path fill="none" stroke="#63b8ff" d="M733.93,-288.01C635.46,-276.98 405.49,-251.23 321.81,-241.86"/>
<polygon fill="#63b8ff" stroke="#63b8ff" points="733.44,-291.47 743.76,-289.11 734.21,-284.52 733.44,-291.47"/>
</a>
</g>
</g>
<!-- Node8 -->
<g id="Node000008" class="node">
<title>Node8</title>
<g id="a_Node000008"><a xlink:href="iface__vlcb_8c.html" target="_top" xlink:title=" ">
<polygon fill="white" stroke="#666666" points="126.53,-77.5 52.78,-77.5 52.78,-56.75 126.53,-56.75 126.53,-77.5"/>
<text text-anchor="middle" x="89.65" y="-64" font-family="Helvetica,sans-Serif" font-size="10.00">iface_vlcb.c</text>
</a>
</g>
</g>
<!-- Node1&#45;&gt;Node8 -->
<g id="edge36_Node000001_Node000008" class="edge">
<title>Node1&#45;&gt;Node8</title>
<g id="a_edge36_Node000001_Node000008"><a xlink:title=" ">
<path fill="none" stroke="#63b8ff" d="M733.67,-290.68C574.48,-281.74 54.06,-248.29 8.65,-191 -22.93,-151.15 43.53,-99.01 74.7,-77.76"/>
<polygon fill="#63b8ff" stroke="#63b8ff" points="733.24,-294.16 743.42,-291.22 733.63,-287.17 733.24,-294.16"/>
</a>
</g>
</g>
<!-- Node9 -->
<g id="Node000009" class="node">
<title>Node9</title>
<g id="a_Node000009"><a xlink:href="iface__can__svc_8c.html" target="_top" xlink:title=" ">
<polygon fill="white" stroke="#666666" points="616.9,-134.25 524.4,-134.25 524.4,-113.5 616.9,-113.5 616.9,-134.25"/>
<text text-anchor="middle" x="570.65" y="-120.75" font-family="Helvetica,sans-Serif" font-size="10.00">iface_can_svc.c</text>
</a>
</g>
</g>
<!-- Node1&#45;&gt;Node9 -->
<g id="edge35_Node000001_Node000009" class="edge">
<title>Node1&#45;&gt;Node9</title>
<g id="a_edge35_Node000001_Node000009"><a xlink:title=" ">
<path fill="none" stroke="#63b8ff" d="M735.66,-279.53C714.01,-271.84 688.04,-261.09 666.65,-247.75 634.67,-227.81 626.47,-221 603.65,-191 589.83,-172.82 579.27,-147.95 574.13,-134.49"/>
<polygon fill="#63b8ff" stroke="#63b8ff" points="734.52,-282.83 745.11,-282.77 736.79,-276.21 734.52,-282.83"/>
</a>
</g>
</g>
<!-- Node12 -->
<g id="Node000012" class="node">
<title>Node12</title>
<g id="a_Node000012"><a xlink:href="module_8c.html" target="_top" xlink:title=" ">
<polygon fill="white" stroke="#666666" points="747.15,-20.75 686.15,-20.75 686.15,0 747.15,0 747.15,-20.75"/>
<text text-anchor="middle" x="716.65" y="-7.25" font-family="Helvetica,sans-Serif" font-size="10.00">module.c</text>
</a>
</g>
</g>
<!-- Node1&#45;&gt;Node12 -->
<g id="edge37_Node000001_Node000012" class="edge">
<title>Node1&#45;&gt;Node12</title>
<g id="a_edge37_Node000001_Node000012"><a xlink:title=" ">
<path fill="none" stroke="#63b8ff" d="M770.75,-273.02C754.69,-235.49 721.42,-151.87 709.65,-77.5 706.48,-57.43 710.98,-33.7 714.1,-20.83"/>
<polygon fill="#63b8ff" stroke="#63b8ff" points="767.51,-274.35 774.71,-282.12 773.93,-271.55 767.51,-274.35"/>
</a>
</g>
</g>
<!-- Node14 -->
<g id="Node000014" class="node">
<title>Node14</title>
<g id="a_Node000014"><a xlink:href="state__machine_8c.html" target="_top" xlink:title=" ">
<polygon fill="white" stroke="#666666" points="1035.78,-20.75 939.53,-20.75 939.53,0 1035.78,0 1035.78,-20.75"/>
<text text-anchor="middle" x="987.65" y="-7.25" font-family="Helvetica,sans-Serif" font-size="10.00">state_machine.c</text>
</a>
</g>
</g>
<!-- Node1&#45;&gt;Node14 -->
<g id="edge47_Node000001_Node000014" class="edge">
<title>Node1&#45;&gt;Node14</title>
<g id="a_edge47_Node000001_Node000014"><a xlink:title=" ">
<path fill="none" stroke="#63b8ff" d="M825.45,-284.96C905.79,-269.33 1063.65,-232.17 1063.65,-181.62 1063.65,-181.62 1063.65,-181.62 1063.65,-122.88 1063.65,-78.6 1022.23,-38.92 1000.54,-21.19"/>
<polygon fill="#63b8ff" stroke="#63b8ff" points="824.85,-281.51 815.68,-286.83 826.16,-288.39 824.85,-281.51"/>
</a>
</g>
</g>
<!-- Node19 -->
<g id="Node000019" class="node">
<title>Node19</title>
<g id="a_Node000019"><a xlink:href="socket_2datagram_8c.html" target="_top" xlink:title=" ">
<polygon fill="white" stroke="#666666" points="1035.4,-134.25 963.9,-134.25 963.9,-113.5 1035.4,-113.5 1035.4,-134.25"/>
<text text-anchor="middle" x="999.65" y="-120.75" font-family="Helvetica,sans-Serif" font-size="10.00">datagram.c</text>
</a>
</g>
</g>
<!-- Node1&#45;&gt;Node19 -->
<g id="edge29_Node000001_Node000019" class="edge">
<title>Node1&#45;&gt;Node19</title>
<g id="a_edge29_Node000001_Node000019"><a xlink:title=" ">
<path fill="none" stroke="#63b8ff" d="M816.75,-278.96C855.71,-262.6 916.88,-232.49 957.65,-191 974.62,-173.73 988.3,-148.51 995.06,-134.74"/>
<polygon fill="#63b8ff" stroke="#63b8ff" points="815.47,-275.71 807.54,-282.74 818.12,-282.18 815.47,-275.71"/>
</a>
</g>
</g>
<!-- Node20 -->
<g id="Node000020" class="node">
<title>Node20</title>
<g id="a_Node000020"><a xlink:href="socket_2datagram_8h.html" target="_top" xlink:title=" ">
<polygon fill="white" stroke="#666666" points="920.78,-191 848.53,-191 848.53,-170.25 920.78,-170.25 920.78,-191"/>
<text text-anchor="middle" x="884.65" y="-177.5" font-family="Helvetica,sans-Serif" font-size="10.00">datagram.h</text>
</a>
</g>
</g>
<!-- Node1&#45;&gt;Node20 -->
<g id="edge30_Node000001_Node000020" class="edge">
<title>Node1&#45;&gt;Node20</title>
<g id="a_edge30_Node000001_Node000020"><a xlink:title=" ">
<path fill="none" stroke="#63b8ff" d="M810.89,-277.94C824.34,-270.28 839.51,-259.99 850.65,-247.75 866.29,-230.57 876.75,-204.86 881.58,-191.11"/>
<polygon fill="#63b8ff" stroke="#63b8ff" points="809.49,-274.72 802.36,-282.56 812.82,-280.88 809.49,-274.72"/>
</a>
</g>
</g>
<!-- Node21 -->
<g id="Node000021" class="node">
<title>Node21</title>
<g id="a_Node000021"><a xlink:href="socket_8h.html" target="_top" xlink:title=" ">
<polygon fill="white" stroke="#666666" points="731.9,-247.75 675.4,-247.75 675.4,-227 731.9,-227 731.9,-247.75"/>
<text text-anchor="middle" x="703.65" y="-234.25" font-family="Helvetica,sans-Serif" font-size="10.00">socket.h</text>
</a>
</g>
</g>
<!-- Node1&#45;&gt;Node21 -->
<g id="edge38_Node000001_Node000021" class="edge">
<title>Node1&#45;&gt;Node21</title>
<g id="a_edge38_Node000001_Node000021"><a xlink:title=" ">
<path fill="none" stroke="#63b8ff" d="M756.83,-276.69C743.88,-267.36 728.11,-256 717.12,-248.08"/>
<polygon fill="#63b8ff" stroke="#63b8ff" points="754.68,-279.45 764.84,-282.45 758.77,-273.77 754.68,-279.45"/>
</a>
</g>
</g>
<!-- Node23 -->
<g id="Node000023" class="node">
<title>Node23</title>
<g id="a_Node000023"><a xlink:href="ui_8h.html" target="_top" xlink:title=" ">
<polygon fill="white" stroke="#666666" points="841.65,-247.75 807.65,-247.75 807.65,-227 841.65,-227 841.65,-247.75"/>
<text text-anchor="middle" x="824.65" y="-234.25" font-family="Helvetica,sans-Serif" font-size="10.00">ui.h</text>
</a>
</g>
</g>
<!-- Node1&#45;&gt;Node23 -->
<g id="edge48_Node000001_Node000023" class="edge">
<title>Node1&#45;&gt;Node23</title>
<g id="a_edge48_Node000001_Node000023"><a xlink:title=" ">
<path fill="none" stroke="#63b8ff" d="M795,-274.46C802.28,-265.59 810.68,-255.37 816.68,-248.08"/>
<polygon fill="#63b8ff" stroke="#63b8ff" points="792.3,-272.22 788.66,-282.17 797.71,-276.66 792.3,-272.22"/>
</a>
</g>
</g>
<!-- Node3 -->
<g id="Node000003" class="node">
<title>Node3</title>
<g id="a_Node000003"><a xlink:href="adapter_8c.html" target="_top" xlink:title=" ">
<polygon fill="white" stroke="#666666" points="79.15,-191 18.15,-191 18.15,-170.25 79.15,-170.25 79.15,-191"/>
<text text-anchor="middle" x="48.65" y="-177.5" font-family="Helvetica,sans-Serif" font-size="10.00">adapter.c</text>
</a>
</g>
</g>
<!-- Node2&#45;&gt;Node3 -->
<g id="edge2_Node000002_Node000003" class="edge">
<title>Node2&#45;&gt;Node3</title>
<g id="a_edge2_Node000002_Node000003"><a xlink:title=" ">
<path fill="none" stroke="#63b8ff" d="M248.1,-227.07C207,-218.04 143,-203.84 87.65,-191 84.94,-190.37 82.12,-189.71 79.3,-189.04"/>
<polygon fill="#63b8ff" stroke="#63b8ff" points="247.32,-230.48 257.84,-229.21 248.82,-223.65 247.32,-230.48"/>
</a>
</g>
</g>
<!-- Node4 -->
<g id="Node000004" class="node">
<title>Node4</title>
<g id="a_Node000004"><a xlink:href="iface_8c.html" target="_top" xlink:title=" ">
<polygon fill="white" stroke="#666666" points="314.78,-77.5 266.53,-77.5 266.53,-56.75 314.78,-56.75 314.78,-77.5"/>
<text text-anchor="middle" x="290.65" y="-64" font-family="Helvetica,sans-Serif" font-size="10.00">iface.c</text>
</a>
</g>
</g>
<!-- Node2&#45;&gt;Node4 -->
<g id="edge3_Node000002_Node000004" class="edge">
<title>Node2&#45;&gt;Node4</title>
<g id="a_edge3_Node000002_Node000004"><a xlink:title=" ">
<path fill="none" stroke="#63b8ff" d="M283.03,-216.26C280.46,-208.49 277.93,-199.44 276.65,-191 271.52,-156.94 271.52,-147.56 276.65,-113.5 278.57,-100.78 283.35,-86.72 286.79,-77.67"/>
<polygon fill="#63b8ff" stroke="#63b8ff" points="279.63,-217.16 286.28,-225.41 286.23,-214.81 279.63,-217.16"/>
</a>
</g>
</g>
<!-- Node5 -->
<g id="Node000005" class="node">
<title>Node5</title>
<g id="a_Node000005"><a xlink:href="iface_8h.html" target="_top" xlink:title=" ">
<polygon fill="white" stroke="#666666" points="487.15,-191 438.15,-191 438.15,-170.25 487.15,-170.25 487.15,-191"/>
<text text-anchor="middle" x="462.65" y="-177.5" font-family="Helvetica,sans-Serif" font-size="10.00">iface.h</text>
</a>
</g>
</g>
<!-- Node2&#45;&gt;Node5 -->
<g id="edge4_Node000002_Node000005" class="edge">
<title>Node2&#45;&gt;Node5</title>
<g id="a_edge4_Node000002_Node000005"><a xlink:title=" ">
<path fill="none" stroke="#63b8ff" d="M332.08,-223.19C365.05,-212.69 410.1,-198.35 437.75,-189.55"/>
<polygon fill="#63b8ff" stroke="#63b8ff" points="331.31,-219.76 322.85,-226.13 333.44,-226.43 331.31,-219.76"/>
</a>
</g>
</g>
<!-- Node6 -->
<g id="Node000006" class="node">
<title>Node6</title>
<g id="a_Node000006"><a xlink:href="iface__can_8c.html" target="_top" xlink:title=" ">
<polygon fill="white" stroke="#666666" points="532.03,-77.5 461.28,-77.5 461.28,-56.75 532.03,-56.75 532.03,-77.5"/>
<text text-anchor="middle" x="496.65" y="-64" font-family="Helvetica,sans-Serif" font-size="10.00">iface_can.c</text>
</a>
</g>
</g>
<!-- Node2&#45;&gt;Node6 -->
<g id="edge24_Node000002_Node000006" class="edge">
<title>Node2&#45;&gt;Node6</title>
<g id="a_edge24_Node000002_Node000006"><a xlink:title=" ">
<path fill="none" stroke="#63b8ff" d="M301.22,-216.99C316.61,-190.37 347.55,-142.49 385.65,-113.5 408.1,-96.42 437.89,-84.71 460.95,-77.47"/>
<polygon fill="#63b8ff" stroke="#63b8ff" points="298.36,-214.93 296.51,-225.36 304.46,-218.36 298.36,-214.93"/>
</a>
</g>
</g>
<!-- Node7 -->
<g id="Node000007" class="node">
<title>Node7</title>
<g id="a_Node000007"><a xlink:href="iface__can_8h.html" target="_top" xlink:title=" ">
<polygon fill="white" stroke="#666666" points="224.4,-134.25 152.9,-134.25 152.9,-113.5 224.4,-113.5 224.4,-134.25"/>
<text text-anchor="middle" x="188.65" y="-120.75" font-family="Helvetica,sans-Serif" font-size="10.00">iface_can.h</text>
</a>
</g>
</g>
<!-- Node2&#45;&gt;Node7 -->
<g id="edge25_Node000002_Node000007" class="edge">
<title>Node2&#45;&gt;Node7</title>
<g id="a_edge25_Node000002_Node000007"><a xlink:title=" ">
<path fill="none" stroke="#63b8ff" d="M269.3,-219.45C259.53,-211.29 248.06,-201.09 238.65,-191 221.18,-172.26 203.83,-147.61 194.88,-134.33"/>
<polygon fill="#63b8ff" stroke="#63b8ff" points="266.9,-222.01 276.86,-225.63 271.33,-216.59 266.9,-222.01"/>
</a>
</g>
</g>
<!-- Node2&#45;&gt;Node9 -->
<g id="edge26_Node000002_Node000009" class="edge">
<title>Node2&#45;&gt;Node9</title>
<g id="a_edge26_Node000002_Node000009"><a xlink:title=" ">
<path fill="none" stroke="#63b8ff" d="M333.21,-233.34C376.42,-228.85 444.24,-217.82 496.65,-191 524.57,-176.71 550.19,-149.32 562.67,-134.68"/>
<polygon fill="#63b8ff" stroke="#63b8ff" points="333.11,-229.84 323.49,-234.28 333.77,-236.81 333.11,-229.84"/>
</a>
</g>
</g>
<!-- Node17 -->
<g id="Node000017" class="node">
<title>Node17</title>
<g id="a_Node000017"><a xlink:href="packet__parse_8h.html" target="_top" xlink:title=" ">
<polygon fill="white" stroke="#666666" points="186.4,-191 96.9,-191 96.9,-170.25 186.4,-170.25 186.4,-191"/>
<text text-anchor="middle" x="141.65" y="-177.5" font-family="Helvetica,sans-Serif" font-size="10.00">packet_parse.h</text>
</a>
</g>
</g>
<!-- Node2&#45;&gt;Node17 -->
<g id="edge27_Node000002_Node000017" class="edge">
<title>Node2&#45;&gt;Node17</title>
<g id="a_edge27_Node000002_Node000017"><a xlink:title=" ">
<path fill="none" stroke="#63b8ff" d="M253.25,-222.63C226.8,-212.91 191.97,-200.12 168.31,-191.42"/>
<polygon fill="#63b8ff" stroke="#63b8ff" points="252,-225.9 262.59,-226.06 254.41,-219.33 252,-225.9"/>
</a>
</g>
</g>
<!-- Node5&#45;&gt;Node4 -->
<g id="edge5_Node000005_Node000004" class="edge">
<title>Node5&#45;&gt;Node4</title>
<g id="a_edge5_Node000005_Node000004"><a xlink:title=" ">
<path fill="none" stroke="#63b8ff" d="M435.67,-164.39C420.76,-155.81 402,-144.73 385.65,-134.25 355.88,-115.16 322.14,-91.06 303.96,-77.87"/>
<polygon fill="#63b8ff" stroke="#63b8ff" points="433.57,-167.22 443.99,-169.15 437.04,-161.15 433.57,-167.22"/>
</a>
</g>
</g>
<!-- Node5&#45;&gt;Node6 -->
<g id="edge6_Node000005_Node000006" class="edge">
<title>Node5&#45;&gt;Node6</title>
<g id="a_edge6_Node000005_Node000006"><a xlink:title=" ">
<path fill="none" stroke="#63b8ff" d="M469.58,-159.26C472.18,-151.46 475.12,-142.46 477.65,-134.25 483.86,-114.16 490.51,-90.44 494.06,-77.58"/>
<polygon fill="#63b8ff" stroke="#63b8ff" points="466.34,-157.9 466.47,-168.49 472.97,-160.13 466.34,-157.9"/>
</a>
</g>
</g>
<!-- Node5&#45;&gt;Node7 -->
<g id="edge7_Node000005_Node000007" class="edge">
<title>Node5&#45;&gt;Node7</title>
<g id="a_edge7_Node000005_Node000007"><a xlink:title=" ">
<path fill="none" stroke="#63b8ff" d="M426.76,-172.45C374.31,-161.97 277.29,-142.59 224.74,-132.09"/>
<polygon fill="#63b8ff" stroke="#63b8ff" points="425.88,-175.85 436.37,-174.37 427.25,-168.98 425.88,-175.85"/>
</a>
</g>
</g>
<!-- Node5&#45;&gt;Node9 -->
<g id="edge10_Node000005_Node000009" class="edge">
<title>Node5&#45;&gt;Node9</title>
<g id="a_edge10_Node000005_Node000009"><a xlink:title=" ">
<path fill="none" stroke="#63b8ff" d="M492.14,-164.68C511.05,-155.09 535.05,-142.92 551.51,-134.58"/>
<polygon fill="#63b8ff" stroke="#63b8ff" points="490.65,-161.51 483.31,-169.15 493.81,-167.75 490.65,-161.51"/>
</a>
</g>
</g>
<!-- Node10 -->
<g id="Node000010" class="node">
<title>Node10</title>
<g id="a_Node000010"><a xlink:href="iface__vlcb_8h.html" target="_top" xlink:title=" ">
<polygon fill="white" stroke="#666666" points="468.9,-134.25 394.4,-134.25 394.4,-113.5 468.9,-113.5 468.9,-134.25"/>
<text text-anchor="middle" x="431.65" y="-120.75" font-family="Helvetica,sans-Serif" font-size="10.00">iface_vlcb.h</text>
</a>
</g>
</g>
<!-- Node5&#45;&gt;Node10 -->
<g id="edge12_Node000005_Node000010" class="edge">
<title>Node5&#45;&gt;Node10</title>
<g id="a_edge12_Node000005_Node000010"><a xlink:title=" ">
<path fill="none" stroke="#63b8ff" d="M451.44,-159.82C446.58,-151.23 441.1,-141.56 437.15,-134.58"/>
<polygon fill="#63b8ff" stroke="#63b8ff" points="448.39,-161.54 456.36,-168.52 454.48,-158.09 448.39,-161.54"/>
</a>
</g>
</g>
<!-- Node11 -->
<g id="Node000011" class="node">
<title>Node11</title>
<g id="a_Node000011"><a xlink:href="module_2inc_2vlcb_2module_8h.html" target="_top" xlink:title=" ">
<polygon fill="white" stroke="#666666" points="869.53,-134.25 807.78,-134.25 807.78,-113.5 869.53,-113.5 869.53,-134.25"/>
<text text-anchor="middle" x="838.65" y="-120.75" font-family="Helvetica,sans-Serif" font-size="10.00">module.h</text>
</a>
</g>
</g>
<!-- Node5&#45;&gt;Node11 -->
<g id="edge15_Node000005_Node000011" class="edge">
<title>Node5&#45;&gt;Node11</title>
<g id="a_edge15_Node000005_Node000011"><a xlink:title=" ">
<path fill="none" stroke="#63b8ff" d="M498.58,-174.39C572.03,-163.7 738.28,-139.49 807.5,-129.41"/>
<polygon fill="#63b8ff" stroke="#63b8ff" points="498.5,-170.87 489.11,-175.77 499.51,-177.79 498.5,-170.87"/>
</a>
</g>
</g>
<!-- Node16 -->
<g id="Node000016" class="node">
<title>Node16</title>
<g id="a_Node000016"><a xlink:href="net_2inc_2vlcb_2net_8h.html" target="_top" xlink:title=" ">
<polygon fill="white" stroke="#666666" points="676.03,-134.25 635.28,-134.25 635.28,-113.5 676.03,-113.5 676.03,-134.25"/>
<text text-anchor="middle" x="655.65" y="-120.75" font-family="Helvetica,sans-Serif" font-size="10.00">net.h</text>
</a>
</g>
</g>
<!-- Node5&#45;&gt;Node16 -->
<g id="edge23_Node000005_Node000016" class="edge">
<title>Node5&#45;&gt;Node16</title>
<g id="a_edge23_Node000005_Node000016"><a xlink:title=" ">
<path fill="none" stroke="#63b8ff" d="M498.52,-169.99C531.6,-161.02 582.06,-147.13 625.65,-134.25 628.69,-133.35 631.89,-132.38 635.02,-131.42"/>
<polygon fill="#63b8ff" stroke="#63b8ff" points="497.78,-166.56 489.04,-172.55 499.6,-173.32 497.78,-166.56"/>
</a>
</g>
</g>
<!-- Node7&#45;&gt;Node4 -->
<g id="edge8_Node000007_Node000004" class="edge">
<title>Node7&#45;&gt;Node4</title>
<g id="a_edge8_Node000007_Node000004"><a xlink:title=" ">
<path fill="none" stroke="#63b8ff" d="M217,-107.66C234.78,-98.11 257.18,-86.09 272.57,-77.83"/>
<polygon fill="#63b8ff" stroke="#63b8ff" points="215.38,-104.56 208.22,-112.37 218.69,-110.73 215.38,-104.56"/>
</a>
</g>
</g>
<!-- Node7&#45;&gt;Node8 -->
<g id="edge9_Node000007_Node000008" class="edge">
<title>Node7&#45;&gt;Node8</title>
<g id="a_edge9_Node000007_Node000008"><a xlink:title=" ">
<path fill="none" stroke="#63b8ff" d="M160.9,-107.53C143.68,-98 122.08,-86.06 107.2,-77.83"/>
<polygon fill="#63b8ff" stroke="#63b8ff" points="159.18,-110.58 169.63,-112.35 162.57,-104.45 159.18,-110.58"/>
</a>
</g>
</g>
<!-- Node9&#45;&gt;Node6 -->
<g id="edge11_Node000009_Node000006" class="edge">
<title>Node9&#45;&gt;Node6</title>
<g id="a_edge11_Node000009_Node000006"><a xlink:title=" ">
<path fill="none" stroke="#63b8ff" d="M548.44,-106.44C535.82,-97.11 520.47,-85.75 509.77,-77.83"/>
<polygon fill="#63b8ff" stroke="#63b8ff" points="546.09,-109.05 556.21,-112.19 550.25,-103.43 546.09,-109.05"/>
</a>
</g>
</g>
<!-- Node10&#45;&gt;Node4 -->
<g id="edge13_Node000010_Node000004" class="edge">
<title>Node10&#45;&gt;Node4</title>
<g id="a_edge13_Node000010_Node000004"><a xlink:title=" ">
<path fill="none" stroke="#63b8ff" d="M395.82,-108.96C370.58,-99.16 337.44,-86.29 315.17,-77.65"/>
<polygon fill="#63b8ff" stroke="#63b8ff" points="394.44,-112.18 405.03,-112.54 396.98,-105.66 394.44,-112.18"/>
</a>
</g>
</g>
<!-- Node10&#45;&gt;Node6 -->
<g id="edge14_Node000010_Node000006" class="edge">
<title>Node10&#45;&gt;Node6</title>
<g id="a_edge14_Node000010_Node000006"><a xlink:title=" ">
<path fill="none" stroke="#63b8ff" d="M451.82,-105.89C462.77,-96.66 475.92,-85.59 485.13,-77.83"/>
<polygon fill="#63b8ff" stroke="#63b8ff" points="449.82,-102.99 444.43,-112.11 454.33,-108.35 449.82,-102.99"/>
</a>
</g>
</g>
<!-- Node11&#45;&gt;Node12 -->
<g id="edge16_Node000011_Node000012" class="edge">
<title>Node11&#45;&gt;Node12</title>
<g id="a_edge16_Node000011_Node000012"><a xlink:title=" ">
<path fill="none" stroke="#63b8ff" d="M796.45,-113.36C775.48,-106.61 751.34,-95.47 735.65,-77.5 721.51,-61.31 717.86,-35.19 716.94,-21.12"/>
<polygon fill="#63b8ff" stroke="#63b8ff" points="795.35,-116.69 805.93,-116.16 797.33,-109.97 795.35,-116.69"/>
</a>
</g>
</g>
<!-- Node13 -->
<g id="Node000013" class="node">
<title>Node13</title>
<g id="a_Node000013"><a xlink:href="module_2src_2module_8h.html" target="_top" xlink:title=" ">
<polygon fill="white" stroke="#666666" points="806.53,-77.5 744.78,-77.5 744.78,-56.75 806.53,-56.75 806.53,-77.5"/>
<text text-anchor="middle" x="775.65" y="-64" font-family="Helvetica,sans-Serif" font-size="10.00">module.h</text>
</a>
</g>
</g>
<!-- Node11&#45;&gt;Node13 -->
<g id="edge17_Node000011_Node000013" class="edge">
<title>Node11&#45;&gt;Node13</title>
<g id="a_edge17_Node000011_Node000013"><a xlink:title=" ">
<path fill="none" stroke="#63b8ff" d="M818.78,-105.61C808.23,-96.44 795.66,-85.51 786.82,-77.83"/>
<polygon fill="#63b8ff" stroke="#63b8ff" points="816.4,-108.18 826.25,-112.09 820.99,-102.89 816.4,-108.18"/>
</a>
</g>
</g>
<!-- Node11&#45;&gt;Node14 -->
<g id="edge19_Node000011_Node000014" class="edge">
<title>Node11&#45;&gt;Node14</title>
<g id="a_edge19_Node000011_Node000014"><a xlink:title=" ">
<path fill="none" stroke="#63b8ff" d="M875.73,-108.67C893.33,-100.94 914.09,-90.32 930.65,-77.5 952.23,-60.8 971.64,-34.89 981.27,-20.98"/>
<polygon fill="#63b8ff" stroke="#63b8ff" points="874.48,-105.4 866.63,-112.52 877.21,-111.84 874.48,-105.4"/>
</a>
</g>
</g>
<!-- Node15 -->
<g id="Node000015" class="node">
<title>Node15</title>
<g id="a_Node000015"><a xlink:href="state__machine_8h.html" target="_top" xlink:title=" ">
<polygon fill="white" stroke="#666666" points="921.15,-77.5 824.15,-77.5 824.15,-56.75 921.15,-56.75 921.15,-77.5"/>
<text text-anchor="middle" x="872.65" y="-64" font-family="Helvetica,sans-Serif" font-size="10.00">state_machine.h</text>
</a>
</g>
</g>
<!-- Node11&#45;&gt;Node15 -->
<g id="edge20_Node000011_Node000015" class="edge">
<title>Node11&#45;&gt;Node15</title>
<g id="a_edge20_Node000011_Node000015"><a xlink:title=" ">
<path fill="none" stroke="#63b8ff" d="M850.78,-103.35C856.15,-94.7 862.24,-84.89 866.63,-77.83"/>
<polygon fill="#63b8ff" stroke="#63b8ff" points="847.83,-101.46 845.53,-111.8 853.78,-105.15 847.83,-101.46"/>
</a>
</g>
</g>
<!-- Node13&#45;&gt;Node12 -->
<g id="edge18_Node000013_Node000012" class="edge">
<title>Node13&#45;&gt;Node12</title>
<g id="a_edge18_Node000013_Node000012"><a xlink:title=" ">
<path fill="none" stroke="#63b8ff" d="M756.75,-48.58C746.93,-39.47 735.31,-28.68 727.11,-21.08"/>
<polygon fill="#63b8ff" stroke="#63b8ff" points="754.28,-51.07 764,-55.31 759.05,-45.94 754.28,-51.07"/>
</a>
</g>
</g>
<!-- Node15&#45;&gt;Node12 -->
<g id="edge21_Node000015_Node000012" class="edge">
<title>Node15&#45;&gt;Node12</title>
<g id="a_edge21_Node000015_Node000012"><a xlink:title=" ">
<path fill="none" stroke="#63b8ff" d="M834.23,-52.64C806.45,-42.89 769.56,-29.94 744.56,-21.17"/>
<polygon fill="#63b8ff" stroke="#63b8ff" points="832.74,-55.83 843.33,-55.84 835.06,-49.22 832.74,-55.83"/>
</a>
</g>
</g>
<!-- Node15&#45;&gt;Node14 -->
<g id="edge22_Node000015_Node000014" class="edge">
<title>Node15&#45;&gt;Node14</title>
<g id="a_edge22_Node000015_Node000014"><a xlink:title=" ">
<path fill="none" stroke="#63b8ff" d="M903.49,-51.45C923.71,-41.82 949.58,-29.5 967.27,-21.08"/>
<polygon fill="#63b8ff" stroke="#63b8ff" points="902.1,-48.23 894.58,-55.69 905.11,-54.55 902.1,-48.23"/>
</a>
</g>
</g>
<!-- Node18 -->
<g id="Node000018" class="node">
<title>Node18</title>
<g id="a_Node000018"><a xlink:href="packet__parse_8c.html" target="_top" xlink:title=" ">
<polygon fill="white" stroke="#666666" points="135.03,-134.25 46.28,-134.25 46.28,-113.5 135.03,-113.5 135.03,-134.25"/>
<text text-anchor="middle" x="90.65" y="-120.75" font-family="Helvetica,sans-Serif" font-size="10.00">packet_parse.c</text>
</a>
</g>
</g>
<!-- Node17&#45;&gt;Node18 -->
<g id="edge28_Node000017_Node000018" class="edge">
<title>Node17&#45;&gt;Node18</title>
<g id="a_edge28_Node000017_Node000018"><a xlink:title=" ">
<path fill="none" stroke="#63b8ff" d="M124.79,-161.52C116.41,-152.53 106.63,-142.03 99.69,-134.58"/>
<polygon fill="#63b8ff" stroke="#63b8ff" points="122.13,-163.8 131.5,-168.73 127.25,-159.03 122.13,-163.8"/>
</a>
</g>
</g>
<!-- Node20&#45;&gt;Node11 -->
<g id="edge33_Node000020_Node000011" class="edge">
<title>Node20&#45;&gt;Node11</title>
<g id="a_edge33_Node000020_Node000011"><a xlink:title=" ">
<path fill="none" stroke="#63b8ff" d="M869.21,-161.24C861.71,-152.31 853,-141.95 846.81,-134.58"/>
<polygon fill="#63b8ff" stroke="#63b8ff" points="866.34,-163.27 875.46,-168.68 871.7,-158.77 866.34,-163.27"/>
</a>
</g>
</g>
<!-- Node20&#45;&gt;Node12 -->
<g id="edge32_Node000020_Node000012" class="edge">
<title>Node20&#45;&gt;Node12</title>
<g id="a_edge32_Node000020_Node000012"><a xlink:title=" ">
<path fill="none" stroke="#63b8ff" d="M853.54,-164.88C810.15,-143.61 735.14,-103.94 720.65,-77.5 710.82,-59.55 712.73,-34.59 714.8,-21.05"/>
<polygon fill="#63b8ff" stroke="#63b8ff" points="851.94,-168 862.47,-169.22 855,-161.7 851.94,-168"/>
</a>
</g>
</g>
<!-- Node20&#45;&gt;Node14 -->
<g id="edge34_Node000020_Node000014" class="edge">
<title>Node20&#45;&gt;Node14</title>
<g id="a_edge34_Node000020_Node000014"><a xlink:title=" ">
<path fill="none" stroke="#63b8ff" d="M902.49,-161.8C916.36,-148.18 936.27,-129.15 954.65,-113.5 974.69,-96.44 990,-101.09 1001.65,-77.5 1010.9,-58.77 1000.52,-34.12 993.33,-20.83"/>
<polygon fill="#63b8ff" stroke="#63b8ff" points="900.05,-159.29 895.4,-168.81 904.97,-164.27 900.05,-159.29"/>
</a>
</g>
</g>
<!-- Node20&#45;&gt;Node19 -->
<g id="edge31_Node000020_Node000019" class="edge">
<title>Node20&#45;&gt;Node19</title>
<g id="a_edge31_Node000020_Node000019"><a xlink:title=" ">
<path fill="none" stroke="#63b8ff" d="M915.49,-164.95C935.71,-155.32 961.58,-143 979.27,-134.58"/>
<polygon fill="#63b8ff" stroke="#63b8ff" points="914.1,-161.73 906.58,-169.19 917.11,-168.05 914.1,-161.73"/>
</a>
</g>
</g>
<!-- Node21&#45;&gt;Node4 -->
<g id="edge41_Node000021_Node000004" class="edge">
<title>Node21&#45;&gt;Node4</title>
<g id="a_edge41_Node000021_Node000004"><a xlink:title=" ">
<path fill="none" stroke="#63b8ff" d="M663.95,-235.57C609.17,-233.19 508.28,-224.21 429.65,-191 368.83,-165.31 316.28,-101.97 297.76,-77.75"/>
<polygon fill="#63b8ff" stroke="#63b8ff" points="663.6,-239.05 673.72,-235.93 663.86,-232.06 663.6,-239.05"/>
</a>
</g>
</g>
<!-- Node21&#45;&gt;Node5 -->
<g id="edge42_Node000021_Node000005" class="edge">
<title>Node21&#45;&gt;Node5</title>
<g id="a_edge42_Node000021_Node000005"><a xlink:title=" ">
<path fill="none" stroke="#63b8ff" d="M664.03,-227.37C613.99,-216.01 529.38,-196.78 487.57,-187.29"/>
<polygon fill="#63b8ff" stroke="#63b8ff" points="663.06,-230.74 673.58,-229.54 664.61,-223.92 663.06,-230.74"/>
</a>
</g>
</g>
<!-- Node21&#45;&gt;Node6 -->
<g id="edge43_Node000021_Node000006" class="edge">
<title>Node21&#45;&gt;Node6</title>
<g id="a_edge43_Node000021_Node000006"><a xlink:title=" ">
<path fill="none" stroke="#63b8ff" d="M706.86,-215.32C709.72,-188.18 710.14,-141.2 684.65,-113.5 664.36,-91.45 580.97,-78.09 532.33,-72.02"/>
<polygon fill="#63b8ff" stroke="#63b8ff" points="703.41,-214.7 705.61,-225.06 710.36,-215.59 703.41,-214.7"/>
</a>
</g>
</g>
<!-- Node21&#45;&gt;Node14 -->
<g id="edge46_Node000021_Node000014" class="edge">
<title>Node21&#45;&gt;Node14</title>
<g id="a_edge46_Node000021_Node000014"><a xlink:title=" ">
<path fill="none" stroke="#63b8ff" d="M732.25,-221.3C791.12,-189.81 923.06,-116.73 955.65,-77.5 970.16,-60.04 979.96,-34.89 984.59,-21.19"/>
<polygon fill="#63b8ff" stroke="#63b8ff" points="730.67,-218.18 723.48,-225.97 733.96,-224.36 730.67,-218.18"/>
</a>
</g>
</g>
<!-- Node21&#45;&gt;Node16 -->
<g id="edge44_Node000021_Node000016" class="edge">
<title>Node21&#45;&gt;Node16</title>
<g id="a_edge44_Node000021_Node000016"><a xlink:title=" ">
<path fill="none" stroke="#63b8ff" d="M664.13,-227.61C644.45,-221.03 622.4,-209.81 610.65,-191 597.85,-170.51 623.24,-147.32 640.82,-134.57"/>
<polygon fill="#63b8ff" stroke="#63b8ff" points="663.01,-230.92 673.59,-230.45 665.02,-224.22 663.01,-230.92"/>
</a>
</g>
</g>
<!-- Node21&#45;&gt;Node19 -->
<g id="edge39_Node000021_Node000019" class="edge">
<title>Node21&#45;&gt;Node19</title>
<g id="a_edge39_Node000021_Node000019"><a xlink:title=" ">
<path fill="none" stroke="#63b8ff" d="M743.39,-231.09C799.24,-223.21 897.72,-207.53 929.65,-191 956.97,-176.86 981.18,-148.89 992.64,-134.27"/>
<polygon fill="#63b8ff" stroke="#63b8ff" points="743.08,-227.6 733.65,-232.44 744.04,-234.53 743.08,-227.6"/>
</a>
</g>
</g>
<!-- Node21&#45;&gt;Node20 -->
<g id="edge40_Node000021_Node000020" class="edge">
<title>Node21&#45;&gt;Node20</title>
<g id="a_edge40_Node000021_Node000020"><a xlink:title=" ">
<path fill="none" stroke="#63b8ff" d="M743.28,-224.39C775.92,-214.52 821.62,-200.69 852.13,-191.46"/>
<polygon fill="#63b8ff" stroke="#63b8ff" points="742.34,-221.02 733.78,-227.26 744.37,-227.72 742.34,-221.02"/>
</a>
</g>
</g>
<!-- Node22 -->
<g id="Node000022" class="node">
<title>Node22</title>
<g id="a_Node000022"><a xlink:href="socket_8c.html" target="_top" xlink:title=" ">
<polygon fill="white" stroke="#666666" points="675.53,-191 619.78,-191 619.78,-170.25 675.53,-170.25 675.53,-191"/>
<text text-anchor="middle" x="647.65" y="-177.5" font-family="Helvetica,sans-Serif" font-size="10.00">socket.c</text>
</a>
</g>
</g>
<!-- Node21&#45;&gt;Node22 -->
<g id="edge45_Node000021_Node000022" class="edge">
<title>Node21&#45;&gt;Node22</title>
<g id="a_edge45_Node000021_Node000022"><a xlink:title=" ">
<path fill="none" stroke="#63b8ff" d="M685.42,-218.55C676.16,-209.5 665.28,-198.86 657.58,-191.33"/>
<polygon fill="#63b8ff" stroke="#63b8ff" points="682.96,-221.04 692.56,-225.53 687.86,-216.04 682.96,-221.04"/>
</a>
</g>
</g>
<!-- Node23&#45;&gt;Node11 -->
<g id="edge49_Node000023_Node000011" class="edge">
<title>Node23&#45;&gt;Node11</title>
<g id="a_edge49_Node000023_Node000011"><a xlink:title=" ">
<path fill="none" stroke="#63b8ff" d="M827.28,-215.47C830.31,-191.34 835.16,-152.67 837.42,-134.68"/>
<polygon fill="#63b8ff" stroke="#63b8ff" points="823.81,-215.01 826.03,-225.37 830.75,-215.88 823.81,-215.01"/>
</a>
</g>
</g>
</g>
</svg>
