<?xml version="1.0" encoding="UTF-8" standalone="no"?>
<!DOCTYPE svg PUBLIC "-//W3C//DTD SVG 1.1//EN"
 "http://www.w3.org/Graphics/SVG/1.1/DTD/svg11.dtd">
<!-- Generated by graphviz version 12.1.2 (20240928.0832)
 -->
<!-- Title: led.h Pages: 1 -->
<svg width="291pt" height="86pt"
 viewBox="0.00 0.00 291.25 85.50" xmlns="http://www.w3.org/2000/svg" xmlns:xlink="http://www.w3.org/1999/xlink">
<g id="graph0" class="graph" transform="scale(1 1) rotate(0) translate(4 81.5)">
<title>led.h</title>
<!-- Node1 -->
<g id="Node000001" class="node">
<title>Node1</title>
<g id="a_Node000001"><a xlink:title=" ">
<polygon fill="#999999" stroke="#666666" points="121.38,-77.5 81.38,-77.5 81.38,-56.75 121.38,-56.75 121.38,-77.5"/>
<text text-anchor="middle" x="101.38" y="-64" font-family="Helvetica,sans-Serif" font-size="10.00">led.h</text>
</a>
</g>
</g>
<!-- Node2 -->
<g id="Node000002" class="node">
<title>Node2</title>
<g id="a_Node000002"><a xlink:title=" ">
<polygon fill="#e0e0e0" stroke="#999999" points="52.75,-20.75 0,-20.75 0,0 52.75,0 52.75,-20.75"/>
<text text-anchor="middle" x="26.38" y="-7.25" font-family="Helvetica,sans-Serif" font-size="10.00">stdint.h</text>
</a>
</g>
</g>
<!-- Node1&#45;&gt;Node2 -->
<g id="edge1_Node000001_Node000002" class="edge">
<title>Node1&#45;&gt;Node2</title>
<g id="a_edge1_Node000001_Node000002"><a xlink:title=" ">
<path fill="none" stroke="#63b8ff" d="M87.97,-56.34C77.09,-48.4 61.52,-37.03 48.76,-27.71"/>
<polygon fill="#63b8ff" stroke="#63b8ff" points="51.03,-25.04 40.89,-21.97 46.9,-30.69 51.03,-25.04"/>
</a>
</g>
</g>
<!-- Node3 -->
<g id="Node000003" class="node">
<title>Node3</title>
<g id="a_Node000003"><a xlink:title=" ">
<polygon fill="#e0e0e0" stroke="#999999" points="131.88,-20.75 70.88,-20.75 70.88,0 131.88,0 131.88,-20.75"/>
<text text-anchor="middle" x="101.38" y="-7.25" font-family="Helvetica,sans-Serif" font-size="10.00">stdbool.h</text>
</a>
</g>
</g>
<!-- Node1&#45;&gt;Node3 -->
<g id="edge2_Node000001_Node000003" class="edge">
<title>Node1&#45;&gt;Node3</title>
<g id="a_edge2_Node000001_Node000003"><a xlink:title=" ">
<path fill="none" stroke="#63b8ff" d="M101.38,-56.34C101.38,-49.72 101.38,-40.72 101.38,-32.52"/>
<polygon fill="#63b8ff" stroke="#63b8ff" points="104.88,-32.59 101.38,-22.59 97.88,-32.59 104.88,-32.59"/>
</a>
</g>
</g>
<!-- Node4 -->
<g id="Node000004" class="node">
<title>Node4</title>
<g id="a_Node000004"><a xlink:href="time_8h.html" target="_top" xlink:title=" ">
<polygon fill="white" stroke="#666666" points="265.25,-20.75 149.5,-20.75 149.5,0 265.25,0 265.25,-20.75"/>
<text text-anchor="middle" x="207.38" y="-7.25" font-family="Helvetica,sans-Serif" font-size="10.00">vlcb/platform/time.h</text>
</a>
</g>
</g>
<!-- Node1&#45;&gt;Node4 -->
<g id="edge3_Node000001_Node000004" class="edge">
<title>Node1&#45;&gt;Node4</title>
<g id="a_edge3_Node000001_Node000004"><a xlink:title=" ">
<path fill="none" stroke="#63b8ff" d="M120.33,-56.34C136.45,-48.01 159.88,-35.91 178.37,-26.36"/>
<polygon fill="#63b8ff" stroke="#63b8ff" points="179.96,-29.47 187.24,-21.77 176.75,-23.25 179.96,-29.47"/>
</a>
</g>
</g>
<!-- Node4&#45;&gt;Node4 -->
<g id="edge4_Node000004_Node000004" class="edge">
<title>Node4&#45;&gt;Node4</title>
<g id="a_edge4_Node000004_Node000004"><a xlink:title=" ">
<path fill="none" stroke="#63b8ff" d="M265.59,-20.39C275.99,-19.09 283.25,-15.75 283.25,-10.38 283.25,-7.27 280.82,-4.84 276.77,-3.09"/>
<polygon fill="#63b8ff" stroke="#63b8ff" points="277.61,0.3 267.06,-0.72 275.94,-6.5 277.61,0.3"/>
</a>
</g>
</g>
</g>
</svg>
