<?xml version="1.0" encoding="UTF-8" standalone="no"?>
<!DOCTYPE svg PUBLIC "-//W3C//DTD SVG 1.1//EN"
 "http://www.w3.org/Graphics/SVG/1.1/DTD/svg11.dtd">
<!-- Generated by graphviz version 12.1.2 (20240928.0832)
 -->
<!-- Title: led.c Pages: 1 -->
<svg width="241pt" height="212pt"
 viewBox="0.00 0.00 241.38 211.75" xmlns="http://www.w3.org/2000/svg" xmlns:xlink="http://www.w3.org/1999/xlink">
<g id="graph0" class="graph" transform="scale(1 1) rotate(0) translate(4 207.75)">
<title>led.c</title>
<!-- Node1 -->
<g id="Node000001" class="node">
<title>Node1</title>
<g id="a_Node000001"><a xlink:title=" ">
<polygon fill="#999999" stroke="#666666" points="156.12,-203.75 116.88,-203.75 116.88,-183 156.12,-183 156.12,-203.75"/>
<text text-anchor="middle" x="136.5" y="-190.25" font-family="Helvetica,sans-Serif" font-size="10.00">led.c</text>
</a>
</g>
</g>
<!-- Node2 -->
<g id="Node000002" class="node">
<title>Node2</title>
<g id="a_Node000002"><a xlink:href="inc_2vlcb_2platform_2driver_2led_8h.html" target="_top" xlink:title=" ">
<polygon fill="white" stroke="#666666" points="145.88,-147 33.12,-147 33.12,-113.5 145.88,-113.5 145.88,-147"/>
<text text-anchor="start" x="41.12" y="-133.5" font-family="Helvetica,sans-Serif" font-size="10.00">vlcb/platform/driver</text>
<text text-anchor="middle" x="89.5" y="-120.75" font-family="Helvetica,sans-Serif" font-size="10.00">/led.h</text>
</a>
</g>
</g>
<!-- Node1&#45;&gt;Node2 -->
<g id="edge1_Node000001_Node000002" class="edge">
<title>Node1&#45;&gt;Node2</title>
<g id="a_edge1_Node000001_Node000002"><a xlink:title=" ">
<path fill="none" stroke="#63b8ff" d="M128.95,-182.55C123.5,-175.47 115.88,-165.56 108.8,-156.34"/>
<polygon fill="#63b8ff" stroke="#63b8ff" points="111.78,-154.48 102.91,-148.68 106.23,-158.75 111.78,-154.48"/>
</a>
</g>
</g>
<!-- Node6 -->
<g id="Node000006" class="node">
<title>Node6</title>
<g id="a_Node000006"><a xlink:href="src_2driver_2led_8h.html" target="_top" xlink:title=" ">
<polygon fill="white" stroke="#666666" points="203.5,-140.62 163.5,-140.62 163.5,-119.88 203.5,-119.88 203.5,-140.62"/>
<text text-anchor="middle" x="183.5" y="-127.12" font-family="Helvetica,sans-Serif" font-size="10.00">led.h</text>
</a>
</g>
</g>
<!-- Node1&#45;&gt;Node6 -->
<g id="edge6_Node000001_Node000006" class="edge">
<title>Node1&#45;&gt;Node6</title>
<g id="a_edge6_Node000001_Node000006"><a xlink:title=" ">
<path fill="none" stroke="#63b8ff" d="M144.05,-182.55C150.81,-173.77 160.89,-160.66 169.17,-149.89"/>
<polygon fill="#63b8ff" stroke="#63b8ff" points="171.88,-152.11 175.2,-142.04 166.33,-147.84 171.88,-152.11"/>
</a>
</g>
</g>
<!-- Node3 -->
<g id="Node000003" class="node">
<title>Node3</title>
<g id="a_Node000003"><a xlink:title=" ">
<polygon fill="#e0e0e0" stroke="#999999" points="61,-77.5 0,-77.5 0,-56.75 61,-56.75 61,-77.5"/>
<text text-anchor="middle" x="30.5" y="-64" font-family="Helvetica,sans-Serif" font-size="10.00">stdbool.h</text>
</a>
</g>
</g>
<!-- Node2&#45;&gt;Node3 -->
<g id="edge2_Node000002_Node000003" class="edge">
<title>Node2&#45;&gt;Node3</title>
<g id="a_edge2_Node000002_Node000003"><a xlink:title=" ">
<path fill="none" stroke="#63b8ff" d="M74,-113.19C65.99,-104.89 56.19,-94.74 47.92,-86.18"/>
<polygon fill="#63b8ff" stroke="#63b8ff" points="50.51,-83.82 41.05,-79.06 45.48,-88.68 50.51,-83.82"/>
</a>
</g>
</g>
<!-- Node4 -->
<g id="Node000004" class="node">
<title>Node4</title>
<g id="a_Node000004"><a xlink:title=" ">
<polygon fill="#e0e0e0" stroke="#999999" points="158.88,-20.75 106.12,-20.75 106.12,0 158.88,0 158.88,-20.75"/>
<text text-anchor="middle" x="132.5" y="-7.25" font-family="Helvetica,sans-Serif" font-size="10.00">stdint.h</text>
</a>
</g>
</g>
<!-- Node2&#45;&gt;Node4 -->
<g id="edge3_Node000002_Node000004" class="edge">
<title>Node2&#45;&gt;Node4</title>
<g id="a_edge3_Node000002_Node000004"><a xlink:title=" ">
<path fill="none" stroke="#63b8ff" d="M92.62,-113.08C95.76,-98.16 101.18,-75.54 108.5,-56.75 111.89,-48.06 116.51,-38.89 120.8,-31.08"/>
<polygon fill="#63b8ff" stroke="#63b8ff" points="123.81,-32.89 125.73,-22.47 117.73,-29.42 123.81,-32.89"/>
</a>
</g>
</g>
<!-- Node5 -->
<g id="Node000005" class="node">
<title>Node5</title>
<g id="a_Node000005"><a xlink:href="time_8h.html" target="_top" xlink:title=" ">
<polygon fill="white" stroke="#666666" points="233.38,-77.5 117.62,-77.5 117.62,-56.75 233.38,-56.75 233.38,-77.5"/>
<text text-anchor="middle" x="175.5" y="-64" font-family="Helvetica,sans-Serif" font-size="10.00">vlcb/platform/time.h</text>
</a>
</g>
</g>
<!-- Node2&#45;&gt;Node5 -->
<g id="edge4_Node000002_Node000005" class="edge">
<title>Node2&#45;&gt;Node5</title>
<g id="a_edge4_Node000002_Node000005"><a xlink:title=" ">
<path fill="none" stroke="#63b8ff" d="M112.1,-113.19C124.5,-104.37 139.86,-93.45 152.36,-84.57"/>
<polygon fill="#63b8ff" stroke="#63b8ff" points="154.3,-87.49 160.42,-78.84 150.24,-81.78 154.3,-87.49"/>
</a>
</g>
</g>
<!-- Node5&#45;&gt;Node4 -->
<g id="edge5_Node000005_Node000004" class="edge">
<title>Node5&#45;&gt;Node4</title>
<g id="a_edge5_Node000005_Node000004"><a xlink:title=" ">
<path fill="none" stroke="#63b8ff" d="M167.81,-56.34C162.06,-49.02 154.03,-38.79 147.08,-29.94"/>
<polygon fill="#63b8ff" stroke="#63b8ff" points="149.99,-27.97 141.06,-22.27 144.48,-32.3 149.99,-27.97"/>
</a>
</g>
</g>
</g>
</svg>
