<?xml version="1.0" encoding="UTF-8" standalone="no"?>
<!DOCTYPE svg PUBLIC "-//W3C//DTD SVG 1.1//EN"
 "http://www.w3.org/Graphics/SVG/1.1/DTD/svg11.dtd">
<!-- Generated by graphviz version 12.1.2 (20240928.0832)
 -->
<!-- Title: led.c Pages: 1 -->
<svg width="291pt" height="157pt"
 viewBox="0.00 0.00 291.25 156.69" xmlns="http://www.w3.org/2000/svg" xmlns:xlink="http://www.w3.org/1999/xlink">
<g id="graph0" class="graph" transform="scale(1 1) rotate(0) translate(4 152.69)">
<title>led.c</title>
<!-- Node1 -->
<g id="Node000001" class="node">
<title>Node1</title>
<g id="a_Node000001"><a xlink:title=" ">
<polygon fill="#999999" stroke="#666666" points="168,-148.69 128.75,-148.69 128.75,-127.94 168,-127.94 168,-148.69"/>
<text text-anchor="middle" x="148.38" y="-135.19" font-family="Helvetica,sans-Serif" font-size="10.00">led.c</text>
</a>
</g>
</g>
<!-- Node2 -->
<g id="Node000002" class="node">
<title>Node2</title>
<g id="a_Node000002"><a xlink:href="inc_2vlcb_2platform_2driver_2led_8h.html" target="_top" xlink:title=" ">
<polygon fill="white" stroke="#666666" points="157.75,-91.94 45,-91.94 45,-58.44 157.75,-58.44 157.75,-91.94"/>
<text text-anchor="start" x="53" y="-78.44" font-family="Helvetica,sans-Serif" font-size="10.00">vlcb/platform/driver</text>
<text text-anchor="middle" x="101.38" y="-65.69" font-family="Helvetica,sans-Serif" font-size="10.00">/led.h</text>
</a>
</g>
</g>
<!-- Node1&#45;&gt;Node2 -->
<g id="edge1_Node000001_Node000002" class="edge">
<title>Node1&#45;&gt;Node2</title>
<g id="a_edge1_Node000001_Node000002"><a xlink:title=" ">
<path fill="none" stroke="#63b8ff" d="M140.82,-127.5C135.37,-120.41 127.76,-110.5 120.67,-101.29"/>
<polygon fill="#63b8ff" stroke="#63b8ff" points="123.65,-99.42 114.78,-93.63 118.1,-103.69 123.65,-99.42"/>
</a>
</g>
</g>
<!-- Node6 -->
<g id="Node000006" class="node">
<title>Node6</title>
<g id="a_Node000006"><a xlink:href="src_2driver_2led_8h.html" target="_top" xlink:title=" ">
<polygon fill="white" stroke="#666666" points="215.38,-85.57 175.38,-85.57 175.38,-64.82 215.38,-64.82 215.38,-85.57"/>
<text text-anchor="middle" x="195.38" y="-72.07" font-family="Helvetica,sans-Serif" font-size="10.00">led.h</text>
</a>
</g>
</g>
<!-- Node1&#45;&gt;Node6 -->
<g id="edge6_Node000001_Node000006" class="edge">
<title>Node1&#45;&gt;Node6</title>
<g id="a_edge6_Node000001_Node000006"><a xlink:title=" ">
<path fill="none" stroke="#63b8ff" d="M155.93,-127.5C162.68,-118.71 172.76,-105.6 181.05,-94.83"/>
<polygon fill="#63b8ff" stroke="#63b8ff" points="183.75,-97.05 187.07,-86.99 178.2,-92.78 183.75,-97.05"/>
</a>
</g>
</g>
<!-- Node3 -->
<g id="Node000003" class="node">
<title>Node3</title>
<g id="a_Node000003"><a xlink:title=" ">
<polygon fill="#e0e0e0" stroke="#999999" points="52.75,-22.44 0,-22.44 0,-1.69 52.75,-1.69 52.75,-22.44"/>
<text text-anchor="middle" x="26.38" y="-8.94" font-family="Helvetica,sans-Serif" font-size="10.00">stdint.h</text>
</a>
</g>
</g>
<!-- Node2&#45;&gt;Node3 -->
<g id="edge2_Node000002_Node000003" class="edge">
<title>Node2&#45;&gt;Node3</title>
<g id="a_edge2_Node000002_Node000003"><a xlink:title=" ">
<path fill="none" stroke="#63b8ff" d="M81.67,-58.13C71.06,-49.49 57.98,-38.83 47.21,-30.04"/>
<polygon fill="#63b8ff" stroke="#63b8ff" points="49.59,-27.47 39.62,-23.86 45.16,-32.9 49.59,-27.47"/>
</a>
</g>
</g>
<!-- Node4 -->
<g id="Node000004" class="node">
<title>Node4</title>
<g id="a_Node000004"><a xlink:title=" ">
<polygon fill="#e0e0e0" stroke="#999999" points="131.88,-22.44 70.88,-22.44 70.88,-1.69 131.88,-1.69 131.88,-22.44"/>
<text text-anchor="middle" x="101.38" y="-8.94" font-family="Helvetica,sans-Serif" font-size="10.00">stdbool.h</text>
</a>
</g>
</g>
<!-- Node2&#45;&gt;Node4 -->
<g id="edge3_Node000002_Node000004" class="edge">
<title>Node2&#45;&gt;Node4</title>
<g id="a_edge3_Node000002_Node000004"><a xlink:title=" ">
<path fill="none" stroke="#63b8ff" d="M101.38,-58.13C101.38,-50.8 101.38,-42.01 101.38,-34.15"/>
<polygon fill="#63b8ff" stroke="#63b8ff" points="104.88,-34.42 101.38,-24.42 97.88,-34.42 104.88,-34.42"/>
</a>
</g>
</g>
<!-- Node5 -->
<g id="Node000005" class="node">
<title>Node5</title>
<g id="a_Node000005"><a xlink:href="time_8h.html" target="_top" xlink:title=" ">
<polygon fill="white" stroke="#666666" points="265.25,-22.44 149.5,-22.44 149.5,-1.69 265.25,-1.69 265.25,-22.44"/>
<text text-anchor="middle" x="207.38" y="-8.94" font-family="Helvetica,sans-Serif" font-size="10.00">vlcb/platform/time.h</text>
</a>
</g>
</g>
<!-- Node2&#45;&gt;Node5 -->
<g id="edge4_Node000002_Node000005" class="edge">
<title>Node2&#45;&gt;Node5</title>
<g id="a_edge4_Node000002_Node000005"><a xlink:title=" ">
<path fill="none" stroke="#63b8ff" d="M129.5,-57.97C145.4,-48.8 165.16,-37.41 180.8,-28.39"/>
<polygon fill="#63b8ff" stroke="#63b8ff" points="182.17,-31.64 189.09,-23.61 178.68,-25.58 182.17,-31.64"/>
</a>
</g>
</g>
<!-- Node5&#45;&gt;Node5 -->
<g id="edge5_Node000005_Node000005" class="edge">
<title>Node5&#45;&gt;Node5</title>
<g id="a_edge5_Node000005_Node000005"><a xlink:title=" ">
<path fill="none" stroke="#63b8ff" d="M240.53,-22.91C262.24,-25.85 283.25,-22.24 283.25,-12.07 283.25,-3.64 268.84,0.28 251.56,-0.28"/>
<polygon fill="#63b8ff" stroke="#63b8ff" points="251.7,3.24 242.03,-1.09 252.29,-3.73 251.7,3.24"/>
</a>
</g>
</g>
</g>
</svg>
