<?xml version="1.0" encoding="UTF-8" standalone="no"?>
<!DOCTYPE svg PUBLIC "-//W3C//DTD SVG 1.1//EN"
 "http://www.w3.org/Graphics/SVG/1.1/DTD/svg11.dtd">
<!-- Generated by graphviz version 12.1.2 (20240928.0832)
 -->
<!-- Title: LogMessage Pages: 1 -->
<svg width="198pt" height="68pt"
 viewBox="0.00 0.00 198.25 67.75" xmlns="http://www.w3.org/2000/svg" xmlns:xlink="http://www.w3.org/1999/xlink">
<g id="graph0" class="graph" transform="scale(1 1) rotate(0) translate(4 63.75)">
<title>LogMessage</title>
<!-- Node1 -->
<g id="Node000001" class="node">
<title>Node1</title>
<g id="a_Node000001"><a xlink:title=" ">
<polygon fill="#999999" stroke="#666666" points="190.25,-39.75 113.5,-39.75 113.5,-19 190.25,-19 190.25,-39.75"/>
<text text-anchor="middle" x="151.88" y="-26.25" font-family="Helvetica,sans-Serif" font-size="10.00">LogMessage</text>
</a>
</g>
</g>
<!-- Node2 -->
<g id="Node000002" class="node">
<title>Node2</title>
<g id="a_Node000002"><a xlink:href="log_8c.html#a99fedf4de83e8a05d221ff50878e74f0" target="_top" xlink:title=" ">
<polygon fill="white" stroke="#666666" points="77.5,-59.75 0,-59.75 0,-39 77.5,-39 77.5,-59.75"/>
<text text-anchor="middle" x="38.75" y="-46.25" font-family="Helvetica,sans-Serif" font-size="10.00">VlcbLogError</text>
</a>
</g>
</g>
<!-- Node1&#45;&gt;Node2 -->
<g id="edge1_Node000001_Node000002" class="edge">
<title>Node1&#45;&gt;Node2</title>
<g id="a_edge1_Node000001_Node000002"><a xlink:title=" ">
<path fill="none" stroke="#63b8ff" d="M101.96,-38.18C93.84,-39.64 85.52,-41.14 77.71,-42.54"/>
<polygon fill="#63b8ff" stroke="#63b8ff" points="102.54,-41.63 111.76,-36.41 101.3,-34.74 102.54,-41.63"/>
</a>
</g>
</g>
<!-- Node3 -->
<g id="Node000003" class="node">
<title>Node3</title>
<g id="a_Node000003"><a xlink:href="log_8c.html#a248f14efa120ad3c6e4cb48dd9d5f05f" target="_top" xlink:title=" ">
<polygon fill="white" stroke="#666666" points="75.25,-20.75 2.25,-20.75 2.25,0 75.25,0 75.25,-20.75"/>
<text text-anchor="middle" x="38.75" y="-7.25" font-family="Helvetica,sans-Serif" font-size="10.00">VlcbLogInfo</text>
</a>
</g>
</g>
<!-- Node1&#45;&gt;Node3 -->
<g id="edge2_Node000001_Node000003" class="edge">
<title>Node1&#45;&gt;Node3</title>
<g id="a_edge2_Node000001_Node000003"><a xlink:title=" ">
<path fill="none" stroke="#63b8ff" d="M102.1,-21.04C93.14,-19.5 83.94,-17.93 75.46,-16.48"/>
<polygon fill="#63b8ff" stroke="#63b8ff" points="101.31,-24.45 111.76,-22.69 102.49,-17.55 101.31,-24.45"/>
</a>
</g>
</g>
</g>
</svg>
