<?xml version="1.0" encoding="UTF-8" standalone="no"?>
<!DOCTYPE svg PUBLIC "-//W3C//DTD SVG 1.1//EN"
 "http://www.w3.org/Graphics/SVG/1.1/DTD/svg11.dtd">
<!-- Generated by graphviz version 12.1.2 (20240928.0832)
 -->
<!-- Title: log.c Pages: 1 -->
<svg width="193pt" height="142pt"
 viewBox="0.00 0.00 193.38 142.25" xmlns="http://www.w3.org/2000/svg" xmlns:xlink="http://www.w3.org/1999/xlink">
<g id="graph0" class="graph" transform="scale(1 1) rotate(0) translate(4 138.25)">
<title>log.c</title>
<!-- Node1 -->
<g id="Node000001" class="node">
<title>Node1</title>
<g id="a_Node000001"><a xlink:title=" ">
<polygon fill="#999999" stroke="#666666" points="127.5,-134.25 88.25,-134.25 88.25,-113.5 127.5,-113.5 127.5,-134.25"/>
<text text-anchor="middle" x="107.88" y="-120.75" font-family="Helvetica,sans-Serif" font-size="10.00">log.c</text>
</a>
</g>
</g>
<!-- Node2 -->
<g id="Node000002" class="node">
<title>Node2</title>
<g id="a_Node000002"><a xlink:href="log_8h.html" target="_top" xlink:title=" ">
<polygon fill="white" stroke="#666666" points="112,-77.5 3.75,-77.5 3.75,-56.75 112,-56.75 112,-77.5"/>
<text text-anchor="middle" x="57.88" y="-64" font-family="Helvetica,sans-Serif" font-size="10.00">vlcb/platform/log.h</text>
</a>
</g>
</g>
<!-- Node1&#45;&gt;Node2 -->
<g id="edge1_Node000001_Node000002" class="edge">
<title>Node1&#45;&gt;Node2</title>
<g id="a_edge1_Node000001_Node000002"><a xlink:title=" ">
<path fill="none" stroke="#63b8ff" d="M98.94,-113.09C92.11,-105.61 82.51,-95.11 74.32,-86.13"/>
<polygon fill="#63b8ff" stroke="#63b8ff" points="77.09,-83.97 67.76,-78.95 71.92,-88.69 77.09,-83.97"/>
</a>
</g>
</g>
<!-- Node4 -->
<g id="Node000004" class="node">
<title>Node4</title>
<g id="a_Node000004"><a xlink:title=" ">
<polygon fill="#e0e0e0" stroke="#999999" points="185.38,-77.5 130.38,-77.5 130.38,-56.75 185.38,-56.75 185.38,-77.5"/>
<text text-anchor="middle" x="157.88" y="-64" font-family="Helvetica,sans-Serif" font-size="10.00">stddef.h</text>
</a>
</g>
</g>
<!-- Node1&#45;&gt;Node4 -->
<g id="edge3_Node000001_Node000004" class="edge">
<title>Node1&#45;&gt;Node4</title>
<g id="a_edge3_Node000001_Node000004"><a xlink:title=" ">
<path fill="none" stroke="#63b8ff" d="M116.81,-113.09C123.64,-105.61 133.24,-95.11 141.43,-86.13"/>
<polygon fill="#63b8ff" stroke="#63b8ff" points="143.83,-88.69 147.99,-78.95 138.66,-83.97 143.83,-88.69"/>
</a>
</g>
</g>
<!-- Node3 -->
<g id="Node000003" class="node">
<title>Node3</title>
<g id="a_Node000003"><a xlink:href="error_8h.html" target="_top" xlink:title=" ">
<polygon fill="white" stroke="#666666" points="115.75,-20.75 0,-20.75 0,0 115.75,0 115.75,-20.75"/>
<text text-anchor="middle" x="57.88" y="-7.25" font-family="Helvetica,sans-Serif" font-size="10.00">vlcb/platform/error.h</text>
</a>
</g>
</g>
<!-- Node2&#45;&gt;Node3 -->
<g id="edge2_Node000002_Node000003" class="edge">
<title>Node2&#45;&gt;Node3</title>
<g id="a_edge2_Node000002_Node000003"><a xlink:title=" ">
<path fill="none" stroke="#63b8ff" d="M57.88,-56.34C57.88,-49.72 57.88,-40.72 57.88,-32.52"/>
<polygon fill="#63b8ff" stroke="#63b8ff" points="61.38,-32.59 57.88,-22.59 54.38,-32.59 61.38,-32.59"/>
</a>
</g>
</g>
</g>
</svg>
