<?xml version="1.0" encoding="UTF-8" standalone="no"?>
<!DOCTYPE svg PUBLIC "-//W3C//DTD SVG 1.1//EN"
 "http://www.w3.org/Graphics/SVG/1.1/DTD/svg11.dtd">
<!-- Generated by graphviz version 12.1.2 (20240928.0832)
 -->
<!-- Title: log.h Pages: 1 -->
<svg width="481pt" height="86pt"
 viewBox="0.00 0.00 480.50 85.50" xmlns="http://www.w3.org/2000/svg" xmlns:xlink="http://www.w3.org/1999/xlink">
<g id="graph0" class="graph" transform="scale(1 1) rotate(0) translate(4 81.5)">
<title>log.h</title>
<!-- Node1 -->
<g id="Node000001" class="node">
<title>Node1</title>
<g id="a_Node000001"><a xlink:title=" ">
<polygon fill="#999999" stroke="#666666" points="249.12,-77.5 209.12,-77.5 209.12,-56.75 249.12,-56.75 249.12,-77.5"/>
<text text-anchor="middle" x="229.12" y="-64" font-family="Helvetica,sans-Serif" font-size="10.00">log.h</text>
</a>
</g>
</g>
<!-- Node2 -->
<g id="Node000002" class="node">
<title>Node2</title>
<g id="a_Node000002"><a xlink:href="iface_8c.html" target="_top" xlink:title=" ">
<polygon fill="white" stroke="#666666" points="48.25,-20.75 0,-20.75 0,0 48.25,0 48.25,-20.75"/>
<text text-anchor="middle" x="24.12" y="-7.25" font-family="Helvetica,sans-Serif" font-size="10.00">iface.c</text>
</a>
</g>
</g>
<!-- Node1&#45;&gt;Node2 -->
<g id="edge1_Node000001_Node000002" class="edge">
<title>Node1&#45;&gt;Node2</title>
<g id="a_edge1_Node000001_Node000002"><a xlink:title=" ">
<path fill="none" stroke="#63b8ff" d="M198.12,-58C163.85,-48.98 107.01,-33.97 58.12,-20.75 55.05,-19.92 51.82,-19.04 48.63,-18.16"/>
<polygon fill="#63b8ff" stroke="#63b8ff" points="196.81,-61.27 207.38,-60.43 198.59,-54.5 196.81,-61.27"/>
</a>
</g>
</g>
<!-- Node3 -->
<g id="Node000003" class="node">
<title>Node3</title>
<g id="a_Node000003"><a xlink:href="iface__can_8c.html" target="_top" xlink:title=" ">
<polygon fill="white" stroke="#666666" points="137.5,-20.75 66.75,-20.75 66.75,0 137.5,0 137.5,-20.75"/>
<text text-anchor="middle" x="102.12" y="-7.25" font-family="Helvetica,sans-Serif" font-size="10.00">iface_can.c</text>
</a>
</g>
</g>
<!-- Node1&#45;&gt;Node3 -->
<g id="edge2_Node000001_Node000003" class="edge">
<title>Node1&#45;&gt;Node3</title>
<g id="a_edge2_Node000001_Node000003"><a xlink:title=" ">
<path fill="none" stroke="#63b8ff" d="M198.25,-52.81C175.5,-43.01 145.09,-29.9 124.62,-21.07"/>
<polygon fill="#63b8ff" stroke="#63b8ff" points="196.76,-55.98 207.33,-56.73 199.53,-49.56 196.76,-55.98"/>
</a>
</g>
</g>
<!-- Node4 -->
<g id="Node000004" class="node">
<title>Node4</title>
<g id="a_Node000004"><a xlink:href="iface__vlcb_8c.html" target="_top" xlink:title=" ">
<polygon fill="white" stroke="#666666" points="229,-20.75 155.25,-20.75 155.25,0 229,0 229,-20.75"/>
<text text-anchor="middle" x="192.12" y="-7.25" font-family="Helvetica,sans-Serif" font-size="10.00">iface_vlcb.c</text>
</a>
</g>
</g>
<!-- Node1&#45;&gt;Node4 -->
<g id="edge3_Node000001_Node000004" class="edge">
<title>Node1&#45;&gt;Node4</title>
<g id="a_edge3_Node000001_Node000004"><a xlink:title=" ">
<path fill="none" stroke="#63b8ff" d="M216.13,-46.89C210.23,-38.16 203.51,-28.22 198.68,-21.08"/>
<polygon fill="#63b8ff" stroke="#63b8ff" points="213.16,-48.76 221.66,-55.08 218.96,-44.84 213.16,-48.76"/>
</a>
</g>
</g>
<!-- Node5 -->
<g id="Node000005" class="node">
<title>Node5</title>
<g id="a_Node000005"><a xlink:href="log_8c.html" target="_top" xlink:title=" ">
<polygon fill="white" stroke="#666666" points="286.75,-20.75 247.5,-20.75 247.5,0 286.75,0 286.75,-20.75"/>
<text text-anchor="middle" x="267.12" y="-7.25" font-family="Helvetica,sans-Serif" font-size="10.00">log.c</text>
</a>
</g>
</g>
<!-- Node1&#45;&gt;Node5 -->
<g id="edge4_Node000001_Node000005" class="edge">
<title>Node1&#45;&gt;Node5</title>
<g id="a_edge4_Node000001_Node000005"><a xlink:title=" ">
<path fill="none" stroke="#63b8ff" d="M242.48,-46.89C248.53,-38.16 255.43,-28.22 260.39,-21.08"/>
<polygon fill="#63b8ff" stroke="#63b8ff" points="239.61,-44.88 236.78,-55.09 245.36,-48.87 239.61,-44.88"/>
</a>
</g>
</g>
<!-- Node6 -->
<g id="Node000006" class="node">
<title>Node6</title>
<g id="a_Node000006"><a xlink:href="module_8c.html" target="_top" xlink:title=" ">
<polygon fill="white" stroke="#666666" points="365.62,-20.75 304.62,-20.75 304.62,0 365.62,0 365.62,-20.75"/>
<text text-anchor="middle" x="335.12" y="-7.25" font-family="Helvetica,sans-Serif" font-size="10.00">module.c</text>
</a>
</g>
</g>
<!-- Node1&#45;&gt;Node6 -->
<g id="edge5_Node000001_Node000006" class="edge">
<title>Node1&#45;&gt;Node6</title>
<g id="a_edge5_Node000001_Node000006"><a xlink:title=" ">
<path fill="none" stroke="#63b8ff" d="M258.06,-51.18C276.62,-41.59 300.18,-29.42 316.34,-21.08"/>
<polygon fill="#63b8ff" stroke="#63b8ff" points="256.7,-47.94 249.42,-55.64 259.91,-54.16 256.7,-47.94"/>
</a>
</g>
</g>
<!-- Node7 -->
<g id="Node000007" class="node">
<title>Node7</title>
<g id="a_Node000007"><a xlink:href="packet__parse_8c.html" target="_top" xlink:title=" ">
<polygon fill="white" stroke="#666666" points="472.5,-20.75 383.75,-20.75 383.75,0 472.5,0 472.5,-20.75"/>
<text text-anchor="middle" x="428.12" y="-7.25" font-family="Helvetica,sans-Serif" font-size="10.00">packet_parse.c</text>
</a>
</g>
</g>
<!-- Node1&#45;&gt;Node7 -->
<g id="edge6_Node000001_Node000007" class="edge">
<title>Node1&#45;&gt;Node7</title>
<g id="a_edge6_Node000001_Node000007"><a xlink:title=" ">
<path fill="none" stroke="#63b8ff" d="M260.07,-57.61C295.9,-47.75 354.81,-31.55 392.52,-21.17"/>
<polygon fill="#63b8ff" stroke="#63b8ff" points="259.47,-54.15 250.76,-60.17 261.33,-60.89 259.47,-54.15"/>
</a>
</g>
</g>
</g>
</svg>
