<?xml version="1.0" encoding="UTF-8" standalone="no"?>
<!DOCTYPE svg PUBLIC "-//W3C//DTD SVG 1.1//EN"
 "http://www.w3.org/Graphics/SVG/1.1/DTD/svg11.dtd">
<!-- Generated by graphviz version 12.1.2 (20240928.0832)
 -->
<!-- Title: manufacturer.h Pages: 1 -->
<svg width="727pt" height="256pt"
 viewBox="0.00 0.00 726.79 255.75" xmlns="http://www.w3.org/2000/svg" xmlns:xlink="http://www.w3.org/1999/xlink">
<g id="graph0" class="graph" transform="scale(1 1) rotate(0) translate(4 251.75)">
<title>manufacturer.h</title>
<!-- Node1 -->
<g id="Node000001" class="node">
<title>Node1</title>
<g id="a_Node000001"><a xlink:title=" ">
<polygon fill="#999999" stroke="#666666" points="496.62,-247.75 406.38,-247.75 406.38,-227 496.62,-227 496.62,-247.75"/>
<text text-anchor="middle" x="451.5" y="-234.25" font-family="Helvetica,sans-Serif" font-size="10.00">manufacturer.h</text>
</a>
</g>
</g>
<!-- Node2 -->
<g id="Node000002" class="node">
<title>Node2</title>
<g id="a_Node000002"><a xlink:href="net_2inc_2vlcb_2net_2packet_2datagram_2module_8h.html" target="_top" xlink:title=" ">
<polygon fill="white" stroke="#666666" points="317.38,-77.5 255.62,-77.5 255.62,-56.75 317.38,-56.75 317.38,-77.5"/>
<text text-anchor="middle" x="286.5" y="-64" font-family="Helvetica,sans-Serif" font-size="10.00">module.h</text>
</a>
</g>
</g>
<!-- Node1&#45;&gt;Node2 -->
<g id="edge1_Node000001_Node000002" class="edge">
<title>Node1&#45;&gt;Node2</title>
<g id="a_edge1_Node000001_Node000002"><a xlink:title=" ">
<path fill="none" stroke="#63b8ff" d="M434.36,-218.9C399.89,-183.75 323.18,-105.53 296.15,-77.97"/>
<polygon fill="#63b8ff" stroke="#63b8ff" points="431.6,-221.08 441.1,-225.77 436.59,-216.18 431.6,-221.08"/>
</a>
</g>
</g>
<!-- Node7 -->
<g id="Node000007" class="node">
<title>Node7</title>
<g id="a_Node000007"><a xlink:href="inc_2vlcb_2module_2param_8h.html" target="_top" xlink:title=" ">
<polygon fill="white" stroke="#666666" points="645.75,-191 589.25,-191 589.25,-170.25 645.75,-170.25 645.75,-191"/>
<text text-anchor="middle" x="617.5" y="-177.5" font-family="Helvetica,sans-Serif" font-size="10.00">param.h</text>
</a>
</g>
</g>
<!-- Node1&#45;&gt;Node7 -->
<g id="edge6_Node000001_Node000007" class="edge">
<title>Node1&#45;&gt;Node7</title>
<g id="a_edge6_Node000001_Node000007"><a xlink:title=" ">
<path fill="none" stroke="#63b8ff" d="M491.74,-223.1C521.78,-213.19 562.11,-199.89 588.91,-191.05"/>
<polygon fill="#63b8ff" stroke="#63b8ff" points="491.02,-219.66 482.61,-226.11 493.21,-226.3 491.02,-219.66"/>
</a>
</g>
</g>
<!-- Node3 -->
<g id="Node000003" class="node">
<title>Node3</title>
<g id="a_Node000003"><a xlink:href="module_8c.html" target="_top" xlink:title=" ">
<polygon fill="white" stroke="#666666" points="570,-20.75 509,-20.75 509,0 570,0 570,-20.75"/>
<text text-anchor="middle" x="539.5" y="-7.25" font-family="Helvetica,sans-Serif" font-size="10.00">module.c</text>
</a>
</g>
</g>
<!-- Node2&#45;&gt;Node3 -->
<g id="edge2_Node000002_Node000003" class="edge">
<title>Node2&#45;&gt;Node3</title>
<g id="a_edge2_Node000002_Node000003"><a xlink:title=" ">
<path fill="none" stroke="#63b8ff" d="M329.02,-56.92C379.86,-45.92 463.7,-27.78 508.69,-18.04"/>
<polygon fill="#63b8ff" stroke="#63b8ff" points="328.29,-53.5 319.26,-59.04 329.77,-60.34 328.29,-53.5"/>
</a>
</g>
</g>
<!-- Node4 -->
<g id="Node000004" class="node">
<title>Node4</title>
<g id="a_Node000004"><a xlink:href="release__node__num__deserialize_8c.html" target="_top" xlink:title=" ">
<polygon fill="white" stroke="#666666" points="175,-20.75 0,-20.75 0,0 175,0 175,-20.75"/>
<text text-anchor="middle" x="87.5" y="-7.25" font-family="Helvetica,sans-Serif" font-size="10.00">release_node_num_deserialize.c</text>
</a>
</g>
</g>
<!-- Node2&#45;&gt;Node4 -->
<g id="edge3_Node000002_Node000004" class="edge">
<title>Node2&#45;&gt;Node4</title>
<g id="a_edge3_Node000002_Node000004"><a xlink:title=" ">
<path fill="none" stroke="#63b8ff" d="M244.75,-54.64C208.71,-44.72 157.2,-30.55 123.08,-21.16"/>
<polygon fill="#63b8ff" stroke="#63b8ff" points="243.38,-57.89 253.95,-57.17 245.23,-51.14 243.38,-57.89"/>
</a>
</g>
</g>
<!-- Node5 -->
<g id="Node000005" class="node">
<title>Node5</title>
<g id="a_Node000005"><a xlink:href="release__node__num__serialize_8c.html" target="_top" xlink:title=" ">
<polygon fill="white" stroke="#666666" points="356,-20.75 193,-20.75 193,0 356,0 356,-20.75"/>
<text text-anchor="middle" x="274.5" y="-7.25" font-family="Helvetica,sans-Serif" font-size="10.00">release_node_num_serialize.c</text>
</a>
</g>
</g>
<!-- Node2&#45;&gt;Node5 -->
<g id="edge4_Node000002_Node000005" class="edge">
<title>Node2&#45;&gt;Node5</title>
<g id="a_edge4_Node000002_Node000005"><a xlink:title=" ">
<path fill="none" stroke="#63b8ff" d="M281.91,-45.17C280.09,-36.88 278.09,-27.75 276.63,-21.08"/>
<polygon fill="#63b8ff" stroke="#63b8ff" points="278.47,-45.84 284.03,-54.86 285.31,-44.34 278.47,-45.84"/>
</a>
</g>
</g>
<!-- Node6 -->
<g id="Node000006" class="node">
<title>Node6</title>
<g id="a_Node000006"><a xlink:href="state__machine_8c.html" target="_top" xlink:title=" ">
<polygon fill="white" stroke="#666666" points="470.62,-20.75 374.38,-20.75 374.38,0 470.62,0 470.62,-20.75"/>
<text text-anchor="middle" x="422.5" y="-7.25" font-family="Helvetica,sans-Serif" font-size="10.00">state_machine.c</text>
</a>
</g>
</g>
<!-- Node2&#45;&gt;Node6 -->
<g id="edge5_Node000002_Node000006" class="edge">
<title>Node2&#45;&gt;Node6</title>
<g id="a_edge5_Node000002_Node000006"><a xlink:title=" ">
<path fill="none" stroke="#63b8ff" d="M321.32,-52.11C345.46,-42.39 377,-29.69 398.4,-21.08"/>
<polygon fill="#63b8ff" stroke="#63b8ff" points="320.19,-48.79 312.22,-55.77 322.8,-55.28 320.19,-48.79"/>
</a>
</g>
</g>
<!-- Node7&#45;&gt;Node3 -->
<g id="edge7_Node000007_Node000003" class="edge">
<title>Node7&#45;&gt;Node3</title>
<g id="a_edge7_Node000007_Node000003"><a xlink:title=" ">
<path fill="none" stroke="#63b8ff" d="M644.66,-163.86C681.62,-140.43 739.95,-95.03 710.5,-56.75 693.5,-34.66 614.65,-21.08 570.2,-15.05"/>
<polygon fill="#63b8ff" stroke="#63b8ff" points="642.87,-160.86 636.19,-169.08 646.54,-166.82 642.87,-160.86"/>
</a>
</g>
</g>
<!-- Node8 -->
<g id="Node000008" class="node">
<title>Node8</title>
<g id="a_Node000008"><a xlink:href="module_2inc_2vlcb_2module_8h.html" target="_top" xlink:title=" ">
<polygon fill="white" stroke="#666666" points="530.38,-134.25 468.62,-134.25 468.62,-113.5 530.38,-113.5 530.38,-134.25"/>
<text text-anchor="middle" x="499.5" y="-120.75" font-family="Helvetica,sans-Serif" font-size="10.00">module.h</text>
</a>
</g>
</g>
<!-- Node7&#45;&gt;Node8 -->
<g id="edge8_Node000007_Node000008" class="edge">
<title>Node7&#45;&gt;Node8</title>
<g id="a_edge8_Node000007_Node000008"><a xlink:title=" ">
<path fill="none" stroke="#63b8ff" d="M586.15,-165.08C565.36,-155.43 538.65,-143.04 520.41,-134.58"/>
<polygon fill="#63b8ff" stroke="#63b8ff" points="584.49,-168.17 595.03,-169.2 587.43,-161.82 584.49,-168.17"/>
</a>
</g>
</g>
<!-- Node11 -->
<g id="Node000011" class="node">
<title>Node11</title>
<g id="a_Node000011"><a xlink:href="param_8c.html" target="_top" xlink:title=" ">
<polygon fill="white" stroke="#666666" points="701.38,-77.5 645.62,-77.5 645.62,-56.75 701.38,-56.75 701.38,-77.5"/>
<text text-anchor="middle" x="673.5" y="-64" font-family="Helvetica,sans-Serif" font-size="10.00">param.c</text>
</a>
</g>
</g>
<!-- Node7&#45;&gt;Node11 -->
<g id="edge16_Node000007_Node000011" class="edge">
<title>Node7&#45;&gt;Node11</title>
<g id="a_edge16_Node000007_Node000011"><a xlink:title=" ">
<path fill="none" stroke="#63b8ff" d="M634.96,-161.69C641.86,-153.8 649.35,-144.09 654.5,-134.25 664.35,-115.41 669.69,-90.8 672.03,-77.55"/>
<polygon fill="#63b8ff" stroke="#63b8ff" points="632.52,-159.17 628.34,-168.91 637.68,-163.91 632.52,-159.17"/>
</a>
</g>
</g>
<!-- Node12 -->
<g id="Node000012" class="node">
<title>Node12</title>
<g id="a_Node000012"><a xlink:href="src_2param_8h.html" target="_top" xlink:title=" ">
<polygon fill="white" stroke="#666666" points="645.75,-134.25 589.25,-134.25 589.25,-113.5 645.75,-113.5 645.75,-134.25"/>
<text text-anchor="middle" x="617.5" y="-120.75" font-family="Helvetica,sans-Serif" font-size="10.00">param.h</text>
</a>
</g>
</g>
<!-- Node7&#45;&gt;Node12 -->
<g id="edge17_Node000007_Node000012" class="edge">
<title>Node7&#45;&gt;Node12</title>
<g id="a_edge17_Node000007_Node000012"><a xlink:title=" ">
<path fill="none" stroke="#63b8ff" d="M617.5,-158.38C617.5,-150.16 617.5,-141.18 617.5,-134.58"/>
<polygon fill="#63b8ff" stroke="#63b8ff" points="614,-158.32 617.5,-168.32 621,-158.32 614,-158.32"/>
</a>
</g>
</g>
<!-- Node8&#45;&gt;Node3 -->
<g id="edge9_Node000008_Node000003" class="edge">
<title>Node8&#45;&gt;Node3</title>
<g id="a_edge9_Node000008_Node000003"><a xlink:title=" ">
<path fill="none" stroke="#63b8ff" d="M504.57,-102.17C508.01,-89 512.94,-71.68 518.5,-56.75 523.23,-44.06 529.99,-29.99 534.55,-20.93"/>
<polygon fill="#63b8ff" stroke="#63b8ff" points="501.19,-101.29 502.13,-111.84 507.97,-103.01 501.19,-101.29"/>
</a>
</g>
</g>
<!-- Node8&#45;&gt;Node6 -->
<g id="edge12_Node000008_Node000006" class="edge">
<title>Node8&#45;&gt;Node6</title>
<g id="a_edge12_Node000008_Node000006"><a xlink:title=" ">
<path fill="none" stroke="#63b8ff" d="M456.89,-120.93C425.98,-117.02 386.13,-106.26 365.5,-77.5 350.31,-56.32 381.26,-33.75 403.21,-21.22"/>
<polygon fill="#63b8ff" stroke="#63b8ff" points="456.43,-124.4 466.74,-121.96 457.15,-117.44 456.43,-124.4"/>
</a>
</g>
</g>
<!-- Node9 -->
<g id="Node000009" class="node">
<title>Node9</title>
<g id="a_Node000009"><a xlink:href="module_2src_2module_8h.html" target="_top" xlink:title=" ">
<polygon fill="white" stroke="#666666" points="589.38,-77.5 527.62,-77.5 527.62,-56.75 589.38,-56.75 589.38,-77.5"/>
<text text-anchor="middle" x="558.5" y="-64" font-family="Helvetica,sans-Serif" font-size="10.00">module.h</text>
</a>
</g>
</g>
<!-- Node8&#45;&gt;Node9 -->
<g id="edge10_Node000008_Node000009" class="edge">
<title>Node8&#45;&gt;Node9</title>
<g id="a_edge10_Node000008_Node000009"><a xlink:title=" ">
<path fill="none" stroke="#63b8ff" d="M518.41,-105.33C528.22,-96.22 539.85,-85.43 548.04,-77.83"/>
<polygon fill="#63b8ff" stroke="#63b8ff" points="516.11,-102.69 511.16,-112.06 520.87,-107.82 516.11,-102.69"/>
</a>
</g>
</g>
<!-- Node10 -->
<g id="Node000010" class="node">
<title>Node10</title>
<g id="a_Node000010"><a xlink:href="state__machine_8h.html" target="_top" xlink:title=" ">
<polygon fill="white" stroke="#666666" points="471,-77.5 374,-77.5 374,-56.75 471,-56.75 471,-77.5"/>
<text text-anchor="middle" x="422.5" y="-64" font-family="Helvetica,sans-Serif" font-size="10.00">state_machine.h</text>
</a>
</g>
</g>
<!-- Node8&#45;&gt;Node10 -->
<g id="edge13_Node000008_Node000010" class="edge">
<title>Node8&#45;&gt;Node10</title>
<g id="a_edge13_Node000008_Node000010"><a xlink:title=" ">
<path fill="none" stroke="#63b8ff" d="M476.38,-106.44C463.26,-97.11 447.28,-85.75 436.15,-77.83"/>
<polygon fill="#63b8ff" stroke="#63b8ff" points="474.32,-109.27 484.5,-112.21 478.38,-103.56 474.32,-109.27"/>
</a>
</g>
</g>
<!-- Node9&#45;&gt;Node3 -->
<g id="edge11_Node000009_Node000003" class="edge">
<title>Node9&#45;&gt;Node3</title>
<g id="a_edge11_Node000009_Node000003"><a xlink:title=" ">
<path fill="none" stroke="#63b8ff" d="M551.43,-45.74C548.5,-37.3 545.24,-27.91 542.87,-21.08"/>
<polygon fill="#63b8ff" stroke="#63b8ff" points="548.02,-46.61 554.61,-54.91 554.63,-44.31 548.02,-46.61"/>
</a>
</g>
</g>
<!-- Node10&#45;&gt;Node3 -->
<g id="edge14_Node000010_Node000003" class="edge">
<title>Node10&#45;&gt;Node3</title>
<g id="a_edge14_Node000010_Node000003"><a xlink:title=" ">
<path fill="none" stroke="#63b8ff" d="M453.59,-51.58C474.2,-41.93 500.68,-29.54 518.76,-21.08"/>
<polygon fill="#63b8ff" stroke="#63b8ff" points="452.36,-48.29 444.79,-55.7 455.33,-54.63 452.36,-48.29"/>
</a>
</g>
</g>
<!-- Node10&#45;&gt;Node6 -->
<g id="edge15_Node000010_Node000006" class="edge">
<title>Node10&#45;&gt;Node6</title>
<g id="a_edge15_Node000010_Node000006"><a xlink:title=" ">
<path fill="none" stroke="#63b8ff" d="M422.5,-44.88C422.5,-36.66 422.5,-27.68 422.5,-21.08"/>
<polygon fill="#63b8ff" stroke="#63b8ff" points="419,-44.82 422.5,-54.82 426,-44.82 419,-44.82"/>
</a>
</g>
</g>
<!-- Node12&#45;&gt;Node3 -->
<g id="edge18_Node000012_Node000003" class="edge">
<title>Node12&#45;&gt;Node3</title>
<g id="a_edge18_Node000012_Node000003"><a xlink:title=" ">
<path fill="none" stroke="#63b8ff" d="M614.93,-101.85C612.45,-88.08 607.66,-70.21 598.5,-56.75 588.1,-41.47 570.91,-29.11 557.76,-21.16"/>
<polygon fill="#63b8ff" stroke="#63b8ff" points="611.45,-102.23 616.39,-111.6 618.37,-101.19 611.45,-102.23"/>
</a>
</g>
</g>
<!-- Node12&#45;&gt;Node11 -->
<g id="edge19_Node000012_Node000011" class="edge">
<title>Node12&#45;&gt;Node11</title>
<g id="a_edge19_Node000012_Node000011"><a xlink:title=" ">
<path fill="none" stroke="#63b8ff" d="M635.73,-105.05C644.99,-96 655.87,-85.36 663.57,-77.83"/>
<polygon fill="#63b8ff" stroke="#63b8ff" points="633.3,-102.54 628.59,-112.03 638.19,-107.54 633.3,-102.54"/>
</a>
</g>
</g>
</g>
</svg>
