<?xml version="1.0" encoding="UTF-8" standalone="no"?>
<!DOCTYPE svg PUBLIC "-//W3C//DTD SVG 1.1//EN"
 "http://www.w3.org/Graphics/SVG/1.1/DTD/svg11.dtd">
<!-- Generated by graphviz version 12.1.2 (20240928.0832)
 -->
<!-- Title: vlcb_module_Poll Pages: 1 -->
<svg width="1220pt" height="359pt"
 viewBox="0.00 0.00 1219.50 359.12" xmlns="http://www.w3.org/2000/svg" xmlns:xlink="http://www.w3.org/1999/xlink">
<g id="graph0" class="graph" transform="scale(1 1) rotate(0) translate(4 355.12)">
<title>vlcb_module_Poll</title>
<!-- Node1 -->
<g id="Node000001" class="node">
<title>Node1</title>
<g id="a_Node000001"><a xlink:title=" ">
<polygon fill="#999999" stroke="#666666" points="101.5,-195.12 0,-195.12 0,-174.38 101.5,-174.38 101.5,-195.12"/>
<text text-anchor="middle" x="50.75" y="-181.62" font-family="Helvetica,sans-Serif" font-size="10.00">vlcb_module_Poll</text>
</a>
</g>
</g>
<!-- Node2 -->
<g id="Node000002" class="node">
<title>Node2</title>
<g id="a_Node000002"><a xlink:href="module_8c.html#a7619749367a14232feaf0513698c63d8" target="_top" xlink:title=" ">
<polygon fill="white" stroke="#666666" points="454.5,-351.12 355.25,-351.12 355.25,-330.38 454.5,-330.38 454.5,-351.12"/>
<text text-anchor="middle" x="404.88" y="-337.62" font-family="Helvetica,sans-Serif" font-size="10.00">HandleHeartbeat</text>
</a>
</g>
</g>
<!-- Node1&#45;&gt;Node2 -->
<g id="edge1_Node000001_Node000002" class="edge">
<title>Node1&#45;&gt;Node2</title>
<g id="a_edge1_Node000001_Node000002"><a xlink:title=" ">
<path fill="none" stroke="#63b8ff" d="M69.98,-195.58C112.95,-220.73 224.52,-283.72 324.5,-320.75 330.88,-323.11 337.66,-325.29 344.45,-327.28"/>
<polygon fill="#63b8ff" stroke="#63b8ff" points="343.07,-330.52 353.64,-329.82 344.93,-323.78 343.07,-330.52"/>
</a>
</g>
</g>
<!-- Node6 -->
<g id="Node000006" class="node">
<title>Node6</title>
<g id="a_Node000006"><a xlink:href="module_8c.html#a32ed02b26ffaed7947004cd1309f5847" target="_top" xlink:title=" ">
<polygon fill="white" stroke="#666666" points="272.75,-195.12 153.25,-195.12 153.25,-174.38 272.75,-174.38 272.75,-195.12"/>
<text text-anchor="middle" x="213" y="-181.62" font-family="Helvetica,sans-Serif" font-size="10.00">HandleMnsMessages</text>
</a>
</g>
</g>
<!-- Node1&#45;&gt;Node6 -->
<g id="edge5_Node000001_Node000006" class="edge">
<title>Node1&#45;&gt;Node6</title>
<g id="a_edge5_Node000001_Node000006"><a xlink:title=" ">
<path fill="none" stroke="#63b8ff" d="M101.58,-184.75C114.28,-184.75 128.18,-184.75 141.7,-184.75"/>
<polygon fill="#63b8ff" stroke="#63b8ff" points="141.41,-188.25 151.41,-184.75 141.41,-181.25 141.41,-188.25"/>
</a>
</g>
</g>
<!-- Node20 -->
<g id="Node000020" class="node">
<title>Node20</title>
<g id="a_Node000020"><a xlink:href="socket_2datagram_8c.html#a107d2d2542862f851d0fd20080b277cb" target="_top" xlink:title=" ">
<polygon fill="white" stroke="#666666" points="288.5,-92.12 137.5,-92.12 137.5,-71.38 288.5,-71.38 288.5,-92.12"/>
<text text-anchor="middle" x="213" y="-78.62" font-family="Helvetica,sans-Serif" font-size="10.00">vlcb_net_sock_dgram_Recv</text>
</a>
</g>
</g>
<!-- Node1&#45;&gt;Node20 -->
<g id="edge25_Node000001_Node000020" class="edge">
<title>Node1&#45;&gt;Node20</title>
<g id="a_edge25_Node000001_Node000020"><a xlink:title=" ">
<path fill="none" stroke="#63b8ff" d="M68.6,-173.92C96.56,-155.95 152.76,-119.83 185.89,-98.53"/>
<polygon fill="#63b8ff" stroke="#63b8ff" points="187.59,-101.6 194.11,-93.25 183.8,-95.71 187.59,-101.6"/>
</a>
</g>
</g>
<!-- Node3 -->
<g id="Node000003" class="node">
<title>Node3</title>
<g id="a_Node000003"><a xlink:href="socket_2datagram_8c.html#a7da610c48db02cd38212ef1545d00f00" target="_top" xlink:title=" ">
<polygon fill="white" stroke="#666666" points="1036.5,-196.12 885.5,-196.12 885.5,-175.38 1036.5,-175.38 1036.5,-196.12"/>
<text text-anchor="middle" x="961" y="-182.62" font-family="Helvetica,sans-Serif" font-size="10.00">vlcb_net_sock_dgram_Send</text>
</a>
</g>
</g>
<!-- Node2&#45;&gt;Node3 -->
<g id="edge2_Node000002_Node000003" class="edge">
<title>Node2&#45;&gt;Node3</title>
<g id="a_edge2_Node000002_Node000003"><a xlink:title=" ">
<path fill="none" stroke="#63b8ff" d="M454.81,-337.27C503.35,-333.06 579.57,-324.34 643.75,-307.75 750.8,-280.07 871.07,-227.3 927.49,-201.18"/>
<polygon fill="#63b8ff" stroke="#63b8ff" points="928.62,-204.52 936.21,-197.12 925.67,-198.17 928.62,-204.52"/>
</a>
</g>
</g>
<!-- Node5 -->
<g id="Node000005" class="node">
<title>Node5</title>
<g id="a_Node000005"><a xlink:href="socket_2datagram_8h.html#a396e9e0c1c9943bbb0cb52fe73967630" target="_top" xlink:title=" ">
<polygon fill="white" stroke="#666666" points="643.38,-298.5 521.62,-298.5 521.62,-265 643.38,-265 643.38,-298.5"/>
<text text-anchor="start" x="529.62" y="-285" font-family="Helvetica,sans-Serif" font-size="10.00">vlcb_net_sock_dgram</text>
<text text-anchor="middle" x="582.5" y="-272.25" font-family="Helvetica,sans-Serif" font-size="10.00">_SendErrToStr</text>
</a>
</g>
</g>
<!-- Node2&#45;&gt;Node5 -->
<g id="edge4_Node000002_Node000005" class="edge">
<title>Node2&#45;&gt;Node5</title>
<g id="a_edge4_Node000002_Node000005"><a xlink:title=" ">
<path fill="none" stroke="#63b8ff" d="M453.19,-329.97C463.82,-327.23 474.98,-324.11 485.25,-320.75 500.7,-315.7 517.19,-309.37 532.09,-303.29"/>
<polygon fill="#63b8ff" stroke="#63b8ff" points="533.32,-306.57 541.22,-299.51 530.64,-300.11 533.32,-306.57"/>
</a>
</g>
</g>
<!-- Node4 -->
<g id="Node000004" class="node">
<title>Node4</title>
<g id="a_Node000004"><a xlink:href="packet__buf_8c.html#afa80d4fb078473100610ba106bd5cb46" target="_top" xlink:title=" ">
<polygon fill="white" stroke="#666666" points="1211.5,-196.12 1072.5,-196.12 1072.5,-175.38 1211.5,-175.38 1211.5,-196.12"/>
<text text-anchor="middle" x="1142" y="-182.62" font-family="Helvetica,sans-Serif" font-size="10.00">vlcb_net_packetbuf_Push</text>
</a>
</g>
</g>
<!-- Node3&#45;&gt;Node4 -->
<g id="edge3_Node000003_Node000004" class="edge">
<title>Node3&#45;&gt;Node4</title>
<g id="a_edge3_Node000003_Node000004"><a xlink:title=" ">
<path fill="none" stroke="#63b8ff" d="M1036.87,-185.75C1044.73,-185.75 1052.73,-185.75 1060.65,-185.75"/>
<polygon fill="#63b8ff" stroke="#63b8ff" points="1060.62,-189.25 1070.62,-185.75 1060.62,-182.25 1060.62,-189.25"/>
</a>
</g>
</g>
<!-- Node7 -->
<g id="Node000007" class="node">
<title>Node7</title>
<g id="a_Node000007"><a xlink:href="module_8c.html#abbdf441a7d8267aadf96102dc719cd2a" target="_top" xlink:title=" ">
<polygon fill="white" stroke="#666666" points="439.88,-66.12 369.88,-66.12 369.88,-45.38 439.88,-45.38 439.88,-66.12"/>
<text text-anchor="middle" x="404.88" y="-52.62" font-family="Helvetica,sans-Serif" font-size="10.00">AbortSetup</text>
</a>
</g>
</g>
<!-- Node6&#45;&gt;Node7 -->
<g id="edge6_Node000006_Node000007" class="edge">
<title>Node6&#45;&gt;Node7</title>
<g id="a_edge6_Node000006_Node000007"><a xlink:title=" ">
<path fill="none" stroke="#63b8ff" d="M223.49,-173.91C245.63,-148.86 300.63,-88.07 324.5,-74.75 334.8,-69 346.8,-64.98 358.29,-62.18"/>
<polygon fill="#63b8ff" stroke="#63b8ff" points="359.03,-65.6 368.07,-60.07 357.55,-58.75 359.03,-65.6"/>
</a>
</g>
</g>
<!-- Node13 -->
<g id="Node000013" class="node">
<title>Node13</title>
<g id="a_Node000013"><a xlink:href="module_8c.html#ad27d42d9eb11253063b80a2d3f12a792" target="_top" xlink:title=" ">
<polygon fill="white" stroke="#666666" points="477.38,-195.12 332.38,-195.12 332.38,-174.38 477.38,-174.38 477.38,-195.12"/>
<text text-anchor="middle" x="404.88" y="-181.62" font-family="Helvetica,sans-Serif" font-size="10.00">HandleQueryModuleName</text>
</a>
</g>
</g>
<!-- Node6&#45;&gt;Node13 -->
<g id="edge15_Node000006_Node000013" class="edge">
<title>Node6&#45;&gt;Node13</title>
<g id="a_edge15_Node000006_Node000013"><a xlink:title=" ">
<path fill="none" stroke="#63b8ff" d="M273.04,-184.75C288.25,-184.75 304.91,-184.75 321.08,-184.75"/>
<polygon fill="#63b8ff" stroke="#63b8ff" points="320.67,-188.25 330.67,-184.75 320.67,-181.25 320.67,-188.25"/>
</a>
</g>
</g>
<!-- Node15 -->
<g id="Node000015" class="node">
<title>Node15</title>
<g id="a_Node000015"><a xlink:href="module_8c.html#a877cfd06d4e98451411f103b18df1c77" target="_top" xlink:title=" ">
<polygon fill="white" stroke="#666666" points="466.88,-156.12 342.88,-156.12 342.88,-135.38 466.88,-135.38 466.88,-156.12"/>
<text text-anchor="middle" x="404.88" y="-142.62" font-family="Helvetica,sans-Serif" font-size="10.00">HandleQueryNodeInfo</text>
</a>
</g>
</g>
<!-- Node6&#45;&gt;Node15 -->
<g id="edge17_Node000006_Node000015" class="edge">
<title>Node6&#45;&gt;Node15</title>
<g id="a_edge17_Node000006_Node000015"><a xlink:title=" ">
<path fill="none" stroke="#63b8ff" d="M266.89,-173.89C289.53,-169.24 316.17,-163.76 339.91,-158.89"/>
<polygon fill="#63b8ff" stroke="#63b8ff" points="340.37,-162.37 349.46,-156.93 338.96,-155.51 340.37,-162.37"/>
</a>
</g>
</g>
<!-- Node16 -->
<g id="Node000016" class="node">
<title>Node16</title>
<g id="a_Node000016"><a xlink:href="module_8c.html#ad4399b840bba2ff9c72a1c7956d4b033" target="_top" xlink:title=" ">
<polygon fill="white" stroke="#666666" points="482.62,-117.5 327.12,-117.5 327.12,-84 482.62,-84 482.62,-117.5"/>
<text text-anchor="start" x="335.12" y="-104" font-family="Helvetica,sans-Serif" font-size="10.00">HandleQueryNodeParameter</text>
<text text-anchor="middle" x="404.88" y="-91.25" font-family="Helvetica,sans-Serif" font-size="10.00">ByIndex</text>
</a>
</g>
</g>
<!-- Node6&#45;&gt;Node16 -->
<g id="edge18_Node000006_Node000016" class="edge">
<title>Node6&#45;&gt;Node16</title>
<g id="a_edge18_Node000006_Node000016"><a xlink:title=" ">
<path fill="none" stroke="#63b8ff" d="M232.31,-173.93C253.86,-161.47 290.97,-140.92 324.5,-126.75 328.52,-125.05 332.69,-123.39 336.92,-121.79"/>
<polygon fill="#63b8ff" stroke="#63b8ff" points="337.89,-125.16 346.08,-118.44 335.49,-118.59 337.89,-125.16"/>
</a>
</g>
</g>
<!-- Node17 -->
<g id="Node000017" class="node">
<title>Node17</title>
<g id="a_Node000017"><a xlink:href="module_8c.html#a01dc6700d3926d16f6ebfb5e3611e6c2" target="_top" xlink:title=" ">
<polygon fill="white" stroke="#666666" points="485.25,-234.12 324.5,-234.12 324.5,-213.38 485.25,-213.38 485.25,-234.12"/>
<text text-anchor="middle" x="404.88" y="-220.62" font-family="Helvetica,sans-Serif" font-size="10.00">HandleQueryNodeParameters</text>
</a>
</g>
</g>
<!-- Node6&#45;&gt;Node17 -->
<g id="edge19_Node000006_Node000017" class="edge">
<title>Node6&#45;&gt;Node17</title>
<g id="a_edge19_Node000006_Node000017"><a xlink:title=" ">
<path fill="none" stroke="#63b8ff" d="M266.89,-195.61C289.53,-200.26 316.17,-205.74 339.91,-210.61"/>
<polygon fill="#63b8ff" stroke="#63b8ff" points="338.96,-213.99 349.46,-212.57 340.37,-207.13 338.96,-213.99"/>
</a>
</g>
</g>
<!-- Node18 -->
<g id="Node000018" class="node">
<title>Node18</title>
<g id="a_Node000018"><a xlink:href="module_8c.html#a348f39a99d076c328cca26f3d5b55d48" target="_top" xlink:title=" ">
<polygon fill="white" stroke="#666666" points="467.25,-312.12 342.5,-312.12 342.5,-291.38 467.25,-291.38 467.25,-312.12"/>
<text text-anchor="middle" x="404.88" y="-298.62" font-family="Helvetica,sans-Serif" font-size="10.00">HandleRebootRequest</text>
</a>
</g>
</g>
<!-- Node6&#45;&gt;Node18 -->
<g id="edge23_Node000006_Node000018" class="edge">
<title>Node6&#45;&gt;Node18</title>
<g id="a_edge23_Node000006_Node000018"><a xlink:title=" ">
<path fill="none" stroke="#63b8ff" d="M222.86,-195.32C240.23,-215.34 280.88,-258.84 324.5,-281.75 328.35,-283.77 332.42,-285.6 336.59,-287.25"/>
<polygon fill="#63b8ff" stroke="#63b8ff" points="335.11,-290.43 345.71,-290.47 337.45,-283.84 335.11,-290.43"/>
</a>
</g>
</g>
<!-- Node19 -->
<g id="Node000019" class="node">
<title>Node19</title>
<g id="a_Node000019"><a xlink:href="module_8c.html#ae7098558cb9399bcbfe5f9a51f9e9b36" target="_top" xlink:title=" ">
<polygon fill="white" stroke="#666666" points="470.25,-273.12 339.5,-273.12 339.5,-252.38 470.25,-252.38 470.25,-273.12"/>
<text text-anchor="middle" x="404.88" y="-259.62" font-family="Helvetica,sans-Serif" font-size="10.00">HandleSetNodeNumber</text>
</a>
</g>
</g>
<!-- Node6&#45;&gt;Node19 -->
<g id="edge24_Node000006_Node000019" class="edge">
<title>Node6&#45;&gt;Node19</title>
<g id="a_edge24_Node000006_Node000019"><a xlink:title=" ">
<path fill="none" stroke="#63b8ff" d="M231.38,-195.54C252.66,-208.34 290.1,-229.6 324.5,-242.75 330.22,-244.94 336.27,-246.96 342.37,-248.8"/>
<polygon fill="#63b8ff" stroke="#63b8ff" points="341.32,-252.14 351.9,-251.51 343.24,-245.41 341.32,-252.14"/>
</a>
</g>
</g>
<!-- Node8 -->
<g id="Node000008" class="node">
<title>Node8</title>
<g id="a_Node000008"><a xlink:href="state__machine_8c.html#a3d333fba19ed5ffbaabc4663ef9e2abc" target="_top" xlink:title=" ">
<polygon fill="white" stroke="#666666" points="626.88,-118.12 538.12,-118.12 538.12,-97.38 626.88,-97.38 626.88,-118.12"/>
<text text-anchor="middle" x="582.5" y="-104.62" font-family="Helvetica,sans-Serif" font-size="10.00">state_Dispatch</text>
</a>
</g>
</g>
<!-- Node7&#45;&gt;Node8 -->
<g id="edge7_Node000007_Node000008" class="edge">
<title>Node7&#45;&gt;Node8</title>
<g id="a_edge7_Node000007_Node000008"><a xlink:title=" ">
<path fill="none" stroke="#63b8ff" d="M440.05,-63.18C454.13,-66.43 470.55,-70.48 485.25,-74.75 503.9,-80.17 524.28,-87.01 541.46,-93.07"/>
<polygon fill="#63b8ff" stroke="#63b8ff" points="540.22,-96.34 550.82,-96.4 542.57,-89.75 540.22,-96.34"/>
</a>
</g>
</g>
<!-- Node9 -->
<g id="Node000009" class="node">
<title>Node9</title>
<g id="a_Node000009"><a xlink:href="state__machine_8c.html#a6c338e6311730773d98d58f8aa921012" target="_top" xlink:title=" ">
<polygon fill="white" stroke="#666666" points="829.25,-157.12 700,-157.12 700,-136.38 829.25,-136.38 829.25,-157.12"/>
<text text-anchor="middle" x="764.62" y="-143.62" font-family="Helvetica,sans-Serif" font-size="10.00">CheckForSetupTimeout</text>
</a>
</g>
</g>
<!-- Node8&#45;&gt;Node9 -->
<g id="edge8_Node000008_Node000009" class="edge">
<title>Node8&#45;&gt;Node9</title>
<g id="a_edge8_Node000008_Node000009"><a xlink:title=" ">
<path fill="none" stroke="#63b8ff" d="M627.1,-117.19C649.68,-122.08 677.61,-128.13 702.32,-133.48"/>
<polygon fill="#63b8ff" stroke="#63b8ff" points="701.42,-136.86 711.93,-135.56 702.9,-130.02 701.42,-136.86"/>
</a>
</g>
</g>
<!-- Node10 -->
<g id="Node000010" class="node">
<title>Node10</title>
<g id="a_Node000010"><a xlink:href="state__machine_8c.html#a219b685fd854a0765878acc44e9f3111" target="_top" xlink:title=" ">
<polygon fill="white" stroke="#666666" points="836.75,-79.12 692.5,-79.12 692.5,-58.38 836.75,-58.38 836.75,-79.12"/>
<text text-anchor="middle" x="764.62" y="-65.62" font-family="Helvetica,sans-Serif" font-size="10.00">HandleTransitionToNormal</text>
</a>
</g>
</g>
<!-- Node8&#45;&gt;Node10 -->
<g id="edge9_Node000008_Node000010" class="edge">
<title>Node8&#45;&gt;Node10</title>
<g id="a_edge9_Node000008_Node000010"><a xlink:title=" ">
<path fill="none" stroke="#63b8ff" d="M627.1,-98.31C649.68,-93.42 677.61,-87.37 702.32,-82.02"/>
<polygon fill="#63b8ff" stroke="#63b8ff" points="702.9,-85.48 711.93,-79.94 701.42,-78.64 702.9,-85.48"/>
</a>
</g>
</g>
<!-- Node11 -->
<g id="Node000011" class="node">
<title>Node11</title>
<g id="a_Node000011"><a xlink:href="state__machine_8c.html#a454533bb18a4f7d35e37e49479a0be7a" target="_top" xlink:title=" ">
<polygon fill="white" stroke="#666666" points="832.62,-196.12 696.62,-196.12 696.62,-175.38 832.62,-175.38 832.62,-196.12"/>
<text text-anchor="middle" x="764.62" y="-182.62" font-family="Helvetica,sans-Serif" font-size="10.00">HandleTransitionToSetup</text>
</a>
</g>
</g>
<!-- Node8&#45;&gt;Node11 -->
<g id="edge11_Node000008_Node000011" class="edge">
<title>Node8&#45;&gt;Node11</title>
<g id="a_edge11_Node000008_Node000011"><a xlink:title=" ">
<path fill="none" stroke="#63b8ff" d="M598.07,-118.51C616.3,-131.49 648.87,-153.12 679.75,-165.75 685.29,-168.02 691.15,-170.06 697.09,-171.9"/>
<polygon fill="#63b8ff" stroke="#63b8ff" points="695.79,-175.17 706.37,-174.58 697.73,-168.44 695.79,-175.17"/>
</a>
</g>
</g>
<!-- Node12 -->
<g id="Node000012" class="node">
<title>Node12</title>
<g id="a_Node000012"><a xlink:href="state__machine_8c.html#a33506340e66a1f297917a2be79b70b0e" target="_top" xlink:title=" ">
<polygon fill="white" stroke="#666666" points="849.5,-118.12 679.75,-118.12 679.75,-97.38 849.5,-97.38 849.5,-118.12"/>
<text text-anchor="middle" x="764.62" y="-104.62" font-family="Helvetica,sans-Serif" font-size="10.00">HandleTransitionToUninitialized</text>
</a>
</g>
</g>
<!-- Node8&#45;&gt;Node12 -->
<g id="edge13_Node000008_Node000012" class="edge">
<title>Node8&#45;&gt;Node12</title>
<g id="a_edge13_Node000008_Node000012"><a xlink:title=" ">
<path fill="none" stroke="#63b8ff" d="M627.1,-107.75C639.59,-107.75 653.72,-107.75 668.04,-107.75"/>
<polygon fill="#63b8ff" stroke="#63b8ff" points="668.01,-111.25 678.01,-107.75 668.01,-104.25 668.01,-111.25"/>
</a>
</g>
</g>
<!-- Node10&#45;&gt;Node3 -->
<g id="edge10_Node000010_Node000003" class="edge">
<title>Node10&#45;&gt;Node3</title>
<g id="a_edge10_Node000010_Node000003"><a xlink:title=" ">
<path fill="none" stroke="#63b8ff" d="M826.47,-79.52C834.44,-82 842.32,-85.04 849.5,-88.75 887.79,-108.55 923.65,-144.44 943.62,-166.57"/>
<polygon fill="#63b8ff" stroke="#63b8ff" points="940.93,-168.81 950.17,-173.99 946.18,-164.18 940.93,-168.81"/>
</a>
</g>
</g>
<!-- Node11&#45;&gt;Node3 -->
<g id="edge12_Node000011_Node000003" class="edge">
<title>Node11&#45;&gt;Node3</title>
<g id="a_edge12_Node000011_Node000003"><a xlink:title=" ">
<path fill="none" stroke="#63b8ff" d="M833.06,-185.75C846.17,-185.75 860.07,-185.75 873.69,-185.75"/>
<polygon fill="#63b8ff" stroke="#63b8ff" points="873.52,-189.25 883.52,-185.75 873.52,-182.25 873.52,-189.25"/>
</a>
</g>
</g>
<!-- Node12&#45;&gt;Node3 -->
<g id="edge14_Node000012_Node000003" class="edge">
<title>Node12&#45;&gt;Node3</title>
<g id="a_edge14_Node000012_Node000003"><a xlink:title=" ">
<path fill="none" stroke="#63b8ff" d="M819.92,-118.6C829.89,-121.18 840.11,-124.23 849.5,-127.75 879.14,-138.86 910.94,-156.18 932.78,-169"/>
<polygon fill="#63b8ff" stroke="#63b8ff" points="930.96,-172 941.34,-174.11 934.55,-165.99 930.96,-172"/>
</a>
</g>
</g>
<!-- Node14 -->
<g id="Node000014" class="node">
<title>Node14</title>
<g id="a_Node000014"><a xlink:href="param_8c.html#a508584590ac967bad9531182ab9e451d" target="_top" xlink:title=" ">
<polygon fill="white" stroke="#666666" points="643.75,-195.12 521.25,-195.12 521.25,-174.38 643.75,-174.38 643.75,-195.12"/>
<text text-anchor="middle" x="582.5" y="-181.62" font-family="Helvetica,sans-Serif" font-size="10.00">ModuleParamGetByte</text>
</a>
</g>
</g>
<!-- Node13&#45;&gt;Node14 -->
<g id="edge16_Node000013_Node000014" class="edge">
<title>Node13&#45;&gt;Node14</title>
<g id="a_edge16_Node000013_Node000014"><a xlink:title=" ">
<path fill="none" stroke="#63b8ff" d="M477.82,-184.75C488.32,-184.75 499.14,-184.75 509.64,-184.75"/>
<polygon fill="#63b8ff" stroke="#63b8ff" points="509.37,-188.25 519.37,-184.75 509.37,-181.25 509.37,-188.25"/>
</a>
</g>
</g>
<!-- Node17&#45;&gt;Node3 -->
<g id="edge21_Node000017_Node000003" class="edge">
<title>Node17&#45;&gt;Node3</title>
<g id="a_edge21_Node000017_Node000003"><a xlink:title=" ">
<path fill="none" stroke="#63b8ff" d="M485.44,-223.39C574.4,-222.28 722.64,-218.32 849.5,-204.75 864,-203.2 879.47,-200.93 894.11,-198.49"/>
<polygon fill="#63b8ff" stroke="#63b8ff" points="894.35,-202 903.62,-196.86 893.17,-195.1 894.35,-202"/>
</a>
</g>
</g>
<!-- Node17&#45;&gt;Node5 -->
<g id="edge22_Node000017_Node000005" class="edge">
<title>Node17&#45;&gt;Node5</title>
<g id="a_edge22_Node000017_Node000005"><a xlink:title=" ">
<path fill="none" stroke="#63b8ff" d="M453.17,-234.6C463.8,-237.33 474.97,-240.44 485.25,-243.75 500.39,-248.62 516.56,-254.67 531.25,-260.49"/>
<polygon fill="#63b8ff" stroke="#63b8ff" points="529.66,-263.63 540.24,-264.11 532.27,-257.13 529.66,-263.63"/>
</a>
</g>
</g>
<!-- Node17&#45;&gt;Node14 -->
<g id="edge20_Node000017_Node000014" class="edge">
<title>Node17&#45;&gt;Node14</title>
<g id="a_edge20_Node000017_Node000014"><a xlink:title=" ">
<path fill="none" stroke="#63b8ff" d="M454.8,-212.89C475.45,-208.3 499.71,-202.91 521.44,-198.09"/>
<polygon fill="#63b8ff" stroke="#63b8ff" points="522.06,-201.54 531.06,-195.95 520.54,-194.7 522.06,-201.54"/>
</a>
</g>
</g>
<!-- Node21 -->
<g id="Node000021" class="node">
<title>Node21</title>
<g id="a_Node000021"><a xlink:href="packet__buf_8c.html#a2ea3a27beac9f24f9dc6acdbfb28906c" target="_top" xlink:title=" ">
<polygon fill="white" stroke="#666666" points="471.75,-27.12 338,-27.12 338,-6.38 471.75,-6.38 471.75,-27.12"/>
<text text-anchor="middle" x="404.88" y="-13.62" font-family="Helvetica,sans-Serif" font-size="10.00">vlcb_net_packetbuf_Pop</text>
</a>
</g>
</g>
<!-- Node20&#45;&gt;Node21 -->
<g id="edge26_Node000020_Node000021" class="edge">
<title>Node20&#45;&gt;Node21</title>
<g id="a_edge26_Node000020_Node000021"><a xlink:title=" ">
<path fill="none" stroke="#63b8ff" d="M237.78,-70.93C259.92,-61.14 293.99,-46.75 324.5,-36.75 331.24,-34.54 338.36,-32.44 345.46,-30.47"/>
<polygon fill="#63b8ff" stroke="#63b8ff" points="346.33,-33.87 355.09,-27.91 344.53,-27.1 346.33,-33.87"/>
</a>
</g>
</g>
<!-- Node22 -->
<g id="Node000022" class="node">
<title>Node22</title>
<g id="a_Node000022"><a xlink:href="packet__buf_8c.html#a3901c362d723ea046af64e2b96ad24b6" target="_top" xlink:title=" ">
<polygon fill="white" stroke="#666666" points="637.75,-33.5 527.25,-33.5 527.25,0 637.75,0 637.75,-33.5"/>
<text text-anchor="start" x="535.25" y="-20" font-family="Helvetica,sans-Serif" font-size="10.00">vlcb_net_packetbuf</text>
<text text-anchor="middle" x="582.5" y="-7.25" font-family="Helvetica,sans-Serif" font-size="10.00">_IsEmpty</text>
</a>
</g>
</g>
<!-- Node21&#45;&gt;Node22 -->
<g id="edge27_Node000021_Node000022" class="edge">
<title>Node21&#45;&gt;Node22</title>
<g id="a_edge27_Node000021_Node000022"><a xlink:title=" ">
<path fill="none" stroke="#63b8ff" d="M472.02,-16.75C486.29,-16.75 501.38,-16.75 515.64,-16.75"/>
<polygon fill="#63b8ff" stroke="#63b8ff" points="515.35,-20.25 525.35,-16.75 515.35,-13.25 515.35,-20.25"/>
</a>
</g>
</g>
</g>
</svg>
