<?xml version="1.0" encoding="UTF-8" standalone="no"?>
<!DOCTYPE svg PUBLIC "-//W3C//DTD SVG 1.1//EN"
 "http://www.w3.org/Graphics/SVG/1.1/DTD/svg11.dtd">
<!-- Generated by graphviz version 12.1.2 (20240928.0832)
 -->
<!-- Title: module.h Pages: 1 -->
<svg width="1325pt" height="426pt"
 viewBox="0.00 0.00 1324.90 426.00" xmlns="http://www.w3.org/2000/svg" xmlns:xlink="http://www.w3.org/1999/xlink">
<g id="graph0" class="graph" transform="scale(1 1) rotate(0) translate(4 422)">
<title>module.h</title>
<!-- Node1 -->
<g id="Node000001" class="node">
<title>Node1</title>
<g id="a_Node000001"><a xlink:title=" ">
<polygon fill="#999999" stroke="#666666" points="1007.4,-418 945.65,-418 945.65,-397.25 1007.4,-397.25 1007.4,-418"/>
<text text-anchor="middle" x="976.52" y="-404.5" font-family="Helvetica,sans-Serif" font-size="10.00">module.h</text>
</a>
</g>
</g>
<!-- Node2 -->
<g id="Node000002" class="node">
<title>Node2</title>
<g id="a_Node000002"><a xlink:href="module_2inc_2vlcb_2module_8h.html" target="_top" xlink:title=" ">
<polygon fill="white" stroke="#666666" points="1019.02,-361.25 934.02,-361.25 934.02,-340.5 1019.02,-340.5 1019.02,-361.25"/>
<text text-anchor="middle" x="976.52" y="-347.75" font-family="Helvetica,sans-Serif" font-size="10.00">vlcb/module.h</text>
</a>
</g>
</g>
<!-- Node1&#45;&gt;Node2 -->
<g id="edge1_Node000001_Node000002" class="edge">
<title>Node1&#45;&gt;Node2</title>
<g id="a_edge1_Node000001_Node000002"><a xlink:title=" ">
<path fill="none" stroke="#63b8ff" d="M976.52,-396.84C976.52,-390.22 976.52,-381.22 976.52,-373.02"/>
<polygon fill="#63b8ff" stroke="#63b8ff" points="980.02,-373.09 976.52,-363.09 973.02,-373.09 980.02,-373.09"/>
</a>
</g>
</g>
<!-- Node3 -->
<g id="Node000003" class="node">
<title>Node3</title>
<g id="a_Node000003"><a xlink:href="node_8h.html" target="_top" xlink:title=" ">
<polygon fill="white" stroke="#666666" points="952.52,-191 834.52,-191 834.52,-170.25 952.52,-170.25 952.52,-191"/>
<text text-anchor="middle" x="893.52" y="-177.5" font-family="Helvetica,sans-Serif" font-size="10.00">vlcb/common/node.h</text>
</a>
</g>
</g>
<!-- Node2&#45;&gt;Node3 -->
<g id="edge2_Node000002_Node000003" class="edge">
<title>Node2&#45;&gt;Node3</title>
<g id="a_edge2_Node000002_Node000003"><a xlink:title=" ">
<path fill="none" stroke="#63b8ff" d="M969.19,-340.25C956.13,-322.72 928.73,-284.05 912.52,-247.75 905.96,-233.05 901.04,-215.51 897.86,-202.18"/>
<polygon fill="#63b8ff" stroke="#63b8ff" points="901.36,-201.8 895.75,-192.81 894.53,-203.34 901.36,-201.8"/>
</a>
</g>
</g>
<!-- Node5 -->
<g id="Node000005" class="node">
<title>Node5</title>
<g id="a_Node000005"><a xlink:href="inc_2vlcb_2module_2param_8h.html" target="_top" xlink:title=" ">
<polygon fill="white" stroke="#666666" points="1268.27,-134.25 1148.77,-134.25 1148.77,-113.5 1268.27,-113.5 1268.27,-134.25"/>
<text text-anchor="middle" x="1208.52" y="-120.75" font-family="Helvetica,sans-Serif" font-size="10.00">vlcb/module/param.h</text>
</a>
</g>
</g>
<!-- Node2&#45;&gt;Node5 -->
<g id="edge4_Node000002_Node000005" class="edge">
<title>Node2&#45;&gt;Node5</title>
<g id="a_edge4_Node000002_Node000005"><a xlink:title=" ">
<path fill="none" stroke="#63b8ff" d="M1019.23,-346.27C1073.46,-340.76 1162.61,-328.29 1184.52,-304.5 1225.12,-260.43 1218.6,-182.5 1212.59,-145.5"/>
<polygon fill="#63b8ff" stroke="#63b8ff" points="1216.12,-145.34 1210.91,-136.11 1209.23,-146.57 1216.12,-145.34"/>
</a>
</g>
</g>
<!-- Node6 -->
<g id="Node000006" class="node">
<title>Node6</title>
<g id="a_Node000006"><a xlink:title=" ">
<polygon fill="#e0e0e0" stroke="#999999" points="919.9,-20.75 867.15,-20.75 867.15,0 919.9,0 919.9,-20.75"/>
<text text-anchor="middle" x="893.52" y="-7.25" font-family="Helvetica,sans-Serif" font-size="10.00">stdint.h</text>
</a>
</g>
</g>
<!-- Node2&#45;&gt;Node6 -->
<g id="edge58_Node000002_Node000006" class="edge">
<title>Node2&#45;&gt;Node6</title>
<g id="a_edge58_Node000002_Node000006"><a xlink:title=" ">
<path fill="none" stroke="#63b8ff" d="M1019.5,-340.69C1042.98,-333.9 1071.29,-322.61 1091.52,-304.5 1140.22,-260.91 1183.39,-227.31 1151.52,-170.25 1104.05,-85.26 990.37,-40.12 931.03,-21.63"/>
<polygon fill="#63b8ff" stroke="#63b8ff" points="932.3,-18.36 921.71,-18.82 930.28,-25.06 932.3,-18.36"/>
</a>
</g>
</g>
<!-- Node9 -->
<g id="Node000009" class="node">
<title>Node9</title>
<g id="a_Node000009"><a xlink:href="state_8h.html" target="_top" xlink:title=" ">
<polygon fill="white" stroke="#666666" points="1033.9,-247.75 921.15,-247.75 921.15,-227 1033.9,-227 1033.9,-247.75"/>
<text text-anchor="middle" x="977.52" y="-234.25" font-family="Helvetica,sans-Serif" font-size="10.00">vlcb/module/state.h</text>
</a>
</g>
</g>
<!-- Node2&#45;&gt;Node9 -->
<g id="edge10_Node000002_Node000009" class="edge">
<title>Node2&#45;&gt;Node9</title>
<g id="a_edge10_Node000002_Node000009"><a xlink:title=" ">
<path fill="none" stroke="#63b8ff" d="M970.91,-340.12C964.23,-327.3 954.45,-304.05 958.52,-283.75 960.26,-275.09 963.7,-266.01 967.18,-258.28"/>
<polygon fill="#63b8ff" stroke="#63b8ff" points="970.24,-259.99 971.45,-249.47 963.94,-256.94 970.24,-259.99"/>
</a>
</g>
</g>
<!-- Node10 -->
<g id="Node000010" class="node">
<title>Node10</title>
<g id="a_Node000010"><a xlink:href="time_8h.html" target="_top" xlink:title=" ">
<polygon fill="white" stroke="#666666" points="1124.4,-191 1008.65,-191 1008.65,-170.25 1124.4,-170.25 1124.4,-191"/>
<text text-anchor="middle" x="1066.52" y="-177.5" font-family="Helvetica,sans-Serif" font-size="10.00">vlcb/platform/time.h</text>
</a>
</g>
</g>
<!-- Node2&#45;&gt;Node10 -->
<g id="edge57_Node000002_Node000010" class="edge">
<title>Node2&#45;&gt;Node10</title>
<g id="a_edge57_Node000002_Node000010"><a xlink:title=" ">
<path fill="none" stroke="#63b8ff" d="M1019.42,-341C1039.49,-334.47 1061.55,-323.32 1073.52,-304.5 1093.42,-273.22 1083.13,-227.89 1074.43,-201.93"/>
<polygon fill="#63b8ff" stroke="#63b8ff" points="1077.75,-200.82 1071.06,-192.61 1071.17,-203.2 1077.75,-200.82"/>
</a>
</g>
</g>
<!-- Node11 -->
<g id="Node000011" class="node">
<title>Node11</title>
<g id="a_Node000011"><a xlink:href="ui_8h.html" target="_top" xlink:title=" ">
<polygon fill="white" stroke="#666666" points="1064.02,-304.5 967.02,-304.5 967.02,-283.75 1064.02,-283.75 1064.02,-304.5"/>
<text text-anchor="middle" x="1015.52" y="-291" font-family="Helvetica,sans-Serif" font-size="10.00">vlcb/module/ui.h</text>
</a>
</g>
</g>
<!-- Node2&#45;&gt;Node11 -->
<g id="edge15_Node000002_Node000011" class="edge">
<title>Node2&#45;&gt;Node11</title>
<g id="a_edge15_Node000002_Node000011"><a xlink:title=" ">
<path fill="none" stroke="#63b8ff" d="M983.5,-340.09C988.65,-332.85 995.84,-322.76 1002.1,-313.97"/>
<polygon fill="#63b8ff" stroke="#63b8ff" points="1004.78,-316.24 1007.73,-306.06 999.08,-312.18 1004.78,-316.24"/>
</a>
</g>
</g>
<!-- Node14 -->
<g id="Node000014" class="node">
<title>Node14</title>
<g id="a_Node000014"><a xlink:href="iface_8h.html" target="_top" xlink:title=" ">
<polygon fill="white" stroke="#666666" points="402.02,-304.5 311.02,-304.5 311.02,-283.75 402.02,-283.75 402.02,-304.5"/>
<text text-anchor="middle" x="356.52" y="-291" font-family="Helvetica,sans-Serif" font-size="10.00">vlcb/net/iface.h</text>
</a>
</g>
</g>
<!-- Node2&#45;&gt;Node14 -->
<g id="edge20_Node000002_Node000014" class="edge">
<title>Node2&#45;&gt;Node14</title>
<g id="a_edge20_Node000002_Node000014"><a xlink:title=" ">
<path fill="none" stroke="#63b8ff" d="M933.91,-346.11C825.11,-336.5 537,-311.06 413.76,-300.18"/>
<polygon fill="#63b8ff" stroke="#63b8ff" points="414.14,-296.7 403.87,-299.31 413.52,-303.67 414.14,-296.7"/>
</a>
</g>
</g>
<!-- Node23 -->
<g id="Node000023" class="node">
<title>Node23</title>
<g id="a_Node000023"><a xlink:href="socket_2datagram_8h.html" target="_top" xlink:title=" ">
<polygon fill="white" stroke="#666666" points="799.9,-304.5 651.15,-304.5 651.15,-283.75 799.9,-283.75 799.9,-304.5"/>
<text text-anchor="middle" x="725.52" y="-291" font-family="Helvetica,sans-Serif" font-size="10.00">vlcb/net/socket/datagram.h</text>
</a>
</g>
</g>
<!-- Node2&#45;&gt;Node23 -->
<g id="edge45_Node000002_Node000023" class="edge">
<title>Node2&#45;&gt;Node23</title>
<g id="a_edge45_Node000002_Node000023"><a xlink:title=" ">
<path fill="none" stroke="#63b8ff" d="M933.66,-340.53C891.75,-331.38 827.71,-317.41 781.73,-307.39"/>
<polygon fill="#63b8ff" stroke="#63b8ff" points="782.75,-304.02 772.23,-305.31 781.26,-310.86 782.75,-304.02"/>
</a>
</g>
</g>
<!-- Node4 -->
<g id="Node000004" class="node">
<title>Node4</title>
<g id="a_Node000004"><a xlink:title=" ">
<polygon fill="#e0e0e0" stroke="#999999" points="522.9,-77.5 458.15,-77.5 458.15,-56.75 522.9,-56.75 522.9,-77.5"/>
<text text-anchor="middle" x="490.52" y="-64" font-family="Helvetica,sans-Serif" font-size="10.00">inttypes.h</text>
</a>
</g>
</g>
<!-- Node3&#45;&gt;Node4 -->
<g id="edge3_Node000003_Node000004" class="edge">
<title>Node3&#45;&gt;Node4</title>
<g id="a_edge3_Node000003_Node000004"><a xlink:title=" ">
<path fill="none" stroke="#63b8ff" d="M867.21,-169.86C829.53,-156.1 757.87,-130.76 695.52,-113.5 640.45,-98.25 575.96,-84.67 534.23,-76.42"/>
<polygon fill="#63b8ff" stroke="#63b8ff" points="535.06,-73.02 524.58,-74.53 533.72,-79.89 535.06,-73.02"/>
</a>
</g>
</g>
<!-- Node5&#45;&gt;Node6 -->
<g id="edge5_Node000005_Node000006" class="edge">
<title>Node5&#45;&gt;Node6</title>
<g id="a_edge5_Node000005_Node000006"><a xlink:title=" ">
<path fill="none" stroke="#63b8ff" d="M1201,-113.45C1188.75,-98.79 1162.96,-70.76 1134.52,-56.75 1068.19,-24.08 980.93,-14.85 931.68,-12.3"/>
<polygon fill="#63b8ff" stroke="#63b8ff" points="931.96,-8.81 921.82,-11.86 931.65,-15.8 931.96,-8.81"/>
</a>
</g>
</g>
<!-- Node7 -->
<g id="Node000007" class="node">
<title>Node7</title>
<g id="a_Node000007"><a xlink:href="common_2inc_2vlcb_2common_2module_8h.html" target="_top" xlink:title=" ">
<polygon fill="white" stroke="#666666" points="1316.9,-77.5 1186.15,-77.5 1186.15,-56.75 1316.9,-56.75 1316.9,-77.5"/>
<text text-anchor="middle" x="1251.52" y="-64" font-family="Helvetica,sans-Serif" font-size="10.00">vlcb/common/module.h</text>
</a>
</g>
</g>
<!-- Node5&#45;&gt;Node7 -->
<g id="edge6_Node000005_Node000007" class="edge">
<title>Node5&#45;&gt;Node7</title>
<g id="a_edge6_Node000005_Node000007"><a xlink:title=" ">
<path fill="none" stroke="#63b8ff" d="M1216.21,-113.09C1221.96,-105.77 1229.99,-95.54 1236.94,-86.69"/>
<polygon fill="#63b8ff" stroke="#63b8ff" points="1239.54,-89.05 1242.97,-79.02 1234.04,-84.72 1239.54,-89.05"/>
</a>
</g>
</g>
<!-- Node8 -->
<g id="Node000008" class="node">
<title>Node8</title>
<g id="a_Node000008"><a xlink:href="vlcb__defs_8h.html" target="_top" xlink:title=" ">
<polygon fill="white" stroke="#666666" points="698.77,-77.5 558.27,-77.5 558.27,-56.75 698.77,-56.75 698.77,-77.5"/>
<text text-anchor="middle" x="628.52" y="-64" font-family="Helvetica,sans-Serif" font-size="10.00">vlcb/common/vlcb_defs.h</text>
</a>
</g>
</g>
<!-- Node5&#45;&gt;Node8 -->
<g id="edge8_Node000005_Node000008" class="edge">
<title>Node5&#45;&gt;Node8</title>
<g id="a_edge8_Node000005_Node000008"><a xlink:title=" ">
<path fill="none" stroke="#63b8ff" d="M1148.37,-117.2C1043.79,-107.33 828.4,-86.99 710.34,-75.85"/>
<polygon fill="#63b8ff" stroke="#63b8ff" points="711.02,-72.4 700.73,-74.94 710.36,-79.37 711.02,-72.4"/>
</a>
</g>
</g>
<!-- Node7&#45;&gt;Node6 -->
<g id="edge7_Node000007_Node000006" class="edge">
<title>Node7&#45;&gt;Node6</title>
<g id="a_edge7_Node000007_Node000006"><a xlink:title=" ">
<path fill="none" stroke="#63b8ff" d="M1187.11,-56.27C1112.56,-44.87 992.27,-26.48 931.4,-17.17"/>
<polygon fill="#63b8ff" stroke="#63b8ff" points="931.96,-13.71 921.55,-15.66 930.9,-20.63 931.96,-13.71"/>
</a>
</g>
</g>
<!-- Node8&#45;&gt;Node6 -->
<g id="edge9_Node000008_Node000006" class="edge">
<title>Node8&#45;&gt;Node6</title>
<g id="a_edge9_Node000008_Node000006"><a xlink:title=" ">
<path fill="none" stroke="#63b8ff" d="M676.21,-56.27C727.58,-45.66 808.31,-28.98 855.56,-19.22"/>
<polygon fill="#63b8ff" stroke="#63b8ff" points="856.25,-22.65 865.33,-17.2 854.83,-15.79 856.25,-22.65"/>
</a>
</g>
</g>
<!-- Node9&#45;&gt;Node3 -->
<g id="edge11_Node000009_Node000003" class="edge">
<title>Node9&#45;&gt;Node3</title>
<g id="a_edge11_Node000009_Node000003"><a xlink:title=" ">
<path fill="none" stroke="#63b8ff" d="M962.51,-226.59C950.08,-218.49 932.2,-206.83 917.75,-197.42"/>
<polygon fill="#63b8ff" stroke="#63b8ff" points="919.97,-194.68 909.68,-192.15 916.14,-200.55 919.97,-194.68"/>
</a>
</g>
</g>
<!-- Node9&#45;&gt;Node6 -->
<g id="edge14_Node000009_Node000006" class="edge">
<title>Node9&#45;&gt;Node6</title>
<g id="a_edge14_Node000009_Node000006"><a xlink:title=" ">
<path fill="none" stroke="#63b8ff" d="M975.73,-226.82C973.18,-213.83 968.08,-189.98 961.52,-170.25 944.48,-118.98 917.76,-61.22 903.42,-31.47"/>
<polygon fill="#63b8ff" stroke="#63b8ff" points="906.6,-30.01 899.07,-22.55 900.3,-33.07 906.6,-30.01"/>
</a>
</g>
</g>
<!-- Node9&#45;&gt;Node10 -->
<g id="edge12_Node000009_Node000010" class="edge">
<title>Node9&#45;&gt;Node10</title>
<g id="a_edge12_Node000009_Node000010"><a xlink:title=" ">
<path fill="none" stroke="#63b8ff" d="M993.43,-226.59C1006.72,-218.41 1025.91,-206.61 1041.29,-197.15"/>
<polygon fill="#63b8ff" stroke="#63b8ff" points="1042.78,-200.34 1049.46,-192.12 1039.11,-194.38 1042.78,-200.34"/>
</a>
</g>
</g>
<!-- Node10&#45;&gt;Node10 -->
<g id="edge13_Node000010_Node000010" class="edge">
<title>Node10&#45;&gt;Node10</title>
<g id="a_edge13_Node000010_Node000010"><a xlink:title=" ">
<path fill="none" stroke="#63b8ff" d="M1124.74,-190.64C1135.14,-189.34 1142.4,-186 1142.4,-180.62 1142.4,-177.52 1139.97,-175.09 1135.91,-173.34"/>
<polygon fill="#63b8ff" stroke="#63b8ff" points="1136.75,-169.95 1126.21,-170.97 1135.09,-176.75 1136.75,-169.95"/>
</a>
</g>
</g>
<!-- Node11&#45;&gt;Node9 -->
<g id="edge16_Node000011_Node000009" class="edge">
<title>Node11&#45;&gt;Node9</title>
<g id="a_edge16_Node000011_Node000009"><a xlink:title=" ">
<path fill="none" stroke="#63b8ff" d="M1008.73,-283.34C1003.76,-276.17 996.85,-266.23 990.8,-257.51"/>
<polygon fill="#63b8ff" stroke="#63b8ff" points="993.7,-255.54 985.12,-249.32 987.95,-259.53 993.7,-255.54"/>
</a>
</g>
</g>
<!-- Node11&#45;&gt;Node10 -->
<g id="edge19_Node000011_Node000010" class="edge">
<title>Node11&#45;&gt;Node10</title>
<g id="a_edge19_Node000011_Node000010"><a xlink:title=" ">
<path fill="none" stroke="#63b8ff" d="M1022.09,-283.33C1027.94,-274.34 1036.48,-260.51 1042.52,-247.75 1049.57,-232.88 1055.85,-215.34 1060.21,-202.07"/>
<polygon fill="#63b8ff" stroke="#63b8ff" points="1063.49,-203.3 1063.19,-192.71 1056.82,-201.18 1063.49,-203.3"/>
</a>
</g>
</g>
<!-- Node12 -->
<g id="Node000012" class="node">
<title>Node12</title>
<g id="a_Node000012"><a xlink:href="interface_8h.html" target="_top" xlink:title=" ">
<polygon fill="white" stroke="#666666" points="595.9,-191 459.15,-191 459.15,-170.25 595.9,-170.25 595.9,-191"/>
<text text-anchor="middle" x="527.52" y="-177.5" font-family="Helvetica,sans-Serif" font-size="10.00">vlcb/platform/interface.h</text>
</a>
</g>
</g>
<!-- Node11&#45;&gt;Node12 -->
<g id="edge17_Node000011_Node000012" class="edge">
<title>Node11&#45;&gt;Node12</title>
<g id="a_edge17_Node000011_Node000012"><a xlink:title=" ">
<path fill="none" stroke="#63b8ff" d="M972.64,-283.33C883.71,-263.01 679.36,-216.32 581.58,-193.98"/>
<polygon fill="#63b8ff" stroke="#63b8ff" points="582.48,-190.59 571.95,-191.78 580.92,-197.42 582.48,-190.59"/>
</a>
</g>
</g>
<!-- Node13 -->
<g id="Node000013" class="node">
<title>Node13</title>
<g id="a_Node000013"><a xlink:title=" ">
<polygon fill="#e0e0e0" stroke="#999999" points="552.02,-134.25 497.02,-134.25 497.02,-113.5 552.02,-113.5 552.02,-134.25"/>
<text text-anchor="middle" x="524.52" y="-120.75" font-family="Helvetica,sans-Serif" font-size="10.00">stddef.h</text>
</a>
</g>
</g>
<!-- Node12&#45;&gt;Node13 -->
<g id="edge18_Node000012_Node000013" class="edge">
<title>Node12&#45;&gt;Node13</title>
<g id="a_edge18_Node000012_Node000013"><a xlink:title=" ">
<path fill="none" stroke="#63b8ff" d="M526.99,-169.84C526.62,-163.22 526.13,-154.22 525.68,-146.02"/>
<polygon fill="#63b8ff" stroke="#63b8ff" points="529.18,-145.88 525.14,-136.09 522.19,-146.27 529.18,-145.88"/>
</a>
</g>
</g>
<!-- Node15 -->
<g id="Node000015" class="node">
<title>Node15</title>
<g id="a_Node000015"><a xlink:title=" ">
<polygon fill="#e0e0e0" stroke="#999999" points="135.02,-77.5 74.02,-77.5 74.02,-56.75 135.02,-56.75 135.02,-77.5"/>
<text text-anchor="middle" x="104.52" y="-64" font-family="Helvetica,sans-Serif" font-size="10.00">stdbool.h</text>
</a>
</g>
</g>
<!-- Node14&#45;&gt;Node15 -->
<g id="edge21_Node000014_Node000015" class="edge">
<title>Node14&#45;&gt;Node15</title>
<g id="a_edge21_Node000014_Node000015"><a xlink:title=" ">
<path fill="none" stroke="#63b8ff" d="M310.57,-286.62C224.05,-273.33 42.38,-240.11 5.52,-191 -7.5,-173.65 6.04,-131.9 20.52,-113.5 31.44,-99.64 47.8,-89.46 63.19,-82.3"/>
<polygon fill="#63b8ff" stroke="#63b8ff" points="64.41,-85.58 72.22,-78.41 61.65,-79.15 64.41,-85.58"/>
</a>
</g>
</g>
<!-- Node16 -->
<g id="Node000016" class="node">
<title>Node16</title>
<g id="a_Node000016"><a xlink:href="adapter_8h.html" target="_top" xlink:title=" ">
<polygon fill="white" stroke="#666666" points="348.4,-247.75 286.65,-247.75 286.65,-227 348.4,-227 348.4,-247.75"/>
<text text-anchor="middle" x="317.52" y="-234.25" font-family="Helvetica,sans-Serif" font-size="10.00">adapter.h</text>
</a>
</g>
</g>
<!-- Node14&#45;&gt;Node16 -->
<g id="edge22_Node000014_Node000016" class="edge">
<title>Node14&#45;&gt;Node16</title>
<g id="a_edge22_Node000014_Node000016"><a xlink:title=" ">
<path fill="none" stroke="#63b8ff" d="M349.55,-283.34C344.39,-276.1 337.21,-266.01 330.95,-257.22"/>
<polygon fill="#63b8ff" stroke="#63b8ff" points="333.97,-255.43 325.31,-249.31 328.26,-259.49 333.97,-255.43"/>
</a>
</g>
</g>
<!-- Node21 -->
<g id="Node000021" class="node">
<title>Node21</title>
<g id="a_Node000021"><a xlink:href="socket_8h.html" target="_top" xlink:title=" ">
<polygon fill="white" stroke="#666666" points="422.77,-247.75 366.27,-247.75 366.27,-227 422.77,-227 422.77,-247.75"/>
<text text-anchor="middle" x="394.52" y="-234.25" font-family="Helvetica,sans-Serif" font-size="10.00">socket.h</text>
</a>
</g>
</g>
<!-- Node14&#45;&gt;Node21 -->
<g id="edge36_Node000014_Node000021" class="edge">
<title>Node14&#45;&gt;Node21</title>
<g id="a_edge36_Node000014_Node000021"><a xlink:title=" ">
<path fill="none" stroke="#63b8ff" d="M363.32,-283.34C368.29,-276.17 375.19,-266.23 381.24,-257.51"/>
<polygon fill="#63b8ff" stroke="#63b8ff" points="384.1,-259.53 386.93,-249.32 378.35,-255.54 384.1,-259.53"/>
</a>
</g>
</g>
<!-- Node16&#45;&gt;Node4 -->
<g id="edge23_Node000016_Node000004" class="edge">
<title>Node16&#45;&gt;Node4</title>
<g id="a_edge23_Node000016_Node000004"><a xlink:title=" ">
<path fill="none" stroke="#63b8ff" d="M322.64,-226.74C337.29,-199.29 378.91,-122.15 388.52,-113.5 405.1,-98.58 427.38,-87.91 446.89,-80.68"/>
<polygon fill="#63b8ff" stroke="#63b8ff" points="447.97,-84.01 456.26,-77.41 445.66,-77.4 447.97,-84.01"/>
</a>
</g>
</g>
<!-- Node16&#45;&gt;Node12 -->
<g id="edge26_Node000016_Node000012" class="edge">
<title>Node16&#45;&gt;Node12</title>
<g id="a_edge26_Node000016_Node000012"><a xlink:title=" ">
<path fill="none" stroke="#63b8ff" d="M348.51,-228.3C382.82,-219.35 438.58,-204.81 478.76,-194.34"/>
<polygon fill="#63b8ff" stroke="#63b8ff" points="479.39,-197.79 488.18,-191.88 477.63,-191.02 479.39,-197.79"/>
</a>
</g>
</g>
<!-- Node16&#45;&gt;Node15 -->
<g id="edge24_Node000016_Node000015" class="edge">
<title>Node16&#45;&gt;Node15</title>
<g id="a_edge24_Node000016_Node000015"><a xlink:title=" ">
<path fill="none" stroke="#63b8ff" d="M286.29,-236.53C216.81,-236.14 52.84,-230.91 18.52,-191 -12.35,-155.08 44.07,-108.17 79.32,-84.02"/>
<polygon fill="#63b8ff" stroke="#63b8ff" points="80.96,-87.13 87.35,-78.68 77.08,-81.31 80.96,-87.13"/>
</a>
</g>
</g>
<!-- Node17 -->
<g id="Node000017" class="node">
<title>Node17</title>
<g id="a_Node000017"><a xlink:href="error_8h.html" target="_top" xlink:title=" ">
<polygon fill="white" stroke="#666666" points="440.4,-77.5 324.65,-77.5 324.65,-56.75 440.4,-56.75 440.4,-77.5"/>
<text text-anchor="middle" x="382.52" y="-64" font-family="Helvetica,sans-Serif" font-size="10.00">vlcb/platform/error.h</text>
</a>
</g>
</g>
<!-- Node16&#45;&gt;Node17 -->
<g id="edge25_Node000016_Node000017" class="edge">
<title>Node16&#45;&gt;Node17</title>
<g id="a_edge25_Node000016_Node000017"><a xlink:title=" ">
<path fill="none" stroke="#63b8ff" d="M319.36,-226.8C323.61,-205.68 335.21,-153.77 353.52,-113.5 357.67,-104.39 363.42,-94.96 368.71,-87.07"/>
<polygon fill="#63b8ff" stroke="#63b8ff" points="371.49,-89.2 374.35,-78.99 365.76,-85.19 371.49,-89.2"/>
</a>
</g>
</g>
<!-- Node18 -->
<g id="Node000018" class="node">
<title>Node18</title>
<g id="a_Node000018"><a xlink:href="packet_8h.html" target="_top" xlink:title=" ">
<polygon fill="white" stroke="#666666" points="145.52,-191 27.52,-191 27.52,-170.25 145.52,-170.25 145.52,-191"/>
<text text-anchor="middle" x="86.52" y="-177.5" font-family="Helvetica,sans-Serif" font-size="10.00">adapter/can/packet.h</text>
</a>
</g>
</g>
<!-- Node16&#45;&gt;Node18 -->
<g id="edge27_Node000016_Node000018" class="edge">
<title>Node16&#45;&gt;Node18</title>
<g id="a_edge27_Node000016_Node000018"><a xlink:title=" ">
<path fill="none" stroke="#63b8ff" d="M286.37,-228.99C248.68,-220.06 184.64,-204.88 139.22,-194.11"/>
<polygon fill="#63b8ff" stroke="#63b8ff" points="140.11,-190.73 129.57,-191.83 138.49,-197.54 140.11,-190.73"/>
</a>
</g>
</g>
<!-- Node20 -->
<g id="Node000020" class="node">
<title>Node20</title>
<g id="a_Node000020"><a xlink:href="addr_8h.html" target="_top" xlink:title=" ">
<polygon fill="white" stroke="#666666" points="289.52,-191 201.52,-191 201.52,-170.25 289.52,-170.25 289.52,-191"/>
<text text-anchor="middle" x="245.52" y="-177.5" font-family="Helvetica,sans-Serif" font-size="10.00">vlcb/net/addr.h</text>
</a>
</g>
</g>
<!-- Node16&#45;&gt;Node20 -->
<g id="edge34_Node000016_Node000020" class="edge">
<title>Node16&#45;&gt;Node20</title>
<g id="a_edge34_Node000016_Node000020"><a xlink:title=" ">
<path fill="none" stroke="#63b8ff" d="M304.65,-226.59C294.31,-218.72 279.55,-207.5 267.37,-198.24"/>
<polygon fill="#63b8ff" stroke="#63b8ff" points="269.57,-195.51 259.49,-192.24 265.33,-201.08 269.57,-195.51"/>
</a>
</g>
</g>
<!-- Node18&#45;&gt;Node15 -->
<g id="edge28_Node000018_Node000015" class="edge">
<title>Node18&#45;&gt;Node15</title>
<g id="a_edge28_Node000018_Node000015"><a xlink:title=" ">
<path fill="none" stroke="#63b8ff" d="M88.06,-170.12C90.94,-152.27 97.22,-113.36 101.14,-89.09"/>
<polygon fill="#63b8ff" stroke="#63b8ff" points="104.56,-89.85 102.7,-79.42 97.65,-88.73 104.56,-89.85"/>
</a>
</g>
</g>
<!-- Node19 -->
<g id="Node000019" class="node">
<title>Node19</title>
<g id="a_Node000019"><a xlink:href="common_2inc_2vlcb_2common_2can_8h.html" target="_top" xlink:title=" ">
<polygon fill="white" stroke="#666666" points="301.15,-134.25 189.9,-134.25 189.9,-113.5 301.15,-113.5 301.15,-134.25"/>
<text text-anchor="middle" x="245.52" y="-120.75" font-family="Helvetica,sans-Serif" font-size="10.00">vlcb/common/can.h</text>
</a>
</g>
</g>
<!-- Node18&#45;&gt;Node19 -->
<g id="edge29_Node000018_Node000019" class="edge">
<title>Node18&#45;&gt;Node19</title>
<g id="a_edge29_Node000018_Node000019"><a xlink:title=" ">
<path fill="none" stroke="#63b8ff" d="M114.95,-169.84C140.42,-161.07 178.02,-148.12 206.34,-138.37"/>
<polygon fill="#63b8ff" stroke="#63b8ff" points="207.33,-141.73 215.64,-135.16 205.05,-135.11 207.33,-141.73"/>
</a>
</g>
</g>
<!-- Node19&#45;&gt;Node4 -->
<g id="edge30_Node000019_Node000004" class="edge">
<title>Node19&#45;&gt;Node4</title>
<g id="a_edge30_Node000019_Node000004"><a xlink:title=" ">
<path fill="none" stroke="#63b8ff" d="M290.11,-113.04C329.03,-104.43 387.33,-91.5 446.75,-78.12"/>
<polygon fill="#63b8ff" stroke="#63b8ff" points="447.39,-81.56 456.38,-75.95 445.85,-74.73 447.39,-81.56"/>
</a>
</g>
</g>
<!-- Node19&#45;&gt;Node6 -->
<g id="edge32_Node000019_Node000006" class="edge">
<title>Node19&#45;&gt;Node6</title>
<g id="a_edge32_Node000019_Node000006"><a xlink:title=" ">
<path fill="none" stroke="#63b8ff" d="M252.35,-113.09C263.55,-97.93 287.41,-69.23 315.52,-56.75 412.61,-13.67 742.49,-10.78 855.32,-11.1"/>
<polygon fill="#63b8ff" stroke="#63b8ff" points="855.24,-14.6 865.25,-11.14 855.26,-7.6 855.24,-14.6"/>
</a>
</g>
</g>
<!-- Node19&#45;&gt;Node8 -->
<g id="edge33_Node000019_Node000008" class="edge">
<title>Node19&#45;&gt;Node8</title>
<g id="a_edge33_Node000019_Node000008"><a xlink:title=" ">
<path fill="none" stroke="#63b8ff" d="M301.62,-114.86C366.74,-105.55 474.63,-90.12 548.53,-79.56"/>
<polygon fill="#63b8ff" stroke="#63b8ff" points="548.72,-83.07 558.13,-78.19 547.73,-76.14 548.72,-83.07"/>
</a>
</g>
</g>
<!-- Node19&#45;&gt;Node15 -->
<g id="edge31_Node000019_Node000015" class="edge">
<title>Node19&#45;&gt;Node15</title>
<g id="a_edge31_Node000019_Node000015"><a xlink:title=" ">
<path fill="none" stroke="#63b8ff" d="M220.31,-113.09C197.96,-104.41 165.06,-91.63 140.04,-81.92"/>
<polygon fill="#63b8ff" stroke="#63b8ff" points="141.51,-78.73 130.92,-78.38 138.98,-85.26 141.51,-78.73"/>
</a>
</g>
</g>
<!-- Node20&#45;&gt;Node19 -->
<g id="edge35_Node000020_Node000019" class="edge">
<title>Node20&#45;&gt;Node19</title>
<g id="a_edge35_Node000020_Node000019"><a xlink:title=" ">
<path fill="none" stroke="#63b8ff" d="M245.52,-169.84C245.52,-163.22 245.52,-154.22 245.52,-146.02"/>
<polygon fill="#63b8ff" stroke="#63b8ff" points="249.02,-146.09 245.52,-136.09 242.02,-146.09 249.02,-146.09"/>
</a>
</g>
</g>
<!-- Node21&#45;&gt;Node12 -->
<g id="edge44_Node000021_Node000012" class="edge">
<title>Node21&#45;&gt;Node12</title>
<g id="a_edge44_Node000021_Node000012"><a xlink:title=" ">
<path fill="none" stroke="#63b8ff" d="M418.3,-226.59C439.2,-217.98 469.86,-205.36 493.38,-195.68"/>
<polygon fill="#63b8ff" stroke="#63b8ff" points="494.64,-198.95 502.55,-191.9 491.97,-192.47 494.64,-198.95"/>
</a>
</g>
</g>
<!-- Node21&#45;&gt;Node13 -->
<g id="edge38_Node000021_Node000013" class="edge">
<title>Node21&#45;&gt;Node13</title>
<g id="a_edge38_Node000021_Node000013"><a xlink:title=" ">
<path fill="none" stroke="#63b8ff" d="M401.29,-226.56C411.06,-212.84 430.2,-187.69 450.52,-170.25 464.05,-158.64 480.88,-148.07 495.07,-140.06"/>
<polygon fill="#63b8ff" stroke="#63b8ff" points="496.43,-143.31 503.52,-135.43 493.07,-137.17 496.43,-143.31"/>
</a>
</g>
</g>
<!-- Node21&#45;&gt;Node15 -->
<g id="edge37_Node000021_Node000015" class="edge">
<title>Node21&#45;&gt;Node15</title>
<g id="a_edge37_Node000021_Node000015"><a xlink:title=" ">
<path fill="none" stroke="#63b8ff" d="M365.86,-229.01C363.05,-228.32 360.23,-227.64 357.52,-227 284.47,-209.78 256.83,-229.7 192.52,-191 152.21,-166.74 125.2,-116.19 112.63,-88.07"/>
<polygon fill="#63b8ff" stroke="#63b8ff" points="116.01,-87.07 108.86,-79.25 109.57,-89.82 116.01,-87.07"/>
</a>
</g>
</g>
<!-- Node21&#45;&gt;Node20 -->
<g id="edge43_Node000021_Node000020" class="edge">
<title>Node21&#45;&gt;Node20</title>
<g id="a_edge43_Node000021_Node000020"><a xlink:title=" ">
<path fill="none" stroke="#63b8ff" d="M367.88,-226.59C344.23,-217.89 309.4,-205.1 282.95,-195.38"/>
<polygon fill="#63b8ff" stroke="#63b8ff" points="284.2,-192.11 273.6,-191.94 281.78,-198.68 284.2,-192.11"/>
</a>
</g>
</g>
<!-- Node22 -->
<g id="Node000022" class="node">
<title>Node22</title>
<g id="a_Node000022"><a xlink:href="vlcb_8h.html" target="_top" xlink:title=" ">
<polygon fill="white" stroke="#666666" points="477.77,-134.25 397.27,-134.25 397.27,-113.5 477.77,-113.5 477.77,-134.25"/>
<text text-anchor="middle" x="437.52" y="-120.75" font-family="Helvetica,sans-Serif" font-size="10.00">packet/vlcb.h</text>
</a>
</g>
</g>
<!-- Node21&#45;&gt;Node22 -->
<g id="edge39_Node000021_Node000022" class="edge">
<title>Node21&#45;&gt;Node22</title>
<g id="a_edge39_Node000021_Node000022"><a xlink:title=" ">
<path fill="none" stroke="#63b8ff" d="M397.56,-226.87C401.76,-213.95 409.69,-190.16 417.52,-170.25 420.83,-161.85 424.78,-152.73 428.29,-144.87"/>
<polygon fill="#63b8ff" stroke="#63b8ff" points="431.42,-146.45 432.38,-135.89 425.05,-143.55 431.42,-146.45"/>
</a>
</g>
</g>
<!-- Node22&#45;&gt;Node4 -->
<g id="edge40_Node000022_Node000004" class="edge">
<title>Node22&#45;&gt;Node4</title>
<g id="a_edge40_Node000022_Node000004"><a xlink:title=" ">
<path fill="none" stroke="#63b8ff" d="M447,-113.09C454.31,-105.53 464.62,-94.89 473.37,-85.85"/>
<polygon fill="#63b8ff" stroke="#63b8ff" points="475.64,-88.54 480.08,-78.92 470.61,-83.67 475.64,-88.54"/>
</a>
</g>
</g>
<!-- Node22&#45;&gt;Node8 -->
<g id="edge41_Node000022_Node000008" class="edge">
<title>Node22&#45;&gt;Node8</title>
<g id="a_edge41_Node000022_Node000008"><a xlink:title=" ">
<path fill="none" stroke="#63b8ff" d="M471.67,-113.09C502.94,-104.12 549.44,-90.79 583.69,-80.98"/>
<polygon fill="#63b8ff" stroke="#63b8ff" points="584.25,-84.46 592.9,-78.34 582.32,-77.73 584.25,-84.46"/>
</a>
</g>
</g>
<!-- Node22&#45;&gt;Node17 -->
<g id="edge42_Node000022_Node000017" class="edge">
<title>Node22&#45;&gt;Node17</title>
<g id="a_edge42_Node000022_Node000017"><a xlink:title=" ">
<path fill="none" stroke="#63b8ff" d="M427.69,-113.09C420.1,-105.53 409.41,-94.89 400.33,-85.85"/>
<polygon fill="#63b8ff" stroke="#63b8ff" points="402.9,-83.47 393.34,-78.9 397.96,-88.43 402.9,-83.47"/>
</a>
</g>
</g>
<!-- Node23&#45;&gt;Node6 -->
<g id="edge56_Node000023_Node000006" class="edge">
<title>Node23&#45;&gt;Node6</title>
<g id="a_edge56_Node000023_Node000006"><a xlink:title=" ">
<path fill="none" stroke="#63b8ff" d="M739.26,-283.5C762.37,-266.07 806.52,-226.85 806.52,-181.62 806.52,-181.62 806.52,-181.62 806.52,-122.88 806.52,-81.94 843.41,-47.04 869.15,-27.67"/>
<polygon fill="#63b8ff" stroke="#63b8ff" points="871.07,-30.6 877.14,-21.91 866.98,-24.92 871.07,-30.6"/>
</a>
</g>
</g>
<!-- Node23&#45;&gt;Node12 -->
<g id="edge55_Node000023_Node000012" class="edge">
<title>Node23&#45;&gt;Node12</title>
<g id="a_edge55_Node000023_Node000012"><a xlink:title=" ">
<path fill="none" stroke="#63b8ff" d="M708.3,-283.43C673.85,-264.03 596.23,-220.31 554.79,-196.98"/>
<polygon fill="#63b8ff" stroke="#63b8ff" points="556.6,-193.98 546.17,-192.12 553.16,-200.08 556.6,-193.98"/>
</a>
</g>
</g>
<!-- Node23&#45;&gt;Node21 -->
<g id="edge50_Node000023_Node000021" class="edge">
<title>Node23&#45;&gt;Node21</title>
<g id="a_edge50_Node000023_Node000021"><a xlink:title=" ">
<path fill="none" stroke="#63b8ff" d="M665.96,-283.27C598.92,-272.18 491.87,-254.48 434.28,-244.95"/>
<polygon fill="#63b8ff" stroke="#63b8ff" points="435.04,-241.53 424.61,-243.35 433.9,-248.44 435.04,-241.53"/>
</a>
</g>
</g>
<!-- Node24 -->
<g id="Node000024" class="node">
<title>Node24</title>
<g id="a_Node000024"><a xlink:href="packet_2datagram_8h.html" target="_top" xlink:title=" ">
<polygon fill="white" stroke="#666666" points="686.77,-134.25 570.27,-134.25 570.27,-113.5 686.77,-113.5 686.77,-134.25"/>
<text text-anchor="middle" x="628.52" y="-120.75" font-family="Helvetica,sans-Serif" font-size="10.00">../packet/datagram.h</text>
</a>
</g>
</g>
<!-- Node23&#45;&gt;Node24 -->
<g id="edge46_Node000023_Node000024" class="edge">
<title>Node23&#45;&gt;Node24</title>
<g id="a_edge46_Node000023_Node000024"><a xlink:title=" ">
<path fill="none" stroke="#63b8ff" d="M731.82,-283.52C745.42,-261.43 774.41,-206.16 749.52,-170.25 741.05,-158.03 708.91,-146.3 679.88,-137.82"/>
<polygon fill="#63b8ff" stroke="#63b8ff" points="680.99,-134.5 670.42,-135.15 679.09,-141.24 680.99,-134.5"/>
</a>
</g>
</g>
<!-- Node25 -->
<g id="Node000025" class="node">
<title>Node25</title>
<g id="a_Node000025"><a xlink:href="packet__buf_8h.html" target="_top" xlink:title=" ">
<polygon fill="white" stroke="#666666" points="740.65,-191 614.4,-191 614.4,-170.25 740.65,-170.25 740.65,-191"/>
<text text-anchor="middle" x="677.52" y="-177.5" font-family="Helvetica,sans-Serif" font-size="10.00">../storage/packet_buf.h</text>
</a>
</g>
</g>
<!-- Node23&#45;&gt;Node25 -->
<g id="edge51_Node000023_Node000025" class="edge">
<title>Node23&#45;&gt;Node25</title>
<g id="a_edge51_Node000023_Node000025"><a xlink:title=" ">
<path fill="none" stroke="#63b8ff" d="M721.43,-283.62C713.68,-265.61 696.69,-226.14 686.26,-201.93"/>
<polygon fill="#63b8ff" stroke="#63b8ff" points="689.51,-200.62 682.34,-192.82 683.08,-203.38 689.51,-200.62"/>
</a>
</g>
</g>
<!-- Node24&#45;&gt;Node4 -->
<g id="edge47_Node000024_Node000004" class="edge">
<title>Node24&#45;&gt;Node4</title>
<g id="a_edge47_Node000024_Node000004"><a xlink:title=" ">
<path fill="none" stroke="#63b8ff" d="M603.85,-113.09C582.07,-104.44 550.06,-91.75 525.62,-82.05"/>
<polygon fill="#63b8ff" stroke="#63b8ff" points="526.97,-78.82 516.39,-78.39 524.39,-85.33 526.97,-78.82"/>
</a>
</g>
</g>
<!-- Node24&#45;&gt;Node8 -->
<g id="edge48_Node000024_Node000008" class="edge">
<title>Node24&#45;&gt;Node8</title>
<g id="a_edge48_Node000024_Node000008"><a xlink:title=" ">
<path fill="none" stroke="#63b8ff" d="M628.52,-113.09C628.52,-106.47 628.52,-97.47 628.52,-89.27"/>
<polygon fill="#63b8ff" stroke="#63b8ff" points="632.02,-89.34 628.52,-79.34 625.02,-89.34 632.02,-89.34"/>
</a>
</g>
</g>
<!-- Node24&#45;&gt;Node17 -->
<g id="edge49_Node000024_Node000017" class="edge">
<title>Node24&#45;&gt;Node17</title>
<g id="a_edge49_Node000024_Node000017"><a xlink:title=" ">
<path fill="none" stroke="#63b8ff" d="M584.26,-113.02C543.28,-103.9 482.2,-90.31 437.98,-80.47"/>
<polygon fill="#63b8ff" stroke="#63b8ff" points="438.84,-77.07 428.32,-78.32 437.32,-83.91 438.84,-77.07"/>
</a>
</g>
</g>
<!-- Node25&#45;&gt;Node6 -->
<g id="edge54_Node000025_Node000006" class="edge">
<title>Node25&#45;&gt;Node6</title>
<g id="a_edge54_Node000025_Node000006"><a xlink:title=" ">
<path fill="none" stroke="#63b8ff" d="M684.55,-169.77C701.1,-147.17 744.74,-90.89 792.52,-56.75 811.92,-42.89 836.23,-31.81 856.14,-24.07"/>
<polygon fill="#63b8ff" stroke="#63b8ff" points="857.14,-27.43 865.27,-20.65 854.68,-20.88 857.14,-27.43"/>
</a>
</g>
</g>
<!-- Node25&#45;&gt;Node13 -->
<g id="edge53_Node000025_Node000013" class="edge">
<title>Node25&#45;&gt;Node13</title>
<g id="a_edge53_Node000025_Node000013"><a xlink:title=" ">
<path fill="none" stroke="#63b8ff" d="M650.17,-169.84C625.77,-161.11 589.8,-148.23 562.59,-138.5"/>
<polygon fill="#63b8ff" stroke="#63b8ff" points="563.92,-135.25 553.32,-135.18 561.56,-141.85 563.92,-135.25"/>
</a>
</g>
</g>
<!-- Node25&#45;&gt;Node15 -->
<g id="edge52_Node000025_Node000015" class="edge">
<title>Node25&#45;&gt;Node15</title>
<g id="a_edge52_Node000025_Node000015"><a xlink:title=" ">
<path fill="none" stroke="#63b8ff" d="M614.23,-171.33C610.95,-170.95 607.7,-170.59 604.52,-170.25 510.49,-160.23 267.61,-171.11 180.52,-134.25 155.75,-123.77 133.31,-102.01 119.34,-86.31"/>
<polygon fill="#63b8ff" stroke="#63b8ff" points="122.29,-84.37 113.13,-79.05 116.97,-88.92 122.29,-84.37"/>
</a>
</g>
</g>
</g>
</svg>
