<?xml version="1.0" encoding="UTF-8" standalone="no"?>
<!DOCTYPE svg PUBLIC "-//W3C//DTD SVG 1.1//EN"
 "http://www.w3.org/Graphics/SVG/1.1/DTD/svg11.dtd">
<!-- Generated by graphviz version 12.1.2 (20240928.0832)
 -->
<!-- Title: HandleMnsMessages Pages: 1 -->
<svg width="1051pt" height="312pt"
 viewBox="0.00 0.00 1050.50 311.75" xmlns="http://www.w3.org/2000/svg" xmlns:xlink="http://www.w3.org/1999/xlink">
<g id="graph0" class="graph" transform="scale(1 1) rotate(0) translate(4 307.75)">
<title>HandleMnsMessages</title>
<!-- Node1 -->
<g id="Node000001" class="node">
<title>Node1</title>
<g id="a_Node000001"><a xlink:title=" ">
<polygon fill="#999999" stroke="#666666" points="119.5,-143.75 0,-143.75 0,-123 119.5,-123 119.5,-143.75"/>
<text text-anchor="middle" x="59.75" y="-130.25" font-family="Helvetica,sans-Serif" font-size="10.00">HandleMnsMessages</text>
</a>
</g>
</g>
<!-- Node2 -->
<g id="Node000002" class="node">
<title>Node2</title>
<g id="a_Node000002"><a xlink:href="module_8c.html#abbdf441a7d8267aadf96102dc719cd2a" target="_top" xlink:title=" ">
<polygon fill="white" stroke="#666666" points="270.88,-266.75 200.88,-266.75 200.88,-246 270.88,-246 270.88,-266.75"/>
<text text-anchor="middle" x="235.88" y="-253.25" font-family="Helvetica,sans-Serif" font-size="10.00">AbortSetup</text>
</a>
</g>
</g>
<!-- Node1&#45;&gt;Node2 -->
<g id="edge1_Node000001_Node000002" class="edge">
<title>Node1&#45;&gt;Node2</title>
<g id="a_edge1_Node000001_Node000002"><a xlink:title=" ">
<path fill="none" stroke="#63b8ff" d="M67.39,-144C81.12,-165.06 114.79,-212.14 155.5,-236.38 165.86,-242.54 178.08,-246.82 189.78,-249.78"/>
<polygon fill="#63b8ff" stroke="#63b8ff" points="188.77,-253.14 199.29,-251.91 190.29,-246.31 188.77,-253.14"/>
</a>
</g>
</g>
<!-- Node10 -->
<g id="Node000010" class="node">
<title>Node10</title>
<g id="a_Node000010"><a xlink:href="module_8c.html#ad27d42d9eb11253063b80a2d3f12a792" target="_top" xlink:title=" ">
<polygon fill="white" stroke="#666666" points="308.38,-227.75 163.38,-227.75 163.38,-207 308.38,-207 308.38,-227.75"/>
<text text-anchor="middle" x="235.88" y="-214.25" font-family="Helvetica,sans-Serif" font-size="10.00">HandleQueryModuleName</text>
</a>
</g>
</g>
<!-- Node1&#45;&gt;Node10 -->
<g id="edge11_Node000001_Node000010" class="edge">
<title>Node1&#45;&gt;Node10</title>
<g id="a_edge11_Node000001_Node000010"><a xlink:title=" ">
<path fill="none" stroke="#63b8ff" d="M73.38,-144.04C90.78,-158.21 123.61,-183.11 155.5,-197.38 160.28,-199.51 165.32,-201.45 170.46,-203.19"/>
<polygon fill="#63b8ff" stroke="#63b8ff" points="169.04,-206.42 179.63,-206.07 171.13,-199.74 169.04,-206.42"/>
</a>
</g>
</g>
<!-- Node12 -->
<g id="Node000012" class="node">
<title>Node12</title>
<g id="a_Node000012"><a xlink:href="module_8c.html#a877cfd06d4e98451411f103b18df1c77" target="_top" xlink:title=" ">
<polygon fill="white" stroke="#666666" points="297.88,-188.75 173.88,-188.75 173.88,-168 297.88,-168 297.88,-188.75"/>
<text text-anchor="middle" x="235.88" y="-175.25" font-family="Helvetica,sans-Serif" font-size="10.00">HandleQueryNodeInfo</text>
</a>
</g>
</g>
<!-- Node1&#45;&gt;Node12 -->
<g id="edge13_Node000001_Node000012" class="edge">
<title>Node1&#45;&gt;Node12</title>
<g id="a_edge13_Node000001_Node000012"><a xlink:title=" ">
<path fill="none" stroke="#63b8ff" d="M98.94,-144.16C116.18,-148.95 136.83,-154.58 155.5,-159.38 162.61,-161.2 170.09,-163.07 177.5,-164.88"/>
<polygon fill="#63b8ff" stroke="#63b8ff" points="176.63,-168.27 187.17,-167.22 178.28,-161.46 176.63,-168.27"/>
</a>
</g>
</g>
<!-- Node13 -->
<g id="Node000013" class="node">
<title>Node13</title>
<g id="a_Node000013"><a xlink:href="module_8c.html#ad4399b840bba2ff9c72a1c7956d4b033" target="_top" xlink:title=" ">
<polygon fill="white" stroke="#666666" points="313.62,-150.12 158.12,-150.12 158.12,-116.62 313.62,-116.62 313.62,-150.12"/>
<text text-anchor="start" x="166.12" y="-136.62" font-family="Helvetica,sans-Serif" font-size="10.00">HandleQueryNodeParameter</text>
<text text-anchor="middle" x="235.88" y="-123.88" font-family="Helvetica,sans-Serif" font-size="10.00">ByIndex</text>
</a>
</g>
</g>
<!-- Node1&#45;&gt;Node13 -->
<g id="edge14_Node000001_Node000013" class="edge">
<title>Node1&#45;&gt;Node13</title>
<g id="a_edge14_Node000001_Node000013"><a xlink:title=" ">
<path fill="none" stroke="#63b8ff" d="M119.7,-133.38C128.3,-133.38 137.32,-133.38 146.35,-133.38"/>
<polygon fill="#63b8ff" stroke="#63b8ff" points="146.26,-136.88 156.26,-133.38 146.26,-129.88 146.26,-136.88"/>
</a>
</g>
</g>
<!-- Node14 -->
<g id="Node000014" class="node">
<title>Node14</title>
<g id="a_Node000014"><a xlink:href="module_8c.html#a01dc6700d3926d16f6ebfb5e3611e6c2" target="_top" xlink:title=" ">
<polygon fill="white" stroke="#666666" points="316.25,-98.75 155.5,-98.75 155.5,-78 316.25,-78 316.25,-98.75"/>
<text text-anchor="middle" x="235.88" y="-85.25" font-family="Helvetica,sans-Serif" font-size="10.00">HandleQueryNodeParameters</text>
</a>
</g>
</g>
<!-- Node1&#45;&gt;Node14 -->
<g id="edge15_Node000001_Node000014" class="edge">
<title>Node1&#45;&gt;Node14</title>
<g id="a_edge15_Node000001_Node000014"><a xlink:title=" ">
<path fill="none" stroke="#63b8ff" d="M98.94,-122.59C116.18,-117.8 136.83,-112.17 155.5,-107.38 162.61,-105.55 170.09,-103.68 177.5,-101.87"/>
<polygon fill="#63b8ff" stroke="#63b8ff" points="178.28,-105.29 187.17,-99.53 176.63,-98.48 178.28,-105.29"/>
</a>
</g>
</g>
<!-- Node16 -->
<g id="Node000016" class="node">
<title>Node16</title>
<g id="a_Node000016"><a xlink:href="module_8c.html#a348f39a99d076c328cca26f3d5b55d48" target="_top" xlink:title=" ">
<polygon fill="white" stroke="#666666" points="298.25,-59.75 173.5,-59.75 173.5,-39 298.25,-39 298.25,-59.75"/>
<text text-anchor="middle" x="235.88" y="-46.25" font-family="Helvetica,sans-Serif" font-size="10.00">HandleRebootRequest</text>
</a>
</g>
</g>
<!-- Node1&#45;&gt;Node16 -->
<g id="edge19_Node000001_Node000016" class="edge">
<title>Node1&#45;&gt;Node16</title>
<g id="a_edge19_Node000001_Node000016"><a xlink:title=" ">
<path fill="none" stroke="#63b8ff" d="M73.38,-122.71C90.78,-108.54 123.61,-83.64 155.5,-69.38 160.28,-67.24 165.32,-65.3 170.46,-63.56"/>
<polygon fill="#63b8ff" stroke="#63b8ff" points="171.13,-67.01 179.63,-60.68 169.04,-60.33 171.13,-67.01"/>
</a>
</g>
</g>
<!-- Node17 -->
<g id="Node000017" class="node">
<title>Node17</title>
<g id="a_Node000017"><a xlink:href="module_8c.html#ae7098558cb9399bcbfe5f9a51f9e9b36" target="_top" xlink:title=" ">
<polygon fill="white" stroke="#666666" points="301.25,-20.75 170.5,-20.75 170.5,0 301.25,0 301.25,-20.75"/>
<text text-anchor="middle" x="235.88" y="-7.25" font-family="Helvetica,sans-Serif" font-size="10.00">HandleSetNodeNumber</text>
</a>
</g>
</g>
<!-- Node1&#45;&gt;Node17 -->
<g id="edge20_Node000001_Node000017" class="edge">
<title>Node1&#45;&gt;Node17</title>
<g id="a_edge20_Node000001_Node000017"><a xlink:title=" ">
<path fill="none" stroke="#63b8ff" d="M67.39,-122.75C81.12,-101.69 114.79,-54.61 155.5,-30.38 158.61,-28.52 161.89,-26.84 165.28,-25.31"/>
<polygon fill="#63b8ff" stroke="#63b8ff" points="166.27,-28.68 174.27,-21.74 163.68,-22.18 166.27,-28.68"/>
</a>
</g>
</g>
<!-- Node3 -->
<g id="Node000003" class="node">
<title>Node3</title>
<g id="a_Node000003"><a xlink:href="state__machine_8c.html#a3d333fba19ed5ffbaabc4663ef9e2abc" target="_top" xlink:title=" ">
<polygon fill="white" stroke="#666666" points="457.88,-264.75 369.12,-264.75 369.12,-244 457.88,-244 457.88,-264.75"/>
<text text-anchor="middle" x="413.5" y="-251.25" font-family="Helvetica,sans-Serif" font-size="10.00">state_Dispatch</text>
</a>
</g>
</g>
<!-- Node2&#45;&gt;Node3 -->
<g id="edge2_Node000002_Node000003" class="edge">
<title>Node2&#45;&gt;Node3</title>
<g id="a_edge2_Node000002_Node000003"><a xlink:title=" ">
<path fill="none" stroke="#63b8ff" d="M271.15,-255.98C295.63,-255.71 329.09,-255.32 357.3,-255"/>
<polygon fill="#63b8ff" stroke="#63b8ff" points="357.16,-258.51 367.12,-254.89 357.08,-251.51 357.16,-258.51"/>
</a>
</g>
</g>
<!-- Node4 -->
<g id="Node000004" class="node">
<title>Node4</title>
<g id="a_Node000004"><a xlink:href="state__machine_8c.html#a6c338e6311730773d98d58f8aa921012" target="_top" xlink:title=" ">
<polygon fill="white" stroke="#666666" points="660.25,-303.75 531,-303.75 531,-283 660.25,-283 660.25,-303.75"/>
<text text-anchor="middle" x="595.62" y="-290.25" font-family="Helvetica,sans-Serif" font-size="10.00">CheckForSetupTimeout</text>
</a>
</g>
</g>
<!-- Node3&#45;&gt;Node4 -->
<g id="edge3_Node000003_Node000004" class="edge">
<title>Node3&#45;&gt;Node4</title>
<g id="a_edge3_Node000003_Node000004"><a xlink:title=" ">
<path fill="none" stroke="#63b8ff" d="M458.1,-263.82C480.68,-268.7 508.61,-274.75 533.32,-280.1"/>
<polygon fill="#63b8ff" stroke="#63b8ff" points="532.42,-283.49 542.93,-282.18 533.9,-276.65 532.42,-283.49"/>
</a>
</g>
</g>
<!-- Node5 -->
<g id="Node000005" class="node">
<title>Node5</title>
<g id="a_Node000005"><a xlink:href="state__machine_8c.html#a219b685fd854a0765878acc44e9f3111" target="_top" xlink:title=" ">
<polygon fill="white" stroke="#666666" points="667.75,-264.75 523.5,-264.75 523.5,-244 667.75,-244 667.75,-264.75"/>
<text text-anchor="middle" x="595.62" y="-251.25" font-family="Helvetica,sans-Serif" font-size="10.00">HandleTransitionToNormal</text>
</a>
</g>
</g>
<!-- Node3&#45;&gt;Node5 -->
<g id="edge4_Node000003_Node000005" class="edge">
<title>Node3&#45;&gt;Node5</title>
<g id="a_edge4_Node000003_Node000005"><a xlink:title=" ">
<path fill="none" stroke="#63b8ff" d="M458.1,-254.38C474.31,-254.38 493.29,-254.38 511.85,-254.38"/>
<polygon fill="#63b8ff" stroke="#63b8ff" points="511.81,-257.88 521.81,-254.38 511.81,-250.88 511.81,-257.88"/>
</a>
</g>
</g>
<!-- Node8 -->
<g id="Node000008" class="node">
<title>Node8</title>
<g id="a_Node000008"><a xlink:href="state__machine_8c.html#a454533bb18a4f7d35e37e49479a0be7a" target="_top" xlink:title=" ">
<polygon fill="white" stroke="#666666" points="663.62,-225.75 527.62,-225.75 527.62,-205 663.62,-205 663.62,-225.75"/>
<text text-anchor="middle" x="595.62" y="-212.25" font-family="Helvetica,sans-Serif" font-size="10.00">HandleTransitionToSetup</text>
</a>
</g>
</g>
<!-- Node3&#45;&gt;Node8 -->
<g id="edge7_Node000003_Node000008" class="edge">
<title>Node3&#45;&gt;Node8</title>
<g id="a_edge7_Node000003_Node000008"><a xlink:title=" ">
<path fill="none" stroke="#63b8ff" d="M458.1,-244.93C480.68,-240.05 508.61,-234 533.32,-228.65"/>
<polygon fill="#63b8ff" stroke="#63b8ff" points="533.9,-232.1 542.93,-226.57 532.42,-225.26 533.9,-232.1"/>
</a>
</g>
</g>
<!-- Node9 -->
<g id="Node000009" class="node">
<title>Node9</title>
<g id="a_Node000009"><a xlink:href="state__machine_8c.html#a33506340e66a1f297917a2be79b70b0e" target="_top" xlink:title=" ">
<polygon fill="white" stroke="#666666" points="680.5,-186.75 510.75,-186.75 510.75,-166 680.5,-166 680.5,-186.75"/>
<text text-anchor="middle" x="595.62" y="-173.25" font-family="Helvetica,sans-Serif" font-size="10.00">HandleTransitionToUninitialized</text>
</a>
</g>
</g>
<!-- Node3&#45;&gt;Node9 -->
<g id="edge9_Node000003_Node000009" class="edge">
<title>Node3&#45;&gt;Node9</title>
<g id="a_edge9_Node000003_Node000009"><a xlink:title=" ">
<path fill="none" stroke="#63b8ff" d="M429.07,-243.62C447.3,-230.64 479.87,-209 510.75,-196.38 516.29,-194.11 522.15,-192.06 528.09,-190.22"/>
<polygon fill="#63b8ff" stroke="#63b8ff" points="528.73,-193.68 537.37,-187.55 526.79,-186.95 528.73,-193.68"/>
</a>
</g>
</g>
<!-- Node6 -->
<g id="Node000006" class="node">
<title>Node6</title>
<g id="a_Node000006"><a xlink:href="socket_2datagram_8c.html#a7da610c48db02cd38212ef1545d00f00" target="_top" xlink:title=" ">
<polygon fill="white" stroke="#666666" points="867.5,-205.75 716.5,-205.75 716.5,-185 867.5,-185 867.5,-205.75"/>
<text text-anchor="middle" x="792" y="-192.25" font-family="Helvetica,sans-Serif" font-size="10.00">vlcb_net_sock_dgram_Send</text>
</a>
</g>
</g>
<!-- Node5&#45;&gt;Node6 -->
<g id="edge5_Node000005_Node000006" class="edge">
<title>Node5&#45;&gt;Node6</title>
<g id="a_edge5_Node000005_Node000006"><a xlink:title=" ">
<path fill="none" stroke="#63b8ff" d="M645.64,-243.6C657.14,-240.82 669.3,-237.68 680.5,-234.38 704.65,-227.26 731.27,-217.91 752.34,-210.14"/>
<polygon fill="#63b8ff" stroke="#63b8ff" points="753.54,-213.43 761.69,-206.66 751.1,-206.87 753.54,-213.43"/>
</a>
</g>
</g>
<!-- Node7 -->
<g id="Node000007" class="node">
<title>Node7</title>
<g id="a_Node000007"><a xlink:href="packet__buf_8c.html#afa80d4fb078473100610ba106bd5cb46" target="_top" xlink:title=" ">
<polygon fill="white" stroke="#666666" points="1042.5,-205.75 903.5,-205.75 903.5,-185 1042.5,-185 1042.5,-205.75"/>
<text text-anchor="middle" x="973" y="-192.25" font-family="Helvetica,sans-Serif" font-size="10.00">vlcb_net_packetbuf_Push</text>
</a>
</g>
</g>
<!-- Node6&#45;&gt;Node7 -->
<g id="edge6_Node000006_Node000007" class="edge">
<title>Node6&#45;&gt;Node7</title>
<g id="a_edge6_Node000006_Node000007"><a xlink:title=" ">
<path fill="none" stroke="#63b8ff" d="M867.87,-195.38C875.73,-195.38 883.73,-195.38 891.65,-195.38"/>
<polygon fill="#63b8ff" stroke="#63b8ff" points="891.62,-198.88 901.62,-195.38 891.62,-191.88 891.62,-198.88"/>
</a>
</g>
</g>
<!-- Node8&#45;&gt;Node6 -->
<g id="edge8_Node000008_Node000006" class="edge">
<title>Node8&#45;&gt;Node6</title>
<g id="a_edge8_Node000008_Node000006"><a xlink:title=" ">
<path fill="none" stroke="#63b8ff" d="M664.06,-208.44C677.17,-207.09 691.07,-205.66 704.69,-204.26"/>
<polygon fill="#63b8ff" stroke="#63b8ff" points="704.94,-207.75 714.53,-203.24 704.23,-200.79 704.94,-207.75"/>
</a>
</g>
</g>
<!-- Node9&#45;&gt;Node6 -->
<g id="edge10_Node000009_Node000006" class="edge">
<title>Node9&#45;&gt;Node6</title>
<g id="a_edge10_Node000009_Node000006"><a xlink:title=" ">
<path fill="none" stroke="#63b8ff" d="M680.75,-184.6C688.77,-185.38 696.91,-186.18 704.95,-186.96"/>
<polygon fill="#63b8ff" stroke="#63b8ff" points="704.42,-190.43 714.71,-187.92 705.1,-183.46 704.42,-190.43"/>
</a>
</g>
</g>
<!-- Node11 -->
<g id="Node000011" class="node">
<title>Node11</title>
<g id="a_Node000011"><a xlink:href="param_8c.html#a508584590ac967bad9531182ab9e451d" target="_top" xlink:title=" ">
<polygon fill="white" stroke="#666666" points="474.75,-203.75 352.25,-203.75 352.25,-183 474.75,-183 474.75,-203.75"/>
<text text-anchor="middle" x="413.5" y="-190.25" font-family="Helvetica,sans-Serif" font-size="10.00">ModuleParamGetByte</text>
</a>
</g>
</g>
<!-- Node10&#45;&gt;Node11 -->
<g id="edge12_Node000010_Node000011" class="edge">
<title>Node10&#45;&gt;Node11</title>
<g id="a_edge12_Node000010_Node000011"><a xlink:title=" ">
<path fill="none" stroke="#63b8ff" d="M308.82,-207.54C319.32,-206.11 330.14,-204.63 340.64,-203.19"/>
<polygon fill="#63b8ff" stroke="#63b8ff" points="340.95,-206.69 350.38,-201.86 340,-199.75 340.95,-206.69"/>
</a>
</g>
</g>
<!-- Node14&#45;&gt;Node6 -->
<g id="edge17_Node000014_Node000006" class="edge">
<title>Node14&#45;&gt;Node6</title>
<g id="a_edge17_Node000014_Node000006"><a xlink:title=" ">
<path fill="none" stroke="#63b8ff" d="M280.51,-99.2C302.02,-104.28 328.4,-110.13 352.25,-114.38 497.11,-140.13 537.26,-123.73 680.5,-157.38 705.56,-163.26 732.92,-172.65 754.15,-180.62"/>
<polygon fill="#63b8ff" stroke="#63b8ff" points="752.64,-183.79 763.23,-184.09 755.14,-177.25 752.64,-183.79"/>
</a>
</g>
</g>
<!-- Node14&#45;&gt;Node11 -->
<g id="edge16_Node000014_Node000011" class="edge">
<title>Node14&#45;&gt;Node11</title>
<g id="a_edge16_Node000014_Node000011"><a xlink:title=" ">
<path fill="none" stroke="#63b8ff" d="M299.12,-99.13C305.13,-101.38 310.95,-104.09 316.25,-107.38 337.44,-120.5 333.96,-133.44 352.25,-150.38 362.43,-159.8 374.74,-168.92 385.57,-176.32"/>
<polygon fill="#63b8ff" stroke="#63b8ff" points="383.47,-179.13 393.74,-181.75 387.35,-173.3 383.47,-179.13"/>
</a>
</g>
</g>
<!-- Node15 -->
<g id="Node000015" class="node">
<title>Node15</title>
<g id="a_Node000015"><a xlink:href="socket_2datagram_8h.html#a396e9e0c1c9943bbb0cb52fe73967630" target="_top" xlink:title=" ">
<polygon fill="white" stroke="#666666" points="474.38,-105.12 352.62,-105.12 352.62,-71.62 474.38,-71.62 474.38,-105.12"/>
<text text-anchor="start" x="360.62" y="-91.62" font-family="Helvetica,sans-Serif" font-size="10.00">vlcb_net_sock_dgram</text>
<text text-anchor="middle" x="413.5" y="-78.88" font-family="Helvetica,sans-Serif" font-size="10.00">_SendErrToStr</text>
</a>
</g>
</g>
<!-- Node14&#45;&gt;Node15 -->
<g id="edge18_Node000014_Node000015" class="edge">
<title>Node14&#45;&gt;Node15</title>
<g id="a_edge18_Node000014_Node000015"><a xlink:title=" ">
<path fill="none" stroke="#63b8ff" d="M316.72,-88.38C324.76,-88.38 332.88,-88.38 340.83,-88.38"/>
<polygon fill="#63b8ff" stroke="#63b8ff" points="340.79,-91.88 350.79,-88.38 340.79,-84.88 340.79,-91.88"/>
</a>
</g>
</g>
</g>
</svg>
