<?xml version="1.0" encoding="UTF-8" standalone="no"?>
<!DOCTYPE svg PUBLIC "-//W3C//DTD SVG 1.1//EN"
 "http://www.w3.org/Graphics/SVG/1.1/DTD/svg11.dtd">
<!-- Generated by graphviz version 12.1.2 (20240928.0832)
 -->
<!-- Title: HandleHeartbeat Pages: 1 -->
<svg width="469pt" height="132pt"
 viewBox="0.00 0.00 469.25 132.12" xmlns="http://www.w3.org/2000/svg" xmlns:xlink="http://www.w3.org/1999/xlink">
<g id="graph0" class="graph" transform="scale(1 1) rotate(0) translate(4 128.12)">
<title>HandleHeartbeat</title>
<!-- Node1 -->
<g id="Node000001" class="node">
<title>Node1</title>
<g id="a_Node000001"><a xlink:title=" ">
<polygon fill="#999999" stroke="#666666" points="99.25,-79.12 0,-79.12 0,-58.38 99.25,-58.38 99.25,-79.12"/>
<text text-anchor="middle" x="49.62" y="-65.62" font-family="Helvetica,sans-Serif" font-size="10.00">HandleHeartbeat</text>
</a>
</g>
</g>
<!-- Node2 -->
<g id="Node000002" class="node">
<title>Node2</title>
<g id="a_Node000002"><a xlink:href="socket_2datagram_8c.html#a7da610c48db02cd38212ef1545d00f00" target="_top" xlink:title=" ">
<polygon fill="white" stroke="#666666" points="286.25,-124.12 135.25,-124.12 135.25,-103.38 286.25,-103.38 286.25,-124.12"/>
<text text-anchor="middle" x="210.75" y="-110.62" font-family="Helvetica,sans-Serif" font-size="10.00">vlcb_net_sock_dgram_Send</text>
</a>
</g>
</g>
<!-- Node1&#45;&gt;Node2 -->
<g id="edge1_Node000001_Node000002" class="edge">
<title>Node1&#45;&gt;Node2</title>
<g id="a_edge1_Node000001_Node000002"><a xlink:title=" ">
<path fill="none" stroke="#63b8ff" d="M84.28,-79.5C99.76,-84.34 118.38,-90.01 135.25,-94.75 141.59,-96.53 148.25,-98.33 154.88,-100.08"/>
<polygon fill="#63b8ff" stroke="#63b8ff" points="153.9,-103.44 164.46,-102.57 155.67,-96.67 153.9,-103.44"/>
</a>
</g>
</g>
<!-- Node4 -->
<g id="Node000004" class="node">
<title>Node4</title>
<g id="a_Node000004"><a xlink:href="socket_2datagram_8h.html#a396e9e0c1c9943bbb0cb52fe73967630" target="_top" xlink:title=" ">
<polygon fill="white" stroke="#666666" points="271.62,-85.5 149.88,-85.5 149.88,-52 271.62,-52 271.62,-85.5"/>
<text text-anchor="start" x="157.88" y="-72" font-family="Helvetica,sans-Serif" font-size="10.00">vlcb_net_sock_dgram</text>
<text text-anchor="middle" x="210.75" y="-59.25" font-family="Helvetica,sans-Serif" font-size="10.00">_SendErrToStr</text>
</a>
</g>
</g>
<!-- Node1&#45;&gt;Node4 -->
<g id="edge3_Node000001_Node000004" class="edge">
<title>Node1&#45;&gt;Node4</title>
<g id="a_edge3_Node000001_Node000004"><a xlink:title=" ">
<path fill="none" stroke="#63b8ff" d="M99.67,-68.75C111.88,-68.75 125.24,-68.75 138.29,-68.75"/>
<polygon fill="#63b8ff" stroke="#63b8ff" points="138.14,-72.25 148.14,-68.75 138.14,-65.25 138.14,-72.25"/>
</a>
</g>
</g>
<!-- Node5 -->
<g id="Node000005" class="node">
<title>Node5</title>
<g id="a_Node000005"><a xlink:href="time_8h.html#ab82b0190a9360bc97f1249408977c866" target="_top" xlink:title=" ">
<polygon fill="white" stroke="#666666" points="266.38,-33.5 155.12,-33.5 155.12,0 266.38,0 266.38,-33.5"/>
<text text-anchor="start" x="163.12" y="-20" font-family="Helvetica,sans-Serif" font-size="10.00">vlcb_platform_time</text>
<text text-anchor="middle" x="210.75" y="-7.25" font-family="Helvetica,sans-Serif" font-size="10.00">_DiffInMs</text>
</a>
</g>
</g>
<!-- Node1&#45;&gt;Node5 -->
<g id="edge4_Node000001_Node000005" class="edge">
<title>Node1&#45;&gt;Node5</title>
<g id="a_edge4_Node000001_Node000005"><a xlink:title=" ">
<path fill="none" stroke="#63b8ff" d="M83.6,-57.98C101.74,-52.05 124.88,-44.49 146.37,-37.46"/>
<polygon fill="#63b8ff" stroke="#63b8ff" points="147.23,-40.86 155.65,-34.43 145.06,-34.21 147.23,-40.86"/>
</a>
</g>
</g>
<!-- Node3 -->
<g id="Node000003" class="node">
<title>Node3</title>
<g id="a_Node000003"><a xlink:href="packet__buf_8c.html#afa80d4fb078473100610ba106bd5cb46" target="_top" xlink:title=" ">
<polygon fill="white" stroke="#666666" points="461.25,-124.12 322.25,-124.12 322.25,-103.38 461.25,-103.38 461.25,-124.12"/>
<text text-anchor="middle" x="391.75" y="-110.62" font-family="Helvetica,sans-Serif" font-size="10.00">vlcb_net_packetbuf_Push</text>
</a>
</g>
</g>
<!-- Node2&#45;&gt;Node3 -->
<g id="edge2_Node000002_Node000003" class="edge">
<title>Node2&#45;&gt;Node3</title>
<g id="a_edge2_Node000002_Node000003"><a xlink:title=" ">
<path fill="none" stroke="#63b8ff" d="M286.62,-113.75C294.48,-113.75 302.48,-113.75 310.4,-113.75"/>
<polygon fill="#63b8ff" stroke="#63b8ff" points="310.37,-117.25 320.37,-113.75 310.37,-110.25 310.37,-117.25"/>
</a>
</g>
</g>
</g>
</svg>
