<?xml version="1.0" encoding="UTF-8" standalone="no"?>
<!DOCTYPE svg PUBLIC "-//W3C//DTD SVG 1.1//EN"
 "http://www.w3.org/Graphics/SVG/1.1/DTD/svg11.dtd">
<!-- Generated by graphviz version 12.1.2 (20240928.0832)
 -->
<!-- Title: module.h Pages: 1 -->
<svg width="1724pt" height="439pt"
 viewBox="0.00 0.00 1723.88 438.75" xmlns="http://www.w3.org/2000/svg" xmlns:xlink="http://www.w3.org/1999/xlink">
<g id="graph0" class="graph" transform="scale(1 1) rotate(0) translate(4 434.75)">
<title>module.h</title>
<!-- Node1 -->
<g id="Node000001" class="node">
<title>Node1</title>
<g id="a_Node000001"><a xlink:title=" ">
<polygon fill="#999999" stroke="#666666" points="243.88,-430.75 182.12,-430.75 182.12,-410 243.88,-410 243.88,-430.75"/>
<text text-anchor="middle" x="213" y="-417.25" font-family="Helvetica,sans-Serif" font-size="10.00">module.h</text>
</a>
</g>
</g>
<!-- Node2 -->
<g id="Node000002" class="node">
<title>Node2</title>
<g id="a_Node000002"><a xlink:href="module_2inc_2vlcb_2module_8h.html" target="_top" xlink:title=" ">
<polygon fill="white" stroke="#666666" points="255.5,-374 170.5,-374 170.5,-353.25 255.5,-353.25 255.5,-374"/>
<text text-anchor="middle" x="213" y="-360.5" font-family="Helvetica,sans-Serif" font-size="10.00">vlcb/module.h</text>
</a>
</g>
</g>
<!-- Node1&#45;&gt;Node2 -->
<g id="edge1_Node000001_Node000002" class="edge">
<title>Node1&#45;&gt;Node2</title>
<g id="a_edge1_Node000001_Node000002"><a xlink:title=" ">
<path fill="none" stroke="#63b8ff" d="M213,-409.59C213,-402.97 213,-393.97 213,-385.77"/>
<polygon fill="#63b8ff" stroke="#63b8ff" points="216.5,-385.84 213,-375.84 209.5,-385.84 216.5,-385.84"/>
</a>
</g>
</g>
<!-- Node3 -->
<g id="Node000003" class="node">
<title>Node3</title>
<g id="a_Node000003"><a xlink:href="node_8h.html" target="_top" xlink:title=" ">
<polygon fill="white" stroke="#666666" points="184,-134.25 66,-134.25 66,-113.5 184,-113.5 184,-134.25"/>
<text text-anchor="middle" x="125" y="-120.75" font-family="Helvetica,sans-Serif" font-size="10.00">vlcb/common/node.h</text>
</a>
</g>
</g>
<!-- Node2&#45;&gt;Node3 -->
<g id="edge2_Node000002_Node000003" class="edge">
<title>Node2&#45;&gt;Node3</title>
<g id="a_edge2_Node000002_Node000003"><a xlink:title=" ">
<path fill="none" stroke="#63b8ff" d="M200.48,-352.92C190.15,-344.41 175.68,-331.24 166,-317.25 134.74,-272.07 128.12,-257.56 117,-203.75 112.96,-184.2 116.07,-161.49 119.52,-145.47"/>
<polygon fill="#63b8ff" stroke="#63b8ff" points="122.82,-146.7 121.76,-136.16 116.01,-145.06 122.82,-146.7"/>
</a>
</g>
</g>
<!-- Node5 -->
<g id="Node000005" class="node">
<title>Node5</title>
<g id="a_Node000005"><a xlink:href="inc_2vlcb_2module_2param_8h.html" target="_top" xlink:title=" ">
<polygon fill="white" stroke="#666666" points="1370.75,-134.25 1251.25,-134.25 1251.25,-113.5 1370.75,-113.5 1370.75,-134.25"/>
<text text-anchor="middle" x="1311" y="-120.75" font-family="Helvetica,sans-Serif" font-size="10.00">vlcb/module/param.h</text>
</a>
</g>
</g>
<!-- Node2&#45;&gt;Node5 -->
<g id="edge4_Node000002_Node000005" class="edge">
<title>Node2&#45;&gt;Node5</title>
<g id="a_edge4_Node000002_Node000005"><a xlink:title=" ">
<path fill="none" stroke="#63b8ff" d="M255.65,-362.44C364.94,-361.42 663.67,-355.08 909,-317.25 1013.48,-301.14 1045.07,-307.03 1140,-260.5 1203.52,-229.37 1265.33,-171.52 1294.15,-142.47"/>
<polygon fill="#63b8ff" stroke="#63b8ff" points="1296.45,-145.12 1300.94,-135.53 1291.45,-140.23 1296.45,-145.12"/>
</a>
</g>
</g>
<!-- Node6 -->
<g id="Node000006" class="node">
<title>Node6</title>
<g id="a_Node000006"><a xlink:title=" ">
<polygon fill="#e0e0e0" stroke="#999999" points="1044.38,-20.75 991.62,-20.75 991.62,0 1044.38,0 1044.38,-20.75"/>
<text text-anchor="middle" x="1018" y="-7.25" font-family="Helvetica,sans-Serif" font-size="10.00">stdint.h</text>
</a>
</g>
</g>
<!-- Node2&#45;&gt;Node6 -->
<g id="edge65_Node000002_Node000006" class="edge">
<title>Node2&#45;&gt;Node6</title>
<g id="a_edge65_Node000002_Node000006"><a xlink:title=" ">
<path fill="none" stroke="#63b8ff" d="M170.15,-359.14C107.95,-351.47 0,-327.2 0,-251.12 0,-251.12 0,-251.12 0,-122.88 0,-49.61 79.71,-73.63 151,-56.75 312.03,-18.62 834.66,-12.52 980.12,-11.55"/>
<polygon fill="#63b8ff" stroke="#63b8ff" points="979.99,-15.05 989.97,-11.49 979.94,-8.05 979.99,-15.05"/>
</a>
</g>
</g>
<!-- Node11 -->
<g id="Node000011" class="node">
<title>Node11</title>
<g id="a_Node000011"><a xlink:href="state_8h.html" target="_top" xlink:title=" ">
<polygon fill="white" stroke="#666666" points="238.38,-197.38 125.62,-197.38 125.62,-176.62 238.38,-176.62 238.38,-197.38"/>
<text text-anchor="middle" x="182" y="-183.88" font-family="Helvetica,sans-Serif" font-size="10.00">vlcb/module/state.h</text>
</a>
</g>
</g>
<!-- Node2&#45;&gt;Node11 -->
<g id="edge14_Node000002_Node000011" class="edge">
<title>Node2&#45;&gt;Node11</title>
<g id="a_edge14_Node000002_Node000011"><a xlink:title=" ">
<path fill="none" stroke="#63b8ff" d="M205.32,-352.93C192.13,-335.6 165.66,-297.64 156,-260.5 151.18,-241.96 159.89,-221.47 168.5,-207.02"/>
<polygon fill="#63b8ff" stroke="#63b8ff" points="171.23,-209.24 173.74,-198.94 165.36,-205.43 171.23,-209.24"/>
</a>
</g>
</g>
<!-- Node13 -->
<g id="Node000013" class="node">
<title>Node13</title>
<g id="a_Node000013"><a xlink:href="ui_8h.html" target="_top" xlink:title=" ">
<polygon fill="white" stroke="#666666" points="261.5,-260.5 164.5,-260.5 164.5,-239.75 261.5,-239.75 261.5,-260.5"/>
<text text-anchor="middle" x="213" y="-247" font-family="Helvetica,sans-Serif" font-size="10.00">vlcb/module/ui.h</text>
</a>
</g>
</g>
<!-- Node2&#45;&gt;Node13 -->
<g id="edge19_Node000002_Node000013" class="edge">
<title>Node2&#45;&gt;Node13</title>
<g id="a_edge19_Node000002_Node000013"><a xlink:title=" ">
<path fill="none" stroke="#63b8ff" d="M213,-353.12C213,-335.35 213,-296.72 213,-272.43"/>
<polygon fill="#63b8ff" stroke="#63b8ff" points="216.5,-272.44 213,-262.44 209.5,-272.44 216.5,-272.44"/>
</a>
</g>
</g>
<!-- Node16 -->
<g id="Node000016" class="node">
<title>Node16</title>
<g id="a_Node000016"><a xlink:href="iface_8h.html" target="_top" xlink:title=" ">
<polygon fill="white" stroke="#666666" points="435.5,-317.25 344.5,-317.25 344.5,-296.5 435.5,-296.5 435.5,-317.25"/>
<text text-anchor="middle" x="390" y="-303.75" font-family="Helvetica,sans-Serif" font-size="10.00">vlcb/net/iface.h</text>
</a>
</g>
</g>
<!-- Node2&#45;&gt;Node16 -->
<g id="edge23_Node000002_Node000016" class="edge">
<title>Node2&#45;&gt;Node16</title>
<g id="a_edge23_Node000002_Node000016"><a xlink:title=" ">
<path fill="none" stroke="#63b8ff" d="M244.64,-352.84C273.37,-343.95 315.97,-330.77 347.63,-320.98"/>
<polygon fill="#63b8ff" stroke="#63b8ff" points="348.37,-324.42 356.89,-318.12 346.3,-317.73 348.37,-324.42"/>
</a>
</g>
</g>
<!-- Node27 -->
<g id="Node000027" class="node">
<title>Node27</title>
<g id="a_Node000027"><a xlink:href="socket_2datagram_8h.html" target="_top" xlink:title=" ">
<polygon fill="white" stroke="#666666" points="900.38,-317.25 751.62,-317.25 751.62,-296.5 900.38,-296.5 900.38,-317.25"/>
<text text-anchor="middle" x="826" y="-303.75" font-family="Helvetica,sans-Serif" font-size="10.00">vlcb/net/socket/datagram.h</text>
</a>
</g>
</g>
<!-- Node2&#45;&gt;Node27 -->
<g id="edge55_Node000002_Node000027" class="edge">
<title>Node2&#45;&gt;Node27</title>
<g id="a_edge55_Node000002_Node000027"><a xlink:title=" ">
<path fill="none" stroke="#63b8ff" d="M255.62,-358.82C355.61,-349.89 606.85,-327.45 740.02,-315.55"/>
<polygon fill="#63b8ff" stroke="#63b8ff" points="740.21,-319.05 749.85,-314.68 739.58,-312.08 740.21,-319.05"/>
</a>
</g>
</g>
<!-- Node4 -->
<g id="Node000004" class="node">
<title>Node4</title>
<g id="a_Node000004"><a xlink:title=" ">
<polygon fill="#e0e0e0" stroke="#999999" points="570.38,-77.5 505.62,-77.5 505.62,-56.75 570.38,-56.75 570.38,-77.5"/>
<text text-anchor="middle" x="538" y="-64" font-family="Helvetica,sans-Serif" font-size="10.00">inttypes.h</text>
</a>
</g>
</g>
<!-- Node3&#45;&gt;Node4 -->
<g id="edge3_Node000003_Node000004" class="edge">
<title>Node3&#45;&gt;Node4</title>
<g id="a_edge3_Node000003_Node000004"><a xlink:title=" ">
<path fill="none" stroke="#63b8ff" d="M184.34,-114.67C187.26,-114.27 190.17,-113.88 193,-113.5 301.16,-98.93 428.47,-82.33 494.04,-73.82"/>
<polygon fill="#63b8ff" stroke="#63b8ff" points="494.2,-77.33 503.67,-72.57 493.3,-70.38 494.2,-77.33"/>
</a>
</g>
</g>
<!-- Node5&#45;&gt;Node6 -->
<g id="edge5_Node000005_Node000006" class="edge">
<title>Node5&#45;&gt;Node6</title>
<g id="a_edge5_Node000005_Node000006"><a xlink:title=" ">
<path fill="none" stroke="#63b8ff" d="M1302.49,-113.06C1289.2,-98.39 1262.01,-70.97 1233,-56.75 1175.42,-28.54 1100.76,-17.81 1056.28,-13.77"/>
<polygon fill="#63b8ff" stroke="#63b8ff" points="1056.6,-10.29 1046.35,-12.95 1056.02,-17.26 1056.6,-10.29"/>
</a>
</g>
</g>
<!-- Node7 -->
<g id="Node000007" class="node">
<title>Node7</title>
<g id="a_Node000007"><a xlink:href="manufacturer_8h.html" target="_top" xlink:title=" ">
<polygon fill="white" stroke="#666666" points="1439.62,-77.5 1280.38,-77.5 1280.38,-56.75 1439.62,-56.75 1439.62,-77.5"/>
<text text-anchor="middle" x="1360" y="-64" font-family="Helvetica,sans-Serif" font-size="10.00">vlcb/common/manufacturer.h</text>
</a>
</g>
</g>
<!-- Node5&#45;&gt;Node7 -->
<g id="edge6_Node000005_Node000007" class="edge">
<title>Node5&#45;&gt;Node7</title>
<g id="a_edge6_Node000005_Node000007"><a xlink:title=" ">
<path fill="none" stroke="#63b8ff" d="M1319.76,-113.09C1326.45,-105.61 1335.85,-95.11 1343.89,-86.13"/>
<polygon fill="#63b8ff" stroke="#63b8ff" points="1346.25,-88.74 1350.31,-78.96 1341.03,-84.07 1346.25,-88.74"/>
</a>
</g>
</g>
<!-- Node8 -->
<g id="Node000008" class="node">
<title>Node8</title>
<g id="a_Node000008"><a xlink:href="common_2inc_2vlcb_2common_2module_8h.html" target="_top" xlink:title=" ">
<polygon fill="white" stroke="#666666" points="1588.38,-77.5 1457.62,-77.5 1457.62,-56.75 1588.38,-56.75 1588.38,-77.5"/>
<text text-anchor="middle" x="1523" y="-64" font-family="Helvetica,sans-Serif" font-size="10.00">vlcb/common/module.h</text>
</a>
</g>
</g>
<!-- Node5&#45;&gt;Node8 -->
<g id="edge8_Node000005_Node000008" class="edge">
<title>Node5&#45;&gt;Node8</title>
<g id="a_edge8_Node000005_Node000008"><a xlink:title=" ">
<path fill="none" stroke="#63b8ff" d="M1348.9,-113.09C1383.91,-104.04 1436.12,-90.56 1474.23,-80.72"/>
<polygon fill="#63b8ff" stroke="#63b8ff" points="1474.8,-84.19 1483.6,-78.3 1473.05,-77.41 1474.8,-84.19"/>
</a>
</g>
</g>
<!-- Node9 -->
<g id="Node000009" class="node">
<title>Node9</title>
<g id="a_Node000009"><a xlink:href="common_2inc_2vlcb_2common_2net_8h.html" target="_top" xlink:title=" ">
<polygon fill="white" stroke="#666666" points="1715.88,-77.5 1606.12,-77.5 1606.12,-56.75 1715.88,-56.75 1715.88,-77.5"/>
<text text-anchor="middle" x="1661" y="-64" font-family="Helvetica,sans-Serif" font-size="10.00">vlcb/common/net.h</text>
</a>
</g>
</g>
<!-- Node5&#45;&gt;Node9 -->
<g id="edge10_Node000005_Node000009" class="edge">
<title>Node5&#45;&gt;Node9</title>
<g id="a_edge10_Node000005_Node000009"><a xlink:title=" ">
<path fill="none" stroke="#63b8ff" d="M1371.17,-113.46C1433.3,-103.74 1530.02,-88.61 1594.42,-78.54"/>
<polygon fill="#63b8ff" stroke="#63b8ff" points="1594.82,-82.02 1604.16,-77.02 1593.74,-75.1 1594.82,-82.02"/>
</a>
</g>
</g>
<!-- Node10 -->
<g id="Node000010" class="node">
<title>Node10</title>
<g id="a_Node000010"><a xlink:href="processor_8h.html" target="_top" xlink:title=" ">
<polygon fill="white" stroke="#666666" points="1224.25,-77.5 1083.75,-77.5 1083.75,-56.75 1224.25,-56.75 1224.25,-77.5"/>
<text text-anchor="middle" x="1154" y="-64" font-family="Helvetica,sans-Serif" font-size="10.00">vlcb/common/processor.h</text>
</a>
</g>
</g>
<!-- Node5&#45;&gt;Node10 -->
<g id="edge12_Node000005_Node000010" class="edge">
<title>Node5&#45;&gt;Node10</title>
<g id="a_edge12_Node000005_Node000010"><a xlink:title=" ">
<path fill="none" stroke="#63b8ff" d="M1282.93,-113.09C1257.78,-104.32 1220.65,-91.37 1192.69,-81.62"/>
<polygon fill="#63b8ff" stroke="#63b8ff" points="1194.11,-78.41 1183.52,-78.42 1191.81,-85.02 1194.11,-78.41"/>
</a>
</g>
</g>
<!-- Node7&#45;&gt;Node6 -->
<g id="edge7_Node000007_Node000006" class="edge">
<title>Node7&#45;&gt;Node6</title>
<g id="a_edge7_Node000007_Node000006"><a xlink:title=" ">
<path fill="none" stroke="#63b8ff" d="M1298.46,-56.27C1227.93,-44.98 1114.55,-26.83 1055.89,-17.44"/>
<polygon fill="#63b8ff" stroke="#63b8ff" points="1056.5,-13.99 1046.07,-15.87 1055.39,-20.91 1056.5,-13.99"/>
</a>
</g>
</g>
<!-- Node8&#45;&gt;Node6 -->
<g id="edge9_Node000008_Node000006" class="edge">
<title>Node8&#45;&gt;Node6</title>
<g id="a_edge9_Node000008_Node000006"><a xlink:title=" ">
<path fill="none" stroke="#63b8ff" d="M1457.24,-57.72C1454.46,-57.39 1451.7,-57.06 1449,-56.75 1303.92,-39.92 1131.05,-22.53 1055.95,-15.1"/>
<polygon fill="#63b8ff" stroke="#63b8ff" points="1056.56,-11.64 1046.26,-14.14 1055.87,-18.61 1056.56,-11.64"/>
</a>
</g>
</g>
<!-- Node9&#45;&gt;Node6 -->
<g id="edge11_Node000009_Node000006" class="edge">
<title>Node9&#45;&gt;Node6</title>
<g id="a_edge11_Node000009_Node000006"><a xlink:title=" ">
<path fill="none" stroke="#63b8ff" d="M1605.87,-57.81C1602.87,-57.43 1599.9,-57.08 1597,-56.75 1393.5,-33.9 1148.47,-18.75 1055.89,-13.46"/>
<polygon fill="#63b8ff" stroke="#63b8ff" points="1056.3,-9.98 1046.12,-12.91 1055.91,-16.97 1056.3,-9.98"/>
</a>
</g>
</g>
<!-- Node10&#45;&gt;Node6 -->
<g id="edge13_Node000010_Node000006" class="edge">
<title>Node10&#45;&gt;Node6</title>
<g id="a_edge13_Node000010_Node000006"><a xlink:title=" ">
<path fill="none" stroke="#63b8ff" d="M1129.69,-56.34C1108.22,-47.69 1076.68,-35 1052.59,-25.3"/>
<polygon fill="#63b8ff" stroke="#63b8ff" points="1054.09,-22.13 1043.51,-21.64 1051.48,-28.63 1054.09,-22.13"/>
</a>
</g>
</g>
<!-- Node11&#45;&gt;Node3 -->
<g id="edge15_Node000011_Node000003" class="edge">
<title>Node11&#45;&gt;Node3</title>
<g id="a_edge15_Node000011_Node000003"><a xlink:title=" ">
<path fill="none" stroke="#63b8ff" d="M172.84,-176.18C164.48,-167.22 151.92,-153.74 141.77,-142.85"/>
<polygon fill="#63b8ff" stroke="#63b8ff" points="144.36,-140.5 134.98,-135.58 139.24,-145.28 144.36,-140.5"/>
</a>
</g>
</g>
<!-- Node11&#45;&gt;Node6 -->
<g id="edge16_Node000011_Node000006" class="edge">
<title>Node11&#45;&gt;Node6</title>
<g id="a_edge16_Node000011_Node000006"><a xlink:title=" ">
<path fill="none" stroke="#63b8ff" d="M131.17,-176.19C86.59,-165.27 32.42,-144.92 57,-113.5 114.93,-39.46 807.99,-16.79 979.7,-12.29"/>
<polygon fill="#63b8ff" stroke="#63b8ff" points="979.73,-15.79 989.63,-12.03 979.55,-8.79 979.73,-15.79"/>
</a>
</g>
</g>
<!-- Node12 -->
<g id="Node000012" class="node">
<title>Node12</title>
<g id="a_Node000012"><a xlink:href="time_8h.html" target="_top" xlink:title=" ">
<polygon fill="white" stroke="#666666" points="249.75,-134.25 202.25,-134.25 202.25,-113.5 249.75,-113.5 249.75,-134.25"/>
<text text-anchor="middle" x="226" y="-120.75" font-family="Helvetica,sans-Serif" font-size="10.00">time.h</text>
</a>
</g>
</g>
<!-- Node11&#45;&gt;Node12 -->
<g id="edge17_Node000011_Node000012" class="edge">
<title>Node11&#45;&gt;Node12</title>
<g id="a_edge17_Node000011_Node000012"><a xlink:title=" ">
<path fill="none" stroke="#63b8ff" d="M189.07,-176.18C195.39,-167.39 204.83,-154.28 212.59,-143.51"/>
<polygon fill="#63b8ff" stroke="#63b8ff" points="215.21,-145.86 218.21,-135.7 209.53,-141.77 215.21,-145.86"/>
</a>
</g>
</g>
<!-- Node12&#45;&gt;Node6 -->
<g id="edge18_Node000012_Node000006" class="edge">
<title>Node12&#45;&gt;Node6</title>
<g id="a_edge18_Node000012_Node000006"><a xlink:title=" ">
<path fill="none" stroke="#63b8ff" d="M237.68,-113.03C256.52,-97.8 295.45,-69.01 334,-56.75 455.82,-18.02 854.84,-12.34 980.05,-11.51"/>
<polygon fill="#63b8ff" stroke="#63b8ff" points="979.81,-15.01 989.79,-11.46 979.77,-8.01 979.81,-15.01"/>
</a>
</g>
</g>
<!-- Node13&#45;&gt;Node11 -->
<g id="edge20_Node000013_Node000011" class="edge">
<title>Node13&#45;&gt;Node11</title>
<g id="a_edge20_Node000013_Node000011"><a xlink:title=" ">
<path fill="none" stroke="#63b8ff" d="M208.02,-239.3C203.7,-230.79 197.32,-218.2 191.96,-207.63"/>
<polygon fill="#63b8ff" stroke="#63b8ff" points="195.2,-206.28 187.55,-198.94 188.95,-209.45 195.2,-206.28"/>
</a>
</g>
</g>
<!-- Node14 -->
<g id="Node000014" class="node">
<title>Node14</title>
<g id="a_Node000014"><a xlink:href="interface_8h.html" target="_top" xlink:title=" ">
<polygon fill="white" stroke="#666666" points="798.38,-197.38 661.62,-197.38 661.62,-176.62 798.38,-176.62 798.38,-197.38"/>
<text text-anchor="middle" x="730" y="-183.88" font-family="Helvetica,sans-Serif" font-size="10.00">vlcb/platform/interface.h</text>
</a>
</g>
</g>
<!-- Node13&#45;&gt;Node14 -->
<g id="edge21_Node000013_Node000014" class="edge">
<title>Node13&#45;&gt;Node14</title>
<g id="a_edge21_Node000013_Node000014"><a xlink:title=" ">
<path fill="none" stroke="#63b8ff" d="M261.93,-243.98C337.66,-235.93 487.81,-219.64 615,-203.75 626.37,-202.33 638.35,-200.77 650.12,-199.19"/>
<polygon fill="#63b8ff" stroke="#63b8ff" points="650.38,-202.69 659.82,-197.88 649.44,-195.75 650.38,-202.69"/>
</a>
</g>
</g>
<!-- Node15 -->
<g id="Node000015" class="node">
<title>Node15</title>
<g id="a_Node000015"><a xlink:title=" ">
<polygon fill="#e0e0e0" stroke="#999999" points="817.5,-134.25 762.5,-134.25 762.5,-113.5 817.5,-113.5 817.5,-134.25"/>
<text text-anchor="middle" x="790" y="-120.75" font-family="Helvetica,sans-Serif" font-size="10.00">stddef.h</text>
</a>
</g>
</g>
<!-- Node14&#45;&gt;Node15 -->
<g id="edge22_Node000014_Node000015" class="edge">
<title>Node14&#45;&gt;Node15</title>
<g id="a_edge22_Node000014_Node000015"><a xlink:title=" ">
<path fill="none" stroke="#63b8ff" d="M739.64,-176.18C748.53,-167.13 761.93,-153.47 772.67,-142.53"/>
<polygon fill="#63b8ff" stroke="#63b8ff" points="775.01,-145.14 779.52,-135.55 770.02,-140.23 775.01,-145.14"/>
</a>
</g>
</g>
<!-- Node17 -->
<g id="Node000017" class="node">
<title>Node17</title>
<g id="a_Node000017"><a xlink:title=" ">
<polygon fill="#e0e0e0" stroke="#999999" points="403.5,-77.5 342.5,-77.5 342.5,-56.75 403.5,-56.75 403.5,-77.5"/>
<text text-anchor="middle" x="373" y="-64" font-family="Helvetica,sans-Serif" font-size="10.00">stdbool.h</text>
</a>
</g>
</g>
<!-- Node16&#45;&gt;Node17 -->
<g id="edge24_Node000016_Node000017" class="edge">
<title>Node16&#45;&gt;Node17</title>
<g id="a_edge24_Node000016_Node000017"><a xlink:title=" ">
<path fill="none" stroke="#63b8ff" d="M380.47,-296.23C364.47,-279.26 332.78,-242.22 321,-203.75 309.21,-165.25 311.3,-149.67 329,-113.5 334.24,-102.79 342.96,-92.99 351.27,-85.27"/>
<polygon fill="#63b8ff" stroke="#63b8ff" points="353.52,-87.94 358.78,-78.74 348.94,-82.65 353.52,-87.94"/>
</a>
</g>
</g>
<!-- Node18 -->
<g id="Node000018" class="node">
<title>Node18</title>
<g id="a_Node000018"><a xlink:href="adapter_8h.html" target="_top" xlink:title=" ">
<polygon fill="white" stroke="#666666" points="520.88,-260.5 459.12,-260.5 459.12,-239.75 520.88,-239.75 520.88,-260.5"/>
<text text-anchor="middle" x="490" y="-247" font-family="Helvetica,sans-Serif" font-size="10.00">adapter.h</text>
</a>
</g>
</g>
<!-- Node16&#45;&gt;Node18 -->
<g id="edge25_Node000016_Node000018" class="edge">
<title>Node16&#45;&gt;Node18</title>
<g id="a_edge25_Node000016_Node000018"><a xlink:title=" ">
<path fill="none" stroke="#63b8ff" d="M407.88,-296.09C423.09,-287.76 445.19,-275.66 462.63,-266.11"/>
<polygon fill="#63b8ff" stroke="#63b8ff" points="463.86,-269.43 470.95,-261.56 460.5,-263.29 463.86,-269.43"/>
</a>
</g>
</g>
<!-- Node24 -->
<g id="Node000024" class="node">
<title>Node24</title>
<g id="a_Node000024"><a xlink:href="socket_8h.html" target="_top" xlink:title=" ">
<polygon fill="white" stroke="#666666" points="854.25,-260.5 797.75,-260.5 797.75,-239.75 854.25,-239.75 854.25,-260.5"/>
<text text-anchor="middle" x="826" y="-247" font-family="Helvetica,sans-Serif" font-size="10.00">socket.h</text>
</a>
</g>
</g>
<!-- Node16&#45;&gt;Node24 -->
<g id="edge42_Node000016_Node000024" class="edge">
<title>Node16&#45;&gt;Node24</title>
<g id="a_edge42_Node000016_Node000024"><a xlink:title=" ">
<path fill="none" stroke="#63b8ff" d="M435.84,-300.12C521.6,-289.35 704.98,-266.32 786.05,-256.14"/>
<polygon fill="#63b8ff" stroke="#63b8ff" points="786.48,-259.61 795.97,-254.9 785.61,-252.67 786.48,-259.61"/>
</a>
</g>
</g>
<!-- Node18&#45;&gt;Node4 -->
<g id="edge26_Node000018_Node000004" class="edge">
<title>Node18&#45;&gt;Node4</title>
<g id="a_edge26_Node000018_Node000004"><a xlink:title=" ">
<path fill="none" stroke="#63b8ff" d="M490.82,-239.37C492.43,-223.92 497,-193.22 509,-170.25 518.91,-151.28 533.39,-154.26 541,-134.25 546.5,-119.78 545.38,-102.22 543.08,-88.83"/>
<polygon fill="#63b8ff" stroke="#63b8ff" points="546.59,-88.48 541.11,-79.4 539.73,-89.91 546.59,-88.48"/>
</a>
</g>
</g>
<!-- Node18&#45;&gt;Node14 -->
<g id="edge29_Node000018_Node000014" class="edge">
<title>Node18&#45;&gt;Node14</title>
<g id="a_edge29_Node000018_Node000014"><a xlink:title=" ">
<path fill="none" stroke="#63b8ff" d="M520.88,-241.26C561.2,-230.99 632.27,-212.89 680.24,-200.67"/>
<polygon fill="#63b8ff" stroke="#63b8ff" points="681,-204.09 689.83,-198.23 679.28,-197.31 681,-204.09"/>
</a>
</g>
</g>
<!-- Node18&#45;&gt;Node17 -->
<g id="edge27_Node000018_Node000017" class="edge">
<title>Node18&#45;&gt;Node17</title>
<g id="a_edge27_Node000018_Node000017"><a xlink:title=" ">
<path fill="none" stroke="#63b8ff" d="M458.73,-244.44C417.89,-237.62 349.84,-223.55 335,-203.75 308.36,-168.19 338.67,-114.79 358.52,-86.79"/>
<polygon fill="#63b8ff" stroke="#63b8ff" points="361.21,-89.04 364.33,-78.92 355.58,-84.88 361.21,-89.04"/>
</a>
</g>
</g>
<!-- Node19 -->
<g id="Node000019" class="node">
<title>Node19</title>
<g id="a_Node000019"><a xlink:href="error_8h.html" target="_top" xlink:title=" ">
<polygon fill="white" stroke="#666666" points="829.88,-77.5 714.12,-77.5 714.12,-56.75 829.88,-56.75 829.88,-77.5"/>
<text text-anchor="middle" x="772" y="-64" font-family="Helvetica,sans-Serif" font-size="10.00">vlcb/platform/error.h</text>
</a>
</g>
</g>
<!-- Node18&#45;&gt;Node19 -->
<g id="edge28_Node000018_Node000019" class="edge">
<title>Node18&#45;&gt;Node19</title>
<g id="a_edge28_Node000018_Node000019"><a xlink:title=" ">
<path fill="none" stroke="#63b8ff" d="M521.23,-241.32C547.42,-233.96 585.22,-221.42 615,-203.75 634.36,-192.26 634.73,-183.41 653,-170.25 678.85,-151.62 690.48,-154.6 715,-134.25 731.89,-120.23 747.92,-100.91 758.65,-86.77"/>
<polygon fill="#63b8ff" stroke="#63b8ff" points="761.44,-88.88 764.56,-78.76 755.81,-84.72 761.44,-88.88"/>
</a>
</g>
</g>
<!-- Node20 -->
<g id="Node000020" class="node">
<title>Node20</title>
<g id="a_Node000020"><a xlink:href="packet_8h.html" target="_top" xlink:title=" ">
<polygon fill="white" stroke="#666666" points="462,-197.38 344,-197.38 344,-176.62 462,-176.62 462,-197.38"/>
<text text-anchor="middle" x="403" y="-183.88" font-family="Helvetica,sans-Serif" font-size="10.00">adapter/can/packet.h</text>
</a>
</g>
</g>
<!-- Node18&#45;&gt;Node20 -->
<g id="edge30_Node000018_Node000020" class="edge">
<title>Node18&#45;&gt;Node20</title>
<g id="a_edge30_Node000018_Node000020"><a xlink:title=" ">
<path fill="none" stroke="#63b8ff" d="M476.02,-239.3C462.58,-229.86 442.01,-215.41 426.12,-204.25"/>
<polygon fill="#63b8ff" stroke="#63b8ff" points="428.38,-201.55 418.18,-198.67 424.35,-207.28 428.38,-201.55"/>
</a>
</g>
</g>
<!-- Node23 -->
<g id="Node000023" class="node">
<title>Node23</title>
<g id="a_Node000023"><a xlink:href="addr_8h.html" target="_top" xlink:title=" ">
<polygon fill="white" stroke="#666666" points="606,-197.38 518,-197.38 518,-176.62 606,-176.62 606,-197.38"/>
<text text-anchor="middle" x="562" y="-183.88" font-family="Helvetica,sans-Serif" font-size="10.00">vlcb/net/addr.h</text>
</a>
</g>
</g>
<!-- Node18&#45;&gt;Node23 -->
<g id="edge38_Node000018_Node000023" class="edge">
<title>Node18&#45;&gt;Node23</title>
<g id="a_edge38_Node000018_Node000023"><a xlink:title=" ">
<path fill="none" stroke="#63b8ff" d="M501.57,-239.3C512.44,-230.07 528.95,-216.06 541.97,-205.01"/>
<polygon fill="#63b8ff" stroke="#63b8ff" points="544.19,-207.71 549.54,-198.57 539.66,-202.38 544.19,-207.71"/>
</a>
</g>
</g>
<!-- Node20&#45;&gt;Node17 -->
<g id="edge31_Node000020_Node000017" class="edge">
<title>Node20&#45;&gt;Node17</title>
<g id="a_edge31_Node000020_Node000017"><a xlink:title=" ">
<path fill="none" stroke="#63b8ff" d="M396.84,-176.13C390.88,-166.03 382.15,-149.67 378,-134.25 374.01,-119.42 372.82,-102.1 372.6,-88.9"/>
<polygon fill="#63b8ff" stroke="#63b8ff" points="376.1,-89.25 372.62,-79.24 369.1,-89.24 376.1,-89.25"/>
</a>
</g>
</g>
<!-- Node21 -->
<g id="Node000021" class="node">
<title>Node21</title>
<g id="a_Node000021"><a xlink:href="common_2inc_2vlcb_2common_2can_8h.html" target="_top" xlink:title=" ">
<polygon fill="white" stroke="#666666" points="531.62,-134.25 420.38,-134.25 420.38,-113.5 531.62,-113.5 531.62,-134.25"/>
<text text-anchor="middle" x="476" y="-120.75" font-family="Helvetica,sans-Serif" font-size="10.00">vlcb/common/can.h</text>
</a>
</g>
</g>
<!-- Node20&#45;&gt;Node21 -->
<g id="edge32_Node000020_Node000021" class="edge">
<title>Node20&#45;&gt;Node21</title>
<g id="a_edge32_Node000020_Node000021"><a xlink:title=" ">
<path fill="none" stroke="#63b8ff" d="M414.73,-176.18C425.86,-166.86 442.82,-152.66 456.07,-141.56"/>
<polygon fill="#63b8ff" stroke="#63b8ff" points="457.96,-144.55 463.38,-135.44 453.47,-139.18 457.96,-144.55"/>
</a>
</g>
</g>
<!-- Node21&#45;&gt;Node4 -->
<g id="edge33_Node000021_Node000004" class="edge">
<title>Node21&#45;&gt;Node4</title>
<g id="a_edge33_Node000021_Node000004"><a xlink:title=" ">
<path fill="none" stroke="#63b8ff" d="M487.08,-113.09C495.81,-105.38 508.19,-94.45 518.56,-85.29"/>
<polygon fill="#63b8ff" stroke="#63b8ff" points="520.7,-88.07 525.88,-78.83 516.06,-82.83 520.7,-88.07"/>
</a>
</g>
</g>
<!-- Node21&#45;&gt;Node6 -->
<g id="edge35_Node000021_Node000006" class="edge">
<title>Node21&#45;&gt;Node6</title>
<g id="a_edge35_Node000021_Node000006"><a xlink:title=" ">
<path fill="none" stroke="#63b8ff" d="M475.94,-113.41C476.42,-98.7 479.7,-70.6 497,-56.75 534.52,-26.71 866.45,-15.32 980.06,-12.28"/>
<polygon fill="#63b8ff" stroke="#63b8ff" points="979.86,-15.79 989.76,-12.03 979.67,-8.79 979.86,-15.79"/>
</a>
</g>
</g>
<!-- Node21&#45;&gt;Node17 -->
<g id="edge34_Node000021_Node000017" class="edge">
<title>Node21&#45;&gt;Node17</title>
<g id="a_edge34_Node000021_Node000017"><a xlink:title=" ">
<path fill="none" stroke="#63b8ff" d="M457.59,-113.09C441.91,-104.76 419.15,-92.66 401.19,-83.11"/>
<polygon fill="#63b8ff" stroke="#63b8ff" points="403.06,-80.14 392.59,-78.54 399.78,-86.32 403.06,-80.14"/>
</a>
</g>
</g>
<!-- Node22 -->
<g id="Node000022" class="node">
<title>Node22</title>
<g id="a_Node000022"><a xlink:href="opcode_8h.html" target="_top" xlink:title=" ">
<polygon fill="white" stroke="#666666" points="696.12,-77.5 635.88,-77.5 635.88,-56.75 696.12,-56.75 696.12,-77.5"/>
<text text-anchor="middle" x="666" y="-64" font-family="Helvetica,sans-Serif" font-size="10.00">opcode.h</text>
</a>
</g>
</g>
<!-- Node21&#45;&gt;Node22 -->
<g id="edge36_Node000021_Node000022" class="edge">
<title>Node21&#45;&gt;Node22</title>
<g id="a_edge36_Node000021_Node000022"><a xlink:title=" ">
<path fill="none" stroke="#63b8ff" d="M509.97,-113.09C542.14,-103.82 590.5,-89.88 624.84,-79.98"/>
<polygon fill="#63b8ff" stroke="#63b8ff" points="625.37,-83.48 634.01,-77.34 623.43,-76.75 625.37,-83.48"/>
</a>
</g>
</g>
<!-- Node22&#45;&gt;Node6 -->
<g id="edge37_Node000022_Node000006" class="edge">
<title>Node22&#45;&gt;Node6</title>
<g id="a_edge37_Node000022_Node000006"><a xlink:title=" ">
<path fill="none" stroke="#63b8ff" d="M696.6,-58.49C699.43,-57.87 702.26,-57.28 705,-56.75 803.62,-37.79 921.09,-22.76 980.13,-15.72"/>
<polygon fill="#63b8ff" stroke="#63b8ff" points="980.46,-19.21 989.98,-14.56 979.64,-12.26 980.46,-19.21"/>
</a>
</g>
</g>
<!-- Node23&#45;&gt;Node6 -->
<g id="edge41_Node000023_Node000006" class="edge">
<title>Node23&#45;&gt;Node6</title>
<g id="a_edge41_Node000023_Node000006"><a xlink:title=" ">
<path fill="none" stroke="#63b8ff" d="M563.69,-176.17C568.51,-151.39 584.8,-86.25 627,-56.75 683.36,-17.34 892.81,-11.85 979.77,-11.31"/>
<polygon fill="#63b8ff" stroke="#63b8ff" points="979.7,-14.81 989.69,-11.27 979.67,-7.81 979.7,-14.81"/>
</a>
</g>
</g>
<!-- Node23&#45;&gt;Node12 -->
<g id="edge40_Node000023_Node000012" class="edge">
<title>Node23&#45;&gt;Node12</title>
<g id="a_edge40_Node000023_Node000012"><a xlink:title=" ">
<path fill="none" stroke="#63b8ff" d="M517.73,-177.95C450.09,-165.64 322.43,-142.42 260.89,-131.22"/>
<polygon fill="#63b8ff" stroke="#63b8ff" points="261.81,-127.83 251.34,-129.49 260.56,-134.72 261.81,-127.83"/>
</a>
</g>
</g>
<!-- Node23&#45;&gt;Node21 -->
<g id="edge39_Node000023_Node000021" class="edge">
<title>Node23&#45;&gt;Node21</title>
<g id="a_edge39_Node000023_Node000021"><a xlink:title=" ">
<path fill="none" stroke="#63b8ff" d="M548.18,-176.18C534.89,-166.73 514.56,-152.28 498.86,-141.12"/>
<polygon fill="#63b8ff" stroke="#63b8ff" points="501.2,-138.49 491.02,-135.55 497.14,-144.19 501.2,-138.49"/>
</a>
</g>
</g>
<!-- Node24&#45;&gt;Node14 -->
<g id="edge54_Node000024_Node000014" class="edge">
<title>Node24&#45;&gt;Node14</title>
<g id="a_edge54_Node000024_Node000014"><a xlink:title=" ">
<path fill="none" stroke="#63b8ff" d="M810.58,-239.3C795.6,-229.77 772.61,-215.13 755.02,-203.93"/>
<polygon fill="#63b8ff" stroke="#63b8ff" points="756.98,-201.03 746.66,-198.61 753.22,-206.93 756.98,-201.03"/>
</a>
</g>
</g>
<!-- Node24&#45;&gt;Node15 -->
<g id="edge44_Node000024_Node000015" class="edge">
<title>Node24&#45;&gt;Node15</title>
<g id="a_edge44_Node000024_Node000015"><a xlink:title=" ">
<path fill="none" stroke="#63b8ff" d="M843.56,-239.36C855.73,-231.51 870.96,-219.24 878,-203.75 884.16,-190.2 885.75,-182.96 878,-170.25 867.21,-152.54 847.04,-141.45 828.74,-134.66"/>
<polygon fill="#63b8ff" stroke="#63b8ff" points="830,-131.4 819.41,-131.55 827.78,-138.04 830,-131.4"/>
</a>
</g>
</g>
<!-- Node24&#45;&gt;Node17 -->
<g id="edge43_Node000024_Node000017" class="edge">
<title>Node24&#45;&gt;Node17</title>
<g id="a_edge43_Node000024_Node000017"><a xlink:title=" ">
<path fill="none" stroke="#63b8ff" d="M826.92,-239.32C827.9,-222.35 827.14,-187.65 807,-170.25 740.14,-112.48 485.4,-181.93 411,-134.25 394.74,-123.83 384.68,-103.83 379.02,-88.54"/>
<polygon fill="#63b8ff" stroke="#63b8ff" points="382.48,-87.83 376.01,-79.44 375.83,-90.03 382.48,-87.83"/>
</a>
</g>
</g>
<!-- Node24&#45;&gt;Node23 -->
<g id="edge49_Node000024_Node000023" class="edge">
<title>Node24&#45;&gt;Node23</title>
<g id="a_edge49_Node000024_Node000023"><a xlink:title=" ">
<path fill="none" stroke="#63b8ff" d="M797.5,-242.53C753.96,-232.45 670.18,-213.05 615.19,-200.32"/>
<polygon fill="#63b8ff" stroke="#63b8ff" points="616.27,-196.97 605.73,-198.13 614.69,-203.79 616.27,-196.97"/>
</a>
</g>
</g>
<!-- Node25 -->
<g id="Node000025" class="node">
<title>Node25</title>
<g id="a_Node000025"><a xlink:href="vlcb_8h.html" target="_top" xlink:title=" ">
<polygon fill="white" stroke="#666666" points="706.25,-134.25 625.75,-134.25 625.75,-113.5 706.25,-113.5 706.25,-134.25"/>
<text text-anchor="middle" x="666" y="-120.75" font-family="Helvetica,sans-Serif" font-size="10.00">packet/vlcb.h</text>
</a>
</g>
</g>
<!-- Node24&#45;&gt;Node25 -->
<g id="edge45_Node000024_Node000025" class="edge">
<title>Node24&#45;&gt;Node25</title>
<g id="a_edge45_Node000024_Node000025"><a xlink:title=" ">
<path fill="none" stroke="#63b8ff" d="M831.97,-239.51C841.1,-223.43 855.9,-190.83 840,-170.25 825.09,-150.95 763.55,-138.31 717.87,-131.38"/>
<polygon fill="#63b8ff" stroke="#63b8ff" points="718.53,-127.94 708.13,-129.96 717.52,-134.87 718.53,-127.94"/>
</a>
</g>
</g>
<!-- Node26 -->
<g id="Node000026" class="node">
<title>Node26</title>
<g id="a_Node000026"><a xlink:href="packet__buf_8h.html" target="_top" xlink:title=" ">
<polygon fill="white" stroke="#666666" points="1060,-203.75 930,-203.75 930,-170.25 1060,-170.25 1060,-203.75"/>
<text text-anchor="start" x="938" y="-190.25" font-family="Helvetica,sans-Serif" font-size="10.00">vlcb/net/storage/packet</text>
<text text-anchor="middle" x="995" y="-177.5" font-family="Helvetica,sans-Serif" font-size="10.00">_buf.h</text>
</a>
</g>
</g>
<!-- Node24&#45;&gt;Node26 -->
<g id="edge50_Node000024_Node000026" class="edge">
<title>Node24&#45;&gt;Node26</title>
<g id="a_edge50_Node000024_Node000026"><a xlink:title=" ">
<path fill="none" stroke="#63b8ff" d="M853.15,-239.3C876.32,-230.93 910.37,-218.61 939.31,-208.14"/>
<polygon fill="#63b8ff" stroke="#63b8ff" points="940.48,-211.44 948.69,-204.75 938.1,-204.86 940.48,-211.44"/>
</a>
</g>
</g>
<!-- Node25&#45;&gt;Node4 -->
<g id="edge46_Node000025_Node000004" class="edge">
<title>Node25&#45;&gt;Node4</title>
<g id="a_edge46_Node000025_Node000004"><a xlink:title=" ">
<path fill="none" stroke="#63b8ff" d="M643.12,-113.09C623.09,-104.52 593.76,-91.98 571.17,-82.31"/>
<polygon fill="#63b8ff" stroke="#63b8ff" points="572.65,-79.14 562.08,-78.42 569.9,-85.57 572.65,-79.14"/>
</a>
</g>
</g>
<!-- Node25&#45;&gt;Node19 -->
<g id="edge48_Node000025_Node000019" class="edge">
<title>Node25&#45;&gt;Node19</title>
<g id="a_edge48_Node000025_Node000019"><a xlink:title=" ">
<path fill="none" stroke="#63b8ff" d="M684.95,-113.09C701.08,-104.76 724.5,-92.66 742.99,-83.11"/>
<polygon fill="#63b8ff" stroke="#63b8ff" points="744.59,-86.22 751.87,-78.52 741.38,-80 744.59,-86.22"/>
</a>
</g>
</g>
<!-- Node25&#45;&gt;Node22 -->
<g id="edge47_Node000025_Node000022" class="edge">
<title>Node25&#45;&gt;Node22</title>
<g id="a_edge47_Node000025_Node000022"><a xlink:title=" ">
<path fill="none" stroke="#63b8ff" d="M666,-113.09C666,-106.47 666,-97.47 666,-89.27"/>
<polygon fill="#63b8ff" stroke="#63b8ff" points="669.5,-89.34 666,-79.34 662.5,-89.34 669.5,-89.34"/>
</a>
</g>
</g>
<!-- Node26&#45;&gt;Node6 -->
<g id="edge53_Node000026_Node000006" class="edge">
<title>Node26&#45;&gt;Node6</title>
<g id="a_edge53_Node000026_Node000006"><a xlink:title=" ">
<path fill="none" stroke="#63b8ff" d="M997.12,-169.88C1001.3,-138.15 1010.6,-67.59 1015.24,-32.31"/>
<polygon fill="#63b8ff" stroke="#63b8ff" points="1018.69,-32.92 1016.53,-22.54 1011.75,-32 1018.69,-32.92"/>
</a>
</g>
</g>
<!-- Node26&#45;&gt;Node15 -->
<g id="edge52_Node000026_Node000015" class="edge">
<title>Node26&#45;&gt;Node15</title>
<g id="a_edge52_Node000026_Node000015"><a xlink:title=" ">
<path fill="none" stroke="#63b8ff" d="M940.6,-169.78C905.42,-159.29 860.47,-145.89 828.86,-136.46"/>
<polygon fill="#63b8ff" stroke="#63b8ff" points="829.9,-133.12 819.32,-133.62 827.9,-139.83 829.9,-133.12"/>
</a>
</g>
</g>
<!-- Node26&#45;&gt;Node17 -->
<g id="edge51_Node000026_Node000017" class="edge">
<title>Node26&#45;&gt;Node17</title>
<g id="a_edge51_Node000026_Node000017"><a xlink:title=" ">
<path fill="none" stroke="#63b8ff" d="M950.51,-169.82C925.13,-160.21 892.92,-147.37 865,-134.25 847.58,-126.07 845.38,-119.18 827,-113.5 788.2,-101.51 520.17,-79.61 415.11,-71.37"/>
<polygon fill="#63b8ff" stroke="#63b8ff" points="415.46,-67.89 405.22,-70.6 414.92,-74.87 415.46,-67.89"/>
</a>
</g>
</g>
<!-- Node27&#45;&gt;Node6 -->
<g id="edge64_Node000027_Node000006" class="edge">
<title>Node27&#45;&gt;Node6</title>
<g id="a_edge64_Node000027_Node000006"><a xlink:title=" ">
<path fill="none" stroke="#63b8ff" d="M892.48,-296C944.2,-287.49 1011.08,-274.39 1035,-260.5 1064.32,-243.47 1073.86,-235.41 1086,-203.75 1110.23,-140.53 1060.38,-64.48 1033.55,-29.99"/>
<polygon fill="#63b8ff" stroke="#63b8ff" points="1036.31,-27.84 1027.32,-22.23 1030.85,-32.22 1036.31,-27.84"/>
</a>
</g>
</g>
<!-- Node27&#45;&gt;Node14 -->
<g id="edge63_Node000027_Node000014" class="edge">
<title>Node27&#45;&gt;Node14</title>
<g id="a_edge63_Node000027_Node000014"><a xlink:title=" ">
<path fill="none" stroke="#63b8ff" d="M818.06,-296.14C810.56,-286.95 799.01,-272.79 789,-260.5 774.03,-242.13 756.95,-221.13 745.03,-206.47"/>
<polygon fill="#63b8ff" stroke="#63b8ff" points="747.99,-204.58 738.97,-199.03 742.56,-208.99 747.99,-204.58"/>
</a>
</g>
</g>
<!-- Node27&#45;&gt;Node23 -->
<g id="edge62_Node000027_Node000023" class="edge">
<title>Node27&#45;&gt;Node23</title>
<g id="a_edge62_Node000027_Node000023"><a xlink:title=" ">
<path fill="none" stroke="#63b8ff" d="M803.95,-296.03C757.34,-275.22 648.66,-226.69 594.24,-202.4"/>
<polygon fill="#63b8ff" stroke="#63b8ff" points="595.75,-199.23 585.19,-198.35 592.89,-205.63 595.75,-199.23"/>
</a>
</g>
</g>
<!-- Node27&#45;&gt;Node24 -->
<g id="edge60_Node000027_Node000024" class="edge">
<title>Node27&#45;&gt;Node24</title>
<g id="a_edge60_Node000027_Node000024"><a xlink:title=" ">
<path fill="none" stroke="#63b8ff" d="M826,-296.09C826,-289.47 826,-280.47 826,-272.27"/>
<polygon fill="#63b8ff" stroke="#63b8ff" points="829.5,-272.34 826,-262.34 822.5,-272.34 829.5,-272.34"/>
</a>
</g>
</g>
<!-- Node27&#45;&gt;Node26 -->
<g id="edge61_Node000027_Node000026" class="edge">
<title>Node27&#45;&gt;Node26</title>
<g id="a_edge61_Node000027_Node000026"><a xlink:title=" ">
<path fill="none" stroke="#63b8ff" d="M840.12,-296.03C866.84,-277.39 925.46,-236.51 962.42,-210.72"/>
<polygon fill="#63b8ff" stroke="#63b8ff" points="964.33,-213.66 970.53,-205.07 960.33,-207.92 964.33,-213.66"/>
</a>
</g>
</g>
<!-- Node28 -->
<g id="Node000028" class="node">
<title>Node28</title>
<g id="a_Node000028"><a xlink:href="packet_2datagram_8h.html" target="_top" xlink:title=" ">
<polygon fill="white" stroke="#666666" points="990.25,-134.25 873.75,-134.25 873.75,-113.5 990.25,-113.5 990.25,-134.25"/>
<text text-anchor="middle" x="932" y="-120.75" font-family="Helvetica,sans-Serif" font-size="10.00">../packet/datagram.h</text>
</a>
</g>
</g>
<!-- Node27&#45;&gt;Node28 -->
<g id="edge56_Node000027_Node000028" class="edge">
<title>Node27&#45;&gt;Node28</title>
<g id="a_edge56_Node000027_Node000028"><a xlink:title=" ">
<path fill="none" stroke="#63b8ff" d="M900.69,-296.51C957.43,-285.05 1031.83,-259.68 1069,-203.75 1077.24,-191.35 1077.72,-182.32 1069,-170.25 1053.41,-148.66 1027.15,-137.18 1001.77,-131.13"/>
<polygon fill="#63b8ff" stroke="#63b8ff" points="1002.59,-127.73 992.08,-129.1 1001.15,-134.58 1002.59,-127.73"/>
</a>
</g>
</g>
<!-- Node28&#45;&gt;Node4 -->
<g id="edge57_Node000028_Node000004" class="edge">
<title>Node28&#45;&gt;Node4</title>
<g id="a_edge57_Node000028_Node000004"><a xlink:title=" ">
<path fill="none" stroke="#63b8ff" d="M873.44,-114.74C793.84,-103.68 653.26,-84.14 582.02,-74.24"/>
<polygon fill="#63b8ff" stroke="#63b8ff" points="582.68,-70.8 572.29,-72.89 581.72,-77.73 582.68,-70.8"/>
</a>
</g>
</g>
<!-- Node28&#45;&gt;Node19 -->
<g id="edge59_Node000028_Node000019" class="edge">
<title>Node28&#45;&gt;Node19</title>
<g id="a_edge59_Node000028_Node000019"><a xlink:title=" ">
<path fill="none" stroke="#63b8ff" d="M903.4,-113.09C877.76,-104.32 839.93,-91.37 811.43,-81.62"/>
<polygon fill="#63b8ff" stroke="#63b8ff" points="812.65,-78.34 802.06,-78.41 810.39,-84.96 812.65,-78.34"/>
</a>
</g>
</g>
<!-- Node28&#45;&gt;Node22 -->
<g id="edge58_Node000028_Node000022" class="edge">
<title>Node28&#45;&gt;Node22</title>
<g id="a_edge58_Node000028_Node000022"><a xlink:title=" ">
<path fill="none" stroke="#63b8ff" d="M880.04,-113.08C836.38,-104.72 772.08,-92.09 707.07,-77.89"/>
<polygon fill="#63b8ff" stroke="#63b8ff" points="708.2,-74.56 697.69,-75.83 706.7,-81.4 708.2,-74.56"/>
</a>
</g>
</g>
</g>
</svg>
