<?xml version="1.0" encoding="UTF-8" standalone="no"?>
<!DOCTYPE svg PUBLIC "-//W3C//DTD SVG 1.1//EN"
 "http://www.w3.org/Graphics/SVG/1.1/DTD/svg11.dtd">
<!-- Generated by graphviz version 12.1.2 (20240928.0832)
 -->
<!-- Title: HandleHeartbeat Pages: 1 -->
<svg width="469pt" height="80pt"
 viewBox="0.00 0.00 469.25 80.12" xmlns="http://www.w3.org/2000/svg" xmlns:xlink="http://www.w3.org/1999/xlink">
<g id="graph0" class="graph" transform="scale(1 1) rotate(0) translate(4 76.12)">
<title>HandleHeartbeat</title>
<!-- Node1 -->
<g id="Node000001" class="node">
<title>Node1</title>
<g id="a_Node000001"><a xlink:title=" ">
<polygon fill="#999999" stroke="#666666" points="99.25,-49.12 0,-49.12 0,-28.38 99.25,-28.38 99.25,-49.12"/>
<text text-anchor="middle" x="49.62" y="-35.62" font-family="Helvetica,sans-Serif" font-size="10.00">HandleHeartbeat</text>
</a>
</g>
</g>
<!-- Node2 -->
<g id="Node000002" class="node">
<title>Node2</title>
<g id="a_Node000002"><a xlink:href="socket_2datagram_8c.html#a7da610c48db02cd38212ef1545d00f00" target="_top" xlink:title=" ">
<polygon fill="white" stroke="#666666" points="286.25,-72.12 135.25,-72.12 135.25,-51.38 286.25,-51.38 286.25,-72.12"/>
<text text-anchor="middle" x="210.75" y="-58.62" font-family="Helvetica,sans-Serif" font-size="10.00">vlcb_net_sock_dgram_Send</text>
</a>
</g>
</g>
<!-- Node1&#45;&gt;Node2 -->
<g id="edge1_Node000001_Node000002" class="edge">
<title>Node1&#45;&gt;Node2</title>
<g id="a_edge1_Node000001_Node000002"><a xlink:title=" ">
<path fill="none" stroke="#63b8ff" d="M99.67,-45.84C107.33,-46.95 115.43,-48.12 123.63,-49.3"/>
<polygon fill="#63b8ff" stroke="#63b8ff" points="122.93,-52.74 133.33,-50.7 123.94,-45.81 122.93,-52.74"/>
</a>
</g>
</g>
<!-- Node4 -->
<g id="Node000004" class="node">
<title>Node4</title>
<g id="a_Node000004"><a xlink:href="socket_2datagram_8h.html#a396e9e0c1c9943bbb0cb52fe73967630" target="_top" xlink:title=" ">
<polygon fill="white" stroke="#666666" points="271.62,-33.5 149.88,-33.5 149.88,0 271.62,0 271.62,-33.5"/>
<text text-anchor="start" x="157.88" y="-20" font-family="Helvetica,sans-Serif" font-size="10.00">vlcb_net_sock_dgram</text>
<text text-anchor="middle" x="210.75" y="-7.25" font-family="Helvetica,sans-Serif" font-size="10.00">_SendErrToStr</text>
</a>
</g>
</g>
<!-- Node1&#45;&gt;Node4 -->
<g id="edge3_Node000001_Node000004" class="edge">
<title>Node1&#45;&gt;Node4</title>
<g id="a_edge3_Node000001_Node000004"><a xlink:title=" ">
<path fill="none" stroke="#63b8ff" d="M99.67,-31.97C111.88,-30.28 125.24,-28.43 138.29,-26.63"/>
<polygon fill="#63b8ff" stroke="#63b8ff" points="138.73,-30.1 148.16,-25.27 137.77,-23.17 138.73,-30.1"/>
</a>
</g>
</g>
<!-- Node3 -->
<g id="Node000003" class="node">
<title>Node3</title>
<g id="a_Node000003"><a xlink:href="packet__buf_8c.html#afa80d4fb078473100610ba106bd5cb46" target="_top" xlink:title=" ">
<polygon fill="white" stroke="#666666" points="461.25,-72.12 322.25,-72.12 322.25,-51.38 461.25,-51.38 461.25,-72.12"/>
<text text-anchor="middle" x="391.75" y="-58.62" font-family="Helvetica,sans-Serif" font-size="10.00">vlcb_net_packetbuf_Push</text>
</a>
</g>
</g>
<!-- Node2&#45;&gt;Node3 -->
<g id="edge2_Node000002_Node000003" class="edge">
<title>Node2&#45;&gt;Node3</title>
<g id="a_edge2_Node000002_Node000003"><a xlink:title=" ">
<path fill="none" stroke="#63b8ff" d="M286.62,-61.75C294.48,-61.75 302.48,-61.75 310.4,-61.75"/>
<polygon fill="#63b8ff" stroke="#63b8ff" points="310.37,-65.25 320.37,-61.75 310.37,-58.25 310.37,-65.25"/>
</a>
</g>
</g>
</g>
</svg>
