<?xml version="1.0" encoding="UTF-8" standalone="no"?>
<!DOCTYPE svg PUBLIC "-//W3C//DTD SVG 1.1//EN"
 "http://www.w3.org/Graphics/SVG/1.1/DTD/svg11.dtd">
<!-- Generated by graphviz version 12.1.2 (20240928.0832)
 -->
<!-- Title: AbortSetup Pages: 1 -->
<svg width="771pt" height="146pt"
 viewBox="0.00 0.00 770.50 145.75" xmlns="http://www.w3.org/2000/svg" xmlns:xlink="http://www.w3.org/1999/xlink">
<g id="graph0" class="graph" transform="scale(1 1) rotate(0) translate(4 141.75)">
<title>AbortSetup</title>
<!-- Node1 -->
<g id="Node000001" class="node">
<title>Node1</title>
<g id="a_Node000001"><a xlink:title=" ">
<polygon fill="#999999" stroke="#666666" points="70,-78.75 0,-78.75 0,-58 70,-58 70,-78.75"/>
<text text-anchor="middle" x="35" y="-65.25" font-family="Helvetica,sans-Serif" font-size="10.00">AbortSetup</text>
</a>
</g>
</g>
<!-- Node2 -->
<g id="Node000002" class="node">
<title>Node2</title>
<g id="a_Node000002"><a xlink:href="state__machine_8c.html#a3d333fba19ed5ffbaabc4663ef9e2abc" target="_top" xlink:title=" ">
<polygon fill="white" stroke="#666666" points="194.75,-78.75 106,-78.75 106,-58 194.75,-58 194.75,-78.75"/>
<text text-anchor="middle" x="150.38" y="-65.25" font-family="Helvetica,sans-Serif" font-size="10.00">state_Dispatch</text>
</a>
</g>
</g>
<!-- Node1&#45;&gt;Node2 -->
<g id="edge1_Node000001_Node000002" class="edge">
<title>Node1&#45;&gt;Node2</title>
<g id="a_edge1_Node000001_Node000002"><a xlink:title=" ">
<path fill="none" stroke="#63b8ff" d="M70.32,-68.38C77.85,-68.38 86.01,-68.38 94.13,-68.38"/>
<polygon fill="#63b8ff" stroke="#63b8ff" points="94,-71.88 104,-68.38 94,-64.88 94,-71.88"/>
</a>
</g>
</g>
<!-- Node3 -->
<g id="Node000003" class="node">
<title>Node3</title>
<g id="a_Node000003"><a xlink:href="state__machine_8c.html#a6c338e6311730773d98d58f8aa921012" target="_top" xlink:title=" ">
<polygon fill="white" stroke="#666666" points="380.25,-137.75 251,-137.75 251,-117 380.25,-117 380.25,-137.75"/>
<text text-anchor="middle" x="315.62" y="-124.25" font-family="Helvetica,sans-Serif" font-size="10.00">CheckForSetupTimeout</text>
</a>
</g>
</g>
<!-- Node2&#45;&gt;Node3 -->
<g id="edge2_Node000002_Node000003" class="edge">
<title>Node2&#45;&gt;Node3</title>
<g id="a_edge2_Node000002_Node000003"><a xlink:title=" ">
<path fill="none" stroke="#63b8ff" d="M170.42,-79.23C186.18,-87.85 209.37,-99.68 230.75,-107.38 237.13,-109.67 243.87,-111.78 250.66,-113.7"/>
<polygon fill="#63b8ff" stroke="#63b8ff" points="249.28,-116.95 259.84,-116.16 251.09,-110.19 249.28,-116.95"/>
</a>
</g>
</g>
<!-- Node4 -->
<g id="Node000004" class="node">
<title>Node4</title>
<g id="a_Node000004"><a xlink:href="state__machine_8c.html#a219b685fd854a0765878acc44e9f3111" target="_top" xlink:title=" ">
<polygon fill="white" stroke="#666666" points="387.75,-98.75 243.5,-98.75 243.5,-78 387.75,-78 387.75,-98.75"/>
<text text-anchor="middle" x="315.62" y="-85.25" font-family="Helvetica,sans-Serif" font-size="10.00">HandleTransitionToNormal</text>
</a>
</g>
</g>
<!-- Node2&#45;&gt;Node4 -->
<g id="edge3_Node000002_Node000004" class="edge">
<title>Node2&#45;&gt;Node4</title>
<g id="a_edge3_Node000002_Node000004"><a xlink:title=" ">
<path fill="none" stroke="#63b8ff" d="M195.12,-73.73C206.52,-75.13 219.18,-76.68 231.88,-78.24"/>
<polygon fill="#63b8ff" stroke="#63b8ff" points="231.16,-81.68 241.51,-79.42 232.01,-74.73 231.16,-81.68"/>
</a>
</g>
</g>
<!-- Node7 -->
<g id="Node000007" class="node">
<title>Node7</title>
<g id="a_Node000007"><a xlink:href="state__machine_8c.html#a454533bb18a4f7d35e37e49479a0be7a" target="_top" xlink:title=" ">
<polygon fill="white" stroke="#666666" points="383.62,-59.75 247.62,-59.75 247.62,-39 383.62,-39 383.62,-59.75"/>
<text text-anchor="middle" x="315.62" y="-46.25" font-family="Helvetica,sans-Serif" font-size="10.00">HandleTransitionToSetup</text>
</a>
</g>
</g>
<!-- Node2&#45;&gt;Node7 -->
<g id="edge6_Node000002_Node000007" class="edge">
<title>Node2&#45;&gt;Node7</title>
<g id="a_edge6_Node000002_Node000007"><a xlink:title=" ">
<path fill="none" stroke="#63b8ff" d="M195.12,-63.28C207.79,-61.81 222.03,-60.15 236.13,-58.51"/>
<polygon fill="#63b8ff" stroke="#63b8ff" points="236.36,-62.01 245.89,-57.38 235.55,-55.05 236.36,-62.01"/>
</a>
</g>
</g>
<!-- Node8 -->
<g id="Node000008" class="node">
<title>Node8</title>
<g id="a_Node000008"><a xlink:href="state__machine_8c.html#a33506340e66a1f297917a2be79b70b0e" target="_top" xlink:title=" ">
<polygon fill="white" stroke="#666666" points="400.5,-20.75 230.75,-20.75 230.75,0 400.5,0 400.5,-20.75"/>
<text text-anchor="middle" x="315.62" y="-7.25" font-family="Helvetica,sans-Serif" font-size="10.00">HandleTransitionToUninitialized</text>
</a>
</g>
</g>
<!-- Node2&#45;&gt;Node8 -->
<g id="edge8_Node000002_Node000008" class="edge">
<title>Node2&#45;&gt;Node8</title>
<g id="a_edge8_Node000002_Node000008"><a xlink:title=" ">
<path fill="none" stroke="#63b8ff" d="M170.78,-57.65C186.55,-49.29 209.58,-37.87 230.75,-30.38 237.23,-28.08 244.09,-25.96 250.98,-24.04"/>
<polygon fill="#63b8ff" stroke="#63b8ff" points="251.55,-27.51 260.31,-21.56 249.75,-20.74 251.55,-27.51"/>
</a>
</g>
</g>
<!-- Node5 -->
<g id="Node000005" class="node">
<title>Node5</title>
<g id="a_Node000005"><a xlink:href="socket_2datagram_8c.html#a7da610c48db02cd38212ef1545d00f00" target="_top" xlink:title=" ">
<polygon fill="white" stroke="#666666" points="587.5,-59.75 436.5,-59.75 436.5,-39 587.5,-39 587.5,-59.75"/>
<text text-anchor="middle" x="512" y="-46.25" font-family="Helvetica,sans-Serif" font-size="10.00">vlcb_net_sock_dgram_Send</text>
</a>
</g>
</g>
<!-- Node4&#45;&gt;Node5 -->
<g id="edge4_Node000004_Node000005" class="edge">
<title>Node4&#45;&gt;Node5</title>
<g id="a_edge4_Node000004_Node000005"><a xlink:title=" ">
<path fill="none" stroke="#63b8ff" d="M370.77,-77.51C394.05,-72.84 421.46,-67.34 445.85,-62.45"/>
<polygon fill="#63b8ff" stroke="#63b8ff" points="446.21,-65.94 455.33,-60.55 444.83,-59.08 446.21,-65.94"/>
</a>
</g>
</g>
<!-- Node6 -->
<g id="Node000006" class="node">
<title>Node6</title>
<g id="a_Node000006"><a xlink:href="packet__buf_8c.html#afa80d4fb078473100610ba106bd5cb46" target="_top" xlink:title=" ">
<polygon fill="white" stroke="#666666" points="762.5,-59.75 623.5,-59.75 623.5,-39 762.5,-39 762.5,-59.75"/>
<text text-anchor="middle" x="693" y="-46.25" font-family="Helvetica,sans-Serif" font-size="10.00">vlcb_net_packetbuf_Push</text>
</a>
</g>
</g>
<!-- Node5&#45;&gt;Node6 -->
<g id="edge5_Node000005_Node000006" class="edge">
<title>Node5&#45;&gt;Node6</title>
<g id="a_edge5_Node000005_Node000006"><a xlink:title=" ">
<path fill="none" stroke="#63b8ff" d="M587.87,-49.38C595.73,-49.38 603.73,-49.38 611.65,-49.38"/>
<polygon fill="#63b8ff" stroke="#63b8ff" points="611.62,-52.88 621.62,-49.38 611.62,-45.88 611.62,-52.88"/>
</a>
</g>
</g>
<!-- Node7&#45;&gt;Node5 -->
<g id="edge7_Node000007_Node000005" class="edge">
<title>Node7&#45;&gt;Node5</title>
<g id="a_edge7_Node000007_Node000005"><a xlink:title=" ">
<path fill="none" stroke="#63b8ff" d="M384.06,-49.38C397.17,-49.38 411.07,-49.38 424.69,-49.38"/>
<polygon fill="#63b8ff" stroke="#63b8ff" points="424.52,-52.88 434.52,-49.38 424.52,-45.88 424.52,-52.88"/>
</a>
</g>
</g>
<!-- Node8&#45;&gt;Node5 -->
<g id="edge9_Node000008_Node000005" class="edge">
<title>Node8&#45;&gt;Node5</title>
<g id="a_edge9_Node000008_Node000005"><a xlink:title=" ">
<path fill="none" stroke="#63b8ff" d="M370.77,-21.24C394.05,-25.91 421.46,-31.41 445.85,-36.3"/>
<polygon fill="#63b8ff" stroke="#63b8ff" points="444.83,-39.67 455.33,-38.2 446.21,-32.81 444.83,-39.67"/>
</a>
</g>
</g>
</g>
</svg>
