<?xml version="1.0" encoding="UTF-8" standalone="no"?>
<!DOCTYPE svg PUBLIC "-//W3C//DTD SVG 1.1//EN"
 "http://www.w3.org/Graphics/SVG/1.1/DTD/svg11.dtd">
<!-- Generated by graphviz version 12.1.2 (20240928.0832)
 -->
<!-- Title: vlcb_module_Init Pages: 1 -->
<svg width="800pt" height="152pt"
 viewBox="0.00 0.00 799.75 152.12" xmlns="http://www.w3.org/2000/svg" xmlns:xlink="http://www.w3.org/1999/xlink">
<g id="graph0" class="graph" transform="scale(1 1) rotate(0) translate(4 148.12)">
<title>vlcb_module_Init</title>
<!-- Node1 -->
<g id="Node000001" class="node">
<title>Node1</title>
<g id="a_Node000001"><a xlink:title=" ">
<polygon fill="#999999" stroke="#666666" points="99.25,-78.75 0,-78.75 0,-58 99.25,-58 99.25,-78.75"/>
<text text-anchor="middle" x="49.62" y="-65.25" font-family="Helvetica,sans-Serif" font-size="10.00">vlcb_module_Init</text>
</a>
</g>
</g>
<!-- Node2 -->
<g id="Node000002" class="node">
<title>Node2</title>
<g id="a_Node000002"><a xlink:href="state__machine_8c.html#a3d333fba19ed5ffbaabc4663ef9e2abc" target="_top" xlink:title=" ">
<polygon fill="white" stroke="#666666" points="224,-78.75 135.25,-78.75 135.25,-58 224,-58 224,-78.75"/>
<text text-anchor="middle" x="179.62" y="-65.25" font-family="Helvetica,sans-Serif" font-size="10.00">state_Dispatch</text>
</a>
</g>
</g>
<!-- Node1&#45;&gt;Node2 -->
<g id="edge1_Node000001_Node000002" class="edge">
<title>Node1&#45;&gt;Node2</title>
<g id="a_edge1_Node000001_Node000002"><a xlink:title=" ">
<path fill="none" stroke="#63b8ff" d="M99.75,-68.38C107.52,-68.38 115.59,-68.38 123.49,-68.38"/>
<polygon fill="#63b8ff" stroke="#63b8ff" points="123.35,-71.88 133.35,-68.38 123.35,-64.88 123.35,-71.88"/>
</a>
</g>
</g>
<!-- Node3 -->
<g id="Node000003" class="node">
<title>Node3</title>
<g id="a_Node000003"><a xlink:href="state__machine_8c.html#a6c338e6311730773d98d58f8aa921012" target="_top" xlink:title=" ">
<polygon fill="white" stroke="#666666" points="409.5,-137.75 280.25,-137.75 280.25,-117 409.5,-117 409.5,-137.75"/>
<text text-anchor="middle" x="344.88" y="-124.25" font-family="Helvetica,sans-Serif" font-size="10.00">CheckForSetupTimeout</text>
</a>
</g>
</g>
<!-- Node2&#45;&gt;Node3 -->
<g id="edge2_Node000002_Node000003" class="edge">
<title>Node2&#45;&gt;Node3</title>
<g id="a_edge2_Node000002_Node000003"><a xlink:title=" ">
<path fill="none" stroke="#63b8ff" d="M199.67,-79.23C215.43,-87.85 238.62,-99.68 260,-107.38 266.38,-109.67 273.12,-111.78 279.91,-113.7"/>
<polygon fill="#63b8ff" stroke="#63b8ff" points="278.53,-116.95 289.09,-116.16 280.34,-110.19 278.53,-116.95"/>
</a>
</g>
</g>
<!-- Node5 -->
<g id="Node000005" class="node">
<title>Node5</title>
<g id="a_Node000005"><a xlink:href="state__machine_8c.html#a219b685fd854a0765878acc44e9f3111" target="_top" xlink:title=" ">
<polygon fill="white" stroke="#666666" points="417,-98.75 272.75,-98.75 272.75,-78 417,-78 417,-98.75"/>
<text text-anchor="middle" x="344.88" y="-85.25" font-family="Helvetica,sans-Serif" font-size="10.00">HandleTransitionToNormal</text>
</a>
</g>
</g>
<!-- Node2&#45;&gt;Node5 -->
<g id="edge4_Node000002_Node000005" class="edge">
<title>Node2&#45;&gt;Node5</title>
<g id="a_edge4_Node000002_Node000005"><a xlink:title=" ">
<path fill="none" stroke="#63b8ff" d="M224.37,-73.73C235.77,-75.13 248.43,-76.68 261.13,-78.24"/>
<polygon fill="#63b8ff" stroke="#63b8ff" points="260.41,-81.68 270.76,-79.42 261.26,-74.73 260.41,-81.68"/>
</a>
</g>
</g>
<!-- Node8 -->
<g id="Node000008" class="node">
<title>Node8</title>
<g id="a_Node000008"><a xlink:href="state__machine_8c.html#a454533bb18a4f7d35e37e49479a0be7a" target="_top" xlink:title=" ">
<polygon fill="white" stroke="#666666" points="412.88,-59.75 276.88,-59.75 276.88,-39 412.88,-39 412.88,-59.75"/>
<text text-anchor="middle" x="344.88" y="-46.25" font-family="Helvetica,sans-Serif" font-size="10.00">HandleTransitionToSetup</text>
</a>
</g>
</g>
<!-- Node2&#45;&gt;Node8 -->
<g id="edge7_Node000002_Node000008" class="edge">
<title>Node2&#45;&gt;Node8</title>
<g id="a_edge7_Node000002_Node000008"><a xlink:title=" ">
<path fill="none" stroke="#63b8ff" d="M224.37,-63.28C237.04,-61.81 251.28,-60.15 265.38,-58.51"/>
<polygon fill="#63b8ff" stroke="#63b8ff" points="265.61,-62.01 275.14,-57.38 264.8,-55.05 265.61,-62.01"/>
</a>
</g>
</g>
<!-- Node9 -->
<g id="Node000009" class="node">
<title>Node9</title>
<g id="a_Node000009"><a xlink:href="state__machine_8c.html#a33506340e66a1f297917a2be79b70b0e" target="_top" xlink:title=" ">
<polygon fill="white" stroke="#666666" points="429.75,-20.75 260,-20.75 260,0 429.75,0 429.75,-20.75"/>
<text text-anchor="middle" x="344.88" y="-7.25" font-family="Helvetica,sans-Serif" font-size="10.00">HandleTransitionToUninitialized</text>
</a>
</g>
</g>
<!-- Node2&#45;&gt;Node9 -->
<g id="edge9_Node000002_Node000009" class="edge">
<title>Node2&#45;&gt;Node9</title>
<g id="a_edge9_Node000002_Node000009"><a xlink:title=" ">
<path fill="none" stroke="#63b8ff" d="M200.03,-57.65C215.8,-49.29 238.83,-37.87 260,-30.38 266.48,-28.08 273.34,-25.96 280.23,-24.04"/>
<polygon fill="#63b8ff" stroke="#63b8ff" points="280.8,-27.51 289.56,-21.56 279,-20.74 280.8,-27.51"/>
</a>
</g>
</g>
<!-- Node4 -->
<g id="Node000004" class="node">
<title>Node4</title>
<g id="a_Node000004"><a xlink:href="time_8h.html#ab82b0190a9360bc97f1249408977c866" target="_top" xlink:title=" ">
<polygon fill="white" stroke="#666666" points="596.88,-144.12 485.62,-144.12 485.62,-110.62 596.88,-110.62 596.88,-144.12"/>
<text text-anchor="start" x="493.62" y="-130.62" font-family="Helvetica,sans-Serif" font-size="10.00">vlcb_platform_time</text>
<text text-anchor="middle" x="541.25" y="-117.88" font-family="Helvetica,sans-Serif" font-size="10.00">_DiffInMs</text>
</a>
</g>
</g>
<!-- Node3&#45;&gt;Node4 -->
<g id="edge3_Node000003_Node000004" class="edge">
<title>Node3&#45;&gt;Node4</title>
<g id="a_edge3_Node000003_Node000004"><a xlink:title=" ">
<path fill="none" stroke="#63b8ff" d="M409.79,-127.38C430.42,-127.38 453.33,-127.38 474.12,-127.38"/>
<polygon fill="#63b8ff" stroke="#63b8ff" points="473.91,-130.88 483.91,-127.38 473.91,-123.88 473.91,-130.88"/>
</a>
</g>
</g>
<!-- Node6 -->
<g id="Node000006" class="node">
<title>Node6</title>
<g id="a_Node000006"><a xlink:href="socket_2datagram_8c.html#a7da610c48db02cd38212ef1545d00f00" target="_top" xlink:title=" ">
<polygon fill="white" stroke="#666666" points="616.75,-59.75 465.75,-59.75 465.75,-39 616.75,-39 616.75,-59.75"/>
<text text-anchor="middle" x="541.25" y="-46.25" font-family="Helvetica,sans-Serif" font-size="10.00">vlcb_net_sock_dgram_Send</text>
</a>
</g>
</g>
<!-- Node5&#45;&gt;Node6 -->
<g id="edge5_Node000005_Node000006" class="edge">
<title>Node5&#45;&gt;Node6</title>
<g id="a_edge5_Node000005_Node000006"><a xlink:title=" ">
<path fill="none" stroke="#63b8ff" d="M400.02,-77.51C423.3,-72.84 450.71,-67.34 475.1,-62.45"/>
<polygon fill="#63b8ff" stroke="#63b8ff" points="475.46,-65.94 484.58,-60.55 474.08,-59.08 475.46,-65.94"/>
</a>
</g>
</g>
<!-- Node7 -->
<g id="Node000007" class="node">
<title>Node7</title>
<g id="a_Node000007"><a xlink:href="packet__buf_8c.html#afa80d4fb078473100610ba106bd5cb46" target="_top" xlink:title=" ">
<polygon fill="white" stroke="#666666" points="791.75,-59.75 652.75,-59.75 652.75,-39 791.75,-39 791.75,-59.75"/>
<text text-anchor="middle" x="722.25" y="-46.25" font-family="Helvetica,sans-Serif" font-size="10.00">vlcb_net_packetbuf_Push</text>
</a>
</g>
</g>
<!-- Node6&#45;&gt;Node7 -->
<g id="edge6_Node000006_Node000007" class="edge">
<title>Node6&#45;&gt;Node7</title>
<g id="a_edge6_Node000006_Node000007"><a xlink:title=" ">
<path fill="none" stroke="#63b8ff" d="M617.12,-49.38C624.98,-49.38 632.98,-49.38 640.9,-49.38"/>
<polygon fill="#63b8ff" stroke="#63b8ff" points="640.87,-52.88 650.87,-49.38 640.87,-45.88 640.87,-52.88"/>
</a>
</g>
</g>
<!-- Node8&#45;&gt;Node6 -->
<g id="edge8_Node000008_Node000006" class="edge">
<title>Node8&#45;&gt;Node6</title>
<g id="a_edge8_Node000008_Node000006"><a xlink:title=" ">
<path fill="none" stroke="#63b8ff" d="M413.31,-49.38C426.42,-49.38 440.32,-49.38 453.94,-49.38"/>
<polygon fill="#63b8ff" stroke="#63b8ff" points="453.77,-52.88 463.77,-49.38 453.77,-45.88 453.77,-52.88"/>
</a>
</g>
</g>
<!-- Node9&#45;&gt;Node6 -->
<g id="edge10_Node000009_Node000006" class="edge">
<title>Node9&#45;&gt;Node6</title>
<g id="a_edge10_Node000009_Node000006"><a xlink:title=" ">
<path fill="none" stroke="#63b8ff" d="M400.02,-21.24C423.3,-25.91 450.71,-31.41 475.1,-36.3"/>
<polygon fill="#63b8ff" stroke="#63b8ff" points="474.08,-39.67 484.58,-38.2 475.46,-32.81 474.08,-39.67"/>
</a>
</g>
</g>
</g>
</svg>
