<?xml version="1.0" encoding="UTF-8" standalone="no"?>
<!DOCTYPE svg PUBLIC "-//W3C//DTD SVG 1.1//EN"
 "http://www.w3.org/Graphics/SVG/1.1/DTD/svg11.dtd">
<!-- Generated by graphviz version 12.1.2 (20240928.0832)
 -->
<!-- Title: module.h Pages: 1 -->
<svg width="1658pt" height="426pt"
 viewBox="0.00 0.00 1658.25 426.00" xmlns="http://www.w3.org/2000/svg" xmlns:xlink="http://www.w3.org/1999/xlink">
<g id="graph0" class="graph" transform="scale(1 1) rotate(0) translate(4 422)">
<title>module.h</title>
<!-- Node1 -->
<g id="Node000001" class="node">
<title>Node1</title>
<g id="a_Node000001"><a xlink:title=" ">
<polygon fill="#999999" stroke="#666666" points="429.88,-418 368.12,-418 368.12,-397.25 429.88,-397.25 429.88,-418"/>
<text text-anchor="middle" x="399" y="-404.5" font-family="Helvetica,sans-Serif" font-size="10.00">module.h</text>
</a>
</g>
</g>
<!-- Node2 -->
<g id="Node000002" class="node">
<title>Node2</title>
<g id="a_Node000002"><a xlink:href="module_2inc_2vlcb_2module_8h.html" target="_top" xlink:title=" ">
<polygon fill="white" stroke="#666666" points="441.5,-361.25 356.5,-361.25 356.5,-340.5 441.5,-340.5 441.5,-361.25"/>
<text text-anchor="middle" x="399" y="-347.75" font-family="Helvetica,sans-Serif" font-size="10.00">vlcb/module.h</text>
</a>
</g>
</g>
<!-- Node1&#45;&gt;Node2 -->
<g id="edge1_Node000001_Node000002" class="edge">
<title>Node1&#45;&gt;Node2</title>
<g id="a_edge1_Node000001_Node000002"><a xlink:title=" ">
<path fill="none" stroke="#63b8ff" d="M399,-396.84C399,-390.22 399,-381.22 399,-373.02"/>
<polygon fill="#63b8ff" stroke="#63b8ff" points="402.5,-373.09 399,-363.09 395.5,-373.09 402.5,-373.09"/>
</a>
</g>
</g>
<!-- Node3 -->
<g id="Node000003" class="node">
<title>Node3</title>
<g id="a_Node000003"><a xlink:href="node_8h.html" target="_top" xlink:title=" ">
<polygon fill="white" stroke="#666666" points="268,-191 150,-191 150,-170.25 268,-170.25 268,-191"/>
<text text-anchor="middle" x="209" y="-177.5" font-family="Helvetica,sans-Serif" font-size="10.00">vlcb/common/node.h</text>
</a>
</g>
</g>
<!-- Node2&#45;&gt;Node3 -->
<g id="edge2_Node000002_Node000003" class="edge">
<title>Node2&#45;&gt;Node3</title>
<g id="a_edge2_Node000002_Node000003"><a xlink:title=" ">
<path fill="none" stroke="#63b8ff" d="M398.44,-340.36C397.18,-326.56 393.12,-300.79 380,-283.75 346.33,-240.02 288.17,-211.12 249.15,-195.55"/>
<polygon fill="#63b8ff" stroke="#63b8ff" points="250.44,-192.3 239.85,-191.97 247.92,-198.83 250.44,-192.3"/>
</a>
</g>
</g>
<!-- Node5 -->
<g id="Node000005" class="node">
<title>Node5</title>
<g id="a_Node000005"><a xlink:href="inc_2vlcb_2module_2param_8h.html" target="_top" xlink:title=" ">
<polygon fill="white" stroke="#666666" points="1358.75,-134.25 1239.25,-134.25 1239.25,-113.5 1358.75,-113.5 1358.75,-134.25"/>
<text text-anchor="middle" x="1299" y="-120.75" font-family="Helvetica,sans-Serif" font-size="10.00">vlcb/module/param.h</text>
</a>
</g>
</g>
<!-- Node2&#45;&gt;Node5 -->
<g id="edge4_Node000002_Node000005" class="edge">
<title>Node2&#45;&gt;Node5</title>
<g id="a_edge4_Node000002_Node000005"><a xlink:title=" ">
<path fill="none" stroke="#63b8ff" d="M442,-350.66C556.18,-351.33 874.76,-343.75 1116,-247.75 1182.02,-221.48 1248.54,-168.68 1280.1,-141.65"/>
<polygon fill="#63b8ff" stroke="#63b8ff" points="1282,-144.64 1287.25,-135.44 1277.41,-139.36 1282,-144.64"/>
</a>
</g>
</g>
<!-- Node6 -->
<g id="Node000006" class="node">
<title>Node6</title>
<g id="a_Node000006"><a xlink:title=" ">
<polygon fill="#e0e0e0" stroke="#999999" points="1016.38,-20.75 963.62,-20.75 963.62,0 1016.38,0 1016.38,-20.75"/>
<text text-anchor="middle" x="990" y="-7.25" font-family="Helvetica,sans-Serif" font-size="10.00">stdint.h</text>
</a>
</g>
</g>
<!-- Node2&#45;&gt;Node6 -->
<g id="edge60_Node000002_Node000006" class="edge">
<title>Node2&#45;&gt;Node6</title>
<g id="a_edge60_Node000002_Node000006"><a xlink:title=" ">
<path fill="none" stroke="#63b8ff" d="M356.3,-347.02C253.37,-338.98 0,-311.74 0,-238.38 0,-238.38 0,-238.38 0,-122.88 0,-25.24 770.21,-13.09 951.92,-11.59"/>
<polygon fill="#63b8ff" stroke="#63b8ff" points="951.78,-15.09 961.75,-11.51 951.72,-8.09 951.78,-15.09"/>
</a>
</g>
</g>
<!-- Node11 -->
<g id="Node000011" class="node">
<title>Node11</title>
<g id="a_Node000011"><a xlink:href="state_8h.html" target="_top" xlink:title=" ">
<polygon fill="white" stroke="#666666" points="265.38,-247.75 152.62,-247.75 152.62,-227 265.38,-227 265.38,-247.75"/>
<text text-anchor="middle" x="209" y="-234.25" font-family="Helvetica,sans-Serif" font-size="10.00">vlcb/module/state.h</text>
</a>
</g>
</g>
<!-- Node2&#45;&gt;Node11 -->
<g id="edge14_Node000002_Node000011" class="edge">
<title>Node2&#45;&gt;Node11</title>
<g id="a_edge14_Node000002_Node000011"><a xlink:title=" ">
<path fill="none" stroke="#63b8ff" d="M356.17,-341.62C328.45,-334.83 292.52,-323.22 265,-304.5 246.61,-291.99 230.78,-271.87 220.69,-257.1"/>
<polygon fill="#63b8ff" stroke="#63b8ff" points="223.89,-255.61 215.49,-249.16 218.04,-259.45 223.89,-255.61"/>
</a>
</g>
</g>
<!-- Node13 -->
<g id="Node000013" class="node">
<title>Node13</title>
<g id="a_Node000013"><a xlink:href="ui_8h.html" target="_top" xlink:title=" ">
<polygon fill="white" stroke="#666666" points="370.5,-304.5 273.5,-304.5 273.5,-283.75 370.5,-283.75 370.5,-304.5"/>
<text text-anchor="middle" x="322" y="-291" font-family="Helvetica,sans-Serif" font-size="10.00">vlcb/module/ui.h</text>
</a>
</g>
</g>
<!-- Node2&#45;&gt;Node13 -->
<g id="edge19_Node000002_Node000013" class="edge">
<title>Node2&#45;&gt;Node13</title>
<g id="a_edge19_Node000002_Node000013"><a xlink:title=" ">
<path fill="none" stroke="#63b8ff" d="M385.23,-340.09C374.07,-332.15 358.08,-320.78 344.98,-311.46"/>
<polygon fill="#63b8ff" stroke="#63b8ff" points="347.06,-308.65 336.88,-305.71 343,-314.35 347.06,-308.65"/>
</a>
</g>
</g>
<!-- Node16 -->
<g id="Node000016" class="node">
<title>Node16</title>
<g id="a_Node000016"><a xlink:href="iface_8h.html" target="_top" xlink:title=" ">
<polygon fill="white" stroke="#666666" points="851.5,-304.5 760.5,-304.5 760.5,-283.75 851.5,-283.75 851.5,-304.5"/>
<text text-anchor="middle" x="806" y="-291" font-family="Helvetica,sans-Serif" font-size="10.00">vlcb/net/iface.h</text>
</a>
</g>
</g>
<!-- Node2&#45;&gt;Node16 -->
<g id="edge23_Node000002_Node000016" class="edge">
<title>Node2&#45;&gt;Node16</title>
<g id="a_edge23_Node000002_Node000016"><a xlink:title=" ">
<path fill="none" stroke="#63b8ff" d="M441.79,-344.12C515.47,-334.21 666.32,-313.91 748.89,-302.81"/>
<polygon fill="#63b8ff" stroke="#63b8ff" points="749.13,-306.31 758.57,-301.51 748.19,-299.37 749.13,-306.31"/>
</a>
</g>
</g>
<!-- Node26 -->
<g id="Node000026" class="node">
<title>Node26</title>
<g id="a_Node000026"><a xlink:href="socket_2datagram_8h.html" target="_top" xlink:title=" ">
<polygon fill="white" stroke="#666666" points="575.38,-247.75 426.62,-247.75 426.62,-227 575.38,-227 575.38,-247.75"/>
<text text-anchor="middle" x="501" y="-234.25" font-family="Helvetica,sans-Serif" font-size="10.00">vlcb/net/socket/datagram.h</text>
</a>
</g>
</g>
<!-- Node2&#45;&gt;Node26 -->
<g id="edge48_Node000002_Node000026" class="edge">
<title>Node2&#45;&gt;Node26</title>
<g id="a_edge48_Node000002_Node000026"><a xlink:title=" ">
<path fill="none" stroke="#63b8ff" d="M407.7,-340.37C424.7,-321.78 462.59,-280.36 484.5,-256.41"/>
<polygon fill="#63b8ff" stroke="#63b8ff" points="486.85,-259.03 491.01,-249.29 481.68,-254.31 486.85,-259.03"/>
</a>
</g>
</g>
<!-- Node4 -->
<g id="Node000004" class="node">
<title>Node4</title>
<g id="a_Node000004"><a xlink:title=" ">
<polygon fill="#e0e0e0" stroke="#999999" points="670.38,-77.5 605.62,-77.5 605.62,-56.75 670.38,-56.75 670.38,-77.5"/>
<text text-anchor="middle" x="638" y="-64" font-family="Helvetica,sans-Serif" font-size="10.00">inttypes.h</text>
</a>
</g>
</g>
<!-- Node3&#45;&gt;Node4 -->
<g id="edge3_Node000003_Node000004" class="edge">
<title>Node3&#45;&gt;Node4</title>
<g id="a_edge3_Node000003_Node000004"><a xlink:title=" ">
<path fill="none" stroke="#63b8ff" d="M208.68,-169.76C208.79,-155.02 211.38,-127.51 228,-113.5 241.89,-101.79 491.39,-80.13 594.23,-71.66"/>
<polygon fill="#63b8ff" stroke="#63b8ff" points="594.26,-75.17 603.94,-70.86 593.69,-68.19 594.26,-75.17"/>
</a>
</g>
</g>
<!-- Node5&#45;&gt;Node6 -->
<g id="edge5_Node000005_Node000006" class="edge">
<title>Node5&#45;&gt;Node6</title>
<g id="a_edge5_Node000005_Node000006"><a xlink:title=" ">
<path fill="none" stroke="#63b8ff" d="M1238.95,-114.22C1169.77,-103.9 1063.46,-86.89 1047,-77.5 1027.32,-66.27 1011.19,-45.6 1001.17,-30.35"/>
<polygon fill="#63b8ff" stroke="#63b8ff" points="1004.3,-28.76 996.04,-22.13 998.36,-32.47 1004.3,-28.76"/>
</a>
</g>
</g>
<!-- Node7 -->
<g id="Node000007" class="node">
<title>Node7</title>
<g id="a_Node000007"><a xlink:href="manufacturer_8h.html" target="_top" xlink:title=" ">
<polygon fill="white" stroke="#666666" points="1215.62,-77.5 1056.38,-77.5 1056.38,-56.75 1215.62,-56.75 1215.62,-77.5"/>
<text text-anchor="middle" x="1136" y="-64" font-family="Helvetica,sans-Serif" font-size="10.00">vlcb/common/manufacturer.h</text>
</a>
</g>
</g>
<!-- Node5&#45;&gt;Node7 -->
<g id="edge6_Node000005_Node000007" class="edge">
<title>Node5&#45;&gt;Node7</title>
<g id="a_edge6_Node000005_Node000007"><a xlink:title=" ">
<path fill="none" stroke="#63b8ff" d="M1269.86,-113.09C1243.63,-104.28 1204.86,-91.25 1175.79,-81.49"/>
<polygon fill="#63b8ff" stroke="#63b8ff" points="1177.19,-78.27 1166.6,-78.4 1174.96,-84.9 1177.19,-78.27"/>
</a>
</g>
</g>
<!-- Node8 -->
<g id="Node000008" class="node">
<title>Node8</title>
<g id="a_Node000008"><a xlink:href="common_2inc_2vlcb_2common_2module_8h.html" target="_top" xlink:title=" ">
<polygon fill="white" stroke="#666666" points="1364.38,-77.5 1233.62,-77.5 1233.62,-56.75 1364.38,-56.75 1364.38,-77.5"/>
<text text-anchor="middle" x="1299" y="-64" font-family="Helvetica,sans-Serif" font-size="10.00">vlcb/common/module.h</text>
</a>
</g>
</g>
<!-- Node5&#45;&gt;Node8 -->
<g id="edge8_Node000005_Node000008" class="edge">
<title>Node5&#45;&gt;Node8</title>
<g id="a_edge8_Node000005_Node000008"><a xlink:title=" ">
<path fill="none" stroke="#63b8ff" d="M1299,-113.09C1299,-106.47 1299,-97.47 1299,-89.27"/>
<polygon fill="#63b8ff" stroke="#63b8ff" points="1302.5,-89.34 1299,-79.34 1295.5,-89.34 1302.5,-89.34"/>
</a>
</g>
</g>
<!-- Node9 -->
<g id="Node000009" class="node">
<title>Node9</title>
<g id="a_Node000009"><a xlink:href="common_2inc_2vlcb_2common_2net_8h.html" target="_top" xlink:title=" ">
<polygon fill="white" stroke="#666666" points="1491.88,-77.5 1382.12,-77.5 1382.12,-56.75 1491.88,-56.75 1491.88,-77.5"/>
<text text-anchor="middle" x="1437" y="-64" font-family="Helvetica,sans-Serif" font-size="10.00">vlcb/common/net.h</text>
</a>
</g>
</g>
<!-- Node5&#45;&gt;Node9 -->
<g id="edge10_Node000005_Node000009" class="edge">
<title>Node5&#45;&gt;Node9</title>
<g id="a_edge10_Node000005_Node000009"><a xlink:title=" ">
<path fill="none" stroke="#63b8ff" d="M1323.67,-113.09C1345.45,-104.44 1377.46,-91.75 1401.91,-82.05"/>
<polygon fill="#63b8ff" stroke="#63b8ff" points="1403.13,-85.33 1411.14,-78.39 1400.55,-78.82 1403.13,-85.33"/>
</a>
</g>
</g>
<!-- Node10 -->
<g id="Node000010" class="node">
<title>Node10</title>
<g id="a_Node000010"><a xlink:href="processor_8h.html" target="_top" xlink:title=" ">
<polygon fill="white" stroke="#666666" points="1650.25,-77.5 1509.75,-77.5 1509.75,-56.75 1650.25,-56.75 1650.25,-77.5"/>
<text text-anchor="middle" x="1580" y="-64" font-family="Helvetica,sans-Serif" font-size="10.00">vlcb/common/processor.h</text>
</a>
</g>
</g>
<!-- Node5&#45;&gt;Node10 -->
<g id="edge12_Node000005_Node000010" class="edge">
<title>Node5&#45;&gt;Node10</title>
<g id="a_edge12_Node000005_Node000010"><a xlink:title=" ">
<path fill="none" stroke="#63b8ff" d="M1349.56,-113.02C1396.86,-103.81 1467.63,-90.02 1518.25,-80.16"/>
<polygon fill="#63b8ff" stroke="#63b8ff" points="1518.74,-83.63 1527.89,-78.28 1517.4,-76.76 1518.74,-83.63"/>
</a>
</g>
</g>
<!-- Node7&#45;&gt;Node6 -->
<g id="edge7_Node000007_Node000006" class="edge">
<title>Node7&#45;&gt;Node6</title>
<g id="a_edge7_Node000007_Node000006"><a xlink:title=" ">
<path fill="none" stroke="#63b8ff" d="M1109.9,-56.34C1086.65,-47.62 1052.38,-34.77 1026.43,-25.04"/>
<polygon fill="#63b8ff" stroke="#63b8ff" points="1027.89,-21.84 1017.29,-21.61 1025.43,-28.4 1027.89,-21.84"/>
</a>
</g>
</g>
<!-- Node8&#45;&gt;Node6 -->
<g id="edge9_Node000008_Node000006" class="edge">
<title>Node8&#45;&gt;Node6</title>
<g id="a_edge9_Node000008_Node000006"><a xlink:title=" ">
<path fill="none" stroke="#63b8ff" d="M1243.4,-56.27C1181.08,-45.23 1081.71,-27.63 1027.79,-18.07"/>
<polygon fill="#63b8ff" stroke="#63b8ff" points="1028.64,-14.67 1018.18,-16.37 1027.42,-21.56 1028.64,-14.67"/>
</a>
</g>
</g>
<!-- Node9&#45;&gt;Node6 -->
<g id="edge11_Node000009_Node000006" class="edge">
<title>Node9&#45;&gt;Node6</title>
<g id="a_edge11_Node000009_Node000006"><a xlink:title=" ">
<path fill="none" stroke="#63b8ff" d="M1381.86,-57.95C1378.86,-57.54 1375.89,-57.13 1373,-56.75 1246.56,-40 1096.24,-23.06 1027.58,-15.48"/>
<polygon fill="#63b8ff" stroke="#63b8ff" points="1028.33,-12.04 1018,-14.43 1027.56,-19 1028.33,-12.04"/>
</a>
</g>
</g>
<!-- Node10&#45;&gt;Node6 -->
<g id="edge13_Node000010_Node000006" class="edge">
<title>Node10&#45;&gt;Node6</title>
<g id="a_edge13_Node000010_Node000006"><a xlink:title=" ">
<path fill="none" stroke="#63b8ff" d="M1509.38,-57.64C1506.55,-57.33 1503.75,-57.03 1501,-56.75 1324.35,-38.43 1112.85,-21.12 1027.98,-14.36"/>
<polygon fill="#63b8ff" stroke="#63b8ff" points="1028.38,-10.88 1018.13,-13.58 1027.83,-17.86 1028.38,-10.88"/>
</a>
</g>
</g>
<!-- Node11&#45;&gt;Node3 -->
<g id="edge15_Node000011_Node000003" class="edge">
<title>Node11&#45;&gt;Node3</title>
<g id="a_edge15_Node000011_Node000003"><a xlink:title=" ">
<path fill="none" stroke="#63b8ff" d="M209,-226.59C209,-219.97 209,-210.97 209,-202.77"/>
<polygon fill="#63b8ff" stroke="#63b8ff" points="212.5,-202.84 209,-192.84 205.5,-202.84 212.5,-202.84"/>
</a>
</g>
</g>
<!-- Node11&#45;&gt;Node6 -->
<g id="edge16_Node000011_Node000006" class="edge">
<title>Node11&#45;&gt;Node6</title>
<g id="a_edge16_Node000011_Node000006"><a xlink:title=" ">
<path fill="none" stroke="#63b8ff" d="M183.16,-226.54C167.91,-219.24 149.9,-207.64 141,-191 136.65,-182.87 137.32,-178.71 141,-170.25 170.57,-102.35 194.96,-85.99 263,-56.75 326.51,-29.46 811.77,-15.69 952.1,-12.25"/>
<polygon fill="#63b8ff" stroke="#63b8ff" points="952.05,-15.75 961.96,-12.01 951.88,-8.75 952.05,-15.75"/>
</a>
</g>
</g>
<!-- Node12 -->
<g id="Node000012" class="node">
<title>Node12</title>
<g id="a_Node000012"><a xlink:href="time_8h.html" target="_top" xlink:title=" ">
<polygon fill="white" stroke="#666666" points="75.75,-191 28.25,-191 28.25,-170.25 75.75,-170.25 75.75,-191"/>
<text text-anchor="middle" x="52" y="-177.5" font-family="Helvetica,sans-Serif" font-size="10.00">time.h</text>
</a>
</g>
</g>
<!-- Node11&#45;&gt;Node12 -->
<g id="edge17_Node000011_Node000012" class="edge">
<title>Node11&#45;&gt;Node12</title>
<g id="a_edge17_Node000011_Node000012"><a xlink:title=" ">
<path fill="none" stroke="#63b8ff" d="M180.93,-226.59C154.61,-217.41 115.18,-203.66 86.86,-193.78"/>
<polygon fill="#63b8ff" stroke="#63b8ff" points="88.25,-190.56 77.65,-190.57 85.94,-197.17 88.25,-190.56"/>
</a>
</g>
</g>
<!-- Node12&#45;&gt;Node12 -->
<g id="edge18_Node000012_Node000012" class="edge">
<title>Node12&#45;&gt;Node12</title>
<g id="a_edge18_Node000012_Node000012"><a xlink:title=" ">
<path fill="none" stroke="#63b8ff" d="M76.03,-191.2C85.66,-191.8 93.75,-188.27 93.75,-180.62 93.75,-176.32 91.19,-173.33 87.24,-171.63"/>
<polygon fill="#63b8ff" stroke="#63b8ff" points="87.92,-168.19 77.52,-170.26 86.94,-175.12 87.92,-168.19"/>
</a>
</g>
</g>
<!-- Node13&#45;&gt;Node11 -->
<g id="edge20_Node000013_Node000011" class="edge">
<title>Node13&#45;&gt;Node11</title>
<g id="a_edge20_Node000013_Node000011"><a xlink:title=" ">
<path fill="none" stroke="#63b8ff" d="M301.8,-283.34C284.44,-274.93 259.17,-262.68 239.37,-253.09"/>
<polygon fill="#63b8ff" stroke="#63b8ff" points="240.91,-249.95 230.39,-248.74 237.86,-256.25 240.91,-249.95"/>
</a>
</g>
</g>
<!-- Node14 -->
<g id="Node000014" class="node">
<title>Node14</title>
<g id="a_Node000014"><a xlink:href="interface_8h.html" target="_top" xlink:title=" ">
<polygon fill="white" stroke="#666666" points="518.38,-134.25 381.62,-134.25 381.62,-113.5 518.38,-113.5 518.38,-134.25"/>
<text text-anchor="middle" x="450" y="-120.75" font-family="Helvetica,sans-Serif" font-size="10.00">vlcb/platform/interface.h</text>
</a>
</g>
</g>
<!-- Node13&#45;&gt;Node14 -->
<g id="edge21_Node000013_Node000014" class="edge">
<title>Node13&#45;&gt;Node14</title>
<g id="a_edge21_Node000013_Node000014"><a xlink:title=" ">
<path fill="none" stroke="#63b8ff" d="M329.25,-283.6C349.75,-256.66 408.4,-179.56 435.7,-143.67"/>
<polygon fill="#63b8ff" stroke="#63b8ff" points="438.33,-146 441.6,-135.92 432.76,-141.76 438.33,-146"/>
</a>
</g>
</g>
<!-- Node15 -->
<g id="Node000015" class="node">
<title>Node15</title>
<g id="a_Node000015"><a xlink:title=" ">
<polygon fill="#e0e0e0" stroke="#999999" points="477.5,-77.5 422.5,-77.5 422.5,-56.75 477.5,-56.75 477.5,-77.5"/>
<text text-anchor="middle" x="450" y="-64" font-family="Helvetica,sans-Serif" font-size="10.00">stddef.h</text>
</a>
</g>
</g>
<!-- Node14&#45;&gt;Node15 -->
<g id="edge22_Node000014_Node000015" class="edge">
<title>Node14&#45;&gt;Node15</title>
<g id="a_edge22_Node000014_Node000015"><a xlink:title=" ">
<path fill="none" stroke="#63b8ff" d="M450,-113.09C450,-106.47 450,-97.47 450,-89.27"/>
<polygon fill="#63b8ff" stroke="#63b8ff" points="453.5,-89.34 450,-79.34 446.5,-89.34 453.5,-89.34"/>
</a>
</g>
</g>
<!-- Node17 -->
<g id="Node000017" class="node">
<title>Node17</title>
<g id="a_Node000017"><a xlink:title=" ">
<polygon fill="#e0e0e0" stroke="#999999" points="961.5,-77.5 900.5,-77.5 900.5,-56.75 961.5,-56.75 961.5,-77.5"/>
<text text-anchor="middle" x="931" y="-64" font-family="Helvetica,sans-Serif" font-size="10.00">stdbool.h</text>
</a>
</g>
</g>
<!-- Node16&#45;&gt;Node17 -->
<g id="edge24_Node000016_Node000017" class="edge">
<title>Node16&#45;&gt;Node17</title>
<g id="a_edge24_Node000016_Node000017"><a xlink:title=" ">
<path fill="none" stroke="#63b8ff" d="M851.77,-287.93C944.74,-276.34 1150.4,-245.04 1192,-191 1252.82,-112 1061.24,-81.56 973.01,-71.93"/>
<polygon fill="#63b8ff" stroke="#63b8ff" points="973.6,-68.48 963.29,-70.92 972.88,-75.44 973.6,-68.48"/>
</a>
</g>
</g>
<!-- Node18 -->
<g id="Node000018" class="node">
<title>Node18</title>
<g id="a_Node000018"><a xlink:href="adapter_8h.html" target="_top" xlink:title=" ">
<polygon fill="white" stroke="#666666" points="923.88,-247.75 862.12,-247.75 862.12,-227 923.88,-227 923.88,-247.75"/>
<text text-anchor="middle" x="893" y="-234.25" font-family="Helvetica,sans-Serif" font-size="10.00">adapter.h</text>
</a>
</g>
</g>
<!-- Node16&#45;&gt;Node18 -->
<g id="edge25_Node000016_Node000018" class="edge">
<title>Node16&#45;&gt;Node18</title>
<g id="a_edge25_Node000016_Node000018"><a xlink:title=" ">
<path fill="none" stroke="#63b8ff" d="M821.55,-283.34C834.42,-275.24 852.94,-263.58 867.91,-254.17"/>
<polygon fill="#63b8ff" stroke="#63b8ff" points="869.7,-257.17 876.3,-248.88 865.97,-251.25 869.7,-257.17"/>
</a>
</g>
</g>
<!-- Node24 -->
<g id="Node000024" class="node">
<title>Node24</title>
<g id="a_Node000024"><a xlink:href="socket_8h.html" target="_top" xlink:title=" ">
<polygon fill="white" stroke="#666666" points="585.25,-191 528.75,-191 528.75,-170.25 585.25,-170.25 585.25,-191"/>
<text text-anchor="middle" x="557" y="-177.5" font-family="Helvetica,sans-Serif" font-size="10.00">socket.h</text>
</a>
</g>
</g>
<!-- Node16&#45;&gt;Node24 -->
<g id="edge40_Node000016_Node000024" class="edge">
<title>Node16&#45;&gt;Node24</title>
<g id="a_edge40_Node000016_Node000024"><a xlink:title=" ">
<path fill="none" stroke="#63b8ff" d="M784.34,-283.43C740.37,-263.74 640.49,-219.01 589,-195.96"/>
<polygon fill="#63b8ff" stroke="#63b8ff" points="590.73,-192.89 580.17,-192 587.87,-199.28 590.73,-192.89"/>
</a>
</g>
</g>
<!-- Node18&#45;&gt;Node4 -->
<g id="edge26_Node000018_Node000004" class="edge">
<title>Node18&#45;&gt;Node4</title>
<g id="a_edge26_Node000018_Node000004"><a xlink:title=" ">
<path fill="none" stroke="#63b8ff" d="M861.7,-236.21C799.93,-233.99 663.15,-219.2 603,-134.25 592.06,-118.8 604.92,-99.51 618.03,-85.76"/>
<polygon fill="#63b8ff" stroke="#63b8ff" points="620.2,-88.53 624.93,-79.05 615.32,-83.51 620.2,-88.53"/>
</a>
</g>
</g>
<!-- Node18&#45;&gt;Node14 -->
<g id="edge29_Node000018_Node000014" class="edge">
<title>Node18&#45;&gt;Node14</title>
<g id="a_edge29_Node000018_Node000014"><a xlink:title=" ">
<path fill="none" stroke="#63b8ff" d="M861.69,-235.07C783.3,-231.42 580.52,-219.42 520,-191 496.94,-180.17 476.53,-158.81 463.79,-143.29"/>
<polygon fill="#63b8ff" stroke="#63b8ff" points="466.76,-141.4 457.83,-135.71 461.26,-145.73 466.76,-141.4"/>
</a>
</g>
</g>
<!-- Node18&#45;&gt;Node17 -->
<g id="edge27_Node000018_Node000017" class="edge">
<title>Node18&#45;&gt;Node17</title>
<g id="a_edge27_Node000018_Node000017"><a xlink:title=" ">
<path fill="none" stroke="#63b8ff" d="M896.31,-226.72C899.35,-217.59 903.87,-203.47 907,-191 915.93,-155.46 923.51,-113.43 927.64,-88.88"/>
<polygon fill="#63b8ff" stroke="#63b8ff" points="931.05,-89.69 929.23,-79.25 924.15,-88.55 931.05,-89.69"/>
</a>
</g>
</g>
<!-- Node19 -->
<g id="Node000019" class="node">
<title>Node19</title>
<g id="a_Node000019"><a xlink:href="error_8h.html" target="_top" xlink:title=" ">
<polygon fill="white" stroke="#666666" points="803.88,-77.5 688.12,-77.5 688.12,-56.75 803.88,-56.75 803.88,-77.5"/>
<text text-anchor="middle" x="746" y="-64" font-family="Helvetica,sans-Serif" font-size="10.00">vlcb/platform/error.h</text>
</a>
</g>
</g>
<!-- Node18&#45;&gt;Node19 -->
<g id="edge28_Node000018_Node000019" class="edge">
<title>Node18&#45;&gt;Node19</title>
<g id="a_edge28_Node000018_Node000019"><a xlink:title=" ">
<path fill="none" stroke="#63b8ff" d="M890.79,-226.5C885.26,-203.84 868.87,-147.46 836,-113.5 822.72,-99.78 804.42,-89.52 787.78,-82.25"/>
<polygon fill="#63b8ff" stroke="#63b8ff" points="789.14,-79.02 778.56,-78.48 786.49,-85.5 789.14,-79.02"/>
</a>
</g>
</g>
<!-- Node20 -->
<g id="Node000020" class="node">
<title>Node20</title>
<g id="a_Node000020"><a xlink:href="packet_8h.html" target="_top" xlink:title=" ">
<polygon fill="white" stroke="#666666" points="1183,-191 1065,-191 1065,-170.25 1183,-170.25 1183,-191"/>
<text text-anchor="middle" x="1124" y="-177.5" font-family="Helvetica,sans-Serif" font-size="10.00">adapter/can/packet.h</text>
</a>
</g>
</g>
<!-- Node18&#45;&gt;Node20 -->
<g id="edge30_Node000018_Node000020" class="edge">
<title>Node18&#45;&gt;Node20</title>
<g id="a_edge30_Node000018_Node000020"><a xlink:title=" ">
<path fill="none" stroke="#63b8ff" d="M924.15,-228.99C961.85,-220.06 1025.89,-204.88 1071.31,-194.11"/>
<polygon fill="#63b8ff" stroke="#63b8ff" points="1072.03,-197.54 1080.95,-191.83 1070.42,-190.73 1072.03,-197.54"/>
</a>
</g>
</g>
<!-- Node23 -->
<g id="Node000023" class="node">
<title>Node23</title>
<g id="a_Node000023"><a xlink:href="addr_8h.html" target="_top" xlink:title=" ">
<polygon fill="white" stroke="#666666" points="1047,-191 959,-191 959,-170.25 1047,-170.25 1047,-191"/>
<text text-anchor="middle" x="1003" y="-177.5" font-family="Helvetica,sans-Serif" font-size="10.00">vlcb/net/addr.h</text>
</a>
</g>
</g>
<!-- Node18&#45;&gt;Node23 -->
<g id="edge38_Node000018_Node000023" class="edge">
<title>Node18&#45;&gt;Node23</title>
<g id="a_edge38_Node000018_Node000023"><a xlink:title=" ">
<path fill="none" stroke="#63b8ff" d="M912.67,-226.59C929.56,-218.18 954.17,-205.93 973.43,-196.34"/>
<polygon fill="#63b8ff" stroke="#63b8ff" points="974.76,-199.59 982.15,-192 971.64,-193.33 974.76,-199.59"/>
</a>
</g>
</g>
<!-- Node20&#45;&gt;Node17 -->
<g id="edge31_Node000020_Node000017" class="edge">
<title>Node20&#45;&gt;Node17</title>
<g id="a_edge31_Node000020_Node000017"><a xlink:title=" ">
<path fill="none" stroke="#63b8ff" d="M1120.14,-170C1113.88,-155.58 1100.14,-128.48 1080,-113.5 1048.5,-90.07 1004.81,-78.62 972.89,-73.1"/>
<polygon fill="#63b8ff" stroke="#63b8ff" points="973.62,-69.67 963.2,-71.56 972.53,-76.59 973.62,-69.67"/>
</a>
</g>
</g>
<!-- Node21 -->
<g id="Node000021" class="node">
<title>Node21</title>
<g id="a_Node000021"><a xlink:href="common_2inc_2vlcb_2common_2can_8h.html" target="_top" xlink:title=" ">
<polygon fill="white" stroke="#666666" points="1070.62,-134.25 959.38,-134.25 959.38,-113.5 1070.62,-113.5 1070.62,-134.25"/>
<text text-anchor="middle" x="1015" y="-120.75" font-family="Helvetica,sans-Serif" font-size="10.00">vlcb/common/can.h</text>
</a>
</g>
</g>
<!-- Node20&#45;&gt;Node21 -->
<g id="edge32_Node000020_Node000021" class="edge">
<title>Node20&#45;&gt;Node21</title>
<g id="a_edge32_Node000020_Node000021"><a xlink:title=" ">
<path fill="none" stroke="#63b8ff" d="M1104.51,-169.84C1087.85,-161.47 1063.62,-149.29 1044.56,-139.72"/>
<polygon fill="#63b8ff" stroke="#63b8ff" points="1046.18,-136.62 1035.67,-135.26 1043.04,-142.87 1046.18,-136.62"/>
</a>
</g>
</g>
<!-- Node21&#45;&gt;Node4 -->
<g id="edge33_Node000021_Node000004" class="edge">
<title>Node21&#45;&gt;Node4</title>
<g id="a_edge33_Node000021_Node000004"><a xlink:title=" ">
<path fill="none" stroke="#63b8ff" d="M959.17,-116.9C894.65,-109.65 785.07,-96.27 681.87,-77.89"/>
<polygon fill="#63b8ff" stroke="#63b8ff" points="682.57,-74.46 672.11,-76.13 681.33,-81.35 682.57,-74.46"/>
</a>
</g>
</g>
<!-- Node21&#45;&gt;Node6 -->
<g id="edge35_Node000021_Node000006" class="edge">
<title>Node21&#45;&gt;Node6</title>
<g id="a_edge35_Node000021_Node000006"><a xlink:title=" ">
<path fill="none" stroke="#63b8ff" d="M1012.87,-113.37C1008.87,-95.52 1000.14,-56.61 994.7,-32.34"/>
<polygon fill="#63b8ff" stroke="#63b8ff" points="998.13,-31.64 992.53,-22.65 991.3,-33.18 998.13,-31.64"/>
</a>
</g>
</g>
<!-- Node21&#45;&gt;Node17 -->
<g id="edge34_Node000021_Node000017" class="edge">
<title>Node21&#45;&gt;Node17</title>
<g id="a_edge34_Node000021_Node000017"><a xlink:title=" ">
<path fill="none" stroke="#63b8ff" d="M999.98,-113.09C987.56,-104.99 969.68,-93.33 955.23,-83.92"/>
<polygon fill="#63b8ff" stroke="#63b8ff" points="957.44,-81.18 947.16,-78.65 953.62,-87.05 957.44,-81.18"/>
</a>
</g>
</g>
<!-- Node22 -->
<g id="Node000022" class="node">
<title>Node22</title>
<g id="a_Node000022"><a xlink:href="opcode_8h.html" target="_top" xlink:title=" ">
<polygon fill="white" stroke="#666666" points="882.12,-77.5 821.88,-77.5 821.88,-56.75 882.12,-56.75 882.12,-77.5"/>
<text text-anchor="middle" x="852" y="-64" font-family="Helvetica,sans-Serif" font-size="10.00">opcode.h</text>
</a>
</g>
</g>
<!-- Node21&#45;&gt;Node22 -->
<g id="edge36_Node000021_Node000022" class="edge">
<title>Node21&#45;&gt;Node22</title>
<g id="a_edge36_Node000021_Node000022"><a xlink:title=" ">
<path fill="none" stroke="#63b8ff" d="M985.86,-113.09C959.63,-104.28 920.86,-91.25 891.79,-81.49"/>
<polygon fill="#63b8ff" stroke="#63b8ff" points="893.19,-78.27 882.6,-78.4 890.96,-84.9 893.19,-78.27"/>
</a>
</g>
</g>
<!-- Node22&#45;&gt;Node6 -->
<g id="edge37_Node000022_Node000006" class="edge">
<title>Node22&#45;&gt;Node6</title>
<g id="a_edge37_Node000022_Node000006"><a xlink:title=" ">
<path fill="none" stroke="#63b8ff" d="M876.67,-56.34C898.45,-47.69 930.46,-35 954.91,-25.3"/>
<polygon fill="#63b8ff" stroke="#63b8ff" points="956.13,-28.58 964.14,-21.64 953.55,-22.07 956.13,-28.58"/>
</a>
</g>
</g>
<!-- Node23&#45;&gt;Node21 -->
<g id="edge39_Node000023_Node000021" class="edge">
<title>Node23&#45;&gt;Node21</title>
<g id="a_edge39_Node000023_Node000021"><a xlink:title=" ">
<path fill="none" stroke="#63b8ff" d="M1005.15,-169.84C1006.61,-163.14 1008.61,-154.01 1010.43,-145.73"/>
<polygon fill="#63b8ff" stroke="#63b8ff" points="1013.83,-146.57 1012.55,-136.06 1006.99,-145.08 1013.83,-146.57"/>
</a>
</g>
</g>
<!-- Node24&#45;&gt;Node14 -->
<g id="edge47_Node000024_Node000014" class="edge">
<title>Node24&#45;&gt;Node14</title>
<g id="a_edge47_Node000024_Node000014"><a xlink:title=" ">
<path fill="none" stroke="#63b8ff" d="M537.87,-169.84C521.51,-161.47 497.72,-149.29 479.02,-139.72"/>
<polygon fill="#63b8ff" stroke="#63b8ff" points="480.81,-136.71 470.31,-135.27 477.62,-142.94 480.81,-136.71"/>
</a>
</g>
</g>
<!-- Node24&#45;&gt;Node15 -->
<g id="edge42_Node000024_Node000015" class="edge">
<title>Node24&#45;&gt;Node15</title>
<g id="a_edge42_Node000024_Node000015"><a xlink:title=" ">
<path fill="none" stroke="#63b8ff" d="M554.65,-170.06C550.84,-156.21 542.17,-130.38 527,-113.5 515.4,-100.59 499.24,-90.3 484.71,-82.8"/>
<polygon fill="#63b8ff" stroke="#63b8ff" points="486.4,-79.73 475.88,-78.51 483.34,-86.03 486.4,-79.73"/>
</a>
</g>
</g>
<!-- Node24&#45;&gt;Node17 -->
<g id="edge41_Node000024_Node000017" class="edge">
<title>Node24&#45;&gt;Node17</title>
<g id="a_edge41_Node000024_Node000017"><a xlink:title=" ">
<path fill="none" stroke="#63b8ff" d="M585.43,-179.12C637.16,-177.33 749.35,-169.33 836,-134.25 865.03,-122.5 893.92,-100.55 912.08,-85.18"/>
<polygon fill="#63b8ff" stroke="#63b8ff" points="914.15,-88.02 919.4,-78.82 909.56,-82.73 914.15,-88.02"/>
</a>
</g>
</g>
<!-- Node25 -->
<g id="Node000025" class="node">
<title>Node25</title>
<g id="a_Node000025"><a xlink:href="vlcb_8h.html" target="_top" xlink:title=" ">
<polygon fill="white" stroke="#666666" points="827.25,-134.25 746.75,-134.25 746.75,-113.5 827.25,-113.5 827.25,-134.25"/>
<text text-anchor="middle" x="787" y="-120.75" font-family="Helvetica,sans-Serif" font-size="10.00">packet/vlcb.h</text>
</a>
</g>
</g>
<!-- Node24&#45;&gt;Node25 -->
<g id="edge43_Node000024_Node000025" class="edge">
<title>Node24&#45;&gt;Node25</title>
<g id="a_edge43_Node000024_Node000025"><a xlink:title=" ">
<path fill="none" stroke="#63b8ff" d="M585.66,-172.8C623.04,-163.9 689.1,-148.18 735.33,-137.18"/>
<polygon fill="#63b8ff" stroke="#63b8ff" points="735.94,-140.63 744.86,-134.91 734.32,-133.82 735.94,-140.63"/>
</a>
</g>
</g>
<!-- Node25&#45;&gt;Node4 -->
<g id="edge44_Node000025_Node000004" class="edge">
<title>Node25&#45;&gt;Node4</title>
<g id="a_edge44_Node000025_Node000004"><a xlink:title=" ">
<path fill="none" stroke="#63b8ff" d="M760.36,-113.09C736.7,-104.39 701.88,-91.6 675.43,-81.88"/>
<polygon fill="#63b8ff" stroke="#63b8ff" points="676.67,-78.61 666.08,-78.44 674.26,-85.18 676.67,-78.61"/>
</a>
</g>
</g>
<!-- Node25&#45;&gt;Node19 -->
<g id="edge46_Node000025_Node000019" class="edge">
<title>Node25&#45;&gt;Node19</title>
<g id="a_edge46_Node000025_Node000019"><a xlink:title=" ">
<path fill="none" stroke="#63b8ff" d="M779.67,-113.09C774.25,-105.85 766.69,-95.76 760.11,-86.97"/>
<polygon fill="#63b8ff" stroke="#63b8ff" points="762.97,-84.95 754.17,-79.04 757.37,-89.14 762.97,-84.95"/>
</a>
</g>
</g>
<!-- Node25&#45;&gt;Node22 -->
<g id="edge45_Node000025_Node000022" class="edge">
<title>Node25&#45;&gt;Node22</title>
<g id="a_edge45_Node000025_Node000022"><a xlink:title=" ">
<path fill="none" stroke="#63b8ff" d="M798.62,-113.09C807.86,-105.3 821.01,-94.22 831.95,-85.01"/>
<polygon fill="#63b8ff" stroke="#63b8ff" points="833.93,-87.92 839.32,-78.8 829.42,-82.57 833.93,-87.92"/>
</a>
</g>
</g>
<!-- Node26&#45;&gt;Node6 -->
<g id="edge59_Node000026_Node000006" class="edge">
<title>Node26&#45;&gt;Node6</title>
<g id="a_edge59_Node000026_Node000006"><a xlink:title=" ">
<path fill="none" stroke="#63b8ff" d="M474.1,-226.53C449.17,-217.38 411.05,-203.35 378,-191 307.71,-164.74 186.39,-175.95 228,-113.5 264.32,-58.99 300.29,-71.93 364,-56.75 476.73,-29.9 834.26,-16.34 952,-12.53"/>
<polygon fill="#63b8ff" stroke="#63b8ff" points="951.86,-16.03 961.75,-12.22 951.64,-9.04 951.86,-16.03"/>
</a>
</g>
</g>
<!-- Node26&#45;&gt;Node14 -->
<g id="edge58_Node000026_Node000014" class="edge">
<title>Node26&#45;&gt;Node14</title>
<g id="a_edge58_Node000026_Node000014"><a xlink:title=" ">
<path fill="none" stroke="#63b8ff" d="M483.44,-226.61C471.27,-218.76 456.04,-206.49 449,-191 442.52,-176.76 443.23,-158.94 445.3,-145.39"/>
<polygon fill="#63b8ff" stroke="#63b8ff" points="448.68,-146.34 447.14,-135.86 441.81,-145.01 448.68,-146.34"/>
</a>
</g>
</g>
<!-- Node26&#45;&gt;Node24 -->
<g id="edge53_Node000026_Node000024" class="edge">
<title>Node26&#45;&gt;Node24</title>
<g id="a_edge53_Node000026_Node000024"><a xlink:title=" ">
<path fill="none" stroke="#63b8ff" d="M511.01,-226.59C518.74,-219.03 529.63,-208.39 538.87,-199.35"/>
<polygon fill="#63b8ff" stroke="#63b8ff" points="541.29,-201.88 545.99,-192.39 536.4,-196.87 541.29,-201.88"/>
</a>
</g>
</g>
<!-- Node27 -->
<g id="Node000027" class="node">
<title>Node27</title>
<g id="a_Node000027"><a xlink:href="packet_2datagram_8h.html" target="_top" xlink:title=" ">
<polygon fill="white" stroke="#666666" points="728.25,-134.25 611.75,-134.25 611.75,-113.5 728.25,-113.5 728.25,-134.25"/>
<text text-anchor="middle" x="670" y="-120.75" font-family="Helvetica,sans-Serif" font-size="10.00">../packet/datagram.h</text>
</a>
</g>
</g>
<!-- Node26&#45;&gt;Node27 -->
<g id="edge49_Node000026_Node000027" class="edge">
<title>Node26&#45;&gt;Node27</title>
<g id="a_edge49_Node000026_Node000027"><a xlink:title=" ">
<path fill="none" stroke="#63b8ff" d="M501.02,-226.87C501.57,-212.62 504.74,-185.73 520,-170.25 541.17,-148.79 572.11,-137.4 600.4,-131.39"/>
<polygon fill="#63b8ff" stroke="#63b8ff" points="600.84,-134.87 610.01,-129.56 599.53,-128 600.84,-134.87"/>
</a>
</g>
</g>
<!-- Node28 -->
<g id="Node000028" class="node">
<title>Node28</title>
<g id="a_Node000028"><a xlink:href="packet__buf_8h.html" target="_top" xlink:title=" ">
<polygon fill="white" stroke="#666666" points="363.12,-134.25 236.88,-134.25 236.88,-113.5 363.12,-113.5 363.12,-134.25"/>
<text text-anchor="middle" x="300" y="-120.75" font-family="Helvetica,sans-Serif" font-size="10.00">../storage/packet_buf.h</text>
</a>
</g>
</g>
<!-- Node26&#45;&gt;Node28 -->
<g id="edge54_Node000026_Node000028" class="edge">
<title>Node26&#45;&gt;Node28</title>
<g id="a_edge54_Node000026_Node000028"><a xlink:title=" ">
<path fill="none" stroke="#63b8ff" d="M483.51,-226.68C448.47,-207.24 369.41,-163.38 327.42,-140.08"/>
<polygon fill="#63b8ff" stroke="#63b8ff" points="329.35,-137.16 318.91,-135.37 325.96,-143.28 329.35,-137.16"/>
</a>
</g>
</g>
<!-- Node27&#45;&gt;Node4 -->
<g id="edge50_Node000027_Node000004" class="edge">
<title>Node27&#45;&gt;Node4</title>
<g id="a_edge50_Node000027_Node000004"><a xlink:title=" ">
<path fill="none" stroke="#63b8ff" d="M664.28,-113.09C660.14,-106 654.4,-96.19 649.35,-87.54"/>
<polygon fill="#63b8ff" stroke="#63b8ff" points="652.5,-86 644.44,-79.14 646.46,-89.53 652.5,-86"/>
</a>
</g>
</g>
<!-- Node27&#45;&gt;Node19 -->
<g id="edge52_Node000027_Node000019" class="edge">
<title>Node27&#45;&gt;Node19</title>
<g id="a_edge52_Node000027_Node000019"><a xlink:title=" ">
<path fill="none" stroke="#63b8ff" d="M683.59,-113.09C694.61,-105.15 710.39,-93.78 723.32,-84.46"/>
<polygon fill="#63b8ff" stroke="#63b8ff" points="725.23,-87.4 731.3,-78.71 721.14,-81.72 725.23,-87.4"/>
</a>
</g>
</g>
<!-- Node27&#45;&gt;Node22 -->
<g id="edge51_Node000027_Node000022" class="edge">
<title>Node27&#45;&gt;Node22</title>
<g id="a_edge51_Node000027_Node000022"><a xlink:title=" ">
<path fill="none" stroke="#63b8ff" d="M702.54,-113.09C732.85,-103.97 778.18,-90.33 810.96,-80.47"/>
<polygon fill="#63b8ff" stroke="#63b8ff" points="811.54,-83.95 820.11,-77.72 809.53,-77.25 811.54,-83.95"/>
</a>
</g>
</g>
<!-- Node28&#45;&gt;Node6 -->
<g id="edge57_Node000028_Node000006" class="edge">
<title>Node28&#45;&gt;Node6</title>
<g id="a_edge57_Node000028_Node000006"><a xlink:title=" ">
<path fill="none" stroke="#63b8ff" d="M312.44,-113.1C332.5,-97.96 373.81,-69.28 414,-56.75 514.95,-25.29 840.26,-14.87 951.94,-12.18"/>
<polygon fill="#63b8ff" stroke="#63b8ff" points="951.85,-15.68 961.76,-11.95 951.69,-8.68 951.85,-15.68"/>
</a>
</g>
</g>
<!-- Node28&#45;&gt;Node15 -->
<g id="edge56_Node000028_Node000015" class="edge">
<title>Node28&#45;&gt;Node15</title>
<g id="a_edge56_Node000028_Node000015"><a xlink:title=" ">
<path fill="none" stroke="#63b8ff" d="M326.82,-113.09C350.74,-104.36 386,-91.48 412.68,-81.75"/>
<polygon fill="#63b8ff" stroke="#63b8ff" points="413.55,-85.16 421.74,-78.44 411.15,-78.58 413.55,-85.16"/>
</a>
</g>
</g>
<!-- Node28&#45;&gt;Node17 -->
<g id="edge55_Node000028_Node000017" class="edge">
<title>Node28&#45;&gt;Node17</title>
<g id="a_edge55_Node000028_Node000017"><a xlink:title=" ">
<path fill="none" stroke="#63b8ff" d="M363.28,-114.52C366.57,-114.16 369.82,-113.81 373,-113.5 598.96,-91.16 660.82,-111.27 888.75,-77.59"/>
<polygon fill="#63b8ff" stroke="#63b8ff" points="889.22,-81.06 898.59,-76.11 888.18,-74.13 889.22,-81.06"/>
</a>
</g>
</g>
</g>
</svg>
