<?xml version="1.0" encoding="UTF-8" standalone="no"?>
<!DOCTYPE svg PUBLIC "-//W3C//DTD SVG 1.1//EN"
 "http://www.w3.org/Graphics/SVG/1.1/DTD/svg11.dtd">
<!-- Generated by graphviz version 12.1.2 (20240928.0832)
 -->
<!-- Title: HandleQueryNodeParameterByIndex Pages: 1 -->
<svg width="457pt" height="42pt"
 viewBox="0.00 0.00 456.50 41.50" xmlns="http://www.w3.org/2000/svg" xmlns:xlink="http://www.w3.org/1999/xlink">
<g id="graph0" class="graph" transform="scale(1 1) rotate(0) translate(4 37.5)">
<title>HandleQueryNodeParameterByIndex</title>
<!-- Node1 -->
<g id="Node000001" class="node">
<title>Node1</title>
<g id="a_Node000001"><a xlink:title=" ">
<polygon fill="#999999" stroke="#666666" points="448.5,-33.5 293,-33.5 293,0 448.5,0 448.5,-33.5"/>
<text text-anchor="start" x="301" y="-20" font-family="Helvetica,sans-Serif" font-size="10.00">HandleQueryNodeParameter</text>
<text text-anchor="middle" x="370.75" y="-7.25" font-family="Helvetica,sans-Serif" font-size="10.00">ByIndex</text>
</a>
</g>
</g>
<!-- Node2 -->
<g id="Node000002" class="node">
<title>Node2</title>
<g id="a_Node000002"><a xlink:href="module_8c.html#a32ed02b26ffaed7947004cd1309f5847" target="_top" xlink:title=" ">
<polygon fill="white" stroke="#666666" points="257,-27.12 137.5,-27.12 137.5,-6.38 257,-6.38 257,-27.12"/>
<text text-anchor="middle" x="197.25" y="-13.62" font-family="Helvetica,sans-Serif" font-size="10.00">HandleMnsMessages</text>
</a>
</g>
</g>
<!-- Node1&#45;&gt;Node2 -->
<g id="edge1_Node000001_Node000002" class="edge">
<title>Node1&#45;&gt;Node2</title>
<g id="a_edge1_Node000001_Node000002"><a xlink:title=" ">
<path fill="none" stroke="#63b8ff" d="M281.13,-16.75C273.06,-16.75 265.03,-16.75 257.31,-16.75"/>
<polygon fill="#63b8ff" stroke="#63b8ff" points="281.02,-20.25 291.02,-16.75 281.02,-13.25 281.02,-20.25"/>
</a>
</g>
</g>
<!-- Node3 -->
<g id="Node000003" class="node">
<title>Node3</title>
<g id="a_Node000003"><a xlink:href="module_8c.html#a8e05ae271d378570de2cb6bbf3ca6b2d" target="_top" xlink:title=" ">
<polygon fill="white" stroke="#666666" points="101.5,-27.12 0,-27.12 0,-6.38 101.5,-6.38 101.5,-27.12"/>
<text text-anchor="middle" x="50.75" y="-13.62" font-family="Helvetica,sans-Serif" font-size="10.00">vlcb_module_Poll</text>
</a>
</g>
</g>
<!-- Node2&#45;&gt;Node3 -->
<g id="edge2_Node000002_Node000003" class="edge">
<title>Node2&#45;&gt;Node3</title>
<g id="a_edge2_Node000002_Node000003"><a xlink:title=" ">
<path fill="none" stroke="#63b8ff" d="M125.72,-16.75C117.66,-16.75 109.57,-16.75 101.85,-16.75"/>
<polygon fill="#63b8ff" stroke="#63b8ff" points="125.55,-20.25 135.55,-16.75 125.55,-13.25 125.55,-20.25"/>
</a>
</g>
</g>
</g>
</svg>
