<?xml version="1.0" encoding="UTF-8" standalone="no"?>
<!DOCTYPE svg PUBLIC "-//W3C//DTD SVG 1.1//EN"
 "http://www.w3.org/Graphics/SVG/1.1/DTD/svg11.dtd">
<!-- Generated by graphviz version 12.1.2 (20240928.0832)
 -->
<!-- Title: vlcb_module_Poll Pages: 1 -->
<svg width="1220pt" height="399pt"
 viewBox="0.00 0.00 1219.50 399.23" xmlns="http://www.w3.org/2000/svg" xmlns:xlink="http://www.w3.org/1999/xlink">
<g id="graph0" class="graph" transform="scale(1 1) rotate(0) translate(4 395.23)">
<title>vlcb_module_Poll</title>
<!-- Node1 -->
<g id="Node000001" class="node">
<title>Node1</title>
<g id="a_Node000001"><a xlink:title=" ">
<polygon fill="#999999" stroke="#666666" points="101.5,-189.12 0,-189.12 0,-168.38 101.5,-168.38 101.5,-189.12"/>
<text text-anchor="middle" x="50.75" y="-175.62" font-family="Helvetica,sans-Serif" font-size="10.00">vlcb_module_Poll</text>
</a>
</g>
</g>
<!-- Node2 -->
<g id="Node000002" class="node">
<title>Node2</title>
<g id="a_Node000002"><a xlink:href="module_8c.html#a7619749367a14232feaf0513698c63d8" target="_top" xlink:title=" ">
<polygon fill="white" stroke="#666666" points="454.5,-376.12 355.25,-376.12 355.25,-355.38 454.5,-355.38 454.5,-376.12"/>
<text text-anchor="middle" x="404.88" y="-362.62" font-family="Helvetica,sans-Serif" font-size="10.00">HandleHeartbeat</text>
</a>
</g>
</g>
<!-- Node1&#45;&gt;Node2 -->
<g id="edge1_Node000001_Node000002" class="edge">
<title>Node1&#45;&gt;Node2</title>
<g id="a_edge1_Node000001_Node000002"><a xlink:title=" ">
<path fill="none" stroke="#63b8ff" d="M72.2,-189.61C131.54,-221.12 303.94,-312.68 373.87,-349.82"/>
<polygon fill="#63b8ff" stroke="#63b8ff" points="371.99,-352.78 382.47,-354.38 375.28,-346.6 371.99,-352.78"/>
</a>
</g>
</g>
<!-- Node7 -->
<g id="Node000007" class="node">
<title>Node7</title>
<g id="a_Node000007"><a xlink:href="module_8c.html#a32ed02b26ffaed7947004cd1309f5847" target="_top" xlink:title=" ">
<polygon fill="white" stroke="#666666" points="272.75,-189.12 153.25,-189.12 153.25,-168.38 272.75,-168.38 272.75,-189.12"/>
<text text-anchor="middle" x="213" y="-175.62" font-family="Helvetica,sans-Serif" font-size="10.00">HandleMnsMessages</text>
</a>
</g>
</g>
<!-- Node1&#45;&gt;Node7 -->
<g id="edge6_Node000001_Node000007" class="edge">
<title>Node1&#45;&gt;Node7</title>
<g id="a_edge6_Node000001_Node000007"><a xlink:title=" ">
<path fill="none" stroke="#63b8ff" d="M101.58,-178.75C114.28,-178.75 128.18,-178.75 141.7,-178.75"/>
<polygon fill="#63b8ff" stroke="#63b8ff" points="141.41,-182.25 151.41,-178.75 141.41,-175.25 141.41,-182.25"/>
</a>
</g>
</g>
<!-- Node21 -->
<g id="Node000021" class="node">
<title>Node21</title>
<g id="a_Node000021"><a xlink:href="socket_2datagram_8c.html#a107d2d2542862f851d0fd20080b277cb" target="_top" xlink:title=" ">
<polygon fill="white" stroke="#666666" points="288.5,-89.12 137.5,-89.12 137.5,-68.38 288.5,-68.38 288.5,-89.12"/>
<text text-anchor="middle" x="213" y="-75.62" font-family="Helvetica,sans-Serif" font-size="10.00">vlcb_net_sock_dgram_Recv</text>
</a>
</g>
</g>
<!-- Node1&#45;&gt;Node21 -->
<g id="edge27_Node000001_Node000021" class="edge">
<title>Node1&#45;&gt;Node21</title>
<g id="a_edge27_Node000001_Node000021"><a xlink:title=" ">
<path fill="none" stroke="#63b8ff" d="M68.9,-168.05C96.85,-150.61 152.43,-115.93 185.49,-95.29"/>
<polygon fill="#63b8ff" stroke="#63b8ff" points="187.06,-98.44 193.69,-90.18 183.35,-92.5 187.06,-98.44"/>
</a>
</g>
</g>
<!-- Node3 -->
<g id="Node000003" class="node">
<title>Node3</title>
<g id="a_Node000003"><a xlink:href="socket_2datagram_8c.html#a7da610c48db02cd38212ef1545d00f00" target="_top" xlink:title=" ">
<polygon fill="white" stroke="#666666" points="1036.5,-251.12 885.5,-251.12 885.5,-230.38 1036.5,-230.38 1036.5,-251.12"/>
<text text-anchor="middle" x="961" y="-237.62" font-family="Helvetica,sans-Serif" font-size="10.00">vlcb_net_sock_dgram_Send</text>
</a>
</g>
</g>
<!-- Node2&#45;&gt;Node3 -->
<g id="edge2_Node000002_Node000003" class="edge">
<title>Node2&#45;&gt;Node3</title>
<g id="a_edge2_Node000002_Node000003"><a xlink:title=" ">
<path fill="none" stroke="#63b8ff" d="M454.93,-367.36C555.1,-369.97 779.58,-372.2 849.5,-342.75 891.16,-325.2 927.01,-284.73 945.86,-260.37"/>
<polygon fill="#63b8ff" stroke="#63b8ff" points="948.54,-262.63 951.74,-252.54 942.94,-258.43 948.54,-262.63"/>
</a>
</g>
</g>
<!-- Node5 -->
<g id="Node000005" class="node">
<title>Node5</title>
<g id="a_Node000005"><a xlink:href="socket_2datagram_8h.html#a396e9e0c1c9943bbb0cb52fe73967630" target="_top" xlink:title=" ">
<polygon fill="white" stroke="#666666" points="643.38,-340.5 521.62,-340.5 521.62,-307 643.38,-307 643.38,-340.5"/>
<text text-anchor="start" x="529.62" y="-327" font-family="Helvetica,sans-Serif" font-size="10.00">vlcb_net_sock_dgram</text>
<text text-anchor="middle" x="582.5" y="-314.25" font-family="Helvetica,sans-Serif" font-size="10.00">_SendErrToStr</text>
</a>
</g>
</g>
<!-- Node2&#45;&gt;Node5 -->
<g id="edge4_Node000002_Node000005" class="edge">
<title>Node2&#45;&gt;Node5</title>
<g id="a_edge4_Node000002_Node000005"><a xlink:title=" ">
<path fill="none" stroke="#63b8ff" d="M451.1,-354.93C469.11,-350.63 490.27,-345.57 510.25,-340.79"/>
<polygon fill="#63b8ff" stroke="#63b8ff" points="510.81,-344.25 519.72,-338.52 509.18,-337.45 510.81,-344.25"/>
</a>
</g>
</g>
<!-- Node6 -->
<g id="Node000006" class="node">
<title>Node6</title>
<g id="a_Node000006"><a xlink:href="time_8h.html#ab82b0190a9360bc97f1249408977c866" target="_top" xlink:title=" ">
<polygon fill="white" stroke="#666666" points="1016.62,-381.5 905.38,-381.5 905.38,-348 1016.62,-348 1016.62,-381.5"/>
<text text-anchor="start" x="913.38" y="-368" font-family="Helvetica,sans-Serif" font-size="10.00">vlcb_platform_time</text>
<text text-anchor="middle" x="961" y="-355.25" font-family="Helvetica,sans-Serif" font-size="10.00">_DiffInMs</text>
</a>
</g>
</g>
<!-- Node2&#45;&gt;Node6 -->
<g id="edge5_Node000002_Node000006" class="edge">
<title>Node2&#45;&gt;Node6</title>
<g id="a_edge5_Node000002_Node000006"><a xlink:title=" ">
<path fill="none" stroke="#63b8ff" d="M454.82,-374.58C475.28,-377.85 499.34,-381.14 521.25,-382.75 666.75,-393.41 704.09,-394.52 849.5,-382.75 864.01,-381.58 879.49,-379.55 894.13,-377.27"/>
<polygon fill="#63b8ff" stroke="#63b8ff" points="894.33,-380.78 903.64,-375.72 893.21,-373.87 894.33,-380.78"/>
</a>
</g>
</g>
<!-- Node4 -->
<g id="Node000004" class="node">
<title>Node4</title>
<g id="a_Node000004"><a xlink:href="packet__buf_8c.html#afa80d4fb078473100610ba106bd5cb46" target="_top" xlink:title=" ">
<polygon fill="white" stroke="#666666" points="1211.5,-251.12 1072.5,-251.12 1072.5,-230.38 1211.5,-230.38 1211.5,-251.12"/>
<text text-anchor="middle" x="1142" y="-237.62" font-family="Helvetica,sans-Serif" font-size="10.00">vlcb_net_packetbuf_Push</text>
</a>
</g>
</g>
<!-- Node3&#45;&gt;Node4 -->
<g id="edge3_Node000003_Node000004" class="edge">
<title>Node3&#45;&gt;Node4</title>
<g id="a_edge3_Node000003_Node000004"><a xlink:title=" ">
<path fill="none" stroke="#63b8ff" d="M1036.87,-240.75C1044.73,-240.75 1052.73,-240.75 1060.65,-240.75"/>
<polygon fill="#63b8ff" stroke="#63b8ff" points="1060.62,-244.25 1070.62,-240.75 1060.62,-237.25 1060.62,-244.25"/>
</a>
</g>
</g>
<!-- Node8 -->
<g id="Node000008" class="node">
<title>Node8</title>
<g id="a_Node000008"><a xlink:href="module_8c.html#abbdf441a7d8267aadf96102dc719cd2a" target="_top" xlink:title=" ">
<polygon fill="white" stroke="#666666" points="439.88,-66.12 369.88,-66.12 369.88,-45.38 439.88,-45.38 439.88,-66.12"/>
<text text-anchor="middle" x="404.88" y="-52.62" font-family="Helvetica,sans-Serif" font-size="10.00">AbortSetup</text>
</a>
</g>
</g>
<!-- Node7&#45;&gt;Node8 -->
<g id="edge7_Node000007_Node000008" class="edge">
<title>Node7&#45;&gt;Node8</title>
<g id="a_edge7_Node000007_Node000008"><a xlink:title=" ">
<path fill="none" stroke="#63b8ff" d="M222.18,-168.16C238.98,-147.17 279.58,-100.2 324.5,-75.75 335,-70.03 347.17,-65.92 358.78,-62.96"/>
<polygon fill="#63b8ff" stroke="#63b8ff" points="359.22,-66.45 368.19,-60.81 357.66,-59.63 359.22,-66.45"/>
</a>
</g>
</g>
<!-- Node14 -->
<g id="Node000014" class="node">
<title>Node14</title>
<g id="a_Node000014"><a xlink:href="module_8c.html#ad27d42d9eb11253063b80a2d3f12a792" target="_top" xlink:title=" ">
<polygon fill="white" stroke="#666666" points="477.38,-273.12 332.38,-273.12 332.38,-252.38 477.38,-252.38 477.38,-273.12"/>
<text text-anchor="middle" x="404.88" y="-259.62" font-family="Helvetica,sans-Serif" font-size="10.00">HandleQueryModuleName</text>
</a>
</g>
</g>
<!-- Node7&#45;&gt;Node14 -->
<g id="edge17_Node000007_Node000014" class="edge">
<title>Node7&#45;&gt;Node14</title>
<g id="a_edge17_Node000007_Node000014"><a xlink:title=" ">
<path fill="none" stroke="#63b8ff" d="M229.39,-189.53C250.12,-203.6 288.56,-228.15 324.5,-242.75 329.8,-244.9 335.39,-246.87 341.05,-248.66"/>
<polygon fill="#63b8ff" stroke="#63b8ff" points="339.93,-251.98 350.52,-251.46 341.92,-245.27 339.93,-251.98"/>
</a>
</g>
</g>
<!-- Node16 -->
<g id="Node000016" class="node">
<title>Node16</title>
<g id="a_Node000016"><a xlink:href="module_8c.html#a877cfd06d4e98451411f103b18df1c77" target="_top" xlink:title=" ">
<polygon fill="white" stroke="#666666" points="466.88,-234.12 342.88,-234.12 342.88,-213.38 466.88,-213.38 466.88,-234.12"/>
<text text-anchor="middle" x="404.88" y="-220.62" font-family="Helvetica,sans-Serif" font-size="10.00">HandleQueryNodeInfo</text>
</a>
</g>
</g>
<!-- Node7&#45;&gt;Node16 -->
<g id="edge19_Node000007_Node000016" class="edge">
<title>Node7&#45;&gt;Node16</title>
<g id="a_edge19_Node000007_Node000016"><a xlink:title=" ">
<path fill="none" stroke="#63b8ff" d="M259.48,-189.53C285.82,-195.77 319.22,-203.69 347.26,-210.33"/>
<polygon fill="#63b8ff" stroke="#63b8ff" points="346.1,-213.65 356.64,-212.55 347.71,-206.84 346.1,-213.65"/>
</a>
</g>
</g>
<!-- Node17 -->
<g id="Node000017" class="node">
<title>Node17</title>
<g id="a_Node000017"><a xlink:href="module_8c.html#ad4399b840bba2ff9c72a1c7956d4b033" target="_top" xlink:title=" ">
<polygon fill="white" stroke="#666666" points="482.62,-195.5 327.12,-195.5 327.12,-162 482.62,-162 482.62,-195.5"/>
<text text-anchor="start" x="335.12" y="-182" font-family="Helvetica,sans-Serif" font-size="10.00">HandleQueryNodeParameter</text>
<text text-anchor="middle" x="404.88" y="-169.25" font-family="Helvetica,sans-Serif" font-size="10.00">ByIndex</text>
</a>
</g>
</g>
<!-- Node7&#45;&gt;Node17 -->
<g id="edge20_Node000007_Node000017" class="edge">
<title>Node7&#45;&gt;Node17</title>
<g id="a_edge20_Node000007_Node000017"><a xlink:title=" ">
<path fill="none" stroke="#63b8ff" d="M273.04,-178.75C286.44,-178.75 300.96,-178.75 315.28,-178.75"/>
<polygon fill="#63b8ff" stroke="#63b8ff" points="315.19,-182.25 325.19,-178.75 315.19,-175.25 315.19,-182.25"/>
</a>
</g>
</g>
<!-- Node18 -->
<g id="Node000018" class="node">
<title>Node18</title>
<g id="a_Node000018"><a xlink:href="module_8c.html#a01dc6700d3926d16f6ebfb5e3611e6c2" target="_top" xlink:title=" ">
<polygon fill="white" stroke="#666666" points="485.25,-312.12 324.5,-312.12 324.5,-291.38 485.25,-291.38 485.25,-312.12"/>
<text text-anchor="middle" x="404.88" y="-298.62" font-family="Helvetica,sans-Serif" font-size="10.00">HandleQueryNodeParameters</text>
</a>
</g>
</g>
<!-- Node7&#45;&gt;Node18 -->
<g id="edge21_Node000007_Node000018" class="edge">
<title>Node7&#45;&gt;Node18</title>
<g id="a_edge21_Node000007_Node000018"><a xlink:title=" ">
<path fill="none" stroke="#63b8ff" d="M222.18,-189.34C238.98,-210.33 279.58,-257.3 324.5,-281.75 327.98,-283.64 331.63,-285.36 335.39,-286.92"/>
<polygon fill="#63b8ff" stroke="#63b8ff" points="334.18,-290.2 344.77,-290.37 336.6,-283.63 334.18,-290.2"/>
</a>
</g>
</g>
<!-- Node19 -->
<g id="Node000019" class="node">
<title>Node19</title>
<g id="a_Node000019"><a xlink:href="module_8c.html#a348f39a99d076c328cca26f3d5b55d48" target="_top" xlink:title=" ">
<polygon fill="white" stroke="#666666" points="467.25,-144.12 342.5,-144.12 342.5,-123.38 467.25,-123.38 467.25,-144.12"/>
<text text-anchor="middle" x="404.88" y="-130.62" font-family="Helvetica,sans-Serif" font-size="10.00">HandleRebootRequest</text>
</a>
</g>
</g>
<!-- Node7&#45;&gt;Node19 -->
<g id="edge25_Node000007_Node000019" class="edge">
<title>Node7&#45;&gt;Node19</title>
<g id="a_edge25_Node000007_Node000019"><a xlink:title=" ">
<path fill="none" stroke="#63b8ff" d="M259.48,-167.97C285.82,-161.73 319.22,-153.81 347.26,-147.17"/>
<polygon fill="#63b8ff" stroke="#63b8ff" points="347.71,-150.66 356.64,-144.95 346.1,-143.85 347.71,-150.66"/>
</a>
</g>
</g>
<!-- Node20 -->
<g id="Node000020" class="node">
<title>Node20</title>
<g id="a_Node000020"><a xlink:href="module_8c.html#ae7098558cb9399bcbfe5f9a51f9e9b36" target="_top" xlink:title=" ">
<polygon fill="white" stroke="#666666" points="470.25,-105.12 339.5,-105.12 339.5,-84.38 470.25,-84.38 470.25,-105.12"/>
<text text-anchor="middle" x="404.88" y="-91.62" font-family="Helvetica,sans-Serif" font-size="10.00">HandleSetNodeNumber</text>
</a>
</g>
</g>
<!-- Node7&#45;&gt;Node20 -->
<g id="edge26_Node000007_Node000020" class="edge">
<title>Node7&#45;&gt;Node20</title>
<g id="a_edge26_Node000007_Node000020"><a xlink:title=" ">
<path fill="none" stroke="#63b8ff" d="M229.39,-167.97C250.12,-153.9 288.56,-129.35 324.5,-114.75 329.8,-112.6 335.39,-110.63 341.05,-108.84"/>
<polygon fill="#63b8ff" stroke="#63b8ff" points="341.92,-112.23 350.52,-106.04 339.93,-105.52 341.92,-112.23"/>
</a>
</g>
</g>
<!-- Node9 -->
<g id="Node000009" class="node">
<title>Node9</title>
<g id="a_Node000009"><a xlink:href="state__machine_8c.html#a3d333fba19ed5ffbaabc4663ef9e2abc" target="_top" xlink:title=" ">
<polygon fill="white" stroke="#666666" points="626.88,-212.12 538.12,-212.12 538.12,-191.38 626.88,-191.38 626.88,-212.12"/>
<text text-anchor="middle" x="582.5" y="-198.62" font-family="Helvetica,sans-Serif" font-size="10.00">state_Dispatch</text>
</a>
</g>
</g>
<!-- Node8&#45;&gt;Node9 -->
<g id="edge8_Node000008_Node000009" class="edge">
<title>Node8&#45;&gt;Node9</title>
<g id="a_edge8_Node000008_Node000009"><a xlink:title=" ">
<path fill="none" stroke="#63b8ff" d="M440.35,-59.3C455.11,-62.07 471.96,-66.99 485.25,-75.75 526.04,-102.63 556.52,-152.78 571.39,-181.03"/>
<polygon fill="#63b8ff" stroke="#63b8ff" points="568.14,-182.34 575.79,-189.67 574.37,-179.17 568.14,-182.34"/>
</a>
</g>
</g>
<!-- Node10 -->
<g id="Node000010" class="node">
<title>Node10</title>
<g id="a_Node000010"><a xlink:href="state__machine_8c.html#a6c338e6311730773d98d58f8aa921012" target="_top" xlink:title=" ">
<polygon fill="white" stroke="#666666" points="829.25,-334.12 700,-334.12 700,-313.38 829.25,-313.38 829.25,-334.12"/>
<text text-anchor="middle" x="764.62" y="-320.62" font-family="Helvetica,sans-Serif" font-size="10.00">CheckForSetupTimeout</text>
</a>
</g>
</g>
<!-- Node9&#45;&gt;Node10 -->
<g id="edge9_Node000009_Node000010" class="edge">
<title>Node9&#45;&gt;Node10</title>
<g id="a_edge9_Node000009_Node000010"><a xlink:title=" ">
<path fill="none" stroke="#63b8ff" d="M625.24,-212.6C631.69,-215.12 638.08,-218.14 643.75,-221.75 663.38,-234.23 662.45,-244.2 679.75,-259.75 698.54,-276.64 721.43,-293.91 738.55,-306.24"/>
<polygon fill="#63b8ff" stroke="#63b8ff" points="736.48,-309.07 746.65,-312.02 740.54,-303.36 736.48,-309.07"/>
</a>
</g>
</g>
<!-- Node11 -->
<g id="Node000011" class="node">
<title>Node11</title>
<g id="a_Node000011"><a xlink:href="state__machine_8c.html#a219b685fd854a0765878acc44e9f3111" target="_top" xlink:title=" ">
<polygon fill="white" stroke="#666666" points="836.75,-173.12 692.5,-173.12 692.5,-152.38 836.75,-152.38 836.75,-173.12"/>
<text text-anchor="middle" x="764.62" y="-159.62" font-family="Helvetica,sans-Serif" font-size="10.00">HandleTransitionToNormal</text>
</a>
</g>
</g>
<!-- Node9&#45;&gt;Node11 -->
<g id="edge11_Node000009_Node000011" class="edge">
<title>Node9&#45;&gt;Node11</title>
<g id="a_edge11_Node000009_Node000011"><a xlink:title=" ">
<path fill="none" stroke="#63b8ff" d="M627.1,-192.31C649.68,-187.42 677.61,-181.37 702.32,-176.02"/>
<polygon fill="#63b8ff" stroke="#63b8ff" points="702.9,-179.48 711.93,-173.94 701.42,-172.64 702.9,-179.48"/>
</a>
</g>
</g>
<!-- Node12 -->
<g id="Node000012" class="node">
<title>Node12</title>
<g id="a_Node000012"><a xlink:href="state__machine_8c.html#a454533bb18a4f7d35e37e49479a0be7a" target="_top" xlink:title=" ">
<polygon fill="white" stroke="#666666" points="832.62,-251.12 696.62,-251.12 696.62,-230.38 832.62,-230.38 832.62,-251.12"/>
<text text-anchor="middle" x="764.62" y="-237.62" font-family="Helvetica,sans-Serif" font-size="10.00">HandleTransitionToSetup</text>
</a>
</g>
</g>
<!-- Node9&#45;&gt;Node12 -->
<g id="edge13_Node000009_Node000012" class="edge">
<title>Node9&#45;&gt;Node12</title>
<g id="a_edge13_Node000009_Node000012"><a xlink:title=" ">
<path fill="none" stroke="#63b8ff" d="M627.1,-211.19C649.68,-216.08 677.61,-222.13 702.32,-227.48"/>
<polygon fill="#63b8ff" stroke="#63b8ff" points="701.42,-230.86 711.93,-229.56 702.9,-224.02 701.42,-230.86"/>
</a>
</g>
</g>
<!-- Node13 -->
<g id="Node000013" class="node">
<title>Node13</title>
<g id="a_Node000013"><a xlink:href="state__machine_8c.html#a33506340e66a1f297917a2be79b70b0e" target="_top" xlink:title=" ">
<polygon fill="white" stroke="#666666" points="849.5,-212.12 679.75,-212.12 679.75,-191.38 849.5,-191.38 849.5,-212.12"/>
<text text-anchor="middle" x="764.62" y="-198.62" font-family="Helvetica,sans-Serif" font-size="10.00">HandleTransitionToUninitialized</text>
</a>
</g>
</g>
<!-- Node9&#45;&gt;Node13 -->
<g id="edge15_Node000009_Node000013" class="edge">
<title>Node9&#45;&gt;Node13</title>
<g id="a_edge15_Node000009_Node000013"><a xlink:title=" ">
<path fill="none" stroke="#63b8ff" d="M627.1,-201.75C639.59,-201.75 653.72,-201.75 668.04,-201.75"/>
<polygon fill="#63b8ff" stroke="#63b8ff" points="668.01,-205.25 678.01,-201.75 668.01,-198.25 668.01,-205.25"/>
</a>
</g>
</g>
<!-- Node10&#45;&gt;Node6 -->
<g id="edge10_Node000010_Node000006" class="edge">
<title>Node10&#45;&gt;Node6</title>
<g id="a_edge10_Node000010_Node000006"><a xlink:title=" ">
<path fill="none" stroke="#63b8ff" d="M816.95,-334.58C840.56,-339.56 868.86,-345.53 894.03,-350.84"/>
<polygon fill="#63b8ff" stroke="#63b8ff" points="892.99,-354.19 903.5,-352.83 894.43,-347.34 892.99,-354.19"/>
</a>
</g>
</g>
<!-- Node11&#45;&gt;Node3 -->
<g id="edge12_Node000011_Node000003" class="edge">
<title>Node11&#45;&gt;Node3</title>
<g id="a_edge12_Node000011_Node000003"><a xlink:title=" ">
<path fill="none" stroke="#63b8ff" d="M819.92,-173.6C829.89,-176.18 840.11,-179.23 849.5,-182.75 879.14,-193.86 910.94,-211.18 932.78,-224"/>
<polygon fill="#63b8ff" stroke="#63b8ff" points="930.96,-227 941.34,-229.11 934.55,-220.99 930.96,-227"/>
</a>
</g>
</g>
<!-- Node12&#45;&gt;Node3 -->
<g id="edge14_Node000012_Node000003" class="edge">
<title>Node12&#45;&gt;Node3</title>
<g id="a_edge14_Node000012_Node000003"><a xlink:title=" ">
<path fill="none" stroke="#63b8ff" d="M833.06,-240.75C846.17,-240.75 860.07,-240.75 873.69,-240.75"/>
<polygon fill="#63b8ff" stroke="#63b8ff" points="873.52,-244.25 883.52,-240.75 873.52,-237.25 873.52,-244.25"/>
</a>
</g>
</g>
<!-- Node13&#45;&gt;Node3 -->
<g id="edge16_Node000013_Node000003" class="edge">
<title>Node13&#45;&gt;Node3</title>
<g id="a_edge16_Node000013_Node000003"><a xlink:title=" ">
<path fill="none" stroke="#63b8ff" d="M819.77,-212.61C843.05,-217.28 870.46,-222.78 894.85,-227.68"/>
<polygon fill="#63b8ff" stroke="#63b8ff" points="893.83,-231.04 904.33,-229.58 895.21,-224.18 893.83,-231.04"/>
</a>
</g>
</g>
<!-- Node15 -->
<g id="Node000015" class="node">
<title>Node15</title>
<g id="a_Node000015"><a xlink:href="param_8c.html#a508584590ac967bad9531182ab9e451d" target="_top" xlink:title=" ">
<polygon fill="white" stroke="#666666" points="643.75,-251.12 521.25,-251.12 521.25,-230.38 643.75,-230.38 643.75,-251.12"/>
<text text-anchor="middle" x="582.5" y="-237.62" font-family="Helvetica,sans-Serif" font-size="10.00">ModuleParamGetByte</text>
</a>
</g>
</g>
<!-- Node14&#45;&gt;Node15 -->
<g id="edge18_Node000014_Node000015" class="edge">
<title>Node14&#45;&gt;Node15</title>
<g id="a_edge18_Node000014_Node000015"><a xlink:title=" ">
<path fill="none" stroke="#63b8ff" d="M477.82,-253.74C488.32,-252.42 499.14,-251.07 509.64,-249.75"/>
<polygon fill="#63b8ff" stroke="#63b8ff" points="509.89,-253.25 519.38,-248.53 509.02,-246.3 509.89,-253.25"/>
</a>
</g>
</g>
<!-- Node18&#45;&gt;Node3 -->
<g id="edge23_Node000018_Node000003" class="edge">
<title>Node18&#45;&gt;Node3</title>
<g id="a_edge23_Node000018_Node000003"><a xlink:title=" ">
<path fill="none" stroke="#63b8ff" d="M485.42,-296.05C574.36,-289.25 722.58,-276.64 849.5,-259.75 862.84,-257.97 877.04,-255.77 890.65,-253.5"/>
<polygon fill="#63b8ff" stroke="#63b8ff" points="891.15,-256.97 900.43,-251.84 889.98,-250.07 891.15,-256.97"/>
</a>
</g>
</g>
<!-- Node18&#45;&gt;Node5 -->
<g id="edge24_Node000018_Node000005" class="edge">
<title>Node18&#45;&gt;Node5</title>
<g id="a_edge24_Node000018_Node000005"><a xlink:title=" ">
<path fill="none" stroke="#63b8ff" d="M485.72,-311.75C493.85,-312.77 502.07,-313.8 510.1,-314.81"/>
<polygon fill="#63b8ff" stroke="#63b8ff" points="509.44,-318.25 519.8,-316.02 510.31,-311.31 509.44,-318.25"/>
</a>
</g>
</g>
<!-- Node18&#45;&gt;Node15 -->
<g id="edge22_Node000018_Node000015" class="edge">
<title>Node18&#45;&gt;Node15</title>
<g id="a_edge22_Node000018_Node000015"><a xlink:title=" ">
<path fill="none" stroke="#63b8ff" d="M455.02,-290.95C465.12,-288.29 475.62,-285.2 485.25,-281.75 501.91,-275.78 505.02,-271.81 521.25,-264.75 528.11,-261.77 535.46,-258.72 542.59,-255.84"/>
<polygon fill="#63b8ff" stroke="#63b8ff" points="543.75,-259.14 551.75,-252.18 541.16,-252.64 543.75,-259.14"/>
</a>
</g>
</g>
<!-- Node22 -->
<g id="Node000022" class="node">
<title>Node22</title>
<g id="a_Node000022"><a xlink:href="packet__buf_8c.html#a2ea3a27beac9f24f9dc6acdbfb28906c" target="_top" xlink:title=" ">
<polygon fill="white" stroke="#666666" points="471.75,-27.12 338,-27.12 338,-6.38 471.75,-6.38 471.75,-27.12"/>
<text text-anchor="middle" x="404.88" y="-13.62" font-family="Helvetica,sans-Serif" font-size="10.00">vlcb_net_packetbuf_Pop</text>
</a>
</g>
</g>
<!-- Node21&#45;&gt;Node22 -->
<g id="edge28_Node000021_Node000022" class="edge">
<title>Node21&#45;&gt;Node22</title>
<g id="a_edge28_Node000021_Node000022"><a xlink:title=" ">
<path fill="none" stroke="#63b8ff" d="M239.6,-68.05C261.81,-59 294.94,-46.06 324.5,-36.75 331.43,-34.57 338.76,-32.46 346.05,-30.48"/>
<polygon fill="#63b8ff" stroke="#63b8ff" points="346.79,-33.91 355.57,-27.98 345.01,-27.14 346.79,-33.91"/>
</a>
</g>
</g>
<!-- Node23 -->
<g id="Node000023" class="node">
<title>Node23</title>
<g id="a_Node000023"><a xlink:href="packet__buf_8c.html#a3901c362d723ea046af64e2b96ad24b6" target="_top" xlink:title=" ">
<polygon fill="white" stroke="#666666" points="637.75,-33.5 527.25,-33.5 527.25,0 637.75,0 637.75,-33.5"/>
<text text-anchor="start" x="535.25" y="-20" font-family="Helvetica,sans-Serif" font-size="10.00">vlcb_net_packetbuf</text>
<text text-anchor="middle" x="582.5" y="-7.25" font-family="Helvetica,sans-Serif" font-size="10.00">_IsEmpty</text>
</a>
</g>
</g>
<!-- Node22&#45;&gt;Node23 -->
<g id="edge29_Node000022_Node000023" class="edge">
<title>Node22&#45;&gt;Node23</title>
<g id="a_edge29_Node000022_Node000023"><a xlink:title=" ">
<path fill="none" stroke="#63b8ff" d="M472.02,-16.75C486.29,-16.75 501.38,-16.75 515.64,-16.75"/>
<polygon fill="#63b8ff" stroke="#63b8ff" points="515.35,-20.25 525.35,-16.75 515.35,-13.25 515.35,-20.25"/>
</a>
</g>
</g>
</g>
</svg>
