<?xml version="1.0" encoding="UTF-8" standalone="no"?>
<!DOCTYPE svg PUBLIC "-//W3C//DTD SVG 1.1//EN"
 "http://www.w3.org/Graphics/SVG/1.1/DTD/svg11.dtd">
<!-- Generated by graphviz version 12.1.2 (20240928.0832)
 -->
<!-- Title: HandleQueryNodeParameters Pages: 1 -->
<svg width="531pt" height="119pt"
 viewBox="0.00 0.00 530.75 119.12" xmlns="http://www.w3.org/2000/svg" xmlns:xlink="http://www.w3.org/1999/xlink">
<g id="graph0" class="graph" transform="scale(1 1) rotate(0) translate(4 115.12)">
<title>HandleQueryNodeParameters</title>
<!-- Node1 -->
<g id="Node000001" class="node">
<title>Node1</title>
<g id="a_Node000001"><a xlink:title=" ">
<polygon fill="#999999" stroke="#666666" points="160.75,-72.12 0,-72.12 0,-51.38 160.75,-51.38 160.75,-72.12"/>
<text text-anchor="middle" x="80.38" y="-58.62" font-family="Helvetica,sans-Serif" font-size="10.00">HandleQueryNodeParameters</text>
</a>
</g>
</g>
<!-- Node2 -->
<g id="Node000002" class="node">
<title>Node2</title>
<g id="a_Node000002"><a xlink:href="param_8c.html#a508584590ac967bad9531182ab9e451d" target="_top" xlink:title=" ">
<polygon fill="white" stroke="#666666" points="333.5,-111.12 211,-111.12 211,-90.38 333.5,-90.38 333.5,-111.12"/>
<text text-anchor="middle" x="272.25" y="-97.62" font-family="Helvetica,sans-Serif" font-size="10.00">ModuleParamGetByte</text>
</a>
</g>
</g>
<!-- Node1&#45;&gt;Node2 -->
<g id="edge1_Node000001_Node000002" class="edge">
<title>Node1&#45;&gt;Node2</title>
<g id="a_edge1_Node000001_Node000002"><a xlink:title=" ">
<path fill="none" stroke="#63b8ff" d="M134.27,-72.61C156.91,-77.26 183.54,-82.74 207.28,-87.61"/>
<polygon fill="#63b8ff" stroke="#63b8ff" points="206.33,-90.99 216.83,-89.57 207.74,-84.13 206.33,-90.99"/>
</a>
</g>
</g>
<!-- Node3 -->
<g id="Node000003" class="node">
<title>Node3</title>
<g id="a_Node000003"><a xlink:href="socket_2datagram_8c.html#a7da610c48db02cd38212ef1545d00f00" target="_top" xlink:title=" ">
<polygon fill="white" stroke="#666666" points="347.75,-72.12 196.75,-72.12 196.75,-51.38 347.75,-51.38 347.75,-72.12"/>
<text text-anchor="middle" x="272.25" y="-58.62" font-family="Helvetica,sans-Serif" font-size="10.00">vlcb_net_sock_dgram_Send</text>
</a>
</g>
</g>
<!-- Node1&#45;&gt;Node3 -->
<g id="edge2_Node000001_Node000003" class="edge">
<title>Node1&#45;&gt;Node3</title>
<g id="a_edge2_Node000001_Node000003"><a xlink:title=" ">
<path fill="none" stroke="#63b8ff" d="M161.07,-61.75C168.92,-61.75 176.9,-61.75 184.8,-61.75"/>
<polygon fill="#63b8ff" stroke="#63b8ff" points="184.79,-65.25 194.79,-61.75 184.79,-58.25 184.79,-65.25"/>
</a>
</g>
</g>
<!-- Node5 -->
<g id="Node000005" class="node">
<title>Node5</title>
<g id="a_Node000005"><a xlink:href="socket_2datagram_8h.html#a396e9e0c1c9943bbb0cb52fe73967630" target="_top" xlink:title=" ">
<polygon fill="white" stroke="#666666" points="333.12,-33.5 211.38,-33.5 211.38,0 333.12,0 333.12,-33.5"/>
<text text-anchor="start" x="219.38" y="-20" font-family="Helvetica,sans-Serif" font-size="10.00">vlcb_net_sock_dgram</text>
<text text-anchor="middle" x="272.25" y="-7.25" font-family="Helvetica,sans-Serif" font-size="10.00">_SendErrToStr</text>
</a>
</g>
</g>
<!-- Node1&#45;&gt;Node5 -->
<g id="edge4_Node000001_Node000005" class="edge">
<title>Node1&#45;&gt;Node5</title>
<g id="a_edge4_Node000001_Node000005"><a xlink:title=" ">
<path fill="none" stroke="#63b8ff" d="M126.85,-50.97C148.74,-45.79 175.48,-39.45 199.98,-33.64"/>
<polygon fill="#63b8ff" stroke="#63b8ff" points="200.66,-37.08 209.58,-31.36 199.05,-30.27 200.66,-37.08"/>
</a>
</g>
</g>
<!-- Node4 -->
<g id="Node000004" class="node">
<title>Node4</title>
<g id="a_Node000004"><a xlink:href="packet__buf_8c.html#afa80d4fb078473100610ba106bd5cb46" target="_top" xlink:title=" ">
<polygon fill="white" stroke="#666666" points="522.75,-72.12 383.75,-72.12 383.75,-51.38 522.75,-51.38 522.75,-72.12"/>
<text text-anchor="middle" x="453.25" y="-58.62" font-family="Helvetica,sans-Serif" font-size="10.00">vlcb_net_packetbuf_Push</text>
</a>
</g>
</g>
<!-- Node3&#45;&gt;Node4 -->
<g id="edge3_Node000003_Node000004" class="edge">
<title>Node3&#45;&gt;Node4</title>
<g id="a_edge3_Node000003_Node000004"><a xlink:title=" ">
<path fill="none" stroke="#63b8ff" d="M348.12,-61.75C355.98,-61.75 363.98,-61.75 371.9,-61.75"/>
<polygon fill="#63b8ff" stroke="#63b8ff" points="371.87,-65.25 381.87,-61.75 371.87,-58.25 371.87,-65.25"/>
</a>
</g>
</g>
</g>
</svg>
