<?xml version="1.0" encoding="UTF-8" standalone="no"?>
<!DOCTYPE svg PUBLIC "-//W3C//DTD SVG 1.1//EN"
 "http://www.w3.org/Graphics/SVG/1.1/DTD/svg11.dtd">
<!-- Generated by graphviz version 12.1.2 (20240928.0832)
 -->
<!-- Title: net.h Pages: 1 -->
<svg width="649pt" height="369pt"
 viewBox="0.00 0.00 649.08 369.25" xmlns="http://www.w3.org/2000/svg" xmlns:xlink="http://www.w3.org/1999/xlink">
<g id="graph0" class="graph" transform="scale(1 1) rotate(0) translate(4 365.25)">
<title>net.h</title>
<!-- Node1 -->
<g id="Node000001" class="node">
<title>Node1</title>
<g id="a_Node000001"><a xlink:title=" ">
<polygon fill="#999999" stroke="#666666" points="366.96,-361.25 326.21,-361.25 326.21,-340.5 366.96,-340.5 366.96,-361.25"/>
<text text-anchor="middle" x="346.58" y="-347.75" font-family="Helvetica,sans-Serif" font-size="10.00">net.h</text>
</a>
</g>
</g>
<!-- Node2 -->
<g id="Node000002" class="node">
<title>Node2</title>
<g id="a_Node000002"><a xlink:href="iface_8h.html" target="_top" xlink:title=" ">
<polygon fill="white" stroke="#666666" points="349.46,-304.5 281.71,-304.5 281.71,-283.75 349.46,-283.75 349.46,-304.5"/>
<text text-anchor="middle" x="315.58" y="-291" font-family="Helvetica,sans-Serif" font-size="10.00">net/iface.h</text>
</a>
</g>
</g>
<!-- Node1&#45;&gt;Node2 -->
<g id="edge1_Node000001_Node000002" class="edge">
<title>Node1&#45;&gt;Node2</title>
<g id="a_edge1_Node000001_Node000002"><a xlink:title=" ">
<path fill="none" stroke="#63b8ff" d="M341.04,-340.09C337.07,-333.08 331.6,-323.41 326.74,-314.83"/>
<polygon fill="#63b8ff" stroke="#63b8ff" points="329.8,-313.12 321.82,-306.15 323.7,-316.57 329.8,-313.12"/>
</a>
</g>
</g>
<!-- Node14 -->
<g id="Node000014" class="node">
<title>Node14</title>
<g id="a_Node000014"><a xlink:href="socket_8h.html" target="_top" xlink:title=" ">
<polygon fill="white" stroke="#666666" points="413.83,-247.75 357.33,-247.75 357.33,-227 413.83,-227 413.83,-247.75"/>
<text text-anchor="middle" x="385.58" y="-234.25" font-family="Helvetica,sans-Serif" font-size="10.00">socket.h</text>
</a>
</g>
</g>
<!-- Node1&#45;&gt;Node14 -->
<g id="edge27_Node000001_Node000014" class="edge">
<title>Node1&#45;&gt;Node14</title>
<g id="a_edge27_Node000001_Node000014"><a xlink:title=" ">
<path fill="none" stroke="#63b8ff" d="M349.91,-340.37C356.18,-322.44 369.89,-283.25 378.37,-259.01"/>
<polygon fill="#63b8ff" stroke="#63b8ff" points="381.66,-260.2 381.66,-249.6 375.05,-257.89 381.66,-260.2"/>
</a>
</g>
</g>
<!-- Node3 -->
<g id="Node000003" class="node">
<title>Node3</title>
<g id="a_Node000003"><a xlink:title=" ">
<polygon fill="#e0e0e0" stroke="#999999" points="117.08,-77.5 56.08,-77.5 56.08,-56.75 117.08,-56.75 117.08,-77.5"/>
<text text-anchor="middle" x="86.58" y="-64" font-family="Helvetica,sans-Serif" font-size="10.00">stdbool.h</text>
</a>
</g>
</g>
<!-- Node2&#45;&gt;Node3 -->
<g id="edge2_Node000002_Node000003" class="edge">
<title>Node2&#45;&gt;Node3</title>
<g id="a_edge2_Node000002_Node000003"><a xlink:title=" ">
<path fill="none" stroke="#63b8ff" d="M281.44,-293.73C215.19,-292.82 70.1,-280.18 5.58,-191 -5.48,-175.71 2.19,-134.83 16.58,-113.5 25.28,-100.62 38.98,-90.56 51.97,-83.23"/>
<polygon fill="#63b8ff" stroke="#63b8ff" points="53.54,-86.36 60.78,-78.63 50.3,-80.15 53.54,-86.36"/>
</a>
</g>
</g>
<!-- Node4 -->
<g id="Node000004" class="node">
<title>Node4</title>
<g id="a_Node000004"><a xlink:href="adapter_8h.html" target="_top" xlink:title=" ">
<polygon fill="white" stroke="#666666" points="339.46,-247.75 277.71,-247.75 277.71,-227 339.46,-227 339.46,-247.75"/>
<text text-anchor="middle" x="308.58" y="-234.25" font-family="Helvetica,sans-Serif" font-size="10.00">adapter.h</text>
</a>
</g>
</g>
<!-- Node2&#45;&gt;Node4 -->
<g id="edge3_Node000002_Node000004" class="edge">
<title>Node2&#45;&gt;Node4</title>
<g id="a_edge3_Node000002_Node000004"><a xlink:title=" ">
<path fill="none" stroke="#63b8ff" d="M314.33,-283.34C313.48,-276.64 312.31,-267.51 311.25,-259.23"/>
<polygon fill="#63b8ff" stroke="#63b8ff" points="314.76,-259.06 310.02,-249.58 307.81,-259.94 314.76,-259.06"/>
</a>
</g>
</g>
<!-- Node2&#45;&gt;Node14 -->
<g id="edge19_Node000002_Node000014" class="edge">
<title>Node2&#45;&gt;Node14</title>
<g id="a_edge19_Node000002_Node000014"><a xlink:title=" ">
<path fill="none" stroke="#63b8ff" d="M328.1,-283.34C338.15,-275.47 352.5,-264.25 364.34,-254.99"/>
<polygon fill="#63b8ff" stroke="#63b8ff" points="366.26,-257.93 371.99,-249.01 361.95,-252.41 366.26,-257.93"/>
</a>
</g>
</g>
<!-- Node4&#45;&gt;Node3 -->
<g id="edge5_Node000004_Node000003" class="edge">
<title>Node4&#45;&gt;Node3</title>
<g id="a_edge5_Node000004_Node000003"><a xlink:title=" ">
<path fill="none" stroke="#63b8ff" d="M277.27,-236.36C209.29,-235.6 51.63,-229.62 18.58,-191 -10.02,-157.57 35.5,-110.21 64.85,-85.17"/>
<polygon fill="#63b8ff" stroke="#63b8ff" points="67.04,-87.9 72.53,-78.84 62.59,-82.5 67.04,-87.9"/>
</a>
</g>
</g>
<!-- Node5 -->
<g id="Node000005" class="node">
<title>Node5</title>
<g id="a_Node000005"><a xlink:title=" ">
<polygon fill="#e0e0e0" stroke="#999999" points="339.96,-77.5 275.21,-77.5 275.21,-56.75 339.96,-56.75 339.96,-77.5"/>
<text text-anchor="middle" x="307.58" y="-64" font-family="Helvetica,sans-Serif" font-size="10.00">inttypes.h</text>
</a>
</g>
</g>
<!-- Node4&#45;&gt;Node5 -->
<g id="edge4_Node000004_Node000005" class="edge">
<title>Node4&#45;&gt;Node5</title>
<g id="a_edge4_Node000004_Node000005"><a xlink:title=" ">
<path fill="none" stroke="#63b8ff" d="M308.53,-226.85C308.37,-200.48 307.93,-126.08 307.71,-89.28"/>
<polygon fill="#63b8ff" stroke="#63b8ff" points="311.21,-89.46 307.65,-79.48 304.21,-89.5 311.21,-89.46"/>
</a>
</g>
</g>
<!-- Node6 -->
<g id="Node000006" class="node">
<title>Node6</title>
<g id="a_Node000006"><a xlink:href="error_8h.html" target="_top" xlink:title=" ">
<polygon fill="white" stroke="#666666" points="537.46,-134.25 421.71,-134.25 421.71,-113.5 537.46,-113.5 537.46,-134.25"/>
<text text-anchor="middle" x="479.58" y="-120.75" font-family="Helvetica,sans-Serif" font-size="10.00">vlcb/platform/error.h</text>
</a>
</g>
</g>
<!-- Node4&#45;&gt;Node6 -->
<g id="edge6_Node000004_Node000006" class="edge">
<title>Node4&#45;&gt;Node6</title>
<g id="a_edge6_Node000004_Node000006"><a xlink:title=" ">
<path fill="none" stroke="#63b8ff" d="M339.87,-227.53C372.04,-218.02 419.52,-202.68 434.58,-191 450.5,-178.66 462.83,-159.08 470.52,-144.42"/>
<polygon fill="#63b8ff" stroke="#63b8ff" points="473.52,-146.25 474.81,-135.73 467.25,-143.15 473.52,-146.25"/>
</a>
</g>
</g>
<!-- Node7 -->
<g id="Node000007" class="node">
<title>Node7</title>
<g id="a_Node000007"><a xlink:href="interface_8h.html" target="_top" xlink:title=" ">
<polygon fill="white" stroke="#666666" points="617.96,-191 481.21,-191 481.21,-170.25 617.96,-170.25 617.96,-191"/>
<text text-anchor="middle" x="549.58" y="-177.5" font-family="Helvetica,sans-Serif" font-size="10.00">vlcb/platform/interface.h</text>
</a>
</g>
</g>
<!-- Node4&#45;&gt;Node7 -->
<g id="edge7_Node000004_Node000007" class="edge">
<title>Node4&#45;&gt;Node7</title>
<g id="a_edge7_Node000004_Node000007"><a xlink:title=" ">
<path fill="none" stroke="#63b8ff" d="M339.59,-229.08C342.63,-228.38 345.66,-227.67 348.58,-227 397.87,-215.66 454.02,-203.01 494.42,-193.95"/>
<polygon fill="#63b8ff" stroke="#63b8ff" points="495.17,-197.37 504.17,-191.77 493.64,-190.54 495.17,-197.37"/>
</a>
</g>
</g>
<!-- Node9 -->
<g id="Node000009" class="node">
<title>Node9</title>
<g id="a_Node000009"><a xlink:href="packet_8h.html" target="_top" xlink:title=" ">
<polygon fill="white" stroke="#666666" points="145.58,-191 27.58,-191 27.58,-170.25 145.58,-170.25 145.58,-191"/>
<text text-anchor="middle" x="86.58" y="-177.5" font-family="Helvetica,sans-Serif" font-size="10.00">adapter/can/packet.h</text>
</a>
</g>
</g>
<!-- Node4&#45;&gt;Node9 -->
<g id="edge9_Node000004_Node000009" class="edge">
<title>Node4&#45;&gt;Node9</title>
<g id="a_edge9_Node000004_Node000009"><a xlink:title=" ">
<path fill="none" stroke="#63b8ff" d="M277.25,-228.65C240.93,-219.69 180.57,-204.8 137.49,-194.18"/>
<polygon fill="#63b8ff" stroke="#63b8ff" points="138.4,-190.8 127.86,-191.8 136.73,-197.6 138.4,-190.8"/>
</a>
</g>
</g>
<!-- Node13 -->
<g id="Node000013" class="node">
<title>Node13</title>
<g id="a_Node000013"><a xlink:href="addr_8h.html" target="_top" xlink:title=" ">
<polygon fill="white" stroke="#666666" points="251.58,-191 163.58,-191 163.58,-170.25 251.58,-170.25 251.58,-191"/>
<text text-anchor="middle" x="207.58" y="-177.5" font-family="Helvetica,sans-Serif" font-size="10.00">vlcb/net/addr.h</text>
</a>
</g>
</g>
<!-- Node4&#45;&gt;Node13 -->
<g id="edge17_Node000004_Node000013" class="edge">
<title>Node4&#45;&gt;Node13</title>
<g id="a_edge17_Node000004_Node000013"><a xlink:title=" ">
<path fill="none" stroke="#63b8ff" d="M290.53,-226.59C275.16,-218.26 252.84,-206.16 235.22,-196.61"/>
<polygon fill="#63b8ff" stroke="#63b8ff" points="237.27,-193.74 226.81,-192.05 233.94,-199.89 237.27,-193.74"/>
</a>
</g>
</g>
<!-- Node8 -->
<g id="Node000008" class="node">
<title>Node8</title>
<g id="a_Node000008"><a xlink:title=" ">
<polygon fill="#e0e0e0" stroke="#999999" points="641.08,-134.25 586.08,-134.25 586.08,-113.5 641.08,-113.5 641.08,-134.25"/>
<text text-anchor="middle" x="613.58" y="-120.75" font-family="Helvetica,sans-Serif" font-size="10.00">stddef.h</text>
</a>
</g>
</g>
<!-- Node7&#45;&gt;Node8 -->
<g id="edge8_Node000007_Node000008" class="edge">
<title>Node7&#45;&gt;Node8</title>
<g id="a_edge8_Node000007_Node000008"><a xlink:title=" ">
<path fill="none" stroke="#63b8ff" d="M561.03,-169.84C570.04,-162.13 582.82,-151.2 593.52,-142.04"/>
<polygon fill="#63b8ff" stroke="#63b8ff" points="595.77,-144.72 601.09,-135.56 591.22,-139.4 595.77,-144.72"/>
</a>
</g>
</g>
<!-- Node9&#45;&gt;Node3 -->
<g id="edge10_Node000009_Node000003" class="edge">
<title>Node9&#45;&gt;Node3</title>
<g id="a_edge10_Node000009_Node000003"><a xlink:title=" ">
<path fill="none" stroke="#63b8ff" d="M86.58,-170.12C86.58,-152.35 86.58,-113.72 86.58,-89.43"/>
<polygon fill="#63b8ff" stroke="#63b8ff" points="90.08,-89.44 86.58,-79.44 83.08,-89.44 90.08,-89.44"/>
</a>
</g>
</g>
<!-- Node10 -->
<g id="Node000010" class="node">
<title>Node10</title>
<g id="a_Node000010"><a xlink:href="common_2inc_2vlcb_2common_2can_8h.html" target="_top" xlink:title=" ">
<polygon fill="white" stroke="#666666" points="289.21,-134.25 177.96,-134.25 177.96,-113.5 289.21,-113.5 289.21,-134.25"/>
<text text-anchor="middle" x="233.58" y="-120.75" font-family="Helvetica,sans-Serif" font-size="10.00">vlcb/common/can.h</text>
</a>
</g>
</g>
<!-- Node9&#45;&gt;Node10 -->
<g id="edge11_Node000009_Node000010" class="edge">
<title>Node9&#45;&gt;Node10</title>
<g id="a_edge11_Node000009_Node000010"><a xlink:title=" ">
<path fill="none" stroke="#63b8ff" d="M112.86,-169.84C136.28,-161.12 170.77,-148.27 196.9,-138.54"/>
<polygon fill="#63b8ff" stroke="#63b8ff" points="197.96,-141.88 206.11,-135.11 195.52,-135.32 197.96,-141.88"/>
</a>
</g>
</g>
<!-- Node10&#45;&gt;Node3 -->
<g id="edge13_Node000010_Node000003" class="edge">
<title>Node10&#45;&gt;Node3</title>
<g id="a_edge13_Node000010_Node000003"><a xlink:title=" ">
<path fill="none" stroke="#63b8ff" d="M207.3,-113.09C183.89,-104.37 149.39,-91.52 123.27,-81.79"/>
<polygon fill="#63b8ff" stroke="#63b8ff" points="124.65,-78.57 114.06,-78.36 122.2,-85.13 124.65,-78.57"/>
</a>
</g>
</g>
<!-- Node10&#45;&gt;Node5 -->
<g id="edge12_Node000010_Node000005" class="edge">
<title>Node10&#45;&gt;Node5</title>
<g id="a_edge12_Node000010_Node000005"><a xlink:title=" ">
<path fill="none" stroke="#63b8ff" d="M246.81,-113.09C257.55,-105.15 272.91,-93.78 285.5,-84.46"/>
<polygon fill="#63b8ff" stroke="#63b8ff" points="287.29,-87.49 293.25,-78.73 283.13,-81.86 287.29,-87.49"/>
</a>
</g>
</g>
<!-- Node11 -->
<g id="Node000011" class="node">
<title>Node11</title>
<g id="a_Node000011"><a xlink:title=" ">
<polygon fill="#e0e0e0" stroke="#999999" points="339.96,-20.75 287.21,-20.75 287.21,0 339.96,0 339.96,-20.75"/>
<text text-anchor="middle" x="313.58" y="-7.25" font-family="Helvetica,sans-Serif" font-size="10.00">stdint.h</text>
</a>
</g>
</g>
<!-- Node10&#45;&gt;Node11 -->
<g id="edge14_Node000010_Node000011" class="edge">
<title>Node10&#45;&gt;Node11</title>
<g id="a_edge14_Node000010_Node000011"><a xlink:title=" ">
<path fill="none" stroke="#63b8ff" d="M237.15,-113.33C242.4,-99.94 253.07,-75.16 266.58,-56.75 274.05,-46.57 283.91,-36.66 292.67,-28.72"/>
<polygon fill="#63b8ff" stroke="#63b8ff" points="294.89,-31.43 300.12,-22.21 290.29,-26.16 294.89,-31.43"/>
</a>
</g>
</g>
<!-- Node12 -->
<g id="Node000012" class="node">
<title>Node12</title>
<g id="a_Node000012"><a xlink:href="opcode_8h.html" target="_top" xlink:title=" ">
<polygon fill="white" stroke="#666666" points="418.71,-77.5 358.46,-77.5 358.46,-56.75 418.71,-56.75 418.71,-77.5"/>
<text text-anchor="middle" x="388.58" y="-64" font-family="Helvetica,sans-Serif" font-size="10.00">opcode.h</text>
</a>
</g>
</g>
<!-- Node10&#45;&gt;Node12 -->
<g id="edge15_Node000010_Node000012" class="edge">
<title>Node10&#45;&gt;Node12</title>
<g id="a_edge15_Node000010_Node000012"><a xlink:title=" ">
<path fill="none" stroke="#63b8ff" d="M261.29,-113.09C286.01,-104.36 322.45,-91.48 350.02,-81.75"/>
<polygon fill="#63b8ff" stroke="#63b8ff" points="351.16,-85.06 359.42,-78.42 348.83,-78.46 351.16,-85.06"/>
</a>
</g>
</g>
<!-- Node12&#45;&gt;Node11 -->
<g id="edge16_Node000012_Node000011" class="edge">
<title>Node12&#45;&gt;Node11</title>
<g id="a_edge16_Node000012_Node000011"><a xlink:title=" ">
<path fill="none" stroke="#63b8ff" d="M375.18,-56.34C364.3,-48.4 348.73,-37.03 335.96,-27.71"/>
<polygon fill="#63b8ff" stroke="#63b8ff" points="338.24,-25.04 328.1,-21.97 334.11,-30.69 338.24,-25.04"/>
</a>
</g>
</g>
<!-- Node13&#45;&gt;Node10 -->
<g id="edge18_Node000013_Node000010" class="edge">
<title>Node13&#45;&gt;Node10</title>
<g id="a_edge18_Node000013_Node000010"><a xlink:title=" ">
<path fill="none" stroke="#63b8ff" d="M212.23,-169.84C215.52,-162.91 220.05,-153.37 224.09,-144.86"/>
<polygon fill="#63b8ff" stroke="#63b8ff" points="227.2,-146.48 228.33,-135.95 220.87,-143.48 227.2,-146.48"/>
</a>
</g>
</g>
<!-- Node14&#45;&gt;Node3 -->
<g id="edge20_Node000014_Node000003" class="edge">
<title>Node14&#45;&gt;Node3</title>
<g id="a_edge20_Node000014_Node000003"><a xlink:title=" ">
<path fill="none" stroke="#63b8ff" d="M368.5,-226.54C344.72,-213.04 300.09,-188.36 260.58,-170.25 220.67,-151.95 206.56,-156.29 168.58,-134.25 144.78,-120.44 120.63,-100.02 104.77,-85.53"/>
<polygon fill="#63b8ff" stroke="#63b8ff" points="107.26,-83.07 97.55,-78.81 102.48,-88.19 107.26,-83.07"/>
</a>
</g>
</g>
<!-- Node14&#45;&gt;Node7 -->
<g id="edge26_Node000014_Node000007" class="edge">
<title>Node14&#45;&gt;Node7</title>
<g id="a_edge26_Node000014_Node000007"><a xlink:title=" ">
<path fill="none" stroke="#63b8ff" d="M414.15,-226.84C440.52,-218.04 479.94,-204.88 509.46,-195.02"/>
<polygon fill="#63b8ff" stroke="#63b8ff" points="510.43,-198.39 518.8,-191.9 508.21,-191.75 510.43,-198.39"/>
</a>
</g>
</g>
<!-- Node14&#45;&gt;Node8 -->
<g id="edge21_Node000014_Node000008" class="edge">
<title>Node14&#45;&gt;Node8</title>
<g id="a_edge21_Node000014_Node000008"><a xlink:title=" ">
<path fill="none" stroke="#63b8ff" d="M414.26,-235.38C472.18,-232.7 599.88,-223.2 626.58,-191 637.3,-178.08 631.92,-158.88 625.13,-144.49"/>
<polygon fill="#63b8ff" stroke="#63b8ff" points="628.38,-143.15 620.6,-135.95 622.19,-146.43 628.38,-143.15"/>
</a>
</g>
</g>
<!-- Node15 -->
<g id="Node000015" class="node">
<title>Node15</title>
<g id="a_Node000015"><a xlink:href="vlcb_8h.html" target="_top" xlink:title=" ">
<polygon fill="white" stroke="#666666" points="425.83,-191 345.33,-191 345.33,-170.25 425.83,-170.25 425.83,-191"/>
<text text-anchor="middle" x="385.58" y="-177.5" font-family="Helvetica,sans-Serif" font-size="10.00">packet/vlcb.h</text>
</a>
</g>
</g>
<!-- Node14&#45;&gt;Node15 -->
<g id="edge22_Node000014_Node000015" class="edge">
<title>Node14&#45;&gt;Node15</title>
<g id="a_edge22_Node000014_Node000015"><a xlink:title=" ">
<path fill="none" stroke="#63b8ff" d="M385.58,-226.59C385.58,-219.97 385.58,-210.97 385.58,-202.77"/>
<polygon fill="#63b8ff" stroke="#63b8ff" points="389.08,-202.84 385.58,-192.84 382.08,-202.84 389.08,-202.84"/>
</a>
</g>
</g>
<!-- Node15&#45;&gt;Node5 -->
<g id="edge23_Node000015_Node000005" class="edge">
<title>Node15&#45;&gt;Node5</title>
<g id="a_edge23_Node000015_Node000005"><a xlink:title=" ">
<path fill="none" stroke="#63b8ff" d="M378.93,-170.12C366.1,-151.78 337.72,-111.2 320.87,-87.12"/>
<polygon fill="#63b8ff" stroke="#63b8ff" points="323.91,-85.35 315.31,-79.17 318.17,-89.37 323.91,-85.35"/>
</a>
</g>
</g>
<!-- Node15&#45;&gt;Node6 -->
<g id="edge25_Node000015_Node000006" class="edge">
<title>Node15&#45;&gt;Node6</title>
<g id="a_edge25_Node000015_Node000006"><a xlink:title=" ">
<path fill="none" stroke="#63b8ff" d="M402.39,-169.84C416.56,-161.58 437.08,-149.63 453.4,-140.13"/>
<polygon fill="#63b8ff" stroke="#63b8ff" points="454.74,-143.4 461.62,-135.34 451.21,-137.35 454.74,-143.4"/>
</a>
</g>
</g>
<!-- Node15&#45;&gt;Node12 -->
<g id="edge24_Node000015_Node000012" class="edge">
<title>Node15&#45;&gt;Node12</title>
<g id="a_edge24_Node000015_Node000012"><a xlink:title=" ">
<path fill="none" stroke="#63b8ff" d="M385.84,-170.12C386.32,-152.35 387.36,-113.72 388.01,-89.43"/>
<polygon fill="#63b8ff" stroke="#63b8ff" points="391.51,-89.53 388.28,-79.44 384.51,-89.34 391.51,-89.53"/>
</a>
</g>
</g>
</g>
</svg>
