<?xml version="1.0" encoding="UTF-8" standalone="no"?>
<!DOCTYPE svg PUBLIC "-//W3C//DTD SVG 1.1//EN"
 "http://www.w3.org/Graphics/SVG/1.1/DTD/svg11.dtd">
<!-- Generated by graphviz version 12.1.2 (20240928.0832)
 -->
<!-- Title: module.h Pages: 1 -->
<svg width="759pt" height="199pt"
 viewBox="0.00 0.00 758.50 199.00" xmlns="http://www.w3.org/2000/svg" xmlns:xlink="http://www.w3.org/1999/xlink">
<g id="graph0" class="graph" transform="scale(1 1) rotate(0) translate(4 195)">
<title>module.h</title>
<!-- Node1 -->
<g id="Node000001" class="node">
<title>Node1</title>
<g id="a_Node000001"><a xlink:title=" ">
<polygon fill="#999999" stroke="#666666" points="428.25,-191 366.5,-191 366.5,-170.25 428.25,-170.25 428.25,-191"/>
<text text-anchor="middle" x="397.38" y="-177.5" font-family="Helvetica,sans-Serif" font-size="10.00">module.h</text>
</a>
</g>
</g>
<!-- Node2 -->
<g id="Node000002" class="node">
<title>Node2</title>
<g id="a_Node000002"><a xlink:href="common_2inc_2vlcb_2common_2module_8h.html" target="_top" xlink:title=" ">
<polygon fill="white" stroke="#666666" points="130.75,-77.5 0,-77.5 0,-56.75 130.75,-56.75 130.75,-77.5"/>
<text text-anchor="middle" x="65.38" y="-64" font-family="Helvetica,sans-Serif" font-size="10.00">vlcb/common/module.h</text>
</a>
</g>
</g>
<!-- Node1&#45;&gt;Node2 -->
<g id="edge1_Node000001_Node000002" class="edge">
<title>Node1&#45;&gt;Node2</title>
<g id="a_edge1_Node000001_Node000002"><a xlink:title=" ">
<path fill="none" stroke="#63b8ff" d="M366.13,-173.05C330.62,-165.23 271.14,-151.11 221.38,-134.25 176.76,-119.14 126.93,-97.06 95.86,-82.64"/>
<polygon fill="#63b8ff" stroke="#63b8ff" points="97.6,-79.6 87.06,-78.53 94.64,-85.94 97.6,-79.6"/>
</a>
</g>
</g>
<!-- Node3 -->
<g id="Node000003" class="node">
<title>Node3</title>
<g id="a_Node000003"><a xlink:title=" ">
<polygon fill="#e0e0e0" stroke="#999999" points="245.75,-20.75 193,-20.75 193,0 245.75,0 245.75,-20.75"/>
<text text-anchor="middle" x="219.38" y="-7.25" font-family="Helvetica,sans-Serif" font-size="10.00">stdint.h</text>
</a>
</g>
</g>
<!-- Node1&#45;&gt;Node3 -->
<g id="edge12_Node000001_Node000003" class="edge">
<title>Node1&#45;&gt;Node3</title>
<g id="a_edge12_Node000001_Node000003"><a xlink:title=" ">
<path fill="none" stroke="#63b8ff" d="M428.71,-179.75C462.73,-178 515.64,-169.34 541.38,-134.25 559.25,-109.87 528.56,-67.31 514.38,-56.75 474.39,-27 327.92,-16.34 257.58,-12.88"/>
<polygon fill="#63b8ff" stroke="#63b8ff" points="257.83,-9.39 247.68,-12.42 257.51,-16.38 257.83,-9.39"/>
</a>
</g>
</g>
<!-- Node4 -->
<g id="Node000004" class="node">
<title>Node4</title>
<g id="a_Node000004"><a xlink:href="node_8h.html" target="_top" xlink:title=" ">
<polygon fill="white" stroke="#666666" points="532.38,-134.25 414.38,-134.25 414.38,-113.5 532.38,-113.5 532.38,-134.25"/>
<text text-anchor="middle" x="473.38" y="-120.75" font-family="Helvetica,sans-Serif" font-size="10.00">vlcb/common/node.h</text>
</a>
</g>
</g>
<!-- Node1&#45;&gt;Node4 -->
<g id="edge3_Node000001_Node000004" class="edge">
<title>Node1&#45;&gt;Node4</title>
<g id="a_edge3_Node000001_Node000004"><a xlink:title=" ">
<path fill="none" stroke="#63b8ff" d="M410.96,-169.84C421.99,-161.9 437.76,-150.53 450.7,-141.21"/>
<polygon fill="#63b8ff" stroke="#63b8ff" points="452.61,-144.15 458.68,-135.46 448.52,-138.47 452.61,-144.15"/>
</a>
</g>
</g>
<!-- Node6 -->
<g id="Node000006" class="node">
<title>Node6</title>
<g id="a_Node000006"><a xlink:href="vlcb__defs_8h.html" target="_top" xlink:title=" ">
<polygon fill="white" stroke="#666666" points="289.62,-77.5 149.12,-77.5 149.12,-56.75 289.62,-56.75 289.62,-77.5"/>
<text text-anchor="middle" x="219.38" y="-64" font-family="Helvetica,sans-Serif" font-size="10.00">vlcb/common/vlcb_defs.h</text>
</a>
</g>
</g>
<!-- Node1&#45;&gt;Node6 -->
<g id="edge5_Node000001_Node000006" class="edge">
<title>Node1&#45;&gt;Node6</title>
<g id="a_edge5_Node000001_Node000006"><a xlink:title=" ">
<path fill="none" stroke="#63b8ff" d="M366.07,-179.47C330.08,-177.55 271.59,-168.83 237.38,-134.25 225.6,-122.35 221.33,-103.54 219.87,-89.02"/>
<polygon fill="#63b8ff" stroke="#63b8ff" points="223.37,-88.93 219.29,-79.16 216.39,-89.35 223.37,-88.93"/>
</a>
</g>
</g>
<!-- Node7 -->
<g id="Node000007" class="node">
<title>Node7</title>
<g id="a_Node000007"><a xlink:href="packet_2datagram_8h.html" target="_top" xlink:title=" ">
<polygon fill="white" stroke="#666666" points="396.12,-134.25 246.62,-134.25 246.62,-113.5 396.12,-113.5 396.12,-134.25"/>
<text text-anchor="middle" x="321.38" y="-120.75" font-family="Helvetica,sans-Serif" font-size="10.00">vlcb/net/packet/datagram.h</text>
</a>
</g>
</g>
<!-- Node1&#45;&gt;Node7 -->
<g id="edge7_Node000001_Node000007" class="edge">
<title>Node1&#45;&gt;Node7</title>
<g id="a_edge7_Node000001_Node000007"><a xlink:title=" ">
<path fill="none" stroke="#63b8ff" d="M383.79,-169.84C372.76,-161.9 356.99,-150.53 344.05,-141.21"/>
<polygon fill="#63b8ff" stroke="#63b8ff" points="346.23,-138.47 336.07,-135.46 342.14,-144.15 346.23,-138.47"/>
</a>
</g>
</g>
<!-- Node9 -->
<g id="Node000009" class="node">
<title>Node9</title>
<g id="a_Node000009"><a xlink:href="serialization_8h.html" target="_top" xlink:title=" ">
<polygon fill="white" stroke="#666666" points="750.5,-134.25 588.25,-134.25 588.25,-113.5 750.5,-113.5 750.5,-134.25"/>
<text text-anchor="middle" x="669.38" y="-120.75" font-family="Helvetica,sans-Serif" font-size="10.00">vlcb/net/packet/serialization.h</text>
</a>
</g>
</g>
<!-- Node1&#45;&gt;Node9 -->
<g id="edge11_Node000001_Node000009" class="edge">
<title>Node1&#45;&gt;Node9</title>
<g id="a_edge11_Node000001_Node000009"><a xlink:title=" ">
<path fill="none" stroke="#63b8ff" d="M428.58,-173.34C472.57,-164.49 553.69,-148.16 609.53,-136.92"/>
<polygon fill="#63b8ff" stroke="#63b8ff" points="610.1,-140.38 619.21,-134.97 608.72,-133.51 610.1,-140.38"/>
</a>
</g>
</g>
<!-- Node2&#45;&gt;Node3 -->
<g id="edge2_Node000002_Node000003" class="edge">
<title>Node2&#45;&gt;Node3</title>
<g id="a_edge2_Node000002_Node000003"><a xlink:title=" ">
<path fill="none" stroke="#63b8ff" d="M92.91,-56.34C117.7,-47.52 154.35,-34.49 181.82,-24.73"/>
<polygon fill="#63b8ff" stroke="#63b8ff" points="182.92,-28.05 191.17,-21.4 180.58,-21.45 182.92,-28.05"/>
</a>
</g>
</g>
<!-- Node5 -->
<g id="Node000005" class="node">
<title>Node5</title>
<g id="a_Node000005"><a xlink:title=" ">
<polygon fill="#e0e0e0" stroke="#999999" points="505.75,-77.5 441,-77.5 441,-56.75 505.75,-56.75 505.75,-77.5"/>
<text text-anchor="middle" x="473.38" y="-64" font-family="Helvetica,sans-Serif" font-size="10.00">inttypes.h</text>
</a>
</g>
</g>
<!-- Node4&#45;&gt;Node5 -->
<g id="edge4_Node000004_Node000005" class="edge">
<title>Node4&#45;&gt;Node5</title>
<g id="a_edge4_Node000004_Node000005"><a xlink:title=" ">
<path fill="none" stroke="#63b8ff" d="M473.38,-113.09C473.38,-106.47 473.38,-97.47 473.38,-89.27"/>
<polygon fill="#63b8ff" stroke="#63b8ff" points="476.88,-89.34 473.38,-79.34 469.88,-89.34 476.88,-89.34"/>
</a>
</g>
</g>
<!-- Node6&#45;&gt;Node3 -->
<g id="edge6_Node000006_Node000003" class="edge">
<title>Node6&#45;&gt;Node3</title>
<g id="a_edge6_Node000006_Node000003"><a xlink:title=" ">
<path fill="none" stroke="#63b8ff" d="M219.38,-56.34C219.38,-49.72 219.38,-40.72 219.38,-32.52"/>
<polygon fill="#63b8ff" stroke="#63b8ff" points="222.88,-32.59 219.38,-22.59 215.88,-32.59 222.88,-32.59"/>
</a>
</g>
</g>
<!-- Node7&#45;&gt;Node5 -->
<g id="edge8_Node000007_Node000005" class="edge">
<title>Node7&#45;&gt;Node5</title>
<g id="a_edge8_Node000007_Node000005"><a xlink:title=" ">
<path fill="none" stroke="#63b8ff" d="M348.55,-113.09C372.79,-104.36 408.53,-91.48 435.56,-81.75"/>
<polygon fill="#63b8ff" stroke="#63b8ff" points="436.53,-85.12 444.76,-78.43 434.16,-78.53 436.53,-85.12"/>
</a>
</g>
</g>
<!-- Node7&#45;&gt;Node6 -->
<g id="edge9_Node000007_Node000006" class="edge">
<title>Node7&#45;&gt;Node6</title>
<g id="a_edge9_Node000007_Node000006"><a xlink:title=" ">
<path fill="none" stroke="#63b8ff" d="M303.14,-113.09C287.69,-104.8 265.29,-92.77 247.54,-83.24"/>
<polygon fill="#63b8ff" stroke="#63b8ff" points="249.25,-80.19 238.79,-78.54 245.94,-86.36 249.25,-80.19"/>
</a>
</g>
</g>
<!-- Node8 -->
<g id="Node000008" class="node">
<title>Node8</title>
<g id="a_Node000008"><a xlink:href="error_8h.html" target="_top" xlink:title=" ">
<polygon fill="white" stroke="#666666" points="423.25,-77.5 307.5,-77.5 307.5,-56.75 423.25,-56.75 423.25,-77.5"/>
<text text-anchor="middle" x="365.38" y="-64" font-family="Helvetica,sans-Serif" font-size="10.00">vlcb/platform/error.h</text>
</a>
</g>
</g>
<!-- Node7&#45;&gt;Node8 -->
<g id="edge10_Node000007_Node000008" class="edge">
<title>Node7&#45;&gt;Node8</title>
<g id="a_edge10_Node000007_Node000008"><a xlink:title=" ">
<path fill="none" stroke="#63b8ff" d="M329.24,-113.09C335.12,-105.77 343.34,-95.54 350.45,-86.69"/>
<polygon fill="#63b8ff" stroke="#63b8ff" points="353.09,-89 356.63,-79.01 347.64,-84.61 353.09,-89"/>
</a>
</g>
</g>
</g>
</svg>
