<?xml version="1.0" encoding="UTF-8" standalone="no"?>
<!DOCTYPE svg PUBLIC "-//W3C//DTD SVG 1.1//EN"
 "http://www.w3.org/Graphics/SVG/1.1/DTD/svg11.dtd">
<!-- Generated by graphviz version 12.1.2 (20240928.0832)
 -->
<!-- Title: dcc.h Pages: 1 -->
<svg width="818pt" height="199pt"
 viewBox="0.00 0.00 817.75 199.00" xmlns="http://www.w3.org/2000/svg" xmlns:xlink="http://www.w3.org/1999/xlink">
<g id="graph0" class="graph" transform="scale(1 1) rotate(0) translate(4 195)">
<title>dcc.h</title>
<!-- Node1 -->
<g id="Node000001" class="node">
<title>Node1</title>
<g id="a_Node000001"><a xlink:title=" ">
<polygon fill="#999999" stroke="#666666" points="474,-191 432.5,-191 432.5,-170.25 474,-170.25 474,-191"/>
<text text-anchor="middle" x="453.25" y="-177.5" font-family="Helvetica,sans-Serif" font-size="10.00">dcc.h</text>
</a>
</g>
</g>
<!-- Node2 -->
<g id="Node000002" class="node">
<title>Node2</title>
<g id="a_Node000002"><a xlink:href="common_2inc_2vlcb_2common_2dcc_8h.html" target="_top" xlink:title=" ">
<polygon fill="white" stroke="#666666" points="110.5,-77.5 0,-77.5 0,-56.75 110.5,-56.75 110.5,-77.5"/>
<text text-anchor="middle" x="55.25" y="-64" font-family="Helvetica,sans-Serif" font-size="10.00">vlcb/common/dcc.h</text>
</a>
</g>
</g>
<!-- Node1&#45;&gt;Node2 -->
<g id="edge1_Node000001_Node000002" class="edge">
<title>Node1&#45;&gt;Node2</title>
<g id="a_edge1_Node000001_Node000002"><a xlink:title=" ">
<path fill="none" stroke="#63b8ff" d="M432.17,-177.65C388.22,-173.13 283.95,-160.39 200.25,-134.25 157.86,-121.01 111.63,-98.38 83.04,-83.34"/>
<polygon fill="#63b8ff" stroke="#63b8ff" points="84.79,-80.31 74.32,-78.69 81.5,-86.49 84.79,-80.31"/>
</a>
</g>
</g>
<!-- Node3 -->
<g id="Node000003" class="node">
<title>Node3</title>
<g id="a_Node000003"><a xlink:title=" ">
<polygon fill="#e0e0e0" stroke="#999999" points="225.62,-20.75 172.88,-20.75 172.88,0 225.62,0 225.62,-20.75"/>
<text text-anchor="middle" x="199.25" y="-7.25" font-family="Helvetica,sans-Serif" font-size="10.00">stdint.h</text>
</a>
</g>
</g>
<!-- Node1&#45;&gt;Node3 -->
<g id="edge13_Node000001_Node000003" class="edge">
<title>Node1&#45;&gt;Node3</title>
<g id="a_edge13_Node000001_Node000003"><a xlink:title=" ">
<path fill="none" stroke="#63b8ff" d="M474.38,-171.96C490.45,-164.88 511.41,-152.65 521.25,-134.25 535.67,-107.3 497.96,-59.51 494.25,-56.75 454.26,-27 307.79,-16.34 237.45,-12.88"/>
<polygon fill="#63b8ff" stroke="#63b8ff" points="237.71,-9.39 227.56,-12.42 237.38,-16.38 237.71,-9.39"/>
</a>
</g>
</g>
<!-- Node4 -->
<g id="Node000004" class="node">
<title>Node4</title>
<g id="a_Node000004"><a xlink:href="node_8h.html" target="_top" xlink:title=" ">
<polygon fill="white" stroke="#666666" points="512.25,-134.25 394.25,-134.25 394.25,-113.5 512.25,-113.5 512.25,-134.25"/>
<text text-anchor="middle" x="453.25" y="-120.75" font-family="Helvetica,sans-Serif" font-size="10.00">vlcb/common/node.h</text>
</a>
</g>
</g>
<!-- Node1&#45;&gt;Node4 -->
<g id="edge3_Node000001_Node000004" class="edge">
<title>Node1&#45;&gt;Node4</title>
<g id="a_edge3_Node000001_Node000004"><a xlink:title=" ">
<path fill="none" stroke="#63b8ff" d="M453.25,-169.84C453.25,-163.22 453.25,-154.22 453.25,-146.02"/>
<polygon fill="#63b8ff" stroke="#63b8ff" points="456.75,-146.09 453.25,-136.09 449.75,-146.09 456.75,-146.09"/>
</a>
</g>
</g>
<!-- Node6 -->
<g id="Node000006" class="node">
<title>Node6</title>
<g id="a_Node000006"><a xlink:href="vlcb__defs_8h.html" target="_top" xlink:title=" ">
<polygon fill="white" stroke="#666666" points="269.5,-77.5 129,-77.5 129,-56.75 269.5,-56.75 269.5,-77.5"/>
<text text-anchor="middle" x="199.25" y="-64" font-family="Helvetica,sans-Serif" font-size="10.00">vlcb/common/vlcb_defs.h</text>
</a>
</g>
</g>
<!-- Node1&#45;&gt;Node6 -->
<g id="edge5_Node000001_Node000006" class="edge">
<title>Node1&#45;&gt;Node6</title>
<g id="a_edge5_Node000001_Node000006"><a xlink:title=" ">
<path fill="none" stroke="#63b8ff" d="M432.24,-178.38C380.44,-174.87 248.54,-163.25 217.25,-134.25 204.84,-122.75 200.67,-103.63 199.4,-88.89"/>
<polygon fill="#63b8ff" stroke="#63b8ff" points="202.92,-89.16 198.98,-79.33 195.93,-89.47 202.92,-89.16"/>
</a>
</g>
</g>
<!-- Node7 -->
<g id="Node000007" class="node">
<title>Node7</title>
<g id="a_Node000007"><a xlink:href="packet_2datagram_8h.html" target="_top" xlink:title=" ">
<polygon fill="white" stroke="#666666" points="376,-134.25 226.5,-134.25 226.5,-113.5 376,-113.5 376,-134.25"/>
<text text-anchor="middle" x="301.25" y="-120.75" font-family="Helvetica,sans-Serif" font-size="10.00">vlcb/net/packet/datagram.h</text>
</a>
</g>
</g>
<!-- Node1&#45;&gt;Node7 -->
<g id="edge7_Node000001_Node000007" class="edge">
<title>Node1&#45;&gt;Node7</title>
<g id="a_edge7_Node000001_Node000007"><a xlink:title=" ">
<path fill="none" stroke="#63b8ff" d="M432.12,-172.01C408.17,-163.39 368.68,-149.16 339.33,-138.59"/>
<polygon fill="#63b8ff" stroke="#63b8ff" points="340.65,-135.35 330.05,-135.25 338.27,-141.93 340.65,-135.35"/>
</a>
</g>
</g>
<!-- Node9 -->
<g id="Node000009" class="node">
<title>Node9</title>
<g id="a_Node000009"><a xlink:href="serialization_8h.html" target="_top" xlink:title=" ">
<polygon fill="white" stroke="#666666" points="730.38,-134.25 568.12,-134.25 568.12,-113.5 730.38,-113.5 730.38,-134.25"/>
<text text-anchor="middle" x="649.25" y="-120.75" font-family="Helvetica,sans-Serif" font-size="10.00">vlcb/net/packet/serialization.h</text>
</a>
</g>
</g>
<!-- Node1&#45;&gt;Node9 -->
<g id="edge11_Node000001_Node000009" class="edge">
<title>Node1&#45;&gt;Node9</title>
<g id="a_edge11_Node000001_Node000009"><a xlink:title=" ">
<path fill="none" stroke="#63b8ff" d="M474.23,-173.77C504.74,-165.24 562.16,-149.2 602.9,-137.82"/>
<polygon fill="#63b8ff" stroke="#63b8ff" points="603.76,-141.21 612.45,-135.15 601.88,-134.47 603.76,-141.21"/>
</a>
</g>
</g>
<!-- Node10 -->
<g id="Node000010" class="node">
<title>Node10</title>
<g id="a_Node000010"><a xlink:title=" ">
<polygon fill="#e0e0e0" stroke="#999999" points="809.75,-134.25 748.75,-134.25 748.75,-113.5 809.75,-113.5 809.75,-134.25"/>
<text text-anchor="middle" x="779.25" y="-120.75" font-family="Helvetica,sans-Serif" font-size="10.00">stdbool.h</text>
</a>
</g>
</g>
<!-- Node1&#45;&gt;Node10 -->
<g id="edge12_Node000001_Node000010" class="edge">
<title>Node1&#45;&gt;Node10</title>
<g id="a_edge12_Node000001_Node000010"><a xlink:title=" ">
<path fill="none" stroke="#63b8ff" d="M474.16,-176.84C519.9,-170.64 632.53,-154.75 737.21,-134.53"/>
<polygon fill="#63b8ff" stroke="#63b8ff" points="737.66,-138.01 746.8,-132.66 736.32,-131.14 737.66,-138.01"/>
</a>
</g>
</g>
<!-- Node2&#45;&gt;Node3 -->
<g id="edge2_Node000002_Node000003" class="edge">
<title>Node2&#45;&gt;Node3</title>
<g id="a_edge2_Node000002_Node000003"><a xlink:title=" ">
<path fill="none" stroke="#63b8ff" d="M80.99,-56.34C103.83,-47.66 137.42,-34.88 162.97,-25.17"/>
<polygon fill="#63b8ff" stroke="#63b8ff" points="164.21,-28.44 172.31,-21.62 161.72,-21.9 164.21,-28.44"/>
</a>
</g>
</g>
<!-- Node5 -->
<g id="Node000005" class="node">
<title>Node5</title>
<g id="a_Node000005"><a xlink:title=" ">
<polygon fill="#e0e0e0" stroke="#999999" points="485.62,-77.5 420.88,-77.5 420.88,-56.75 485.62,-56.75 485.62,-77.5"/>
<text text-anchor="middle" x="453.25" y="-64" font-family="Helvetica,sans-Serif" font-size="10.00">inttypes.h</text>
</a>
</g>
</g>
<!-- Node4&#45;&gt;Node5 -->
<g id="edge4_Node000004_Node000005" class="edge">
<title>Node4&#45;&gt;Node5</title>
<g id="a_edge4_Node000004_Node000005"><a xlink:title=" ">
<path fill="none" stroke="#63b8ff" d="M453.25,-113.09C453.25,-106.47 453.25,-97.47 453.25,-89.27"/>
<polygon fill="#63b8ff" stroke="#63b8ff" points="456.75,-89.34 453.25,-79.34 449.75,-89.34 456.75,-89.34"/>
</a>
</g>
</g>
<!-- Node6&#45;&gt;Node3 -->
<g id="edge6_Node000006_Node000003" class="edge">
<title>Node6&#45;&gt;Node3</title>
<g id="a_edge6_Node000006_Node000003"><a xlink:title=" ">
<path fill="none" stroke="#63b8ff" d="M199.25,-56.34C199.25,-49.72 199.25,-40.72 199.25,-32.52"/>
<polygon fill="#63b8ff" stroke="#63b8ff" points="202.75,-32.59 199.25,-22.59 195.75,-32.59 202.75,-32.59"/>
</a>
</g>
</g>
<!-- Node7&#45;&gt;Node5 -->
<g id="edge8_Node000007_Node000005" class="edge">
<title>Node7&#45;&gt;Node5</title>
<g id="a_edge8_Node000007_Node000005"><a xlink:title=" ">
<path fill="none" stroke="#63b8ff" d="M328.42,-113.09C352.67,-104.36 388.4,-91.48 415.43,-81.75"/>
<polygon fill="#63b8ff" stroke="#63b8ff" points="416.41,-85.12 424.63,-78.43 414.04,-78.53 416.41,-85.12"/>
</a>
</g>
</g>
<!-- Node7&#45;&gt;Node6 -->
<g id="edge9_Node000007_Node000006" class="edge">
<title>Node7&#45;&gt;Node6</title>
<g id="a_edge9_Node000007_Node000006"><a xlink:title=" ">
<path fill="none" stroke="#63b8ff" d="M283.01,-113.09C267.57,-104.8 245.16,-92.77 227.41,-83.24"/>
<polygon fill="#63b8ff" stroke="#63b8ff" points="229.13,-80.19 218.66,-78.54 225.82,-86.36 229.13,-80.19"/>
</a>
</g>
</g>
<!-- Node8 -->
<g id="Node000008" class="node">
<title>Node8</title>
<g id="a_Node000008"><a xlink:href="error_8h.html" target="_top" xlink:title=" ">
<polygon fill="white" stroke="#666666" points="403.12,-77.5 287.38,-77.5 287.38,-56.75 403.12,-56.75 403.12,-77.5"/>
<text text-anchor="middle" x="345.25" y="-64" font-family="Helvetica,sans-Serif" font-size="10.00">vlcb/platform/error.h</text>
</a>
</g>
</g>
<!-- Node7&#45;&gt;Node8 -->
<g id="edge10_Node000007_Node000008" class="edge">
<title>Node7&#45;&gt;Node8</title>
<g id="a_edge10_Node000007_Node000008"><a xlink:title=" ">
<path fill="none" stroke="#63b8ff" d="M309.12,-113.09C315,-105.77 323.22,-95.54 330.33,-86.69"/>
<polygon fill="#63b8ff" stroke="#63b8ff" points="332.97,-89 336.5,-79.01 327.51,-84.61 332.97,-89"/>
</a>
</g>
</g>
</g>
</svg>
