<?xml version="1.0" encoding="UTF-8" standalone="no"?>
<!DOCTYPE svg PUBLIC "-//W3C//DTD SVG 1.1//EN"
 "http://www.w3.org/Graphics/SVG/1.1/DTD/svg11.dtd">
<!-- Generated by graphviz version 12.1.2 (20240928.0832)
 -->
<!-- Title: net.h Pages: 1 -->
<svg width="664pt" height="369pt"
 viewBox="0.00 0.00 663.70 369.25" xmlns="http://www.w3.org/2000/svg" xmlns:xlink="http://www.w3.org/1999/xlink">
<g id="graph0" class="graph" transform="scale(1 1) rotate(0) translate(4 365.25)">
<title>net.h</title>
<!-- Node1 -->
<g id="Node000001" class="node">
<title>Node1</title>
<g id="a_Node000001"><a xlink:title=" ">
<polygon fill="#999999" stroke="#666666" points="347.82,-361.25 307.07,-361.25 307.07,-340.5 347.82,-340.5 347.82,-361.25"/>
<text text-anchor="middle" x="327.45" y="-347.75" font-family="Helvetica,sans-Serif" font-size="10.00">net.h</text>
</a>
</g>
</g>
<!-- Node2 -->
<g id="Node000002" class="node">
<title>Node2</title>
<g id="a_Node000002"><a xlink:href="iface_8h.html" target="_top" xlink:title=" ">
<polygon fill="white" stroke="#666666" points="330.32,-304.5 262.57,-304.5 262.57,-283.75 330.32,-283.75 330.32,-304.5"/>
<text text-anchor="middle" x="296.45" y="-291" font-family="Helvetica,sans-Serif" font-size="10.00">net/iface.h</text>
</a>
</g>
</g>
<!-- Node1&#45;&gt;Node2 -->
<g id="edge1_Node000001_Node000002" class="edge">
<title>Node1&#45;&gt;Node2</title>
<g id="a_edge1_Node000001_Node000002"><a xlink:title=" ">
<path fill="none" stroke="#63b8ff" d="M321.9,-340.09C317.94,-333.08 312.46,-323.41 307.6,-314.83"/>
<polygon fill="#63b8ff" stroke="#63b8ff" points="310.66,-313.12 302.69,-306.15 304.57,-316.57 310.66,-313.12"/>
</a>
</g>
</g>
<!-- Node14 -->
<g id="Node000014" class="node">
<title>Node14</title>
<g id="a_Node000014"><a xlink:href="socket_8h.html" target="_top" xlink:title=" ">
<polygon fill="white" stroke="#666666" points="403.7,-247.75 347.2,-247.75 347.2,-227 403.7,-227 403.7,-247.75"/>
<text text-anchor="middle" x="375.45" y="-234.25" font-family="Helvetica,sans-Serif" font-size="10.00">socket.h</text>
</a>
</g>
</g>
<!-- Node1&#45;&gt;Node14 -->
<g id="edge28_Node000001_Node000014" class="edge">
<title>Node1&#45;&gt;Node14</title>
<g id="a_edge28_Node000001_Node000014"><a xlink:title=" ">
<path fill="none" stroke="#63b8ff" d="M331.54,-340.37C339.29,-322.36 356.28,-282.89 366.71,-258.68"/>
<polygon fill="#63b8ff" stroke="#63b8ff" points="369.89,-260.13 370.63,-249.57 363.46,-257.37 369.89,-260.13"/>
</a>
</g>
</g>
<!-- Node3 -->
<g id="Node000003" class="node">
<title>Node3</title>
<g id="a_Node000003"><a xlink:title=" ">
<polygon fill="#e0e0e0" stroke="#999999" points="115.95,-77.5 54.95,-77.5 54.95,-56.75 115.95,-56.75 115.95,-77.5"/>
<text text-anchor="middle" x="85.45" y="-64" font-family="Helvetica,sans-Serif" font-size="10.00">stdbool.h</text>
</a>
</g>
</g>
<!-- Node2&#45;&gt;Node3 -->
<g id="edge2_Node000002_Node000003" class="edge">
<title>Node2&#45;&gt;Node3</title>
<g id="a_edge2_Node000002_Node000003"><a xlink:title=" ">
<path fill="none" stroke="#63b8ff" d="M262.12,-292.89C198.86,-290.38 64.9,-274.87 5.45,-191 -5.49,-175.57 2.41,-134.46 16.45,-113.5 25.07,-100.62 38.72,-90.53 51.6,-83.17"/>
<polygon fill="#63b8ff" stroke="#63b8ff" points="53.12,-86.32 60.33,-78.55 49.85,-80.13 53.12,-86.32"/>
</a>
</g>
</g>
<!-- Node4 -->
<g id="Node000004" class="node">
<title>Node4</title>
<g id="a_Node000004"><a xlink:href="adapter_8h.html" target="_top" xlink:title=" ">
<polygon fill="white" stroke="#666666" points="310.32,-247.75 248.57,-247.75 248.57,-227 310.32,-227 310.32,-247.75"/>
<text text-anchor="middle" x="279.45" y="-234.25" font-family="Helvetica,sans-Serif" font-size="10.00">adapter.h</text>
</a>
</g>
</g>
<!-- Node2&#45;&gt;Node4 -->
<g id="edge3_Node000002_Node000004" class="edge">
<title>Node2&#45;&gt;Node4</title>
<g id="a_edge3_Node000002_Node000004"><a xlink:title=" ">
<path fill="none" stroke="#63b8ff" d="M293.41,-283.34C291.3,-276.56 288.43,-267.3 285.83,-258.94"/>
<polygon fill="#63b8ff" stroke="#63b8ff" points="289.22,-258.04 282.91,-249.52 282.53,-260.11 289.22,-258.04"/>
</a>
</g>
</g>
<!-- Node2&#45;&gt;Node14 -->
<g id="edge19_Node000002_Node000014" class="edge">
<title>Node2&#45;&gt;Node14</title>
<g id="a_edge19_Node000002_Node000014"><a xlink:title=" ">
<path fill="none" stroke="#63b8ff" d="M310.57,-283.34C322.14,-275.32 338.75,-263.81 352.27,-254.44"/>
<polygon fill="#63b8ff" stroke="#63b8ff" points="353.98,-257.51 360.2,-248.94 349.99,-251.76 353.98,-257.51"/>
</a>
</g>
</g>
<!-- Node4&#45;&gt;Node3 -->
<g id="edge5_Node000004_Node000003" class="edge">
<title>Node4&#45;&gt;Node3</title>
<g id="a_edge5_Node000004_Node000003"><a xlink:title=" ">
<path fill="none" stroke="#63b8ff" d="M248.42,-235.77C185.74,-233.81 47.53,-225.58 18.45,-191 -9.78,-157.44 35.09,-110.13 64.02,-85.14"/>
<polygon fill="#63b8ff" stroke="#63b8ff" points="66.15,-87.92 71.58,-78.82 61.66,-82.55 66.15,-87.92"/>
</a>
</g>
</g>
<!-- Node5 -->
<g id="Node000005" class="node">
<title>Node5</title>
<g id="a_Node000005"><a xlink:title=" ">
<polygon fill="#e0e0e0" stroke="#999999" points="317.82,-77.5 253.07,-77.5 253.07,-56.75 317.82,-56.75 317.82,-77.5"/>
<text text-anchor="middle" x="285.45" y="-64" font-family="Helvetica,sans-Serif" font-size="10.00">inttypes.h</text>
</a>
</g>
</g>
<!-- Node4&#45;&gt;Node5 -->
<g id="edge4_Node000004_Node000005" class="edge">
<title>Node4&#45;&gt;Node5</title>
<g id="a_edge4_Node000004_Node000005"><a xlink:title=" ">
<path fill="none" stroke="#63b8ff" d="M279.79,-226.85C280.73,-200.48 283.38,-126.08 284.69,-89.28"/>
<polygon fill="#63b8ff" stroke="#63b8ff" points="288.18,-89.6 285.04,-79.48 281.19,-89.35 288.18,-89.6"/>
</a>
</g>
</g>
<!-- Node6 -->
<g id="Node000006" class="node">
<title>Node6</title>
<g id="a_Node000006"><a xlink:href="error_8h.html" target="_top" xlink:title=" ">
<polygon fill="white" stroke="#666666" points="558.32,-134.25 442.57,-134.25 442.57,-113.5 558.32,-113.5 558.32,-134.25"/>
<text text-anchor="middle" x="500.45" y="-120.75" font-family="Helvetica,sans-Serif" font-size="10.00">vlcb/platform/error.h</text>
</a>
</g>
</g>
<!-- Node4&#45;&gt;Node6 -->
<g id="edge6_Node000004_Node000006" class="edge">
<title>Node4&#45;&gt;Node6</title>
<g id="a_edge6_Node000004_Node000006"><a xlink:title=" ">
<path fill="none" stroke="#63b8ff" d="M310.76,-230.79C354.07,-222.62 429.51,-206.68 452.45,-191 469.6,-179.27 482.83,-159.32 491.02,-144.4"/>
<polygon fill="#63b8ff" stroke="#63b8ff" points="493.91,-146.44 495.38,-135.95 487.68,-143.23 493.91,-146.44"/>
</a>
</g>
</g>
<!-- Node7 -->
<g id="Node000007" class="node">
<title>Node7</title>
<g id="a_Node000007"><a xlink:href="interface_8h.html" target="_top" xlink:title=" ">
<polygon fill="white" stroke="#666666" points="443.82,-191 307.07,-191 307.07,-170.25 443.82,-170.25 443.82,-191"/>
<text text-anchor="middle" x="375.45" y="-177.5" font-family="Helvetica,sans-Serif" font-size="10.00">vlcb/platform/interface.h</text>
</a>
</g>
</g>
<!-- Node4&#45;&gt;Node7 -->
<g id="edge7_Node000004_Node000007" class="edge">
<title>Node4&#45;&gt;Node7</title>
<g id="a_edge7_Node000004_Node000007"><a xlink:title=" ">
<path fill="none" stroke="#63b8ff" d="M296.61,-226.59C311.08,-218.33 332.03,-206.38 348.7,-196.88"/>
<polygon fill="#63b8ff" stroke="#63b8ff" points="350.16,-200.07 357.12,-192.08 346.7,-193.99 350.16,-200.07"/>
</a>
</g>
</g>
<!-- Node9 -->
<g id="Node000009" class="node">
<title>Node9</title>
<g id="a_Node000009"><a xlink:href="packet_8h.html" target="_top" xlink:title=" ">
<polygon fill="white" stroke="#666666" points="145.45,-191 27.45,-191 27.45,-170.25 145.45,-170.25 145.45,-191"/>
<text text-anchor="middle" x="86.45" y="-177.5" font-family="Helvetica,sans-Serif" font-size="10.00">adapter/can/packet.h</text>
</a>
</g>
</g>
<!-- Node4&#45;&gt;Node9 -->
<g id="edge9_Node000004_Node000009" class="edge">
<title>Node4&#45;&gt;Node9</title>
<g id="a_edge9_Node000004_Node000009"><a xlink:title=" ">
<path fill="none" stroke="#63b8ff" d="M248.44,-227.58C216.86,-218.62 167.57,-204.64 131.65,-194.45"/>
<polygon fill="#63b8ff" stroke="#63b8ff" points="132.99,-191.19 122.42,-191.83 131.08,-197.93 132.99,-191.19"/>
</a>
</g>
</g>
<!-- Node13 -->
<g id="Node000013" class="node">
<title>Node13</title>
<g id="a_Node000013"><a xlink:href="addr_8h.html" target="_top" xlink:title=" ">
<polygon fill="white" stroke="#666666" points="251.45,-191 163.45,-191 163.45,-170.25 251.45,-170.25 251.45,-191"/>
<text text-anchor="middle" x="207.45" y="-177.5" font-family="Helvetica,sans-Serif" font-size="10.00">vlcb/net/addr.h</text>
</a>
</g>
</g>
<!-- Node4&#45;&gt;Node13 -->
<g id="edge17_Node000004_Node000013" class="edge">
<title>Node4&#45;&gt;Node13</title>
<g id="a_edge17_Node000004_Node000013"><a xlink:title=" ">
<path fill="none" stroke="#63b8ff" d="M266.57,-226.59C256.23,-218.72 241.48,-207.5 229.29,-198.24"/>
<polygon fill="#63b8ff" stroke="#63b8ff" points="231.49,-195.51 221.41,-192.24 227.25,-201.08 231.49,-195.51"/>
</a>
</g>
</g>
<!-- Node8 -->
<g id="Node000008" class="node">
<title>Node8</title>
<g id="a_Node000008"><a xlink:title=" ">
<polygon fill="#e0e0e0" stroke="#999999" points="413.95,-134.25 358.95,-134.25 358.95,-113.5 413.95,-113.5 413.95,-134.25"/>
<text text-anchor="middle" x="386.45" y="-120.75" font-family="Helvetica,sans-Serif" font-size="10.00">stddef.h</text>
</a>
</g>
</g>
<!-- Node7&#45;&gt;Node8 -->
<g id="edge8_Node000007_Node000008" class="edge">
<title>Node7&#45;&gt;Node8</title>
<g id="a_edge8_Node000007_Node000008"><a xlink:title=" ">
<path fill="none" stroke="#63b8ff" d="M377.41,-169.84C378.76,-163.14 380.59,-154.01 382.26,-145.73"/>
<polygon fill="#63b8ff" stroke="#63b8ff" points="385.66,-146.56 384.2,-136.06 378.8,-145.18 385.66,-146.56"/>
</a>
</g>
</g>
<!-- Node9&#45;&gt;Node3 -->
<g id="edge10_Node000009_Node000003" class="edge">
<title>Node9&#45;&gt;Node3</title>
<g id="a_edge10_Node000009_Node000003"><a xlink:title=" ">
<path fill="none" stroke="#63b8ff" d="M86.36,-170.12C86.2,-152.35 85.86,-113.72 85.64,-89.43"/>
<polygon fill="#63b8ff" stroke="#63b8ff" points="89.14,-89.41 85.55,-79.44 82.14,-89.47 89.14,-89.41"/>
</a>
</g>
</g>
<!-- Node10 -->
<g id="Node000010" class="node">
<title>Node10</title>
<g id="a_Node000010"><a xlink:href="common_2inc_2vlcb_2common_2can_8h.html" target="_top" xlink:title=" ">
<polygon fill="white" stroke="#666666" points="263.07,-134.25 151.82,-134.25 151.82,-113.5 263.07,-113.5 263.07,-134.25"/>
<text text-anchor="middle" x="207.45" y="-120.75" font-family="Helvetica,sans-Serif" font-size="10.00">vlcb/common/can.h</text>
</a>
</g>
</g>
<!-- Node9&#45;&gt;Node10 -->
<g id="edge11_Node000009_Node000010" class="edge">
<title>Node9&#45;&gt;Node10</title>
<g id="a_edge11_Node000009_Node000010"><a xlink:title=" ">
<path fill="none" stroke="#63b8ff" d="M108.08,-169.84C126.92,-161.31 154.48,-148.84 175.8,-139.19"/>
<polygon fill="#63b8ff" stroke="#63b8ff" points="176.95,-142.51 184.62,-135.2 174.07,-136.14 176.95,-142.51"/>
</a>
</g>
</g>
<!-- Node10&#45;&gt;Node3 -->
<g id="edge13_Node000010_Node000003" class="edge">
<title>Node10&#45;&gt;Node3</title>
<g id="a_edge13_Node000010_Node000003"><a xlink:title=" ">
<path fill="none" stroke="#63b8ff" d="M185.64,-113.09C166.64,-104.56 138.85,-92.09 117.35,-82.44"/>
<polygon fill="#63b8ff" stroke="#63b8ff" points="119.01,-79.35 108.45,-78.45 116.14,-85.74 119.01,-79.35"/>
</a>
</g>
</g>
<!-- Node10&#45;&gt;Node5 -->
<g id="edge12_Node000010_Node000005" class="edge">
<title>Node10&#45;&gt;Node5</title>
<g id="a_edge12_Node000010_Node000005"><a xlink:title=" ">
<path fill="none" stroke="#63b8ff" d="M221.39,-113.09C232.82,-105.07 249.21,-93.56 262.56,-84.19"/>
<polygon fill="#63b8ff" stroke="#63b8ff" points="264.21,-87.31 270.38,-78.7 260.19,-81.58 264.21,-87.31"/>
</a>
</g>
</g>
<!-- Node11 -->
<g id="Node000011" class="node">
<title>Node11</title>
<g id="a_Node000011"><a xlink:title=" ">
<polygon fill="#e0e0e0" stroke="#999999" points="318.82,-20.75 266.07,-20.75 266.07,0 318.82,0 318.82,-20.75"/>
<text text-anchor="middle" x="292.45" y="-7.25" font-family="Helvetica,sans-Serif" font-size="10.00">stdint.h</text>
</a>
</g>
</g>
<!-- Node10&#45;&gt;Node11 -->
<g id="edge14_Node000010_Node000011" class="edge">
<title>Node10&#45;&gt;Node11</title>
<g id="a_edge14_Node000010_Node000011"><a xlink:title=" ">
<path fill="none" stroke="#63b8ff" d="M211.65,-113.34C217.79,-99.98 230.06,-75.22 244.45,-56.75 252.48,-46.44 262.88,-36.31 271.94,-28.25"/>
<polygon fill="#63b8ff" stroke="#63b8ff" points="273.98,-31.11 279.27,-21.94 269.41,-25.81 273.98,-31.11"/>
</a>
</g>
</g>
<!-- Node12 -->
<g id="Node000012" class="node">
<title>Node12</title>
<g id="a_Node000012"><a xlink:href="vlcb__defs_8h.html" target="_top" xlink:title=" ">
<polygon fill="white" stroke="#666666" points="407.2,-77.5 335.7,-77.5 335.7,-56.75 407.2,-56.75 407.2,-77.5"/>
<text text-anchor="middle" x="371.45" y="-64" font-family="Helvetica,sans-Serif" font-size="10.00">vlcb_defs.h</text>
</a>
</g>
</g>
<!-- Node10&#45;&gt;Node12 -->
<g id="edge15_Node000010_Node000012" class="edge">
<title>Node10&#45;&gt;Node12</title>
<g id="a_edge15_Node000010_Node000012"><a xlink:title=" ">
<path fill="none" stroke="#63b8ff" d="M236.77,-113.09C263.15,-104.28 302.16,-91.25 331.42,-81.49"/>
<polygon fill="#63b8ff" stroke="#63b8ff" points="332.29,-84.89 340.67,-78.4 330.07,-78.25 332.29,-84.89"/>
</a>
</g>
</g>
<!-- Node12&#45;&gt;Node11 -->
<g id="edge16_Node000012_Node000011" class="edge">
<title>Node12&#45;&gt;Node11</title>
<g id="a_edge16_Node000012_Node000011"><a xlink:title=" ">
<path fill="none" stroke="#63b8ff" d="M357.32,-56.34C345.75,-48.32 329.14,-36.81 315.63,-27.44"/>
<polygon fill="#63b8ff" stroke="#63b8ff" points="317.9,-24.76 307.69,-21.94 313.92,-30.51 317.9,-24.76"/>
</a>
</g>
</g>
<!-- Node13&#45;&gt;Node10 -->
<g id="edge18_Node000013_Node000010" class="edge">
<title>Node13&#45;&gt;Node10</title>
<g id="a_edge18_Node000013_Node000010"><a xlink:title=" ">
<path fill="none" stroke="#63b8ff" d="M207.45,-169.84C207.45,-163.22 207.45,-154.22 207.45,-146.02"/>
<polygon fill="#63b8ff" stroke="#63b8ff" points="210.95,-146.09 207.45,-136.09 203.95,-146.09 210.95,-146.09"/>
</a>
</g>
</g>
<!-- Node14&#45;&gt;Node3 -->
<g id="edge20_Node000014_Node000003" class="edge">
<title>Node14&#45;&gt;Node3</title>
<g id="a_edge20_Node000014_Node000003"><a xlink:title=" ">
<path fill="none" stroke="#63b8ff" d="M402.42,-226.58C431.88,-214.44 472.37,-192.62 452.45,-170.25 406.32,-118.46 203.72,-166.74 142.45,-134.25 122.43,-123.64 106.35,-102.87 96.44,-87.42"/>
<polygon fill="#63b8ff" stroke="#63b8ff" points="99.55,-85.81 91.37,-79.07 93.56,-89.43 99.55,-85.81"/>
</a>
</g>
</g>
<!-- Node14&#45;&gt;Node7 -->
<g id="edge27_Node000014_Node000007" class="edge">
<title>Node14&#45;&gt;Node7</title>
<g id="a_edge27_Node000014_Node000007"><a xlink:title=" ">
<path fill="none" stroke="#63b8ff" d="M375.45,-226.59C375.45,-219.97 375.45,-210.97 375.45,-202.77"/>
<polygon fill="#63b8ff" stroke="#63b8ff" points="378.95,-202.84 375.45,-192.84 371.95,-202.84 378.95,-202.84"/>
</a>
</g>
</g>
<!-- Node14&#45;&gt;Node8 -->
<g id="edge21_Node000014_Node000008" class="edge">
<title>Node14&#45;&gt;Node8</title>
<g id="a_edge21_Node000014_Node000008"><a xlink:title=" ">
<path fill="none" stroke="#63b8ff" d="M403.98,-233.36C430.12,-228.91 467.41,-217.95 485.45,-191 503.86,-163.49 460.48,-144.52 425.42,-134.17"/>
<polygon fill="#63b8ff" stroke="#63b8ff" points="426.45,-130.82 415.88,-131.52 424.58,-137.57 426.45,-130.82"/>
</a>
</g>
</g>
<!-- Node14&#45;&gt;Node13 -->
<g id="edge26_Node000014_Node000013" class="edge">
<title>Node14&#45;&gt;Node13</title>
<g id="a_edge26_Node000014_Node000013"><a xlink:title=" ">
<path fill="none" stroke="#63b8ff" d="M346.95,-227.09C319.85,-218.26 278.81,-204.88 248.24,-194.92"/>
<polygon fill="#63b8ff" stroke="#63b8ff" points="249.54,-191.66 238.94,-191.89 247.37,-198.32 249.54,-191.66"/>
</a>
</g>
</g>
<!-- Node15 -->
<g id="Node000015" class="node">
<title>Node15</title>
<g id="a_Node000015"><a xlink:href="vlcb_8h.html" target="_top" xlink:title=" ">
<polygon fill="white" stroke="#666666" points="655.7,-191 575.2,-191 575.2,-170.25 655.7,-170.25 655.7,-191"/>
<text text-anchor="middle" x="615.45" y="-177.5" font-family="Helvetica,sans-Serif" font-size="10.00">packet/vlcb.h</text>
</a>
</g>
</g>
<!-- Node14&#45;&gt;Node15 -->
<g id="edge22_Node000014_Node000015" class="edge">
<title>Node14&#45;&gt;Node15</title>
<g id="a_edge22_Node000014_Node000015"><a xlink:title=" ">
<path fill="none" stroke="#63b8ff" d="M403.92,-229.88C443.32,-220.89 515.12,-204.51 564.03,-193.35"/>
<polygon fill="#63b8ff" stroke="#63b8ff" points="564.57,-196.82 573.54,-191.18 563.01,-190 564.57,-196.82"/>
</a>
</g>
</g>
<!-- Node15&#45;&gt;Node5 -->
<g id="edge23_Node000015_Node000005" class="edge">
<title>Node15&#45;&gt;Node5</title>
<g id="a_edge23_Node000015_Node000005"><a xlink:title=" ">
<path fill="none" stroke="#63b8ff" d="M611.49,-170.09C604.79,-155.28 589.76,-127.04 567.45,-113.5 477.94,-59.17 435.71,-95.02 329.27,-77.79"/>
<polygon fill="#63b8ff" stroke="#63b8ff" points="330.02,-74.37 319.56,-76.08 328.81,-81.26 330.02,-74.37"/>
</a>
</g>
</g>
<!-- Node15&#45;&gt;Node6 -->
<g id="edge25_Node000015_Node000006" class="edge">
<title>Node15&#45;&gt;Node6</title>
<g id="a_edge25_Node000015_Node000006"><a xlink:title=" ">
<path fill="none" stroke="#63b8ff" d="M594.89,-169.84C577.14,-161.39 551.26,-149.07 531.08,-139.46"/>
<polygon fill="#63b8ff" stroke="#63b8ff" points="532.73,-136.37 522.19,-135.23 529.72,-142.69 532.73,-136.37"/>
</a>
</g>
</g>
<!-- Node15&#45;&gt;Node12 -->
<g id="edge24_Node000015_Node000012" class="edge">
<title>Node15&#45;&gt;Node12</title>
<g id="a_edge24_Node000015_Node000012"><a xlink:title=" ">
<path fill="none" stroke="#63b8ff" d="M616.26,-169.99C616.91,-155.56 615.8,-128.44 600.45,-113.5 575.12,-88.86 478.05,-76.73 418.72,-71.51"/>
<polygon fill="#63b8ff" stroke="#63b8ff" points="419.16,-68.03 408.9,-70.68 418.57,-75.01 419.16,-68.03"/>
</a>
</g>
</g>
</g>
</svg>
