<?xml version="1.0" encoding="UTF-8" standalone="no"?>
<!DOCTYPE svg PUBLIC "-//W3C//DTD SVG 1.1//EN"
 "http://www.w3.org/Graphics/SVG/1.1/DTD/svg11.dtd">
<!-- Generated by graphviz version 12.1.2 (20240928.0832)
 -->
<!-- Title: net.h Pages: 1 -->
<svg width="994pt" height="382pt"
 viewBox="0.00 0.00 993.88 382.00" xmlns="http://www.w3.org/2000/svg" xmlns:xlink="http://www.w3.org/1999/xlink">
<g id="graph0" class="graph" transform="scale(1 1) rotate(0) translate(4 378)">
<title>net.h</title>
<!-- Node1 -->
<g id="Node000001" class="node">
<title>Node1</title>
<g id="a_Node000001"><a xlink:title=" ">
<polygon fill="#999999" stroke="#666666" points="647.25,-374 606.5,-374 606.5,-353.25 647.25,-353.25 647.25,-374"/>
<text text-anchor="middle" x="626.88" y="-360.5" font-family="Helvetica,sans-Serif" font-size="10.00">net.h</text>
</a>
</g>
</g>
<!-- Node2 -->
<g id="Node000002" class="node">
<title>Node2</title>
<g id="a_Node000002"><a xlink:href="iface_8h.html" target="_top" xlink:title=" ">
<polygon fill="white" stroke="#666666" points="629.75,-317.25 562,-317.25 562,-296.5 629.75,-296.5 629.75,-317.25"/>
<text text-anchor="middle" x="595.88" y="-303.75" font-family="Helvetica,sans-Serif" font-size="10.00">net/iface.h</text>
</a>
</g>
</g>
<!-- Node1&#45;&gt;Node2 -->
<g id="edge1_Node000001_Node000002" class="edge">
<title>Node1&#45;&gt;Node2</title>
<g id="a_edge1_Node000001_Node000002"><a xlink:title=" ">
<path fill="none" stroke="#63b8ff" d="M621.33,-352.84C617.37,-345.83 611.89,-336.16 607.03,-327.58"/>
<polygon fill="#63b8ff" stroke="#63b8ff" points="610.09,-325.87 602.11,-318.9 604,-329.32 610.09,-325.87"/>
</a>
</g>
</g>
<!-- Node15 -->
<g id="Node000015" class="node">
<title>Node15</title>
<g id="a_Node000015"><a xlink:href="socket_8h.html" target="_top" xlink:title=" ">
<polygon fill="white" stroke="#666666" points="685.12,-260.5 628.62,-260.5 628.62,-239.75 685.12,-239.75 685.12,-260.5"/>
<text text-anchor="middle" x="656.88" y="-247" font-family="Helvetica,sans-Serif" font-size="10.00">socket.h</text>
</a>
</g>
</g>
<!-- Node1&#45;&gt;Node15 -->
<g id="edge35_Node000001_Node000015" class="edge">
<title>Node1&#45;&gt;Node15</title>
<g id="a_edge35_Node000001_Node000015"><a xlink:title=" ">
<path fill="none" stroke="#63b8ff" d="M629.43,-353.12C634.26,-335.19 644.8,-296 651.32,-271.76"/>
<polygon fill="#63b8ff" stroke="#63b8ff" points="654.63,-272.95 653.84,-262.39 647.87,-271.13 654.63,-272.95"/>
</a>
</g>
</g>
<!-- Node3 -->
<g id="Node000003" class="node">
<title>Node3</title>
<g id="a_Node000003"><a xlink:title=" ">
<polygon fill="#e0e0e0" stroke="#999999" points="609.38,-77.5 548.38,-77.5 548.38,-56.75 609.38,-56.75 609.38,-77.5"/>
<text text-anchor="middle" x="578.88" y="-64" font-family="Helvetica,sans-Serif" font-size="10.00">stdbool.h</text>
</a>
</g>
</g>
<!-- Node2&#45;&gt;Node3 -->
<g id="edge2_Node000002_Node000003" class="edge">
<title>Node2&#45;&gt;Node3</title>
<g id="a_edge2_Node000002_Node000003"><a xlink:title=" ">
<path fill="none" stroke="#63b8ff" d="M595.19,-296.26C592.67,-261.09 583.94,-138.92 580.39,-89.31"/>
<polygon fill="#63b8ff" stroke="#63b8ff" points="583.88,-89.09 579.68,-79.37 576.9,-89.59 583.88,-89.09"/>
</a>
</g>
</g>
<!-- Node4 -->
<g id="Node000004" class="node">
<title>Node4</title>
<g id="a_Node000004"><a xlink:href="adapter_8h.html" target="_top" xlink:title=" ">
<polygon fill="white" stroke="#666666" points="552.75,-260.5 491,-260.5 491,-239.75 552.75,-239.75 552.75,-260.5"/>
<text text-anchor="middle" x="521.88" y="-247" font-family="Helvetica,sans-Serif" font-size="10.00">adapter.h</text>
</a>
</g>
</g>
<!-- Node2&#45;&gt;Node4 -->
<g id="edge3_Node000002_Node000004" class="edge">
<title>Node2&#45;&gt;Node4</title>
<g id="a_edge3_Node000002_Node000004"><a xlink:title=" ">
<path fill="none" stroke="#63b8ff" d="M582.65,-296.09C571.91,-288.15 556.55,-276.78 543.96,-267.46"/>
<polygon fill="#63b8ff" stroke="#63b8ff" points="546.33,-264.86 536.21,-261.73 542.16,-270.49 546.33,-264.86"/>
</a>
</g>
</g>
<!-- Node2&#45;&gt;Node15 -->
<g id="edge22_Node000002_Node000015" class="edge">
<title>Node2&#45;&gt;Node15</title>
<g id="a_edge22_Node000002_Node000015"><a xlink:title=" ">
<path fill="none" stroke="#63b8ff" d="M606.78,-296.09C615.37,-288.38 627.55,-277.45 637.75,-268.29"/>
<polygon fill="#63b8ff" stroke="#63b8ff" points="639.83,-271.12 644.94,-261.84 635.16,-265.91 639.83,-271.12"/>
</a>
</g>
</g>
<!-- Node4&#45;&gt;Node3 -->
<g id="edge5_Node000004_Node000003" class="edge">
<title>Node4&#45;&gt;Node3</title>
<g id="a_edge5_Node000004_Node000003"><a xlink:title=" ">
<path fill="none" stroke="#63b8ff" d="M524.94,-239.39C533.89,-210.97 560.13,-127.65 572.4,-88.67"/>
<polygon fill="#63b8ff" stroke="#63b8ff" points="575.68,-89.94 575.34,-79.35 569,-87.83 575.68,-89.94"/>
</a>
</g>
</g>
<!-- Node5 -->
<g id="Node000005" class="node">
<title>Node5</title>
<g id="a_Node000005"><a xlink:title=" ">
<polygon fill="#e0e0e0" stroke="#999999" points="236.25,-77.5 171.5,-77.5 171.5,-56.75 236.25,-56.75 236.25,-77.5"/>
<text text-anchor="middle" x="203.88" y="-64" font-family="Helvetica,sans-Serif" font-size="10.00">inttypes.h</text>
</a>
</g>
</g>
<!-- Node4&#45;&gt;Node5 -->
<g id="edge4_Node000004_Node000005" class="edge">
<title>Node4&#45;&gt;Node5</title>
<g id="a_edge4_Node000004_Node000005"><a xlink:title=" ">
<path fill="none" stroke="#63b8ff" d="M490.72,-247.51C407.44,-242.86 184.45,-228.23 162.88,-203.75 133.19,-170.08 166.66,-115.5 188.33,-86.92"/>
<polygon fill="#63b8ff" stroke="#63b8ff" points="191,-89.19 194.44,-79.17 185.5,-84.86 191,-89.19"/>
</a>
</g>
</g>
<!-- Node6 -->
<g id="Node000006" class="node">
<title>Node6</title>
<g id="a_Node000006"><a xlink:href="error_8h.html" target="_top" xlink:title=" ">
<polygon fill="white" stroke="#666666" points="531.75,-134.25 416,-134.25 416,-113.5 531.75,-113.5 531.75,-134.25"/>
<text text-anchor="middle" x="473.88" y="-120.75" font-family="Helvetica,sans-Serif" font-size="10.00">vlcb/platform/error.h</text>
</a>
</g>
</g>
<!-- Node4&#45;&gt;Node6 -->
<g id="edge6_Node000004_Node000006" class="edge">
<title>Node4&#45;&gt;Node6</title>
<g id="a_edge6_Node000004_Node000006"><a xlink:title=" ">
<path fill="none" stroke="#63b8ff" d="M520.58,-239.33C518.34,-224.08 512.97,-193.97 502.88,-170.25 498.95,-161.04 493.24,-151.6 487.92,-143.72"/>
<polygon fill="#63b8ff" stroke="#63b8ff" points="490.85,-141.8 482.21,-135.67 485.14,-145.85 490.85,-141.8"/>
</a>
</g>
</g>
<!-- Node7 -->
<g id="Node000007" class="node">
<title>Node7</title>
<g id="a_Node000007"><a xlink:href="interface_8h.html" target="_top" xlink:title=" ">
<polygon fill="white" stroke="#666666" points="800.25,-197.38 663.5,-197.38 663.5,-176.62 800.25,-176.62 800.25,-197.38"/>
<text text-anchor="middle" x="731.88" y="-183.88" font-family="Helvetica,sans-Serif" font-size="10.00">vlcb/platform/interface.h</text>
</a>
</g>
</g>
<!-- Node4&#45;&gt;Node7 -->
<g id="edge7_Node000004_Node000007" class="edge">
<title>Node4&#45;&gt;Node7</title>
<g id="a_edge7_Node000004_Node000007"><a xlink:title=" ">
<path fill="none" stroke="#63b8ff" d="M552.86,-240.11C588.32,-229.79 646.69,-212.8 687.09,-201.04"/>
<polygon fill="#63b8ff" stroke="#63b8ff" points="687.9,-204.45 696.52,-198.29 685.94,-197.72 687.9,-204.45"/>
</a>
</g>
</g>
<!-- Node9 -->
<g id="Node000009" class="node">
<title>Node9</title>
<g id="a_Node000009"><a xlink:href="packet_8h.html" target="_top" xlink:title=" ">
<polygon fill="white" stroke="#666666" points="395.88,-197.38 277.88,-197.38 277.88,-176.62 395.88,-176.62 395.88,-197.38"/>
<text text-anchor="middle" x="336.88" y="-183.88" font-family="Helvetica,sans-Serif" font-size="10.00">adapter/can/packet.h</text>
</a>
</g>
</g>
<!-- Node4&#45;&gt;Node9 -->
<g id="edge9_Node000004_Node000009" class="edge">
<title>Node4&#45;&gt;Node9</title>
<g id="a_edge9_Node000004_Node000009"><a xlink:title=" ">
<path fill="none" stroke="#63b8ff" d="M492.15,-239.3C461,-229.01 411.86,-212.78 377.22,-201.33"/>
<polygon fill="#63b8ff" stroke="#63b8ff" points="378.56,-198.09 367.96,-198.27 376.36,-204.73 378.56,-198.09"/>
</a>
</g>
</g>
<!-- Node13 -->
<g id="Node000013" class="node">
<title>Node13</title>
<g id="a_Node000013"><a xlink:href="addr_8h.html" target="_top" xlink:title=" ">
<polygon fill="white" stroke="#666666" points="259.88,-197.38 171.88,-197.38 171.88,-176.62 259.88,-176.62 259.88,-197.38"/>
<text text-anchor="middle" x="215.88" y="-183.88" font-family="Helvetica,sans-Serif" font-size="10.00">vlcb/net/addr.h</text>
</a>
</g>
</g>
<!-- Node4&#45;&gt;Node13 -->
<g id="edge17_Node000004_Node000013" class="edge">
<title>Node4&#45;&gt;Node13</title>
<g id="a_edge17_Node000004_Node000013"><a xlink:title=" ">
<path fill="none" stroke="#63b8ff" d="M490.88,-244.71C442.95,-237.62 348.11,-222.57 268.88,-203.75 265.28,-202.9 261.57,-201.94 257.85,-200.94"/>
<polygon fill="#63b8ff" stroke="#63b8ff" points="258.86,-197.59 248.28,-198.24 256.96,-204.32 258.86,-197.59"/>
</a>
</g>
</g>
<!-- Node8 -->
<g id="Node000008" class="node">
<title>Node8</title>
<g id="a_Node000008"><a xlink:title=" ">
<polygon fill="#e0e0e0" stroke="#999999" points="854.38,-134.25 799.38,-134.25 799.38,-113.5 854.38,-113.5 854.38,-134.25"/>
<text text-anchor="middle" x="826.88" y="-120.75" font-family="Helvetica,sans-Serif" font-size="10.00">stddef.h</text>
</a>
</g>
</g>
<!-- Node7&#45;&gt;Node8 -->
<g id="edge8_Node000007_Node000008" class="edge">
<title>Node7&#45;&gt;Node8</title>
<g id="a_edge8_Node000007_Node000008"><a xlink:title=" ">
<path fill="none" stroke="#63b8ff" d="M747.14,-176.18C761.96,-166.64 784.7,-152.01 802.11,-140.81"/>
<polygon fill="#63b8ff" stroke="#63b8ff" points="803.86,-143.84 810.38,-135.49 800.07,-137.96 803.86,-143.84"/>
</a>
</g>
</g>
<!-- Node9&#45;&gt;Node3 -->
<g id="edge10_Node000009_Node000003" class="edge">
<title>Node9&#45;&gt;Node3</title>
<g id="a_edge10_Node000009_Node000003"><a xlink:title=" ">
<path fill="none" stroke="#63b8ff" d="M343.42,-176.4C354.57,-160.78 378.8,-129.96 406.88,-113.5 447.38,-89.74 500.44,-78.2 536.86,-72.74"/>
<polygon fill="#63b8ff" stroke="#63b8ff" points="537.14,-76.24 546.56,-71.39 536.17,-69.31 537.14,-76.24"/>
</a>
</g>
</g>
<!-- Node10 -->
<g id="Node000010" class="node">
<title>Node10</title>
<g id="a_Node000010"><a xlink:href="common_2inc_2vlcb_2common_2can_8h.html" target="_top" xlink:title=" ">
<polygon fill="white" stroke="#666666" points="321.5,-134.25 210.25,-134.25 210.25,-113.5 321.5,-113.5 321.5,-134.25"/>
<text text-anchor="middle" x="265.88" y="-120.75" font-family="Helvetica,sans-Serif" font-size="10.00">vlcb/common/can.h</text>
</a>
</g>
</g>
<!-- Node9&#45;&gt;Node10 -->
<g id="edge11_Node000009_Node000010" class="edge">
<title>Node9&#45;&gt;Node10</title>
<g id="a_edge11_Node000009_Node000010"><a xlink:title=" ">
<path fill="none" stroke="#63b8ff" d="M325.47,-176.18C314.74,-166.95 298.46,-152.93 285.63,-141.88"/>
<polygon fill="#63b8ff" stroke="#63b8ff" points="288.03,-139.33 278.17,-135.46 283.46,-144.63 288.03,-139.33"/>
</a>
</g>
</g>
<!-- Node10&#45;&gt;Node3 -->
<g id="edge13_Node000010_Node000003" class="edge">
<title>Node10&#45;&gt;Node3</title>
<g id="a_edge13_Node000010_Node000003"><a xlink:title=" ">
<path fill="none" stroke="#63b8ff" d="M321.83,-113.09C383.56,-102.29 481.47,-85.16 536.93,-75.46"/>
<polygon fill="#63b8ff" stroke="#63b8ff" points="537.36,-78.94 546.61,-73.77 536.15,-72.05 537.36,-78.94"/>
</a>
</g>
</g>
<!-- Node10&#45;&gt;Node5 -->
<g id="edge12_Node000010_Node000005" class="edge">
<title>Node10&#45;&gt;Node5</title>
<g id="a_edge12_Node000010_Node000005"><a xlink:title=" ">
<path fill="none" stroke="#63b8ff" d="M254.79,-113.09C246.06,-105.38 233.68,-94.45 223.31,-85.29"/>
<polygon fill="#63b8ff" stroke="#63b8ff" points="225.81,-82.83 216,-78.83 221.18,-88.07 225.81,-82.83"/>
</a>
</g>
</g>
<!-- Node11 -->
<g id="Node000011" class="node">
<title>Node11</title>
<g id="a_Node000011"><a xlink:title=" ">
<polygon fill="#e0e0e0" stroke="#999999" points="291.25,-20.75 238.5,-20.75 238.5,0 291.25,0 291.25,-20.75"/>
<text text-anchor="middle" x="264.88" y="-7.25" font-family="Helvetica,sans-Serif" font-size="10.00">stdint.h</text>
</a>
</g>
</g>
<!-- Node10&#45;&gt;Node11 -->
<g id="edge14_Node000010_Node000011" class="edge">
<title>Node10&#45;&gt;Node11</title>
<g id="a_edge14_Node000010_Node000011"><a xlink:title=" ">
<path fill="none" stroke="#63b8ff" d="M265.79,-113.37C265.63,-95.6 265.28,-56.97 265.07,-32.68"/>
<polygon fill="#63b8ff" stroke="#63b8ff" points="268.57,-32.66 264.98,-22.69 261.57,-32.72 268.57,-32.66"/>
</a>
</g>
</g>
<!-- Node12 -->
<g id="Node000012" class="node">
<title>Node12</title>
<g id="a_Node000012"><a xlink:href="opcode_8h.html" target="_top" xlink:title=" ">
<polygon fill="white" stroke="#666666" points="353,-77.5 292.75,-77.5 292.75,-56.75 353,-56.75 353,-77.5"/>
<text text-anchor="middle" x="322.88" y="-64" font-family="Helvetica,sans-Serif" font-size="10.00">opcode.h</text>
</a>
</g>
</g>
<!-- Node10&#45;&gt;Node12 -->
<g id="edge15_Node000010_Node000012" class="edge">
<title>Node10&#45;&gt;Node12</title>
<g id="a_edge15_Node000010_Node000012"><a xlink:title=" ">
<path fill="none" stroke="#63b8ff" d="M276.07,-113.09C284.01,-105.46 295.24,-94.67 304.71,-85.57"/>
<polygon fill="#63b8ff" stroke="#63b8ff" points="306.89,-88.33 311.68,-78.88 302.04,-83.28 306.89,-88.33"/>
</a>
</g>
</g>
<!-- Node12&#45;&gt;Node11 -->
<g id="edge16_Node000012_Node000011" class="edge">
<title>Node12&#45;&gt;Node11</title>
<g id="a_edge16_Node000012_Node000011"><a xlink:title=" ">
<path fill="none" stroke="#63b8ff" d="M312.51,-56.34C304.42,-48.71 292.99,-37.92 283.35,-28.82"/>
<polygon fill="#63b8ff" stroke="#63b8ff" points="285.93,-26.44 276.26,-22.12 281.12,-31.53 285.93,-26.44"/>
</a>
</g>
</g>
<!-- Node13&#45;&gt;Node10 -->
<g id="edge18_Node000013_Node000010" class="edge">
<title>Node13&#45;&gt;Node10</title>
<g id="a_edge18_Node000013_Node000010"><a xlink:title=" ">
<path fill="none" stroke="#63b8ff" d="M223.91,-176.18C231.17,-167.3 242.04,-154.01 250.9,-143.18"/>
<polygon fill="#63b8ff" stroke="#63b8ff" points="253.45,-145.6 257.07,-135.64 248.03,-141.17 253.45,-145.6"/>
</a>
</g>
</g>
<!-- Node13&#45;&gt;Node11 -->
<g id="edge21_Node000013_Node000011" class="edge">
<title>Node13&#45;&gt;Node11</title>
<g id="a_edge21_Node000013_Node000011"><a xlink:title=" ">
<path fill="none" stroke="#63b8ff" d="M205.91,-176.33C184.14,-153.99 136.32,-97.63 162.88,-56.75 177.06,-34.92 204.43,-23.51 227.26,-17.59"/>
<polygon fill="#63b8ff" stroke="#63b8ff" points="227.91,-21.03 236.87,-15.38 226.34,-14.21 227.91,-21.03"/>
</a>
</g>
</g>
<!-- Node14 -->
<g id="Node000014" class="node">
<title>Node14</title>
<g id="a_Node000014"><a xlink:href="time_8h.html" target="_top" xlink:title=" ">
<polygon fill="white" stroke="#666666" points="115.75,-77.5 0,-77.5 0,-56.75 115.75,-56.75 115.75,-77.5"/>
<text text-anchor="middle" x="57.88" y="-64" font-family="Helvetica,sans-Serif" font-size="10.00">vlcb/platform/time.h</text>
</a>
</g>
</g>
<!-- Node13&#45;&gt;Node14 -->
<g id="edge19_Node000013_Node000014" class="edge">
<title>Node13&#45;&gt;Node14</title>
<g id="a_edge19_Node000013_Node000014"><a xlink:title=" ">
<path fill="none" stroke="#63b8ff" d="M197.41,-176.31C179.51,-166.59 151.92,-150.74 129.88,-134.25 109.84,-119.26 89.01,-99.61 74.94,-85.64"/>
<polygon fill="#63b8ff" stroke="#63b8ff" points="77.71,-83.46 68.18,-78.83 72.75,-88.4 77.71,-83.46"/>
</a>
</g>
</g>
<!-- Node14&#45;&gt;Node11 -->
<g id="edge20_Node000014_Node000011" class="edge">
<title>Node14&#45;&gt;Node11</title>
<g id="a_edge20_Node000014_Node000011"><a xlink:title=" ">
<path fill="none" stroke="#63b8ff" d="M94.88,-56.34C132.19,-46.47 189.49,-31.31 227.07,-21.37"/>
<polygon fill="#63b8ff" stroke="#63b8ff" points="227.83,-24.79 236.6,-18.85 226.04,-18.03 227.83,-24.79"/>
</a>
</g>
</g>
<!-- Node15&#45;&gt;Node3 -->
<g id="edge23_Node000015_Node000003" class="edge">
<title>Node15&#45;&gt;Node3</title>
<g id="a_edge23_Node000015_Node000003"><a xlink:title=" ">
<path fill="none" stroke="#63b8ff" d="M654.77,-239.52C649.55,-216.75 634.77,-158.07 611.88,-113.5 607.12,-104.24 600.58,-94.8 594.58,-86.95"/>
<polygon fill="#63b8ff" stroke="#63b8ff" points="597.35,-84.81 588.38,-79.17 591.87,-89.17 597.35,-84.81"/>
</a>
</g>
</g>
<!-- Node15&#45;&gt;Node7 -->
<g id="edge34_Node000015_Node000007" class="edge">
<title>Node15&#45;&gt;Node7</title>
<g id="a_edge34_Node000015_Node000007"><a xlink:title=" ">
<path fill="none" stroke="#63b8ff" d="M668.93,-239.3C680.36,-229.98 697.78,-215.78 711.4,-204.69"/>
<polygon fill="#63b8ff" stroke="#63b8ff" points="713.39,-207.58 718.93,-198.55 708.97,-202.16 713.39,-207.58"/>
</a>
</g>
</g>
<!-- Node15&#45;&gt;Node8 -->
<g id="edge24_Node000015_Node000008" class="edge">
<title>Node15&#45;&gt;Node8</title>
<g id="a_edge24_Node000015_Node000008"><a xlink:title=" ">
<path fill="none" stroke="#63b8ff" d="M685.37,-248.81C719.68,-246.82 776.69,-238.13 808.88,-203.75 823.4,-188.24 827.04,-163.52 827.59,-145.89"/>
<polygon fill="#63b8ff" stroke="#63b8ff" points="831.09,-146.04 827.56,-136.05 824.09,-146.06 831.09,-146.04"/>
</a>
</g>
</g>
<!-- Node15&#45;&gt;Node13 -->
<g id="edge29_Node000015_Node000013" class="edge">
<title>Node15&#45;&gt;Node13</title>
<g id="a_edge29_Node000015_Node000013"><a xlink:title=" ">
<path fill="none" stroke="#63b8ff" d="M628.37,-246.08C544.78,-237.11 303.92,-210.95 268.88,-203.75 264.83,-202.92 260.65,-201.92 256.49,-200.84"/>
<polygon fill="#63b8ff" stroke="#63b8ff" points="257.67,-197.53 247.1,-198.23 255.79,-204.28 257.67,-197.53"/>
</a>
</g>
</g>
<!-- Node16 -->
<g id="Node000016" class="node">
<title>Node16</title>
<g id="a_Node000016"><a xlink:href="vlcb_8h.html" target="_top" xlink:title=" ">
<polygon fill="white" stroke="#666666" points="494.12,-197.38 413.62,-197.38 413.62,-176.62 494.12,-176.62 494.12,-197.38"/>
<text text-anchor="middle" x="453.88" y="-183.88" font-family="Helvetica,sans-Serif" font-size="10.00">packet/vlcb.h</text>
</a>
</g>
</g>
<!-- Node15&#45;&gt;Node16 -->
<g id="edge25_Node000015_Node000016" class="edge">
<title>Node15&#45;&gt;Node16</title>
<g id="a_edge25_Node000015_Node000016"><a xlink:title=" ">
<path fill="none" stroke="#63b8ff" d="M628.22,-240.5C594.13,-230.23 536.86,-212.99 497.31,-201.08"/>
<polygon fill="#63b8ff" stroke="#63b8ff" points="498.45,-197.77 487.86,-198.23 496.43,-204.47 498.45,-197.77"/>
</a>
</g>
</g>
<!-- Node17 -->
<g id="Node000017" class="node">
<title>Node17</title>
<g id="a_Node000017"><a xlink:href="packet__buf_8h.html" target="_top" xlink:title=" ">
<polygon fill="white" stroke="#666666" points="985.88,-203.75 855.88,-203.75 855.88,-170.25 985.88,-170.25 985.88,-203.75"/>
<text text-anchor="start" x="863.88" y="-190.25" font-family="Helvetica,sans-Serif" font-size="10.00">vlcb/net/storage/packet</text>
<text text-anchor="middle" x="920.88" y="-177.5" font-family="Helvetica,sans-Serif" font-size="10.00">_buf.h</text>
</a>
</g>
</g>
<!-- Node15&#45;&gt;Node17 -->
<g id="edge30_Node000015_Node000017" class="edge">
<title>Node15&#45;&gt;Node17</title>
<g id="a_edge30_Node000015_Node000017"><a xlink:title=" ">
<path fill="none" stroke="#63b8ff" d="M685.38,-242.53C723.09,-233.79 791.02,-218.07 844.26,-205.74"/>
<polygon fill="#63b8ff" stroke="#63b8ff" points="844.96,-209.17 853.91,-203.5 843.38,-202.35 844.96,-209.17"/>
</a>
</g>
</g>
<!-- Node16&#45;&gt;Node5 -->
<g id="edge26_Node000016_Node000005" class="edge">
<title>Node16&#45;&gt;Node5</title>
<g id="a_edge26_Node000016_Node000005"><a xlink:title=" ">
<path fill="none" stroke="#63b8ff" d="M425.56,-176.18C418.83,-174.04 411.64,-171.93 404.88,-170.25 360.19,-159.18 230.46,-169.52 200.88,-134.25 190.49,-121.87 192.42,-103.14 196.27,-88.77"/>
<polygon fill="#63b8ff" stroke="#63b8ff" points="199.55,-89.99 199.26,-79.4 192.88,-87.86 199.55,-89.99"/>
</a>
</g>
</g>
<!-- Node16&#45;&gt;Node6 -->
<g id="edge28_Node000016_Node000006" class="edge">
<title>Node16&#45;&gt;Node6</title>
<g id="a_edge28_Node000016_Node000006"><a xlink:title=" ">
<path fill="none" stroke="#63b8ff" d="M457.09,-176.18C459.82,-167.84 463.82,-155.61 467.23,-145.18"/>
<polygon fill="#63b8ff" stroke="#63b8ff" points="470.48,-146.5 470.26,-135.91 463.83,-144.32 470.48,-146.5"/>
</a>
</g>
</g>
<!-- Node16&#45;&gt;Node12 -->
<g id="edge27_Node000016_Node000012" class="edge">
<title>Node16&#45;&gt;Node12</title>
<g id="a_edge27_Node000016_Node000012"><a xlink:title=" ">
<path fill="none" stroke="#63b8ff" d="M443.15,-176.35C421.08,-156.49 370.3,-110.8 342.29,-85.6"/>
<polygon fill="#63b8ff" stroke="#63b8ff" points="344.64,-83 334.87,-78.92 339.96,-88.21 344.64,-83"/>
</a>
</g>
</g>
<!-- Node17&#45;&gt;Node3 -->
<g id="edge31_Node000017_Node000003" class="edge">
<title>Node17&#45;&gt;Node3</title>
<g id="a_edge31_Node000017_Node000003"><a xlink:title=" ">
<path fill="none" stroke="#63b8ff" d="M912.85,-169.79C903.54,-152.81 886.51,-126.8 863.88,-113.5 823.45,-89.75 689.79,-76.47 620.83,-71.05"/>
<polygon fill="#63b8ff" stroke="#63b8ff" points="621.29,-67.58 611.06,-70.3 620.76,-74.56 621.29,-67.58"/>
</a>
</g>
</g>
<!-- Node17&#45;&gt;Node8 -->
<g id="edge32_Node000017_Node000008" class="edge">
<title>Node17&#45;&gt;Node8</title>
<g id="a_edge32_Node000017_Node000008"><a xlink:title=" ">
<path fill="none" stroke="#63b8ff" d="M896.18,-169.94C882.35,-160.95 865.16,-149.77 851.36,-140.8"/>
<polygon fill="#63b8ff" stroke="#63b8ff" points="853.57,-138.06 843.28,-135.54 849.75,-143.93 853.57,-138.06"/>
</a>
</g>
</g>
<!-- Node17&#45;&gt;Node11 -->
<g id="edge33_Node000017_Node000011" class="edge">
<title>Node17&#45;&gt;Node11</title>
<g id="a_edge33_Node000017_Node000011"><a xlink:title=" ">
<path fill="none" stroke="#63b8ff" d="M918.17,-169.84C914.51,-153.15 906.3,-127.62 888.88,-113.5 797.68,-39.58 423.32,-17.89 302.59,-12.76"/>
<polygon fill="#63b8ff" stroke="#63b8ff" points="303.04,-9.27 292.91,-12.36 302.75,-16.27 303.04,-9.27"/>
</a>
</g>
</g>
</g>
</svg>
