<?xml version="1.0" encoding="UTF-8" standalone="no"?>
<!DOCTYPE svg PUBLIC "-//W3C//DTD SVG 1.1//EN"
 "http://www.w3.org/Graphics/SVG/1.1/DTD/svg11.dtd">
<!-- Generated by graphviz version 12.1.2 (20240928.0832)
 -->
<!-- Title: dcc.h Pages: 1 -->
<svg width="584pt" height="199pt"
 viewBox="0.00 0.00 583.75 199.00" xmlns="http://www.w3.org/2000/svg" xmlns:xlink="http://www.w3.org/1999/xlink">
<g id="graph0" class="graph" transform="scale(1 1) rotate(0) translate(4 195)">
<title>dcc.h</title>
<!-- Node1 -->
<g id="Node000001" class="node">
<title>Node1</title>
<g id="a_Node000001"><a xlink:title=" ">
<polygon fill="#999999" stroke="#666666" points="262,-191 220.5,-191 220.5,-170.25 262,-170.25 262,-191"/>
<text text-anchor="middle" x="241.25" y="-177.5" font-family="Helvetica,sans-Serif" font-size="10.00">dcc.h</text>
</a>
</g>
</g>
<!-- Node2 -->
<g id="Node000002" class="node">
<title>Node2</title>
<g id="a_Node000002"><a xlink:href="common_2inc_2vlcb_2common_2dcc_8h.html" target="_top" xlink:title=" ">
<polygon fill="white" stroke="#666666" points="110.5,-77.5 0,-77.5 0,-56.75 110.5,-56.75 110.5,-77.5"/>
<text text-anchor="middle" x="55.25" y="-64" font-family="Helvetica,sans-Serif" font-size="10.00">vlcb/common/dcc.h</text>
</a>
</g>
</g>
<!-- Node1&#45;&gt;Node2 -->
<g id="edge1_Node000001_Node000002" class="edge">
<title>Node1&#45;&gt;Node2</title>
<g id="a_edge1_Node000001_Node000002"><a xlink:title=" ">
<path fill="none" stroke="#63b8ff" d="M220.22,-174.2C195.86,-167.31 155.12,-153.91 124.25,-134.25 103.59,-121.09 83.8,-101.11 70.76,-86.56"/>
<polygon fill="#63b8ff" stroke="#63b8ff" points="73.42,-84.29 64.22,-79.05 68.15,-88.89 73.42,-84.29"/>
</a>
</g>
</g>
<!-- Node3 -->
<g id="Node000003" class="node">
<title>Node3</title>
<g id="a_Node000003"><a xlink:title=" ">
<polygon fill="#e0e0e0" stroke="#999999" points="164.62,-20.75 111.88,-20.75 111.88,0 164.62,0 164.62,-20.75"/>
<text text-anchor="middle" x="138.25" y="-7.25" font-family="Helvetica,sans-Serif" font-size="10.00">stdint.h</text>
</a>
</g>
</g>
<!-- Node1&#45;&gt;Node3 -->
<g id="edge10_Node000001_Node000003" class="edge">
<title>Node1&#45;&gt;Node3</title>
<g id="a_edge10_Node000001_Node000003"><a xlink:title=" ">
<path fill="none" stroke="#63b8ff" d="M220.01,-174.06C200.45,-167.76 172.25,-155.51 157.25,-134.25 135.75,-103.78 134.62,-58.49 136.15,-32.25"/>
<polygon fill="#63b8ff" stroke="#63b8ff" points="139.62,-32.8 136.92,-22.55 132.64,-32.24 139.62,-32.8"/>
</a>
</g>
</g>
<!-- Node4 -->
<g id="Node000004" class="node">
<title>Node4</title>
<g id="a_Node000004"><a xlink:href="packet_2datagram_8h.html" target="_top" xlink:title=" ">
<polygon fill="white" stroke="#666666" points="316,-134.25 166.5,-134.25 166.5,-113.5 316,-113.5 316,-134.25"/>
<text text-anchor="middle" x="241.25" y="-120.75" font-family="Helvetica,sans-Serif" font-size="10.00">vlcb/net/packet/datagram.h</text>
</a>
</g>
</g>
<!-- Node1&#45;&gt;Node4 -->
<g id="edge3_Node000001_Node000004" class="edge">
<title>Node1&#45;&gt;Node4</title>
<g id="a_edge3_Node000001_Node000004"><a xlink:title=" ">
<path fill="none" stroke="#63b8ff" d="M241.25,-169.84C241.25,-163.22 241.25,-154.22 241.25,-146.02"/>
<polygon fill="#63b8ff" stroke="#63b8ff" points="244.75,-146.09 241.25,-136.09 237.75,-146.09 244.75,-146.09"/>
</a>
</g>
</g>
<!-- Node8 -->
<g id="Node000008" class="node">
<title>Node8</title>
<g id="a_Node000008"><a xlink:href="serialization_8h.html" target="_top" xlink:title=" ">
<polygon fill="white" stroke="#666666" points="496.38,-134.25 334.12,-134.25 334.12,-113.5 496.38,-113.5 496.38,-134.25"/>
<text text-anchor="middle" x="415.25" y="-120.75" font-family="Helvetica,sans-Serif" font-size="10.00">vlcb/net/packet/serialization.h</text>
</a>
</g>
</g>
<!-- Node1&#45;&gt;Node8 -->
<g id="edge8_Node000001_Node000008" class="edge">
<title>Node1&#45;&gt;Node8</title>
<g id="a_edge8_Node000001_Node000008"><a xlink:title=" ">
<path fill="none" stroke="#63b8ff" d="M262.24,-173.02C289.56,-164.42 337.96,-149.2 373.02,-138.16"/>
<polygon fill="#63b8ff" stroke="#63b8ff" points="373.96,-141.54 382.45,-135.2 371.86,-134.86 373.96,-141.54"/>
</a>
</g>
</g>
<!-- Node9 -->
<g id="Node000009" class="node">
<title>Node9</title>
<g id="a_Node000009"><a xlink:title=" ">
<polygon fill="#e0e0e0" stroke="#999999" points="575.75,-134.25 514.75,-134.25 514.75,-113.5 575.75,-113.5 575.75,-134.25"/>
<text text-anchor="middle" x="545.25" y="-120.75" font-family="Helvetica,sans-Serif" font-size="10.00">stdbool.h</text>
</a>
</g>
</g>
<!-- Node1&#45;&gt;Node9 -->
<g id="edge9_Node000001_Node000009" class="edge">
<title>Node1&#45;&gt;Node9</title>
<g id="a_edge9_Node000001_Node000009"><a xlink:title=" ">
<path fill="none" stroke="#63b8ff" d="M262.21,-176.46C305.32,-169.86 407.29,-153.77 503.22,-134.56"/>
<polygon fill="#63b8ff" stroke="#63b8ff" points="503.69,-138.04 512.8,-132.63 502.3,-131.18 503.69,-138.04"/>
</a>
</g>
</g>
<!-- Node2&#45;&gt;Node3 -->
<g id="edge2_Node000002_Node000003" class="edge">
<title>Node2&#45;&gt;Node3</title>
<g id="a_edge2_Node000002_Node000003"><a xlink:title=" ">
<path fill="none" stroke="#63b8ff" d="M70.09,-56.34C82.36,-48.24 100.04,-36.58 114.31,-27.17"/>
<polygon fill="#63b8ff" stroke="#63b8ff" points="115.86,-30.34 122.28,-21.91 112,-24.5 115.86,-30.34"/>
</a>
</g>
</g>
<!-- Node5 -->
<g id="Node000005" class="node">
<title>Node5</title>
<g id="a_Node000005"><a xlink:title=" ">
<polygon fill="#e0e0e0" stroke="#999999" points="230.62,-77.5 165.88,-77.5 165.88,-56.75 230.62,-56.75 230.62,-77.5"/>
<text text-anchor="middle" x="198.25" y="-64" font-family="Helvetica,sans-Serif" font-size="10.00">inttypes.h</text>
</a>
</g>
</g>
<!-- Node4&#45;&gt;Node5 -->
<g id="edge4_Node000004_Node000005" class="edge">
<title>Node4&#45;&gt;Node5</title>
<g id="a_edge4_Node000004_Node000005"><a xlink:title=" ">
<path fill="none" stroke="#63b8ff" d="M233.56,-113.09C227.81,-105.77 219.78,-95.54 212.83,-86.69"/>
<polygon fill="#63b8ff" stroke="#63b8ff" points="215.74,-84.72 206.81,-79.02 210.23,-89.05 215.74,-84.72"/>
</a>
</g>
</g>
<!-- Node6 -->
<g id="Node000006" class="node">
<title>Node6</title>
<g id="a_Node000006"><a xlink:href="opcode_8h.html" target="_top" xlink:title=" ">
<polygon fill="white" stroke="#666666" points="377.88,-77.5 248.62,-77.5 248.62,-56.75 377.88,-56.75 377.88,-77.5"/>
<text text-anchor="middle" x="313.25" y="-64" font-family="Helvetica,sans-Serif" font-size="10.00">vlcb/common/opcode.h</text>
</a>
</g>
</g>
<!-- Node4&#45;&gt;Node6 -->
<g id="edge5_Node000004_Node000006" class="edge">
<title>Node4&#45;&gt;Node6</title>
<g id="a_edge5_Node000004_Node000006"><a xlink:title=" ">
<path fill="none" stroke="#63b8ff" d="M254.12,-113.09C264.46,-105.22 279.22,-94 291.4,-84.74"/>
<polygon fill="#63b8ff" stroke="#63b8ff" points="293.44,-87.58 299.28,-78.74 289.21,-82.01 293.44,-87.58"/>
</a>
</g>
</g>
<!-- Node7 -->
<g id="Node000007" class="node">
<title>Node7</title>
<g id="a_Node000007"><a xlink:href="error_8h.html" target="_top" xlink:title=" ">
<polygon fill="white" stroke="#666666" points="512.12,-77.5 396.38,-77.5 396.38,-56.75 512.12,-56.75 512.12,-77.5"/>
<text text-anchor="middle" x="454.25" y="-64" font-family="Helvetica,sans-Serif" font-size="10.00">vlcb/platform/error.h</text>
</a>
</g>
</g>
<!-- Node4&#45;&gt;Node7 -->
<g id="edge7_Node000004_Node000007" class="edge">
<title>Node4&#45;&gt;Node7</title>
<g id="a_edge7_Node000004_Node000007"><a xlink:title=" ">
<path fill="none" stroke="#63b8ff" d="M279.33,-113.09C314.51,-104.04 366.96,-90.56 405.25,-80.72"/>
<polygon fill="#63b8ff" stroke="#63b8ff" points="405.86,-84.18 414.68,-78.3 404.12,-77.4 405.86,-84.18"/>
</a>
</g>
</g>
<!-- Node6&#45;&gt;Node3 -->
<g id="edge6_Node000006_Node000003" class="edge">
<title>Node6&#45;&gt;Node3</title>
<g id="a_edge6_Node000006_Node000003"><a xlink:title=" ">
<path fill="none" stroke="#63b8ff" d="M281.96,-56.34C252.15,-47.01 207.24,-32.96 175.57,-23.05"/>
<polygon fill="#63b8ff" stroke="#63b8ff" points="177,-19.83 166.41,-20.19 174.91,-26.51 177,-19.83"/>
</a>
</g>
</g>
</g>
</svg>
