<?xml version="1.0" encoding="UTF-8" standalone="no"?>
<!DOCTYPE svg PUBLIC "-//W3C//DTD SVG 1.1//EN"
 "http://www.w3.org/Graphics/SVG/1.1/DTD/svg11.dtd">
<!-- Generated by graphviz version 12.1.2 (20240928.0832)
 -->
<!-- Title: module.h Pages: 1 -->
<svg width="838pt" height="199pt"
 viewBox="0.00 0.00 837.75 199.00" xmlns="http://www.w3.org/2000/svg" xmlns:xlink="http://www.w3.org/1999/xlink">
<g id="graph0" class="graph" transform="scale(1 1) rotate(0) translate(4 195)">
<title>module.h</title>
<!-- Node1 -->
<g id="Node000001" class="node">
<title>Node1</title>
<g id="a_Node000001"><a xlink:title=" ">
<polygon fill="#999999" stroke="#666666" points="382.5,-191 320.75,-191 320.75,-170.25 382.5,-170.25 382.5,-191"/>
<text text-anchor="middle" x="351.62" y="-177.5" font-family="Helvetica,sans-Serif" font-size="10.00">module.h</text>
</a>
</g>
</g>
<!-- Node2 -->
<g id="Node000002" class="node">
<title>Node2</title>
<g id="a_Node000002"><a xlink:href="manufacturer_8h.html" target="_top" xlink:title=" ">
<polygon fill="white" stroke="#666666" points="159.25,-77.5 0,-77.5 0,-56.75 159.25,-56.75 159.25,-77.5"/>
<text text-anchor="middle" x="79.62" y="-64" font-family="Helvetica,sans-Serif" font-size="10.00">vlcb/common/manufacturer.h</text>
</a>
</g>
</g>
<!-- Node1&#45;&gt;Node2 -->
<g id="edge1_Node000001_Node000002" class="edge">
<title>Node1&#45;&gt;Node2</title>
<g id="a_edge1_Node000001_Node000002"><a xlink:title=" ">
<path fill="none" stroke="#63b8ff" d="M320.56,-175.22C284.11,-169.27 222.44,-156.72 173.62,-134.25 145.69,-121.39 117.32,-100.05 99.16,-85.1"/>
<polygon fill="#63b8ff" stroke="#63b8ff" points="101.72,-82.67 91.81,-78.91 97.21,-88.03 101.72,-82.67"/>
</a>
</g>
</g>
<!-- Node3 -->
<g id="Node000003" class="node">
<title>Node3</title>
<g id="a_Node000003"><a xlink:title=" ">
<polygon fill="#e0e0e0" stroke="#999999" points="260,-20.75 207.25,-20.75 207.25,0 260,0 260,-20.75"/>
<text text-anchor="middle" x="233.62" y="-7.25" font-family="Helvetica,sans-Serif" font-size="10.00">stdint.h</text>
</a>
</g>
</g>
<!-- Node1&#45;&gt;Node3 -->
<g id="edge13_Node000001_Node000003" class="edge">
<title>Node1&#45;&gt;Node3</title>
<g id="a_edge13_Node000001_Node000003"><a xlink:title=" ">
<path fill="none" stroke="#63b8ff" d="M320.38,-179.84C286.15,-178.19 232.63,-169.64 206.62,-134.25 183.78,-103.16 205.32,-56.46 220.87,-30.51"/>
<polygon fill="#63b8ff" stroke="#63b8ff" points="223.65,-32.66 226.02,-22.33 217.72,-28.93 223.65,-32.66"/>
</a>
</g>
</g>
<!-- Node4 -->
<g id="Node000004" class="node">
<title>Node4</title>
<g id="a_Node000004"><a xlink:href="common_2inc_2vlcb_2common_2module_8h.html" target="_top" xlink:title=" ">
<polygon fill="white" stroke="#666666" points="346,-134.25 215.25,-134.25 215.25,-113.5 346,-113.5 346,-134.25"/>
<text text-anchor="middle" x="280.62" y="-120.75" font-family="Helvetica,sans-Serif" font-size="10.00">vlcb/common/module.h</text>
</a>
</g>
</g>
<!-- Node1&#45;&gt;Node4 -->
<g id="edge3_Node000001_Node000004" class="edge">
<title>Node1&#45;&gt;Node4</title>
<g id="a_edge3_Node000001_Node000004"><a xlink:title=" ">
<path fill="none" stroke="#63b8ff" d="M338.93,-169.84C328.73,-161.97 314.18,-150.75 302.17,-141.49"/>
<polygon fill="#63b8ff" stroke="#63b8ff" points="304.46,-138.84 294.41,-135.5 300.19,-144.38 304.46,-138.84"/>
</a>
</g>
</g>
<!-- Node5 -->
<g id="Node000005" class="node">
<title>Node5</title>
<g id="a_Node000005"><a xlink:href="node_8h.html" target="_top" xlink:title=" ">
<polygon fill="white" stroke="#666666" points="481.62,-134.25 363.62,-134.25 363.62,-113.5 481.62,-113.5 481.62,-134.25"/>
<text text-anchor="middle" x="422.62" y="-120.75" font-family="Helvetica,sans-Serif" font-size="10.00">vlcb/common/node.h</text>
</a>
</g>
</g>
<!-- Node1&#45;&gt;Node5 -->
<g id="edge5_Node000001_Node000005" class="edge">
<title>Node1&#45;&gt;Node5</title>
<g id="a_edge5_Node000001_Node000005"><a xlink:title=" ">
<path fill="none" stroke="#63b8ff" d="M364.32,-169.84C374.52,-161.97 389.07,-150.75 401.08,-141.49"/>
<polygon fill="#63b8ff" stroke="#63b8ff" points="403.06,-144.38 408.84,-135.5 398.79,-138.84 403.06,-144.38"/>
</a>
</g>
</g>
<!-- Node7 -->
<g id="Node000007" class="node">
<title>Node7</title>
<g id="a_Node000007"><a xlink:href="packet_2datagram_8h.html" target="_top" xlink:title=" ">
<polygon fill="white" stroke="#666666" points="649.38,-134.25 499.88,-134.25 499.88,-113.5 649.38,-113.5 649.38,-134.25"/>
<text text-anchor="middle" x="574.62" y="-120.75" font-family="Helvetica,sans-Serif" font-size="10.00">vlcb/net/packet/datagram.h</text>
</a>
</g>
</g>
<!-- Node1&#45;&gt;Node7 -->
<g id="edge7_Node000001_Node000007" class="edge">
<title>Node1&#45;&gt;Node7</title>
<g id="a_edge7_Node000001_Node000007"><a xlink:title=" ">
<path fill="none" stroke="#63b8ff" d="M382.63,-172.01C419.07,-163.07 480.08,-148.09 523.54,-137.42"/>
<polygon fill="#63b8ff" stroke="#63b8ff" points="524.11,-140.88 532.99,-135.1 522.44,-134.08 524.11,-140.88"/>
</a>
</g>
</g>
<!-- Node10 -->
<g id="Node000010" class="node">
<title>Node10</title>
<g id="a_Node000010"><a xlink:href="serialization_8h.html" target="_top" xlink:title=" ">
<polygon fill="white" stroke="#666666" points="829.75,-134.25 667.5,-134.25 667.5,-113.5 829.75,-113.5 829.75,-134.25"/>
<text text-anchor="middle" x="748.62" y="-120.75" font-family="Helvetica,sans-Serif" font-size="10.00">vlcb/net/packet/serialization.h</text>
</a>
</g>
</g>
<!-- Node1&#45;&gt;Node10 -->
<g id="edge12_Node000001_Node000010" class="edge">
<title>Node1&#45;&gt;Node10</title>
<g id="a_edge12_Node000001_Node000010"><a xlink:title=" ">
<path fill="none" stroke="#63b8ff" d="M382.78,-175.33C443.19,-167 578.06,-148.4 666.08,-136.26"/>
<polygon fill="#63b8ff" stroke="#63b8ff" points="666.45,-139.74 675.88,-134.91 665.49,-132.81 666.45,-139.74"/>
</a>
</g>
</g>
<!-- Node2&#45;&gt;Node3 -->
<g id="edge2_Node000002_Node000003" class="edge">
<title>Node2&#45;&gt;Node3</title>
<g id="a_edge2_Node000002_Node000003"><a xlink:title=" ">
<path fill="none" stroke="#63b8ff" d="M107.16,-56.34C131.95,-47.52 168.6,-34.49 196.07,-24.73"/>
<polygon fill="#63b8ff" stroke="#63b8ff" points="197.17,-28.05 205.42,-21.4 194.83,-21.45 197.17,-28.05"/>
</a>
</g>
</g>
<!-- Node4&#45;&gt;Node3 -->
<g id="edge4_Node000004_Node000003" class="edge">
<title>Node4&#45;&gt;Node3</title>
<g id="a_edge4_Node000004_Node000003"><a xlink:title=" ">
<path fill="none" stroke="#63b8ff" d="M276.62,-113.37C269.03,-95.36 252.39,-55.89 242.18,-31.68"/>
<polygon fill="#63b8ff" stroke="#63b8ff" points="245.45,-30.43 238.34,-22.57 239,-33.14 245.45,-30.43"/>
</a>
</g>
</g>
<!-- Node6 -->
<g id="Node000006" class="node">
<title>Node6</title>
<g id="a_Node000006"><a xlink:title=" ">
<polygon fill="#e0e0e0" stroke="#999999" points="455,-77.5 390.25,-77.5 390.25,-56.75 455,-56.75 455,-77.5"/>
<text text-anchor="middle" x="422.62" y="-64" font-family="Helvetica,sans-Serif" font-size="10.00">inttypes.h</text>
</a>
</g>
</g>
<!-- Node5&#45;&gt;Node6 -->
<g id="edge6_Node000005_Node000006" class="edge">
<title>Node5&#45;&gt;Node6</title>
<g id="a_edge6_Node000005_Node000006"><a xlink:title=" ">
<path fill="none" stroke="#63b8ff" d="M422.62,-113.09C422.62,-106.47 422.62,-97.47 422.62,-89.27"/>
<polygon fill="#63b8ff" stroke="#63b8ff" points="426.13,-89.34 422.63,-79.34 419.13,-89.34 426.13,-89.34"/>
</a>
</g>
</g>
<!-- Node7&#45;&gt;Node6 -->
<g id="edge8_Node000007_Node000006" class="edge">
<title>Node7&#45;&gt;Node6</title>
<g id="a_edge8_Node000007_Node000006"><a xlink:title=" ">
<path fill="none" stroke="#63b8ff" d="M547.45,-113.09C523.21,-104.36 487.47,-91.48 460.44,-81.75"/>
<polygon fill="#63b8ff" stroke="#63b8ff" points="461.84,-78.53 451.24,-78.43 459.47,-85.12 461.84,-78.53"/>
</a>
</g>
</g>
<!-- Node8 -->
<g id="Node000008" class="node">
<title>Node8</title>
<g id="a_Node000008"><a xlink:href="opcode_8h.html" target="_top" xlink:title=" ">
<polygon fill="white" stroke="#666666" points="602.25,-77.5 473,-77.5 473,-56.75 602.25,-56.75 602.25,-77.5"/>
<text text-anchor="middle" x="537.62" y="-64" font-family="Helvetica,sans-Serif" font-size="10.00">vlcb/common/opcode.h</text>
</a>
</g>
</g>
<!-- Node7&#45;&gt;Node8 -->
<g id="edge9_Node000007_Node000008" class="edge">
<title>Node7&#45;&gt;Node8</title>
<g id="a_edge9_Node000007_Node000008"><a xlink:title=" ">
<path fill="none" stroke="#63b8ff" d="M568.01,-113.09C563.17,-105.92 556.45,-95.98 550.55,-87.26"/>
<polygon fill="#63b8ff" stroke="#63b8ff" points="553.53,-85.41 545.03,-79.08 547.73,-89.33 553.53,-85.41"/>
</a>
</g>
</g>
<!-- Node9 -->
<g id="Node000009" class="node">
<title>Node9</title>
<g id="a_Node000009"><a xlink:href="error_8h.html" target="_top" xlink:title=" ">
<polygon fill="white" stroke="#666666" points="736.5,-77.5 620.75,-77.5 620.75,-56.75 736.5,-56.75 736.5,-77.5"/>
<text text-anchor="middle" x="678.62" y="-64" font-family="Helvetica,sans-Serif" font-size="10.00">vlcb/platform/error.h</text>
</a>
</g>
</g>
<!-- Node7&#45;&gt;Node9 -->
<g id="edge11_Node000007_Node000009" class="edge">
<title>Node7&#45;&gt;Node9</title>
<g id="a_edge11_Node000007_Node000009"><a xlink:title=" ">
<path fill="none" stroke="#63b8ff" d="M593.22,-113.09C609.04,-104.76 632.02,-92.66 650.16,-83.11"/>
<polygon fill="#63b8ff" stroke="#63b8ff" points="651.64,-86.29 658.85,-78.53 648.37,-80.09 651.64,-86.29"/>
</a>
</g>
</g>
<!-- Node8&#45;&gt;Node3 -->
<g id="edge10_Node000008_Node000003" class="edge">
<title>Node8&#45;&gt;Node3</title>
<g id="a_edge10_Node000008_Node000003"><a xlink:title=" ">
<path fill="none" stroke="#63b8ff" d="M482.92,-56.27C421.9,-45.28 324.77,-27.79 271.56,-18.21"/>
<polygon fill="#63b8ff" stroke="#63b8ff" points="272.22,-14.77 261.76,-16.44 270.98,-21.66 272.22,-14.77"/>
</a>
</g>
</g>
</g>
</svg>
