<?xml version="1.0" encoding="UTF-8" standalone="no"?>
<!DOCTYPE svg PUBLIC "-//W3C//DTD SVG 1.1//EN"
 "http://www.w3.org/Graphics/SVG/1.1/DTD/svg11.dtd">
<!-- Generated by graphviz version 12.1.2 (20240928.0832)
 -->
<!-- Title: event.h Pages: 1 -->
<svg width="550pt" height="199pt"
 viewBox="0.00 0.00 550.12 199.00" xmlns="http://www.w3.org/2000/svg" xmlns:xlink="http://www.w3.org/1999/xlink">
<g id="graph0" class="graph" transform="scale(1 1) rotate(0) translate(4 195)">
<title>event.h</title>
<!-- Node1 -->
<g id="Node000001" class="node">
<title>Node1</title>
<g id="a_Node000001"><a xlink:title=" ">
<polygon fill="#999999" stroke="#666666" points="210.38,-191 157.62,-191 157.62,-170.25 210.38,-170.25 210.38,-191"/>
<text text-anchor="middle" x="184" y="-177.5" font-family="Helvetica,sans-Serif" font-size="10.00">event.h</text>
</a>
</g>
</g>
<!-- Node2 -->
<g id="Node000002" class="node">
<title>Node2</title>
<g id="a_Node000002"><a xlink:href="common_2inc_2vlcb_2common_2event_8h.html" target="_top" xlink:title=" ">
<polygon fill="white" stroke="#666666" points="155.88,-134.25 34.12,-134.25 34.12,-113.5 155.88,-113.5 155.88,-134.25"/>
<text text-anchor="middle" x="95" y="-120.75" font-family="Helvetica,sans-Serif" font-size="10.00">vlcb/common/event.h</text>
</a>
</g>
</g>
<!-- Node1&#45;&gt;Node2 -->
<g id="edge1_Node000001_Node000002" class="edge">
<title>Node1&#45;&gt;Node2</title>
<g id="a_edge1_Node000001_Node000002"><a xlink:title=" ">
<path fill="none" stroke="#63b8ff" d="M168.09,-169.84C154.8,-161.66 135.61,-149.86 120.23,-140.4"/>
<polygon fill="#63b8ff" stroke="#63b8ff" points="122.41,-137.63 112.06,-135.37 118.75,-143.59 122.41,-137.63"/>
</a>
</g>
</g>
<!-- Node3 -->
<g id="Node000003" class="node">
<title>Node3</title>
<g id="a_Node000003"><a xlink:href="node_8h.html" target="_top" xlink:title=" ">
<polygon fill="white" stroke="#666666" points="118,-77.5 0,-77.5 0,-56.75 118,-56.75 118,-77.5"/>
<text text-anchor="middle" x="59" y="-64" font-family="Helvetica,sans-Serif" font-size="10.00">vlcb/common/node.h</text>
</a>
</g>
</g>
<!-- Node1&#45;&gt;Node3 -->
<g id="edge5_Node000001_Node000003" class="edge">
<title>Node1&#45;&gt;Node3</title>
<g id="a_edge5_Node000001_Node000003"><a xlink:title=" ">
<path fill="none" stroke="#63b8ff" d="M157.45,-175.93C116.5,-169.63 40.95,-155.39 25,-134.25 13.54,-119.06 26.55,-99.44 39.65,-85.53"/>
<polygon fill="#63b8ff" stroke="#63b8ff" points="41.86,-88.27 46.52,-78.75 36.94,-83.28 41.86,-88.27"/>
</a>
</g>
</g>
<!-- Node5 -->
<g id="Node000005" class="node">
<title>Node5</title>
<g id="a_Node000005"><a xlink:title=" ">
<polygon fill="#e0e0e0" stroke="#999999" points="210.38,-20.75 157.62,-20.75 157.62,0 210.38,0 210.38,-20.75"/>
<text text-anchor="middle" x="184" y="-7.25" font-family="Helvetica,sans-Serif" font-size="10.00">stdint.h</text>
</a>
</g>
</g>
<!-- Node1&#45;&gt;Node5 -->
<g id="edge12_Node000001_Node000005" class="edge">
<title>Node1&#45;&gt;Node5</title>
<g id="a_edge12_Node000001_Node000005"><a xlink:title=" ">
<path fill="none" stroke="#63b8ff" d="M184,-170.1C184,-143.73 184,-69.33 184,-32.53"/>
<polygon fill="#63b8ff" stroke="#63b8ff" points="187.5,-32.73 184,-22.73 180.5,-32.73 187.5,-32.73"/>
</a>
</g>
</g>
<!-- Node6 -->
<g id="Node000006" class="node">
<title>Node6</title>
<g id="a_Node000006"><a xlink:href="packet_2datagram_8h.html" target="_top" xlink:title=" ">
<polygon fill="white" stroke="#666666" points="361.75,-134.25 212.25,-134.25 212.25,-113.5 361.75,-113.5 361.75,-134.25"/>
<text text-anchor="middle" x="287" y="-120.75" font-family="Helvetica,sans-Serif" font-size="10.00">vlcb/net/packet/datagram.h</text>
</a>
</g>
</g>
<!-- Node1&#45;&gt;Node6 -->
<g id="edge6_Node000001_Node000006" class="edge">
<title>Node1&#45;&gt;Node6</title>
<g id="a_edge6_Node000001_Node000006"><a xlink:title=" ">
<path fill="none" stroke="#63b8ff" d="M202.41,-169.84C218.09,-161.51 240.85,-149.41 258.81,-139.86"/>
<polygon fill="#63b8ff" stroke="#63b8ff" points="260.22,-143.07 267.41,-135.29 256.94,-136.89 260.22,-143.07"/>
</a>
</g>
</g>
<!-- Node9 -->
<g id="Node000009" class="node">
<title>Node9</title>
<g id="a_Node000009"><a xlink:href="serialization_8h.html" target="_top" xlink:title=" ">
<polygon fill="white" stroke="#666666" points="542.12,-134.25 379.88,-134.25 379.88,-113.5 542.12,-113.5 542.12,-134.25"/>
<text text-anchor="middle" x="461" y="-120.75" font-family="Helvetica,sans-Serif" font-size="10.00">vlcb/net/packet/serialization.h</text>
</a>
</g>
</g>
<!-- Node1&#45;&gt;Node9 -->
<g id="edge11_Node000001_Node000009" class="edge">
<title>Node1&#45;&gt;Node9</title>
<g id="a_edge11_Node000001_Node000009"><a xlink:title=" ">
<path fill="none" stroke="#63b8ff" d="M210.81,-174.33C254.24,-165.74 341.06,-148.58 400.1,-136.91"/>
<polygon fill="#63b8ff" stroke="#63b8ff" points="400.54,-140.39 409.67,-135.02 399.18,-133.53 400.54,-140.39"/>
</a>
</g>
</g>
<!-- Node2&#45;&gt;Node3 -->
<g id="edge2_Node000002_Node000003" class="edge">
<title>Node2&#45;&gt;Node3</title>
<g id="a_edge2_Node000002_Node000003"><a xlink:title=" ">
<path fill="none" stroke="#63b8ff" d="M88.56,-113.09C83.85,-105.92 77.31,-95.98 71.58,-87.26"/>
<polygon fill="#63b8ff" stroke="#63b8ff" points="74.63,-85.53 66.21,-79.09 68.78,-89.37 74.63,-85.53"/>
</a>
</g>
</g>
<!-- Node2&#45;&gt;Node5 -->
<g id="edge4_Node000002_Node000005" class="edge">
<title>Node2&#45;&gt;Node5</title>
<g id="a_edge4_Node000002_Node000005"><a xlink:title=" ">
<path fill="none" stroke="#63b8ff" d="M102.59,-113.37C117.29,-94.95 149.91,-54.09 169.09,-30.05"/>
<polygon fill="#63b8ff" stroke="#63b8ff" points="171.73,-32.36 175.23,-22.36 166.26,-27.99 171.73,-32.36"/>
</a>
</g>
</g>
<!-- Node4 -->
<g id="Node000004" class="node">
<title>Node4</title>
<g id="a_Node000004"><a xlink:title=" ">
<polygon fill="#e0e0e0" stroke="#999999" points="115.38,-20.75 50.62,-20.75 50.62,0 115.38,0 115.38,-20.75"/>
<text text-anchor="middle" x="83" y="-7.25" font-family="Helvetica,sans-Serif" font-size="10.00">inttypes.h</text>
</a>
</g>
</g>
<!-- Node3&#45;&gt;Node4 -->
<g id="edge3_Node000003_Node000004" class="edge">
<title>Node3&#45;&gt;Node4</title>
<g id="a_edge3_Node000003_Node000004"><a xlink:title=" ">
<path fill="none" stroke="#63b8ff" d="M63.29,-56.34C66.33,-49.41 70.51,-39.87 74.24,-31.36"/>
<polygon fill="#63b8ff" stroke="#63b8ff" points="77.33,-33.03 78.14,-22.46 70.92,-30.22 77.33,-33.03"/>
</a>
</g>
</g>
<!-- Node6&#45;&gt;Node4 -->
<g id="edge7_Node000006_Node000004" class="edge">
<title>Node6&#45;&gt;Node4</title>
<g id="a_edge7_Node000006_Node000004"><a xlink:title=" ">
<path fill="none" stroke="#63b8ff" d="M269.25,-113.18C233.69,-93.74 153.45,-49.88 110.83,-26.58"/>
<polygon fill="#63b8ff" stroke="#63b8ff" points="112.63,-23.58 102.18,-21.86 109.28,-29.73 112.63,-23.58"/>
</a>
</g>
</g>
<!-- Node7 -->
<g id="Node000007" class="node">
<title>Node7</title>
<g id="a_Node000007"><a xlink:href="opcode_8h.html" target="_top" xlink:title=" ">
<polygon fill="white" stroke="#666666" points="379.62,-77.5 250.38,-77.5 250.38,-56.75 379.62,-56.75 379.62,-77.5"/>
<text text-anchor="middle" x="315" y="-64" font-family="Helvetica,sans-Serif" font-size="10.00">vlcb/common/opcode.h</text>
</a>
</g>
</g>
<!-- Node6&#45;&gt;Node7 -->
<g id="edge8_Node000006_Node000007" class="edge">
<title>Node6&#45;&gt;Node7</title>
<g id="a_edge8_Node000006_Node000007"><a xlink:title=" ">
<path fill="none" stroke="#63b8ff" d="M292.01,-113.09C295.59,-106.08 300.54,-96.41 304.92,-87.83"/>
<polygon fill="#63b8ff" stroke="#63b8ff" points="307.91,-89.67 309.35,-79.18 301.68,-86.49 307.91,-89.67"/>
</a>
</g>
</g>
<!-- Node8 -->
<g id="Node000008" class="node">
<title>Node8</title>
<g id="a_Node000008"><a xlink:href="error_8h.html" target="_top" xlink:title=" ">
<polygon fill="white" stroke="#666666" points="513.88,-77.5 398.12,-77.5 398.12,-56.75 513.88,-56.75 513.88,-77.5"/>
<text text-anchor="middle" x="456" y="-64" font-family="Helvetica,sans-Serif" font-size="10.00">vlcb/platform/error.h</text>
</a>
</g>
</g>
<!-- Node6&#45;&gt;Node8 -->
<g id="edge10_Node000006_Node000008" class="edge">
<title>Node6&#45;&gt;Node8</title>
<g id="a_edge10_Node000006_Node000008"><a xlink:title=" ">
<path fill="none" stroke="#63b8ff" d="M317.21,-113.09C344.53,-104.24 384.96,-91.14 415.15,-81.36"/>
<polygon fill="#63b8ff" stroke="#63b8ff" points="415.89,-84.8 424.32,-78.39 413.73,-78.14 415.89,-84.8"/>
</a>
</g>
</g>
<!-- Node7&#45;&gt;Node5 -->
<g id="edge9_Node000007_Node000005" class="edge">
<title>Node7&#45;&gt;Node5</title>
<g id="a_edge9_Node000007_Node000005"><a xlink:title=" ">
<path fill="none" stroke="#63b8ff" d="M291.58,-56.34C271,-47.73 240.8,-35.11 217.63,-25.43"/>
<polygon fill="#63b8ff" stroke="#63b8ff" points="219.19,-22.29 208.61,-21.66 216.49,-28.75 219.19,-22.29"/>
</a>
</g>
</g>
</g>
</svg>
