<?xml version="1.0" encoding="UTF-8" standalone="no"?>
<!DOCTYPE svg PUBLIC "-//W3C//DTD SVG 1.1//EN"
 "http://www.w3.org/Graphics/SVG/1.1/DTD/svg11.dtd">
<!-- Generated by graphviz version 12.1.2 (20240928.0832)
 -->
<!-- Title: module.h Pages: 1 -->
<svg width="558pt" height="86pt"
 viewBox="0.00 0.00 557.62 85.50" xmlns="http://www.w3.org/2000/svg" xmlns:xlink="http://www.w3.org/1999/xlink">
<g id="graph0" class="graph" transform="scale(1 1) rotate(0) translate(4 81.5)">
<title>module.h</title>
<!-- Node1 -->
<g id="Node000001" class="node">
<title>Node1</title>
<g id="a_Node000001"><a xlink:title=" ">
<polygon fill="#999999" stroke="#666666" points="290.38,-77.5 228.62,-77.5 228.62,-56.75 290.38,-56.75 290.38,-77.5"/>
<text text-anchor="middle" x="259.5" y="-64" font-family="Helvetica,sans-Serif" font-size="10.00">module.h</text>
</a>
</g>
</g>
<!-- Node2 -->
<g id="Node000002" class="node">
<title>Node2</title>
<g id="a_Node000002"><a xlink:href="module_8c.html" target="_top" xlink:title=" ">
<polygon fill="white" stroke="#666666" points="61,-20.75 0,-20.75 0,0 61,0 61,-20.75"/>
<text text-anchor="middle" x="30.5" y="-7.25" font-family="Helvetica,sans-Serif" font-size="10.00">module.c</text>
</a>
</g>
</g>
<!-- Node1&#45;&gt;Node2 -->
<g id="edge1_Node000001_Node000002" class="edge">
<title>Node1&#45;&gt;Node2</title>
<g id="a_edge1_Node000001_Node000002"><a xlink:title=" ">
<path fill="none" stroke="#63b8ff" d="M217.44,-56.1C178.94,-46.92 120.38,-32.94 69.5,-20.75 66.79,-20.1 63.98,-19.43 61.16,-18.75"/>
<polygon fill="#63b8ff" stroke="#63b8ff" points="216.22,-59.41 226.76,-58.32 217.84,-52.6 216.22,-59.41"/>
</a>
</g>
</g>
<!-- Node3 -->
<g id="Node000003" class="node">
<title>Node3</title>
<g id="a_Node000003"><a xlink:href="release__node__num__deserialize_8c.html" target="_top" xlink:title=" ">
<polygon fill="white" stroke="#666666" points="254,-20.75 79,-20.75 79,0 254,0 254,-20.75"/>
<text text-anchor="middle" x="166.5" y="-7.25" font-family="Helvetica,sans-Serif" font-size="10.00">release_node_num_deserialize.c</text>
</a>
</g>
</g>
<!-- Node1&#45;&gt;Node3 -->
<g id="edge2_Node000001_Node000003" class="edge">
<title>Node1&#45;&gt;Node3</title>
<g id="a_edge2_Node000001_Node000003"><a xlink:title=" ">
<path fill="none" stroke="#63b8ff" d="M232.97,-50.51C216.87,-41.03 196.83,-29.23 182.98,-21.08"/>
<polygon fill="#63b8ff" stroke="#63b8ff" points="231.18,-53.51 241.57,-55.57 234.73,-47.48 231.18,-53.51"/>
</a>
</g>
</g>
<!-- Node4 -->
<g id="Node000004" class="node">
<title>Node4</title>
<g id="a_Node000004"><a xlink:href="release__node__num__serialize_8c.html" target="_top" xlink:title=" ">
<polygon fill="white" stroke="#666666" points="435,-20.75 272,-20.75 272,0 435,0 435,-20.75"/>
<text text-anchor="middle" x="353.5" y="-7.25" font-family="Helvetica,sans-Serif" font-size="10.00">release_node_num_serialize.c</text>
</a>
</g>
</g>
<!-- Node1&#45;&gt;Node4 -->
<g id="edge3_Node000001_Node000004" class="edge">
<title>Node1&#45;&gt;Node4</title>
<g id="a_edge3_Node000001_Node000004"><a xlink:title=" ">
<path fill="none" stroke="#63b8ff" d="M285.85,-50.78C302.2,-41.25 322.71,-29.31 336.84,-21.08"/>
<polygon fill="#63b8ff" stroke="#63b8ff" points="284.49,-47.52 277.61,-55.58 288.02,-53.57 284.49,-47.52"/>
</a>
</g>
</g>
<!-- Node5 -->
<g id="Node000005" class="node">
<title>Node5</title>
<g id="a_Node000005"><a xlink:href="state__machine_8c.html" target="_top" xlink:title=" ">
<polygon fill="white" stroke="#666666" points="549.62,-20.75 453.38,-20.75 453.38,0 549.62,0 549.62,-20.75"/>
<text text-anchor="middle" x="501.5" y="-7.25" font-family="Helvetica,sans-Serif" font-size="10.00">state_machine.c</text>
</a>
</g>
</g>
<!-- Node1&#45;&gt;Node5 -->
<g id="edge4_Node000001_Node000005" class="edge">
<title>Node1&#45;&gt;Node5</title>
<g id="a_edge4_Node000001_Node000005"><a xlink:title=" ">
<path fill="none" stroke="#63b8ff" d="M301.79,-56.56C345.68,-46.63 413.97,-31.18 458.22,-21.17"/>
<polygon fill="#63b8ff" stroke="#63b8ff" points="301.1,-53.13 292.12,-58.75 302.64,-59.95 301.1,-53.13"/>
</a>
</g>
</g>
</g>
</svg>
