<?xml version="1.0" encoding="UTF-8" standalone="no"?>
<!DOCTYPE svg PUBLIC "-//W3C//DTD SVG 1.1//EN"
 "http://www.w3.org/Graphics/SVG/1.1/DTD/svg11.dtd">
<!-- Generated by graphviz version 12.1.2 (20240928.0832)
 -->
<!-- Title: vlcb_defs_NewNodeNumberFromBytesUnchecked Pages: 1 -->
<svg width="402pt" height="42pt"
 viewBox="0.00 0.00 401.50 41.50" xmlns="http://www.w3.org/2000/svg" xmlns:xlink="http://www.w3.org/1999/xlink">
<g id="graph0" class="graph" transform="scale(1 1) rotate(0) translate(4 37.5)">
<title>vlcb_defs_NewNodeNumberFromBytesUnchecked</title>
<!-- Node1 -->
<g id="Node000001" class="node">
<title>Node1</title>
<g id="a_Node000001"><a xlink:title=" ">
<polygon fill="#999999" stroke="#666666" points="393.5,-33.5 214.75,-33.5 214.75,0 393.5,0 393.5,-33.5"/>
<text text-anchor="start" x="222.75" y="-20" font-family="Helvetica,sans-Serif" font-size="10.00">vlcb_defs_NewNodeNumberFrom</text>
<text text-anchor="middle" x="304.12" y="-7.25" font-family="Helvetica,sans-Serif" font-size="10.00">BytesUnchecked</text>
</a>
</g>
</g>
<!-- Node2 -->
<g id="Node000002" class="node">
<title>Node2</title>
<g id="a_Node000002"><a xlink:href="node__new__number__from__bytes_8c.html#adee3c126b7b8bdbe83012706b974da69" target="_top" xlink:title=" ">
<polygon fill="white" stroke="#666666" points="178.75,-33.5 0,-33.5 0,0 178.75,0 178.75,-33.5"/>
<text text-anchor="start" x="8" y="-20" font-family="Helvetica,sans-Serif" font-size="10.00">vlcb_defs_NewNodeNumberFrom</text>
<text text-anchor="middle" x="89.38" y="-7.25" font-family="Helvetica,sans-Serif" font-size="10.00">Bytes</text>
</a>
</g>
</g>
<!-- Node1&#45;&gt;Node2 -->
<g id="edge1_Node000001_Node000002" class="edge">
<title>Node1&#45;&gt;Node2</title>
<g id="a_edge1_Node000001_Node000002"><a xlink:title=" ">
<path fill="none" stroke="#63b8ff" d="M203.08,-10.01C195.01,-9.98 186.9,-10.01 178.92,-10.09"/>
<polygon fill="#63b8ff" stroke="#63b8ff" points="202.9,-13.51 212.93,-10.07 202.95,-6.51 202.9,-13.51"/>
</a>
</g>
</g>
<!-- Node1&#45;&gt;Node2 -->
<g id="edge2_Node000001_Node000002" class="edge">
<title>Node1&#45;&gt;Node2</title>
<g id="a_edge2_Node000001_Node000002"><a xlink:title=" ">
<path fill="none" stroke="#63b8ff" d="M203.08,-23.49C195.01,-23.52 186.9,-23.49 178.92,-23.41"/>
<polygon fill="#63b8ff" stroke="#63b8ff" points="202.95,-26.99 212.93,-23.43 202.9,-19.99 202.95,-26.99"/>
</a>
</g>
</g>
</g>
</svg>
