<?xml version="1.0" encoding="UTF-8" standalone="no"?>
<!DOCTYPE svg PUBLIC "-//W3C//DTD SVG 1.1//EN"
 "http://www.w3.org/Graphics/SVG/1.1/DTD/svg11.dtd">
<!-- Generated by graphviz version 12.1.2 (20240928.0832)
 -->
<!-- Title: node_new_number.c Pages: 1 -->
<svg width="352pt" height="142pt"
 viewBox="0.00 0.00 351.50 142.25" xmlns="http://www.w3.org/2000/svg" xmlns:xlink="http://www.w3.org/1999/xlink">
<g id="graph0" class="graph" transform="scale(1 1) rotate(0) translate(4 138.25)">
<title>node_new_number.c</title>
<!-- Node1 -->
<g id="Node000001" class="node">
<title>Node1</title>
<g id="a_Node000001"><a xlink:title=" ">
<polygon fill="#999999" stroke="#666666" points="259.88,-134.25 144.12,-134.25 144.12,-113.5 259.88,-113.5 259.88,-134.25"/>
<text text-anchor="middle" x="202" y="-120.75" font-family="Helvetica,sans-Serif" font-size="10.00">node_new_number.c</text>
</a>
</g>
</g>
<!-- Node2 -->
<g id="Node000002" class="node">
<title>Node2</title>
<g id="a_Node000002"><a xlink:href="node_8h.html" target="_top" xlink:title=" ">
<polygon fill="white" stroke="#666666" points="118,-77.5 0,-77.5 0,-56.75 118,-56.75 118,-77.5"/>
<text text-anchor="middle" x="59" y="-64" font-family="Helvetica,sans-Serif" font-size="10.00">vlcb/common/node.h</text>
</a>
</g>
</g>
<!-- Node1&#45;&gt;Node2 -->
<g id="edge1_Node000001_Node000002" class="edge">
<title>Node1&#45;&gt;Node2</title>
<g id="a_edge1_Node000001_Node000002"><a xlink:title=" ">
<path fill="none" stroke="#63b8ff" d="M176.43,-113.09C153.76,-104.41 120.4,-91.63 95.02,-81.92"/>
<polygon fill="#63b8ff" stroke="#63b8ff" points="96.35,-78.68 85.76,-78.37 93.85,-85.21 96.35,-78.68"/>
</a>
</g>
</g>
<!-- Node4 -->
<g id="Node000004" class="node">
<title>Node4</title>
<g id="a_Node000004"><a xlink:title=" ">
<polygon fill="#e0e0e0" stroke="#999999" points="191.5,-77.5 136.5,-77.5 136.5,-56.75 191.5,-56.75 191.5,-77.5"/>
<text text-anchor="middle" x="164" y="-64" font-family="Helvetica,sans-Serif" font-size="10.00">assert.h</text>
</a>
</g>
</g>
<!-- Node1&#45;&gt;Node4 -->
<g id="edge3_Node000001_Node000004" class="edge">
<title>Node1&#45;&gt;Node4</title>
<g id="a_edge3_Node000001_Node000004"><a xlink:title=" ">
<path fill="none" stroke="#63b8ff" d="M195.21,-113.09C190.23,-105.92 183.33,-95.98 177.28,-87.26"/>
<polygon fill="#63b8ff" stroke="#63b8ff" points="180.18,-85.29 171.6,-79.07 174.42,-89.28 180.18,-85.29"/>
</a>
</g>
</g>
<!-- Node5 -->
<g id="Node000005" class="node">
<title>Node5</title>
<g id="a_Node000005"><a xlink:title=" ">
<polygon fill="#e0e0e0" stroke="#999999" points="270.5,-77.5 209.5,-77.5 209.5,-56.75 270.5,-56.75 270.5,-77.5"/>
<text text-anchor="middle" x="240" y="-64" font-family="Helvetica,sans-Serif" font-size="10.00">stdbool.h</text>
</a>
</g>
</g>
<!-- Node1&#45;&gt;Node5 -->
<g id="edge4_Node000001_Node000005" class="edge">
<title>Node1&#45;&gt;Node5</title>
<g id="a_edge4_Node000001_Node000005"><a xlink:title=" ">
<path fill="none" stroke="#63b8ff" d="M208.79,-113.09C213.77,-105.92 220.67,-95.98 226.72,-87.26"/>
<polygon fill="#63b8ff" stroke="#63b8ff" points="229.58,-89.28 232.4,-79.07 223.82,-85.29 229.58,-89.28"/>
</a>
</g>
</g>
<!-- Node6 -->
<g id="Node000006" class="node">
<title>Node6</title>
<g id="a_Node000006"><a xlink:title=" ">
<polygon fill="#e0e0e0" stroke="#999999" points="343.5,-77.5 288.5,-77.5 288.5,-56.75 343.5,-56.75 343.5,-77.5"/>
<text text-anchor="middle" x="316" y="-64" font-family="Helvetica,sans-Serif" font-size="10.00">stddef.h</text>
</a>
</g>
</g>
<!-- Node1&#45;&gt;Node6 -->
<g id="edge5_Node000001_Node000006" class="edge">
<title>Node1&#45;&gt;Node6</title>
<g id="a_edge5_Node000001_Node000006"><a xlink:title=" ">
<path fill="none" stroke="#63b8ff" d="M222.38,-113.09C239.97,-104.64 265.63,-92.32 285.63,-82.71"/>
<polygon fill="#63b8ff" stroke="#63b8ff" points="286.93,-85.97 294.43,-78.48 283.9,-79.66 286.93,-85.97"/>
</a>
</g>
</g>
<!-- Node3 -->
<g id="Node000003" class="node">
<title>Node3</title>
<g id="a_Node000003"><a xlink:title=" ">
<polygon fill="#e0e0e0" stroke="#999999" points="91.38,-20.75 26.62,-20.75 26.62,0 91.38,0 91.38,-20.75"/>
<text text-anchor="middle" x="59" y="-7.25" font-family="Helvetica,sans-Serif" font-size="10.00">inttypes.h</text>
</a>
</g>
</g>
<!-- Node2&#45;&gt;Node3 -->
<g id="edge2_Node000002_Node000003" class="edge">
<title>Node2&#45;&gt;Node3</title>
<g id="a_edge2_Node000002_Node000003"><a xlink:title=" ">
<path fill="none" stroke="#63b8ff" d="M59,-56.34C59,-49.72 59,-40.72 59,-32.52"/>
<polygon fill="#63b8ff" stroke="#63b8ff" points="62.5,-32.59 59,-22.59 55.5,-32.59 62.5,-32.59"/>
</a>
</g>
</g>
</g>
</svg>
