<?xml version="1.0" encoding="UTF-8" standalone="no"?>
<!DOCTYPE svg PUBLIC "-//W3C//DTD SVG 1.1//EN"
 "http://www.w3.org/Graphics/SVG/1.1/DTD/svg11.dtd">
<!-- Generated by graphviz version 12.1.2 (20240928.0832)
 -->
<!-- Title: node_new_number_from_bytes.c Pages: 1 -->
<svg width="196pt" height="155pt"
 viewBox="0.00 0.00 196.38 155.00" xmlns="http://www.w3.org/2000/svg" xmlns:xlink="http://www.w3.org/1999/xlink">
<g id="graph0" class="graph" transform="scale(1 1) rotate(0) translate(4 151)">
<title>node_new_number_from_bytes.c</title>
<!-- Node1 -->
<g id="Node000001" class="node">
<title>Node1</title>
<g id="a_Node000001"><a xlink:title=" ">
<polygon fill="#999999" stroke="#666666" points="178.38,-147 41.62,-147 41.62,-113.5 178.38,-113.5 178.38,-147"/>
<text text-anchor="start" x="49.62" y="-133.5" font-family="Helvetica,sans-Serif" font-size="10.00">node_new_number_from</text>
<text text-anchor="middle" x="110" y="-120.75" font-family="Helvetica,sans-Serif" font-size="10.00">_bytes.c</text>
</a>
</g>
</g>
<!-- Node2 -->
<g id="Node000002" class="node">
<title>Node2</title>
<g id="a_Node000002"><a xlink:href="node_8h.html" target="_top" xlink:title=" ">
<polygon fill="white" stroke="#666666" points="118,-77.5 0,-77.5 0,-56.75 118,-56.75 118,-77.5"/>
<text text-anchor="middle" x="59" y="-64" font-family="Helvetica,sans-Serif" font-size="10.00">vlcb/common/node.h</text>
</a>
</g>
</g>
<!-- Node1&#45;&gt;Node2 -->
<g id="edge1_Node000001_Node000002" class="edge">
<title>Node1&#45;&gt;Node2</title>
<g id="a_edge1_Node000001_Node000002"><a xlink:title=" ">
<path fill="none" stroke="#63b8ff" d="M96.6,-113.19C89.82,-105.07 81.56,-95.17 74.51,-86.72"/>
<polygon fill="#63b8ff" stroke="#63b8ff" points="77.28,-84.57 68.18,-79.13 71.9,-89.05 77.28,-84.57"/>
</a>
</g>
</g>
<!-- Node4 -->
<g id="Node000004" class="node">
<title>Node4</title>
<g id="a_Node000004"><a xlink:title=" ">
<polygon fill="#e0e0e0" stroke="#999999" points="188.38,-77.5 135.62,-77.5 135.62,-56.75 188.38,-56.75 188.38,-77.5"/>
<text text-anchor="middle" x="162" y="-64" font-family="Helvetica,sans-Serif" font-size="10.00">stdint.h</text>
</a>
</g>
</g>
<!-- Node1&#45;&gt;Node4 -->
<g id="edge3_Node000001_Node000004" class="edge">
<title>Node1&#45;&gt;Node4</title>
<g id="a_edge3_Node000001_Node000004"><a xlink:title=" ">
<path fill="none" stroke="#63b8ff" d="M123.66,-113.19C130.57,-105.07 138.99,-95.17 146.18,-86.72"/>
<polygon fill="#63b8ff" stroke="#63b8ff" points="148.83,-89 152.65,-79.12 143.5,-84.47 148.83,-89"/>
</a>
</g>
</g>
<!-- Node3 -->
<g id="Node000003" class="node">
<title>Node3</title>
<g id="a_Node000003"><a xlink:title=" ">
<polygon fill="#e0e0e0" stroke="#999999" points="91.38,-20.75 26.62,-20.75 26.62,0 91.38,0 91.38,-20.75"/>
<text text-anchor="middle" x="59" y="-7.25" font-family="Helvetica,sans-Serif" font-size="10.00">inttypes.h</text>
</a>
</g>
</g>
<!-- Node2&#45;&gt;Node3 -->
<g id="edge2_Node000002_Node000003" class="edge">
<title>Node2&#45;&gt;Node3</title>
<g id="a_edge2_Node000002_Node000003"><a xlink:title=" ">
<path fill="none" stroke="#63b8ff" d="M59,-56.34C59,-49.72 59,-40.72 59,-32.52"/>
<polygon fill="#63b8ff" stroke="#63b8ff" points="62.5,-32.59 59,-22.59 55.5,-32.59 62.5,-32.59"/>
</a>
</g>
</g>
</g>
</svg>
