<?xml version="1.0" encoding="UTF-8" standalone="no"?>
<!DOCTYPE svg PUBLIC "-//W3C//DTD SVG 1.1//EN"
 "http://www.w3.org/Graphics/SVG/1.1/DTD/svg11.dtd">
<!-- Generated by graphviz version 12.1.2 (20240928.0832)
 -->
<!-- Title: IsNodeNumberValid Pages: 1 -->
<svg width="526pt" height="54pt"
 viewBox="0.00 0.00 525.50 54.12" xmlns="http://www.w3.org/2000/svg" xmlns:xlink="http://www.w3.org/1999/xlink">
<g id="graph0" class="graph" transform="scale(1 1) rotate(0) translate(4 50.12)">
<title>IsNodeNumberValid</title>
<!-- Node1 -->
<g id="Node000001" class="node">
<title>Node1</title>
<g id="a_Node000001"><a xlink:title=" ">
<polygon fill="#999999" stroke="#666666" points="517.5,-27.12 404.75,-27.12 404.75,-6.38 517.5,-6.38 517.5,-27.12"/>
<text text-anchor="middle" x="461.12" y="-13.62" font-family="Helvetica,sans-Serif" font-size="10.00">IsNodeNumberValid</text>
</a>
</g>
</g>
<!-- Node2 -->
<g id="Node000002" class="node">
<title>Node2</title>
<g id="a_Node000002"><a xlink:href="node__new__number_8c.html#acb0c834eaaf6f88fd6f0507ed3e555a4" target="_top" xlink:title=" ">
<polygon fill="white" stroke="#666666" points="368.75,-46.12 214.75,-46.12 214.75,-25.38 368.75,-25.38 368.75,-46.12"/>
<text text-anchor="middle" x="291.75" y="-32.62" font-family="Helvetica,sans-Serif" font-size="10.00">vlcb_defs_NewNodeNumber</text>
</a>
</g>
</g>
<!-- Node1&#45;&gt;Node2 -->
<g id="edge1_Node000001_Node000002" class="edge">
<title>Node1&#45;&gt;Node2</title>
<g id="a_edge1_Node000001_Node000002"><a xlink:title=" ">
<path fill="none" stroke="#63b8ff" d="M393.04,-24.37C385.16,-25.26 377.09,-26.18 369.1,-27.08"/>
<polygon fill="#63b8ff" stroke="#63b8ff" points="393.35,-27.85 402.89,-23.25 392.56,-20.9 393.35,-27.85"/>
</a>
</g>
</g>
<!-- Node3 -->
<g id="Node000003" class="node">
<title>Node3</title>
<g id="a_Node000003"><a xlink:href="node__new__number__from__bytes_8c.html#adee3c126b7b8bdbe83012706b974da69" target="_top" xlink:title=" ">
<polygon fill="white" stroke="#666666" points="178.75,-33.5 0,-33.5 0,0 178.75,0 178.75,-33.5"/>
<text text-anchor="start" x="8" y="-20" font-family="Helvetica,sans-Serif" font-size="10.00">vlcb_defs_NewNodeNumberFrom</text>
<text text-anchor="middle" x="89.38" y="-7.25" font-family="Helvetica,sans-Serif" font-size="10.00">Bytes</text>
</a>
</g>
</g>
<!-- Node1&#45;&gt;Node3 -->
<g id="edge3_Node000001_Node000003" class="edge">
<title>Node1&#45;&gt;Node3</title>
<g id="a_edge3_Node000001_Node000003"><a xlink:title=" ">
<path fill="none" stroke="#63b8ff" d="M393.14,-16.75C333.17,-16.75 244.8,-16.75 178.99,-16.75"/>
<polygon fill="#63b8ff" stroke="#63b8ff" points="392.86,-20.25 402.86,-16.75 392.86,-13.25 392.86,-20.25"/>
</a>
</g>
</g>
<!-- Node2&#45;&gt;Node3 -->
<g id="edge2_Node000002_Node000003" class="edge">
<title>Node2&#45;&gt;Node3</title>
<g id="a_edge2_Node000002_Node000003"><a xlink:title=" ">
<path fill="none" stroke="#63b8ff" d="M202.98,-27.43C195.11,-26.68 187.12,-25.92 179.24,-25.18"/>
<polygon fill="#63b8ff" stroke="#63b8ff" points="202.63,-30.91 212.92,-28.37 203.29,-23.94 202.63,-30.91"/>
</a>
</g>
</g>
</g>
</svg>
