<?xml version="1.0" encoding="UTF-8" standalone="no"?>
<!DOCTYPE svg PUBLIC "-//W3C//DTD SVG 1.1//EN"
 "http://www.w3.org/Graphics/SVG/1.1/DTD/svg11.dtd">
<!-- Generated by graphviz version 12.1.2 (20240928.0832)
 -->
<!-- Title: node.h Pages: 1 -->
<svg width="910pt" height="325pt"
 viewBox="0.00 0.00 910.12 325.25" xmlns="http://www.w3.org/2000/svg" xmlns:xlink="http://www.w3.org/1999/xlink">
<g id="graph0" class="graph" transform="scale(1 1) rotate(0) translate(4 321.25)">
<title>node.h</title>
<!-- Node1 -->
<g id="Node000001" class="node">
<title>Node1</title>
<g id="a_Node000001"><a xlink:title=" ">
<polygon fill="#999999" stroke="#666666" points="360.88,-317.25 311.88,-317.25 311.88,-296.5 360.88,-296.5 360.88,-317.25"/>
<text text-anchor="middle" x="336.38" y="-303.75" font-family="Helvetica,sans-Serif" font-size="10.00">node.h</text>
</a>
</g>
</g>
<!-- Node2 -->
<g id="Node000002" class="node">
<title>Node2</title>
<g id="a_Node000002"><a xlink:href="common_2inc_2vlcb_2common_2event_8h.html" target="_top" xlink:title=" ">
<polygon fill="white" stroke="#666666" points="52.75,-254.12 0,-254.12 0,-233.38 52.75,-233.38 52.75,-254.12"/>
<text text-anchor="middle" x="26.38" y="-240.62" font-family="Helvetica,sans-Serif" font-size="10.00">event.h</text>
</a>
</g>
</g>
<!-- Node1&#45;&gt;Node2 -->
<g id="edge1_Node000001_Node000002" class="edge">
<title>Node1&#45;&gt;Node2</title>
<g id="a_edge1_Node000001_Node000002"><a xlink:title=" ">
<path fill="none" stroke="#63b8ff" d="M300.09,-302.21C247.76,-296.38 148.38,-283.27 66.38,-260.5 60.62,-258.9 54.56,-256.77 48.94,-254.58"/>
<polygon fill="#63b8ff" stroke="#63b8ff" points="299.6,-305.68 309.92,-303.28 300.36,-298.72 299.6,-305.68"/>
</a>
</g>
</g>
<!-- Node3 -->
<g id="Node000003" class="node">
<title>Node3</title>
<g id="a_Node000003"><a xlink:href="net_2inc_2vlcb_2net_2packet_2datagram_2event_8h.html" target="_top" xlink:title=" ">
<polygon fill="white" stroke="#666666" points="78.75,-191 26,-191 26,-170.25 78.75,-170.25 78.75,-191"/>
<text text-anchor="middle" x="52.38" y="-177.5" font-family="Helvetica,sans-Serif" font-size="10.00">event.h</text>
</a>
</g>
</g>
<!-- Node1&#45;&gt;Node3 -->
<g id="edge3_Node000001_Node000003" class="edge">
<title>Node1&#45;&gt;Node3</title>
<g id="a_edge3_Node000001_Node000003"><a xlink:title=" ">
<path fill="none" stroke="#63b8ff" d="M300.22,-302.58C242.14,-296.71 131.31,-282.88 99.38,-260.5 74.7,-243.21 60.84,-208.46 55.28,-191.45"/>
<polygon fill="#63b8ff" stroke="#63b8ff" points="299.63,-306.04 309.93,-303.54 300.32,-299.08 299.63,-306.04"/>
</a>
</g>
</g>
<!-- Node4 -->
<g id="Node000004" class="node">
<title>Node4</title>
<g id="a_Node000004"><a xlink:href="general_8h.html" target="_top" xlink:title=" ">
<polygon fill="white" stroke="#666666" points="170.25,-254.12 108.5,-254.12 108.5,-233.38 170.25,-233.38 170.25,-254.12"/>
<text text-anchor="middle" x="139.38" y="-240.62" font-family="Helvetica,sans-Serif" font-size="10.00">general.h</text>
</a>
</g>
</g>
<!-- Node1&#45;&gt;Node4 -->
<g id="edge4_Node000001_Node000004" class="edge">
<title>Node1&#45;&gt;Node4</title>
<g id="a_edge4_Node000001_Node000004"><a xlink:title=" ">
<path fill="none" stroke="#63b8ff" d="M300.85,-295.78C269.96,-286.88 224.04,-273.35 184.38,-260.5 178.71,-258.66 172.67,-256.61 166.91,-254.62"/>
<polygon fill="#63b8ff" stroke="#63b8ff" points="299.49,-299.03 310.06,-298.42 301.42,-292.3 299.49,-299.03"/>
</a>
</g>
</g>
<!-- Node5 -->
<g id="Node000005" class="node">
<title>Node5</title>
<g id="a_Node000005"><a xlink:href="module_2inc_2vlcb_2module_8h.html" target="_top" xlink:title=" ">
<polygon fill="white" stroke="#666666" points="213.25,-134.25 151.5,-134.25 151.5,-113.5 213.25,-113.5 213.25,-134.25"/>
<text text-anchor="middle" x="182.38" y="-120.75" font-family="Helvetica,sans-Serif" font-size="10.00">module.h</text>
</a>
</g>
</g>
<!-- Node1&#45;&gt;Node5 -->
<g id="edge5_Node000001_Node000005" class="edge">
<title>Node1&#45;&gt;Node5</title>
<g id="a_edge5_Node000001_Node000005"><a xlink:title=" ">
<path fill="none" stroke="#63b8ff" d="M300.7,-300.77C274.65,-295.2 240.34,-283.76 219.38,-260.5 185.88,-223.34 182.3,-158.72 182.21,-134.45"/>
<polygon fill="#63b8ff" stroke="#63b8ff" points="299.69,-304.14 310.17,-302.59 301.01,-297.26 299.69,-304.14"/>
</a>
</g>
</g>
<!-- Node8 -->
<g id="Node000008" class="node">
<title>Node8</title>
<g id="a_Node000008"><a xlink:href="state__machine_8c.html" target="_top" xlink:title=" ">
<polygon fill="white" stroke="#666666" points="327.5,-20.75 231.25,-20.75 231.25,0 327.5,0 327.5,-20.75"/>
<text text-anchor="middle" x="279.38" y="-7.25" font-family="Helvetica,sans-Serif" font-size="10.00">state_machine.c</text>
</a>
</g>
</g>
<!-- Node1&#45;&gt;Node8 -->
<g id="edge27_Node000001_Node000008" class="edge">
<title>Node1&#45;&gt;Node8</title>
<g id="a_edge27_Node000001_Node000008"><a xlink:title=" ">
<path fill="none" stroke="#63b8ff" d="M346.5,-285.91C357.76,-261.83 374.38,-219.81 374.38,-181.62 374.38,-181.62 374.38,-181.62 374.38,-122.88 374.38,-75.57 324.23,-38.15 296.8,-21.22"/>
<polygon fill="#63b8ff" stroke="#63b8ff" points="343.39,-284.31 342.16,-294.84 349.68,-287.37 343.39,-284.31"/>
</a>
</g>
</g>
<!-- Node9 -->
<g id="Node000009" class="node">
<title>Node9</title>
<g id="a_Node000009"><a xlink:href="state__machine_8h.html" target="_top" xlink:title=" ">
<polygon fill="white" stroke="#666666" points="307.88,-77.5 210.88,-77.5 210.88,-56.75 307.88,-56.75 307.88,-77.5"/>
<text text-anchor="middle" x="259.38" y="-64" font-family="Helvetica,sans-Serif" font-size="10.00">state_machine.h</text>
</a>
</g>
</g>
<!-- Node1&#45;&gt;Node9 -->
<g id="edge28_Node000001_Node000009" class="edge">
<title>Node1&#45;&gt;Node9</title>
<g id="a_edge28_Node000001_Node000009"><a xlink:title=" ">
<path fill="none" stroke="#63b8ff" d="M329.77,-285.49C313.89,-236.46 274.03,-113.37 262.53,-77.86"/>
<polygon fill="#63b8ff" stroke="#63b8ff" points="326.38,-286.39 332.79,-294.82 333.04,-284.23 326.38,-286.39"/>
</a>
</g>
</g>
<!-- Node10 -->
<g id="Node000010" class="node">
<title>Node10</title>
<g id="a_Node000010"><a xlink:href="net_2inc_2vlcb_2net_2packet_2datagram_2module_8h.html" target="_top" xlink:title=" ">
<polygon fill="white" stroke="#666666" points="464.25,-77.5 402.5,-77.5 402.5,-56.75 464.25,-56.75 464.25,-77.5"/>
<text text-anchor="middle" x="433.38" y="-64" font-family="Helvetica,sans-Serif" font-size="10.00">module.h</text>
</a>
</g>
</g>
<!-- Node1&#45;&gt;Node10 -->
<g id="edge13_Node000001_Node000010" class="edge">
<title>Node1&#45;&gt;Node10</title>
<g id="a_edge13_Node000001_Node000010"><a xlink:title=" ">
<path fill="none" stroke="#63b8ff" d="M361.02,-289.59C370.9,-281.88 381.54,-271.86 388.38,-260.5 425.86,-198.19 432.12,-107.15 433.17,-77.7"/>
<polygon fill="#63b8ff" stroke="#63b8ff" points="359.15,-286.62 353.15,-295.35 363.29,-292.27 359.15,-286.62"/>
</a>
</g>
</g>
<!-- Node13 -->
<g id="Node000013" class="node">
<title>Node13</title>
<g id="a_Node000013"><a xlink:href="node__new__number_8c.html" target="_top" xlink:title=" ">
<polygon fill="white" stroke="#666666" points="556.25,-254.12 440.5,-254.12 440.5,-233.38 556.25,-233.38 556.25,-254.12"/>
<text text-anchor="middle" x="498.38" y="-240.62" font-family="Helvetica,sans-Serif" font-size="10.00">node_new_number.c</text>
</a>
</g>
</g>
<!-- Node1&#45;&gt;Node13 -->
<g id="edge18_Node000001_Node000013" class="edge">
<title>Node1&#45;&gt;Node13</title>
<g id="a_edge18_Node000001_Node000013"><a xlink:title=" ">
<path fill="none" stroke="#63b8ff" d="M371.88,-292.48C402.19,-281.04 445.09,-264.86 472.32,-254.58"/>
<polygon fill="#63b8ff" stroke="#63b8ff" points="370.87,-289.12 362.75,-295.92 373.34,-295.67 370.87,-289.12"/>
</a>
</g>
</g>
<!-- Node14 -->
<g id="Node000014" class="node">
<title>Node14</title>
<g id="a_Node000014"><a xlink:href="node__new__number__from__bytes_8c.html" target="_top" xlink:title=" ">
<polygon fill="white" stroke="#666666" points="710.75,-260.5 574,-260.5 574,-227 710.75,-227 710.75,-260.5"/>
<text text-anchor="start" x="582" y="-247" font-family="Helvetica,sans-Serif" font-size="10.00">node_new_number_from</text>
<text text-anchor="middle" x="642.38" y="-234.25" font-family="Helvetica,sans-Serif" font-size="10.00">_bytes.c</text>
</a>
</g>
</g>
<!-- Node1&#45;&gt;Node14 -->
<g id="edge19_Node000001_Node000014" class="edge">
<title>Node1&#45;&gt;Node14</title>
<g id="a_edge19_Node000001_Node000014"><a xlink:title=" ">
<path fill="none" stroke="#63b8ff" d="M372.36,-298.82C417.47,-289.95 497.17,-274.23 565.38,-260.5 568.05,-259.96 570.78,-259.41 573.53,-258.85"/>
<polygon fill="#63b8ff" stroke="#63b8ff" points="371.75,-295.37 362.61,-300.73 373.09,-302.24 371.75,-295.37"/>
</a>
</g>
</g>
<!-- Node15 -->
<g id="Node000015" class="node">
<title>Node15</title>
<g id="a_Node000015"><a xlink:href="node__new__number__unchecked_8c.html" target="_top" xlink:title=" ">
<polygon fill="white" stroke="#666666" points="902.12,-254.12 728.62,-254.12 728.62,-233.38 902.12,-233.38 902.12,-254.12"/>
<text text-anchor="middle" x="815.38" y="-240.62" font-family="Helvetica,sans-Serif" font-size="10.00">node_new_number_unchecked.c</text>
</a>
</g>
</g>
<!-- Node1&#45;&gt;Node15 -->
<g id="edge20_Node000001_Node000015" class="edge">
<title>Node1&#45;&gt;Node15</title>
<g id="a_edge20_Node000001_Node000015"><a xlink:title=" ">
<path fill="none" stroke="#63b8ff" d="M372.38,-302.15C440.33,-295.01 592.1,-278.47 719.38,-260.5 731.83,-258.74 745.17,-256.67 757.82,-254.62"/>
<polygon fill="#63b8ff" stroke="#63b8ff" points="372.16,-298.66 362.57,-303.18 372.88,-305.62 372.16,-298.66"/>
</a>
</g>
</g>
<!-- Node16 -->
<g id="Node000016" class="node">
<title>Node16</title>
<g id="a_Node000016"><a xlink:href="state_8h.html" target="_top" xlink:title=" ">
<polygon fill="white" stroke="#666666" points="278.25,-254.12 228.5,-254.12 228.5,-233.38 278.25,-233.38 278.25,-254.12"/>
<text text-anchor="middle" x="253.38" y="-240.62" font-family="Helvetica,sans-Serif" font-size="10.00">state.h</text>
</a>
</g>
</g>
<!-- Node1&#45;&gt;Node16 -->
<g id="edge21_Node000001_Node000016" class="edge">
<title>Node1&#45;&gt;Node16</title>
<g id="a_edge21_Node000001_Node000016"><a xlink:title=" ">
<path fill="none" stroke="#63b8ff" d="M313.85,-289.28C298.74,-278.16 279.37,-263.89 266.68,-254.55"/>
<polygon fill="#63b8ff" stroke="#63b8ff" points="311.69,-292.04 321.82,-295.16 315.84,-286.41 311.69,-292.04"/>
</a>
</g>
</g>
<!-- Node2&#45;&gt;Node3 -->
<g id="edge2_Node000002_Node000003" class="edge">
<title>Node2&#45;&gt;Node3</title>
<g id="a_edge2_Node000002_Node000003"><a xlink:title=" ">
<path fill="none" stroke="#63b8ff" d="M34.99,-222.5C39.47,-211.96 44.74,-199.57 48.29,-191.22"/>
<polygon fill="#63b8ff" stroke="#63b8ff" points="31.84,-220.96 31.14,-231.54 38.28,-223.7 31.84,-220.96"/>
</a>
</g>
</g>
<!-- Node6 -->
<g id="Node000006" class="node">
<title>Node6</title>
<g id="a_Node000006"><a xlink:href="module_8c.html" target="_top" xlink:title=" ">
<polygon fill="white" stroke="#666666" points="153.88,-20.75 92.88,-20.75 92.88,0 153.88,0 153.88,-20.75"/>
<text text-anchor="middle" x="123.38" y="-7.25" font-family="Helvetica,sans-Serif" font-size="10.00">module.c</text>
</a>
</g>
</g>
<!-- Node5&#45;&gt;Node6 -->
<g id="edge6_Node000005_Node000006" class="edge">
<title>Node5&#45;&gt;Node6</title>
<g id="a_edge6_Node000005_Node000006"><a xlink:title=" ">
<path fill="none" stroke="#63b8ff" d="M140.1,-114.69C119.25,-108.3 95.93,-97.06 83.38,-77.5 70.69,-57.74 94.04,-34.09 110.09,-21.11"/>
<polygon fill="#63b8ff" stroke="#63b8ff" points="139,-118.02 149.57,-117.29 140.85,-111.27 139,-118.02"/>
</a>
</g>
</g>
<!-- Node7 -->
<g id="Node000007" class="node">
<title>Node7</title>
<g id="a_Node000007"><a xlink:href="module_2src_2module_8h.html" target="_top" xlink:title=" ">
<polygon fill="white" stroke="#666666" points="154.25,-77.5 92.5,-77.5 92.5,-56.75 154.25,-56.75 154.25,-77.5"/>
<text text-anchor="middle" x="123.38" y="-64" font-family="Helvetica,sans-Serif" font-size="10.00">module.h</text>
</a>
</g>
</g>
<!-- Node5&#45;&gt;Node7 -->
<g id="edge7_Node000005_Node000007" class="edge">
<title>Node5&#45;&gt;Node7</title>
<g id="a_edge7_Node000005_Node000007"><a xlink:title=" ">
<path fill="none" stroke="#63b8ff" d="M163.47,-105.33C153.65,-96.22 142.03,-85.43 133.83,-77.83"/>
<polygon fill="#63b8ff" stroke="#63b8ff" points="161.01,-107.82 170.72,-112.06 165.77,-102.69 161.01,-107.82"/>
</a>
</g>
</g>
<!-- Node5&#45;&gt;Node8 -->
<g id="edge9_Node000005_Node000008" class="edge">
<title>Node5&#45;&gt;Node8</title>
<g id="a_edge9_Node000005_Node000008"><a xlink:title=" ">
<path fill="none" stroke="#63b8ff" d="M184.62,-102.34C187.05,-88.28 192.06,-69.88 202.38,-56.75 215.32,-40.28 236.02,-28.56 252.7,-21.16"/>
<polygon fill="#63b8ff" stroke="#63b8ff" points="181.21,-101.45 183.3,-111.84 188.15,-102.42 181.21,-101.45"/>
</a>
</g>
</g>
<!-- Node5&#45;&gt;Node9 -->
<g id="edge10_Node000005_Node000009" class="edge">
<title>Node5&#45;&gt;Node9</title>
<g id="a_edge10_Node000005_Node000009"><a xlink:title=" ">
<path fill="none" stroke="#63b8ff" d="M205.49,-106.44C218.62,-97.11 234.59,-85.75 245.73,-77.83"/>
<polygon fill="#63b8ff" stroke="#63b8ff" points="203.5,-103.56 197.37,-112.21 207.55,-109.27 203.5,-103.56"/>
</a>
</g>
</g>
<!-- Node7&#45;&gt;Node6 -->
<g id="edge8_Node000007_Node000006" class="edge">
<title>Node7&#45;&gt;Node6</title>
<g id="a_edge8_Node000007_Node000006"><a xlink:title=" ">
<path fill="none" stroke="#63b8ff" d="M123.38,-44.88C123.38,-36.66 123.38,-27.68 123.38,-21.08"/>
<polygon fill="#63b8ff" stroke="#63b8ff" points="119.88,-44.82 123.38,-54.82 126.88,-44.82 119.88,-44.82"/>
</a>
</g>
</g>
<!-- Node9&#45;&gt;Node6 -->
<g id="edge11_Node000009_Node000006" class="edge">
<title>Node9&#45;&gt;Node6</title>
<g id="a_edge11_Node000009_Node000006"><a xlink:title=" ">
<path fill="none" stroke="#63b8ff" d="M224.55,-52.11C200.41,-42.39 168.88,-29.69 147.48,-21.08"/>
<polygon fill="#63b8ff" stroke="#63b8ff" points="223.07,-55.28 233.66,-55.77 225.69,-48.79 223.07,-55.28"/>
</a>
</g>
</g>
<!-- Node9&#45;&gt;Node8 -->
<g id="edge12_Node000009_Node000008" class="edge">
<title>Node9&#45;&gt;Node8</title>
<g id="a_edge12_Node000009_Node000008"><a xlink:title=" ">
<path fill="none" stroke="#63b8ff" d="M266.82,-45.74C269.9,-37.3 273.34,-27.91 275.83,-21.08"/>
<polygon fill="#63b8ff" stroke="#63b8ff" points="263.61,-44.32 263.47,-54.92 270.19,-46.72 263.61,-44.32"/>
</a>
</g>
</g>
<!-- Node10&#45;&gt;Node6 -->
<g id="edge14_Node000010_Node000006" class="edge">
<title>Node10&#45;&gt;Node6</title>
<g id="a_edge14_Node000010_Node000006"><a xlink:title=" ">
<path fill="none" stroke="#63b8ff" d="M391.07,-58.65C327.73,-47.47 209.77,-26.63 154.04,-16.79"/>
<polygon fill="#63b8ff" stroke="#63b8ff" points="390.28,-62.07 400.74,-60.36 391.5,-55.18 390.28,-62.07"/>
</a>
</g>
</g>
<!-- Node10&#45;&gt;Node8 -->
<g id="edge17_Node000010_Node000008" class="edge">
<title>Node10&#45;&gt;Node8</title>
<g id="a_edge17_Node000010_Node000008"><a xlink:title=" ">
<path fill="none" stroke="#63b8ff" d="M395.08,-52.51C367.7,-42.78 331.5,-29.9 306.93,-21.17"/>
<polygon fill="#63b8ff" stroke="#63b8ff" points="393.82,-55.78 404.42,-55.83 396.17,-49.18 393.82,-55.78"/>
</a>
</g>
</g>
<!-- Node11 -->
<g id="Node000011" class="node">
<title>Node11</title>
<g id="a_Node000011"><a xlink:href="release__node__num__deserialize_8c.html" target="_top" xlink:title=" ">
<polygon fill="white" stroke="#666666" points="520.88,-20.75 345.88,-20.75 345.88,0 520.88,0 520.88,-20.75"/>
<text text-anchor="middle" x="433.38" y="-7.25" font-family="Helvetica,sans-Serif" font-size="10.00">release_node_num_deserialize.c</text>
</a>
</g>
</g>
<!-- Node10&#45;&gt;Node11 -->
<g id="edge15_Node000010_Node000011" class="edge">
<title>Node10&#45;&gt;Node11</title>
<g id="a_edge15_Node000010_Node000011"><a xlink:title=" ">
<path fill="none" stroke="#63b8ff" d="M433.38,-44.88C433.38,-36.66 433.38,-27.68 433.38,-21.08"/>
<polygon fill="#63b8ff" stroke="#63b8ff" points="429.88,-44.82 433.38,-54.82 436.88,-44.82 429.88,-44.82"/>
</a>
</g>
</g>
<!-- Node12 -->
<g id="Node000012" class="node">
<title>Node12</title>
<g id="a_Node000012"><a xlink:href="release__node__num__serialize_8c.html" target="_top" xlink:title=" ">
<polygon fill="white" stroke="#666666" points="701.88,-20.75 538.88,-20.75 538.88,0 701.88,0 701.88,-20.75"/>
<text text-anchor="middle" x="620.38" y="-7.25" font-family="Helvetica,sans-Serif" font-size="10.00">release_node_num_serialize.c</text>
</a>
</g>
</g>
<!-- Node10&#45;&gt;Node12 -->
<g id="edge16_Node000010_Node000012" class="edge">
<title>Node10&#45;&gt;Node12</title>
<g id="a_edge16_Node000010_Node000012"><a xlink:title=" ">
<path fill="none" stroke="#63b8ff" d="M475.54,-53.78C509.16,-43.94 555.61,-30.34 586.76,-21.22"/>
<polygon fill="#63b8ff" stroke="#63b8ff" points="474.74,-50.37 466.13,-56.54 476.71,-57.08 474.74,-50.37"/>
</a>
</g>
</g>
<!-- Node16&#45;&gt;Node5 -->
<g id="edge23_Node000016_Node000005" class="edge">
<title>Node16&#45;&gt;Node5</title>
<g id="a_edge23_Node000016_Node000005"><a xlink:title=" ">
<path fill="none" stroke="#63b8ff" d="M241.74,-223.44C226.4,-197.97 199.98,-154.11 188.27,-134.65"/>
<polygon fill="#63b8ff" stroke="#63b8ff" points="238.63,-225.05 246.78,-231.81 244.62,-221.44 238.63,-225.05"/>
</a>
</g>
</g>
<!-- Node16&#45;&gt;Node6 -->
<g id="edge22_Node000016_Node000006" class="edge">
<title>Node16&#45;&gt;Node6</title>
<g id="a_edge22_Node000016_Node000006"><a xlink:title=" ">
<path fill="none" stroke="#63b8ff" d="M225.41,-227.16C183.53,-202 106.14,-148.05 75.38,-77.5 65.68,-55.27 90.35,-33.23 107.81,-21.05"/>
<polygon fill="#63b8ff" stroke="#63b8ff" points="223.54,-230.12 233.94,-232.17 227.08,-224.09 223.54,-230.12"/>
</a>
</g>
</g>
<!-- Node16&#45;&gt;Node8 -->
<g id="edge24_Node000016_Node000008" class="edge">
<title>Node16&#45;&gt;Node8</title>
<g id="a_edge24_Node000016_Node000008"><a xlink:title=" ">
<path fill="none" stroke="#63b8ff" d="M264.13,-223.05C279.89,-192.83 308.38,-132.7 317.38,-77.5 318.86,-68.4 320.53,-65.42 317.38,-56.75 312.18,-42.46 300.29,-29.52 291.18,-21.16"/>
<polygon fill="#63b8ff" stroke="#63b8ff" points="261.1,-221.29 259.49,-231.76 267.28,-224.58 261.1,-221.29"/>
</a>
</g>
</g>
<!-- Node17 -->
<g id="Node000017" class="node">
<title>Node17</title>
<g id="a_Node000017"><a xlink:href="ui_8h.html" target="_top" xlink:title=" ">
<polygon fill="white" stroke="#666666" points="270.38,-191 236.38,-191 236.38,-170.25 270.38,-170.25 270.38,-191"/>
<text text-anchor="middle" x="253.38" y="-177.5" font-family="Helvetica,sans-Serif" font-size="10.00">ui.h</text>
</a>
</g>
</g>
<!-- Node16&#45;&gt;Node17 -->
<g id="edge25_Node000016_Node000017" class="edge">
<title>Node16&#45;&gt;Node17</title>
<g id="a_edge25_Node000016_Node000017"><a xlink:title=" ">
<path fill="none" stroke="#63b8ff" d="M253.38,-221.49C253.38,-211.18 253.38,-199.31 253.38,-191.22"/>
<polygon fill="#63b8ff" stroke="#63b8ff" points="249.88,-221.42 253.38,-231.42 256.88,-221.42 249.88,-221.42"/>
</a>
</g>
</g>
<!-- Node17&#45;&gt;Node5 -->
<g id="edge26_Node000017_Node000005" class="edge">
<title>Node17&#45;&gt;Node5</title>
<g id="a_edge26_Node000017_Node000005"><a xlink:title=" ">
<path fill="none" stroke="#63b8ff" d="M231.7,-162.91C219.67,-153.63 205.12,-142.42 194.96,-134.58"/>
<polygon fill="#63b8ff" stroke="#63b8ff" points="229.43,-165.58 239.48,-168.91 233.7,-160.03 229.43,-165.58"/>
</a>
</g>
</g>
</g>
</svg>
