<?xml version="1.0" encoding="UTF-8" standalone="no"?>
<!DOCTYPE svg PUBLIC "-//W3C//DTD SVG 1.1//EN"
 "http://www.w3.org/Graphics/SVG/1.1/DTD/svg11.dtd">
<!-- Generated by graphviz version 12.1.2 (20240928.0832)
 -->
<!-- Title: vlcb_defs_NewNodeNumberFromBytes Pages: 1 -->
<svg width="550pt" height="99pt"
 viewBox="0.00 0.00 550.25 99.12" xmlns="http://www.w3.org/2000/svg" xmlns:xlink="http://www.w3.org/1999/xlink">
<g id="graph0" class="graph" transform="scale(1 1) rotate(0) translate(4 95.12)">
<title>vlcb_defs_NewNodeNumberFromBytes</title>
<!-- Node1 -->
<g id="Node000001" class="node">
<title>Node1</title>
<g id="a_Node000001"><a xlink:title="Cast raw bytes to a node number.">
<polygon fill="#999999" stroke="#666666" points="178.75,-78.5 0,-78.5 0,-45 178.75,-45 178.75,-78.5"/>
<text text-anchor="start" x="8" y="-65" font-family="Helvetica,sans-Serif" font-size="10.00">vlcb_defs_NewNodeNumberFrom</text>
<text text-anchor="middle" x="89.38" y="-52.25" font-family="Helvetica,sans-Serif" font-size="10.00">Bytes</text>
</a>
</g>
</g>
<!-- Node2 -->
<g id="Node000002" class="node">
<title>Node2</title>
<g id="a_Node000002"><a xlink:href="node__new__number_8c.html#afa93f2be27cc4b8acfd6b00e1e93fb37" target="_top" xlink:title=" ">
<polygon fill="white" stroke="#666666" points="542.25,-91.12 429.5,-91.12 429.5,-70.38 542.25,-70.38 542.25,-91.12"/>
<text text-anchor="middle" x="485.88" y="-77.62" font-family="Helvetica,sans-Serif" font-size="10.00">IsNodeNumberValid</text>
</a>
</g>
</g>
<!-- Node1&#45;&gt;Node2 -->
<g id="edge1_Node000001_Node000002" class="edge">
<title>Node1&#45;&gt;Node2</title>
<g id="a_edge1_Node000001_Node000002"><a xlink:title=" ">
<path fill="none" stroke="#63b8ff" d="M179.19,-76.99C191.11,-78.55 203.21,-79.87 214.75,-80.75 283.84,-86 363.15,-85.19 417.88,-83.56"/>
<polygon fill="#63b8ff" stroke="#63b8ff" points="417.77,-87.07 427.65,-83.26 417.55,-80.07 417.77,-87.07"/>
</a>
</g>
</g>
<!-- Node3 -->
<g id="Node000003" class="node">
<title>Node3</title>
<g id="a_Node000003"><a xlink:href="node__new__number_8c.html#acb0c834eaaf6f88fd6f0507ed3e555a4" target="_top" xlink:title="Cast raw value to a node number.">
<polygon fill="white" stroke="#666666" points="381.12,-72.12 227.12,-72.12 227.12,-51.38 381.12,-51.38 381.12,-72.12"/>
<text text-anchor="middle" x="304.12" y="-58.62" font-family="Helvetica,sans-Serif" font-size="10.00">vlcb_defs_NewNodeNumber</text>
</a>
</g>
</g>
<!-- Node1&#45;&gt;Node3 -->
<g id="edge2_Node000001_Node000003" class="edge">
<title>Node1&#45;&gt;Node3</title>
<g id="a_edge2_Node000001_Node000003"><a xlink:title=" ">
<path fill="none" stroke="#63b8ff" d="M179.06,-61.75C191.07,-61.75 203.39,-61.75 215.38,-61.75"/>
<polygon fill="#63b8ff" stroke="#63b8ff" points="215.25,-65.25 225.25,-61.75 215.25,-58.25 215.25,-65.25"/>
</a>
</g>
</g>
<!-- Node4 -->
<g id="Node000004" class="node">
<title>Node4</title>
<g id="a_Node000004"><a xlink:href="node__new__number__unchecked_8c.html#a59bb078fbd9edf250b1348ce6b1c1556" target="_top" xlink:title="Construct a node number from bytes, unchecked.">
<polygon fill="white" stroke="#666666" points="393.5,-33.5 214.75,-33.5 214.75,0 393.5,0 393.5,-33.5"/>
<text text-anchor="start" x="222.75" y="-20" font-family="Helvetica,sans-Serif" font-size="10.00">vlcb_defs_NewNodeNumberFrom</text>
<text text-anchor="middle" x="304.12" y="-7.25" font-family="Helvetica,sans-Serif" font-size="10.00">BytesUnchecked</text>
</a>
</g>
</g>
<!-- Node1&#45;&gt;Node4 -->
<g id="edge4_Node000001_Node000004" class="edge">
<title>Node1&#45;&gt;Node4</title>
<g id="a_edge4_Node000001_Node000004"><a xlink:title=" ">
<path fill="none" stroke="#63b8ff" d="M171.72,-44.54C184.55,-41.83 197.89,-39.01 210.95,-36.25"/>
<polygon fill="#63b8ff" stroke="#63b8ff" points="211.29,-39.75 220.35,-34.26 209.84,-32.9 211.29,-39.75"/>
</a>
</g>
</g>
<!-- Node3&#45;&gt;Node2 -->
<g id="edge3_Node000003_Node000002" class="edge">
<title>Node3&#45;&gt;Node2</title>
<g id="a_edge3_Node000003_Node000002"><a xlink:title=" ">
<path fill="none" stroke="#63b8ff" d="M381.62,-69.84C393.71,-71.11 406.13,-72.43 417.98,-73.68"/>
<polygon fill="#63b8ff" stroke="#63b8ff" points="417.32,-77.13 427.64,-74.7 418.06,-70.17 417.32,-77.13"/>
</a>
</g>
</g>
</g>
</svg>
