<?xml version="1.0" encoding="UTF-8" standalone="no"?>
<!DOCTYPE svg PUBLIC "-//W3C//DTD SVG 1.1//EN"
 "http://www.w3.org/Graphics/SVG/1.1/DTD/svg11.dtd">
<!-- Generated by graphviz version 12.1.2 (20240928.0832)
 -->
<!-- Title: node.h Pages: 1 -->
<svg width="953pt" height="325pt"
 viewBox="0.00 0.00 952.50 325.25" xmlns="http://www.w3.org/2000/svg" xmlns:xlink="http://www.w3.org/1999/xlink">
<g id="graph0" class="graph" transform="scale(1 1) rotate(0) translate(4 321.25)">
<title>node.h</title>
<!-- Node1 -->
<g id="Node000001" class="node">
<title>Node1</title>
<g id="a_Node000001"><a xlink:title=" ">
<polygon fill="#999999" stroke="#666666" points="361.25,-317.25 312.25,-317.25 312.25,-296.5 361.25,-296.5 361.25,-317.25"/>
<text text-anchor="middle" x="336.75" y="-303.75" font-family="Helvetica,sans-Serif" font-size="10.00">node.h</text>
</a>
</g>
</g>
<!-- Node2 -->
<g id="Node000002" class="node">
<title>Node2</title>
<g id="a_Node000002"><a xlink:href="net_2inc_2vlcb_2net_2packet_2datagram_2dcc_8h.html" target="_top" xlink:title=" ">
<polygon fill="white" stroke="#666666" points="41.5,-254.12 0,-254.12 0,-233.38 41.5,-233.38 41.5,-254.12"/>
<text text-anchor="middle" x="20.75" y="-240.62" font-family="Helvetica,sans-Serif" font-size="10.00">dcc.h</text>
</a>
</g>
</g>
<!-- Node1&#45;&gt;Node2 -->
<g id="edge1_Node000001_Node000002" class="edge">
<title>Node1&#45;&gt;Node2</title>
<g id="a_edge1_Node000001_Node000002"><a xlink:title=" ">
<path fill="none" stroke="#63b8ff" d="M300.43,-303.08C246.21,-298.22 141.34,-286.18 55.75,-260.5 50.52,-258.93 45.04,-256.75 40.02,-254.51"/>
<polygon fill="#63b8ff" stroke="#63b8ff" points="300.06,-306.56 310.32,-303.93 300.66,-299.58 300.06,-306.56"/>
</a>
</g>
</g>
<!-- Node3 -->
<g id="Node000003" class="node">
<title>Node3</title>
<g id="a_Node000003"><a xlink:href="common_2inc_2vlcb_2common_2event_8h.html" target="_top" xlink:title=" ">
<polygon fill="white" stroke="#666666" points="150.12,-254.12 97.38,-254.12 97.38,-233.38 150.12,-233.38 150.12,-254.12"/>
<text text-anchor="middle" x="123.75" y="-240.62" font-family="Helvetica,sans-Serif" font-size="10.00">event.h</text>
</a>
</g>
</g>
<!-- Node1&#45;&gt;Node3 -->
<g id="edge2_Node000001_Node000003" class="edge">
<title>Node1&#45;&gt;Node3</title>
<g id="a_edge2_Node000001_Node000003"><a xlink:title=" ">
<path fill="none" stroke="#63b8ff" d="M300.86,-298.64C264.53,-290.88 206.97,-277.35 158.75,-260.5 153.84,-258.79 148.68,-256.65 143.87,-254.52"/>
<polygon fill="#63b8ff" stroke="#63b8ff" points="299.89,-302.02 310.4,-300.65 301.33,-295.17 299.89,-302.02"/>
</a>
</g>
</g>
<!-- Node4 -->
<g id="Node000004" class="node">
<title>Node4</title>
<g id="a_Node000004"><a xlink:href="net_2inc_2vlcb_2net_2packet_2datagram_2event_8h.html" target="_top" xlink:title=" ">
<polygon fill="white" stroke="#666666" points="129.12,-191 76.38,-191 76.38,-170.25 129.12,-170.25 129.12,-191"/>
<text text-anchor="middle" x="102.75" y="-177.5" font-family="Helvetica,sans-Serif" font-size="10.00">event.h</text>
</a>
</g>
</g>
<!-- Node1&#45;&gt;Node4 -->
<g id="edge4_Node000001_Node000004" class="edge">
<title>Node1&#45;&gt;Node4</title>
<g id="a_edge4_Node000001_Node000004"><a xlink:title=" ">
<path fill="none" stroke="#63b8ff" d="M300.88,-304.74C238.79,-301.94 115.34,-292.4 88.75,-260.5 72.1,-240.52 87.24,-207.65 96.62,-191.37"/>
<polygon fill="#63b8ff" stroke="#63b8ff" points="300.43,-308.23 310.57,-305.14 300.72,-301.23 300.43,-308.23"/>
</a>
</g>
</g>
<!-- Node5 -->
<g id="Node000005" class="node">
<title>Node5</title>
<g id="a_Node000005"><a xlink:href="general_8h.html" target="_top" xlink:title=" ">
<polygon fill="white" stroke="#666666" points="229.62,-254.12 167.88,-254.12 167.88,-233.38 229.62,-233.38 229.62,-254.12"/>
<text text-anchor="middle" x="198.75" y="-240.62" font-family="Helvetica,sans-Serif" font-size="10.00">general.h</text>
</a>
</g>
</g>
<!-- Node1&#45;&gt;Node5 -->
<g id="edge5_Node000001_Node000005" class="edge">
<title>Node1&#45;&gt;Node5</title>
<g id="a_edge5_Node000001_Node000005"><a xlink:title=" ">
<path fill="none" stroke="#63b8ff" d="M304.21,-291.46C278.53,-280.09 243.38,-264.52 220.87,-254.55"/>
<polygon fill="#63b8ff" stroke="#63b8ff" points="302.63,-294.59 313.19,-295.44 305.47,-288.19 302.63,-294.59"/>
</a>
</g>
</g>
<!-- Node6 -->
<g id="Node000006" class="node">
<title>Node6</title>
<g id="a_Node000006"><a xlink:href="module_2inc_2vlcb_2module_8h.html" target="_top" xlink:title=" ">
<polygon fill="white" stroke="#666666" points="255.62,-134.25 193.88,-134.25 193.88,-113.5 255.62,-113.5 255.62,-134.25"/>
<text text-anchor="middle" x="224.75" y="-120.75" font-family="Helvetica,sans-Serif" font-size="10.00">module.h</text>
</a>
</g>
</g>
<!-- Node1&#45;&gt;Node6 -->
<g id="edge6_Node000001_Node000006" class="edge">
<title>Node1&#45;&gt;Node6</title>
<g id="a_edge6_Node000001_Node000006"><a xlink:title=" ">
<path fill="none" stroke="#63b8ff" d="M309.31,-289.92C297.98,-282.22 285.49,-272.13 276.75,-260.5 245.99,-219.58 231.31,-158.28 226.56,-134.65"/>
<polygon fill="#63b8ff" stroke="#63b8ff" points="307.26,-292.77 317.56,-295.23 311.04,-286.88 307.26,-292.77"/>
</a>
</g>
</g>
<!-- Node9 -->
<g id="Node000009" class="node">
<title>Node9</title>
<g id="a_Node000009"><a xlink:href="state__machine_8c.html" target="_top" xlink:title=" ">
<polygon fill="white" stroke="#666666" points="369.88,-20.75 273.62,-20.75 273.62,0 369.88,0 369.88,-20.75"/>
<text text-anchor="middle" x="321.75" y="-7.25" font-family="Helvetica,sans-Serif" font-size="10.00">state_machine.c</text>
</a>
</g>
</g>
<!-- Node1&#45;&gt;Node9 -->
<g id="edge28_Node000001_Node000009" class="edge">
<title>Node1&#45;&gt;Node9</title>
<g id="a_edge28_Node000001_Node000009"><a xlink:title=" ">
<path fill="none" stroke="#63b8ff" d="M357.3,-288.44C381,-266.26 416.75,-225.53 416.75,-181.62 416.75,-181.62 416.75,-181.62 416.75,-122.88 416.75,-75.57 366.6,-38.15 339.17,-21.22"/>
<polygon fill="#63b8ff" stroke="#63b8ff" points="355.11,-285.69 350.02,-294.99 359.8,-290.9 355.11,-285.69"/>
</a>
</g>
</g>
<!-- Node10 -->
<g id="Node000010" class="node">
<title>Node10</title>
<g id="a_Node000010"><a xlink:href="state__machine_8h.html" target="_top" xlink:title=" ">
<polygon fill="white" stroke="#666666" points="350.25,-77.5 253.25,-77.5 253.25,-56.75 350.25,-56.75 350.25,-77.5"/>
<text text-anchor="middle" x="301.75" y="-64" font-family="Helvetica,sans-Serif" font-size="10.00">state_machine.h</text>
</a>
</g>
</g>
<!-- Node1&#45;&gt;Node10 -->
<g id="edge29_Node000001_Node000010" class="edge">
<title>Node1&#45;&gt;Node10</title>
<g id="a_edge29_Node000001_Node000010"><a xlink:title=" ">
<path fill="none" stroke="#63b8ff" d="M341.22,-285C342.65,-277.34 344.04,-268.56 344.75,-260.5 350.98,-189.25 318.38,-106.12 306.2,-77.99"/>
<polygon fill="#63b8ff" stroke="#63b8ff" points="337.8,-284.23 339.26,-294.72 344.66,-285.61 337.8,-284.23"/>
</a>
</g>
</g>
<!-- Node11 -->
<g id="Node000011" class="node">
<title>Node11</title>
<g id="a_Node000011"><a xlink:href="net_2inc_2vlcb_2net_2packet_2datagram_2module_8h.html" target="_top" xlink:title=" ">
<polygon fill="white" stroke="#666666" points="506.62,-77.5 444.88,-77.5 444.88,-56.75 506.62,-56.75 506.62,-77.5"/>
<text text-anchor="middle" x="475.75" y="-64" font-family="Helvetica,sans-Serif" font-size="10.00">module.h</text>
</a>
</g>
</g>
<!-- Node1&#45;&gt;Node11 -->
<g id="edge14_Node000001_Node000011" class="edge">
<title>Node1&#45;&gt;Node11</title>
<g id="a_edge14_Node000001_Node000011"><a xlink:title=" ">
<path fill="none" stroke="#63b8ff" d="M372.64,-296.84C392.57,-290.03 416.19,-278.67 430.75,-260.5 476.43,-203.48 477.25,-108.17 476.23,-77.76"/>
<polygon fill="#63b8ff" stroke="#63b8ff" points="371.68,-293.48 363.18,-299.81 373.77,-300.16 371.68,-293.48"/>
</a>
</g>
</g>
<!-- Node14 -->
<g id="Node000014" class="node">
<title>Node14</title>
<g id="a_Node000014"><a xlink:href="node__new__number_8c.html" target="_top" xlink:title=" ">
<polygon fill="white" stroke="#666666" points="598.62,-254.12 482.88,-254.12 482.88,-233.38 598.62,-233.38 598.62,-254.12"/>
<text text-anchor="middle" x="540.75" y="-240.62" font-family="Helvetica,sans-Serif" font-size="10.00">node_new_number.c</text>
</a>
</g>
</g>
<!-- Node1&#45;&gt;Node14 -->
<g id="edge19_Node000001_Node000014" class="edge">
<title>Node1&#45;&gt;Node14</title>
<g id="a_edge19_Node000001_Node000014"><a xlink:title=" ">
<path fill="none" stroke="#63b8ff" d="M371.98,-295.32C410.2,-283.87 470.73,-265.73 507.97,-254.57"/>
<polygon fill="#63b8ff" stroke="#63b8ff" points="371.38,-291.84 362.81,-298.07 373.39,-298.55 371.38,-291.84"/>
</a>
</g>
</g>
<!-- Node15 -->
<g id="Node000015" class="node">
<title>Node15</title>
<g id="a_Node000015"><a xlink:href="node__new__number__from__bytes_8c.html" target="_top" xlink:title=" ">
<polygon fill="white" stroke="#666666" points="753.12,-260.5 616.38,-260.5 616.38,-227 753.12,-227 753.12,-260.5"/>
<text text-anchor="start" x="624.38" y="-247" font-family="Helvetica,sans-Serif" font-size="10.00">node_new_number_from</text>
<text text-anchor="middle" x="684.75" y="-234.25" font-family="Helvetica,sans-Serif" font-size="10.00">_bytes.c</text>
</a>
</g>
</g>
<!-- Node1&#45;&gt;Node15 -->
<g id="edge20_Node000001_Node000015" class="edge">
<title>Node1&#45;&gt;Node15</title>
<g id="a_edge20_Node000001_Node000015"><a xlink:title=" ">
<path fill="none" stroke="#63b8ff" d="M372.72,-300.27C424.7,-292.08 523.77,-276.11 607.75,-260.5 610.43,-260 613.17,-259.48 615.93,-258.95"/>
<polygon fill="#63b8ff" stroke="#63b8ff" points="372.29,-296.8 362.96,-301.81 373.38,-303.71 372.29,-296.8"/>
</a>
</g>
</g>
<!-- Node16 -->
<g id="Node000016" class="node">
<title>Node16</title>
<g id="a_Node000016"><a xlink:href="node__new__number__unchecked_8c.html" target="_top" xlink:title=" ">
<polygon fill="white" stroke="#666666" points="944.5,-254.12 771,-254.12 771,-233.38 944.5,-233.38 944.5,-254.12"/>
<text text-anchor="middle" x="857.75" y="-240.62" font-family="Helvetica,sans-Serif" font-size="10.00">node_new_number_unchecked.c</text>
</a>
</g>
</g>
<!-- Node1&#45;&gt;Node16 -->
<g id="edge21_Node000001_Node000016" class="edge">
<title>Node1&#45;&gt;Node16</title>
<g id="a_edge21_Node000001_Node000016"><a xlink:title=" ">
<path fill="none" stroke="#63b8ff" d="M373.06,-302.69C446.58,-296.1 618.26,-279.92 761.75,-260.5 774.47,-258.78 788.1,-256.69 800.97,-254.61"/>
<polygon fill="#63b8ff" stroke="#63b8ff" points="372.88,-299.2 363.23,-303.57 373.5,-306.17 372.88,-299.2"/>
</a>
</g>
</g>
<!-- Node17 -->
<g id="Node000017" class="node">
<title>Node17</title>
<g id="a_Node000017"><a xlink:href="state_8h.html" target="_top" xlink:title=" ">
<polygon fill="white" stroke="#666666" points="335.62,-254.12 285.88,-254.12 285.88,-233.38 335.62,-233.38 335.62,-254.12"/>
<text text-anchor="middle" x="310.75" y="-240.62" font-family="Helvetica,sans-Serif" font-size="10.00">state.h</text>
</a>
</g>
</g>
<!-- Node1&#45;&gt;Node17 -->
<g id="edge22_Node000001_Node000017" class="edge">
<title>Node1&#45;&gt;Node17</title>
<g id="a_edge22_Node000001_Node000017"><a xlink:title=" ">
<path fill="none" stroke="#63b8ff" d="M328.14,-285.63C323.66,-275.09 318.38,-262.7 314.83,-254.34"/>
<polygon fill="#63b8ff" stroke="#63b8ff" points="324.85,-286.83 331.98,-294.66 331.29,-284.09 324.85,-286.83"/>
</a>
</g>
</g>
<!-- Node3&#45;&gt;Node4 -->
<g id="edge3_Node000003_Node000004" class="edge">
<title>Node3&#45;&gt;Node4</title>
<g id="a_edge3_Node000003_Node000004"><a xlink:title=" ">
<path fill="none" stroke="#63b8ff" d="M116.68,-222.16C113.08,-211.7 108.89,-199.49 106.05,-191.22"/>
<polygon fill="#63b8ff" stroke="#63b8ff" points="113.32,-223.18 119.88,-231.5 119.95,-220.9 113.32,-223.18"/>
</a>
</g>
</g>
<!-- Node7 -->
<g id="Node000007" class="node">
<title>Node7</title>
<g id="a_Node000007"><a xlink:href="module_8c.html" target="_top" xlink:title=" ">
<polygon fill="white" stroke="#666666" points="196.25,-20.75 135.25,-20.75 135.25,0 196.25,0 196.25,-20.75"/>
<text text-anchor="middle" x="165.75" y="-7.25" font-family="Helvetica,sans-Serif" font-size="10.00">module.c</text>
</a>
</g>
</g>
<!-- Node6&#45;&gt;Node7 -->
<g id="edge7_Node000006_Node000007" class="edge">
<title>Node6&#45;&gt;Node7</title>
<g id="a_edge7_Node000006_Node000007"><a xlink:title=" ">
<path fill="none" stroke="#63b8ff" d="M182.48,-114.69C161.62,-108.3 138.3,-97.06 125.75,-77.5 113.07,-57.74 136.42,-34.09 152.46,-21.11"/>
<polygon fill="#63b8ff" stroke="#63b8ff" points="181.37,-118.02 191.94,-117.29 183.23,-111.27 181.37,-118.02"/>
</a>
</g>
</g>
<!-- Node8 -->
<g id="Node000008" class="node">
<title>Node8</title>
<g id="a_Node000008"><a xlink:href="module_2src_2module_8h.html" target="_top" xlink:title=" ">
<polygon fill="white" stroke="#666666" points="196.62,-77.5 134.88,-77.5 134.88,-56.75 196.62,-56.75 196.62,-77.5"/>
<text text-anchor="middle" x="165.75" y="-64" font-family="Helvetica,sans-Serif" font-size="10.00">module.h</text>
</a>
</g>
</g>
<!-- Node6&#45;&gt;Node8 -->
<g id="edge8_Node000006_Node000008" class="edge">
<title>Node6&#45;&gt;Node8</title>
<g id="a_edge8_Node000006_Node000008"><a xlink:title=" ">
<path fill="none" stroke="#63b8ff" d="M205.84,-105.33C196.03,-96.22 184.4,-85.43 176.21,-77.83"/>
<polygon fill="#63b8ff" stroke="#63b8ff" points="203.38,-107.82 213.09,-112.06 208.14,-102.69 203.38,-107.82"/>
</a>
</g>
</g>
<!-- Node6&#45;&gt;Node9 -->
<g id="edge10_Node000006_Node000009" class="edge">
<title>Node6&#45;&gt;Node9</title>
<g id="a_edge10_Node000006_Node000009"><a xlink:title=" ">
<path fill="none" stroke="#63b8ff" d="M227,-102.34C229.42,-88.28 234.43,-69.88 244.75,-56.75 257.69,-40.28 278.4,-28.56 295.08,-21.16"/>
<polygon fill="#63b8ff" stroke="#63b8ff" points="223.59,-101.45 225.67,-111.84 230.52,-102.42 223.59,-101.45"/>
</a>
</g>
</g>
<!-- Node6&#45;&gt;Node10 -->
<g id="edge11_Node000006_Node000010" class="edge">
<title>Node6&#45;&gt;Node10</title>
<g id="a_edge11_Node000006_Node000010"><a xlink:title=" ">
<path fill="none" stroke="#63b8ff" d="M247.87,-106.44C260.99,-97.11 276.97,-85.75 288.1,-77.83"/>
<polygon fill="#63b8ff" stroke="#63b8ff" points="245.87,-103.56 239.75,-112.21 249.93,-109.27 245.87,-103.56"/>
</a>
</g>
</g>
<!-- Node8&#45;&gt;Node7 -->
<g id="edge9_Node000008_Node000007" class="edge">
<title>Node8&#45;&gt;Node7</title>
<g id="a_edge9_Node000008_Node000007"><a xlink:title=" ">
<path fill="none" stroke="#63b8ff" d="M165.75,-44.88C165.75,-36.66 165.75,-27.68 165.75,-21.08"/>
<polygon fill="#63b8ff" stroke="#63b8ff" points="162.25,-44.82 165.75,-54.82 169.25,-44.82 162.25,-44.82"/>
</a>
</g>
</g>
<!-- Node10&#45;&gt;Node7 -->
<g id="edge12_Node000010_Node000007" class="edge">
<title>Node10&#45;&gt;Node7</title>
<g id="a_edge12_Node000010_Node000007"><a xlink:title=" ">
<path fill="none" stroke="#63b8ff" d="M266.93,-52.11C242.79,-42.39 211.25,-29.69 189.85,-21.08"/>
<polygon fill="#63b8ff" stroke="#63b8ff" points="265.45,-55.28 276.03,-55.77 268.06,-48.79 265.45,-55.28"/>
</a>
</g>
</g>
<!-- Node10&#45;&gt;Node9 -->
<g id="edge13_Node000010_Node000009" class="edge">
<title>Node10&#45;&gt;Node9</title>
<g id="a_edge13_Node000010_Node000009"><a xlink:title=" ">
<path fill="none" stroke="#63b8ff" d="M309.19,-45.74C312.28,-37.3 315.71,-27.91 318.21,-21.08"/>
<polygon fill="#63b8ff" stroke="#63b8ff" points="305.99,-44.32 305.84,-54.92 312.56,-46.72 305.99,-44.32"/>
</a>
</g>
</g>
<!-- Node11&#45;&gt;Node7 -->
<g id="edge15_Node000011_Node000007" class="edge">
<title>Node11&#45;&gt;Node7</title>
<g id="a_edge15_Node000011_Node000007"><a xlink:title=" ">
<path fill="none" stroke="#63b8ff" d="M433.44,-58.65C370.11,-47.47 252.14,-26.63 196.41,-16.79"/>
<polygon fill="#63b8ff" stroke="#63b8ff" points="432.66,-62.07 443.12,-60.36 433.88,-55.18 432.66,-62.07"/>
</a>
</g>
</g>
<!-- Node11&#45;&gt;Node9 -->
<g id="edge18_Node000011_Node000009" class="edge">
<title>Node11&#45;&gt;Node9</title>
<g id="a_edge18_Node000011_Node000009"><a xlink:title=" ">
<path fill="none" stroke="#63b8ff" d="M437.46,-52.51C410.08,-42.78 373.87,-29.9 349.3,-21.17"/>
<polygon fill="#63b8ff" stroke="#63b8ff" points="436.2,-55.78 446.79,-55.83 438.54,-49.18 436.2,-55.78"/>
</a>
</g>
</g>
<!-- Node12 -->
<g id="Node000012" class="node">
<title>Node12</title>
<g id="a_Node000012"><a xlink:href="release__node__num__deserialize_8c.html" target="_top" xlink:title=" ">
<polygon fill="white" stroke="#666666" points="563.25,-20.75 388.25,-20.75 388.25,0 563.25,0 563.25,-20.75"/>
<text text-anchor="middle" x="475.75" y="-7.25" font-family="Helvetica,sans-Serif" font-size="10.00">release_node_num_deserialize.c</text>
</a>
</g>
</g>
<!-- Node11&#45;&gt;Node12 -->
<g id="edge16_Node000011_Node000012" class="edge">
<title>Node11&#45;&gt;Node12</title>
<g id="a_edge16_Node000011_Node000012"><a xlink:title=" ">
<path fill="none" stroke="#63b8ff" d="M475.75,-44.88C475.75,-36.66 475.75,-27.68 475.75,-21.08"/>
<polygon fill="#63b8ff" stroke="#63b8ff" points="472.25,-44.82 475.75,-54.82 479.25,-44.82 472.25,-44.82"/>
</a>
</g>
</g>
<!-- Node13 -->
<g id="Node000013" class="node">
<title>Node13</title>
<g id="a_Node000013"><a xlink:href="release__node__num__serialize_8c.html" target="_top" xlink:title=" ">
<polygon fill="white" stroke="#666666" points="744.25,-20.75 581.25,-20.75 581.25,0 744.25,0 744.25,-20.75"/>
<text text-anchor="middle" x="662.75" y="-7.25" font-family="Helvetica,sans-Serif" font-size="10.00">release_node_num_serialize.c</text>
</a>
</g>
</g>
<!-- Node11&#45;&gt;Node13 -->
<g id="edge17_Node000011_Node000013" class="edge">
<title>Node11&#45;&gt;Node13</title>
<g id="a_edge17_Node000011_Node000013"><a xlink:title=" ">
<path fill="none" stroke="#63b8ff" d="M517.92,-53.78C551.54,-43.94 597.99,-30.34 629.14,-21.22"/>
<polygon fill="#63b8ff" stroke="#63b8ff" points="517.12,-50.37 508.5,-56.54 519.08,-57.08 517.12,-50.37"/>
</a>
</g>
</g>
<!-- Node17&#45;&gt;Node6 -->
<g id="edge24_Node000017_Node000006" class="edge">
<title>Node17&#45;&gt;Node6</title>
<g id="a_edge24_Node000017_Node000006"><a xlink:title=" ">
<path fill="none" stroke="#63b8ff" d="M295.52,-224.2C287.65,-214.45 278,-202.22 269.75,-191 255.28,-171.31 239.43,-147.44 230.95,-134.44"/>
<polygon fill="#63b8ff" stroke="#63b8ff" points="292.69,-226.27 301.72,-231.82 298.12,-221.85 292.69,-226.27"/>
</a>
</g>
</g>
<!-- Node17&#45;&gt;Node7 -->
<g id="edge23_Node000017_Node000007" class="edge">
<title>Node17&#45;&gt;Node7</title>
<g id="a_edge23_Node000017_Node000007"><a xlink:title=" ">
<path fill="none" stroke="#63b8ff" d="M280.04,-227.56C234.63,-203.14 151.3,-150.39 117.75,-77.5 107.61,-55.46 132.43,-33.36 150.03,-21.12"/>
<polygon fill="#63b8ff" stroke="#63b8ff" points="278.37,-230.63 288.85,-232.18 281.62,-224.43 278.37,-230.63"/>
</a>
</g>
</g>
<!-- Node17&#45;&gt;Node9 -->
<g id="edge25_Node000017_Node000009" class="edge">
<title>Node17&#45;&gt;Node9</title>
<g id="a_edge25_Node000017_Node000009"><a xlink:title=" ">
<path fill="none" stroke="#63b8ff" d="M318.9,-222.3C330.7,-191.5 351.97,-131.09 359.75,-77.5 361.07,-68.37 362.9,-65.42 359.75,-56.75 354.56,-42.46 342.67,-29.52 333.56,-21.16"/>
<polygon fill="#63b8ff" stroke="#63b8ff" points="315.69,-220.92 315.31,-231.51 322.21,-223.46 315.69,-220.92"/>
</a>
</g>
</g>
<!-- Node18 -->
<g id="Node000018" class="node">
<title>Node18</title>
<g id="a_Node000018"><a xlink:href="ui_8h.html" target="_top" xlink:title=" ">
<polygon fill="white" stroke="#666666" points="312.75,-191 278.75,-191 278.75,-170.25 312.75,-170.25 312.75,-191"/>
<text text-anchor="middle" x="295.75" y="-177.5" font-family="Helvetica,sans-Serif" font-size="10.00">ui.h</text>
</a>
</g>
</g>
<!-- Node17&#45;&gt;Node18 -->
<g id="edge26_Node000017_Node000018" class="edge">
<title>Node17&#45;&gt;Node18</title>
<g id="a_edge26_Node000017_Node000018"><a xlink:title=" ">
<path fill="none" stroke="#63b8ff" d="M305.62,-221.83C303.07,-211.44 300.11,-199.4 298.1,-191.22"/>
<polygon fill="#63b8ff" stroke="#63b8ff" points="302.2,-222.58 307.98,-231.46 309,-220.91 302.2,-222.58"/>
</a>
</g>
</g>
<!-- Node18&#45;&gt;Node6 -->
<g id="edge27_Node000018_Node000006" class="edge">
<title>Node18&#45;&gt;Node6</title>
<g id="a_edge27_Node000018_Node000006"><a xlink:title=" ">
<path fill="none" stroke="#63b8ff" d="M274.08,-162.91C262.04,-153.63 247.5,-142.42 237.33,-134.58"/>
<polygon fill="#63b8ff" stroke="#63b8ff" points="271.8,-165.58 281.86,-168.91 276.08,-160.03 271.8,-165.58"/>
</a>
</g>
</g>
</g>
</svg>
