<?xml version="1.0" encoding="UTF-8" standalone="no"?>
<!DOCTYPE svg PUBLIC "-//W3C//DTD SVG 1.1//EN"
 "http://www.w3.org/Graphics/SVG/1.1/DTD/svg11.dtd">
<!-- Generated by graphviz version 12.1.2 (20240928.0832)
 -->
<!-- Title: opcode.h Pages: 1 -->
<svg width="1700pt" height="426pt"
 viewBox="0.00 0.00 1699.75 426.00" xmlns="http://www.w3.org/2000/svg" xmlns:xlink="http://www.w3.org/1999/xlink">
<g id="graph0" class="graph" transform="scale(1 1) rotate(0) translate(4 422)">
<title>opcode.h</title>
<!-- Node1 -->
<g id="Node000001" class="node">
<title>Node1</title>
<g id="a_Node000001"><a xlink:title=" ">
<polygon fill="#999999" stroke="#666666" points="974.38,-418 914.12,-418 914.12,-397.25 974.38,-397.25 974.38,-418"/>
<text text-anchor="middle" x="944.25" y="-404.5" font-family="Helvetica,sans-Serif" font-size="10.00">opcode.h</text>
</a>
</g>
</g>
<!-- Node2 -->
<g id="Node000002" class="node">
<title>Node2</title>
<g id="a_Node000002"><a xlink:href="common_2inc_2vlcb_2common_2can_8h.html" target="_top" xlink:title=" ">
<polygon fill="white" stroke="#666666" points="565.38,-361.25 523.12,-361.25 523.12,-340.5 565.38,-340.5 565.38,-361.25"/>
<text text-anchor="middle" x="544.25" y="-347.75" font-family="Helvetica,sans-Serif" font-size="10.00">can.h</text>
</a>
</g>
</g>
<!-- Node1&#45;&gt;Node2 -->
<g id="edge1_Node000001_Node000002" class="edge">
<title>Node1&#45;&gt;Node2</title>
<g id="a_edge1_Node000001_Node000002"><a xlink:title=" ">
<path fill="none" stroke="#63b8ff" d="M902.65,-400.93C818.11,-389.36 628.91,-363.46 565.46,-354.78"/>
<polygon fill="#63b8ff" stroke="#63b8ff" points="901.97,-404.37 912.36,-402.26 902.92,-397.44 901.97,-404.37"/>
</a>
</g>
</g>
<!-- Node25 -->
<g id="Node000025" class="node">
<title>Node25</title>
<g id="a_Node000025"><a xlink:href="can__prio__from__opc_8c.html" target="_top" xlink:title=" ">
<polygon fill="white" stroke="#666666" points="941.5,-304.5 825,-304.5 825,-283.75 941.5,-283.75 941.5,-304.5"/>
<text text-anchor="middle" x="883.25" y="-291" font-family="Helvetica,sans-Serif" font-size="10.00">can_prio_from_opc.c</text>
</a>
</g>
</g>
<!-- Node1&#45;&gt;Node25 -->
<g id="edge38_Node000001_Node000025" class="edge">
<title>Node1&#45;&gt;Node25</title>
<g id="a_edge38_Node000001_Node000025"><a xlink:title=" ">
<path fill="none" stroke="#63b8ff" d="M933.54,-387.04C920.4,-363.02 898.64,-323.25 888.61,-304.93"/>
<polygon fill="#63b8ff" stroke="#63b8ff" points="930.45,-388.7 938.32,-395.79 936.59,-385.34 930.45,-388.7"/>
</a>
</g>
</g>
<!-- Node28 -->
<g id="Node000028" class="node">
<title>Node28</title>
<g id="a_Node000028"><a xlink:href="packet_2datagram_8h.html" target="_top" xlink:title=" ">
<polygon fill="white" stroke="#666666" points="1276.38,-247.75 1204.12,-247.75 1204.12,-227 1276.38,-227 1276.38,-247.75"/>
<text text-anchor="middle" x="1240.25" y="-234.25" font-family="Helvetica,sans-Serif" font-size="10.00">datagram.h</text>
</a>
</g>
</g>
<!-- Node1&#45;&gt;Node28 -->
<g id="edge39_Node000001_Node000028" class="edge">
<title>Node1&#45;&gt;Node28</title>
<g id="a_edge39_Node000001_Node000028"><a xlink:title=" ">
<path fill="none" stroke="#63b8ff" d="M971.3,-391.25C1031.19,-357.2 1173.6,-276.26 1223.01,-248.18"/>
<polygon fill="#63b8ff" stroke="#63b8ff" points="969.72,-388.12 962.76,-396.1 973.18,-394.21 969.72,-388.12"/>
</a>
</g>
</g>
<!-- Node37 -->
<g id="Node000037" class="node">
<title>Node37</title>
<g id="a_Node000037"><a xlink:href="vlcb_8h.html" target="_top" xlink:title=" ">
<polygon fill="white" stroke="#666666" points="1004.88,-304.5 959.62,-304.5 959.62,-283.75 1004.88,-283.75 1004.88,-304.5"/>
<text text-anchor="middle" x="982.25" y="-291" font-family="Helvetica,sans-Serif" font-size="10.00">vlcb.h</text>
</a>
</g>
</g>
<!-- Node1&#45;&gt;Node37 -->
<g id="edge57_Node000001_Node000037" class="edge">
<title>Node1&#45;&gt;Node37</title>
<g id="a_edge57_Node000001_Node000037"><a xlink:title=" ">
<path fill="none" stroke="#63b8ff" d="M951.15,-386.38C959.35,-362.31 972.72,-323.09 978.91,-304.93"/>
<polygon fill="#63b8ff" stroke="#63b8ff" points="947.89,-385.09 947.98,-395.69 954.52,-387.35 947.89,-385.09"/>
</a>
</g>
</g>
<!-- Node3 -->
<g id="Node000003" class="node">
<title>Node3</title>
<g id="a_Node000003"><a xlink:href="addr_8c.html" target="_top" xlink:title=" ">
<polygon fill="white" stroke="#666666" points="601.88,-247.75 556.62,-247.75 556.62,-227 601.88,-227 601.88,-247.75"/>
<text text-anchor="middle" x="579.25" y="-234.25" font-family="Helvetica,sans-Serif" font-size="10.00">addr.c</text>
</a>
</g>
</g>
<!-- Node2&#45;&gt;Node3 -->
<g id="edge2_Node000002_Node000003" class="edge">
<title>Node2&#45;&gt;Node3</title>
<g id="a_edge2_Node000002_Node000003"><a xlink:title=" ">
<path fill="none" stroke="#63b8ff" d="M575.75,-336.84C589.25,-329.48 603.64,-318.84 611.25,-304.5 621.77,-284.67 602.7,-260.85 589.75,-247.9"/>
<polygon fill="#63b8ff" stroke="#63b8ff" points="574.48,-333.56 567.09,-341.15 577.6,-339.83 574.48,-333.56"/>
</a>
</g>
</g>
<!-- Node4 -->
<g id="Node000004" class="node">
<title>Node4</title>
<g id="a_Node000004"><a xlink:href="addr_8h.html" target="_top" xlink:title=" ">
<polygon fill="white" stroke="#666666" points="602.25,-304.5 556.25,-304.5 556.25,-283.75 602.25,-283.75 602.25,-304.5"/>
<text text-anchor="middle" x="579.25" y="-291" font-family="Helvetica,sans-Serif" font-size="10.00">addr.h</text>
</a>
</g>
</g>
<!-- Node2&#45;&gt;Node4 -->
<g id="edge3_Node000002_Node000004" class="edge">
<title>Node2&#45;&gt;Node4</title>
<g id="a_edge3_Node000002_Node000004"><a xlink:title=" ">
<path fill="none" stroke="#63b8ff" d="M556.55,-330.64C562.13,-321.91 568.48,-311.97 573.05,-304.83"/>
<polygon fill="#63b8ff" stroke="#63b8ff" points="553.76,-328.5 551.32,-338.81 559.66,-332.27 553.76,-328.5"/>
</a>
</g>
</g>
<!-- Node21 -->
<g id="Node000021" class="node">
<title>Node21</title>
<g id="a_Node000021"><a xlink:href="can__id__is__valid_8c.html" target="_top" xlink:title=" ">
<polygon fill="white" stroke="#666666" points="98.5,-304.5 0,-304.5 0,-283.75 98.5,-283.75 98.5,-304.5"/>
<text text-anchor="middle" x="49.25" y="-291" font-family="Helvetica,sans-Serif" font-size="10.00">can_id_is_valid.c</text>
</a>
</g>
</g>
<!-- Node2&#45;&gt;Node21 -->
<g id="edge30_Node000002_Node000021" class="edge">
<title>Node2&#45;&gt;Node21</title>
<g id="a_edge30_Node000002_Node000021"><a xlink:title=" ">
<path fill="none" stroke="#63b8ff" d="M511.8,-347.1C439.3,-340.77 258.71,-324.27 108.25,-304.5 105.17,-304.09 101.99,-303.66 98.8,-303.2"/>
<polygon fill="#63b8ff" stroke="#63b8ff" points="511.11,-350.55 521.37,-347.93 511.71,-343.58 511.11,-350.55"/>
</a>
</g>
</g>
<!-- Node22 -->
<g id="Node000022" class="node">
<title>Node22</title>
<g id="a_Node000022"><a xlink:href="can__id__new_8c.html" target="_top" xlink:title=" ">
<polygon fill="white" stroke="#666666" points="197.5,-304.5 117,-304.5 117,-283.75 197.5,-283.75 197.5,-304.5"/>
<text text-anchor="middle" x="157.25" y="-291" font-family="Helvetica,sans-Serif" font-size="10.00">can_id_new.c</text>
</a>
</g>
</g>
<!-- Node2&#45;&gt;Node22 -->
<g id="edge31_Node000002_Node000022" class="edge">
<title>Node2&#45;&gt;Node22</title>
<g id="a_edge31_Node000002_Node000022"><a xlink:title=" ">
<path fill="none" stroke="#63b8ff" d="M511.77,-346.12C451.43,-339.02 318.01,-322.68 206.25,-304.5 203.51,-304.06 200.7,-303.57 197.86,-303.08"/>
<polygon fill="#63b8ff" stroke="#63b8ff" points="510.99,-349.56 521.33,-347.24 511.81,-342.6 510.99,-349.56"/>
</a>
</g>
</g>
<!-- Node23 -->
<g id="Node000023" class="node">
<title>Node23</title>
<g id="a_Node000023"><a xlink:href="can__is__prio__valid_8c.html" target="_top" xlink:title=" ">
<polygon fill="white" stroke="#666666" points="323.38,-304.5 215.12,-304.5 215.12,-283.75 323.38,-283.75 323.38,-304.5"/>
<text text-anchor="middle" x="269.25" y="-291" font-family="Helvetica,sans-Serif" font-size="10.00">can_is_prio_valid.c</text>
</a>
</g>
</g>
<!-- Node2&#45;&gt;Node23 -->
<g id="edge32_Node000002_Node000023" class="edge">
<title>Node2&#45;&gt;Node23</title>
<g id="a_edge32_Node000002_Node000023"><a xlink:title=" ">
<path fill="none" stroke="#63b8ff" d="M511.45,-343.34C463.62,-333.82 374.38,-316.06 318.6,-304.95"/>
<polygon fill="#63b8ff" stroke="#63b8ff" points="510.7,-346.76 521.19,-345.28 512.06,-339.9 510.7,-346.76"/>
</a>
</g>
</g>
<!-- Node24 -->
<g id="Node000024" class="node">
<title>Node24</title>
<g id="a_Node000024"><a xlink:href="can__prio__from__byte_8c.html" target="_top" xlink:title=" ">
<polygon fill="white" stroke="#666666" points="462.75,-304.5 341.75,-304.5 341.75,-283.75 462.75,-283.75 462.75,-304.5"/>
<text text-anchor="middle" x="402.25" y="-291" font-family="Helvetica,sans-Serif" font-size="10.00">can_prio_from_byte.c</text>
</a>
</g>
</g>
<!-- Node2&#45;&gt;Node24 -->
<g id="edge33_Node000002_Node000024" class="edge">
<title>Node2&#45;&gt;Node24</title>
<g id="a_edge33_Node000002_Node000024"><a xlink:title=" ">
<path fill="none" stroke="#63b8ff" d="M512,-337.44C486.35,-327.55 450.96,-313.91 427.38,-304.81"/>
<polygon fill="#63b8ff" stroke="#63b8ff" points="510.68,-340.68 521.27,-341.02 513.2,-334.15 510.68,-340.68"/>
</a>
</g>
</g>
<!-- Node2&#45;&gt;Node25 -->
<g id="edge34_Node000002_Node000025" class="edge">
<title>Node2&#45;&gt;Node25</title>
<g id="a_edge34_Node000002_Node000025"><a xlink:title=" ">
<path fill="none" stroke="#63b8ff" d="M576.93,-344.6C634.09,-335.37 752.92,-316.17 824.61,-304.6"/>
<polygon fill="#63b8ff" stroke="#63b8ff" points="576.52,-341.12 567.21,-346.17 577.64,-348.03 576.52,-341.12"/>
</a>
</g>
</g>
<!-- Node26 -->
<g id="Node000026" class="node">
<title>Node26</title>
<g id="a_Node000026"><a xlink:href="general_8h.html" target="_top" xlink:title=" ">
<polygon fill="white" stroke="#666666" points="1142.12,-191 1080.38,-191 1080.38,-170.25 1142.12,-170.25 1142.12,-191"/>
<text text-anchor="middle" x="1111.25" y="-177.5" font-family="Helvetica,sans-Serif" font-size="10.00">general.h</text>
</a>
</g>
</g>
<!-- Node2&#45;&gt;Node26 -->
<g id="edge35_Node000002_Node000026" class="edge">
<title>Node2&#45;&gt;Node26</title>
<g id="a_edge35_Node000002_Node000026"><a xlink:title=" ">
<path fill="none" stroke="#63b8ff" d="M576.57,-340.84C639.04,-323.31 780.65,-283.3 899.25,-247.75 963.88,-228.38 1039.22,-204.59 1080.42,-191.48"/>
<polygon fill="#63b8ff" stroke="#63b8ff" points="575.65,-337.46 566.96,-343.53 577.54,-344.2 575.65,-337.46"/>
</a>
</g>
</g>
<!-- Node27 -->
<g id="Node000027" class="node">
<title>Node27</title>
<g id="a_Node000027"><a xlink:href="packet_8h.html" target="_top" xlink:title=" ">
<polygon fill="white" stroke="#666666" points="537.88,-304.5 480.62,-304.5 480.62,-283.75 537.88,-283.75 537.88,-304.5"/>
<text text-anchor="middle" x="509.25" y="-291" font-family="Helvetica,sans-Serif" font-size="10.00">packet.h</text>
</a>
</g>
</g>
<!-- Node2&#45;&gt;Node27 -->
<g id="edge36_Node000002_Node000027" class="edge">
<title>Node2&#45;&gt;Node27</title>
<g id="a_edge36_Node000002_Node000027"><a xlink:title=" ">
<path fill="none" stroke="#63b8ff" d="M531.95,-330.64C526.37,-321.91 520.02,-311.97 515.45,-304.83"/>
<polygon fill="#63b8ff" stroke="#63b8ff" points="528.84,-332.27 537.18,-338.81 534.74,-328.5 528.84,-332.27"/>
</a>
</g>
</g>
<!-- Node4&#45;&gt;Node3 -->
<g id="edge29_Node000004_Node000003" class="edge">
<title>Node4&#45;&gt;Node3</title>
<g id="a_edge29_Node000004_Node000003"><a xlink:title=" ">
<path fill="none" stroke="#63b8ff" d="M579.25,-271.88C579.25,-263.66 579.25,-254.68 579.25,-248.08"/>
<polygon fill="#63b8ff" stroke="#63b8ff" points="575.75,-271.82 579.25,-281.82 582.75,-271.82 575.75,-271.82"/>
</a>
</g>
</g>
<!-- Node5 -->
<g id="Node000005" class="node">
<title>Node5</title>
<g id="a_Node000005"><a xlink:href="adapter_8h.html" target="_top" xlink:title=" ">
<polygon fill="white" stroke="#666666" points="523.12,-247.75 461.38,-247.75 461.38,-227 523.12,-227 523.12,-247.75"/>
<text text-anchor="middle" x="492.25" y="-234.25" font-family="Helvetica,sans-Serif" font-size="10.00">adapter.h</text>
</a>
</g>
</g>
<!-- Node4&#45;&gt;Node5 -->
<g id="edge4_Node000004_Node000005" class="edge">
<title>Node4&#45;&gt;Node5</title>
<g id="a_edge4_Node000004_Node000005"><a xlink:title=" ">
<path fill="none" stroke="#63b8ff" d="M554,-277.23C539.01,-267.8 520.5,-256.15 507.67,-248.08"/>
<polygon fill="#63b8ff" stroke="#63b8ff" points="552.09,-280.17 562.42,-282.53 555.82,-274.24 552.09,-280.17"/>
</a>
</g>
</g>
<!-- Node6 -->
<g id="Node000006" class="node">
<title>Node6</title>
<g id="a_Node000006"><a xlink:href="adapter_8c.html" target="_top" xlink:title=" ">
<polygon fill="white" stroke="#666666" points="451.75,-191 390.75,-191 390.75,-170.25 451.75,-170.25 451.75,-191"/>
<text text-anchor="middle" x="421.25" y="-177.5" font-family="Helvetica,sans-Serif" font-size="10.00">adapter.c</text>
</a>
</g>
</g>
<!-- Node5&#45;&gt;Node6 -->
<g id="edge5_Node000005_Node000006" class="edge">
<title>Node5&#45;&gt;Node6</title>
<g id="a_edge5_Node000005_Node000006"><a xlink:title=" ">
<path fill="none" stroke="#63b8ff" d="M470.58,-219.66C458.54,-210.38 444,-199.17 433.83,-191.33"/>
<polygon fill="#63b8ff" stroke="#63b8ff" points="468.3,-222.33 478.36,-225.66 472.58,-216.78 468.3,-222.33"/>
</a>
</g>
</g>
<!-- Node7 -->
<g id="Node000007" class="node">
<title>Node7</title>
<g id="a_Node000007"><a xlink:href="iface_8c.html" target="_top" xlink:title=" ">
<polygon fill="white" stroke="#666666" points="580.38,-77.5 532.12,-77.5 532.12,-56.75 580.38,-56.75 580.38,-77.5"/>
<text text-anchor="middle" x="556.25" y="-64" font-family="Helvetica,sans-Serif" font-size="10.00">iface.c</text>
</a>
</g>
</g>
<!-- Node5&#45;&gt;Node7 -->
<g id="edge6_Node000005_Node000007" class="edge">
<title>Node5&#45;&gt;Node7</title>
<g id="a_edge6_Node000005_Node000007"><a xlink:title=" ">
<path fill="none" stroke="#63b8ff" d="M489.8,-215.55C487.76,-190.01 487.47,-146.11 504.25,-113.5 512.09,-98.27 527.4,-85.89 539.38,-77.94"/>
<polygon fill="#63b8ff" stroke="#63b8ff" points="486.29,-215.67 490.76,-225.27 493.26,-214.98 486.29,-215.67"/>
</a>
</g>
</g>
<!-- Node8 -->
<g id="Node000008" class="node">
<title>Node8</title>
<g id="a_Node000008"><a xlink:href="iface_8h.html" target="_top" xlink:title=" ">
<polygon fill="white" stroke="#666666" points="707.75,-191 658.75,-191 658.75,-170.25 707.75,-170.25 707.75,-191"/>
<text text-anchor="middle" x="683.25" y="-177.5" font-family="Helvetica,sans-Serif" font-size="10.00">iface.h</text>
</a>
</g>
</g>
<!-- Node5&#45;&gt;Node8 -->
<g id="edge7_Node000005_Node000008" class="edge">
<title>Node5&#45;&gt;Node8</title>
<g id="a_edge7_Node000005_Node000008"><a xlink:title=" ">
<path fill="none" stroke="#63b8ff" d="M534.1,-224.38C572.16,-213.47 627.05,-197.73 658.54,-188.71"/>
<polygon fill="#63b8ff" stroke="#63b8ff" points="533.47,-220.92 524.82,-227.04 535.39,-227.65 533.47,-220.92"/>
</a>
</g>
</g>
<!-- Node9 -->
<g id="Node000009" class="node">
<title>Node9</title>
<g id="a_Node000009"><a xlink:href="iface__can_8c.html" target="_top" xlink:title=" ">
<polygon fill="white" stroke="#666666" points="682.62,-77.5 611.88,-77.5 611.88,-56.75 682.62,-56.75 682.62,-77.5"/>
<text text-anchor="middle" x="647.25" y="-64" font-family="Helvetica,sans-Serif" font-size="10.00">iface_can.c</text>
</a>
</g>
</g>
<!-- Node5&#45;&gt;Node9 -->
<g id="edge25_Node000005_Node000009" class="edge">
<title>Node5&#45;&gt;Node9</title>
<g id="a_edge25_Node000005_Node000009"><a xlink:title=" ">
<path fill="none" stroke="#63b8ff" d="M502.18,-216.71C515.96,-190.8 542.88,-144.86 575.25,-113.5 590.64,-98.59 611.69,-86.02 627.06,-77.91"/>
<polygon fill="#63b8ff" stroke="#63b8ff" points="499.15,-214.95 497.65,-225.44 505.36,-218.18 499.15,-214.95"/>
</a>
</g>
</g>
<!-- Node10 -->
<g id="Node000010" class="node">
<title>Node10</title>
<g id="a_Node000010"><a xlink:href="iface__can_8h.html" target="_top" xlink:title=" ">
<polygon fill="white" stroke="#666666" points="452,-134.25 380.5,-134.25 380.5,-113.5 452,-113.5 452,-134.25"/>
<text text-anchor="middle" x="416.25" y="-120.75" font-family="Helvetica,sans-Serif" font-size="10.00">iface_can.h</text>
</a>
</g>
</g>
<!-- Node5&#45;&gt;Node10 -->
<g id="edge26_Node000005_Node000010" class="edge">
<title>Node5&#45;&gt;Node10</title>
<g id="a_edge26_Node000005_Node000010"><a xlink:title=" ">
<path fill="none" stroke="#63b8ff" d="M449.7,-230.71C425.26,-225.03 396.48,-213.68 381.25,-191 368.51,-172.02 389.83,-147.88 404.4,-134.65"/>
<polygon fill="#63b8ff" stroke="#63b8ff" points="448.93,-234.12 459.43,-232.7 450.33,-227.26 448.93,-234.12"/>
</a>
</g>
</g>
<!-- Node19 -->
<g id="Node000019" class="node">
<title>Node19</title>
<g id="a_Node000019"><a xlink:href="packet__parse_8h.html" target="_top" xlink:title=" ">
<polygon fill="white" stroke="#666666" points="334,-191 244.5,-191 244.5,-170.25 334,-170.25 334,-191"/>
<text text-anchor="middle" x="289.25" y="-177.5" font-family="Helvetica,sans-Serif" font-size="10.00">packet_parse.h</text>
</a>
</g>
</g>
<!-- Node5&#45;&gt;Node19 -->
<g id="edge27_Node000005_Node000019" class="edge">
<title>Node5&#45;&gt;Node19</title>
<g id="a_edge27_Node000005_Node000019"><a xlink:title=" ">
<path fill="none" stroke="#63b8ff" d="M450.13,-225.01C413.4,-215.11 360.66,-200.89 325.71,-191.46"/>
<polygon fill="#63b8ff" stroke="#63b8ff" points="448.95,-228.32 459.51,-227.55 450.77,-221.56 448.95,-228.32"/>
</a>
</g>
</g>
<!-- Node8&#45;&gt;Node7 -->
<g id="edge8_Node000008_Node000007" class="edge">
<title>Node8&#45;&gt;Node7</title>
<g id="a_edge8_Node000008_Node000007"><a xlink:title=" ">
<path fill="none" stroke="#63b8ff" d="M682.99,-158.68C681.76,-144.43 677.97,-125.97 667.25,-113.5 655.61,-99.96 609.75,-84.2 580.74,-75.27"/>
<polygon fill="#63b8ff" stroke="#63b8ff" points="679.48,-158.53 683.45,-168.35 686.47,-158.2 679.48,-158.53"/>
</a>
</g>
</g>
<!-- Node8&#45;&gt;Node9 -->
<g id="edge9_Node000008_Node000009" class="edge">
<title>Node8&#45;&gt;Node9</title>
<g id="a_edge9_Node000008_Node000009"><a xlink:title=" ">
<path fill="none" stroke="#63b8ff" d="M695.19,-159.75C701.65,-146.28 707.06,-128.31 700.25,-113.5 693.11,-97.99 677.76,-85.8 665.4,-77.98"/>
<polygon fill="#63b8ff" stroke="#63b8ff" points="692.13,-158.04 690.47,-168.51 698.29,-161.37 692.13,-158.04"/>
</a>
</g>
</g>
<!-- Node8&#45;&gt;Node10 -->
<g id="edge10_Node000008_Node000010" class="edge">
<title>Node8&#45;&gt;Node10</title>
<g id="a_edge10_Node000008_Node000010"><a xlink:title=" ">
<path fill="none" stroke="#63b8ff" d="M647.49,-172.29C596.46,-161.83 503.27,-142.72 452.15,-132.24"/>
<polygon fill="#63b8ff" stroke="#63b8ff" points="646.63,-175.69 657.13,-174.27 648.03,-168.83 646.63,-175.69"/>
</a>
</g>
</g>
<!-- Node12 -->
<g id="Node000012" class="node">
<title>Node12</title>
<g id="a_Node000012"><a xlink:href="iface__vlcb_8h.html" target="_top" xlink:title=" ">
<polygon fill="white" stroke="#666666" points="658.5,-134.25 584,-134.25 584,-113.5 658.5,-113.5 658.5,-134.25"/>
<text text-anchor="middle" x="621.25" y="-120.75" font-family="Helvetica,sans-Serif" font-size="10.00">iface_vlcb.h</text>
</a>
</g>
</g>
<!-- Node8&#45;&gt;Node12 -->
<g id="edge13_Node000008_Node000012" class="edge">
<title>Node8&#45;&gt;Node12</title>
<g id="a_edge13_Node000008_Node000012"><a xlink:title=" ">
<path fill="none" stroke="#63b8ff" d="M663.7,-162.36C653.32,-153.19 640.94,-142.26 632.24,-134.58"/>
<polygon fill="#63b8ff" stroke="#63b8ff" points="661.22,-164.84 671.03,-168.83 665.85,-159.59 661.22,-164.84"/>
</a>
</g>
</g>
<!-- Node13 -->
<g id="Node000013" class="node">
<title>Node13</title>
<g id="a_Node000013"><a xlink:href="module_2inc_2vlcb_2module_8h.html" target="_top" xlink:title=" ">
<polygon fill="white" stroke="#666666" points="910.12,-134.25 848.38,-134.25 848.38,-113.5 910.12,-113.5 910.12,-134.25"/>
<text text-anchor="middle" x="879.25" y="-120.75" font-family="Helvetica,sans-Serif" font-size="10.00">module.h</text>
</a>
</g>
</g>
<!-- Node8&#45;&gt;Node13 -->
<g id="edge16_Node000008_Node000013" class="edge">
<title>Node8&#45;&gt;Node13</title>
<g id="a_edge16_Node000008_Node000013"><a xlink:title=" ">
<path fill="none" stroke="#63b8ff" d="M718.84,-169.68C755.79,-159.36 813,-143.38 848.18,-133.56"/>
<polygon fill="#63b8ff" stroke="#63b8ff" points="718.22,-166.22 709.53,-172.28 720.1,-172.96 718.22,-166.22"/>
</a>
</g>
</g>
<!-- Node18 -->
<g id="Node000018" class="node">
<title>Node18</title>
<g id="a_Node000018"><a xlink:href="net_2inc_2vlcb_2net_8h.html" target="_top" xlink:title=" ">
<polygon fill="white" stroke="#666666" points="792.62,-134.25 751.88,-134.25 751.88,-113.5 792.62,-113.5 792.62,-134.25"/>
<text text-anchor="middle" x="772.25" y="-120.75" font-family="Helvetica,sans-Serif" font-size="10.00">net.h</text>
</a>
</g>
</g>
<!-- Node8&#45;&gt;Node18 -->
<g id="edge24_Node000008_Node000018" class="edge">
<title>Node8&#45;&gt;Node18</title>
<g id="a_edge24_Node000008_Node000018"><a xlink:title=" ">
<path fill="none" stroke="#63b8ff" d="M708.64,-164.01C724.05,-154.53 743.23,-142.73 756.48,-134.58"/>
<polygon fill="#63b8ff" stroke="#63b8ff" points="707.13,-160.82 700.45,-169.04 710.8,-166.79 707.13,-160.82"/>
</a>
</g>
</g>
<!-- Node10&#45;&gt;Node7 -->
<g id="edge11_Node000010_Node000007" class="edge">
<title>Node10&#45;&gt;Node7</title>
<g id="a_edge11_Node000010_Node000007"><a xlink:title=" ">
<path fill="none" stroke="#63b8ff" d="M451.83,-108.96C476.89,-99.16 509.79,-86.29 531.91,-77.65"/>
<polygon fill="#63b8ff" stroke="#63b8ff" points="450.73,-105.63 442.69,-112.54 453.28,-112.15 450.73,-105.63"/>
</a>
</g>
</g>
<!-- Node11 -->
<g id="Node000011" class="node">
<title>Node11</title>
<g id="a_Node000011"><a xlink:href="iface__vlcb_8c.html" target="_top" xlink:title=" ">
<polygon fill="white" stroke="#666666" points="453.12,-77.5 379.38,-77.5 379.38,-56.75 453.12,-56.75 453.12,-77.5"/>
<text text-anchor="middle" x="416.25" y="-64" font-family="Helvetica,sans-Serif" font-size="10.00">iface_vlcb.c</text>
</a>
</g>
</g>
<!-- Node10&#45;&gt;Node11 -->
<g id="edge12_Node000010_Node000011" class="edge">
<title>Node10&#45;&gt;Node11</title>
<g id="a_edge12_Node000010_Node000011"><a xlink:title=" ">
<path fill="none" stroke="#63b8ff" d="M416.25,-101.63C416.25,-93.41 416.25,-84.43 416.25,-77.83"/>
<polygon fill="#63b8ff" stroke="#63b8ff" points="412.75,-101.57 416.25,-111.57 419.75,-101.57 412.75,-101.57"/>
</a>
</g>
</g>
<!-- Node12&#45;&gt;Node7 -->
<g id="edge14_Node000012_Node000007" class="edge">
<title>Node12&#45;&gt;Node7</title>
<g id="a_edge14_Node000012_Node000007"><a xlink:title=" ">
<path fill="none" stroke="#63b8ff" d="M601.08,-105.89C590.13,-96.66 576.98,-85.59 567.77,-77.83"/>
<polygon fill="#63b8ff" stroke="#63b8ff" points="598.57,-108.35 608.47,-112.11 603.08,-102.99 598.57,-108.35"/>
</a>
</g>
</g>
<!-- Node12&#45;&gt;Node9 -->
<g id="edge15_Node000012_Node000009" class="edge">
<title>Node12&#45;&gt;Node9</title>
<g id="a_edge15_Node000012_Node000009"><a xlink:title=" ">
<path fill="none" stroke="#63b8ff" d="M630.79,-102.78C634.84,-94.27 639.36,-84.74 642.64,-77.83"/>
<polygon fill="#63b8ff" stroke="#63b8ff" points="627.68,-101.18 626.55,-111.72 634,-104.19 627.68,-101.18"/>
</a>
</g>
</g>
<!-- Node14 -->
<g id="Node000014" class="node">
<title>Node14</title>
<g id="a_Node000014"><a xlink:href="module_8c.html" target="_top" xlink:title=" ">
<polygon fill="white" stroke="#666666" points="961.75,-20.75 900.75,-20.75 900.75,0 961.75,0 961.75,-20.75"/>
<text text-anchor="middle" x="931.25" y="-7.25" font-family="Helvetica,sans-Serif" font-size="10.00">module.c</text>
</a>
</g>
</g>
<!-- Node13&#45;&gt;Node14 -->
<g id="edge17_Node000013_Node000014" class="edge">
<title>Node13&#45;&gt;Node14</title>
<g id="a_edge17_Node000013_Node000014"><a xlink:title=" ">
<path fill="none" stroke="#63b8ff" d="M849.85,-107.25C829.73,-94.43 808.77,-75.4 821.25,-56.75 838.77,-30.57 874.45,-19.48 900.44,-14.79"/>
<polygon fill="#63b8ff" stroke="#63b8ff" points="847.83,-110.12 858.21,-112.25 851.42,-104.11 847.83,-110.12"/>
</a>
</g>
</g>
<!-- Node15 -->
<g id="Node000015" class="node">
<title>Node15</title>
<g id="a_Node000015"><a xlink:href="module_2src_2module_8h.html" target="_top" xlink:title=" ">
<polygon fill="white" stroke="#666666" points="774.12,-77.5 712.38,-77.5 712.38,-56.75 774.12,-56.75 774.12,-77.5"/>
<text text-anchor="middle" x="743.25" y="-64" font-family="Helvetica,sans-Serif" font-size="10.00">module.h</text>
</a>
</g>
</g>
<!-- Node13&#45;&gt;Node15 -->
<g id="edge18_Node000013_Node000015" class="edge">
<title>Node13&#45;&gt;Node15</title>
<g id="a_edge18_Node000013_Node000015"><a xlink:title=" ">
<path fill="none" stroke="#63b8ff" d="M844.43,-108.86C820.29,-99.14 788.75,-86.44 767.35,-77.83"/>
<polygon fill="#63b8ff" stroke="#63b8ff" points="842.95,-112.03 853.53,-112.52 845.56,-105.54 842.95,-112.03"/>
</a>
</g>
</g>
<!-- Node16 -->
<g id="Node000016" class="node">
<title>Node16</title>
<g id="a_Node000016"><a xlink:href="state__machine_8c.html" target="_top" xlink:title=" ">
<polygon fill="white" stroke="#666666" points="1104.38,-20.75 1008.12,-20.75 1008.12,0 1104.38,0 1104.38,-20.75"/>
<text text-anchor="middle" x="1056.25" y="-7.25" font-family="Helvetica,sans-Serif" font-size="10.00">state_machine.c</text>
</a>
</g>
</g>
<!-- Node13&#45;&gt;Node16 -->
<g id="edge20_Node000013_Node000016" class="edge">
<title>Node13&#45;&gt;Node16</title>
<g id="a_edge20_Node000013_Node000016"><a xlink:title=" ">
<path fill="none" stroke="#63b8ff" d="M904.23,-107.14C941.38,-83.74 1010.09,-40.45 1040.76,-21.13"/>
<polygon fill="#63b8ff" stroke="#63b8ff" points="902.52,-104.08 895.93,-112.37 906.26,-110 902.52,-104.08"/>
</a>
</g>
</g>
<!-- Node17 -->
<g id="Node000017" class="node">
<title>Node17</title>
<g id="a_Node000017"><a xlink:href="state__machine_8h.html" target="_top" xlink:title=" ">
<polygon fill="white" stroke="#666666" points="927.75,-77.5 830.75,-77.5 830.75,-56.75 927.75,-56.75 927.75,-77.5"/>
<text text-anchor="middle" x="879.25" y="-64" font-family="Helvetica,sans-Serif" font-size="10.00">state_machine.h</text>
</a>
</g>
</g>
<!-- Node13&#45;&gt;Node17 -->
<g id="edge21_Node000013_Node000017" class="edge">
<title>Node13&#45;&gt;Node17</title>
<g id="a_edge21_Node000013_Node000017"><a xlink:title=" ">
<path fill="none" stroke="#63b8ff" d="M879.25,-101.63C879.25,-93.41 879.25,-84.43 879.25,-77.83"/>
<polygon fill="#63b8ff" stroke="#63b8ff" points="875.75,-101.57 879.25,-111.57 882.75,-101.57 875.75,-101.57"/>
</a>
</g>
</g>
<!-- Node15&#45;&gt;Node14 -->
<g id="edge19_Node000015_Node000014" class="edge">
<title>Node15&#45;&gt;Node14</title>
<g id="a_edge19_Node000015_Node000014"><a xlink:title=" ">
<path fill="none" stroke="#63b8ff" d="M785.1,-53.94C820.04,-43.76 869.05,-29.49 900.47,-20.34"/>
<polygon fill="#63b8ff" stroke="#63b8ff" points="784.37,-50.5 775.75,-56.66 786.33,-57.23 784.37,-50.5"/>
</a>
</g>
</g>
<!-- Node17&#45;&gt;Node14 -->
<g id="edge22_Node000017_Node000014" class="edge">
<title>Node17&#45;&gt;Node14</title>
<g id="a_edge22_Node000017_Node000014"><a xlink:title=" ">
<path fill="none" stroke="#63b8ff" d="M896.45,-48.02C904.98,-39.03 914.96,-28.53 922.03,-21.08"/>
<polygon fill="#63b8ff" stroke="#63b8ff" points="893.94,-45.58 889.59,-55.24 899.01,-50.4 893.94,-45.58"/>
</a>
</g>
</g>
<!-- Node17&#45;&gt;Node16 -->
<g id="edge23_Node000017_Node000016" class="edge">
<title>Node17&#45;&gt;Node16</title>
<g id="a_edge23_Node000017_Node000016"><a xlink:title=" ">
<path fill="none" stroke="#63b8ff" d="M921.59,-53.03C953.25,-43.24 995.84,-30.06 1024.58,-21.17"/>
<polygon fill="#63b8ff" stroke="#63b8ff" points="920.86,-49.59 912.34,-55.89 922.93,-56.28 920.86,-49.59"/>
</a>
</g>
</g>
<!-- Node20 -->
<g id="Node000020" class="node">
<title>Node20</title>
<g id="a_Node000020"><a xlink:href="packet__parse_8c.html" target="_top" xlink:title=" ">
<polygon fill="white" stroke="#666666" points="333.62,-134.25 244.88,-134.25 244.88,-113.5 333.62,-113.5 333.62,-134.25"/>
<text text-anchor="middle" x="289.25" y="-120.75" font-family="Helvetica,sans-Serif" font-size="10.00">packet_parse.c</text>
</a>
</g>
</g>
<!-- Node19&#45;&gt;Node20 -->
<g id="edge28_Node000019_Node000020" class="edge">
<title>Node19&#45;&gt;Node20</title>
<g id="a_edge28_Node000019_Node000020"><a xlink:title=" ">
<path fill="none" stroke="#63b8ff" d="M289.25,-158.38C289.25,-150.16 289.25,-141.18 289.25,-134.58"/>
<polygon fill="#63b8ff" stroke="#63b8ff" points="285.75,-158.32 289.25,-168.32 292.75,-158.32 285.75,-158.32"/>
</a>
</g>
</g>
<!-- Node27&#45;&gt;Node5 -->
<g id="edge37_Node000027_Node000005" class="edge">
<title>Node27&#45;&gt;Node5</title>
<g id="a_edge37_Node000027_Node000005"><a xlink:title=" ">
<path fill="none" stroke="#63b8ff" d="M502.83,-272.46C500.23,-264.09 497.36,-254.83 495.26,-248.08"/>
<polygon fill="#63b8ff" stroke="#63b8ff" points="499.45,-273.38 505.76,-281.89 506.14,-271.3 499.45,-273.38"/>
</a>
</g>
</g>
<!-- Node28&#45;&gt;Node14 -->
<g id="edge50_Node000028_Node000014" class="edge">
<title>Node28&#45;&gt;Node14</title>
<g id="a_edge50_Node000028_Node000014"><a xlink:title=" ">
<path fill="none" stroke="#63b8ff" d="M1225.51,-218.25C1213.88,-204.43 1196.89,-185.28 1180.25,-170.25 1104.33,-101.68 995.52,-43.5 951.19,-21.16"/>
<polygon fill="#63b8ff" stroke="#63b8ff" points="1222.6,-220.22 1231.67,-225.68 1227.99,-215.75 1222.6,-220.22"/>
</a>
</g>
</g>
<!-- Node28&#45;&gt;Node16 -->
<g id="edge56_Node000028_Node000016" class="edge">
<title>Node28&#45;&gt;Node16</title>
<g id="a_edge56_Node000028_Node000016"><a xlink:title=" ">
<path fill="none" stroke="#63b8ff" d="M1288.01,-237.34C1360.5,-237 1486.01,-228.34 1447.25,-170.25 1369.78,-54.14 1191.09,-22.86 1104.73,-14.45"/>
<polygon fill="#63b8ff" stroke="#63b8ff" points="1288.38,-233.84 1278.38,-237.33 1288.37,-240.84 1288.38,-233.84"/>
</a>
</g>
</g>
<!-- Node28&#45;&gt;Node26 -->
<g id="edge49_Node000028_Node000026" class="edge">
<title>Node28&#45;&gt;Node26</title>
<g id="a_edge49_Node000028_Node000026"><a xlink:title=" ">
<path fill="none" stroke="#63b8ff" d="M1206.6,-222.09C1183.78,-212.41 1154.23,-199.87 1134.11,-191.33"/>
<polygon fill="#63b8ff" stroke="#63b8ff" points="1205.22,-225.31 1215.79,-226 1207.96,-218.87 1205.22,-225.31"/>
</a>
</g>
</g>
<!-- Node29 -->
<g id="Node000029" class="node">
<title>Node29</title>
<g id="a_Node000029"><a xlink:href="packet_2datagram_8c.html" target="_top" xlink:title=" ">
<polygon fill="white" stroke="#666666" points="1308,-191 1236.5,-191 1236.5,-170.25 1308,-170.25 1308,-191"/>
<text text-anchor="middle" x="1272.25" y="-177.5" font-family="Helvetica,sans-Serif" font-size="10.00">datagram.c</text>
</a>
</g>
</g>
<!-- Node28&#45;&gt;Node29 -->
<g id="edge40_Node000028_Node000029" class="edge">
<title>Node28&#45;&gt;Node29</title>
<g id="a_edge40_Node000028_Node000029"><a xlink:title=" ">
<path fill="none" stroke="#63b8ff" d="M1251.66,-216.85C1256.72,-208.2 1262.45,-198.39 1266.58,-191.33"/>
<polygon fill="#63b8ff" stroke="#63b8ff" points="1248.76,-214.88 1246.73,-225.28 1254.8,-218.41 1248.76,-214.88"/>
</a>
</g>
</g>
<!-- Node30 -->
<g id="Node000030" class="node">
<title>Node30</title>
<g id="a_Node000030"><a xlink:href="socket_2datagram_8c.html" target="_top" xlink:title=" ">
<polygon fill="white" stroke="#666666" points="1094,-134.25 1022.5,-134.25 1022.5,-113.5 1094,-113.5 1094,-134.25"/>
<text text-anchor="middle" x="1058.25" y="-120.75" font-family="Helvetica,sans-Serif" font-size="10.00">datagram.c</text>
</a>
</g>
</g>
<!-- Node28&#45;&gt;Node30 -->
<g id="edge41_Node000028_Node000030" class="edge">
<title>Node28&#45;&gt;Node30</title>
<g id="a_edge41_Node000028_Node000030"><a xlink:title=" ">
<path fill="none" stroke="#63b8ff" d="M1219.86,-219.52C1202.3,-205.43 1175.95,-185.27 1151.25,-170.25 1128.38,-156.34 1100.63,-143.25 1081.42,-134.74"/>
<polygon fill="#63b8ff" stroke="#63b8ff" points="1217.51,-222.12 1227.48,-225.7 1221.92,-216.68 1217.51,-222.12"/>
</a>
</g>
</g>
<!-- Node31 -->
<g id="Node000031" class="node">
<title>Node31</title>
<g id="a_Node000031"><a xlink:href="socket_2datagram_8h.html" target="_top" xlink:title=" ">
<polygon fill="white" stroke="#666666" points="948.38,-191 876.12,-191 876.12,-170.25 948.38,-170.25 948.38,-191"/>
<text text-anchor="middle" x="912.25" y="-177.5" font-family="Helvetica,sans-Serif" font-size="10.00">datagram.h</text>
</a>
</g>
</g>
<!-- Node28&#45;&gt;Node31 -->
<g id="edge42_Node000028_Node000031" class="edge">
<title>Node28&#45;&gt;Node31</title>
<g id="a_edge42_Node000028_Node000031"><a xlink:title=" ">
<path fill="none" stroke="#63b8ff" d="M1192.57,-228.42C1126.45,-217.38 1008.35,-197.67 948.77,-187.72"/>
<polygon fill="#63b8ff" stroke="#63b8ff" points="1191.96,-231.86 1202.4,-230.06 1193.11,-224.96 1191.96,-231.86"/>
</a>
</g>
</g>
<!-- Node32 -->
<g id="Node000032" class="node">
<title>Node32</title>
<g id="a_Node000032"><a xlink:href="net_2inc_2vlcb_2net_2packet_2datagram_2dcc_8h.html" target="_top" xlink:title=" ">
<polygon fill="white" stroke="#666666" points="1368,-191 1326.5,-191 1326.5,-170.25 1368,-170.25 1368,-191"/>
<text text-anchor="middle" x="1347.25" y="-177.5" font-family="Helvetica,sans-Serif" font-size="10.00">dcc.h</text>
</a>
</g>
</g>
<!-- Node28&#45;&gt;Node32 -->
<g id="edge47_Node000028_Node000032" class="edge">
<title>Node28&#45;&gt;Node32</title>
<g id="a_edge47_Node000028_Node000032"><a xlink:title=" ">
<path fill="none" stroke="#63b8ff" d="M1269.46,-221.43C1288.2,-211.84 1311.98,-199.67 1328.29,-191.33"/>
<polygon fill="#63b8ff" stroke="#63b8ff" points="1268.03,-218.23 1260.73,-225.9 1271.22,-224.46 1268.03,-218.23"/>
</a>
</g>
</g>
<!-- Node33 -->
<g id="Node000033" class="node">
<title>Node33</title>
<g id="a_Node000033"><a xlink:href="net_2inc_2vlcb_2net_2packet_2datagram_2event_8h.html" target="_top" xlink:title=" ">
<polygon fill="white" stroke="#666666" points="1438.62,-191 1385.88,-191 1385.88,-170.25 1438.62,-170.25 1438.62,-191"/>
<text text-anchor="middle" x="1412.25" y="-177.5" font-family="Helvetica,sans-Serif" font-size="10.00">event.h</text>
</a>
</g>
</g>
<!-- Node28&#45;&gt;Node33 -->
<g id="edge48_Node000028_Node000033" class="edge">
<title>Node28&#45;&gt;Node33</title>
<g id="a_edge48_Node000028_Node000033"><a xlink:title=" ">
<path fill="none" stroke="#63b8ff" d="M1281.87,-223.13C1314.08,-212.87 1357.72,-198.98 1385.44,-190.16"/>
<polygon fill="#63b8ff" stroke="#63b8ff" points="1280.91,-219.76 1272.44,-226.13 1283.03,-226.43 1280.91,-219.76"/>
</a>
</g>
</g>
<!-- Node34 -->
<g id="Node000034" class="node">
<title>Node34</title>
<g id="a_Node000034"><a xlink:href="net_2inc_2vlcb_2net_2packet_2datagram_2module_8h.html" target="_top" xlink:title=" ">
<polygon fill="white" stroke="#666666" points="1548.12,-77.5 1486.38,-77.5 1486.38,-56.75 1548.12,-56.75 1548.12,-77.5"/>
<text text-anchor="middle" x="1517.25" y="-64" font-family="Helvetica,sans-Serif" font-size="10.00">module.h</text>
</a>
</g>
</g>
<!-- Node28&#45;&gt;Node34 -->
<g id="edge51_Node000028_Node000034" class="edge">
<title>Node28&#45;&gt;Node34</title>
<g id="a_edge51_Node000028_Node000034"><a xlink:title=" ">
<path fill="none" stroke="#63b8ff" d="M1288.13,-233.13C1349.85,-228 1452.56,-215.91 1480.25,-191 1513.87,-160.75 1517.44,-101.21 1517.47,-77.85"/>
<polygon fill="#63b8ff" stroke="#63b8ff" points="1287.93,-229.64 1278.24,-233.92 1288.49,-236.62 1287.93,-229.64"/>
</a>
</g>
</g>
<!-- Node31&#45;&gt;Node13 -->
<g id="edge45_Node000031_Node000013" class="edge">
<title>Node31&#45;&gt;Node13</title>
<g id="a_edge45_Node000031_Node000013"><a xlink:title=" ">
<path fill="none" stroke="#63b8ff" d="M900.48,-160.1C895.27,-151.45 889.36,-141.64 885.1,-134.58"/>
<polygon fill="#63b8ff" stroke="#63b8ff" points="897.41,-161.78 905.57,-168.54 903.4,-158.17 897.41,-161.78"/>
</a>
</g>
</g>
<!-- Node31&#45;&gt;Node14 -->
<g id="edge44_Node000031_Node000014" class="edge">
<title>Node31&#45;&gt;Node14</title>
<g id="a_edge44_Node000031_Node000014"><a xlink:title=" ">
<path fill="none" stroke="#63b8ff" d="M918.55,-159.11C924.47,-138.66 932.92,-106.25 936.25,-77.5 937.31,-68.34 936.76,-65.96 936.25,-56.75 935.57,-44.41 933.86,-30.26 932.63,-21.09"/>
<polygon fill="#63b8ff" stroke="#63b8ff" points="915.27,-157.87 915.76,-168.45 921.97,-159.87 915.27,-157.87"/>
</a>
</g>
</g>
<!-- Node31&#45;&gt;Node16 -->
<g id="edge46_Node000031_Node000016" class="edge">
<title>Node31&#45;&gt;Node16</title>
<g id="a_edge46_Node000031_Node000016"><a xlink:title=" ">
<path fill="none" stroke="#63b8ff" d="M927.59,-161.7C957.86,-126.34 1024.34,-48.66 1047.83,-21.22"/>
<polygon fill="#63b8ff" stroke="#63b8ff" points="925.23,-159.07 921.39,-168.95 930.55,-163.63 925.23,-159.07"/>
</a>
</g>
</g>
<!-- Node31&#45;&gt;Node30 -->
<g id="edge43_Node000031_Node000030" class="edge">
<title>Node31&#45;&gt;Node30</title>
<g id="a_edge43_Node000031_Node000030"><a xlink:title=" ">
<path fill="none" stroke="#63b8ff" d="M948.94,-165.87C974.94,-156.12 1009.19,-143.27 1032.37,-134.58"/>
<polygon fill="#63b8ff" stroke="#63b8ff" points="947.9,-162.52 939.77,-169.31 950.36,-169.07 947.9,-162.52"/>
</a>
</g>
</g>
<!-- Node34&#45;&gt;Node14 -->
<g id="edge52_Node000034_Node000014" class="edge">
<title>Node34&#45;&gt;Node14</title>
<g id="a_edge52_Node000034_Node000014"><a xlink:title=" ">
<path fill="none" stroke="#63b8ff" d="M1474.51,-63.1C1385.8,-56.67 1175.28,-40.58 999.25,-20.75 987.05,-19.38 973.66,-17.59 962.01,-15.95"/>
<polygon fill="#63b8ff" stroke="#63b8ff" points="1474.22,-66.59 1484.45,-63.82 1474.73,-59.61 1474.22,-66.59"/>
</a>
</g>
</g>
<!-- Node34&#45;&gt;Node16 -->
<g id="edge55_Node000034_Node000016" class="edge">
<title>Node34&#45;&gt;Node16</title>
<g id="a_edge55_Node000034_Node000016"><a xlink:title=" ">
<path fill="none" stroke="#63b8ff" d="M1475.28,-57.25C1474.26,-57.07 1473.25,-56.91 1472.25,-56.75 1340.04,-35.82 1182.65,-21.51 1104.81,-15.14"/>
<polygon fill="#63b8ff" stroke="#63b8ff" points="1474.38,-60.64 1484.85,-59 1475.64,-53.75 1474.38,-60.64"/>
</a>
</g>
</g>
<!-- Node35 -->
<g id="Node000035" class="node">
<title>Node35</title>
<g id="a_Node000035"><a xlink:href="release__node__num__deserialize_8c.html" target="_top" xlink:title=" ">
<polygon fill="white" stroke="#666666" points="1510.75,-20.75 1335.75,-20.75 1335.75,0 1510.75,0 1510.75,-20.75"/>
<text text-anchor="middle" x="1423.25" y="-7.25" font-family="Helvetica,sans-Serif" font-size="10.00">release_node_num_deserialize.c</text>
</a>
</g>
</g>
<!-- Node34&#45;&gt;Node35 -->
<g id="edge53_Node000034_Node000035" class="edge">
<title>Node34&#45;&gt;Node35</title>
<g id="a_edge53_Node000034_Node000035"><a xlink:title=" ">
<path fill="none" stroke="#63b8ff" d="M1490.9,-50.78C1474.55,-41.25 1454.04,-29.31 1439.91,-21.08"/>
<polygon fill="#63b8ff" stroke="#63b8ff" points="1488.73,-53.57 1499.14,-55.58 1492.26,-47.52 1488.73,-53.57"/>
</a>
</g>
</g>
<!-- Node36 -->
<g id="Node000036" class="node">
<title>Node36</title>
<g id="a_Node000036"><a xlink:href="release__node__num__serialize_8c.html" target="_top" xlink:title=" ">
<polygon fill="white" stroke="#666666" points="1691.75,-20.75 1528.75,-20.75 1528.75,0 1691.75,0 1691.75,-20.75"/>
<text text-anchor="middle" x="1610.25" y="-7.25" font-family="Helvetica,sans-Serif" font-size="10.00">release_node_num_serialize.c</text>
</a>
</g>
</g>
<!-- Node34&#45;&gt;Node36 -->
<g id="edge54_Node000034_Node000036" class="edge">
<title>Node34&#45;&gt;Node36</title>
<g id="a_edge54_Node000034_Node000036"><a xlink:title=" ">
<path fill="none" stroke="#63b8ff" d="M1543.78,-50.51C1559.88,-41.03 1579.92,-29.23 1593.77,-21.08"/>
<polygon fill="#63b8ff" stroke="#63b8ff" points="1542.02,-47.48 1535.18,-55.57 1545.57,-53.51 1542.02,-47.48"/>
</a>
</g>
</g>
<!-- Node37&#45;&gt;Node9 -->
<g id="edge59_Node000037_Node000009" class="edge">
<title>Node37&#45;&gt;Node9</title>
<g id="a_edge59_Node000037_Node000009"><a xlink:title=" ">
<path fill="none" stroke="#63b8ff" d="M948.26,-283.4C891.83,-269.32 867.95,-281.5 825.25,-247.75 802.53,-229.79 800.6,-219.01 793.25,-191 786.78,-166.36 798.47,-159.57 801.25,-134.25 802.26,-125.08 806.77,-120.89 801.25,-113.5 794.03,-103.85 726.24,-86.52 683.04,-76.3"/>
<polygon fill="#63b8ff" stroke="#63b8ff" points="947.15,-286.73 957.72,-285.96 948.98,-279.97 947.15,-286.73"/>
</a>
</g>
</g>
<!-- Node37&#45;&gt;Node12 -->
<g id="edge60_Node000037_Node000012" class="edge">
<title>Node37&#45;&gt;Node12</title>
<g id="a_edge60_Node000037_Node000012"><a xlink:title=" ">
<path fill="none" stroke="#63b8ff" d="M948.04,-283.59C847.7,-263.11 813.08,-287.09 722.25,-247.75 684.54,-231.42 674.29,-223.58 649.25,-191 635.73,-173.41 627.47,-148.31 623.7,-134.65"/>
<polygon fill="#63b8ff" stroke="#63b8ff" points="947.28,-287.01 957.79,-285.69 948.75,-280.16 947.28,-287.01"/>
</a>
</g>
</g>
<!-- Node37&#45;&gt;Node30 -->
<g id="edge58_Node000037_Node000030" class="edge">
<title>Node37&#45;&gt;Node30</title>
<g id="a_edge58_Node000037_Node000030"><a xlink:title=" ">
<path fill="none" stroke="#63b8ff" d="M991.18,-273.36C1007.51,-237.21 1041.62,-161.7 1053.8,-134.72"/>
<polygon fill="#63b8ff" stroke="#63b8ff" points="988.1,-271.66 987.18,-282.22 994.48,-274.55 988.1,-271.66"/>
</a>
</g>
</g>
<!-- Node38 -->
<g id="Node000038" class="node">
<title>Node38</title>
<g id="a_Node000038"><a xlink:href="socket_8h.html" target="_top" xlink:title=" ">
<polygon fill="white" stroke="#666666" points="890.5,-247.75 834,-247.75 834,-227 890.5,-227 890.5,-247.75"/>
<text text-anchor="middle" x="862.25" y="-234.25" font-family="Helvetica,sans-Serif" font-size="10.00">socket.h</text>
</a>
</g>
</g>
<!-- Node37&#45;&gt;Node38 -->
<g id="edge61_Node000037_Node000038" class="edge">
<title>Node37&#45;&gt;Node38</title>
<g id="a_edge61_Node000037_Node000038"><a xlink:title=" ">
<path fill="none" stroke="#63b8ff" d="M950.37,-278.58C929.22,-268.93 902.06,-256.54 883.52,-248.08"/>
<polygon fill="#63b8ff" stroke="#63b8ff" points="948.87,-281.74 959.42,-282.71 951.77,-275.37 948.87,-281.74"/>
</a>
</g>
</g>
<!-- Node40 -->
<g id="Node000040" class="node">
<title>Node40</title>
<g id="a_Node000040"><a xlink:href="vlcb_8c.html" target="_top" xlink:title=" ">
<polygon fill="white" stroke="#666666" points="1092.5,-247.75 1048,-247.75 1048,-227 1092.5,-227 1092.5,-247.75"/>
<text text-anchor="middle" x="1070.25" y="-234.25" font-family="Helvetica,sans-Serif" font-size="10.00">vlcb.c</text>
</a>
</g>
</g>
<!-- Node37&#45;&gt;Node40 -->
<g id="edge69_Node000037_Node000040" class="edge">
<title>Node37&#45;&gt;Node40</title>
<g id="a_edge69_Node000037_Node000040"><a xlink:title=" ">
<path fill="none" stroke="#63b8ff" d="M1007.36,-277.51C1022.59,-268.03 1041.55,-256.23 1054.65,-248.08"/>
<polygon fill="#63b8ff" stroke="#63b8ff" points="1005.91,-274.28 999.27,-282.54 1009.61,-280.23 1005.91,-274.28"/>
</a>
</g>
</g>
<!-- Node38&#45;&gt;Node7 -->
<g id="edge64_Node000038_Node000007" class="edge">
<title>Node38&#45;&gt;Node7</title>
<g id="a_edge64_Node000038_Node000007"><a xlink:title=" ">
<path fill="none" stroke="#63b8ff" d="M822.39,-233.18C778.31,-228.47 706.02,-217.18 649.25,-191 611.61,-173.64 598.59,-168.5 575.25,-134.25 563.28,-116.68 558.77,-91.57 557.13,-77.91"/>
<polygon fill="#63b8ff" stroke="#63b8ff" points="821.96,-236.66 832.26,-234.17 822.66,-229.69 821.96,-236.66"/>
</a>
</g>
</g>
<!-- Node38&#45;&gt;Node8 -->
<g id="edge65_Node000038_Node000008" class="edge">
<title>Node38&#45;&gt;Node8</title>
<g id="a_edge65_Node000038_Node000008"><a xlink:title=" ">
<path fill="none" stroke="#63b8ff" d="M823.09,-224.4C788.06,-213.68 737.78,-198.3 708.02,-189.2"/>
<polygon fill="#63b8ff" stroke="#63b8ff" points="821.85,-227.68 832.44,-227.26 823.9,-220.99 821.85,-227.68"/>
</a>
</g>
</g>
<!-- Node38&#45;&gt;Node16 -->
<g id="edge68_Node000038_Node000016" class="edge">
<title>Node38&#45;&gt;Node16</title>
<g id="a_edge68_Node000038_Node000016"><a xlink:title=" ">
<path fill="none" stroke="#63b8ff" d="M901.45,-223.53C926.54,-215 959.64,-203.16 988.25,-191 1040.7,-168.7 1073.16,-182.65 1103.25,-134.25 1127.25,-95.65 1085.54,-42.81 1065.77,-21.2"/>
<polygon fill="#63b8ff" stroke="#63b8ff" points="900.67,-220.1 892.31,-226.61 902.91,-226.74 900.67,-220.1"/>
</a>
</g>
</g>
<!-- Node38&#45;&gt;Node18 -->
<g id="edge66_Node000038_Node000018" class="edge">
<title>Node38&#45;&gt;Node18</title>
<g id="a_edge66_Node000038_Node000018"><a xlink:title=" ">
<path fill="none" stroke="#63b8ff" d="M829.7,-221.13C816.77,-213.66 802.75,-203.53 793.25,-191 780.16,-173.72 775.09,-148.05 773.24,-134.33"/>
<polygon fill="#63b8ff" stroke="#63b8ff" points="827.93,-224.16 838.4,-225.84 831.27,-218 827.93,-224.16"/>
</a>
</g>
</g>
<!-- Node38&#45;&gt;Node30 -->
<g id="edge62_Node000038_Node000030" class="edge">
<title>Node38&#45;&gt;Node30</title>
<g id="a_edge62_Node000038_Node000030"><a xlink:title=" ">
<path fill="none" stroke="#63b8ff" d="M895.24,-221.94C913.77,-213.5 937.14,-202.32 957.25,-191 989.58,-172.81 1025.48,-148.16 1044.57,-134.68"/>
<polygon fill="#63b8ff" stroke="#63b8ff" points="894.01,-218.65 886.33,-225.95 896.88,-225.04 894.01,-218.65"/>
</a>
</g>
</g>
<!-- Node38&#45;&gt;Node31 -->
<g id="edge63_Node000038_Node000031" class="edge">
<title>Node38&#45;&gt;Node31</title>
<g id="a_edge63_Node000038_Node000031"><a xlink:title=" ">
<path fill="none" stroke="#63b8ff" d="M878.78,-218.27C886.99,-209.28 896.58,-198.78 903.39,-191.33"/>
<polygon fill="#63b8ff" stroke="#63b8ff" points="876.37,-215.72 872.21,-225.47 881.54,-220.45 876.37,-215.72"/>
</a>
</g>
</g>
<!-- Node39 -->
<g id="Node000039" class="node">
<title>Node39</title>
<g id="a_Node000039"><a xlink:href="socket_8c.html" target="_top" xlink:title=" ">
<polygon fill="white" stroke="#666666" points="858.12,-191 802.38,-191 802.38,-170.25 858.12,-170.25 858.12,-191"/>
<text text-anchor="middle" x="830.25" y="-177.5" font-family="Helvetica,sans-Serif" font-size="10.00">socket.c</text>
</a>
</g>
</g>
<!-- Node38&#45;&gt;Node39 -->
<g id="edge67_Node000038_Node000039" class="edge">
<title>Node38&#45;&gt;Node39</title>
<g id="a_edge67_Node000038_Node000039"><a xlink:title=" ">
<path fill="none" stroke="#63b8ff" d="M850.84,-216.85C845.78,-208.2 840.05,-198.39 835.92,-191.33"/>
<polygon fill="#63b8ff" stroke="#63b8ff" points="847.7,-218.41 855.77,-225.28 853.74,-214.88 847.7,-218.41"/>
</a>
</g>
</g>
</g>
</svg>
