<?xml version="1.0" encoding="UTF-8" standalone="no"?>
<!DOCTYPE svg PUBLIC "-//W3C//DTD SVG 1.1//EN"
 "http://www.w3.org/Graphics/SVG/1.1/DTD/svg11.dtd">
<!-- Generated by graphviz version 12.1.2 (20240928.0832)
 -->
<!-- Title: vlcb_net_packetbuf_PopDeferred Pages: 1 -->
<svg width="512pt" height="42pt"
 viewBox="0.00 0.00 511.50 41.50" xmlns="http://www.w3.org/2000/svg" xmlns:xlink="http://www.w3.org/1999/xlink">
<g id="graph0" class="graph" transform="scale(1 1) rotate(0) translate(4 37.5)">
<title>vlcb_net_packetbuf_PopDeferred</title>
<!-- Node1 -->
<g id="Node000001" class="node">
<title>Node1</title>
<g id="a_Node000001"><a xlink:title=" ">
<polygon fill="#999999" stroke="#666666" points="503.5,-33.5 393,-33.5 393,0 503.5,0 503.5,-33.5"/>
<text text-anchor="start" x="401" y="-20" font-family="Helvetica,sans-Serif" font-size="10.00">vlcb_net_packetbuf</text>
<text text-anchor="middle" x="448.25" y="-7.25" font-family="Helvetica,sans-Serif" font-size="10.00">_PopDeferred</text>
</a>
</g>
</g>
<!-- Node2 -->
<g id="Node000002" class="node">
<title>Node2</title>
<g id="a_Node000002"><a xlink:href="socket_2datagram_8c.html#a7078de64bfd986745f84ef33ea013ddd" target="_top" xlink:title=" ">
<polygon fill="white" stroke="#666666" points="357,-27.12 266.75,-27.12 266.75,-6.38 357,-6.38 357,-27.12"/>
<text text-anchor="middle" x="311.88" y="-13.62" font-family="Helvetica,sans-Serif" font-size="10.00">DispatchPacket</text>
</a>
</g>
</g>
<!-- Node1&#45;&gt;Node2 -->
<g id="edge1_Node000001_Node000002" class="edge">
<title>Node1&#45;&gt;Node2</title>
<g id="a_edge1_Node000001_Node000002"><a xlink:title=" ">
<path fill="none" stroke="#63b8ff" d="M381.17,-16.75C373.04,-16.75 364.89,-16.75 357.2,-16.75"/>
<polygon fill="#63b8ff" stroke="#63b8ff" points="381.08,-20.25 391.08,-16.75 381.08,-13.25 381.08,-20.25"/>
</a>
</g>
</g>
<!-- Node3 -->
<g id="Node000003" class="node">
<title>Node3</title>
<g id="a_Node000003"><a xlink:href="iface_8c.html#a671fece11b167dc248031f6928ed836b" target="_top" xlink:title=" ">
<polygon fill="white" stroke="#666666" points="230.75,-27.12 145.75,-27.12 145.75,-6.38 230.75,-6.38 230.75,-27.12"/>
<text text-anchor="middle" x="188.25" y="-13.62" font-family="Helvetica,sans-Serif" font-size="10.00">EgressPackets</text>
</a>
</g>
</g>
<!-- Node2&#45;&gt;Node3 -->
<g id="edge2_Node000002_Node000003" class="edge">
<title>Node2&#45;&gt;Node3</title>
<g id="a_edge2_Node000002_Node000003"><a xlink:title=" ">
<path fill="none" stroke="#63b8ff" d="M255,-16.75C246.93,-16.75 238.74,-16.75 231.01,-16.75"/>
<polygon fill="#63b8ff" stroke="#63b8ff" points="254.76,-20.25 264.76,-16.75 254.76,-13.25 254.76,-20.25"/>
</a>
</g>
</g>
<!-- Node4 -->
<g id="Node000004" class="node">
<title>Node4</title>
<g id="a_Node000004"><a xlink:href="iface_8c.html#ac759fac91807dd30f90627e4c7a6dce2" target="_top" xlink:title=" ">
<polygon fill="white" stroke="#666666" points="109.75,-27.12 0,-27.12 0,-6.38 109.75,-6.38 109.75,-27.12"/>
<text text-anchor="middle" x="54.88" y="-13.62" font-family="Helvetica,sans-Serif" font-size="10.00">vlcb_net_iface_Poll</text>
</a>
</g>
</g>
<!-- Node3&#45;&gt;Node4 -->
<g id="edge3_Node000003_Node000004" class="edge">
<title>Node3&#45;&gt;Node4</title>
<g id="a_edge3_Node000003_Node000004"><a xlink:title=" ">
<path fill="none" stroke="#63b8ff" d="M133.94,-16.75C126.01,-16.75 117.84,-16.75 109.9,-16.75"/>
<polygon fill="#63b8ff" stroke="#63b8ff" points="133.81,-20.25 143.81,-16.75 133.81,-13.25 133.81,-20.25"/>
</a>
</g>
</g>
</g>
</svg>
