<?xml version="1.0" encoding="UTF-8" standalone="no"?>
<!DOCTYPE svg PUBLIC "-//W3C//DTD SVG 1.1//EN"
 "http://www.w3.org/Graphics/SVG/1.1/DTD/svg11.dtd">
<!-- Generated by graphviz version 12.1.2 (20240928.0832)
 -->
<!-- Title: packet_parse.c Pages: 1 -->
<svg width="735pt" height="382pt"
 viewBox="0.00 0.00 735.08 382.00" xmlns="http://www.w3.org/2000/svg" xmlns:xlink="http://www.w3.org/1999/xlink">
<g id="graph0" class="graph" transform="scale(1 1) rotate(0) translate(4 378)">
<title>packet_parse.c</title>
<!-- Node1 -->
<g id="Node000001" class="node">
<title>Node1</title>
<g id="a_Node000001"><a xlink:title=" ">
<polygon fill="#999999" stroke="#666666" points="644.38,-374 555.62,-374 555.62,-353.25 644.38,-353.25 644.38,-374"/>
<text text-anchor="middle" x="600" y="-360.5" font-family="Helvetica,sans-Serif" font-size="10.00">packet_parse.c</text>
</a>
</g>
</g>
<!-- Node2 -->
<g id="Node000002" class="node">
<title>Node2</title>
<g id="a_Node000002"><a xlink:href="packet__parse_8h.html" target="_top" xlink:title=" ">
<polygon fill="white" stroke="#666666" points="414.88,-317.25 299.12,-317.25 299.12,-283.75 414.88,-283.75 414.88,-317.25"/>
<text text-anchor="start" x="307.12" y="-303.75" font-family="Helvetica,sans-Serif" font-size="10.00">vlcb/net/adapter/can</text>
<text text-anchor="middle" x="357" y="-291" font-family="Helvetica,sans-Serif" font-size="10.00">/packet_parse.h</text>
</a>
</g>
</g>
<!-- Node1&#45;&gt;Node2 -->
<g id="edge1_Node000001_Node000002" class="edge">
<title>Node1&#45;&gt;Node2</title>
<g id="a_edge1_Node000001_Node000002"><a xlink:title=" ">
<path fill="none" stroke="#63b8ff" d="M560.96,-352.8C524.67,-343.68 469.81,-329.88 426.12,-318.89"/>
<polygon fill="#63b8ff" stroke="#63b8ff" points="427.01,-315.5 416.46,-316.46 425.3,-322.29 427.01,-315.5"/>
</a>
</g>
</g>
<!-- Node6 -->
<g id="Node000006" class="node">
<title>Node6</title>
<g id="a_Node000006"><a xlink:title=" ">
<polygon fill="#e0e0e0" stroke="#999999" points="435.5,-77.5 374.5,-77.5 374.5,-56.75 435.5,-56.75 435.5,-77.5"/>
<text text-anchor="middle" x="405" y="-64" font-family="Helvetica,sans-Serif" font-size="10.00">stdbool.h</text>
</a>
</g>
</g>
<!-- Node1&#45;&gt;Node6 -->
<g id="edge23_Node000001_Node000006" class="edge">
<title>Node1&#45;&gt;Node6</title>
<g id="a_edge23_Node000001_Node000006"><a xlink:title=" ">
<path fill="none" stroke="#63b8ff" d="M644.71,-353.62C666.45,-347.03 691.21,-335.88 707,-317.25 730.31,-289.74 726,-274.43 726,-238.38 726,-238.38 726,-238.38 726,-179.62 726,-121.25 534.16,-86.49 447.09,-73.73"/>
<polygon fill="#63b8ff" stroke="#63b8ff" points="447.67,-70.27 437.28,-72.32 446.68,-77.2 447.67,-70.27"/>
</a>
</g>
</g>
<!-- Node15 -->
<g id="Node000015" class="node">
<title>Node15</title>
<g id="a_Node000015"><a xlink:title=" ">
<polygon fill="#e0e0e0" stroke="#999999" points="627.5,-310.88 572.5,-310.88 572.5,-290.12 627.5,-290.12 627.5,-310.88"/>
<text text-anchor="middle" x="600" y="-297.38" font-family="Helvetica,sans-Serif" font-size="10.00">assert.h</text>
</a>
</g>
</g>
<!-- Node1&#45;&gt;Node15 -->
<g id="edge22_Node000001_Node000015" class="edge">
<title>Node1&#45;&gt;Node15</title>
<g id="a_edge22_Node000001_Node000015"><a xlink:title=" ">
<path fill="none" stroke="#63b8ff" d="M600,-352.8C600,-344.65 600,-332.76 600,-322.48"/>
<polygon fill="#63b8ff" stroke="#63b8ff" points="603.5,-322.61 600,-312.61 596.5,-322.61 603.5,-322.61"/>
</a>
</g>
</g>
<!-- Node16 -->
<g id="Node000016" class="node">
<title>Node16</title>
<g id="a_Node000016"><a xlink:title=" ">
<polygon fill="#e0e0e0" stroke="#999999" points="698.38,-310.88 645.62,-310.88 645.62,-290.12 698.38,-290.12 698.38,-310.88"/>
<text text-anchor="middle" x="672" y="-297.38" font-family="Helvetica,sans-Serif" font-size="10.00">string.h</text>
</a>
</g>
</g>
<!-- Node1&#45;&gt;Node16 -->
<g id="edge24_Node000001_Node000016" class="edge">
<title>Node1&#45;&gt;Node16</title>
<g id="a_edge24_Node000001_Node000016"><a xlink:title=" ">
<path fill="none" stroke="#63b8ff" d="M611.57,-352.8C622.44,-343.57 638.95,-329.56 651.97,-318.51"/>
<polygon fill="#63b8ff" stroke="#63b8ff" points="654.19,-321.21 659.54,-312.07 649.66,-315.88 654.19,-321.21"/>
</a>
</g>
</g>
<!-- Node17 -->
<g id="Node000017" class="node">
<title>Node17</title>
<g id="a_Node000017"><a xlink:href="log_8h.html" target="_top" xlink:title=" ">
<polygon fill="white" stroke="#666666" points="646.12,-247.75 537.88,-247.75 537.88,-227 646.12,-227 646.12,-247.75"/>
<text text-anchor="middle" x="592" y="-234.25" font-family="Helvetica,sans-Serif" font-size="10.00">vlcb/platform/log.h</text>
</a>
</g>
</g>
<!-- Node1&#45;&gt;Node17 -->
<g id="edge25_Node000001_Node000017" class="edge">
<title>Node1&#45;&gt;Node17</title>
<g id="a_edge25_Node000001_Node000017"><a xlink:title=" ">
<path fill="none" stroke="#63b8ff" d="M589.15,-353.06C580.47,-344.62 568.96,-331.49 564,-317.25 559.1,-303.19 559.94,-298.07 564,-283.75 566.67,-274.34 571.91,-264.96 577.14,-257.2"/>
<polygon fill="#63b8ff" stroke="#63b8ff" points="579.85,-259.42 582.9,-249.28 574.19,-255.31 579.85,-259.42"/>
</a>
</g>
</g>
<!-- Node3 -->
<g id="Node000003" class="node">
<title>Node3</title>
<g id="a_Node000003"><a xlink:title=" ">
<polygon fill="#e0e0e0" stroke="#999999" points="150.38,-20.75 97.62,-20.75 97.62,0 150.38,0 150.38,-20.75"/>
<text text-anchor="middle" x="124" y="-7.25" font-family="Helvetica,sans-Serif" font-size="10.00">stdint.h</text>
</a>
</g>
</g>
<!-- Node2&#45;&gt;Node3 -->
<g id="edge2_Node000002_Node000003" class="edge">
<title>Node2&#45;&gt;Node3</title>
<g id="a_edge2_Node000002_Node000003"><a xlink:title=" ">
<path fill="none" stroke="#63b8ff" d="M298.85,-292.51C197.69,-278.71 0,-243.79 0,-181.62 0,-181.62 0,-181.62 0,-122.88 0,-75.45 50.78,-43.06 87.35,-25.88"/>
<polygon fill="#63b8ff" stroke="#63b8ff" points="88.63,-29.15 96.32,-21.86 85.76,-22.76 88.63,-29.15"/>
</a>
</g>
</g>
<!-- Node4 -->
<g id="Node000004" class="node">
<title>Node4</title>
<g id="a_Node000004"><a xlink:href="adapter_8h.html" target="_top" xlink:title=" ">
<polygon fill="white" stroke="#666666" points="396.88,-247.75 317.12,-247.75 317.12,-227 396.88,-227 396.88,-247.75"/>
<text text-anchor="middle" x="357" y="-234.25" font-family="Helvetica,sans-Serif" font-size="10.00">../../adapter.h</text>
</a>
</g>
</g>
<!-- Node2&#45;&gt;Node4 -->
<g id="edge3_Node000002_Node000004" class="edge">
<title>Node2&#45;&gt;Node4</title>
<g id="a_edge3_Node000002_Node000004"><a xlink:title=" ">
<path fill="none" stroke="#63b8ff" d="M357,-283.44C357,-276.1 357,-267.32 357,-259.46"/>
<polygon fill="#63b8ff" stroke="#63b8ff" points="360.5,-259.73 357,-249.73 353.5,-259.73 360.5,-259.73"/>
</a>
</g>
</g>
<!-- Node5 -->
<g id="Node000005" class="node">
<title>Node5</title>
<g id="a_Node000005"><a xlink:title=" ">
<polygon fill="#e0e0e0" stroke="#999999" points="229.38,-77.5 164.62,-77.5 164.62,-56.75 229.38,-56.75 229.38,-77.5"/>
<text text-anchor="middle" x="197" y="-64" font-family="Helvetica,sans-Serif" font-size="10.00">inttypes.h</text>
</a>
</g>
</g>
<!-- Node4&#45;&gt;Node5 -->
<g id="edge4_Node000004_Node000005" class="edge">
<title>Node4&#45;&gt;Node5</title>
<g id="a_edge4_Node000004_Node000005"><a xlink:title=" ">
<path fill="none" stroke="#63b8ff" d="M316.78,-228.47C293.19,-221.98 264.31,-210.55 245,-191 216.94,-162.58 204.83,-115.87 199.97,-88.96"/>
<polygon fill="#63b8ff" stroke="#63b8ff" points="203.46,-88.63 198.41,-79.32 196.55,-89.75 203.46,-88.63"/>
</a>
</g>
</g>
<!-- Node4&#45;&gt;Node6 -->
<g id="edge5_Node000004_Node000006" class="edge">
<title>Node4&#45;&gt;Node6</title>
<g id="a_edge5_Node000004_Node000006"><a xlink:title=" ">
<path fill="none" stroke="#63b8ff" d="M363.22,-226.67C368.67,-217.73 376.43,-203.94 381,-191 393.21,-156.45 399.75,-114.11 402.79,-89.23"/>
<polygon fill="#63b8ff" stroke="#63b8ff" points="406.25,-89.78 403.9,-79.44 399.29,-88.98 406.25,-89.78"/>
</a>
</g>
</g>
<!-- Node7 -->
<g id="Node000007" class="node">
<title>Node7</title>
<g id="a_Node000007"><a xlink:href="error_8h.html" target="_top" xlink:title=" ">
<polygon fill="white" stroke="#666666" points="697.88,-191 582.12,-191 582.12,-170.25 697.88,-170.25 697.88,-191"/>
<text text-anchor="middle" x="640" y="-177.5" font-family="Helvetica,sans-Serif" font-size="10.00">vlcb/platform/error.h</text>
</a>
</g>
</g>
<!-- Node4&#45;&gt;Node7 -->
<g id="edge6_Node000004_Node000007" class="edge">
<title>Node4&#45;&gt;Node7</title>
<g id="a_edge6_Node000004_Node000007"><a xlink:title=" ">
<path fill="none" stroke="#63b8ff" d="M397.25,-228.59C444.5,-219.45 523.4,-204.18 578.37,-193.55"/>
<polygon fill="#63b8ff" stroke="#63b8ff" points="578.73,-197.04 587.89,-191.71 577.41,-190.17 578.73,-197.04"/>
</a>
</g>
</g>
<!-- Node8 -->
<g id="Node000008" class="node">
<title>Node8</title>
<g id="a_Node000008"><a xlink:href="interface_8h.html" target="_top" xlink:title=" ">
<polygon fill="white" stroke="#666666" points="564.38,-191 427.62,-191 427.62,-170.25 564.38,-170.25 564.38,-191"/>
<text text-anchor="middle" x="496" y="-177.5" font-family="Helvetica,sans-Serif" font-size="10.00">vlcb/platform/interface.h</text>
</a>
</g>
</g>
<!-- Node4&#45;&gt;Node8 -->
<g id="edge7_Node000004_Node000008" class="edge">
<title>Node4&#45;&gt;Node8</title>
<g id="a_edge7_Node000004_Node000008"><a xlink:title=" ">
<path fill="none" stroke="#63b8ff" d="M381.85,-226.59C403.89,-217.91 436.32,-205.13 460.98,-195.42"/>
<polygon fill="#63b8ff" stroke="#63b8ff" points="461.93,-198.8 469.96,-191.88 459.37,-192.29 461.93,-198.8"/>
</a>
</g>
</g>
<!-- Node10 -->
<g id="Node000010" class="node">
<title>Node10</title>
<g id="a_Node000010"><a xlink:href="packet_8h.html" target="_top" xlink:title=" ">
<polygon fill="white" stroke="#666666" points="372,-191 254,-191 254,-170.25 372,-170.25 372,-191"/>
<text text-anchor="middle" x="313" y="-177.5" font-family="Helvetica,sans-Serif" font-size="10.00">adapter/can/packet.h</text>
</a>
</g>
</g>
<!-- Node4&#45;&gt;Node10 -->
<g id="edge9_Node000004_Node000010" class="edge">
<title>Node4&#45;&gt;Node10</title>
<g id="a_edge9_Node000004_Node000010"><a xlink:title=" ">
<path fill="none" stroke="#63b8ff" d="M349.13,-226.59C343.25,-219.27 335.03,-209.04 327.92,-200.19"/>
<polygon fill="#63b8ff" stroke="#63b8ff" points="330.74,-198.11 321.75,-192.51 325.28,-202.5 330.74,-198.11"/>
</a>
</g>
</g>
<!-- Node13 -->
<g id="Node000013" class="node">
<title>Node13</title>
<g id="a_Node000013"><a xlink:href="addr_8h.html" target="_top" xlink:title=" ">
<polygon fill="white" stroke="#666666" points="175,-191 87,-191 87,-170.25 175,-170.25 175,-191"/>
<text text-anchor="middle" x="131" y="-177.5" font-family="Helvetica,sans-Serif" font-size="10.00">vlcb/net/addr.h</text>
</a>
</g>
</g>
<!-- Node4&#45;&gt;Node13 -->
<g id="edge17_Node000004_Node000013" class="edge">
<title>Node4&#45;&gt;Node13</title>
<g id="a_edge17_Node000004_Node000013"><a xlink:title=" ">
<path fill="none" stroke="#63b8ff" d="M316.86,-226.65C279.41,-217.58 223.35,-204 182.59,-194.12"/>
<polygon fill="#63b8ff" stroke="#63b8ff" points="183.55,-190.75 173,-191.8 181.9,-197.56 183.55,-190.75"/>
</a>
</g>
</g>
<!-- Node9 -->
<g id="Node000009" class="node">
<title>Node9</title>
<g id="a_Node000009"><a xlink:title=" ">
<polygon fill="#e0e0e0" stroke="#999999" points="523.5,-134.25 468.5,-134.25 468.5,-113.5 523.5,-113.5 523.5,-134.25"/>
<text text-anchor="middle" x="496" y="-120.75" font-family="Helvetica,sans-Serif" font-size="10.00">stddef.h</text>
</a>
</g>
</g>
<!-- Node8&#45;&gt;Node9 -->
<g id="edge8_Node000008_Node000009" class="edge">
<title>Node8&#45;&gt;Node9</title>
<g id="a_edge8_Node000008_Node000009"><a xlink:title=" ">
<path fill="none" stroke="#63b8ff" d="M496,-169.84C496,-163.22 496,-154.22 496,-146.02"/>
<polygon fill="#63b8ff" stroke="#63b8ff" points="499.5,-146.09 496,-136.09 492.5,-146.09 499.5,-146.09"/>
</a>
</g>
</g>
<!-- Node10&#45;&gt;Node6 -->
<g id="edge10_Node000010_Node000006" class="edge">
<title>Node10&#45;&gt;Node6</title>
<g id="a_edge10_Node000010_Node000006"><a xlink:title=" ">
<path fill="none" stroke="#63b8ff" d="M323.79,-170.05C333.49,-161.2 347.87,-147.46 359,-134.25 371.64,-119.25 384.23,-100.84 393.04,-87.26"/>
<polygon fill="#63b8ff" stroke="#63b8ff" points="395.74,-89.54 398.16,-79.22 389.84,-85.77 395.74,-89.54"/>
</a>
</g>
</g>
<!-- Node11 -->
<g id="Node000011" class="node">
<title>Node11</title>
<g id="a_Node000011"><a xlink:href="common_2inc_2vlcb_2common_2can_8h.html" target="_top" xlink:title=" ">
<polygon fill="white" stroke="#666666" points="349.62,-134.25 238.38,-134.25 238.38,-113.5 349.62,-113.5 349.62,-134.25"/>
<text text-anchor="middle" x="294" y="-120.75" font-family="Helvetica,sans-Serif" font-size="10.00">vlcb/common/can.h</text>
</a>
</g>
</g>
<!-- Node10&#45;&gt;Node11 -->
<g id="edge11_Node000010_Node000011" class="edge">
<title>Node10&#45;&gt;Node11</title>
<g id="a_edge11_Node000010_Node000011"><a xlink:title=" ">
<path fill="none" stroke="#63b8ff" d="M309.6,-169.84C307.25,-163.06 304.04,-153.8 301.14,-145.44"/>
<polygon fill="#63b8ff" stroke="#63b8ff" points="304.45,-144.31 297.86,-136.01 297.84,-146.6 304.45,-144.31"/>
</a>
</g>
</g>
<!-- Node11&#45;&gt;Node3 -->
<g id="edge14_Node000011_Node000003" class="edge">
<title>Node11&#45;&gt;Node3</title>
<g id="a_edge14_Node000011_Node000003"><a xlink:title=" ">
<path fill="none" stroke="#63b8ff" d="M287.94,-113.03C278.74,-98.83 259.98,-72.56 238,-56.75 214.96,-40.18 185.04,-28.57 161.63,-21.24"/>
<polygon fill="#63b8ff" stroke="#63b8ff" points="162.75,-17.93 152.17,-18.42 160.75,-24.64 162.75,-17.93"/>
</a>
</g>
</g>
<!-- Node11&#45;&gt;Node5 -->
<g id="edge12_Node000011_Node000005" class="edge">
<title>Node11&#45;&gt;Node5</title>
<g id="a_edge12_Node000011_Node000005"><a xlink:title=" ">
<path fill="none" stroke="#63b8ff" d="M276.66,-113.09C262.04,-104.83 240.86,-92.88 224.02,-83.38"/>
<polygon fill="#63b8ff" stroke="#63b8ff" points="225.94,-80.44 215.51,-78.57 222.5,-86.54 225.94,-80.44"/>
</a>
</g>
</g>
<!-- Node11&#45;&gt;Node6 -->
<g id="edge13_Node000011_Node000006" class="edge">
<title>Node11&#45;&gt;Node6</title>
<g id="a_edge13_Node000011_Node000006"><a xlink:title=" ">
<path fill="none" stroke="#63b8ff" d="M313.84,-113.09C330.89,-104.68 355.72,-92.43 375.16,-82.84"/>
<polygon fill="#63b8ff" stroke="#63b8ff" points="376.55,-86.06 383.97,-78.5 373.45,-79.78 376.55,-86.06"/>
</a>
</g>
</g>
<!-- Node12 -->
<g id="Node000012" class="node">
<title>Node12</title>
<g id="a_Node000012"><a xlink:href="opcode_8h.html" target="_top" xlink:title=" ">
<polygon fill="white" stroke="#666666" points="345.12,-77.5 284.88,-77.5 284.88,-56.75 345.12,-56.75 345.12,-77.5"/>
<text text-anchor="middle" x="315" y="-64" font-family="Helvetica,sans-Serif" font-size="10.00">opcode.h</text>
</a>
</g>
</g>
<!-- Node11&#45;&gt;Node12 -->
<g id="edge15_Node000011_Node000012" class="edge">
<title>Node11&#45;&gt;Node12</title>
<g id="a_edge15_Node000011_Node000012"><a xlink:title=" ">
<path fill="none" stroke="#63b8ff" d="M297.75,-113.09C300.38,-106.24 303.99,-96.84 307.22,-88.4"/>
<polygon fill="#63b8ff" stroke="#63b8ff" points="310.42,-89.83 310.74,-79.24 303.89,-87.32 310.42,-89.83"/>
</a>
</g>
</g>
<!-- Node12&#45;&gt;Node3 -->
<g id="edge16_Node000012_Node000003" class="edge">
<title>Node12&#45;&gt;Node3</title>
<g id="a_edge16_Node000012_Node000003"><a xlink:title=" ">
<path fill="none" stroke="#63b8ff" d="M284.74,-57.45C251.42,-47.9 197.81,-32.53 161.77,-22.2"/>
<polygon fill="#63b8ff" stroke="#63b8ff" points="162.77,-18.85 152.19,-19.46 160.84,-25.58 162.77,-18.85"/>
</a>
</g>
</g>
<!-- Node13&#45;&gt;Node3 -->
<g id="edge21_Node000013_Node000003" class="edge">
<title>Node13&#45;&gt;Node3</title>
<g id="a_edge21_Node000013_Node000003"><a xlink:title=" ">
<path fill="none" stroke="#63b8ff" d="M101.82,-169.89C85.5,-162.78 66.57,-151.34 57,-134.25 35.89,-96.54 76.47,-51.9 103.2,-28.18"/>
<polygon fill="#63b8ff" stroke="#63b8ff" points="105.15,-31.12 110.47,-21.96 100.6,-25.8 105.15,-31.12"/>
</a>
</g>
</g>
<!-- Node13&#45;&gt;Node11 -->
<g id="edge18_Node000013_Node000011" class="edge">
<title>Node13&#45;&gt;Node11</title>
<g id="a_edge18_Node000013_Node000011"><a xlink:title=" ">
<path fill="none" stroke="#63b8ff" d="M160.14,-169.84C186.37,-161.03 225.14,-148 254.21,-138.24"/>
<polygon fill="#63b8ff" stroke="#63b8ff" points="255.04,-141.65 263.4,-135.15 252.81,-135.02 255.04,-141.65"/>
</a>
</g>
</g>
<!-- Node14 -->
<g id="Node000014" class="node">
<title>Node14</title>
<g id="a_Node000014"><a xlink:href="time_8h.html" target="_top" xlink:title=" ">
<polygon fill="white" stroke="#666666" points="181.88,-134.25 66.12,-134.25 66.12,-113.5 181.88,-113.5 181.88,-134.25"/>
<text text-anchor="middle" x="124" y="-120.75" font-family="Helvetica,sans-Serif" font-size="10.00">vlcb/platform/time.h</text>
</a>
</g>
</g>
<!-- Node13&#45;&gt;Node14 -->
<g id="edge19_Node000013_Node000014" class="edge">
<title>Node13&#45;&gt;Node14</title>
<g id="a_edge19_Node000013_Node000014"><a xlink:title=" ">
<path fill="none" stroke="#63b8ff" d="M129.75,-169.84C128.89,-163.14 127.73,-154.01 126.67,-145.73"/>
<polygon fill="#63b8ff" stroke="#63b8ff" points="130.17,-145.56 125.43,-136.08 123.23,-146.44 130.17,-145.56"/>
</a>
</g>
</g>
<!-- Node14&#45;&gt;Node3 -->
<g id="edge20_Node000014_Node000003" class="edge">
<title>Node14&#45;&gt;Node3</title>
<g id="a_edge20_Node000014_Node000003"><a xlink:title=" ">
<path fill="none" stroke="#63b8ff" d="M124,-113.37C124,-95.6 124,-56.97 124,-32.68"/>
<polygon fill="#63b8ff" stroke="#63b8ff" points="127.5,-32.69 124,-22.69 120.5,-32.69 127.5,-32.69"/>
</a>
</g>
</g>
<!-- Node17&#45;&gt;Node7 -->
<g id="edge26_Node000017_Node000007" class="edge">
<title>Node17&#45;&gt;Node7</title>
<g id="a_edge26_Node000017_Node000007"><a xlink:title=" ">
<path fill="none" stroke="#63b8ff" d="M600.58,-226.59C607.07,-219.19 616.15,-208.82 623.97,-199.91"/>
<polygon fill="#63b8ff" stroke="#63b8ff" points="626.53,-202.29 630.5,-192.47 621.27,-197.68 626.53,-202.29"/>
</a>
</g>
</g>
</g>
</svg>
