<?xml version="1.0" encoding="UTF-8" standalone="no"?>
<!DOCTYPE svg PUBLIC "-//W3C//DTD SVG 1.1//EN"
 "http://www.w3.org/Graphics/SVG/1.1/DTD/svg11.dtd">
<!-- Generated by graphviz version 12.1.2 (20240928.0832)
 -->
<!-- Title: packet_parse.c Pages: 1 -->
<svg width="653pt" height="382pt"
 viewBox="0.00 0.00 653.34 382.00" xmlns="http://www.w3.org/2000/svg" xmlns:xlink="http://www.w3.org/1999/xlink">
<g id="graph0" class="graph" transform="scale(1 1) rotate(0) translate(4 378)">
<title>packet_parse.c</title>
<!-- Node1 -->
<g id="Node000001" class="node">
<title>Node1</title>
<g id="a_Node000001"><a xlink:title=" ">
<polygon fill="#999999" stroke="#666666" points="562.63,-374 473.88,-374 473.88,-353.25 562.63,-353.25 562.63,-374"/>
<text text-anchor="middle" x="518.26" y="-360.5" font-family="Helvetica,sans-Serif" font-size="10.00">packet_parse.c</text>
</a>
</g>
</g>
<!-- Node2 -->
<g id="Node000002" class="node">
<title>Node2</title>
<g id="a_Node000002"><a xlink:href="packet__parse_8h.html" target="_top" xlink:title=" ">
<polygon fill="white" stroke="#666666" points="333.13,-317.25 217.38,-317.25 217.38,-283.75 333.13,-283.75 333.13,-317.25"/>
<text text-anchor="start" x="225.38" y="-303.75" font-family="Helvetica,sans-Serif" font-size="10.00">vlcb/net/adapter/can</text>
<text text-anchor="middle" x="275.26" y="-291" font-family="Helvetica,sans-Serif" font-size="10.00">/packet_parse.h</text>
</a>
</g>
</g>
<!-- Node1&#45;&gt;Node2 -->
<g id="edge1_Node000001_Node000002" class="edge">
<title>Node1&#45;&gt;Node2</title>
<g id="a_edge1_Node000001_Node000002"><a xlink:title=" ">
<path fill="none" stroke="#63b8ff" d="M479.21,-352.8C442.93,-343.68 388.07,-329.88 344.38,-318.89"/>
<polygon fill="#63b8ff" stroke="#63b8ff" points="345.26,-315.5 334.71,-316.46 343.56,-322.29 345.26,-315.5"/>
</a>
</g>
</g>
<!-- Node6 -->
<g id="Node000006" class="node">
<title>Node6</title>
<g id="a_Node000006"><a xlink:title=" ">
<polygon fill="#e0e0e0" stroke="#999999" points="323.76,-77.5 262.76,-77.5 262.76,-56.75 323.76,-56.75 323.76,-77.5"/>
<text text-anchor="middle" x="293.26" y="-64" font-family="Helvetica,sans-Serif" font-size="10.00">stdbool.h</text>
</a>
</g>
</g>
<!-- Node1&#45;&gt;Node6 -->
<g id="edge20_Node000001_Node000006" class="edge">
<title>Node1&#45;&gt;Node6</title>
<g id="a_edge20_Node000001_Node000006"><a xlink:title=" ">
<path fill="none" stroke="#63b8ff" d="M562.97,-353.62C584.7,-347.03 609.47,-335.88 625.26,-317.25 648.57,-289.74 644.26,-274.43 644.26,-238.38 644.26,-238.38 644.26,-238.38 644.26,-179.62 644.26,-115.47 428.59,-83.38 335.36,-72.51"/>
<polygon fill="#63b8ff" stroke="#63b8ff" points="335.93,-69.05 325.6,-71.4 335.14,-76.01 335.93,-69.05"/>
</a>
</g>
</g>
<!-- Node14 -->
<g id="Node000014" class="node">
<title>Node14</title>
<g id="a_Node000014"><a xlink:title=" ">
<polygon fill="#e0e0e0" stroke="#999999" points="545.76,-310.88 490.76,-310.88 490.76,-290.12 545.76,-290.12 545.76,-310.88"/>
<text text-anchor="middle" x="518.26" y="-297.38" font-family="Helvetica,sans-Serif" font-size="10.00">assert.h</text>
</a>
</g>
</g>
<!-- Node1&#45;&gt;Node14 -->
<g id="edge19_Node000001_Node000014" class="edge">
<title>Node1&#45;&gt;Node14</title>
<g id="a_edge19_Node000001_Node000014"><a xlink:title=" ">
<path fill="none" stroke="#63b8ff" d="M518.26,-352.8C518.26,-344.65 518.26,-332.76 518.26,-322.48"/>
<polygon fill="#63b8ff" stroke="#63b8ff" points="521.76,-322.61 518.26,-312.61 514.76,-322.61 521.76,-322.61"/>
</a>
</g>
</g>
<!-- Node15 -->
<g id="Node000015" class="node">
<title>Node15</title>
<g id="a_Node000015"><a xlink:title=" ">
<polygon fill="#e0e0e0" stroke="#999999" points="616.63,-310.88 563.88,-310.88 563.88,-290.12 616.63,-290.12 616.63,-310.88"/>
<text text-anchor="middle" x="590.26" y="-297.38" font-family="Helvetica,sans-Serif" font-size="10.00">string.h</text>
</a>
</g>
</g>
<!-- Node1&#45;&gt;Node15 -->
<g id="edge21_Node000001_Node000015" class="edge">
<title>Node1&#45;&gt;Node15</title>
<g id="a_edge21_Node000001_Node000015"><a xlink:title=" ">
<path fill="none" stroke="#63b8ff" d="M529.83,-352.8C540.7,-343.57 557.21,-329.56 570.23,-318.51"/>
<polygon fill="#63b8ff" stroke="#63b8ff" points="572.44,-321.21 577.8,-312.07 567.91,-315.88 572.44,-321.21"/>
</a>
</g>
</g>
<!-- Node16 -->
<g id="Node000016" class="node">
<title>Node16</title>
<g id="a_Node000016"><a xlink:href="log_8h.html" target="_top" xlink:title=" ">
<polygon fill="white" stroke="#666666" points="564.38,-247.75 456.13,-247.75 456.13,-227 564.38,-227 564.38,-247.75"/>
<text text-anchor="middle" x="510.26" y="-234.25" font-family="Helvetica,sans-Serif" font-size="10.00">vlcb/platform/log.h</text>
</a>
</g>
</g>
<!-- Node1&#45;&gt;Node16 -->
<g id="edge22_Node000001_Node000016" class="edge">
<title>Node1&#45;&gt;Node16</title>
<g id="a_edge22_Node000001_Node000016"><a xlink:title=" ">
<path fill="none" stroke="#63b8ff" d="M507.41,-353.06C498.73,-344.62 487.22,-331.49 482.26,-317.25 477.36,-303.19 478.19,-298.07 482.26,-283.75 484.93,-274.34 490.17,-264.96 495.4,-257.2"/>
<polygon fill="#63b8ff" stroke="#63b8ff" points="498.11,-259.42 501.16,-249.28 492.45,-255.31 498.11,-259.42"/>
</a>
</g>
</g>
<!-- Node3 -->
<g id="Node000003" class="node">
<title>Node3</title>
<g id="a_Node000003"><a xlink:title=" ">
<polygon fill="#e0e0e0" stroke="#999999" points="146.63,-20.75 93.88,-20.75 93.88,0 146.63,0 146.63,-20.75"/>
<text text-anchor="middle" x="120.26" y="-7.25" font-family="Helvetica,sans-Serif" font-size="10.00">stdint.h</text>
</a>
</g>
</g>
<!-- Node2&#45;&gt;Node3 -->
<g id="edge2_Node000002_Node000003" class="edge">
<title>Node2&#45;&gt;Node3</title>
<g id="a_edge2_Node000002_Node000003"><a xlink:title=" ">
<path fill="none" stroke="#63b8ff" d="M216.94,-299.22C136.21,-295.42 0.26,-275.12 0.26,-181.62 0.26,-181.62 0.26,-181.62 0.26,-122.88 0.26,-92.3 -0.77,-79.86 19.26,-56.75 35.59,-37.91 61.29,-26.52 82.68,-19.86"/>
<polygon fill="#63b8ff" stroke="#63b8ff" points="83.61,-23.23 92.26,-17.12 81.69,-16.5 83.61,-23.23"/>
</a>
</g>
</g>
<!-- Node4 -->
<g id="Node000004" class="node">
<title>Node4</title>
<g id="a_Node000004"><a xlink:href="adapter_8h.html" target="_top" xlink:title=" ">
<polygon fill="white" stroke="#666666" points="315.13,-247.75 235.38,-247.75 235.38,-227 315.13,-227 315.13,-247.75"/>
<text text-anchor="middle" x="275.26" y="-234.25" font-family="Helvetica,sans-Serif" font-size="10.00">../../adapter.h</text>
</a>
</g>
</g>
<!-- Node2&#45;&gt;Node4 -->
<g id="edge3_Node000002_Node000004" class="edge">
<title>Node2&#45;&gt;Node4</title>
<g id="a_edge3_Node000002_Node000004"><a xlink:title=" ">
<path fill="none" stroke="#63b8ff" d="M275.26,-283.44C275.26,-276.1 275.26,-267.32 275.26,-259.46"/>
<polygon fill="#63b8ff" stroke="#63b8ff" points="278.76,-259.73 275.26,-249.73 271.76,-259.73 278.76,-259.73"/>
</a>
</g>
</g>
<!-- Node5 -->
<g id="Node000005" class="node">
<title>Node5</title>
<g id="a_Node000005"><a xlink:title=" ">
<polygon fill="#e0e0e0" stroke="#999999" points="92.63,-77.5 27.88,-77.5 27.88,-56.75 92.63,-56.75 92.63,-77.5"/>
<text text-anchor="middle" x="60.26" y="-64" font-family="Helvetica,sans-Serif" font-size="10.00">inttypes.h</text>
</a>
</g>
</g>
<!-- Node4&#45;&gt;Node5 -->
<g id="edge4_Node000004_Node000005" class="edge">
<title>Node4&#45;&gt;Node5</title>
<g id="a_edge4_Node000004_Node000005"><a xlink:title=" ">
<path fill="none" stroke="#63b8ff" d="M235.3,-233.93C178.62,-229.52 79.27,-218.07 57.26,-191 33.67,-162 43.77,-115.16 52.5,-88.46"/>
<polygon fill="#63b8ff" stroke="#63b8ff" points="55.74,-89.78 55.78,-79.18 49.14,-87.44 55.74,-89.78"/>
</a>
</g>
</g>
<!-- Node4&#45;&gt;Node6 -->
<g id="edge5_Node000004_Node000006" class="edge">
<title>Node4&#45;&gt;Node6</title>
<g id="a_edge5_Node000004_Node000006"><a xlink:title=" ">
<path fill="none" stroke="#63b8ff" d="M282.31,-226.5C288.15,-217.68 295.99,-204.15 299.26,-191 307.93,-156.05 302.58,-113.84 297.91,-89.09"/>
<polygon fill="#63b8ff" stroke="#63b8ff" points="301.35,-88.44 295.91,-79.35 294.49,-89.85 301.35,-88.44"/>
</a>
</g>
</g>
<!-- Node7 -->
<g id="Node000007" class="node">
<title>Node7</title>
<g id="a_Node000007"><a xlink:href="error_8h.html" target="_top" xlink:title=" ">
<polygon fill="white" stroke="#666666" points="616.13,-191 500.38,-191 500.38,-170.25 616.13,-170.25 616.13,-191"/>
<text text-anchor="middle" x="558.26" y="-177.5" font-family="Helvetica,sans-Serif" font-size="10.00">vlcb/platform/error.h</text>
</a>
</g>
</g>
<!-- Node4&#45;&gt;Node7 -->
<g id="edge6_Node000004_Node000007" class="edge">
<title>Node4&#45;&gt;Node7</title>
<g id="a_edge6_Node000004_Node000007"><a xlink:title=" ">
<path fill="none" stroke="#63b8ff" d="M315.5,-228.59C362.76,-219.45 441.65,-204.18 496.63,-193.55"/>
<polygon fill="#63b8ff" stroke="#63b8ff" points="496.99,-197.04 506.15,-191.71 495.66,-190.17 496.99,-197.04"/>
</a>
</g>
</g>
<!-- Node8 -->
<g id="Node000008" class="node">
<title>Node8</title>
<g id="a_Node000008"><a xlink:href="interface_8h.html" target="_top" xlink:title=" ">
<polygon fill="white" stroke="#666666" points="482.63,-191 345.88,-191 345.88,-170.25 482.63,-170.25 482.63,-191"/>
<text text-anchor="middle" x="414.26" y="-177.5" font-family="Helvetica,sans-Serif" font-size="10.00">vlcb/platform/interface.h</text>
</a>
</g>
</g>
<!-- Node4&#45;&gt;Node8 -->
<g id="edge7_Node000004_Node000008" class="edge">
<title>Node4&#45;&gt;Node8</title>
<g id="a_edge7_Node000004_Node000008"><a xlink:title=" ">
<path fill="none" stroke="#63b8ff" d="M300.11,-226.59C322.15,-217.91 354.57,-205.13 379.24,-195.42"/>
<polygon fill="#63b8ff" stroke="#63b8ff" points="380.19,-198.8 388.21,-191.88 377.63,-192.29 380.19,-198.8"/>
</a>
</g>
</g>
<!-- Node10 -->
<g id="Node000010" class="node">
<title>Node10</title>
<g id="a_Node000010"><a xlink:href="packet_8h.html" target="_top" xlink:title=" ">
<polygon fill="white" stroke="#666666" points="290.26,-191 172.26,-191 172.26,-170.25 290.26,-170.25 290.26,-191"/>
<text text-anchor="middle" x="231.26" y="-177.5" font-family="Helvetica,sans-Serif" font-size="10.00">adapter/can/packet.h</text>
</a>
</g>
</g>
<!-- Node4&#45;&gt;Node10 -->
<g id="edge9_Node000004_Node000010" class="edge">
<title>Node4&#45;&gt;Node10</title>
<g id="a_edge9_Node000004_Node000010"><a xlink:title=" ">
<path fill="none" stroke="#63b8ff" d="M267.39,-226.59C261.51,-219.27 253.29,-209.04 246.18,-200.19"/>
<polygon fill="#63b8ff" stroke="#63b8ff" points="249,-198.11 240,-192.51 243.54,-202.5 249,-198.11"/>
</a>
</g>
</g>
<!-- Node13 -->
<g id="Node000013" class="node">
<title>Node13</title>
<g id="a_Node000013"><a xlink:href="addr_8h.html" target="_top" xlink:title=" ">
<polygon fill="white" stroke="#666666" points="154.26,-191 66.26,-191 66.26,-170.25 154.26,-170.25 154.26,-191"/>
<text text-anchor="middle" x="110.26" y="-177.5" font-family="Helvetica,sans-Serif" font-size="10.00">vlcb/net/addr.h</text>
</a>
</g>
</g>
<!-- Node4&#45;&gt;Node13 -->
<g id="edge17_Node000004_Node000013" class="edge">
<title>Node4&#45;&gt;Node13</title>
<g id="a_edge17_Node000004_Node000013"><a xlink:title=" ">
<path fill="none" stroke="#63b8ff" d="M245.76,-226.59C219.21,-217.78 179.96,-204.75 150.53,-194.99"/>
<polygon fill="#63b8ff" stroke="#63b8ff" points="151.81,-191.72 141.21,-191.9 149.6,-198.37 151.81,-191.72"/>
</a>
</g>
</g>
<!-- Node9 -->
<g id="Node000009" class="node">
<title>Node9</title>
<g id="a_Node000009"><a xlink:title=" ">
<polygon fill="#e0e0e0" stroke="#999999" points="441.76,-134.25 386.76,-134.25 386.76,-113.5 441.76,-113.5 441.76,-134.25"/>
<text text-anchor="middle" x="414.26" y="-120.75" font-family="Helvetica,sans-Serif" font-size="10.00">stddef.h</text>
</a>
</g>
</g>
<!-- Node8&#45;&gt;Node9 -->
<g id="edge8_Node000008_Node000009" class="edge">
<title>Node8&#45;&gt;Node9</title>
<g id="a_edge8_Node000008_Node000009"><a xlink:title=" ">
<path fill="none" stroke="#63b8ff" d="M414.26,-169.84C414.26,-163.22 414.26,-154.22 414.26,-146.02"/>
<polygon fill="#63b8ff" stroke="#63b8ff" points="417.76,-146.09 414.26,-136.09 410.76,-146.09 417.76,-146.09"/>
</a>
</g>
</g>
<!-- Node10&#45;&gt;Node6 -->
<g id="edge10_Node000010_Node000006" class="edge">
<title>Node10&#45;&gt;Node6</title>
<g id="a_edge10_Node000010_Node000006"><a xlink:title=" ">
<path fill="none" stroke="#63b8ff" d="M236.54,-170.12C246.65,-151.94 268.9,-111.92 282.33,-87.77"/>
<polygon fill="#63b8ff" stroke="#63b8ff" points="285.27,-89.69 287.07,-79.25 279.15,-86.29 285.27,-89.69"/>
</a>
</g>
</g>
<!-- Node11 -->
<g id="Node000011" class="node">
<title>Node11</title>
<g id="a_Node000011"><a xlink:href="common_2inc_2vlcb_2common_2can_8h.html" target="_top" xlink:title=" ">
<polygon fill="white" stroke="#666666" points="214.88,-134.25 103.63,-134.25 103.63,-113.5 214.88,-113.5 214.88,-134.25"/>
<text text-anchor="middle" x="159.26" y="-120.75" font-family="Helvetica,sans-Serif" font-size="10.00">vlcb/common/can.h</text>
</a>
</g>
</g>
<!-- Node10&#45;&gt;Node11 -->
<g id="edge11_Node000010_Node000011" class="edge">
<title>Node10&#45;&gt;Node11</title>
<g id="a_edge11_Node000010_Node000011"><a xlink:title=" ">
<path fill="none" stroke="#63b8ff" d="M218.38,-169.84C208.04,-161.97 193.29,-150.75 181.1,-141.49"/>
<polygon fill="#63b8ff" stroke="#63b8ff" points="183.3,-138.76 173.22,-135.49 179.06,-144.33 183.3,-138.76"/>
</a>
</g>
</g>
<!-- Node11&#45;&gt;Node3 -->
<g id="edge14_Node000011_Node000003" class="edge">
<title>Node11&#45;&gt;Node3</title>
<g id="a_edge14_Node000011_Node000003"><a xlink:title=" ">
<path fill="none" stroke="#63b8ff" d="M154.58,-113.29C150.26,-104.21 143.83,-90.13 139.26,-77.5 133.83,-62.52 128.9,-45.2 125.42,-32.05"/>
<polygon fill="#63b8ff" stroke="#63b8ff" points="128.82,-31.2 122.94,-22.39 122.04,-32.94 128.82,-31.2"/>
</a>
</g>
</g>
<!-- Node11&#45;&gt;Node5 -->
<g id="edge12_Node000011_Node000005" class="edge">
<title>Node11&#45;&gt;Node5</title>
<g id="a_edge12_Node000011_Node000005"><a xlink:title=" ">
<path fill="none" stroke="#63b8ff" d="M141.56,-113.09C126.64,-104.83 105.03,-92.88 87.84,-83.38"/>
<polygon fill="#63b8ff" stroke="#63b8ff" points="89.57,-80.34 79.13,-78.56 86.18,-86.46 89.57,-80.34"/>
</a>
</g>
</g>
<!-- Node11&#45;&gt;Node6 -->
<g id="edge13_Node000011_Node000006" class="edge">
<title>Node11&#45;&gt;Node6</title>
<g id="a_edge13_Node000011_Node000006"><a xlink:title=" ">
<path fill="none" stroke="#63b8ff" d="M183.21,-113.09C204.27,-104.48 235.16,-91.86 258.86,-82.18"/>
<polygon fill="#63b8ff" stroke="#63b8ff" points="260.17,-85.42 268.11,-78.4 257.53,-78.94 260.17,-85.42"/>
</a>
</g>
</g>
<!-- Node12 -->
<g id="Node000012" class="node">
<title>Node12</title>
<g id="a_Node000012"><a xlink:href="vlcb__defs_8h.html" target="_top" xlink:title=" ">
<polygon fill="white" stroke="#666666" points="220.01,-77.5 148.51,-77.5 148.51,-56.75 220.01,-56.75 220.01,-77.5"/>
<text text-anchor="middle" x="184.26" y="-64" font-family="Helvetica,sans-Serif" font-size="10.00">vlcb_defs.h</text>
</a>
</g>
</g>
<!-- Node11&#45;&gt;Node12 -->
<g id="edge15_Node000011_Node000012" class="edge">
<title>Node11&#45;&gt;Node12</title>
<g id="a_edge15_Node000011_Node000012"><a xlink:title=" ">
<path fill="none" stroke="#63b8ff" d="M163.73,-113.09C166.89,-106.16 171.25,-96.62 175.13,-88.11"/>
<polygon fill="#63b8ff" stroke="#63b8ff" points="178.23,-89.76 179.2,-79.21 171.86,-86.85 178.23,-89.76"/>
</a>
</g>
</g>
<!-- Node12&#45;&gt;Node3 -->
<g id="edge16_Node000012_Node000003" class="edge">
<title>Node12&#45;&gt;Node3</title>
<g id="a_edge16_Node000012_Node000003"><a xlink:title=" ">
<path fill="none" stroke="#63b8ff" d="M172.82,-56.34C163.81,-48.63 151.02,-37.7 140.32,-28.54"/>
<polygon fill="#63b8ff" stroke="#63b8ff" points="142.62,-25.9 132.75,-22.06 138.07,-31.22 142.62,-25.9"/>
</a>
</g>
</g>
<!-- Node13&#45;&gt;Node11 -->
<g id="edge18_Node000013_Node000011" class="edge">
<title>Node13&#45;&gt;Node11</title>
<g id="a_edge18_Node000013_Node000011"><a xlink:title=" ">
<path fill="none" stroke="#63b8ff" d="M119.02,-169.84C125.71,-162.36 135.11,-151.86 143.15,-142.88"/>
<polygon fill="#63b8ff" stroke="#63b8ff" points="145.5,-145.49 149.56,-135.71 140.29,-140.82 145.5,-145.49"/>
</a>
</g>
</g>
<!-- Node16&#45;&gt;Node7 -->
<g id="edge23_Node000016_Node000007" class="edge">
<title>Node16&#45;&gt;Node7</title>
<g id="a_edge23_Node000016_Node000007"><a xlink:title=" ">
<path fill="none" stroke="#63b8ff" d="M518.84,-226.59C525.32,-219.19 534.41,-208.82 542.23,-199.91"/>
<polygon fill="#63b8ff" stroke="#63b8ff" points="544.79,-202.29 548.75,-192.47 539.53,-197.68 544.79,-202.29"/>
</a>
</g>
</g>
</g>
</svg>
