<?xml version="1.0" encoding="UTF-8" standalone="no"?>
<!DOCTYPE svg PUBLIC "-//W3C//DTD SVG 1.1//EN"
 "http://www.w3.org/Graphics/SVG/1.1/DTD/svg11.dtd">
<!-- Generated by graphviz version 12.1.2 (20240928.0832)
 -->
<!-- Title: datagram.c Pages: 1 -->
<svg width="388pt" height="199pt"
 viewBox="0.00 0.00 387.88 199.00" xmlns="http://www.w3.org/2000/svg" xmlns:xlink="http://www.w3.org/1999/xlink">
<g id="graph0" class="graph" transform="scale(1 1) rotate(0) translate(4 195)">
<title>datagram.c</title>
<!-- Node1 -->
<g id="Node000001" class="node">
<title>Node1</title>
<g id="a_Node000001"><a xlink:title=" ">
<polygon fill="#999999" stroke="#666666" points="309.12,-191 237.62,-191 237.62,-170.25 309.12,-170.25 309.12,-191"/>
<text text-anchor="middle" x="273.38" y="-177.5" font-family="Helvetica,sans-Serif" font-size="10.00">datagram.c</text>
</a>
</g>
</g>
<!-- Node2 -->
<g id="Node000002" class="node">
<title>Node2</title>
<g id="a_Node000002"><a xlink:href="packet_2datagram_8h.html" target="_top" xlink:title=" ">
<polygon fill="white" stroke="#666666" points="228.12,-134.25 78.62,-134.25 78.62,-113.5 228.12,-113.5 228.12,-134.25"/>
<text text-anchor="middle" x="153.38" y="-120.75" font-family="Helvetica,sans-Serif" font-size="10.00">vlcb/net/packet/datagram.h</text>
</a>
</g>
</g>
<!-- Node1&#45;&gt;Node2 -->
<g id="edge1_Node000001_Node000002" class="edge">
<title>Node1&#45;&gt;Node2</title>
<g id="a_edge1_Node000001_Node000002"><a xlink:title=" ">
<path fill="none" stroke="#63b8ff" d="M251.92,-169.84C233.32,-161.35 206.15,-148.95 185.05,-139.33"/>
<polygon fill="#63b8ff" stroke="#63b8ff" points="186.57,-136.17 176.02,-135.21 183.66,-142.54 186.57,-136.17"/>
</a>
</g>
</g>
<!-- Node7 -->
<g id="Node000007" class="node">
<title>Node7</title>
<g id="a_Node000007"><a xlink:title=" ">
<polygon fill="#e0e0e0" stroke="#999999" points="300.88,-134.25 245.88,-134.25 245.88,-113.5 300.88,-113.5 300.88,-134.25"/>
<text text-anchor="middle" x="273.38" y="-120.75" font-family="Helvetica,sans-Serif" font-size="10.00">assert.h</text>
</a>
</g>
</g>
<!-- Node1&#45;&gt;Node7 -->
<g id="edge6_Node000001_Node000007" class="edge">
<title>Node1&#45;&gt;Node7</title>
<g id="a_edge6_Node000001_Node000007"><a xlink:title=" ">
<path fill="none" stroke="#63b8ff" d="M273.38,-169.84C273.38,-163.22 273.38,-154.22 273.38,-146.02"/>
<polygon fill="#63b8ff" stroke="#63b8ff" points="276.88,-146.09 273.38,-136.09 269.88,-146.09 276.88,-146.09"/>
</a>
</g>
</g>
<!-- Node8 -->
<g id="Node000008" class="node">
<title>Node8</title>
<g id="a_Node000008"><a xlink:title=" ">
<polygon fill="#e0e0e0" stroke="#999999" points="379.88,-134.25 318.88,-134.25 318.88,-113.5 379.88,-113.5 379.88,-134.25"/>
<text text-anchor="middle" x="349.38" y="-120.75" font-family="Helvetica,sans-Serif" font-size="10.00">stdbool.h</text>
</a>
</g>
</g>
<!-- Node1&#45;&gt;Node8 -->
<g id="edge7_Node000001_Node000008" class="edge">
<title>Node1&#45;&gt;Node8</title>
<g id="a_edge7_Node000001_Node000008"><a xlink:title=" ">
<path fill="none" stroke="#63b8ff" d="M286.96,-169.84C297.99,-161.9 313.76,-150.53 326.7,-141.21"/>
<polygon fill="#63b8ff" stroke="#63b8ff" points="328.61,-144.15 334.68,-135.46 324.52,-138.47 328.61,-144.15"/>
</a>
</g>
</g>
<!-- Node3 -->
<g id="Node000003" class="node">
<title>Node3</title>
<g id="a_Node000003"><a xlink:title=" ">
<polygon fill="#e0e0e0" stroke="#999999" points="64.75,-77.5 0,-77.5 0,-56.75 64.75,-56.75 64.75,-77.5"/>
<text text-anchor="middle" x="32.38" y="-64" font-family="Helvetica,sans-Serif" font-size="10.00">inttypes.h</text>
</a>
</g>
</g>
<!-- Node2&#45;&gt;Node3 -->
<g id="edge2_Node000002_Node000003" class="edge">
<title>Node2&#45;&gt;Node3</title>
<g id="a_edge2_Node000002_Node000003"><a xlink:title=" ">
<path fill="none" stroke="#63b8ff" d="M131.74,-113.09C112.9,-104.56 85.34,-92.09 64.02,-82.44"/>
<polygon fill="#63b8ff" stroke="#63b8ff" points="65.75,-79.39 55.2,-78.45 62.87,-85.76 65.75,-79.39"/>
</a>
</g>
</g>
<!-- Node4 -->
<g id="Node000004" class="node">
<title>Node4</title>
<g id="a_Node000004"><a xlink:href="vlcb__defs_8h.html" target="_top" xlink:title=" ">
<polygon fill="white" stroke="#666666" points="223.62,-77.5 83.12,-77.5 83.12,-56.75 223.62,-56.75 223.62,-77.5"/>
<text text-anchor="middle" x="153.38" y="-64" font-family="Helvetica,sans-Serif" font-size="10.00">vlcb/common/vlcb_defs.h</text>
</a>
</g>
</g>
<!-- Node2&#45;&gt;Node4 -->
<g id="edge3_Node000002_Node000004" class="edge">
<title>Node2&#45;&gt;Node4</title>
<g id="a_edge3_Node000002_Node000004"><a xlink:title=" ">
<path fill="none" stroke="#63b8ff" d="M153.38,-113.09C153.38,-106.47 153.38,-97.47 153.38,-89.27"/>
<polygon fill="#63b8ff" stroke="#63b8ff" points="156.88,-89.34 153.38,-79.34 149.88,-89.34 156.88,-89.34"/>
</a>
</g>
</g>
<!-- Node6 -->
<g id="Node000006" class="node">
<title>Node6</title>
<g id="a_Node000006"><a xlink:href="error_8h.html" target="_top" xlink:title=" ">
<polygon fill="white" stroke="#666666" points="357.25,-77.5 241.5,-77.5 241.5,-56.75 357.25,-56.75 357.25,-77.5"/>
<text text-anchor="middle" x="299.38" y="-64" font-family="Helvetica,sans-Serif" font-size="10.00">vlcb/platform/error.h</text>
</a>
</g>
</g>
<!-- Node2&#45;&gt;Node6 -->
<g id="edge5_Node000002_Node000006" class="edge">
<title>Node2&#45;&gt;Node6</title>
<g id="a_edge5_Node000002_Node000006"><a xlink:title=" ">
<path fill="none" stroke="#63b8ff" d="M179.48,-113.09C202.73,-104.37 236.99,-91.52 262.94,-81.79"/>
<polygon fill="#63b8ff" stroke="#63b8ff" points="263.95,-85.15 272.08,-78.36 261.49,-78.59 263.95,-85.15"/>
</a>
</g>
</g>
<!-- Node5 -->
<g id="Node000005" class="node">
<title>Node5</title>
<g id="a_Node000005"><a xlink:title=" ">
<polygon fill="#e0e0e0" stroke="#999999" points="179.75,-20.75 127,-20.75 127,0 179.75,0 179.75,-20.75"/>
<text text-anchor="middle" x="153.38" y="-7.25" font-family="Helvetica,sans-Serif" font-size="10.00">stdint.h</text>
</a>
</g>
</g>
<!-- Node4&#45;&gt;Node5 -->
<g id="edge4_Node000004_Node000005" class="edge">
<title>Node4&#45;&gt;Node5</title>
<g id="a_edge4_Node000004_Node000005"><a xlink:title=" ">
<path fill="none" stroke="#63b8ff" d="M153.38,-56.34C153.38,-49.72 153.38,-40.72 153.38,-32.52"/>
<polygon fill="#63b8ff" stroke="#63b8ff" points="156.88,-32.59 153.38,-22.59 149.88,-32.59 156.88,-32.59"/>
</a>
</g>
</g>
</g>
</svg>
