<?xml version="1.0" encoding="UTF-8" standalone="no"?>
<!DOCTYPE svg PUBLIC "-//W3C//DTD SVG 1.1//EN"
 "http://www.w3.org/Graphics/SVG/1.1/DTD/svg11.dtd">
<!-- Generated by graphviz version 12.1.2 (20240928.0832)
 -->
<!-- Title: packet_buf.h Pages: 1 -->
<svg width="974pt" height="313pt"
 viewBox="0.00 0.00 973.62 312.50" xmlns="http://www.w3.org/2000/svg" xmlns:xlink="http://www.w3.org/1999/xlink">
<g id="graph0" class="graph" transform="scale(1 1) rotate(0) translate(4 308.5)">
<title>packet_buf.h</title>
<!-- Node1 -->
<g id="Node000001" class="node">
<title>Node1</title>
<g id="a_Node000001"><a xlink:title=" ">
<polygon fill="#999999" stroke="#666666" points="297.5,-304.5 220,-304.5 220,-283.75 297.5,-283.75 297.5,-304.5"/>
<text text-anchor="middle" x="258.75" y="-291" font-family="Helvetica,sans-Serif" font-size="10.00">packet_buf.h</text>
</a>
</g>
</g>
<!-- Node2 -->
<g id="Node000002" class="node">
<title>Node2</title>
<g id="a_Node000002"><a xlink:href="socket_2datagram_8c.html" target="_top" xlink:title=" ">
<polygon fill="white" stroke="#666666" points="71.5,-134.25 0,-134.25 0,-113.5 71.5,-113.5 71.5,-134.25"/>
<text text-anchor="middle" x="35.75" y="-120.75" font-family="Helvetica,sans-Serif" font-size="10.00">datagram.c</text>
</a>
</g>
</g>
<!-- Node1&#45;&gt;Node2 -->
<g id="edge1_Node000001_Node000002" class="edge">
<title>Node1&#45;&gt;Node2</title>
<g id="a_edge1_Node000001_Node000002"><a xlink:title=" ">
<path fill="none" stroke="#63b8ff" d="M236.66,-276.46C190.59,-241.7 85.5,-162.41 48.74,-134.68"/>
<polygon fill="#63b8ff" stroke="#63b8ff" points="234.5,-279.21 244.59,-282.44 238.71,-273.62 234.5,-279.21"/>
</a>
</g>
</g>
<!-- Node3 -->
<g id="Node000003" class="node">
<title>Node3</title>
<g id="a_Node000003"><a xlink:href="socket_2datagram_8h.html" target="_top" xlink:title=" ">
<polygon fill="white" stroke="#666666" points="261.88,-191 189.62,-191 189.62,-170.25 261.88,-170.25 261.88,-191"/>
<text text-anchor="middle" x="225.75" y="-177.5" font-family="Helvetica,sans-Serif" font-size="10.00">datagram.h</text>
</a>
</g>
</g>
<!-- Node1&#45;&gt;Node3 -->
<g id="edge2_Node000001_Node000003" class="edge">
<title>Node1&#45;&gt;Node3</title>
<g id="a_edge2_Node000001_Node000003"><a xlink:title=" ">
<path fill="none" stroke="#63b8ff" d="M252.28,-272.45C249.88,-264.71 247.16,-255.84 244.75,-247.75 238.75,-227.6 232.02,-203.9 228.4,-191.06"/>
<polygon fill="#63b8ff" stroke="#63b8ff" points="248.92,-273.45 255.24,-281.96 255.61,-271.37 248.92,-273.45"/>
</a>
</g>
</g>
<!-- Node9 -->
<g id="Node000009" class="node">
<title>Node9</title>
<g id="a_Node000009"><a xlink:href="packet__buf_8c.html" target="_top" xlink:title=" ">
<polygon fill="white" stroke="#666666" points="330.12,-247.75 253.38,-247.75 253.38,-227 330.12,-227 330.12,-247.75"/>
<text text-anchor="middle" x="291.75" y="-234.25" font-family="Helvetica,sans-Serif" font-size="10.00">packet_buf.c</text>
</a>
</g>
</g>
<!-- Node1&#45;&gt;Node9 -->
<g id="edge14_Node000001_Node000009" class="edge">
<title>Node1&#45;&gt;Node9</title>
<g id="a_edge14_Node000001_Node000009"><a xlink:title=" ">
<path fill="none" stroke="#63b8ff" d="M270.52,-273.6C275.73,-264.95 281.64,-255.14 285.9,-248.08"/>
<polygon fill="#63b8ff" stroke="#63b8ff" points="267.6,-271.67 265.43,-282.04 273.59,-275.28 267.6,-271.67"/>
</a>
</g>
</g>
<!-- Node10 -->
<g id="Node000010" class="node">
<title>Node10</title>
<g id="a_Node000010"><a xlink:href="socket_8h.html" target="_top" xlink:title=" ">
<polygon fill="white" stroke="#666666" points="445,-247.75 388.5,-247.75 388.5,-227 445,-227 445,-247.75"/>
<text text-anchor="middle" x="416.75" y="-234.25" font-family="Helvetica,sans-Serif" font-size="10.00">socket.h</text>
</a>
</g>
</g>
<!-- Node1&#45;&gt;Node10 -->
<g id="edge15_Node000001_Node000010" class="edge">
<title>Node1&#45;&gt;Node10</title>
<g id="a_edge15_Node000001_Node000010"><a xlink:title=" ">
<path fill="none" stroke="#63b8ff" d="M297.66,-279.64C325.8,-269.89 363.16,-256.94 388.48,-248.17"/>
<polygon fill="#63b8ff" stroke="#63b8ff" points="296.73,-276.26 288.43,-282.84 299.02,-282.87 296.73,-276.26"/>
</a>
</g>
</g>
<!-- Node3&#45;&gt;Node2 -->
<g id="edge3_Node000003_Node000002" class="edge">
<title>Node3&#45;&gt;Node2</title>
<g id="a_edge3_Node000003_Node000002"><a xlink:title=" ">
<path fill="none" stroke="#63b8ff" d="M180.74,-166.66C146.72,-156.85 100.73,-143.6 69.74,-134.67"/>
<polygon fill="#63b8ff" stroke="#63b8ff" points="179.75,-170.01 190.33,-169.42 181.69,-163.29 179.75,-170.01"/>
</a>
</g>
</g>
<!-- Node4 -->
<g id="Node000004" class="node">
<title>Node4</title>
<g id="a_Node000004"><a xlink:href="module_8c.html" target="_top" xlink:title=" ">
<polygon fill="white" stroke="#666666" points="130.25,-20.75 69.25,-20.75 69.25,0 130.25,0 130.25,-20.75"/>
<text text-anchor="middle" x="99.75" y="-7.25" font-family="Helvetica,sans-Serif" font-size="10.00">module.c</text>
</a>
</g>
</g>
<!-- Node3&#45;&gt;Node4 -->
<g id="edge4_Node000003_Node000004" class="edge">
<title>Node3&#45;&gt;Node4</title>
<g id="a_edge4_Node000003_Node000004"><a xlink:title=" ">
<path fill="none" stroke="#63b8ff" d="M187.71,-165.36C152.25,-149.76 101.52,-121.05 78.75,-77.5 68.93,-58.71 82.54,-34.5 92,-21.21"/>
<polygon fill="#63b8ff" stroke="#63b8ff" points="186.21,-168.52 196.79,-169.19 188.93,-162.07 186.21,-168.52"/>
</a>
</g>
</g>
<!-- Node5 -->
<g id="Node000005" class="node">
<title>Node5</title>
<g id="a_Node000005"><a xlink:href="module_2inc_2vlcb_2module_8h.html" target="_top" xlink:title=" ">
<polygon fill="white" stroke="#666666" points="256.62,-134.25 194.88,-134.25 194.88,-113.5 256.62,-113.5 256.62,-134.25"/>
<text text-anchor="middle" x="225.75" y="-120.75" font-family="Helvetica,sans-Serif" font-size="10.00">module.h</text>
</a>
</g>
</g>
<!-- Node3&#45;&gt;Node5 -->
<g id="edge5_Node000003_Node000005" class="edge">
<title>Node3&#45;&gt;Node5</title>
<g id="a_edge5_Node000003_Node000005"><a xlink:title=" ">
<path fill="none" stroke="#63b8ff" d="M225.75,-158.38C225.75,-150.16 225.75,-141.18 225.75,-134.58"/>
<polygon fill="#63b8ff" stroke="#63b8ff" points="222.25,-158.32 225.75,-168.32 229.25,-158.32 222.25,-158.32"/>
</a>
</g>
</g>
<!-- Node7 -->
<g id="Node000007" class="node">
<title>Node7</title>
<g id="a_Node000007"><a xlink:href="state__machine_8c.html" target="_top" xlink:title=" ">
<polygon fill="white" stroke="#666666" points="369.88,-20.75 273.62,-20.75 273.62,0 369.88,0 369.88,-20.75"/>
<text text-anchor="middle" x="321.75" y="-7.25" font-family="Helvetica,sans-Serif" font-size="10.00">state_machine.c</text>
</a>
</g>
</g>
<!-- Node3&#45;&gt;Node7 -->
<g id="edge13_Node000003_Node000007" class="edge">
<title>Node3&#45;&gt;Node7</title>
<g id="a_edge13_Node000003_Node000007"><a xlink:title=" ">
<path fill="none" stroke="#63b8ff" d="M243.7,-161.9C261.97,-142.79 289.69,-110.62 304.75,-77.5 313.39,-58.51 318.18,-34.38 320.34,-21.15"/>
<polygon fill="#63b8ff" stroke="#63b8ff" points="241.37,-159.28 236.88,-168.87 246.37,-164.18 241.37,-159.28"/>
</a>
</g>
</g>
<!-- Node5&#45;&gt;Node4 -->
<g id="edge6_Node000005_Node000004" class="edge">
<title>Node5&#45;&gt;Node4</title>
<g id="a_edge6_Node000005_Node000004"><a xlink:title=" ">
<path fill="none" stroke="#63b8ff" d="M183.22,-121.34C151.5,-117.69 110.11,-107.08 88.75,-77.5 76.49,-60.52 86.91,-34.73 94.17,-20.91"/>
<polygon fill="#63b8ff" stroke="#63b8ff" points="182.62,-124.8 192.9,-122.25 183.28,-117.83 182.62,-124.8"/>
</a>
</g>
</g>
<!-- Node6 -->
<g id="Node000006" class="node">
<title>Node6</title>
<g id="a_Node000006"><a xlink:href="module_2src_2module_8h.html" target="_top" xlink:title=" ">
<polygon fill="white" stroke="#666666" points="159.62,-77.5 97.88,-77.5 97.88,-56.75 159.62,-56.75 159.62,-77.5"/>
<text text-anchor="middle" x="128.75" y="-64" font-family="Helvetica,sans-Serif" font-size="10.00">module.h</text>
</a>
</g>
</g>
<!-- Node5&#45;&gt;Node6 -->
<g id="edge7_Node000005_Node000006" class="edge">
<title>Node5&#45;&gt;Node6</title>
<g id="a_edge7_Node000005_Node000006"><a xlink:title=" ">
<path fill="none" stroke="#63b8ff" d="M198.56,-107.53C181.68,-98 160.52,-86.06 145.94,-77.83"/>
<polygon fill="#63b8ff" stroke="#63b8ff" points="196.66,-110.48 207.09,-112.34 200.1,-104.38 196.66,-110.48"/>
</a>
</g>
</g>
<!-- Node5&#45;&gt;Node7 -->
<g id="edge9_Node000005_Node000007" class="edge">
<title>Node5&#45;&gt;Node7</title>
<g id="a_edge9_Node000005_Node000007"><a xlink:title=" ">
<path fill="none" stroke="#63b8ff" d="M250.54,-106.74C261.55,-98.8 274.16,-88.56 283.75,-77.5 299.19,-59.69 311.53,-34.68 317.62,-21.09"/>
<polygon fill="#63b8ff" stroke="#63b8ff" points="248.85,-103.65 242.63,-112.23 252.84,-109.4 248.85,-103.65"/>
</a>
</g>
</g>
<!-- Node8 -->
<g id="Node000008" class="node">
<title>Node8</title>
<g id="a_Node000008"><a xlink:href="state__machine_8h.html" target="_top" xlink:title=" ">
<polygon fill="white" stroke="#666666" points="274.25,-77.5 177.25,-77.5 177.25,-56.75 274.25,-56.75 274.25,-77.5"/>
<text text-anchor="middle" x="225.75" y="-64" font-family="Helvetica,sans-Serif" font-size="10.00">state_machine.h</text>
</a>
</g>
</g>
<!-- Node5&#45;&gt;Node8 -->
<g id="edge10_Node000005_Node000008" class="edge">
<title>Node5&#45;&gt;Node8</title>
<g id="a_edge10_Node000005_Node000008"><a xlink:title=" ">
<path fill="none" stroke="#63b8ff" d="M225.75,-101.63C225.75,-93.41 225.75,-84.43 225.75,-77.83"/>
<polygon fill="#63b8ff" stroke="#63b8ff" points="222.25,-101.57 225.75,-111.57 229.25,-101.57 222.25,-101.57"/>
</a>
</g>
</g>
<!-- Node6&#45;&gt;Node4 -->
<g id="edge8_Node000006_Node000004" class="edge">
<title>Node6&#45;&gt;Node4</title>
<g id="a_edge8_Node000006_Node000004"><a xlink:title=" ">
<path fill="none" stroke="#63b8ff" d="M118.26,-46.32C113.71,-37.73 108.59,-28.06 104.89,-21.08"/>
<polygon fill="#63b8ff" stroke="#63b8ff" points="115.08,-47.8 122.86,-55 121.27,-44.52 115.08,-47.8"/>
</a>
</g>
</g>
<!-- Node8&#45;&gt;Node4 -->
<g id="edge11_Node000008_Node000004" class="edge">
<title>Node8&#45;&gt;Node4</title>
<g id="a_edge11_Node000008_Node000004"><a xlink:title=" ">
<path fill="none" stroke="#63b8ff" d="M192.88,-51.84C170.6,-42.16 141.73,-29.62 122.08,-21.08"/>
<polygon fill="#63b8ff" stroke="#63b8ff" points="191.27,-54.96 201.84,-55.73 194.06,-48.54 191.27,-54.96"/>
</a>
</g>
</g>
<!-- Node8&#45;&gt;Node7 -->
<g id="edge12_Node000008_Node000007" class="edge">
<title>Node8&#45;&gt;Node7</title>
<g id="a_edge12_Node000008_Node000007"><a xlink:title=" ">
<path fill="none" stroke="#63b8ff" d="M252.66,-50.78C269.36,-41.25 290.31,-29.31 304.74,-21.08"/>
<polygon fill="#63b8ff" stroke="#63b8ff" points="251.18,-47.59 244.23,-55.59 254.65,-53.67 251.18,-47.59"/>
</a>
</g>
</g>
<!-- Node10&#45;&gt;Node2 -->
<g id="edge16_Node000010_Node000002" class="edge">
<title>Node10&#45;&gt;Node2</title>
<g id="a_edge16_Node000010_Node000002"><a xlink:title=" ">
<path fill="none" stroke="#63b8ff" d="M376.92,-231.66C329.42,-225.37 247.99,-212.46 180.75,-191 133.04,-175.78 80.31,-149.02 53.51,-134.66"/>
<polygon fill="#63b8ff" stroke="#63b8ff" points="376.37,-235.12 386.74,-232.93 377.26,-228.18 376.37,-235.12"/>
</a>
</g>
</g>
<!-- Node10&#45;&gt;Node3 -->
<g id="edge17_Node000010_Node000003" class="edge">
<title>Node10&#45;&gt;Node3</title>
<g id="a_edge17_Node000010_Node000003"><a xlink:title=" ">
<path fill="none" stroke="#63b8ff" d="M377.51,-225.13C342.92,-215.21 293.05,-200.92 260.04,-191.45"/>
<polygon fill="#63b8ff" stroke="#63b8ff" points="376.12,-228.37 386.7,-227.76 378.05,-221.64 376.12,-228.37"/>
</a>
</g>
</g>
<!-- Node10&#45;&gt;Node7 -->
<g id="edge35_Node000010_Node000007" class="edge">
<title>Node10&#45;&gt;Node7</title>
<g id="a_edge35_Node000010_Node000007"><a xlink:title=" ">
<path fill="none" stroke="#63b8ff" d="M408.19,-216.11C388.41,-169.26 340.14,-54.92 325.82,-21.01"/>
<polygon fill="#63b8ff" stroke="#63b8ff" points="404.97,-217.46 412.08,-225.31 411.41,-214.74 404.97,-217.46"/>
</a>
</g>
</g>
<!-- Node11 -->
<g id="Node000011" class="node">
<title>Node11</title>
<g id="a_Node000011"><a xlink:href="iface_8c.html" target="_top" xlink:title=" ">
<polygon fill="white" stroke="#666666" points="478.88,-77.5 430.62,-77.5 430.62,-56.75 478.88,-56.75 478.88,-77.5"/>
<text text-anchor="middle" x="454.75" y="-64" font-family="Helvetica,sans-Serif" font-size="10.00">iface.c</text>
</a>
</g>
</g>
<!-- Node10&#45;&gt;Node11 -->
<g id="edge18_Node000010_Node000011" class="edge">
<title>Node10&#45;&gt;Node11</title>
<g id="a_edge18_Node000010_Node000011"><a xlink:title=" ">
<path fill="none" stroke="#63b8ff" d="M421.43,-215.66C429.67,-179.15 446.49,-104.71 452.53,-77.97"/>
<polygon fill="#63b8ff" stroke="#63b8ff" points="418.02,-214.85 419.24,-225.37 424.85,-216.39 418.02,-214.85"/>
</a>
</g>
</g>
<!-- Node12 -->
<g id="Node000012" class="node">
<title>Node12</title>
<g id="a_Node000012"><a xlink:href="iface_8h.html" target="_top" xlink:title=" ">
<polygon fill="white" stroke="#666666" points="588.25,-191 539.25,-191 539.25,-170.25 588.25,-170.25 588.25,-191"/>
<text text-anchor="middle" x="563.75" y="-177.5" font-family="Helvetica,sans-Serif" font-size="10.00">iface.h</text>
</a>
</g>
</g>
<!-- Node10&#45;&gt;Node12 -->
<g id="edge19_Node000010_Node000012" class="edge">
<title>Node10&#45;&gt;Node12</title>
<g id="a_edge19_Node000010_Node000012"><a xlink:title=" ">
<path fill="none" stroke="#63b8ff" d="M453.54,-222.67C480.29,-212.71 515.78,-199.49 539.16,-190.78"/>
<polygon fill="#63b8ff" stroke="#63b8ff" points="452.6,-219.29 444.45,-226.06 455.04,-225.85 452.6,-219.29"/>
</a>
</g>
</g>
<!-- Node13 -->
<g id="Node000013" class="node">
<title>Node13</title>
<g id="a_Node000013"><a xlink:href="iface__can_8c.html" target="_top" xlink:title=" ">
<polygon fill="white" stroke="#666666" points="747.12,-77.5 676.38,-77.5 676.38,-56.75 747.12,-56.75 747.12,-77.5"/>
<text text-anchor="middle" x="711.75" y="-64" font-family="Helvetica,sans-Serif" font-size="10.00">iface_can.c</text>
</a>
</g>
</g>
<!-- Node10&#45;&gt;Node13 -->
<g id="edge32_Node000010_Node000013" class="edge">
<title>Node10&#45;&gt;Node13</title>
<g id="a_edge32_Node000010_Node000013"><a xlink:title=" ">
<path fill="none" stroke="#63b8ff" d="M456.66,-233.54C556.58,-225.5 813.1,-198.86 862.75,-134.25 895.01,-92.27 801.79,-76.43 747.6,-70.88"/>
<polygon fill="#63b8ff" stroke="#63b8ff" points="456.48,-230.04 446.78,-234.31 457.02,-237.02 456.48,-230.04"/>
</a>
</g>
</g>
<!-- Node18 -->
<g id="Node000018" class="node">
<title>Node18</title>
<g id="a_Node000018"><a xlink:href="net_2inc_2vlcb_2net_8h.html" target="_top" xlink:title=" ">
<polygon fill="white" stroke="#666666" points="854.12,-134.25 813.38,-134.25 813.38,-113.5 854.12,-113.5 854.12,-134.25"/>
<text text-anchor="middle" x="833.75" y="-120.75" font-family="Helvetica,sans-Serif" font-size="10.00">net.h</text>
</a>
</g>
</g>
<!-- Node10&#45;&gt;Node18 -->
<g id="edge33_Node000010_Node000018" class="edge">
<title>Node10&#45;&gt;Node18</title>
<g id="a_edge33_Node000010_Node000018"><a xlink:title=" ">
<path fill="none" stroke="#63b8ff" d="M456.06,-226.8C492.77,-217.79 549.06,-203.81 597.75,-191 689.59,-166.84 712.64,-161.03 803.75,-134.25 806.79,-133.36 809.99,-132.39 813.12,-131.42"/>
<polygon fill="#63b8ff" stroke="#63b8ff" points="455.68,-223.29 446.8,-229.07 457.35,-230.09 455.68,-223.29"/>
</a>
</g>
</g>
<!-- Node19 -->
<g id="Node000019" class="node">
<title>Node19</title>
<g id="a_Node000019"><a xlink:href="socket_8c.html" target="_top" xlink:title=" ">
<polygon fill="white" stroke="#666666" points="965.62,-191 909.88,-191 909.88,-170.25 965.62,-170.25 965.62,-191"/>
<text text-anchor="middle" x="937.75" y="-177.5" font-family="Helvetica,sans-Serif" font-size="10.00">socket.c</text>
</a>
</g>
</g>
<!-- Node10&#45;&gt;Node19 -->
<g id="edge34_Node000010_Node000019" class="edge">
<title>Node10&#45;&gt;Node19</title>
<g id="a_edge34_Node000010_Node000019"><a xlink:title=" ">
<path fill="none" stroke="#63b8ff" d="M456.57,-234.29C538.96,-229.61 733.95,-216.62 895.75,-191 900.18,-190.3 904.84,-189.41 909.38,-188.46"/>
<polygon fill="#63b8ff" stroke="#63b8ff" points="456.55,-230.79 446.76,-234.84 456.94,-237.78 456.55,-230.79"/>
</a>
</g>
</g>
<!-- Node12&#45;&gt;Node5 -->
<g id="edge30_Node000012_Node000005" class="edge">
<title>Node12&#45;&gt;Node5</title>
<g id="a_edge30_Node000012_Node000005"><a xlink:title=" ">
<path fill="none" stroke="#63b8ff" d="M527.74,-173.79C461.1,-163 319.66,-140.09 256.89,-129.92"/>
<polygon fill="#63b8ff" stroke="#63b8ff" points="526.97,-177.21 537.4,-175.36 528.09,-170.3 526.97,-177.21"/>
</a>
</g>
</g>
<!-- Node12&#45;&gt;Node11 -->
<g id="edge20_Node000012_Node000011" class="edge">
<title>Node12&#45;&gt;Node11</title>
<g id="a_edge20_Node000012_Node000011"><a xlink:title=" ">
<path fill="none" stroke="#63b8ff" d="M528.04,-169.34C509.42,-162.27 487.68,-151.07 473.75,-134.25 460.03,-117.69 456.21,-91.73 455.15,-77.77"/>
<polygon fill="#63b8ff" stroke="#63b8ff" points="526.83,-172.62 537.42,-172.63 529.14,-166.02 526.83,-172.62"/>
</a>
</g>
</g>
<!-- Node12&#45;&gt;Node13 -->
<g id="edge21_Node000012_Node000013" class="edge">
<title>Node12&#45;&gt;Node13</title>
<g id="a_edge21_Node000012_Node000013"><a xlink:title=" ">
<path fill="none" stroke="#63b8ff" d="M598.77,-166.4C616.82,-158.61 638.58,-147.66 655.75,-134.25 677.09,-117.58 696.11,-91.66 705.52,-77.74"/>
<polygon fill="#63b8ff" stroke="#63b8ff" points="597.65,-163.07 589.76,-170.14 600.34,-169.54 597.65,-163.07"/>
</a>
</g>
</g>
<!-- Node14 -->
<g id="Node000014" class="node">
<title>Node14</title>
<g id="a_Node000014"><a xlink:href="iface__can_8h.html" target="_top" xlink:title=" ">
<polygon fill="white" stroke="#666666" points="554.5,-134.25 483,-134.25 483,-113.5 554.5,-113.5 554.5,-134.25"/>
<text text-anchor="middle" x="518.75" y="-120.75" font-family="Helvetica,sans-Serif" font-size="10.00">iface_can.h</text>
</a>
</g>
</g>
<!-- Node12&#45;&gt;Node14 -->
<g id="edge22_Node000012_Node000014" class="edge">
<title>Node12&#45;&gt;Node14</title>
<g id="a_edge22_Node000012_Node000014"><a xlink:title=" ">
<path fill="none" stroke="#63b8ff" d="M548.41,-160.96C541.12,-152.09 532.72,-141.87 526.73,-134.58"/>
<polygon fill="#63b8ff" stroke="#63b8ff" points="545.69,-163.16 554.74,-168.67 551.1,-158.72 545.69,-163.16"/>
</a>
</g>
</g>
<!-- Node16 -->
<g id="Node000016" class="node">
<title>Node16</title>
<g id="a_Node000016"><a xlink:href="iface__can__svc_8c.html" target="_top" xlink:title=" ">
<polygon fill="white" stroke="#666666" points="795,-134.25 702.5,-134.25 702.5,-113.5 795,-113.5 795,-134.25"/>
<text text-anchor="middle" x="748.75" y="-120.75" font-family="Helvetica,sans-Serif" font-size="10.00">iface_can_svc.c</text>
</a>
</g>
</g>
<!-- Node12&#45;&gt;Node16 -->
<g id="edge25_Node000012_Node000016" class="edge">
<title>Node12&#45;&gt;Node16</title>
<g id="a_edge25_Node000012_Node000016"><a xlink:title=" ">
<path fill="none" stroke="#63b8ff" d="M599.4,-169.08C632.92,-159.15 682.72,-144.42 715.46,-134.73"/>
<polygon fill="#63b8ff" stroke="#63b8ff" points="598.75,-165.62 590.15,-171.81 600.73,-172.33 598.75,-165.62"/>
</a>
</g>
</g>
<!-- Node17 -->
<g id="Node000017" class="node">
<title>Node17</title>
<g id="a_Node000017"><a xlink:href="iface__vlcb_8h.html" target="_top" xlink:title=" ">
<polygon fill="white" stroke="#666666" points="647,-134.25 572.5,-134.25 572.5,-113.5 647,-113.5 647,-134.25"/>
<text text-anchor="middle" x="609.75" y="-120.75" font-family="Helvetica,sans-Serif" font-size="10.00">iface_vlcb.h</text>
</a>
</g>
</g>
<!-- Node12&#45;&gt;Node17 -->
<g id="edge27_Node000012_Node000017" class="edge">
<title>Node12&#45;&gt;Node17</title>
<g id="a_edge27_Node000012_Node000017"><a xlink:title=" ">
<path fill="none" stroke="#63b8ff" d="M579.2,-161.24C586.7,-152.31 595.4,-141.95 601.6,-134.58"/>
<polygon fill="#63b8ff" stroke="#63b8ff" points="576.7,-158.77 572.95,-168.68 582.06,-163.27 576.7,-158.77"/>
</a>
</g>
</g>
<!-- Node12&#45;&gt;Node18 -->
<g id="edge31_Node000012_Node000018" class="edge">
<title>Node12&#45;&gt;Node18</title>
<g id="a_edge31_Node000012_Node000018"><a xlink:title=" ">
<path fill="none" stroke="#63b8ff" d="M599.62,-174.18C646.79,-166.71 732.07,-152.16 803.75,-134.25 806.82,-133.48 810.04,-132.58 813.18,-131.65"/>
<polygon fill="#63b8ff" stroke="#63b8ff" points="599.32,-170.68 589.98,-175.69 600.4,-177.6 599.32,-170.68"/>
</a>
</g>
</g>
<!-- Node14&#45;&gt;Node11 -->
<g id="edge23_Node000014_Node000011" class="edge">
<title>Node14&#45;&gt;Node11</title>
<g id="a_edge23_Node000014_Node000011"><a xlink:title=" ">
<path fill="none" stroke="#63b8ff" d="M498.57,-105.61C487.85,-96.44 475.08,-85.51 466.09,-77.83"/>
<polygon fill="#63b8ff" stroke="#63b8ff" points="496.28,-108.26 506.16,-112.1 500.83,-102.94 496.28,-108.26"/>
</a>
</g>
</g>
<!-- Node15 -->
<g id="Node000015" class="node">
<title>Node15</title>
<g id="a_Node000015"><a xlink:href="iface__vlcb_8c.html" target="_top" xlink:title=" ">
<polygon fill="white" stroke="#666666" points="570.62,-77.5 496.88,-77.5 496.88,-56.75 570.62,-56.75 570.62,-77.5"/>
<text text-anchor="middle" x="533.75" y="-64" font-family="Helvetica,sans-Serif" font-size="10.00">iface_vlcb.c</text>
</a>
</g>
</g>
<!-- Node14&#45;&gt;Node15 -->
<g id="edge24_Node000014_Node000015" class="edge">
<title>Node14&#45;&gt;Node15</title>
<g id="a_edge24_Node000014_Node000015"><a xlink:title=" ">
<path fill="none" stroke="#63b8ff" d="M524.41,-102.21C526.71,-93.84 529.24,-84.58 531.09,-77.83"/>
<polygon fill="#63b8ff" stroke="#63b8ff" points="521.1,-101.06 521.83,-111.63 527.85,-102.91 521.1,-101.06"/>
</a>
</g>
</g>
<!-- Node16&#45;&gt;Node13 -->
<g id="edge26_Node000016_Node000013" class="edge">
<title>Node16&#45;&gt;Node13</title>
<g id="a_edge26_Node000016_Node000013"><a xlink:title=" ">
<path fill="none" stroke="#63b8ff" d="M735.75,-103.64C729.85,-94.91 723.13,-84.97 718.31,-77.83"/>
<polygon fill="#63b8ff" stroke="#63b8ff" points="732.79,-105.51 741.29,-111.83 738.59,-101.59 732.79,-105.51"/>
</a>
</g>
</g>
<!-- Node17&#45;&gt;Node11 -->
<g id="edge28_Node000017_Node000011" class="edge">
<title>Node17&#45;&gt;Node11</title>
<g id="a_edge28_Node000017_Node000011"><a xlink:title=" ">
<path fill="none" stroke="#63b8ff" d="M571.51,-109.37C542.66,-99.18 503.94,-85.5 479.16,-76.75"/>
<polygon fill="#63b8ff" stroke="#63b8ff" points="570.02,-112.55 580.61,-112.58 572.35,-105.95 570.02,-112.55"/>
</a>
</g>
</g>
<!-- Node17&#45;&gt;Node13 -->
<g id="edge29_Node000017_Node000013" class="edge">
<title>Node17&#45;&gt;Node13</title>
<g id="a_edge29_Node000017_Node000013"><a xlink:title=" ">
<path fill="none" stroke="#63b8ff" d="M638.1,-107.66C655.88,-98.11 678.27,-86.09 693.67,-77.83"/>
<polygon fill="#63b8ff" stroke="#63b8ff" points="636.47,-104.56 629.32,-112.37 639.79,-110.73 636.47,-104.56"/>
</a>
</g>
</g>
</g>
</svg>
