<?xml version="1.0" encoding="UTF-8" standalone="no"?>
<!DOCTYPE svg PUBLIC "-//W3C//DTD SVG 1.1//EN"
 "http://www.w3.org/Graphics/SVG/1.1/DTD/svg11.dtd">
<!-- Generated by graphviz version 12.1.2 (20240928.0832)
 -->
<!-- Title: datagram.c Pages: 1 -->
<svg width="382pt" height="199pt"
 viewBox="0.00 0.00 381.88 199.00" xmlns="http://www.w3.org/2000/svg" xmlns:xlink="http://www.w3.org/1999/xlink">
<g id="graph0" class="graph" transform="scale(1 1) rotate(0) translate(4 195)">
<title>datagram.c</title>
<!-- Node1 -->
<g id="Node000001" class="node">
<title>Node1</title>
<g id="a_Node000001"><a xlink:title=" ">
<polygon fill="#999999" stroke="#666666" points="303.12,-191 231.62,-191 231.62,-170.25 303.12,-170.25 303.12,-191"/>
<text text-anchor="middle" x="267.38" y="-177.5" font-family="Helvetica,sans-Serif" font-size="10.00">datagram.c</text>
</a>
</g>
</g>
<!-- Node2 -->
<g id="Node000002" class="node">
<title>Node2</title>
<g id="a_Node000002"><a xlink:href="packet_2datagram_8h.html" target="_top" xlink:title=" ">
<polygon fill="white" stroke="#666666" points="222.12,-134.25 72.62,-134.25 72.62,-113.5 222.12,-113.5 222.12,-134.25"/>
<text text-anchor="middle" x="147.38" y="-120.75" font-family="Helvetica,sans-Serif" font-size="10.00">vlcb/net/packet/datagram.h</text>
</a>
</g>
</g>
<!-- Node1&#45;&gt;Node2 -->
<g id="edge1_Node000001_Node000002" class="edge">
<title>Node1&#45;&gt;Node2</title>
<g id="a_edge1_Node000001_Node000002"><a xlink:title=" ">
<path fill="none" stroke="#63b8ff" d="M245.92,-169.84C227.32,-161.35 200.15,-148.95 179.05,-139.33"/>
<polygon fill="#63b8ff" stroke="#63b8ff" points="180.57,-136.17 170.02,-135.21 177.66,-142.54 180.57,-136.17"/>
</a>
</g>
</g>
<!-- Node7 -->
<g id="Node000007" class="node">
<title>Node7</title>
<g id="a_Node000007"><a xlink:title=" ">
<polygon fill="#e0e0e0" stroke="#999999" points="294.88,-134.25 239.88,-134.25 239.88,-113.5 294.88,-113.5 294.88,-134.25"/>
<text text-anchor="middle" x="267.38" y="-120.75" font-family="Helvetica,sans-Serif" font-size="10.00">assert.h</text>
</a>
</g>
</g>
<!-- Node1&#45;&gt;Node7 -->
<g id="edge6_Node000001_Node000007" class="edge">
<title>Node1&#45;&gt;Node7</title>
<g id="a_edge6_Node000001_Node000007"><a xlink:title=" ">
<path fill="none" stroke="#63b8ff" d="M267.38,-169.84C267.38,-163.22 267.38,-154.22 267.38,-146.02"/>
<polygon fill="#63b8ff" stroke="#63b8ff" points="270.88,-146.09 267.38,-136.09 263.88,-146.09 270.88,-146.09"/>
</a>
</g>
</g>
<!-- Node8 -->
<g id="Node000008" class="node">
<title>Node8</title>
<g id="a_Node000008"><a xlink:title=" ">
<polygon fill="#e0e0e0" stroke="#999999" points="373.88,-134.25 312.88,-134.25 312.88,-113.5 373.88,-113.5 373.88,-134.25"/>
<text text-anchor="middle" x="343.38" y="-120.75" font-family="Helvetica,sans-Serif" font-size="10.00">stdbool.h</text>
</a>
</g>
</g>
<!-- Node1&#45;&gt;Node8 -->
<g id="edge7_Node000001_Node000008" class="edge">
<title>Node1&#45;&gt;Node8</title>
<g id="a_edge7_Node000001_Node000008"><a xlink:title=" ">
<path fill="none" stroke="#63b8ff" d="M280.96,-169.84C291.99,-161.9 307.76,-150.53 320.7,-141.21"/>
<polygon fill="#63b8ff" stroke="#63b8ff" points="322.61,-144.15 328.68,-135.46 318.52,-138.47 322.61,-144.15"/>
</a>
</g>
</g>
<!-- Node3 -->
<g id="Node000003" class="node">
<title>Node3</title>
<g id="a_Node000003"><a xlink:title=" ">
<polygon fill="#e0e0e0" stroke="#999999" points="64.75,-77.5 0,-77.5 0,-56.75 64.75,-56.75 64.75,-77.5"/>
<text text-anchor="middle" x="32.38" y="-64" font-family="Helvetica,sans-Serif" font-size="10.00">inttypes.h</text>
</a>
</g>
</g>
<!-- Node2&#45;&gt;Node3 -->
<g id="edge2_Node000002_Node000003" class="edge">
<title>Node2&#45;&gt;Node3</title>
<g id="a_edge2_Node000002_Node000003"><a xlink:title=" ">
<path fill="none" stroke="#63b8ff" d="M126.82,-113.09C109.07,-104.64 83.19,-92.32 63.01,-82.71"/>
<polygon fill="#63b8ff" stroke="#63b8ff" points="64.66,-79.62 54.12,-78.48 61.65,-85.94 64.66,-79.62"/>
</a>
</g>
</g>
<!-- Node4 -->
<g id="Node000004" class="node">
<title>Node4</title>
<g id="a_Node000004"><a xlink:href="opcode_8h.html" target="_top" xlink:title=" ">
<polygon fill="white" stroke="#666666" points="212,-77.5 82.75,-77.5 82.75,-56.75 212,-56.75 212,-77.5"/>
<text text-anchor="middle" x="147.38" y="-64" font-family="Helvetica,sans-Serif" font-size="10.00">vlcb/common/opcode.h</text>
</a>
</g>
</g>
<!-- Node2&#45;&gt;Node4 -->
<g id="edge3_Node000002_Node000004" class="edge">
<title>Node2&#45;&gt;Node4</title>
<g id="a_edge3_Node000002_Node000004"><a xlink:title=" ">
<path fill="none" stroke="#63b8ff" d="M147.38,-113.09C147.38,-106.47 147.38,-97.47 147.38,-89.27"/>
<polygon fill="#63b8ff" stroke="#63b8ff" points="150.88,-89.34 147.38,-79.34 143.88,-89.34 150.88,-89.34"/>
</a>
</g>
</g>
<!-- Node6 -->
<g id="Node000006" class="node">
<title>Node6</title>
<g id="a_Node000006"><a xlink:href="error_8h.html" target="_top" xlink:title=" ">
<polygon fill="white" stroke="#666666" points="346.25,-77.5 230.5,-77.5 230.5,-56.75 346.25,-56.75 346.25,-77.5"/>
<text text-anchor="middle" x="288.38" y="-64" font-family="Helvetica,sans-Serif" font-size="10.00">vlcb/platform/error.h</text>
</a>
</g>
</g>
<!-- Node2&#45;&gt;Node6 -->
<g id="edge5_Node000002_Node000006" class="edge">
<title>Node2&#45;&gt;Node6</title>
<g id="a_edge5_Node000002_Node000006"><a xlink:title=" ">
<path fill="none" stroke="#63b8ff" d="M172.58,-113.09C194.94,-104.41 227.83,-91.63 252.85,-81.92"/>
<polygon fill="#63b8ff" stroke="#63b8ff" points="253.92,-85.26 261.97,-78.38 251.39,-78.73 253.92,-85.26"/>
</a>
</g>
</g>
<!-- Node5 -->
<g id="Node000005" class="node">
<title>Node5</title>
<g id="a_Node000005"><a xlink:title=" ">
<polygon fill="#e0e0e0" stroke="#999999" points="173.75,-20.75 121,-20.75 121,0 173.75,0 173.75,-20.75"/>
<text text-anchor="middle" x="147.38" y="-7.25" font-family="Helvetica,sans-Serif" font-size="10.00">stdint.h</text>
</a>
</g>
</g>
<!-- Node4&#45;&gt;Node5 -->
<g id="edge4_Node000004_Node000005" class="edge">
<title>Node4&#45;&gt;Node5</title>
<g id="a_edge4_Node000004_Node000005"><a xlink:title=" ">
<path fill="none" stroke="#63b8ff" d="M147.38,-56.34C147.38,-49.72 147.38,-40.72 147.38,-32.52"/>
<polygon fill="#63b8ff" stroke="#63b8ff" points="150.88,-32.59 147.38,-22.59 143.88,-32.59 150.88,-32.59"/>
</a>
</g>
</g>
</g>
</svg>
