<?xml version="1.0" encoding="UTF-8" standalone="no"?>
<!DOCTYPE svg PUBLIC "-//W3C//DTD SVG 1.1//EN"
 "http://www.w3.org/Graphics/SVG/1.1/DTD/svg11.dtd">
<!-- Generated by graphviz version 12.1.2 (20240928.0832)
 -->
<!-- Title: packet_parse.h Pages: 1 -->
<svg width="625pt" height="313pt"
 viewBox="0.00 0.00 625.38 312.50" xmlns="http://www.w3.org/2000/svg" xmlns:xlink="http://www.w3.org/1999/xlink">
<g id="graph0" class="graph" transform="scale(1 1) rotate(0) translate(4 308.5)">
<title>packet_parse.h</title>
<!-- Node1 -->
<g id="Node000001" class="node">
<title>Node1</title>
<g id="a_Node000001"><a xlink:title=" ">
<polygon fill="#999999" stroke="#666666" points="178.75,-304.5 89.25,-304.5 89.25,-283.75 178.75,-283.75 178.75,-304.5"/>
<text text-anchor="middle" x="134" y="-291" font-family="Helvetica,sans-Serif" font-size="10.00">packet_parse.h</text>
</a>
</g>
</g>
<!-- Node2 -->
<g id="Node000002" class="node">
<title>Node2</title>
<g id="a_Node000002"><a xlink:title=" ">
<polygon fill="#e0e0e0" stroke="#999999" points="416.38,-20.75 363.62,-20.75 363.62,0 416.38,0 416.38,-20.75"/>
<text text-anchor="middle" x="390" y="-7.25" font-family="Helvetica,sans-Serif" font-size="10.00">stdint.h</text>
</a>
</g>
</g>
<!-- Node1&#45;&gt;Node2 -->
<g id="edge1_Node000001_Node000002" class="edge">
<title>Node1&#45;&gt;Node2</title>
<g id="a_edge1_Node000001_Node000002"><a xlink:title=" ">
<path fill="none" stroke="#63b8ff" d="M103.93,-283.26C64.42,-268.17 0,-235.34 0,-181.62 0,-181.62 0,-181.62 0,-122.88 0,-50.2 253.49,-22.24 351.74,-14.13"/>
<polygon fill="#63b8ff" stroke="#63b8ff" points="351.99,-17.62 361.68,-13.33 351.44,-10.64 351.99,-17.62"/>
</a>
</g>
</g>
<!-- Node3 -->
<g id="Node000003" class="node">
<title>Node3</title>
<g id="a_Node000003"><a xlink:href="adapter_8h.html" target="_top" xlink:title=" ">
<polygon fill="white" stroke="#666666" points="307.88,-247.75 228.12,-247.75 228.12,-227 307.88,-227 307.88,-247.75"/>
<text text-anchor="middle" x="268" y="-234.25" font-family="Helvetica,sans-Serif" font-size="10.00">../../adapter.h</text>
</a>
</g>
</g>
<!-- Node1&#45;&gt;Node3 -->
<g id="edge2_Node000001_Node000003" class="edge">
<title>Node1&#45;&gt;Node3</title>
<g id="a_edge2_Node000001_Node000003"><a xlink:title=" ">
<path fill="none" stroke="#63b8ff" d="M157.96,-283.34C179.01,-274.73 209.9,-262.11 233.6,-252.43"/>
<polygon fill="#63b8ff" stroke="#63b8ff" points="234.92,-255.67 242.85,-248.65 232.27,-249.19 234.92,-255.67"/>
</a>
</g>
</g>
<!-- Node4 -->
<g id="Node000004" class="node">
<title>Node4</title>
<g id="a_Node000004"><a xlink:title=" ">
<polygon fill="#e0e0e0" stroke="#999999" points="617.38,-77.5 552.62,-77.5 552.62,-56.75 617.38,-56.75 617.38,-77.5"/>
<text text-anchor="middle" x="585" y="-64" font-family="Helvetica,sans-Serif" font-size="10.00">inttypes.h</text>
</a>
</g>
</g>
<!-- Node3&#45;&gt;Node4 -->
<g id="edge3_Node000003_Node000004" class="edge">
<title>Node3&#45;&gt;Node4</title>
<g id="a_edge3_Node000003_Node000004"><a xlink:title=" ">
<path fill="none" stroke="#63b8ff" d="M308.21,-236.89C385.73,-236.93 551.34,-232.09 587,-191 611.5,-162.77 601.53,-115.64 592.8,-88.7"/>
<polygon fill="#63b8ff" stroke="#63b8ff" points="596.12,-87.58 589.5,-79.3 589.51,-89.9 596.12,-87.58"/>
</a>
</g>
</g>
<!-- Node5 -->
<g id="Node000005" class="node">
<title>Node5</title>
<g id="a_Node000005"><a xlink:title=" ">
<polygon fill="#e0e0e0" stroke="#999999" points="361.5,-77.5 300.5,-77.5 300.5,-56.75 361.5,-56.75 361.5,-77.5"/>
<text text-anchor="middle" x="331" y="-64" font-family="Helvetica,sans-Serif" font-size="10.00">stdbool.h</text>
</a>
</g>
</g>
<!-- Node3&#45;&gt;Node5 -->
<g id="edge4_Node000003_Node000005" class="edge">
<title>Node3&#45;&gt;Node5</title>
<g id="a_edge4_Node000003_Node000005"><a xlink:title=" ">
<path fill="none" stroke="#63b8ff" d="M227.94,-233.61C172.84,-228.88 78.07,-217.09 57,-191 51.2,-183.83 51.74,-177.82 57,-170.25 109.78,-94.26 226.28,-74.71 289.03,-69.75"/>
<polygon fill="#63b8ff" stroke="#63b8ff" points="289.21,-73.24 298.95,-69.06 288.73,-66.26 289.21,-73.24"/>
</a>
</g>
</g>
<!-- Node6 -->
<g id="Node000006" class="node">
<title>Node6</title>
<g id="a_Node000006"><a xlink:href="error_8h.html" target="_top" xlink:title=" ">
<polygon fill="white" stroke="#666666" points="181.88,-191 66.12,-191 66.12,-170.25 181.88,-170.25 181.88,-191"/>
<text text-anchor="middle" x="124" y="-177.5" font-family="Helvetica,sans-Serif" font-size="10.00">vlcb/platform/error.h</text>
</a>
</g>
</g>
<!-- Node3&#45;&gt;Node6 -->
<g id="edge5_Node000003_Node000006" class="edge">
<title>Node3&#45;&gt;Node6</title>
<g id="a_edge5_Node000003_Node000006"><a xlink:title=" ">
<path fill="none" stroke="#63b8ff" d="M242.26,-226.59C219.42,-217.91 185.83,-205.13 160.28,-195.42"/>
<polygon fill="#63b8ff" stroke="#63b8ff" points="161.53,-192.15 150.94,-191.87 159.04,-198.69 161.53,-192.15"/>
</a>
</g>
</g>
<!-- Node7 -->
<g id="Node000007" class="node">
<title>Node7</title>
<g id="a_Node000007"><a xlink:href="interface_8h.html" target="_top" xlink:title=" ">
<polygon fill="white" stroke="#666666" points="336.38,-191 199.62,-191 199.62,-170.25 336.38,-170.25 336.38,-191"/>
<text text-anchor="middle" x="268" y="-177.5" font-family="Helvetica,sans-Serif" font-size="10.00">vlcb/platform/interface.h</text>
</a>
</g>
</g>
<!-- Node3&#45;&gt;Node7 -->
<g id="edge6_Node000003_Node000007" class="edge">
<title>Node3&#45;&gt;Node7</title>
<g id="a_edge6_Node000003_Node000007"><a xlink:title=" ">
<path fill="none" stroke="#63b8ff" d="M268,-226.59C268,-219.97 268,-210.97 268,-202.77"/>
<polygon fill="#63b8ff" stroke="#63b8ff" points="271.5,-202.84 268,-192.84 264.5,-202.84 271.5,-202.84"/>
</a>
</g>
</g>
<!-- Node9 -->
<g id="Node000009" class="node">
<title>Node9</title>
<g id="a_Node000009"><a xlink:href="packet_8h.html" target="_top" xlink:title=" ">
<polygon fill="white" stroke="#666666" points="472,-191 354,-191 354,-170.25 472,-170.25 472,-191"/>
<text text-anchor="middle" x="413" y="-177.5" font-family="Helvetica,sans-Serif" font-size="10.00">adapter/can/packet.h</text>
</a>
</g>
</g>
<!-- Node3&#45;&gt;Node9 -->
<g id="edge8_Node000003_Node000009" class="edge">
<title>Node3&#45;&gt;Node9</title>
<g id="a_edge8_Node000003_Node000009"><a xlink:title=" ">
<path fill="none" stroke="#63b8ff" d="M293.92,-226.59C317.02,-217.87 351.04,-205.02 376.82,-195.29"/>
<polygon fill="#63b8ff" stroke="#63b8ff" points="377.77,-198.67 385.89,-191.86 375.29,-192.12 377.77,-198.67"/>
</a>
</g>
</g>
<!-- Node12 -->
<g id="Node000012" class="node">
<title>Node12</title>
<g id="a_Node000012"><a xlink:href="addr_8h.html" target="_top" xlink:title=" ">
<polygon fill="white" stroke="#666666" points="578,-191 490,-191 490,-170.25 578,-170.25 578,-191"/>
<text text-anchor="middle" x="534" y="-177.5" font-family="Helvetica,sans-Serif" font-size="10.00">vlcb/net/addr.h</text>
</a>
</g>
</g>
<!-- Node3&#45;&gt;Node12 -->
<g id="edge16_Node000003_Node000012" class="edge">
<title>Node3&#45;&gt;Node12</title>
<g id="a_edge16_Node000003_Node000012"><a xlink:title=" ">
<path fill="none" stroke="#63b8ff" d="M308.11,-228.12C353.45,-218.79 427.55,-203.54 478.44,-193.06"/>
<polygon fill="#63b8ff" stroke="#63b8ff" points="478.99,-196.52 488.08,-191.08 477.58,-189.66 478.99,-196.52"/>
</a>
</g>
</g>
<!-- Node8 -->
<g id="Node000008" class="node">
<title>Node8</title>
<g id="a_Node000008"><a xlink:title=" ">
<polygon fill="#e0e0e0" stroke="#999999" points="295.5,-134.25 240.5,-134.25 240.5,-113.5 295.5,-113.5 295.5,-134.25"/>
<text text-anchor="middle" x="268" y="-120.75" font-family="Helvetica,sans-Serif" font-size="10.00">stddef.h</text>
</a>
</g>
</g>
<!-- Node7&#45;&gt;Node8 -->
<g id="edge7_Node000007_Node000008" class="edge">
<title>Node7&#45;&gt;Node8</title>
<g id="a_edge7_Node000007_Node000008"><a xlink:title=" ">
<path fill="none" stroke="#63b8ff" d="M268,-169.84C268,-163.22 268,-154.22 268,-146.02"/>
<polygon fill="#63b8ff" stroke="#63b8ff" points="271.5,-146.09 268,-136.09 264.5,-146.09 271.5,-146.09"/>
</a>
</g>
</g>
<!-- Node9&#45;&gt;Node5 -->
<g id="edge9_Node000009_Node000005" class="edge">
<title>Node9&#45;&gt;Node5</title>
<g id="a_edge9_Node000009_Node000005"><a xlink:title=" ">
<path fill="none" stroke="#63b8ff" d="M401.78,-169.91C392.11,-161.19 378.15,-147.72 368,-134.25 356.99,-119.64 347.03,-101.39 340.22,-87.77"/>
<polygon fill="#63b8ff" stroke="#63b8ff" points="343.46,-86.43 335.95,-78.95 337.16,-89.48 343.46,-86.43"/>
</a>
</g>
</g>
<!-- Node10 -->
<g id="Node000010" class="node">
<title>Node10</title>
<g id="a_Node000010"><a xlink:href="common_2inc_2vlcb_2common_2can_8h.html" target="_top" xlink:title=" ">
<polygon fill="white" stroke="#666666" points="488.62,-134.25 377.38,-134.25 377.38,-113.5 488.62,-113.5 488.62,-134.25"/>
<text text-anchor="middle" x="433" y="-120.75" font-family="Helvetica,sans-Serif" font-size="10.00">vlcb/common/can.h</text>
</a>
</g>
</g>
<!-- Node9&#45;&gt;Node10 -->
<g id="edge10_Node000009_Node000010" class="edge">
<title>Node9&#45;&gt;Node10</title>
<g id="a_edge10_Node000009_Node000010"><a xlink:title=" ">
<path fill="none" stroke="#63b8ff" d="M416.58,-169.84C419.08,-162.99 422.51,-153.59 425.59,-145.15"/>
<polygon fill="#63b8ff" stroke="#63b8ff" points="428.79,-146.59 428.94,-136 422.22,-144.19 428.79,-146.59"/>
</a>
</g>
</g>
<!-- Node10&#45;&gt;Node2 -->
<g id="edge13_Node000010_Node000002" class="edge">
<title>Node10&#45;&gt;Node2</title>
<g id="a_edge13_Node000010_Node000002"><a xlink:title=" ">
<path fill="none" stroke="#63b8ff" d="M427.05,-113.07C421.77,-104.06 414.13,-90.23 409,-77.5 403.04,-62.72 398.14,-45.4 394.8,-32.19"/>
<polygon fill="#63b8ff" stroke="#63b8ff" points="398.21,-31.37 392.46,-22.47 391.4,-33.01 398.21,-31.37"/>
</a>
</g>
</g>
<!-- Node10&#45;&gt;Node4 -->
<g id="edge11_Node000010_Node000004" class="edge">
<title>Node10&#45;&gt;Node4</title>
<g id="a_edge11_Node000010_Node000004"><a xlink:title=" ">
<path fill="none" stroke="#63b8ff" d="M460.17,-113.09C484.42,-104.36 520.15,-91.48 547.18,-81.75"/>
<polygon fill="#63b8ff" stroke="#63b8ff" points="548.16,-85.12 556.38,-78.43 545.79,-78.53 548.16,-85.12"/>
</a>
</g>
</g>
<!-- Node10&#45;&gt;Node5 -->
<g id="edge12_Node000010_Node000005" class="edge">
<title>Node10&#45;&gt;Node5</title>
<g id="a_edge12_Node000010_Node000005"><a xlink:title=" ">
<path fill="none" stroke="#63b8ff" d="M414.76,-113.09C399.32,-104.8 376.91,-92.77 359.16,-83.24"/>
<polygon fill="#63b8ff" stroke="#63b8ff" points="360.88,-80.19 350.41,-78.54 357.57,-86.36 360.88,-80.19"/>
</a>
</g>
</g>
<!-- Node11 -->
<g id="Node000011" class="node">
<title>Node11</title>
<g id="a_Node000011"><a xlink:href="opcode_8h.html" target="_top" xlink:title=" ">
<polygon fill="white" stroke="#666666" points="478.12,-77.5 417.88,-77.5 417.88,-56.75 478.12,-56.75 478.12,-77.5"/>
<text text-anchor="middle" x="448" y="-64" font-family="Helvetica,sans-Serif" font-size="10.00">opcode.h</text>
</a>
</g>
</g>
<!-- Node10&#45;&gt;Node11 -->
<g id="edge14_Node000010_Node000011" class="edge">
<title>Node10&#45;&gt;Node11</title>
<g id="a_edge14_Node000010_Node000011"><a xlink:title=" ">
<path fill="none" stroke="#63b8ff" d="M435.68,-113.09C437.54,-106.31 440.08,-97.05 442.37,-88.69"/>
<polygon fill="#63b8ff" stroke="#63b8ff" points="445.67,-89.86 444.94,-79.29 438.92,-88.01 445.67,-89.86"/>
</a>
</g>
</g>
<!-- Node11&#45;&gt;Node2 -->
<g id="edge15_Node000011_Node000002" class="edge">
<title>Node11&#45;&gt;Node2</title>
<g id="a_edge15_Node000011_Node000002"><a xlink:title=" ">
<path fill="none" stroke="#63b8ff" d="M437.63,-56.34C429.55,-48.71 418.12,-37.92 408.48,-28.82"/>
<polygon fill="#63b8ff" stroke="#63b8ff" points="411.05,-26.44 401.38,-22.12 406.25,-31.53 411.05,-26.44"/>
</a>
</g>
</g>
<!-- Node12&#45;&gt;Node10 -->
<g id="edge17_Node000012_Node000010" class="edge">
<title>Node12&#45;&gt;Node10</title>
<g id="a_edge17_Node000012_Node000010"><a xlink:title=" ">
<path fill="none" stroke="#63b8ff" d="M515.94,-169.84C500.58,-161.51 478.26,-149.41 460.64,-139.86"/>
<polygon fill="#63b8ff" stroke="#63b8ff" points="462.69,-136.99 452.23,-135.3 459.35,-143.14 462.69,-136.99"/>
</a>
</g>
</g>
</g>
</svg>
