<?xml version="1.0" encoding="UTF-8" standalone="no"?>
<!DOCTYPE svg PUBLIC "-//W3C//DTD SVG 1.1//EN"
 "http://www.w3.org/Graphics/SVG/1.1/DTD/svg11.dtd">
<!-- Generated by graphviz version 12.1.2 (20240928.0832)
 -->
<!-- Title: packet_buf.c Pages: 1 -->
<svg width="370pt" height="155pt"
 viewBox="0.00 0.00 369.88 155.00" xmlns="http://www.w3.org/2000/svg" xmlns:xlink="http://www.w3.org/1999/xlink">
<g id="graph0" class="graph" transform="scale(1 1) rotate(0) translate(4 151)">
<title>packet_buf.c</title>
<!-- Node1 -->
<g id="Node000001" class="node">
<title>Node1</title>
<g id="a_Node000001"><a xlink:title=" ">
<polygon fill="#999999" stroke="#666666" points="245.88,-147 169.12,-147 169.12,-126.25 245.88,-126.25 245.88,-147"/>
<text text-anchor="middle" x="207.5" y="-133.5" font-family="Helvetica,sans-Serif" font-size="10.00">packet_buf.c</text>
</a>
</g>
</g>
<!-- Node2 -->
<g id="Node000002" class="node">
<title>Node2</title>
<g id="a_Node000002"><a xlink:href="packet__buf_8h.html" target="_top" xlink:title=" ">
<polygon fill="white" stroke="#666666" points="179.5,-90.25 49.5,-90.25 49.5,-56.75 179.5,-56.75 179.5,-90.25"/>
<text text-anchor="start" x="57.5" y="-76.75" font-family="Helvetica,sans-Serif" font-size="10.00">vlcb/net/storage/packet</text>
<text text-anchor="middle" x="114.5" y="-64" font-family="Helvetica,sans-Serif" font-size="10.00">_buf.h</text>
</a>
</g>
</g>
<!-- Node1&#45;&gt;Node2 -->
<g id="edge1_Node000001_Node000002" class="edge">
<title>Node1&#45;&gt;Node2</title>
<g id="a_edge1_Node000001_Node000002"><a xlink:title=" ">
<path fill="none" stroke="#63b8ff" d="M192.56,-125.8C180.76,-118.05 163.84,-106.93 148.77,-97.02"/>
<polygon fill="#63b8ff" stroke="#63b8ff" points="150.74,-94.13 140.47,-91.57 146.9,-99.98 150.74,-94.13"/>
</a>
</g>
</g>
<!-- Node3 -->
<g id="Node000003" class="node">
<title>Node3</title>
<g id="a_Node000003"><a xlink:title=" ">
<polygon fill="#e0e0e0" stroke="#999999" points="61,-20.75 0,-20.75 0,0 61,0 61,-20.75"/>
<text text-anchor="middle" x="30.5" y="-7.25" font-family="Helvetica,sans-Serif" font-size="10.00">stdbool.h</text>
</a>
</g>
</g>
<!-- Node1&#45;&gt;Node3 -->
<g id="edge6_Node000001_Node000003" class="edge">
<title>Node1&#45;&gt;Node3</title>
<g id="a_edge6_Node000001_Node000003"><a xlink:title=" ">
<path fill="none" stroke="#63b8ff" d="M168.91,-130.17C125,-123.13 57.21,-109.46 40.5,-90.25 26.87,-74.58 25.81,-50.08 27.25,-32.54"/>
<polygon fill="#63b8ff" stroke="#63b8ff" points="30.71,-33.08 28.42,-22.73 23.76,-32.25 30.71,-33.08"/>
</a>
</g>
</g>
<!-- Node4 -->
<g id="Node000004" class="node">
<title>Node4</title>
<g id="a_Node000004"><a xlink:title=" ">
<polygon fill="#e0e0e0" stroke="#999999" points="224,-20.75 169,-20.75 169,0 224,0 224,-20.75"/>
<text text-anchor="middle" x="196.5" y="-7.25" font-family="Helvetica,sans-Serif" font-size="10.00">stddef.h</text>
</a>
</g>
</g>
<!-- Node1&#45;&gt;Node4 -->
<g id="edge7_Node000001_Node000004" class="edge">
<title>Node1&#45;&gt;Node4</title>
<g id="a_edge7_Node000001_Node000004"><a xlink:title=" ">
<path fill="none" stroke="#63b8ff" d="M206.64,-125.88C204.86,-105.82 200.77,-59.57 198.36,-32.38"/>
<polygon fill="#63b8ff" stroke="#63b8ff" points="201.86,-32.24 197.49,-22.59 194.89,-32.86 201.86,-32.24"/>
</a>
</g>
</g>
<!-- Node6 -->
<g id="Node000006" class="node">
<title>Node6</title>
<g id="a_Node000006"><a xlink:title=" ">
<polygon fill="#e0e0e0" stroke="#999999" points="291,-83.88 236,-83.88 236,-63.12 291,-63.12 291,-83.88"/>
<text text-anchor="middle" x="263.5" y="-70.38" font-family="Helvetica,sans-Serif" font-size="10.00">assert.h</text>
</a>
</g>
</g>
<!-- Node1&#45;&gt;Node6 -->
<g id="edge5_Node000001_Node000006" class="edge">
<title>Node1&#45;&gt;Node6</title>
<g id="a_edge5_Node000001_Node000006"><a xlink:title=" ">
<path fill="none" stroke="#63b8ff" d="M216.5,-125.8C224.71,-116.84 237.05,-103.37 247.03,-92.48"/>
<polygon fill="#63b8ff" stroke="#63b8ff" points="249.51,-94.95 253.69,-85.21 244.35,-90.22 249.51,-94.95"/>
</a>
</g>
</g>
<!-- Node7 -->
<g id="Node000007" class="node">
<title>Node7</title>
<g id="a_Node000007"><a xlink:title=" ">
<polygon fill="#e0e0e0" stroke="#999999" points="361.88,-83.88 309.12,-83.88 309.12,-63.12 361.88,-63.12 361.88,-83.88"/>
<text text-anchor="middle" x="335.5" y="-70.38" font-family="Helvetica,sans-Serif" font-size="10.00">string.h</text>
</a>
</g>
</g>
<!-- Node1&#45;&gt;Node7 -->
<g id="edge8_Node000001_Node000007" class="edge">
<title>Node1&#45;&gt;Node7</title>
<g id="a_edge8_Node000001_Node000007"><a xlink:title=" ">
<path fill="none" stroke="#63b8ff" d="M228.07,-125.8C248.78,-115.91 280.99,-100.53 304.74,-89.19"/>
<polygon fill="#63b8ff" stroke="#63b8ff" points="306.1,-92.42 313.62,-84.95 303.09,-86.1 306.1,-92.42"/>
</a>
</g>
</g>
<!-- Node2&#45;&gt;Node3 -->
<g id="edge2_Node000002_Node000003" class="edge">
<title>Node2&#45;&gt;Node3</title>
<g id="a_edge2_Node000002_Node000003"><a xlink:title=" ">
<path fill="none" stroke="#63b8ff" d="M92.43,-56.44C80.31,-47.62 65.31,-36.7 53.1,-27.82"/>
<polygon fill="#63b8ff" stroke="#63b8ff" points="55.39,-25.16 45.25,-22.11 51.28,-30.82 55.39,-25.16"/>
</a>
</g>
</g>
<!-- Node2&#45;&gt;Node4 -->
<g id="edge3_Node000002_Node000004" class="edge">
<title>Node2&#45;&gt;Node4</title>
<g id="a_edge3_Node000002_Node000004"><a xlink:title=" ">
<path fill="none" stroke="#63b8ff" d="M136.04,-56.44C147.76,-47.71 162.23,-36.92 174.08,-28.09"/>
<polygon fill="#63b8ff" stroke="#63b8ff" points="176.16,-30.9 182.08,-22.12 171.97,-25.29 176.16,-30.9"/>
</a>
</g>
</g>
<!-- Node5 -->
<g id="Node000005" class="node">
<title>Node5</title>
<g id="a_Node000005"><a xlink:title=" ">
<polygon fill="#e0e0e0" stroke="#999999" points="140.88,-20.75 88.12,-20.75 88.12,0 140.88,0 140.88,-20.75"/>
<text text-anchor="middle" x="114.5" y="-7.25" font-family="Helvetica,sans-Serif" font-size="10.00">stdint.h</text>
</a>
</g>
</g>
<!-- Node2&#45;&gt;Node5 -->
<g id="edge4_Node000002_Node000005" class="edge">
<title>Node2&#45;&gt;Node5</title>
<g id="a_edge4_Node000002_Node000005"><a xlink:title=" ">
<path fill="none" stroke="#63b8ff" d="M114.5,-56.44C114.5,-49.1 114.5,-40.32 114.5,-32.46"/>
<polygon fill="#63b8ff" stroke="#63b8ff" points="118,-32.73 114.5,-22.73 111,-32.73 118,-32.73"/>
</a>
</g>
</g>
</g>
</svg>
