<?xml version="1.0" encoding="UTF-8" standalone="no"?>
<!DOCTYPE svg PUBLIC "-//W3C//DTD SVG 1.1//EN"
 "http://www.w3.org/Graphics/SVG/1.1/DTD/svg11.dtd">
<!-- Generated by graphviz version 12.1.2 (20240928.0832)
 -->
<!-- Title: packet_parse.h Pages: 1 -->
<svg width="628pt" height="313pt"
 viewBox="0.00 0.00 628.38 312.50" xmlns="http://www.w3.org/2000/svg" xmlns:xlink="http://www.w3.org/1999/xlink">
<g id="graph0" class="graph" transform="scale(1 1) rotate(0) translate(4 308.5)">
<title>packet_parse.h</title>
<!-- Node1 -->
<g id="Node000001" class="node">
<title>Node1</title>
<g id="a_Node000001"><a xlink:title=" ">
<polygon fill="#999999" stroke="#666666" points="178.75,-304.5 89.25,-304.5 89.25,-283.75 178.75,-283.75 178.75,-304.5"/>
<text text-anchor="middle" x="134" y="-291" font-family="Helvetica,sans-Serif" font-size="10.00">packet_parse.h</text>
</a>
</g>
</g>
<!-- Node2 -->
<g id="Node000002" class="node">
<title>Node2</title>
<g id="a_Node000002"><a xlink:title=" ">
<polygon fill="#e0e0e0" stroke="#999999" points="411.38,-20.75 358.62,-20.75 358.62,0 411.38,0 411.38,-20.75"/>
<text text-anchor="middle" x="385" y="-7.25" font-family="Helvetica,sans-Serif" font-size="10.00">stdint.h</text>
</a>
</g>
</g>
<!-- Node1&#45;&gt;Node2 -->
<g id="edge1_Node000001_Node000002" class="edge">
<title>Node1&#45;&gt;Node2</title>
<g id="a_edge1_Node000001_Node000002"><a xlink:title=" ">
<path fill="none" stroke="#63b8ff" d="M103.93,-283.26C64.42,-268.17 0,-235.34 0,-181.62 0,-181.62 0,-181.62 0,-122.88 0,-51.15 249.66,-22.64 346.89,-14.25"/>
<polygon fill="#63b8ff" stroke="#63b8ff" points="347.05,-17.75 356.72,-13.43 346.47,-10.78 347.05,-17.75"/>
</a>
</g>
</g>
<!-- Node3 -->
<g id="Node000003" class="node">
<title>Node3</title>
<g id="a_Node000003"><a xlink:href="adapter_8h.html" target="_top" xlink:title=" ">
<polygon fill="white" stroke="#666666" points="307.88,-247.75 228.12,-247.75 228.12,-227 307.88,-227 307.88,-247.75"/>
<text text-anchor="middle" x="268" y="-234.25" font-family="Helvetica,sans-Serif" font-size="10.00">../../adapter.h</text>
</a>
</g>
</g>
<!-- Node1&#45;&gt;Node3 -->
<g id="edge2_Node000001_Node000003" class="edge">
<title>Node1&#45;&gt;Node3</title>
<g id="a_edge2_Node000001_Node000003"><a xlink:title=" ">
<path fill="none" stroke="#63b8ff" d="M157.96,-283.34C179.01,-274.73 209.9,-262.11 233.6,-252.43"/>
<polygon fill="#63b8ff" stroke="#63b8ff" points="234.92,-255.67 242.85,-248.65 232.27,-249.19 234.92,-255.67"/>
</a>
</g>
</g>
<!-- Node4 -->
<g id="Node000004" class="node">
<title>Node4</title>
<g id="a_Node000004"><a xlink:title=" ">
<polygon fill="#e0e0e0" stroke="#999999" points="620.38,-77.5 555.62,-77.5 555.62,-56.75 620.38,-56.75 620.38,-77.5"/>
<text text-anchor="middle" x="588" y="-64" font-family="Helvetica,sans-Serif" font-size="10.00">inttypes.h</text>
</a>
</g>
</g>
<!-- Node3&#45;&gt;Node4 -->
<g id="edge3_Node000003_Node000004" class="edge">
<title>Node3&#45;&gt;Node4</title>
<g id="a_edge3_Node000003_Node000004"><a xlink:title=" ">
<path fill="none" stroke="#63b8ff" d="M308.18,-236.87C385.65,-236.86 551.18,-231.94 587,-191 611.61,-162.88 603.01,-115.71 595.12,-88.73"/>
<polygon fill="#63b8ff" stroke="#63b8ff" points="598.5,-87.8 592.13,-79.33 591.83,-89.92 598.5,-87.8"/>
</a>
</g>
</g>
<!-- Node5 -->
<g id="Node000005" class="node">
<title>Node5</title>
<g id="a_Node000005"><a xlink:title=" ">
<polygon fill="#e0e0e0" stroke="#999999" points="356.5,-77.5 295.5,-77.5 295.5,-56.75 356.5,-56.75 356.5,-77.5"/>
<text text-anchor="middle" x="326" y="-64" font-family="Helvetica,sans-Serif" font-size="10.00">stdbool.h</text>
</a>
</g>
</g>
<!-- Node3&#45;&gt;Node5 -->
<g id="edge4_Node000003_Node000005" class="edge">
<title>Node3&#45;&gt;Node5</title>
<g id="a_edge4_Node000003_Node000005"><a xlink:title=" ">
<path fill="none" stroke="#63b8ff" d="M227.94,-233.61C172.84,-228.88 78.07,-217.09 57,-191 51.2,-183.83 51.76,-177.84 57,-170.25 108.44,-95.7 221.95,-75.52 283.81,-70.09"/>
<polygon fill="#63b8ff" stroke="#63b8ff" points="283.88,-73.6 293.58,-69.34 283.34,-66.62 283.88,-73.6"/>
</a>
</g>
</g>
<!-- Node6 -->
<g id="Node000006" class="node">
<title>Node6</title>
<g id="a_Node000006"><a xlink:href="error_8h.html" target="_top" xlink:title=" ">
<polygon fill="white" stroke="#666666" points="181.88,-191 66.12,-191 66.12,-170.25 181.88,-170.25 181.88,-191"/>
<text text-anchor="middle" x="124" y="-177.5" font-family="Helvetica,sans-Serif" font-size="10.00">vlcb/platform/error.h</text>
</a>
</g>
</g>
<!-- Node3&#45;&gt;Node6 -->
<g id="edge5_Node000003_Node000006" class="edge">
<title>Node3&#45;&gt;Node6</title>
<g id="a_edge5_Node000003_Node000006"><a xlink:title=" ">
<path fill="none" stroke="#63b8ff" d="M242.26,-226.59C219.42,-217.91 185.83,-205.13 160.28,-195.42"/>
<polygon fill="#63b8ff" stroke="#63b8ff" points="161.53,-192.15 150.94,-191.87 159.04,-198.69 161.53,-192.15"/>
</a>
</g>
</g>
<!-- Node7 -->
<g id="Node000007" class="node">
<title>Node7</title>
<g id="a_Node000007"><a xlink:href="interface_8h.html" target="_top" xlink:title=" ">
<polygon fill="white" stroke="#666666" points="336.38,-191 199.62,-191 199.62,-170.25 336.38,-170.25 336.38,-191"/>
<text text-anchor="middle" x="268" y="-177.5" font-family="Helvetica,sans-Serif" font-size="10.00">vlcb/platform/interface.h</text>
</a>
</g>
</g>
<!-- Node3&#45;&gt;Node7 -->
<g id="edge6_Node000003_Node000007" class="edge">
<title>Node3&#45;&gt;Node7</title>
<g id="a_edge6_Node000003_Node000007"><a xlink:title=" ">
<path fill="none" stroke="#63b8ff" d="M268,-226.59C268,-219.97 268,-210.97 268,-202.77"/>
<polygon fill="#63b8ff" stroke="#63b8ff" points="271.5,-202.84 268,-192.84 264.5,-202.84 271.5,-202.84"/>
</a>
</g>
</g>
<!-- Node9 -->
<g id="Node000009" class="node">
<title>Node9</title>
<g id="a_Node000009"><a xlink:href="packet_8h.html" target="_top" xlink:title=" ">
<polygon fill="white" stroke="#666666" points="472,-191 354,-191 354,-170.25 472,-170.25 472,-191"/>
<text text-anchor="middle" x="413" y="-177.5" font-family="Helvetica,sans-Serif" font-size="10.00">adapter/can/packet.h</text>
</a>
</g>
</g>
<!-- Node3&#45;&gt;Node9 -->
<g id="edge8_Node000003_Node000009" class="edge">
<title>Node3&#45;&gt;Node9</title>
<g id="a_edge8_Node000003_Node000009"><a xlink:title=" ">
<path fill="none" stroke="#63b8ff" d="M293.92,-226.59C317.02,-217.87 351.04,-205.02 376.82,-195.29"/>
<polygon fill="#63b8ff" stroke="#63b8ff" points="377.77,-198.67 385.89,-191.86 375.29,-192.12 377.77,-198.67"/>
</a>
</g>
</g>
<!-- Node12 -->
<g id="Node000012" class="node">
<title>Node12</title>
<g id="a_Node000012"><a xlink:href="addr_8h.html" target="_top" xlink:title=" ">
<polygon fill="white" stroke="#666666" points="578,-191 490,-191 490,-170.25 578,-170.25 578,-191"/>
<text text-anchor="middle" x="534" y="-177.5" font-family="Helvetica,sans-Serif" font-size="10.00">vlcb/net/addr.h</text>
</a>
</g>
</g>
<!-- Node3&#45;&gt;Node12 -->
<g id="edge16_Node000003_Node000012" class="edge">
<title>Node3&#45;&gt;Node12</title>
<g id="a_edge16_Node000003_Node000012"><a xlink:title=" ">
<path fill="none" stroke="#63b8ff" d="M308.11,-228.12C353.45,-218.79 427.55,-203.54 478.44,-193.06"/>
<polygon fill="#63b8ff" stroke="#63b8ff" points="478.99,-196.52 488.08,-191.08 477.58,-189.66 478.99,-196.52"/>
</a>
</g>
</g>
<!-- Node8 -->
<g id="Node000008" class="node">
<title>Node8</title>
<g id="a_Node000008"><a xlink:title=" ">
<polygon fill="#e0e0e0" stroke="#999999" points="295.5,-134.25 240.5,-134.25 240.5,-113.5 295.5,-113.5 295.5,-134.25"/>
<text text-anchor="middle" x="268" y="-120.75" font-family="Helvetica,sans-Serif" font-size="10.00">stddef.h</text>
</a>
</g>
</g>
<!-- Node7&#45;&gt;Node8 -->
<g id="edge7_Node000007_Node000008" class="edge">
<title>Node7&#45;&gt;Node8</title>
<g id="a_edge7_Node000007_Node000008"><a xlink:title=" ">
<path fill="none" stroke="#63b8ff" d="M268,-169.84C268,-163.22 268,-154.22 268,-146.02"/>
<polygon fill="#63b8ff" stroke="#63b8ff" points="271.5,-146.09 268,-136.09 264.5,-146.09 271.5,-146.09"/>
</a>
</g>
</g>
<!-- Node9&#45;&gt;Node5 -->
<g id="edge9_Node000009_Node000005" class="edge">
<title>Node9&#45;&gt;Node5</title>
<g id="a_edge9_Node000009_Node000005"><a xlink:title=" ">
<path fill="none" stroke="#63b8ff" d="M401.36,-169.92C391.31,-161.2 376.75,-147.73 366,-134.25 354.25,-119.52 343.35,-101.05 335.91,-87.38"/>
<polygon fill="#63b8ff" stroke="#63b8ff" points="339.21,-86.14 331.44,-78.94 333.03,-89.41 339.21,-86.14"/>
</a>
</g>
</g>
<!-- Node10 -->
<g id="Node000010" class="node">
<title>Node10</title>
<g id="a_Node000010"><a xlink:href="common_2inc_2vlcb_2common_2can_8h.html" target="_top" xlink:title=" ">
<polygon fill="white" stroke="#666666" points="486.62,-134.25 375.38,-134.25 375.38,-113.5 486.62,-113.5 486.62,-134.25"/>
<text text-anchor="middle" x="431" y="-120.75" font-family="Helvetica,sans-Serif" font-size="10.00">vlcb/common/can.h</text>
</a>
</g>
</g>
<!-- Node9&#45;&gt;Node10 -->
<g id="edge10_Node000009_Node000010" class="edge">
<title>Node9&#45;&gt;Node10</title>
<g id="a_edge10_Node000009_Node000010"><a xlink:title=" ">
<path fill="none" stroke="#63b8ff" d="M416.22,-169.84C418.44,-163.06 421.49,-153.8 424.24,-145.44"/>
<polygon fill="#63b8ff" stroke="#63b8ff" points="427.54,-146.61 427.34,-136.02 420.89,-144.42 427.54,-146.61"/>
</a>
</g>
</g>
<!-- Node10&#45;&gt;Node2 -->
<g id="edge13_Node000010_Node000002" class="edge">
<title>Node10&#45;&gt;Node2</title>
<g id="a_edge13_Node000010_Node000002"><a xlink:title=" ">
<path fill="none" stroke="#63b8ff" d="M424.23,-113.18C418.24,-104.24 409.6,-90.46 404,-77.5 397.61,-62.73 392.68,-45.19 389.45,-31.88"/>
<polygon fill="#63b8ff" stroke="#63b8ff" points="392.95,-31.5 387.3,-22.53 386.13,-33.06 392.95,-31.5"/>
</a>
</g>
</g>
<!-- Node10&#45;&gt;Node4 -->
<g id="edge11_Node000010_Node000004" class="edge">
<title>Node10&#45;&gt;Node4</title>
<g id="a_edge11_Node000010_Node000004"><a xlink:title=" ">
<path fill="none" stroke="#63b8ff" d="M459.07,-113.09C484.22,-104.32 521.35,-91.37 549.31,-81.62"/>
<polygon fill="#63b8ff" stroke="#63b8ff" points="550.19,-85.02 558.48,-78.42 547.89,-78.41 550.19,-85.02"/>
</a>
</g>
</g>
<!-- Node10&#45;&gt;Node5 -->
<g id="edge12_Node000010_Node000005" class="edge">
<title>Node10&#45;&gt;Node5</title>
<g id="a_edge12_Node000010_Node000005"><a xlink:title=" ">
<path fill="none" stroke="#63b8ff" d="M412.23,-113.09C396.25,-104.76 373.05,-92.66 354.74,-83.11"/>
<polygon fill="#63b8ff" stroke="#63b8ff" points="356.44,-80.05 345.95,-78.53 353.2,-86.26 356.44,-80.05"/>
</a>
</g>
</g>
<!-- Node11 -->
<g id="Node000011" class="node">
<title>Node11</title>
<g id="a_Node000011"><a xlink:href="vlcb__defs_8h.html" target="_top" xlink:title=" ">
<polygon fill="white" stroke="#666666" points="484.75,-77.5 413.25,-77.5 413.25,-56.75 484.75,-56.75 484.75,-77.5"/>
<text text-anchor="middle" x="449" y="-64" font-family="Helvetica,sans-Serif" font-size="10.00">vlcb_defs.h</text>
</a>
</g>
</g>
<!-- Node10&#45;&gt;Node11 -->
<g id="edge14_Node000010_Node000011" class="edge">
<title>Node10&#45;&gt;Node11</title>
<g id="a_edge14_Node000010_Node000011"><a xlink:title=" ">
<path fill="none" stroke="#63b8ff" d="M434.22,-113.09C436.44,-106.31 439.49,-97.05 442.24,-88.69"/>
<polygon fill="#63b8ff" stroke="#63b8ff" points="445.54,-89.86 445.34,-79.27 438.89,-87.67 445.54,-89.86"/>
</a>
</g>
</g>
<!-- Node11&#45;&gt;Node2 -->
<g id="edge15_Node000011_Node000002" class="edge">
<title>Node11&#45;&gt;Node2</title>
<g id="a_edge15_Node000011_Node000002"><a xlink:title=" ">
<path fill="none" stroke="#63b8ff" d="M437.56,-56.34C428.55,-48.63 415.77,-37.7 405.07,-28.54"/>
<polygon fill="#63b8ff" stroke="#63b8ff" points="407.37,-25.9 397.49,-22.06 402.82,-31.22 407.37,-25.9"/>
</a>
</g>
</g>
<!-- Node12&#45;&gt;Node10 -->
<g id="edge17_Node000012_Node000010" class="edge">
<title>Node12&#45;&gt;Node10</title>
<g id="a_edge17_Node000012_Node000010"><a xlink:title=" ">
<path fill="none" stroke="#63b8ff" d="M515.59,-169.84C499.91,-161.51 477.15,-149.41 459.19,-139.86"/>
<polygon fill="#63b8ff" stroke="#63b8ff" points="461.06,-136.89 450.59,-135.29 457.78,-143.07 461.06,-136.89"/>
</a>
</g>
</g>
</g>
</svg>
