<?xml version="1.0" encoding="UTF-8" standalone="no"?>
<!DOCTYPE svg PUBLIC "-//W3C//DTD SVG 1.1//EN"
 "http://www.w3.org/Graphics/SVG/1.1/DTD/svg11.dtd">
<!-- Generated by graphviz version 12.1.2 (20240928.0832)
 -->
<!-- Title: packet_buf.c Pages: 1 -->
<svg width="333pt" height="155pt"
 viewBox="0.00 0.00 332.88 155.00" xmlns="http://www.w3.org/2000/svg" xmlns:xlink="http://www.w3.org/1999/xlink">
<g id="graph0" class="graph" transform="scale(1 1) rotate(0) translate(4 151)">
<title>packet_buf.c</title>
<!-- Node1 -->
<g id="Node000001" class="node">
<title>Node1</title>
<g id="a_Node000001"><a xlink:title=" ">
<polygon fill="#999999" stroke="#666666" points="208.88,-147 132.12,-147 132.12,-126.25 208.88,-126.25 208.88,-147"/>
<text text-anchor="middle" x="170.5" y="-133.5" font-family="Helvetica,sans-Serif" font-size="10.00">packet_buf.c</text>
</a>
</g>
</g>
<!-- Node2 -->
<g id="Node000002" class="node">
<title>Node2</title>
<g id="a_Node000002"><a xlink:href="packet__buf_8h.html" target="_top" xlink:title=" ">
<polygon fill="white" stroke="#666666" points="180.5,-90.25 50.5,-90.25 50.5,-56.75 180.5,-56.75 180.5,-90.25"/>
<text text-anchor="start" x="58.5" y="-76.75" font-family="Helvetica,sans-Serif" font-size="10.00">vlcb/net/storage/packet</text>
<text text-anchor="middle" x="115.5" y="-64" font-family="Helvetica,sans-Serif" font-size="10.00">_buf.h</text>
</a>
</g>
</g>
<!-- Node1&#45;&gt;Node2 -->
<g id="edge1_Node000001_Node000002" class="edge">
<title>Node1&#45;&gt;Node2</title>
<g id="a_edge1_Node000001_Node000002"><a xlink:title=" ">
<path fill="none" stroke="#63b8ff" d="M161.66,-125.8C155.15,-118.57 146,-108.4 137.56,-99.02"/>
<polygon fill="#63b8ff" stroke="#63b8ff" points="140.41,-96.95 131.12,-91.86 135.21,-101.63 140.41,-96.95"/>
</a>
</g>
</g>
<!-- Node3 -->
<g id="Node000003" class="node">
<title>Node3</title>
<g id="a_Node000003"><a xlink:title=" ">
<polygon fill="#e0e0e0" stroke="#999999" points="61,-20.75 0,-20.75 0,0 61,0 61,-20.75"/>
<text text-anchor="middle" x="30.5" y="-7.25" font-family="Helvetica,sans-Serif" font-size="10.00">stdbool.h</text>
</a>
</g>
</g>
<!-- Node1&#45;&gt;Node3 -->
<g id="edge6_Node000001_Node000003" class="edge">
<title>Node1&#45;&gt;Node3</title>
<g id="a_edge6_Node000001_Node000003"><a xlink:title=" ">
<path fill="none" stroke="#63b8ff" d="M131.67,-132.55C102.32,-128.07 63.44,-117.08 41.5,-90.25 28.39,-74.22 26.86,-49.96 27.84,-32.58"/>
<polygon fill="#63b8ff" stroke="#63b8ff" points="31.32,-32.9 28.76,-22.62 24.35,-32.26 31.32,-32.9"/>
</a>
</g>
</g>
<!-- Node6 -->
<g id="Node000006" class="node">
<title>Node6</title>
<g id="a_Node000006"><a xlink:title=" ">
<polygon fill="#e0e0e0" stroke="#999999" points="254,-83.88 199,-83.88 199,-63.12 254,-63.12 254,-83.88"/>
<text text-anchor="middle" x="226.5" y="-70.38" font-family="Helvetica,sans-Serif" font-size="10.00">assert.h</text>
</a>
</g>
</g>
<!-- Node1&#45;&gt;Node6 -->
<g id="edge5_Node000001_Node000006" class="edge">
<title>Node1&#45;&gt;Node6</title>
<g id="a_edge5_Node000001_Node000006"><a xlink:title=" ">
<path fill="none" stroke="#63b8ff" d="M179.5,-125.8C187.71,-116.84 200.05,-103.37 210.03,-92.48"/>
<polygon fill="#63b8ff" stroke="#63b8ff" points="212.51,-94.95 216.69,-85.21 207.35,-90.22 212.51,-94.95"/>
</a>
</g>
</g>
<!-- Node7 -->
<g id="Node000007" class="node">
<title>Node7</title>
<g id="a_Node000007"><a xlink:title=" ">
<polygon fill="#e0e0e0" stroke="#999999" points="324.88,-83.88 272.12,-83.88 272.12,-63.12 324.88,-63.12 324.88,-83.88"/>
<text text-anchor="middle" x="298.5" y="-70.38" font-family="Helvetica,sans-Serif" font-size="10.00">string.h</text>
</a>
</g>
</g>
<!-- Node1&#45;&gt;Node7 -->
<g id="edge7_Node000001_Node000007" class="edge">
<title>Node1&#45;&gt;Node7</title>
<g id="a_edge7_Node000001_Node000007"><a xlink:title=" ">
<path fill="none" stroke="#63b8ff" d="M191.07,-125.8C211.78,-115.91 243.99,-100.53 267.74,-89.19"/>
<polygon fill="#63b8ff" stroke="#63b8ff" points="269.1,-92.42 276.62,-84.95 266.09,-86.1 269.1,-92.42"/>
</a>
</g>
</g>
<!-- Node2&#45;&gt;Node3 -->
<g id="edge2_Node000002_Node000003" class="edge">
<title>Node2&#45;&gt;Node3</title>
<g id="a_edge2_Node000002_Node000003"><a xlink:title=" ">
<path fill="none" stroke="#63b8ff" d="M93.17,-56.44C80.9,-47.62 65.72,-36.7 53.37,-27.82"/>
<polygon fill="#63b8ff" stroke="#63b8ff" points="55.58,-25.1 45.42,-22.1 51.49,-30.78 55.58,-25.1"/>
</a>
</g>
</g>
<!-- Node4 -->
<g id="Node000004" class="node">
<title>Node4</title>
<g id="a_Node000004"><a xlink:title=" ">
<polygon fill="#e0e0e0" stroke="#999999" points="138,-20.75 83,-20.75 83,0 138,0 138,-20.75"/>
<text text-anchor="middle" x="110.5" y="-7.25" font-family="Helvetica,sans-Serif" font-size="10.00">stddef.h</text>
</a>
</g>
</g>
<!-- Node2&#45;&gt;Node4 -->
<g id="edge3_Node000002_Node000004" class="edge">
<title>Node2&#45;&gt;Node4</title>
<g id="a_edge3_Node000002_Node000004"><a xlink:title=" ">
<path fill="none" stroke="#63b8ff" d="M114.19,-56.44C113.59,-49.1 112.87,-40.32 112.22,-32.46"/>
<polygon fill="#63b8ff" stroke="#63b8ff" points="115.73,-32.41 111.43,-22.73 108.76,-32.98 115.73,-32.41"/>
</a>
</g>
</g>
<!-- Node5 -->
<g id="Node000005" class="node">
<title>Node5</title>
<g id="a_Node000005"><a xlink:title=" ">
<polygon fill="#e0e0e0" stroke="#999999" points="208.88,-20.75 156.12,-20.75 156.12,0 208.88,0 208.88,-20.75"/>
<text text-anchor="middle" x="182.5" y="-7.25" font-family="Helvetica,sans-Serif" font-size="10.00">stdint.h</text>
</a>
</g>
</g>
<!-- Node2&#45;&gt;Node5 -->
<g id="edge4_Node000002_Node000005" class="edge">
<title>Node2&#45;&gt;Node5</title>
<g id="a_edge4_Node000002_Node000005"><a xlink:title=" ">
<path fill="none" stroke="#63b8ff" d="M133.1,-56.44C142.39,-47.97 153.79,-37.56 163.3,-28.89"/>
<polygon fill="#63b8ff" stroke="#63b8ff" points="165.57,-31.56 170.59,-22.24 160.85,-26.39 165.57,-31.56"/>
</a>
</g>
</g>
</g>
</svg>
