<?xml version="1.0" encoding="UTF-8" standalone="no"?>
<!DOCTYPE svg PUBLIC "-//W3C//DTD SVG 1.1//EN"
 "http://www.w3.org/Graphics/SVG/1.1/DTD/svg11.dtd">
<!-- Generated by graphviz version 12.1.2 (20240928.0832)
 -->
<!-- Title: vlcb_net_packetbuf_Push Pages: 1 -->
<svg width="1165pt" height="222pt"
 viewBox="0.00 0.00 1164.75 221.75" xmlns="http://www.w3.org/2000/svg" xmlns:xlink="http://www.w3.org/1999/xlink">
<g id="graph0" class="graph" transform="scale(1 1) rotate(0) translate(4 217.75)">
<title>vlcb_net_packetbuf_Push</title>
<!-- Node1 -->
<g id="Node000001" class="node">
<title>Node1</title>
<g id="a_Node000001"><a xlink:title=" ">
<polygon fill="#999999" stroke="#666666" points="1156.75,-136.75 1017.75,-136.75 1017.75,-116 1156.75,-116 1156.75,-136.75"/>
<text text-anchor="middle" x="1087.25" y="-123.25" font-family="Helvetica,sans-Serif" font-size="10.00">vlcb_net_packetbuf_Push</text>
</a>
</g>
</g>
<!-- Node2 -->
<g id="Node000002" class="node">
<title>Node2</title>
<g id="a_Node000002"><a xlink:href="socket_2datagram_8c.html#a61c95cabe20ca7a61ea528e4c70f1245" target="_top" xlink:title=" ">
<polygon fill="white" stroke="#666666" points="948.75,-184.75 863.75,-184.75 863.75,-164 948.75,-164 948.75,-184.75"/>
<text text-anchor="middle" x="906.25" y="-171.25" font-family="Helvetica,sans-Serif" font-size="10.00">ProcessPacket</text>
</a>
</g>
</g>
<!-- Node1&#45;&gt;Node2 -->
<g id="edge1_Node000001_Node000002" class="edge">
<title>Node1&#45;&gt;Node2</title>
<g id="a_edge1_Node000001_Node000002"><a xlink:title=" ">
<path fill="none" stroke="#63b8ff" d="M1034.99,-140.12C1007.24,-147.56 973.45,-156.62 947.6,-163.56"/>
<polygon fill="#63b8ff" stroke="#63b8ff" points="1035.86,-143.51 1044.62,-137.54 1034.05,-136.75 1035.86,-143.51"/>
</a>
</g>
</g>
<!-- Node7 -->
<g id="Node000007" class="node">
<title>Node7</title>
<g id="a_Node000007"><a xlink:href="socket_2datagram_8c.html#a7da610c48db02cd38212ef1545d00f00" target="_top" xlink:title=" ">
<polygon fill="white" stroke="#666666" points="981.75,-117.75 830.75,-117.75 830.75,-97 981.75,-97 981.75,-117.75"/>
<text text-anchor="middle" x="906.25" y="-104.25" font-family="Helvetica,sans-Serif" font-size="10.00">vlcb_net_sock_dgram_Send</text>
</a>
</g>
</g>
<!-- Node1&#45;&gt;Node7 -->
<g id="edge6_Node000001_Node000007" class="edge">
<title>Node1&#45;&gt;Node7</title>
<g id="a_edge6_Node000001_Node000007"><a xlink:title=" ">
<path fill="none" stroke="#63b8ff" d="M1006.11,-117.87C998.12,-117.02 990.04,-116.16 982.11,-115.32"/>
<polygon fill="#63b8ff" stroke="#63b8ff" points="1005.48,-121.32 1015.79,-118.9 1006.22,-114.36 1005.48,-121.32"/>
</a>
</g>
</g>
<!-- Node3 -->
<g id="Node000003" class="node">
<title>Node3</title>
<g id="a_Node000003"><a xlink:href="iface__vlcb_8c.html#a772411fa3c2c8faf08e996dcec735dbe" target="_top" xlink:title=" ">
<polygon fill="white" stroke="#666666" points="762.88,-213.75 656.88,-213.75 656.88,-193 762.88,-193 762.88,-213.75"/>
<text text-anchor="middle" x="709.88" y="-200.25" font-family="Helvetica,sans-Serif" font-size="10.00">ProcessVlcbPacket</text>
</a>
</g>
</g>
<!-- Node2&#45;&gt;Node3 -->
<g id="edge2_Node000002_Node000003" class="edge">
<title>Node2&#45;&gt;Node3</title>
<g id="a_edge2_Node000002_Node000003"><a xlink:title=" ">
<path fill="none" stroke="#63b8ff" d="M852.48,-182.25C824.77,-186.38 790.92,-191.43 763.27,-195.56"/>
<polygon fill="#63b8ff" stroke="#63b8ff" points="852.68,-185.76 862.05,-180.82 851.65,-178.83 852.68,-185.76"/>
</a>
</g>
</g>
<!-- Node4 -->
<g id="Node000004" class="node">
<title>Node4</title>
<g id="a_Node000004"><a xlink:href="iface__can_8c.html#a96e0054424451b9fdc03c51cd74b9cb8" target="_top" xlink:title=" ">
<polygon fill="white" stroke="#666666" points="560.5,-213.75 456.75,-213.75 456.75,-193 560.5,-193 560.5,-213.75"/>
<text text-anchor="middle" x="508.62" y="-200.25" font-family="Helvetica,sans-Serif" font-size="10.00">ProcessCanPacket</text>
</a>
</g>
</g>
<!-- Node3&#45;&gt;Node4 -->
<g id="edge3_Node000003_Node000004" class="edge">
<title>Node3&#45;&gt;Node4</title>
<g id="a_edge3_Node000003_Node000004"><a xlink:title=" ">
<path fill="none" stroke="#63b8ff" d="M645.15,-203.38C617.94,-203.38 586.61,-203.38 560.94,-203.38"/>
<polygon fill="#63b8ff" stroke="#63b8ff" points="645.01,-206.88 655.01,-203.38 645.01,-199.88 645.01,-206.88"/>
</a>
</g>
</g>
<!-- Node5 -->
<g id="Node000005" class="node">
<title>Node5</title>
<g id="a_Node000005"><a xlink:href="iface_8c.html#af59bb4e147a7f433c74828ae07108404" target="_top" xlink:title=" ">
<polygon fill="white" stroke="#666666" points="386.62,-213.75 298.62,-213.75 298.62,-193 386.62,-193 386.62,-213.75"/>
<text text-anchor="middle" x="342.62" y="-200.25" font-family="Helvetica,sans-Serif" font-size="10.00">IngressPackets</text>
</a>
</g>
</g>
<!-- Node4&#45;&gt;Node5 -->
<g id="edge4_Node000004_Node000005" class="edge">
<title>Node4&#45;&gt;Node5</title>
<g id="a_edge4_Node000004_Node000005"><a xlink:title=" ">
<path fill="none" stroke="#63b8ff" d="M445.14,-203.38C425.79,-203.38 404.89,-203.38 387.12,-203.38"/>
<polygon fill="#63b8ff" stroke="#63b8ff" points="445.12,-206.88 455.12,-203.38 445.12,-199.88 445.12,-206.88"/>
</a>
</g>
</g>
<!-- Node6 -->
<g id="Node000006" class="node">
<title>Node6</title>
<g id="a_Node000006"><a xlink:href="iface_8c.html#ac759fac91807dd30f90627e4c7a6dce2" target="_top" xlink:title=" ">
<polygon fill="white" stroke="#666666" points="252.12,-213.75 142.38,-213.75 142.38,-193 252.12,-193 252.12,-213.75"/>
<text text-anchor="middle" x="197.25" y="-200.25" font-family="Helvetica,sans-Serif" font-size="10.00">vlcb_net_iface_Poll</text>
</a>
</g>
</g>
<!-- Node5&#45;&gt;Node6 -->
<g id="edge5_Node000005_Node000006" class="edge">
<title>Node5&#45;&gt;Node6</title>
<g id="a_edge5_Node000005_Node000006"><a xlink:title=" ">
<path fill="none" stroke="#63b8ff" d="M286.75,-203.38C275.49,-203.38 263.65,-203.38 252.42,-203.38"/>
<polygon fill="#63b8ff" stroke="#63b8ff" points="286.71,-206.88 296.71,-203.38 286.71,-199.88 286.71,-206.88"/>
</a>
</g>
</g>
<!-- Node8 -->
<g id="Node000008" class="node">
<title>Node8</title>
<g id="a_Node000008"><a xlink:href="module_8c.html#a7619749367a14232feaf0513698c63d8" target="_top" xlink:title=" ">
<polygon fill="white" stroke="#666666" points="558.25,-174.75 459,-174.75 459,-154 558.25,-154 558.25,-174.75"/>
<text text-anchor="middle" x="508.62" y="-161.25" font-family="Helvetica,sans-Serif" font-size="10.00">HandleHeartbeat</text>
</a>
</g>
</g>
<!-- Node7&#45;&gt;Node8 -->
<g id="edge7_Node000007_Node000008" class="edge">
<title>Node7&#45;&gt;Node8</title>
<g id="a_edge7_Node000007_Node000008"><a xlink:title=" ">
<path fill="none" stroke="#63b8ff" d="M846.32,-120.63C829.7,-124.09 811.56,-127.63 794.75,-130.38 712.34,-143.84 615.71,-154.24 558.75,-159.82"/>
<polygon fill="#63b8ff" stroke="#63b8ff" points="847.02,-124.06 856.07,-118.56 845.57,-117.21 847.02,-124.06"/>
</a>
</g>
</g>
<!-- Node10 -->
<g id="Node000010" class="node">
<title>Node10</title>
<g id="a_Node000010"><a xlink:href="module_8c.html#a01dc6700d3926d16f6ebfb5e3611e6c2" target="_top" xlink:title=" ">
<polygon fill="white" stroke="#666666" points="589,-135.75 428.25,-135.75 428.25,-115 589,-115 589,-135.75"/>
<text text-anchor="middle" x="508.62" y="-122.25" font-family="Helvetica,sans-Serif" font-size="10.00">HandleQueryNodeParameters</text>
</a>
</g>
</g>
<!-- Node7&#45;&gt;Node10 -->
<g id="edge9_Node000007_Node000010" class="edge">
<title>Node7&#45;&gt;Node10</title>
<g id="a_edge9_Node000007_Node000010"><a xlink:title=" ">
<path fill="none" stroke="#63b8ff" d="M819.21,-111.29C750.83,-114.4 655.94,-118.72 589.29,-121.75"/>
<polygon fill="#63b8ff" stroke="#63b8ff" points="819.03,-114.8 828.86,-110.85 818.71,-107.81 819.03,-114.8"/>
</a>
</g>
</g>
<!-- Node12 -->
<g id="Node000012" class="node">
<title>Node12</title>
<g id="a_Node000012"><a xlink:href="state__machine_8c.html#a219b685fd854a0765878acc44e9f3111" target="_top" xlink:title=" ">
<polygon fill="white" stroke="#666666" points="782,-98.75 637.75,-98.75 637.75,-78 782,-78 782,-98.75"/>
<text text-anchor="middle" x="709.88" y="-85.25" font-family="Helvetica,sans-Serif" font-size="10.00">HandleTransitionToNormal</text>
</a>
</g>
</g>
<!-- Node7&#45;&gt;Node12 -->
<g id="edge12_Node000007_Node000012" class="edge">
<title>Node7&#45;&gt;Node12</title>
<g id="a_edge12_Node000007_Node000012"><a xlink:title=" ">
<path fill="none" stroke="#63b8ff" d="M819.13,-98.96C806.79,-97.75 794.21,-96.52 782.19,-95.35"/>
<polygon fill="#63b8ff" stroke="#63b8ff" points="818.58,-102.42 828.87,-99.91 819.26,-95.45 818.58,-102.42"/>
</a>
</g>
</g>
<!-- Node16 -->
<g id="Node000016" class="node">
<title>Node16</title>
<g id="a_Node000016"><a xlink:href="state__machine_8c.html#a454533bb18a4f7d35e37e49479a0be7a" target="_top" xlink:title=" ">
<polygon fill="white" stroke="#666666" points="777.88,-59.75 641.88,-59.75 641.88,-39 777.88,-39 777.88,-59.75"/>
<text text-anchor="middle" x="709.88" y="-46.25" font-family="Helvetica,sans-Serif" font-size="10.00">HandleTransitionToSetup</text>
</a>
</g>
</g>
<!-- Node7&#45;&gt;Node16 -->
<g id="edge17_Node000007_Node000016" class="edge">
<title>Node7&#45;&gt;Node16</title>
<g id="a_edge17_Node000007_Node000016"><a xlink:title=" ">
<path fill="none" stroke="#63b8ff" d="M865.69,-92.73C844.75,-85.24 818.53,-76.28 794.75,-69.38 783.54,-66.12 771.37,-62.99 759.87,-60.21"/>
<polygon fill="#63b8ff" stroke="#63b8ff" points="864.4,-95.98 874.99,-96.08 866.77,-89.4 864.4,-95.98"/>
</a>
</g>
</g>
<!-- Node17 -->
<g id="Node000017" class="node">
<title>Node17</title>
<g id="a_Node000017"><a xlink:href="state__machine_8c.html#a33506340e66a1f297917a2be79b70b0e" target="_top" xlink:title=" ">
<polygon fill="white" stroke="#666666" points="794.75,-20.75 625,-20.75 625,0 794.75,0 794.75,-20.75"/>
<text text-anchor="middle" x="709.88" y="-7.25" font-family="Helvetica,sans-Serif" font-size="10.00">HandleTransitionToUninitialized</text>
</a>
</g>
</g>
<!-- Node7&#45;&gt;Node17 -->
<g id="edge19_Node000007_Node000017" class="edge">
<title>Node7&#45;&gt;Node17</title>
<g id="a_edge19_Node000007_Node000017"><a xlink:title=" ">
<path fill="none" stroke="#63b8ff" d="M884.52,-89.32C863.33,-71.79 828.8,-45.63 794.75,-30.38 786.55,-26.7 777.59,-23.65 768.67,-21.13"/>
<polygon fill="#63b8ff" stroke="#63b8ff" points="882.21,-91.95 892.1,-95.73 886.72,-86.6 882.21,-91.95"/>
</a>
</g>
</g>
<!-- Node9 -->
<g id="Node000009" class="node">
<title>Node9</title>
<g id="a_Node000009"><a xlink:href="module_8c.html#a8e05ae271d378570de2cb6bbf3ca6b2d" target="_top" xlink:title=" ">
<polygon fill="white" stroke="#666666" points="101.5,-155.75 0,-155.75 0,-135 101.5,-135 101.5,-155.75"/>
<text text-anchor="middle" x="50.75" y="-142.25" font-family="Helvetica,sans-Serif" font-size="10.00">vlcb_module_Poll</text>
</a>
</g>
</g>
<!-- Node8&#45;&gt;Node9 -->
<g id="edge8_Node000008_Node000009" class="edge">
<title>Node8&#45;&gt;Node9</title>
<g id="a_edge8_Node000008_Node000009"><a xlink:title=" ">
<path fill="none" stroke="#63b8ff" d="M447.37,-161.86C356.58,-158.08 186.37,-150.99 101.92,-147.47"/>
<polygon fill="#63b8ff" stroke="#63b8ff" points="447.19,-165.36 457.33,-162.28 447.48,-158.37 447.19,-165.36"/>
</a>
</g>
</g>
<!-- Node11 -->
<g id="Node000011" class="node">
<title>Node11</title>
<g id="a_Node000011"><a xlink:href="module_8c.html#a32ed02b26ffaed7947004cd1309f5847" target="_top" xlink:title=" ">
<polygon fill="white" stroke="#666666" points="257,-136.75 137.5,-136.75 137.5,-116 257,-116 257,-136.75"/>
<text text-anchor="middle" x="197.25" y="-123.25" font-family="Helvetica,sans-Serif" font-size="10.00">HandleMnsMessages</text>
</a>
</g>
</g>
<!-- Node10&#45;&gt;Node11 -->
<g id="edge10_Node000010_Node000011" class="edge">
<title>Node10&#45;&gt;Node11</title>
<g id="a_edge10_Node000010_Node000011"><a xlink:title=" ">
<path fill="none" stroke="#63b8ff" d="M416.48,-125.67C364.99,-125.84 302.14,-126.04 257.13,-126.18"/>
<polygon fill="#63b8ff" stroke="#63b8ff" points="416.45,-129.17 426.44,-125.64 416.43,-122.17 416.45,-129.17"/>
</a>
</g>
</g>
<!-- Node11&#45;&gt;Node9 -->
<g id="edge11_Node000011_Node000009" class="edge">
<title>Node11&#45;&gt;Node9</title>
<g id="a_edge11_Node000011_Node000009"><a xlink:title=" ">
<path fill="none" stroke="#63b8ff" d="M125.72,-135.65C117.66,-136.71 109.57,-137.77 101.85,-138.79"/>
<polygon fill="#63b8ff" stroke="#63b8ff" points="126.1,-139.13 135.56,-134.36 125.19,-132.19 126.1,-139.13"/>
</a>
</g>
</g>
<!-- Node13 -->
<g id="Node000013" class="node">
<title>Node13</title>
<g id="a_Node000013"><a xlink:href="state__machine_8c.html#a3d333fba19ed5ffbaabc4663ef9e2abc" target="_top" xlink:title=" ">
<polygon fill="white" stroke="#666666" points="553,-59.75 464.25,-59.75 464.25,-39 553,-39 553,-59.75"/>
<text text-anchor="middle" x="508.62" y="-46.25" font-family="Helvetica,sans-Serif" font-size="10.00">state_Dispatch</text>
</a>
</g>
</g>
<!-- Node12&#45;&gt;Node13 -->
<g id="edge13_Node000012_Node000013" class="edge">
<title>Node12&#45;&gt;Node13</title>
<g id="a_edge13_Node000012_Node000013"><a xlink:title=" ">
<path fill="none" stroke="#63b8ff" d="M642.39,-75.36C613.12,-69.63 579.54,-63.06 553.48,-57.96"/>
<polygon fill="#63b8ff" stroke="#63b8ff" points="641.4,-78.73 651.89,-77.22 642.75,-71.86 641.4,-78.73"/>
</a>
</g>
</g>
<!-- Node14 -->
<g id="Node000014" class="node">
<title>Node14</title>
<g id="a_Node000014"><a xlink:href="module_8c.html#abbdf441a7d8267aadf96102dc719cd2a" target="_top" xlink:title=" ">
<polygon fill="white" stroke="#666666" points="377.62,-98.75 307.62,-98.75 307.62,-78 377.62,-78 377.62,-98.75"/>
<text text-anchor="middle" x="342.62" y="-85.25" font-family="Helvetica,sans-Serif" font-size="10.00">AbortSetup</text>
</a>
</g>
</g>
<!-- Node13&#45;&gt;Node14 -->
<g id="edge14_Node000013_Node000014" class="edge">
<title>Node13&#45;&gt;Node14</title>
<g id="a_edge14_Node000013_Node000014"><a xlink:title=" ">
<path fill="none" stroke="#63b8ff" d="M453.03,-62.36C428.25,-68.25 399.71,-75.04 377.99,-80.2"/>
<polygon fill="#63b8ff" stroke="#63b8ff" points="453.72,-65.79 462.63,-60.07 452.1,-58.98 453.72,-65.79"/>
</a>
</g>
</g>
<!-- Node15 -->
<g id="Node000015" class="node">
<title>Node15</title>
<g id="a_Node000015"><a xlink:href="module_8c.html#a15ce5db19c8e79ec52bd78fc76940c33" target="_top" xlink:title=" ">
<polygon fill="white" stroke="#666666" points="392.25,-59.75 293,-59.75 293,-39 392.25,-39 392.25,-59.75"/>
<text text-anchor="middle" x="342.62" y="-46.25" font-family="Helvetica,sans-Serif" font-size="10.00">vlcb_module_Init</text>
</a>
</g>
</g>
<!-- Node13&#45;&gt;Node15 -->
<g id="edge16_Node000013_Node000015" class="edge">
<title>Node13&#45;&gt;Node15</title>
<g id="a_edge16_Node000013_Node000015"><a xlink:title=" ">
<path fill="none" stroke="#63b8ff" d="M452.65,-49.38C433.2,-49.38 411.47,-49.38 392.56,-49.38"/>
<polygon fill="#63b8ff" stroke="#63b8ff" points="452.59,-52.88 462.59,-49.38 452.59,-45.88 452.59,-52.88"/>
</a>
</g>
</g>
<!-- Node14&#45;&gt;Node11 -->
<g id="edge15_Node000014_Node000011" class="edge">
<title>Node14&#45;&gt;Node11</title>
<g id="a_edge15_Node000014_Node000011"><a xlink:title=" ">
<path fill="none" stroke="#63b8ff" d="M296.28,-100.39C277.99,-105.24 257.03,-110.8 239.2,-115.52"/>
<polygon fill="#63b8ff" stroke="#63b8ff" points="297.05,-103.81 305.82,-97.86 295.26,-97.04 297.05,-103.81"/>
</a>
</g>
</g>
<!-- Node16&#45;&gt;Node13 -->
<g id="edge18_Node000016_Node000013" class="edge">
<title>Node16&#45;&gt;Node13</title>
<g id="a_edge18_Node000016_Node000013"><a xlink:title=" ">
<path fill="none" stroke="#63b8ff" d="M629.97,-49.38C603.84,-49.38 575.73,-49.38 553.24,-49.38"/>
<polygon fill="#63b8ff" stroke="#63b8ff" points="629.9,-52.88 639.9,-49.38 629.9,-45.88 629.9,-52.88"/>
</a>
</g>
</g>
<!-- Node17&#45;&gt;Node13 -->
<g id="edge20_Node000017_Node000013" class="edge">
<title>Node17&#45;&gt;Node13</title>
<g id="a_edge20_Node000017_Node000013"><a xlink:title=" ">
<path fill="none" stroke="#63b8ff" d="M642.39,-23.39C613.12,-29.12 579.54,-35.69 553.48,-40.79"/>
<polygon fill="#63b8ff" stroke="#63b8ff" points="642.75,-26.89 651.89,-21.53 641.4,-20.02 642.75,-26.89"/>
</a>
</g>
</g>
</g>
</svg>
