<?xml version="1.0" encoding="UTF-8" standalone="no"?>
<!DOCTYPE svg PUBLIC "-//W3C//DTD SVG 1.1//EN"
 "http://www.w3.org/Graphics/SVG/1.1/DTD/svg11.dtd">
<!-- Generated by graphviz version 12.1.2 (20240928.0832)
 -->
<!-- Title: vlcb_net_pkt_dgram_New Pages: 1 -->
<svg width="823pt" height="29pt"
 viewBox="0.00 0.00 822.50 28.75" xmlns="http://www.w3.org/2000/svg" xmlns:xlink="http://www.w3.org/1999/xlink">
<g id="graph0" class="graph" transform="scale(1 1) rotate(0) translate(4 24.75)">
<title>vlcb_net_pkt_dgram_New</title>
<!-- Node1 -->
<g id="Node000001" class="node">
<title>Node1</title>
<g id="a_Node000001"><a xlink:title=" ">
<polygon fill="#999999" stroke="#666666" points="814.5,-20.75 672.5,-20.75 672.5,0 814.5,0 814.5,-20.75"/>
<text text-anchor="middle" x="743.5" y="-7.25" font-family="Helvetica,sans-Serif" font-size="10.00">vlcb_net_pkt_dgram_New</text>
</a>
</g>
</g>
<!-- Node2 -->
<g id="Node000002" class="node">
<title>Node2</title>
<g id="a_Node000002"><a xlink:href="socket_2datagram_8c.html#a61c95cabe20ca7a61ea528e4c70f1245" target="_top" xlink:title=" ">
<polygon fill="white" stroke="#666666" points="636.5,-20.75 551.5,-20.75 551.5,0 636.5,0 636.5,-20.75"/>
<text text-anchor="middle" x="594" y="-7.25" font-family="Helvetica,sans-Serif" font-size="10.00">ProcessPacket</text>
</a>
</g>
</g>
<!-- Node1&#45;&gt;Node2 -->
<g id="edge1_Node000001_Node000002" class="edge">
<title>Node1&#45;&gt;Node2</title>
<g id="a_edge1_Node000001_Node000002"><a xlink:title=" ">
<path fill="none" stroke="#63b8ff" d="M660.8,-10.38C652.47,-10.38 644.28,-10.38 636.65,-10.38"/>
<polygon fill="#63b8ff" stroke="#63b8ff" points="660.69,-13.88 670.69,-10.38 660.69,-6.88 660.69,-13.88"/>
</a>
</g>
</g>
<!-- Node3 -->
<g id="Node000003" class="node">
<title>Node3</title>
<g id="a_Node000003"><a xlink:href="iface__vlcb_8c.html#a772411fa3c2c8faf08e996dcec735dbe" target="_top" xlink:title=" ">
<polygon fill="white" stroke="#666666" points="515.5,-20.75 409.5,-20.75 409.5,0 515.5,0 515.5,-20.75"/>
<text text-anchor="middle" x="462.5" y="-7.25" font-family="Helvetica,sans-Serif" font-size="10.00">ProcessVlcbPacket</text>
</a>
</g>
</g>
<!-- Node2&#45;&gt;Node3 -->
<g id="edge2_Node000002_Node000003" class="edge">
<title>Node2&#45;&gt;Node3</title>
<g id="a_edge2_Node000002_Node000003"><a xlink:title=" ">
<path fill="none" stroke="#63b8ff" d="M539.81,-10.38C531.8,-10.38 523.54,-10.38 515.56,-10.38"/>
<polygon fill="#63b8ff" stroke="#63b8ff" points="539.8,-13.88 549.8,-10.38 539.8,-6.88 539.8,-13.88"/>
</a>
</g>
</g>
<!-- Node4 -->
<g id="Node000004" class="node">
<title>Node4</title>
<g id="a_Node000004"><a xlink:href="iface__can_8c.html#a96e0054424451b9fdc03c51cd74b9cb8" target="_top" xlink:title=" ">
<polygon fill="white" stroke="#666666" points="373.5,-20.75 269.75,-20.75 269.75,0 373.5,0 373.5,-20.75"/>
<text text-anchor="middle" x="321.62" y="-7.25" font-family="Helvetica,sans-Serif" font-size="10.00">ProcessCanPacket</text>
</a>
</g>
</g>
<!-- Node3&#45;&gt;Node4 -->
<g id="edge3_Node000003_Node000004" class="edge">
<title>Node3&#45;&gt;Node4</title>
<g id="a_edge3_Node000003_Node000004"><a xlink:title=" ">
<path fill="none" stroke="#63b8ff" d="M397.98,-10.38C389.83,-10.38 381.56,-10.38 373.64,-10.38"/>
<polygon fill="#63b8ff" stroke="#63b8ff" points="397.88,-13.88 407.88,-10.38 397.88,-6.88 397.88,-13.88"/>
</a>
</g>
</g>
<!-- Node5 -->
<g id="Node000005" class="node">
<title>Node5</title>
<g id="a_Node000005"><a xlink:href="iface_8c.html#af59bb4e147a7f433c74828ae07108404" target="_top" xlink:title=" ">
<polygon fill="white" stroke="#666666" points="233.75,-20.75 145.75,-20.75 145.75,0 233.75,0 233.75,-20.75"/>
<text text-anchor="middle" x="189.75" y="-7.25" font-family="Helvetica,sans-Serif" font-size="10.00">IngressPackets</text>
</a>
</g>
</g>
<!-- Node4&#45;&gt;Node5 -->
<g id="edge4_Node000004_Node000005" class="edge">
<title>Node4&#45;&gt;Node5</title>
<g id="a_edge4_Node000004_Node000005"><a xlink:title=" ">
<path fill="none" stroke="#63b8ff" d="M257.99,-10.38C249.93,-10.38 241.82,-10.38 234.17,-10.38"/>
<polygon fill="#63b8ff" stroke="#63b8ff" points="257.78,-13.88 267.78,-10.38 257.78,-6.88 257.78,-13.88"/>
</a>
</g>
</g>
<!-- Node6 -->
<g id="Node000006" class="node">
<title>Node6</title>
<g id="a_Node000006"><a xlink:href="iface_8c.html#ac759fac91807dd30f90627e4c7a6dce2" target="_top" xlink:title=" ">
<polygon fill="white" stroke="#666666" points="109.75,-20.75 0,-20.75 0,0 109.75,0 109.75,-20.75"/>
<text text-anchor="middle" x="54.88" y="-7.25" font-family="Helvetica,sans-Serif" font-size="10.00">vlcb_net_iface_Poll</text>
</a>
</g>
</g>
<!-- Node5&#45;&gt;Node6 -->
<g id="edge5_Node000005_Node000006" class="edge">
<title>Node5&#45;&gt;Node6</title>
<g id="a_edge5_Node000005_Node000006"><a xlink:title=" ">
<path fill="none" stroke="#63b8ff" d="M134.14,-10.38C126.16,-10.38 117.94,-10.38 109.97,-10.38"/>
<polygon fill="#63b8ff" stroke="#63b8ff" points="134.1,-13.88 144.1,-10.38 134.1,-6.88 134.1,-13.88"/>
</a>
</g>
</g>
</g>
</svg>
