<?xml version="1.0" encoding="UTF-8" standalone="no"?>
<!DOCTYPE svg PUBLIC "-//W3C//DTD SVG 1.1//EN"
 "http://www.w3.org/Graphics/SVG/1.1/DTD/svg11.dtd">
<!-- Generated by graphviz version 12.1.2 (20240928.0832)
 -->
<!-- Title: vlcb_net_packetbuf_Pop Pages: 1 -->
<svg width="612pt" height="68pt"
 viewBox="0.00 0.00 612.00 67.75" xmlns="http://www.w3.org/2000/svg" xmlns:xlink="http://www.w3.org/1999/xlink">
<g id="graph0" class="graph" transform="scale(1 1) rotate(0) translate(4 63.75)">
<title>vlcb_net_packetbuf_Pop</title>
<!-- Node1 -->
<g id="Node000001" class="node">
<title>Node1</title>
<g id="a_Node000001"><a xlink:title=" ">
<polygon fill="#999999" stroke="#666666" points="604,-39.75 470.25,-39.75 470.25,-19 604,-19 604,-39.75"/>
<text text-anchor="middle" x="537.12" y="-26.25" font-family="Helvetica,sans-Serif" font-size="10.00">vlcb_net_packetbuf_Pop</text>
</a>
</g>
</g>
<!-- Node2 -->
<g id="Node000002" class="node">
<title>Node2</title>
<g id="a_Node000002"><a xlink:href="socket_2datagram_8c.html#a29815c6431ed6e303052217a8ecca9cc" target="_top" xlink:title=" ">
<polygon fill="white" stroke="#666666" points="403.88,-59.75 313.62,-59.75 313.62,-39 403.88,-39 403.88,-59.75"/>
<text text-anchor="middle" x="358.75" y="-46.25" font-family="Helvetica,sans-Serif" font-size="10.00">DispatchPacket</text>
</a>
</g>
</g>
<!-- Node1&#45;&gt;Node2 -->
<g id="edge1_Node000001_Node000002" class="edge">
<title>Node1&#45;&gt;Node2</title>
<g id="a_edge1_Node000001_Node000002"><a xlink:title=" ">
<path fill="none" stroke="#63b8ff" d="M458.52,-38.18C439.98,-40.28 420.81,-42.45 404.34,-44.32"/>
<polygon fill="#63b8ff" stroke="#63b8ff" points="458.9,-41.65 468.44,-37.05 458.11,-34.7 458.9,-41.65"/>
</a>
</g>
</g>
<!-- Node5 -->
<g id="Node000005" class="node">
<title>Node5</title>
<g id="a_Node000005"><a xlink:href="socket_2datagram_8c.html#a107d2d2542862f851d0fd20080b277cb" target="_top" xlink:title=" ">
<polygon fill="white" stroke="#666666" points="434.25,-20.75 283.25,-20.75 283.25,0 434.25,0 434.25,-20.75"/>
<text text-anchor="middle" x="358.75" y="-7.25" font-family="Helvetica,sans-Serif" font-size="10.00">vlcb_net_sock_dgram_Recv</text>
</a>
</g>
</g>
<!-- Node1&#45;&gt;Node5 -->
<g id="edge4_Node000001_Node000005" class="edge">
<title>Node1&#45;&gt;Node5</title>
<g id="a_edge4_Node000001_Node000005"><a xlink:title=" ">
<path fill="none" stroke="#63b8ff" d="M458.73,-21.04C450.71,-20.17 442.58,-19.3 434.59,-18.44"/>
<polygon fill="#63b8ff" stroke="#63b8ff" points="458.13,-24.49 468.44,-22.08 458.88,-17.53 458.13,-24.49"/>
</a>
</g>
</g>
<!-- Node3 -->
<g id="Node000003" class="node">
<title>Node3</title>
<g id="a_Node000003"><a xlink:href="iface_8c.html#ab1c3b4ca7e0b59ee8d189751e2fe5d7e" target="_top" xlink:title=" ">
<polygon fill="white" stroke="#666666" points="239,-59.75 154,-59.75 154,-39 239,-39 239,-59.75"/>
<text text-anchor="middle" x="196.5" y="-46.25" font-family="Helvetica,sans-Serif" font-size="10.00">EgressPackets</text>
</a>
</g>
</g>
<!-- Node2&#45;&gt;Node3 -->
<g id="edge2_Node000002_Node000003" class="edge">
<title>Node2&#45;&gt;Node3</title>
<g id="a_edge2_Node000002_Node000003"><a xlink:title=" ">
<path fill="none" stroke="#63b8ff" d="M302.06,-49.38C281.48,-49.38 258.52,-49.38 239.36,-49.38"/>
<polygon fill="#63b8ff" stroke="#63b8ff" points="302.02,-52.88 312.02,-49.38 302.02,-45.88 302.02,-52.88"/>
</a>
</g>
</g>
<!-- Node4 -->
<g id="Node000004" class="node">
<title>Node4</title>
<g id="a_Node000004"><a xlink:href="iface_8c.html#abc32be0df72f3b542d2f5a53ecdcfc66" target="_top" xlink:title=" ">
<polygon fill="white" stroke="#666666" points="109.75,-59.75 0,-59.75 0,-39 109.75,-39 109.75,-59.75"/>
<text text-anchor="middle" x="54.88" y="-46.25" font-family="Helvetica,sans-Serif" font-size="10.00">vlcb_net_iface_Poll</text>
</a>
</g>
</g>
<!-- Node3&#45;&gt;Node4 -->
<g id="edge3_Node000003_Node000004" class="edge">
<title>Node3&#45;&gt;Node4</title>
<g id="a_edge3_Node000003_Node000004"><a xlink:title=" ">
<path fill="none" stroke="#63b8ff" d="M142.41,-49.38C131.86,-49.38 120.76,-49.38 110.16,-49.38"/>
<polygon fill="#63b8ff" stroke="#63b8ff" points="142.09,-52.88 152.09,-49.38 142.09,-45.88 142.09,-52.88"/>
</a>
</g>
</g>
<!-- Node6 -->
<g id="Node000006" class="node">
<title>Node6</title>
<g id="a_Node000006"><a xlink:href="module_8c.html#a8e05ae271d378570de2cb6bbf3ca6b2d" target="_top" xlink:title=" ">
<polygon fill="white" stroke="#666666" points="247.25,-20.75 145.75,-20.75 145.75,0 247.25,0 247.25,-20.75"/>
<text text-anchor="middle" x="196.5" y="-7.25" font-family="Helvetica,sans-Serif" font-size="10.00">vlcb_module_Poll</text>
</a>
</g>
</g>
<!-- Node5&#45;&gt;Node6 -->
<g id="edge5_Node000005_Node000006" class="edge">
<title>Node5&#45;&gt;Node6</title>
<g id="a_edge5_Node000005_Node000006"><a xlink:title=" ">
<path fill="none" stroke="#63b8ff" d="M271.35,-10.38C263.27,-10.38 255.28,-10.38 247.7,-10.38"/>
<polygon fill="#63b8ff" stroke="#63b8ff" points="271.27,-13.88 281.27,-10.38 271.27,-6.88 271.27,-13.88"/>
</a>
</g>
</g>
</g>
</svg>
