<?xml version="1.0" encoding="UTF-8" standalone="no"?>
<!DOCTYPE svg PUBLIC "-//W3C//DTD SVG 1.1//EN"
 "http://www.w3.org/Graphics/SVG/1.1/DTD/svg11.dtd">
<!-- Generated by graphviz version 12.1.2 (20240928.0832)
 -->
<!-- Title: vlcb_net_adpt_NewCanFrameIdFromPkt Pages: 1 -->
<svg width="351pt" height="80pt"
 viewBox="0.00 0.00 351.25 80.12" xmlns="http://www.w3.org/2000/svg" xmlns:xlink="http://www.w3.org/1999/xlink">
<g id="graph0" class="graph" transform="scale(1 1) rotate(0) translate(4 76.12)">
<title>vlcb_net_adpt_NewCanFrameIdFromPkt</title>
<!-- Node1 -->
<g id="Node000001" class="node">
<title>Node1</title>
<g id="a_Node000001"><a xlink:title="Construct new CAN frame ID from a packet.">
<polygon fill="#999999" stroke="#666666" points="160.75,-49.12 0,-49.12 0,-15.62 160.75,-15.62 160.75,-49.12"/>
<text text-anchor="start" x="8" y="-35.62" font-family="Helvetica,sans-Serif" font-size="10.00">vlcb_net_adpt_NewCanFrame</text>
<text text-anchor="middle" x="80.38" y="-22.88" font-family="Helvetica,sans-Serif" font-size="10.00">IdFromPkt</text>
</a>
</g>
</g>
<!-- Node2 -->
<g id="Node000002" class="node">
<title>Node2</title>
<g id="a_Node000002"><a xlink:href="can__prio__from__opc_8c.html#aafe306d61e74f4aeb59ae29403e75eb3" target="_top" xlink:title=" ">
<polygon fill="white" stroke="#666666" points="343.25,-72.12 196.75,-72.12 196.75,-38.62 343.25,-38.62 343.25,-72.12"/>
<text text-anchor="start" x="204.75" y="-58.62" font-family="Helvetica,sans-Serif" font-size="10.00">vlcb_defs_CanPriorityFrom</text>
<text text-anchor="middle" x="270" y="-45.88" font-family="Helvetica,sans-Serif" font-size="10.00">Opcode</text>
</a>
</g>
</g>
<!-- Node1&#45;&gt;Node2 -->
<g id="edge1_Node000001_Node000002" class="edge">
<title>Node1&#45;&gt;Node2</title>
<g id="a_edge1_Node000001_Node000002"><a xlink:title=" ">
<path fill="none" stroke="#63b8ff" d="M161.22,-42.16C169.15,-43.13 177.22,-44.12 185.19,-45.1"/>
<polygon fill="#63b8ff" stroke="#63b8ff" points="184.51,-48.54 194.86,-46.29 185.36,-41.6 184.51,-48.54"/>
</a>
</g>
</g>
<!-- Node3 -->
<g id="Node000003" class="node">
<title>Node3</title>
<g id="a_Node000003"><a xlink:href="can__id__is__valid_8c.html#aba3ce98e83c4691c65ebc79eadde51a2" target="_top" xlink:title=" ">
<polygon fill="white" stroke="#666666" points="333.88,-20.75 206.12,-20.75 206.12,0 333.88,0 333.88,-20.75"/>
<text text-anchor="middle" x="270" y="-7.25" font-family="Helvetica,sans-Serif" font-size="10.00">vlcb_defs_IsCanIdValid</text>
</a>
</g>
</g>
<!-- Node1&#45;&gt;Node3 -->
<g id="edge2_Node000001_Node000003" class="edge">
<title>Node1&#45;&gt;Node3</title>
<g id="a_edge2_Node000001_Node000003"><a xlink:title=" ">
<path fill="none" stroke="#63b8ff" d="M161.22,-23.01C172.25,-21.72 183.54,-20.4 194.47,-19.11"/>
<polygon fill="#63b8ff" stroke="#63b8ff" points="194.67,-22.61 204.2,-17.97 193.86,-15.66 194.67,-22.61"/>
</a>
</g>
</g>
</g>
</svg>
