<?xml version="1.0" encoding="UTF-8" standalone="no"?>
<!DOCTYPE svg PUBLIC "-//W3C//DTD SVG 1.1//EN"
 "http://www.w3.org/Graphics/SVG/1.1/DTD/svg11.dtd">
<!-- Generated by graphviz version 12.1.2 (20240928.0832)
 -->
<!-- Title: packet.h Pages: 1 -->
<svg width="707pt" height="313pt"
 viewBox="0.00 0.00 706.88 312.50" xmlns="http://www.w3.org/2000/svg" xmlns:xlink="http://www.w3.org/1999/xlink">
<g id="graph0" class="graph" transform="scale(1 1) rotate(0) translate(4 308.5)">
<title>packet.h</title>
<!-- Node1 -->
<g id="Node000001" class="node">
<title>Node1</title>
<g id="a_Node000001"><a xlink:title=" ">
<polygon fill="#999999" stroke="#666666" points="318.12,-304.5 260.88,-304.5 260.88,-283.75 318.12,-283.75 318.12,-304.5"/>
<text text-anchor="middle" x="289.5" y="-291" font-family="Helvetica,sans-Serif" font-size="10.00">packet.h</text>
</a>
</g>
</g>
<!-- Node2 -->
<g id="Node000002" class="node">
<title>Node2</title>
<g id="a_Node000002"><a xlink:href="adapter_8h.html" target="_top" xlink:title=" ">
<polygon fill="white" stroke="#666666" points="320.38,-247.75 258.62,-247.75 258.62,-227 320.38,-227 320.38,-247.75"/>
<text text-anchor="middle" x="289.5" y="-234.25" font-family="Helvetica,sans-Serif" font-size="10.00">adapter.h</text>
</a>
</g>
</g>
<!-- Node1&#45;&gt;Node2 -->
<g id="edge1_Node000001_Node000002" class="edge">
<title>Node1&#45;&gt;Node2</title>
<g id="a_edge1_Node000001_Node000002"><a xlink:title=" ">
<path fill="none" stroke="#63b8ff" d="M289.5,-271.88C289.5,-263.66 289.5,-254.68 289.5,-248.08"/>
<polygon fill="#63b8ff" stroke="#63b8ff" points="286,-271.82 289.5,-281.82 293,-271.82 286,-271.82"/>
</a>
</g>
</g>
<!-- Node3 -->
<g id="Node000003" class="node">
<title>Node3</title>
<g id="a_Node000003"><a xlink:href="adapter_8c.html" target="_top" xlink:title=" ">
<polygon fill="white" stroke="#666666" points="61,-191 0,-191 0,-170.25 61,-170.25 61,-191"/>
<text text-anchor="middle" x="30.5" y="-177.5" font-family="Helvetica,sans-Serif" font-size="10.00">adapter.c</text>
</a>
</g>
</g>
<!-- Node2&#45;&gt;Node3 -->
<g id="edge2_Node000002_Node000003" class="edge">
<title>Node2&#45;&gt;Node3</title>
<g id="a_edge2_Node000002_Node000003"><a xlink:title=" ">
<path fill="none" stroke="#63b8ff" d="M247.06,-227.4C194.91,-216.38 107.68,-197.94 61.45,-188.17"/>
<polygon fill="#63b8ff" stroke="#63b8ff" points="246.27,-230.81 256.78,-229.46 247.72,-223.97 246.27,-230.81"/>
</a>
</g>
</g>
<!-- Node4 -->
<g id="Node000004" class="node">
<title>Node4</title>
<g id="a_Node000004"><a xlink:href="iface_8c.html" target="_top" xlink:title=" ">
<polygon fill="white" stroke="#666666" points="178.62,-77.5 130.38,-77.5 130.38,-56.75 178.62,-56.75 178.62,-77.5"/>
<text text-anchor="middle" x="154.5" y="-64" font-family="Helvetica,sans-Serif" font-size="10.00">iface.c</text>
</a>
</g>
</g>
<!-- Node2&#45;&gt;Node4 -->
<g id="edge3_Node000002_Node000004" class="edge">
<title>Node2&#45;&gt;Node4</title>
<g id="a_edge3_Node000002_Node000004"><a xlink:title=" ">
<path fill="none" stroke="#63b8ff" d="M260.81,-221.04C231.79,-203.92 188.09,-173.41 165.5,-134.25 155.15,-116.31 153.87,-91.35 154.06,-77.8"/>
<polygon fill="#63b8ff" stroke="#63b8ff" points="259.03,-224.06 269.45,-225.98 262.51,-217.98 259.03,-224.06"/>
</a>
</g>
</g>
<!-- Node5 -->
<g id="Node000005" class="node">
<title>Node5</title>
<g id="a_Node000005"><a xlink:href="iface_8h.html" target="_top" xlink:title=" ">
<polygon fill="white" stroke="#666666" points="314,-191 265,-191 265,-170.25 314,-170.25 314,-191"/>
<text text-anchor="middle" x="289.5" y="-177.5" font-family="Helvetica,sans-Serif" font-size="10.00">iface.h</text>
</a>
</g>
</g>
<!-- Node2&#45;&gt;Node5 -->
<g id="edge4_Node000002_Node000005" class="edge">
<title>Node2&#45;&gt;Node5</title>
<g id="a_edge4_Node000002_Node000005"><a xlink:title=" ">
<path fill="none" stroke="#63b8ff" d="M289.5,-215.13C289.5,-206.91 289.5,-197.93 289.5,-191.33"/>
<polygon fill="#63b8ff" stroke="#63b8ff" points="286,-215.07 289.5,-225.07 293,-215.07 286,-215.07"/>
</a>
</g>
</g>
<!-- Node6 -->
<g id="Node000006" class="node">
<title>Node6</title>
<g id="a_Node000006"><a xlink:href="iface__can_8c.html" target="_top" xlink:title=" ">
<polygon fill="white" stroke="#666666" points="406.88,-77.5 336.12,-77.5 336.12,-56.75 406.88,-56.75 406.88,-77.5"/>
<text text-anchor="middle" x="371.5" y="-64" font-family="Helvetica,sans-Serif" font-size="10.00">iface_can.c</text>
</a>
</g>
</g>
<!-- Node2&#45;&gt;Node6 -->
<g id="edge24_Node000002_Node000006" class="edge">
<title>Node2&#45;&gt;Node6</title>
<g id="a_edge24_Node000002_Node000006"><a xlink:title=" ">
<path fill="none" stroke="#63b8ff" d="M331.45,-227.71C377.92,-215.61 450.61,-188.74 483.5,-134.25 503.4,-101.29 447.11,-82.9 407.29,-74.3"/>
<polygon fill="#63b8ff" stroke="#63b8ff" points="330.87,-224.24 322,-230.04 332.55,-231.04 330.87,-224.24"/>
</a>
</g>
</g>
<!-- Node7 -->
<g id="Node000007" class="node">
<title>Node7</title>
<g id="a_Node000007"><a xlink:href="iface__can_8h.html" target="_top" xlink:title=" ">
<polygon fill="white" stroke="#666666" points="99.25,-134.25 27.75,-134.25 27.75,-113.5 99.25,-113.5 99.25,-134.25"/>
<text text-anchor="middle" x="63.5" y="-120.75" font-family="Helvetica,sans-Serif" font-size="10.00">iface_can.h</text>
</a>
</g>
</g>
<!-- Node2&#45;&gt;Node7 -->
<g id="edge25_Node000002_Node000007" class="edge">
<title>Node2&#45;&gt;Node7</title>
<g id="a_edge25_Node000002_Node000007"><a xlink:title=" ">
<path fill="none" stroke="#63b8ff" d="M247.25,-233.35C209.46,-228.9 153.95,-217.96 113.5,-191 91.7,-176.47 75.63,-149.18 68.15,-134.61"/>
<polygon fill="#63b8ff" stroke="#63b8ff" points="246.55,-236.79 256.87,-234.37 247.29,-229.83 246.55,-236.79"/>
</a>
</g>
</g>
<!-- Node9 -->
<g id="Node000009" class="node">
<title>Node9</title>
<g id="a_Node000009"><a xlink:href="iface__can__svc_8c.html" target="_top" xlink:title=" ">
<polygon fill="white" stroke="#666666" points="474.75,-134.25 382.25,-134.25 382.25,-113.5 474.75,-113.5 474.75,-134.25"/>
<text text-anchor="middle" x="428.5" y="-120.75" font-family="Helvetica,sans-Serif" font-size="10.00">iface_can_svc.c</text>
</a>
</g>
</g>
<!-- Node2&#45;&gt;Node9 -->
<g id="edge26_Node000002_Node000009" class="edge">
<title>Node2&#45;&gt;Node9</title>
<g id="a_edge26_Node000002_Node000009"><a xlink:title=" ">
<path fill="none" stroke="#63b8ff" d="M309.98,-219.95C339.31,-196.42 392.4,-153.83 416.28,-134.68"/>
<polygon fill="#63b8ff" stroke="#63b8ff" points="308.14,-216.93 302.53,-225.92 312.52,-222.39 308.14,-216.93"/>
</a>
</g>
</g>
<!-- Node17 -->
<g id="Node000017" class="node">
<title>Node17</title>
<g id="a_Node000017"><a xlink:href="packet__parse_8h.html" target="_top" xlink:title=" ">
<polygon fill="white" stroke="#666666" points="659.25,-191 569.75,-191 569.75,-170.25 659.25,-170.25 659.25,-191"/>
<text text-anchor="middle" x="614.5" y="-177.5" font-family="Helvetica,sans-Serif" font-size="10.00">packet_parse.h</text>
</a>
</g>
</g>
<!-- Node2&#45;&gt;Node17 -->
<g id="edge27_Node000002_Node000017" class="edge">
<title>Node2&#45;&gt;Node17</title>
<g id="a_edge27_Node000002_Node000017"><a xlink:title=" ">
<path fill="none" stroke="#63b8ff" d="M331.85,-229.24C393.2,-218.9 506.33,-199.85 569.26,-189.25"/>
<polygon fill="#63b8ff" stroke="#63b8ff" points="331.43,-225.76 322.15,-230.87 332.6,-232.66 331.43,-225.76"/>
</a>
</g>
</g>
<!-- Node5&#45;&gt;Node4 -->
<g id="edge5_Node000005_Node000004" class="edge">
<title>Node5&#45;&gt;Node4</title>
<g id="a_edge5_Node000005_Node000004"><a xlink:title=" ">
<path fill="none" stroke="#63b8ff" d="M253.47,-171.19C231.24,-164.4 203.44,-152.85 184.5,-134.25 168.31,-118.35 160.06,-92.12 156.58,-77.94"/>
<polygon fill="#63b8ff" stroke="#63b8ff" points="252.48,-174.55 263.06,-173.9 254.39,-167.81 252.48,-174.55"/>
</a>
</g>
</g>
<!-- Node5&#45;&gt;Node6 -->
<g id="edge6_Node000005_Node000006" class="edge">
<title>Node5&#45;&gt;Node6</title>
<g id="a_edge6_Node000005_Node000006"><a xlink:title=" ">
<path fill="none" stroke="#63b8ff" d="M309.43,-162.41C318.05,-154.37 327.89,-144.36 335.5,-134.25 349.5,-115.66 361.43,-90.95 367.41,-77.62"/>
<polygon fill="#63b8ff" stroke="#63b8ff" points="307.23,-159.68 302.15,-168.97 311.92,-164.87 307.23,-159.68"/>
</a>
</g>
</g>
<!-- Node5&#45;&gt;Node7 -->
<g id="edge7_Node000005_Node000007" class="edge">
<title>Node5&#45;&gt;Node7</title>
<g id="a_edge7_Node000005_Node000007"><a xlink:title=" ">
<path fill="none" stroke="#63b8ff" d="M253.77,-170.97C211.61,-160.76 141.91,-143.87 99.6,-133.62"/>
<polygon fill="#63b8ff" stroke="#63b8ff" points="252.87,-174.35 263.41,-173.31 254.52,-167.55 252.87,-174.35"/>
</a>
</g>
</g>
<!-- Node5&#45;&gt;Node9 -->
<g id="edge10_Node000005_Node000009" class="edge">
<title>Node5&#45;&gt;Node9</title>
<g id="a_edge10_Node000005_Node000009"><a xlink:title=" ">
<path fill="none" stroke="#63b8ff" d="M324.76,-165.74C349.47,-156 381.89,-143.23 403.86,-134.58"/>
<polygon fill="#63b8ff" stroke="#63b8ff" points="323.78,-162.36 315.76,-169.28 326.35,-168.87 323.78,-162.36"/>
</a>
</g>
</g>
<!-- Node10 -->
<g id="Node000010" class="node">
<title>Node10</title>
<g id="a_Node000010"><a xlink:href="iface__vlcb_8h.html" target="_top" xlink:title=" ">
<polygon fill="white" stroke="#666666" points="326.75,-134.25 252.25,-134.25 252.25,-113.5 326.75,-113.5 326.75,-134.25"/>
<text text-anchor="middle" x="289.5" y="-120.75" font-family="Helvetica,sans-Serif" font-size="10.00">iface_vlcb.h</text>
</a>
</g>
</g>
<!-- Node5&#45;&gt;Node10 -->
<g id="edge12_Node000005_Node000010" class="edge">
<title>Node5&#45;&gt;Node10</title>
<g id="a_edge12_Node000005_Node000010"><a xlink:title=" ">
<path fill="none" stroke="#63b8ff" d="M289.5,-158.38C289.5,-150.16 289.5,-141.18 289.5,-134.58"/>
<polygon fill="#63b8ff" stroke="#63b8ff" points="286,-158.32 289.5,-168.32 293,-158.32 286,-158.32"/>
</a>
</g>
</g>
<!-- Node11 -->
<g id="Node000011" class="node">
<title>Node11</title>
<g id="a_Node000011"><a xlink:href="module_2inc_2vlcb_2module_8h.html" target="_top" xlink:title=" ">
<polygon fill="white" stroke="#666666" points="592.38,-134.25 530.62,-134.25 530.62,-113.5 592.38,-113.5 592.38,-134.25"/>
<text text-anchor="middle" x="561.5" y="-120.75" font-family="Helvetica,sans-Serif" font-size="10.00">module.h</text>
</a>
</g>
</g>
<!-- Node5&#45;&gt;Node11 -->
<g id="edge15_Node000005_Node000011" class="edge">
<title>Node5&#45;&gt;Node11</title>
<g id="a_edge15_Node000005_Node000011"><a xlink:title=" ">
<path fill="none" stroke="#63b8ff" d="M325.12,-172.46C378.69,-161.67 479.16,-141.45 530.13,-131.19"/>
<polygon fill="#63b8ff" stroke="#63b8ff" points="324.71,-168.97 315.6,-174.37 326.1,-175.83 324.71,-168.97"/>
</a>
</g>
</g>
<!-- Node16 -->
<g id="Node000016" class="node">
<title>Node16</title>
<g id="a_Node000016"><a xlink:href="net_2inc_2vlcb_2net_8h.html" target="_top" xlink:title=" ">
<polygon fill="white" stroke="#666666" points="233.88,-134.25 193.12,-134.25 193.12,-113.5 233.88,-113.5 233.88,-134.25"/>
<text text-anchor="middle" x="213.5" y="-120.75" font-family="Helvetica,sans-Serif" font-size="10.00">net.h</text>
</a>
</g>
</g>
<!-- Node5&#45;&gt;Node16 -->
<g id="edge23_Node000005_Node000016" class="edge">
<title>Node5&#45;&gt;Node16</title>
<g id="a_edge23_Node000005_Node000016"><a xlink:title=" ">
<path fill="none" stroke="#63b8ff" d="M266.68,-163.19C253.73,-153.86 237.96,-142.5 226.97,-134.58"/>
<polygon fill="#63b8ff" stroke="#63b8ff" points="264.53,-165.95 274.68,-168.95 268.62,-160.27 264.53,-165.95"/>
</a>
</g>
</g>
<!-- Node7&#45;&gt;Node4 -->
<g id="edge8_Node000007_Node000004" class="edge">
<title>Node7&#45;&gt;Node4</title>
<g id="a_edge8_Node000007_Node000004"><a xlink:title=" ">
<path fill="none" stroke="#63b8ff" d="M89.46,-107.26C105.22,-97.78 124.83,-85.98 138.37,-77.83"/>
<polygon fill="#63b8ff" stroke="#63b8ff" points="87.83,-104.15 81.07,-112.31 91.44,-110.15 87.83,-104.15"/>
</a>
</g>
</g>
<!-- Node8 -->
<g id="Node000008" class="node">
<title>Node8</title>
<g id="a_Node000008"><a xlink:href="iface__vlcb_8c.html" target="_top" xlink:title=" ">
<polygon fill="white" stroke="#666666" points="100.38,-77.5 26.62,-77.5 26.62,-56.75 100.38,-56.75 100.38,-77.5"/>
<text text-anchor="middle" x="63.5" y="-64" font-family="Helvetica,sans-Serif" font-size="10.00">iface_vlcb.c</text>
</a>
</g>
</g>
<!-- Node7&#45;&gt;Node8 -->
<g id="edge9_Node000007_Node000008" class="edge">
<title>Node7&#45;&gt;Node8</title>
<g id="a_edge9_Node000007_Node000008"><a xlink:title=" ">
<path fill="none" stroke="#63b8ff" d="M63.5,-101.63C63.5,-93.41 63.5,-84.43 63.5,-77.83"/>
<polygon fill="#63b8ff" stroke="#63b8ff" points="60,-101.57 63.5,-111.57 67,-101.57 60,-101.57"/>
</a>
</g>
</g>
<!-- Node9&#45;&gt;Node6 -->
<g id="edge11_Node000009_Node000006" class="edge">
<title>Node9&#45;&gt;Node6</title>
<g id="a_edge11_Node000009_Node000006"><a xlink:title=" ">
<path fill="none" stroke="#63b8ff" d="M410.23,-105.33C400.75,-96.22 389.52,-85.43 381.6,-77.83"/>
<polygon fill="#63b8ff" stroke="#63b8ff" points="407.58,-107.64 417.22,-112.04 412.43,-102.59 407.58,-107.64"/>
</a>
</g>
</g>
<!-- Node10&#45;&gt;Node4 -->
<g id="edge13_Node000010_Node000004" class="edge">
<title>Node10&#45;&gt;Node4</title>
<g id="a_edge13_Node000010_Node000004"><a xlink:title=" ">
<path fill="none" stroke="#63b8ff" d="M254.93,-108.86C230.97,-99.14 199.67,-86.44 178.43,-77.83"/>
<polygon fill="#63b8ff" stroke="#63b8ff" points="253.38,-112 263.96,-112.52 256.01,-105.52 253.38,-112"/>
</a>
</g>
</g>
<!-- Node10&#45;&gt;Node6 -->
<g id="edge14_Node000010_Node000006" class="edge">
<title>Node10&#45;&gt;Node6</title>
<g id="a_edge14_Node000010_Node000006"><a xlink:title=" ">
<path fill="none" stroke="#63b8ff" d="M313.71,-106.71C327.76,-97.33 344.99,-85.82 356.97,-77.83"/>
<polygon fill="#63b8ff" stroke="#63b8ff" points="311.79,-103.78 305.42,-112.25 315.68,-109.6 311.79,-103.78"/>
</a>
</g>
</g>
<!-- Node12 -->
<g id="Node000012" class="node">
<title>Node12</title>
<g id="a_Node000012"><a xlink:href="module_8c.html" target="_top" xlink:title=" ">
<polygon fill="white" stroke="#666666" points="672,-20.75 611,-20.75 611,0 672,0 672,-20.75"/>
<text text-anchor="middle" x="641.5" y="-7.25" font-family="Helvetica,sans-Serif" font-size="10.00">module.c</text>
</a>
</g>
</g>
<!-- Node11&#45;&gt;Node12 -->
<g id="edge16_Node000011_Node000012" class="edge">
<title>Node11&#45;&gt;Node12</title>
<g id="a_edge16_Node000011_Node000012"><a xlink:title=" ">
<path fill="none" stroke="#63b8ff" d="M603.77,-112.36C634.49,-103.77 672.25,-90.88 681.5,-77.5 694.85,-58.18 671.25,-34.38 654.99,-21.24"/>
<polygon fill="#63b8ff" stroke="#63b8ff" points="603.03,-108.94 594.29,-114.93 604.86,-115.69 603.03,-108.94"/>
</a>
</g>
</g>
<!-- Node13 -->
<g id="Node000013" class="node">
<title>Node13</title>
<g id="a_Node000013"><a xlink:href="module_2src_2module_8h.html" target="_top" xlink:title=" ">
<polygon fill="white" stroke="#666666" points="672.38,-77.5 610.62,-77.5 610.62,-56.75 672.38,-56.75 672.38,-77.5"/>
<text text-anchor="middle" x="641.5" y="-64" font-family="Helvetica,sans-Serif" font-size="10.00">module.h</text>
</a>
</g>
</g>
<!-- Node11&#45;&gt;Node13 -->
<g id="edge17_Node000011_Node000013" class="edge">
<title>Node11&#45;&gt;Node13</title>
<g id="a_edge17_Node000011_Node000013"><a xlink:title=" ">
<path fill="none" stroke="#63b8ff" d="M585.12,-106.71C598.83,-97.33 615.64,-85.82 627.32,-77.83"/>
<polygon fill="#63b8ff" stroke="#63b8ff" points="583.33,-103.7 577.05,-112.23 587.28,-109.47 583.33,-103.7"/>
</a>
</g>
</g>
<!-- Node14 -->
<g id="Node000014" class="node">
<title>Node14</title>
<g id="a_Node000014"><a xlink:href="state__machine_8c.html" target="_top" xlink:title=" ">
<polygon fill="white" stroke="#666666" points="554.62,-20.75 458.38,-20.75 458.38,0 554.62,0 554.62,-20.75"/>
<text text-anchor="middle" x="506.5" y="-7.25" font-family="Helvetica,sans-Serif" font-size="10.00">state_machine.c</text>
</a>
</g>
</g>
<!-- Node11&#45;&gt;Node14 -->
<g id="edge19_Node000011_Node000014" class="edge">
<title>Node11&#45;&gt;Node14</title>
<g id="a_edge19_Node000011_Node000014"><a xlink:title=" ">
<path fill="none" stroke="#63b8ff" d="M522.15,-108.26C508.7,-101.15 495.13,-91.12 487.5,-77.5 477.11,-58.95 490.36,-34.23 499.39,-20.88"/>
<polygon fill="#63b8ff" stroke="#63b8ff" points="520.43,-111.31 530.96,-112.49 523.46,-105 520.43,-111.31"/>
</a>
</g>
</g>
<!-- Node15 -->
<g id="Node000015" class="node">
<title>Node15</title>
<g id="a_Node000015"><a xlink:href="state__machine_8h.html" target="_top" xlink:title=" ">
<polygon fill="white" stroke="#666666" points="593,-77.5 496,-77.5 496,-56.75 593,-56.75 593,-77.5"/>
<text text-anchor="middle" x="544.5" y="-64" font-family="Helvetica,sans-Serif" font-size="10.00">state_machine.h</text>
</a>
</g>
</g>
<!-- Node11&#45;&gt;Node15 -->
<g id="edge20_Node000011_Node000015" class="edge">
<title>Node11&#45;&gt;Node15</title>
<g id="a_edge20_Node000011_Node000015"><a xlink:title=" ">
<path fill="none" stroke="#63b8ff" d="M555.08,-102.21C552.48,-93.84 549.61,-84.58 547.51,-77.83"/>
<polygon fill="#63b8ff" stroke="#63b8ff" points="551.7,-103.13 558.01,-111.64 558.39,-101.05 551.7,-103.13"/>
</a>
</g>
</g>
<!-- Node13&#45;&gt;Node12 -->
<g id="edge18_Node000013_Node000012" class="edge">
<title>Node13&#45;&gt;Node12</title>
<g id="a_edge18_Node000013_Node000012"><a xlink:title=" ">
<path fill="none" stroke="#63b8ff" d="M641.5,-44.88C641.5,-36.66 641.5,-27.68 641.5,-21.08"/>
<polygon fill="#63b8ff" stroke="#63b8ff" points="638,-44.82 641.5,-54.82 645,-44.82 638,-44.82"/>
</a>
</g>
</g>
<!-- Node15&#45;&gt;Node12 -->
<g id="edge21_Node000015_Node000012" class="edge">
<title>Node15&#45;&gt;Node12</title>
<g id="a_edge21_Node000015_Node000012"><a xlink:title=" ">
<path fill="none" stroke="#63b8ff" d="M571.69,-50.78C588.57,-41.25 609.73,-29.31 624.31,-21.08"/>
<polygon fill="#63b8ff" stroke="#63b8ff" points="570.15,-47.63 563.16,-55.59 573.59,-53.73 570.15,-47.63"/>
</a>
</g>
</g>
<!-- Node15&#45;&gt;Node14 -->
<g id="edge22_Node000015_Node000014" class="edge">
<title>Node15&#45;&gt;Node14</title>
<g id="a_edge22_Node000015_Node000014"><a xlink:title=" ">
<path fill="none" stroke="#63b8ff" d="M531.15,-46.89C525.09,-38.16 518.19,-28.22 513.23,-21.08"/>
<polygon fill="#63b8ff" stroke="#63b8ff" points="528.27,-48.87 536.84,-55.09 534.02,-44.88 528.27,-48.87"/>
</a>
</g>
</g>
<!-- Node18 -->
<g id="Node000018" class="node">
<title>Node18</title>
<g id="a_Node000018"><a xlink:href="packet__parse_8c.html" target="_top" xlink:title=" ">
<polygon fill="white" stroke="#666666" points="698.88,-134.25 610.12,-134.25 610.12,-113.5 698.88,-113.5 698.88,-134.25"/>
<text text-anchor="middle" x="654.5" y="-120.75" font-family="Helvetica,sans-Serif" font-size="10.00">packet_parse.c</text>
</a>
</g>
</g>
<!-- Node17&#45;&gt;Node18 -->
<g id="edge28_Node000017_Node000018" class="edge">
<title>Node17&#45;&gt;Node18</title>
<g id="a_edge28_Node000017_Node000018"><a xlink:title=" ">
<path fill="none" stroke="#63b8ff" d="M628.35,-160.67C634.77,-151.88 642.14,-141.8 647.41,-134.58"/>
<polygon fill="#63b8ff" stroke="#63b8ff" points="625.62,-158.48 622.54,-168.61 631.27,-162.6 625.62,-158.48"/>
</a>
</g>
</g>
</g>
</svg>
