<?xml version="1.0" encoding="UTF-8" standalone="no"?>
<!DOCTYPE svg PUBLIC "-//W3C//DTD SVG 1.1//EN"
 "http://www.w3.org/Graphics/SVG/1.1/DTD/svg11.dtd">
<!-- Generated by graphviz version 12.1.2 (20240928.0832)
 -->
<!-- Title: packet_buf.h Pages: 1 -->
<svg width="427pt" height="256pt"
 viewBox="0.00 0.00 426.88 255.75" xmlns="http://www.w3.org/2000/svg" xmlns:xlink="http://www.w3.org/1999/xlink">
<g id="graph0" class="graph" transform="scale(1 1) rotate(0) translate(4 251.75)">
<title>packet_buf.h</title>
<!-- Node1 -->
<g id="Node000001" class="node">
<title>Node1</title>
<g id="a_Node000001"><a xlink:title=" ">
<polygon fill="#999999" stroke="#666666" points="138.5,-247.75 61,-247.75 61,-227 138.5,-227 138.5,-247.75"/>
<text text-anchor="middle" x="99.75" y="-234.25" font-family="Helvetica,sans-Serif" font-size="10.00">packet_buf.h</text>
</a>
</g>
</g>
<!-- Node2 -->
<g id="Node000002" class="node">
<title>Node2</title>
<g id="a_Node000002"><a xlink:href="socket_2datagram_8c.html" target="_top" xlink:title=" ">
<polygon fill="white" stroke="#666666" points="71.5,-134.25 0,-134.25 0,-113.5 71.5,-113.5 71.5,-134.25"/>
<text text-anchor="middle" x="35.75" y="-120.75" font-family="Helvetica,sans-Serif" font-size="10.00">datagram.c</text>
</a>
</g>
</g>
<!-- Node1&#45;&gt;Node2 -->
<g id="edge1_Node000001_Node000002" class="edge">
<title>Node1&#45;&gt;Node2</title>
<g id="a_edge1_Node000001_Node000002"><a xlink:title=" ">
<path fill="none" stroke="#63b8ff" d="M78.52,-219.17C70.08,-211.36 60.92,-201.51 54.75,-191 43.99,-172.66 39.01,-147.86 36.97,-134.44"/>
<polygon fill="#63b8ff" stroke="#63b8ff" points="75.95,-221.57 85.78,-225.53 80.56,-216.3 75.95,-221.57"/>
</a>
</g>
</g>
<!-- Node3 -->
<g id="Node000003" class="node">
<title>Node3</title>
<g id="a_Node000003"><a xlink:href="socket_2datagram_8h.html" target="_top" xlink:title=" ">
<polygon fill="white" stroke="#666666" points="135.88,-191 63.62,-191 63.62,-170.25 135.88,-170.25 135.88,-191"/>
<text text-anchor="middle" x="99.75" y="-177.5" font-family="Helvetica,sans-Serif" font-size="10.00">datagram.h</text>
</a>
</g>
</g>
<!-- Node1&#45;&gt;Node3 -->
<g id="edge2_Node000001_Node000003" class="edge">
<title>Node1&#45;&gt;Node3</title>
<g id="a_edge2_Node000001_Node000003"><a xlink:title=" ">
<path fill="none" stroke="#63b8ff" d="M99.75,-215.13C99.75,-206.91 99.75,-197.93 99.75,-191.33"/>
<polygon fill="#63b8ff" stroke="#63b8ff" points="96.25,-215.07 99.75,-225.07 103.25,-215.07 96.25,-215.07"/>
</a>
</g>
</g>
<!-- Node9 -->
<g id="Node000009" class="node">
<title>Node9</title>
<g id="a_Node000009"><a xlink:href="packet__buf_8c.html" target="_top" xlink:title=" ">
<polygon fill="white" stroke="#666666" points="231.12,-191 154.38,-191 154.38,-170.25 231.12,-170.25 231.12,-191"/>
<text text-anchor="middle" x="192.75" y="-177.5" font-family="Helvetica,sans-Serif" font-size="10.00">packet_buf.c</text>
</a>
</g>
</g>
<!-- Node1&#45;&gt;Node9 -->
<g id="edge14_Node000001_Node000009" class="edge">
<title>Node1&#45;&gt;Node9</title>
<g id="a_edge14_Node000001_Node000009"><a xlink:title=" ">
<path fill="none" stroke="#63b8ff" d="M126.28,-220.76C142.38,-211.28 162.42,-199.48 176.27,-191.33"/>
<polygon fill="#63b8ff" stroke="#63b8ff" points="124.52,-217.73 117.68,-225.82 128.07,-223.76 124.52,-217.73"/>
</a>
</g>
</g>
<!-- Node3&#45;&gt;Node2 -->
<g id="edge3_Node000003_Node000002" class="edge">
<title>Node3&#45;&gt;Node2</title>
<g id="a_edge3_Node000003_Node000002"><a xlink:title=" ">
<path fill="none" stroke="#63b8ff" d="M79.57,-162.36C68.85,-153.19 56.08,-142.26 47.09,-134.58"/>
<polygon fill="#63b8ff" stroke="#63b8ff" points="77.28,-165.01 87.16,-168.85 81.83,-159.69 77.28,-165.01"/>
</a>
</g>
</g>
<!-- Node4 -->
<g id="Node000004" class="node">
<title>Node4</title>
<g id="a_Node000004"><a xlink:href="module_8c.html" target="_top" xlink:title=" ">
<polygon fill="white" stroke="#666666" points="198.25,-20.75 137.25,-20.75 137.25,0 198.25,0 198.25,-20.75"/>
<text text-anchor="middle" x="167.75" y="-7.25" font-family="Helvetica,sans-Serif" font-size="10.00">module.c</text>
</a>
</g>
</g>
<!-- Node3&#45;&gt;Node4 -->
<g id="edge4_Node000003_Node000004" class="edge">
<title>Node3&#45;&gt;Node4</title>
<g id="a_edge4_Node000003_Node000004"><a xlink:title=" ">
<path fill="none" stroke="#63b8ff" d="M107.74,-159.86C122.35,-123.71 152.87,-48.2 163.77,-21.22"/>
<polygon fill="#63b8ff" stroke="#63b8ff" points="104.67,-158.11 104.17,-168.69 111.16,-160.73 104.67,-158.11"/>
</a>
</g>
</g>
<!-- Node5 -->
<g id="Node000005" class="node">
<title>Node5</title>
<g id="a_Node000005"><a xlink:href="module_2inc_2vlcb_2module_8h.html" target="_top" xlink:title=" ">
<polygon fill="white" stroke="#666666" points="227.62,-134.25 165.88,-134.25 165.88,-113.5 227.62,-113.5 227.62,-134.25"/>
<text text-anchor="middle" x="196.75" y="-120.75" font-family="Helvetica,sans-Serif" font-size="10.00">module.h</text>
</a>
</g>
</g>
<!-- Node3&#45;&gt;Node5 -->
<g id="edge5_Node000003_Node000005" class="edge">
<title>Node3&#45;&gt;Node5</title>
<g id="a_edge5_Node000003_Node000005"><a xlink:title=" ">
<path fill="none" stroke="#63b8ff" d="M126.94,-164.28C143.82,-154.75 164.98,-142.81 179.56,-134.58"/>
<polygon fill="#63b8ff" stroke="#63b8ff" points="125.4,-161.13 118.41,-169.09 128.84,-167.23 125.4,-161.13"/>
</a>
</g>
</g>
<!-- Node7 -->
<g id="Node000007" class="node">
<title>Node7</title>
<g id="a_Node000007"><a xlink:href="state__machine_8c.html" target="_top" xlink:title=" ">
<polygon fill="white" stroke="#666666" points="418.88,-20.75 322.62,-20.75 322.62,0 418.88,0 418.88,-20.75"/>
<text text-anchor="middle" x="370.75" y="-7.25" font-family="Helvetica,sans-Serif" font-size="10.00">state_machine.c</text>
</a>
</g>
</g>
<!-- Node3&#45;&gt;Node7 -->
<g id="edge13_Node000003_Node000007" class="edge">
<title>Node3&#45;&gt;Node7</title>
<g id="a_edge13_Node000003_Node000007"><a xlink:title=" ">
<path fill="none" stroke="#63b8ff" d="M147.03,-168.88C217.91,-151.69 346.18,-115.98 371.75,-77.5 383.19,-60.29 378.05,-34.59 373.99,-20.85"/>
<polygon fill="#63b8ff" stroke="#63b8ff" points="146.55,-165.4 137.64,-171.13 148.18,-172.21 146.55,-165.4"/>
</a>
</g>
</g>
<!-- Node5&#45;&gt;Node4 -->
<g id="edge6_Node000005_Node000004" class="edge">
<title>Node5&#45;&gt;Node4</title>
<g id="a_edge6_Node000005_Node000004"><a xlink:title=" ">
<path fill="none" stroke="#63b8ff" d="M176.27,-105.7C168.6,-97.97 160.78,-88.18 156.75,-77.5 149.51,-58.34 157.42,-34.27 163.08,-21.1"/>
<polygon fill="#63b8ff" stroke="#63b8ff" points="173.53,-107.93 183.23,-112.19 178.3,-102.81 173.53,-107.93"/>
</a>
</g>
</g>
<!-- Node6 -->
<g id="Node000006" class="node">
<title>Node6</title>
<g id="a_Node000006"><a xlink:href="module_2src_2module_8h.html" target="_top" xlink:title=" ">
<polygon fill="white" stroke="#666666" points="227.62,-77.5 165.88,-77.5 165.88,-56.75 227.62,-56.75 227.62,-77.5"/>
<text text-anchor="middle" x="196.75" y="-64" font-family="Helvetica,sans-Serif" font-size="10.00">module.h</text>
</a>
</g>
</g>
<!-- Node5&#45;&gt;Node6 -->
<g id="edge7_Node000005_Node000006" class="edge">
<title>Node5&#45;&gt;Node6</title>
<g id="a_edge7_Node000005_Node000006"><a xlink:title=" ">
<path fill="none" stroke="#63b8ff" d="M196.75,-101.63C196.75,-93.41 196.75,-84.43 196.75,-77.83"/>
<polygon fill="#63b8ff" stroke="#63b8ff" points="193.25,-101.57 196.75,-111.57 200.25,-101.57 193.25,-101.57"/>
</a>
</g>
</g>
<!-- Node5&#45;&gt;Node7 -->
<g id="edge9_Node000005_Node000007" class="edge">
<title>Node5&#45;&gt;Node7</title>
<g id="a_edge9_Node000005_Node000007"><a xlink:title=" ">
<path fill="none" stroke="#63b8ff" d="M239.18,-121.32C273.94,-117.77 322.08,-107.32 351.75,-77.5 367.08,-62.09 370.22,-35.17 370.75,-20.89"/>
<polygon fill="#63b8ff" stroke="#63b8ff" points="239.13,-117.81 229.46,-122.14 239.72,-124.78 239.13,-117.81"/>
</a>
</g>
</g>
<!-- Node8 -->
<g id="Node000008" class="node">
<title>Node8</title>
<g id="a_Node000008"><a xlink:href="state__machine_8h.html" target="_top" xlink:title=" ">
<polygon fill="white" stroke="#666666" points="342.25,-77.5 245.25,-77.5 245.25,-56.75 342.25,-56.75 342.25,-77.5"/>
<text text-anchor="middle" x="293.75" y="-64" font-family="Helvetica,sans-Serif" font-size="10.00">state_machine.h</text>
</a>
</g>
</g>
<!-- Node5&#45;&gt;Node8 -->
<g id="edge10_Node000005_Node000008" class="edge">
<title>Node5&#45;&gt;Node8</title>
<g id="a_edge10_Node000005_Node000008"><a xlink:title=" ">
<path fill="none" stroke="#63b8ff" d="M223.94,-107.53C240.82,-98 261.98,-86.06 276.56,-77.83"/>
<polygon fill="#63b8ff" stroke="#63b8ff" points="222.4,-104.38 215.41,-112.34 225.84,-110.48 222.4,-104.38"/>
</a>
</g>
</g>
<!-- Node6&#45;&gt;Node4 -->
<g id="edge8_Node000006_Node000004" class="edge">
<title>Node6&#45;&gt;Node4</title>
<g id="a_edge8_Node000006_Node000004"><a xlink:title=" ">
<path fill="none" stroke="#63b8ff" d="M186.26,-46.32C181.71,-37.73 176.59,-28.06 172.89,-21.08"/>
<polygon fill="#63b8ff" stroke="#63b8ff" points="183.08,-47.8 190.86,-55 189.27,-44.52 183.08,-47.8"/>
</a>
</g>
</g>
<!-- Node8&#45;&gt;Node4 -->
<g id="edge11_Node000008_Node000004" class="edge">
<title>Node8&#45;&gt;Node4</title>
<g id="a_edge11_Node000008_Node000004"><a xlink:title=" ">
<path fill="none" stroke="#63b8ff" d="M260.88,-51.84C238.6,-42.16 209.73,-29.62 190.08,-21.08"/>
<polygon fill="#63b8ff" stroke="#63b8ff" points="259.27,-54.96 269.84,-55.73 262.06,-48.54 259.27,-54.96"/>
</a>
</g>
</g>
<!-- Node8&#45;&gt;Node7 -->
<g id="edge12_Node000008_Node000007" class="edge">
<title>Node8&#45;&gt;Node7</title>
<g id="a_edge12_Node000008_Node000007"><a xlink:title=" ">
<path fill="none" stroke="#63b8ff" d="M316.87,-49.69C329.99,-40.36 345.97,-29 357.1,-21.08"/>
<polygon fill="#63b8ff" stroke="#63b8ff" points="314.87,-46.81 308.75,-55.46 318.93,-52.52 314.87,-46.81"/>
</a>
</g>
</g>
</g>
</svg>
