<?xml version="1.0" encoding="UTF-8" standalone="no"?>
<!DOCTYPE svg PUBLIC "-//W3C//DTD SVG 1.1//EN"
 "http://www.w3.org/Graphics/SVG/1.1/DTD/svg11.dtd">
<!-- Generated by graphviz version 12.1.2 (20240928.0832)
 -->
<!-- Title: datagram.h Pages: 1 -->
<svg width="354pt" height="142pt"
 viewBox="0.00 0.00 354.25 142.25" xmlns="http://www.w3.org/2000/svg" xmlns:xlink="http://www.w3.org/1999/xlink">
<g id="graph0" class="graph" transform="scale(1 1) rotate(0) translate(4 138.25)">
<title>datagram.h</title>
<!-- Node1 -->
<g id="Node000001" class="node">
<title>Node1</title>
<g id="a_Node000001"><a xlink:title=" ">
<polygon fill="#999999" stroke="#666666" points="183.5,-134.25 111.25,-134.25 111.25,-113.5 183.5,-113.5 183.5,-134.25"/>
<text text-anchor="middle" x="147.38" y="-120.75" font-family="Helvetica,sans-Serif" font-size="10.00">datagram.h</text>
</a>
</g>
</g>
<!-- Node2 -->
<g id="Node000002" class="node">
<title>Node2</title>
<g id="a_Node000002"><a xlink:title=" ">
<polygon fill="#e0e0e0" stroke="#999999" points="64.75,-77.5 0,-77.5 0,-56.75 64.75,-56.75 64.75,-77.5"/>
<text text-anchor="middle" x="32.38" y="-64" font-family="Helvetica,sans-Serif" font-size="10.00">inttypes.h</text>
</a>
</g>
</g>
<!-- Node1&#45;&gt;Node2 -->
<g id="edge1_Node000001_Node000002" class="edge">
<title>Node1&#45;&gt;Node2</title>
<g id="a_edge1_Node000001_Node000002"><a xlink:title=" ">
<path fill="none" stroke="#63b8ff" d="M126.82,-113.09C109.07,-104.64 83.19,-92.32 63.01,-82.71"/>
<polygon fill="#63b8ff" stroke="#63b8ff" points="64.66,-79.62 54.12,-78.48 61.65,-85.94 64.66,-79.62"/>
</a>
</g>
</g>
<!-- Node3 -->
<g id="Node000003" class="node">
<title>Node3</title>
<g id="a_Node000003"><a xlink:href="opcode_8h.html" target="_top" xlink:title=" ">
<polygon fill="white" stroke="#666666" points="212,-77.5 82.75,-77.5 82.75,-56.75 212,-56.75 212,-77.5"/>
<text text-anchor="middle" x="147.38" y="-64" font-family="Helvetica,sans-Serif" font-size="10.00">vlcb/common/opcode.h</text>
</a>
</g>
</g>
<!-- Node1&#45;&gt;Node3 -->
<g id="edge2_Node000001_Node000003" class="edge">
<title>Node1&#45;&gt;Node3</title>
<g id="a_edge2_Node000001_Node000003"><a xlink:title=" ">
<path fill="none" stroke="#63b8ff" d="M147.38,-113.09C147.38,-106.47 147.38,-97.47 147.38,-89.27"/>
<polygon fill="#63b8ff" stroke="#63b8ff" points="150.88,-89.34 147.38,-79.34 143.88,-89.34 150.88,-89.34"/>
</a>
</g>
</g>
<!-- Node5 -->
<g id="Node000005" class="node">
<title>Node5</title>
<g id="a_Node000005"><a xlink:href="error_8h.html" target="_top" xlink:title=" ">
<polygon fill="white" stroke="#666666" points="346.25,-77.5 230.5,-77.5 230.5,-56.75 346.25,-56.75 346.25,-77.5"/>
<text text-anchor="middle" x="288.38" y="-64" font-family="Helvetica,sans-Serif" font-size="10.00">vlcb/platform/error.h</text>
</a>
</g>
</g>
<!-- Node1&#45;&gt;Node5 -->
<g id="edge4_Node000001_Node000005" class="edge">
<title>Node1&#45;&gt;Node5</title>
<g id="a_edge4_Node000001_Node000005"><a xlink:title=" ">
<path fill="none" stroke="#63b8ff" d="M172.58,-113.09C194.94,-104.41 227.83,-91.63 252.85,-81.92"/>
<polygon fill="#63b8ff" stroke="#63b8ff" points="253.92,-85.26 261.97,-78.38 251.39,-78.73 253.92,-85.26"/>
</a>
</g>
</g>
<!-- Node4 -->
<g id="Node000004" class="node">
<title>Node4</title>
<g id="a_Node000004"><a xlink:title=" ">
<polygon fill="#e0e0e0" stroke="#999999" points="173.75,-20.75 121,-20.75 121,0 173.75,0 173.75,-20.75"/>
<text text-anchor="middle" x="147.38" y="-7.25" font-family="Helvetica,sans-Serif" font-size="10.00">stdint.h</text>
</a>
</g>
</g>
<!-- Node3&#45;&gt;Node4 -->
<g id="edge3_Node000003_Node000004" class="edge">
<title>Node3&#45;&gt;Node4</title>
<g id="a_edge3_Node000003_Node000004"><a xlink:title=" ">
<path fill="none" stroke="#63b8ff" d="M147.38,-56.34C147.38,-49.72 147.38,-40.72 147.38,-32.52"/>
<polygon fill="#63b8ff" stroke="#63b8ff" points="150.88,-32.59 147.38,-22.59 143.88,-32.59 150.88,-32.59"/>
</a>
</g>
</g>
</g>
</svg>
