<?xml version="1.0" encoding="UTF-8" standalone="no"?>
<!DOCTYPE svg PUBLIC "-//W3C//DTD SVG 1.1//EN"
 "http://www.w3.org/Graphics/SVG/1.1/DTD/svg11.dtd">
<!-- Generated by graphviz version 12.1.2 (20240928.0832)
 -->
<!-- Title: datagram.h Pages: 1 -->
<svg width="840pt" height="256pt"
 viewBox="0.00 0.00 840.25 255.75" xmlns="http://www.w3.org/2000/svg" xmlns:xlink="http://www.w3.org/1999/xlink">
<g id="graph0" class="graph" transform="scale(1 1) rotate(0) translate(4 251.75)">
<title>datagram.h</title>
<!-- Node1 -->
<g id="Node000001" class="node">
<title>Node1</title>
<g id="a_Node000001"><a xlink:title=" ">
<polygon fill="#999999" stroke="#666666" points="521.88,-247.75 449.62,-247.75 449.62,-227 521.88,-227 521.88,-247.75"/>
<text text-anchor="middle" x="485.75" y="-234.25" font-family="Helvetica,sans-Serif" font-size="10.00">datagram.h</text>
</a>
</g>
</g>
<!-- Node2 -->
<g id="Node000002" class="node">
<title>Node2</title>
<g id="a_Node000002"><a xlink:href="packet_2datagram_8c.html" target="_top" xlink:title=" ">
<polygon fill="white" stroke="#666666" points="71.5,-191 0,-191 0,-170.25 71.5,-170.25 71.5,-191"/>
<text text-anchor="middle" x="35.75" y="-177.5" font-family="Helvetica,sans-Serif" font-size="10.00">datagram.c</text>
</a>
</g>
</g>
<!-- Node1&#45;&gt;Node2 -->
<g id="edge1_Node000001_Node000002" class="edge">
<title>Node1&#45;&gt;Node2</title>
<g id="a_edge1_Node000001_Node000002"><a xlink:title=" ">
<path fill="none" stroke="#63b8ff" d="M437.82,-232.07C362.61,-225.06 212.37,-210.03 85.75,-191 81.21,-190.32 76.45,-189.53 71.75,-188.7"/>
<polygon fill="#63b8ff" stroke="#63b8ff" points="437.45,-235.55 447.73,-232.99 438.09,-228.58 437.45,-235.55"/>
</a>
</g>
</g>
<!-- Node3 -->
<g id="Node000003" class="node">
<title>Node3</title>
<g id="a_Node000003"><a xlink:href="socket_2datagram_8c.html" target="_top" xlink:title=" ">
<polygon fill="white" stroke="#666666" points="199.5,-134.25 128,-134.25 128,-113.5 199.5,-113.5 199.5,-134.25"/>
<text text-anchor="middle" x="163.75" y="-120.75" font-family="Helvetica,sans-Serif" font-size="10.00">datagram.c</text>
</a>
</g>
</g>
<!-- Node1&#45;&gt;Node3 -->
<g id="edge2_Node000001_Node000003" class="edge">
<title>Node1&#45;&gt;Node3</title>
<g id="a_edge2_Node000001_Node000003"><a xlink:title=" ">
<path fill="none" stroke="#63b8ff" d="M437.93,-231.82C392.12,-226.24 321.71,-214.49 264.75,-191 229.49,-176.46 193.31,-149.17 175.35,-134.61"/>
<polygon fill="#63b8ff" stroke="#63b8ff" points="437.48,-235.29 447.81,-232.96 438.28,-228.33 437.48,-235.29"/>
</a>
</g>
</g>
<!-- Node4 -->
<g id="Node000004" class="node">
<title>Node4</title>
<g id="a_Node000004"><a xlink:href="socket_2datagram_8h.html" target="_top" xlink:title=" ">
<polygon fill="white" stroke="#666666" points="345.88,-191 273.62,-191 273.62,-170.25 345.88,-170.25 345.88,-191"/>
<text text-anchor="middle" x="309.75" y="-177.5" font-family="Helvetica,sans-Serif" font-size="10.00">datagram.h</text>
</a>
</g>
</g>
<!-- Node1&#45;&gt;Node4 -->
<g id="edge3_Node000001_Node000004" class="edge">
<title>Node1&#45;&gt;Node4</title>
<g id="a_edge3_Node000001_Node000004"><a xlink:title=" ">
<path fill="none" stroke="#63b8ff" d="M443.65,-223.28C412.17,-213.49 369.81,-200.31 341.24,-191.42"/>
<polygon fill="#63b8ff" stroke="#63b8ff" points="442.25,-226.51 452.84,-226.14 444.33,-219.82 442.25,-226.51"/>
</a>
</g>
</g>
<!-- Node5 -->
<g id="Node000005" class="node">
<title>Node5</title>
<g id="a_Node000005"><a xlink:href="module_8c.html" target="_top" xlink:title=" ">
<polygon fill="white" stroke="#666666" points="257.25,-20.75 196.25,-20.75 196.25,0 257.25,0 257.25,-20.75"/>
<text text-anchor="middle" x="226.75" y="-7.25" font-family="Helvetica,sans-Serif" font-size="10.00">module.c</text>
</a>
</g>
</g>
<!-- Node1&#45;&gt;Node5 -->
<g id="edge18_Node000001_Node000005" class="edge">
<title>Node1&#45;&gt;Node5</title>
<g id="a_edge18_Node000001_Node000005"><a xlink:title=" ">
<path fill="none" stroke="#63b8ff" d="M438.31,-232.9C384.72,-227.91 295.52,-216.35 222.75,-191 173.02,-173.68 145.63,-179.53 118.75,-134.25 90.63,-86.87 167.15,-40.73 205.87,-21.17"/>
<polygon fill="#63b8ff" stroke="#63b8ff" points="437.73,-236.36 448,-233.76 438.35,-229.39 437.73,-236.36"/>
</a>
</g>
</g>
<!-- Node8 -->
<g id="Node000008" class="node">
<title>Node8</title>
<g id="a_Node000008"><a xlink:href="state__machine_8c.html" target="_top" xlink:title=" ">
<polygon fill="white" stroke="#666666" points="457.88,-20.75 361.62,-20.75 361.62,0 457.88,0 457.88,-20.75"/>
<text text-anchor="middle" x="409.75" y="-7.25" font-family="Helvetica,sans-Serif" font-size="10.00">state_machine.c</text>
</a>
</g>
</g>
<!-- Node1&#45;&gt;Node8 -->
<g id="edge24_Node000001_Node000008" class="edge">
<title>Node1&#45;&gt;Node8</title>
<g id="a_edge24_Node000001_Node000008"><a xlink:title=" ">
<path fill="none" stroke="#63b8ff" d="M479.07,-216C468.1,-182.65 445.53,-114.36 425.75,-56.75 421.52,-44.43 416.5,-30.27 413.23,-21.1"/>
<polygon fill="#63b8ff" stroke="#63b8ff" points="475.64,-216.77 482.08,-225.18 482.29,-214.59 475.64,-216.77"/>
</a>
</g>
</g>
<!-- Node10 -->
<g id="Node000010" class="node">
<title>Node10</title>
<g id="a_Node000010"><a xlink:href="net_2inc_2vlcb_2net_2packet_2datagram_2dcc_8h.html" target="_top" xlink:title=" ">
<polygon fill="white" stroke="#666666" points="593.5,-191 552,-191 552,-170.25 593.5,-170.25 593.5,-191"/>
<text text-anchor="middle" x="572.75" y="-177.5" font-family="Helvetica,sans-Serif" font-size="10.00">dcc.h</text>
</a>
</g>
</g>
<!-- Node1&#45;&gt;Node10 -->
<g id="edge15_Node000001_Node000010" class="edge">
<title>Node1&#45;&gt;Node10</title>
<g id="a_edge15_Node000001_Node000010"><a xlink:title=" ">
<path fill="none" stroke="#63b8ff" d="M511,-220.48C525.99,-211.05 544.5,-199.4 557.33,-191.33"/>
<polygon fill="#63b8ff" stroke="#63b8ff" points="509.18,-217.49 502.58,-225.78 512.91,-223.42 509.18,-217.49"/>
</a>
</g>
</g>
<!-- Node11 -->
<g id="Node000011" class="node">
<title>Node11</title>
<g id="a_Node000011"><a xlink:href="net_2inc_2vlcb_2net_2packet_2datagram_2event_8h.html" target="_top" xlink:title=" ">
<polygon fill="white" stroke="#666666" points="664.12,-191 611.38,-191 611.38,-170.25 664.12,-170.25 664.12,-191"/>
<text text-anchor="middle" x="637.75" y="-177.5" font-family="Helvetica,sans-Serif" font-size="10.00">event.h</text>
</a>
</g>
</g>
<!-- Node1&#45;&gt;Node11 -->
<g id="edge16_Node000001_Node000011" class="edge">
<title>Node1&#45;&gt;Node11</title>
<g id="a_edge16_Node000001_Node000011"><a xlink:title=" ">
<path fill="none" stroke="#63b8ff" d="M523.62,-222.74C550.82,-212.94 586.83,-199.97 611.07,-191.24"/>
<polygon fill="#63b8ff" stroke="#63b8ff" points="522.57,-219.39 514.35,-226.07 524.94,-225.98 522.57,-219.39"/>
</a>
</g>
</g>
<!-- Node12 -->
<g id="Node000012" class="node">
<title>Node12</title>
<g id="a_Node000012"><a xlink:href="general_8h.html" target="_top" xlink:title=" ">
<polygon fill="white" stroke="#666666" points="743.62,-191 681.88,-191 681.88,-170.25 743.62,-170.25 743.62,-191"/>
<text text-anchor="middle" x="712.75" y="-177.5" font-family="Helvetica,sans-Serif" font-size="10.00">general.h</text>
</a>
</g>
</g>
<!-- Node1&#45;&gt;Node12 -->
<g id="edge17_Node000001_Node000012" class="edge">
<title>Node1&#45;&gt;Node12</title>
<g id="a_edge17_Node000001_Node000012"><a xlink:title=" ">
<path fill="none" stroke="#63b8ff" d="M533.35,-224.89C577.91,-214.15 643.18,-198.4 681.48,-189.17"/>
<polygon fill="#63b8ff" stroke="#63b8ff" points="532.59,-221.48 523.69,-227.22 534.23,-228.28 532.59,-221.48"/>
</a>
</g>
</g>
<!-- Node13 -->
<g id="Node000013" class="node">
<title>Node13</title>
<g id="a_Node000013"><a xlink:href="net_2inc_2vlcb_2net_2packet_2datagram_2module_8h.html" target="_top" xlink:title=" ">
<polygon fill="white" stroke="#666666" points="575.62,-77.5 513.88,-77.5 513.88,-56.75 575.62,-56.75 575.62,-77.5"/>
<text text-anchor="middle" x="544.75" y="-64" font-family="Helvetica,sans-Serif" font-size="10.00">module.h</text>
</a>
</g>
</g>
<!-- Node1&#45;&gt;Node13 -->
<g id="edge19_Node000001_Node000013" class="edge">
<title>Node1&#45;&gt;Node13</title>
<g id="a_edge19_Node000001_Node000013"><a xlink:title=" ">
<path fill="none" stroke="#63b8ff" d="M492.85,-216.13C505.59,-179.81 531.88,-104.83 541.3,-77.97"/>
<polygon fill="#63b8ff" stroke="#63b8ff" points="489.6,-214.82 489.59,-225.42 496.2,-217.14 489.6,-214.82"/>
</a>
</g>
</g>
<!-- Node4&#45;&gt;Node3 -->
<g id="edge4_Node000004_Node000003" class="edge">
<title>Node4&#45;&gt;Node3</title>
<g id="a_edge4_Node000004_Node000003"><a xlink:title=" ">
<path fill="none" stroke="#63b8ff" d="M273.06,-165.87C247.06,-156.12 212.81,-143.27 189.63,-134.58"/>
<polygon fill="#63b8ff" stroke="#63b8ff" points="271.64,-169.07 282.23,-169.31 274.1,-162.52 271.64,-169.07"/>
</a>
</g>
</g>
<!-- Node4&#45;&gt;Node5 -->
<g id="edge5_Node000004_Node000005" class="edge">
<title>Node4&#45;&gt;Node5</title>
<g id="a_edge5_Node000004_Node000005"><a xlink:title=" ">
<path fill="none" stroke="#63b8ff" d="M285.32,-163.74C242.58,-135.89 158.55,-80.86 156.75,-77.5 143.66,-53.03 176.98,-32.49 202.03,-21.07"/>
<polygon fill="#63b8ff" stroke="#63b8ff" points="283.18,-166.53 293.47,-169.05 287,-160.66 283.18,-166.53"/>
</a>
</g>
</g>
<!-- Node6 -->
<g id="Node000006" class="node">
<title>Node6</title>
<g id="a_Node000006"><a xlink:href="module_2inc_2vlcb_2module_8h.html" target="_top" xlink:title=" ">
<polygon fill="white" stroke="#666666" points="340.62,-134.25 278.88,-134.25 278.88,-113.5 340.62,-113.5 340.62,-134.25"/>
<text text-anchor="middle" x="309.75" y="-120.75" font-family="Helvetica,sans-Serif" font-size="10.00">module.h</text>
</a>
</g>
</g>
<!-- Node4&#45;&gt;Node6 -->
<g id="edge6_Node000004_Node000006" class="edge">
<title>Node4&#45;&gt;Node6</title>
<g id="a_edge6_Node000004_Node000006"><a xlink:title=" ">
<path fill="none" stroke="#63b8ff" d="M309.75,-158.38C309.75,-150.16 309.75,-141.18 309.75,-134.58"/>
<polygon fill="#63b8ff" stroke="#63b8ff" points="306.25,-158.32 309.75,-168.32 313.25,-158.32 306.25,-158.32"/>
</a>
</g>
</g>
<!-- Node4&#45;&gt;Node8 -->
<g id="edge14_Node000004_Node000008" class="edge">
<title>Node4&#45;&gt;Node8</title>
<g id="a_edge14_Node000004_Node000008"><a xlink:title=" ">
<path fill="none" stroke="#63b8ff" d="M334.28,-163.39C358.68,-145.62 394.59,-114.66 409.75,-77.5 417.38,-58.79 414.52,-34.55 411.99,-21.23"/>
<polygon fill="#63b8ff" stroke="#63b8ff" points="332.34,-160.48 326.18,-169.1 336.37,-166.2 332.34,-160.48"/>
</a>
</g>
</g>
<!-- Node6&#45;&gt;Node5 -->
<g id="edge7_Node000006_Node000005" class="edge">
<title>Node6&#45;&gt;Node5</title>
<g id="a_edge7_Node000006_Node000005"><a xlink:title=" ">
<path fill="none" stroke="#63b8ff" d="M295.65,-104.11C289.53,-95.94 282.27,-86.25 275.75,-77.5 260.89,-57.56 243.6,-34.18 234.04,-21.25"/>
<polygon fill="#63b8ff" stroke="#63b8ff" points="292.73,-106.04 301.53,-111.94 298.33,-101.84 292.73,-106.04"/>
</a>
</g>
</g>
<!-- Node7 -->
<g id="Node000007" class="node">
<title>Node7</title>
<g id="a_Node000007"><a xlink:href="module_2src_2module_8h.html" target="_top" xlink:title=" ">
<polygon fill="white" stroke="#666666" points="227.62,-77.5 165.88,-77.5 165.88,-56.75 227.62,-56.75 227.62,-77.5"/>
<text text-anchor="middle" x="196.75" y="-64" font-family="Helvetica,sans-Serif" font-size="10.00">module.h</text>
</a>
</g>
</g>
<!-- Node6&#45;&gt;Node7 -->
<g id="edge8_Node000006_Node000007" class="edge">
<title>Node6&#45;&gt;Node7</title>
<g id="a_edge8_Node000006_Node000007"><a xlink:title=" ">
<path fill="none" stroke="#63b8ff" d="M279.45,-108.2C259.58,-98.57 234.16,-86.25 216.78,-77.83"/>
<polygon fill="#63b8ff" stroke="#63b8ff" points="277.66,-111.22 288.19,-112.43 280.71,-104.92 277.66,-111.22"/>
</a>
</g>
</g>
<!-- Node6&#45;&gt;Node8 -->
<g id="edge10_Node000006_Node000008" class="edge">
<title>Node6&#45;&gt;Node8</title>
<g id="a_edge10_Node000006_Node000008"><a xlink:title=" ">
<path fill="none" stroke="#63b8ff" d="M348.8,-108.61C363.82,-101.36 379.93,-91.15 390.75,-77.5 404.1,-60.65 408.07,-34.8 409.25,-20.94"/>
<polygon fill="#63b8ff" stroke="#63b8ff" points="347.73,-105.25 340.04,-112.53 350.6,-111.64 347.73,-105.25"/>
</a>
</g>
</g>
<!-- Node9 -->
<g id="Node000009" class="node">
<title>Node9</title>
<g id="a_Node000009"><a xlink:href="state__machine_8h.html" target="_top" xlink:title=" ">
<polygon fill="white" stroke="#666666" points="381.25,-77.5 284.25,-77.5 284.25,-56.75 381.25,-56.75 381.25,-77.5"/>
<text text-anchor="middle" x="332.75" y="-64" font-family="Helvetica,sans-Serif" font-size="10.00">state_machine.h</text>
</a>
</g>
</g>
<!-- Node6&#45;&gt;Node9 -->
<g id="edge11_Node000006_Node000009" class="edge">
<title>Node6&#45;&gt;Node9</title>
<g id="a_edge11_Node000006_Node000009"><a xlink:title=" ">
<path fill="none" stroke="#63b8ff" d="M318.31,-102.49C321.86,-94.05 325.8,-84.66 328.67,-77.83"/>
<polygon fill="#63b8ff" stroke="#63b8ff" points="315.09,-101.12 314.45,-111.69 321.55,-103.83 315.09,-101.12"/>
</a>
</g>
</g>
<!-- Node7&#45;&gt;Node5 -->
<g id="edge9_Node000007_Node000005" class="edge">
<title>Node7&#45;&gt;Node5</title>
<g id="a_edge9_Node000007_Node000005"><a xlink:title=" ">
<path fill="none" stroke="#63b8ff" d="M207.6,-46.32C212.31,-37.73 217.61,-28.06 221.43,-21.08"/>
<polygon fill="#63b8ff" stroke="#63b8ff" points="204.58,-44.56 202.84,-55.01 210.72,-47.92 204.58,-44.56"/>
</a>
</g>
</g>
<!-- Node9&#45;&gt;Node5 -->
<g id="edge12_Node000009_Node000005" class="edge">
<title>Node9&#45;&gt;Node5</title>
<g id="a_edge12_Node000009_Node000005"><a xlink:title=" ">
<path fill="none" stroke="#63b8ff" d="M303.81,-51.18C285.25,-41.59 261.69,-29.42 245.54,-21.08"/>
<polygon fill="#63b8ff" stroke="#63b8ff" points="301.96,-54.16 312.45,-55.64 305.18,-47.94 301.96,-54.16"/>
</a>
</g>
</g>
<!-- Node9&#45;&gt;Node8 -->
<g id="edge13_Node000009_Node000008" class="edge">
<title>Node9&#45;&gt;Node8</title>
<g id="a_edge13_Node000009_Node000008"><a xlink:title=" ">
<path fill="none" stroke="#63b8ff" d="M355.87,-49.69C368.99,-40.36 384.97,-29 396.1,-21.08"/>
<polygon fill="#63b8ff" stroke="#63b8ff" points="353.87,-46.81 347.75,-55.46 357.93,-52.52 353.87,-46.81"/>
</a>
</g>
</g>
<!-- Node13&#45;&gt;Node5 -->
<g id="edge20_Node000013_Node000005" class="edge">
<title>Node13&#45;&gt;Node5</title>
<g id="a_edge20_Node000013_Node000005"><a xlink:title=" ">
<path fill="none" stroke="#63b8ff" d="M502.33,-58.82C437.3,-47.63 314.52,-26.49 257.41,-16.65"/>
<polygon fill="#63b8ff" stroke="#63b8ff" points="501.45,-62.22 511.9,-60.47 502.64,-55.32 501.45,-62.22"/>
</a>
</g>
</g>
<!-- Node13&#45;&gt;Node8 -->
<g id="edge23_Node000013_Node000008" class="edge">
<title>Node13&#45;&gt;Node8</title>
<g id="a_edge23_Node000013_Node000008"><a xlink:title=" ">
<path fill="none" stroke="#63b8ff" d="M510.18,-52.11C486.22,-42.39 454.92,-29.69 433.68,-21.08"/>
<polygon fill="#63b8ff" stroke="#63b8ff" points="508.63,-55.25 519.21,-55.77 511.26,-48.77 508.63,-55.25"/>
</a>
</g>
</g>
<!-- Node14 -->
<g id="Node000014" class="node">
<title>Node14</title>
<g id="a_Node000014"><a xlink:href="release__node__num__deserialize_8c.html" target="_top" xlink:title=" ">
<polygon fill="white" stroke="#666666" points="651.25,-20.75 476.25,-20.75 476.25,0 651.25,0 651.25,-20.75"/>
<text text-anchor="middle" x="563.75" y="-7.25" font-family="Helvetica,sans-Serif" font-size="10.00">release_node_num_deserialize.c</text>
</a>
</g>
</g>
<!-- Node13&#45;&gt;Node14 -->
<g id="edge21_Node000013_Node000014" class="edge">
<title>Node13&#45;&gt;Node14</title>
<g id="a_edge21_Node000013_Node000014"><a xlink:title=" ">
<path fill="none" stroke="#63b8ff" d="M551.82,-45.74C554.75,-37.3 558.01,-27.91 560.38,-21.08"/>
<polygon fill="#63b8ff" stroke="#63b8ff" points="548.62,-44.31 548.64,-54.91 555.23,-46.61 548.62,-44.31"/>
</a>
</g>
</g>
<!-- Node15 -->
<g id="Node000015" class="node">
<title>Node15</title>
<g id="a_Node000015"><a xlink:href="release__node__num__serialize_8c.html" target="_top" xlink:title=" ">
<polygon fill="white" stroke="#666666" points="832.25,-20.75 669.25,-20.75 669.25,0 832.25,0 832.25,-20.75"/>
<text text-anchor="middle" x="750.75" y="-7.25" font-family="Helvetica,sans-Serif" font-size="10.00">release_node_num_serialize.c</text>
</a>
</g>
</g>
<!-- Node13&#45;&gt;Node15 -->
<g id="edge22_Node000013_Node000015" class="edge">
<title>Node13&#45;&gt;Node15</title>
<g id="a_edge22_Node000013_Node000015"><a xlink:title=" ">
<path fill="none" stroke="#63b8ff" d="M587.06,-54.88C624.42,-44.95 678.33,-30.62 713.94,-21.16"/>
<polygon fill="#63b8ff" stroke="#63b8ff" points="586.27,-51.47 577.5,-57.42 588.06,-58.23 586.27,-51.47"/>
</a>
</g>
</g>
</g>
</svg>
