<?xml version="1.0" encoding="UTF-8" standalone="no"?>
<!DOCTYPE svg PUBLIC "-//W3C//DTD SVG 1.1//EN"
 "http://www.w3.org/Graphics/SVG/1.1/DTD/svg11.dtd">
<!-- Generated by graphviz version 12.1.2 (20240928.0832)
 -->
<!-- Title: vlcb_net_adpt_ParseRawCanData Pages: 1 -->
<svg width="582pt" height="68pt"
 viewBox="0.00 0.00 581.75 67.75" xmlns="http://www.w3.org/2000/svg" xmlns:xlink="http://www.w3.org/1999/xlink">
<g id="graph0" class="graph" transform="scale(1 1) rotate(0) translate(4 63.75)">
<title>vlcb_net_adpt_ParseRawCanData</title>
<!-- Node1 -->
<g id="Node000001" class="node">
<title>Node1</title>
<g id="a_Node000001"><a xlink:title="Parse the CAN packet data into the inner format.">
<polygon fill="#999999" stroke="#666666" points="178.75,-39.75 0,-39.75 0,-19 178.75,-19 178.75,-39.75"/>
<text text-anchor="middle" x="89.38" y="-26.25" font-family="Helvetica,sans-Serif" font-size="10.00">vlcb_net_adpt_ParseRawCanData</text>
</a>
</g>
</g>
<!-- Node2 -->
<g id="Node000002" class="node">
<title>Node2</title>
<g id="a_Node000002"><a xlink:href="can__prio__from__byte_8c.html#aaf28fed27e9847fafa6adab1bc112f84" target="_top" xlink:title="Checked cast from raw byte.">
<polygon fill="white" stroke="#666666" points="383.75,-59.75 214.75,-59.75 214.75,-39 383.75,-39 383.75,-59.75"/>
<text text-anchor="middle" x="299.25" y="-46.25" font-family="Helvetica,sans-Serif" font-size="10.00">vlcb_defs_CanPriorityFromByte</text>
</a>
</g>
</g>
<!-- Node1&#45;&gt;Node2 -->
<g id="edge1_Node000001_Node000002" class="edge">
<title>Node1&#45;&gt;Node2</title>
<g id="a_edge1_Node000001_Node000002"><a xlink:title=" ">
<path fill="none" stroke="#63b8ff" d="M179.14,-37.91C187.09,-38.68 195.16,-39.46 203.16,-40.23"/>
<polygon fill="#63b8ff" stroke="#63b8ff" points="202.61,-43.69 212.9,-41.16 203.28,-36.72 202.61,-43.69"/>
</a>
</g>
</g>
<!-- Node4 -->
<g id="Node000004" class="node">
<title>Node4</title>
<g id="a_Node000004"><a xlink:href="can__id__new_8c.html#a96585647cdbba9c7da0b3ab571b37c77" target="_top" xlink:title="Checked cast from raw byte.">
<polygon fill="white" stroke="#666666" points="357.88,-20.75 240.62,-20.75 240.62,0 357.88,0 357.88,-20.75"/>
<text text-anchor="middle" x="299.25" y="-7.25" font-family="Helvetica,sans-Serif" font-size="10.00">vlcb_defs_NewCanId</text>
</a>
</g>
</g>
<!-- Node1&#45;&gt;Node4 -->
<g id="edge3_Node000001_Node000004" class="edge">
<title>Node1&#45;&gt;Node4</title>
<g id="a_edge3_Node000001_Node000004"><a xlink:title=" ">
<path fill="none" stroke="#63b8ff" d="M179.14,-21.26C195.74,-19.74 212.87,-18.18 228.79,-16.72"/>
<polygon fill="#63b8ff" stroke="#63b8ff" points="228.99,-20.22 238.63,-15.82 228.36,-13.25 228.99,-20.22"/>
</a>
</g>
</g>
<!-- Node3 -->
<g id="Node000003" class="node">
<title>Node3</title>
<g id="a_Node000003"><a xlink:href="can__is__prio__valid_8c.html#aaa5c7e38a9971c1c2a6af4b6e8fee051" target="_top" xlink:title="Check if CAN priority value is valid.">
<polygon fill="white" stroke="#666666" points="573.75,-59.75 419.75,-59.75 419.75,-39 573.75,-39 573.75,-59.75"/>
<text text-anchor="middle" x="496.75" y="-46.25" font-family="Helvetica,sans-Serif" font-size="10.00">vlcb_defs_IsCanPriorityValid</text>
</a>
</g>
</g>
<!-- Node2&#45;&gt;Node3 -->
<g id="edge2_Node000002_Node000003" class="edge">
<title>Node2&#45;&gt;Node3</title>
<g id="a_edge2_Node000002_Node000003"><a xlink:title=" ">
<path fill="none" stroke="#63b8ff" d="M384.01,-49.38C391.88,-49.38 399.87,-49.38 407.78,-49.38"/>
<polygon fill="#63b8ff" stroke="#63b8ff" points="407.76,-52.88 417.76,-49.38 407.76,-45.88 407.76,-52.88"/>
</a>
</g>
</g>
<!-- Node5 -->
<g id="Node000005" class="node">
<title>Node5</title>
<g id="a_Node000005"><a xlink:href="can__id__is__valid_8c.html#aba3ce98e83c4691c65ebc79eadde51a2" target="_top" xlink:title="Check if VLCB CAN ID value is valid.">
<polygon fill="white" stroke="#666666" points="560.62,-20.75 432.88,-20.75 432.88,0 560.62,0 560.62,-20.75"/>
<text text-anchor="middle" x="496.75" y="-7.25" font-family="Helvetica,sans-Serif" font-size="10.00">vlcb_defs_IsCanIdValid</text>
</a>
</g>
</g>
<!-- Node4&#45;&gt;Node5 -->
<g id="edge4_Node000004_Node000005" class="edge">
<title>Node4&#45;&gt;Node5</title>
<g id="a_edge4_Node000004_Node000005"><a xlink:title=" ">
<path fill="none" stroke="#63b8ff" d="M358.11,-10.38C377.87,-10.38 400.26,-10.38 421.15,-10.38"/>
<polygon fill="#63b8ff" stroke="#63b8ff" points="421.06,-13.88 431.06,-10.38 421.06,-6.88 421.06,-13.88"/>
</a>
</g>
</g>
</g>
</svg>
