<?xml version="1.0" encoding="UTF-8" standalone="no"?>
<!DOCTYPE svg PUBLIC "-//W3C//DTD SVG 1.1//EN"
 "http://www.w3.org/Graphics/SVG/1.1/DTD/svg11.dtd">
<!-- Generated by graphviz version 12.1.2 (20240928.0832)
 -->
<!-- Title: vlcb_net_adpt_ParseRawCanData Pages: 1 -->
<svg width="582pt" height="107pt"
 viewBox="0.00 0.00 581.75 106.75" xmlns="http://www.w3.org/2000/svg" xmlns:xlink="http://www.w3.org/1999/xlink">
<g id="graph0" class="graph" transform="scale(1 1) rotate(0) translate(4 102.75)">
<title>vlcb_net_adpt_ParseRawCanData</title>
<!-- Node1 -->
<g id="Node000001" class="node">
<title>Node1</title>
<g id="a_Node000001"><a xlink:title="Parse the CAN packet data into the inner format.">
<polygon fill="#999999" stroke="#666666" points="178.75,-59.75 0,-59.75 0,-39 178.75,-39 178.75,-59.75"/>
<text text-anchor="middle" x="89.38" y="-46.25" font-family="Helvetica,sans-Serif" font-size="10.00">vlcb_net_adpt_ParseRawCanData</text>
</a>
</g>
</g>
<!-- Node2 -->
<g id="Node000002" class="node">
<title>Node2</title>
<g id="a_Node000002"><a xlink:href="can__prio__from__byte_8c.html#aaf28fed27e9847fafa6adab1bc112f84" target="_top" xlink:title=" ">
<polygon fill="white" stroke="#666666" points="383.75,-98.75 214.75,-98.75 214.75,-78 383.75,-78 383.75,-98.75"/>
<text text-anchor="middle" x="299.25" y="-85.25" font-family="Helvetica,sans-Serif" font-size="10.00">vlcb_defs_CanPriorityFromByte</text>
</a>
</g>
</g>
<!-- Node1&#45;&gt;Node2 -->
<g id="edge1_Node000001_Node000002" class="edge">
<title>Node1&#45;&gt;Node2</title>
<g id="a_edge1_Node000001_Node000002"><a xlink:title=" ">
<path fill="none" stroke="#63b8ff" d="M148.28,-60.24C173.4,-64.95 203.02,-70.51 229.27,-75.43"/>
<polygon fill="#63b8ff" stroke="#63b8ff" points="228.33,-78.82 238.81,-77.22 229.62,-71.94 228.33,-78.82"/>
</a>
</g>
</g>
<!-- Node4 -->
<g id="Node000004" class="node">
<title>Node4</title>
<g id="a_Node000004"><a xlink:href="can__id__new_8c.html#a96585647cdbba9c7da0b3ab571b37c77" target="_top" xlink:title=" ">
<polygon fill="white" stroke="#666666" points="357.88,-59.75 240.62,-59.75 240.62,-39 357.88,-39 357.88,-59.75"/>
<text text-anchor="middle" x="299.25" y="-46.25" font-family="Helvetica,sans-Serif" font-size="10.00">vlcb_defs_NewCanId</text>
</a>
</g>
</g>
<!-- Node1&#45;&gt;Node4 -->
<g id="edge3_Node000001_Node000004" class="edge">
<title>Node1&#45;&gt;Node4</title>
<g id="a_edge3_Node000001_Node000004"><a xlink:title=" ">
<path fill="none" stroke="#63b8ff" d="M179.14,-49.38C195.74,-49.38 212.87,-49.38 228.79,-49.38"/>
<polygon fill="#63b8ff" stroke="#63b8ff" points="228.63,-52.88 238.63,-49.38 228.63,-45.88 228.63,-52.88"/>
</a>
</g>
</g>
<!-- Node6 -->
<g id="Node000006" class="node">
<title>Node6</title>
<g id="a_Node000006"><a xlink:href="addr_8c.html#a01a3ff7e0be059c4ab66d240255e13b6" target="_top" xlink:title=" ">
<polygon fill="white" stroke="#666666" points="374.38,-20.75 224.12,-20.75 224.12,0 374.38,0 374.38,-20.75"/>
<text text-anchor="middle" x="299.25" y="-7.25" font-family="Helvetica,sans-Serif" font-size="10.00">vlcb_net_NewCanIdHwAddr</text>
</a>
</g>
</g>
<!-- Node1&#45;&gt;Node6 -->
<g id="edge5_Node000001_Node000006" class="edge">
<title>Node1&#45;&gt;Node6</title>
<g id="a_edge5_Node000001_Node000006"><a xlink:title=" ">
<path fill="none" stroke="#63b8ff" d="M148.28,-38.51C173.4,-33.8 203.02,-28.24 229.27,-23.32"/>
<polygon fill="#63b8ff" stroke="#63b8ff" points="229.62,-26.81 238.81,-21.53 228.33,-19.93 229.62,-26.81"/>
</a>
</g>
</g>
<!-- Node3 -->
<g id="Node000003" class="node">
<title>Node3</title>
<g id="a_Node000003"><a xlink:href="can__is__prio__valid_8c.html#aaa5c7e38a9971c1c2a6af4b6e8fee051" target="_top" xlink:title=" ">
<polygon fill="white" stroke="#666666" points="573.75,-98.75 419.75,-98.75 419.75,-78 573.75,-78 573.75,-98.75"/>
<text text-anchor="middle" x="496.75" y="-85.25" font-family="Helvetica,sans-Serif" font-size="10.00">vlcb_defs_IsCanPriorityValid</text>
</a>
</g>
</g>
<!-- Node2&#45;&gt;Node3 -->
<g id="edge2_Node000002_Node000003" class="edge">
<title>Node2&#45;&gt;Node3</title>
<g id="a_edge2_Node000002_Node000003"><a xlink:title=" ">
<path fill="none" stroke="#63b8ff" d="M384.01,-88.38C391.88,-88.38 399.87,-88.38 407.78,-88.38"/>
<polygon fill="#63b8ff" stroke="#63b8ff" points="407.76,-91.88 417.76,-88.38 407.76,-84.88 407.76,-91.88"/>
</a>
</g>
</g>
<!-- Node5 -->
<g id="Node000005" class="node">
<title>Node5</title>
<g id="a_Node000005"><a xlink:href="can__id__is__valid_8c.html#aba3ce98e83c4691c65ebc79eadde51a2" target="_top" xlink:title=" ">
<polygon fill="white" stroke="#666666" points="560.62,-59.75 432.88,-59.75 432.88,-39 560.62,-39 560.62,-59.75"/>
<text text-anchor="middle" x="496.75" y="-46.25" font-family="Helvetica,sans-Serif" font-size="10.00">vlcb_defs_IsCanIdValid</text>
</a>
</g>
</g>
<!-- Node4&#45;&gt;Node5 -->
<g id="edge4_Node000004_Node000005" class="edge">
<title>Node4&#45;&gt;Node5</title>
<g id="a_edge4_Node000004_Node000005"><a xlink:title=" ">
<path fill="none" stroke="#63b8ff" d="M358.11,-49.38C377.87,-49.38 400.26,-49.38 421.15,-49.38"/>
<polygon fill="#63b8ff" stroke="#63b8ff" points="421.06,-52.88 431.06,-49.38 421.06,-45.88 421.06,-52.88"/>
</a>
</g>
</g>
</g>
</svg>
