<?xml version="1.0" encoding="UTF-8" standalone="no"?>
<!DOCTYPE svg PUBLIC "-//W3C//DTD SVG 1.1//EN"
 "http://www.w3.org/Graphics/SVG/1.1/DTD/svg11.dtd">
<!-- Generated by graphviz version 12.1.2 (20240928.0832)
 -->
<!-- Title: vlcb_net_packetbuf_IsEmpty Pages: 1 -->
<svg width="759pt" height="80pt"
 viewBox="0.00 0.00 758.50 80.12" xmlns="http://www.w3.org/2000/svg" xmlns:xlink="http://www.w3.org/1999/xlink">
<g id="graph0" class="graph" transform="scale(1 1) rotate(0) translate(4 76.12)">
<title>vlcb_net_packetbuf_IsEmpty</title>
<!-- Node1 -->
<g id="Node000001" class="node">
<title>Node1</title>
<g id="a_Node000001"><a xlink:title=" ">
<polygon fill="#999999" stroke="#666666" points="750.5,-55.5 640,-55.5 640,-22 750.5,-22 750.5,-55.5"/>
<text text-anchor="start" x="648" y="-42" font-family="Helvetica,sans-Serif" font-size="10.00">vlcb_net_packetbuf</text>
<text text-anchor="middle" x="695.25" y="-29.25" font-family="Helvetica,sans-Serif" font-size="10.00">_IsEmpty</text>
</a>
</g>
</g>
<!-- Node2 -->
<g id="Node000002" class="node">
<title>Node2</title>
<g id="a_Node000002"><a xlink:href="packet__buf_8c.html#a2ea3a27beac9f24f9dc6acdbfb28906c" target="_top" xlink:title=" ">
<polygon fill="white" stroke="#666666" points="604,-72.12 470.25,-72.12 470.25,-51.38 604,-51.38 604,-72.12"/>
<text text-anchor="middle" x="537.12" y="-58.62" font-family="Helvetica,sans-Serif" font-size="10.00">vlcb_net_packetbuf_Pop</text>
</a>
</g>
</g>
<!-- Node1&#45;&gt;Node2 -->
<g id="edge1_Node000001_Node000002" class="edge">
<title>Node1&#45;&gt;Node2</title>
<g id="a_edge1_Node000001_Node000002"><a xlink:title=" ">
<path fill="none" stroke="#63b8ff" d="M628.47,-48.44C620.45,-49.62 612.26,-50.83 604.24,-52.01"/>
<polygon fill="#63b8ff" stroke="#63b8ff" points="628.76,-51.94 638.15,-47.01 627.74,-45.01 628.76,-51.94"/>
</a>
</g>
</g>
<!-- Node5 -->
<g id="Node000005" class="node">
<title>Node5</title>
<g id="a_Node000005"><a xlink:href="packet__buf_8c.html#a029619a9922642b39c89b7f3da28ce70" target="_top" xlink:title=" ">
<polygon fill="white" stroke="#666666" points="592.38,-33.5 481.88,-33.5 481.88,0 592.38,0 592.38,-33.5"/>
<text text-anchor="start" x="489.88" y="-20" font-family="Helvetica,sans-Serif" font-size="10.00">vlcb_net_packetbuf</text>
<text text-anchor="middle" x="537.12" y="-7.25" font-family="Helvetica,sans-Serif" font-size="10.00">_PopDeferred</text>
</a>
</g>
</g>
<!-- Node1&#45;&gt;Node5 -->
<g id="edge4_Node000001_Node000005" class="edge">
<title>Node1&#45;&gt;Node5</title>
<g id="a_edge4_Node000001_Node000005"><a xlink:title=" ">
<path fill="none" stroke="#63b8ff" d="M628.4,-29.47C616.51,-27.79 604.23,-26.06 592.7,-24.44"/>
<polygon fill="#63b8ff" stroke="#63b8ff" points="627.76,-32.91 638.15,-30.84 628.73,-25.98 627.76,-32.91"/>
</a>
</g>
</g>
<!-- Node3 -->
<g id="Node000003" class="node">
<title>Node3</title>
<g id="a_Node000003"><a xlink:href="socket_2datagram_8c.html#a107d2d2542862f851d0fd20080b277cb" target="_top" xlink:title=" ">
<polygon fill="white" stroke="#666666" points="434.25,-72.12 283.25,-72.12 283.25,-51.38 434.25,-51.38 434.25,-72.12"/>
<text text-anchor="middle" x="358.75" y="-58.62" font-family="Helvetica,sans-Serif" font-size="10.00">vlcb_net_sock_dgram_Recv</text>
</a>
</g>
</g>
<!-- Node2&#45;&gt;Node3 -->
<g id="edge2_Node000002_Node000003" class="edge">
<title>Node2&#45;&gt;Node3</title>
<g id="a_edge2_Node000002_Node000003"><a xlink:title=" ">
<path fill="none" stroke="#63b8ff" d="M458.45,-61.75C450.53,-61.75 442.49,-61.75 434.59,-61.75"/>
<polygon fill="#63b8ff" stroke="#63b8ff" points="458.43,-65.25 468.43,-61.75 458.43,-58.25 458.43,-65.25"/>
</a>
</g>
</g>
<!-- Node4 -->
<g id="Node000004" class="node">
<title>Node4</title>
<g id="a_Node000004"><a xlink:href="module_8c.html#a8e05ae271d378570de2cb6bbf3ca6b2d" target="_top" xlink:title=" ">
<polygon fill="white" stroke="#666666" points="247.25,-72.12 145.75,-72.12 145.75,-51.38 247.25,-51.38 247.25,-72.12"/>
<text text-anchor="middle" x="196.5" y="-58.62" font-family="Helvetica,sans-Serif" font-size="10.00">vlcb_module_Poll</text>
</a>
</g>
</g>
<!-- Node3&#45;&gt;Node4 -->
<g id="edge3_Node000003_Node000004" class="edge">
<title>Node3&#45;&gt;Node4</title>
<g id="a_edge3_Node000003_Node000004"><a xlink:title=" ">
<path fill="none" stroke="#63b8ff" d="M271.35,-61.75C263.27,-61.75 255.28,-61.75 247.7,-61.75"/>
<polygon fill="#63b8ff" stroke="#63b8ff" points="271.27,-65.25 281.27,-61.75 271.27,-58.25 271.27,-65.25"/>
</a>
</g>
</g>
<!-- Node6 -->
<g id="Node000006" class="node">
<title>Node6</title>
<g id="a_Node000006"><a xlink:href="socket_2datagram_8c.html#a7078de64bfd986745f84ef33ea013ddd" target="_top" xlink:title=" ">
<polygon fill="white" stroke="#666666" points="403.88,-27.12 313.62,-27.12 313.62,-6.38 403.88,-6.38 403.88,-27.12"/>
<text text-anchor="middle" x="358.75" y="-13.62" font-family="Helvetica,sans-Serif" font-size="10.00">DispatchPacket</text>
</a>
</g>
</g>
<!-- Node5&#45;&gt;Node6 -->
<g id="edge5_Node000005_Node000006" class="edge">
<title>Node5&#45;&gt;Node6</title>
<g id="a_edge5_Node000005_Node000006"><a xlink:title=" ">
<path fill="none" stroke="#63b8ff" d="M470.43,-16.75C448.34,-16.75 424.23,-16.75 404.17,-16.75"/>
<polygon fill="#63b8ff" stroke="#63b8ff" points="470.25,-20.25 480.25,-16.75 470.25,-13.25 470.25,-20.25"/>
</a>
</g>
</g>
<!-- Node7 -->
<g id="Node000007" class="node">
<title>Node7</title>
<g id="a_Node000007"><a xlink:href="iface_8c.html#a671fece11b167dc248031f6928ed836b" target="_top" xlink:title=" ">
<polygon fill="white" stroke="#666666" points="239,-27.12 154,-27.12 154,-6.38 239,-6.38 239,-27.12"/>
<text text-anchor="middle" x="196.5" y="-13.62" font-family="Helvetica,sans-Serif" font-size="10.00">EgressPackets</text>
</a>
</g>
</g>
<!-- Node6&#45;&gt;Node7 -->
<g id="edge6_Node000006_Node000007" class="edge">
<title>Node6&#45;&gt;Node7</title>
<g id="a_edge6_Node000006_Node000007"><a xlink:title=" ">
<path fill="none" stroke="#63b8ff" d="M302.06,-16.75C281.48,-16.75 258.52,-16.75 239.36,-16.75"/>
<polygon fill="#63b8ff" stroke="#63b8ff" points="302.02,-20.25 312.02,-16.75 302.02,-13.25 302.02,-20.25"/>
</a>
</g>
</g>
<!-- Node8 -->
<g id="Node000008" class="node">
<title>Node8</title>
<g id="a_Node000008"><a xlink:href="iface_8c.html#ac759fac91807dd30f90627e4c7a6dce2" target="_top" xlink:title=" ">
<polygon fill="white" stroke="#666666" points="109.75,-27.12 0,-27.12 0,-6.38 109.75,-6.38 109.75,-27.12"/>
<text text-anchor="middle" x="54.88" y="-13.62" font-family="Helvetica,sans-Serif" font-size="10.00">vlcb_net_iface_Poll</text>
</a>
</g>
</g>
<!-- Node7&#45;&gt;Node8 -->
<g id="edge7_Node000007_Node000008" class="edge">
<title>Node7&#45;&gt;Node8</title>
<g id="a_edge7_Node000007_Node000008"><a xlink:title=" ">
<path fill="none" stroke="#63b8ff" d="M142.41,-16.75C131.86,-16.75 120.76,-16.75 110.16,-16.75"/>
<polygon fill="#63b8ff" stroke="#63b8ff" points="142.09,-20.25 152.09,-16.75 142.09,-13.25 142.09,-20.25"/>
</a>
</g>
</g>
</g>
</svg>
