<?xml version="1.0" encoding="UTF-8" standalone="no"?>
<!DOCTYPE svg PUBLIC "-//W3C//DTD SVG 1.1//EN"
 "http://www.w3.org/Graphics/SVG/1.1/DTD/svg11.dtd">
<!-- Generated by graphviz version 12.1.2 (20240928.0832)
 -->
<!-- Title: packet_parse.h Pages: 1 -->
<svg width="663pt" height="313pt"
 viewBox="0.00 0.00 662.50 312.50" xmlns="http://www.w3.org/2000/svg" xmlns:xlink="http://www.w3.org/1999/xlink">
<g id="graph0" class="graph" transform="scale(1 1) rotate(0) translate(4 308.5)">
<title>packet_parse.h</title>
<!-- Node1 -->
<g id="Node000001" class="node">
<title>Node1</title>
<g id="a_Node000001"><a xlink:title=" ">
<polygon fill="#999999" stroke="#666666" points="519.25,-304.5 429.75,-304.5 429.75,-283.75 519.25,-283.75 519.25,-304.5"/>
<text text-anchor="middle" x="474.5" y="-291" font-family="Helvetica,sans-Serif" font-size="10.00">packet_parse.h</text>
</a>
</g>
</g>
<!-- Node2 -->
<g id="Node000002" class="node">
<title>Node2</title>
<g id="a_Node000002"><a xlink:title=" ">
<polygon fill="#e0e0e0" stroke="#999999" points="314.88,-20.75 262.12,-20.75 262.12,0 314.88,0 314.88,-20.75"/>
<text text-anchor="middle" x="288.5" y="-7.25" font-family="Helvetica,sans-Serif" font-size="10.00">stdint.h</text>
</a>
</g>
</g>
<!-- Node1&#45;&gt;Node2 -->
<g id="edge1_Node000001_Node000002" class="edge">
<title>Node1&#45;&gt;Node2</title>
<g id="a_edge1_Node000001_Node000002"><a xlink:title=" ">
<path fill="none" stroke="#63b8ff" d="M519.46,-285.51C572.77,-273.62 654.5,-245.04 654.5,-181.62 654.5,-181.62 654.5,-181.62 654.5,-122.88 654.5,-54.8 419.84,-24.25 326.31,-14.78"/>
<polygon fill="#63b8ff" stroke="#63b8ff" points="326.92,-11.33 316.62,-13.83 326.23,-18.29 326.92,-11.33"/>
</a>
</g>
</g>
<!-- Node3 -->
<g id="Node000003" class="node">
<title>Node3</title>
<g id="a_Node000003"><a xlink:href="adapter_8h.html" target="_top" xlink:title=" ">
<polygon fill="white" stroke="#666666" points="334.38,-247.75 254.62,-247.75 254.62,-227 334.38,-227 334.38,-247.75"/>
<text text-anchor="middle" x="294.5" y="-234.25" font-family="Helvetica,sans-Serif" font-size="10.00">../../adapter.h</text>
</a>
</g>
</g>
<!-- Node1&#45;&gt;Node3 -->
<g id="edge2_Node000001_Node000003" class="edge">
<title>Node1&#45;&gt;Node3</title>
<g id="a_edge2_Node000001_Node000003"><a xlink:title=" ">
<path fill="none" stroke="#63b8ff" d="M442.32,-283.34C413.1,-274.45 369.79,-261.27 337.59,-251.48"/>
<polygon fill="#63b8ff" stroke="#63b8ff" points="338.74,-248.17 328.15,-248.61 336.7,-254.87 338.74,-248.17"/>
</a>
</g>
</g>
<!-- Node4 -->
<g id="Node000004" class="node">
<title>Node4</title>
<g id="a_Node000004"><a xlink:title=" ">
<polygon fill="#e0e0e0" stroke="#999999" points="260.88,-77.5 196.12,-77.5 196.12,-56.75 260.88,-56.75 260.88,-77.5"/>
<text text-anchor="middle" x="228.5" y="-64" font-family="Helvetica,sans-Serif" font-size="10.00">inttypes.h</text>
</a>
</g>
</g>
<!-- Node3&#45;&gt;Node4 -->
<g id="edge3_Node000003_Node000004" class="edge">
<title>Node3&#45;&gt;Node4</title>
<g id="a_edge3_Node000003_Node000004"><a xlink:title=" ">
<path fill="none" stroke="#63b8ff" d="M277.35,-226.62C265.15,-218.69 249.56,-206.33 241.5,-191 224.42,-158.51 224.36,-114.57 226.2,-88.99"/>
<polygon fill="#63b8ff" stroke="#63b8ff" points="229.67,-89.52 227.09,-79.25 222.7,-88.89 229.67,-89.52"/>
</a>
</g>
</g>
<!-- Node5 -->
<g id="Node000005" class="node">
<title>Node5</title>
<g id="a_Node000005"><a xlink:title=" ">
<polygon fill="#e0e0e0" stroke="#999999" points="61,-77.5 0,-77.5 0,-56.75 61,-56.75 61,-77.5"/>
<text text-anchor="middle" x="30.5" y="-64" font-family="Helvetica,sans-Serif" font-size="10.00">stdbool.h</text>
</a>
</g>
</g>
<!-- Node3&#45;&gt;Node5 -->
<g id="edge4_Node000003_Node000005" class="edge">
<title>Node3&#45;&gt;Node5</title>
<g id="a_edge4_Node000003_Node000005"><a xlink:title=" ">
<path fill="none" stroke="#63b8ff" d="M254.4,-233.27C196.75,-228.02 94.41,-215.47 67.5,-191 38.61,-164.74 31.94,-116.85 30.6,-89.25"/>
<polygon fill="#63b8ff" stroke="#63b8ff" points="34.1,-89.25 30.34,-79.35 27.1,-89.43 34.1,-89.25"/>
</a>
</g>
</g>
<!-- Node6 -->
<g id="Node000006" class="node">
<title>Node6</title>
<g id="a_Node000006"><a xlink:href="error_8h.html" target="_top" xlink:title=" ">
<polygon fill="white" stroke="#666666" points="472.38,-191 356.62,-191 356.62,-170.25 472.38,-170.25 472.38,-191"/>
<text text-anchor="middle" x="414.5" y="-177.5" font-family="Helvetica,sans-Serif" font-size="10.00">vlcb/platform/error.h</text>
</a>
</g>
</g>
<!-- Node3&#45;&gt;Node6 -->
<g id="edge5_Node000003_Node000006" class="edge">
<title>Node3&#45;&gt;Node6</title>
<g id="a_edge5_Node000003_Node000006"><a xlink:title=" ">
<path fill="none" stroke="#63b8ff" d="M315.95,-226.59C334.55,-218.1 361.72,-205.7 382.83,-196.08"/>
<polygon fill="#63b8ff" stroke="#63b8ff" points="384.21,-199.29 391.86,-191.96 381.3,-192.92 384.21,-199.29"/>
</a>
</g>
</g>
<!-- Node7 -->
<g id="Node000007" class="node">
<title>Node7</title>
<g id="a_Node000007"><a xlink:href="interface_8h.html" target="_top" xlink:title=" ">
<polygon fill="white" stroke="#666666" points="626.88,-191 490.12,-191 490.12,-170.25 626.88,-170.25 626.88,-191"/>
<text text-anchor="middle" x="558.5" y="-177.5" font-family="Helvetica,sans-Serif" font-size="10.00">vlcb/platform/interface.h</text>
</a>
</g>
</g>
<!-- Node3&#45;&gt;Node7 -->
<g id="edge6_Node000003_Node000007" class="edge">
<title>Node3&#45;&gt;Node7</title>
<g id="a_edge6_Node000003_Node000007"><a xlink:title=" ">
<path fill="none" stroke="#63b8ff" d="M334.6,-228.06C378.72,-218.91 450.03,-204.12 500.3,-193.69"/>
<polygon fill="#63b8ff" stroke="#63b8ff" points="500.76,-197.17 509.84,-191.72 499.34,-190.32 500.76,-197.17"/>
</a>
</g>
</g>
<!-- Node9 -->
<g id="Node000009" class="node">
<title>Node9</title>
<g id="a_Node000009"><a xlink:href="packet_8h.html" target="_top" xlink:title=" ">
<polygon fill="white" stroke="#666666" points="194.5,-191 76.5,-191 76.5,-170.25 194.5,-170.25 194.5,-191"/>
<text text-anchor="middle" x="135.5" y="-177.5" font-family="Helvetica,sans-Serif" font-size="10.00">adapter/can/packet.h</text>
</a>
</g>
</g>
<!-- Node3&#45;&gt;Node9 -->
<g id="edge8_Node000003_Node000009" class="edge">
<title>Node3&#45;&gt;Node9</title>
<g id="a_edge8_Node000003_Node000009"><a xlink:title=" ">
<path fill="none" stroke="#63b8ff" d="M266.07,-226.59C240.6,-217.82 203,-204.87 174.68,-195.12"/>
<polygon fill="#63b8ff" stroke="#63b8ff" points="175.97,-191.86 165.38,-191.91 173.69,-198.48 175.97,-191.86"/>
</a>
</g>
</g>
<!-- Node12 -->
<g id="Node000012" class="node">
<title>Node12</title>
<g id="a_Node000012"><a xlink:href="addr_8h.html" target="_top" xlink:title=" ">
<polygon fill="white" stroke="#666666" points="338.5,-191 250.5,-191 250.5,-170.25 338.5,-170.25 338.5,-191"/>
<text text-anchor="middle" x="294.5" y="-177.5" font-family="Helvetica,sans-Serif" font-size="10.00">vlcb/net/addr.h</text>
</a>
</g>
</g>
<!-- Node3&#45;&gt;Node12 -->
<g id="edge16_Node000003_Node000012" class="edge">
<title>Node3&#45;&gt;Node12</title>
<g id="a_edge16_Node000003_Node000012"><a xlink:title=" ">
<path fill="none" stroke="#63b8ff" d="M294.5,-226.59C294.5,-219.97 294.5,-210.97 294.5,-202.77"/>
<polygon fill="#63b8ff" stroke="#63b8ff" points="298,-202.84 294.5,-192.84 291,-202.84 298,-202.84"/>
</a>
</g>
</g>
<!-- Node8 -->
<g id="Node000008" class="node">
<title>Node8</title>
<g id="a_Node000008"><a xlink:title=" ">
<polygon fill="#e0e0e0" stroke="#999999" points="586,-134.25 531,-134.25 531,-113.5 586,-113.5 586,-134.25"/>
<text text-anchor="middle" x="558.5" y="-120.75" font-family="Helvetica,sans-Serif" font-size="10.00">stddef.h</text>
</a>
</g>
</g>
<!-- Node7&#45;&gt;Node8 -->
<g id="edge7_Node000007_Node000008" class="edge">
<title>Node7&#45;&gt;Node8</title>
<g id="a_edge7_Node000007_Node000008"><a xlink:title=" ">
<path fill="none" stroke="#63b8ff" d="M558.5,-169.84C558.5,-163.22 558.5,-154.22 558.5,-146.02"/>
<polygon fill="#63b8ff" stroke="#63b8ff" points="562,-146.09 558.5,-136.09 555,-146.09 562,-146.09"/>
</a>
</g>
</g>
<!-- Node9&#45;&gt;Node5 -->
<g id="edge9_Node000009_Node000005" class="edge">
<title>Node9&#45;&gt;Node5</title>
<g id="a_edge9_Node000009_Node000005"><a xlink:title=" ">
<path fill="none" stroke="#63b8ff" d="M118.95,-169.87C105.67,-161.51 87.07,-148.59 73.5,-134.25 60.28,-120.28 48.62,-101.73 40.79,-87.84"/>
<polygon fill="#63b8ff" stroke="#63b8ff" points="43.95,-86.32 36.1,-79.2 37.8,-89.66 43.95,-86.32"/>
</a>
</g>
</g>
<!-- Node10 -->
<g id="Node000010" class="node">
<title>Node10</title>
<g id="a_Node000010"><a xlink:href="common_2inc_2vlcb_2common_2can_8h.html" target="_top" xlink:title=" ">
<polygon fill="white" stroke="#666666" points="194.12,-134.25 82.88,-134.25 82.88,-113.5 194.12,-113.5 194.12,-134.25"/>
<text text-anchor="middle" x="138.5" y="-120.75" font-family="Helvetica,sans-Serif" font-size="10.00">vlcb/common/can.h</text>
</a>
</g>
</g>
<!-- Node9&#45;&gt;Node10 -->
<g id="edge10_Node000009_Node000010" class="edge">
<title>Node9&#45;&gt;Node10</title>
<g id="a_edge10_Node000009_Node000010"><a xlink:title=" ">
<path fill="none" stroke="#63b8ff" d="M136.04,-169.84C136.4,-163.22 136.89,-154.22 137.34,-146.02"/>
<polygon fill="#63b8ff" stroke="#63b8ff" points="140.83,-146.27 137.89,-136.09 133.84,-145.88 140.83,-146.27"/>
</a>
</g>
</g>
<!-- Node10&#45;&gt;Node2 -->
<g id="edge13_Node000010_Node000002" class="edge">
<title>Node10&#45;&gt;Node2</title>
<g id="a_edge13_Node000010_Node000002"><a xlink:title=" ">
<path fill="none" stroke="#63b8ff" d="M128,-113.13C114.6,-99.5 94.71,-74.45 108.5,-56.75 125.76,-34.6 202.9,-21.58 250.42,-15.53"/>
<polygon fill="#63b8ff" stroke="#63b8ff" points="250.81,-19.01 260.31,-14.32 249.96,-12.06 250.81,-19.01"/>
</a>
</g>
</g>
<!-- Node10&#45;&gt;Node4 -->
<g id="edge11_Node000010_Node000004" class="edge">
<title>Node10&#45;&gt;Node4</title>
<g id="a_edge11_Node000010_Node000004"><a xlink:title=" ">
<path fill="none" stroke="#63b8ff" d="M154.59,-113.09C168.03,-104.91 187.43,-93.11 202.99,-83.65"/>
<polygon fill="#63b8ff" stroke="#63b8ff" points="204.53,-86.8 211.26,-78.62 200.89,-80.82 204.53,-86.8"/>
</a>
</g>
</g>
<!-- Node10&#45;&gt;Node5 -->
<g id="edge12_Node000010_Node000005" class="edge">
<title>Node10&#45;&gt;Node5</title>
<g id="a_edge12_Node000010_Node000005"><a xlink:title=" ">
<path fill="none" stroke="#63b8ff" d="M119.19,-113.09C102.68,-104.72 78.67,-92.54 59.79,-82.97"/>
<polygon fill="#63b8ff" stroke="#63b8ff" points="61.49,-79.91 50.99,-78.51 58.33,-86.16 61.49,-79.91"/>
</a>
</g>
</g>
<!-- Node11 -->
<g id="Node000011" class="node">
<title>Node11</title>
<g id="a_Node000011"><a xlink:href="opcode_8h.html" target="_top" xlink:title=" ">
<polygon fill="white" stroke="#666666" points="177.62,-77.5 117.38,-77.5 117.38,-56.75 177.62,-56.75 177.62,-77.5"/>
<text text-anchor="middle" x="147.5" y="-64" font-family="Helvetica,sans-Serif" font-size="10.00">opcode.h</text>
</a>
</g>
</g>
<!-- Node10&#45;&gt;Node11 -->
<g id="edge14_Node000010_Node000011" class="edge">
<title>Node10&#45;&gt;Node11</title>
<g id="a_edge14_Node000010_Node000011"><a xlink:title=" ">
<path fill="none" stroke="#63b8ff" d="M140.11,-113.09C141.21,-106.39 142.71,-97.26 144.07,-88.98"/>
<polygon fill="#63b8ff" stroke="#63b8ff" points="147.49,-89.76 145.66,-79.32 140.58,-88.62 147.49,-89.76"/>
</a>
</g>
</g>
<!-- Node11&#45;&gt;Node2 -->
<g id="edge15_Node000011_Node000002" class="edge">
<title>Node11&#45;&gt;Node2</title>
<g id="a_edge15_Node000011_Node000002"><a xlink:title=" ">
<path fill="none" stroke="#63b8ff" d="M172.71,-56.34C195.06,-47.66 227.96,-34.88 252.98,-25.17"/>
<polygon fill="#63b8ff" stroke="#63b8ff" points="254.04,-28.51 262.1,-21.63 251.51,-21.98 254.04,-28.51"/>
</a>
</g>
</g>
<!-- Node12&#45;&gt;Node2 -->
<g id="edge20_Node000012_Node000002" class="edge">
<title>Node12&#45;&gt;Node2</title>
<g id="a_edge20_Node000012_Node000002"><a xlink:title=" ">
<path fill="none" stroke="#63b8ff" d="M294.16,-170.1C293.22,-143.73 290.57,-69.33 289.25,-32.53"/>
<polygon fill="#63b8ff" stroke="#63b8ff" points="292.76,-32.6 288.9,-22.73 285.76,-32.85 292.76,-32.6"/>
</a>
</g>
</g>
<!-- Node12&#45;&gt;Node10 -->
<g id="edge17_Node000012_Node000010" class="edge">
<title>Node12&#45;&gt;Node10</title>
<g id="a_edge17_Node000012_Node000010"><a xlink:title=" ">
<path fill="none" stroke="#63b8ff" d="M266.61,-169.84C241.62,-161.07 204.73,-148.12 176.94,-138.37"/>
<polygon fill="#63b8ff" stroke="#63b8ff" points="178.43,-135.18 167.84,-135.17 176.12,-141.79 178.43,-135.18"/>
</a>
</g>
</g>
<!-- Node13 -->
<g id="Node000013" class="node">
<title>Node13</title>
<g id="a_Node000013"><a xlink:href="time_8h.html" target="_top" xlink:title=" ">
<polygon fill="white" stroke="#666666" points="432.38,-134.25 316.62,-134.25 316.62,-113.5 432.38,-113.5 432.38,-134.25"/>
<text text-anchor="middle" x="374.5" y="-120.75" font-family="Helvetica,sans-Serif" font-size="10.00">vlcb/platform/time.h</text>
</a>
</g>
</g>
<!-- Node12&#45;&gt;Node13 -->
<g id="edge18_Node000012_Node000013" class="edge">
<title>Node12&#45;&gt;Node13</title>
<g id="a_edge18_Node000012_Node000013"><a xlink:title=" ">
<path fill="none" stroke="#63b8ff" d="M308.8,-169.84C320.52,-161.82 337.34,-150.31 351.03,-140.94"/>
<polygon fill="#63b8ff" stroke="#63b8ff" points="352.8,-143.97 359.07,-135.43 348.84,-138.19 352.8,-143.97"/>
</a>
</g>
</g>
<!-- Node13&#45;&gt;Node2 -->
<g id="edge19_Node000013_Node000002" class="edge">
<title>Node13&#45;&gt;Node2</title>
<g id="a_edge19_Node000013_Node000002"><a xlink:title=" ">
<path fill="none" stroke="#63b8ff" d="M367.17,-113.37C352.96,-94.95 321.44,-54.09 302.9,-30.05"/>
<polygon fill="#63b8ff" stroke="#63b8ff" points="305.86,-28.15 296.98,-22.37 300.32,-32.43 305.86,-28.15"/>
</a>
</g>
</g>
</g>
</svg>
