<?xml version="1.0" encoding="UTF-8" standalone="no"?>
<!DOCTYPE svg PUBLIC "-//W3C//DTD SVG 1.1//EN"
 "http://www.w3.org/Graphics/SVG/1.1/DTD/svg11.dtd">
<!-- Generated by graphviz version 12.1.2 (20240928.0832)
 -->
<!-- Title: datagram.h Pages: 1 -->
<svg width="365pt" height="142pt"
 viewBox="0.00 0.00 365.25 142.25" xmlns="http://www.w3.org/2000/svg" xmlns:xlink="http://www.w3.org/1999/xlink">
<g id="graph0" class="graph" transform="scale(1 1) rotate(0) translate(4 138.25)">
<title>datagram.h</title>
<!-- Node1 -->
<g id="Node000001" class="node">
<title>Node1</title>
<g id="a_Node000001"><a xlink:title=" ">
<polygon fill="#999999" stroke="#666666" points="189.5,-134.25 117.25,-134.25 117.25,-113.5 189.5,-113.5 189.5,-134.25"/>
<text text-anchor="middle" x="153.38" y="-120.75" font-family="Helvetica,sans-Serif" font-size="10.00">datagram.h</text>
</a>
</g>
</g>
<!-- Node2 -->
<g id="Node000002" class="node">
<title>Node2</title>
<g id="a_Node000002"><a xlink:title=" ">
<polygon fill="#e0e0e0" stroke="#999999" points="64.75,-77.5 0,-77.5 0,-56.75 64.75,-56.75 64.75,-77.5"/>
<text text-anchor="middle" x="32.38" y="-64" font-family="Helvetica,sans-Serif" font-size="10.00">inttypes.h</text>
</a>
</g>
</g>
<!-- Node1&#45;&gt;Node2 -->
<g id="edge1_Node000001_Node000002" class="edge">
<title>Node1&#45;&gt;Node2</title>
<g id="a_edge1_Node000001_Node000002"><a xlink:title=" ">
<path fill="none" stroke="#63b8ff" d="M131.74,-113.09C112.9,-104.56 85.34,-92.09 64.02,-82.44"/>
<polygon fill="#63b8ff" stroke="#63b8ff" points="65.75,-79.39 55.2,-78.45 62.87,-85.76 65.75,-79.39"/>
</a>
</g>
</g>
<!-- Node3 -->
<g id="Node000003" class="node">
<title>Node3</title>
<g id="a_Node000003"><a xlink:href="vlcb__defs_8h.html" target="_top" xlink:title=" ">
<polygon fill="white" stroke="#666666" points="223.62,-77.5 83.12,-77.5 83.12,-56.75 223.62,-56.75 223.62,-77.5"/>
<text text-anchor="middle" x="153.38" y="-64" font-family="Helvetica,sans-Serif" font-size="10.00">vlcb/common/vlcb_defs.h</text>
</a>
</g>
</g>
<!-- Node1&#45;&gt;Node3 -->
<g id="edge2_Node000001_Node000003" class="edge">
<title>Node1&#45;&gt;Node3</title>
<g id="a_edge2_Node000001_Node000003"><a xlink:title=" ">
<path fill="none" stroke="#63b8ff" d="M153.38,-113.09C153.38,-106.47 153.38,-97.47 153.38,-89.27"/>
<polygon fill="#63b8ff" stroke="#63b8ff" points="156.88,-89.34 153.38,-79.34 149.88,-89.34 156.88,-89.34"/>
</a>
</g>
</g>
<!-- Node5 -->
<g id="Node000005" class="node">
<title>Node5</title>
<g id="a_Node000005"><a xlink:href="error_8h.html" target="_top" xlink:title=" ">
<polygon fill="white" stroke="#666666" points="357.25,-77.5 241.5,-77.5 241.5,-56.75 357.25,-56.75 357.25,-77.5"/>
<text text-anchor="middle" x="299.38" y="-64" font-family="Helvetica,sans-Serif" font-size="10.00">vlcb/platform/error.h</text>
</a>
</g>
</g>
<!-- Node1&#45;&gt;Node5 -->
<g id="edge4_Node000001_Node000005" class="edge">
<title>Node1&#45;&gt;Node5</title>
<g id="a_edge4_Node000001_Node000005"><a xlink:title=" ">
<path fill="none" stroke="#63b8ff" d="M179.48,-113.09C202.73,-104.37 236.99,-91.52 262.94,-81.79"/>
<polygon fill="#63b8ff" stroke="#63b8ff" points="263.95,-85.15 272.08,-78.36 261.49,-78.59 263.95,-85.15"/>
</a>
</g>
</g>
<!-- Node4 -->
<g id="Node000004" class="node">
<title>Node4</title>
<g id="a_Node000004"><a xlink:title=" ">
<polygon fill="#e0e0e0" stroke="#999999" points="179.75,-20.75 127,-20.75 127,0 179.75,0 179.75,-20.75"/>
<text text-anchor="middle" x="153.38" y="-7.25" font-family="Helvetica,sans-Serif" font-size="10.00">stdint.h</text>
</a>
</g>
</g>
<!-- Node3&#45;&gt;Node4 -->
<g id="edge3_Node000003_Node000004" class="edge">
<title>Node3&#45;&gt;Node4</title>
<g id="a_edge3_Node000003_Node000004"><a xlink:title=" ">
<path fill="none" stroke="#63b8ff" d="M153.38,-56.34C153.38,-49.72 153.38,-40.72 153.38,-32.52"/>
<polygon fill="#63b8ff" stroke="#63b8ff" points="156.88,-32.59 153.38,-22.59 149.88,-32.59 156.88,-32.59"/>
</a>
</g>
</g>
</g>
</svg>
