<?xml version="1.0" encoding="UTF-8" standalone="no"?>
<!DOCTYPE svg PUBLIC "-//W3C//DTD SVG 1.1//EN"
 "http://www.w3.org/Graphics/SVG/1.1/DTD/svg11.dtd">
<!-- Generated by graphviz version 12.1.2 (20240928.0832)
 -->
<!-- Title: param.c Pages: 1 -->
<svg width="561pt" height="256pt"
 viewBox="0.00 0.00 561.49 255.75" xmlns="http://www.w3.org/2000/svg" xmlns:xlink="http://www.w3.org/1999/xlink">
<g id="graph0" class="graph" transform="scale(1 1) rotate(0) translate(4 251.75)">
<title>param.c</title>
<!-- Node1 -->
<g id="Node000001" class="node">
<title>Node1</title>
<g id="a_Node000001"><a xlink:title=" ">
<polygon fill="#999999" stroke="#666666" points="307.99,-247.75 252.24,-247.75 252.24,-227 307.99,-227 307.99,-247.75"/>
<text text-anchor="middle" x="280.12" y="-234.25" font-family="Helvetica,sans-Serif" font-size="10.00">param.c</text>
</a>
</g>
</g>
<!-- Node2 -->
<g id="Node000002" class="node">
<title>Node2</title>
<g id="a_Node000002"><a xlink:href="inc_2vlcb_2module_2param_8h.html" target="_top" xlink:title=" ">
<polygon fill="white" stroke="#666666" points="228.87,-134.25 109.37,-134.25 109.37,-113.5 228.87,-113.5 228.87,-134.25"/>
<text text-anchor="middle" x="169.12" y="-120.75" font-family="Helvetica,sans-Serif" font-size="10.00">vlcb/module/param.h</text>
</a>
</g>
</g>
<!-- Node1&#45;&gt;Node2 -->
<g id="edge1_Node000001_Node000002" class="edge">
<title>Node1&#45;&gt;Node2</title>
<g id="a_edge1_Node000001_Node000002"><a xlink:title=" ">
<path fill="none" stroke="#63b8ff" d="M270.66,-226.87C252.07,-208.2 210.55,-166.49 186.76,-142.6"/>
<polygon fill="#63b8ff" stroke="#63b8ff" points="189.48,-140.37 179.94,-135.75 184.52,-145.3 189.48,-140.37"/>
</a>
</g>
</g>
<!-- Node3 -->
<g id="Node000003" class="node">
<title>Node3</title>
<g id="a_Node000003"><a xlink:title=" ">
<polygon fill="#e0e0e0" stroke="#999999" points="197.49,-20.75 144.74,-20.75 144.74,0 197.49,0 197.49,-20.75"/>
<text text-anchor="middle" x="171.12" y="-7.25" font-family="Helvetica,sans-Serif" font-size="10.00">stdint.h</text>
</a>
</g>
</g>
<!-- Node1&#45;&gt;Node3 -->
<g id="edge9_Node000001_Node000003" class="edge">
<title>Node1&#45;&gt;Node3</title>
<g id="a_edge9_Node000001_Node000003"><a xlink:title=" ">
<path fill="none" stroke="#63b8ff" d="M252.02,-231.11C191.42,-217.99 50.2,-177.41 4.12,-77.5 -19.9,-25.42 76.79,-14.04 133.14,-11.76"/>
<polygon fill="#63b8ff" stroke="#63b8ff" points="133.1,-15.27 142.98,-11.45 132.88,-8.27 133.1,-15.27"/>
</a>
</g>
</g>
<!-- Node4 -->
<g id="Node000004" class="node">
<title>Node4</title>
<g id="a_Node000004"><a xlink:href="common_2inc_2vlcb_2common_2module_8h.html" target="_top" xlink:title=" ">
<polygon fill="white" stroke="#666666" points="143.49,-77.5 12.74,-77.5 12.74,-56.75 143.49,-56.75 143.49,-77.5"/>
<text text-anchor="middle" x="78.12" y="-64" font-family="Helvetica,sans-Serif" font-size="10.00">vlcb/common/module.h</text>
</a>
</g>
</g>
<!-- Node1&#45;&gt;Node4 -->
<g id="edge15_Node000001_Node000004" class="edge">
<title>Node1&#45;&gt;Node4</title>
<g id="a_edge15_Node000001_Node000004"><a xlink:title=" ">
<path fill="none" stroke="#63b8ff" d="M251.81,-227.59C212.29,-213.9 140.84,-183.8 100.12,-134.25 89.42,-121.24 83.86,-102.82 81,-88.73"/>
<polygon fill="#63b8ff" stroke="#63b8ff" points="84.51,-88.47 79.38,-79.19 77.6,-89.64 84.51,-88.47"/>
</a>
</g>
</g>
<!-- Node5 -->
<g id="Node000005" class="node">
<title>Node5</title>
<g id="a_Node000005"><a xlink:href="vlcb__defs_8h.html" target="_top" xlink:title=" ">
<polygon fill="white" stroke="#666666" points="339.37,-77.5 198.87,-77.5 198.87,-56.75 339.37,-56.75 339.37,-77.5"/>
<text text-anchor="middle" x="269.12" y="-64" font-family="Helvetica,sans-Serif" font-size="10.00">vlcb/common/vlcb_defs.h</text>
</a>
</g>
</g>
<!-- Node1&#45;&gt;Node5 -->
<g id="edge16_Node000001_Node000005" class="edge">
<title>Node1&#45;&gt;Node5</title>
<g id="a_edge16_Node000001_Node000005"><a xlink:title=" ">
<path fill="none" stroke="#63b8ff" d="M277.68,-226.72C275.5,-217.58 272.45,-203.46 271.12,-191 267.33,-155.39 267.65,-113.66 268.32,-89.14"/>
<polygon fill="#63b8ff" stroke="#63b8ff" points="271.81,-89.34 268.64,-79.23 264.82,-89.11 271.81,-89.34"/>
</a>
</g>
</g>
<!-- Node6 -->
<g id="Node000006" class="node">
<title>Node6</title>
<g id="a_Node000006"><a xlink:title=" ">
<polygon fill="#e0e0e0" stroke="#999999" points="409.62,-191 354.62,-191 354.62,-170.25 409.62,-170.25 409.62,-191"/>
<text text-anchor="middle" x="382.12" y="-177.5" font-family="Helvetica,sans-Serif" font-size="10.00">assert.h</text>
</a>
</g>
</g>
<!-- Node1&#45;&gt;Node6 -->
<g id="edge7_Node000001_Node000006" class="edge">
<title>Node1&#45;&gt;Node6</title>
<g id="a_edge7_Node000001_Node000006"><a xlink:title=" ">
<path fill="none" stroke="#63b8ff" d="M298.35,-226.59C313.8,-218.3 336.2,-206.27 353.96,-196.74"/>
<polygon fill="#63b8ff" stroke="#63b8ff" points="355.55,-199.86 362.71,-192.04 352.24,-193.69 355.55,-199.86"/>
</a>
</g>
</g>
<!-- Node7 -->
<g id="Node000007" class="node">
<title>Node7</title>
<g id="a_Node000007"><a xlink:title=" ">
<polygon fill="#e0e0e0" stroke="#999999" points="482.62,-191 427.62,-191 427.62,-170.25 482.62,-170.25 482.62,-191"/>
<text text-anchor="middle" x="455.12" y="-177.5" font-family="Helvetica,sans-Serif" font-size="10.00">stddef.h</text>
</a>
</g>
</g>
<!-- Node1&#45;&gt;Node7 -->
<g id="edge8_Node000001_Node000007" class="edge">
<title>Node1&#45;&gt;Node7</title>
<g id="a_edge8_Node000001_Node000007"><a xlink:title=" ">
<path fill="none" stroke="#63b8ff" d="M308.24,-227.58C337.54,-218.41 383.65,-203.98 416.39,-193.74"/>
<polygon fill="#63b8ff" stroke="#63b8ff" points="417.42,-197.09 425.92,-190.76 415.33,-190.41 417.42,-197.09"/>
</a>
</g>
</g>
<!-- Node8 -->
<g id="Node000008" class="node">
<title>Node8</title>
<g id="a_Node000008"><a xlink:title=" ">
<polygon fill="#e0e0e0" stroke="#999999" points="553.49,-191 500.74,-191 500.74,-170.25 553.49,-170.25 553.49,-191"/>
<text text-anchor="middle" x="527.12" y="-177.5" font-family="Helvetica,sans-Serif" font-size="10.00">string.h</text>
</a>
</g>
</g>
<!-- Node1&#45;&gt;Node8 -->
<g id="edge10_Node000001_Node000008" class="edge">
<title>Node1&#45;&gt;Node8</title>
<g id="a_edge10_Node000001_Node000008"><a xlink:title=" ">
<path fill="none" stroke="#63b8ff" d="M308.34,-230.81C347.08,-223.07 419.13,-208.31 489.57,-191.53"/>
<polygon fill="#63b8ff" stroke="#63b8ff" points="490.02,-195.02 498.93,-189.28 488.39,-188.21 490.02,-195.02"/>
</a>
</g>
</g>
<!-- Node9 -->
<g id="Node000009" class="node">
<title>Node9</title>
<g id="a_Node000009"><a xlink:href="src_2param_8h.html" target="_top" xlink:title=" ">
<polygon fill="white" stroke="#666666" points="336.37,-191 279.87,-191 279.87,-170.25 336.37,-170.25 336.37,-191"/>
<text text-anchor="middle" x="308.12" y="-177.5" font-family="Helvetica,sans-Serif" font-size="10.00">param.h</text>
</a>
</g>
</g>
<!-- Node1&#45;&gt;Node9 -->
<g id="edge11_Node000001_Node000009" class="edge">
<title>Node1&#45;&gt;Node9</title>
<g id="a_edge11_Node000001_Node000009"><a xlink:title=" ">
<path fill="none" stroke="#63b8ff" d="M285.13,-226.59C288.71,-219.58 293.66,-209.91 298.04,-201.33"/>
<polygon fill="#63b8ff" stroke="#63b8ff" points="301.03,-203.17 302.47,-192.68 294.8,-199.99 301.03,-203.17"/>
</a>
</g>
</g>
<!-- Node2&#45;&gt;Node3 -->
<g id="edge2_Node000002_Node000003" class="edge">
<title>Node2&#45;&gt;Node3</title>
<g id="a_edge2_Node000002_Node000003"><a xlink:title=" ">
<path fill="none" stroke="#63b8ff" d="M169.29,-113.37C169.61,-95.6 170.3,-56.97 170.74,-32.68"/>
<polygon fill="#63b8ff" stroke="#63b8ff" points="174.24,-32.75 170.92,-22.69 167.24,-32.62 174.24,-32.75"/>
</a>
</g>
</g>
<!-- Node2&#45;&gt;Node4 -->
<g id="edge3_Node000002_Node000004" class="edge">
<title>Node2&#45;&gt;Node4</title>
<g id="a_edge3_Node000002_Node000004"><a xlink:title=" ">
<path fill="none" stroke="#63b8ff" d="M152.85,-113.09C139.26,-104.91 119.64,-93.11 103.92,-83.65"/>
<polygon fill="#63b8ff" stroke="#63b8ff" points="105.92,-80.77 95.54,-78.61 102.31,-86.76 105.92,-80.77"/>
</a>
</g>
</g>
<!-- Node2&#45;&gt;Node5 -->
<g id="edge5_Node000002_Node000005" class="edge">
<title>Node2&#45;&gt;Node5</title>
<g id="a_edge5_Node000002_Node000005"><a xlink:title=" ">
<path fill="none" stroke="#63b8ff" d="M187,-113.09C202.21,-104.76 224.31,-92.66 241.75,-83.11"/>
<polygon fill="#63b8ff" stroke="#63b8ff" points="242.98,-86.43 250.07,-78.56 239.62,-80.29 242.98,-86.43"/>
</a>
</g>
</g>
<!-- Node4&#45;&gt;Node3 -->
<g id="edge4_Node000004_Node000003" class="edge">
<title>Node4&#45;&gt;Node3</title>
<g id="a_edge4_Node000004_Node000003"><a xlink:title=" ">
<path fill="none" stroke="#63b8ff" d="M94.75,-56.34C108.63,-48.16 128.68,-36.36 144.75,-26.9"/>
<polygon fill="#63b8ff" stroke="#63b8ff" points="146.49,-29.94 153.33,-21.85 142.94,-23.9 146.49,-29.94"/>
</a>
</g>
</g>
<!-- Node5&#45;&gt;Node3 -->
<g id="edge6_Node000005_Node000003" class="edge">
<title>Node5&#45;&gt;Node3</title>
<g id="a_edge6_Node000005_Node000003"><a xlink:title=" ">
<path fill="none" stroke="#63b8ff" d="M251.6,-56.34C236.83,-48.08 215.44,-36.13 198.42,-26.63"/>
<polygon fill="#63b8ff" stroke="#63b8ff" points="200.25,-23.64 189.81,-21.82 196.83,-29.75 200.25,-23.64"/>
</a>
</g>
</g>
<!-- Node9&#45;&gt;Node2 -->
<g id="edge14_Node000009_Node000002" class="edge">
<title>Node9&#45;&gt;Node2</title>
<g id="a_edge14_Node000009_Node000002"><a xlink:title=" ">
<path fill="none" stroke="#63b8ff" d="M283.27,-169.84C261.23,-161.16 228.8,-148.38 204.14,-138.67"/>
<polygon fill="#63b8ff" stroke="#63b8ff" points="205.75,-135.54 195.16,-135.13 203.18,-142.05 205.75,-135.54"/>
</a>
</g>
</g>
<!-- Node9&#45;&gt;Node3 -->
<g id="edge12_Node000009_Node000003" class="edge">
<title>Node9&#45;&gt;Node3</title>
<g id="a_edge12_Node000009_Node000003"><a xlink:title=" ">
<path fill="none" stroke="#63b8ff" d="M316.69,-169.98C335.34,-147.81 375.76,-92.38 348.12,-56.75 331.22,-34.97 255.71,-21.85 208.94,-15.67"/>
<polygon fill="#63b8ff" stroke="#63b8ff" points="209.59,-12.23 199.23,-14.44 208.71,-19.17 209.59,-12.23"/>
</a>
</g>
</g>
<!-- Node9&#45;&gt;Node5 -->
<g id="edge13_Node000009_Node000005" class="edge">
<title>Node9&#45;&gt;Node5</title>
<g id="a_edge13_Node000009_Node000005"><a xlink:title=" ">
<path fill="none" stroke="#63b8ff" d="M304.79,-170.12C298.52,-152.19 284.82,-113 276.34,-88.76"/>
<polygon fill="#63b8ff" stroke="#63b8ff" points="279.65,-87.64 273.05,-79.35 273.04,-89.95 279.65,-87.64"/>
</a>
</g>
</g>
</g>
</svg>
