<?xml version="1.0" encoding="UTF-8" standalone="no"?>
<!DOCTYPE svg PUBLIC "-//W3C//DTD SVG 1.1//EN"
 "http://www.w3.org/Graphics/SVG/1.1/DTD/svg11.dtd">
<!-- Generated by graphviz version 12.1.2 (20240928.0832)
 -->
<!-- Title: param.c Pages: 1 -->
<svg width="686pt" height="256pt"
 viewBox="0.00 0.00 686.12 255.75" xmlns="http://www.w3.org/2000/svg" xmlns:xlink="http://www.w3.org/1999/xlink">
<g id="graph0" class="graph" transform="scale(1 1) rotate(0) translate(4 251.75)">
<title>param.c</title>
<!-- Node1 -->
<g id="Node000001" class="node">
<title>Node1</title>
<g id="a_Node000001"><a xlink:title=" ">
<polygon fill="#999999" stroke="#666666" points="209.46,-247.75 153.71,-247.75 153.71,-227 209.46,-227 209.46,-247.75"/>
<text text-anchor="middle" x="181.59" y="-234.25" font-family="Helvetica,sans-Serif" font-size="10.00">param.c</text>
</a>
</g>
</g>
<!-- Node2 -->
<g id="Node000002" class="node">
<title>Node2</title>
<g id="a_Node000002"><a xlink:href="inc_2vlcb_2module_2param_8h.html" target="_top" xlink:title=" ">
<polygon fill="white" stroke="#666666" points="399.34,-134.25 279.84,-134.25 279.84,-113.5 399.34,-113.5 399.34,-134.25"/>
<text text-anchor="middle" x="339.59" y="-120.75" font-family="Helvetica,sans-Serif" font-size="10.00">vlcb/module/param.h</text>
</a>
</g>
</g>
<!-- Node1&#45;&gt;Node2 -->
<g id="edge1_Node000001_Node000002" class="edge">
<title>Node1&#45;&gt;Node2</title>
<g id="a_edge1_Node000001_Node000002"><a xlink:title=" ">
<path fill="none" stroke="#63b8ff" d="M169.05,-226.58C153.34,-213.12 130.11,-188.49 144.59,-170.25 160.08,-150.74 219.35,-138.85 268.52,-132.17"/>
<polygon fill="#63b8ff" stroke="#63b8ff" points="268.84,-135.66 278.31,-130.9 267.94,-128.72 268.84,-135.66"/>
</a>
</g>
</g>
<!-- Node3 -->
<g id="Node000003" class="node">
<title>Node3</title>
<g id="a_Node000003"><a xlink:title=" ">
<polygon fill="#e0e0e0" stroke="#999999" points="365.96,-20.75 313.21,-20.75 313.21,0 365.96,0 365.96,-20.75"/>
<text text-anchor="middle" x="339.59" y="-7.25" font-family="Helvetica,sans-Serif" font-size="10.00">stdint.h</text>
</a>
</g>
</g>
<!-- Node1&#45;&gt;Node3 -->
<g id="edge13_Node000001_Node000003" class="edge">
<title>Node1&#45;&gt;Node3</title>
<g id="a_edge13_Node000001_Node000003"><a xlink:title=" ">
<path fill="none" stroke="#63b8ff" d="M159.52,-226.67C101.92,-200.08 -44.59,-123.58 13.59,-56.75 50.57,-14.27 223.9,-10.31 301.66,-10.73"/>
<polygon fill="#63b8ff" stroke="#63b8ff" points="301.31,-14.23 311.34,-10.81 301.37,-7.23 301.31,-14.23"/>
</a>
</g>
</g>
<!-- Node5 -->
<g id="Node000005" class="node">
<title>Node5</title>
<g id="a_Node000005"><a xlink:href="common_2inc_2vlcb_2common_2module_8h.html" target="_top" xlink:title=" ">
<polygon fill="white" stroke="#666666" points="152.96,-77.5 22.21,-77.5 22.21,-56.75 152.96,-56.75 152.96,-77.5"/>
<text text-anchor="middle" x="87.59" y="-64" font-family="Helvetica,sans-Serif" font-size="10.00">vlcb/common/module.h</text>
</a>
</g>
</g>
<!-- Node1&#45;&gt;Node5 -->
<g id="edge18_Node000001_Node000005" class="edge">
<title>Node1&#45;&gt;Node5</title>
<g id="a_edge18_Node000001_Node000005"><a xlink:title=" ">
<path fill="none" stroke="#63b8ff" d="M169.22,-226.71C159.04,-218.22 144.84,-205.05 135.59,-191 113.94,-158.12 99.72,-114.01 92.72,-88.56"/>
<polygon fill="#63b8ff" stroke="#63b8ff" points="96.17,-87.94 90.24,-79.16 89.4,-89.73 96.17,-87.94"/>
</a>
</g>
</g>
<!-- Node8 -->
<g id="Node000008" class="node">
<title>Node8</title>
<g id="a_Node000008"><a xlink:title=" ">
<polygon fill="#e0e0e0" stroke="#999999" points="209.09,-191 154.09,-191 154.09,-170.25 209.09,-170.25 209.09,-191"/>
<text text-anchor="middle" x="181.59" y="-177.5" font-family="Helvetica,sans-Serif" font-size="10.00">assert.h</text>
</a>
</g>
</g>
<!-- Node1&#45;&gt;Node8 -->
<g id="edge11_Node000001_Node000008" class="edge">
<title>Node1&#45;&gt;Node8</title>
<g id="a_edge11_Node000001_Node000008"><a xlink:title=" ">
<path fill="none" stroke="#63b8ff" d="M181.59,-226.59C181.59,-219.97 181.59,-210.97 181.59,-202.77"/>
<polygon fill="#63b8ff" stroke="#63b8ff" points="185.09,-202.84 181.59,-192.84 178.09,-202.84 185.09,-202.84"/>
</a>
</g>
</g>
<!-- Node9 -->
<g id="Node000009" class="node">
<title>Node9</title>
<g id="a_Node000009"><a xlink:title=" ">
<polygon fill="#e0e0e0" stroke="#999999" points="282.09,-191 227.09,-191 227.09,-170.25 282.09,-170.25 282.09,-191"/>
<text text-anchor="middle" x="254.59" y="-177.5" font-family="Helvetica,sans-Serif" font-size="10.00">stddef.h</text>
</a>
</g>
</g>
<!-- Node1&#45;&gt;Node9 -->
<g id="edge12_Node000001_Node000009" class="edge">
<title>Node1&#45;&gt;Node9</title>
<g id="a_edge12_Node000001_Node000009"><a xlink:title=" ">
<path fill="none" stroke="#63b8ff" d="M194.64,-226.59C205.23,-218.65 220.38,-207.28 232.8,-197.96"/>
<polygon fill="#63b8ff" stroke="#63b8ff" points="234.54,-201.04 240.44,-192.24 230.34,-195.44 234.54,-201.04"/>
</a>
</g>
</g>
<!-- Node10 -->
<g id="Node000010" class="node">
<title>Node10</title>
<g id="a_Node000010"><a xlink:title=" ">
<polygon fill="#e0e0e0" stroke="#999999" points="352.96,-191 300.21,-191 300.21,-170.25 352.96,-170.25 352.96,-191"/>
<text text-anchor="middle" x="326.59" y="-177.5" font-family="Helvetica,sans-Serif" font-size="10.00">string.h</text>
</a>
</g>
</g>
<!-- Node1&#45;&gt;Node10 -->
<g id="edge14_Node000001_Node000010" class="edge">
<title>Node1&#45;&gt;Node10</title>
<g id="a_edge14_Node000001_Node000010"><a xlink:title=" ">
<path fill="none" stroke="#63b8ff" d="M207.51,-226.59C230.6,-217.87 264.63,-205.02 290.4,-195.29"/>
<polygon fill="#63b8ff" stroke="#63b8ff" points="291.35,-198.67 299.47,-191.86 288.88,-192.12 291.35,-198.67"/>
</a>
</g>
</g>
<!-- Node11 -->
<g id="Node000011" class="node">
<title>Node11</title>
<g id="a_Node000011"><a xlink:href="src_2param_8h.html" target="_top" xlink:title=" ">
<polygon fill="white" stroke="#666666" points="427.84,-191 371.34,-191 371.34,-170.25 427.84,-170.25 427.84,-191"/>
<text text-anchor="middle" x="399.59" y="-177.5" font-family="Helvetica,sans-Serif" font-size="10.00">param.h</text>
</a>
</g>
</g>
<!-- Node1&#45;&gt;Node11 -->
<g id="edge15_Node000001_Node000011" class="edge">
<title>Node1&#45;&gt;Node11</title>
<g id="a_edge15_Node000001_Node000011"><a xlink:title=" ">
<path fill="none" stroke="#63b8ff" d="M209.64,-229.33C247.85,-219.73 316.48,-202.5 359.94,-191.58"/>
<polygon fill="#63b8ff" stroke="#63b8ff" points="360.63,-195.02 369.48,-189.19 358.93,-188.23 360.63,-195.02"/>
</a>
</g>
</g>
<!-- Node2&#45;&gt;Node3 -->
<g id="edge2_Node000002_Node000003" class="edge">
<title>Node2&#45;&gt;Node3</title>
<g id="a_edge2_Node000002_Node000003"><a xlink:title=" ">
<path fill="none" stroke="#63b8ff" d="M339.59,-113.37C339.59,-95.6 339.59,-56.97 339.59,-32.68"/>
<polygon fill="#63b8ff" stroke="#63b8ff" points="343.09,-32.69 339.59,-22.69 336.09,-32.69 343.09,-32.69"/>
</a>
</g>
</g>
<!-- Node4 -->
<g id="Node000004" class="node">
<title>Node4</title>
<g id="a_Node000004"><a xlink:href="manufacturer_8h.html" target="_top" xlink:title=" ">
<polygon fill="white" stroke="#666666" points="527.21,-77.5 367.96,-77.5 367.96,-56.75 527.21,-56.75 527.21,-77.5"/>
<text text-anchor="middle" x="447.59" y="-64" font-family="Helvetica,sans-Serif" font-size="10.00">vlcb/common/manufacturer.h</text>
</a>
</g>
</g>
<!-- Node2&#45;&gt;Node4 -->
<g id="edge3_Node000002_Node000004" class="edge">
<title>Node2&#45;&gt;Node4</title>
<g id="a_edge3_Node000002_Node000004"><a xlink:title=" ">
<path fill="none" stroke="#63b8ff" d="M358.89,-113.09C375.4,-104.72 399.42,-92.54 418.29,-82.97"/>
<polygon fill="#63b8ff" stroke="#63b8ff" points="419.76,-86.16 427.1,-78.51 416.59,-79.91 419.76,-86.16"/>
</a>
</g>
</g>
<!-- Node2&#45;&gt;Node5 -->
<g id="edge5_Node000002_Node000005" class="edge">
<title>Node2&#45;&gt;Node5</title>
<g id="a_edge5_Node000002_Node000005"><a xlink:title=" ">
<path fill="none" stroke="#63b8ff" d="M294.24,-113.02C252.18,-103.88 189.42,-90.25 144.11,-80.41"/>
<polygon fill="#63b8ff" stroke="#63b8ff" points="144.98,-77.01 134.47,-78.31 143.5,-83.85 144.98,-77.01"/>
</a>
</g>
</g>
<!-- Node6 -->
<g id="Node000006" class="node">
<title>Node6</title>
<g id="a_Node000006"><a xlink:href="common_2inc_2vlcb_2common_2net_8h.html" target="_top" xlink:title=" ">
<polygon fill="white" stroke="#666666" points="655.46,-77.5 545.71,-77.5 545.71,-56.75 655.46,-56.75 655.46,-77.5"/>
<text text-anchor="middle" x="600.59" y="-64" font-family="Helvetica,sans-Serif" font-size="10.00">vlcb/common/net.h</text>
</a>
</g>
</g>
<!-- Node2&#45;&gt;Node6 -->
<g id="edge7_Node000002_Node000006" class="edge">
<title>Node2&#45;&gt;Node6</title>
<g id="a_edge7_Node000002_Node000006"><a xlink:title=" ">
<path fill="none" stroke="#63b8ff" d="M386.55,-113.02C430.21,-103.87 495.39,-90.19 542.34,-80.34"/>
<polygon fill="#63b8ff" stroke="#63b8ff" points="543.01,-83.78 552.08,-78.3 541.57,-76.93 543.01,-83.78"/>
</a>
</g>
</g>
<!-- Node7 -->
<g id="Node000007" class="node">
<title>Node7</title>
<g id="a_Node000007"><a xlink:href="processor_8h.html" target="_top" xlink:title=" ">
<polygon fill="white" stroke="#666666" points="311.84,-77.5 171.34,-77.5 171.34,-56.75 311.84,-56.75 311.84,-77.5"/>
<text text-anchor="middle" x="241.59" y="-64" font-family="Helvetica,sans-Serif" font-size="10.00">vlcb/common/processor.h</text>
</a>
</g>
</g>
<!-- Node2&#45;&gt;Node7 -->
<g id="edge9_Node000002_Node000007" class="edge">
<title>Node2&#45;&gt;Node7</title>
<g id="a_edge9_Node000002_Node000007"><a xlink:title=" ">
<path fill="none" stroke="#63b8ff" d="M322.07,-113.09C307.29,-104.83 285.9,-92.88 268.89,-83.38"/>
<polygon fill="#63b8ff" stroke="#63b8ff" points="270.71,-80.39 260.28,-78.57 267.3,-86.5 270.71,-80.39"/>
</a>
</g>
</g>
<!-- Node4&#45;&gt;Node3 -->
<g id="edge4_Node000004_Node000003" class="edge">
<title>Node4&#45;&gt;Node3</title>
<g id="a_edge4_Node000004_Node000003"><a xlink:title=" ">
<path fill="none" stroke="#63b8ff" d="M428.28,-56.34C411.77,-47.97 387.76,-35.79 368.88,-26.22"/>
<polygon fill="#63b8ff" stroke="#63b8ff" points="370.58,-23.16 360.08,-21.76 367.41,-29.41 370.58,-23.16"/>
</a>
</g>
</g>
<!-- Node5&#45;&gt;Node3 -->
<g id="edge6_Node000005_Node000003" class="edge">
<title>Node5&#45;&gt;Node3</title>
<g id="a_edge6_Node000005_Node000003"><a xlink:title=" ">
<path fill="none" stroke="#63b8ff" d="M132.93,-56.27C181.16,-45.79 256.6,-29.41 301.75,-19.6"/>
<polygon fill="#63b8ff" stroke="#63b8ff" points="302.31,-23.06 311.34,-17.51 300.82,-16.22 302.31,-23.06"/>
</a>
</g>
</g>
<!-- Node6&#45;&gt;Node3 -->
<g id="edge8_Node000006_Node000003" class="edge">
<title>Node6&#45;&gt;Node3</title>
<g id="a_edge8_Node000006_Node000003"><a xlink:title=" ">
<path fill="none" stroke="#63b8ff" d="M553.62,-56.27C503.16,-45.69 423.94,-29.07 377.35,-19.3"/>
<polygon fill="#63b8ff" stroke="#63b8ff" points="378.23,-15.91 367.72,-17.28 376.79,-22.76 378.23,-15.91"/>
</a>
</g>
</g>
<!-- Node7&#45;&gt;Node3 -->
<g id="edge10_Node000007_Node000003" class="edge">
<title>Node7&#45;&gt;Node3</title>
<g id="a_edge10_Node000007_Node000003"><a xlink:title=" ">
<path fill="none" stroke="#63b8ff" d="M259.11,-56.34C273.88,-48.08 295.27,-36.13 312.29,-26.63"/>
<polygon fill="#63b8ff" stroke="#63b8ff" points="313.87,-29.75 320.9,-21.82 310.46,-23.64 313.87,-29.75"/>
</a>
</g>
</g>
<!-- Node11&#45;&gt;Node2 -->
<g id="edge17_Node000011_Node000002" class="edge">
<title>Node11&#45;&gt;Node2</title>
<g id="a_edge17_Node000011_Node000002"><a xlink:title=" ">
<path fill="none" stroke="#63b8ff" d="M388.86,-169.84C380.5,-162.21 368.67,-151.42 358.7,-142.32"/>
<polygon fill="#63b8ff" stroke="#63b8ff" points="361.08,-139.75 351.34,-135.6 356.37,-144.92 361.08,-139.75"/>
</a>
</g>
</g>
<!-- Node11&#45;&gt;Node3 -->
<g id="edge16_Node000011_Node000003" class="edge">
<title>Node11&#45;&gt;Node3</title>
<g id="a_edge16_Node000011_Node000003"><a xlink:title=" ">
<path fill="none" stroke="#63b8ff" d="M428.07,-177.02C509.79,-168.53 734.74,-137.38 664.59,-56.75 627.73,-14.39 454.92,-10.36 377.39,-10.75"/>
<polygon fill="#63b8ff" stroke="#63b8ff" points="377.72,-7.25 367.75,-10.83 377.78,-14.25 377.72,-7.25"/>
</a>
</g>
</g>
</g>
</svg>
