<?xml version="1.0" encoding="UTF-8" standalone="no"?>
<!DOCTYPE svg PUBLIC "-//W3C//DTD SVG 1.1//EN"
 "http://www.w3.org/Graphics/SVG/1.1/DTD/svg11.dtd">
<!-- Generated by graphviz version 12.1.2 (20240928.0832)
 -->
<!-- Title: param.h Pages: 1 -->
<svg width="310pt" height="142pt"
 viewBox="0.00 0.00 309.57 142.25" xmlns="http://www.w3.org/2000/svg" xmlns:xlink="http://www.w3.org/1999/xlink">
<g id="graph0" class="graph" transform="scale(1 1) rotate(0) translate(4 138.25)">
<title>param.h</title>
<!-- Node1 -->
<g id="Node000001" class="node">
<title>Node1</title>
<g id="a_Node000001"><a xlink:title=" ">
<polygon fill="#999999" stroke="#666666" points="105.57,-134.25 49.07,-134.25 49.07,-113.5 105.57,-113.5 105.57,-134.25"/>
<text text-anchor="middle" x="77.32" y="-120.75" font-family="Helvetica,sans-Serif" font-size="10.00">param.h</text>
</a>
</g>
</g>
<!-- Node2 -->
<g id="Node000002" class="node">
<title>Node2</title>
<g id="a_Node000002"><a xlink:title=" ">
<polygon fill="#e0e0e0" stroke="#999999" points="103.69,-20.75 50.94,-20.75 50.94,0 103.69,0 103.69,-20.75"/>
<text text-anchor="middle" x="77.32" y="-7.25" font-family="Helvetica,sans-Serif" font-size="10.00">stdint.h</text>
</a>
</g>
</g>
<!-- Node1&#45;&gt;Node2 -->
<g id="edge1_Node000001_Node000002" class="edge">
<title>Node1&#45;&gt;Node2</title>
<g id="a_edge1_Node000001_Node000002"><a xlink:title=" ">
<path fill="none" stroke="#63b8ff" d="M48.89,-113.47C32.4,-106.38 13.03,-94.86 3.32,-77.5 -8.84,-55.8 16.25,-37.54 40.45,-25.75"/>
<polygon fill="#63b8ff" stroke="#63b8ff" points="41.62,-29.06 49.27,-21.73 38.72,-22.69 41.62,-29.06"/>
</a>
</g>
</g>
<!-- Node3 -->
<g id="Node000003" class="node">
<title>Node3</title>
<g id="a_Node000003"><a xlink:href="common_2inc_2vlcb_2common_2module_8h.html" target="_top" xlink:title=" ">
<polygon fill="white" stroke="#666666" points="142.69,-77.5 11.94,-77.5 11.94,-56.75 142.69,-56.75 142.69,-77.5"/>
<text text-anchor="middle" x="77.32" y="-64" font-family="Helvetica,sans-Serif" font-size="10.00">vlcb/common/module.h</text>
</a>
</g>
</g>
<!-- Node1&#45;&gt;Node3 -->
<g id="edge2_Node000001_Node000003" class="edge">
<title>Node1&#45;&gt;Node3</title>
<g id="a_edge2_Node000001_Node000003"><a xlink:title=" ">
<path fill="none" stroke="#63b8ff" d="M77.32,-113.09C77.32,-106.47 77.32,-97.47 77.32,-89.27"/>
<polygon fill="#63b8ff" stroke="#63b8ff" points="80.82,-89.34 77.32,-79.34 73.82,-89.34 80.82,-89.34"/>
</a>
</g>
</g>
<!-- Node4 -->
<g id="Node000004" class="node">
<title>Node4</title>
<g id="a_Node000004"><a xlink:href="vlcb__defs_8h.html" target="_top" xlink:title=" ">
<polygon fill="white" stroke="#666666" points="301.57,-77.5 161.07,-77.5 161.07,-56.75 301.57,-56.75 301.57,-77.5"/>
<text text-anchor="middle" x="231.32" y="-64" font-family="Helvetica,sans-Serif" font-size="10.00">vlcb/common/vlcb_defs.h</text>
</a>
</g>
</g>
<!-- Node1&#45;&gt;Node4 -->
<g id="edge4_Node000001_Node000004" class="edge">
<title>Node1&#45;&gt;Node4</title>
<g id="a_edge4_Node000001_Node000004"><a xlink:title=" ">
<path fill="none" stroke="#63b8ff" d="M104.85,-113.09C129.41,-104.36 165.61,-91.48 193,-81.75"/>
<polygon fill="#63b8ff" stroke="#63b8ff" points="194.09,-85.08 202.34,-78.43 191.74,-78.48 194.09,-85.08"/>
</a>
</g>
</g>
<!-- Node3&#45;&gt;Node2 -->
<g id="edge3_Node000003_Node000002" class="edge">
<title>Node3&#45;&gt;Node2</title>
<g id="a_edge3_Node000003_Node000002"><a xlink:title=" ">
<path fill="none" stroke="#63b8ff" d="M77.32,-56.34C77.32,-49.72 77.32,-40.72 77.32,-32.52"/>
<polygon fill="#63b8ff" stroke="#63b8ff" points="80.82,-32.59 77.32,-22.59 73.82,-32.59 80.82,-32.59"/>
</a>
</g>
</g>
<!-- Node4&#45;&gt;Node2 -->
<g id="edge5_Node000004_Node000002" class="edge">
<title>Node4&#45;&gt;Node2</title>
<g id="a_edge5_Node000004_Node000002"><a xlink:title=" ">
<path fill="none" stroke="#63b8ff" d="M203.78,-56.34C178.99,-47.52 142.34,-34.49 114.87,-24.73"/>
<polygon fill="#63b8ff" stroke="#63b8ff" points="116.11,-21.45 105.52,-21.4 113.77,-28.05 116.11,-21.45"/>
</a>
</g>
</g>
</g>
</svg>
