<?xml version="1.0" encoding="UTF-8" standalone="no"?>
<!DOCTYPE svg PUBLIC "-//W3C//DTD SVG 1.1//EN"
 "http://www.w3.org/Graphics/SVG/1.1/DTD/svg11.dtd">
<!-- Generated by graphviz version 12.1.2 (20240928.0832)
 -->
<!-- Title: processor.h Pages: 1 -->
<svg width="425pt" height="256pt"
 viewBox="0.00 0.00 425.00 255.75" xmlns="http://www.w3.org/2000/svg" xmlns:xlink="http://www.w3.org/1999/xlink">
<g id="graph0" class="graph" transform="scale(1 1) rotate(0) translate(4 251.75)">
<title>processor.h</title>
<!-- Node1 -->
<g id="Node000001" class="node">
<title>Node1</title>
<g id="a_Node000001"><a xlink:title=" ">
<polygon fill="#999999" stroke="#666666" points="344.88,-247.75 273.38,-247.75 273.38,-227 344.88,-227 344.88,-247.75"/>
<text text-anchor="middle" x="309.12" y="-234.25" font-family="Helvetica,sans-Serif" font-size="10.00">processor.h</text>
</a>
</g>
</g>
<!-- Node2 -->
<g id="Node000002" class="node">
<title>Node2</title>
<g id="a_Node000002"><a xlink:href="inc_2vlcb_2module_2param_8h.html" target="_top" xlink:title=" ">
<polygon fill="white" stroke="#666666" points="337.38,-191 280.88,-191 280.88,-170.25 337.38,-170.25 337.38,-191"/>
<text text-anchor="middle" x="309.12" y="-177.5" font-family="Helvetica,sans-Serif" font-size="10.00">param.h</text>
</a>
</g>
</g>
<!-- Node1&#45;&gt;Node2 -->
<g id="edge1_Node000001_Node000002" class="edge">
<title>Node1&#45;&gt;Node2</title>
<g id="a_edge1_Node000001_Node000002"><a xlink:title=" ">
<path fill="none" stroke="#63b8ff" d="M309.12,-215.13C309.12,-206.91 309.12,-197.93 309.12,-191.33"/>
<polygon fill="#63b8ff" stroke="#63b8ff" points="305.63,-215.07 309.13,-225.07 312.63,-215.07 305.63,-215.07"/>
</a>
</g>
</g>
<!-- Node3 -->
<g id="Node000003" class="node">
<title>Node3</title>
<g id="a_Node000003"><a xlink:href="module_8c.html" target="_top" xlink:title=" ">
<polygon fill="white" stroke="#666666" points="252.62,-20.75 191.62,-20.75 191.62,0 252.62,0 252.62,-20.75"/>
<text text-anchor="middle" x="222.12" y="-7.25" font-family="Helvetica,sans-Serif" font-size="10.00">module.c</text>
</a>
</g>
</g>
<!-- Node2&#45;&gt;Node3 -->
<g id="edge2_Node000002_Node000003" class="edge">
<title>Node2&#45;&gt;Node3</title>
<g id="a_edge2_Node000002_Node000003"><a xlink:title=" ">
<path fill="none" stroke="#63b8ff" d="M303.71,-159.04C296.52,-133.78 282.34,-90.17 262.12,-56.75 253.86,-43.09 241.31,-29.66 232.48,-20.99"/>
<polygon fill="#63b8ff" stroke="#63b8ff" points="300.25,-159.67 306.27,-168.39 307,-157.82 300.25,-159.67"/>
</a>
</g>
</g>
<!-- Node4 -->
<g id="Node000004" class="node">
<title>Node4</title>
<g id="a_Node000004"><a xlink:href="module_2inc_2vlcb_2module_8h.html" target="_top" xlink:title=" ">
<polygon fill="white" stroke="#666666" points="194,-134.25 132.25,-134.25 132.25,-113.5 194,-113.5 194,-134.25"/>
<text text-anchor="middle" x="163.12" y="-120.75" font-family="Helvetica,sans-Serif" font-size="10.00">module.h</text>
</a>
</g>
</g>
<!-- Node2&#45;&gt;Node4 -->
<g id="edge3_Node000002_Node000004" class="edge">
<title>Node2&#45;&gt;Node4</title>
<g id="a_edge3_Node000002_Node000004"><a xlink:title=" ">
<path fill="none" stroke="#63b8ff" d="M272.44,-165.87C246.44,-156.12 212.18,-143.27 189,-134.58"/>
<polygon fill="#63b8ff" stroke="#63b8ff" points="271.01,-169.07 281.61,-169.31 273.47,-162.52 271.01,-169.07"/>
</a>
</g>
</g>
<!-- Node8 -->
<g id="Node000008" class="node">
<title>Node8</title>
<g id="a_Node000008"><a xlink:href="param_8c.html" target="_top" xlink:title=" ">
<polygon fill="white" stroke="#666666" points="417,-77.5 361.25,-77.5 361.25,-56.75 417,-56.75 417,-77.5"/>
<text text-anchor="middle" x="389.12" y="-64" font-family="Helvetica,sans-Serif" font-size="10.00">param.c</text>
</a>
</g>
</g>
<!-- Node2&#45;&gt;Node8 -->
<g id="edge11_Node000002_Node000008" class="edge">
<title>Node2&#45;&gt;Node8</title>
<g id="a_edge11_Node000002_Node000008"><a xlink:title=" ">
<path fill="none" stroke="#63b8ff" d="M340.66,-164.15C352.82,-156.69 365.78,-146.65 374.12,-134.25 385.82,-116.86 388.5,-91.69 389.05,-77.96"/>
<polygon fill="#63b8ff" stroke="#63b8ff" points="339.02,-161.06 332.07,-169.05 342.49,-167.14 339.02,-161.06"/>
</a>
</g>
</g>
<!-- Node9 -->
<g id="Node000009" class="node">
<title>Node9</title>
<g id="a_Node000009"><a xlink:href="src_2param_8h.html" target="_top" xlink:title=" ">
<polygon fill="white" stroke="#666666" points="365.38,-134.25 308.88,-134.25 308.88,-113.5 365.38,-113.5 365.38,-134.25"/>
<text text-anchor="middle" x="337.12" y="-120.75" font-family="Helvetica,sans-Serif" font-size="10.00">param.h</text>
</a>
</g>
</g>
<!-- Node2&#45;&gt;Node9 -->
<g id="edge12_Node000002_Node000009" class="edge">
<title>Node2&#45;&gt;Node9</title>
<g id="a_edge12_Node000002_Node000009"><a xlink:title=" ">
<path fill="none" stroke="#63b8ff" d="M319.25,-159.82C323.65,-151.23 328.59,-141.56 332.16,-134.58"/>
<polygon fill="#63b8ff" stroke="#63b8ff" points="316.26,-157.99 314.82,-168.49 322.49,-161.18 316.26,-157.99"/>
</a>
</g>
</g>
<!-- Node4&#45;&gt;Node3 -->
<g id="edge4_Node000004_Node000003" class="edge">
<title>Node4&#45;&gt;Node3</title>
<g id="a_edge4_Node000004_Node000003"><a xlink:title=" ">
<path fill="none" stroke="#63b8ff" d="M166.57,-102.38C169.43,-88.84 174.3,-71.03 182.12,-56.75 189.69,-42.93 202.13,-29.73 211.12,-21.17"/>
<polygon fill="#63b8ff" stroke="#63b8ff" points="163.19,-101.43 164.78,-111.91 170.07,-102.73 163.19,-101.43"/>
</a>
</g>
</g>
<!-- Node5 -->
<g id="Node000005" class="node">
<title>Node5</title>
<g id="a_Node000005"><a xlink:href="module_2src_2module_8h.html" target="_top" xlink:title=" ">
<polygon fill="white" stroke="#666666" points="253,-77.5 191.25,-77.5 191.25,-56.75 253,-56.75 253,-77.5"/>
<text text-anchor="middle" x="222.12" y="-64" font-family="Helvetica,sans-Serif" font-size="10.00">module.h</text>
</a>
</g>
</g>
<!-- Node4&#45;&gt;Node5 -->
<g id="edge5_Node000004_Node000005" class="edge">
<title>Node4&#45;&gt;Node5</title>
<g id="a_edge5_Node000004_Node000005"><a xlink:title=" ">
<path fill="none" stroke="#63b8ff" d="M182.03,-105.33C191.85,-96.22 203.47,-85.43 211.67,-77.83"/>
<polygon fill="#63b8ff" stroke="#63b8ff" points="179.73,-102.69 174.78,-112.06 184.49,-107.82 179.73,-102.69"/>
</a>
</g>
</g>
<!-- Node6 -->
<g id="Node000006" class="node">
<title>Node6</title>
<g id="a_Node000006"><a xlink:href="state__machine_8c.html" target="_top" xlink:title=" ">
<polygon fill="white" stroke="#666666" points="96.25,-20.75 0,-20.75 0,0 96.25,0 96.25,-20.75"/>
<text text-anchor="middle" x="48.12" y="-7.25" font-family="Helvetica,sans-Serif" font-size="10.00">state_machine.c</text>
</a>
</g>
</g>
<!-- Node4&#45;&gt;Node6 -->
<g id="edge7_Node000004_Node000006" class="edge">
<title>Node4&#45;&gt;Node6</title>
<g id="a_edge7_Node000004_Node000006"><a xlink:title=" ">
<path fill="none" stroke="#63b8ff" d="M120.5,-121.06C89.32,-117.23 48.98,-106.52 28.12,-77.5 15.66,-60.17 30.2,-34.97 40.22,-21.22"/>
<polygon fill="#63b8ff" stroke="#63b8ff" points="120.13,-124.54 130.43,-122.07 120.83,-117.58 120.13,-124.54"/>
</a>
</g>
</g>
<!-- Node7 -->
<g id="Node000007" class="node">
<title>Node7</title>
<g id="a_Node000007"><a xlink:href="state__machine_8h.html" target="_top" xlink:title=" ">
<polygon fill="white" stroke="#666666" points="134.62,-77.5 37.62,-77.5 37.62,-56.75 134.62,-56.75 134.62,-77.5"/>
<text text-anchor="middle" x="86.12" y="-64" font-family="Helvetica,sans-Serif" font-size="10.00">state_machine.h</text>
</a>
</g>
</g>
<!-- Node4&#45;&gt;Node7 -->
<g id="edge8_Node000004_Node000007" class="edge">
<title>Node4&#45;&gt;Node7</title>
<g id="a_edge8_Node000004_Node000007"><a xlink:title=" ">
<path fill="none" stroke="#63b8ff" d="M140.01,-106.44C126.88,-97.11 110.91,-85.75 99.77,-77.83"/>
<polygon fill="#63b8ff" stroke="#63b8ff" points="137.95,-109.27 148.13,-112.21 142,-103.56 137.95,-109.27"/>
</a>
</g>
</g>
<!-- Node5&#45;&gt;Node3 -->
<g id="edge6_Node000005_Node000003" class="edge">
<title>Node5&#45;&gt;Node3</title>
<g id="a_edge6_Node000005_Node000003"><a xlink:title=" ">
<path fill="none" stroke="#63b8ff" d="M222.12,-44.88C222.12,-36.66 222.12,-27.68 222.12,-21.08"/>
<polygon fill="#63b8ff" stroke="#63b8ff" points="218.63,-44.82 222.13,-54.82 225.63,-44.82 218.63,-44.82"/>
</a>
</g>
</g>
<!-- Node7&#45;&gt;Node3 -->
<g id="edge9_Node000007_Node000003" class="edge">
<title>Node7&#45;&gt;Node3</title>
<g id="a_edge9_Node000007_Node000003"><a xlink:title=" ">
<path fill="none" stroke="#63b8ff" d="M120.95,-52.11C145.09,-42.39 176.62,-29.69 198.02,-21.08"/>
<polygon fill="#63b8ff" stroke="#63b8ff" points="119.81,-48.79 111.84,-55.77 122.43,-55.28 119.81,-48.79"/>
</a>
</g>
</g>
<!-- Node7&#45;&gt;Node6 -->
<g id="edge10_Node000007_Node000006" class="edge">
<title>Node7&#45;&gt;Node6</title>
<g id="a_edge10_Node000007_Node000006"><a xlink:title=" ">
<path fill="none" stroke="#63b8ff" d="M72.77,-46.89C66.72,-38.16 59.82,-28.22 54.86,-21.08"/>
<polygon fill="#63b8ff" stroke="#63b8ff" points="69.89,-48.87 78.47,-55.09 75.64,-44.88 69.89,-48.87"/>
</a>
</g>
</g>
<!-- Node9&#45;&gt;Node3 -->
<g id="edge13_Node000009_Node000003" class="edge">
<title>Node9&#45;&gt;Node3</title>
<g id="a_edge13_Node000009_Node000003"><a xlink:title=" ">
<path fill="none" stroke="#63b8ff" d="M327.72,-103.31C320.27,-89.21 308.85,-70.34 295.12,-56.75 279.86,-41.63 258.67,-29.16 243.05,-21.15"/>
<polygon fill="#63b8ff" stroke="#63b8ff" points="324.51,-104.7 332.14,-112.05 330.76,-101.55 324.51,-104.7"/>
</a>
</g>
</g>
<!-- Node9&#45;&gt;Node8 -->
<g id="edge14_Node000009_Node000008" class="edge">
<title>Node9&#45;&gt;Node8</title>
<g id="a_edge14_Node000009_Node000008"><a xlink:title=" ">
<path fill="none" stroke="#63b8ff" d="M354.32,-104.77C362.86,-95.78 372.83,-85.28 379.91,-77.83"/>
<polygon fill="#63b8ff" stroke="#63b8ff" points="351.81,-102.33 347.46,-111.99 356.89,-107.15 351.81,-102.33"/>
</a>
</g>
</g>
</g>
</svg>
