<?xml version="1.0" encoding="UTF-8" standalone="no"?>
<!DOCTYPE svg PUBLIC "-//W3C//DTD SVG 1.1//EN"
 "http://www.w3.org/Graphics/SVG/1.1/DTD/svg11.dtd">
<!-- Generated by graphviz version 12.1.2 (20240928.0832)
 -->
<!-- Title: vlcb_net_pkt_dgram_module_ReleaseNodeNumber_deserialize Pages: 1 -->
<svg width="333pt" height="54pt"
 viewBox="0.00 0.00 332.75 54.25" xmlns="http://www.w3.org/2000/svg" xmlns:xlink="http://www.w3.org/1999/xlink">
<g id="graph0" class="graph" transform="scale(1 1) rotate(0) translate(4 50.25)">
<title>vlcb_net_pkt_dgram_module_ReleaseNodeNumber_deserialize</title>
<!-- Node1 -->
<g id="Node000001" class="node">
<title>Node1</title>
<g id="a_Node000001"><a xlink:title=" ">
<polygon fill="#999999" stroke="#666666" points="166.75,-46.25 0,-46.25 0,0 166.75,0 166.75,-46.25"/>
<text text-anchor="start" x="8" y="-32.75" font-family="Helvetica,sans-Serif" font-size="10.00">vlcb_net_pkt_dgram</text>
<text text-anchor="start" x="8" y="-20" font-family="Helvetica,sans-Serif" font-size="10.00">_module_ReleaseNodeNumber</text>
<text text-anchor="middle" x="83.38" y="-7.25" font-family="Helvetica,sans-Serif" font-size="10.00">_deserialize</text>
</a>
</g>
</g>
<!-- Node2 -->
<g id="Node000002" class="node">
<title>Node2</title>
<g id="a_Node000002"><a xlink:href="endian_8h.html#a433eb2718ba6c2a08ff649a475ebe7f6" target="_top" xlink:title=" ">
<polygon fill="white" stroke="#666666" points="245.75,-33.5 202.75,-33.5 202.75,-12.75 245.75,-12.75 245.75,-33.5"/>
<text text-anchor="middle" x="224.25" y="-20" font-family="Helvetica,sans-Serif" font-size="10.00">ntohs</text>
</a>
</g>
</g>
<!-- Node1&#45;&gt;Node2 -->
<g id="edge1_Node000001_Node000002" class="edge">
<title>Node1&#45;&gt;Node2</title>
<g id="a_edge1_Node000001_Node000002"><a xlink:title=" ">
<path fill="none" stroke="#63b8ff" d="M167.16,-23.12C175.5,-23.12 183.57,-23.12 190.87,-23.12"/>
<polygon fill="#63b8ff" stroke="#63b8ff" points="190.81,-26.63 200.81,-23.13 190.81,-19.63 190.81,-26.63"/>
</a>
</g>
</g>
<!-- Node3 -->
<g id="Node000003" class="node">
<title>Node3</title>
<g id="a_Node000003"><a xlink:href="endian_8h.html#ada7ce35f49c9b735d495ebed3a97421e" target="_top" xlink:title=" ">
<polygon fill="white" stroke="#666666" points="324.75,-33.5 281.75,-33.5 281.75,-12.75 324.75,-12.75 324.75,-33.5"/>
<text text-anchor="middle" x="303.25" y="-20" font-family="Helvetica,sans-Serif" font-size="10.00">htons</text>
</a>
</g>
</g>
<!-- Node2&#45;&gt;Node3 -->
<g id="edge2_Node000002_Node000003" class="edge">
<title>Node2&#45;&gt;Node3</title>
<g id="a_edge2_Node000002_Node000003"><a xlink:title=" ">
<path fill="none" stroke="#63b8ff" d="M245.88,-23.12C253.25,-23.12 261.73,-23.12 269.84,-23.12"/>
<polygon fill="#63b8ff" stroke="#63b8ff" points="269.78,-26.63 279.78,-23.13 269.78,-19.63 269.78,-26.63"/>
</a>
</g>
</g>
</g>
</svg>
