<?xml version="1.0" encoding="UTF-8" standalone="no"?>
<!DOCTYPE svg PUBLIC "-//W3C//DTD SVG 1.1//EN"
 "http://www.w3.org/Graphics/SVG/1.1/DTD/svg11.dtd">
<!-- Generated by graphviz version 12.1.2 (20240928.0832)
 -->
<!-- Title: vlcb_net_pkt_dgram_module_ReleaseNodeNumber_deserialize Pages: 1 -->
<svg width="384pt" height="54pt"
 viewBox="0.00 0.00 383.75 54.25" xmlns="http://www.w3.org/2000/svg" xmlns:xlink="http://www.w3.org/1999/xlink">
<g id="graph0" class="graph" transform="scale(1 1) rotate(0) translate(4 50.25)">
<title>vlcb_net_pkt_dgram_module_ReleaseNodeNumber_deserialize</title>
<!-- Node1 -->
<g id="Node000001" class="node">
<title>Node1</title>
<g id="a_Node000001"><a xlink:title=" ">
<polygon fill="#999999" stroke="#666666" points="166.75,-46.25 0,-46.25 0,0 166.75,0 166.75,-46.25"/>
<text text-anchor="start" x="8" y="-32.75" font-family="Helvetica,sans-Serif" font-size="10.00">vlcb_net_pkt_dgram</text>
<text text-anchor="start" x="8" y="-20" font-family="Helvetica,sans-Serif" font-size="10.00">_module_ReleaseNodeNumber</text>
<text text-anchor="middle" x="83.38" y="-7.25" font-family="Helvetica,sans-Serif" font-size="10.00">_deserialize</text>
</a>
</g>
</g>
<!-- Node2 -->
<g id="Node000002" class="node">
<title>Node2</title>
<g id="a_Node000002"><a xlink:href="endian_8h.html#a1e3c39ac48f92947ed3a0ee628ba15cd" target="_top" xlink:title=" ">
<polygon fill="white" stroke="#666666" points="271.25,-33.5 202.75,-33.5 202.75,-12.75 271.25,-12.75 271.25,-33.5"/>
<text text-anchor="middle" x="237" y="-20" font-family="Helvetica,sans-Serif" font-size="10.00">vlcb_ntohs</text>
</a>
</g>
</g>
<!-- Node1&#45;&gt;Node2 -->
<g id="edge1_Node000001_Node000002" class="edge">
<title>Node1&#45;&gt;Node2</title>
<g id="a_edge1_Node000001_Node000002"><a xlink:title=" ">
<path fill="none" stroke="#63b8ff" d="M166.84,-23.12C175.24,-23.12 183.52,-23.12 191.28,-23.12"/>
<polygon fill="#63b8ff" stroke="#63b8ff" points="191.09,-26.63 201.09,-23.13 191.09,-19.63 191.09,-26.63"/>
</a>
</g>
</g>
<!-- Node3 -->
<g id="Node000003" class="node">
<title>Node3</title>
<g id="a_Node000003"><a xlink:href="endian_8h.html#ad9ca3d602189bfc2c39b66239b15d4d5" target="_top" xlink:title=" ">
<polygon fill="white" stroke="#666666" points="375.75,-33.5 307.25,-33.5 307.25,-12.75 375.75,-12.75 375.75,-33.5"/>
<text text-anchor="middle" x="341.5" y="-20" font-family="Helvetica,sans-Serif" font-size="10.00">vlcb_htons</text>
</a>
</g>
</g>
<!-- Node2&#45;&gt;Node3 -->
<g id="edge2_Node000002_Node000003" class="edge">
<title>Node2&#45;&gt;Node3</title>
<g id="a_edge2_Node000002_Node000003"><a xlink:title=" ">
<path fill="none" stroke="#63b8ff" d="M271.56,-23.12C279.17,-23.12 287.38,-23.12 295.38,-23.12"/>
<polygon fill="#63b8ff" stroke="#63b8ff" points="295.35,-26.63 305.35,-23.13 295.35,-19.63 295.35,-26.63"/>
</a>
</g>
</g>
</g>
</svg>
