<?xml version="1.0" encoding="UTF-8" standalone="no"?>
<!DOCTYPE svg PUBLIC "-//W3C//DTD SVG 1.1//EN"
 "http://www.w3.org/Graphics/SVG/1.1/DTD/svg11.dtd">
<!-- Generated by graphviz version 12.1.2 (20240928.0832)
 -->
<!-- Title: release_node_num_deserialize.c Pages: 1 -->
<svg width="946pt" height="269pt"
 viewBox="0.00 0.00 946.00 268.50" xmlns="http://www.w3.org/2000/svg" xmlns:xlink="http://www.w3.org/1999/xlink">
<g id="graph0" class="graph" transform="scale(1 1) rotate(0) translate(4 264.5)">
<title>release_node_num_deserialize.c</title>
<!-- Node1 -->
<g id="Node000001" class="node">
<title>Node1</title>
<g id="a_Node000001"><a xlink:title=" ">
<polygon fill="#999999" stroke="#666666" points="917.12,-260.5 742.12,-260.5 742.12,-239.75 917.12,-239.75 917.12,-260.5"/>
<text text-anchor="middle" x="829.62" y="-247" font-family="Helvetica,sans-Serif" font-size="10.00">release_node_num_deserialize.c</text>
</a>
</g>
</g>
<!-- Node2 -->
<g id="Node000002" class="node">
<title>Node2</title>
<g id="a_Node000002"><a xlink:href="net_2inc_2vlcb_2net_2packet_2datagram_2module_8h.html" target="_top" xlink:title=" ">
<polygon fill="white" stroke="#666666" points="492.88,-203.75 352.38,-203.75 352.38,-170.25 492.88,-170.25 492.88,-203.75"/>
<text text-anchor="start" x="360.38" y="-190.25" font-family="Helvetica,sans-Serif" font-size="10.00">vlcb/net/packet/datagram</text>
<text text-anchor="middle" x="422.62" y="-177.5" font-family="Helvetica,sans-Serif" font-size="10.00">/module.h</text>
</a>
</g>
</g>
<!-- Node1&#45;&gt;Node2 -->
<g id="edge1_Node000001_Node000002" class="edge">
<title>Node1&#45;&gt;Node2</title>
<g id="a_edge1_Node000001_Node000002"><a xlink:title=" ">
<path fill="none" stroke="#63b8ff" d="M764.23,-239.3C693.56,-228.69 580.8,-211.75 504.33,-200.27"/>
<polygon fill="#63b8ff" stroke="#63b8ff" points="505.23,-196.87 494.82,-198.84 504.19,-203.79 505.23,-196.87"/>
</a>
</g>
</g>
<!-- Node12 -->
<g id="Node000012" class="node">
<title>Node12</title>
<g id="a_Node000012"><a xlink:title=" ">
<polygon fill="#e0e0e0" stroke="#999999" points="829.12,-197.38 774.12,-197.38 774.12,-176.62 829.12,-176.62 829.12,-197.38"/>
<text text-anchor="middle" x="801.62" y="-183.88" font-family="Helvetica,sans-Serif" font-size="10.00">assert.h</text>
</a>
</g>
</g>
<!-- Node1&#45;&gt;Node12 -->
<g id="edge15_Node000001_Node000012" class="edge">
<title>Node1&#45;&gt;Node12</title>
<g id="a_edge15_Node000001_Node000012"><a xlink:title=" ">
<path fill="none" stroke="#63b8ff" d="M825.13,-239.3C821.27,-230.88 815.58,-218.47 810.77,-207.97"/>
<polygon fill="#63b8ff" stroke="#63b8ff" points="814,-206.6 806.65,-198.97 807.63,-209.52 814,-206.6"/>
</a>
</g>
</g>
<!-- Node13 -->
<g id="Node000013" class="node">
<title>Node13</title>
<g id="a_Node000013"><a xlink:href="endian_8h.html" target="_top" xlink:title=" ">
<polygon fill="white" stroke="#666666" points="900.75,-77.5 774.5,-77.5 774.5,-56.75 900.75,-56.75 900.75,-77.5"/>
<text text-anchor="middle" x="837.62" y="-64" font-family="Helvetica,sans-Serif" font-size="10.00">vlcb/platform/endian.h</text>
</a>
</g>
</g>
<!-- Node1&#45;&gt;Node13 -->
<g id="edge16_Node000001_Node000013" class="edge">
<title>Node1&#45;&gt;Node13</title>
<g id="a_edge16_Node000001_Node000013"><a xlink:title=" ">
<path fill="none" stroke="#63b8ff" d="M832.11,-239.47C834.33,-230.34 837.4,-216.22 838.62,-203.75 842.6,-163.27 840.76,-115.67 839.14,-88.99"/>
<polygon fill="#63b8ff" stroke="#63b8ff" points="842.64,-88.95 838.48,-79.2 835.66,-89.41 842.64,-88.95"/>
</a>
</g>
</g>
<!-- Node14 -->
<g id="Node000014" class="node">
<title>Node14</title>
<g id="a_Node000014"><a xlink:title=" ">
<polygon fill="#e0e0e0" stroke="#999999" points="938,-197.38 885.25,-197.38 885.25,-176.62 938,-176.62 938,-197.38"/>
<text text-anchor="middle" x="911.62" y="-183.88" font-family="Helvetica,sans-Serif" font-size="10.00">string.h</text>
</a>
</g>
</g>
<!-- Node1&#45;&gt;Node14 -->
<g id="edge18_Node000001_Node000014" class="edge">
<title>Node1&#45;&gt;Node14</title>
<g id="a_edge18_Node000001_Node000014"><a xlink:title=" ">
<path fill="none" stroke="#63b8ff" d="M842.8,-239.3C855.35,-229.95 874.49,-215.68 889.41,-204.56"/>
<polygon fill="#63b8ff" stroke="#63b8ff" points="891.34,-207.48 897.27,-198.7 887.16,-201.87 891.34,-207.48"/>
</a>
</g>
</g>
<!-- Node3 -->
<g id="Node000003" class="node">
<title>Node3</title>
<g id="a_Node000003"><a xlink:href="manufacturer_8h.html" target="_top" xlink:title=" ">
<polygon fill="white" stroke="#666666" points="159.25,-77.5 0,-77.5 0,-56.75 159.25,-56.75 159.25,-77.5"/>
<text text-anchor="middle" x="79.62" y="-64" font-family="Helvetica,sans-Serif" font-size="10.00">vlcb/common/manufacturer.h</text>
</a>
</g>
</g>
<!-- Node2&#45;&gt;Node3 -->
<g id="edge2_Node000002_Node000003" class="edge">
<title>Node2&#45;&gt;Node3</title>
<g id="a_edge2_Node000002_Node000003"><a xlink:title=" ">
<path fill="none" stroke="#63b8ff" d="M351.88,-179.08C300.73,-172.24 230.85,-159.05 173.62,-134.25 145.25,-121.95 116.78,-100.31 98.73,-85.14"/>
<polygon fill="#63b8ff" stroke="#63b8ff" points="101.31,-82.74 91.44,-78.87 96.74,-88.05 101.31,-82.74"/>
</a>
</g>
</g>
<!-- Node4 -->
<g id="Node000004" class="node">
<title>Node4</title>
<g id="a_Node000004"><a xlink:title=" ">
<polygon fill="#e0e0e0" stroke="#999999" points="307,-20.75 254.25,-20.75 254.25,0 307,0 307,-20.75"/>
<text text-anchor="middle" x="280.62" y="-7.25" font-family="Helvetica,sans-Serif" font-size="10.00">stdint.h</text>
</a>
</g>
</g>
<!-- Node2&#45;&gt;Node4 -->
<g id="edge14_Node000002_Node000004" class="edge">
<title>Node2&#45;&gt;Node4</title>
<g id="a_edge14_Node000002_Node000004"><a xlink:title=" ">
<path fill="none" stroke="#63b8ff" d="M351.96,-178.49C296.09,-170.91 224.59,-157.03 206.62,-134.25 178.81,-98.99 226.91,-52.43 257.77,-27.99"/>
<polygon fill="#63b8ff" stroke="#63b8ff" points="259.68,-30.93 265.49,-22.07 255.42,-25.38 259.68,-30.93"/>
</a>
</g>
</g>
<!-- Node5 -->
<g id="Node000005" class="node">
<title>Node5</title>
<g id="a_Node000005"><a xlink:href="common_2inc_2vlcb_2common_2module_8h.html" target="_top" xlink:title=" ">
<polygon fill="white" stroke="#666666" points="346,-134.25 215.25,-134.25 215.25,-113.5 346,-113.5 346,-134.25"/>
<text text-anchor="middle" x="280.62" y="-120.75" font-family="Helvetica,sans-Serif" font-size="10.00">vlcb/common/module.h</text>
</a>
</g>
</g>
<!-- Node2&#45;&gt;Node5 -->
<g id="edge4_Node000002_Node000005" class="edge">
<title>Node2&#45;&gt;Node5</title>
<g id="a_edge4_Node000002_Node000005"><a xlink:title=" ">
<path fill="none" stroke="#63b8ff" d="M384.94,-169.78C362.83,-160.26 335.15,-148.35 313.86,-139.18"/>
<polygon fill="#63b8ff" stroke="#63b8ff" points="315.33,-136 304.76,-135.26 312.56,-142.43 315.33,-136"/>
</a>
</g>
</g>
<!-- Node6 -->
<g id="Node000006" class="node">
<title>Node6</title>
<g id="a_Node000006"><a xlink:href="node_8h.html" target="_top" xlink:title=" ">
<polygon fill="white" stroke="#666666" points="481.62,-134.25 363.62,-134.25 363.62,-113.5 481.62,-113.5 481.62,-134.25"/>
<text text-anchor="middle" x="422.62" y="-120.75" font-family="Helvetica,sans-Serif" font-size="10.00">vlcb/common/node.h</text>
</a>
</g>
</g>
<!-- Node2&#45;&gt;Node6 -->
<g id="edge6_Node000002_Node000006" class="edge">
<title>Node2&#45;&gt;Node6</title>
<g id="a_edge6_Node000002_Node000006"><a xlink:title=" ">
<path fill="none" stroke="#63b8ff" d="M422.62,-169.94C422.62,-162.6 422.62,-153.82 422.62,-145.96"/>
<polygon fill="#63b8ff" stroke="#63b8ff" points="426.13,-146.23 422.63,-136.23 419.13,-146.23 426.13,-146.23"/>
</a>
</g>
</g>
<!-- Node8 -->
<g id="Node000008" class="node">
<title>Node8</title>
<g id="a_Node000008"><a xlink:href="packet_2datagram_8h.html" target="_top" xlink:title=" ">
<polygon fill="white" stroke="#666666" points="649.38,-134.25 499.88,-134.25 499.88,-113.5 649.38,-113.5 649.38,-134.25"/>
<text text-anchor="middle" x="574.62" y="-120.75" font-family="Helvetica,sans-Serif" font-size="10.00">vlcb/net/packet/datagram.h</text>
</a>
</g>
</g>
<!-- Node2&#45;&gt;Node8 -->
<g id="edge8_Node000002_Node000008" class="edge">
<title>Node2&#45;&gt;Node8</title>
<g id="a_edge8_Node000002_Node000008"><a xlink:title=" ">
<path fill="none" stroke="#63b8ff" d="M462.96,-169.78C486.84,-160.18 516.81,-148.13 539.68,-138.93"/>
<polygon fill="#63b8ff" stroke="#63b8ff" points="540.9,-142.21 548.88,-135.23 538.29,-135.71 540.9,-142.21"/>
</a>
</g>
</g>
<!-- Node11 -->
<g id="Node000011" class="node">
<title>Node11</title>
<g id="a_Node000011"><a xlink:href="serialization_8h.html" target="_top" xlink:title=" ">
<polygon fill="white" stroke="#666666" points="829.75,-134.25 667.5,-134.25 667.5,-113.5 829.75,-113.5 829.75,-134.25"/>
<text text-anchor="middle" x="748.62" y="-120.75" font-family="Helvetica,sans-Serif" font-size="10.00">vlcb/net/packet/serialization.h</text>
</a>
</g>
</g>
<!-- Node2&#45;&gt;Node11 -->
<g id="edge13_Node000002_Node000011" class="edge">
<title>Node2&#45;&gt;Node11</title>
<g id="a_edge13_Node000002_Node000011"><a xlink:title=" ">
<path fill="none" stroke="#63b8ff" d="M493.36,-172.74C550.48,-162.03 630.12,-147.09 685.19,-136.77"/>
<polygon fill="#63b8ff" stroke="#63b8ff" points="685.54,-140.27 694.72,-134.98 684.25,-133.39 685.54,-140.27"/>
</a>
</g>
</g>
<!-- Node3&#45;&gt;Node4 -->
<g id="edge3_Node000003_Node000004" class="edge">
<title>Node3&#45;&gt;Node4</title>
<g id="a_edge3_Node000003_Node000004"><a xlink:title=" ">
<path fill="none" stroke="#63b8ff" d="M115.56,-56.34C151.58,-46.53 206.79,-31.49 243.3,-21.54"/>
<polygon fill="#63b8ff" stroke="#63b8ff" points="243.8,-25.03 252.53,-19.03 241.96,-18.28 243.8,-25.03"/>
</a>
</g>
</g>
<!-- Node5&#45;&gt;Node4 -->
<g id="edge5_Node000005_Node000004" class="edge">
<title>Node5&#45;&gt;Node4</title>
<g id="a_edge5_Node000005_Node000004"><a xlink:title=" ">
<path fill="none" stroke="#63b8ff" d="M280.62,-113.37C280.62,-95.6 280.62,-56.97 280.62,-32.68"/>
<polygon fill="#63b8ff" stroke="#63b8ff" points="284.13,-32.69 280.63,-22.69 277.13,-32.69 284.13,-32.69"/>
</a>
</g>
</g>
<!-- Node7 -->
<g id="Node000007" class="node">
<title>Node7</title>
<g id="a_Node000007"><a xlink:title=" ">
<polygon fill="#e0e0e0" stroke="#999999" points="455,-77.5 390.25,-77.5 390.25,-56.75 455,-56.75 455,-77.5"/>
<text text-anchor="middle" x="422.62" y="-64" font-family="Helvetica,sans-Serif" font-size="10.00">inttypes.h</text>
</a>
</g>
</g>
<!-- Node6&#45;&gt;Node7 -->
<g id="edge7_Node000006_Node000007" class="edge">
<title>Node6&#45;&gt;Node7</title>
<g id="a_edge7_Node000006_Node000007"><a xlink:title=" ">
<path fill="none" stroke="#63b8ff" d="M422.62,-113.09C422.62,-106.47 422.62,-97.47 422.62,-89.27"/>
<polygon fill="#63b8ff" stroke="#63b8ff" points="426.13,-89.34 422.63,-79.34 419.13,-89.34 426.13,-89.34"/>
</a>
</g>
</g>
<!-- Node8&#45;&gt;Node7 -->
<g id="edge9_Node000008_Node000007" class="edge">
<title>Node8&#45;&gt;Node7</title>
<g id="a_edge9_Node000008_Node000007"><a xlink:title=" ">
<path fill="none" stroke="#63b8ff" d="M547.45,-113.09C523.21,-104.36 487.47,-91.48 460.44,-81.75"/>
<polygon fill="#63b8ff" stroke="#63b8ff" points="461.84,-78.53 451.24,-78.43 459.47,-85.12 461.84,-78.53"/>
</a>
</g>
</g>
<!-- Node9 -->
<g id="Node000009" class="node">
<title>Node9</title>
<g id="a_Node000009"><a xlink:href="opcode_8h.html" target="_top" xlink:title=" ">
<polygon fill="white" stroke="#666666" points="602.25,-77.5 473,-77.5 473,-56.75 602.25,-56.75 602.25,-77.5"/>
<text text-anchor="middle" x="537.62" y="-64" font-family="Helvetica,sans-Serif" font-size="10.00">vlcb/common/opcode.h</text>
</a>
</g>
</g>
<!-- Node8&#45;&gt;Node9 -->
<g id="edge10_Node000008_Node000009" class="edge">
<title>Node8&#45;&gt;Node9</title>
<g id="a_edge10_Node000008_Node000009"><a xlink:title=" ">
<path fill="none" stroke="#63b8ff" d="M568.01,-113.09C563.17,-105.92 556.45,-95.98 550.55,-87.26"/>
<polygon fill="#63b8ff" stroke="#63b8ff" points="553.53,-85.41 545.03,-79.08 547.73,-89.33 553.53,-85.41"/>
</a>
</g>
</g>
<!-- Node10 -->
<g id="Node000010" class="node">
<title>Node10</title>
<g id="a_Node000010"><a xlink:href="error_8h.html" target="_top" xlink:title=" ">
<polygon fill="white" stroke="#666666" points="736.5,-77.5 620.75,-77.5 620.75,-56.75 736.5,-56.75 736.5,-77.5"/>
<text text-anchor="middle" x="678.62" y="-64" font-family="Helvetica,sans-Serif" font-size="10.00">vlcb/platform/error.h</text>
</a>
</g>
</g>
<!-- Node8&#45;&gt;Node10 -->
<g id="edge12_Node000008_Node000010" class="edge">
<title>Node8&#45;&gt;Node10</title>
<g id="a_edge12_Node000008_Node000010"><a xlink:title=" ">
<path fill="none" stroke="#63b8ff" d="M593.22,-113.09C609.04,-104.76 632.02,-92.66 650.16,-83.11"/>
<polygon fill="#63b8ff" stroke="#63b8ff" points="651.64,-86.29 658.85,-78.53 648.37,-80.09 651.64,-86.29"/>
</a>
</g>
</g>
<!-- Node9&#45;&gt;Node4 -->
<g id="edge11_Node000009_Node000004" class="edge">
<title>Node9&#45;&gt;Node4</title>
<g id="a_edge11_Node000009_Node000004"><a xlink:title=" ">
<path fill="none" stroke="#63b8ff" d="M491.38,-56.27C441.93,-45.74 364.43,-29.23 318.47,-19.44"/>
<polygon fill="#63b8ff" stroke="#63b8ff" points="319.21,-16.02 308.7,-17.36 317.75,-22.86 319.21,-16.02"/>
</a>
</g>
</g>
<!-- Node13&#45;&gt;Node4 -->
<g id="edge17_Node000013_Node000004" class="edge">
<title>Node13&#45;&gt;Node4</title>
<g id="a_edge17_Node000013_Node000004"><a xlink:title=" ">
<path fill="none" stroke="#63b8ff" d="M774.28,-59.63C764.68,-58.66 754.89,-57.67 745.62,-56.75 587.09,-40.94 398.09,-22.68 318.7,-15.04"/>
<polygon fill="#63b8ff" stroke="#63b8ff" points="319.16,-11.56 308.87,-14.09 318.49,-18.53 319.16,-11.56"/>
</a>
</g>
</g>
</g>
</svg>
