<?xml version="1.0" encoding="UTF-8" standalone="no"?>
<!DOCTYPE svg PUBLIC "-//W3C//DTD SVG 1.1//EN"
 "http://www.w3.org/Graphics/SVG/1.1/DTD/svg11.dtd">
<!-- Generated by graphviz version 12.1.2 (20240928.0832)
 -->
<!-- Title: release_node_num_deserialize.c Pages: 1 -->
<svg width="919pt" height="269pt"
 viewBox="0.00 0.00 918.50 268.50" xmlns="http://www.w3.org/2000/svg" xmlns:xlink="http://www.w3.org/1999/xlink">
<g id="graph0" class="graph" transform="scale(1 1) rotate(0) translate(4 264.5)">
<title>release_node_num_deserialize.c</title>
<!-- Node1 -->
<g id="Node000001" class="node">
<title>Node1</title>
<g id="a_Node000001"><a xlink:title=" ">
<polygon fill="#999999" stroke="#666666" points="843.62,-260.5 668.62,-260.5 668.62,-239.75 843.62,-239.75 843.62,-260.5"/>
<text text-anchor="middle" x="756.12" y="-247" font-family="Helvetica,sans-Serif" font-size="10.00">release_node_num_deserialize.c</text>
</a>
</g>
</g>
<!-- Node2 -->
<g id="Node000002" class="node">
<title>Node2</title>
<g id="a_Node000002"><a xlink:href="net_2inc_2vlcb_2net_2packet_2datagram_2module_8h.html" target="_top" xlink:title=" ">
<polygon fill="white" stroke="#666666" points="499.38,-203.75 358.88,-203.75 358.88,-170.25 499.38,-170.25 499.38,-203.75"/>
<text text-anchor="start" x="366.88" y="-190.25" font-family="Helvetica,sans-Serif" font-size="10.00">vlcb/net/packet/datagram</text>
<text text-anchor="middle" x="429.12" y="-177.5" font-family="Helvetica,sans-Serif" font-size="10.00">/module.h</text>
</a>
</g>
</g>
<!-- Node1&#45;&gt;Node2 -->
<g id="edge1_Node000001_Node000002" class="edge">
<title>Node1&#45;&gt;Node2</title>
<g id="a_edge1_Node000001_Node000002"><a xlink:title=" ">
<path fill="none" stroke="#63b8ff" d="M703.59,-239.3C651.58,-229.58 571.21,-214.56 510.86,-203.28"/>
<polygon fill="#63b8ff" stroke="#63b8ff" points="511.79,-199.89 501.32,-201.5 510.51,-206.77 511.79,-199.89"/>
</a>
</g>
</g>
<!-- Node7 -->
<g id="Node000007" class="node">
<title>Node7</title>
<g id="a_Node000007"><a xlink:href="vlcb__defs_8h.html" target="_top" xlink:title=" ">
<polygon fill="white" stroke="#666666" points="716.38,-77.5 575.88,-77.5 575.88,-56.75 716.38,-56.75 716.38,-77.5"/>
<text text-anchor="middle" x="646.12" y="-64" font-family="Helvetica,sans-Serif" font-size="10.00">vlcb/common/vlcb_defs.h</text>
</a>
</g>
</g>
<!-- Node1&#45;&gt;Node7 -->
<g id="edge15_Node000001_Node000007" class="edge">
<title>Node1&#45;&gt;Node7</title>
<g id="a_edge15_Node000001_Node000007"><a xlink:title=" ">
<path fill="none" stroke="#63b8ff" d="M750.94,-239.41C738.83,-216.88 707.5,-159.52 678.12,-113.5 672.44,-104.59 665.75,-94.98 659.96,-86.91"/>
<polygon fill="#63b8ff" stroke="#63b8ff" points="662.85,-84.94 654.14,-78.91 657.19,-89.06 662.85,-84.94"/>
</a>
</g>
</g>
<!-- Node11 -->
<g id="Node000011" class="node">
<title>Node11</title>
<g id="a_Node000011"><a xlink:title=" ">
<polygon fill="#e0e0e0" stroke="#999999" points="839.62,-197.38 784.62,-197.38 784.62,-176.62 839.62,-176.62 839.62,-197.38"/>
<text text-anchor="middle" x="812.12" y="-183.88" font-family="Helvetica,sans-Serif" font-size="10.00">assert.h</text>
</a>
</g>
</g>
<!-- Node1&#45;&gt;Node11 -->
<g id="edge14_Node000001_Node000011" class="edge">
<title>Node1&#45;&gt;Node11</title>
<g id="a_edge14_Node000001_Node000011"><a xlink:title=" ">
<path fill="none" stroke="#63b8ff" d="M765.12,-239.3C773.33,-230.34 785.68,-216.87 795.65,-205.98"/>
<polygon fill="#63b8ff" stroke="#63b8ff" points="798.14,-208.45 802.31,-198.71 792.98,-203.72 798.14,-208.45"/>
</a>
</g>
</g>
<!-- Node12 -->
<g id="Node000012" class="node">
<title>Node12</title>
<g id="a_Node000012"><a xlink:href="endian_8h.html" target="_top" xlink:title=" ">
<polygon fill="white" stroke="#666666" points="860.25,-77.5 734,-77.5 734,-56.75 860.25,-56.75 860.25,-77.5"/>
<text text-anchor="middle" x="797.12" y="-64" font-family="Helvetica,sans-Serif" font-size="10.00">vlcb/platform/endian.h</text>
</a>
</g>
</g>
<!-- Node1&#45;&gt;Node12 -->
<g id="edge16_Node000001_Node000012" class="edge">
<title>Node1&#45;&gt;Node12</title>
<g id="a_edge16_Node000001_Node000012"><a xlink:title=" ">
<path fill="none" stroke="#63b8ff" d="M758.33,-239.39C764.75,-211.04 783.56,-128.01 792.41,-88.93"/>
<polygon fill="#63b8ff" stroke="#63b8ff" points="795.78,-89.91 794.58,-79.38 788.95,-88.36 795.78,-89.91"/>
</a>
</g>
</g>
<!-- Node13 -->
<g id="Node000013" class="node">
<title>Node13</title>
<g id="a_Node000013"><a xlink:title=" ">
<polygon fill="#e0e0e0" stroke="#999999" points="910.5,-197.38 857.75,-197.38 857.75,-176.62 910.5,-176.62 910.5,-197.38"/>
<text text-anchor="middle" x="884.12" y="-183.88" font-family="Helvetica,sans-Serif" font-size="10.00">string.h</text>
</a>
</g>
</g>
<!-- Node1&#45;&gt;Node13 -->
<g id="edge18_Node000001_Node000013" class="edge">
<title>Node1&#45;&gt;Node13</title>
<g id="a_edge18_Node000001_Node000013"><a xlink:title=" ">
<path fill="none" stroke="#63b8ff" d="M776.69,-239.3C797.4,-229.41 829.61,-214.03 853.36,-202.69"/>
<polygon fill="#63b8ff" stroke="#63b8ff" points="854.73,-205.92 862.24,-198.45 851.71,-199.6 854.73,-205.92"/>
</a>
</g>
</g>
<!-- Node3 -->
<g id="Node000003" class="node">
<title>Node3</title>
<g id="a_Node000003"><a xlink:href="common_2inc_2vlcb_2common_2module_8h.html" target="_top" xlink:title=" ">
<polygon fill="white" stroke="#666666" points="652.5,-134.25 521.75,-134.25 521.75,-113.5 652.5,-113.5 652.5,-134.25"/>
<text text-anchor="middle" x="587.12" y="-120.75" font-family="Helvetica,sans-Serif" font-size="10.00">vlcb/common/module.h</text>
</a>
</g>
</g>
<!-- Node2&#45;&gt;Node3 -->
<g id="edge2_Node000002_Node000003" class="edge">
<title>Node2&#45;&gt;Node3</title>
<g id="a_edge2_Node000002_Node000003"><a xlink:title=" ">
<path fill="none" stroke="#63b8ff" d="M471.05,-169.78C495.99,-160.13 527.31,-148.02 551.12,-138.8"/>
<polygon fill="#63b8ff" stroke="#63b8ff" points="552.34,-142.08 560.41,-135.21 549.82,-135.56 552.34,-142.08"/>
</a>
</g>
</g>
<!-- Node4 -->
<g id="Node000004" class="node">
<title>Node4</title>
<g id="a_Node000004"><a xlink:title=" ">
<polygon fill="#e0e0e0" stroke="#999999" points="623.5,-20.75 570.75,-20.75 570.75,0 623.5,0 623.5,-20.75"/>
<text text-anchor="middle" x="597.12" y="-7.25" font-family="Helvetica,sans-Serif" font-size="10.00">stdint.h</text>
</a>
</g>
</g>
<!-- Node2&#45;&gt;Node4 -->
<g id="edge13_Node000002_Node000004" class="edge">
<title>Node2&#45;&gt;Node4</title>
<g id="a_edge13_Node000002_Node000004"><a xlink:title=" ">
<path fill="none" stroke="#63b8ff" d="M358.59,-178.85C301.48,-171.44 227.61,-157.59 209.12,-134.25 203.4,-127.02 205.91,-122.14 209.12,-113.5 220.74,-82.27 228.81,-72.6 258.12,-56.75 309.48,-28.97 481.98,-17.1 559.2,-13.08"/>
<polygon fill="#63b8ff" stroke="#63b8ff" points="558.98,-16.6 568.8,-12.6 558.63,-9.61 558.98,-16.6"/>
</a>
</g>
</g>
<!-- Node5 -->
<g id="Node000005" class="node">
<title>Node5</title>
<g id="a_Node000005"><a xlink:href="node_8h.html" target="_top" xlink:title=" ">
<polygon fill="white" stroke="#666666" points="336.12,-134.25 218.12,-134.25 218.12,-113.5 336.12,-113.5 336.12,-134.25"/>
<text text-anchor="middle" x="277.12" y="-120.75" font-family="Helvetica,sans-Serif" font-size="10.00">vlcb/common/node.h</text>
</a>
</g>
</g>
<!-- Node2&#45;&gt;Node5 -->
<g id="edge4_Node000002_Node000005" class="edge">
<title>Node2&#45;&gt;Node5</title>
<g id="a_edge4_Node000002_Node000005"><a xlink:title=" ">
<path fill="none" stroke="#63b8ff" d="M388.79,-169.78C364.91,-160.18 334.94,-148.13 312.07,-138.93"/>
<polygon fill="#63b8ff" stroke="#63b8ff" points="313.46,-135.71 302.87,-135.23 310.85,-142.21 313.46,-135.71"/>
</a>
</g>
</g>
<!-- Node2&#45;&gt;Node7 -->
<g id="edge6_Node000002_Node000007" class="edge">
<title>Node2&#45;&gt;Node7</title>
<g id="a_edge6_Node000002_Node000007"><a xlink:title=" ">
<path fill="none" stroke="#63b8ff" d="M499.63,-179.84C560.29,-172.91 641.12,-159.21 661.12,-134.25 671.69,-121.07 665.7,-101.9 658.4,-87.59"/>
<polygon fill="#63b8ff" stroke="#63b8ff" points="661.55,-86.05 653.56,-79.09 655.47,-89.51 661.55,-86.05"/>
</a>
</g>
</g>
<!-- Node8 -->
<g id="Node000008" class="node">
<title>Node8</title>
<g id="a_Node000008"><a xlink:href="packet_2datagram_8h.html" target="_top" xlink:title=" ">
<polygon fill="white" stroke="#666666" points="503.88,-134.25 354.38,-134.25 354.38,-113.5 503.88,-113.5 503.88,-134.25"/>
<text text-anchor="middle" x="429.12" y="-120.75" font-family="Helvetica,sans-Serif" font-size="10.00">vlcb/net/packet/datagram.h</text>
</a>
</g>
</g>
<!-- Node2&#45;&gt;Node8 -->
<g id="edge8_Node000002_Node000008" class="edge">
<title>Node2&#45;&gt;Node8</title>
<g id="a_edge8_Node000002_Node000008"><a xlink:title=" ">
<path fill="none" stroke="#63b8ff" d="M429.12,-169.94C429.12,-162.6 429.12,-153.82 429.12,-145.96"/>
<polygon fill="#63b8ff" stroke="#63b8ff" points="432.63,-146.23 429.13,-136.23 425.63,-146.23 432.63,-146.23"/>
</a>
</g>
</g>
<!-- Node10 -->
<g id="Node000010" class="node">
<title>Node10</title>
<g id="a_Node000010"><a xlink:href="serialization_8h.html" target="_top" xlink:title=" ">
<polygon fill="white" stroke="#666666" points="162.25,-134.25 0,-134.25 0,-113.5 162.25,-113.5 162.25,-134.25"/>
<text text-anchor="middle" x="81.12" y="-120.75" font-family="Helvetica,sans-Serif" font-size="10.00">vlcb/net/packet/serialization.h</text>
</a>
</g>
</g>
<!-- Node2&#45;&gt;Node10 -->
<g id="edge12_Node000002_Node000010" class="edge">
<title>Node2&#45;&gt;Node10</title>
<g id="a_edge12_Node000002_Node000010"><a xlink:title=" ">
<path fill="none" stroke="#63b8ff" d="M358.7,-173.63C297.32,-162.85 208.89,-147.32 148.44,-136.7"/>
<polygon fill="#63b8ff" stroke="#63b8ff" points="149.06,-133.25 138.61,-134.97 147.85,-140.15 149.06,-133.25"/>
</a>
</g>
</g>
<!-- Node3&#45;&gt;Node4 -->
<g id="edge3_Node000003_Node000004" class="edge">
<title>Node3&#45;&gt;Node4</title>
<g id="a_edge3_Node000003_Node000004"><a xlink:title=" ">
<path fill="none" stroke="#63b8ff" d="M580.43,-113.02C572.51,-100.1 561.12,-76.74 567.12,-56.75 570.03,-47.08 575.74,-37.58 581.4,-29.79"/>
<polygon fill="#63b8ff" stroke="#63b8ff" points="583.99,-32.17 587.41,-22.14 578.48,-27.85 583.99,-32.17"/>
</a>
</g>
</g>
<!-- Node6 -->
<g id="Node000006" class="node">
<title>Node6</title>
<g id="a_Node000006"><a xlink:title=" ">
<polygon fill="#e0e0e0" stroke="#999999" points="331.5,-77.5 266.75,-77.5 266.75,-56.75 331.5,-56.75 331.5,-77.5"/>
<text text-anchor="middle" x="299.12" y="-64" font-family="Helvetica,sans-Serif" font-size="10.00">inttypes.h</text>
</a>
</g>
</g>
<!-- Node5&#45;&gt;Node6 -->
<g id="edge5_Node000005_Node000006" class="edge">
<title>Node5&#45;&gt;Node6</title>
<g id="a_edge5_Node000005_Node000006"><a xlink:title=" ">
<path fill="none" stroke="#63b8ff" d="M281.06,-113.09C283.81,-106.24 287.59,-96.84 290.98,-88.4"/>
<polygon fill="#63b8ff" stroke="#63b8ff" points="294.18,-89.82 294.66,-79.23 287.69,-87.21 294.18,-89.82"/>
</a>
</g>
</g>
<!-- Node7&#45;&gt;Node4 -->
<g id="edge7_Node000007_Node000004" class="edge">
<title>Node7&#45;&gt;Node4</title>
<g id="a_edge7_Node000007_Node000004"><a xlink:title=" ">
<path fill="none" stroke="#63b8ff" d="M637.36,-56.34C630.68,-48.86 621.27,-38.36 613.24,-29.38"/>
<polygon fill="#63b8ff" stroke="#63b8ff" points="616.1,-27.32 606.82,-22.21 610.88,-31.99 616.1,-27.32"/>
</a>
</g>
</g>
<!-- Node8&#45;&gt;Node6 -->
<g id="edge9_Node000008_Node000006" class="edge">
<title>Node8&#45;&gt;Node6</title>
<g id="a_edge9_Node000008_Node000006"><a xlink:title=" ">
<path fill="none" stroke="#63b8ff" d="M405.88,-113.09C385.46,-104.48 355.49,-91.86 332.5,-82.18"/>
<polygon fill="#63b8ff" stroke="#63b8ff" points="334.13,-79.07 323.56,-78.42 331.42,-85.52 334.13,-79.07"/>
</a>
</g>
</g>
<!-- Node8&#45;&gt;Node7 -->
<g id="edge10_Node000008_Node000007" class="edge">
<title>Node8&#45;&gt;Node7</title>
<g id="a_edge10_Node000008_Node000007"><a xlink:title=" ">
<path fill="none" stroke="#63b8ff" d="M468.17,-113.02C503.93,-104 557.06,-90.6 595.96,-80.78"/>
<polygon fill="#63b8ff" stroke="#63b8ff" points="596.72,-84.2 605.56,-78.36 595.01,-77.41 596.72,-84.2"/>
</a>
</g>
</g>
<!-- Node9 -->
<g id="Node000009" class="node">
<title>Node9</title>
<g id="a_Node000009"><a xlink:href="error_8h.html" target="_top" xlink:title=" ">
<polygon fill="white" stroke="#666666" points="487,-77.5 371.25,-77.5 371.25,-56.75 487,-56.75 487,-77.5"/>
<text text-anchor="middle" x="429.12" y="-64" font-family="Helvetica,sans-Serif" font-size="10.00">vlcb/platform/error.h</text>
</a>
</g>
</g>
<!-- Node8&#45;&gt;Node9 -->
<g id="edge11_Node000008_Node000009" class="edge">
<title>Node8&#45;&gt;Node9</title>
<g id="a_edge11_Node000008_Node000009"><a xlink:title=" ">
<path fill="none" stroke="#63b8ff" d="M429.12,-113.09C429.12,-106.47 429.12,-97.47 429.12,-89.27"/>
<polygon fill="#63b8ff" stroke="#63b8ff" points="432.63,-89.34 429.13,-79.34 425.63,-89.34 432.63,-89.34"/>
</a>
</g>
</g>
<!-- Node12&#45;&gt;Node4 -->
<g id="edge17_Node000012_Node000004" class="edge">
<title>Node12&#45;&gt;Node4</title>
<g id="a_edge17_Node000012_Node000004"><a xlink:title=" ">
<path fill="none" stroke="#63b8ff" d="M761.37,-56.34C725.63,-46.55 670.9,-31.57 634.58,-21.63"/>
<polygon fill="#63b8ff" stroke="#63b8ff" points="635.96,-18.38 625.39,-19.11 634.11,-25.13 635.96,-18.38"/>
</a>
</g>
</g>
</g>
</svg>
