<?xml version="1.0" encoding="UTF-8" standalone="no"?>
<!DOCTYPE svg PUBLIC "-//W3C//DTD SVG 1.1//EN"
 "http://www.w3.org/Graphics/SVG/1.1/DTD/svg11.dtd">
<!-- Generated by graphviz version 12.1.2 (20240928.0832)
 -->
<!-- Title: release_node_num_serialize.c Pages: 1 -->
<svg width="696pt" height="269pt"
 viewBox="0.00 0.00 696.12 268.50" xmlns="http://www.w3.org/2000/svg" xmlns:xlink="http://www.w3.org/1999/xlink">
<g id="graph0" class="graph" transform="scale(1 1) rotate(0) translate(4 264.5)">
<title>release_node_num_serialize.c</title>
<!-- Node1 -->
<g id="Node000001" class="node">
<title>Node1</title>
<g id="a_Node000001"><a xlink:title=" ">
<polygon fill="#999999" stroke="#666666" points="261.62,-260.5 98.62,-260.5 98.62,-239.75 261.62,-239.75 261.62,-260.5"/>
<text text-anchor="middle" x="180.12" y="-247" font-family="Helvetica,sans-Serif" font-size="10.00">release_node_num_serialize.c</text>
</a>
</g>
</g>
<!-- Node2 -->
<g id="Node000002" class="node">
<title>Node2</title>
<g id="a_Node000002"><a xlink:href="net_2inc_2vlcb_2net_2packet_2datagram_2module_8h.html" target="_top" xlink:title=" ">
<polygon fill="white" stroke="#666666" points="473.38,-203.75 332.88,-203.75 332.88,-170.25 473.38,-170.25 473.38,-203.75"/>
<text text-anchor="start" x="340.88" y="-190.25" font-family="Helvetica,sans-Serif" font-size="10.00">vlcb/net/packet/datagram</text>
<text text-anchor="middle" x="403.12" y="-177.5" font-family="Helvetica,sans-Serif" font-size="10.00">/module.h</text>
</a>
</g>
</g>
<!-- Node1&#45;&gt;Node2 -->
<g id="edge1_Node000001_Node000002" class="edge">
<title>Node1&#45;&gt;Node2</title>
<g id="a_edge1_Node000001_Node000002"><a xlink:title=" ">
<path fill="none" stroke="#63b8ff" d="M215.95,-239.3C247.46,-230.67 294.24,-217.85 333.15,-207.18"/>
<polygon fill="#63b8ff" stroke="#63b8ff" points="333.72,-210.65 342.44,-204.64 331.87,-203.9 333.72,-210.65"/>
</a>
</g>
</g>
<!-- Node11 -->
<g id="Node000011" class="node">
<title>Node11</title>
<g id="a_Node000011"><a xlink:title=" ">
<polygon fill="#e0e0e0" stroke="#999999" points="129.62,-197.38 74.62,-197.38 74.62,-176.62 129.62,-176.62 129.62,-197.38"/>
<text text-anchor="middle" x="102.12" y="-183.88" font-family="Helvetica,sans-Serif" font-size="10.00">assert.h</text>
</a>
</g>
</g>
<!-- Node1&#45;&gt;Node11 -->
<g id="edge14_Node000001_Node000011" class="edge">
<title>Node1&#45;&gt;Node11</title>
<g id="a_edge14_Node000001_Node000011"><a xlink:title=" ">
<path fill="none" stroke="#63b8ff" d="M167.59,-239.3C155.77,-230.04 137.79,-215.95 123.67,-204.88"/>
<polygon fill="#63b8ff" stroke="#63b8ff" points="125.85,-202.14 115.82,-198.73 121.53,-207.65 125.85,-202.14"/>
</a>
</g>
</g>
<!-- Node12 -->
<g id="Node000012" class="node">
<title>Node12</title>
<g id="a_Node000012"><a xlink:title=" ">
<polygon fill="#e0e0e0" stroke="#999999" points="212.5,-197.38 147.75,-197.38 147.75,-176.62 212.5,-176.62 212.5,-197.38"/>
<text text-anchor="middle" x="180.12" y="-183.88" font-family="Helvetica,sans-Serif" font-size="10.00">memory.h</text>
</a>
</g>
</g>
<!-- Node1&#45;&gt;Node12 -->
<g id="edge15_Node000001_Node000012" class="edge">
<title>Node1&#45;&gt;Node12</title>
<g id="a_edge15_Node000001_Node000012"><a xlink:title=" ">
<path fill="none" stroke="#63b8ff" d="M180.12,-239.3C180.12,-231.15 180.12,-219.26 180.12,-208.98"/>
<polygon fill="#63b8ff" stroke="#63b8ff" points="183.63,-209.11 180.13,-199.11 176.63,-209.11 183.63,-209.11"/>
</a>
</g>
</g>
<!-- Node13 -->
<g id="Node000013" class="node">
<title>Node13</title>
<g id="a_Node000013"><a xlink:title=" ">
<polygon fill="#e0e0e0" stroke="#999999" points="285.62,-197.38 230.62,-197.38 230.62,-176.62 285.62,-176.62 285.62,-197.38"/>
<text text-anchor="middle" x="258.12" y="-183.88" font-family="Helvetica,sans-Serif" font-size="10.00">stddef.h</text>
</a>
</g>
</g>
<!-- Node1&#45;&gt;Node13 -->
<g id="edge16_Node000001_Node000013" class="edge">
<title>Node1&#45;&gt;Node13</title>
<g id="a_edge16_Node000001_Node000013"><a xlink:title=" ">
<path fill="none" stroke="#63b8ff" d="M192.66,-239.3C204.48,-230.04 222.46,-215.95 236.58,-204.88"/>
<polygon fill="#63b8ff" stroke="#63b8ff" points="238.72,-207.65 244.43,-198.73 234.4,-202.14 238.72,-207.65"/>
</a>
</g>
</g>
<!-- Node14 -->
<g id="Node000014" class="node">
<title>Node14</title>
<g id="a_Node000014"><a xlink:href="endian_8h.html" target="_top" xlink:title=" ">
<polygon fill="white" stroke="#666666" points="126.25,-77.5 0,-77.5 0,-56.75 126.25,-56.75 126.25,-77.5"/>
<text text-anchor="middle" x="63.12" y="-64" font-family="Helvetica,sans-Serif" font-size="10.00">vlcb/platform/endian.h</text>
</a>
</g>
</g>
<!-- Node1&#45;&gt;Node14 -->
<g id="edge17_Node000001_Node000014" class="edge">
<title>Node1&#45;&gt;Node14</title>
<g id="a_edge17_Node000001_Node000014"><a xlink:title=" ">
<path fill="none" stroke="#63b8ff" d="M133.4,-239.3C110.77,-232.53 84.56,-221.45 66.12,-203.75 35.53,-174.38 23.55,-154.3 35.12,-113.5 37.8,-104.09 43.03,-94.71 48.26,-86.95"/>
<polygon fill="#63b8ff" stroke="#63b8ff" points="50.97,-89.17 54.03,-79.03 45.31,-85.06 50.97,-89.17"/>
</a>
</g>
</g>
<!-- Node3 -->
<g id="Node000003" class="node">
<title>Node3</title>
<g id="a_Node000003"><a xlink:href="common_2inc_2vlcb_2common_2module_8h.html" target="_top" xlink:title=" ">
<polygon fill="white" stroke="#666666" points="174.5,-134.25 43.75,-134.25 43.75,-113.5 174.5,-113.5 174.5,-134.25"/>
<text text-anchor="middle" x="109.12" y="-120.75" font-family="Helvetica,sans-Serif" font-size="10.00">vlcb/common/module.h</text>
</a>
</g>
</g>
<!-- Node2&#45;&gt;Node3 -->
<g id="edge2_Node000002_Node000003" class="edge">
<title>Node2&#45;&gt;Node3</title>
<g id="a_edge2_Node000002_Node000003"><a xlink:title=" ">
<path fill="none" stroke="#63b8ff" d="M332.7,-171.36C282.22,-160.86 215.02,-146.89 167.51,-137.01"/>
<polygon fill="#63b8ff" stroke="#63b8ff" points="168.47,-133.64 157.97,-135.03 167.05,-140.49 168.47,-133.64"/>
</a>
</g>
</g>
<!-- Node4 -->
<g id="Node000004" class="node">
<title>Node4</title>
<g id="a_Node000004"><a xlink:title=" ">
<polygon fill="#e0e0e0" stroke="#999999" points="401.5,-20.75 348.75,-20.75 348.75,0 401.5,0 401.5,-20.75"/>
<text text-anchor="middle" x="375.12" y="-7.25" font-family="Helvetica,sans-Serif" font-size="10.00">stdint.h</text>
</a>
</g>
</g>
<!-- Node2&#45;&gt;Node4 -->
<g id="edge13_Node000002_Node000004" class="edge">
<title>Node2&#45;&gt;Node4</title>
<g id="a_edge13_Node000002_Node000004"><a xlink:title=" ">
<path fill="none" stroke="#63b8ff" d="M473.8,-183C548.11,-178.18 657.86,-165.79 684.12,-134.25 690.03,-127.16 688.31,-121.72 684.12,-113.5 664.67,-75.29 645.42,-73.9 606.12,-56.75 542.03,-28.78 460.42,-17.93 413.34,-13.81"/>
<polygon fill="#63b8ff" stroke="#63b8ff" points="413.62,-10.32 403.37,-13 413.06,-17.3 413.62,-10.32"/>
</a>
</g>
</g>
<!-- Node5 -->
<g id="Node000005" class="node">
<title>Node5</title>
<g id="a_Node000005"><a xlink:href="node_8h.html" target="_top" xlink:title=" ">
<polygon fill="white" stroke="#666666" points="310.12,-134.25 192.12,-134.25 192.12,-113.5 310.12,-113.5 310.12,-134.25"/>
<text text-anchor="middle" x="251.12" y="-120.75" font-family="Helvetica,sans-Serif" font-size="10.00">vlcb/common/node.h</text>
</a>
</g>
</g>
<!-- Node2&#45;&gt;Node5 -->
<g id="edge4_Node000002_Node000005" class="edge">
<title>Node2&#45;&gt;Node5</title>
<g id="a_edge4_Node000002_Node000005"><a xlink:title=" ">
<path fill="none" stroke="#63b8ff" d="M362.79,-169.78C338.91,-160.18 308.94,-148.13 286.07,-138.93"/>
<polygon fill="#63b8ff" stroke="#63b8ff" points="287.46,-135.71 276.87,-135.23 284.85,-142.21 287.46,-135.71"/>
</a>
</g>
</g>
<!-- Node7 -->
<g id="Node000007" class="node">
<title>Node7</title>
<g id="a_Node000007"><a xlink:href="vlcb__defs_8h.html" target="_top" xlink:title=" ">
<polygon fill="white" stroke="#666666" points="597.38,-77.5 456.88,-77.5 456.88,-56.75 597.38,-56.75 597.38,-77.5"/>
<text text-anchor="middle" x="527.12" y="-64" font-family="Helvetica,sans-Serif" font-size="10.00">vlcb/common/vlcb_defs.h</text>
</a>
</g>
</g>
<!-- Node2&#45;&gt;Node7 -->
<g id="edge6_Node000002_Node000007" class="edge">
<title>Node2&#45;&gt;Node7</title>
<g id="a_edge6_Node000002_Node000007"><a xlink:title=" ">
<path fill="none" stroke="#63b8ff" d="M473.72,-182.03C543.44,-176.47 643.05,-163.51 667.12,-134.25 689.83,-106.66 651.21,-89.89 608.83,-80.15"/>
<polygon fill="#63b8ff" stroke="#63b8ff" points="609.7,-76.76 599.19,-78.08 608.23,-83.6 609.7,-76.76"/>
</a>
</g>
</g>
<!-- Node8 -->
<g id="Node000008" class="node">
<title>Node8</title>
<g id="a_Node000008"><a xlink:href="packet_2datagram_8h.html" target="_top" xlink:title=" ">
<polygon fill="white" stroke="#666666" points="477.88,-134.25 328.38,-134.25 328.38,-113.5 477.88,-113.5 477.88,-134.25"/>
<text text-anchor="middle" x="403.12" y="-120.75" font-family="Helvetica,sans-Serif" font-size="10.00">vlcb/net/packet/datagram.h</text>
</a>
</g>
</g>
<!-- Node2&#45;&gt;Node8 -->
<g id="edge8_Node000002_Node000008" class="edge">
<title>Node2&#45;&gt;Node8</title>
<g id="a_edge8_Node000002_Node000008"><a xlink:title=" ">
<path fill="none" stroke="#63b8ff" d="M403.12,-169.94C403.12,-162.6 403.12,-153.82 403.12,-145.96"/>
<polygon fill="#63b8ff" stroke="#63b8ff" points="406.63,-146.23 403.13,-136.23 399.63,-146.23 406.63,-146.23"/>
</a>
</g>
</g>
<!-- Node10 -->
<g id="Node000010" class="node">
<title>Node10</title>
<g id="a_Node000010"><a xlink:href="serialization_8h.html" target="_top" xlink:title=" ">
<polygon fill="white" stroke="#666666" points="658.25,-134.25 496,-134.25 496,-113.5 658.25,-113.5 658.25,-134.25"/>
<text text-anchor="middle" x="577.12" y="-120.75" font-family="Helvetica,sans-Serif" font-size="10.00">vlcb/net/packet/serialization.h</text>
</a>
</g>
</g>
<!-- Node2&#45;&gt;Node10 -->
<g id="edge12_Node000002_Node000010" class="edge">
<title>Node2&#45;&gt;Node10</title>
<g id="a_edge12_Node000002_Node000010"><a xlink:title=" ">
<path fill="none" stroke="#63b8ff" d="M449.3,-169.78C477.14,-160 512.19,-147.69 538.54,-138.43"/>
<polygon fill="#63b8ff" stroke="#63b8ff" points="539.55,-141.78 547.83,-135.17 537.23,-135.18 539.55,-141.78"/>
</a>
</g>
</g>
<!-- Node3&#45;&gt;Node4 -->
<g id="edge3_Node000003_Node000004" class="edge">
<title>Node3&#45;&gt;Node4</title>
<g id="a_edge3_Node000003_Node000004"><a xlink:title=" ">
<path fill="none" stroke="#63b8ff" d="M123.02,-113.13C143.62,-99.06 183.85,-72.95 221.12,-56.75 259.37,-40.13 305.52,-27.44 337.27,-19.76"/>
<polygon fill="#63b8ff" stroke="#63b8ff" points="337.87,-23.21 346.79,-17.51 336.26,-16.4 337.87,-23.21"/>
</a>
</g>
</g>
<!-- Node6 -->
<g id="Node000006" class="node">
<title>Node6</title>
<g id="a_Node000006"><a xlink:title=" ">
<polygon fill="#e0e0e0" stroke="#999999" points="294.5,-77.5 229.75,-77.5 229.75,-56.75 294.5,-56.75 294.5,-77.5"/>
<text text-anchor="middle" x="262.12" y="-64" font-family="Helvetica,sans-Serif" font-size="10.00">inttypes.h</text>
</a>
</g>
</g>
<!-- Node5&#45;&gt;Node6 -->
<g id="edge5_Node000005_Node000006" class="edge">
<title>Node5&#45;&gt;Node6</title>
<g id="a_edge5_Node000005_Node000006"><a xlink:title=" ">
<path fill="none" stroke="#63b8ff" d="M253.09,-113.09C254.44,-106.39 256.27,-97.26 257.94,-88.98"/>
<polygon fill="#63b8ff" stroke="#63b8ff" points="261.34,-89.81 259.88,-79.31 254.48,-88.43 261.34,-89.81"/>
</a>
</g>
</g>
<!-- Node7&#45;&gt;Node4 -->
<g id="edge7_Node000007_Node000004" class="edge">
<title>Node7&#45;&gt;Node4</title>
<g id="a_edge7_Node000007_Node000004"><a xlink:title=" ">
<path fill="none" stroke="#63b8ff" d="M499.95,-56.34C475.56,-47.55 439.53,-34.57 412.44,-24.82"/>
<polygon fill="#63b8ff" stroke="#63b8ff" points="413.83,-21.6 403.23,-21.5 411.46,-28.18 413.83,-21.6"/>
</a>
</g>
</g>
<!-- Node8&#45;&gt;Node6 -->
<g id="edge9_Node000008_Node000006" class="edge">
<title>Node8&#45;&gt;Node6</title>
<g id="a_edge9_Node000008_Node000006"><a xlink:title=" ">
<path fill="none" stroke="#63b8ff" d="M377.92,-113.09C355.56,-104.41 322.67,-91.63 297.65,-81.92"/>
<polygon fill="#63b8ff" stroke="#63b8ff" points="299.11,-78.73 288.53,-78.38 296.58,-85.26 299.11,-78.73"/>
</a>
</g>
</g>
<!-- Node8&#45;&gt;Node7 -->
<g id="edge10_Node000008_Node000007" class="edge">
<title>Node8&#45;&gt;Node7</title>
<g id="a_edge10_Node000008_Node000007"><a xlink:title=" ">
<path fill="none" stroke="#63b8ff" d="M425.29,-113.09C444.6,-104.56 472.85,-92.09 494.7,-82.44"/>
<polygon fill="#63b8ff" stroke="#63b8ff" points="496.03,-85.68 503.76,-78.44 493.2,-79.28 496.03,-85.68"/>
</a>
</g>
</g>
<!-- Node9 -->
<g id="Node000009" class="node">
<title>Node9</title>
<g id="a_Node000009"><a xlink:href="error_8h.html" target="_top" xlink:title=" ">
<polygon fill="white" stroke="#666666" points="439,-77.5 323.25,-77.5 323.25,-56.75 439,-56.75 439,-77.5"/>
<text text-anchor="middle" x="381.12" y="-64" font-family="Helvetica,sans-Serif" font-size="10.00">vlcb/platform/error.h</text>
</a>
</g>
</g>
<!-- Node8&#45;&gt;Node9 -->
<g id="edge11_Node000008_Node000009" class="edge">
<title>Node8&#45;&gt;Node9</title>
<g id="a_edge11_Node000008_Node000009"><a xlink:title=" ">
<path fill="none" stroke="#63b8ff" d="M399.19,-113.09C396.44,-106.24 392.66,-96.84 389.27,-88.4"/>
<polygon fill="#63b8ff" stroke="#63b8ff" points="392.56,-87.21 385.59,-79.23 386.07,-89.82 392.56,-87.21"/>
</a>
</g>
</g>
<!-- Node14&#45;&gt;Node4 -->
<g id="edge18_Node000014_Node000004" class="edge">
<title>Node14&#45;&gt;Node4</title>
<g id="a_edge18_Node000014_Node000004"><a xlink:title=" ">
<path fill="none" stroke="#63b8ff" d="M119.26,-56.27C182.36,-45.2 283.04,-27.53 337.39,-18"/>
<polygon fill="#63b8ff" stroke="#63b8ff" points="337.83,-21.47 347.08,-16.3 336.62,-14.58 337.83,-21.47"/>
</a>
</g>
</g>
</g>
</svg>
