<?xml version="1.0" encoding="UTF-8" standalone="no"?>
<!DOCTYPE svg PUBLIC "-//W3C//DTD SVG 1.1//EN"
 "http://www.w3.org/Graphics/SVG/1.1/DTD/svg11.dtd">
<!-- Generated by graphviz version 12.1.2 (20240928.0832)
 -->
<!-- Title: serialization.h Pages: 1 -->
<svg width="558pt" height="142pt"
 viewBox="0.00 0.00 557.62 142.25" xmlns="http://www.w3.org/2000/svg" xmlns:xlink="http://www.w3.org/1999/xlink">
<g id="graph0" class="graph" transform="scale(1 1) rotate(0) translate(4 138.25)">
<title>serialization.h</title>
<!-- Node1 -->
<g id="Node000001" class="node">
<title>Node1</title>
<g id="a_Node000001"><a xlink:title=" ">
<polygon fill="#999999" stroke="#666666" points="184,-134.25 99,-134.25 99,-113.5 184,-113.5 184,-134.25"/>
<text text-anchor="middle" x="141.5" y="-120.75" font-family="Helvetica,sans-Serif" font-size="10.00">serialization.h</text>
</a>
</g>
</g>
<!-- Node2 -->
<g id="Node000002" class="node">
<title>Node2</title>
<g id="a_Node000002"><a xlink:href="net_2inc_2vlcb_2net_2packet_2datagram_2dcc_8h.html" target="_top" xlink:title=" ">
<polygon fill="white" stroke="#666666" points="60.25,-77.5 18.75,-77.5 18.75,-56.75 60.25,-56.75 60.25,-77.5"/>
<text text-anchor="middle" x="39.5" y="-64" font-family="Helvetica,sans-Serif" font-size="10.00">dcc.h</text>
</a>
</g>
</g>
<!-- Node1&#45;&gt;Node2 -->
<g id="edge1_Node000001_Node000002" class="edge">
<title>Node1&#45;&gt;Node2</title>
<g id="a_edge1_Node000001_Node000002"><a xlink:title=" ">
<path fill="none" stroke="#63b8ff" d="M113.15,-107.66C95.37,-98.11 72.98,-86.09 57.58,-77.83"/>
<polygon fill="#63b8ff" stroke="#63b8ff" points="111.46,-110.73 121.93,-112.37 114.78,-104.56 111.46,-110.73"/>
</a>
</g>
</g>
<!-- Node3 -->
<g id="Node000003" class="node">
<title>Node3</title>
<g id="a_Node000003"><a xlink:href="net_2inc_2vlcb_2net_2packet_2datagram_2event_8h.html" target="_top" xlink:title=" ">
<polygon fill="white" stroke="#666666" points="130.88,-77.5 78.12,-77.5 78.12,-56.75 130.88,-56.75 130.88,-77.5"/>
<text text-anchor="middle" x="104.5" y="-64" font-family="Helvetica,sans-Serif" font-size="10.00">event.h</text>
</a>
</g>
</g>
<!-- Node1&#45;&gt;Node3 -->
<g id="edge2_Node000001_Node000003" class="edge">
<title>Node1&#45;&gt;Node3</title>
<g id="a_edge2_Node000001_Node000003"><a xlink:title=" ">
<path fill="none" stroke="#63b8ff" d="M128.5,-103.64C122.6,-94.91 115.88,-84.97 111.06,-77.83"/>
<polygon fill="#63b8ff" stroke="#63b8ff" points="125.54,-105.51 134.04,-111.83 131.34,-101.59 125.54,-105.51"/>
</a>
</g>
</g>
<!-- Node4 -->
<g id="Node000004" class="node">
<title>Node4</title>
<g id="a_Node000004"><a xlink:href="general_8h.html" target="_top" xlink:title=" ">
<polygon fill="white" stroke="#666666" points="210.38,-77.5 148.62,-77.5 148.62,-56.75 210.38,-56.75 210.38,-77.5"/>
<text text-anchor="middle" x="179.5" y="-64" font-family="Helvetica,sans-Serif" font-size="10.00">general.h</text>
</a>
</g>
</g>
<!-- Node1&#45;&gt;Node4 -->
<g id="edge3_Node000001_Node000004" class="edge">
<title>Node1&#45;&gt;Node4</title>
<g id="a_edge3_Node000001_Node000004"><a xlink:title=" ">
<path fill="none" stroke="#63b8ff" d="M154.85,-103.64C160.91,-94.91 167.81,-84.97 172.77,-77.83"/>
<polygon fill="#63b8ff" stroke="#63b8ff" points="151.98,-101.63 149.16,-111.84 157.73,-105.62 151.98,-101.63"/>
</a>
</g>
</g>
<!-- Node5 -->
<g id="Node000005" class="node">
<title>Node5</title>
<g id="a_Node000005"><a xlink:href="net_2inc_2vlcb_2net_2packet_2datagram_2module_8h.html" target="_top" xlink:title=" ">
<polygon fill="white" stroke="#666666" points="290.38,-77.5 228.62,-77.5 228.62,-56.75 290.38,-56.75 290.38,-77.5"/>
<text text-anchor="middle" x="259.5" y="-64" font-family="Helvetica,sans-Serif" font-size="10.00">module.h</text>
</a>
</g>
</g>
<!-- Node1&#45;&gt;Node5 -->
<g id="edge4_Node000001_Node000005" class="edge">
<title>Node1&#45;&gt;Node5</title>
<g id="a_edge4_Node000001_Node000005"><a xlink:title=" ">
<path fill="none" stroke="#63b8ff" d="M172.85,-108.33C193.64,-98.68 220.35,-86.29 238.59,-77.83"/>
<polygon fill="#63b8ff" stroke="#63b8ff" points="171.57,-105.07 163.97,-112.45 174.51,-111.42 171.57,-105.07"/>
</a>
</g>
</g>
<!-- Node6 -->
<g id="Node000006" class="node">
<title>Node6</title>
<g id="a_Node000006"><a xlink:href="module_8c.html" target="_top" xlink:title=" ">
<polygon fill="white" stroke="#666666" points="61,-20.75 0,-20.75 0,0 61,0 61,-20.75"/>
<text text-anchor="middle" x="30.5" y="-7.25" font-family="Helvetica,sans-Serif" font-size="10.00">module.c</text>
</a>
</g>
</g>
<!-- Node5&#45;&gt;Node6 -->
<g id="edge5_Node000005_Node000006" class="edge">
<title>Node5&#45;&gt;Node6</title>
<g id="a_edge5_Node000005_Node000006"><a xlink:title=" ">
<path fill="none" stroke="#63b8ff" d="M216.96,-55.95C171.84,-45.17 101.64,-28.38 61.48,-18.78"/>
<polygon fill="#63b8ff" stroke="#63b8ff" points="216.13,-59.35 226.67,-58.28 217.75,-52.55 216.13,-59.35"/>
</a>
</g>
</g>
<!-- Node7 -->
<g id="Node000007" class="node">
<title>Node7</title>
<g id="a_Node000007"><a xlink:href="release__node__num__deserialize_8c.html" target="_top" xlink:title=" ">
<polygon fill="white" stroke="#666666" points="254,-20.75 79,-20.75 79,0 254,0 254,-20.75"/>
<text text-anchor="middle" x="166.5" y="-7.25" font-family="Helvetica,sans-Serif" font-size="10.00">release_node_num_deserialize.c</text>
</a>
</g>
</g>
<!-- Node5&#45;&gt;Node7 -->
<g id="edge6_Node000005_Node000007" class="edge">
<title>Node5&#45;&gt;Node7</title>
<g id="a_edge6_Node000005_Node000007"><a xlink:title=" ">
<path fill="none" stroke="#63b8ff" d="M232.97,-50.51C216.87,-41.03 196.83,-29.23 182.98,-21.08"/>
<polygon fill="#63b8ff" stroke="#63b8ff" points="231.18,-53.51 241.57,-55.57 234.73,-47.48 231.18,-53.51"/>
</a>
</g>
</g>
<!-- Node8 -->
<g id="Node000008" class="node">
<title>Node8</title>
<g id="a_Node000008"><a xlink:href="release__node__num__serialize_8c.html" target="_top" xlink:title=" ">
<polygon fill="white" stroke="#666666" points="435,-20.75 272,-20.75 272,0 435,0 435,-20.75"/>
<text text-anchor="middle" x="353.5" y="-7.25" font-family="Helvetica,sans-Serif" font-size="10.00">release_node_num_serialize.c</text>
</a>
</g>
</g>
<!-- Node5&#45;&gt;Node8 -->
<g id="edge7_Node000005_Node000008" class="edge">
<title>Node5&#45;&gt;Node8</title>
<g id="a_edge7_Node000005_Node000008"><a xlink:title=" ">
<path fill="none" stroke="#63b8ff" d="M285.85,-50.78C302.2,-41.25 322.71,-29.31 336.84,-21.08"/>
<polygon fill="#63b8ff" stroke="#63b8ff" points="284.49,-47.52 277.61,-55.58 288.02,-53.57 284.49,-47.52"/>
</a>
</g>
</g>
<!-- Node9 -->
<g id="Node000009" class="node">
<title>Node9</title>
<g id="a_Node000009"><a xlink:href="state__machine_8c.html" target="_top" xlink:title=" ">
<polygon fill="white" stroke="#666666" points="549.62,-20.75 453.38,-20.75 453.38,0 549.62,0 549.62,-20.75"/>
<text text-anchor="middle" x="501.5" y="-7.25" font-family="Helvetica,sans-Serif" font-size="10.00">state_machine.c</text>
</a>
</g>
</g>
<!-- Node5&#45;&gt;Node9 -->
<g id="edge8_Node000005_Node000009" class="edge">
<title>Node5&#45;&gt;Node9</title>
<g id="a_edge8_Node000005_Node000009"><a xlink:title=" ">
<path fill="none" stroke="#63b8ff" d="M301.79,-56.56C345.68,-46.63 413.97,-31.18 458.22,-21.17"/>
<polygon fill="#63b8ff" stroke="#63b8ff" points="301.1,-53.13 292.12,-58.75 302.64,-59.95 301.1,-53.13"/>
</a>
</g>
</g>
</g>
</svg>
