<?xml version="1.0" encoding="UTF-8" standalone="no"?>
<!DOCTYPE svg PUBLIC "-//W3C//DTD SVG 1.1//EN"
 "http://www.w3.org/Graphics/SVG/1.1/DTD/svg11.dtd">
<!-- Generated by graphviz version 12.1.2 (20240928.0832)
 -->
<!-- Title: datagram.h Pages: 1 -->
<svg width="766pt" height="313pt"
 viewBox="0.00 0.00 766.12 312.50" xmlns="http://www.w3.org/2000/svg" xmlns:xlink="http://www.w3.org/1999/xlink">
<g id="graph0" class="graph" transform="scale(1 1) rotate(0) translate(4 308.5)">
<title>datagram.h</title>
<!-- Node1 -->
<g id="Node000001" class="node">
<title>Node1</title>
<g id="a_Node000001"><a xlink:title=" ">
<polygon fill="#999999" stroke="#666666" points="447.12,-304.5 374.87,-304.5 374.87,-283.75 447.12,-283.75 447.12,-304.5"/>
<text text-anchor="middle" x="411" y="-291" font-family="Helvetica,sans-Serif" font-size="10.00">datagram.h</text>
</a>
</g>
</g>
<!-- Node2 -->
<g id="Node000002" class="node">
<title>Node2</title>
<g id="a_Node000002"><a xlink:href="packet_2datagram_8h.html" target="_top" xlink:title=" ">
<polygon fill="white" stroke="#666666" points="177.25,-134.25 60.75,-134.25 60.75,-113.5 177.25,-113.5 177.25,-134.25"/>
<text text-anchor="middle" x="119" y="-120.75" font-family="Helvetica,sans-Serif" font-size="10.00">../packet/datagram.h</text>
</a>
</g>
</g>
<!-- Node1&#45;&gt;Node2 -->
<g id="edge1_Node000001_Node000002" class="edge">
<title>Node1&#45;&gt;Node2</title>
<g id="a_edge1_Node000001_Node000002"><a xlink:title=" ">
<path fill="none" stroke="#63b8ff" d="M394.04,-283.35C345.35,-255.3 204.88,-174.36 145.74,-140.28"/>
<polygon fill="#63b8ff" stroke="#63b8ff" points="147.73,-137.39 137.32,-135.43 144.23,-143.46 147.73,-137.39"/>
</a>
</g>
</g>
<!-- Node5 -->
<g id="Node000005" class="node">
<title>Node5</title>
<g id="a_Node000005"><a xlink:title=" ">
<polygon fill="#e0e0e0" stroke="#999999" points="349.37,-20.75 296.62,-20.75 296.62,0 349.37,0 349.37,-20.75"/>
<text text-anchor="middle" x="323" y="-7.25" font-family="Helvetica,sans-Serif" font-size="10.00">stdint.h</text>
</a>
</g>
</g>
<!-- Node1&#45;&gt;Node5 -->
<g id="edge26_Node000001_Node000005" class="edge">
<title>Node1&#45;&gt;Node5</title>
<g id="a_edge26_Node000001_Node000005"><a xlink:title=" ">
<path fill="none" stroke="#63b8ff" d="M374.61,-291.02C274.27,-284.25 1,-258.71 1,-181.62 1,-181.62 1,-181.62 1,-122.88 1,-92.3 -2.99,-76.91 20,-56.75 58.83,-22.7 213.1,-14.2 285.33,-12.08"/>
<polygon fill="#63b8ff" stroke="#63b8ff" points="285.18,-15.58 295.08,-11.82 284.99,-8.59 285.18,-15.58"/>
</a>
</g>
</g>
<!-- Node7 -->
<g id="Node000007" class="node">
<title>Node7</title>
<g id="a_Node000007"><a xlink:href="socket_8h.html" target="_top" xlink:title=" ">
<polygon fill="white" stroke="#666666" points="443.75,-247.75 378.25,-247.75 378.25,-227 443.75,-227 443.75,-247.75"/>
<text text-anchor="middle" x="411" y="-234.25" font-family="Helvetica,sans-Serif" font-size="10.00">../socket.h</text>
</a>
</g>
</g>
<!-- Node1&#45;&gt;Node7 -->
<g id="edge6_Node000001_Node000007" class="edge">
<title>Node1&#45;&gt;Node7</title>
<g id="a_edge6_Node000001_Node000007"><a xlink:title=" ">
<path fill="none" stroke="#63b8ff" d="M411,-283.34C411,-276.72 411,-267.72 411,-259.52"/>
<polygon fill="#63b8ff" stroke="#63b8ff" points="414.5,-259.59 411,-249.59 407.5,-259.59 414.5,-259.59"/>
</a>
</g>
</g>
<!-- Node13 -->
<g id="Node000013" class="node">
<title>Node13</title>
<g id="a_Node000013"><a xlink:href="interface_8h.html" target="_top" xlink:title=" ">
<polygon fill="white" stroke="#666666" points="613.37,-191 476.62,-191 476.62,-170.25 613.37,-170.25 613.37,-191"/>
<text text-anchor="middle" x="545" y="-177.5" font-family="Helvetica,sans-Serif" font-size="10.00">vlcb/platform/interface.h</text>
</a>
</g>
</g>
<!-- Node1&#45;&gt;Node13 -->
<g id="edge25_Node000001_Node000013" class="edge">
<title>Node1&#45;&gt;Node13</title>
<g id="a_edge25_Node000001_Node000013"><a xlink:title=" ">
<path fill="none" stroke="#63b8ff" d="M422.42,-283.62C445.05,-264.79 495.86,-222.51 524.45,-198.72"/>
<polygon fill="#63b8ff" stroke="#63b8ff" points="526.61,-201.48 532.06,-192.39 522.13,-196.1 526.61,-201.48"/>
</a>
</g>
</g>
<!-- Node14 -->
<g id="Node000014" class="node">
<title>Node14</title>
<g id="a_Node000014"><a xlink:href="packet__buf_8h.html" target="_top" xlink:title=" ">
<polygon fill="white" stroke="#666666" points="758.12,-191 631.87,-191 631.87,-170.25 758.12,-170.25 758.12,-191"/>
<text text-anchor="middle" x="695" y="-177.5" font-family="Helvetica,sans-Serif" font-size="10.00">../storage/packet_buf.h</text>
</a>
</g>
</g>
<!-- Node1&#45;&gt;Node14 -->
<g id="edge21_Node000001_Node000014" class="edge">
<title>Node1&#45;&gt;Node14</title>
<g id="a_edge21_Node000001_Node000014"><a xlink:title=" ">
<path fill="none" stroke="#63b8ff" d="M435.7,-283.43C486.16,-263.61 601.21,-218.45 659.6,-195.52"/>
<polygon fill="#63b8ff" stroke="#63b8ff" points="660.71,-198.85 668.74,-191.93 658.15,-192.33 660.71,-198.85"/>
</a>
</g>
</g>
<!-- Node3 -->
<g id="Node000003" class="node">
<title>Node3</title>
<g id="a_Node000003"><a xlink:title=" ">
<polygon fill="#e0e0e0" stroke="#999999" points="386.37,-77.5 321.62,-77.5 321.62,-56.75 386.37,-56.75 386.37,-77.5"/>
<text text-anchor="middle" x="354" y="-64" font-family="Helvetica,sans-Serif" font-size="10.00">inttypes.h</text>
</a>
</g>
</g>
<!-- Node2&#45;&gt;Node3 -->
<g id="edge2_Node000002_Node000003" class="edge">
<title>Node2&#45;&gt;Node3</title>
<g id="a_edge2_Node000002_Node000003"><a xlink:title=" ">
<path fill="none" stroke="#63b8ff" d="M161.28,-113.02C203.29,-103.24 267.41,-88.3 310,-78.37"/>
<polygon fill="#63b8ff" stroke="#63b8ff" points="310.72,-81.8 319.67,-76.12 309.13,-74.98 310.72,-81.8"/>
</a>
</g>
</g>
<!-- Node4 -->
<g id="Node000004" class="node">
<title>Node4</title>
<g id="a_Node000004"><a xlink:href="vlcb__defs_8h.html" target="_top" xlink:title=" ">
<polygon fill="white" stroke="#666666" points="303.25,-77.5 162.75,-77.5 162.75,-56.75 303.25,-56.75 303.25,-77.5"/>
<text text-anchor="middle" x="233" y="-64" font-family="Helvetica,sans-Serif" font-size="10.00">vlcb/common/vlcb_defs.h</text>
</a>
</g>
</g>
<!-- Node2&#45;&gt;Node4 -->
<g id="edge3_Node000002_Node000004" class="edge">
<title>Node2&#45;&gt;Node4</title>
<g id="a_edge3_Node000002_Node000004"><a xlink:title=" ">
<path fill="none" stroke="#63b8ff" d="M139.38,-113.09C156.97,-104.64 182.62,-92.32 202.63,-82.71"/>
<polygon fill="#63b8ff" stroke="#63b8ff" points="203.93,-85.97 211.43,-78.48 200.9,-79.66 203.93,-85.97"/>
</a>
</g>
</g>
<!-- Node6 -->
<g id="Node000006" class="node">
<title>Node6</title>
<g id="a_Node000006"><a xlink:href="error_8h.html" target="_top" xlink:title=" ">
<polygon fill="white" stroke="#666666" points="144.87,-77.5 29.12,-77.5 29.12,-56.75 144.87,-56.75 144.87,-77.5"/>
<text text-anchor="middle" x="87" y="-64" font-family="Helvetica,sans-Serif" font-size="10.00">vlcb/platform/error.h</text>
</a>
</g>
</g>
<!-- Node2&#45;&gt;Node6 -->
<g id="edge5_Node000002_Node000006" class="edge">
<title>Node2&#45;&gt;Node6</title>
<g id="a_edge5_Node000002_Node000006"><a xlink:title=" ">
<path fill="none" stroke="#63b8ff" d="M113.28,-113.09C109.14,-106 103.4,-96.19 98.35,-87.54"/>
<polygon fill="#63b8ff" stroke="#63b8ff" points="101.5,-86 93.43,-79.14 95.46,-89.53 101.5,-86"/>
</a>
</g>
</g>
<!-- Node4&#45;&gt;Node5 -->
<g id="edge4_Node000004_Node000005" class="edge">
<title>Node4&#45;&gt;Node5</title>
<g id="a_edge4_Node000004_Node000005"><a xlink:title=" ">
<path fill="none" stroke="#63b8ff" d="M249.09,-56.34C262.53,-48.16 281.93,-36.36 297.48,-26.9"/>
<polygon fill="#63b8ff" stroke="#63b8ff" points="299.03,-30.05 305.75,-21.87 295.39,-24.07 299.03,-30.05"/>
</a>
</g>
</g>
<!-- Node8 -->
<g id="Node000008" class="node">
<title>Node8</title>
<g id="a_Node000008"><a xlink:title=" ">
<polygon fill="#e0e0e0" stroke="#999999" points="503.5,-77.5 442.5,-77.5 442.5,-56.75 503.5,-56.75 503.5,-77.5"/>
<text text-anchor="middle" x="473" y="-64" font-family="Helvetica,sans-Serif" font-size="10.00">stdbool.h</text>
</a>
</g>
</g>
<!-- Node7&#45;&gt;Node8 -->
<g id="edge7_Node000007_Node000008" class="edge">
<title>Node7&#45;&gt;Node8</title>
<g id="a_edge7_Node000007_Node000008"><a xlink:title=" ">
<path fill="none" stroke="#63b8ff" d="M414.51,-226.85C424.31,-200.25 452.12,-124.77 465.56,-88.32"/>
<polygon fill="#63b8ff" stroke="#63b8ff" points="468.67,-89.98 468.85,-79.39 462.11,-87.56 468.67,-89.98"/>
</a>
</g>
</g>
<!-- Node9 -->
<g id="Node000009" class="node">
<title>Node9</title>
<g id="a_Node000009"><a xlink:title=" ">
<polygon fill="#e0e0e0" stroke="#999999" points="572.5,-134.25 517.5,-134.25 517.5,-113.5 572.5,-113.5 572.5,-134.25"/>
<text text-anchor="middle" x="545" y="-120.75" font-family="Helvetica,sans-Serif" font-size="10.00">stddef.h</text>
</a>
</g>
</g>
<!-- Node7&#45;&gt;Node9 -->
<g id="edge8_Node000007_Node000009" class="edge">
<title>Node7&#45;&gt;Node9</title>
<g id="a_edge8_Node000007_Node000009"><a xlink:title=" ">
<path fill="none" stroke="#63b8ff" d="M417.88,-226.52C427.82,-212.76 447.29,-187.55 468,-170.25 482.08,-158.48 499.59,-147.9 514.35,-139.92"/>
<polygon fill="#63b8ff" stroke="#63b8ff" points="515.95,-143.04 523.19,-135.3 512.7,-136.84 515.95,-143.04"/>
</a>
</g>
</g>
<!-- Node10 -->
<g id="Node000010" class="node">
<title>Node10</title>
<g id="a_Node000010"><a xlink:href="vlcb_8h.html" target="_top" xlink:title=" ">
<polygon fill="white" stroke="#666666" points="276.25,-134.25 195.75,-134.25 195.75,-113.5 276.25,-113.5 276.25,-134.25"/>
<text text-anchor="middle" x="236" y="-120.75" font-family="Helvetica,sans-Serif" font-size="10.00">packet/vlcb.h</text>
</a>
</g>
</g>
<!-- Node7&#45;&gt;Node10 -->
<g id="edge9_Node000007_Node000010" class="edge">
<title>Node7&#45;&gt;Node10</title>
<g id="a_edge9_Node000007_Node000010"><a xlink:title=" ">
<path fill="none" stroke="#63b8ff" d="M377.98,-229.86C351.23,-223.37 313.58,-211.36 286,-191 269.04,-178.48 255.12,-158.65 246.31,-143.96"/>
<polygon fill="#63b8ff" stroke="#63b8ff" points="249.58,-142.62 241.58,-135.67 243.5,-146.09 249.58,-142.62"/>
</a>
</g>
</g>
<!-- Node11 -->
<g id="Node000011" class="node">
<title>Node11</title>
<g id="a_Node000011"><a xlink:href="addr_8h.html" target="_top" xlink:title=" ">
<polygon fill="white" stroke="#666666" points="383,-191 295,-191 295,-170.25 383,-170.25 383,-191"/>
<text text-anchor="middle" x="339" y="-177.5" font-family="Helvetica,sans-Serif" font-size="10.00">vlcb/net/addr.h</text>
</a>
</g>
</g>
<!-- Node7&#45;&gt;Node11 -->
<g id="edge13_Node000007_Node000011" class="edge">
<title>Node7&#45;&gt;Node11</title>
<g id="a_edge13_Node000007_Node000011"><a xlink:title=" ">
<path fill="none" stroke="#63b8ff" d="M398.13,-226.59C387.78,-218.72 373.03,-207.5 360.84,-198.24"/>
<polygon fill="#63b8ff" stroke="#63b8ff" points="363.04,-195.51 352.96,-192.24 358.81,-201.08 363.04,-195.51"/>
</a>
</g>
</g>
<!-- Node7&#45;&gt;Node13 -->
<g id="edge19_Node000007_Node000013" class="edge">
<title>Node7&#45;&gt;Node13</title>
<g id="a_edge19_Node000007_Node000013"><a xlink:title=" ">
<path fill="none" stroke="#63b8ff" d="M434.95,-226.59C456.01,-217.98 486.9,-205.36 510.6,-195.68"/>
<polygon fill="#63b8ff" stroke="#63b8ff" points="511.91,-198.92 519.85,-191.9 509.27,-192.44 511.91,-198.92"/>
</a>
</g>
</g>
<!-- Node10&#45;&gt;Node3 -->
<g id="edge10_Node000010_Node000003" class="edge">
<title>Node10&#45;&gt;Node3</title>
<g id="a_edge10_Node000010_Node000003"><a xlink:title=" ">
<path fill="none" stroke="#63b8ff" d="M257.09,-113.09C275.38,-104.6 302.1,-92.2 322.85,-82.58"/>
<polygon fill="#63b8ff" stroke="#63b8ff" points="324.11,-85.85 331.71,-78.47 321.17,-79.5 324.11,-85.85"/>
</a>
</g>
</g>
<!-- Node10&#45;&gt;Node4 -->
<g id="edge11_Node000010_Node000004" class="edge">
<title>Node10&#45;&gt;Node4</title>
<g id="a_edge11_Node000010_Node000004"><a xlink:title=" ">
<path fill="none" stroke="#63b8ff" d="M235.46,-113.09C235.1,-106.47 234.61,-97.47 234.16,-89.27"/>
<polygon fill="#63b8ff" stroke="#63b8ff" points="237.65,-89.13 233.61,-79.34 230.67,-89.52 237.65,-89.13"/>
</a>
</g>
</g>
<!-- Node10&#45;&gt;Node6 -->
<g id="edge12_Node000010_Node000006" class="edge">
<title>Node10&#45;&gt;Node6</title>
<g id="a_edge12_Node000010_Node000006"><a xlink:title=" ">
<path fill="none" stroke="#63b8ff" d="M209.36,-113.09C185.7,-104.39 150.88,-91.6 124.42,-81.88"/>
<polygon fill="#63b8ff" stroke="#63b8ff" points="125.67,-78.61 115.08,-78.44 123.26,-85.18 125.67,-78.61"/>
</a>
</g>
</g>
<!-- Node12 -->
<g id="Node000012" class="node">
<title>Node12</title>
<g id="a_Node000012"><a xlink:href="common_2inc_2vlcb_2common_2can_8h.html" target="_top" xlink:title=" ">
<polygon fill="white" stroke="#666666" points="405.62,-134.25 294.37,-134.25 294.37,-113.5 405.62,-113.5 405.62,-134.25"/>
<text text-anchor="middle" x="350" y="-120.75" font-family="Helvetica,sans-Serif" font-size="10.00">vlcb/common/can.h</text>
</a>
</g>
</g>
<!-- Node11&#45;&gt;Node12 -->
<g id="edge14_Node000011_Node000012" class="edge">
<title>Node11&#45;&gt;Node12</title>
<g id="a_edge14_Node000011_Node000012"><a xlink:title=" ">
<path fill="none" stroke="#63b8ff" d="M340.96,-169.84C342.31,-163.14 344.14,-154.01 345.81,-145.73"/>
<polygon fill="#63b8ff" stroke="#63b8ff" points="349.21,-146.56 347.75,-136.06 342.35,-145.18 349.21,-146.56"/>
</a>
</g>
</g>
<!-- Node12&#45;&gt;Node3 -->
<g id="edge15_Node000012_Node000003" class="edge">
<title>Node12&#45;&gt;Node3</title>
<g id="a_edge15_Node000012_Node000003"><a xlink:title=" ">
<path fill="none" stroke="#63b8ff" d="M350.71,-113.09C351.2,-106.47 351.85,-97.47 352.45,-89.27"/>
<polygon fill="#63b8ff" stroke="#63b8ff" points="355.94,-89.57 353.18,-79.34 348.96,-89.06 355.94,-89.57"/>
</a>
</g>
</g>
<!-- Node12&#45;&gt;Node4 -->
<g id="edge18_Node000012_Node000004" class="edge">
<title>Node12&#45;&gt;Node4</title>
<g id="a_edge18_Node000012_Node000004"><a xlink:title=" ">
<path fill="none" stroke="#63b8ff" d="M329.08,-113.09C311.03,-104.64 284.7,-92.32 264.16,-82.71"/>
<polygon fill="#63b8ff" stroke="#63b8ff" points="265.65,-79.54 255.11,-78.47 262.68,-85.88 265.65,-79.54"/>
</a>
</g>
</g>
<!-- Node12&#45;&gt;Node5 -->
<g id="edge17_Node000012_Node000005" class="edge">
<title>Node12&#45;&gt;Node5</title>
<g id="a_edge17_Node000012_Node000005"><a xlink:title=" ">
<path fill="none" stroke="#63b8ff" d="M364.78,-113.16C381.97,-100.59 406.6,-77.78 395,-56.75 387.32,-42.83 373.38,-32.6 359.8,-25.41"/>
<polygon fill="#63b8ff" stroke="#63b8ff" points="361.48,-22.34 350.95,-21.16 358.45,-28.65 361.48,-22.34"/>
</a>
</g>
</g>
<!-- Node12&#45;&gt;Node8 -->
<g id="edge16_Node000012_Node000008" class="edge">
<title>Node12&#45;&gt;Node8</title>
<g id="a_edge16_Node000012_Node000008"><a xlink:title=" ">
<path fill="none" stroke="#63b8ff" d="M371.99,-113.09C391.14,-104.56 419.16,-92.09 440.83,-82.44"/>
<polygon fill="#63b8ff" stroke="#63b8ff" points="442.1,-85.71 449.82,-78.44 439.26,-79.31 442.1,-85.71"/>
</a>
</g>
</g>
<!-- Node13&#45;&gt;Node9 -->
<g id="edge20_Node000013_Node000009" class="edge">
<title>Node13&#45;&gt;Node9</title>
<g id="a_edge20_Node000013_Node000009"><a xlink:title=" ">
<path fill="none" stroke="#63b8ff" d="M545,-169.84C545,-163.22 545,-154.22 545,-146.02"/>
<polygon fill="#63b8ff" stroke="#63b8ff" points="548.5,-146.09 545,-136.09 541.5,-146.09 548.5,-146.09"/>
</a>
</g>
</g>
<!-- Node14&#45;&gt;Node5 -->
<g id="edge24_Node000014_Node000005" class="edge">
<title>Node14&#45;&gt;Node5</title>
<g id="a_edge24_Node000014_Node000005"><a xlink:title=" ">
<path fill="none" stroke="#63b8ff" d="M684.62,-169.99C669.81,-156.49 641.48,-131.59 615,-113.5 572.16,-84.24 561.34,-75.56 513,-56.75 462.16,-36.97 400.19,-24.13 361.15,-17.32"/>
<polygon fill="#63b8ff" stroke="#63b8ff" points="361.75,-13.87 351.31,-15.65 360.58,-20.77 361.75,-13.87"/>
</a>
</g>
</g>
<!-- Node14&#45;&gt;Node8 -->
<g id="edge22_Node000014_Node000008" class="edge">
<title>Node14&#45;&gt;Node8</title>
<g id="a_edge22_Node000014_Node000008"><a xlink:title=" ">
<path fill="none" stroke="#63b8ff" d="M680.01,-169.97C658.7,-156.46 618.22,-131.53 582,-113.5 558.56,-101.83 531.37,-90.51 510.02,-82.09"/>
<polygon fill="#63b8ff" stroke="#63b8ff" points="511.43,-78.89 500.84,-78.52 508.89,-85.41 511.43,-78.89"/>
</a>
</g>
</g>
<!-- Node14&#45;&gt;Node9 -->
<g id="edge23_Node000014_Node000009" class="edge">
<title>Node14&#45;&gt;Node9</title>
<g id="a_edge23_Node000014_Node000009"><a xlink:title=" ">
<path fill="none" stroke="#63b8ff" d="M668.18,-169.84C644.26,-161.11 608.99,-148.23 582.32,-138.5"/>
<polygon fill="#63b8ff" stroke="#63b8ff" points="583.85,-135.33 573.26,-135.19 581.45,-141.91 583.85,-135.33"/>
</a>
</g>
</g>
</g>
</svg>
