<?xml version="1.0" encoding="UTF-8" standalone="no"?>
<!DOCTYPE svg PUBLIC "-//W3C//DTD SVG 1.1//EN"
 "http://www.w3.org/Graphics/SVG/1.1/DTD/svg11.dtd">
<!-- Generated by graphviz version 12.1.2 (20240928.0832)
 -->
<!-- Title: socket.h Pages: 1 -->
<svg width="519pt" height="199pt"
 viewBox="0.00 0.00 519.38 199.00" xmlns="http://www.w3.org/2000/svg" xmlns:xlink="http://www.w3.org/1999/xlink">
<g id="graph0" class="graph" transform="scale(1 1) rotate(0) translate(4 195)">
<title>socket.h</title>
<!-- Node1 -->
<g id="Node000001" class="node">
<title>Node1</title>
<g id="a_Node000001"><a xlink:title=" ">
<polygon fill="#999999" stroke="#666666" points="165.75,-191 109.25,-191 109.25,-170.25 165.75,-170.25 165.75,-191"/>
<text text-anchor="middle" x="137.5" y="-177.5" font-family="Helvetica,sans-Serif" font-size="10.00">socket.h</text>
</a>
</g>
</g>
<!-- Node2 -->
<g id="Node000002" class="node">
<title>Node2</title>
<g id="a_Node000002"><a xlink:title=" ">
<polygon fill="#e0e0e0" stroke="#999999" points="61,-134.25 0,-134.25 0,-113.5 61,-113.5 61,-134.25"/>
<text text-anchor="middle" x="30.5" y="-120.75" font-family="Helvetica,sans-Serif" font-size="10.00">stdbool.h</text>
</a>
</g>
</g>
<!-- Node1&#45;&gt;Node2 -->
<g id="edge1_Node000001_Node000002" class="edge">
<title>Node1&#45;&gt;Node2</title>
<g id="a_edge1_Node000001_Node000002"><a xlink:title=" ">
<path fill="none" stroke="#63b8ff" d="M118.37,-169.84C102.01,-161.47 78.22,-149.29 59.52,-139.72"/>
<polygon fill="#63b8ff" stroke="#63b8ff" points="61.31,-136.71 50.81,-135.27 58.12,-142.94 61.31,-136.71"/>
</a>
</g>
</g>
<!-- Node3 -->
<g id="Node000003" class="node">
<title>Node3</title>
<g id="a_Node000003"><a xlink:title=" ">
<polygon fill="#e0e0e0" stroke="#999999" points="132,-77.5 77,-77.5 77,-56.75 132,-56.75 132,-77.5"/>
<text text-anchor="middle" x="104.5" y="-64" font-family="Helvetica,sans-Serif" font-size="10.00">stddef.h</text>
</a>
</g>
</g>
<!-- Node1&#45;&gt;Node3 -->
<g id="edge2_Node000001_Node000003" class="edge">
<title>Node1&#45;&gt;Node3</title>
<g id="a_edge2_Node000001_Node000003"><a xlink:title=" ">
<path fill="none" stroke="#63b8ff" d="M129.21,-169.93C122.3,-161.23 112.9,-147.76 108.5,-134.25 103.75,-119.66 102.87,-102.33 103.11,-89.07"/>
<polygon fill="#63b8ff" stroke="#63b8ff" points="106.59,-89.48 103.53,-79.33 99.6,-89.17 106.59,-89.48"/>
</a>
</g>
</g>
<!-- Node4 -->
<g id="Node000004" class="node">
<title>Node4</title>
<g id="a_Node000004"><a xlink:href="vlcb_8h.html" target="_top" xlink:title=" ">
<polygon fill="white" stroke="#666666" points="352.75,-134.25 272.25,-134.25 272.25,-113.5 352.75,-113.5 352.75,-134.25"/>
<text text-anchor="middle" x="312.5" y="-120.75" font-family="Helvetica,sans-Serif" font-size="10.00">packet/vlcb.h</text>
</a>
</g>
</g>
<!-- Node1&#45;&gt;Node4 -->
<g id="edge3_Node000001_Node000004" class="edge">
<title>Node1&#45;&gt;Node4</title>
<g id="a_edge3_Node000001_Node000004"><a xlink:title=" ">
<path fill="none" stroke="#63b8ff" d="M166.01,-170.71C194.25,-161.87 237.84,-148.23 270.14,-138.13"/>
<polygon fill="#63b8ff" stroke="#63b8ff" points="271.1,-141.49 279.6,-135.17 269.01,-134.81 271.1,-141.49"/>
</a>
</g>
</g>
<!-- Node9 -->
<g id="Node000009" class="node">
<title>Node9</title>
<g id="a_Node000009"><a xlink:href="interface_8h.html" target="_top" xlink:title=" ">
<polygon fill="white" stroke="#666666" points="253.88,-134.25 117.12,-134.25 117.12,-113.5 253.88,-113.5 253.88,-134.25"/>
<text text-anchor="middle" x="185.5" y="-120.75" font-family="Helvetica,sans-Serif" font-size="10.00">vlcb/platform/interface.h</text>
</a>
</g>
</g>
<!-- Node1&#45;&gt;Node9 -->
<g id="edge8_Node000001_Node000009" class="edge">
<title>Node1&#45;&gt;Node9</title>
<g id="a_edge8_Node000001_Node000009"><a xlink:title=" ">
<path fill="none" stroke="#63b8ff" d="M146.08,-169.84C152.57,-162.44 161.65,-152.07 169.47,-143.16"/>
<polygon fill="#63b8ff" stroke="#63b8ff" points="172.03,-145.54 176,-135.72 166.77,-140.93 172.03,-145.54"/>
</a>
</g>
</g>
<!-- Node5 -->
<g id="Node000005" class="node">
<title>Node5</title>
<g id="a_Node000005"><a xlink:title=" ">
<polygon fill="#e0e0e0" stroke="#999999" points="229.88,-77.5 165.12,-77.5 165.12,-56.75 229.88,-56.75 229.88,-77.5"/>
<text text-anchor="middle" x="197.5" y="-64" font-family="Helvetica,sans-Serif" font-size="10.00">inttypes.h</text>
</a>
</g>
</g>
<!-- Node4&#45;&gt;Node5 -->
<g id="edge4_Node000004_Node000005" class="edge">
<title>Node4&#45;&gt;Node5</title>
<g id="a_edge4_Node000004_Node000005"><a xlink:title=" ">
<path fill="none" stroke="#63b8ff" d="M291.94,-113.09C274.2,-104.64 248.32,-92.32 228.13,-82.71"/>
<polygon fill="#63b8ff" stroke="#63b8ff" points="229.78,-79.62 219.25,-78.48 226.77,-85.94 229.78,-79.62"/>
</a>
</g>
</g>
<!-- Node6 -->
<g id="Node000006" class="node">
<title>Node6</title>
<g id="a_Node000006"><a xlink:href="opcode_8h.html" target="_top" xlink:title=" ">
<polygon fill="white" stroke="#666666" points="377.12,-77.5 247.88,-77.5 247.88,-56.75 377.12,-56.75 377.12,-77.5"/>
<text text-anchor="middle" x="312.5" y="-64" font-family="Helvetica,sans-Serif" font-size="10.00">vlcb/common/opcode.h</text>
</a>
</g>
</g>
<!-- Node4&#45;&gt;Node6 -->
<g id="edge5_Node000004_Node000006" class="edge">
<title>Node4&#45;&gt;Node6</title>
<g id="a_edge5_Node000004_Node000006"><a xlink:title=" ">
<path fill="none" stroke="#63b8ff" d="M312.5,-113.09C312.5,-106.47 312.5,-97.47 312.5,-89.27"/>
<polygon fill="#63b8ff" stroke="#63b8ff" points="316,-89.34 312.5,-79.34 309,-89.34 316,-89.34"/>
</a>
</g>
</g>
<!-- Node8 -->
<g id="Node000008" class="node">
<title>Node8</title>
<g id="a_Node000008"><a xlink:href="error_8h.html" target="_top" xlink:title=" ">
<polygon fill="white" stroke="#666666" points="511.38,-77.5 395.62,-77.5 395.62,-56.75 511.38,-56.75 511.38,-77.5"/>
<text text-anchor="middle" x="453.5" y="-64" font-family="Helvetica,sans-Serif" font-size="10.00">vlcb/platform/error.h</text>
</a>
</g>
</g>
<!-- Node4&#45;&gt;Node8 -->
<g id="edge7_Node000004_Node000008" class="edge">
<title>Node4&#45;&gt;Node8</title>
<g id="a_edge7_Node000004_Node000008"><a xlink:title=" ">
<path fill="none" stroke="#63b8ff" d="M337.71,-113.09C360.06,-104.41 392.96,-91.63 417.98,-81.92"/>
<polygon fill="#63b8ff" stroke="#63b8ff" points="419.04,-85.26 427.1,-78.38 416.51,-78.73 419.04,-85.26"/>
</a>
</g>
</g>
<!-- Node7 -->
<g id="Node000007" class="node">
<title>Node7</title>
<g id="a_Node000007"><a xlink:title=" ">
<polygon fill="#e0e0e0" stroke="#999999" points="338.88,-20.75 286.12,-20.75 286.12,0 338.88,0 338.88,-20.75"/>
<text text-anchor="middle" x="312.5" y="-7.25" font-family="Helvetica,sans-Serif" font-size="10.00">stdint.h</text>
</a>
</g>
</g>
<!-- Node6&#45;&gt;Node7 -->
<g id="edge6_Node000006_Node000007" class="edge">
<title>Node6&#45;&gt;Node7</title>
<g id="a_edge6_Node000006_Node000007"><a xlink:title=" ">
<path fill="none" stroke="#63b8ff" d="M312.5,-56.34C312.5,-49.72 312.5,-40.72 312.5,-32.52"/>
<polygon fill="#63b8ff" stroke="#63b8ff" points="316,-32.59 312.5,-22.59 309,-32.59 316,-32.59"/>
</a>
</g>
</g>
<!-- Node9&#45;&gt;Node3 -->
<g id="edge9_Node000009_Node000003" class="edge">
<title>Node9&#45;&gt;Node3</title>
<g id="a_edge9_Node000009_Node000003"><a xlink:title=" ">
<path fill="none" stroke="#63b8ff" d="M171.02,-113.09C159.15,-105.07 142.13,-93.56 128.27,-84.19"/>
<polygon fill="#63b8ff" stroke="#63b8ff" points="130.35,-81.38 120.11,-78.68 126.43,-87.18 130.35,-81.38"/>
</a>
</g>
</g>
</g>
</svg>
