<?xml version="1.0" encoding="UTF-8" standalone="no"?>
<!DOCTYPE svg PUBLIC "-//W3C//DTD SVG 1.1//EN"
 "http://www.w3.org/Graphics/SVG/1.1/DTD/svg11.dtd">
<!-- Generated by graphviz version 12.1.2 (20240928.0832)
 -->
<!-- Title: datagram.h Pages: 1 -->
<svg width="931pt" height="325pt"
 viewBox="0.00 0.00 931.48 325.25" xmlns="http://www.w3.org/2000/svg" xmlns:xlink="http://www.w3.org/1999/xlink">
<g id="graph0" class="graph" transform="scale(1 1) rotate(0) translate(4 321.25)">
<title>datagram.h</title>
<!-- Node1 -->
<g id="Node000001" class="node">
<title>Node1</title>
<g id="a_Node000001"><a xlink:title=" ">
<polygon fill="#999999" stroke="#666666" points="569.23,-317.25 496.98,-317.25 496.98,-296.5 569.23,-296.5 569.23,-317.25"/>
<text text-anchor="middle" x="533.1" y="-303.75" font-family="Helvetica,sans-Serif" font-size="10.00">datagram.h</text>
</a>
</g>
</g>
<!-- Node2 -->
<g id="Node000002" class="node">
<title>Node2</title>
<g id="a_Node000002"><a xlink:href="packet_2datagram_8h.html" target="_top" xlink:title=" ">
<polygon fill="white" stroke="#666666" points="236.35,-134.25 119.85,-134.25 119.85,-113.5 236.35,-113.5 236.35,-134.25"/>
<text text-anchor="middle" x="178.1" y="-120.75" font-family="Helvetica,sans-Serif" font-size="10.00">../packet/datagram.h</text>
</a>
</g>
</g>
<!-- Node1&#45;&gt;Node2 -->
<g id="edge1_Node000001_Node000002" class="edge">
<title>Node1&#45;&gt;Node2</title>
<g id="a_edge1_Node000001_Node000002"><a xlink:title=" ">
<path fill="none" stroke="#63b8ff" d="M513.77,-296.02C454.86,-265.98 277.42,-175.51 207.18,-139.7"/>
<polygon fill="#63b8ff" stroke="#63b8ff" points="209.09,-136.75 198.59,-135.32 205.91,-142.98 209.09,-136.75"/>
</a>
</g>
</g>
<!-- Node5 -->
<g id="Node000005" class="node">
<title>Node5</title>
<g id="a_Node000005"><a xlink:title=" ">
<polygon fill="#e0e0e0" stroke="#999999" points="472.48,-20.75 419.73,-20.75 419.73,0 472.48,0 472.48,-20.75"/>
<text text-anchor="middle" x="446.1" y="-7.25" font-family="Helvetica,sans-Serif" font-size="10.00">stdint.h</text>
</a>
</g>
</g>
<!-- Node1&#45;&gt;Node5 -->
<g id="edge31_Node000001_Node000005" class="edge">
<title>Node1&#45;&gt;Node5</title>
<g id="a_edge31_Node000001_Node000005"><a xlink:title=" ">
<path fill="none" stroke="#63b8ff" d="M496.54,-305.6C376.34,-303.72 1.1,-289.7 1.1,-188 1.1,-188 1.1,-188 1.1,-122.88 1.1,-92.3 -3.31,-76.42 20.1,-56.75 49.56,-32.02 309.52,-17.63 408.27,-13.02"/>
<polygon fill="#63b8ff" stroke="#63b8ff" points="408.15,-16.53 417.98,-12.57 407.83,-9.53 408.15,-16.53"/>
</a>
</g>
</g>
<!-- Node7 -->
<g id="Node000007" class="node">
<title>Node7</title>
<g id="a_Node000007"><a xlink:href="socket_8h.html" target="_top" xlink:title=" ">
<polygon fill="white" stroke="#666666" points="652.85,-260.5 587.35,-260.5 587.35,-239.75 652.85,-239.75 652.85,-260.5"/>
<text text-anchor="middle" x="620.1" y="-247" font-family="Helvetica,sans-Serif" font-size="10.00">../socket.h</text>
</a>
</g>
</g>
<!-- Node1&#45;&gt;Node7 -->
<g id="edge6_Node000001_Node000007" class="edge">
<title>Node1&#45;&gt;Node7</title>
<g id="a_edge6_Node000001_Node000007"><a xlink:title=" ">
<path fill="none" stroke="#63b8ff" d="M548.66,-296.09C561.52,-287.99 580.05,-276.33 595.01,-266.92"/>
<polygon fill="#63b8ff" stroke="#63b8ff" points="596.8,-269.92 603.4,-261.63 593.08,-264 596.8,-269.92"/>
</a>
</g>
</g>
<!-- Node11 -->
<g id="Node000011" class="node">
<title>Node11</title>
<g id="a_Node000011"><a xlink:href="addr_8h.html" target="_top" xlink:title=" ">
<polygon fill="white" stroke="#666666" points="537.1,-197.38 449.1,-197.38 449.1,-176.62 537.1,-176.62 537.1,-197.38"/>
<text text-anchor="middle" x="493.1" y="-183.88" font-family="Helvetica,sans-Serif" font-size="10.00">vlcb/net/addr.h</text>
</a>
</g>
</g>
<!-- Node1&#45;&gt;Node11 -->
<g id="edge29_Node000001_Node000011" class="edge">
<title>Node1&#45;&gt;Node11</title>
<g id="a_edge29_Node000001_Node000011"><a xlink:title=" ">
<path fill="none" stroke="#63b8ff" d="M529.83,-296.23C523.36,-277.15 508.78,-234.21 500.07,-208.52"/>
<polygon fill="#63b8ff" stroke="#63b8ff" points="503.44,-207.56 496.91,-199.21 496.81,-209.81 503.44,-207.56"/>
</a>
</g>
</g>
<!-- Node14 -->
<g id="Node000014" class="node">
<title>Node14</title>
<g id="a_Node000014"><a xlink:href="packet__buf_8h.html" target="_top" xlink:title=" ">
<polygon fill="white" stroke="#666666" points="685.1,-203.75 555.1,-203.75 555.1,-170.25 685.1,-170.25 685.1,-203.75"/>
<text text-anchor="start" x="563.1" y="-190.25" font-family="Helvetica,sans-Serif" font-size="10.00">vlcb/net/storage/packet</text>
<text text-anchor="middle" x="620.1" y="-177.5" font-family="Helvetica,sans-Serif" font-size="10.00">_buf.h</text>
</a>
</g>
</g>
<!-- Node1&#45;&gt;Node14 -->
<g id="edge28_Node000001_Node000014" class="edge">
<title>Node1&#45;&gt;Node14</title>
<g id="a_edge28_Node000001_Node000014"><a xlink:title=" ">
<path fill="none" stroke="#63b8ff" d="M539.27,-296.28C547.72,-283.26 563.52,-259.36 578.1,-239.75 584.8,-230.75 592.45,-221.15 599.36,-212.69"/>
<polygon fill="#63b8ff" stroke="#63b8ff" points="601.87,-215.14 605.54,-205.2 596.48,-210.69 601.87,-215.14"/>
</a>
</g>
</g>
<!-- Node15 -->
<g id="Node000015" class="node">
<title>Node15</title>
<g id="a_Node000015"><a xlink:href="interface_8h.html" target="_top" xlink:title=" ">
<polygon fill="white" stroke="#666666" points="923.48,-197.38 786.73,-197.38 786.73,-176.62 923.48,-176.62 923.48,-197.38"/>
<text text-anchor="middle" x="855.1" y="-183.88" font-family="Helvetica,sans-Serif" font-size="10.00">vlcb/platform/interface.h</text>
</a>
</g>
</g>
<!-- Node1&#45;&gt;Node15 -->
<g id="edge30_Node000001_Node000015" class="edge">
<title>Node1&#45;&gt;Node15</title>
<g id="a_edge30_Node000001_Node000015"><a xlink:title=" ">
<path fill="none" stroke="#63b8ff" d="M561.6,-296.04C587.78,-286.97 627.63,-273.04 662.1,-260.5 716.91,-240.57 780.12,-216.64 818.85,-201.88"/>
<polygon fill="#63b8ff" stroke="#63b8ff" points="820.06,-205.16 828.15,-198.33 817.56,-198.62 820.06,-205.16"/>
</a>
</g>
</g>
<!-- Node3 -->
<g id="Node000003" class="node">
<title>Node3</title>
<g id="a_Node000003"><a xlink:title=" ">
<polygon fill="#e0e0e0" stroke="#999999" points="227.48,-77.5 162.73,-77.5 162.73,-56.75 227.48,-56.75 227.48,-77.5"/>
<text text-anchor="middle" x="195.1" y="-64" font-family="Helvetica,sans-Serif" font-size="10.00">inttypes.h</text>
</a>
</g>
</g>
<!-- Node2&#45;&gt;Node3 -->
<g id="edge2_Node000002_Node000003" class="edge">
<title>Node2&#45;&gt;Node3</title>
<g id="a_edge2_Node000002_Node000003"><a xlink:title=" ">
<path fill="none" stroke="#63b8ff" d="M181.14,-113.09C183.25,-106.31 186.12,-97.05 188.72,-88.69"/>
<polygon fill="#63b8ff" stroke="#63b8ff" points="192.02,-89.86 191.64,-79.27 185.33,-87.79 192.02,-89.86"/>
</a>
</g>
</g>
<!-- Node4 -->
<g id="Node000004" class="node">
<title>Node4</title>
<g id="a_Node000004"><a xlink:href="opcode_8h.html" target="_top" xlink:title=" ">
<polygon fill="white" stroke="#666666" points="374.73,-77.5 245.48,-77.5 245.48,-56.75 374.73,-56.75 374.73,-77.5"/>
<text text-anchor="middle" x="310.1" y="-64" font-family="Helvetica,sans-Serif" font-size="10.00">vlcb/common/opcode.h</text>
</a>
</g>
</g>
<!-- Node2&#45;&gt;Node4 -->
<g id="edge3_Node000002_Node000004" class="edge">
<title>Node2&#45;&gt;Node4</title>
<g id="a_edge3_Node000002_Node000004"><a xlink:title=" ">
<path fill="none" stroke="#63b8ff" d="M201.7,-113.09C222.44,-104.48 252.88,-91.86 276.22,-82.18"/>
<polygon fill="#63b8ff" stroke="#63b8ff" points="277.42,-85.47 285.31,-78.41 274.73,-79.01 277.42,-85.47"/>
</a>
</g>
</g>
<!-- Node6 -->
<g id="Node000006" class="node">
<title>Node6</title>
<g id="a_Node000006"><a xlink:href="error_8h.html" target="_top" xlink:title=" ">
<polygon fill="white" stroke="#666666" points="144.98,-77.5 29.23,-77.5 29.23,-56.75 144.98,-56.75 144.98,-77.5"/>
<text text-anchor="middle" x="87.1" y="-64" font-family="Helvetica,sans-Serif" font-size="10.00">vlcb/platform/error.h</text>
</a>
</g>
</g>
<!-- Node2&#45;&gt;Node6 -->
<g id="edge5_Node000002_Node000006" class="edge">
<title>Node2&#45;&gt;Node6</title>
<g id="a_edge5_Node000002_Node000006"><a xlink:title=" ">
<path fill="none" stroke="#63b8ff" d="M161.83,-113.09C148.25,-104.91 128.63,-93.11 112.9,-83.65"/>
<polygon fill="#63b8ff" stroke="#63b8ff" points="114.9,-80.77 104.53,-78.61 111.29,-86.76 114.9,-80.77"/>
</a>
</g>
</g>
<!-- Node4&#45;&gt;Node5 -->
<g id="edge4_Node000004_Node000005" class="edge">
<title>Node4&#45;&gt;Node5</title>
<g id="a_edge4_Node000004_Node000005"><a xlink:title=" ">
<path fill="none" stroke="#63b8ff" d="M334.42,-56.34C355.88,-47.69 387.42,-35 411.52,-25.3"/>
<polygon fill="#63b8ff" stroke="#63b8ff" points="412.63,-28.63 420.6,-21.64 410.01,-22.13 412.63,-28.63"/>
</a>
</g>
</g>
<!-- Node8 -->
<g id="Node000008" class="node">
<title>Node8</title>
<g id="a_Node000008"><a xlink:title=" ">
<polygon fill="#e0e0e0" stroke="#999999" points="702.6,-77.5 641.6,-77.5 641.6,-56.75 702.6,-56.75 702.6,-77.5"/>
<text text-anchor="middle" x="672.1" y="-64" font-family="Helvetica,sans-Serif" font-size="10.00">stdbool.h</text>
</a>
</g>
</g>
<!-- Node7&#45;&gt;Node8 -->
<g id="edge7_Node000007_Node000008" class="edge">
<title>Node7&#45;&gt;Node8</title>
<g id="a_edge7_Node000007_Node000008"><a xlink:title=" ">
<path fill="none" stroke="#63b8ff" d="M653.25,-239.65C673.08,-232.54 697.55,-221.02 714.1,-203.75 737.39,-179.46 737.3,-167.2 744.1,-134.25 745.97,-125.22 748.56,-121.57 744.1,-113.5 736.65,-100 723.31,-89.96 710.11,-82.81"/>
<polygon fill="#63b8ff" stroke="#63b8ff" points="712.02,-79.85 701.51,-78.56 708.93,-86.13 712.02,-79.85"/>
</a>
</g>
</g>
<!-- Node9 -->
<g id="Node000009" class="node">
<title>Node9</title>
<g id="a_Node000009"><a xlink:title=" ">
<polygon fill="#e0e0e0" stroke="#999999" points="734.6,-134.25 679.6,-134.25 679.6,-113.5 734.6,-113.5 734.6,-134.25"/>
<text text-anchor="middle" x="707.1" y="-120.75" font-family="Helvetica,sans-Serif" font-size="10.00">stddef.h</text>
</a>
</g>
</g>
<!-- Node7&#45;&gt;Node9 -->
<g id="edge8_Node000007_Node000009" class="edge">
<title>Node7&#45;&gt;Node9</title>
<g id="a_edge8_Node000007_Node000009"><a xlink:title=" ">
<path fill="none" stroke="#63b8ff" d="M647.19,-239.28C663.38,-231.98 682.92,-220.38 694.1,-203.75 705.58,-186.68 708.13,-162.94 708.24,-145.97"/>
<polygon fill="#63b8ff" stroke="#63b8ff" points="711.74,-145.96 707.99,-136.05 704.74,-146.13 711.74,-145.96"/>
</a>
</g>
</g>
<!-- Node10 -->
<g id="Node000010" class="node">
<title>Node10</title>
<g id="a_Node000010"><a xlink:href="vlcb_8h.html" target="_top" xlink:title=" ">
<polygon fill="white" stroke="#666666" points="335.35,-134.25 254.85,-134.25 254.85,-113.5 335.35,-113.5 335.35,-134.25"/>
<text text-anchor="middle" x="295.1" y="-120.75" font-family="Helvetica,sans-Serif" font-size="10.00">packet/vlcb.h</text>
</a>
</g>
</g>
<!-- Node7&#45;&gt;Node10 -->
<g id="edge9_Node000007_Node000010" class="edge">
<title>Node7&#45;&gt;Node10</title>
<g id="a_edge9_Node000007_Node000010"><a xlink:title=" ">
<path fill="none" stroke="#63b8ff" d="M587.15,-243.4C550.46,-236.44 489.78,-223.17 440.1,-203.75 395.65,-186.38 347.67,-158.23 319.56,-140.67"/>
<polygon fill="#63b8ff" stroke="#63b8ff" points="321.75,-137.92 311.43,-135.53 318.01,-143.83 321.75,-137.92"/>
</a>
</g>
</g>
<!-- Node7&#45;&gt;Node11 -->
<g id="edge13_Node000007_Node000011" class="edge">
<title>Node7&#45;&gt;Node11</title>
<g id="a_edge13_Node000007_Node000011"><a xlink:title=" ">
<path fill="none" stroke="#63b8ff" d="M599.7,-239.3C579.15,-229.41 547.19,-214.03 523.62,-202.69"/>
<polygon fill="#63b8ff" stroke="#63b8ff" points="525.35,-199.64 514.82,-198.45 522.31,-205.94 525.35,-199.64"/>
</a>
</g>
</g>
<!-- Node7&#45;&gt;Node14 -->
<g id="edge22_Node000007_Node000014" class="edge">
<title>Node7&#45;&gt;Node14</title>
<g id="a_edge22_Node000007_Node000014"><a xlink:title=" ">
<path fill="none" stroke="#63b8ff" d="M620.1,-239.3C620.1,-232.88 620.1,-224.15 620.1,-215.7"/>
<polygon fill="#63b8ff" stroke="#63b8ff" points="623.6,-215.75 620.1,-205.75 616.6,-215.75 623.6,-215.75"/>
</a>
</g>
</g>
<!-- Node7&#45;&gt;Node15 -->
<g id="edge26_Node000007_Node000015" class="edge">
<title>Node7&#45;&gt;Node15</title>
<g id="a_edge26_Node000007_Node000015"><a xlink:title=" ">
<path fill="none" stroke="#63b8ff" d="M653.28,-240.5C693.25,-230.1 760.74,-212.54 806.57,-200.62"/>
<polygon fill="#63b8ff" stroke="#63b8ff" points="807.18,-204.08 815.97,-198.18 805.41,-197.31 807.18,-204.08"/>
</a>
</g>
</g>
<!-- Node10&#45;&gt;Node3 -->
<g id="edge10_Node000010_Node000003" class="edge">
<title>Node10&#45;&gt;Node3</title>
<g id="a_edge10_Node000010_Node000003"><a xlink:title=" ">
<path fill="none" stroke="#63b8ff" d="M277.23,-113.09C262.01,-104.76 239.91,-92.66 222.47,-83.11"/>
<polygon fill="#63b8ff" stroke="#63b8ff" points="224.61,-80.29 214.15,-78.56 221.25,-86.43 224.61,-80.29"/>
</a>
</g>
</g>
<!-- Node10&#45;&gt;Node4 -->
<g id="edge11_Node000010_Node000004" class="edge">
<title>Node10&#45;&gt;Node4</title>
<g id="a_edge11_Node000010_Node000004"><a xlink:title=" ">
<path fill="none" stroke="#63b8ff" d="M297.79,-113.09C299.64,-106.31 302.18,-97.05 304.47,-88.69"/>
<polygon fill="#63b8ff" stroke="#63b8ff" points="307.78,-89.86 307.05,-79.29 301.03,-88.01 307.78,-89.86"/>
</a>
</g>
</g>
<!-- Node10&#45;&gt;Node6 -->
<g id="edge12_Node000010_Node000006" class="edge">
<title>Node10&#45;&gt;Node6</title>
<g id="a_edge12_Node000010_Node000006"><a xlink:title=" ">
<path fill="none" stroke="#63b8ff" d="M257.92,-113.09C223.71,-104.08 172.79,-90.68 135.44,-80.85"/>
<polygon fill="#63b8ff" stroke="#63b8ff" points="136.34,-77.47 125.78,-78.31 134.56,-84.24 136.34,-77.47"/>
</a>
</g>
</g>
<!-- Node11&#45;&gt;Node5 -->
<g id="edge21_Node000011_Node000005" class="edge">
<title>Node11&#45;&gt;Node5</title>
<g id="a_edge21_Node000011_Node000005"><a xlink:title=" ">
<path fill="none" stroke="#63b8ff" d="M504.44,-176.44C529.26,-154.35 584.01,-98.45 556.1,-56.75 540.06,-32.78 508.8,-21.46 483.69,-16.12"/>
<polygon fill="#63b8ff" stroke="#63b8ff" points="484.62,-12.73 474.15,-14.34 483.34,-19.62 484.62,-12.73"/>
</a>
</g>
</g>
<!-- Node12 -->
<g id="Node000012" class="node">
<title>Node12</title>
<g id="a_Node000012"><a xlink:href="common_2inc_2vlcb_2common_2can_8h.html" target="_top" xlink:title=" ">
<polygon fill="white" stroke="#666666" points="464.73,-134.25 353.48,-134.25 353.48,-113.5 464.73,-113.5 464.73,-134.25"/>
<text text-anchor="middle" x="409.1" y="-120.75" font-family="Helvetica,sans-Serif" font-size="10.00">vlcb/common/can.h</text>
</a>
</g>
</g>
<!-- Node11&#45;&gt;Node12 -->
<g id="edge14_Node000011_Node000012" class="edge">
<title>Node11&#45;&gt;Node12</title>
<g id="a_edge14_Node000011_Node000012"><a xlink:title=" ">
<path fill="none" stroke="#63b8ff" d="M479.61,-176.18C466.75,-166.82 447.14,-152.55 431.87,-141.44"/>
<polygon fill="#63b8ff" stroke="#63b8ff" points="433.94,-138.62 423.79,-135.56 429.82,-144.28 433.94,-138.62"/>
</a>
</g>
</g>
<!-- Node13 -->
<g id="Node000013" class="node">
<title>Node13</title>
<g id="a_Node000013"><a xlink:href="time_8h.html" target="_top" xlink:title=" ">
<polygon fill="white" stroke="#666666" points="546.98,-77.5 431.23,-77.5 431.23,-56.75 546.98,-56.75 546.98,-77.5"/>
<text text-anchor="middle" x="489.1" y="-64" font-family="Helvetica,sans-Serif" font-size="10.00">vlcb/platform/time.h</text>
</a>
</g>
</g>
<!-- Node11&#45;&gt;Node13 -->
<g id="edge19_Node000011_Node000013" class="edge">
<title>Node11&#45;&gt;Node13</title>
<g id="a_edge19_Node000011_Node000013"><a xlink:title=" ">
<path fill="none" stroke="#63b8ff" d="M492.78,-176.35C492.13,-157.44 490.7,-115.11 489.82,-89.35"/>
<polygon fill="#63b8ff" stroke="#63b8ff" points="493.32,-89.29 489.49,-79.42 486.33,-89.53 493.32,-89.29"/>
</a>
</g>
</g>
<!-- Node12&#45;&gt;Node3 -->
<g id="edge15_Node000012_Node000003" class="edge">
<title>Node12&#45;&gt;Node3</title>
<g id="a_edge15_Node000012_Node000003"><a xlink:title=" ">
<path fill="none" stroke="#63b8ff" d="M370.85,-113.09C333.75,-103.6 277.54,-89.22 238.73,-79.29"/>
<polygon fill="#63b8ff" stroke="#63b8ff" points="239.8,-75.95 229.25,-76.86 238.07,-82.73 239.8,-75.95"/>
</a>
</g>
</g>
<!-- Node12&#45;&gt;Node4 -->
<g id="edge18_Node000012_Node000004" class="edge">
<title>Node12&#45;&gt;Node4</title>
<g id="a_edge18_Node000012_Node000004"><a xlink:title=" ">
<path fill="none" stroke="#63b8ff" d="M391.4,-113.09C376.48,-104.83 354.87,-92.88 337.68,-83.38"/>
<polygon fill="#63b8ff" stroke="#63b8ff" points="339.42,-80.34 328.97,-78.56 336.03,-86.46 339.42,-80.34"/>
</a>
</g>
</g>
<!-- Node12&#45;&gt;Node5 -->
<g id="edge17_Node000012_Node000005" class="edge">
<title>Node12&#45;&gt;Node5</title>
<g id="a_edge17_Node000012_Node000005"><a xlink:title=" ">
<path fill="none" stroke="#63b8ff" d="M410.11,-113.23C411.66,-100.14 415.23,-76.16 422.1,-56.75 425.22,-47.96 429.8,-38.77 434.12,-30.98"/>
<polygon fill="#63b8ff" stroke="#63b8ff" points="437.12,-32.79 439.13,-22.39 431.07,-29.27 437.12,-32.79"/>
</a>
</g>
</g>
<!-- Node12&#45;&gt;Node8 -->
<g id="edge16_Node000012_Node000008" class="edge">
<title>Node12&#45;&gt;Node8</title>
<g id="a_edge16_Node000012_Node000008"><a xlink:title=" ">
<path fill="none" stroke="#63b8ff" d="M456.43,-113.02C505.88,-102.73 582.75,-86.73 630.12,-76.87"/>
<polygon fill="#63b8ff" stroke="#63b8ff" points="630.64,-80.33 639.72,-74.87 629.22,-73.48 630.64,-80.33"/>
</a>
</g>
</g>
<!-- Node13&#45;&gt;Node5 -->
<g id="edge20_Node000013_Node000005" class="edge">
<title>Node13&#45;&gt;Node5</title>
<g id="a_edge20_Node000013_Node000005"><a xlink:title=" ">
<path fill="none" stroke="#63b8ff" d="M481.42,-56.34C475.67,-49.02 467.64,-38.79 460.69,-29.94"/>
<polygon fill="#63b8ff" stroke="#63b8ff" points="463.59,-27.97 454.66,-22.27 458.08,-32.3 463.59,-27.97"/>
</a>
</g>
</g>
<!-- Node14&#45;&gt;Node5 -->
<g id="edge25_Node000014_Node000005" class="edge">
<title>Node14&#45;&gt;Node5</title>
<g id="a_edge25_Node000014_Node000005"><a xlink:title=" ">
<path fill="none" stroke="#63b8ff" d="M618.75,-169.75C615.64,-142.68 605.62,-88.22 574.1,-56.75 549.99,-32.66 512.28,-21.31 484.03,-15.99"/>
<polygon fill="#63b8ff" stroke="#63b8ff" points="484.89,-12.59 474.45,-14.37 483.72,-19.49 484.89,-12.59"/>
</a>
</g>
</g>
<!-- Node14&#45;&gt;Node8 -->
<g id="edge23_Node000014_Node000008" class="edge">
<title>Node14&#45;&gt;Node8</title>
<g id="a_edge23_Node000014_Node000008"><a xlink:title=" ">
<path fill="none" stroke="#63b8ff" d="M627.12,-170.1C636.46,-148.92 653,-111.43 663.21,-88.29"/>
<polygon fill="#63b8ff" stroke="#63b8ff" points="666.33,-89.88 667.17,-79.32 659.93,-87.05 666.33,-89.88"/>
</a>
</g>
</g>
<!-- Node14&#45;&gt;Node9 -->
<g id="edge24_Node000014_Node000009" class="edge">
<title>Node14&#45;&gt;Node9</title>
<g id="a_edge24_Node000014_Node000009"><a xlink:title=" ">
<path fill="none" stroke="#63b8ff" d="M642.96,-169.94C655.52,-161.12 671.05,-150.2 683.69,-141.32"/>
<polygon fill="#63b8ff" stroke="#63b8ff" points="685.69,-144.2 691.86,-135.59 681.66,-138.47 685.69,-144.2"/>
</a>
</g>
</g>
<!-- Node15&#45;&gt;Node9 -->
<g id="edge27_Node000015_Node000009" class="edge">
<title>Node15&#45;&gt;Node9</title>
<g id="a_edge27_Node000015_Node000009"><a xlink:title=" ">
<path fill="none" stroke="#63b8ff" d="M831.33,-176.18C806.94,-166.11 768.79,-150.35 741.2,-138.96"/>
<polygon fill="#63b8ff" stroke="#63b8ff" points="742.8,-135.83 732.22,-135.25 740.13,-142.3 742.8,-135.83"/>
</a>
</g>
</g>
</g>
</svg>
