<?xml version="1.0" encoding="UTF-8" standalone="no"?>
<!DOCTYPE svg PUBLIC "-//W3C//DTD SVG 1.1//EN"
 "http://www.w3.org/Graphics/SVG/1.1/DTD/svg11.dtd">
<!-- Generated by graphviz version 12.1.2 (20240928.0832)
 -->
<!-- Title: socket.c Pages: 1 -->
<svg width="868pt" height="325pt"
 viewBox="0.00 0.00 867.50 325.25" xmlns="http://www.w3.org/2000/svg" xmlns:xlink="http://www.w3.org/1999/xlink">
<g id="graph0" class="graph" transform="scale(1 1) rotate(0) translate(4 321.25)">
<title>socket.c</title>
<!-- Node1 -->
<g id="Node000001" class="node">
<title>Node1</title>
<g id="a_Node000001"><a xlink:title=" ">
<polygon fill="#999999" stroke="#666666" points="471.88,-317.25 416.12,-317.25 416.12,-296.5 471.88,-296.5 471.88,-317.25"/>
<text text-anchor="middle" x="444" y="-303.75" font-family="Helvetica,sans-Serif" font-size="10.00">socket.c</text>
</a>
</g>
</g>
<!-- Node2 -->
<g id="Node000002" class="node">
<title>Node2</title>
<g id="a_Node000002"><a xlink:href="socket_8h.html" target="_top" xlink:title=" ">
<polygon fill="white" stroke="#666666" points="493.25,-260.5 394.75,-260.5 394.75,-239.75 493.25,-239.75 493.25,-260.5"/>
<text text-anchor="middle" x="444" y="-247" font-family="Helvetica,sans-Serif" font-size="10.00">vlcb/net/socket.h</text>
</a>
</g>
</g>
<!-- Node1&#45;&gt;Node2 -->
<g id="edge1_Node000001_Node000002" class="edge">
<title>Node1&#45;&gt;Node2</title>
<g id="a_edge1_Node000001_Node000002"><a xlink:title=" ">
<path fill="none" stroke="#63b8ff" d="M444,-296.09C444,-289.47 444,-280.47 444,-272.27"/>
<polygon fill="#63b8ff" stroke="#63b8ff" points="447.5,-272.34 444,-262.34 440.5,-272.34 447.5,-272.34"/>
</a>
</g>
</g>
<!-- Node3 -->
<g id="Node000003" class="node">
<title>Node3</title>
<g id="a_Node000003"><a xlink:title=" ">
<polygon fill="#e0e0e0" stroke="#999999" points="213.5,-77.5 152.5,-77.5 152.5,-56.75 213.5,-56.75 213.5,-77.5"/>
<text text-anchor="middle" x="183" y="-64" font-family="Helvetica,sans-Serif" font-size="10.00">stdbool.h</text>
</a>
</g>
</g>
<!-- Node1&#45;&gt;Node3 -->
<g id="edge25_Node000001_Node000003" class="edge">
<title>Node1&#45;&gt;Node3</title>
<g id="a_edge25_Node000001_Node000003"><a xlink:title=" ">
<path fill="none" stroke="#63b8ff" d="M415.74,-303.41C341.3,-295.2 139.86,-261.63 57,-134.25 34.32,-99.39 95.96,-81.78 140.82,-73.81"/>
<polygon fill="#63b8ff" stroke="#63b8ff" points="141.31,-77.28 150.6,-72.19 140.16,-70.37 141.31,-77.28"/>
</a>
</g>
</g>
<!-- Node4 -->
<g id="Node000004" class="node">
<title>Node4</title>
<g id="a_Node000004"><a xlink:title=" ">
<polygon fill="#e0e0e0" stroke="#999999" points="765.5,-134.25 710.5,-134.25 710.5,-113.5 765.5,-113.5 765.5,-134.25"/>
<text text-anchor="middle" x="738" y="-120.75" font-family="Helvetica,sans-Serif" font-size="10.00">stddef.h</text>
</a>
</g>
</g>
<!-- Node1&#45;&gt;Node4 -->
<g id="edge26_Node000001_Node000004" class="edge">
<title>Node1&#45;&gt;Node4</title>
<g id="a_edge26_Node000001_Node000004"><a xlink:title=" ">
<path fill="none" stroke="#63b8ff" d="M472.24,-306.08C533.47,-304.79 677.97,-292.07 741,-203.75 752.97,-186.97 749.84,-162.69 745.22,-145.5"/>
<polygon fill="#63b8ff" stroke="#63b8ff" points="748.62,-144.65 742.32,-136.13 741.94,-146.72 748.62,-144.65"/>
</a>
</g>
</g>
<!-- Node8 -->
<g id="Node000008" class="node">
<title>Node8</title>
<g id="a_Node000008"><a xlink:title=" ">
<polygon fill="#e0e0e0" stroke="#999999" points="355.38,-20.75 302.62,-20.75 302.62,0 355.38,0 355.38,-20.75"/>
<text text-anchor="middle" x="329" y="-7.25" font-family="Helvetica,sans-Serif" font-size="10.00">stdint.h</text>
</a>
</g>
</g>
<!-- Node1&#45;&gt;Node8 -->
<g id="edge27_Node000001_Node000008" class="edge">
<title>Node1&#45;&gt;Node8</title>
<g id="a_edge27_Node000001_Node000008"><a xlink:title=" ">
<path fill="none" stroke="#63b8ff" d="M415.89,-304.51C318.29,-299 0,-274.43 0,-188 0,-188 0,-188 0,-122.88 0,-62.04 204.36,-27.84 290.95,-16.08"/>
<polygon fill="#63b8ff" stroke="#63b8ff" points="291.4,-19.55 300.85,-14.76 290.48,-12.61 291.4,-19.55"/>
</a>
</g>
</g>
<!-- Node15 -->
<g id="Node000015" class="node">
<title>Node15</title>
<g id="a_Node000015"><a xlink:title=" ">
<polygon fill="#e0e0e0" stroke="#999999" points="859.5,-260.5 804.5,-260.5 804.5,-239.75 859.5,-239.75 859.5,-260.5"/>
<text text-anchor="middle" x="832" y="-247" font-family="Helvetica,sans-Serif" font-size="10.00">assert.h</text>
</a>
</g>
</g>
<!-- Node1&#45;&gt;Node15 -->
<g id="edge24_Node000001_Node000015" class="edge">
<title>Node1&#45;&gt;Node15</title>
<g id="a_edge24_Node000001_Node000015"><a xlink:title=" ">
<path fill="none" stroke="#63b8ff" d="M471.94,-303.07C530.93,-296.95 672.47,-281.28 790,-260.5 791,-260.32 792.01,-260.14 793.03,-259.95"/>
<polygon fill="#63b8ff" stroke="#63b8ff" points="793.46,-263.43 802.57,-258.03 792.08,-256.57 793.46,-263.43"/>
</a>
</g>
</g>
<!-- Node2&#45;&gt;Node3 -->
<g id="edge2_Node000002_Node000003" class="edge">
<title>Node2&#45;&gt;Node3</title>
<g id="a_edge2_Node000002_Node000003"><a xlink:title=" ">
<path fill="none" stroke="#63b8ff" d="M394.32,-245.37C357.87,-240.51 308.69,-229.35 273,-203.75 231.24,-173.8 203.39,-117.96 190.77,-88.13"/>
<polygon fill="#63b8ff" stroke="#63b8ff" points="194.12,-87.09 187.11,-79.14 187.64,-89.73 194.12,-87.09"/>
</a>
</g>
</g>
<!-- Node2&#45;&gt;Node4 -->
<g id="edge3_Node000002_Node000004" class="edge">
<title>Node2&#45;&gt;Node4</title>
<g id="a_edge3_Node000002_Node000004"><a xlink:title=" ">
<path fill="none" stroke="#63b8ff" d="M493.59,-247.36C563.76,-243.82 687.06,-233.44 719,-203.75 734.77,-189.09 738.48,-163.83 738.91,-145.84"/>
<polygon fill="#63b8ff" stroke="#63b8ff" points="742.41,-146 738.8,-136.04 735.41,-146.08 742.41,-146"/>
</a>
</g>
</g>
<!-- Node5 -->
<g id="Node000005" class="node">
<title>Node5</title>
<g id="a_Node000005"><a xlink:href="vlcb_8h.html" target="_top" xlink:title=" ">
<polygon fill="white" stroke="#666666" points="486.25,-134.25 405.75,-134.25 405.75,-113.5 486.25,-113.5 486.25,-134.25"/>
<text text-anchor="middle" x="446" y="-120.75" font-family="Helvetica,sans-Serif" font-size="10.00">packet/vlcb.h</text>
</a>
</g>
</g>
<!-- Node2&#45;&gt;Node5 -->
<g id="edge4_Node000002_Node000005" class="edge">
<title>Node2&#45;&gt;Node5</title>
<g id="a_edge4_Node000002_Node000005"><a xlink:title=" ">
<path fill="none" stroke="#63b8ff" d="M436.08,-239.4C429.52,-230.66 420.69,-217.18 417,-203.75 413.05,-189.39 412.82,-184.54 417,-170.25 419.77,-160.77 425.2,-151.38 430.61,-143.63"/>
<polygon fill="#63b8ff" stroke="#63b8ff" points="433.36,-145.8 436.59,-135.71 427.77,-141.58 433.36,-145.8"/>
</a>
</g>
</g>
<!-- Node10 -->
<g id="Node000010" class="node">
<title>Node10</title>
<g id="a_Node000010"><a xlink:href="addr_8h.html" target="_top" xlink:title=" ">
<polygon fill="white" stroke="#666666" points="370,-197.38 282,-197.38 282,-176.62 370,-176.62 370,-197.38"/>
<text text-anchor="middle" x="326" y="-183.88" font-family="Helvetica,sans-Serif" font-size="10.00">vlcb/net/addr.h</text>
</a>
</g>
</g>
<!-- Node2&#45;&gt;Node10 -->
<g id="edge9_Node000002_Node000010" class="edge">
<title>Node2&#45;&gt;Node10</title>
<g id="a_edge9_Node000002_Node000010"><a xlink:title=" ">
<path fill="none" stroke="#63b8ff" d="M425.04,-239.3C406.12,-229.5 376.79,-214.31 354.95,-203"/>
<polygon fill="#63b8ff" stroke="#63b8ff" points="356.74,-199.98 346.26,-198.49 353.53,-206.2 356.74,-199.98"/>
</a>
</g>
</g>
<!-- Node13 -->
<g id="Node000013" class="node">
<title>Node13</title>
<g id="a_Node000013"><a xlink:href="packet__buf_8h.html" target="_top" xlink:title=" ">
<polygon fill="white" stroke="#666666" points="556,-203.75 426,-203.75 426,-170.25 556,-170.25 556,-203.75"/>
<text text-anchor="start" x="434" y="-190.25" font-family="Helvetica,sans-Serif" font-size="10.00">vlcb/net/storage/packet</text>
<text text-anchor="middle" x="491" y="-177.5" font-family="Helvetica,sans-Serif" font-size="10.00">_buf.h</text>
</a>
</g>
</g>
<!-- Node2&#45;&gt;Node13 -->
<g id="edge18_Node000002_Node000013" class="edge">
<title>Node2&#45;&gt;Node13</title>
<g id="a_edge18_Node000002_Node000013"><a xlink:title=" ">
<path fill="none" stroke="#63b8ff" d="M451.55,-239.3C457,-232.22 464.62,-222.31 471.7,-213.09"/>
<polygon fill="#63b8ff" stroke="#63b8ff" points="474.27,-215.5 477.59,-205.43 468.72,-211.23 474.27,-215.5"/>
</a>
</g>
</g>
<!-- Node14 -->
<g id="Node000014" class="node">
<title>Node14</title>
<g id="a_Node000014"><a xlink:href="interface_8h.html" target="_top" xlink:title=" ">
<polygon fill="white" stroke="#666666" points="710.38,-197.38 573.62,-197.38 573.62,-176.62 710.38,-176.62 710.38,-197.38"/>
<text text-anchor="middle" x="642" y="-183.88" font-family="Helvetica,sans-Serif" font-size="10.00">vlcb/platform/interface.h</text>
</a>
</g>
</g>
<!-- Node2&#45;&gt;Node14 -->
<g id="edge22_Node000002_Node000014" class="edge">
<title>Node2&#45;&gt;Node14</title>
<g id="a_edge22_Node000002_Node000014"><a xlink:title=" ">
<path fill="none" stroke="#63b8ff" d="M475.81,-239.3C509.3,-228.97 562.2,-212.64 599.3,-201.18"/>
<polygon fill="#63b8ff" stroke="#63b8ff" points="600.3,-204.54 608.82,-198.24 598.23,-197.85 600.3,-204.54"/>
</a>
</g>
</g>
<!-- Node6 -->
<g id="Node000006" class="node">
<title>Node6</title>
<g id="a_Node000006"><a xlink:title=" ">
<polygon fill="#e0e0e0" stroke="#999999" points="334.38,-77.5 269.62,-77.5 269.62,-56.75 334.38,-56.75 334.38,-77.5"/>
<text text-anchor="middle" x="302" y="-64" font-family="Helvetica,sans-Serif" font-size="10.00">inttypes.h</text>
</a>
</g>
</g>
<!-- Node5&#45;&gt;Node6 -->
<g id="edge5_Node000005_Node000006" class="edge">
<title>Node5&#45;&gt;Node6</title>
<g id="a_edge5_Node000005_Node000006"><a xlink:title=" ">
<path fill="none" stroke="#63b8ff" d="M420.26,-113.09C397.42,-104.41 363.83,-91.63 338.28,-81.92"/>
<polygon fill="#63b8ff" stroke="#63b8ff" points="339.53,-78.65 328.94,-78.37 337.04,-85.19 339.53,-78.65"/>
</a>
</g>
</g>
<!-- Node7 -->
<g id="Node000007" class="node">
<title>Node7</title>
<g id="a_Node000007"><a xlink:href="opcode_8h.html" target="_top" xlink:title=" ">
<polygon fill="white" stroke="#666666" points="481.62,-77.5 352.38,-77.5 352.38,-56.75 481.62,-56.75 481.62,-77.5"/>
<text text-anchor="middle" x="417" y="-64" font-family="Helvetica,sans-Serif" font-size="10.00">vlcb/common/opcode.h</text>
</a>
</g>
</g>
<!-- Node5&#45;&gt;Node7 -->
<g id="edge6_Node000005_Node000007" class="edge">
<title>Node5&#45;&gt;Node7</title>
<g id="a_edge6_Node000005_Node000007"><a xlink:title=" ">
<path fill="none" stroke="#63b8ff" d="M440.82,-113.09C437.1,-106.08 431.98,-96.41 427.44,-87.83"/>
<polygon fill="#63b8ff" stroke="#63b8ff" points="430.62,-86.36 422.85,-79.17 424.44,-89.64 430.62,-86.36"/>
</a>
</g>
</g>
<!-- Node9 -->
<g id="Node000009" class="node">
<title>Node9</title>
<g id="a_Node000009"><a xlink:href="error_8h.html" target="_top" xlink:title=" ">
<polygon fill="white" stroke="#666666" points="615.88,-77.5 500.12,-77.5 500.12,-56.75 615.88,-56.75 615.88,-77.5"/>
<text text-anchor="middle" x="558" y="-64" font-family="Helvetica,sans-Serif" font-size="10.00">vlcb/platform/error.h</text>
</a>
</g>
</g>
<!-- Node5&#45;&gt;Node9 -->
<g id="edge8_Node000005_Node000009" class="edge">
<title>Node5&#45;&gt;Node9</title>
<g id="a_edge8_Node000005_Node000009"><a xlink:title=" ">
<path fill="none" stroke="#63b8ff" d="M466.02,-113.09C483.22,-104.68 508.28,-92.43 527.9,-82.84"/>
<polygon fill="#63b8ff" stroke="#63b8ff" points="529.34,-86.03 536.79,-78.49 526.27,-79.74 529.34,-86.03"/>
</a>
</g>
</g>
<!-- Node7&#45;&gt;Node8 -->
<g id="edge7_Node000007_Node000008" class="edge">
<title>Node7&#45;&gt;Node8</title>
<g id="a_edge7_Node000007_Node000008"><a xlink:title=" ">
<path fill="none" stroke="#63b8ff" d="M401.27,-56.34C388.13,-48.16 369.16,-36.36 353.95,-26.9"/>
<polygon fill="#63b8ff" stroke="#63b8ff" points="356.22,-24.19 345.88,-21.88 352.52,-30.13 356.22,-24.19"/>
</a>
</g>
</g>
<!-- Node10&#45;&gt;Node8 -->
<g id="edge17_Node000010_Node000008" class="edge">
<title>Node10&#45;&gt;Node8</title>
<g id="a_edge17_Node000010_Node000008"><a xlink:title=" ">
<path fill="none" stroke="#63b8ff" d="M368.63,-176.15C459.63,-154.14 661.74,-99.55 625,-56.75 592.12,-18.45 438.8,-12.14 366.68,-11.33"/>
<polygon fill="#63b8ff" stroke="#63b8ff" points="366.97,-7.84 356.94,-11.26 366.92,-14.84 366.97,-7.84"/>
</a>
</g>
</g>
<!-- Node11 -->
<g id="Node000011" class="node">
<title>Node11</title>
<g id="a_Node000011"><a xlink:href="common_2inc_2vlcb_2common_2can_8h.html" target="_top" xlink:title=" ">
<polygon fill="white" stroke="#666666" points="387.62,-134.25 276.38,-134.25 276.38,-113.5 387.62,-113.5 387.62,-134.25"/>
<text text-anchor="middle" x="332" y="-120.75" font-family="Helvetica,sans-Serif" font-size="10.00">vlcb/common/can.h</text>
</a>
</g>
</g>
<!-- Node10&#45;&gt;Node11 -->
<g id="edge10_Node000010_Node000011" class="edge">
<title>Node10&#45;&gt;Node11</title>
<g id="a_edge10_Node000010_Node000011"><a xlink:title=" ">
<path fill="none" stroke="#63b8ff" d="M326.96,-176.18C327.76,-168.02 328.93,-156.13 329.94,-145.85"/>
<polygon fill="#63b8ff" stroke="#63b8ff" points="333.42,-146.27 330.91,-135.98 326.45,-145.59 333.42,-146.27"/>
</a>
</g>
</g>
<!-- Node12 -->
<g id="Node000012" class="node">
<title>Node12</title>
<g id="a_Node000012"><a xlink:href="time_8h.html" target="_top" xlink:title=" ">
<polygon fill="white" stroke="#666666" points="181.88,-134.25 66.12,-134.25 66.12,-113.5 181.88,-113.5 181.88,-134.25"/>
<text text-anchor="middle" x="124" y="-120.75" font-family="Helvetica,sans-Serif" font-size="10.00">vlcb/platform/time.h</text>
</a>
</g>
</g>
<!-- Node10&#45;&gt;Node12 -->
<g id="edge15_Node000010_Node000012" class="edge">
<title>Node10&#45;&gt;Node12</title>
<g id="a_edge15_Node000010_Node000012"><a xlink:title=" ">
<path fill="none" stroke="#63b8ff" d="M293.55,-176.18C259.24,-165.8 204.95,-149.37 167.07,-137.91"/>
<polygon fill="#63b8ff" stroke="#63b8ff" points="168.41,-134.66 157.82,-135.11 166.38,-141.36 168.41,-134.66"/>
</a>
</g>
</g>
<!-- Node11&#45;&gt;Node3 -->
<g id="edge12_Node000011_Node000003" class="edge">
<title>Node11&#45;&gt;Node3</title>
<g id="a_edge12_Node000011_Node000003"><a xlink:title=" ">
<path fill="none" stroke="#63b8ff" d="M305.36,-113.09C281.7,-104.39 246.88,-91.6 220.43,-81.88"/>
<polygon fill="#63b8ff" stroke="#63b8ff" points="221.67,-78.61 211.08,-78.44 219.26,-85.18 221.67,-78.61"/>
</a>
</g>
</g>
<!-- Node11&#45;&gt;Node6 -->
<g id="edge11_Node000011_Node000006" class="edge">
<title>Node11&#45;&gt;Node6</title>
<g id="a_edge11_Node000011_Node000006"><a xlink:title=" ">
<path fill="none" stroke="#63b8ff" d="M326.64,-113.09C322.8,-106.08 317.5,-96.41 312.8,-87.83"/>
<polygon fill="#63b8ff" stroke="#63b8ff" points="315.92,-86.24 308.04,-79.16 309.78,-89.61 315.92,-86.24"/>
</a>
</g>
</g>
<!-- Node11&#45;&gt;Node7 -->
<g id="edge14_Node000011_Node000007" class="edge">
<title>Node11&#45;&gt;Node7</title>
<g id="a_edge14_Node000011_Node000007"><a xlink:title=" ">
<path fill="none" stroke="#63b8ff" d="M347.2,-113.09C359.77,-104.99 377.86,-93.33 392.48,-83.92"/>
<polygon fill="#63b8ff" stroke="#63b8ff" points="394.15,-87.01 400.66,-78.65 390.36,-81.12 394.15,-87.01"/>
</a>
</g>
</g>
<!-- Node11&#45;&gt;Node8 -->
<g id="edge13_Node000011_Node000008" class="edge">
<title>Node11&#45;&gt;Node8</title>
<g id="a_edge13_Node000011_Node000008"><a xlink:title=" ">
<path fill="none" stroke="#63b8ff" d="M304.33,-113.01C288.58,-105.8 270.21,-94.31 261,-77.5 249.54,-56.58 272.81,-38.17 295.18,-26.12"/>
<polygon fill="#63b8ff" stroke="#63b8ff" points="296.56,-29.35 303.92,-21.73 293.41,-23.1 296.56,-29.35"/>
</a>
</g>
</g>
<!-- Node12&#45;&gt;Node8 -->
<g id="edge16_Node000012_Node000008" class="edge">
<title>Node12&#45;&gt;Node8</title>
<g id="a_edge16_Node000012_Node000008"><a xlink:title=" ">
<path fill="none" stroke="#63b8ff" d="M123.91,-113.27C124.33,-98.88 127.32,-71.81 143,-56.75 163.99,-36.6 243.25,-22.79 291.27,-16.07"/>
<polygon fill="#63b8ff" stroke="#63b8ff" points="291.53,-19.57 300.97,-14.76 290.59,-12.63 291.53,-19.57"/>
</a>
</g>
</g>
<!-- Node13&#45;&gt;Node3 -->
<g id="edge19_Node000013_Node000003" class="edge">
<title>Node13&#45;&gt;Node3</title>
<g id="a_edge19_Node000013_Node000003"><a xlink:title=" ">
<path fill="none" stroke="#63b8ff" d="M425.74,-178.63C379.66,-171.62 317.39,-158.4 267,-134.25 241.3,-121.93 216.21,-100.6 200.24,-85.5"/>
<polygon fill="#63b8ff" stroke="#63b8ff" points="203.06,-83.36 193.45,-78.9 198.18,-88.38 203.06,-83.36"/>
</a>
</g>
</g>
<!-- Node13&#45;&gt;Node4 -->
<g id="edge20_Node000013_Node000004" class="edge">
<title>Node13&#45;&gt;Node4</title>
<g id="a_edge20_Node000013_Node000004"><a xlink:title=" ">
<path fill="none" stroke="#63b8ff" d="M556.22,-169.86C601.68,-158.61 660.82,-143.97 699.09,-134.5"/>
<polygon fill="#63b8ff" stroke="#63b8ff" points="699.93,-137.9 708.79,-132.1 698.25,-131.11 699.93,-137.9"/>
</a>
</g>
</g>
<!-- Node13&#45;&gt;Node8 -->
<g id="edge21_Node000013_Node000008" class="edge">
<title>Node13&#45;&gt;Node8</title>
<g id="a_edge21_Node000013_Node000008"><a xlink:title=" ">
<path fill="none" stroke="#63b8ff" d="M536.41,-169.82C593.86,-146.94 680.81,-102.77 641,-56.75 605.99,-16.28 442.43,-11.16 367.13,-11"/>
<polygon fill="#63b8ff" stroke="#63b8ff" points="367.34,-7.5 357.35,-11.01 367.35,-14.5 367.34,-7.5"/>
</a>
</g>
</g>
<!-- Node14&#45;&gt;Node4 -->
<g id="edge23_Node000014_Node000004" class="edge">
<title>Node14&#45;&gt;Node4</title>
<g id="a_edge23_Node000014_Node000004"><a xlink:title=" ">
<path fill="none" stroke="#63b8ff" d="M657.42,-176.18C672.4,-166.64 695.39,-152.01 712.98,-140.81"/>
<polygon fill="#63b8ff" stroke="#63b8ff" points="714.78,-143.81 721.34,-135.48 711.02,-137.9 714.78,-143.81"/>
</a>
</g>
</g>
</g>
</svg>
