<?xml version="1.0" encoding="UTF-8" standalone="no"?>
<!DOCTYPE svg PUBLIC "-//W3C//DTD SVG 1.1//EN"
 "http://www.w3.org/Graphics/SVG/1.1/DTD/svg11.dtd">
<!-- Generated by graphviz version 12.1.2 (20240928.0832)
 -->
<!-- Title: vlcb_net_sock_dgram_Send Pages: 1 -->
<svg width="990pt" height="183pt"
 viewBox="0.00 0.00 989.75 182.75" xmlns="http://www.w3.org/2000/svg" xmlns:xlink="http://www.w3.org/1999/xlink">
<g id="graph0" class="graph" transform="scale(1 1) rotate(0) translate(4 178.75)">
<title>vlcb_net_sock_dgram_Send</title>
<!-- Node1 -->
<g id="Node000001" class="node">
<title>Node1</title>
<g id="a_Node000001"><a xlink:title=" ">
<polygon fill="#999999" stroke="#666666" points="981.75,-98.75 830.75,-98.75 830.75,-78 981.75,-78 981.75,-98.75"/>
<text text-anchor="middle" x="906.25" y="-85.25" font-family="Helvetica,sans-Serif" font-size="10.00">vlcb_net_sock_dgram_Send</text>
</a>
</g>
</g>
<!-- Node2 -->
<g id="Node000002" class="node">
<title>Node2</title>
<g id="a_Node000002"><a xlink:href="module_8c.html#a7619749367a14232feaf0513698c63d8" target="_top" xlink:title=" ">
<polygon fill="white" stroke="#666666" points="558.25,-174.75 459,-174.75 459,-154 558.25,-154 558.25,-174.75"/>
<text text-anchor="middle" x="508.62" y="-161.25" font-family="Helvetica,sans-Serif" font-size="10.00">HandleHeartbeat</text>
</a>
</g>
</g>
<!-- Node1&#45;&gt;Node2 -->
<g id="edge1_Node000001_Node000002" class="edge">
<title>Node1&#45;&gt;Node2</title>
<g id="a_edge1_Node000001_Node000002"><a xlink:title=" ">
<path fill="none" stroke="#63b8ff" d="M869.76,-103.5C848.38,-112.03 820.42,-122.19 794.75,-128.38 713.26,-148.01 615.93,-157.38 558.65,-161.5"/>
<polygon fill="#63b8ff" stroke="#63b8ff" points="870.94,-106.8 878.88,-99.79 868.3,-100.32 870.94,-106.8"/>
</a>
</g>
</g>
<!-- Node4 -->
<g id="Node000004" class="node">
<title>Node4</title>
<g id="a_Node000004"><a xlink:href="module_8c.html#a01dc6700d3926d16f6ebfb5e3611e6c2" target="_top" xlink:title=" ">
<polygon fill="white" stroke="#666666" points="589,-135.75 428.25,-135.75 428.25,-115 589,-115 589,-135.75"/>
<text text-anchor="middle" x="508.62" y="-122.25" font-family="Helvetica,sans-Serif" font-size="10.00">HandleQueryNodeParameters</text>
</a>
</g>
</g>
<!-- Node1&#45;&gt;Node4 -->
<g id="edge3_Node000001_Node000004" class="edge">
<title>Node1&#45;&gt;Node4</title>
<g id="a_edge3_Node000001_Node000004"><a xlink:title=" ">
<path fill="none" stroke="#63b8ff" d="M837.98,-101.13C823.75,-103.49 808.78,-105.73 794.75,-107.38 725.66,-115.47 646.69,-120.1 589.41,-122.63"/>
<polygon fill="#63b8ff" stroke="#63b8ff" points="838.44,-104.6 847.71,-99.47 837.27,-97.7 838.44,-104.6"/>
</a>
</g>
</g>
<!-- Node6 -->
<g id="Node000006" class="node">
<title>Node6</title>
<g id="a_Node000006"><a xlink:href="state__machine_8c.html#a219b685fd854a0765878acc44e9f3111" target="_top" xlink:title=" ">
<polygon fill="white" stroke="#666666" points="782,-98.75 637.75,-98.75 637.75,-78 782,-78 782,-98.75"/>
<text text-anchor="middle" x="709.88" y="-85.25" font-family="Helvetica,sans-Serif" font-size="10.00">HandleTransitionToNormal</text>
</a>
</g>
</g>
<!-- Node1&#45;&gt;Node6 -->
<g id="edge6_Node000001_Node000006" class="edge">
<title>Node1&#45;&gt;Node6</title>
<g id="a_edge6_Node000001_Node000006"><a xlink:title=" ">
<path fill="none" stroke="#63b8ff" d="M819.13,-88.38C806.79,-88.38 794.21,-88.38 782.19,-88.38"/>
<polygon fill="#63b8ff" stroke="#63b8ff" points="818.86,-91.88 828.86,-88.38 818.86,-84.88 818.86,-91.88"/>
</a>
</g>
</g>
<!-- Node10 -->
<g id="Node000010" class="node">
<title>Node10</title>
<g id="a_Node000010"><a xlink:href="state__machine_8c.html#a454533bb18a4f7d35e37e49479a0be7a" target="_top" xlink:title=" ">
<polygon fill="white" stroke="#666666" points="777.88,-59.75 641.88,-59.75 641.88,-39 777.88,-39 777.88,-59.75"/>
<text text-anchor="middle" x="709.88" y="-46.25" font-family="Helvetica,sans-Serif" font-size="10.00">HandleTransitionToSetup</text>
</a>
</g>
</g>
<!-- Node1&#45;&gt;Node10 -->
<g id="edge11_Node000001_Node000010" class="edge">
<title>Node1&#45;&gt;Node10</title>
<g id="a_edge11_Node000001_Node000010"><a xlink:title=" ">
<path fill="none" stroke="#63b8ff" d="M840.14,-75.31C815.77,-70.42 788.35,-64.92 765.07,-60.25"/>
<polygon fill="#63b8ff" stroke="#63b8ff" points="839.13,-78.68 849.62,-77.21 840.51,-71.81 839.13,-78.68"/>
</a>
</g>
</g>
<!-- Node11 -->
<g id="Node000011" class="node">
<title>Node11</title>
<g id="a_Node000011"><a xlink:href="state__machine_8c.html#a33506340e66a1f297917a2be79b70b0e" target="_top" xlink:title=" ">
<polygon fill="white" stroke="#666666" points="794.75,-20.75 625,-20.75 625,0 794.75,0 794.75,-20.75"/>
<text text-anchor="middle" x="709.88" y="-7.25" font-family="Helvetica,sans-Serif" font-size="10.00">HandleTransitionToUninitialized</text>
</a>
</g>
</g>
<!-- Node1&#45;&gt;Node11 -->
<g id="edge13_Node000001_Node000011" class="edge">
<title>Node1&#45;&gt;Node11</title>
<g id="a_edge13_Node000001_Node000011"><a xlink:title=" ">
<path fill="none" stroke="#63b8ff" d="M878.03,-71.63C856.19,-58.81 824.39,-41.49 794.75,-30.38 785.36,-26.85 775.14,-23.81 765.17,-21.22"/>
<polygon fill="#63b8ff" stroke="#63b8ff" points="876.21,-74.62 886.59,-76.74 879.8,-68.61 876.21,-74.62"/>
</a>
</g>
</g>
<!-- Node3 -->
<g id="Node000003" class="node">
<title>Node3</title>
<g id="a_Node000003"><a xlink:href="module_8c.html#a8e05ae271d378570de2cb6bbf3ca6b2d" target="_top" xlink:title=" ">
<polygon fill="white" stroke="#666666" points="101.5,-155.75 0,-155.75 0,-135 101.5,-135 101.5,-155.75"/>
<text text-anchor="middle" x="50.75" y="-142.25" font-family="Helvetica,sans-Serif" font-size="10.00">vlcb_module_Poll</text>
</a>
</g>
</g>
<!-- Node2&#45;&gt;Node3 -->
<g id="edge2_Node000002_Node000003" class="edge">
<title>Node2&#45;&gt;Node3</title>
<g id="a_edge2_Node000002_Node000003"><a xlink:title=" ">
<path fill="none" stroke="#63b8ff" d="M447.37,-161.86C356.58,-158.08 186.37,-150.99 101.92,-147.47"/>
<polygon fill="#63b8ff" stroke="#63b8ff" points="447.19,-165.36 457.33,-162.28 447.48,-158.37 447.19,-165.36"/>
</a>
</g>
</g>
<!-- Node5 -->
<g id="Node000005" class="node">
<title>Node5</title>
<g id="a_Node000005"><a xlink:href="module_8c.html#a32ed02b26ffaed7947004cd1309f5847" target="_top" xlink:title=" ">
<polygon fill="white" stroke="#666666" points="257,-136.75 137.5,-136.75 137.5,-116 257,-116 257,-136.75"/>
<text text-anchor="middle" x="197.25" y="-123.25" font-family="Helvetica,sans-Serif" font-size="10.00">HandleMnsMessages</text>
</a>
</g>
</g>
<!-- Node4&#45;&gt;Node5 -->
<g id="edge4_Node000004_Node000005" class="edge">
<title>Node4&#45;&gt;Node5</title>
<g id="a_edge4_Node000004_Node000005"><a xlink:title=" ">
<path fill="none" stroke="#63b8ff" d="M416.48,-125.67C364.99,-125.84 302.14,-126.04 257.13,-126.18"/>
<polygon fill="#63b8ff" stroke="#63b8ff" points="416.45,-129.17 426.44,-125.64 416.43,-122.17 416.45,-129.17"/>
</a>
</g>
</g>
<!-- Node5&#45;&gt;Node3 -->
<g id="edge5_Node000005_Node000003" class="edge">
<title>Node5&#45;&gt;Node3</title>
<g id="a_edge5_Node000005_Node000003"><a xlink:title=" ">
<path fill="none" stroke="#63b8ff" d="M125.72,-135.65C117.66,-136.71 109.57,-137.77 101.85,-138.79"/>
<polygon fill="#63b8ff" stroke="#63b8ff" points="126.1,-139.13 135.56,-134.36 125.19,-132.19 126.1,-139.13"/>
</a>
</g>
</g>
<!-- Node7 -->
<g id="Node000007" class="node">
<title>Node7</title>
<g id="a_Node000007"><a xlink:href="state__machine_8c.html#a3d333fba19ed5ffbaabc4663ef9e2abc" target="_top" xlink:title=" ">
<polygon fill="white" stroke="#666666" points="553,-59.75 464.25,-59.75 464.25,-39 553,-39 553,-59.75"/>
<text text-anchor="middle" x="508.62" y="-46.25" font-family="Helvetica,sans-Serif" font-size="10.00">state_Dispatch</text>
</a>
</g>
</g>
<!-- Node6&#45;&gt;Node7 -->
<g id="edge7_Node000006_Node000007" class="edge">
<title>Node6&#45;&gt;Node7</title>
<g id="a_edge7_Node000006_Node000007"><a xlink:title=" ">
<path fill="none" stroke="#63b8ff" d="M642.39,-75.36C613.12,-69.63 579.54,-63.06 553.48,-57.96"/>
<polygon fill="#63b8ff" stroke="#63b8ff" points="641.4,-78.73 651.89,-77.22 642.75,-71.86 641.4,-78.73"/>
</a>
</g>
</g>
<!-- Node8 -->
<g id="Node000008" class="node">
<title>Node8</title>
<g id="a_Node000008"><a xlink:href="module_8c.html#abbdf441a7d8267aadf96102dc719cd2a" target="_top" xlink:title=" ">
<polygon fill="white" stroke="#666666" points="377.62,-98.75 307.62,-98.75 307.62,-78 377.62,-78 377.62,-98.75"/>
<text text-anchor="middle" x="342.62" y="-85.25" font-family="Helvetica,sans-Serif" font-size="10.00">AbortSetup</text>
</a>
</g>
</g>
<!-- Node7&#45;&gt;Node8 -->
<g id="edge8_Node000007_Node000008" class="edge">
<title>Node7&#45;&gt;Node8</title>
<g id="a_edge8_Node000007_Node000008"><a xlink:title=" ">
<path fill="none" stroke="#63b8ff" d="M453.03,-62.36C428.25,-68.25 399.71,-75.04 377.99,-80.2"/>
<polygon fill="#63b8ff" stroke="#63b8ff" points="453.72,-65.79 462.63,-60.07 452.1,-58.98 453.72,-65.79"/>
</a>
</g>
</g>
<!-- Node9 -->
<g id="Node000009" class="node">
<title>Node9</title>
<g id="a_Node000009"><a xlink:href="module_8c.html#a15ce5db19c8e79ec52bd78fc76940c33" target="_top" xlink:title=" ">
<polygon fill="white" stroke="#666666" points="392.25,-59.75 293,-59.75 293,-39 392.25,-39 392.25,-59.75"/>
<text text-anchor="middle" x="342.62" y="-46.25" font-family="Helvetica,sans-Serif" font-size="10.00">vlcb_module_Init</text>
</a>
</g>
</g>
<!-- Node7&#45;&gt;Node9 -->
<g id="edge10_Node000007_Node000009" class="edge">
<title>Node7&#45;&gt;Node9</title>
<g id="a_edge10_Node000007_Node000009"><a xlink:title=" ">
<path fill="none" stroke="#63b8ff" d="M452.65,-49.38C433.2,-49.38 411.47,-49.38 392.56,-49.38"/>
<polygon fill="#63b8ff" stroke="#63b8ff" points="452.59,-52.88 462.59,-49.38 452.59,-45.88 452.59,-52.88"/>
</a>
</g>
</g>
<!-- Node8&#45;&gt;Node5 -->
<g id="edge9_Node000008_Node000005" class="edge">
<title>Node8&#45;&gt;Node5</title>
<g id="a_edge9_Node000008_Node000005"><a xlink:title=" ">
<path fill="none" stroke="#63b8ff" d="M296.28,-100.39C277.99,-105.24 257.03,-110.8 239.2,-115.52"/>
<polygon fill="#63b8ff" stroke="#63b8ff" points="297.05,-103.81 305.82,-97.86 295.26,-97.04 297.05,-103.81"/>
</a>
</g>
</g>
<!-- Node10&#45;&gt;Node7 -->
<g id="edge12_Node000010_Node000007" class="edge">
<title>Node10&#45;&gt;Node7</title>
<g id="a_edge12_Node000010_Node000007"><a xlink:title=" ">
<path fill="none" stroke="#63b8ff" d="M629.97,-49.38C603.84,-49.38 575.73,-49.38 553.24,-49.38"/>
<polygon fill="#63b8ff" stroke="#63b8ff" points="629.9,-52.88 639.9,-49.38 629.9,-45.88 629.9,-52.88"/>
</a>
</g>
</g>
<!-- Node11&#45;&gt;Node7 -->
<g id="edge14_Node000011_Node000007" class="edge">
<title>Node11&#45;&gt;Node7</title>
<g id="a_edge14_Node000011_Node000007"><a xlink:title=" ">
<path fill="none" stroke="#63b8ff" d="M642.39,-23.39C613.12,-29.12 579.54,-35.69 553.48,-40.79"/>
<polygon fill="#63b8ff" stroke="#63b8ff" points="642.75,-26.89 651.89,-21.53 641.4,-20.02 642.75,-26.89"/>
</a>
</g>
</g>
</g>
</svg>
