<?xml version="1.0" encoding="UTF-8" standalone="no"?>
<!DOCTYPE svg PUBLIC "-//W3C//DTD SVG 1.1//EN"
 "http://www.w3.org/Graphics/SVG/1.1/DTD/svg11.dtd">
<!-- Generated by graphviz version 12.1.2 (20240928.0832)
 -->
<!-- Title: vlcb_net_sock_dgram_Recv Pages: 1 -->
<svg width="475pt" height="42pt"
 viewBox="0.00 0.00 475.25 41.50" xmlns="http://www.w3.org/2000/svg" xmlns:xlink="http://www.w3.org/1999/xlink">
<g id="graph0" class="graph" transform="scale(1 1) rotate(0) translate(4 37.5)">
<title>vlcb_net_sock_dgram_Recv</title>
<!-- Node1 -->
<g id="Node000001" class="node">
<title>Node1</title>
<g id="a_Node000001"><a xlink:title=" ">
<polygon fill="#999999" stroke="#666666" points="151,-27.12 0,-27.12 0,-6.38 151,-6.38 151,-27.12"/>
<text text-anchor="middle" x="75.5" y="-13.62" font-family="Helvetica,sans-Serif" font-size="10.00">vlcb_net_sock_dgram_Recv</text>
</a>
</g>
</g>
<!-- Node2 -->
<g id="Node000002" class="node">
<title>Node2</title>
<g id="a_Node000002"><a xlink:href="packet__buf_8c.html#a2ea3a27beac9f24f9dc6acdbfb28906c" target="_top" xlink:title=" ">
<polygon fill="white" stroke="#666666" points="320.75,-27.12 187,-27.12 187,-6.38 320.75,-6.38 320.75,-27.12"/>
<text text-anchor="middle" x="253.88" y="-13.62" font-family="Helvetica,sans-Serif" font-size="10.00">vlcb_net_packetbuf_Pop</text>
</a>
</g>
</g>
<!-- Node1&#45;&gt;Node2 -->
<g id="edge1_Node000001_Node000002" class="edge">
<title>Node1&#45;&gt;Node2</title>
<g id="a_edge1_Node000001_Node000002"><a xlink:title=" ">
<path fill="none" stroke="#63b8ff" d="M151.3,-16.75C159.18,-16.75 167.22,-16.75 175.13,-16.75"/>
<polygon fill="#63b8ff" stroke="#63b8ff" points="175.11,-20.25 185.11,-16.75 175.11,-13.25 175.11,-20.25"/>
</a>
</g>
</g>
<!-- Node3 -->
<g id="Node000003" class="node">
<title>Node3</title>
<g id="a_Node000003"><a xlink:href="packet__buf_8c.html#a3901c362d723ea046af64e2b96ad24b6" target="_top" xlink:title=" ">
<polygon fill="white" stroke="#666666" points="467.25,-33.5 356.75,-33.5 356.75,0 467.25,0 467.25,-33.5"/>
<text text-anchor="start" x="364.75" y="-20" font-family="Helvetica,sans-Serif" font-size="10.00">vlcb_net_packetbuf</text>
<text text-anchor="middle" x="412" y="-7.25" font-family="Helvetica,sans-Serif" font-size="10.00">_IsEmpty</text>
</a>
</g>
</g>
<!-- Node2&#45;&gt;Node3 -->
<g id="edge2_Node000002_Node000003" class="edge">
<title>Node2&#45;&gt;Node3</title>
<g id="a_edge2_Node000002_Node000003"><a xlink:title=" ">
<path fill="none" stroke="#63b8ff" d="M321.09,-16.75C329.02,-16.75 337.11,-16.75 345.04,-16.75"/>
<polygon fill="#63b8ff" stroke="#63b8ff" points="344.97,-20.25 354.97,-16.75 344.97,-13.25 344.97,-20.25"/>
</a>
</g>
</g>
</g>
</svg>
