<?xml version="1.0" encoding="UTF-8" standalone="no"?>
<!DOCTYPE svg PUBLIC "-//W3C//DTD SVG 1.1//EN"
 "http://www.w3.org/Graphics/SVG/1.1/DTD/svg11.dtd">
<!-- Generated by graphviz version 12.1.2 (20240928.0832)
 -->
<!-- Title: socket.h Pages: 1 -->
<svg width="482pt" height="256pt"
 viewBox="0.00 0.00 482.38 255.75" xmlns="http://www.w3.org/2000/svg" xmlns:xlink="http://www.w3.org/1999/xlink">
<g id="graph0" class="graph" transform="scale(1 1) rotate(0) translate(4 251.75)">
<title>socket.h</title>
<!-- Node1 -->
<g id="Node000001" class="node">
<title>Node1</title>
<g id="a_Node000001"><a xlink:title=" ">
<polygon fill="#999999" stroke="#666666" points="268.75,-247.75 212.25,-247.75 212.25,-227 268.75,-227 268.75,-247.75"/>
<text text-anchor="middle" x="240.5" y="-234.25" font-family="Helvetica,sans-Serif" font-size="10.00">socket.h</text>
</a>
</g>
</g>
<!-- Node2 -->
<g id="Node000002" class="node">
<title>Node2</title>
<g id="a_Node000002"><a xlink:title=" ">
<polygon fill="#e0e0e0" stroke="#999999" points="61,-77.5 0,-77.5 0,-56.75 61,-56.75 61,-77.5"/>
<text text-anchor="middle" x="30.5" y="-64" font-family="Helvetica,sans-Serif" font-size="10.00">stdbool.h</text>
</a>
</g>
</g>
<!-- Node1&#45;&gt;Node2 -->
<g id="edge1_Node000001_Node000002" class="edge">
<title>Node1&#45;&gt;Node2</title>
<g id="a_edge1_Node000001_Node000002"><a xlink:title=" ">
<path fill="none" stroke="#63b8ff" d="M211.75,-231.2C184.71,-225.19 144.2,-213.13 115.5,-191 79.19,-163 52.5,-115.09 39.46,-88.11"/>
<polygon fill="#63b8ff" stroke="#63b8ff" points="42.75,-86.9 35.35,-79.32 36.41,-89.86 42.75,-86.9"/>
</a>
</g>
</g>
<!-- Node3 -->
<g id="Node000003" class="node">
<title>Node3</title>
<g id="a_Node000003"><a xlink:title=" ">
<polygon fill="#e0e0e0" stroke="#999999" points="434,-134.25 379,-134.25 379,-113.5 434,-113.5 434,-134.25"/>
<text text-anchor="middle" x="406.5" y="-120.75" font-family="Helvetica,sans-Serif" font-size="10.00">stddef.h</text>
</a>
</g>
</g>
<!-- Node1&#45;&gt;Node3 -->
<g id="edge2_Node000001_Node000003" class="edge">
<title>Node1&#45;&gt;Node3</title>
<g id="a_edge2_Node000001_Node000003"><a xlink:title=" ">
<path fill="none" stroke="#63b8ff" d="M268.99,-233.09C313.42,-227.31 395.96,-213.74 413.5,-191 423.42,-178.15 420.33,-159.46 415.53,-145.23"/>
<polygon fill="#63b8ff" stroke="#63b8ff" points="418.8,-143.99 411.89,-135.96 412.28,-146.55 418.8,-143.99"/>
</a>
</g>
</g>
<!-- Node4 -->
<g id="Node000004" class="node">
<title>Node4</title>
<g id="a_Node000004"><a xlink:href="vlcb_8h.html" target="_top" xlink:title=" ">
<polygon fill="white" stroke="#666666" points="335.75,-134.25 255.25,-134.25 255.25,-113.5 335.75,-113.5 335.75,-134.25"/>
<text text-anchor="middle" x="295.5" y="-120.75" font-family="Helvetica,sans-Serif" font-size="10.00">packet/vlcb.h</text>
</a>
</g>
</g>
<!-- Node1&#45;&gt;Node4 -->
<g id="edge3_Node000001_Node000004" class="edge">
<title>Node1&#45;&gt;Node4</title>
<g id="a_edge3_Node000001_Node000004"><a xlink:title=" ">
<path fill="none" stroke="#63b8ff" d="M242.09,-226.51C244.51,-213.19 249.88,-188.94 259.5,-170.25 264.53,-160.48 271.82,-150.79 278.53,-142.88"/>
<polygon fill="#63b8ff" stroke="#63b8ff" points="280.92,-145.45 284.96,-135.66 275.7,-140.8 280.92,-145.45"/>
</a>
</g>
</g>
<!-- Node9 -->
<g id="Node000009" class="node">
<title>Node9</title>
<g id="a_Node000009"><a xlink:href="addr_8h.html" target="_top" xlink:title=" ">
<polygon fill="white" stroke="#666666" points="212.5,-191 124.5,-191 124.5,-170.25 212.5,-170.25 212.5,-191"/>
<text text-anchor="middle" x="168.5" y="-177.5" font-family="Helvetica,sans-Serif" font-size="10.00">vlcb/net/addr.h</text>
</a>
</g>
</g>
<!-- Node1&#45;&gt;Node9 -->
<g id="edge8_Node000001_Node000009" class="edge">
<title>Node1&#45;&gt;Node9</title>
<g id="a_edge8_Node000001_Node000009"><a xlink:title=" ">
<path fill="none" stroke="#63b8ff" d="M227.63,-226.59C217.29,-218.72 202.53,-207.5 190.35,-198.24"/>
<polygon fill="#63b8ff" stroke="#63b8ff" points="192.54,-195.51 182.47,-192.24 188.31,-201.08 192.54,-195.51"/>
</a>
</g>
</g>
<!-- Node11 -->
<g id="Node000011" class="node">
<title>Node11</title>
<g id="a_Node000011"><a xlink:href="interface_8h.html" target="_top" xlink:title=" ">
<polygon fill="white" stroke="#666666" points="404.88,-191 268.12,-191 268.12,-170.25 404.88,-170.25 404.88,-191"/>
<text text-anchor="middle" x="336.5" y="-177.5" font-family="Helvetica,sans-Serif" font-size="10.00">vlcb/platform/interface.h</text>
</a>
</g>
</g>
<!-- Node1&#45;&gt;Node11 -->
<g id="edge14_Node000001_Node000011" class="edge">
<title>Node1&#45;&gt;Node11</title>
<g id="a_edge14_Node000001_Node000011"><a xlink:title=" ">
<path fill="none" stroke="#63b8ff" d="M257.66,-226.59C272.13,-218.33 293.09,-206.38 309.76,-196.88"/>
<polygon fill="#63b8ff" stroke="#63b8ff" points="311.22,-200.07 318.17,-192.08 307.75,-193.99 311.22,-200.07"/>
</a>
</g>
</g>
<!-- Node5 -->
<g id="Node000005" class="node">
<title>Node5</title>
<g id="a_Node000005"><a xlink:title=" ">
<polygon fill="#e0e0e0" stroke="#999999" points="340.88,-77.5 276.12,-77.5 276.12,-56.75 340.88,-56.75 340.88,-77.5"/>
<text text-anchor="middle" x="308.5" y="-64" font-family="Helvetica,sans-Serif" font-size="10.00">inttypes.h</text>
</a>
</g>
</g>
<!-- Node4&#45;&gt;Node5 -->
<g id="edge4_Node000004_Node000005" class="edge">
<title>Node4&#45;&gt;Node5</title>
<g id="a_edge4_Node000004_Node000005"><a xlink:title=" ">
<path fill="none" stroke="#63b8ff" d="M297.82,-113.09C299.41,-106.39 301.58,-97.26 303.55,-88.98"/>
<polygon fill="#63b8ff" stroke="#63b8ff" points="306.94,-89.84 305.85,-79.3 300.13,-88.22 306.94,-89.84"/>
</a>
</g>
</g>
<!-- Node6 -->
<g id="Node000006" class="node">
<title>Node6</title>
<g id="a_Node000006"><a xlink:href="vlcb__defs_8h.html" target="_top" xlink:title=" ">
<polygon fill="white" stroke="#666666" points="257.75,-77.5 117.25,-77.5 117.25,-56.75 257.75,-56.75 257.75,-77.5"/>
<text text-anchor="middle" x="187.5" y="-64" font-family="Helvetica,sans-Serif" font-size="10.00">vlcb/common/vlcb_defs.h</text>
</a>
</g>
</g>
<!-- Node4&#45;&gt;Node6 -->
<g id="edge5_Node000004_Node000006" class="edge">
<title>Node4&#45;&gt;Node6</title>
<g id="a_edge5_Node000004_Node000006"><a xlink:title=" ">
<path fill="none" stroke="#63b8ff" d="M276.19,-113.09C259.68,-104.72 235.67,-92.54 216.79,-82.97"/>
<polygon fill="#63b8ff" stroke="#63b8ff" points="218.49,-79.91 207.99,-78.51 215.33,-86.16 218.49,-79.91"/>
</a>
</g>
</g>
<!-- Node8 -->
<g id="Node000008" class="node">
<title>Node8</title>
<g id="a_Node000008"><a xlink:href="error_8h.html" target="_top" xlink:title=" ">
<polygon fill="white" stroke="#666666" points="474.38,-77.5 358.62,-77.5 358.62,-56.75 474.38,-56.75 474.38,-77.5"/>
<text text-anchor="middle" x="416.5" y="-64" font-family="Helvetica,sans-Serif" font-size="10.00">vlcb/platform/error.h</text>
</a>
</g>
</g>
<!-- Node4&#45;&gt;Node8 -->
<g id="edge7_Node000004_Node000008" class="edge">
<title>Node4&#45;&gt;Node8</title>
<g id="a_edge7_Node000004_Node000008"><a xlink:title=" ">
<path fill="none" stroke="#63b8ff" d="M317.13,-113.09C335.97,-104.56 363.54,-92.09 384.86,-82.44"/>
<polygon fill="#63b8ff" stroke="#63b8ff" points="386.01,-85.76 393.68,-78.45 383.12,-79.39 386.01,-85.76"/>
</a>
</g>
</g>
<!-- Node7 -->
<g id="Node000007" class="node">
<title>Node7</title>
<g id="a_Node000007"><a xlink:title=" ">
<polygon fill="#e0e0e0" stroke="#999999" points="164.88,-20.75 112.12,-20.75 112.12,0 164.88,0 164.88,-20.75"/>
<text text-anchor="middle" x="138.5" y="-7.25" font-family="Helvetica,sans-Serif" font-size="10.00">stdint.h</text>
</a>
</g>
</g>
<!-- Node6&#45;&gt;Node7 -->
<g id="edge6_Node000006_Node000007" class="edge">
<title>Node6&#45;&gt;Node7</title>
<g id="a_edge6_Node000006_Node000007"><a xlink:title=" ">
<path fill="none" stroke="#63b8ff" d="M178.74,-56.34C172.05,-48.86 162.65,-38.36 154.61,-29.38"/>
<polygon fill="#63b8ff" stroke="#63b8ff" points="157.47,-27.32 148.19,-22.21 152.25,-31.99 157.47,-27.32"/>
</a>
</g>
</g>
<!-- Node10 -->
<g id="Node000010" class="node">
<title>Node10</title>
<g id="a_Node000010"><a xlink:href="common_2inc_2vlcb_2common_2can_8h.html" target="_top" xlink:title=" ">
<polygon fill="white" stroke="#666666" points="224.12,-134.25 112.88,-134.25 112.88,-113.5 224.12,-113.5 224.12,-134.25"/>
<text text-anchor="middle" x="168.5" y="-120.75" font-family="Helvetica,sans-Serif" font-size="10.00">vlcb/common/can.h</text>
</a>
</g>
</g>
<!-- Node9&#45;&gt;Node10 -->
<g id="edge9_Node000009_Node000010" class="edge">
<title>Node9&#45;&gt;Node10</title>
<g id="a_edge9_Node000009_Node000010"><a xlink:title=" ">
<path fill="none" stroke="#63b8ff" d="M168.5,-169.84C168.5,-163.22 168.5,-154.22 168.5,-146.02"/>
<polygon fill="#63b8ff" stroke="#63b8ff" points="172,-146.09 168.5,-136.09 165,-146.09 172,-146.09"/>
</a>
</g>
</g>
<!-- Node10&#45;&gt;Node2 -->
<g id="edge11_Node000010_Node000002" class="edge">
<title>Node10&#45;&gt;Node2</title>
<g id="a_edge11_Node000010_Node000002"><a xlink:title=" ">
<path fill="none" stroke="#63b8ff" d="M143.83,-113.09C122.05,-104.44 90.04,-91.75 65.59,-82.05"/>
<polygon fill="#63b8ff" stroke="#63b8ff" points="66.95,-78.82 56.36,-78.39 64.37,-85.33 66.95,-78.82"/>
</a>
</g>
</g>
<!-- Node10&#45;&gt;Node5 -->
<g id="edge10_Node000010_Node000005" class="edge">
<title>Node10&#45;&gt;Node5</title>
<g id="a_edge10_Node000010_Node000005"><a xlink:title=" ">
<path fill="none" stroke="#63b8ff" d="M193.53,-113.09C215.73,-104.41 248.39,-91.63 273.23,-81.92"/>
<polygon fill="#63b8ff" stroke="#63b8ff" points="274.24,-85.28 282.28,-78.38 271.69,-78.76 274.24,-85.28"/>
</a>
</g>
</g>
<!-- Node10&#45;&gt;Node6 -->
<g id="edge13_Node000010_Node000006" class="edge">
<title>Node10&#45;&gt;Node6</title>
<g id="a_edge13_Node000010_Node000006"><a xlink:title=" ">
<path fill="none" stroke="#63b8ff" d="M171.9,-113.09C174.25,-106.31 177.46,-97.05 180.36,-88.69"/>
<polygon fill="#63b8ff" stroke="#63b8ff" points="183.66,-89.85 183.64,-79.26 177.05,-87.56 183.66,-89.85"/>
</a>
</g>
</g>
<!-- Node10&#45;&gt;Node7 -->
<g id="edge12_Node000010_Node000007" class="edge">
<title>Node10&#45;&gt;Node7</title>
<g id="a_edge12_Node000010_Node000007"><a xlink:title=" ">
<path fill="none" stroke="#63b8ff" d="M147.13,-113.13C133.34,-105.56 116.53,-93.64 108.5,-77.5 100.55,-61.52 110.58,-42.98 121.12,-29.61"/>
<polygon fill="#63b8ff" stroke="#63b8ff" points="123.77,-31.89 127.66,-22.04 118.47,-27.32 123.77,-31.89"/>
</a>
</g>
</g>
<!-- Node11&#45;&gt;Node3 -->
<g id="edge15_Node000011_Node000003" class="edge">
<title>Node11&#45;&gt;Node3</title>
<g id="a_edge15_Node000011_Node000003"><a xlink:title=" ">
<path fill="none" stroke="#63b8ff" d="M349.01,-169.84C359.07,-161.97 373.41,-150.75 385.26,-141.49"/>
<polygon fill="#63b8ff" stroke="#63b8ff" points="387.18,-144.43 392.9,-135.51 382.87,-138.91 387.18,-144.43"/>
</a>
</g>
</g>
</g>
</svg>
