<?xml version="1.0" encoding="UTF-8" standalone="no"?>
<!DOCTYPE svg PUBLIC "-//W3C//DTD SVG 1.1//EN"
 "http://www.w3.org/Graphics/SVG/1.1/DTD/svg11.dtd">
<!-- Generated by graphviz version 12.1.2 (20240928.0832)
 -->
<!-- Title: socket.h Pages: 1 -->
<svg width="839pt" height="269pt"
 viewBox="0.00 0.00 839.25 268.50" xmlns="http://www.w3.org/2000/svg" xmlns:xlink="http://www.w3.org/1999/xlink">
<g id="graph0" class="graph" transform="scale(1 1) rotate(0) translate(4 264.5)">
<title>socket.h</title>
<!-- Node1 -->
<g id="Node000001" class="node">
<title>Node1</title>
<g id="a_Node000001"><a xlink:title=" ">
<polygon fill="#999999" stroke="#666666" points="610.12,-260.5 553.62,-260.5 553.62,-239.75 610.12,-239.75 610.12,-260.5"/>
<text text-anchor="middle" x="581.88" y="-247" font-family="Helvetica,sans-Serif" font-size="10.00">socket.h</text>
</a>
</g>
</g>
<!-- Node2 -->
<g id="Node000002" class="node">
<title>Node2</title>
<g id="a_Node000002"><a xlink:title=" ">
<polygon fill="#e0e0e0" stroke="#999999" points="625.38,-77.5 564.38,-77.5 564.38,-56.75 625.38,-56.75 625.38,-77.5"/>
<text text-anchor="middle" x="594.88" y="-64" font-family="Helvetica,sans-Serif" font-size="10.00">stdbool.h</text>
</a>
</g>
</g>
<!-- Node1&#45;&gt;Node2 -->
<g id="edge1_Node000001_Node000002" class="edge">
<title>Node1&#45;&gt;Node2</title>
<g id="a_edge1_Node000001_Node000002"><a xlink:title=" ">
<path fill="none" stroke="#63b8ff" d="M590.08,-239.45C596.88,-230.74 606.03,-217.29 609.88,-203.75 621.15,-164.03 610.11,-115.52 601.93,-88.61"/>
<polygon fill="#63b8ff" stroke="#63b8ff" points="605.33,-87.75 598.92,-79.31 598.67,-89.9 605.33,-87.75"/>
</a>
</g>
</g>
<!-- Node3 -->
<g id="Node000003" class="node">
<title>Node3</title>
<g id="a_Node000003"><a xlink:title=" ">
<polygon fill="#e0e0e0" stroke="#999999" points="712.38,-134.25 657.38,-134.25 657.38,-113.5 712.38,-113.5 712.38,-134.25"/>
<text text-anchor="middle" x="684.88" y="-120.75" font-family="Helvetica,sans-Serif" font-size="10.00">stddef.h</text>
</a>
</g>
</g>
<!-- Node1&#45;&gt;Node3 -->
<g id="edge2_Node000001_Node000003" class="edge">
<title>Node1&#45;&gt;Node3</title>
<g id="a_edge2_Node000001_Node000003"><a xlink:title=" ">
<path fill="none" stroke="#63b8ff" d="M599.02,-239.28C612.24,-231.06 630.31,-218.36 642.88,-203.75 658.08,-186.07 669.91,-161.96 677.08,-145.06"/>
<polygon fill="#63b8ff" stroke="#63b8ff" points="680.21,-146.67 680.72,-136.09 673.72,-144.04 680.21,-146.67"/>
</a>
</g>
</g>
<!-- Node4 -->
<g id="Node000004" class="node">
<title>Node4</title>
<g id="a_Node000004"><a xlink:href="vlcb_8h.html" target="_top" xlink:title=" ">
<polygon fill="white" stroke="#666666" points="206.12,-134.25 125.62,-134.25 125.62,-113.5 206.12,-113.5 206.12,-134.25"/>
<text text-anchor="middle" x="165.88" y="-120.75" font-family="Helvetica,sans-Serif" font-size="10.00">packet/vlcb.h</text>
</a>
</g>
</g>
<!-- Node1&#45;&gt;Node4 -->
<g id="edge3_Node000001_Node000004" class="edge">
<title>Node1&#45;&gt;Node4</title>
<g id="a_edge3_Node000001_Node000004"><a xlink:title=" ">
<path fill="none" stroke="#63b8ff" d="M553.25,-245.21C509.92,-238.88 425.35,-224.92 355.88,-203.75 297.73,-186.03 232.92,-157.01 196,-139.54"/>
<polygon fill="#63b8ff" stroke="#63b8ff" points="197.82,-136.53 187.29,-135.38 194.8,-142.85 197.82,-136.53"/>
</a>
</g>
</g>
<!-- Node9 -->
<g id="Node000009" class="node">
<title>Node9</title>
<g id="a_Node000009"><a xlink:href="addr_8h.html" target="_top" xlink:title=" ">
<polygon fill="white" stroke="#666666" points="452.88,-197.38 364.88,-197.38 364.88,-176.62 452.88,-176.62 452.88,-197.38"/>
<text text-anchor="middle" x="408.88" y="-183.88" font-family="Helvetica,sans-Serif" font-size="10.00">vlcb/net/addr.h</text>
</a>
</g>
</g>
<!-- Node1&#45;&gt;Node9 -->
<g id="edge8_Node000001_Node000009" class="edge">
<title>Node1&#45;&gt;Node9</title>
<g id="a_edge8_Node000001_Node000009"><a xlink:title=" ">
<path fill="none" stroke="#63b8ff" d="M554.08,-239.3C525.2,-229.1 479.79,-213.06 447.45,-201.63"/>
<polygon fill="#63b8ff" stroke="#63b8ff" points="448.62,-198.33 438.03,-198.3 446.29,-204.93 448.62,-198.33"/>
</a>
</g>
</g>
<!-- Node12 -->
<g id="Node000012" class="node">
<title>Node12</title>
<g id="a_Node000012"><a xlink:href="packet__buf_8h.html" target="_top" xlink:title=" ">
<polygon fill="white" stroke="#666666" points="600.88,-203.75 470.88,-203.75 470.88,-170.25 600.88,-170.25 600.88,-203.75"/>
<text text-anchor="start" x="478.88" y="-190.25" font-family="Helvetica,sans-Serif" font-size="10.00">vlcb/net/storage/packet</text>
<text text-anchor="middle" x="535.88" y="-177.5" font-family="Helvetica,sans-Serif" font-size="10.00">_buf.h</text>
</a>
</g>
</g>
<!-- Node1&#45;&gt;Node12 -->
<g id="edge17_Node000001_Node000012" class="edge">
<title>Node1&#45;&gt;Node12</title>
<g id="a_edge17_Node000001_Node000012"><a xlink:title=" ">
<path fill="none" stroke="#63b8ff" d="M574.48,-239.3C569.21,-232.29 561.85,-222.52 554.98,-213.38"/>
<polygon fill="#63b8ff" stroke="#63b8ff" points="557.81,-211.33 549,-205.44 552.22,-215.54 557.81,-211.33"/>
</a>
</g>
</g>
<!-- Node13 -->
<g id="Node000013" class="node">
<title>Node13</title>
<g id="a_Node000013"><a xlink:href="interface_8h.html" target="_top" xlink:title=" ">
<polygon fill="white" stroke="#666666" points="831.25,-197.38 694.5,-197.38 694.5,-176.62 831.25,-176.62 831.25,-197.38"/>
<text text-anchor="middle" x="762.88" y="-183.88" font-family="Helvetica,sans-Serif" font-size="10.00">vlcb/platform/interface.h</text>
</a>
</g>
</g>
<!-- Node1&#45;&gt;Node13 -->
<g id="edge21_Node000001_Node000013" class="edge">
<title>Node1&#45;&gt;Node13</title>
<g id="a_edge21_Node000001_Node000013"><a xlink:title=" ">
<path fill="none" stroke="#63b8ff" d="M610.55,-239.44C640.96,-229.17 689.19,-212.88 723.22,-201.39"/>
<polygon fill="#63b8ff" stroke="#63b8ff" points="723.94,-204.84 732.3,-198.33 721.7,-198.21 723.94,-204.84"/>
</a>
</g>
</g>
<!-- Node5 -->
<g id="Node000005" class="node">
<title>Node5</title>
<g id="a_Node000005"><a xlink:title=" ">
<polygon fill="#e0e0e0" stroke="#999999" points="198.25,-77.5 133.5,-77.5 133.5,-56.75 198.25,-56.75 198.25,-77.5"/>
<text text-anchor="middle" x="165.88" y="-64" font-family="Helvetica,sans-Serif" font-size="10.00">inttypes.h</text>
</a>
</g>
</g>
<!-- Node4&#45;&gt;Node5 -->
<g id="edge4_Node000004_Node000005" class="edge">
<title>Node4&#45;&gt;Node5</title>
<g id="a_edge4_Node000004_Node000005"><a xlink:title=" ">
<path fill="none" stroke="#63b8ff" d="M165.88,-113.09C165.88,-106.47 165.88,-97.47 165.88,-89.27"/>
<polygon fill="#63b8ff" stroke="#63b8ff" points="169.38,-89.34 165.88,-79.34 162.38,-89.34 169.38,-89.34"/>
</a>
</g>
</g>
<!-- Node6 -->
<g id="Node000006" class="node">
<title>Node6</title>
<g id="a_Node000006"><a xlink:href="opcode_8h.html" target="_top" xlink:title=" ">
<polygon fill="white" stroke="#666666" points="345.5,-77.5 216.25,-77.5 216.25,-56.75 345.5,-56.75 345.5,-77.5"/>
<text text-anchor="middle" x="280.88" y="-64" font-family="Helvetica,sans-Serif" font-size="10.00">vlcb/common/opcode.h</text>
</a>
</g>
</g>
<!-- Node4&#45;&gt;Node6 -->
<g id="edge5_Node000004_Node000006" class="edge">
<title>Node4&#45;&gt;Node6</title>
<g id="a_edge5_Node000004_Node000006"><a xlink:title=" ">
<path fill="none" stroke="#63b8ff" d="M186.43,-113.09C204.18,-104.64 230.06,-92.32 250.24,-82.71"/>
<polygon fill="#63b8ff" stroke="#63b8ff" points="251.6,-85.94 259.13,-78.48 248.59,-79.62 251.6,-85.94"/>
</a>
</g>
</g>
<!-- Node8 -->
<g id="Node000008" class="node">
<title>Node8</title>
<g id="a_Node000008"><a xlink:href="error_8h.html" target="_top" xlink:title=" ">
<polygon fill="white" stroke="#666666" points="115.75,-77.5 0,-77.5 0,-56.75 115.75,-56.75 115.75,-77.5"/>
<text text-anchor="middle" x="57.88" y="-64" font-family="Helvetica,sans-Serif" font-size="10.00">vlcb/platform/error.h</text>
</a>
</g>
</g>
<!-- Node4&#45;&gt;Node8 -->
<g id="edge7_Node000004_Node000008" class="edge">
<title>Node4&#45;&gt;Node8</title>
<g id="a_edge7_Node000004_Node000008"><a xlink:title=" ">
<path fill="none" stroke="#63b8ff" d="M146.57,-113.09C130.06,-104.72 106.04,-92.54 87.17,-82.97"/>
<polygon fill="#63b8ff" stroke="#63b8ff" points="88.87,-79.91 78.37,-78.51 85.7,-86.16 88.87,-79.91"/>
</a>
</g>
</g>
<!-- Node7 -->
<g id="Node000007" class="node">
<title>Node7</title>
<g id="a_Node000007"><a xlink:title=" ">
<polygon fill="#e0e0e0" stroke="#999999" points="438.25,-20.75 385.5,-20.75 385.5,0 438.25,0 438.25,-20.75"/>
<text text-anchor="middle" x="411.88" y="-7.25" font-family="Helvetica,sans-Serif" font-size="10.00">stdint.h</text>
</a>
</g>
</g>
<!-- Node6&#45;&gt;Node7 -->
<g id="edge6_Node000006_Node000007" class="edge">
<title>Node6&#45;&gt;Node7</title>
<g id="a_edge6_Node000006_Node000007"><a xlink:title=" ">
<path fill="none" stroke="#63b8ff" d="M304.3,-56.34C324.88,-47.73 355.08,-35.11 378.25,-25.43"/>
<polygon fill="#63b8ff" stroke="#63b8ff" points="379.38,-28.75 387.26,-21.66 376.68,-22.29 379.38,-28.75"/>
</a>
</g>
</g>
<!-- Node9&#45;&gt;Node7 -->
<g id="edge16_Node000009_Node000007" class="edge">
<title>Node9&#45;&gt;Node7</title>
<g id="a_edge16_Node000009_Node000007"><a xlink:title=" ">
<path fill="none" stroke="#63b8ff" d="M431.38,-176.29C447.86,-167.82 469.01,-153.82 478.88,-134.25 498.16,-96.02 459.14,-52.2 432.96,-28.6"/>
<polygon fill="#63b8ff" stroke="#63b8ff" points="435.34,-26.03 425.49,-22.13 430.75,-31.32 435.34,-26.03"/>
</a>
</g>
</g>
<!-- Node10 -->
<g id="Node000010" class="node">
<title>Node10</title>
<g id="a_Node000010"><a xlink:href="common_2inc_2vlcb_2common_2can_8h.html" target="_top" xlink:title=" ">
<polygon fill="white" stroke="#666666" points="335.5,-134.25 224.25,-134.25 224.25,-113.5 335.5,-113.5 335.5,-134.25"/>
<text text-anchor="middle" x="279.88" y="-120.75" font-family="Helvetica,sans-Serif" font-size="10.00">vlcb/common/can.h</text>
</a>
</g>
</g>
<!-- Node9&#45;&gt;Node10 -->
<g id="edge9_Node000009_Node000010" class="edge">
<title>Node9&#45;&gt;Node10</title>
<g id="a_edge9_Node000009_Node000010"><a xlink:title=" ">
<path fill="none" stroke="#63b8ff" d="M388.15,-176.18C367.27,-166.29 334.81,-150.91 310.88,-139.56"/>
<polygon fill="#63b8ff" stroke="#63b8ff" points="312.45,-136.44 301.92,-135.32 309.46,-142.76 312.45,-136.44"/>
</a>
</g>
</g>
<!-- Node11 -->
<g id="Node000011" class="node">
<title>Node11</title>
<g id="a_Node000011"><a xlink:href="time_8h.html" target="_top" xlink:title=" ">
<polygon fill="white" stroke="#666666" points="469.75,-134.25 354,-134.25 354,-113.5 469.75,-113.5 469.75,-134.25"/>
<text text-anchor="middle" x="411.88" y="-120.75" font-family="Helvetica,sans-Serif" font-size="10.00">vlcb/platform/time.h</text>
</a>
</g>
</g>
<!-- Node9&#45;&gt;Node11 -->
<g id="edge14_Node000009_Node000011" class="edge">
<title>Node9&#45;&gt;Node11</title>
<g id="a_edge14_Node000009_Node000011"><a xlink:title=" ">
<path fill="none" stroke="#63b8ff" d="M409.36,-176.18C409.76,-168.02 410.34,-156.13 410.85,-145.85"/>
<polygon fill="#63b8ff" stroke="#63b8ff" points="414.34,-146.14 411.33,-135.98 407.34,-145.8 414.34,-146.14"/>
</a>
</g>
</g>
<!-- Node10&#45;&gt;Node2 -->
<g id="edge11_Node000010_Node000002" class="edge">
<title>Node10&#45;&gt;Node2</title>
<g id="a_edge11_Node000010_Node000002"><a xlink:title=" ">
<path fill="none" stroke="#63b8ff" d="M335.83,-113.15C398.05,-102.33 497.14,-85.11 553.01,-75.4"/>
<polygon fill="#63b8ff" stroke="#63b8ff" points="553.5,-78.87 562.75,-73.71 552.3,-71.97 553.5,-78.87"/>
</a>
</g>
</g>
<!-- Node10&#45;&gt;Node5 -->
<g id="edge10_Node000010_Node000005" class="edge">
<title>Node10&#45;&gt;Node5</title>
<g id="a_edge10_Node000010_Node000005"><a xlink:title=" ">
<path fill="none" stroke="#63b8ff" d="M259.49,-113.09C241.91,-104.64 216.25,-92.32 196.24,-82.71"/>
<polygon fill="#63b8ff" stroke="#63b8ff" points="197.97,-79.66 187.44,-78.48 194.94,-85.97 197.97,-79.66"/>
</a>
</g>
</g>
<!-- Node10&#45;&gt;Node6 -->
<g id="edge13_Node000010_Node000006" class="edge">
<title>Node10&#45;&gt;Node6</title>
<g id="a_edge13_Node000010_Node000006"><a xlink:title=" ">
<path fill="none" stroke="#63b8ff" d="M280.05,-113.09C280.17,-106.47 280.34,-97.47 280.49,-89.27"/>
<polygon fill="#63b8ff" stroke="#63b8ff" points="283.99,-89.4 280.67,-79.34 276.99,-89.28 283.99,-89.4"/>
</a>
</g>
</g>
<!-- Node10&#45;&gt;Node7 -->
<g id="edge12_Node000010_Node000007" class="edge">
<title>Node10&#45;&gt;Node7</title>
<g id="a_edge12_Node000010_Node000007"><a xlink:title=" ">
<path fill="none" stroke="#63b8ff" d="M299.79,-113.06C315.6,-104.76 337.79,-91.94 354.88,-77.5 371.45,-63.49 387.33,-44.45 398.09,-30.41"/>
<polygon fill="#63b8ff" stroke="#63b8ff" points="400.88,-32.52 404.06,-22.41 395.27,-28.33 400.88,-32.52"/>
</a>
</g>
</g>
<!-- Node11&#45;&gt;Node7 -->
<g id="edge15_Node000011_Node000007" class="edge">
<title>Node11&#45;&gt;Node7</title>
<g id="a_edge15_Node000011_Node000007"><a xlink:title=" ">
<path fill="none" stroke="#63b8ff" d="M411.88,-113.37C411.88,-95.6 411.88,-56.97 411.88,-32.68"/>
<polygon fill="#63b8ff" stroke="#63b8ff" points="415.38,-32.69 411.88,-22.69 408.38,-32.69 415.38,-32.69"/>
</a>
</g>
</g>
<!-- Node12&#45;&gt;Node2 -->
<g id="edge18_Node000012_Node000002" class="edge">
<title>Node12&#45;&gt;Node2</title>
<g id="a_edge18_Node000012_Node000002"><a xlink:title=" ">
<path fill="none" stroke="#63b8ff" d="M543.83,-170.1C554.48,-148.83 573.37,-111.09 584.94,-87.97"/>
<polygon fill="#63b8ff" stroke="#63b8ff" points="587.94,-89.8 589.29,-79.29 581.68,-86.66 587.94,-89.8"/>
</a>
</g>
</g>
<!-- Node12&#45;&gt;Node3 -->
<g id="edge19_Node000012_Node000003" class="edge">
<title>Node12&#45;&gt;Node3</title>
<g id="a_edge19_Node000012_Node000003"><a xlink:title=" ">
<path fill="none" stroke="#63b8ff" d="M575.41,-169.78C598.83,-160.18 628.2,-148.13 650.62,-138.93"/>
<polygon fill="#63b8ff" stroke="#63b8ff" points="651.69,-142.27 659.61,-135.24 649.03,-135.8 651.69,-142.27"/>
</a>
</g>
</g>
<!-- Node12&#45;&gt;Node7 -->
<g id="edge20_Node000012_Node000007" class="edge">
<title>Node12&#45;&gt;Node7</title>
<g id="a_edge20_Node000012_Node000007"><a xlink:title=" ">
<path fill="none" stroke="#63b8ff" d="M532.31,-170.1C525.81,-144.02 509.95,-91.57 480.88,-56.75 470.65,-44.51 456.28,-34.33 443.3,-26.75"/>
<polygon fill="#63b8ff" stroke="#63b8ff" points="445.06,-23.72 434.62,-21.96 441.68,-29.85 445.06,-23.72"/>
</a>
</g>
</g>
<!-- Node13&#45;&gt;Node3 -->
<g id="edge22_Node000013_Node000003" class="edge">
<title>Node13&#45;&gt;Node3</title>
<g id="a_edge22_Node000013_Node000003"><a xlink:title=" ">
<path fill="none" stroke="#63b8ff" d="M750.34,-176.18C738.52,-166.91 720.54,-152.83 706.42,-141.76"/>
<polygon fill="#63b8ff" stroke="#63b8ff" points="708.6,-139.02 698.57,-135.61 704.28,-144.53 708.6,-139.02"/>
</a>
</g>
</g>
</g>
</svg>
