<?xml version="1.0" encoding="UTF-8" standalone="no"?>
<!DOCTYPE svg PUBLIC "-//W3C//DTD SVG 1.1//EN"
 "http://www.w3.org/Graphics/SVG/1.1/DTD/svg11.dtd">
<!-- Generated by graphviz version 12.1.2 (20240928.0832)
 -->
<!-- Title: datagram.c Pages: 1 -->
<svg width="851pt" height="313pt"
 viewBox="0.00 0.00 851.12 312.50" xmlns="http://www.w3.org/2000/svg" xmlns:xlink="http://www.w3.org/1999/xlink">
<g id="graph0" class="graph" transform="scale(1 1) rotate(0) translate(4 308.5)">
<title>datagram.c</title>
<!-- Node1 -->
<g id="Node000001" class="node">
<title>Node1</title>
<g id="a_Node000001"><a xlink:title=" ">
<polygon fill="#999999" stroke="#666666" points="575.38,-304.5 503.88,-304.5 503.88,-283.75 575.38,-283.75 575.38,-304.5"/>
<text text-anchor="middle" x="539.62" y="-291" font-family="Helvetica,sans-Serif" font-size="10.00">datagram.c</text>
</a>
</g>
</g>
<!-- Node2 -->
<g id="Node000002" class="node">
<title>Node2</title>
<g id="a_Node000002"><a xlink:href="socket_2datagram_8h.html" target="_top" xlink:title=" ">
<polygon fill="white" stroke="#666666" points="512,-247.75 363.25,-247.75 363.25,-227 512,-227 512,-247.75"/>
<text text-anchor="middle" x="437.62" y="-234.25" font-family="Helvetica,sans-Serif" font-size="10.00">vlcb/net/socket/datagram.h</text>
</a>
</g>
</g>
<!-- Node1&#45;&gt;Node2 -->
<g id="edge1_Node000001_Node000002" class="edge">
<title>Node1&#45;&gt;Node2</title>
<g id="a_edge1_Node000001_Node000002"><a xlink:title=" ">
<path fill="none" stroke="#63b8ff" d="M521.39,-283.34C505.94,-275.05 483.54,-263.02 465.79,-253.49"/>
<polygon fill="#63b8ff" stroke="#63b8ff" points="467.5,-250.44 457.04,-248.79 464.19,-256.61 467.5,-250.44"/>
</a>
</g>
</g>
<!-- Node3 -->
<g id="Node000003" class="node">
<title>Node3</title>
<g id="a_Node000003"><a xlink:href="packet_2datagram_8h.html" target="_top" xlink:title=" ">
<polygon fill="white" stroke="#666666" points="246.88,-134.25 130.38,-134.25 130.38,-113.5 246.88,-113.5 246.88,-134.25"/>
<text text-anchor="middle" x="188.62" y="-120.75" font-family="Helvetica,sans-Serif" font-size="10.00">../packet/datagram.h</text>
</a>
</g>
</g>
<!-- Node1&#45;&gt;Node3 -->
<g id="edge25_Node000001_Node000003" class="edge">
<title>Node1&#45;&gt;Node3</title>
<g id="a_edge25_Node000001_Node000003"><a xlink:title=" ">
<path fill="none" stroke="#63b8ff" d="M503.68,-291.34C459.19,-287.87 382.13,-277.67 323.62,-247.75 272.39,-221.55 225.91,-170.69 203.22,-143.34"/>
<polygon fill="#63b8ff" stroke="#63b8ff" points="206.2,-141.45 197.18,-135.9 200.77,-145.87 206.2,-141.45"/>
</a>
</g>
</g>
<!-- Node8 -->
<g id="Node000008" class="node">
<title>Node8</title>
<g id="a_Node000008"><a xlink:href="socket_8h.html" target="_top" xlink:title=" ">
<polygon fill="white" stroke="#666666" points="545.38,-191 479.88,-191 479.88,-170.25 545.38,-170.25 545.38,-191"/>
<text text-anchor="middle" x="512.62" y="-177.5" font-family="Helvetica,sans-Serif" font-size="10.00">../socket.h</text>
</a>
</g>
</g>
<!-- Node1&#45;&gt;Node8 -->
<g id="edge27_Node000001_Node000008" class="edge">
<title>Node1&#45;&gt;Node8</title>
<g id="a_edge27_Node000001_Node000008"><a xlink:title=" ">
<path fill="none" stroke="#63b8ff" d="M537.32,-283.62C533,-265.77 523.58,-226.86 517.7,-202.59"/>
<polygon fill="#63b8ff" stroke="#63b8ff" points="521.11,-201.79 515.35,-192.9 514.31,-203.44 521.11,-201.79"/>
</a>
</g>
</g>
<!-- Node9 -->
<g id="Node000009" class="node">
<title>Node9</title>
<g id="a_Node000009"><a xlink:title=" ">
<polygon fill="#e0e0e0" stroke="#999999" points="655.12,-134.25 594.12,-134.25 594.12,-113.5 655.12,-113.5 655.12,-134.25"/>
<text text-anchor="middle" x="624.62" y="-120.75" font-family="Helvetica,sans-Serif" font-size="10.00">stdbool.h</text>
</a>
</g>
</g>
<!-- Node1&#45;&gt;Node9 -->
<g id="edge23_Node000001_Node000009" class="edge">
<title>Node1&#45;&gt;Node9</title>
<g id="a_edge23_Node000001_Node000009"><a xlink:title=" ">
<path fill="none" stroke="#63b8ff" d="M543.68,-283.38C552.53,-262.33 574.56,-211.25 596.62,-170.25 601.38,-161.41 607.14,-151.91 612.19,-143.91"/>
<polygon fill="#63b8ff" stroke="#63b8ff" points="615,-146 617.46,-135.69 609.11,-142.21 615,-146"/>
</a>
</g>
</g>
<!-- Node10 -->
<g id="Node000010" class="node">
<title>Node10</title>
<g id="a_Node000010"><a xlink:title=" ">
<polygon fill="#e0e0e0" stroke="#999999" points="643.12,-77.5 588.12,-77.5 588.12,-56.75 643.12,-56.75 643.12,-77.5"/>
<text text-anchor="middle" x="615.62" y="-64" font-family="Helvetica,sans-Serif" font-size="10.00">stddef.h</text>
</a>
</g>
</g>
<!-- Node1&#45;&gt;Node10 -->
<g id="edge24_Node000001_Node000010" class="edge">
<title>Node1&#45;&gt;Node10</title>
<g id="a_edge24_Node000001_Node000010"><a xlink:title=" ">
<path fill="none" stroke="#63b8ff" d="M575.69,-286.64C623.1,-275.97 704.6,-249.72 740.62,-191 768.97,-144.8 697.35,-103.4 651.16,-82.49"/>
<polygon fill="#63b8ff" stroke="#63b8ff" points="652.84,-79.41 642.27,-78.59 650.02,-85.82 652.84,-79.41"/>
</a>
</g>
</g>
<!-- Node11 -->
<g id="Node000011" class="node">
<title>Node11</title>
<g id="a_Node000011"><a xlink:href="vlcb_8h.html" target="_top" xlink:title=" ">
<polygon fill="white" stroke="#666666" points="345.88,-134.25 265.38,-134.25 265.38,-113.5 345.88,-113.5 345.88,-134.25"/>
<text text-anchor="middle" x="305.62" y="-120.75" font-family="Helvetica,sans-Serif" font-size="10.00">packet/vlcb.h</text>
</a>
</g>
</g>
<!-- Node1&#45;&gt;Node11 -->
<g id="edge26_Node000001_Node000011" class="edge">
<title>Node1&#45;&gt;Node11</title>
<g id="a_edge26_Node000001_Node000011"><a xlink:title=" ">
<path fill="none" stroke="#63b8ff" d="M503.52,-289.16C453.22,-282.92 365.62,-269.28 342.62,-247.75 314.12,-221.07 307.3,-173.34 305.84,-145.88"/>
<polygon fill="#63b8ff" stroke="#63b8ff" points="309.34,-145.92 305.53,-136.03 302.34,-146.14 309.34,-145.92"/>
</a>
</g>
</g>
<!-- Node12 -->
<g id="Node000012" class="node">
<title>Node12</title>
<g id="a_Node000012"><a xlink:href="interface_8h.html" target="_top" xlink:title=" ">
<polygon fill="white" stroke="#666666" points="538,-134.25 401.25,-134.25 401.25,-113.5 538,-113.5 538,-134.25"/>
<text text-anchor="middle" x="469.62" y="-120.75" font-family="Helvetica,sans-Serif" font-size="10.00">vlcb/platform/interface.h</text>
</a>
</g>
</g>
<!-- Node1&#45;&gt;Node12 -->
<g id="edge29_Node000001_Node000012" class="edge">
<title>Node1&#45;&gt;Node12</title>
<g id="a_edge29_Node000001_Node000012"><a xlink:title=" ">
<path fill="none" stroke="#63b8ff" d="M503.63,-289.5C455.13,-283.8 372.79,-270.91 354.62,-247.75 321.99,-206.14 392.98,-161.95 437.39,-139.62"/>
<polygon fill="#63b8ff" stroke="#63b8ff" points="438.68,-142.89 446.13,-135.35 435.6,-136.6 438.68,-142.89"/>
</a>
</g>
</g>
<!-- Node13 -->
<g id="Node000013" class="node">
<title>Node13</title>
<g id="a_Node000013"><a xlink:href="packet__buf_8h.html" target="_top" xlink:title=" ">
<polygon fill="white" stroke="#666666" points="731.75,-191 605.5,-191 605.5,-170.25 731.75,-170.25 731.75,-191"/>
<text text-anchor="middle" x="668.62" y="-177.5" font-family="Helvetica,sans-Serif" font-size="10.00">../storage/packet_buf.h</text>
</a>
</g>
</g>
<!-- Node1&#45;&gt;Node13 -->
<g id="edge28_Node000001_Node000013" class="edge">
<title>Node1&#45;&gt;Node13</title>
<g id="a_edge28_Node000001_Node000013"><a xlink:title=" ">
<path fill="none" stroke="#63b8ff" d="M550.62,-283.62C572.41,-264.79 621.32,-222.51 648.84,-198.72"/>
<polygon fill="#63b8ff" stroke="#63b8ff" points="650.86,-201.6 656.14,-192.41 646.29,-196.31 650.86,-201.6"/>
</a>
</g>
</g>
<!-- Node14 -->
<g id="Node000014" class="node">
<title>Node14</title>
<g id="a_Node000014"><a xlink:title=" ">
<polygon fill="#e0e0e0" stroke="#999999" points="843.12,-247.75 788.12,-247.75 788.12,-227 843.12,-227 843.12,-247.75"/>
<text text-anchor="middle" x="815.62" y="-234.25" font-family="Helvetica,sans-Serif" font-size="10.00">assert.h</text>
</a>
</g>
</g>
<!-- Node1&#45;&gt;Node14 -->
<g id="edge22_Node000001_Node000014" class="edge">
<title>Node1&#45;&gt;Node14</title>
<g id="a_edge22_Node000001_Node000014"><a xlink:title=" ">
<path fill="none" stroke="#63b8ff" d="M575.77,-286.44C621.79,-277.86 703.74,-262.32 773.62,-247.75 774.62,-247.54 775.62,-247.33 776.64,-247.12"/>
<polygon fill="#63b8ff" stroke="#63b8ff" points="777.12,-250.59 786.16,-245.06 775.64,-243.75 777.12,-250.59"/>
</a>
</g>
</g>
<!-- Node2&#45;&gt;Node3 -->
<g id="edge2_Node000002_Node000003" class="edge">
<title>Node2&#45;&gt;Node3</title>
<g id="a_edge2_Node000002_Node000003"><a xlink:title=" ">
<path fill="none" stroke="#63b8ff" d="M415.96,-226.68C372,-206.99 272.11,-162.26 220.63,-139.21"/>
<polygon fill="#63b8ff" stroke="#63b8ff" points="222.35,-136.14 211.8,-135.25 219.49,-142.53 222.35,-136.14"/>
</a>
</g>
</g>
<!-- Node6 -->
<g id="Node000006" class="node">
<title>Node6</title>
<g id="a_Node000006"><a xlink:title=" ">
<polygon fill="#e0e0e0" stroke="#999999" points="400,-20.75 347.25,-20.75 347.25,0 400,0 400,-20.75"/>
<text text-anchor="middle" x="373.62" y="-7.25" font-family="Helvetica,sans-Serif" font-size="10.00">stdint.h</text>
</a>
</g>
</g>
<!-- Node2&#45;&gt;Node6 -->
<g id="edge21_Node000002_Node000006" class="edge">
<title>Node2&#45;&gt;Node6</title>
<g id="a_edge21_Node000002_Node000006"><a xlink:title=" ">
<path fill="none" stroke="#63b8ff" d="M432.25,-226.56C422.74,-208.72 402.95,-169.59 392.62,-134.25 382.42,-99.31 377.41,-57.1 375.19,-32.34"/>
<polygon fill="#63b8ff" stroke="#63b8ff" points="378.7,-32.31 374.39,-22.63 371.72,-32.88 378.7,-32.31"/>
</a>
</g>
</g>
<!-- Node2&#45;&gt;Node8 -->
<g id="edge7_Node000002_Node000008" class="edge">
<title>Node2&#45;&gt;Node8</title>
<g id="a_edge7_Node000002_Node000008"><a xlink:title=" ">
<path fill="none" stroke="#63b8ff" d="M451.03,-226.59C461.91,-218.65 477.48,-207.28 490.24,-197.96"/>
<polygon fill="#63b8ff" stroke="#63b8ff" points="492.1,-200.94 498.11,-192.22 487.97,-195.29 492.1,-200.94"/>
</a>
</g>
</g>
<!-- Node2&#45;&gt;Node12 -->
<g id="edge20_Node000002_Node000012" class="edge">
<title>Node2&#45;&gt;Node12</title>
<g id="a_edge20_Node000002_Node000012"><a xlink:title=" ">
<path fill="none" stroke="#63b8ff" d="M440.35,-226.87C445.5,-208.94 456.75,-169.75 463.7,-145.51"/>
<polygon fill="#63b8ff" stroke="#63b8ff" points="467,-146.71 466.39,-136.13 460.27,-144.78 467,-146.71"/>
</a>
</g>
</g>
<!-- Node2&#45;&gt;Node13 -->
<g id="edge16_Node000002_Node000013" class="edge">
<title>Node2&#45;&gt;Node13</title>
<g id="a_edge16_Node000002_Node000013"><a xlink:title=" ">
<path fill="none" stroke="#63b8ff" d="M479.19,-226.52C517.5,-217.44 574.54,-203.92 616.02,-194.09"/>
<polygon fill="#63b8ff" stroke="#63b8ff" points="616.61,-197.55 625.53,-191.84 614.99,-190.74 616.61,-197.55"/>
</a>
</g>
</g>
<!-- Node4 -->
<g id="Node000004" class="node">
<title>Node4</title>
<g id="a_Node000004"><a xlink:title=" ">
<polygon fill="#e0e0e0" stroke="#999999" points="346,-77.5 281.25,-77.5 281.25,-56.75 346,-56.75 346,-77.5"/>
<text text-anchor="middle" x="313.62" y="-64" font-family="Helvetica,sans-Serif" font-size="10.00">inttypes.h</text>
</a>
</g>
</g>
<!-- Node3&#45;&gt;Node4 -->
<g id="edge3_Node000003_Node000004" class="edge">
<title>Node3&#45;&gt;Node4</title>
<g id="a_edge3_Node000003_Node000004"><a xlink:title=" ">
<path fill="none" stroke="#63b8ff" d="M210.97,-113.09C230.44,-104.56 258.91,-92.09 280.93,-82.44"/>
<polygon fill="#63b8ff" stroke="#63b8ff" points="282.33,-85.65 290.08,-78.44 279.52,-79.24 282.33,-85.65"/>
</a>
</g>
</g>
<!-- Node5 -->
<g id="Node000005" class="node">
<title>Node5</title>
<g id="a_Node000005"><a xlink:href="opcode_8h.html" target="_top" xlink:title=" ">
<polygon fill="white" stroke="#666666" points="129.25,-77.5 0,-77.5 0,-56.75 129.25,-56.75 129.25,-77.5"/>
<text text-anchor="middle" x="64.62" y="-64" font-family="Helvetica,sans-Serif" font-size="10.00">vlcb/common/opcode.h</text>
</a>
</g>
</g>
<!-- Node3&#45;&gt;Node5 -->
<g id="edge4_Node000003_Node000005" class="edge">
<title>Node3&#45;&gt;Node5</title>
<g id="a_edge4_Node000003_Node000005"><a xlink:title=" ">
<path fill="none" stroke="#63b8ff" d="M166.46,-113.09C147.15,-104.56 118.9,-92.09 97.05,-82.44"/>
<polygon fill="#63b8ff" stroke="#63b8ff" points="98.55,-79.28 87.99,-78.44 95.72,-85.68 98.55,-79.28"/>
</a>
</g>
</g>
<!-- Node7 -->
<g id="Node000007" class="node">
<title>Node7</title>
<g id="a_Node000007"><a xlink:href="error_8h.html" target="_top" xlink:title=" ">
<polygon fill="white" stroke="#666666" points="263.5,-77.5 147.75,-77.5 147.75,-56.75 263.5,-56.75 263.5,-77.5"/>
<text text-anchor="middle" x="205.62" y="-64" font-family="Helvetica,sans-Serif" font-size="10.00">vlcb/platform/error.h</text>
</a>
</g>
</g>
<!-- Node3&#45;&gt;Node7 -->
<g id="edge6_Node000003_Node000007" class="edge">
<title>Node3&#45;&gt;Node7</title>
<g id="a_edge6_Node000003_Node000007"><a xlink:title=" ">
<path fill="none" stroke="#63b8ff" d="M191.66,-113.09C193.77,-106.31 196.64,-97.05 199.24,-88.69"/>
<polygon fill="#63b8ff" stroke="#63b8ff" points="202.54,-89.86 202.16,-79.27 195.86,-87.79 202.54,-89.86"/>
</a>
</g>
</g>
<!-- Node5&#45;&gt;Node6 -->
<g id="edge5_Node000005_Node000006" class="edge">
<title>Node5&#45;&gt;Node6</title>
<g id="a_edge5_Node000005_Node000006"><a xlink:title=" ">
<path fill="none" stroke="#63b8ff" d="M120.22,-56.27C182.55,-45.23 281.91,-27.63 335.83,-18.07"/>
<polygon fill="#63b8ff" stroke="#63b8ff" points="336.21,-21.56 345.44,-16.37 334.99,-14.67 336.21,-21.56"/>
</a>
</g>
</g>
<!-- Node8&#45;&gt;Node9 -->
<g id="edge8_Node000008_Node000009" class="edge">
<title>Node8&#45;&gt;Node9</title>
<g id="a_edge8_Node000008_Node000009"><a xlink:title=" ">
<path fill="none" stroke="#63b8ff" d="M532.65,-169.84C549.85,-161.43 574.9,-149.18 594.52,-139.59"/>
<polygon fill="#63b8ff" stroke="#63b8ff" points="595.97,-142.78 603.42,-135.24 592.89,-136.49 595.97,-142.78"/>
</a>
</g>
</g>
<!-- Node8&#45;&gt;Node10 -->
<g id="edge9_Node000008_Node000010" class="edge">
<title>Node8&#45;&gt;Node10</title>
<g id="a_edge9_Node000008_Node000010"><a xlink:title=" ">
<path fill="none" stroke="#63b8ff" d="M521.41,-170.12C538.58,-151.53 576.84,-110.11 598.96,-86.16"/>
<polygon fill="#63b8ff" stroke="#63b8ff" points="601.33,-88.76 605.54,-79.04 596.19,-84.01 601.33,-88.76"/>
</a>
</g>
</g>
<!-- Node8&#45;&gt;Node11 -->
<g id="edge10_Node000008_Node000011" class="edge">
<title>Node8&#45;&gt;Node11</title>
<g id="a_edge10_Node000008_Node000011"><a xlink:title=" ">
<path fill="none" stroke="#63b8ff" d="M479.83,-170.95C445.9,-161.98 392.55,-147.87 353.83,-137.62"/>
<polygon fill="#63b8ff" stroke="#63b8ff" points="354.84,-134.27 344.28,-135.1 353.05,-141.04 354.84,-134.27"/>
</a>
</g>
</g>
<!-- Node8&#45;&gt;Node12 -->
<g id="edge14_Node000008_Node000012" class="edge">
<title>Node8&#45;&gt;Node12</title>
<g id="a_edge14_Node000008_Node000012"><a xlink:title=" ">
<path fill="none" stroke="#63b8ff" d="M504.94,-169.84C499.19,-162.52 491.16,-152.29 484.21,-143.44"/>
<polygon fill="#63b8ff" stroke="#63b8ff" points="487.11,-141.47 478.18,-135.77 481.6,-145.8 487.11,-141.47"/>
</a>
</g>
</g>
<!-- Node11&#45;&gt;Node4 -->
<g id="edge11_Node000011_Node000004" class="edge">
<title>Node11&#45;&gt;Node4</title>
<g id="a_edge11_Node000011_Node000004"><a xlink:title=" ">
<path fill="none" stroke="#63b8ff" d="M307.06,-113.09C308.03,-106.39 309.37,-97.26 310.58,-88.98"/>
<polygon fill="#63b8ff" stroke="#63b8ff" points="314.01,-89.73 311.99,-79.33 307.08,-88.71 314.01,-89.73"/>
</a>
</g>
</g>
<!-- Node11&#45;&gt;Node5 -->
<g id="edge12_Node000011_Node000005" class="edge">
<title>Node11&#45;&gt;Node5</title>
<g id="a_edge12_Node000011_Node000005"><a xlink:title=" ">
<path fill="none" stroke="#63b8ff" d="M265.02,-113.65C224.91,-104.54 163.31,-90.54 119,-80.48"/>
<polygon fill="#63b8ff" stroke="#63b8ff" points="119.85,-77.08 109.32,-78.28 118.3,-83.91 119.85,-77.08"/>
</a>
</g>
</g>
<!-- Node11&#45;&gt;Node7 -->
<g id="edge13_Node000011_Node000007" class="edge">
<title>Node11&#45;&gt;Node7</title>
<g id="a_edge13_Node000011_Node000007"><a xlink:title=" ">
<path fill="none" stroke="#63b8ff" d="M287.75,-113.09C272.53,-104.76 250.43,-92.66 232.99,-83.11"/>
<polygon fill="#63b8ff" stroke="#63b8ff" points="235.13,-80.29 224.68,-78.56 231.77,-86.43 235.13,-80.29"/>
</a>
</g>
</g>
<!-- Node12&#45;&gt;Node10 -->
<g id="edge15_Node000012_Node000010" class="edge">
<title>Node12&#45;&gt;Node10</title>
<g id="a_edge15_Node000012_Node000010"><a xlink:title=" ">
<path fill="none" stroke="#63b8ff" d="M495.73,-113.09C518.98,-104.37 553.24,-91.52 579.19,-81.79"/>
<polygon fill="#63b8ff" stroke="#63b8ff" points="580.2,-85.15 588.33,-78.36 577.74,-78.59 580.2,-85.15"/>
</a>
</g>
</g>
<!-- Node13&#45;&gt;Node6 -->
<g id="edge19_Node000013_Node000006" class="edge">
<title>Node13&#45;&gt;Node6</title>
<g id="a_edge19_Node000013_Node000006"><a xlink:title=" ">
<path fill="none" stroke="#63b8ff" d="M672.21,-170.06C675.41,-160.99 679.85,-146.91 681.62,-134.25 686.74,-97.83 682.35,-78.41 652.62,-56.75 614.84,-29.21 478.72,-17.53 411.59,-13.36"/>
<polygon fill="#63b8ff" stroke="#63b8ff" points="411.98,-9.87 401.79,-12.77 411.57,-16.86 411.98,-9.87"/>
</a>
</g>
</g>
<!-- Node13&#45;&gt;Node9 -->
<g id="edge17_Node000013_Node000009" class="edge">
<title>Node13&#45;&gt;Node9</title>
<g id="a_edge17_Node000013_Node000009"><a xlink:title=" ">
<path fill="none" stroke="#63b8ff" d="M660.76,-169.84C654.88,-162.52 646.66,-152.29 639.55,-143.44"/>
<polygon fill="#63b8ff" stroke="#63b8ff" points="642.36,-141.36 633.37,-135.76 636.91,-145.75 642.36,-141.36"/>
</a>
</g>
</g>
<!-- Node13&#45;&gt;Node10 -->
<g id="edge18_Node000013_Node000010" class="edge">
<title>Node13&#45;&gt;Node10</title>
<g id="a_edge18_Node000013_Node000010"><a xlink:title=" ">
<path fill="none" stroke="#63b8ff" d="M670.18,-170.1C671.9,-156.74 673.38,-132 664.62,-113.5 659.27,-102.18 649.71,-92.34 640.45,-84.74"/>
<polygon fill="#63b8ff" stroke="#63b8ff" points="642.74,-82.08 632.66,-78.83 638.51,-87.66 642.74,-82.08"/>
</a>
</g>
</g>
</g>
</svg>
