<?xml version="1.0" encoding="UTF-8" standalone="no"?>
<!DOCTYPE svg PUBLIC "-//W3C//DTD SVG 1.1//EN"
 "http://www.w3.org/Graphics/SVG/1.1/DTD/svg11.dtd">
<!-- Generated by graphviz version 12.1.2 (20240928.0832)
 -->
<!-- Title: datagram.h Pages: 1 -->
<svg width="582pt" height="256pt"
 viewBox="0.00 0.00 582.04 255.75" xmlns="http://www.w3.org/2000/svg" xmlns:xlink="http://www.w3.org/1999/xlink">
<g id="graph0" class="graph" transform="scale(1 1) rotate(0) translate(4 251.75)">
<title>datagram.h</title>
<!-- Node1 -->
<g id="Node000001" class="node">
<title>Node1</title>
<g id="a_Node000001"><a xlink:title=" ">
<polygon fill="#999999" stroke="#666666" points="332.04,-247.75 259.79,-247.75 259.79,-227 332.04,-227 332.04,-247.75"/>
<text text-anchor="middle" x="295.92" y="-234.25" font-family="Helvetica,sans-Serif" font-size="10.00">datagram.h</text>
</a>
</g>
</g>
<!-- Node2 -->
<g id="Node000002" class="node">
<title>Node2</title>
<g id="a_Node000002"><a xlink:href="packet_2datagram_8h.html" target="_top" xlink:title=" ">
<polygon fill="white" stroke="#666666" points="141.17,-134.25 24.67,-134.25 24.67,-113.5 141.17,-113.5 141.17,-134.25"/>
<text text-anchor="middle" x="82.92" y="-120.75" font-family="Helvetica,sans-Serif" font-size="10.00">../packet/datagram.h</text>
</a>
</g>
</g>
<!-- Node1&#45;&gt;Node2 -->
<g id="edge1_Node000001_Node000002" class="edge">
<title>Node1&#45;&gt;Node2</title>
<g id="a_edge1_Node000001_Node000002"><a xlink:title=" ">
<path fill="none" stroke="#63b8ff" d="M277.39,-226.68C240.17,-207.19 156.12,-163.19 111.69,-139.94"/>
<polygon fill="#63b8ff" stroke="#63b8ff" points="113.38,-136.87 102.9,-135.33 110.13,-143.07 113.38,-136.87"/>
</a>
</g>
</g>
<!-- Node5 -->
<g id="Node000005" class="node">
<title>Node5</title>
<g id="a_Node000005"><a xlink:title=" ">
<polygon fill="#e0e0e0" stroke="#999999" points="332.29,-20.75 279.54,-20.75 279.54,0 332.29,0 332.29,-20.75"/>
<text text-anchor="middle" x="305.92" y="-7.25" font-family="Helvetica,sans-Serif" font-size="10.00">stdint.h</text>
</a>
</g>
</g>
<!-- Node1&#45;&gt;Node5 -->
<g id="edge20_Node000001_Node000005" class="edge">
<title>Node1&#45;&gt;Node5</title>
<g id="a_edge20_Node000001_Node000005"><a xlink:title=" ">
<path fill="none" stroke="#63b8ff" d="M259.34,-235.56C196.96,-231.94 71.35,-214.5 15.92,-134.25 -3.66,-105.91 -6.48,-82.92 15.92,-56.75 47.93,-19.34 196.85,-12.55 267.95,-11.47"/>
<polygon fill="#63b8ff" stroke="#63b8ff" points="267.59,-14.98 277.55,-11.36 267.51,-7.98 267.59,-14.98"/>
</a>
</g>
</g>
<!-- Node7 -->
<g id="Node000007" class="node">
<title>Node7</title>
<g id="a_Node000007"><a xlink:href="socket_8h.html" target="_top" xlink:title=" ">
<polygon fill="white" stroke="#666666" points="389.67,-191 324.17,-191 324.17,-170.25 389.67,-170.25 389.67,-191"/>
<text text-anchor="middle" x="356.92" y="-177.5" font-family="Helvetica,sans-Serif" font-size="10.00">../socket.h</text>
</a>
</g>
</g>
<!-- Node1&#45;&gt;Node7 -->
<g id="edge6_Node000001_Node000007" class="edge">
<title>Node1&#45;&gt;Node7</title>
<g id="a_edge6_Node000001_Node000007"><a xlink:title=" ">
<path fill="none" stroke="#63b8ff" d="M306.82,-226.59C315.41,-218.88 327.59,-207.95 337.79,-198.79"/>
<polygon fill="#63b8ff" stroke="#63b8ff" points="339.87,-201.62 344.98,-192.34 335.2,-196.41 339.87,-201.62"/>
</a>
</g>
</g>
<!-- Node11 -->
<g id="Node000011" class="node">
<title>Node11</title>
<g id="a_Node000011"><a xlink:href="interface_8h.html" target="_top" xlink:title=" ">
<polygon fill="white" stroke="#666666" points="395.29,-134.25 258.54,-134.25 258.54,-113.5 395.29,-113.5 395.29,-134.25"/>
<text text-anchor="middle" x="326.92" y="-120.75" font-family="Helvetica,sans-Serif" font-size="10.00">vlcb/platform/interface.h</text>
</a>
</g>
</g>
<!-- Node1&#45;&gt;Node11 -->
<g id="edge19_Node000001_Node000011" class="edge">
<title>Node1&#45;&gt;Node11</title>
<g id="a_edge19_Node000001_Node000011"><a xlink:title=" ">
<path fill="none" stroke="#63b8ff" d="M298.56,-226.87C303.54,-208.94 314.44,-169.75 321.18,-145.51"/>
<polygon fill="#63b8ff" stroke="#63b8ff" points="324.48,-146.71 323.79,-136.13 317.73,-144.83 324.48,-146.71"/>
</a>
</g>
</g>
<!-- Node12 -->
<g id="Node000012" class="node">
<title>Node12</title>
<g id="a_Node000012"><a xlink:href="packet__buf_8h.html" target="_top" xlink:title=" ">
<polygon fill="white" stroke="#666666" points="574.04,-191 447.79,-191 447.79,-170.25 574.04,-170.25 574.04,-191"/>
<text text-anchor="middle" x="510.92" y="-177.5" font-family="Helvetica,sans-Serif" font-size="10.00">../storage/packet_buf.h</text>
</a>
</g>
</g>
<!-- Node1&#45;&gt;Node12 -->
<g id="edge15_Node000001_Node000012" class="edge">
<title>Node1&#45;&gt;Node12</title>
<g id="a_edge15_Node000001_Node000012"><a xlink:title=" ">
<path fill="none" stroke="#63b8ff" d="M332.39,-227.09C367.9,-218.04 422.14,-204.23 461.51,-194.21"/>
<polygon fill="#63b8ff" stroke="#63b8ff" points="462.16,-197.65 470.98,-191.79 460.43,-190.87 462.16,-197.65"/>
</a>
</g>
</g>
<!-- Node3 -->
<g id="Node000003" class="node">
<title>Node3</title>
<g id="a_Node000003"><a xlink:title=" ">
<polygon fill="#e0e0e0" stroke="#999999" points="223.29,-77.5 158.54,-77.5 158.54,-56.75 223.29,-56.75 223.29,-77.5"/>
<text text-anchor="middle" x="190.92" y="-64" font-family="Helvetica,sans-Serif" font-size="10.00">inttypes.h</text>
</a>
</g>
</g>
<!-- Node2&#45;&gt;Node3 -->
<g id="edge2_Node000002_Node000003" class="edge">
<title>Node2&#45;&gt;Node3</title>
<g id="a_edge2_Node000002_Node000003"><a xlink:title=" ">
<path fill="none" stroke="#63b8ff" d="M102.22,-113.09C118.73,-104.72 142.75,-92.54 161.62,-82.97"/>
<polygon fill="#63b8ff" stroke="#63b8ff" points="163.09,-86.16 170.42,-78.51 159.92,-79.91 163.09,-86.16"/>
</a>
</g>
</g>
<!-- Node4 -->
<g id="Node000004" class="node">
<title>Node4</title>
<g id="a_Node000004"><a xlink:href="opcode_8h.html" target="_top" xlink:title=" ">
<polygon fill="white" stroke="#666666" points="370.54,-77.5 241.29,-77.5 241.29,-56.75 370.54,-56.75 370.54,-77.5"/>
<text text-anchor="middle" x="305.92" y="-64" font-family="Helvetica,sans-Serif" font-size="10.00">vlcb/common/opcode.h</text>
</a>
</g>
</g>
<!-- Node2&#45;&gt;Node4 -->
<g id="edge3_Node000002_Node000004" class="edge">
<title>Node2&#45;&gt;Node4</title>
<g id="a_edge3_Node000002_Node000004"><a xlink:title=" ">
<path fill="none" stroke="#63b8ff" d="M123.04,-113.02C159.87,-103.98 214.62,-90.54 254.62,-80.72"/>
<polygon fill="#63b8ff" stroke="#63b8ff" points="255.39,-84.13 264.27,-78.35 253.72,-77.34 255.39,-84.13"/>
</a>
</g>
</g>
<!-- Node6 -->
<g id="Node000006" class="node">
<title>Node6</title>
<g id="a_Node000006"><a xlink:href="error_8h.html" target="_top" xlink:title=" ">
<polygon fill="white" stroke="#666666" points="140.79,-77.5 25.04,-77.5 25.04,-56.75 140.79,-56.75 140.79,-77.5"/>
<text text-anchor="middle" x="82.92" y="-64" font-family="Helvetica,sans-Serif" font-size="10.00">vlcb/platform/error.h</text>
</a>
</g>
</g>
<!-- Node2&#45;&gt;Node6 -->
<g id="edge5_Node000002_Node000006" class="edge">
<title>Node2&#45;&gt;Node6</title>
<g id="a_edge5_Node000002_Node000006"><a xlink:title=" ">
<path fill="none" stroke="#63b8ff" d="M82.92,-113.09C82.92,-106.47 82.92,-97.47 82.92,-89.27"/>
<polygon fill="#63b8ff" stroke="#63b8ff" points="86.42,-89.34 82.92,-79.34 79.42,-89.34 86.42,-89.34"/>
</a>
</g>
</g>
<!-- Node4&#45;&gt;Node5 -->
<g id="edge4_Node000004_Node000005" class="edge">
<title>Node4&#45;&gt;Node5</title>
<g id="a_edge4_Node000004_Node000005"><a xlink:title=" ">
<path fill="none" stroke="#63b8ff" d="M305.92,-56.34C305.92,-49.72 305.92,-40.72 305.92,-32.52"/>
<polygon fill="#63b8ff" stroke="#63b8ff" points="309.42,-32.59 305.92,-22.59 302.42,-32.59 309.42,-32.59"/>
</a>
</g>
</g>
<!-- Node8 -->
<g id="Node000008" class="node">
<title>Node8</title>
<g id="a_Node000008"><a xlink:title=" ">
<polygon fill="#e0e0e0" stroke="#999999" points="512.42,-134.25 451.42,-134.25 451.42,-113.5 512.42,-113.5 512.42,-134.25"/>
<text text-anchor="middle" x="481.92" y="-120.75" font-family="Helvetica,sans-Serif" font-size="10.00">stdbool.h</text>
</a>
</g>
</g>
<!-- Node7&#45;&gt;Node8 -->
<g id="edge7_Node000007_Node000008" class="edge">
<title>Node7&#45;&gt;Node8</title>
<g id="a_edge7_Node000007_Node000008"><a xlink:title=" ">
<path fill="none" stroke="#63b8ff" d="M379.26,-169.84C398.73,-161.31 427.2,-148.84 449.23,-139.19"/>
<polygon fill="#63b8ff" stroke="#63b8ff" points="450.62,-142.4 458.38,-135.19 447.81,-135.99 450.62,-142.4"/>
</a>
</g>
</g>
<!-- Node9 -->
<g id="Node000009" class="node">
<title>Node9</title>
<g id="a_Node000009"><a xlink:title=" ">
<polygon fill="#e0e0e0" stroke="#999999" points="450.42,-77.5 395.42,-77.5 395.42,-56.75 450.42,-56.75 450.42,-77.5"/>
<text text-anchor="middle" x="422.92" y="-64" font-family="Helvetica,sans-Serif" font-size="10.00">stddef.h</text>
</a>
</g>
</g>
<!-- Node7&#45;&gt;Node9 -->
<g id="edge8_Node000007_Node000009" class="edge">
<title>Node7&#45;&gt;Node9</title>
<g id="a_edge8_Node000007_Node000009"><a xlink:title=" ">
<path fill="none" stroke="#63b8ff" d="M370.33,-169.89C380.91,-161.55 395.27,-148.64 403.92,-134.25 412.3,-120.3 417.15,-102.46 419.84,-88.83"/>
<polygon fill="#63b8ff" stroke="#63b8ff" points="423.25,-89.67 421.49,-79.22 416.35,-88.48 423.25,-89.67"/>
</a>
</g>
</g>
<!-- Node10 -->
<g id="Node000010" class="node">
<title>Node10</title>
<g id="a_Node000010"><a xlink:href="vlcb_8h.html" target="_top" xlink:title=" ">
<polygon fill="white" stroke="#666666" points="240.17,-134.25 159.67,-134.25 159.67,-113.5 240.17,-113.5 240.17,-134.25"/>
<text text-anchor="middle" x="199.92" y="-120.75" font-family="Helvetica,sans-Serif" font-size="10.00">packet/vlcb.h</text>
</a>
</g>
</g>
<!-- Node7&#45;&gt;Node10 -->
<g id="edge9_Node000007_Node000010" class="edge">
<title>Node7&#45;&gt;Node10</title>
<g id="a_edge9_Node000007_Node000010"><a xlink:title=" ">
<path fill="none" stroke="#63b8ff" d="M328.85,-169.84C303.7,-161.07 266.57,-148.12 238.61,-138.37"/>
<polygon fill="#63b8ff" stroke="#63b8ff" points="240.03,-135.16 229.43,-135.17 237.72,-141.77 240.03,-135.16"/>
</a>
</g>
</g>
<!-- Node7&#45;&gt;Node11 -->
<g id="edge13_Node000007_Node000011" class="edge">
<title>Node7&#45;&gt;Node11</title>
<g id="a_edge13_Node000007_Node000011"><a xlink:title=" ">
<path fill="none" stroke="#63b8ff" d="M351.55,-169.84C347.71,-162.83 342.41,-153.16 337.71,-144.58"/>
<polygon fill="#63b8ff" stroke="#63b8ff" points="340.83,-142.99 332.96,-135.91 334.7,-146.36 340.83,-142.99"/>
</a>
</g>
</g>
<!-- Node10&#45;&gt;Node3 -->
<g id="edge10_Node000010_Node000003" class="edge">
<title>Node10&#45;&gt;Node3</title>
<g id="a_edge10_Node000010_Node000003"><a xlink:title=" ">
<path fill="none" stroke="#63b8ff" d="M198.31,-113.09C197.21,-106.39 195.71,-97.26 194.34,-88.98"/>
<polygon fill="#63b8ff" stroke="#63b8ff" points="197.83,-88.62 192.76,-79.32 190.92,-89.76 197.83,-88.62"/>
</a>
</g>
</g>
<!-- Node10&#45;&gt;Node4 -->
<g id="edge11_Node000010_Node000004" class="edge">
<title>Node10&#45;&gt;Node4</title>
<g id="a_edge11_Node000010_Node000004"><a xlink:title=" ">
<path fill="none" stroke="#63b8ff" d="M218.87,-113.09C234.99,-104.76 258.42,-92.66 276.91,-83.11"/>
<polygon fill="#63b8ff" stroke="#63b8ff" points="278.51,-86.22 285.78,-78.52 275.29,-80 278.51,-86.22"/>
</a>
</g>
</g>
<!-- Node10&#45;&gt;Node6 -->
<g id="edge12_Node000010_Node000006" class="edge">
<title>Node10&#45;&gt;Node6</title>
<g id="a_edge12_Node000010_Node000006"><a xlink:title=" ">
<path fill="none" stroke="#63b8ff" d="M179,-113.09C160.95,-104.64 134.61,-92.32 114.08,-82.71"/>
<polygon fill="#63b8ff" stroke="#63b8ff" points="115.56,-79.54 105.02,-78.47 112.6,-85.88 115.56,-79.54"/>
</a>
</g>
</g>
<!-- Node11&#45;&gt;Node9 -->
<g id="edge14_Node000011_Node000009" class="edge">
<title>Node11&#45;&gt;Node9</title>
<g id="a_edge14_Node000011_Node000009"><a xlink:title=" ">
<path fill="none" stroke="#63b8ff" d="M344.08,-113.09C358.55,-104.83 379.5,-92.88 396.17,-83.38"/>
<polygon fill="#63b8ff" stroke="#63b8ff" points="397.63,-86.57 404.59,-78.58 394.17,-80.49 397.63,-86.57"/>
</a>
</g>
</g>
<!-- Node12&#45;&gt;Node5 -->
<g id="edge18_Node000012_Node000005" class="edge">
<title>Node12&#45;&gt;Node5</title>
<g id="a_edge18_Node000012_Node000005"><a xlink:title=" ">
<path fill="none" stroke="#63b8ff" d="M520.34,-170.01C531.94,-156.96 548.93,-133.02 538.92,-113.5 502.22,-41.96 399.88,-20.52 343.82,-14.11"/>
<polygon fill="#63b8ff" stroke="#63b8ff" points="344.41,-10.65 334.11,-13.11 343.7,-17.61 344.41,-10.65"/>
</a>
</g>
</g>
<!-- Node12&#45;&gt;Node8 -->
<g id="edge16_Node000012_Node000008" class="edge">
<title>Node12&#45;&gt;Node8</title>
<g id="a_edge16_Node000012_Node000008"><a xlink:title=" ">
<path fill="none" stroke="#63b8ff" d="M505.73,-169.84C502.02,-162.83 496.9,-153.16 492.35,-144.58"/>
<polygon fill="#63b8ff" stroke="#63b8ff" points="495.54,-143.11 487.76,-135.92 489.35,-146.39 495.54,-143.11"/>
</a>
</g>
</g>
<!-- Node12&#45;&gt;Node9 -->
<g id="edge17_Node000012_Node000009" class="edge">
<title>Node12&#45;&gt;Node9</title>
<g id="a_edge17_Node000012_Node000009"><a xlink:title=" ">
<path fill="none" stroke="#63b8ff" d="M516.47,-169.81C523.42,-156.09 533.1,-130.93 521.92,-113.5 508.61,-92.77 483.21,-81.39 461.46,-75.21"/>
<polygon fill="#63b8ff" stroke="#63b8ff" points="462.53,-71.87 451.98,-72.8 460.81,-78.65 462.53,-71.87"/>
</a>
</g>
</g>
</g>
</svg>
