<?xml version="1.0" encoding="UTF-8" standalone="no"?>
<!DOCTYPE svg PUBLIC "-//W3C//DTD SVG 1.1//EN"
 "http://www.w3.org/Graphics/SVG/1.1/DTD/svg11.dtd">
<!-- Generated by graphviz version 12.1.2 (20240928.0832)
 -->
<!-- Title: DispatchPacket Pages: 1 -->
<svg width="441pt" height="119pt"
 viewBox="0.00 0.00 440.75 118.75" xmlns="http://www.w3.org/2000/svg" xmlns:xlink="http://www.w3.org/1999/xlink">
<g id="graph0" class="graph" transform="scale(1 1) rotate(0) translate(4 114.75)">
<title>DispatchPacket</title>
<!-- Node1 -->
<g id="Node000001" class="node">
<title>Node1</title>
<g id="a_Node000001"><a xlink:title=" ">
<polygon fill="#999999" stroke="#666666" points="90.25,-65.75 0,-65.75 0,-45 90.25,-45 90.25,-65.75"/>
<text text-anchor="middle" x="45.12" y="-52.25" font-family="Helvetica,sans-Serif" font-size="10.00">DispatchPacket</text>
</a>
</g>
</g>
<!-- Node2 -->
<g id="Node000002" class="node">
<title>Node2</title>
<g id="a_Node000002"><a xlink:href="addr_8h.html#a83d3f92953278599a373c60afe6806c6" target="_top" xlink:title=" ">
<polygon fill="white" stroke="#666666" points="286.25,-110.75 126.25,-110.75 126.25,-90 286.25,-90 286.25,-110.75"/>
<text text-anchor="middle" x="206.25" y="-97.25" font-family="Helvetica,sans-Serif" font-size="10.00">vlcb_net_IsWireEndpointValid</text>
</a>
</g>
</g>
<!-- Node1&#45;&gt;Node2 -->
<g id="edge1_Node000001_Node000002" class="edge">
<title>Node1&#45;&gt;Node2</title>
<g id="a_edge1_Node000001_Node000002"><a xlink:title=" ">
<path fill="none" stroke="#63b8ff" d="M77.54,-66.19C92.25,-71.1 110.06,-76.81 126.25,-81.38 132.84,-83.23 139.78,-85.07 146.69,-86.83"/>
<polygon fill="#63b8ff" stroke="#63b8ff" points="145.45,-90.13 156,-89.15 147.14,-83.34 145.45,-90.13"/>
</a>
</g>
</g>
<!-- Node3 -->
<g id="Node000003" class="node">
<title>Node3</title>
<g id="a_Node000003"><a xlink:href="packet__buf_8c.html#a029619a9922642b39c89b7f3da28ce70" target="_top" xlink:title=" ">
<polygon fill="white" stroke="#666666" points="261.5,-72.12 151,-72.12 151,-38.62 261.5,-38.62 261.5,-72.12"/>
<text text-anchor="start" x="159" y="-58.62" font-family="Helvetica,sans-Serif" font-size="10.00">vlcb_net_packetbuf</text>
<text text-anchor="middle" x="206.25" y="-45.88" font-family="Helvetica,sans-Serif" font-size="10.00">_PopDeferred</text>
</a>
</g>
</g>
<!-- Node1&#45;&gt;Node3 -->
<g id="edge2_Node000001_Node000003" class="edge">
<title>Node1&#45;&gt;Node3</title>
<g id="a_edge2_Node000001_Node000003"><a xlink:title=" ">
<path fill="none" stroke="#63b8ff" d="M90.45,-55.38C105.62,-55.38 122.93,-55.38 139.42,-55.38"/>
<polygon fill="#63b8ff" stroke="#63b8ff" points="139.16,-58.88 149.16,-55.38 139.16,-51.88 139.16,-58.88"/>
</a>
</g>
</g>
<!-- Node5 -->
<g id="Node000005" class="node">
<title>Node5</title>
<g id="a_Node000005"><a xlink:href="vlcb_8c.html#a6f58b6fc33b3f723dd7254df2648a6e1" target="_top" xlink:title=" ">
<polygon fill="white" stroke="#666666" points="285.5,-20.75 127,-20.75 127,0 285.5,0 285.5,-20.75"/>
<text text-anchor="middle" x="206.25" y="-7.25" font-family="Helvetica,sans-Serif" font-size="10.00">vlcb_net_pkt_NewUnchecked</text>
</a>
</g>
</g>
<!-- Node1&#45;&gt;Node5 -->
<g id="edge4_Node000001_Node000005" class="edge">
<title>Node1&#45;&gt;Node5</title>
<g id="a_edge4_Node000001_Node000005"><a xlink:title=" ">
<path fill="none" stroke="#63b8ff" d="M77.54,-44.56C92.25,-39.65 110.06,-33.94 126.25,-29.38 132.84,-27.52 139.78,-25.68 146.69,-23.92"/>
<polygon fill="#63b8ff" stroke="#63b8ff" points="147.14,-27.41 156,-21.6 145.45,-20.62 147.14,-27.41"/>
</a>
</g>
</g>
<!-- Node4 -->
<g id="Node000004" class="node">
<title>Node4</title>
<g id="a_Node000004"><a xlink:href="packet__buf_8c.html#a3901c362d723ea046af64e2b96ad24b6" target="_top" xlink:title=" ">
<polygon fill="white" stroke="#666666" points="432.75,-72.12 322.25,-72.12 322.25,-38.62 432.75,-38.62 432.75,-72.12"/>
<text text-anchor="start" x="330.25" y="-58.62" font-family="Helvetica,sans-Serif" font-size="10.00">vlcb_net_packetbuf</text>
<text text-anchor="middle" x="377.5" y="-45.88" font-family="Helvetica,sans-Serif" font-size="10.00">_IsEmpty</text>
</a>
</g>
</g>
<!-- Node3&#45;&gt;Node4 -->
<g id="edge3_Node000003_Node000004" class="edge">
<title>Node3&#45;&gt;Node4</title>
<g id="a_edge3_Node000003_Node000004"><a xlink:title=" ">
<path fill="none" stroke="#63b8ff" d="M261.73,-55.38C277.21,-55.38 294.23,-55.38 310.32,-55.38"/>
<polygon fill="#63b8ff" stroke="#63b8ff" points="310.32,-58.88 320.32,-55.38 310.32,-51.88 310.32,-58.88"/>
</a>
</g>
</g>
</g>
</svg>
