<?xml version="1.0" encoding="UTF-8" standalone="no"?>
<!DOCTYPE svg PUBLIC "-//W3C//DTD SVG 1.1//EN"
 "http://www.w3.org/Graphics/SVG/1.1/DTD/svg11.dtd">
<!-- Generated by graphviz version 12.1.2 (20240928.0832)
 -->
<!-- Title: DispatchPacket Pages: 1 -->
<svg width="439pt" height="74pt"
 viewBox="0.00 0.00 439.25 74.12" xmlns="http://www.w3.org/2000/svg" xmlns:xlink="http://www.w3.org/1999/xlink">
<g id="graph0" class="graph" transform="scale(1 1) rotate(0) translate(4 70.12)">
<title>DispatchPacket</title>
<!-- Node1 -->
<g id="Node000001" class="node">
<title>Node1</title>
<g id="a_Node000001"><a xlink:title=" ">
<polygon fill="#999999" stroke="#666666" points="90.25,-39.75 0,-39.75 0,-19 90.25,-19 90.25,-39.75"/>
<text text-anchor="middle" x="45.12" y="-26.25" font-family="Helvetica,sans-Serif" font-size="10.00">DispatchPacket</text>
</a>
</g>
</g>
<!-- Node2 -->
<g id="Node000002" class="node">
<title>Node2</title>
<g id="a_Node000002"><a xlink:href="packet__buf_8c.html#a2ea3a27beac9f24f9dc6acdbfb28906c" target="_top" xlink:title=" ">
<polygon fill="white" stroke="#666666" points="272.38,-59.75 138.62,-59.75 138.62,-39 272.38,-39 272.38,-59.75"/>
<text text-anchor="middle" x="205.5" y="-46.25" font-family="Helvetica,sans-Serif" font-size="10.00">vlcb_net_packetbuf_Pop</text>
</a>
</g>
</g>
<!-- Node1&#45;&gt;Node2 -->
<g id="edge1_Node000001_Node000002" class="edge">
<title>Node1&#45;&gt;Node2</title>
<g id="a_edge1_Node000001_Node000002"><a xlink:title=" ">
<path fill="none" stroke="#63b8ff" d="M90.66,-35C102.01,-36.43 114.54,-38.01 127.01,-39.59"/>
<polygon fill="#63b8ff" stroke="#63b8ff" points="126.56,-43.06 136.92,-40.84 127.43,-36.12 126.56,-43.06"/>
</a>
</g>
</g>
<!-- Node4 -->
<g id="Node000004" class="node">
<title>Node4</title>
<g id="a_Node000004"><a xlink:href="vlcb_8c.html#a6f58b6fc33b3f723dd7254df2648a6e1" target="_top" xlink:title=" ">
<polygon fill="white" stroke="#666666" points="284.75,-20.75 126.25,-20.75 126.25,0 284.75,0 284.75,-20.75"/>
<text text-anchor="middle" x="205.5" y="-7.25" font-family="Helvetica,sans-Serif" font-size="10.00">vlcb_net_pkt_NewUnchecked</text>
</a>
</g>
</g>
<!-- Node1&#45;&gt;Node4 -->
<g id="edge3_Node000001_Node000004" class="edge">
<title>Node1&#45;&gt;Node4</title>
<g id="a_edge3_Node000001_Node000004"><a xlink:title=" ">
<path fill="none" stroke="#63b8ff" d="M90.66,-24.03C98.21,-23.13 106.28,-22.16 114.51,-21.17"/>
<polygon fill="#63b8ff" stroke="#63b8ff" points="114.78,-24.66 124.3,-20 113.95,-17.71 114.78,-24.66"/>
</a>
</g>
</g>
<!-- Node3 -->
<g id="Node000003" class="node">
<title>Node3</title>
<g id="a_Node000003"><a xlink:href="packet__buf_8c.html#a3901c362d723ea046af64e2b96ad24b6" target="_top" xlink:title=" ">
<polygon fill="white" stroke="#666666" points="431.25,-66.12 320.75,-66.12 320.75,-32.62 431.25,-32.62 431.25,-66.12"/>
<text text-anchor="start" x="328.75" y="-52.62" font-family="Helvetica,sans-Serif" font-size="10.00">vlcb_net_packetbuf</text>
<text text-anchor="middle" x="376" y="-39.88" font-family="Helvetica,sans-Serif" font-size="10.00">_IsEmpty</text>
</a>
</g>
</g>
<!-- Node2&#45;&gt;Node3 -->
<g id="edge2_Node000002_Node000003" class="edge">
<title>Node2&#45;&gt;Node3</title>
<g id="a_edge2_Node000002_Node000003"><a xlink:title=" ">
<path fill="none" stroke="#63b8ff" d="M272.61,-49.38C284.63,-49.38 297.16,-49.38 309.17,-49.38"/>
<polygon fill="#63b8ff" stroke="#63b8ff" points="308.98,-52.88 318.98,-49.38 308.98,-45.88 308.98,-52.88"/>
</a>
</g>
</g>
</g>
</svg>
