<?xml version="1.0" encoding="UTF-8" standalone="no"?>
<!DOCTYPE svg PUBLIC "-//W3C//DTD SVG 1.1//EN"
 "http://www.w3.org/Graphics/SVG/1.1/DTD/svg11.dtd">
<!-- Generated by graphviz version 12.1.2 (20240928.0832)
 -->
<!-- Title: datagram.c Pages: 1 -->
<svg width="926pt" height="369pt"
 viewBox="0.00 0.00 926.28 369.25" xmlns="http://www.w3.org/2000/svg" xmlns:xlink="http://www.w3.org/1999/xlink">
<g id="graph0" class="graph" transform="scale(1 1) rotate(0) translate(4 365.25)">
<title>datagram.c</title>
<!-- Node1 -->
<g id="Node000001" class="node">
<title>Node1</title>
<g id="a_Node000001"><a xlink:title=" ">
<polygon fill="#999999" stroke="#666666" points="554.53,-361.25 483.03,-361.25 483.03,-340.5 554.53,-340.5 554.53,-361.25"/>
<text text-anchor="middle" x="518.78" y="-347.75" font-family="Helvetica,sans-Serif" font-size="10.00">datagram.c</text>
</a>
</g>
</g>
<!-- Node2 -->
<g id="Node000002" class="node">
<title>Node2</title>
<g id="a_Node000002"><a xlink:href="socket_2datagram_8h.html" target="_top" xlink:title=" ">
<polygon fill="white" stroke="#666666" points="542.16,-304.5 393.41,-304.5 393.41,-283.75 542.16,-283.75 542.16,-304.5"/>
<text text-anchor="middle" x="467.78" y="-291" font-family="Helvetica,sans-Serif" font-size="10.00">vlcb/net/socket/datagram.h</text>
</a>
</g>
</g>
<!-- Node1&#45;&gt;Node2 -->
<g id="edge1_Node000001_Node000002" class="edge">
<title>Node1&#45;&gt;Node2</title>
<g id="a_edge1_Node000001_Node000002"><a xlink:title=" ">
<path fill="none" stroke="#63b8ff" d="M509.66,-340.09C502.7,-332.61 492.91,-322.11 484.55,-313.13"/>
<polygon fill="#63b8ff" stroke="#63b8ff" points="487.23,-310.87 477.85,-305.94 482.11,-315.64 487.23,-310.87"/>
</a>
</g>
</g>
<!-- Node3 -->
<g id="Node000003" class="node">
<title>Node3</title>
<g id="a_Node000003"><a xlink:href="packet_2datagram_8h.html" target="_top" xlink:title=" ">
<polygon fill="white" stroke="#666666" points="152.03,-191 35.53,-191 35.53,-170.25 152.03,-170.25 152.03,-191"/>
<text text-anchor="middle" x="93.78" y="-177.5" font-family="Helvetica,sans-Serif" font-size="10.00">../packet/datagram.h</text>
</a>
</g>
</g>
<!-- Node1&#45;&gt;Node3 -->
<g id="edge32_Node000001_Node000003" class="edge">
<title>Node1&#45;&gt;Node3</title>
<g id="a_edge32_Node000001_Node000003"><a xlink:title=" ">
<path fill="none" stroke="#63b8ff" d="M482.86,-344.95C441.77,-338.6 372.91,-325.77 316.78,-304.5 240.13,-275.45 157.52,-224.02 117.8,-197.87"/>
<polygon fill="#63b8ff" stroke="#63b8ff" points="119.74,-194.95 109.48,-192.33 115.87,-200.78 119.74,-194.95"/>
</a>
</g>
</g>
<!-- Node8 -->
<g id="Node000008" class="node">
<title>Node8</title>
<g id="a_Node000008"><a xlink:href="socket_8h.html" target="_top" xlink:title=" ">
<polygon fill="white" stroke="#666666" points="599.53,-247.75 534.03,-247.75 534.03,-227 599.53,-227 599.53,-247.75"/>
<text text-anchor="middle" x="566.78" y="-234.25" font-family="Helvetica,sans-Serif" font-size="10.00">../socket.h</text>
</a>
</g>
</g>
<!-- Node1&#45;&gt;Node8 -->
<g id="edge34_Node000001_Node000008" class="edge">
<title>Node1&#45;&gt;Node8</title>
<g id="a_edge34_Node000001_Node000008"><a xlink:title=" ">
<path fill="none" stroke="#63b8ff" d="M527.34,-340.1C534.58,-331.34 544.73,-317.84 550.78,-304.5 557.29,-290.15 561.36,-272.81 563.76,-259.48"/>
<polygon fill="#63b8ff" stroke="#63b8ff" points="567.21,-260.09 565.34,-249.66 560.3,-258.98 567.21,-260.09"/>
</a>
</g>
</g>
<!-- Node9 -->
<g id="Node000009" class="node">
<title>Node9</title>
<g id="a_Node000009"><a xlink:title=" ">
<polygon fill="#e0e0e0" stroke="#999999" points="573.28,-77.5 512.28,-77.5 512.28,-56.75 573.28,-56.75 573.28,-77.5"/>
<text text-anchor="middle" x="542.78" y="-64" font-family="Helvetica,sans-Serif" font-size="10.00">stdbool.h</text>
</a>
</g>
</g>
<!-- Node1&#45;&gt;Node9 -->
<g id="edge29_Node000001_Node000009" class="edge">
<title>Node1&#45;&gt;Node9</title>
<g id="a_edge29_Node000001_Node000009"><a xlink:title=" ">
<path fill="none" stroke="#63b8ff" d="M555.03,-344.93C638.03,-332.59 834.78,-297.13 834.78,-238.38 834.78,-238.38 834.78,-238.38 834.78,-179.62 834.78,-126.81 665.92,-89.84 585.02,-75.16"/>
<polygon fill="#63b8ff" stroke="#63b8ff" points="585.7,-71.73 575.24,-73.42 584.48,-78.62 585.7,-71.73"/>
</a>
</g>
</g>
<!-- Node10 -->
<g id="Node000010" class="node">
<title>Node10</title>
<g id="a_Node000010"><a xlink:title=" ">
<polygon fill="#e0e0e0" stroke="#999999" points="689.28,-134.25 634.28,-134.25 634.28,-113.5 689.28,-113.5 689.28,-134.25"/>
<text text-anchor="middle" x="661.78" y="-120.75" font-family="Helvetica,sans-Serif" font-size="10.00">stddef.h</text>
</a>
</g>
</g>
<!-- Node1&#45;&gt;Node10 -->
<g id="edge30_Node000001_Node000010" class="edge">
<title>Node1&#45;&gt;Node10</title>
<g id="a_edge30_Node000001_Node000010"><a xlink:title=" ">
<path fill="none" stroke="#63b8ff" d="M554.77,-340.34C614.07,-322.43 730.46,-277.55 777.78,-191 796.34,-157.05 741.38,-139.26 700.89,-130.99"/>
<polygon fill="#63b8ff" stroke="#63b8ff" points="701.63,-127.57 691.15,-129.14 700.32,-134.45 701.63,-127.57"/>
</a>
</g>
</g>
<!-- Node11 -->
<g id="Node000011" class="node">
<title>Node11</title>
<g id="a_Node000011"><a xlink:href="vlcb_8h.html" target="_top" xlink:title=" ">
<polygon fill="white" stroke="#666666" points="251.03,-191 170.53,-191 170.53,-170.25 251.03,-170.25 251.03,-191"/>
<text text-anchor="middle" x="210.78" y="-177.5" font-family="Helvetica,sans-Serif" font-size="10.00">packet/vlcb.h</text>
</a>
</g>
</g>
<!-- Node1&#45;&gt;Node11 -->
<g id="edge33_Node000001_Node000011" class="edge">
<title>Node1&#45;&gt;Node11</title>
<g id="a_edge33_Node000001_Node000011"><a xlink:title=" ">
<path fill="none" stroke="#63b8ff" d="M482.83,-344.91C447.78,-339 393.77,-326.96 351.78,-304.5 299.79,-276.7 250.61,-226.51 226.41,-199.69"/>
<polygon fill="#63b8ff" stroke="#63b8ff" points="229.19,-197.54 219.94,-192.38 223.95,-202.19 229.19,-197.54"/>
</a>
</g>
</g>
<!-- Node12 -->
<g id="Node000012" class="node">
<title>Node12</title>
<g id="a_Node000012"><a xlink:href="addr_8h.html" target="_top" xlink:title=" ">
<polygon fill="white" stroke="#666666" points="356.78,-191 268.78,-191 268.78,-170.25 356.78,-170.25 356.78,-191"/>
<text text-anchor="middle" x="312.78" y="-177.5" font-family="Helvetica,sans-Serif" font-size="10.00">vlcb/net/addr.h</text>
</a>
</g>
</g>
<!-- Node1&#45;&gt;Node12 -->
<g id="edge31_Node000001_Node000012" class="edge">
<title>Node1&#45;&gt;Node12</title>
<g id="a_edge31_Node000001_Node000012"><a xlink:title=" ">
<path fill="none" stroke="#63b8ff" d="M482.78,-346.57C450.87,-341.94 404.68,-330.87 373.78,-304.5 341.89,-277.28 325.02,-229.39 317.58,-202.13"/>
<polygon fill="#63b8ff" stroke="#63b8ff" points="321.04,-201.51 315.19,-192.67 314.25,-203.23 321.04,-201.51"/>
</a>
</g>
</g>
<!-- Node14 -->
<g id="Node000014" class="node">
<title>Node14</title>
<g id="a_Node000014"><a xlink:href="interface_8h.html" target="_top" xlink:title=" ">
<polygon fill="white" stroke="#666666" points="769.16,-191 632.41,-191 632.41,-170.25 769.16,-170.25 769.16,-191"/>
<text text-anchor="middle" x="700.78" y="-177.5" font-family="Helvetica,sans-Serif" font-size="10.00">vlcb/platform/interface.h</text>
</a>
</g>
</g>
<!-- Node1&#45;&gt;Node14 -->
<g id="edge36_Node000001_Node000014" class="edge">
<title>Node1&#45;&gt;Node14</title>
<g id="a_edge36_Node000001_Node000014"><a xlink:title=" ">
<path fill="none" stroke="#63b8ff" d="M531.09,-340.16C553.28,-322.49 601.15,-283.61 638.78,-247.75 655.07,-232.22 672.51,-213.41 684.73,-199.83"/>
<polygon fill="#63b8ff" stroke="#63b8ff" points="687.22,-202.29 691.27,-192.49 682,-197.63 687.22,-202.29"/>
</a>
</g>
</g>
<!-- Node15 -->
<g id="Node000015" class="node">
<title>Node15</title>
<g id="a_Node000015"><a xlink:href="packet__buf_8h.html" target="_top" xlink:title=" ">
<polygon fill="white" stroke="#666666" points="538.91,-191 412.66,-191 412.66,-170.25 538.91,-170.25 538.91,-191"/>
<text text-anchor="middle" x="475.78" y="-177.5" font-family="Helvetica,sans-Serif" font-size="10.00">../storage/packet_buf.h</text>
</a>
</g>
</g>
<!-- Node1&#45;&gt;Node15 -->
<g id="edge35_Node000001_Node000015" class="edge">
<title>Node1&#45;&gt;Node15</title>
<g id="a_edge35_Node000001_Node000015"><a xlink:title=" ">
<path fill="none" stroke="#63b8ff" d="M482.72,-348.68C451.12,-345.48 406.9,-335.34 384.78,-304.5 356.92,-265.66 413.28,-220.66 449.16,-197.39"/>
<polygon fill="#63b8ff" stroke="#63b8ff" points="450.77,-200.51 457.37,-192.23 447.04,-194.59 450.77,-200.51"/>
</a>
</g>
</g>
<!-- Node16 -->
<g id="Node000016" class="node">
<title>Node16</title>
<g id="a_Node000016"><a xlink:title=" ">
<polygon fill="#e0e0e0" stroke="#999999" points="918.28,-304.5 863.28,-304.5 863.28,-283.75 918.28,-283.75 918.28,-304.5"/>
<text text-anchor="middle" x="890.78" y="-291" font-family="Helvetica,sans-Serif" font-size="10.00">assert.h</text>
</a>
</g>
</g>
<!-- Node1&#45;&gt;Node16 -->
<g id="edge28_Node000001_Node000016" class="edge">
<title>Node1&#45;&gt;Node16</title>
<g id="a_edge28_Node000001_Node000016"><a xlink:title=" ">
<path fill="none" stroke="#63b8ff" d="M554.58,-345.94C615.32,-339.04 742.35,-323.66 848.78,-304.5 849.78,-304.32 850.79,-304.13 851.8,-303.94"/>
<polygon fill="#63b8ff" stroke="#63b8ff" points="852.24,-307.42 861.35,-302 850.85,-300.56 852.24,-307.42"/>
</a>
</g>
</g>
<!-- Node2&#45;&gt;Node3 -->
<g id="edge2_Node000002_Node000003" class="edge">
<title>Node2&#45;&gt;Node3</title>
<g id="a_edge2_Node000002_Node000003"><a xlink:title=" ">
<path fill="none" stroke="#63b8ff" d="M434.92,-283.33C367.39,-263.19 213,-217.17 137.28,-194.59"/>
<polygon fill="#63b8ff" stroke="#63b8ff" points="138.74,-191.38 128.15,-191.87 136.74,-198.08 138.74,-191.38"/>
</a>
</g>
</g>
<!-- Node6 -->
<g id="Node000006" class="node">
<title>Node6</title>
<g id="a_Node000006"><a xlink:title=" ">
<polygon fill="#e0e0e0" stroke="#999999" points="404.16,-20.75 351.41,-20.75 351.41,0 404.16,0 404.16,-20.75"/>
<text text-anchor="middle" x="377.78" y="-7.25" font-family="Helvetica,sans-Serif" font-size="10.00">stdint.h</text>
</a>
</g>
</g>
<!-- Node2&#45;&gt;Node6 -->
<g id="edge27_Node000002_Node000006" class="edge">
<title>Node2&#45;&gt;Node6</title>
<g id="a_edge27_Node000002_Node000006"><a xlink:title=" ">
<path fill="none" stroke="#63b8ff" d="M459.72,-283.43C445.8,-266.1 417.41,-228.12 403.78,-191 383.66,-136.18 379.04,-66.6 378.03,-32.35"/>
<polygon fill="#63b8ff" stroke="#63b8ff" points="381.53,-32.5 377.83,-22.58 374.54,-32.65 381.53,-32.5"/>
</a>
</g>
</g>
<!-- Node2&#45;&gt;Node8 -->
<g id="edge7_Node000002_Node000008" class="edge">
<title>Node2&#45;&gt;Node8</title>
<g id="a_edge7_Node000002_Node000008"><a xlink:title=" ">
<path fill="none" stroke="#63b8ff" d="M485.48,-283.34C500.4,-275.08 522.01,-263.13 539.2,-253.63"/>
<polygon fill="#63b8ff" stroke="#63b8ff" points="540.85,-256.71 547.91,-248.81 537.47,-250.59 540.85,-256.71"/>
</a>
</g>
</g>
<!-- Node2&#45;&gt;Node14 -->
<g id="edge26_Node000002_Node000014" class="edge">
<title>Node2&#45;&gt;Node14</title>
<g id="a_edge26_Node000002_Node000014"><a xlink:title=" ">
<path fill="none" stroke="#63b8ff" d="M509.84,-283.28C538.6,-275.67 577.1,-263.74 608.78,-247.75 635.7,-234.17 663.36,-213.14 681.23,-198.46"/>
<polygon fill="#63b8ff" stroke="#63b8ff" points="683.05,-201.51 688.47,-192.4 678.55,-196.14 683.05,-201.51"/>
</a>
</g>
</g>
<!-- Node2&#45;&gt;Node15 -->
<g id="edge22_Node000002_Node000015" class="edge">
<title>Node2&#45;&gt;Node15</title>
<g id="a_edge22_Node000002_Node000015"><a xlink:title=" ">
<path fill="none" stroke="#63b8ff" d="M468.46,-283.62C469.74,-265.77 472.54,-226.86 474.28,-202.59"/>
<polygon fill="#63b8ff" stroke="#63b8ff" points="477.74,-203.16 474.97,-192.93 470.76,-202.66 477.74,-203.16"/>
</a>
</g>
</g>
<!-- Node4 -->
<g id="Node000004" class="node">
<title>Node4</title>
<g id="a_Node000004"><a xlink:title=" ">
<polygon fill="#e0e0e0" stroke="#999999" points="172.16,-77.5 107.41,-77.5 107.41,-56.75 172.16,-56.75 172.16,-77.5"/>
<text text-anchor="middle" x="139.78" y="-64" font-family="Helvetica,sans-Serif" font-size="10.00">inttypes.h</text>
</a>
</g>
</g>
<!-- Node3&#45;&gt;Node4 -->
<g id="edge3_Node000003_Node000004" class="edge">
<title>Node3&#45;&gt;Node4</title>
<g id="a_edge3_Node000003_Node000004"><a xlink:title=" ">
<path fill="none" stroke="#63b8ff" d="M59.53,-169.77C27.3,-158.7 -13.48,-138.9 4.78,-113.5 25.32,-84.93 64.75,-74.1 95.71,-70.12"/>
<polygon fill="#63b8ff" stroke="#63b8ff" points="96.03,-73.6 105.6,-69.06 95.29,-66.64 96.03,-73.6"/>
</a>
</g>
</g>
<!-- Node5 -->
<g id="Node000005" class="node">
<title>Node5</title>
<g id="a_Node000005"><a xlink:href="vlcb__defs_8h.html" target="_top" xlink:title=" ">
<polygon fill="white" stroke="#666666" points="331.03,-77.5 190.53,-77.5 190.53,-56.75 331.03,-56.75 331.03,-77.5"/>
<text text-anchor="middle" x="260.78" y="-64" font-family="Helvetica,sans-Serif" font-size="10.00">vlcb/common/vlcb_defs.h</text>
</a>
</g>
</g>
<!-- Node3&#45;&gt;Node5 -->
<g id="edge4_Node000003_Node000005" class="edge">
<title>Node3&#45;&gt;Node5</title>
<g id="a_edge4_Node000003_Node000005"><a xlink:title=" ">
<path fill="none" stroke="#63b8ff" d="M75.13,-169.86C53.04,-157.03 21.22,-133.77 37.78,-113.5 46.95,-102.27 118.93,-89 178.66,-79.72"/>
<polygon fill="#63b8ff" stroke="#63b8ff" points="179.19,-83.18 188.55,-78.21 178.13,-76.26 179.19,-83.18"/>
</a>
</g>
</g>
<!-- Node7 -->
<g id="Node000007" class="node">
<title>Node7</title>
<g id="a_Node000007"><a xlink:href="error_8h.html" target="_top" xlink:title=" ">
<polygon fill="white" stroke="#666666" points="162.66,-134.25 46.91,-134.25 46.91,-113.5 162.66,-113.5 162.66,-134.25"/>
<text text-anchor="middle" x="104.78" y="-120.75" font-family="Helvetica,sans-Serif" font-size="10.00">vlcb/platform/error.h</text>
</a>
</g>
</g>
<!-- Node3&#45;&gt;Node7 -->
<g id="edge6_Node000003_Node000007" class="edge">
<title>Node3&#45;&gt;Node7</title>
<g id="a_edge6_Node000003_Node000007"><a xlink:title=" ">
<path fill="none" stroke="#63b8ff" d="M95.75,-169.84C97.09,-163.14 98.93,-154.01 100.59,-145.73"/>
<polygon fill="#63b8ff" stroke="#63b8ff" points="103.99,-146.56 102.53,-136.06 97.13,-145.18 103.99,-146.56"/>
</a>
</g>
</g>
<!-- Node5&#45;&gt;Node6 -->
<g id="edge5_Node000005_Node000006" class="edge">
<title>Node5&#45;&gt;Node6</title>
<g id="a_edge5_Node000005_Node000006"><a xlink:title=" ">
<path fill="none" stroke="#63b8ff" d="M281.7,-56.34C299.75,-47.89 326.08,-35.57 346.62,-25.96"/>
<polygon fill="#63b8ff" stroke="#63b8ff" points="348.1,-29.13 355.67,-21.72 345.13,-22.79 348.1,-29.13"/>
</a>
</g>
</g>
<!-- Node8&#45;&gt;Node9 -->
<g id="edge8_Node000008_Node000009" class="edge">
<title>Node8&#45;&gt;Node9</title>
<g id="a_edge8_Node000008_Node000009"><a xlink:title=" ">
<path fill="none" stroke="#63b8ff" d="M565.42,-226.85C561.66,-200.48 551.05,-126.08 545.8,-89.28"/>
<polygon fill="#63b8ff" stroke="#63b8ff" points="549.28,-88.87 544.4,-79.47 542.35,-89.86 549.28,-88.87"/>
</a>
</g>
</g>
<!-- Node8&#45;&gt;Node10 -->
<g id="edge9_Node000008_Node000010" class="edge">
<title>Node8&#45;&gt;Node10</title>
<g id="a_edge9_Node000008_Node000010"><a xlink:title=" ">
<path fill="none" stroke="#63b8ff" d="M574.88,-226.87C590.65,-208.36 625.7,-167.22 646.14,-143.23"/>
<polygon fill="#63b8ff" stroke="#63b8ff" points="648.63,-145.71 652.45,-135.83 643.3,-141.17 648.63,-145.71"/>
</a>
</g>
</g>
<!-- Node8&#45;&gt;Node11 -->
<g id="edge10_Node000008_Node000011" class="edge">
<title>Node8&#45;&gt;Node11</title>
<g id="a_edge10_Node000008_Node000011"><a xlink:title=" ">
<path fill="none" stroke="#63b8ff" d="M533.54,-231.93C479.07,-224.55 367.11,-208.95 262.48,-191.4"/>
<polygon fill="#63b8ff" stroke="#63b8ff" points="263.33,-188 252.89,-189.79 262.17,-194.9 263.33,-188"/>
</a>
</g>
</g>
<!-- Node8&#45;&gt;Node12 -->
<g id="edge14_Node000008_Node000012" class="edge">
<title>Node8&#45;&gt;Node12</title>
<g id="a_edge14_Node000008_Node000012"><a xlink:title=" ">
<path fill="none" stroke="#63b8ff" d="M533.57,-229.22C491.57,-220.16 418.63,-204.44 368.14,-193.56"/>
<polygon fill="#63b8ff" stroke="#63b8ff" points="369.09,-190.18 358.58,-191.5 367.61,-197.02 369.09,-190.18"/>
</a>
</g>
</g>
<!-- Node8&#45;&gt;Node14 -->
<g id="edge20_Node000008_Node000014" class="edge">
<title>Node8&#45;&gt;Node14</title>
<g id="a_edge20_Node000008_Node000014"><a xlink:title=" ">
<path fill="none" stroke="#63b8ff" d="M590.74,-226.59C611.79,-217.98 642.68,-205.36 666.38,-195.68"/>
<polygon fill="#63b8ff" stroke="#63b8ff" points="667.7,-198.92 675.63,-191.9 665.05,-192.44 667.7,-198.92"/>
</a>
</g>
</g>
<!-- Node11&#45;&gt;Node4 -->
<g id="edge11_Node000011_Node000004" class="edge">
<title>Node11&#45;&gt;Node4</title>
<g id="a_edge11_Node000011_Node000004"><a xlink:title=" ">
<path fill="none" stroke="#63b8ff" d="M205.46,-170.06C198.17,-157.07 184.51,-133.2 171.78,-113.5 166.04,-104.62 159.35,-95.02 153.57,-86.94"/>
<polygon fill="#63b8ff" stroke="#63b8ff" points="156.47,-84.98 147.77,-78.93 150.8,-89.08 156.47,-84.98"/>
</a>
</g>
</g>
<!-- Node11&#45;&gt;Node5 -->
<g id="edge12_Node000011_Node000005" class="edge">
<title>Node11&#45;&gt;Node5</title>
<g id="a_edge12_Node000011_Node000005"><a xlink:title=" ">
<path fill="none" stroke="#63b8ff" d="M215.04,-170.12C223.12,-152.11 240.82,-112.64 251.68,-88.43"/>
<polygon fill="#63b8ff" stroke="#63b8ff" points="254.87,-89.86 255.77,-79.31 248.48,-87 254.87,-89.86"/>
</a>
</g>
</g>
<!-- Node11&#45;&gt;Node7 -->
<g id="edge13_Node000011_Node000007" class="edge">
<title>Node11&#45;&gt;Node7</title>
<g id="a_edge13_Node000011_Node000007"><a xlink:title=" ">
<path fill="none" stroke="#63b8ff" d="M191.83,-169.84C175.7,-161.51 152.28,-149.41 133.79,-139.86"/>
<polygon fill="#63b8ff" stroke="#63b8ff" points="135.4,-136.75 124.91,-135.27 132.19,-142.97 135.4,-136.75"/>
</a>
</g>
</g>
<!-- Node13 -->
<g id="Node000013" class="node">
<title>Node13</title>
<g id="a_Node000013"><a xlink:href="common_2inc_2vlcb_2common_2can_8h.html" target="_top" xlink:title=" ">
<polygon fill="white" stroke="#666666" points="368.41,-134.25 257.16,-134.25 257.16,-113.5 368.41,-113.5 368.41,-134.25"/>
<text text-anchor="middle" x="312.78" y="-120.75" font-family="Helvetica,sans-Serif" font-size="10.00">vlcb/common/can.h</text>
</a>
</g>
</g>
<!-- Node12&#45;&gt;Node13 -->
<g id="edge15_Node000012_Node000013" class="edge">
<title>Node12&#45;&gt;Node13</title>
<g id="a_edge15_Node000012_Node000013"><a xlink:title=" ">
<path fill="none" stroke="#63b8ff" d="M312.78,-169.84C312.78,-163.22 312.78,-154.22 312.78,-146.02"/>
<polygon fill="#63b8ff" stroke="#63b8ff" points="316.28,-146.09 312.78,-136.09 309.28,-146.09 316.28,-146.09"/>
</a>
</g>
</g>
<!-- Node13&#45;&gt;Node4 -->
<g id="edge16_Node000013_Node000004" class="edge">
<title>Node13&#45;&gt;Node4</title>
<g id="a_edge16_Node000013_Node000004"><a xlink:title=" ">
<path fill="none" stroke="#63b8ff" d="M281.85,-113.09C253.89,-104.24 212.5,-91.14 181.6,-81.36"/>
<polygon fill="#63b8ff" stroke="#63b8ff" points="182.77,-78.06 172.18,-78.38 180.65,-84.73 182.77,-78.06"/>
</a>
</g>
</g>
<!-- Node13&#45;&gt;Node5 -->
<g id="edge19_Node000013_Node000005" class="edge">
<title>Node13&#45;&gt;Node5</title>
<g id="a_edge19_Node000013_Node000005"><a xlink:title=" ">
<path fill="none" stroke="#63b8ff" d="M303.48,-113.09C296.39,-105.61 286.41,-95.11 277.88,-86.13"/>
<polygon fill="#63b8ff" stroke="#63b8ff" points="280.46,-83.77 271.04,-78.93 275.39,-88.59 280.46,-83.77"/>
</a>
</g>
</g>
<!-- Node13&#45;&gt;Node6 -->
<g id="edge18_Node000013_Node000006" class="edge">
<title>Node13&#45;&gt;Node6</title>
<g id="a_edge18_Node000013_Node000006"><a xlink:title=" ">
<path fill="none" stroke="#63b8ff" d="M318.62,-113.16C324.11,-103.99 332.56,-89.84 339.78,-77.5 348.97,-61.78 359.25,-43.87 366.8,-30.66"/>
<polygon fill="#63b8ff" stroke="#63b8ff" points="369.75,-32.55 371.66,-22.13 363.67,-29.09 369.75,-32.55"/>
</a>
</g>
</g>
<!-- Node13&#45;&gt;Node9 -->
<g id="edge17_Node000013_Node000009" class="edge">
<title>Node13&#45;&gt;Node9</title>
<g id="a_edge17_Node000013_Node000009"><a xlink:title=" ">
<path fill="none" stroke="#63b8ff" d="M354.17,-113.02C395.66,-103.15 459.21,-88.02 500.89,-78.1"/>
<polygon fill="#63b8ff" stroke="#63b8ff" points="501.64,-81.52 510.55,-75.8 500.01,-74.71 501.64,-81.52"/>
</a>
</g>
</g>
<!-- Node14&#45;&gt;Node10 -->
<g id="edge21_Node000014_Node000010" class="edge">
<title>Node14&#45;&gt;Node10</title>
<g id="a_edge21_Node000014_Node000010"><a xlink:title=" ">
<path fill="none" stroke="#63b8ff" d="M693.81,-169.84C688.65,-162.6 681.47,-152.51 675.21,-143.72"/>
<polygon fill="#63b8ff" stroke="#63b8ff" points="678.22,-141.93 669.57,-135.81 672.52,-145.99 678.22,-141.93"/>
</a>
</g>
</g>
<!-- Node15&#45;&gt;Node6 -->
<g id="edge25_Node000015_Node000006" class="edge">
<title>Node15&#45;&gt;Node6</title>
<g id="a_edge25_Node000015_Node000006"><a xlink:title=" ">
<path fill="none" stroke="#63b8ff" d="M471.18,-169.8C461.12,-148.63 436.07,-97.29 410.78,-56.75 405.2,-47.8 398.43,-38.3 392.49,-30.32"/>
<polygon fill="#63b8ff" stroke="#63b8ff" points="395.29,-28.23 386.46,-22.39 389.72,-32.47 395.29,-28.23"/>
</a>
</g>
</g>
<!-- Node15&#45;&gt;Node9 -->
<g id="edge23_Node000015_Node000009" class="edge">
<title>Node15&#45;&gt;Node9</title>
<g id="a_edge23_Node000015_Node000009"><a xlink:title=" ">
<path fill="none" stroke="#63b8ff" d="M481.49,-170.12C492.42,-151.94 516.46,-111.92 530.98,-87.77"/>
<polygon fill="#63b8ff" stroke="#63b8ff" points="533.96,-89.6 536.11,-79.22 527.96,-85.99 533.96,-89.6"/>
</a>
</g>
</g>
<!-- Node15&#45;&gt;Node10 -->
<g id="edge24_Node000015_Node000010" class="edge">
<title>Node15&#45;&gt;Node10</title>
<g id="a_edge24_Node000015_Node000010"><a xlink:title=" ">
<path fill="none" stroke="#63b8ff" d="M509.03,-169.84C541.05,-160.41 589.44,-146.17 623.15,-136.25"/>
<polygon fill="#63b8ff" stroke="#63b8ff" points="623.91,-139.67 632.52,-133.49 621.94,-132.95 623.91,-139.67"/>
</a>
</g>
</g>
</g>
</svg>
