<?xml version="1.0" encoding="UTF-8" standalone="no"?>
<!DOCTYPE svg PUBLIC "-//W3C//DTD SVG 1.1//EN"
 "http://www.w3.org/Graphics/SVG/1.1/DTD/svg11.dtd">
<!-- Generated by graphviz version 12.1.2 (20240928.0832)
 -->
<!-- Title: socket.c Pages: 1 -->
<svg width="564pt" height="313pt"
 viewBox="0.00 0.00 563.73 312.50" xmlns="http://www.w3.org/2000/svg" xmlns:xlink="http://www.w3.org/1999/xlink">
<g id="graph0" class="graph" transform="scale(1 1) rotate(0) translate(4 308.5)">
<title>socket.c</title>
<!-- Node1 -->
<g id="Node000001" class="node">
<title>Node1</title>
<g id="a_Node000001"><a xlink:title=" ">
<polygon fill="#999999" stroke="#666666" points="164.73,-304.5 108.98,-304.5 108.98,-283.75 164.73,-283.75 164.73,-304.5"/>
<text text-anchor="middle" x="136.85" y="-291" font-family="Helvetica,sans-Serif" font-size="10.00">socket.c</text>
</a>
</g>
</g>
<!-- Node2 -->
<g id="Node000002" class="node">
<title>Node2</title>
<g id="a_Node000002"><a xlink:href="socket_8h.html" target="_top" xlink:title=" ">
<polygon fill="white" stroke="#666666" points="186.1,-247.75 87.6,-247.75 87.6,-227 186.1,-227 186.1,-247.75"/>
<text text-anchor="middle" x="136.85" y="-234.25" font-family="Helvetica,sans-Serif" font-size="10.00">vlcb/net/socket.h</text>
</a>
</g>
</g>
<!-- Node1&#45;&gt;Node2 -->
<g id="edge1_Node000001_Node000002" class="edge">
<title>Node1&#45;&gt;Node2</title>
<g id="a_edge1_Node000001_Node000002"><a xlink:title=" ">
<path fill="none" stroke="#63b8ff" d="M136.85,-283.34C136.85,-276.72 136.85,-267.72 136.85,-259.52"/>
<polygon fill="#63b8ff" stroke="#63b8ff" points="140.35,-259.59 136.85,-249.59 133.35,-259.59 140.35,-259.59"/>
</a>
</g>
</g>
<!-- Node3 -->
<g id="Node000003" class="node">
<title>Node3</title>
<g id="a_Node000003"><a xlink:title=" ">
<polygon fill="#e0e0e0" stroke="#999999" points="142.35,-77.5 81.35,-77.5 81.35,-56.75 142.35,-56.75 142.35,-77.5"/>
<text text-anchor="middle" x="111.85" y="-64" font-family="Helvetica,sans-Serif" font-size="10.00">stdbool.h</text>
</a>
</g>
</g>
<!-- Node1&#45;&gt;Node3 -->
<g id="edge18_Node000001_Node000003" class="edge">
<title>Node1&#45;&gt;Node3</title>
<g id="a_edge18_Node000001_Node000003"><a xlink:title=" ">
<path fill="none" stroke="#63b8ff" d="M113.45,-283.28C81.8,-268.52 26.7,-237.35 3.85,-191 -5.09,-172.87 3.96,-126.35 13.85,-113.5 27.65,-95.57 50.21,-84.46 70.21,-77.73"/>
<polygon fill="#63b8ff" stroke="#63b8ff" points="71,-81.15 79.54,-74.87 68.95,-74.45 71,-81.15"/>
</a>
</g>
</g>
<!-- Node13 -->
<g id="Node000013" class="node">
<title>Node13</title>
<g id="a_Node000013"><a xlink:title=" ">
<polygon fill="#e0e0e0" stroke="#999999" points="259.35,-247.75 204.35,-247.75 204.35,-227 259.35,-227 259.35,-247.75"/>
<text text-anchor="middle" x="231.85" y="-234.25" font-family="Helvetica,sans-Serif" font-size="10.00">assert.h</text>
</a>
</g>
</g>
<!-- Node1&#45;&gt;Node13 -->
<g id="edge17_Node000001_Node000013" class="edge">
<title>Node1&#45;&gt;Node13</title>
<g id="a_edge17_Node000001_Node000013"><a xlink:title=" ">
<path fill="none" stroke="#63b8ff" d="M153.84,-283.34C168.16,-275.08 188.89,-263.13 205.39,-253.63"/>
<polygon fill="#63b8ff" stroke="#63b8ff" points="206.79,-256.86 213.7,-248.83 203.29,-250.8 206.79,-256.86"/>
</a>
</g>
</g>
<!-- Node2&#45;&gt;Node3 -->
<g id="edge2_Node000002_Node000003" class="edge">
<title>Node2&#45;&gt;Node3</title>
<g id="a_edge2_Node000002_Node000003"><a xlink:title=" ">
<path fill="none" stroke="#63b8ff" d="M145.35,-226.75C152.39,-218.08 161.87,-204.64 165.85,-191 168.44,-182.15 168.07,-179.2 165.85,-170.25 158.12,-139.06 138.91,-106.92 125.63,-87.22"/>
<polygon fill="#63b8ff" stroke="#63b8ff" points="128.58,-85.34 120,-79.13 122.84,-89.34 128.58,-85.34"/>
</a>
</g>
</g>
<!-- Node4 -->
<g id="Node000004" class="node">
<title>Node4</title>
<g id="a_Node000004"><a xlink:title=" ">
<polygon fill="#e0e0e0" stroke="#999999" points="77.35,-134.25 22.35,-134.25 22.35,-113.5 77.35,-113.5 77.35,-134.25"/>
<text text-anchor="middle" x="49.85" y="-120.75" font-family="Helvetica,sans-Serif" font-size="10.00">stddef.h</text>
</a>
</g>
</g>
<!-- Node2&#45;&gt;Node4 -->
<g id="edge3_Node000002_Node000004" class="edge">
<title>Node2&#45;&gt;Node4</title>
<g id="a_edge3_Node000002_Node000004"><a xlink:title=" ">
<path fill="none" stroke="#63b8ff" d="M87.39,-231.9C60.31,-226.63 28.88,-215.29 11.85,-191 0.78,-175.2 14.63,-155.95 28.62,-142.31"/>
<polygon fill="#63b8ff" stroke="#63b8ff" points="30.93,-144.94 36,-135.64 26.23,-139.75 30.93,-144.94"/>
</a>
</g>
</g>
<!-- Node5 -->
<g id="Node000005" class="node">
<title>Node5</title>
<g id="a_Node000005"><a xlink:href="vlcb_8h.html" target="_top" xlink:title=" ">
<polygon fill="white" stroke="#666666" points="427.1,-134.25 346.6,-134.25 346.6,-113.5 427.1,-113.5 427.1,-134.25"/>
<text text-anchor="middle" x="386.85" y="-120.75" font-family="Helvetica,sans-Serif" font-size="10.00">packet/vlcb.h</text>
</a>
</g>
</g>
<!-- Node2&#45;&gt;Node5 -->
<g id="edge4_Node000002_Node000005" class="edge">
<title>Node2&#45;&gt;Node5</title>
<g id="a_edge4_Node000002_Node000005"><a xlink:title=" ">
<path fill="none" stroke="#63b8ff" d="M186.54,-226.67C231.44,-217.38 293.76,-203.04 315.85,-191 338.14,-178.85 358.8,-158.09 372.02,-143.06"/>
<polygon fill="#63b8ff" stroke="#63b8ff" points="374.44,-145.62 378.25,-135.73 369.11,-141.08 374.44,-145.62"/>
</a>
</g>
</g>
<!-- Node10 -->
<g id="Node000010" class="node">
<title>Node10</title>
<g id="a_Node000010"><a xlink:href="addr_8h.html" target="_top" xlink:title=" ">
<polygon fill="white" stroke="#666666" points="306.85,-191 218.85,-191 218.85,-170.25 306.85,-170.25 306.85,-191"/>
<text text-anchor="middle" x="262.85" y="-177.5" font-family="Helvetica,sans-Serif" font-size="10.00">vlcb/net/addr.h</text>
</a>
</g>
</g>
<!-- Node2&#45;&gt;Node10 -->
<g id="edge9_Node000002_Node000010" class="edge">
<title>Node2&#45;&gt;Node10</title>
<g id="a_edge9_Node000002_Node000010"><a xlink:title=" ">
<path fill="none" stroke="#63b8ff" d="M159.38,-226.59C179.09,-218.02 207.96,-205.48 230.2,-195.81"/>
<polygon fill="#63b8ff" stroke="#63b8ff" points="231.36,-199.13 239.13,-191.93 228.57,-192.71 231.36,-199.13"/>
</a>
</g>
</g>
<!-- Node12 -->
<g id="Node000012" class="node">
<title>Node12</title>
<g id="a_Node000012"><a xlink:href="interface_8h.html" target="_top" xlink:title=" ">
<polygon fill="white" stroke="#666666" points="157.23,-191 20.48,-191 20.48,-170.25 157.23,-170.25 157.23,-191"/>
<text text-anchor="middle" x="88.85" y="-177.5" font-family="Helvetica,sans-Serif" font-size="10.00">vlcb/platform/interface.h</text>
</a>
</g>
</g>
<!-- Node2&#45;&gt;Node12 -->
<g id="edge15_Node000002_Node000012" class="edge">
<title>Node2&#45;&gt;Node12</title>
<g id="a_edge15_Node000002_Node000012"><a xlink:title=" ">
<path fill="none" stroke="#63b8ff" d="M128.27,-226.59C121.79,-219.19 112.7,-208.82 104.88,-199.91"/>
<polygon fill="#63b8ff" stroke="#63b8ff" points="107.58,-197.68 98.36,-192.47 102.32,-202.29 107.58,-197.68"/>
</a>
</g>
</g>
<!-- Node6 -->
<g id="Node000006" class="node">
<title>Node6</title>
<g id="a_Node000006"><a xlink:title=" ">
<polygon fill="#e0e0e0" stroke="#999999" points="422.23,-77.5 357.48,-77.5 357.48,-56.75 422.23,-56.75 422.23,-77.5"/>
<text text-anchor="middle" x="389.85" y="-64" font-family="Helvetica,sans-Serif" font-size="10.00">inttypes.h</text>
</a>
</g>
</g>
<!-- Node5&#45;&gt;Node6 -->
<g id="edge5_Node000005_Node000006" class="edge">
<title>Node5&#45;&gt;Node6</title>
<g id="a_edge5_Node000005_Node000006"><a xlink:title=" ">
<path fill="none" stroke="#63b8ff" d="M387.39,-113.09C387.75,-106.47 388.24,-97.47 388.69,-89.27"/>
<polygon fill="#63b8ff" stroke="#63b8ff" points="392.19,-89.52 389.24,-79.34 385.2,-89.13 392.19,-89.52"/>
</a>
</g>
</g>
<!-- Node7 -->
<g id="Node000007" class="node">
<title>Node7</title>
<g id="a_Node000007"><a xlink:href="vlcb__defs_8h.html" target="_top" xlink:title=" ">
<polygon fill="white" stroke="#666666" points="339.1,-77.5 198.6,-77.5 198.6,-56.75 339.1,-56.75 339.1,-77.5"/>
<text text-anchor="middle" x="268.85" y="-64" font-family="Helvetica,sans-Serif" font-size="10.00">vlcb/common/vlcb_defs.h</text>
</a>
</g>
</g>
<!-- Node5&#45;&gt;Node7 -->
<g id="edge6_Node000005_Node000007" class="edge">
<title>Node5&#45;&gt;Node7</title>
<g id="a_edge6_Node000005_Node000007"><a xlink:title=" ">
<path fill="none" stroke="#63b8ff" d="M365.76,-113.09C347.47,-104.6 320.75,-92.2 300,-82.58"/>
<polygon fill="#63b8ff" stroke="#63b8ff" points="301.68,-79.5 291.14,-78.47 298.74,-85.85 301.68,-79.5"/>
</a>
</g>
</g>
<!-- Node9 -->
<g id="Node000009" class="node">
<title>Node9</title>
<g id="a_Node000009"><a xlink:href="error_8h.html" target="_top" xlink:title=" ">
<polygon fill="white" stroke="#666666" points="555.73,-77.5 439.98,-77.5 439.98,-56.75 555.73,-56.75 555.73,-77.5"/>
<text text-anchor="middle" x="497.85" y="-64" font-family="Helvetica,sans-Serif" font-size="10.00">vlcb/platform/error.h</text>
</a>
</g>
</g>
<!-- Node5&#45;&gt;Node9 -->
<g id="edge8_Node000005_Node000009" class="edge">
<title>Node5&#45;&gt;Node9</title>
<g id="a_edge8_Node000005_Node000009"><a xlink:title=" ">
<path fill="none" stroke="#63b8ff" d="M406.7,-113.09C423.74,-104.68 448.57,-92.43 468.02,-82.84"/>
<polygon fill="#63b8ff" stroke="#63b8ff" points="469.4,-86.06 476.82,-78.5 466.31,-79.78 469.4,-86.06"/>
</a>
</g>
</g>
<!-- Node8 -->
<g id="Node000008" class="node">
<title>Node8</title>
<g id="a_Node000008"><a xlink:title=" ">
<polygon fill="#e0e0e0" stroke="#999999" points="246.23,-20.75 193.48,-20.75 193.48,0 246.23,0 246.23,-20.75"/>
<text text-anchor="middle" x="219.85" y="-7.25" font-family="Helvetica,sans-Serif" font-size="10.00">stdint.h</text>
</a>
</g>
</g>
<!-- Node7&#45;&gt;Node8 -->
<g id="edge7_Node000007_Node000008" class="edge">
<title>Node7&#45;&gt;Node8</title>
<g id="a_edge7_Node000007_Node000008"><a xlink:title=" ">
<path fill="none" stroke="#63b8ff" d="M260.09,-56.34C253.4,-48.86 244,-38.36 235.96,-29.38"/>
<polygon fill="#63b8ff" stroke="#63b8ff" points="238.82,-27.32 229.55,-22.21 233.61,-31.99 238.82,-27.32"/>
</a>
</g>
</g>
<!-- Node11 -->
<g id="Node000011" class="node">
<title>Node11</title>
<g id="a_Node000011"><a xlink:href="common_2inc_2vlcb_2common_2can_8h.html" target="_top" xlink:title=" ">
<polygon fill="white" stroke="#666666" points="324.48,-134.25 213.23,-134.25 213.23,-113.5 324.48,-113.5 324.48,-134.25"/>
<text text-anchor="middle" x="268.85" y="-120.75" font-family="Helvetica,sans-Serif" font-size="10.00">vlcb/common/can.h</text>
</a>
</g>
</g>
<!-- Node10&#45;&gt;Node11 -->
<g id="edge10_Node000010_Node000011" class="edge">
<title>Node10&#45;&gt;Node11</title>
<g id="a_edge10_Node000010_Node000011"><a xlink:title=" ">
<path fill="none" stroke="#63b8ff" d="M263.93,-169.84C264.65,-163.22 265.64,-154.22 266.54,-146.02"/>
<polygon fill="#63b8ff" stroke="#63b8ff" points="270.01,-146.4 267.62,-136.08 263.06,-145.64 270.01,-146.4"/>
</a>
</g>
</g>
<!-- Node11&#45;&gt;Node3 -->
<g id="edge12_Node000011_Node000003" class="edge">
<title>Node11&#45;&gt;Node3</title>
<g id="a_edge12_Node000011_Node000003"><a xlink:title=" ">
<path fill="none" stroke="#63b8ff" d="M240.78,-113.09C215.63,-104.32 178.51,-91.37 150.54,-81.62"/>
<polygon fill="#63b8ff" stroke="#63b8ff" points="151.97,-78.41 141.37,-78.42 149.66,-85.02 151.97,-78.41"/>
</a>
</g>
</g>
<!-- Node11&#45;&gt;Node6 -->
<g id="edge11_Node000011_Node000006" class="edge">
<title>Node11&#45;&gt;Node6</title>
<g id="a_edge11_Node000011_Node000006"><a xlink:title=" ">
<path fill="none" stroke="#63b8ff" d="M290.49,-113.09C309.33,-104.56 336.89,-92.09 358.21,-82.44"/>
<polygon fill="#63b8ff" stroke="#63b8ff" points="359.36,-85.76 367.03,-78.45 356.48,-79.39 359.36,-85.76"/>
</a>
</g>
</g>
<!-- Node11&#45;&gt;Node7 -->
<g id="edge14_Node000011_Node000007" class="edge">
<title>Node11&#45;&gt;Node7</title>
<g id="a_edge14_Node000011_Node000007"><a xlink:title=" ">
<path fill="none" stroke="#63b8ff" d="M268.85,-113.09C268.85,-106.47 268.85,-97.47 268.85,-89.27"/>
<polygon fill="#63b8ff" stroke="#63b8ff" points="272.35,-89.34 268.85,-79.34 265.35,-89.34 272.35,-89.34"/>
</a>
</g>
</g>
<!-- Node11&#45;&gt;Node8 -->
<g id="edge13_Node000011_Node000008" class="edge">
<title>Node11&#45;&gt;Node8</title>
<g id="a_edge13_Node000011_Node000008"><a xlink:title=" ">
<path fill="none" stroke="#63b8ff" d="M236.56,-113.16C219.44,-106.19 199.92,-94.88 189.85,-77.5 180.82,-61.9 191.24,-43.09 202.2,-29.53"/>
<polygon fill="#63b8ff" stroke="#63b8ff" points="204.65,-32.04 208.64,-22.22 199.4,-27.41 204.65,-32.04"/>
</a>
</g>
</g>
<!-- Node12&#45;&gt;Node4 -->
<g id="edge16_Node000012_Node000004" class="edge">
<title>Node12&#45;&gt;Node4</title>
<g id="a_edge16_Node000012_Node000004"><a xlink:title=" ">
<path fill="none" stroke="#63b8ff" d="M81.88,-169.84C76.72,-162.6 69.54,-152.51 63.28,-143.72"/>
<polygon fill="#63b8ff" stroke="#63b8ff" points="66.3,-141.93 57.64,-135.81 60.59,-145.99 66.3,-141.93"/>
</a>
</g>
</g>
</g>
</svg>
