<?xml version="1.0" encoding="UTF-8" standalone="no"?>
<!DOCTYPE svg PUBLIC "-//W3C//DTD SVG 1.1//EN"
 "http://www.w3.org/Graphics/SVG/1.1/DTD/svg11.dtd">
<!-- Generated by graphviz version 12.1.2 (20240928.0832)
 -->
<!-- Title: vlcb_net_sock_list_iter_HasNext Pages: 1 -->
<svg width="806pt" height="118pt"
 viewBox="0.00 0.00 806.00 117.80" xmlns="http://www.w3.org/2000/svg" xmlns:xlink="http://www.w3.org/1999/xlink">
<g id="graph0" class="graph" transform="scale(1 1) rotate(0) translate(4 113.8)">
<title>vlcb_net_sock_list_iter_HasNext</title>
<!-- Node1 -->
<g id="Node000001" class="node">
<title>Node1</title>
<g id="a_Node000001"><a xlink:title=" ">
<polygon fill="#999999" stroke="#666666" points="798,-59.18 692.75,-59.18 692.75,-25.68 798,-25.68 798,-59.18"/>
<text text-anchor="start" x="700.75" y="-45.68" font-family="Helvetica,sans-Serif" font-size="10.00">vlcb_net_sock_list</text>
<text text-anchor="middle" x="745.38" y="-32.93" font-family="Helvetica,sans-Serif" font-size="10.00">_iter_HasNext</text>
</a>
</g>
</g>
<!-- Node2 -->
<g id="Node000002" class="node">
<title>Node2</title>
<g id="a_Node000002"><a xlink:href="iface_8c.html#a671fece11b167dc248031f6928ed836b" target="_top" xlink:title=" ">
<polygon fill="white" stroke="#666666" points="505,-109.8 420,-109.8 420,-89.05 505,-89.05 505,-109.8"/>
<text text-anchor="middle" x="462.5" y="-96.3" font-family="Helvetica,sans-Serif" font-size="10.00">EgressPackets</text>
</a>
</g>
</g>
<!-- Node1&#45;&gt;Node2 -->
<g id="edge1_Node000001_Node000002" class="edge">
<title>Node1&#45;&gt;Node2</title>
<g id="a_edge1_Node000001_Node000002"><a xlink:title=" ">
<path fill="none" stroke="#63b8ff" d="M711.51,-65.65C695.72,-75.51 676.06,-85.97 656.75,-91.43 606.18,-105.73 545.22,-105.53 505.47,-103.22"/>
<polygon fill="#63b8ff" stroke="#63b8ff" points="713.04,-68.83 719.53,-60.47 709.24,-62.96 713.04,-68.83"/>
</a>
</g>
</g>
<!-- Node4 -->
<g id="Node000004" class="node">
<title>Node4</title>
<g id="a_Node000004"><a xlink:href="iface__can_8c.html#a96e0054424451b9fdc03c51cd74b9cb8" target="_top" xlink:title=" ">
<polygon fill="white" stroke="#666666" points="373.5,-38.8 269.75,-38.8 269.75,-18.05 373.5,-18.05 373.5,-38.8"/>
<text text-anchor="middle" x="321.62" y="-25.3" font-family="Helvetica,sans-Serif" font-size="10.00">ProcessCanPacket</text>
</a>
</g>
</g>
<!-- Node1&#45;&gt;Node4 -->
<g id="edge3_Node000001_Node000004" class="edge">
<title>Node1&#45;&gt;Node4</title>
<g id="a_edge3_Node000001_Node000004"><a xlink:title=" ">
<path fill="none" stroke="#63b8ff" d="M681.53,-26C614.15,-10.56 504.1,8.4 409.5,-4.43 390.74,-6.97 370.3,-12.47 353.97,-17.57"/>
<polygon fill="#63b8ff" stroke="#63b8ff" points="680.36,-29.32 690.9,-28.19 681.96,-22.51 680.36,-29.32"/>
</a>
</g>
</g>
<!-- Node6 -->
<g id="Node000006" class="node">
<title>Node6</title>
<g id="a_Node000006"><a xlink:href="iface__vlcb_8c.html#a772411fa3c2c8faf08e996dcec735dbe" target="_top" xlink:title=" ">
<polygon fill="white" stroke="#666666" points="515.5,-33.8 409.5,-33.8 409.5,-13.05 515.5,-13.05 515.5,-33.8"/>
<text text-anchor="middle" x="462.5" y="-20.3" font-family="Helvetica,sans-Serif" font-size="10.00">ProcessVlcbPacket</text>
</a>
</g>
</g>
<!-- Node1&#45;&gt;Node6 -->
<g id="edge6_Node000001_Node000006" class="edge">
<title>Node1&#45;&gt;Node6</title>
<g id="a_edge6_Node000001_Node000006"><a xlink:title=" ">
<path fill="none" stroke="#63b8ff" d="M681.26,-38.16C631.46,-34.79 562.81,-30.15 515.99,-26.98"/>
<polygon fill="#63b8ff" stroke="#63b8ff" points="680.81,-41.63 691.02,-38.82 681.28,-34.65 680.81,-41.63"/>
</a>
</g>
</g>
<!-- Node7 -->
<g id="Node000007" class="node">
<title>Node7</title>
<g id="a_Node000007"><a xlink:href="socket_8c.html#a81bef9c5afd9ccbb9d0a52b2ae1da9b2" target="_top" xlink:title=" ">
<polygon fill="white" stroke="#666666" points="656.75,-82.18 551.5,-82.18 551.5,-48.68 656.75,-48.68 656.75,-82.18"/>
<text text-anchor="start" x="559.5" y="-68.68" font-family="Helvetica,sans-Serif" font-size="10.00">vlcb_net_sock_list</text>
<text text-anchor="middle" x="604.12" y="-55.93" font-family="Helvetica,sans-Serif" font-size="10.00">_iter_Next</text>
</a>
</g>
</g>
<!-- Node1&#45;&gt;Node7 -->
<g id="edge8_Node000001_Node000007" class="edge">
<title>Node1&#45;&gt;Node7</title>
<g id="a_edge8_Node000001_Node000007"><a xlink:title=" ">
<path fill="none" stroke="#63b8ff" d="M681.21,-52.86C673.11,-54.2 664.9,-55.55 657.02,-56.86"/>
<polygon fill="#63b8ff" stroke="#63b8ff" points="681.73,-56.32 691.03,-51.24 680.59,-49.41 681.73,-56.32"/>
</a>
</g>
</g>
<!-- Node3 -->
<g id="Node000003" class="node">
<title>Node3</title>
<g id="a_Node000003"><a xlink:href="iface_8c.html#ac759fac91807dd30f90627e4c7a6dce2" target="_top" xlink:title=" ">
<polygon fill="white" stroke="#666666" points="109.75,-76.8 0,-76.8 0,-56.05 109.75,-56.05 109.75,-76.8"/>
<text text-anchor="middle" x="54.88" y="-63.3" font-family="Helvetica,sans-Serif" font-size="10.00">vlcb_net_iface_Poll</text>
</a>
</g>
</g>
<!-- Node2&#45;&gt;Node3 -->
<g id="edge2_Node000002_Node000003" class="edge">
<title>Node2&#45;&gt;Node3</title>
<g id="a_edge2_Node000002_Node000003"><a xlink:title=" ">
<path fill="none" stroke="#63b8ff" d="M408.23,-95.09C330.8,-88.79 187.92,-77.17 110,-70.83"/>
<polygon fill="#63b8ff" stroke="#63b8ff" points="407.86,-98.57 418.11,-95.9 408.43,-91.6 407.86,-98.57"/>
</a>
</g>
</g>
<!-- Node5 -->
<g id="Node000005" class="node">
<title>Node5</title>
<g id="a_Node000005"><a xlink:href="iface_8c.html#af59bb4e147a7f433c74828ae07108404" target="_top" xlink:title=" ">
<polygon fill="white" stroke="#666666" points="233.75,-57.8 145.75,-57.8 145.75,-37.05 233.75,-37.05 233.75,-57.8"/>
<text text-anchor="middle" x="189.75" y="-44.3" font-family="Helvetica,sans-Serif" font-size="10.00">IngressPackets</text>
</a>
</g>
</g>
<!-- Node4&#45;&gt;Node5 -->
<g id="edge4_Node000004_Node000005" class="edge">
<title>Node4&#45;&gt;Node5</title>
<g id="a_edge4_Node000004_Node000005"><a xlink:title=" ">
<path fill="none" stroke="#63b8ff" d="M257.99,-37.59C249.93,-38.77 241.82,-39.96 234.17,-41.08"/>
<polygon fill="#63b8ff" stroke="#63b8ff" points="258.41,-41.07 267.8,-36.16 257.4,-34.14 258.41,-41.07"/>
</a>
</g>
</g>
<!-- Node5&#45;&gt;Node3 -->
<g id="edge5_Node000005_Node000003" class="edge">
<title>Node5&#45;&gt;Node3</title>
<g id="a_edge5_Node000005_Node000003"><a xlink:title=" ">
<path fill="none" stroke="#63b8ff" d="M134.42,-55.2C126.35,-56.35 118.03,-57.54 109.97,-58.69"/>
<polygon fill="#63b8ff" stroke="#63b8ff" points="134.71,-58.69 144.11,-53.81 133.72,-51.76 134.71,-58.69"/>
</a>
</g>
</g>
<!-- Node6&#45;&gt;Node4 -->
<g id="edge7_Node000006_Node000004" class="edge">
<title>Node6&#45;&gt;Node4</title>
<g id="a_edge7_Node000006_Node000004"><a xlink:title=" ">
<path fill="none" stroke="#63b8ff" d="M397.98,-25.71C389.83,-26.01 381.56,-26.31 373.64,-26.59"/>
<polygon fill="#63b8ff" stroke="#63b8ff" points="398.01,-29.22 407.88,-25.36 397.76,-22.22 398.01,-29.22"/>
</a>
</g>
</g>
<!-- Node7&#45;&gt;Node2 -->
<g id="edge9_Node000007_Node000002" class="edge">
<title>Node7&#45;&gt;Node2</title>
<g id="a_edge9_Node000007_Node000002"><a xlink:title=" ">
<path fill="none" stroke="#63b8ff" d="M540.29,-80.73C528.35,-83.63 516.14,-86.61 505.07,-89.3"/>
<polygon fill="#63b8ff" stroke="#63b8ff" points="540.78,-84.21 549.66,-78.45 539.12,-77.41 540.78,-84.21"/>
</a>
</g>
</g>
<!-- Node7&#45;&gt;Node4 -->
<g id="edge10_Node000007_Node000004" class="edge">
<title>Node7&#45;&gt;Node4</title>
<g id="a_edge10_Node000007_Node000004"><a xlink:title=" ">
<path fill="none" stroke="#63b8ff" d="M539.9,-58.59C502.02,-54.32 452.95,-48.51 409.5,-42.43 397.85,-40.8 385.35,-38.88 373.56,-37"/>
<polygon fill="#63b8ff" stroke="#63b8ff" points="539.44,-62.06 549.77,-59.69 540.22,-55.1 539.44,-62.06"/>
</a>
</g>
</g>
<!-- Node7&#45;&gt;Node6 -->
<g id="edge11_Node000007_Node000006" class="edge">
<title>Node7&#45;&gt;Node6</title>
<g id="a_edge11_Node000007_Node000006"><a xlink:title=" ">
<path fill="none" stroke="#63b8ff" d="M540.49,-46.59C526.42,-42.35 511.96,-38.01 499.43,-34.23"/>
<polygon fill="#63b8ff" stroke="#63b8ff" points="539.1,-49.82 549.68,-49.35 541.12,-43.12 539.1,-49.82"/>
</a>
</g>
</g>
</g>
</svg>
