<?xml version="1.0" encoding="UTF-8" standalone="no"?>
<!DOCTYPE svg PUBLIC "-//W3C//DTD SVG 1.1//EN"
 "http://www.w3.org/Graphics/SVG/1.1/DTD/svg11.dtd">
<!-- Generated by graphviz version 12.1.2 (20240928.0832)
 -->
<!-- Title: vlcb_net_sock_list_iter_HasNext Pages: 1 -->
<svg width="806pt" height="69pt"
 viewBox="0.00 0.00 806.00 68.62" xmlns="http://www.w3.org/2000/svg" xmlns:xlink="http://www.w3.org/1999/xlink">
<g id="graph0" class="graph" transform="scale(1 1) rotate(0) translate(4 64.62)">
<title>vlcb_net_sock_list_iter_HasNext</title>
<!-- Node1 -->
<g id="Node000001" class="node">
<title>Node1</title>
<g id="a_Node000001"><a xlink:title=" ">
<polygon fill="#999999" stroke="#666666" points="798,-47.12 692.75,-47.12 692.75,-13.62 798,-13.62 798,-47.12"/>
<text text-anchor="start" x="700.75" y="-33.62" font-family="Helvetica,sans-Serif" font-size="10.00">vlcb_net_sock_list</text>
<text text-anchor="middle" x="745.38" y="-20.88" font-family="Helvetica,sans-Serif" font-size="10.00">_iter_HasNext</text>
</a>
</g>
</g>
<!-- Node2 -->
<g id="Node000002" class="node">
<title>Node2</title>
<g id="a_Node000002"><a xlink:href="iface_8c.html#ab1c3b4ca7e0b59ee8d189751e2fe5d7e" target="_top" xlink:title=" ">
<polygon fill="white" stroke="#666666" points="505,-59.75 420,-59.75 420,-39 505,-39 505,-59.75"/>
<text text-anchor="middle" x="462.5" y="-46.25" font-family="Helvetica,sans-Serif" font-size="10.00">EgressPackets</text>
</a>
</g>
</g>
<!-- Node1&#45;&gt;Node2 -->
<g id="edge1_Node000001_Node000002" class="edge">
<title>Node1&#45;&gt;Node2</title>
<g id="a_edge1_Node000001_Node000002"><a xlink:title=" ">
<path fill="none" stroke="#63b8ff" d="M684.35,-50.65C675.2,-53.02 665.79,-55.06 656.75,-56.38 604.92,-63.9 544.5,-59.66 505.2,-55.19"/>
<polygon fill="#63b8ff" stroke="#63b8ff" points="685.18,-54.06 693.89,-48.03 683.32,-47.31 685.18,-54.06"/>
</a>
</g>
</g>
<!-- Node4 -->
<g id="Node000004" class="node">
<title>Node4</title>
<g id="a_Node000004"><a xlink:href="iface__vlcb_8c.html#a772411fa3c2c8faf08e996dcec735dbe" target="_top" xlink:title=" ">
<polygon fill="white" stroke="#666666" points="515.5,-20.75 409.5,-20.75 409.5,0 515.5,0 515.5,-20.75"/>
<text text-anchor="middle" x="462.5" y="-7.25" font-family="Helvetica,sans-Serif" font-size="10.00">ProcessVlcbPacket</text>
</a>
</g>
</g>
<!-- Node1&#45;&gt;Node4 -->
<g id="edge3_Node000001_Node000004" class="edge">
<title>Node1&#45;&gt;Node4</title>
<g id="a_edge3_Node000001_Node000004"><a xlink:title=" ">
<path fill="none" stroke="#63b8ff" d="M684.35,-10.1C675.2,-7.73 665.79,-5.69 656.75,-4.38 609.41,2.5 554.9,-0.14 515.86,-3.83"/>
<polygon fill="#63b8ff" stroke="#63b8ff" points="683.32,-13.44 693.89,-12.72 685.18,-6.69 683.32,-13.44"/>
</a>
</g>
</g>
<!-- Node7 -->
<g id="Node000007" class="node">
<title>Node7</title>
<g id="a_Node000007"><a xlink:href="socket_8c.html#a81bef9c5afd9ccbb9d0a52b2ae1da9b2" target="_top" xlink:title=" ">
<polygon fill="white" stroke="#666666" points="656.75,-47.12 551.5,-47.12 551.5,-13.62 656.75,-13.62 656.75,-47.12"/>
<text text-anchor="start" x="559.5" y="-33.62" font-family="Helvetica,sans-Serif" font-size="10.00">vlcb_net_sock_list</text>
<text text-anchor="middle" x="604.12" y="-20.88" font-family="Helvetica,sans-Serif" font-size="10.00">_iter_Next</text>
</a>
</g>
</g>
<!-- Node1&#45;&gt;Node7 -->
<g id="edge7_Node000001_Node000007" class="edge">
<title>Node1&#45;&gt;Node7</title>
<g id="a_edge7_Node000001_Node000007"><a xlink:title=" ">
<path fill="none" stroke="#63b8ff" d="M681.21,-30.38C673.11,-30.38 664.9,-30.38 657.02,-30.38"/>
<polygon fill="#63b8ff" stroke="#63b8ff" points="681.01,-33.88 691.01,-30.38 681.01,-26.88 681.01,-33.88"/>
</a>
</g>
</g>
<!-- Node3 -->
<g id="Node000003" class="node">
<title>Node3</title>
<g id="a_Node000003"><a xlink:href="iface_8c.html#abc32be0df72f3b542d2f5a53ecdcfc66" target="_top" xlink:title=" ">
<polygon fill="white" stroke="#666666" points="109.75,-39.75 0,-39.75 0,-19 109.75,-19 109.75,-39.75"/>
<text text-anchor="middle" x="54.88" y="-26.25" font-family="Helvetica,sans-Serif" font-size="10.00">vlcb_net_iface_Poll</text>
</a>
</g>
</g>
<!-- Node2&#45;&gt;Node3 -->
<g id="edge2_Node000002_Node000003" class="edge">
<title>Node2&#45;&gt;Node3</title>
<g id="a_edge2_Node000002_Node000003"><a xlink:title=" ">
<path fill="none" stroke="#63b8ff" d="M408.23,-46.75C330.8,-42.93 187.92,-35.89 110,-32.04"/>
<polygon fill="#63b8ff" stroke="#63b8ff" points="407.95,-50.24 418.11,-47.24 408.29,-43.25 407.95,-50.24"/>
</a>
</g>
</g>
<!-- Node5 -->
<g id="Node000005" class="node">
<title>Node5</title>
<g id="a_Node000005"><a xlink:href="iface__can_8c.html#a8aa9c1f4ce14446285c7f5b9240f83d9" target="_top" xlink:title=" ">
<polygon fill="white" stroke="#666666" points="373.5,-20.75 269.75,-20.75 269.75,0 373.5,0 373.5,-20.75"/>
<text text-anchor="middle" x="321.62" y="-7.25" font-family="Helvetica,sans-Serif" font-size="10.00">ProcessCanPacket</text>
</a>
</g>
</g>
<!-- Node4&#45;&gt;Node5 -->
<g id="edge4_Node000004_Node000005" class="edge">
<title>Node4&#45;&gt;Node5</title>
<g id="a_edge4_Node000004_Node000005"><a xlink:title=" ">
<path fill="none" stroke="#63b8ff" d="M397.98,-10.38C389.83,-10.38 381.56,-10.38 373.64,-10.38"/>
<polygon fill="#63b8ff" stroke="#63b8ff" points="397.88,-13.88 407.88,-10.38 397.88,-6.88 397.88,-13.88"/>
</a>
</g>
</g>
<!-- Node6 -->
<g id="Node000006" class="node">
<title>Node6</title>
<g id="a_Node000006"><a xlink:href="iface_8c.html#aa4be352a2d0263581236f93031a0d76b" target="_top" xlink:title=" ">
<polygon fill="white" stroke="#666666" points="233.75,-20.75 145.75,-20.75 145.75,0 233.75,0 233.75,-20.75"/>
<text text-anchor="middle" x="189.75" y="-7.25" font-family="Helvetica,sans-Serif" font-size="10.00">IngressPackets</text>
</a>
</g>
</g>
<!-- Node5&#45;&gt;Node6 -->
<g id="edge5_Node000005_Node000006" class="edge">
<title>Node5&#45;&gt;Node6</title>
<g id="a_edge5_Node000005_Node000006"><a xlink:title=" ">
<path fill="none" stroke="#63b8ff" d="M257.99,-10.38C249.93,-10.38 241.82,-10.38 234.17,-10.38"/>
<polygon fill="#63b8ff" stroke="#63b8ff" points="257.78,-13.88 267.78,-10.38 257.78,-6.88 257.78,-13.88"/>
</a>
</g>
</g>
<!-- Node6&#45;&gt;Node3 -->
<g id="edge6_Node000006_Node000003" class="edge">
<title>Node6&#45;&gt;Node3</title>
<g id="a_edge6_Node000006_Node000003"><a xlink:title=" ">
<path fill="none" stroke="#63b8ff" d="M134.42,-18.14C126.35,-19.3 118.03,-20.49 109.97,-21.64"/>
<polygon fill="#63b8ff" stroke="#63b8ff" points="134.71,-21.64 144.11,-16.76 133.72,-14.71 134.71,-21.64"/>
</a>
</g>
</g>
<!-- Node7&#45;&gt;Node2 -->
<g id="edge8_Node000007_Node000002" class="edge">
<title>Node7&#45;&gt;Node2</title>
<g id="a_edge8_Node000007_Node000002"><a xlink:title=" ">
<path fill="none" stroke="#63b8ff" d="M539.92,-38.98C528.11,-40.58 516.03,-42.23 505.07,-43.72"/>
<polygon fill="#63b8ff" stroke="#63b8ff" points="540.2,-42.47 549.63,-37.65 539.25,-35.53 540.2,-42.47"/>
</a>
</g>
</g>
<!-- Node7&#45;&gt;Node4 -->
<g id="edge9_Node000007_Node000004" class="edge">
<title>Node7&#45;&gt;Node4</title>
<g id="a_edge9_Node000007_Node000004"><a xlink:title=" ">
<path fill="none" stroke="#63b8ff" d="M539.79,-21.3C531.67,-20.14 523.44,-18.96 515.53,-17.83"/>
<polygon fill="#63b8ff" stroke="#63b8ff" points="539.24,-24.76 549.64,-22.71 540.23,-17.83 539.24,-24.76"/>
</a>
</g>
</g>
</g>
</svg>
