<?xml version="1.0" encoding="UTF-8" standalone="no"?>
<!DOCTYPE svg PUBLIC "-//W3C//DTD SVG 1.1//EN"
 "http://www.w3.org/Graphics/SVG/1.1/DTD/svg11.dtd">
<!-- Generated by graphviz version 12.1.2 (20240928.0832)
 -->
<!-- Title: vlcb_net_sock_list_GetIterator Pages: 1 -->
<svg width="665pt" height="105pt"
 viewBox="0.00 0.00 664.75 104.75" xmlns="http://www.w3.org/2000/svg" xmlns:xlink="http://www.w3.org/1999/xlink">
<g id="graph0" class="graph" transform="scale(1 1) rotate(0) translate(4 100.75)">
<title>vlcb_net_sock_list_GetIterator</title>
<!-- Node1 -->
<g id="Node000001" class="node">
<title>Node1</title>
<g id="a_Node000001"><a xlink:title=" ">
<polygon fill="#999999" stroke="#666666" points="656.75,-65.12 551.5,-65.12 551.5,-31.62 656.75,-31.62 656.75,-65.12"/>
<text text-anchor="start" x="559.5" y="-51.62" font-family="Helvetica,sans-Serif" font-size="10.00">vlcb_net_sock_list</text>
<text text-anchor="middle" x="604.12" y="-38.88" font-family="Helvetica,sans-Serif" font-size="10.00">_GetIterator</text>
</a>
</g>
</g>
<!-- Node2 -->
<g id="Node000002" class="node">
<title>Node2</title>
<g id="a_Node000002"><a xlink:href="iface_8c.html#a671fece11b167dc248031f6928ed836b" target="_top" xlink:title=" ">
<polygon fill="white" stroke="#666666" points="364.12,-96.75 279.12,-96.75 279.12,-76 364.12,-76 364.12,-96.75"/>
<text text-anchor="middle" x="321.62" y="-83.25" font-family="Helvetica,sans-Serif" font-size="10.00">EgressPackets</text>
</a>
</g>
</g>
<!-- Node1&#45;&gt;Node2 -->
<g id="edge1_Node000001_Node000002" class="edge">
<title>Node1&#45;&gt;Node2</title>
<g id="a_edge1_Node000001_Node000002"><a xlink:title=" ">
<path fill="none" stroke="#63b8ff" d="M540.11,-58.71C531.84,-59.99 523.47,-61.24 515.5,-62.38 463.55,-69.75 403.55,-77.02 364.44,-81.59"/>
<polygon fill="#63b8ff" stroke="#63b8ff" points="540.44,-62.2 549.78,-57.2 539.36,-55.29 540.44,-62.2"/>
</a>
</g>
</g>
<!-- Node4 -->
<g id="Node000004" class="node">
<title>Node4</title>
<g id="a_Node000004"><a xlink:href="iface__can_8c.html#a96e0054424451b9fdc03c51cd74b9cb8" target="_top" xlink:title=" ">
<polygon fill="white" stroke="#666666" points="373.5,-57.75 269.75,-57.75 269.75,-37 373.5,-37 373.5,-57.75"/>
<text text-anchor="middle" x="321.62" y="-44.25" font-family="Helvetica,sans-Serif" font-size="10.00">ProcessCanPacket</text>
</a>
</g>
</g>
<!-- Node1&#45;&gt;Node4 -->
<g id="edge3_Node000001_Node000004" class="edge">
<title>Node1&#45;&gt;Node4</title>
<g id="a_edge3_Node000001_Node000004"><a xlink:title=" ">
<path fill="none" stroke="#63b8ff" d="M539.68,-48.15C489.6,-47.97 420.62,-47.72 373.97,-47.56"/>
<polygon fill="#63b8ff" stroke="#63b8ff" points="539.5,-51.65 549.51,-48.18 539.52,-44.65 539.5,-51.65"/>
</a>
</g>
</g>
<!-- Node6 -->
<g id="Node000006" class="node">
<title>Node6</title>
<g id="a_Node000006"><a xlink:href="iface__vlcb_8c.html#a772411fa3c2c8faf08e996dcec735dbe" target="_top" xlink:title=" ">
<polygon fill="white" stroke="#666666" points="515.5,-20.75 409.5,-20.75 409.5,0 515.5,0 515.5,-20.75"/>
<text text-anchor="middle" x="462.5" y="-7.25" font-family="Helvetica,sans-Serif" font-size="10.00">ProcessVlcbPacket</text>
</a>
</g>
</g>
<!-- Node1&#45;&gt;Node6 -->
<g id="edge6_Node000001_Node000006" class="edge">
<title>Node1&#45;&gt;Node6</title>
<g id="a_edge6_Node000001_Node000006"><a xlink:title=" ">
<path fill="none" stroke="#63b8ff" d="M540.22,-31.26C527.67,-27.84 514.82,-24.34 503.31,-21.21"/>
<polygon fill="#63b8ff" stroke="#63b8ff" points="539.11,-34.58 549.67,-33.83 540.94,-27.82 539.11,-34.58"/>
</a>
</g>
</g>
<!-- Node3 -->
<g id="Node000003" class="node">
<title>Node3</title>
<g id="a_Node000003"><a xlink:href="iface_8c.html#ac759fac91807dd30f90627e4c7a6dce2" target="_top" xlink:title=" ">
<polygon fill="white" stroke="#666666" points="109.75,-76.75 0,-76.75 0,-56 109.75,-56 109.75,-76.75"/>
<text text-anchor="middle" x="54.88" y="-63.25" font-family="Helvetica,sans-Serif" font-size="10.00">vlcb_net_iface_Poll</text>
</a>
</g>
</g>
<!-- Node2&#45;&gt;Node3 -->
<g id="edge2_Node000002_Node000003" class="edge">
<title>Node2&#45;&gt;Node3</title>
<g id="a_edge2_Node000002_Node000003"><a xlink:title=" ">
<path fill="none" stroke="#63b8ff" d="M267.21,-82.34C221.48,-78.89 155.94,-73.93 110,-70.46"/>
<polygon fill="#63b8ff" stroke="#63b8ff" points="266.93,-85.83 277.17,-83.09 267.46,-78.85 266.93,-85.83"/>
</a>
</g>
</g>
<!-- Node5 -->
<g id="Node000005" class="node">
<title>Node5</title>
<g id="a_Node000005"><a xlink:href="iface_8c.html#af59bb4e147a7f433c74828ae07108404" target="_top" xlink:title=" ">
<polygon fill="white" stroke="#666666" points="233.75,-57.75 145.75,-57.75 145.75,-37 233.75,-37 233.75,-57.75"/>
<text text-anchor="middle" x="189.75" y="-44.25" font-family="Helvetica,sans-Serif" font-size="10.00">IngressPackets</text>
</a>
</g>
</g>
<!-- Node4&#45;&gt;Node5 -->
<g id="edge4_Node000004_Node000005" class="edge">
<title>Node4&#45;&gt;Node5</title>
<g id="a_edge4_Node000004_Node000005"><a xlink:title=" ">
<path fill="none" stroke="#63b8ff" d="M257.99,-47.38C249.93,-47.38 241.82,-47.38 234.17,-47.38"/>
<polygon fill="#63b8ff" stroke="#63b8ff" points="257.78,-50.88 267.78,-47.38 257.78,-43.88 257.78,-50.88"/>
</a>
</g>
</g>
<!-- Node5&#45;&gt;Node3 -->
<g id="edge5_Node000005_Node000003" class="edge">
<title>Node5&#45;&gt;Node3</title>
<g id="a_edge5_Node000005_Node000003"><a xlink:title=" ">
<path fill="none" stroke="#63b8ff" d="M134.42,-55.14C126.35,-56.3 118.03,-57.49 109.97,-58.64"/>
<polygon fill="#63b8ff" stroke="#63b8ff" points="134.71,-58.64 144.11,-53.76 133.72,-51.71 134.71,-58.64"/>
</a>
</g>
</g>
<!-- Node6&#45;&gt;Node4 -->
<g id="edge7_Node000006_Node000004" class="edge">
<title>Node6&#45;&gt;Node4</title>
<g id="a_edge7_Node000006_Node000004"><a xlink:title=" ">
<path fill="none" stroke="#63b8ff" d="M409.94,-24.11C394.43,-28.24 377.65,-32.72 362.98,-36.62"/>
<polygon fill="#63b8ff" stroke="#63b8ff" points="410.73,-27.52 419.5,-21.57 408.93,-20.76 410.73,-27.52"/>
</a>
</g>
</g>
</g>
</svg>
