<?xml version="1.0" encoding="UTF-8" standalone="no"?>
<!DOCTYPE svg PUBLIC "-//W3C//DTD SVG 1.1//EN"
 "http://www.w3.org/Graphics/SVG/1.1/DTD/svg11.dtd">
<!-- Generated by graphviz version 12.1.2 (20240928.0832)
 -->
<!-- Title: socket.h Pages: 1 -->
<svg width="893pt" height="256pt"
 viewBox="0.00 0.00 892.62 255.75" xmlns="http://www.w3.org/2000/svg" xmlns:xlink="http://www.w3.org/1999/xlink">
<g id="graph0" class="graph" transform="scale(1 1) rotate(0) translate(4 251.75)">
<title>socket.h</title>
<!-- Node1 -->
<g id="Node000001" class="node">
<title>Node1</title>
<g id="a_Node000001"><a xlink:title=" ">
<polygon fill="#999999" stroke="#666666" points="615,-247.75 558.5,-247.75 558.5,-227 615,-227 615,-247.75"/>
<text text-anchor="middle" x="586.75" y="-234.25" font-family="Helvetica,sans-Serif" font-size="10.00">socket.h</text>
</a>
</g>
</g>
<!-- Node2 -->
<g id="Node000002" class="node">
<title>Node2</title>
<g id="a_Node000002"><a xlink:href="socket_2datagram_8c.html" target="_top" xlink:title=" ">
<polygon fill="white" stroke="#666666" points="71.5,-134.25 0,-134.25 0,-113.5 71.5,-113.5 71.5,-134.25"/>
<text text-anchor="middle" x="35.75" y="-120.75" font-family="Helvetica,sans-Serif" font-size="10.00">datagram.c</text>
</a>
</g>
</g>
<!-- Node1&#45;&gt;Node2 -->
<g id="edge1_Node000001_Node000002" class="edge">
<title>Node1&#45;&gt;Node2</title>
<g id="a_edge1_Node000001_Node000002"><a xlink:title=" ">
<path fill="none" stroke="#63b8ff" d="M546.96,-233.21C483.39,-227.67 355.21,-214.5 248.75,-191 180.31,-175.9 102.17,-149.09 62.26,-134.69"/>
<polygon fill="#63b8ff" stroke="#63b8ff" points="546.66,-236.7 556.92,-234.06 547.25,-229.72 546.66,-236.7"/>
</a>
</g>
</g>
<!-- Node3 -->
<g id="Node000003" class="node">
<title>Node3</title>
<g id="a_Node000003"><a xlink:href="socket_2datagram_8h.html" target="_top" xlink:title=" ">
<polygon fill="white" stroke="#666666" points="329.88,-191 257.62,-191 257.62,-170.25 329.88,-170.25 329.88,-191"/>
<text text-anchor="middle" x="293.75" y="-177.5" font-family="Helvetica,sans-Serif" font-size="10.00">datagram.h</text>
</a>
</g>
</g>
<!-- Node1&#45;&gt;Node3 -->
<g id="edge2_Node000001_Node000003" class="edge">
<title>Node1&#45;&gt;Node3</title>
<g id="a_edge2_Node000001_Node000003"><a xlink:title=" ">
<path fill="none" stroke="#63b8ff" d="M547.03,-228.95C489.93,-218.28 385.46,-198.76 330.22,-188.44"/>
<polygon fill="#63b8ff" stroke="#63b8ff" points="546.16,-232.35 556.63,-230.75 547.45,-225.47 546.16,-232.35"/>
</a>
</g>
</g>
<!-- Node7 -->
<g id="Node000007" class="node">
<title>Node7</title>
<g id="a_Node000007"><a xlink:href="state__machine_8c.html" target="_top" xlink:title=" ">
<polygon fill="white" stroke="#666666" points="437.88,-20.75 341.62,-20.75 341.62,0 437.88,0 437.88,-20.75"/>
<text text-anchor="middle" x="389.75" y="-7.25" font-family="Helvetica,sans-Serif" font-size="10.00">state_machine.c</text>
</a>
</g>
</g>
<!-- Node1&#45;&gt;Node7 -->
<g id="edge28_Node000001_Node000007" class="edge">
<title>Node1&#45;&gt;Node7</title>
<g id="a_edge28_Node000001_Node000007"><a xlink:title=" ">
<path fill="none" stroke="#63b8ff" d="M570.43,-218.24C552.15,-197.88 521.68,-163.83 495.75,-134.25 458.97,-92.31 415.68,-41.74 397.94,-20.98"/>
<polygon fill="#63b8ff" stroke="#63b8ff" points="567.61,-220.34 576.9,-225.44 572.82,-215.66 567.61,-220.34"/>
</a>
</g>
</g>
<!-- Node9 -->
<g id="Node000009" class="node">
<title>Node9</title>
<g id="a_Node000009"><a xlink:href="iface_8c.html" target="_top" xlink:title=" ">
<polygon fill="white" stroke="#666666" points="728.88,-77.5 680.62,-77.5 680.62,-56.75 728.88,-56.75 728.88,-77.5"/>
<text text-anchor="middle" x="704.75" y="-64" font-family="Helvetica,sans-Serif" font-size="10.00">iface.c</text>
</a>
</g>
</g>
<!-- Node1&#45;&gt;Node9 -->
<g id="edge14_Node000001_Node000009" class="edge">
<title>Node1&#45;&gt;Node9</title>
<g id="a_edge14_Node000001_Node000009"><a xlink:title=" ">
<path fill="none" stroke="#63b8ff" d="M626.25,-228.78C673.15,-217.38 749.13,-190.83 781.75,-134.25 796.89,-107.99 756.92,-87.17 729.07,-76.33"/>
<polygon fill="#63b8ff" stroke="#63b8ff" points="625.72,-225.31 616.76,-230.96 627.28,-232.13 625.72,-225.31"/>
</a>
</g>
</g>
<!-- Node10 -->
<g id="Node000010" class="node">
<title>Node10</title>
<g id="a_Node000010"><a xlink:href="iface_8h.html" target="_top" xlink:title=" ">
<polygon fill="white" stroke="#666666" points="611.25,-191 562.25,-191 562.25,-170.25 611.25,-170.25 611.25,-191"/>
<text text-anchor="middle" x="586.75" y="-177.5" font-family="Helvetica,sans-Serif" font-size="10.00">iface.h</text>
</a>
</g>
</g>
<!-- Node1&#45;&gt;Node10 -->
<g id="edge15_Node000001_Node000010" class="edge">
<title>Node1&#45;&gt;Node10</title>
<g id="a_edge15_Node000001_Node000010"><a xlink:title=" ">
<path fill="none" stroke="#63b8ff" d="M586.75,-215.13C586.75,-206.91 586.75,-197.93 586.75,-191.33"/>
<polygon fill="#63b8ff" stroke="#63b8ff" points="583.25,-215.07 586.75,-225.07 590.25,-215.07 583.25,-215.07"/>
</a>
</g>
</g>
<!-- Node15 -->
<g id="Node000015" class="node">
<title>Node15</title>
<g id="a_Node000015"><a xlink:href="net_2inc_2vlcb_2net_8h.html" target="_top" xlink:title=" ">
<polygon fill="white" stroke="#666666" points="773.12,-134.25 732.38,-134.25 732.38,-113.5 773.12,-113.5 773.12,-134.25"/>
<text text-anchor="middle" x="752.75" y="-120.75" font-family="Helvetica,sans-Serif" font-size="10.00">net.h</text>
</a>
</g>
</g>
<!-- Node1&#45;&gt;Node15 -->
<g id="edge26_Node000001_Node000015" class="edge">
<title>Node1&#45;&gt;Node15</title>
<g id="a_edge26_Node000001_Node000015"><a xlink:title=" ">
<path fill="none" stroke="#63b8ff" d="M610.63,-220.34C645.57,-196.87 709.58,-153.87 738.22,-134.63"/>
<polygon fill="#63b8ff" stroke="#63b8ff" points="608.8,-217.35 602.45,-225.83 612.7,-223.16 608.8,-217.35"/>
</a>
</g>
</g>
<!-- Node16 -->
<g id="Node000016" class="node">
<title>Node16</title>
<g id="a_Node000016"><a xlink:href="socket_8c.html" target="_top" xlink:title=" ">
<polygon fill="white" stroke="#666666" points="884.62,-191 828.88,-191 828.88,-170.25 884.62,-170.25 884.62,-191"/>
<text text-anchor="middle" x="856.75" y="-177.5" font-family="Helvetica,sans-Serif" font-size="10.00">socket.c</text>
</a>
</g>
</g>
<!-- Node1&#45;&gt;Node16 -->
<g id="edge27_Node000001_Node000016" class="edge">
<title>Node1&#45;&gt;Node16</title>
<g id="a_edge27_Node000001_Node000016"><a xlink:title=" ">
<path fill="none" stroke="#63b8ff" d="M626.38,-228.78C671.9,-219.98 748.82,-204.92 814.75,-191 819.28,-190.04 824.08,-189 828.76,-187.97"/>
<polygon fill="#63b8ff" stroke="#63b8ff" points="625.87,-225.31 616.72,-230.64 627.2,-232.18 625.87,-225.31"/>
</a>
</g>
</g>
<!-- Node3&#45;&gt;Node2 -->
<g id="edge3_Node000003_Node000002" class="edge">
<title>Node3&#45;&gt;Node2</title>
<g id="a_edge3_Node000003_Node000002"><a xlink:title=" ">
<path fill="none" stroke="#63b8ff" d="M246.11,-169.51C195.77,-158.83 117.51,-142.23 71.98,-132.56"/>
<polygon fill="#63b8ff" stroke="#63b8ff" points="245.34,-172.93 255.85,-171.58 246.8,-166.08 245.34,-172.93"/>
</a>
</g>
</g>
<!-- Node4 -->
<g id="Node000004" class="node">
<title>Node4</title>
<g id="a_Node000004"><a xlink:href="module_8c.html" target="_top" xlink:title=" ">
<polygon fill="white" stroke="#666666" points="198.25,-20.75 137.25,-20.75 137.25,0 198.25,0 198.25,-20.75"/>
<text text-anchor="middle" x="167.75" y="-7.25" font-family="Helvetica,sans-Serif" font-size="10.00">module.c</text>
</a>
</g>
</g>
<!-- Node3&#45;&gt;Node4 -->
<g id="edge4_Node000003_Node000004" class="edge">
<title>Node3&#45;&gt;Node4</title>
<g id="a_edge4_Node000003_Node000004"><a xlink:title=" ">
<path fill="none" stroke="#63b8ff" d="M255.71,-165.36C220.25,-149.76 169.52,-121.05 146.75,-77.5 136.93,-58.71 150.54,-34.5 160,-21.21"/>
<polygon fill="#63b8ff" stroke="#63b8ff" points="254.21,-168.52 264.79,-169.19 256.93,-162.07 254.21,-168.52"/>
</a>
</g>
</g>
<!-- Node5 -->
<g id="Node000005" class="node">
<title>Node5</title>
<g id="a_Node000005"><a xlink:href="module_2inc_2vlcb_2module_8h.html" target="_top" xlink:title=" ">
<polygon fill="white" stroke="#666666" points="324.62,-134.25 262.88,-134.25 262.88,-113.5 324.62,-113.5 324.62,-134.25"/>
<text text-anchor="middle" x="293.75" y="-120.75" font-family="Helvetica,sans-Serif" font-size="10.00">module.h</text>
</a>
</g>
</g>
<!-- Node3&#45;&gt;Node5 -->
<g id="edge5_Node000003_Node000005" class="edge">
<title>Node3&#45;&gt;Node5</title>
<g id="a_edge5_Node000003_Node000005"><a xlink:title=" ">
<path fill="none" stroke="#63b8ff" d="M293.75,-158.38C293.75,-150.16 293.75,-141.18 293.75,-134.58"/>
<polygon fill="#63b8ff" stroke="#63b8ff" points="290.25,-158.32 293.75,-168.32 297.25,-158.32 290.25,-158.32"/>
</a>
</g>
</g>
<!-- Node3&#45;&gt;Node7 -->
<g id="edge13_Node000003_Node000007" class="edge">
<title>Node3&#45;&gt;Node7</title>
<g id="a_edge13_Node000003_Node000007"><a xlink:title=" ">
<path fill="none" stroke="#63b8ff" d="M311.41,-161.84C329.4,-142.66 356.72,-110.44 371.75,-77.5 380.44,-58.45 385.69,-34.34 388.12,-21.13"/>
<polygon fill="#63b8ff" stroke="#63b8ff" points="309.1,-159.19 304.7,-168.82 314.15,-164.03 309.1,-159.19"/>
</a>
</g>
</g>
<!-- Node5&#45;&gt;Node4 -->
<g id="edge6_Node000005_Node000004" class="edge">
<title>Node5&#45;&gt;Node4</title>
<g id="a_edge6_Node000005_Node000004"><a xlink:title=" ">
<path fill="none" stroke="#63b8ff" d="M251.22,-121.34C219.5,-117.69 178.11,-107.08 156.75,-77.5 144.49,-60.52 154.91,-34.73 162.17,-20.91"/>
<polygon fill="#63b8ff" stroke="#63b8ff" points="250.62,-124.8 260.9,-122.25 251.28,-117.83 250.62,-124.8"/>
</a>
</g>
</g>
<!-- Node6 -->
<g id="Node000006" class="node">
<title>Node6</title>
<g id="a_Node000006"><a xlink:href="module_2src_2module_8h.html" target="_top" xlink:title=" ">
<polygon fill="white" stroke="#666666" points="227.62,-77.5 165.88,-77.5 165.88,-56.75 227.62,-56.75 227.62,-77.5"/>
<text text-anchor="middle" x="196.75" y="-64" font-family="Helvetica,sans-Serif" font-size="10.00">module.h</text>
</a>
</g>
</g>
<!-- Node5&#45;&gt;Node6 -->
<g id="edge7_Node000005_Node000006" class="edge">
<title>Node5&#45;&gt;Node6</title>
<g id="a_edge7_Node000005_Node000006"><a xlink:title=" ">
<path fill="none" stroke="#63b8ff" d="M266.56,-107.53C249.68,-98 228.52,-86.06 213.94,-77.83"/>
<polygon fill="#63b8ff" stroke="#63b8ff" points="264.66,-110.48 275.09,-112.34 268.1,-104.38 264.66,-110.48"/>
</a>
</g>
</g>
<!-- Node5&#45;&gt;Node7 -->
<g id="edge9_Node000005_Node000007" class="edge">
<title>Node5&#45;&gt;Node7</title>
<g id="a_edge9_Node000005_Node000007"><a xlink:title=" ">
<path fill="none" stroke="#63b8ff" d="M318.37,-106.38C329.1,-98.45 341.35,-88.32 350.75,-77.5 366.32,-59.6 379.09,-34.62 385.43,-21.06"/>
<polygon fill="#63b8ff" stroke="#63b8ff" points="316.42,-103.47 310.3,-112.13 320.48,-109.18 316.42,-103.47"/>
</a>
</g>
</g>
<!-- Node8 -->
<g id="Node000008" class="node">
<title>Node8</title>
<g id="a_Node000008"><a xlink:href="state__machine_8h.html" target="_top" xlink:title=" ">
<polygon fill="white" stroke="#666666" points="342.25,-77.5 245.25,-77.5 245.25,-56.75 342.25,-56.75 342.25,-77.5"/>
<text text-anchor="middle" x="293.75" y="-64" font-family="Helvetica,sans-Serif" font-size="10.00">state_machine.h</text>
</a>
</g>
</g>
<!-- Node5&#45;&gt;Node8 -->
<g id="edge10_Node000005_Node000008" class="edge">
<title>Node5&#45;&gt;Node8</title>
<g id="a_edge10_Node000005_Node000008"><a xlink:title=" ">
<path fill="none" stroke="#63b8ff" d="M293.75,-101.63C293.75,-93.41 293.75,-84.43 293.75,-77.83"/>
<polygon fill="#63b8ff" stroke="#63b8ff" points="290.25,-101.57 293.75,-111.57 297.25,-101.57 290.25,-101.57"/>
</a>
</g>
</g>
<!-- Node6&#45;&gt;Node4 -->
<g id="edge8_Node000006_Node000004" class="edge">
<title>Node6&#45;&gt;Node4</title>
<g id="a_edge8_Node000006_Node000004"><a xlink:title=" ">
<path fill="none" stroke="#63b8ff" d="M186.26,-46.32C181.71,-37.73 176.59,-28.06 172.89,-21.08"/>
<polygon fill="#63b8ff" stroke="#63b8ff" points="183.08,-47.8 190.86,-55 189.27,-44.52 183.08,-47.8"/>
</a>
</g>
</g>
<!-- Node8&#45;&gt;Node4 -->
<g id="edge11_Node000008_Node000004" class="edge">
<title>Node8&#45;&gt;Node4</title>
<g id="a_edge11_Node000008_Node000004"><a xlink:title=" ">
<path fill="none" stroke="#63b8ff" d="M260.88,-51.84C238.6,-42.16 209.73,-29.62 190.08,-21.08"/>
<polygon fill="#63b8ff" stroke="#63b8ff" points="259.27,-54.96 269.84,-55.73 262.06,-48.54 259.27,-54.96"/>
</a>
</g>
</g>
<!-- Node8&#45;&gt;Node7 -->
<g id="edge12_Node000008_Node000007" class="edge">
<title>Node8&#45;&gt;Node7</title>
<g id="a_edge12_Node000008_Node000007"><a xlink:title=" ">
<path fill="none" stroke="#63b8ff" d="M320.66,-50.78C337.36,-41.25 358.31,-29.31 372.74,-21.08"/>
<polygon fill="#63b8ff" stroke="#63b8ff" points="319.18,-47.59 312.23,-55.59 322.65,-53.67 319.18,-47.59"/>
</a>
</g>
</g>
<!-- Node10&#45;&gt;Node5 -->
<g id="edge24_Node000010_Node000005" class="edge">
<title>Node10&#45;&gt;Node5</title>
<g id="a_edge24_Node000010_Node000005"><a xlink:title=" ">
<path fill="none" stroke="#63b8ff" d="M550.58,-172.87C492.49,-162.01 379.38,-140.88 324.75,-130.67"/>
<polygon fill="#63b8ff" stroke="#63b8ff" points="549.81,-176.28 560.28,-174.68 551.09,-169.4 549.81,-176.28"/>
</a>
</g>
</g>
<!-- Node10&#45;&gt;Node9 -->
<g id="edge16_Node000010_Node000009" class="edge">
<title>Node10&#45;&gt;Node9</title>
<g id="a_edge16_Node000010_Node000009"><a xlink:title=" ">
<path fill="none" stroke="#63b8ff" d="M622.36,-171.35C643.57,-164.68 669.45,-153.2 685.75,-134.25 699.77,-117.95 703.47,-91.88 704.43,-77.84"/>
<polygon fill="#63b8ff" stroke="#63b8ff" points="621.55,-167.94 612.92,-174.08 623.49,-174.67 621.55,-167.94"/>
</a>
</g>
</g>
<!-- Node11 -->
<g id="Node000011" class="node">
<title>Node11</title>
<g id="a_Node000011"><a xlink:href="iface__can_8c.html" target="_top" xlink:title=" ">
<polygon fill="white" stroke="#666666" points="558.12,-77.5 487.38,-77.5 487.38,-56.75 558.12,-56.75 558.12,-77.5"/>
<text text-anchor="middle" x="522.75" y="-64" font-family="Helvetica,sans-Serif" font-size="10.00">iface_can.c</text>
</a>
</g>
</g>
<!-- Node10&#45;&gt;Node11 -->
<g id="edge17_Node000010_Node000011" class="edge">
<title>Node10&#45;&gt;Node11</title>
<g id="a_edge17_Node000010_Node000011"><a xlink:title=" ">
<path fill="none" stroke="#63b8ff" d="M551.33,-169.74C533.74,-162.85 514.09,-151.68 503.75,-134.25 492.91,-115.96 506.33,-91.14 515.51,-77.71"/>
<polygon fill="#63b8ff" stroke="#63b8ff" points="549.89,-172.95 560.49,-172.99 552.23,-166.35 549.89,-172.95"/>
</a>
</g>
</g>
<!-- Node12 -->
<g id="Node000012" class="node">
<title>Node12</title>
<g id="a_Node000012"><a xlink:href="iface__can_8h.html" target="_top" xlink:title=" ">
<polygon fill="white" stroke="#666666" points="676.5,-134.25 605,-134.25 605,-113.5 676.5,-113.5 676.5,-134.25"/>
<text text-anchor="middle" x="640.75" y="-120.75" font-family="Helvetica,sans-Serif" font-size="10.00">iface_can.h</text>
</a>
</g>
</g>
<!-- Node10&#45;&gt;Node12 -->
<g id="edge18_Node000010_Node000012" class="edge">
<title>Node10&#45;&gt;Node12</title>
<g id="a_edge18_Node000010_Node000012"><a xlink:title=" ">
<path fill="none" stroke="#63b8ff" d="M604.33,-161.8C613.26,-152.75 623.75,-142.11 631.18,-134.58"/>
<polygon fill="#63b8ff" stroke="#63b8ff" points="602,-159.18 597.47,-168.76 606.98,-164.1 602,-159.18"/>
</a>
</g>
</g>
<!-- Node14 -->
<g id="Node000014" class="node">
<title>Node14</title>
<g id="a_Node000014"><a xlink:href="iface__vlcb_8h.html" target="_top" xlink:title=" ">
<polygon fill="white" stroke="#666666" points="587,-134.25 512.5,-134.25 512.5,-113.5 587,-113.5 587,-134.25"/>
<text text-anchor="middle" x="549.75" y="-120.75" font-family="Helvetica,sans-Serif" font-size="10.00">iface_vlcb.h</text>
</a>
</g>
</g>
<!-- Node10&#45;&gt;Node14 -->
<g id="edge21_Node000010_Node000014" class="edge">
<title>Node10&#45;&gt;Node14</title>
<g id="a_edge21_Node000010_Node000014"><a xlink:title=" ">
<path fill="none" stroke="#63b8ff" d="M573.75,-160.39C567.85,-151.66 561.13,-141.72 556.31,-134.58"/>
<polygon fill="#63b8ff" stroke="#63b8ff" points="570.79,-162.26 579.29,-168.58 576.59,-158.34 570.79,-162.26"/>
</a>
</g>
</g>
<!-- Node10&#45;&gt;Node15 -->
<g id="edge25_Node000010_Node000015" class="edge">
<title>Node10&#45;&gt;Node15</title>
<g id="a_edge25_Node000010_Node000015"><a xlink:title=" ">
<path fill="none" stroke="#63b8ff" d="M622.28,-167.91C655.65,-156.9 704.45,-140.8 731.93,-131.74"/>
<polygon fill="#63b8ff" stroke="#63b8ff" points="621.44,-164.5 613.04,-170.95 623.63,-171.15 621.44,-164.5"/>
</a>
</g>
</g>
<!-- Node12&#45;&gt;Node9 -->
<g id="edge19_Node000012_Node000009" class="edge">
<title>Node12&#45;&gt;Node9</title>
<g id="a_edge19_Node000012_Node000009"><a xlink:title=" ">
<path fill="none" stroke="#63b8ff" d="M660.93,-105.61C671.65,-96.44 684.42,-85.51 693.41,-77.83"/>
<polygon fill="#63b8ff" stroke="#63b8ff" points="658.67,-102.94 653.34,-112.1 663.22,-108.26 658.67,-102.94"/>
</a>
</g>
</g>
<!-- Node13 -->
<g id="Node000013" class="node">
<title>Node13</title>
<g id="a_Node000013"><a xlink:href="iface__vlcb_8c.html" target="_top" xlink:title=" ">
<polygon fill="white" stroke="#666666" points="662.62,-77.5 588.88,-77.5 588.88,-56.75 662.62,-56.75 662.62,-77.5"/>
<text text-anchor="middle" x="625.75" y="-64" font-family="Helvetica,sans-Serif" font-size="10.00">iface_vlcb.c</text>
</a>
</g>
</g>
<!-- Node12&#45;&gt;Node13 -->
<g id="edge20_Node000012_Node000013" class="edge">
<title>Node12&#45;&gt;Node13</title>
<g id="a_edge20_Node000012_Node000013"><a xlink:title=" ">
<path fill="none" stroke="#63b8ff" d="M635.09,-102.21C632.79,-93.84 630.26,-84.58 628.41,-77.83"/>
<polygon fill="#63b8ff" stroke="#63b8ff" points="631.65,-102.91 637.67,-111.63 638.4,-101.06 631.65,-102.91"/>
</a>
</g>
</g>
<!-- Node14&#45;&gt;Node9 -->
<g id="edge22_Node000014_Node000009" class="edge">
<title>Node14&#45;&gt;Node9</title>
<g id="a_edge22_Node000014_Node000009"><a xlink:title=" ">
<path fill="none" stroke="#63b8ff" d="M587.99,-109.37C616.84,-99.18 655.56,-85.5 680.34,-76.75"/>
<polygon fill="#63b8ff" stroke="#63b8ff" points="587.15,-105.95 578.89,-112.58 589.48,-112.55 587.15,-105.95"/>
</a>
</g>
</g>
<!-- Node14&#45;&gt;Node11 -->
<g id="edge23_Node000014_Node000011" class="edge">
<title>Node14&#45;&gt;Node11</title>
<g id="a_edge23_Node000014_Node000011"><a xlink:title=" ">
<path fill="none" stroke="#63b8ff" d="M539.84,-102.78C535.64,-94.27 530.94,-84.74 527.54,-77.83"/>
<polygon fill="#63b8ff" stroke="#63b8ff" points="536.69,-104.31 544.25,-111.73 542.97,-101.21 536.69,-104.31"/>
</a>
</g>
</g>
</g>
</svg>
