<?xml version="1.0" encoding="UTF-8" standalone="no"?>
<!DOCTYPE svg PUBLIC "-//W3C//DTD SVG 1.1//EN"
 "http://www.w3.org/Graphics/SVG/1.1/DTD/svg11.dtd">
<!-- Generated by graphviz version 12.1.2 (20240928.0832)
 -->
<!-- Title: vlcb_net_sock_dgram_SendErrToStr Pages: 1 -->
<svg width="620pt" height="68pt"
 viewBox="0.00 0.00 619.50 67.75" xmlns="http://www.w3.org/2000/svg" xmlns:xlink="http://www.w3.org/1999/xlink">
<g id="graph0" class="graph" transform="scale(1 1) rotate(0) translate(4 63.75)">
<title>vlcb_net_sock_dgram_SendErrToStr</title>
<!-- Node1 -->
<g id="Node000001" class="node">
<title>Node1</title>
<g id="a_Node000001"><a xlink:title=" ">
<polygon fill="#999999" stroke="#666666" points="611.5,-46.12 489.75,-46.12 489.75,-12.62 611.5,-12.62 611.5,-46.12"/>
<text text-anchor="start" x="497.75" y="-32.62" font-family="Helvetica,sans-Serif" font-size="10.00">vlcb_net_sock_dgram</text>
<text text-anchor="middle" x="550.62" y="-19.88" font-family="Helvetica,sans-Serif" font-size="10.00">_SendErrToStr</text>
</a>
</g>
</g>
<!-- Node2 -->
<g id="Node000002" class="node">
<title>Node2</title>
<g id="a_Node000002"><a xlink:href="module_8c.html#a7619749367a14232feaf0513698c63d8" target="_top" xlink:title=" ">
<polygon fill="white" stroke="#666666" points="246.88,-59.75 147.62,-59.75 147.62,-39 246.88,-39 246.88,-59.75"/>
<text text-anchor="middle" x="197.25" y="-46.25" font-family="Helvetica,sans-Serif" font-size="10.00">HandleHeartbeat</text>
</a>
</g>
</g>
<!-- Node1&#45;&gt;Node2 -->
<g id="edge1_Node000001_Node000002" class="edge">
<title>Node1&#45;&gt;Node2</title>
<g id="a_edge1_Node000001_Node000002"><a xlink:title=" ">
<path fill="none" stroke="#63b8ff" d="M478.46,-33.43C409.69,-37.34 307.34,-43.17 247.24,-46.59"/>
<polygon fill="#63b8ff" stroke="#63b8ff" points="478.32,-36.94 488.11,-32.88 477.93,-29.95 478.32,-36.94"/>
</a>
</g>
</g>
<!-- Node4 -->
<g id="Node000004" class="node">
<title>Node4</title>
<g id="a_Node000004"><a xlink:href="module_8c.html#a01dc6700d3926d16f6ebfb5e3611e6c2" target="_top" xlink:title=" ">
<polygon fill="white" stroke="#666666" points="453.75,-20.75 293,-20.75 293,0 453.75,0 453.75,-20.75"/>
<text text-anchor="middle" x="373.38" y="-7.25" font-family="Helvetica,sans-Serif" font-size="10.00">HandleQueryNodeParameters</text>
</a>
</g>
</g>
<!-- Node1&#45;&gt;Node4 -->
<g id="edge3_Node000001_Node000004" class="edge">
<title>Node1&#45;&gt;Node4</title>
<g id="a_edge3_Node000001_Node000004"><a xlink:title=" ">
<path fill="none" stroke="#63b8ff" d="M477.92,-21.6C470.03,-20.75 461.96,-19.87 453.99,-19.01"/>
<polygon fill="#63b8ff" stroke="#63b8ff" points="477.49,-25.07 487.81,-22.67 478.24,-18.12 477.49,-25.07"/>
</a>
</g>
</g>
<!-- Node3 -->
<g id="Node000003" class="node">
<title>Node3</title>
<g id="a_Node000003"><a xlink:href="module_8c.html#a8e05ae271d378570de2cb6bbf3ca6b2d" target="_top" xlink:title=" ">
<polygon fill="white" stroke="#666666" points="101.5,-39.75 0,-39.75 0,-19 101.5,-19 101.5,-39.75"/>
<text text-anchor="middle" x="50.75" y="-26.25" font-family="Helvetica,sans-Serif" font-size="10.00">vlcb_module_Poll</text>
</a>
</g>
</g>
<!-- Node2&#45;&gt;Node3 -->
<g id="edge2_Node000002_Node000003" class="edge">
<title>Node2&#45;&gt;Node3</title>
<g id="a_edge2_Node000002_Node000003"><a xlink:title=" ">
<path fill="none" stroke="#63b8ff" d="M136.05,-41.04C124.58,-39.46 112.7,-37.81 101.61,-36.28"/>
<polygon fill="#63b8ff" stroke="#63b8ff" points="135.44,-44.49 145.83,-42.4 136.4,-37.56 135.44,-44.49"/>
</a>
</g>
</g>
<!-- Node5 -->
<g id="Node000005" class="node">
<title>Node5</title>
<g id="a_Node000005"><a xlink:href="module_8c.html#a32ed02b26ffaed7947004cd1309f5847" target="_top" xlink:title=" ">
<polygon fill="white" stroke="#666666" points="257,-20.75 137.5,-20.75 137.5,0 257,0 257,-20.75"/>
<text text-anchor="middle" x="197.25" y="-7.25" font-family="Helvetica,sans-Serif" font-size="10.00">HandleMnsMessages</text>
</a>
</g>
</g>
<!-- Node4&#45;&gt;Node5 -->
<g id="edge4_Node000004_Node000005" class="edge">
<title>Node4&#45;&gt;Node5</title>
<g id="a_edge4_Node000004_Node000005"><a xlink:title=" ">
<path fill="none" stroke="#63b8ff" d="M281.23,-10.38C273.12,-10.38 265.05,-10.38 257.31,-10.38"/>
<polygon fill="#63b8ff" stroke="#63b8ff" points="281.19,-13.88 291.19,-10.38 281.19,-6.88 281.19,-13.88"/>
</a>
</g>
</g>
<!-- Node5&#45;&gt;Node3 -->
<g id="edge5_Node000005_Node000003" class="edge">
<title>Node5&#45;&gt;Node3</title>
<g id="a_edge5_Node000005_Node000003"><a xlink:title=" ">
<path fill="none" stroke="#63b8ff" d="M125.72,-19.65C117.66,-20.71 109.57,-21.77 101.85,-22.79"/>
<polygon fill="#63b8ff" stroke="#63b8ff" points="126.1,-23.13 135.56,-18.36 125.19,-16.19 126.1,-23.13"/>
</a>
</g>
</g>
</g>
</svg>
