<?xml version="1.0" encoding="UTF-8" standalone="no"?>
<!DOCTYPE svg PUBLIC "-//W3C//DTD SVG 1.1//EN"
 "http://www.w3.org/Graphics/SVG/1.1/DTD/svg11.dtd">
<!-- Generated by graphviz version 12.1.2 (20240928.0832)
 -->
<!-- Title: datagram.c Pages: 1 -->
<svg width="1018pt" height="382pt"
 viewBox="0.00 0.00 1018.21 382.00" xmlns="http://www.w3.org/2000/svg" xmlns:xlink="http://www.w3.org/1999/xlink">
<g id="graph0" class="graph" transform="scale(1 1) rotate(0) translate(4 378)">
<title>datagram.c</title>
<!-- Node1 -->
<g id="Node000001" class="node">
<title>Node1</title>
<g id="a_Node000001"><a xlink:title=" ">
<polygon fill="#999999" stroke="#666666" points="687.46,-374 615.96,-374 615.96,-353.25 687.46,-353.25 687.46,-374"/>
<text text-anchor="middle" x="651.71" y="-360.5" font-family="Helvetica,sans-Serif" font-size="10.00">datagram.c</text>
</a>
</g>
</g>
<!-- Node2 -->
<g id="Node000002" class="node">
<title>Node2</title>
<g id="a_Node000002"><a xlink:href="socket_2datagram_8h.html" target="_top" xlink:title=" ">
<polygon fill="white" stroke="#666666" points="585.08,-317.25 436.33,-317.25 436.33,-296.5 585.08,-296.5 585.08,-317.25"/>
<text text-anchor="middle" x="510.71" y="-303.75" font-family="Helvetica,sans-Serif" font-size="10.00">vlcb/net/socket/datagram.h</text>
</a>
</g>
</g>
<!-- Node1&#45;&gt;Node2 -->
<g id="edge1_Node000001_Node000002" class="edge">
<title>Node1&#45;&gt;Node2</title>
<g id="a_edge1_Node000001_Node000002"><a xlink:title=" ">
<path fill="none" stroke="#63b8ff" d="M626.5,-352.84C604.14,-344.16 571.25,-331.38 546.23,-321.67"/>
<polygon fill="#63b8ff" stroke="#63b8ff" points="547.7,-318.48 537.11,-318.13 545.16,-325.01 547.7,-318.48"/>
</a>
</g>
</g>
<!-- Node3 -->
<g id="Node000003" class="node">
<title>Node3</title>
<g id="a_Node000003"><a xlink:href="packet_2datagram_8h.html" target="_top" xlink:title=" ">
<polygon fill="white" stroke="#666666" points="162.96,-197.38 46.46,-197.38 46.46,-176.62 162.96,-176.62 162.96,-197.38"/>
<text text-anchor="middle" x="104.71" y="-183.88" font-family="Helvetica,sans-Serif" font-size="10.00">../packet/datagram.h</text>
</a>
</g>
</g>
<!-- Node1&#45;&gt;Node3 -->
<g id="edge37_Node000001_Node000003" class="edge">
<title>Node1&#45;&gt;Node3</title>
<g id="a_edge37_Node000001_Node000003"><a xlink:title=" ">
<path fill="none" stroke="#63b8ff" d="M615.82,-360.37C560.99,-356.17 453.6,-344.9 366.71,-317.25 275.01,-288.07 175.33,-231.15 129.86,-203.64"/>
<polygon fill="#63b8ff" stroke="#63b8ff" points="131.9,-200.78 121.54,-198.56 128.25,-206.76 131.9,-200.78"/>
</a>
</g>
</g>
<!-- Node8 -->
<g id="Node000008" class="node">
<title>Node8</title>
<g id="a_Node000008"><a xlink:href="socket_8h.html" target="_top" xlink:title=" ">
<polygon fill="white" stroke="#666666" points="604.46,-260.5 538.96,-260.5 538.96,-239.75 604.46,-239.75 604.46,-260.5"/>
<text text-anchor="middle" x="571.71" y="-247" font-family="Helvetica,sans-Serif" font-size="10.00">../socket.h</text>
</a>
</g>
</g>
<!-- Node1&#45;&gt;Node8 -->
<g id="edge39_Node000001_Node000008" class="edge">
<title>Node1&#45;&gt;Node8</title>
<g id="a_edge39_Node000001_Node000008"><a xlink:title=" ">
<path fill="none" stroke="#63b8ff" d="M644.89,-353.12C631.73,-334.78 602.62,-294.2 585.34,-270.12"/>
<polygon fill="#63b8ff" stroke="#63b8ff" points="588.3,-268.24 579.62,-262.15 582.61,-272.32 588.3,-268.24"/>
</a>
</g>
</g>
<!-- Node9 -->
<g id="Node000009" class="node">
<title>Node9</title>
<g id="a_Node000009"><a xlink:title=" ">
<polygon fill="#e0e0e0" stroke="#999999" points="612.21,-77.5 551.21,-77.5 551.21,-56.75 612.21,-56.75 612.21,-77.5"/>
<text text-anchor="middle" x="581.71" y="-64" font-family="Helvetica,sans-Serif" font-size="10.00">stdbool.h</text>
</a>
</g>
</g>
<!-- Node1&#45;&gt;Node9 -->
<g id="edge34_Node000001_Node000009" class="edge">
<title>Node1&#45;&gt;Node9</title>
<g id="a_edge34_Node000001_Node000009"><a xlink:title=" ">
<path fill="none" stroke="#63b8ff" d="M687.94,-355.85C762.62,-340.84 926.71,-302.06 926.71,-251.12 926.71,-251.12 926.71,-251.12 926.71,-186 926.71,-122.71 716.17,-86.37 624.03,-73.5"/>
<polygon fill="#63b8ff" stroke="#63b8ff" points="624.51,-70.03 614.13,-72.14 623.56,-76.96 624.51,-70.03"/>
</a>
</g>
</g>
<!-- Node10 -->
<g id="Node000010" class="node">
<title>Node10</title>
<g id="a_Node000010"><a xlink:title=" ">
<polygon fill="#e0e0e0" stroke="#999999" points="772.21,-134.25 717.21,-134.25 717.21,-113.5 772.21,-113.5 772.21,-134.25"/>
<text text-anchor="middle" x="744.71" y="-120.75" font-family="Helvetica,sans-Serif" font-size="10.00">stddef.h</text>
</a>
</g>
</g>
<!-- Node1&#45;&gt;Node10 -->
<g id="edge35_Node000001_Node000010" class="edge">
<title>Node1&#45;&gt;Node10</title>
<g id="a_edge35_Node000001_Node000010"><a xlink:title=" ">
<path fill="none" stroke="#63b8ff" d="M678.13,-352.83C726.7,-333.19 828.95,-283.9 869.71,-203.75 876.46,-190.48 878.25,-182.44 869.71,-170.25 850.49,-142.83 812.94,-131.92 783.98,-127.61"/>
<polygon fill="#63b8ff" stroke="#63b8ff" points="784.44,-124.14 774.08,-126.36 783.56,-131.08 784.44,-124.14"/>
</a>
</g>
</g>
<!-- Node11 -->
<g id="Node000011" class="node">
<title>Node11</title>
<g id="a_Node000011"><a xlink:href="vlcb_8h.html" target="_top" xlink:title=" ">
<polygon fill="white" stroke="#666666" points="268.96,-197.38 188.46,-197.38 188.46,-176.62 268.96,-176.62 268.96,-197.38"/>
<text text-anchor="middle" x="228.71" y="-183.88" font-family="Helvetica,sans-Serif" font-size="10.00">packet/vlcb.h</text>
</a>
</g>
</g>
<!-- Node1&#45;&gt;Node11 -->
<g id="edge38_Node000001_Node000011" class="edge">
<title>Node1&#45;&gt;Node11</title>
<g id="a_edge38_Node000001_Node000011"><a xlink:title=" ">
<path fill="none" stroke="#63b8ff" d="M615.7,-360.79C566.98,-357.24 478.17,-346.92 408.71,-317.25 342.98,-289.18 277.85,-233.78 247.07,-205.5"/>
<polygon fill="#63b8ff" stroke="#63b8ff" points="249.47,-202.95 239.77,-198.69 244.69,-208.07 249.47,-202.95"/>
</a>
</g>
</g>
<!-- Node12 -->
<g id="Node000012" class="node">
<title>Node12</title>
<g id="a_Node000012"><a xlink:href="addr_8h.html" target="_top" xlink:title=" ">
<polygon fill="white" stroke="#666666" points="442.71,-197.38 354.71,-197.38 354.71,-176.62 442.71,-176.62 442.71,-197.38"/>
<text text-anchor="middle" x="398.71" y="-183.88" font-family="Helvetica,sans-Serif" font-size="10.00">vlcb/net/addr.h</text>
</a>
</g>
</g>
<!-- Node1&#45;&gt;Node12 -->
<g id="edge36_Node000001_Node000012" class="edge">
<title>Node1&#45;&gt;Node12</title>
<g id="a_edge36_Node000001_Node000012"><a xlink:title=" ">
<path fill="none" stroke="#63b8ff" d="M615.63,-360.02C559.23,-355.19 453.93,-342.93 427.71,-317.25 398.64,-288.78 395.9,-237.94 396.98,-209.24"/>
<polygon fill="#63b8ff" stroke="#63b8ff" points="400.47,-209.47 397.57,-199.28 393.48,-209.05 400.47,-209.47"/>
</a>
</g>
</g>
<!-- Node15 -->
<g id="Node000015" class="node">
<title>Node15</title>
<g id="a_Node000015"><a xlink:href="packet__buf_8h.html" target="_top" xlink:title=" ">
<polygon fill="white" stroke="#666666" points="668.71,-203.75 538.71,-203.75 538.71,-170.25 668.71,-170.25 668.71,-203.75"/>
<text text-anchor="start" x="546.71" y="-190.25" font-family="Helvetica,sans-Serif" font-size="10.00">vlcb/net/storage/packet</text>
<text text-anchor="middle" x="603.71" y="-177.5" font-family="Helvetica,sans-Serif" font-size="10.00">_buf.h</text>
</a>
</g>
</g>
<!-- Node1&#45;&gt;Node15 -->
<g id="edge40_Node000001_Node000015" class="edge">
<title>Node1&#45;&gt;Node15</title>
<g id="a_edge40_Node000001_Node000015"><a xlink:title=" ">
<path fill="none" stroke="#63b8ff" d="M649.06,-352.99C641.92,-327.01 622.08,-254.84 611.16,-215.1"/>
<polygon fill="#63b8ff" stroke="#63b8ff" points="614.57,-214.3 608.54,-205.58 607.82,-216.15 614.57,-214.3"/>
</a>
</g>
</g>
<!-- Node16 -->
<g id="Node000016" class="node">
<title>Node16</title>
<g id="a_Node000016"><a xlink:href="interface_8h.html" target="_top" xlink:title=" ">
<polygon fill="white" stroke="#666666" points="861.08,-197.38 724.33,-197.38 724.33,-176.62 861.08,-176.62 861.08,-197.38"/>
<text text-anchor="middle" x="792.71" y="-183.88" font-family="Helvetica,sans-Serif" font-size="10.00">vlcb/platform/interface.h</text>
</a>
</g>
</g>
<!-- Node1&#45;&gt;Node16 -->
<g id="edge41_Node000001_Node000016" class="edge">
<title>Node1&#45;&gt;Node16</title>
<g id="a_edge41_Node000001_Node000016"><a xlink:title=" ">
<path fill="none" stroke="#63b8ff" d="M659.49,-352.99C682.07,-325.03 747.87,-243.53 777.7,-206.59"/>
<polygon fill="#63b8ff" stroke="#63b8ff" points="780.27,-208.98 783.83,-199 774.82,-204.58 780.27,-208.98"/>
</a>
</g>
</g>
<!-- Node17 -->
<g id="Node000017" class="node">
<title>Node17</title>
<g id="a_Node000017"><a xlink:title=" ">
<polygon fill="#e0e0e0" stroke="#999999" points="1010.21,-317.25 955.21,-317.25 955.21,-296.5 1010.21,-296.5 1010.21,-317.25"/>
<text text-anchor="middle" x="982.71" y="-303.75" font-family="Helvetica,sans-Serif" font-size="10.00">assert.h</text>
</a>
</g>
</g>
<!-- Node1&#45;&gt;Node17 -->
<g id="edge33_Node000001_Node000017" class="edge">
<title>Node1&#45;&gt;Node17</title>
<g id="a_edge33_Node000001_Node000017"><a xlink:title=" ">
<path fill="none" stroke="#63b8ff" d="M687.88,-357.7C742.73,-350.07 850.15,-334.45 940.71,-317.25 941.7,-317.06 942.71,-316.87 943.73,-316.67"/>
<polygon fill="#63b8ff" stroke="#63b8ff" points="944.18,-320.15 953.26,-314.69 942.76,-313.29 944.18,-320.15"/>
</a>
</g>
</g>
<!-- Node2&#45;&gt;Node3 -->
<g id="edge2_Node000002_Node000003" class="edge">
<title>Node2&#45;&gt;Node3</title>
<g id="a_edge2_Node000002_Node000003"><a xlink:title=" ">
<path fill="none" stroke="#63b8ff" d="M476.79,-296.03C403.71,-274.81 231.39,-224.78 149.47,-201"/>
<polygon fill="#63b8ff" stroke="#63b8ff" points="150.56,-197.67 139.98,-198.24 148.61,-204.39 150.56,-197.67"/>
</a>
</g>
</g>
<!-- Node6 -->
<g id="Node000006" class="node">
<title>Node6</title>
<g id="a_Node000006"><a xlink:title=" ">
<polygon fill="#e0e0e0" stroke="#999999" points="420.08,-20.75 367.33,-20.75 367.33,0 420.08,0 420.08,-20.75"/>
<text text-anchor="middle" x="393.71" y="-7.25" font-family="Helvetica,sans-Serif" font-size="10.00">stdint.h</text>
</a>
</g>
</g>
<!-- Node2&#45;&gt;Node6 -->
<g id="edge32_Node000002_Node000006" class="edge">
<title>Node2&#45;&gt;Node6</title>
<g id="a_edge32_Node000002_Node000006"><a xlink:title=" ">
<path fill="none" stroke="#63b8ff" d="M511.05,-296.11C512.51,-252.47 517.47,-76.7 503.71,-56.75 487.33,-33.01 456.1,-21.67 431.09,-16.26"/>
<polygon fill="#63b8ff" stroke="#63b8ff" points="432.07,-12.89 421.6,-14.46 430.77,-19.76 432.07,-12.89"/>
</a>
</g>
</g>
<!-- Node2&#45;&gt;Node8 -->
<g id="edge7_Node000002_Node000008" class="edge">
<title>Node2&#45;&gt;Node8</title>
<g id="a_edge7_Node000002_Node000008"><a xlink:title=" ">
<path fill="none" stroke="#63b8ff" d="M521.61,-296.09C530.2,-288.38 542.38,-277.45 552.58,-268.29"/>
<polygon fill="#63b8ff" stroke="#63b8ff" points="554.67,-271.12 559.77,-261.84 549.99,-265.91 554.67,-271.12"/>
</a>
</g>
</g>
<!-- Node2&#45;&gt;Node12 -->
<g id="edge30_Node000002_Node000012" class="edge">
<title>Node2&#45;&gt;Node12</title>
<g id="a_edge30_Node000002_Node000012"><a xlink:title=" ">
<path fill="none" stroke="#63b8ff" d="M498.65,-296.3C487.79,-287.45 471.58,-273.72 458.71,-260.5 441.87,-243.22 424.5,-221.75 412.81,-206.68"/>
<polygon fill="#63b8ff" stroke="#63b8ff" points="415.79,-204.82 406.93,-199.01 410.23,-209.07 415.79,-204.82"/>
</a>
</g>
</g>
<!-- Node2&#45;&gt;Node15 -->
<g id="edge29_Node000002_Node000015" class="edge">
<title>Node2&#45;&gt;Node15</title>
<g id="a_edge29_Node000002_Node000015"><a xlink:title=" ">
<path fill="none" stroke="#63b8ff" d="M511.48,-296.02C512.99,-282.26 517.35,-257.05 529.71,-239.75 537.97,-228.19 549.65,-218.33 561.3,-210.41"/>
<polygon fill="#63b8ff" stroke="#63b8ff" points="563.18,-213.37 569.73,-205.04 559.41,-207.46 563.18,-213.37"/>
</a>
</g>
</g>
<!-- Node2&#45;&gt;Node16 -->
<g id="edge31_Node000002_Node000016" class="edge">
<title>Node2&#45;&gt;Node16</title>
<g id="a_edge31_Node000002_Node000016"><a xlink:title=" ">
<path fill="none" stroke="#63b8ff" d="M534.27,-296.03C584.26,-275.13 701.11,-226.29 758.99,-202.09"/>
<polygon fill="#63b8ff" stroke="#63b8ff" points="760.14,-205.41 768.02,-198.32 757.44,-198.95 760.14,-205.41"/>
</a>
</g>
</g>
<!-- Node4 -->
<g id="Node000004" class="node">
<title>Node4</title>
<g id="a_Node000004"><a xlink:title=" ">
<polygon fill="#e0e0e0" stroke="#999999" points="137.08,-77.5 72.33,-77.5 72.33,-56.75 137.08,-56.75 137.08,-77.5"/>
<text text-anchor="middle" x="104.71" y="-64" font-family="Helvetica,sans-Serif" font-size="10.00">inttypes.h</text>
</a>
</g>
</g>
<!-- Node3&#45;&gt;Node4 -->
<g id="edge3_Node000003_Node000004" class="edge">
<title>Node3&#45;&gt;Node4</title>
<g id="a_edge3_Node000003_Node000004"><a xlink:title=" ">
<path fill="none" stroke="#63b8ff" d="M68.19,-176.2C32.34,-164.63 -14.4,-143.15 4.71,-113.5 17.23,-94.07 40.31,-82.87 61.15,-76.46"/>
<polygon fill="#63b8ff" stroke="#63b8ff" points="61.92,-79.88 70.63,-73.85 60.06,-73.13 61.92,-79.88"/>
</a>
</g>
</g>
<!-- Node5 -->
<g id="Node000005" class="node">
<title>Node5</title>
<g id="a_Node000005"><a xlink:href="opcode_8h.html" target="_top" xlink:title=" ">
<polygon fill="white" stroke="#666666" points="284.33,-77.5 155.08,-77.5 155.08,-56.75 284.33,-56.75 284.33,-77.5"/>
<text text-anchor="middle" x="219.71" y="-64" font-family="Helvetica,sans-Serif" font-size="10.00">vlcb/common/opcode.h</text>
</a>
</g>
</g>
<!-- Node3&#45;&gt;Node5 -->
<g id="edge4_Node000003_Node000005" class="edge">
<title>Node3&#45;&gt;Node5</title>
<g id="a_edge4_Node000003_Node000005"><a xlink:title=" ">
<path fill="none" stroke="#63b8ff" d="M83.73,-176.15C57.77,-162.62 19.14,-137.27 37.71,-113.5 45.2,-103.92 105.9,-90.07 155.18,-80.2"/>
<polygon fill="#63b8ff" stroke="#63b8ff" points="155.84,-83.63 164.97,-78.26 154.48,-76.77 155.84,-83.63"/>
</a>
</g>
</g>
<!-- Node7 -->
<g id="Node000007" class="node">
<title>Node7</title>
<g id="a_Node000007"><a xlink:href="error_8h.html" target="_top" xlink:title=" ">
<polygon fill="white" stroke="#666666" points="162.58,-134.25 46.83,-134.25 46.83,-113.5 162.58,-113.5 162.58,-134.25"/>
<text text-anchor="middle" x="104.71" y="-120.75" font-family="Helvetica,sans-Serif" font-size="10.00">vlcb/platform/error.h</text>
</a>
</g>
</g>
<!-- Node3&#45;&gt;Node7 -->
<g id="edge6_Node000003_Node000007" class="edge">
<title>Node3&#45;&gt;Node7</title>
<g id="a_edge6_Node000003_Node000007"><a xlink:title=" ">
<path fill="none" stroke="#63b8ff" d="M104.71,-176.18C104.71,-168.02 104.71,-156.13 104.71,-145.85"/>
<polygon fill="#63b8ff" stroke="#63b8ff" points="108.21,-145.98 104.71,-135.98 101.21,-145.98 108.21,-145.98"/>
</a>
</g>
</g>
<!-- Node5&#45;&gt;Node6 -->
<g id="edge5_Node000005_Node000006" class="edge">
<title>Node5&#45;&gt;Node6</title>
<g id="a_edge5_Node000005_Node000006"><a xlink:title=" ">
<path fill="none" stroke="#63b8ff" d="M250.82,-56.34C280.24,-47.08 324.46,-33.16 355.91,-23.27"/>
<polygon fill="#63b8ff" stroke="#63b8ff" points="356.93,-26.62 365.42,-20.28 354.83,-19.94 356.93,-26.62"/>
</a>
</g>
</g>
<!-- Node8&#45;&gt;Node9 -->
<g id="edge8_Node000008_Node000009" class="edge">
<title>Node8&#45;&gt;Node9</title>
<g id="a_edge8_Node000008_Node000009"><a xlink:title=" ">
<path fill="none" stroke="#63b8ff" d="M558.28,-239.27C548.28,-231.05 535.43,-218.34 529.71,-203.75 524.28,-189.89 526.24,-184.73 529.71,-170.25 537.15,-139.25 555.64,-107.06 568.44,-87.3"/>
<polygon fill="#63b8ff" stroke="#63b8ff" points="571.21,-89.45 573.85,-79.19 565.39,-85.57 571.21,-89.45"/>
</a>
</g>
</g>
<!-- Node8&#45;&gt;Node10 -->
<g id="edge9_Node000008_Node000010" class="edge">
<title>Node8&#45;&gt;Node10</title>
<g id="a_edge9_Node000008_Node000010"><a xlink:title=" ">
<path fill="none" stroke="#63b8ff" d="M604.82,-239.38C626.83,-231.88 655.64,-220.03 677.71,-203.75 700.31,-187.08 720.29,-161.36 732.43,-143.85"/>
<polygon fill="#63b8ff" stroke="#63b8ff" points="735.11,-146.14 737.78,-135.89 729.3,-142.23 735.11,-146.14"/>
</a>
</g>
</g>
<!-- Node8&#45;&gt;Node11 -->
<g id="edge10_Node000008_Node000011" class="edge">
<title>Node8&#45;&gt;Node11</title>
<g id="a_edge10_Node000008_Node000011"><a xlink:title=" ">
<path fill="none" stroke="#63b8ff" d="M538.51,-243.21C478.5,-232.52 351.62,-209.9 280.25,-197.18"/>
<polygon fill="#63b8ff" stroke="#63b8ff" points="281.24,-193.81 270.78,-195.5 280.01,-200.7 281.24,-193.81"/>
</a>
</g>
</g>
<!-- Node8&#45;&gt;Node12 -->
<g id="edge14_Node000008_Node000012" class="edge">
<title>Node8&#45;&gt;Node12</title>
<g id="a_edge14_Node000008_Node000012"><a xlink:title=" ">
<path fill="none" stroke="#63b8ff" d="M543.91,-239.3C515.03,-229.1 469.63,-213.06 437.28,-201.63"/>
<polygon fill="#63b8ff" stroke="#63b8ff" points="438.46,-198.33 427.86,-198.3 436.13,-204.93 438.46,-198.33"/>
</a>
</g>
</g>
<!-- Node8&#45;&gt;Node15 -->
<g id="edge23_Node000008_Node000015" class="edge">
<title>Node8&#45;&gt;Node15</title>
<g id="a_edge23_Node000008_Node000015"><a xlink:title=" ">
<path fill="none" stroke="#63b8ff" d="M576.85,-239.3C580.41,-232.51 585.32,-223.13 589.97,-214.25"/>
<polygon fill="#63b8ff" stroke="#63b8ff" points="592.97,-216.06 594.51,-205.58 586.77,-212.81 592.97,-216.06"/>
</a>
</g>
</g>
<!-- Node8&#45;&gt;Node16 -->
<g id="edge27_Node000008_Node000016" class="edge">
<title>Node8&#45;&gt;Node16</title>
<g id="a_edge27_Node000008_Node000016"><a xlink:title=" ">
<path fill="none" stroke="#63b8ff" d="M604.8,-239.97C642.38,-229.58 703.97,-212.54 746.33,-200.83"/>
<polygon fill="#63b8ff" stroke="#63b8ff" points="747.03,-204.26 755.74,-198.23 745.17,-197.52 747.03,-204.26"/>
</a>
</g>
</g>
<!-- Node11&#45;&gt;Node4 -->
<g id="edge11_Node000011_Node000004" class="edge">
<title>Node11&#45;&gt;Node4</title>
<g id="a_edge11_Node000011_Node000004"><a xlink:title=" ">
<path fill="none" stroke="#63b8ff" d="M222.52,-176.31C212.85,-161.63 193.03,-133.36 171.71,-113.5 159.7,-102.32 144.71,-91.9 131.95,-83.87"/>
<polygon fill="#63b8ff" stroke="#63b8ff" points="133.95,-80.99 123.59,-78.76 130.3,-86.96 133.95,-80.99"/>
</a>
</g>
</g>
<!-- Node11&#45;&gt;Node5 -->
<g id="edge12_Node000011_Node000005" class="edge">
<title>Node11&#45;&gt;Node5</title>
<g id="a_edge12_Node000011_Node000005"><a xlink:title=" ">
<path fill="none" stroke="#63b8ff" d="M227.97,-176.35C226.53,-157.44 223.3,-115.11 221.33,-89.35"/>
<polygon fill="#63b8ff" stroke="#63b8ff" points="224.82,-89.12 220.57,-79.41 217.84,-89.65 224.82,-89.12"/>
</a>
</g>
</g>
<!-- Node11&#45;&gt;Node7 -->
<g id="edge13_Node000011_Node000007" class="edge">
<title>Node11&#45;&gt;Node7</title>
<g id="a_edge13_Node000011_Node000007"><a xlink:title=" ">
<path fill="none" stroke="#63b8ff" d="M208.79,-176.18C188.81,-166.33 157.8,-151.05 134.82,-139.72"/>
<polygon fill="#63b8ff" stroke="#63b8ff" points="136.46,-136.62 125.94,-135.34 133.36,-142.9 136.46,-136.62"/>
</a>
</g>
</g>
<!-- Node12&#45;&gt;Node6 -->
<g id="edge22_Node000012_Node000006" class="edge">
<title>Node12&#45;&gt;Node6</title>
<g id="a_edge22_Node000012_Node000006"><a xlink:title=" ">
<path fill="none" stroke="#63b8ff" d="M395.72,-176.16C388.85,-153.29 372.27,-97.03 369.71,-77.5 368.51,-68.36 367.49,-65.7 369.71,-56.75 371.93,-47.81 376.26,-38.7 380.65,-31.01"/>
<polygon fill="#63b8ff" stroke="#63b8ff" points="383.6,-32.89 385.87,-22.54 377.64,-29.21 383.6,-32.89"/>
</a>
</g>
</g>
<!-- Node13 -->
<g id="Node000013" class="node">
<title>Node13</title>
<g id="a_Node000013"><a xlink:href="common_2inc_2vlcb_2common_2can_8h.html" target="_top" xlink:title=" ">
<polygon fill="white" stroke="#666666" points="368.33,-134.25 257.08,-134.25 257.08,-113.5 368.33,-113.5 368.33,-134.25"/>
<text text-anchor="middle" x="312.71" y="-120.75" font-family="Helvetica,sans-Serif" font-size="10.00">vlcb/common/can.h</text>
</a>
</g>
</g>
<!-- Node12&#45;&gt;Node13 -->
<g id="edge15_Node000012_Node000013" class="edge">
<title>Node12&#45;&gt;Node13</title>
<g id="a_edge15_Node000012_Node000013"><a xlink:title=" ">
<path fill="none" stroke="#63b8ff" d="M384.89,-176.18C371.6,-166.73 351.27,-152.28 335.57,-141.12"/>
<polygon fill="#63b8ff" stroke="#63b8ff" points="337.9,-138.49 327.73,-135.55 333.85,-144.19 337.9,-138.49"/>
</a>
</g>
</g>
<!-- Node14 -->
<g id="Node000014" class="node">
<title>Node14</title>
<g id="a_Node000014"><a xlink:href="time_8h.html" target="_top" xlink:title=" ">
<polygon fill="white" stroke="#666666" points="494.58,-77.5 378.83,-77.5 378.83,-56.75 494.58,-56.75 494.58,-77.5"/>
<text text-anchor="middle" x="436.71" y="-64" font-family="Helvetica,sans-Serif" font-size="10.00">vlcb/platform/time.h</text>
</a>
</g>
</g>
<!-- Node12&#45;&gt;Node14 -->
<g id="edge20_Node000012_Node000014" class="edge">
<title>Node12&#45;&gt;Node14</title>
<g id="a_edge20_Node000012_Node000014"><a xlink:title=" ">
<path fill="none" stroke="#63b8ff" d="M401.82,-176.35C407.97,-157.27 421.81,-114.33 430.09,-88.65"/>
<polygon fill="#63b8ff" stroke="#63b8ff" points="433.35,-89.94 433.09,-79.35 426.69,-87.79 433.35,-89.94"/>
</a>
</g>
</g>
<!-- Node13&#45;&gt;Node4 -->
<g id="edge16_Node000013_Node000004" class="edge">
<title>Node13&#45;&gt;Node4</title>
<g id="a_edge16_Node000013_Node000004"><a xlink:title=" ">
<path fill="none" stroke="#63b8ff" d="M275.52,-113.09C239.79,-103.68 185.8,-89.47 148.12,-79.55"/>
<polygon fill="#63b8ff" stroke="#63b8ff" points="149.49,-76.29 138.93,-77.13 147.71,-83.06 149.49,-76.29"/>
</a>
</g>
</g>
<!-- Node13&#45;&gt;Node5 -->
<g id="edge19_Node000013_Node000005" class="edge">
<title>Node13&#45;&gt;Node5</title>
<g id="a_edge19_Node000013_Node000005"><a xlink:title=" ">
<path fill="none" stroke="#63b8ff" d="M296.08,-113.09C282.2,-104.91 262.15,-93.11 246.07,-83.65"/>
<polygon fill="#63b8ff" stroke="#63b8ff" points="247.89,-80.65 237.5,-78.6 244.34,-86.69 247.89,-80.65"/>
</a>
</g>
</g>
<!-- Node13&#45;&gt;Node6 -->
<g id="edge18_Node000013_Node000006" class="edge">
<title>Node13&#45;&gt;Node6</title>
<g id="a_edge18_Node000013_Node000006"><a xlink:title=" ">
<path fill="none" stroke="#63b8ff" d="M314.5,-113.12C317.37,-99.47 324.02,-74.4 336.71,-56.75 344.91,-45.35 356.71,-35.3 367.46,-27.58"/>
<polygon fill="#63b8ff" stroke="#63b8ff" points="369.34,-30.54 375.64,-22.02 365.4,-24.75 369.34,-30.54"/>
</a>
</g>
</g>
<!-- Node13&#45;&gt;Node9 -->
<g id="edge17_Node000013_Node000009" class="edge">
<title>Node13&#45;&gt;Node9</title>
<g id="a_edge17_Node000013_Node000009"><a xlink:title=" ">
<path fill="none" stroke="#63b8ff" d="M361.11,-113.02C412.08,-102.65 491.52,-86.48 539.87,-76.64"/>
<polygon fill="#63b8ff" stroke="#63b8ff" points="540.29,-80.13 549.39,-74.7 538.89,-73.27 540.29,-80.13"/>
</a>
</g>
</g>
<!-- Node14&#45;&gt;Node6 -->
<g id="edge21_Node000014_Node000006" class="edge">
<title>Node14&#45;&gt;Node6</title>
<g id="a_edge21_Node000014_Node000006"><a xlink:title=" ">
<path fill="none" stroke="#63b8ff" d="M429.02,-56.34C423.27,-49.02 415.24,-38.79 408.29,-29.94"/>
<polygon fill="#63b8ff" stroke="#63b8ff" points="411.19,-27.97 402.26,-22.27 405.69,-32.3 411.19,-27.97"/>
</a>
</g>
</g>
<!-- Node15&#45;&gt;Node6 -->
<g id="edge26_Node000015_Node000006" class="edge">
<title>Node15&#45;&gt;Node6</title>
<g id="a_edge26_Node000015_Node000006"><a xlink:title=" ">
<path fill="none" stroke="#63b8ff" d="M612.78,-170.03C626.59,-143.37 648.58,-89.5 621.71,-56.75 598.12,-28 490.32,-17.13 431.79,-13.29"/>
<polygon fill="#63b8ff" stroke="#63b8ff" points="432.15,-9.81 421.95,-12.69 431.72,-16.8 432.15,-9.81"/>
</a>
</g>
</g>
<!-- Node15&#45;&gt;Node9 -->
<g id="edge24_Node000015_Node000009" class="edge">
<title>Node15&#45;&gt;Node9</title>
<g id="a_edge24_Node000015_Node000009"><a xlink:title=" ">
<path fill="none" stroke="#63b8ff" d="M600.74,-170.1C596.84,-149.21 589.98,-112.46 585.65,-89.25"/>
<polygon fill="#63b8ff" stroke="#63b8ff" points="589.09,-88.61 583.82,-79.42 582.21,-89.89 589.09,-88.61"/>
</a>
</g>
</g>
<!-- Node15&#45;&gt;Node10 -->
<g id="edge25_Node000015_Node000010" class="edge">
<title>Node15&#45;&gt;Node10</title>
<g id="a_edge25_Node000015_Node000010"><a xlink:title=" ">
<path fill="none" stroke="#63b8ff" d="M641.12,-169.78C663.08,-160.26 690.57,-148.35 711.71,-139.18"/>
<polygon fill="#63b8ff" stroke="#63b8ff" points="712.95,-142.46 720.74,-135.27 710.17,-136.03 712.95,-142.46"/>
</a>
</g>
</g>
<!-- Node16&#45;&gt;Node10 -->
<g id="edge28_Node000016_Node000010" class="edge">
<title>Node16&#45;&gt;Node10</title>
<g id="a_edge28_Node000016_Node000010"><a xlink:title=" ">
<path fill="none" stroke="#63b8ff" d="M785,-176.18C778.1,-167.39 767.8,-154.28 759.34,-143.51"/>
<polygon fill="#63b8ff" stroke="#63b8ff" points="762.11,-141.36 753.18,-135.66 756.6,-145.69 762.11,-141.36"/>
</a>
</g>
</g>
</g>
</svg>
