<?xml version="1.0" encoding="UTF-8" standalone="no"?>
<!DOCTYPE svg PUBLIC "-//W3C//DTD SVG 1.1//EN"
 "http://www.w3.org/Graphics/SVG/1.1/DTD/svg11.dtd">
<!-- Generated by graphviz version 12.1.2 (20240928.0832)
 -->
<!-- Title: socket.h Pages: 1 -->
<svg width="845pt" height="256pt"
 viewBox="0.00 0.00 844.95 255.75" xmlns="http://www.w3.org/2000/svg" xmlns:xlink="http://www.w3.org/1999/xlink">
<g id="graph0" class="graph" transform="scale(1 1) rotate(0) translate(4 251.75)">
<title>socket.h</title>
<!-- Node1 -->
<g id="Node000001" class="node">
<title>Node1</title>
<g id="a_Node000001"><a xlink:title=" ">
<polygon fill="#999999" stroke="#666666" points="367.33,-247.75 310.83,-247.75 310.83,-227 367.33,-227 367.33,-247.75"/>
<text text-anchor="middle" x="339.08" y="-234.25" font-family="Helvetica,sans-Serif" font-size="10.00">socket.h</text>
</a>
</g>
</g>
<!-- Node2 -->
<g id="Node000002" class="node">
<title>Node2</title>
<g id="a_Node000002"><a xlink:href="socket_2datagram_8c.html" target="_top" xlink:title=" ">
<polygon fill="white" stroke="#666666" points="85.83,-134.25 14.33,-134.25 14.33,-113.5 85.83,-113.5 85.83,-134.25"/>
<text text-anchor="middle" x="50.08" y="-120.75" font-family="Helvetica,sans-Serif" font-size="10.00">datagram.c</text>
</a>
</g>
</g>
<!-- Node1&#45;&gt;Node2 -->
<g id="edge1_Node000001_Node000002" class="edge">
<title>Node1&#45;&gt;Node2</title>
<g id="a_edge1_Node000001_Node000002"><a xlink:title=" ">
<path fill="none" stroke="#63b8ff" d="M299.32,-236.35C250.8,-234.65 167.73,-226.23 107.08,-191 82.96,-176.99 64.07,-148.96 55.34,-134.3"/>
<polygon fill="#63b8ff" stroke="#63b8ff" points="298.99,-239.84 309.08,-236.6 299.17,-232.84 298.99,-239.84"/>
</a>
</g>
</g>
<!-- Node3 -->
<g id="Node000003" class="node">
<title>Node3</title>
<g id="a_Node000003"><a xlink:href="socket_2datagram_8h.html" target="_top" xlink:title=" ">
<polygon fill="white" stroke="#666666" points="188.2,-191 115.95,-191 115.95,-170.25 188.2,-170.25 188.2,-191"/>
<text text-anchor="middle" x="152.08" y="-177.5" font-family="Helvetica,sans-Serif" font-size="10.00">datagram.h</text>
</a>
</g>
</g>
<!-- Node1&#45;&gt;Node3 -->
<g id="edge2_Node000001_Node000003" class="edge">
<title>Node1&#45;&gt;Node3</title>
<g id="a_edge2_Node000001_Node000003"><a xlink:title=" ">
<path fill="none" stroke="#63b8ff" d="M299.79,-224.87C265.91,-214.95 217.54,-200.79 185.49,-191.41"/>
<polygon fill="#63b8ff" stroke="#63b8ff" points="298.64,-228.18 309.22,-227.63 300.61,-221.47 298.64,-228.18"/>
</a>
</g>
</g>
<!-- Node7 -->
<g id="Node000007" class="node">
<title>Node7</title>
<g id="a_Node000007"><a xlink:href="state__machine_8c.html" target="_top" xlink:title=" ">
<polygon fill="white" stroke="#666666" points="143.2,-20.75 46.95,-20.75 46.95,0 143.2,0 143.2,-20.75"/>
<text text-anchor="middle" x="95.08" y="-7.25" font-family="Helvetica,sans-Serif" font-size="10.00">state_machine.c</text>
</a>
</g>
</g>
<!-- Node1&#45;&gt;Node7 -->
<g id="edge31_Node000001_Node000007" class="edge">
<title>Node1&#45;&gt;Node7</title>
<g id="a_edge31_Node000001_Node000007"><a xlink:title=" ">
<path fill="none" stroke="#63b8ff" d="M298.99,-235.27C246.41,-232.53 152.26,-223.11 79.08,-191 41.12,-174.35 23.41,-171.42 5.08,-134.25 -17.73,-88.01 46.43,-40.92 78.3,-21.1"/>
<polygon fill="#63b8ff" stroke="#63b8ff" points="298.82,-238.77 308.97,-235.73 299.14,-231.77 298.82,-238.77"/>
</a>
</g>
</g>
<!-- Node9 -->
<g id="Node000009" class="node">
<title>Node9</title>
<g id="a_Node000009"><a xlink:href="iface_8c.html" target="_top" xlink:title=" ">
<polygon fill="white" stroke="#666666" points="462.2,-77.5 413.95,-77.5 413.95,-56.75 462.2,-56.75 462.2,-77.5"/>
<text text-anchor="middle" x="438.08" y="-64" font-family="Helvetica,sans-Serif" font-size="10.00">iface.c</text>
</a>
</g>
</g>
<!-- Node1&#45;&gt;Node9 -->
<g id="edge14_Node000001_Node000009" class="edge">
<title>Node1&#45;&gt;Node9</title>
<g id="a_edge14_Node000001_Node000009"><a xlink:title=" ">
<path fill="none" stroke="#63b8ff" d="M332.33,-216.01C325.04,-189.98 316.97,-144.58 337.08,-113.5 345.85,-99.94 386.6,-84.64 413.59,-75.72"/>
<polygon fill="#63b8ff" stroke="#63b8ff" points="328.91,-216.79 335.17,-225.34 335.6,-214.75 328.91,-216.79"/>
</a>
</g>
</g>
<!-- Node10 -->
<g id="Node000010" class="node">
<title>Node10</title>
<g id="a_Node000010"><a xlink:href="iface_8h.html" target="_top" xlink:title=" ">
<polygon fill="white" stroke="#666666" points="459.58,-191 410.58,-191 410.58,-170.25 459.58,-170.25 459.58,-191"/>
<text text-anchor="middle" x="435.08" y="-177.5" font-family="Helvetica,sans-Serif" font-size="10.00">iface.h</text>
</a>
</g>
</g>
<!-- Node1&#45;&gt;Node10 -->
<g id="edge15_Node000001_Node000010" class="edge">
<title>Node1&#45;&gt;Node10</title>
<g id="a_edge15_Node000001_Node000010"><a xlink:title=" ">
<path fill="none" stroke="#63b8ff" d="M365.99,-221.03C382.69,-211.5 403.64,-199.56 418.06,-191.33"/>
<polygon fill="#63b8ff" stroke="#63b8ff" points="364.51,-217.84 357.55,-225.84 367.98,-223.92 364.51,-217.84"/>
</a>
</g>
</g>
<!-- Node11 -->
<g id="Node000011" class="node">
<title>Node11</title>
<g id="a_Node000011"><a xlink:href="iface__can_8c.html" target="_top" xlink:title=" ">
<polygon fill="white" stroke="#666666" points="667.45,-77.5 596.7,-77.5 596.7,-56.75 667.45,-56.75 667.45,-77.5"/>
<text text-anchor="middle" x="632.08" y="-64" font-family="Helvetica,sans-Serif" font-size="10.00">iface_can.c</text>
</a>
</g>
</g>
<!-- Node1&#45;&gt;Node11 -->
<g id="edge28_Node000001_Node000011" class="edge">
<title>Node1&#45;&gt;Node11</title>
<g id="a_edge28_Node000001_Node000011"><a xlink:title=" ">
<path fill="none" stroke="#63b8ff" d="M379.1,-232.23C470.72,-221.83 691.09,-191.29 734.08,-134.25 755.35,-106.02 705.12,-86.42 667.85,-76.25"/>
<polygon fill="#63b8ff" stroke="#63b8ff" points="378.88,-228.74 369.33,-233.32 379.65,-235.69 378.88,-228.74"/>
</a>
</g>
</g>
<!-- Node16 -->
<g id="Node000016" class="node">
<title>Node16</title>
<g id="a_Node000016"><a xlink:href="net_2inc_2vlcb_2net_8h.html" target="_top" xlink:title=" ">
<polygon fill="white" stroke="#666666" points="725.45,-134.25 684.7,-134.25 684.7,-113.5 725.45,-113.5 725.45,-134.25"/>
<text text-anchor="middle" x="705.08" y="-120.75" font-family="Helvetica,sans-Serif" font-size="10.00">net.h</text>
</a>
</g>
</g>
<!-- Node1&#45;&gt;Node16 -->
<g id="edge29_Node000001_Node000016" class="edge">
<title>Node1&#45;&gt;Node16</title>
<g id="a_edge29_Node000001_Node000016"><a xlink:title=" ">
<path fill="none" stroke="#63b8ff" d="M378.54,-224.35C456.03,-200.74 625.69,-149.06 684.51,-131.14"/>
<polygon fill="#63b8ff" stroke="#63b8ff" points="377.79,-220.92 369.24,-227.18 379.83,-227.62 377.79,-220.92"/>
</a>
</g>
</g>
<!-- Node17 -->
<g id="Node000017" class="node">
<title>Node17</title>
<g id="a_Node000017"><a xlink:href="socket_8c.html" target="_top" xlink:title=" ">
<polygon fill="white" stroke="#666666" points="836.95,-191 781.2,-191 781.2,-170.25 836.95,-170.25 836.95,-191"/>
<text text-anchor="middle" x="809.08" y="-177.5" font-family="Helvetica,sans-Serif" font-size="10.00">socket.c</text>
</a>
</g>
</g>
<!-- Node1&#45;&gt;Node17 -->
<g id="edge30_Node000001_Node000017" class="edge">
<title>Node1&#45;&gt;Node17</title>
<g id="a_edge30_Node000001_Node000017"><a xlink:title=" ">
<path fill="none" stroke="#63b8ff" d="M379.15,-233.66C455.16,-228.17 625.34,-214.25 767.08,-191 771.65,-190.25 776.47,-189.31 781.15,-188.32"/>
<polygon fill="#63b8ff" stroke="#63b8ff" points="379.01,-230.16 369.29,-234.36 379.51,-237.14 379.01,-230.16"/>
</a>
</g>
</g>
<!-- Node3&#45;&gt;Node2 -->
<g id="edge3_Node000003_Node000002" class="edge">
<title>Node3&#45;&gt;Node2</title>
<g id="a_edge3_Node000003_Node000002"><a xlink:title=" ">
<path fill="none" stroke="#63b8ff" d="M123.73,-164.41C105.95,-154.86 83.55,-142.84 68.15,-134.58"/>
<polygon fill="#63b8ff" stroke="#63b8ff" points="122.04,-167.48 132.51,-169.12 125.35,-161.31 122.04,-167.48"/>
</a>
</g>
</g>
<!-- Node4 -->
<g id="Node000004" class="node">
<title>Node4</title>
<g id="a_Node000004"><a xlink:href="module_8c.html" target="_top" xlink:title=" ">
<polygon fill="white" stroke="#666666" points="297.58,-20.75 236.58,-20.75 236.58,0 297.58,0 297.58,-20.75"/>
<text text-anchor="middle" x="267.08" y="-7.25" font-family="Helvetica,sans-Serif" font-size="10.00">module.c</text>
</a>
</g>
</g>
<!-- Node3&#45;&gt;Node4 -->
<g id="edge4_Node000003_Node000004" class="edge">
<title>Node3&#45;&gt;Node4</title>
<g id="a_edge4_Node000003_Node000004"><a xlink:title=" ">
<path fill="none" stroke="#63b8ff" d="M149.72,-158.57C147.92,-132.13 148.77,-86.63 171.08,-56.75 186.74,-35.77 214.56,-24.11 236.24,-17.88"/>
<polygon fill="#63b8ff" stroke="#63b8ff" points="146.22,-158.71 150.6,-168.35 153.19,-158.08 146.22,-158.71"/>
</a>
</g>
</g>
<!-- Node5 -->
<g id="Node000005" class="node">
<title>Node5</title>
<g id="a_Node000005"><a xlink:href="module_2inc_2vlcb_2module_8h.html" target="_top" xlink:title=" ">
<polygon fill="white" stroke="#666666" points="259.95,-134.25 198.2,-134.25 198.2,-113.5 259.95,-113.5 259.95,-134.25"/>
<text text-anchor="middle" x="229.08" y="-120.75" font-family="Helvetica,sans-Serif" font-size="10.00">module.h</text>
</a>
</g>
</g>
<!-- Node3&#45;&gt;Node5 -->
<g id="edge5_Node000003_Node000005" class="edge">
<title>Node3&#45;&gt;Node5</title>
<g id="a_edge5_Node000003_Node000005"><a xlink:title=" ">
<path fill="none" stroke="#63b8ff" d="M175.2,-163.19C188.32,-153.86 204.3,-142.5 215.43,-134.58"/>
<polygon fill="#63b8ff" stroke="#63b8ff" points="173.2,-160.31 167.08,-168.96 177.25,-166.02 173.2,-160.31"/>
</a>
</g>
</g>
<!-- Node3&#45;&gt;Node7 -->
<g id="edge13_Node000003_Node000007" class="edge">
<title>Node3&#45;&gt;Node7</title>
<g id="a_edge13_Node000003_Node000007"><a xlink:title=" ">
<path fill="none" stroke="#63b8ff" d="M145.22,-159.38C132.91,-123.06 107.51,-48.08 98.41,-21.22"/>
<polygon fill="#63b8ff" stroke="#63b8ff" points="141.84,-160.32 148.36,-168.66 148.47,-158.07 141.84,-160.32"/>
</a>
</g>
</g>
<!-- Node5&#45;&gt;Node4 -->
<g id="edge6_Node000005_Node000004" class="edge">
<title>Node5&#45;&gt;Node4</title>
<g id="a_edge6_Node000005_Node000004"><a xlink:title=" ">
<path fill="none" stroke="#63b8ff" d="M258.73,-106.92C269.4,-99.51 280.23,-89.63 286.08,-77.5 295.21,-58.56 282.8,-34.41 274.16,-21.16"/>
<polygon fill="#63b8ff" stroke="#63b8ff" points="256.97,-103.9 250.41,-112.22 260.72,-109.8 256.97,-103.9"/>
</a>
</g>
</g>
<!-- Node6 -->
<g id="Node000006" class="node">
<title>Node6</title>
<g id="a_Node000006"><a xlink:href="module_2src_2module_8h.html" target="_top" xlink:title=" ">
<polygon fill="white" stroke="#666666" points="395.95,-77.5 334.2,-77.5 334.2,-56.75 395.95,-56.75 395.95,-77.5"/>
<text text-anchor="middle" x="365.08" y="-64" font-family="Helvetica,sans-Serif" font-size="10.00">module.h</text>
</a>
</g>
</g>
<!-- Node5&#45;&gt;Node6 -->
<g id="edge7_Node000005_Node000006" class="edge">
<title>Node5&#45;&gt;Node6</title>
<g id="a_edge7_Node000005_Node000006"><a xlink:title=" ">
<path fill="none" stroke="#63b8ff" d="M263.9,-108.86C288.04,-99.14 319.57,-86.44 340.97,-77.83"/>
<polygon fill="#63b8ff" stroke="#63b8ff" points="262.76,-105.54 254.8,-112.52 265.38,-112.03 262.76,-105.54"/>
</a>
</g>
</g>
<!-- Node5&#45;&gt;Node7 -->
<g id="edge9_Node000005_Node000007" class="edge">
<title>Node5&#45;&gt;Node7</title>
<g id="a_edge9_Node000005_Node000007"><a xlink:title=" ">
<path fill="none" stroke="#63b8ff" d="M207.56,-106.47C196.54,-97.96 182.97,-87.32 171.08,-77.5 147.47,-58.02 120.62,-34.27 106,-21.19"/>
<polygon fill="#63b8ff" stroke="#63b8ff" points="205.22,-109.09 215.28,-112.4 209.48,-103.53 205.22,-109.09"/>
</a>
</g>
</g>
<!-- Node8 -->
<g id="Node000008" class="node">
<title>Node8</title>
<g id="a_Node000008"><a xlink:href="state__machine_8h.html" target="_top" xlink:title=" ">
<polygon fill="white" stroke="#666666" points="277.58,-77.5 180.58,-77.5 180.58,-56.75 277.58,-56.75 277.58,-77.5"/>
<text text-anchor="middle" x="229.08" y="-64" font-family="Helvetica,sans-Serif" font-size="10.00">state_machine.h</text>
</a>
</g>
</g>
<!-- Node5&#45;&gt;Node8 -->
<g id="edge10_Node000005_Node000008" class="edge">
<title>Node5&#45;&gt;Node8</title>
<g id="a_edge10_Node000005_Node000008"><a xlink:title=" ">
<path fill="none" stroke="#63b8ff" d="M229.08,-101.63C229.08,-93.41 229.08,-84.43 229.08,-77.83"/>
<polygon fill="#63b8ff" stroke="#63b8ff" points="225.58,-101.57 229.08,-111.57 232.58,-101.57 225.58,-101.57"/>
</a>
</g>
</g>
<!-- Node6&#45;&gt;Node4 -->
<g id="edge8_Node000006_Node000004" class="edge">
<title>Node6&#45;&gt;Node4</title>
<g id="a_edge8_Node000006_Node000004"><a xlink:title=" ">
<path fill="none" stroke="#63b8ff" d="M337.6,-50.78C320.56,-41.25 299.17,-29.31 284.45,-21.08"/>
<polygon fill="#63b8ff" stroke="#63b8ff" points="335.8,-53.78 346.24,-55.6 339.21,-47.67 335.8,-53.78"/>
</a>
</g>
</g>
<!-- Node8&#45;&gt;Node4 -->
<g id="edge11_Node000008_Node000004" class="edge">
<title>Node8&#45;&gt;Node4</title>
<g id="a_edge11_Node000008_Node000004"><a xlink:title=" ">
<path fill="none" stroke="#63b8ff" d="M242.43,-46.89C248.49,-38.16 255.39,-28.22 260.34,-21.08"/>
<polygon fill="#63b8ff" stroke="#63b8ff" points="239.56,-44.88 236.73,-55.09 245.31,-48.87 239.56,-44.88"/>
</a>
</g>
</g>
<!-- Node8&#45;&gt;Node7 -->
<g id="edge12_Node000008_Node000007" class="edge">
<title>Node8&#45;&gt;Node7</title>
<g id="a_edge12_Node000008_Node000007"><a xlink:title=" ">
<path fill="none" stroke="#63b8ff" d="M194.77,-52.11C170.98,-42.39 139.91,-29.69 118.83,-21.08"/>
<polygon fill="#63b8ff" stroke="#63b8ff" points="193.14,-55.22 203.72,-55.76 195.79,-48.74 193.14,-55.22"/>
</a>
</g>
</g>
<!-- Node10&#45;&gt;Node5 -->
<g id="edge26_Node000010_Node000005" class="edge">
<title>Node10&#45;&gt;Node5</title>
<g id="a_edge26_Node000010_Node000005"><a xlink:title=" ">
<path fill="none" stroke="#63b8ff" d="M399.34,-170.13C360.12,-159.7 297.78,-143.13 260.41,-133.2"/>
<polygon fill="#63b8ff" stroke="#63b8ff" points="398.2,-173.45 408.77,-172.63 400,-166.68 398.2,-173.45"/>
</a>
</g>
</g>
<!-- Node10&#45;&gt;Node9 -->
<g id="edge16_Node000010_Node000009" class="edge">
<title>Node10&#45;&gt;Node9</title>
<g id="a_edge16_Node000010_Node000009"><a xlink:title=" ">
<path fill="none" stroke="#63b8ff" d="M399.47,-169.74C367.75,-158.98 328.67,-139.76 345.08,-113.5 352.88,-101.01 388.85,-85.9 413.7,-76.65"/>
<polygon fill="#63b8ff" stroke="#63b8ff" points="398.25,-173.02 408.84,-172.72 400.38,-166.35 398.25,-173.02"/>
</a>
</g>
</g>
<!-- Node10&#45;&gt;Node11 -->
<g id="edge17_Node000010_Node000011" class="edge">
<title>Node10&#45;&gt;Node11</title>
<g id="a_edge17_Node000010_Node000011"><a xlink:title=" ">
<path fill="none" stroke="#63b8ff" d="M471.22,-176.85C523.85,-171.98 617.56,-159.86 638.08,-134.25 651.05,-118.06 642.81,-91.94 636.78,-77.87"/>
<polygon fill="#63b8ff" stroke="#63b8ff" points="471.2,-173.34 461.54,-177.7 471.81,-180.31 471.2,-173.34"/>
</a>
</g>
</g>
<!-- Node12 -->
<g id="Node000012" class="node">
<title>Node12</title>
<g id="a_Node000012"><a xlink:href="iface__can_8h.html" target="_top" xlink:title=" ">
<polygon fill="white" stroke="#666666" points="425.83,-134.25 354.33,-134.25 354.33,-113.5 425.83,-113.5 425.83,-134.25"/>
<text text-anchor="middle" x="390.08" y="-120.75" font-family="Helvetica,sans-Serif" font-size="10.00">iface_can.h</text>
</a>
</g>
</g>
<!-- Node10&#45;&gt;Node12 -->
<g id="edge18_Node000010_Node000012" class="edge">
<title>Node10&#45;&gt;Node12</title>
<g id="a_edge18_Node000010_Node000012"><a xlink:title=" ">
<path fill="none" stroke="#63b8ff" d="M419.73,-160.96C412.45,-152.09 404.05,-141.87 398.05,-134.58"/>
<polygon fill="#63b8ff" stroke="#63b8ff" points="417.02,-163.16 426.07,-168.67 422.43,-158.72 417.02,-163.16"/>
</a>
</g>
</g>
<!-- Node14 -->
<g id="Node000014" class="node">
<title>Node14</title>
<g id="a_Node000014"><a xlink:href="iface__can__svc_8c.html" target="_top" xlink:title=" ">
<polygon fill="white" stroke="#666666" points="629.33,-134.25 536.83,-134.25 536.83,-113.5 629.33,-113.5 629.33,-134.25"/>
<text text-anchor="middle" x="583.08" y="-120.75" font-family="Helvetica,sans-Serif" font-size="10.00">iface_can_svc.c</text>
</a>
</g>
</g>
<!-- Node10&#45;&gt;Node14 -->
<g id="edge21_Node000010_Node000014" class="edge">
<title>Node10&#45;&gt;Node14</title>
<g id="a_edge21_Node000010_Node000014"><a xlink:title=" ">
<path fill="none" stroke="#63b8ff" d="M470.55,-166.5C496.97,-156.73 532.47,-143.6 556.47,-134.72"/>
<polygon fill="#63b8ff" stroke="#63b8ff" points="469.43,-163.18 461.27,-169.94 471.86,-169.75 469.43,-163.18"/>
</a>
</g>
</g>
<!-- Node15 -->
<g id="Node000015" class="node">
<title>Node15</title>
<g id="a_Node000015"><a xlink:href="iface__vlcb_8h.html" target="_top" xlink:title=" ">
<polygon fill="white" stroke="#666666" points="518.33,-134.25 443.83,-134.25 443.83,-113.5 518.33,-113.5 518.33,-134.25"/>
<text text-anchor="middle" x="481.08" y="-120.75" font-family="Helvetica,sans-Serif" font-size="10.00">iface_vlcb.h</text>
</a>
</g>
</g>
<!-- Node10&#45;&gt;Node15 -->
<g id="edge23_Node000010_Node000015" class="edge">
<title>Node10&#45;&gt;Node15</title>
<g id="a_edge23_Node000010_Node000015"><a xlink:title=" ">
<path fill="none" stroke="#63b8ff" d="M450.52,-161.24C458.02,-152.31 466.73,-141.95 472.92,-134.58"/>
<polygon fill="#63b8ff" stroke="#63b8ff" points="448.03,-158.77 444.27,-168.68 453.39,-163.27 448.03,-158.77"/>
</a>
</g>
</g>
<!-- Node10&#45;&gt;Node16 -->
<g id="edge27_Node000010_Node000016" class="edge">
<title>Node10&#45;&gt;Node16</title>
<g id="a_edge27_Node000010_Node000016"><a xlink:title=" ">
<path fill="none" stroke="#63b8ff" d="M471.29,-173.58C517.78,-165.61 600.81,-150.67 671.08,-134.25 675.37,-133.25 679.94,-132.07 684.29,-130.89"/>
<polygon fill="#63b8ff" stroke="#63b8ff" points="470.78,-170.12 461.51,-175.24 471.96,-177.02 470.78,-170.12"/>
</a>
</g>
</g>
<!-- Node12&#45;&gt;Node9 -->
<g id="edge19_Node000012_Node000009" class="edge">
<title>Node12&#45;&gt;Node9</title>
<g id="a_edge19_Node000012_Node000009"><a xlink:title=" ">
<path fill="none" stroke="#63b8ff" d="M406.2,-104.49C414.02,-95.56 423.11,-85.2 429.57,-77.83"/>
<polygon fill="#63b8ff" stroke="#63b8ff" points="403.62,-102.12 399.66,-111.95 408.88,-106.74 403.62,-102.12"/>
</a>
</g>
</g>
<!-- Node13 -->
<g id="Node000013" class="node">
<title>Node13</title>
<g id="a_Node000013"><a xlink:href="iface__vlcb_8c.html" target="_top" xlink:title=" ">
<polygon fill="white" stroke="#666666" points="553.95,-77.5 480.2,-77.5 480.2,-56.75 553.95,-56.75 553.95,-77.5"/>
<text text-anchor="middle" x="517.08" y="-64" font-family="Helvetica,sans-Serif" font-size="10.00">iface_vlcb.c</text>
</a>
</g>
</g>
<!-- Node12&#45;&gt;Node13 -->
<g id="edge20_Node000012_Node000013" class="edge">
<title>Node12&#45;&gt;Node13</title>
<g id="a_edge20_Node000012_Node000013"><a xlink:title=" ">
<path fill="none" stroke="#63b8ff" d="M423.21,-108.59C445.67,-98.91 474.76,-86.37 494.57,-77.83"/>
<polygon fill="#63b8ff" stroke="#63b8ff" points="421.97,-105.31 414.17,-112.49 424.74,-111.74 421.97,-105.31"/>
</a>
</g>
</g>
<!-- Node14&#45;&gt;Node11 -->
<g id="edge22_Node000014_Node000011" class="edge">
<title>Node14&#45;&gt;Node11</title>
<g id="a_edge22_Node000014_Node000011"><a xlink:title=" ">
<path fill="none" stroke="#63b8ff" d="M599.28,-104.77C607.33,-95.78 616.72,-85.28 623.39,-77.83"/>
<polygon fill="#63b8ff" stroke="#63b8ff" points="596.91,-102.17 592.85,-111.96 602.12,-106.84 596.91,-102.17"/>
</a>
</g>
</g>
<!-- Node15&#45;&gt;Node9 -->
<g id="edge24_Node000015_Node000009" class="edge">
<title>Node15&#45;&gt;Node9</title>
<g id="a_edge24_Node000015_Node000009"><a xlink:title=" ">
<path fill="none" stroke="#63b8ff" d="M466.42,-104.21C459.46,-95.34 451.43,-85.12 445.7,-77.83"/>
<polygon fill="#63b8ff" stroke="#63b8ff" points="463.53,-106.19 472.45,-111.9 469.03,-101.87 463.53,-106.19"/>
</a>
</g>
</g>
<!-- Node15&#45;&gt;Node11 -->
<g id="edge25_Node000015_Node000011" class="edge">
<title>Node15&#45;&gt;Node11</title>
<g id="a_edge25_Node000015_Node000011"><a xlink:title=" ">
<path fill="none" stroke="#63b8ff" d="M518.62,-109.26C545.47,-99.53 580.97,-86.65 605.06,-77.92"/>
<polygon fill="#63b8ff" stroke="#63b8ff" points="517.7,-105.87 509.5,-112.57 520.09,-112.45 517.7,-105.87"/>
</a>
</g>
</g>
</g>
</svg>
