<?xml version="1.0" encoding="UTF-8" standalone="no"?>
<!DOCTYPE svg PUBLIC "-//W3C//DTD SVG 1.1//EN"
 "http://www.w3.org/Graphics/SVG/1.1/DTD/svg11.dtd">
<!-- Generated by graphviz version 12.1.2 (20240928.0832)
 -->
<!-- Title: ProcessPacket Pages: 1 -->
<svg width="271pt" height="68pt"
 viewBox="0.00 0.00 271.00 67.75" xmlns="http://www.w3.org/2000/svg" xmlns:xlink="http://www.w3.org/1999/xlink">
<g id="graph0" class="graph" transform="scale(1 1) rotate(0) translate(4 63.75)">
<title>ProcessPacket</title>
<!-- Node1 -->
<g id="Node000001" class="node">
<title>Node1</title>
<g id="a_Node000001"><a xlink:title=" ">
<polygon fill="#999999" stroke="#666666" points="85,-39.75 0,-39.75 0,-19 85,-19 85,-39.75"/>
<text text-anchor="middle" x="42.5" y="-26.25" font-family="Helvetica,sans-Serif" font-size="10.00">ProcessPacket</text>
</a>
</g>
</g>
<!-- Node2 -->
<g id="Node000002" class="node">
<title>Node2</title>
<g id="a_Node000002"><a xlink:href="packet__buf_8c.html#afa80d4fb078473100610ba106bd5cb46" target="_top" xlink:title=" ">
<polygon fill="white" stroke="#666666" points="261.5,-59.75 122.5,-59.75 122.5,-39 261.5,-39 261.5,-59.75"/>
<text text-anchor="middle" x="192" y="-46.25" font-family="Helvetica,sans-Serif" font-size="10.00">vlcb_net_packetbuf_Push</text>
</a>
</g>
</g>
<!-- Node1&#45;&gt;Node2 -->
<g id="edge1_Node000001_Node000002" class="edge">
<title>Node1&#45;&gt;Node2</title>
<g id="a_edge1_Node000001_Node000002"><a xlink:title=" ">
<path fill="none" stroke="#63b8ff" d="M85.37,-35.05C93.46,-36.15 102.18,-37.33 111.01,-38.53"/>
<polygon fill="#63b8ff" stroke="#63b8ff" points="110.35,-41.97 120.73,-39.85 111.29,-35.04 110.35,-41.97"/>
</a>
</g>
</g>
<!-- Node3 -->
<g id="Node000003" class="node">
<title>Node3</title>
<g id="a_Node000003"><a xlink:href="packet_2datagram_8c.html#a965c07c3bd42101143dfbec7857547c2" target="_top" xlink:title=" ">
<polygon fill="white" stroke="#666666" points="263,-20.75 121,-20.75 121,0 263,0 263,-20.75"/>
<text text-anchor="middle" x="192" y="-7.25" font-family="Helvetica,sans-Serif" font-size="10.00">vlcb_net_pkt_dgram_New</text>
</a>
</g>
</g>
<!-- Node1&#45;&gt;Node3 -->
<g id="edge2_Node000001_Node000003" class="edge">
<title>Node1&#45;&gt;Node3</title>
<g id="a_edge2_Node000001_Node000003"><a xlink:title=" ">
<path fill="none" stroke="#63b8ff" d="M85.37,-23.98C92.93,-23.01 101.03,-21.96 109.27,-20.9"/>
<polygon fill="#63b8ff" stroke="#63b8ff" points="109.58,-24.39 119.05,-19.64 108.69,-17.45 109.58,-24.39"/>
</a>
</g>
</g>
</g>
</svg>
