<?xml version="1.0" encoding="UTF-8" standalone="no"?>
<!DOCTYPE svg PUBLIC "-//W3C//DTD SVG 1.1//EN"
 "http://www.w3.org/Graphics/SVG/1.1/DTD/svg11.dtd">
<!-- Generated by graphviz version 12.1.2 (20240928.0832)
 -->
<!-- Title: datagram.h Pages: 1 -->
<svg width="427pt" height="199pt"
 viewBox="0.00 0.00 426.88 199.00" xmlns="http://www.w3.org/2000/svg" xmlns:xlink="http://www.w3.org/1999/xlink">
<g id="graph0" class="graph" transform="scale(1 1) rotate(0) translate(4 195)">
<title>datagram.h</title>
<!-- Node1 -->
<g id="Node000001" class="node">
<title>Node1</title>
<g id="a_Node000001"><a xlink:title=" ">
<polygon fill="#999999" stroke="#666666" points="183.88,-191 111.62,-191 111.62,-170.25 183.88,-170.25 183.88,-191"/>
<text text-anchor="middle" x="147.75" y="-177.5" font-family="Helvetica,sans-Serif" font-size="10.00">datagram.h</text>
</a>
</g>
</g>
<!-- Node2 -->
<g id="Node000002" class="node">
<title>Node2</title>
<g id="a_Node000002"><a xlink:href="socket_2datagram_8c.html" target="_top" xlink:title=" ">
<polygon fill="white" stroke="#666666" points="71.5,-134.25 0,-134.25 0,-113.5 71.5,-113.5 71.5,-134.25"/>
<text text-anchor="middle" x="35.75" y="-120.75" font-family="Helvetica,sans-Serif" font-size="10.00">datagram.c</text>
</a>
</g>
</g>
<!-- Node1&#45;&gt;Node2 -->
<g id="edge1_Node000001_Node000002" class="edge">
<title>Node1&#45;&gt;Node2</title>
<g id="a_edge1_Node000001_Node000002"><a xlink:title=" ">
<path fill="none" stroke="#63b8ff" d="M117.45,-164.81C97.79,-155.2 72.75,-142.96 55.6,-134.58"/>
<polygon fill="#63b8ff" stroke="#63b8ff" points="115.85,-167.92 126.37,-169.17 118.92,-161.64 115.85,-167.92"/>
</a>
</g>
</g>
<!-- Node3 -->
<g id="Node000003" class="node">
<title>Node3</title>
<g id="a_Node000003"><a xlink:href="module_8c.html" target="_top" xlink:title=" ">
<polygon fill="white" stroke="#666666" points="198.25,-20.75 137.25,-20.75 137.25,0 198.25,0 198.25,-20.75"/>
<text text-anchor="middle" x="167.75" y="-7.25" font-family="Helvetica,sans-Serif" font-size="10.00">module.c</text>
</a>
</g>
</g>
<!-- Node1&#45;&gt;Node3 -->
<g id="edge2_Node000001_Node000003" class="edge">
<title>Node1&#45;&gt;Node3</title>
<g id="a_edge2_Node000001_Node000003"><a xlink:title=" ">
<path fill="none" stroke="#63b8ff" d="M145.83,-158.78C144.08,-134.14 142.71,-92.03 149.75,-56.75 152.3,-43.95 158.3,-30.13 162.67,-21.15"/>
<polygon fill="#63b8ff" stroke="#63b8ff" points="142.32,-158.75 146.62,-168.43 149.29,-158.18 142.32,-158.75"/>
</a>
</g>
</g>
<!-- Node4 -->
<g id="Node000004" class="node">
<title>Node4</title>
<g id="a_Node000004"><a xlink:href="module_2inc_2vlcb_2module_8h.html" target="_top" xlink:title=" ">
<polygon fill="white" stroke="#666666" points="227.62,-134.25 165.88,-134.25 165.88,-113.5 227.62,-113.5 227.62,-134.25"/>
<text text-anchor="middle" x="196.75" y="-120.75" font-family="Helvetica,sans-Serif" font-size="10.00">module.h</text>
</a>
</g>
</g>
<!-- Node1&#45;&gt;Node4 -->
<g id="edge3_Node000001_Node000004" class="edge">
<title>Node1&#45;&gt;Node4</title>
<g id="a_edge3_Node000001_Node000004"><a xlink:title=" ">
<path fill="none" stroke="#63b8ff" d="M163.95,-161.52C172,-152.53 181.4,-142.03 188.07,-134.58"/>
<polygon fill="#63b8ff" stroke="#63b8ff" points="161.58,-158.92 157.52,-168.71 166.8,-163.59 161.58,-158.92"/>
</a>
</g>
</g>
<!-- Node6 -->
<g id="Node000006" class="node">
<title>Node6</title>
<g id="a_Node000006"><a xlink:href="state__machine_8c.html" target="_top" xlink:title=" ">
<polygon fill="white" stroke="#666666" points="418.88,-20.75 322.62,-20.75 322.62,0 418.88,0 418.88,-20.75"/>
<text text-anchor="middle" x="370.75" y="-7.25" font-family="Helvetica,sans-Serif" font-size="10.00">state_machine.c</text>
</a>
</g>
</g>
<!-- Node1&#45;&gt;Node6 -->
<g id="edge11_Node000001_Node000006" class="edge">
<title>Node1&#45;&gt;Node6</title>
<g id="a_edge11_Node000001_Node000006"><a xlink:title=" ">
<path fill="none" stroke="#63b8ff" d="M195.48,-173.07C248.89,-162.91 332.98,-137.78 371.75,-77.5 382.93,-60.12 377.89,-34.49 373.92,-20.8"/>
<polygon fill="#63b8ff" stroke="#63b8ff" points="194.97,-169.61 185.74,-174.81 196.2,-176.5 194.97,-169.61"/>
</a>
</g>
</g>
<!-- Node4&#45;&gt;Node3 -->
<g id="edge4_Node000004_Node000003" class="edge">
<title>Node4&#45;&gt;Node3</title>
<g id="a_edge4_Node000004_Node000003"><a xlink:title=" ">
<path fill="none" stroke="#63b8ff" d="M176.27,-105.7C168.6,-97.97 160.78,-88.18 156.75,-77.5 149.51,-58.34 157.42,-34.27 163.08,-21.1"/>
<polygon fill="#63b8ff" stroke="#63b8ff" points="173.53,-107.93 183.23,-112.19 178.3,-102.81 173.53,-107.93"/>
</a>
</g>
</g>
<!-- Node5 -->
<g id="Node000005" class="node">
<title>Node5</title>
<g id="a_Node000005"><a xlink:href="module_2src_2module_8h.html" target="_top" xlink:title=" ">
<polygon fill="white" stroke="#666666" points="227.62,-77.5 165.88,-77.5 165.88,-56.75 227.62,-56.75 227.62,-77.5"/>
<text text-anchor="middle" x="196.75" y="-64" font-family="Helvetica,sans-Serif" font-size="10.00">module.h</text>
</a>
</g>
</g>
<!-- Node4&#45;&gt;Node5 -->
<g id="edge5_Node000004_Node000005" class="edge">
<title>Node4&#45;&gt;Node5</title>
<g id="a_edge5_Node000004_Node000005"><a xlink:title=" ">
<path fill="none" stroke="#63b8ff" d="M196.75,-101.63C196.75,-93.41 196.75,-84.43 196.75,-77.83"/>
<polygon fill="#63b8ff" stroke="#63b8ff" points="193.25,-101.57 196.75,-111.57 200.25,-101.57 193.25,-101.57"/>
</a>
</g>
</g>
<!-- Node4&#45;&gt;Node6 -->
<g id="edge7_Node000004_Node000006" class="edge">
<title>Node4&#45;&gt;Node6</title>
<g id="a_edge7_Node000004_Node000006"><a xlink:title=" ">
<path fill="none" stroke="#63b8ff" d="M239.18,-121.32C273.94,-117.77 322.08,-107.32 351.75,-77.5 367.08,-62.09 370.22,-35.17 370.75,-20.89"/>
<polygon fill="#63b8ff" stroke="#63b8ff" points="239.13,-117.81 229.46,-122.14 239.72,-124.78 239.13,-117.81"/>
</a>
</g>
</g>
<!-- Node7 -->
<g id="Node000007" class="node">
<title>Node7</title>
<g id="a_Node000007"><a xlink:href="state__machine_8h.html" target="_top" xlink:title=" ">
<polygon fill="white" stroke="#666666" points="342.25,-77.5 245.25,-77.5 245.25,-56.75 342.25,-56.75 342.25,-77.5"/>
<text text-anchor="middle" x="293.75" y="-64" font-family="Helvetica,sans-Serif" font-size="10.00">state_machine.h</text>
</a>
</g>
</g>
<!-- Node4&#45;&gt;Node7 -->
<g id="edge8_Node000004_Node000007" class="edge">
<title>Node4&#45;&gt;Node7</title>
<g id="a_edge8_Node000004_Node000007"><a xlink:title=" ">
<path fill="none" stroke="#63b8ff" d="M223.94,-107.53C240.82,-98 261.98,-86.06 276.56,-77.83"/>
<polygon fill="#63b8ff" stroke="#63b8ff" points="222.4,-104.38 215.41,-112.34 225.84,-110.48 222.4,-104.38"/>
</a>
</g>
</g>
<!-- Node5&#45;&gt;Node3 -->
<g id="edge6_Node000005_Node000003" class="edge">
<title>Node5&#45;&gt;Node3</title>
<g id="a_edge6_Node000005_Node000003"><a xlink:title=" ">
<path fill="none" stroke="#63b8ff" d="M186.26,-46.32C181.71,-37.73 176.59,-28.06 172.89,-21.08"/>
<polygon fill="#63b8ff" stroke="#63b8ff" points="183.08,-47.8 190.86,-55 189.27,-44.52 183.08,-47.8"/>
</a>
</g>
</g>
<!-- Node7&#45;&gt;Node3 -->
<g id="edge9_Node000007_Node000003" class="edge">
<title>Node7&#45;&gt;Node3</title>
<g id="a_edge9_Node000007_Node000003"><a xlink:title=" ">
<path fill="none" stroke="#63b8ff" d="M260.88,-51.84C238.6,-42.16 209.73,-29.62 190.08,-21.08"/>
<polygon fill="#63b8ff" stroke="#63b8ff" points="259.27,-54.96 269.84,-55.73 262.06,-48.54 259.27,-54.96"/>
</a>
</g>
</g>
<!-- Node7&#45;&gt;Node6 -->
<g id="edge10_Node000007_Node000006" class="edge">
<title>Node7&#45;&gt;Node6</title>
<g id="a_edge10_Node000007_Node000006"><a xlink:title=" ">
<path fill="none" stroke="#63b8ff" d="M316.87,-49.69C329.99,-40.36 345.97,-29 357.1,-21.08"/>
<polygon fill="#63b8ff" stroke="#63b8ff" points="314.87,-46.81 308.75,-55.46 318.93,-52.52 314.87,-46.81"/>
</a>
</g>
</g>
</g>
</svg>
