<?xml version="1.0" encoding="UTF-8" standalone="no"?>
<!DOCTYPE svg PUBLIC "-//W3C//DTD SVG 1.1//EN"
 "http://www.w3.org/Graphics/SVG/1.1/DTD/svg11.dtd">
<!-- Generated by graphviz version 12.1.2 (20240928.0832)
 -->
<!-- Title: vlcb_net_sock_DispatchErrToStr Pages: 1 -->
<svg width="421pt" height="42pt"
 viewBox="0.00 0.00 421.25 41.50" xmlns="http://www.w3.org/2000/svg" xmlns:xlink="http://www.w3.org/1999/xlink">
<g id="graph0" class="graph" transform="scale(1 1) rotate(0) translate(4 37.5)">
<title>vlcb_net_sock_DispatchErrToStr</title>
<!-- Node1 -->
<g id="Node000001" class="node">
<title>Node1</title>
<g id="a_Node000001"><a xlink:title=" ">
<polygon fill="#999999" stroke="#666666" points="413.25,-33.5 266.75,-33.5 266.75,0 413.25,0 413.25,-33.5"/>
<text text-anchor="start" x="274.75" y="-20" font-family="Helvetica,sans-Serif" font-size="10.00">vlcb_net_sock_DispatchErr</text>
<text text-anchor="middle" x="340" y="-7.25" font-family="Helvetica,sans-Serif" font-size="10.00">ToStr</text>
</a>
</g>
</g>
<!-- Node2 -->
<g id="Node000002" class="node">
<title>Node2</title>
<g id="a_Node000002"><a xlink:href="iface_8c.html#a671fece11b167dc248031f6928ed836b" target="_top" xlink:title=" ">
<polygon fill="white" stroke="#666666" points="230.75,-27.12 145.75,-27.12 145.75,-6.38 230.75,-6.38 230.75,-27.12"/>
<text text-anchor="middle" x="188.25" y="-13.62" font-family="Helvetica,sans-Serif" font-size="10.00">EgressPackets</text>
</a>
</g>
</g>
<!-- Node1&#45;&gt;Node2 -->
<g id="edge1_Node000001_Node000002" class="edge">
<title>Node1&#45;&gt;Node2</title>
<g id="a_edge1_Node000001_Node000002"><a xlink:title=" ">
<path fill="none" stroke="#63b8ff" d="M255.02,-16.75C246.77,-16.75 238.67,-16.75 231.13,-16.75"/>
<polygon fill="#63b8ff" stroke="#63b8ff" points="254.8,-20.25 264.8,-16.75 254.8,-13.25 254.8,-20.25"/>
</a>
</g>
</g>
<!-- Node3 -->
<g id="Node000003" class="node">
<title>Node3</title>
<g id="a_Node000003"><a xlink:href="iface_8c.html#ac759fac91807dd30f90627e4c7a6dce2" target="_top" xlink:title=" ">
<polygon fill="white" stroke="#666666" points="109.75,-27.12 0,-27.12 0,-6.38 109.75,-6.38 109.75,-27.12"/>
<text text-anchor="middle" x="54.88" y="-13.62" font-family="Helvetica,sans-Serif" font-size="10.00">vlcb_net_iface_Poll</text>
</a>
</g>
</g>
<!-- Node2&#45;&gt;Node3 -->
<g id="edge2_Node000002_Node000003" class="edge">
<title>Node2&#45;&gt;Node3</title>
<g id="a_edge2_Node000002_Node000003"><a xlink:title=" ">
<path fill="none" stroke="#63b8ff" d="M133.94,-16.75C126.01,-16.75 117.84,-16.75 109.9,-16.75"/>
<polygon fill="#63b8ff" stroke="#63b8ff" points="133.81,-20.25 143.81,-16.75 133.81,-13.25 133.81,-20.25"/>
</a>
</g>
</g>
</g>
</svg>
