<?xml version="1.0" encoding="UTF-8" standalone="no"?>
<!DOCTYPE svg PUBLIC "-//W3C//DTD SVG 1.1//EN"
 "http://www.w3.org/Graphics/SVG/1.1/DTD/svg11.dtd">
<!-- Generated by graphviz version 12.1.2 (20240928.0832)
 -->
<!-- Title: socket.h Pages: 1 -->
<svg width="749pt" height="256pt"
 viewBox="0.00 0.00 748.50 255.75" xmlns="http://www.w3.org/2000/svg" xmlns:xlink="http://www.w3.org/1999/xlink">
<g id="graph0" class="graph" transform="scale(1 1) rotate(0) translate(4 251.75)">
<title>socket.h</title>
<!-- Node1 -->
<g id="Node000001" class="node">
<title>Node1</title>
<g id="a_Node000001"><a xlink:title=" ">
<polygon fill="#999999" stroke="#666666" points="509.38,-247.75 452.88,-247.75 452.88,-227 509.38,-227 509.38,-247.75"/>
<text text-anchor="middle" x="481.12" y="-234.25" font-family="Helvetica,sans-Serif" font-size="10.00">socket.h</text>
</a>
</g>
</g>
<!-- Node2 -->
<g id="Node000002" class="node">
<title>Node2</title>
<g id="a_Node000002"><a xlink:href="socket_2datagram_8c.html" target="_top" xlink:title=" ">
<polygon fill="white" stroke="#666666" points="90.88,-134.25 19.38,-134.25 19.38,-113.5 90.88,-113.5 90.88,-134.25"/>
<text text-anchor="middle" x="55.12" y="-120.75" font-family="Helvetica,sans-Serif" font-size="10.00">datagram.c</text>
</a>
</g>
</g>
<!-- Node1&#45;&gt;Node2 -->
<g id="edge1_Node000001_Node000002" class="edge">
<title>Node1&#45;&gt;Node2</title>
<g id="a_edge1_Node000001_Node000002"><a xlink:title=" ">
<path fill="none" stroke="#63b8ff" d="M441.47,-233.59C385.68,-228.88 281.3,-217.18 196.12,-191 149.09,-176.54 97.67,-149.22 71.87,-134.63"/>
<polygon fill="#63b8ff" stroke="#63b8ff" points="440.86,-237.05 451.11,-234.37 441.42,-230.07 440.86,-237.05"/>
</a>
</g>
</g>
<!-- Node3 -->
<g id="Node000003" class="node">
<title>Node3</title>
<g id="a_Node000003"><a xlink:href="socket_2datagram_8h.html" target="_top" xlink:title=" ">
<polygon fill="white" stroke="#666666" points="277.25,-191 205,-191 205,-170.25 277.25,-170.25 277.25,-191"/>
<text text-anchor="middle" x="241.12" y="-177.5" font-family="Helvetica,sans-Serif" font-size="10.00">datagram.h</text>
</a>
</g>
</g>
<!-- Node1&#45;&gt;Node3 -->
<g id="edge2_Node000001_Node000003" class="edge">
<title>Node1&#45;&gt;Node3</title>
<g id="a_edge2_Node000001_Node000003"><a xlink:title=" ">
<path fill="none" stroke="#63b8ff" d="M441.71,-227.38C396.1,-216.98 321.61,-199.99 277.38,-189.9"/>
<polygon fill="#63b8ff" stroke="#63b8ff" points="440.65,-230.73 451.18,-229.54 442.2,-223.91 440.65,-230.73"/>
</a>
</g>
</g>
<!-- Node4 -->
<g id="Node000004" class="node">
<title>Node4</title>
<g id="a_Node000004"><a xlink:href="module_8c.html" target="_top" xlink:title=" ">
<polygon fill="white" stroke="#666666" points="330.62,-20.75 269.62,-20.75 269.62,0 330.62,0 330.62,-20.75"/>
<text text-anchor="middle" x="300.12" y="-7.25" font-family="Helvetica,sans-Serif" font-size="10.00">module.c</text>
</a>
</g>
</g>
<!-- Node1&#45;&gt;Node4 -->
<g id="edge28_Node000001_Node000004" class="edge">
<title>Node1&#45;&gt;Node4</title>
<g id="a_edge28_Node000001_Node000004"><a xlink:title=" ">
<path fill="none" stroke="#63b8ff" d="M465.32,-218.08C447.89,-197.79 419.13,-163.99 395.12,-134.25 361.59,-92.7 323.1,-41.92 307.38,-21.04"/>
<polygon fill="#63b8ff" stroke="#63b8ff" points="462.52,-220.19 471.7,-225.48 467.82,-215.62 462.52,-220.19"/>
</a>
</g>
</g>
<!-- Node7 -->
<g id="Node000007" class="node">
<title>Node7</title>
<g id="a_Node000007"><a xlink:href="state__machine_8c.html" target="_top" xlink:title=" ">
<polygon fill="white" stroke="#666666" points="96.25,-20.75 0,-20.75 0,0 96.25,0 96.25,-20.75"/>
<text text-anchor="middle" x="48.12" y="-7.25" font-family="Helvetica,sans-Serif" font-size="10.00">state_machine.c</text>
</a>
</g>
</g>
<!-- Node1&#45;&gt;Node7 -->
<g id="edge31_Node000001_Node000007" class="edge">
<title>Node1&#45;&gt;Node7</title>
<g id="a_edge31_Node000001_Node000007"><a xlink:title=" ">
<path fill="none" stroke="#63b8ff" d="M441.21,-234.55C336.29,-228.76 57.56,-206.71 10.12,-134.25 -14.33,-96.88 22.62,-42.91 39.95,-21.08"/>
<polygon fill="#63b8ff" stroke="#63b8ff" points="440.86,-238.03 451.03,-235.07 441.23,-231.04 440.86,-238.03"/>
</a>
</g>
</g>
<!-- Node9 -->
<g id="Node000009" class="node">
<title>Node9</title>
<g id="a_Node000009"><a xlink:href="iface_8c.html" target="_top" xlink:title=" ">
<polygon fill="white" stroke="#666666" points="555.25,-77.5 507,-77.5 507,-56.75 555.25,-56.75 555.25,-77.5"/>
<text text-anchor="middle" x="531.12" y="-64" font-family="Helvetica,sans-Serif" font-size="10.00">iface.c</text>
</a>
</g>
</g>
<!-- Node1&#45;&gt;Node9 -->
<g id="edge14_Node000001_Node000009" class="edge">
<title>Node1&#45;&gt;Node9</title>
<g id="a_edge14_Node000001_Node000009"><a xlink:title=" ">
<path fill="none" stroke="#63b8ff" d="M487.14,-216.13C497.94,-179.81 520.22,-104.83 528.2,-77.97"/>
<polygon fill="#63b8ff" stroke="#63b8ff" points="483.88,-214.81 484.39,-225.4 490.59,-216.81 483.88,-214.81"/>
</a>
</g>
</g>
<!-- Node10 -->
<g id="Node000010" class="node">
<title>Node10</title>
<g id="a_Node000010"><a xlink:href="iface_8h.html" target="_top" xlink:title=" ">
<polygon fill="white" stroke="#666666" points="578.62,-191 529.62,-191 529.62,-170.25 578.62,-170.25 578.62,-191"/>
<text text-anchor="middle" x="554.12" y="-177.5" font-family="Helvetica,sans-Serif" font-size="10.00">iface.h</text>
</a>
</g>
</g>
<!-- Node1&#45;&gt;Node10 -->
<g id="edge15_Node000001_Node000010" class="edge">
<title>Node1&#45;&gt;Node10</title>
<g id="a_edge15_Node000001_Node000010"><a xlink:title=" ">
<path fill="none" stroke="#63b8ff" d="M503.04,-219.94C515.48,-210.61 530.63,-199.25 541.19,-191.33"/>
<polygon fill="#63b8ff" stroke="#63b8ff" points="501.29,-216.88 495.39,-225.68 505.49,-222.48 501.29,-216.88"/>
</a>
</g>
</g>
<!-- Node12 -->
<g id="Node000012" class="node">
<title>Node12</title>
<g id="a_Node000012"><a xlink:href="iface__can_8h.html" target="_top" xlink:title=" ">
<polygon fill="white" stroke="#666666" points="475.88,-134.25 404.38,-134.25 404.38,-113.5 475.88,-113.5 475.88,-134.25"/>
<text text-anchor="middle" x="440.12" y="-120.75" font-family="Helvetica,sans-Serif" font-size="10.00">iface_can.h</text>
</a>
</g>
</g>
<!-- Node1&#45;&gt;Node12 -->
<g id="edge26_Node000001_Node000012" class="edge">
<title>Node1&#45;&gt;Node12</title>
<g id="a_edge26_Node000001_Node000012"><a xlink:title=" ">
<path fill="none" stroke="#63b8ff" d="M473.68,-216.13C464.83,-192.06 450.41,-152.84 443.73,-134.68"/>
<polygon fill="#63b8ff" stroke="#63b8ff" points="470.37,-217.27 477.11,-225.45 476.94,-214.85 470.37,-217.27"/>
</a>
</g>
</g>
<!-- Node14 -->
<g id="Node000014" class="node">
<title>Node14</title>
<g id="a_Node000014"><a xlink:href="iface__vlcb_8h.html" target="_top" xlink:title=" ">
<polygon fill="white" stroke="#666666" points="644.38,-134.25 569.88,-134.25 569.88,-113.5 644.38,-113.5 644.38,-134.25"/>
<text text-anchor="middle" x="607.12" y="-120.75" font-family="Helvetica,sans-Serif" font-size="10.00">iface_vlcb.h</text>
</a>
</g>
</g>
<!-- Node1&#45;&gt;Node14 -->
<g id="edge27_Node000001_Node000014" class="edge">
<title>Node1&#45;&gt;Node14</title>
<g id="a_edge27_Node000001_Node000014"><a xlink:title=" ">
<path fill="none" stroke="#63b8ff" d="M520.72,-228.5C543.4,-222.04 570.73,-210.64 588.12,-191 602.38,-174.9 605.98,-148.75 606.86,-134.64"/>
<polygon fill="#63b8ff" stroke="#63b8ff" points="519.95,-225.08 511.15,-230.98 521.71,-231.85 519.95,-225.08"/>
</a>
</g>
</g>
<!-- Node15 -->
<g id="Node000015" class="node">
<title>Node15</title>
<g id="a_Node000015"><a xlink:href="net_8h.html" target="_top" xlink:title=" ">
<polygon fill="white" stroke="#666666" points="740.5,-134.25 699.75,-134.25 699.75,-113.5 740.5,-113.5 740.5,-134.25"/>
<text text-anchor="middle" x="720.12" y="-120.75" font-family="Helvetica,sans-Serif" font-size="10.00">net.h</text>
</a>
</g>
</g>
<!-- Node1&#45;&gt;Node15 -->
<g id="edge29_Node000001_Node000015" class="edge">
<title>Node1&#45;&gt;Node15</title>
<g id="a_edge29_Node000001_Node000015"><a xlink:title=" ">
<path fill="none" stroke="#63b8ff" d="M520.47,-224.46C545.96,-216.22 579.59,-204.37 608.12,-191 644.72,-173.85 684.9,-148.35 705.76,-134.57"/>
<polygon fill="#63b8ff" stroke="#63b8ff" points="519.65,-221.05 511.18,-227.41 521.77,-227.72 519.65,-221.05"/>
</a>
</g>
</g>
<!-- Node16 -->
<g id="Node000016" class="node">
<title>Node16</title>
<g id="a_Node000016"><a xlink:href="socket_8c.html" target="_top" xlink:title=" ">
<polygon fill="white" stroke="#666666" points="729,-191 673.25,-191 673.25,-170.25 729,-170.25 729,-191"/>
<text text-anchor="middle" x="701.12" y="-177.5" font-family="Helvetica,sans-Serif" font-size="10.00">socket.c</text>
</a>
</g>
</g>
<!-- Node1&#45;&gt;Node16 -->
<g id="edge30_Node000001_Node000016" class="edge">
<title>Node1&#45;&gt;Node16</title>
<g id="a_edge30_Node000001_Node000016"><a xlink:title=" ">
<path fill="none" stroke="#63b8ff" d="M520.53,-226.57C564.4,-215.65 634.2,-198.28 672.92,-188.64"/>
<polygon fill="#63b8ff" stroke="#63b8ff" points="519.76,-223.15 510.9,-228.96 521.45,-229.95 519.76,-223.15"/>
</a>
</g>
</g>
<!-- Node3&#45;&gt;Node2 -->
<g id="edge3_Node000003_Node000002" class="edge">
<title>Node3&#45;&gt;Node2</title>
<g id="a_edge3_Node000003_Node000002"><a xlink:title=" ">
<path fill="none" stroke="#63b8ff" d="M197.06,-166.66C163.75,-156.85 118.73,-143.6 88.4,-134.67"/>
<polygon fill="#63b8ff" stroke="#63b8ff" points="195.84,-169.94 206.42,-169.41 197.82,-163.23 195.84,-169.94"/>
</a>
</g>
</g>
<!-- Node3&#45;&gt;Node4 -->
<g id="edge4_Node000003_Node000004" class="edge">
<title>Node3&#45;&gt;Node4</title>
<g id="a_edge4_Node000003_Node000004"><a xlink:title=" ">
<path fill="none" stroke="#63b8ff" d="M259.97,-161.77C267.4,-153.91 275.49,-144.21 281.12,-134.25 294.15,-111.22 294.88,-103.62 299.12,-77.5 302.37,-57.55 301.62,-33.78 300.84,-20.87"/>
<polygon fill="#63b8ff" stroke="#63b8ff" points="257.65,-159.14 253.1,-168.71 262.62,-164.07 257.65,-159.14"/>
</a>
</g>
</g>
<!-- Node5 -->
<g id="Node000005" class="node">
<title>Node5</title>
<g id="a_Node000005"><a xlink:href="module_2inc_2vlcb_2module_8h.html" target="_top" xlink:title=" ">
<polygon fill="white" stroke="#666666" points="272,-134.25 210.25,-134.25 210.25,-113.5 272,-113.5 272,-134.25"/>
<text text-anchor="middle" x="241.12" y="-120.75" font-family="Helvetica,sans-Serif" font-size="10.00">module.h</text>
</a>
</g>
</g>
<!-- Node3&#45;&gt;Node5 -->
<g id="edge5_Node000003_Node000005" class="edge">
<title>Node3&#45;&gt;Node5</title>
<g id="a_edge5_Node000003_Node000005"><a xlink:title=" ">
<path fill="none" stroke="#63b8ff" d="M241.12,-158.38C241.12,-150.16 241.12,-141.18 241.12,-134.58"/>
<polygon fill="#63b8ff" stroke="#63b8ff" points="237.63,-158.32 241.13,-168.32 244.63,-158.32 237.63,-158.32"/>
</a>
</g>
</g>
<!-- Node3&#45;&gt;Node7 -->
<g id="edge13_Node000003_Node000007" class="edge">
<title>Node3&#45;&gt;Node7</title>
<g id="a_edge13_Node000003_Node000007"><a xlink:title=" ">
<path fill="none" stroke="#63b8ff" d="M197.94,-165.92C157.27,-150.77 97.71,-122.38 64.12,-77.5 51.39,-60.48 48.65,-34.7 48.15,-20.9"/>
<polygon fill="#63b8ff" stroke="#63b8ff" points="196.6,-169.16 207.2,-169.24 198.97,-162.57 196.6,-169.16"/>
</a>
</g>
</g>
<!-- Node5&#45;&gt;Node4 -->
<g id="edge6_Node000005_Node000004" class="edge">
<title>Node5&#45;&gt;Node4</title>
<g id="a_edge6_Node000005_Node000004"><a xlink:title=" ">
<path fill="none" stroke="#63b8ff" d="M260.11,-105.1C267.56,-97.25 275.63,-87.54 281.12,-77.5 291.34,-58.85 296.54,-34.17 298.75,-20.86"/>
<polygon fill="#63b8ff" stroke="#63b8ff" points="257.79,-102.47 253.2,-112.01 262.74,-107.42 257.79,-102.47"/>
</a>
</g>
</g>
<!-- Node6 -->
<g id="Node000006" class="node">
<title>Node6</title>
<g id="a_Node000006"><a xlink:href="module_2src_2module_8h.html" target="_top" xlink:title=" ">
<polygon fill="white" stroke="#666666" points="272,-77.5 210.25,-77.5 210.25,-56.75 272,-56.75 272,-77.5"/>
<text text-anchor="middle" x="241.12" y="-64" font-family="Helvetica,sans-Serif" font-size="10.00">module.h</text>
</a>
</g>
</g>
<!-- Node5&#45;&gt;Node6 -->
<g id="edge7_Node000005_Node000006" class="edge">
<title>Node5&#45;&gt;Node6</title>
<g id="a_edge7_Node000005_Node000006"><a xlink:title=" ">
<path fill="none" stroke="#63b8ff" d="M241.12,-101.63C241.12,-93.41 241.12,-84.43 241.12,-77.83"/>
<polygon fill="#63b8ff" stroke="#63b8ff" points="237.63,-101.57 241.13,-111.57 244.63,-101.57 237.63,-101.57"/>
</a>
</g>
</g>
<!-- Node5&#45;&gt;Node7 -->
<g id="edge9_Node000005_Node000007" class="edge">
<title>Node5&#45;&gt;Node7</title>
<g id="a_edge9_Node000005_Node000007"><a xlink:title=" ">
<path fill="none" stroke="#63b8ff" d="M198.47,-119.08C164.9,-114.2 118.54,-103.02 86.12,-77.5 67.19,-62.59 55.97,-35.46 51.07,-21.02"/>
<polygon fill="#63b8ff" stroke="#63b8ff" points="197.89,-122.54 208.26,-120.37 198.8,-115.6 197.89,-122.54"/>
</a>
</g>
</g>
<!-- Node8 -->
<g id="Node000008" class="node">
<title>Node8</title>
<g id="a_Node000008"><a xlink:href="state__machine_8h.html" target="_top" xlink:title=" ">
<polygon fill="white" stroke="#666666" points="192.62,-77.5 95.62,-77.5 95.62,-56.75 192.62,-56.75 192.62,-77.5"/>
<text text-anchor="middle" x="144.12" y="-64" font-family="Helvetica,sans-Serif" font-size="10.00">state_machine.h</text>
</a>
</g>
</g>
<!-- Node5&#45;&gt;Node8 -->
<g id="edge10_Node000005_Node000008" class="edge">
<title>Node5&#45;&gt;Node8</title>
<g id="a_edge10_Node000005_Node000008"><a xlink:title=" ">
<path fill="none" stroke="#63b8ff" d="M213.93,-107.53C197.06,-98 175.89,-86.06 161.32,-77.83"/>
<polygon fill="#63b8ff" stroke="#63b8ff" points="212.04,-110.48 222.47,-112.34 215.48,-104.38 212.04,-110.48"/>
</a>
</g>
</g>
<!-- Node6&#45;&gt;Node4 -->
<g id="edge8_Node000006_Node000004" class="edge">
<title>Node6&#45;&gt;Node4</title>
<g id="a_edge8_Node000006_Node000004"><a xlink:title=" ">
<path fill="none" stroke="#63b8ff" d="M260.03,-48.58C269.85,-39.47 281.47,-28.68 289.67,-21.08"/>
<polygon fill="#63b8ff" stroke="#63b8ff" points="257.73,-45.94 252.78,-55.31 262.49,-51.07 257.73,-45.94"/>
</a>
</g>
</g>
<!-- Node8&#45;&gt;Node4 -->
<g id="edge11_Node000008_Node000004" class="edge">
<title>Node8&#45;&gt;Node4</title>
<g id="a_edge11_Node000008_Node000004"><a xlink:title=" ">
<path fill="none" stroke="#63b8ff" d="M182.55,-52.64C210.33,-42.89 247.22,-29.94 272.21,-21.17"/>
<polygon fill="#63b8ff" stroke="#63b8ff" points="181.72,-49.22 173.44,-55.84 184.04,-55.83 181.72,-49.22"/>
</a>
</g>
</g>
<!-- Node8&#45;&gt;Node7 -->
<g id="edge12_Node000008_Node000007" class="edge">
<title>Node8&#45;&gt;Node7</title>
<g id="a_edge12_Node000008_Node000007"><a xlink:title=" ">
<path fill="none" stroke="#63b8ff" d="M117.21,-50.78C100.51,-41.25 79.57,-29.31 65.14,-21.08"/>
<polygon fill="#63b8ff" stroke="#63b8ff" points="115.23,-53.67 125.65,-55.59 118.69,-47.59 115.23,-53.67"/>
</a>
</g>
</g>
<!-- Node10&#45;&gt;Node5 -->
<g id="edge24_Node000010_Node000005" class="edge">
<title>Node10&#45;&gt;Node5</title>
<g id="a_edge24_Node000010_Node000005"><a xlink:title=" ">
<path fill="none" stroke="#63b8ff" d="M518.17,-173.34C456.3,-162.51 330.75,-140.55 272.33,-130.33"/>
<polygon fill="#63b8ff" stroke="#63b8ff" points="517.36,-176.75 527.81,-175.02 518.56,-169.85 517.36,-176.75"/>
</a>
</g>
</g>
<!-- Node10&#45;&gt;Node9 -->
<g id="edge16_Node000010_Node000009" class="edge">
<title>Node10&#45;&gt;Node9</title>
<g id="a_edge16_Node000010_Node000009"><a xlink:title=" ">
<path fill="none" stroke="#63b8ff" d="M549.88,-159.05C544.91,-134.95 536.88,-96 533.15,-77.93"/>
<polygon fill="#63b8ff" stroke="#63b8ff" points="546.41,-159.55 551.86,-168.64 553.27,-158.14 546.41,-159.55"/>
</a>
</g>
</g>
<!-- Node11 -->
<g id="Node000011" class="node">
<title>Node11</title>
<g id="a_Node000011"><a xlink:href="iface__can_8c.html" target="_top" xlink:title=" ">
<polygon fill="white" stroke="#666666" points="676.5,-77.5 605.75,-77.5 605.75,-56.75 676.5,-56.75 676.5,-77.5"/>
<text text-anchor="middle" x="641.12" y="-64" font-family="Helvetica,sans-Serif" font-size="10.00">iface_can.c</text>
</a>
</g>
</g>
<!-- Node10&#45;&gt;Node11 -->
<g id="edge17_Node000010_Node000011" class="edge">
<title>Node10&#45;&gt;Node11</title>
<g id="a_edge17_Node000010_Node000011"><a xlink:title=" ">
<path fill="none" stroke="#63b8ff" d="M590.13,-173.25C612.4,-167.24 639.3,-155.8 653.12,-134.25 664.34,-116.77 654.16,-91.63 646.91,-77.93"/>
<polygon fill="#63b8ff" stroke="#63b8ff" points="589.38,-169.83 580.47,-175.56 591.01,-176.64 589.38,-169.83"/>
</a>
</g>
</g>
<!-- Node10&#45;&gt;Node12 -->
<g id="edge18_Node000010_Node000012" class="edge">
<title>Node10&#45;&gt;Node12</title>
<g id="a_edge18_Node000010_Node000012"><a xlink:title=" ">
<path fill="none" stroke="#63b8ff" d="M523.56,-164.95C503.51,-155.32 477.86,-143 460.33,-134.58"/>
<polygon fill="#63b8ff" stroke="#63b8ff" points="521.85,-168.01 532.38,-169.18 524.88,-161.7 521.85,-168.01"/>
</a>
</g>
</g>
<!-- Node10&#45;&gt;Node14 -->
<g id="edge21_Node000010_Node000014" class="edge">
<title>Node10&#45;&gt;Node14</title>
<g id="a_edge21_Node000010_Node000014"><a xlink:title=" ">
<path fill="none" stroke="#63b8ff" d="M571.38,-161.8C580.14,-152.75 590.44,-142.11 597.73,-134.58"/>
<polygon fill="#63b8ff" stroke="#63b8ff" points="569.09,-159.13 564.65,-168.75 574.12,-164 569.09,-159.13"/>
</a>
</g>
</g>
<!-- Node10&#45;&gt;Node15 -->
<g id="edge25_Node000010_Node000015" class="edge">
<title>Node10&#45;&gt;Node15</title>
<g id="a_edge25_Node000010_Node000015"><a xlink:title=" ">
<path fill="none" stroke="#63b8ff" d="M589.65,-167.91C623.02,-156.9 671.83,-140.8 699.31,-131.74"/>
<polygon fill="#63b8ff" stroke="#63b8ff" points="588.81,-164.5 580.41,-170.95 591.01,-171.15 588.81,-164.5"/>
</a>
</g>
</g>
<!-- Node12&#45;&gt;Node9 -->
<g id="edge19_Node000012_Node000009" class="edge">
<title>Node12&#45;&gt;Node9</title>
<g id="a_edge19_Node000012_Node000009"><a xlink:title=" ">
<path fill="none" stroke="#63b8ff" d="M466.09,-107.26C481.84,-97.78 501.45,-85.98 515,-77.83"/>
<polygon fill="#63b8ff" stroke="#63b8ff" points="464.46,-104.15 457.69,-112.31 468.06,-110.15 464.46,-104.15"/>
</a>
</g>
</g>
<!-- Node13 -->
<g id="Node000013" class="node">
<title>Node13</title>
<g id="a_Node000013"><a xlink:href="iface__vlcb_8c.html" target="_top" xlink:title=" ">
<polygon fill="white" stroke="#666666" points="478,-77.5 404.25,-77.5 404.25,-56.75 478,-56.75 478,-77.5"/>
<text text-anchor="middle" x="441.12" y="-64" font-family="Helvetica,sans-Serif" font-size="10.00">iface_vlcb.c</text>
</a>
</g>
</g>
<!-- Node12&#45;&gt;Node13 -->
<g id="edge20_Node000012_Node000013" class="edge">
<title>Node12&#45;&gt;Node13</title>
<g id="a_edge20_Node000012_Node000013"><a xlink:title=" ">
<path fill="none" stroke="#63b8ff" d="M440.51,-101.63C440.66,-93.41 440.83,-84.43 440.95,-77.83"/>
<polygon fill="#63b8ff" stroke="#63b8ff" points="437.01,-101.51 440.33,-111.57 444.01,-101.64 437.01,-101.51"/>
</a>
</g>
</g>
<!-- Node14&#45;&gt;Node9 -->
<g id="edge22_Node000014_Node000009" class="edge">
<title>Node14&#45;&gt;Node9</title>
<g id="a_edge22_Node000014_Node000009"><a xlink:title=" ">
<path fill="none" stroke="#63b8ff" d="M584.31,-106.44C571.35,-97.11 555.58,-85.75 544.59,-77.83"/>
<polygon fill="#63b8ff" stroke="#63b8ff" points="582.15,-109.2 592.31,-112.2 586.24,-103.52 582.15,-109.2"/>
</a>
</g>
</g>
<!-- Node14&#45;&gt;Node11 -->
<g id="edge23_Node000014_Node000011" class="edge">
<title>Node14&#45;&gt;Node11</title>
<g id="a_edge23_Node000014_Node000011"><a xlink:title=" ">
<path fill="none" stroke="#63b8ff" d="M619.25,-103.35C624.62,-94.7 630.71,-84.89 635.1,-77.83"/>
<polygon fill="#63b8ff" stroke="#63b8ff" points="616.3,-101.46 614,-111.8 622.25,-105.15 616.3,-101.46"/>
</a>
</g>
</g>
</g>
</svg>
