<?xml version="1.0" encoding="UTF-8" standalone="no"?>
<!DOCTYPE svg PUBLIC "-//W3C//DTD SVG 1.1//EN"
 "http://www.w3.org/Graphics/SVG/1.1/DTD/svg11.dtd">
<!-- Generated by graphviz version 12.1.2 (20240928.0832)
 -->
<!-- Title: socket.c Pages: 1 -->
<svg width="519pt" height="256pt"
 viewBox="0.00 0.00 519.38 255.75" xmlns="http://www.w3.org/2000/svg" xmlns:xlink="http://www.w3.org/1999/xlink">
<g id="graph0" class="graph" transform="scale(1 1) rotate(0) translate(4 251.75)">
<title>socket.c</title>
<!-- Node1 -->
<g id="Node000001" class="node">
<title>Node1</title>
<g id="a_Node000001"><a xlink:title=" ">
<polygon fill="#999999" stroke="#666666" points="135.38,-247.75 79.62,-247.75 79.62,-227 135.38,-227 135.38,-247.75"/>
<text text-anchor="middle" x="107.5" y="-234.25" font-family="Helvetica,sans-Serif" font-size="10.00">socket.c</text>
</a>
</g>
</g>
<!-- Node2 -->
<g id="Node000002" class="node">
<title>Node2</title>
<g id="a_Node000002"><a xlink:href="socket_8h.html" target="_top" xlink:title=" ">
<polygon fill="white" stroke="#666666" points="156.75,-191 58.25,-191 58.25,-170.25 156.75,-170.25 156.75,-191"/>
<text text-anchor="middle" x="107.5" y="-177.5" font-family="Helvetica,sans-Serif" font-size="10.00">vlcb/net/socket.h</text>
</a>
</g>
</g>
<!-- Node1&#45;&gt;Node2 -->
<g id="edge1_Node000001_Node000002" class="edge">
<title>Node1&#45;&gt;Node2</title>
<g id="a_edge1_Node000001_Node000002"><a xlink:title=" ">
<path fill="none" stroke="#63b8ff" d="M107.5,-226.59C107.5,-219.97 107.5,-210.97 107.5,-202.77"/>
<polygon fill="#63b8ff" stroke="#63b8ff" points="111,-202.84 107.5,-192.84 104,-202.84 111,-202.84"/>
</a>
</g>
</g>
<!-- Node3 -->
<g id="Node000003" class="node">
<title>Node3</title>
<g id="a_Node000003"><a xlink:title=" ">
<polygon fill="#e0e0e0" stroke="#999999" points="61,-134.25 0,-134.25 0,-113.5 61,-113.5 61,-134.25"/>
<text text-anchor="middle" x="30.5" y="-120.75" font-family="Helvetica,sans-Serif" font-size="10.00">stdbool.h</text>
</a>
</g>
</g>
<!-- Node1&#45;&gt;Node3 -->
<g id="edge12_Node000001_Node000003" class="edge">
<title>Node1&#45;&gt;Node3</title>
<g id="a_edge12_Node000001_Node000003"><a xlink:title=" ">
<path fill="none" stroke="#63b8ff" d="M89.55,-226.52C76.62,-218.54 59.72,-206.16 49.5,-191 40.4,-177.5 35.6,-159.64 33.11,-145.88"/>
<polygon fill="#63b8ff" stroke="#63b8ff" points="36.59,-145.5 31.63,-136.14 29.67,-146.55 36.59,-145.5"/>
</a>
</g>
</g>
<!-- Node11 -->
<g id="Node000011" class="node">
<title>Node11</title>
<g id="a_Node000011"><a xlink:title=" ">
<polygon fill="#e0e0e0" stroke="#999999" points="230,-191 175,-191 175,-170.25 230,-170.25 230,-191"/>
<text text-anchor="middle" x="202.5" y="-177.5" font-family="Helvetica,sans-Serif" font-size="10.00">assert.h</text>
</a>
</g>
</g>
<!-- Node1&#45;&gt;Node11 -->
<g id="edge11_Node000001_Node000011" class="edge">
<title>Node1&#45;&gt;Node11</title>
<g id="a_edge11_Node000001_Node000011"><a xlink:title=" ">
<path fill="none" stroke="#63b8ff" d="M124.48,-226.59C138.8,-218.33 159.54,-206.38 176.04,-196.88"/>
<polygon fill="#63b8ff" stroke="#63b8ff" points="177.44,-200.11 184.35,-192.08 173.94,-194.05 177.44,-200.11"/>
</a>
</g>
</g>
<!-- Node2&#45;&gt;Node3 -->
<g id="edge2_Node000002_Node000003" class="edge">
<title>Node2&#45;&gt;Node3</title>
<g id="a_edge2_Node000002_Node000003"><a xlink:title=" ">
<path fill="none" stroke="#63b8ff" d="M93.73,-169.84C82.57,-161.9 66.58,-150.53 53.48,-141.21"/>
<polygon fill="#63b8ff" stroke="#63b8ff" points="55.56,-138.4 45.38,-135.46 51.5,-144.1 55.56,-138.4"/>
</a>
</g>
</g>
<!-- Node4 -->
<g id="Node000004" class="node">
<title>Node4</title>
<g id="a_Node000004"><a xlink:title=" ">
<polygon fill="#e0e0e0" stroke="#999999" points="132,-77.5 77,-77.5 77,-56.75 132,-56.75 132,-77.5"/>
<text text-anchor="middle" x="104.5" y="-64" font-family="Helvetica,sans-Serif" font-size="10.00">stddef.h</text>
</a>
</g>
</g>
<!-- Node2&#45;&gt;Node4 -->
<g id="edge3_Node000002_Node000004" class="edge">
<title>Node2&#45;&gt;Node4</title>
<g id="a_edge3_Node000002_Node000004"><a xlink:title=" ">
<path fill="none" stroke="#63b8ff" d="M107.24,-170.12C106.77,-152.35 105.73,-113.72 105.07,-89.43"/>
<polygon fill="#63b8ff" stroke="#63b8ff" points="108.57,-89.34 104.8,-79.44 101.57,-89.53 108.57,-89.34"/>
</a>
</g>
</g>
<!-- Node5 -->
<g id="Node000005" class="node">
<title>Node5</title>
<g id="a_Node000005"><a xlink:href="vlcb_8h.html" target="_top" xlink:title=" ">
<polygon fill="white" stroke="#666666" points="352.75,-134.25 272.25,-134.25 272.25,-113.5 352.75,-113.5 352.75,-134.25"/>
<text text-anchor="middle" x="312.5" y="-120.75" font-family="Helvetica,sans-Serif" font-size="10.00">packet/vlcb.h</text>
</a>
</g>
</g>
<!-- Node2&#45;&gt;Node5 -->
<g id="edge4_Node000002_Node000005" class="edge">
<title>Node2&#45;&gt;Node5</title>
<g id="a_edge4_Node000002_Node000005"><a xlink:title=" ">
<path fill="none" stroke="#63b8ff" d="M144.15,-169.84C177.86,-160.83 228.05,-147.43 264.86,-137.6"/>
<polygon fill="#63b8ff" stroke="#63b8ff" points="265.6,-141.02 274.36,-135.06 263.8,-134.26 265.6,-141.02"/>
</a>
</g>
</g>
<!-- Node10 -->
<g id="Node000010" class="node">
<title>Node10</title>
<g id="a_Node000010"><a xlink:href="interface_8h.html" target="_top" xlink:title=" ">
<polygon fill="white" stroke="#666666" points="253.88,-134.25 117.12,-134.25 117.12,-113.5 253.88,-113.5 253.88,-134.25"/>
<text text-anchor="middle" x="185.5" y="-120.75" font-family="Helvetica,sans-Serif" font-size="10.00">vlcb/platform/interface.h</text>
</a>
</g>
</g>
<!-- Node2&#45;&gt;Node10 -->
<g id="edge9_Node000002_Node000010" class="edge">
<title>Node2&#45;&gt;Node10</title>
<g id="a_edge9_Node000002_Node000010"><a xlink:title=" ">
<path fill="none" stroke="#63b8ff" d="M121.44,-169.84C132.87,-161.82 149.27,-150.31 162.61,-140.94"/>
<polygon fill="#63b8ff" stroke="#63b8ff" points="164.26,-144.06 170.44,-135.45 160.24,-138.33 164.26,-144.06"/>
</a>
</g>
</g>
<!-- Node6 -->
<g id="Node000006" class="node">
<title>Node6</title>
<g id="a_Node000006"><a xlink:title=" ">
<polygon fill="#e0e0e0" stroke="#999999" points="229.88,-77.5 165.12,-77.5 165.12,-56.75 229.88,-56.75 229.88,-77.5"/>
<text text-anchor="middle" x="197.5" y="-64" font-family="Helvetica,sans-Serif" font-size="10.00">inttypes.h</text>
</a>
</g>
</g>
<!-- Node5&#45;&gt;Node6 -->
<g id="edge5_Node000005_Node000006" class="edge">
<title>Node5&#45;&gt;Node6</title>
<g id="a_edge5_Node000005_Node000006"><a xlink:title=" ">
<path fill="none" stroke="#63b8ff" d="M291.94,-113.09C274.2,-104.64 248.32,-92.32 228.13,-82.71"/>
<polygon fill="#63b8ff" stroke="#63b8ff" points="229.78,-79.62 219.25,-78.48 226.77,-85.94 229.78,-79.62"/>
</a>
</g>
</g>
<!-- Node7 -->
<g id="Node000007" class="node">
<title>Node7</title>
<g id="a_Node000007"><a xlink:href="opcode_8h.html" target="_top" xlink:title=" ">
<polygon fill="white" stroke="#666666" points="377.12,-77.5 247.88,-77.5 247.88,-56.75 377.12,-56.75 377.12,-77.5"/>
<text text-anchor="middle" x="312.5" y="-64" font-family="Helvetica,sans-Serif" font-size="10.00">vlcb/common/opcode.h</text>
</a>
</g>
</g>
<!-- Node5&#45;&gt;Node7 -->
<g id="edge6_Node000005_Node000007" class="edge">
<title>Node5&#45;&gt;Node7</title>
<g id="a_edge6_Node000005_Node000007"><a xlink:title=" ">
<path fill="none" stroke="#63b8ff" d="M312.5,-113.09C312.5,-106.47 312.5,-97.47 312.5,-89.27"/>
<polygon fill="#63b8ff" stroke="#63b8ff" points="316,-89.34 312.5,-79.34 309,-89.34 316,-89.34"/>
</a>
</g>
</g>
<!-- Node9 -->
<g id="Node000009" class="node">
<title>Node9</title>
<g id="a_Node000009"><a xlink:href="error_8h.html" target="_top" xlink:title=" ">
<polygon fill="white" stroke="#666666" points="511.38,-77.5 395.62,-77.5 395.62,-56.75 511.38,-56.75 511.38,-77.5"/>
<text text-anchor="middle" x="453.5" y="-64" font-family="Helvetica,sans-Serif" font-size="10.00">vlcb/platform/error.h</text>
</a>
</g>
</g>
<!-- Node5&#45;&gt;Node9 -->
<g id="edge8_Node000005_Node000009" class="edge">
<title>Node5&#45;&gt;Node9</title>
<g id="a_edge8_Node000005_Node000009"><a xlink:title=" ">
<path fill="none" stroke="#63b8ff" d="M337.71,-113.09C360.06,-104.41 392.96,-91.63 417.98,-81.92"/>
<polygon fill="#63b8ff" stroke="#63b8ff" points="419.04,-85.26 427.1,-78.38 416.51,-78.73 419.04,-85.26"/>
</a>
</g>
</g>
<!-- Node8 -->
<g id="Node000008" class="node">
<title>Node8</title>
<g id="a_Node000008"><a xlink:title=" ">
<polygon fill="#e0e0e0" stroke="#999999" points="338.88,-20.75 286.12,-20.75 286.12,0 338.88,0 338.88,-20.75"/>
<text text-anchor="middle" x="312.5" y="-7.25" font-family="Helvetica,sans-Serif" font-size="10.00">stdint.h</text>
</a>
</g>
</g>
<!-- Node7&#45;&gt;Node8 -->
<g id="edge7_Node000007_Node000008" class="edge">
<title>Node7&#45;&gt;Node8</title>
<g id="a_edge7_Node000007_Node000008"><a xlink:title=" ">
<path fill="none" stroke="#63b8ff" d="M312.5,-56.34C312.5,-49.72 312.5,-40.72 312.5,-32.52"/>
<polygon fill="#63b8ff" stroke="#63b8ff" points="316,-32.59 312.5,-22.59 309,-32.59 316,-32.59"/>
</a>
</g>
</g>
<!-- Node10&#45;&gt;Node4 -->
<g id="edge10_Node000010_Node000004" class="edge">
<title>Node10&#45;&gt;Node4</title>
<g id="a_edge10_Node000010_Node000004"><a xlink:title=" ">
<path fill="none" stroke="#63b8ff" d="M171.02,-113.09C159.15,-105.07 142.13,-93.56 128.27,-84.19"/>
<polygon fill="#63b8ff" stroke="#63b8ff" points="130.35,-81.38 120.11,-78.68 126.43,-87.18 130.35,-81.38"/>
</a>
</g>
</g>
</g>
</svg>
