<?xml version="1.0" encoding="UTF-8" standalone="no"?>
<!DOCTYPE svg PUBLIC "-//W3C//DTD SVG 1.1//EN"
 "http://www.w3.org/Graphics/SVG/1.1/DTD/svg11.dtd">
<!-- Generated by graphviz version 12.1.2 (20240928.0832)
 -->
<!-- Title: param.h Pages: 1 -->
<svg width="633pt" height="199pt"
 viewBox="0.00 0.00 632.90 199.00" xmlns="http://www.w3.org/2000/svg" xmlns:xlink="http://www.w3.org/1999/xlink">
<g id="graph0" class="graph" transform="scale(1 1) rotate(0) translate(4 195)">
<title>param.h</title>
<!-- Node1 -->
<g id="Node000001" class="node">
<title>Node1</title>
<g id="a_Node000001"><a xlink:title=" ">
<polygon fill="#999999" stroke="#666666" points="65.9,-191 9.4,-191 9.4,-170.25 65.9,-170.25 65.9,-191"/>
<text text-anchor="middle" x="37.65" y="-177.5" font-family="Helvetica,sans-Serif" font-size="10.00">param.h</text>
</a>
</g>
</g>
<!-- Node2 -->
<g id="Node000002" class="node">
<title>Node2</title>
<g id="a_Node000002"><a xlink:title=" ">
<polygon fill="#e0e0e0" stroke="#999999" points="218.03,-20.75 165.28,-20.75 165.28,0 218.03,0 218.03,-20.75"/>
<text text-anchor="middle" x="191.65" y="-7.25" font-family="Helvetica,sans-Serif" font-size="10.00">stdint.h</text>
</a>
</g>
</g>
<!-- Node1&#45;&gt;Node2 -->
<g id="edge1_Node000001_Node000002" class="edge">
<title>Node1&#45;&gt;Node2</title>
<g id="a_edge1_Node000001_Node000002"><a xlink:title=" ">
<path fill="none" stroke="#63b8ff" d="M30.71,-169.84C15.69,-147.37 -16.36,-91.36 10.65,-56.75 28.05,-34.45 105.91,-21.46 153.67,-15.46"/>
<polygon fill="#63b8ff" stroke="#63b8ff" points="153.8,-18.97 163.31,-14.29 152.97,-12.02 153.8,-18.97"/>
</a>
</g>
</g>
<!-- Node3 -->
<g id="Node000003" class="node">
<title>Node3</title>
<g id="a_Node000003"><a xlink:href="inc_2vlcb_2module_2param_8h.html" target="_top" xlink:title=" ">
<polygon fill="white" stroke="#666666" points="251.4,-134.25 131.9,-134.25 131.9,-113.5 251.4,-113.5 251.4,-134.25"/>
<text text-anchor="middle" x="191.65" y="-120.75" font-family="Helvetica,sans-Serif" font-size="10.00">vlcb/module/param.h</text>
</a>
</g>
</g>
<!-- Node1&#45;&gt;Node3 -->
<g id="edge2_Node000001_Node000003" class="edge">
<title>Node1&#45;&gt;Node3</title>
<g id="a_edge2_Node000001_Node000003"><a xlink:title=" ">
<path fill="none" stroke="#63b8ff" d="M65.18,-169.84C89.74,-161.11 125.95,-148.23 153.33,-138.5"/>
<polygon fill="#63b8ff" stroke="#63b8ff" points="154.42,-141.83 162.67,-135.18 152.08,-135.23 154.42,-141.83"/>
</a>
</g>
</g>
<!-- Node3&#45;&gt;Node2 -->
<g id="edge3_Node000003_Node000002" class="edge">
<title>Node3&#45;&gt;Node2</title>
<g id="a_edge3_Node000003_Node000002"><a xlink:title=" ">
<path fill="none" stroke="#63b8ff" d="M131.54,-114.66C88.25,-107.37 35.19,-95.12 21.65,-77.5 -14.43,-30.53 92.95,-16.9 153.43,-12.96"/>
<polygon fill="#63b8ff" stroke="#63b8ff" points="153.55,-16.46 163.33,-12.38 153.14,-9.47 153.55,-16.46"/>
</a>
</g>
</g>
<!-- Node4 -->
<g id="Node000004" class="node">
<title>Node4</title>
<g id="a_Node000004"><a xlink:href="manufacturer_8h.html" target="_top" xlink:title=" ">
<polygon fill="white" stroke="#666666" points="190.28,-77.5 31.03,-77.5 31.03,-56.75 190.28,-56.75 190.28,-77.5"/>
<text text-anchor="middle" x="110.65" y="-64" font-family="Helvetica,sans-Serif" font-size="10.00">vlcb/common/manufacturer.h</text>
</a>
</g>
</g>
<!-- Node3&#45;&gt;Node4 -->
<g id="edge4_Node000003_Node000004" class="edge">
<title>Node3&#45;&gt;Node4</title>
<g id="a_edge4_Node000003_Node000004"><a xlink:title=" ">
<path fill="none" stroke="#63b8ff" d="M177.17,-113.09C165.31,-105.07 148.28,-93.56 134.42,-84.19"/>
<polygon fill="#63b8ff" stroke="#63b8ff" points="136.51,-81.38 126.26,-78.68 132.59,-87.18 136.51,-81.38"/>
</a>
</g>
</g>
<!-- Node5 -->
<g id="Node000005" class="node">
<title>Node5</title>
<g id="a_Node000005"><a xlink:href="common_2inc_2vlcb_2common_2module_8h.html" target="_top" xlink:title=" ">
<polygon fill="white" stroke="#666666" points="339.03,-77.5 208.28,-77.5 208.28,-56.75 339.03,-56.75 339.03,-77.5"/>
<text text-anchor="middle" x="273.65" y="-64" font-family="Helvetica,sans-Serif" font-size="10.00">vlcb/common/module.h</text>
</a>
</g>
</g>
<!-- Node3&#45;&gt;Node5 -->
<g id="edge6_Node000003_Node000005" class="edge">
<title>Node3&#45;&gt;Node5</title>
<g id="a_edge6_Node000003_Node000005"><a xlink:title=" ">
<path fill="none" stroke="#63b8ff" d="M206.31,-113.09C218.32,-105.07 235.56,-93.56 249.59,-84.19"/>
<polygon fill="#63b8ff" stroke="#63b8ff" points="251.49,-87.13 257.86,-78.67 247.6,-81.31 251.49,-87.13"/>
</a>
</g>
</g>
<!-- Node6 -->
<g id="Node000006" class="node">
<title>Node6</title>
<g id="a_Node000006"><a xlink:href="common_2inc_2vlcb_2common_2net_8h.html" target="_top" xlink:title=" ">
<polygon fill="white" stroke="#666666" points="466.53,-77.5 356.78,-77.5 356.78,-56.75 466.53,-56.75 466.53,-77.5"/>
<text text-anchor="middle" x="411.65" y="-64" font-family="Helvetica,sans-Serif" font-size="10.00">vlcb/common/net.h</text>
</a>
</g>
</g>
<!-- Node3&#45;&gt;Node6 -->
<g id="edge8_Node000003_Node000006" class="edge">
<title>Node3&#45;&gt;Node6</title>
<g id="a_edge8_Node000003_Node000006"><a xlink:title=" ">
<path fill="none" stroke="#63b8ff" d="M231.24,-113.02C267.57,-103.98 321.58,-90.54 361.04,-80.72"/>
<polygon fill="#63b8ff" stroke="#63b8ff" points="361.68,-84.17 370.54,-78.36 359.99,-77.37 361.68,-84.17"/>
</a>
</g>
</g>
<!-- Node7 -->
<g id="Node000007" class="node">
<title>Node7</title>
<g id="a_Node000007"><a xlink:href="processor_8h.html" target="_top" xlink:title=" ">
<polygon fill="white" stroke="#666666" points="624.9,-77.5 484.4,-77.5 484.4,-56.75 624.9,-56.75 624.9,-77.5"/>
<text text-anchor="middle" x="554.65" y="-64" font-family="Helvetica,sans-Serif" font-size="10.00">vlcb/common/processor.h</text>
</a>
</g>
</g>
<!-- Node3&#45;&gt;Node7 -->
<g id="edge10_Node000003_Node000007" class="edge">
<title>Node3&#45;&gt;Node7</title>
<g id="a_edge10_Node000003_Node000007"><a xlink:title=" ">
<path fill="none" stroke="#63b8ff" d="M251.59,-113.83C313.68,-104.47 410.9,-89.81 478.41,-79.62"/>
<polygon fill="#63b8ff" stroke="#63b8ff" points="478.54,-83.14 487.91,-78.19 477.5,-76.22 478.54,-83.14"/>
</a>
</g>
</g>
<!-- Node4&#45;&gt;Node2 -->
<g id="edge5_Node000004_Node000002" class="edge">
<title>Node4&#45;&gt;Node2</title>
<g id="a_edge5_Node000004_Node000002"><a xlink:title=" ">
<path fill="none" stroke="#63b8ff" d="M125.13,-56.34C137,-48.32 154.03,-36.81 167.88,-27.44"/>
<polygon fill="#63b8ff" stroke="#63b8ff" points="169.72,-30.43 176.04,-21.93 165.8,-24.63 169.72,-30.43"/>
</a>
</g>
</g>
<!-- Node5&#45;&gt;Node2 -->
<g id="edge7_Node000005_Node000002" class="edge">
<title>Node5&#45;&gt;Node2</title>
<g id="a_edge7_Node000005_Node000002"><a xlink:title=" ">
<path fill="none" stroke="#63b8ff" d="M258.99,-56.34C246.98,-48.32 229.74,-36.81 215.71,-27.44"/>
<polygon fill="#63b8ff" stroke="#63b8ff" points="217.7,-24.56 207.44,-21.92 213.82,-30.38 217.7,-24.56"/>
</a>
</g>
</g>
<!-- Node6&#45;&gt;Node2 -->
<g id="edge9_Node000006_Node000002" class="edge">
<title>Node6&#45;&gt;Node2</title>
<g id="a_edge9_Node000006_Node000002"><a xlink:title=" ">
<path fill="none" stroke="#63b8ff" d="M372.06,-56.27C331.64,-46.21 269.34,-30.71 229.54,-20.8"/>
<polygon fill="#63b8ff" stroke="#63b8ff" points="230.47,-17.43 219.92,-18.41 228.78,-24.22 230.47,-17.43"/>
</a>
</g>
</g>
<!-- Node7&#45;&gt;Node2 -->
<g id="edge11_Node000007_Node000002" class="edge">
<title>Node7&#45;&gt;Node2</title>
<g id="a_edge11_Node000007_Node000002"><a xlink:title=" ">
<path fill="none" stroke="#63b8ff" d="M489.33,-56.27C413.4,-44.82 290.65,-26.31 229.21,-17.04"/>
<polygon fill="#63b8ff" stroke="#63b8ff" points="230.03,-13.62 219.62,-15.59 228.98,-20.55 230.03,-13.62"/>
</a>
</g>
</g>
</g>
</svg>
