<?xml version="1.0" encoding="UTF-8" standalone="no"?>
<!DOCTYPE svg PUBLIC "-//W3C//DTD SVG 1.1//EN"
 "http://www.w3.org/Graphics/SVG/1.1/DTD/svg11.dtd">
<!-- Generated by graphviz version 12.1.2 (20240928.0832)
 -->
<!-- Title: ModuleParamGetByte Pages: 1 -->
<svg width="620pt" height="68pt"
 viewBox="0.00 0.00 620.25 67.75" xmlns="http://www.w3.org/2000/svg" xmlns:xlink="http://www.w3.org/1999/xlink">
<g id="graph0" class="graph" transform="scale(1 1) rotate(0) translate(4 63.75)">
<title>ModuleParamGetByte</title>
<!-- Node1 -->
<g id="Node000001" class="node">
<title>Node1</title>
<g id="a_Node000001"><a xlink:title=" ">
<polygon fill="#999999" stroke="#666666" points="612.25,-39.75 489.75,-39.75 489.75,-19 612.25,-19 612.25,-39.75"/>
<text text-anchor="middle" x="551" y="-26.25" font-family="Helvetica,sans-Serif" font-size="10.00">ModuleParamGetByte</text>
</a>
</g>
</g>
<!-- Node2 -->
<g id="Node000002" class="node">
<title>Node2</title>
<g id="a_Node000002"><a xlink:href="module_8c.html#ad27d42d9eb11253063b80a2d3f12a792" target="_top" xlink:title=" ">
<polygon fill="white" stroke="#666666" points="445.88,-59.75 300.88,-59.75 300.88,-39 445.88,-39 445.88,-59.75"/>
<text text-anchor="middle" x="373.38" y="-46.25" font-family="Helvetica,sans-Serif" font-size="10.00">HandleQueryModuleName</text>
</a>
</g>
</g>
<!-- Node1&#45;&gt;Node2 -->
<g id="edge1_Node000001_Node000002" class="edge">
<title>Node1&#45;&gt;Node2</title>
<g id="a_edge1_Node000001_Node000002"><a xlink:title=" ">
<path fill="none" stroke="#63b8ff" d="M478.22,-37.55C467.63,-38.75 456.72,-40 446.13,-41.2"/>
<polygon fill="#63b8ff" stroke="#63b8ff" points="478.52,-41.04 488.06,-36.43 477.72,-34.08 478.52,-41.04"/>
</a>
</g>
</g>
<!-- Node5 -->
<g id="Node000005" class="node">
<title>Node5</title>
<g id="a_Node000005"><a xlink:href="module_8c.html#a01dc6700d3926d16f6ebfb5e3611e6c2" target="_top" xlink:title=" ">
<polygon fill="white" stroke="#666666" points="453.75,-20.75 293,-20.75 293,0 453.75,0 453.75,-20.75"/>
<text text-anchor="middle" x="373.38" y="-7.25" font-family="Helvetica,sans-Serif" font-size="10.00">HandleQueryNodeParameters</text>
</a>
</g>
</g>
<!-- Node1&#45;&gt;Node5 -->
<g id="edge4_Node000001_Node000005" class="edge">
<title>Node1&#45;&gt;Node5</title>
<g id="a_edge4_Node000001_Node000005"><a xlink:title=" ">
<path fill="none" stroke="#63b8ff" d="M478.14,-21.6C470.23,-20.75 462.15,-19.87 454.16,-19.01"/>
<polygon fill="#63b8ff" stroke="#63b8ff" points="477.74,-25.08 488.06,-22.67 478.49,-18.12 477.74,-25.08"/>
</a>
</g>
</g>
<!-- Node3 -->
<g id="Node000003" class="node">
<title>Node3</title>
<g id="a_Node000003"><a xlink:href="module_8c.html#a32ed02b26ffaed7947004cd1309f5847" target="_top" xlink:title=" ">
<polygon fill="white" stroke="#666666" points="257,-39.75 137.5,-39.75 137.5,-19 257,-19 257,-39.75"/>
<text text-anchor="middle" x="197.25" y="-26.25" font-family="Helvetica,sans-Serif" font-size="10.00">HandleMnsMessages</text>
</a>
</g>
</g>
<!-- Node2&#45;&gt;Node3 -->
<g id="edge2_Node000002_Node000003" class="edge">
<title>Node2&#45;&gt;Node3</title>
<g id="a_edge2_Node000002_Node000003"><a xlink:title=" ">
<path fill="none" stroke="#63b8ff" d="M289.37,-39.84C278.6,-38.6 267.74,-37.36 257.46,-36.18"/>
<polygon fill="#63b8ff" stroke="#63b8ff" points="288.71,-43.29 299.04,-40.95 289.51,-36.33 288.71,-43.29"/>
</a>
</g>
</g>
<!-- Node4 -->
<g id="Node000004" class="node">
<title>Node4</title>
<g id="a_Node000004"><a xlink:href="module_8c.html#a8e05ae271d378570de2cb6bbf3ca6b2d" target="_top" xlink:title=" ">
<polygon fill="white" stroke="#666666" points="101.5,-39.75 0,-39.75 0,-19 101.5,-19 101.5,-39.75"/>
<text text-anchor="middle" x="50.75" y="-26.25" font-family="Helvetica,sans-Serif" font-size="10.00">vlcb_module_Poll</text>
</a>
</g>
</g>
<!-- Node3&#45;&gt;Node4 -->
<g id="edge3_Node000003_Node000004" class="edge">
<title>Node3&#45;&gt;Node4</title>
<g id="a_edge3_Node000003_Node000004"><a xlink:title=" ">
<path fill="none" stroke="#63b8ff" d="M125.72,-29.38C117.66,-29.38 109.57,-29.38 101.85,-29.38"/>
<polygon fill="#63b8ff" stroke="#63b8ff" points="125.55,-32.88 135.55,-29.38 125.55,-25.88 125.55,-32.88"/>
</a>
</g>
</g>
<!-- Node5&#45;&gt;Node3 -->
<g id="edge5_Node000005_Node000003" class="edge">
<title>Node5&#45;&gt;Node3</title>
<g id="a_edge5_Node000005_Node000003"><a xlink:title=" ">
<path fill="none" stroke="#63b8ff" d="M281.51,-20.29C273.3,-21.19 265.14,-22.08 257.31,-22.93"/>
<polygon fill="#63b8ff" stroke="#63b8ff" points="281.64,-23.8 291.2,-19.23 280.88,-16.84 281.64,-23.8"/>
</a>
</g>
</g>
</g>
</svg>
