<?xml version="1.0" encoding="UTF-8" standalone="no"?>
<!DOCTYPE svg PUBLIC "-//W3C//DTD SVG 1.1//EN"
 "http://www.w3.org/Graphics/SVG/1.1/DTD/svg11.dtd">
<!-- Generated by graphviz version 12.1.2 (20240928.0832)
 -->
<!-- Title: param.h Pages: 1 -->
<svg width="142pt" height="86pt"
 viewBox="0.00 0.00 142.38 85.50" xmlns="http://www.w3.org/2000/svg" xmlns:xlink="http://www.w3.org/1999/xlink">
<g id="graph0" class="graph" transform="scale(1 1) rotate(0) translate(4 81.5)">
<title>param.h</title>
<!-- Node1 -->
<g id="Node000001" class="node">
<title>Node1</title>
<g id="a_Node000001"><a xlink:title=" ">
<polygon fill="#999999" stroke="#666666" points="96.75,-77.5 40.25,-77.5 40.25,-56.75 96.75,-56.75 96.75,-77.5"/>
<text text-anchor="middle" x="68.5" y="-64" font-family="Helvetica,sans-Serif" font-size="10.00">param.h</text>
</a>
</g>
</g>
<!-- Node2 -->
<g id="Node000002" class="node">
<title>Node2</title>
<g id="a_Node000002"><a xlink:href="module_8c.html" target="_top" xlink:title=" ">
<polygon fill="white" stroke="#666666" points="61,-20.75 0,-20.75 0,0 61,0 61,-20.75"/>
<text text-anchor="middle" x="30.5" y="-7.25" font-family="Helvetica,sans-Serif" font-size="10.00">module.c</text>
</a>
</g>
</g>
<!-- Node1&#45;&gt;Node2 -->
<g id="edge1_Node000001_Node000002" class="edge">
<title>Node1&#45;&gt;Node2</title>
<g id="a_edge1_Node000001_Node000002"><a xlink:title=" ">
<path fill="none" stroke="#63b8ff" d="M55.15,-46.89C49.09,-38.16 42.19,-28.22 37.23,-21.08"/>
<polygon fill="#63b8ff" stroke="#63b8ff" points="52.27,-48.87 60.84,-55.09 58.02,-44.88 52.27,-48.87"/>
</a>
</g>
</g>
<!-- Node3 -->
<g id="Node000003" class="node">
<title>Node3</title>
<g id="a_Node000003"><a xlink:href="param_8c.html" target="_top" xlink:title=" ">
<polygon fill="white" stroke="#666666" points="134.38,-20.75 78.62,-20.75 78.62,0 134.38,0 134.38,-20.75"/>
<text text-anchor="middle" x="106.5" y="-7.25" font-family="Helvetica,sans-Serif" font-size="10.00">param.c</text>
</a>
</g>
</g>
<!-- Node1&#45;&gt;Node3 -->
<g id="edge2_Node000001_Node000003" class="edge">
<title>Node1&#45;&gt;Node3</title>
<g id="a_edge2_Node000001_Node000003"><a xlink:title=" ">
<path fill="none" stroke="#63b8ff" d="M81.85,-46.89C87.91,-38.16 94.81,-28.22 99.77,-21.08"/>
<polygon fill="#63b8ff" stroke="#63b8ff" points="78.98,-44.88 76.16,-55.09 84.73,-48.87 78.98,-44.88"/>
</a>
</g>
</g>
</g>
</svg>
