<?xml version="1.0" encoding="UTF-8" standalone="no"?>
<!DOCTYPE svg PUBLIC "-//W3C//DTD SVG 1.1//EN"
 "http://www.w3.org/Graphics/SVG/1.1/DTD/svg11.dtd">
<!-- Generated by graphviz version 12.1.2 (20240928.0832)
 -->
<!-- Title: param.h Pages: 1 -->
<svg width="351pt" height="199pt"
 viewBox="0.00 0.00 351.16 199.00" xmlns="http://www.w3.org/2000/svg" xmlns:xlink="http://www.w3.org/1999/xlink">
<g id="graph0" class="graph" transform="scale(1 1) rotate(0) translate(4 195)">
<title>param.h</title>
<!-- Node1 -->
<g id="Node000001" class="node">
<title>Node1</title>
<g id="a_Node000001"><a xlink:title=" ">
<polygon fill="#999999" stroke="#666666" points="115.03,-191 58.53,-191 58.53,-170.25 115.03,-170.25 115.03,-191"/>
<text text-anchor="middle" x="86.78" y="-177.5" font-family="Helvetica,sans-Serif" font-size="10.00">param.h</text>
</a>
</g>
</g>
<!-- Node2 -->
<g id="Node000002" class="node">
<title>Node2</title>
<g id="a_Node000002"><a xlink:title=" ">
<polygon fill="#e0e0e0" stroke="#999999" points="162.16,-20.75 109.41,-20.75 109.41,0 162.16,0 162.16,-20.75"/>
<text text-anchor="middle" x="135.78" y="-7.25" font-family="Helvetica,sans-Serif" font-size="10.00">stdint.h</text>
</a>
</g>
</g>
<!-- Node1&#45;&gt;Node2 -->
<g id="edge1_Node000001_Node000002" class="edge">
<title>Node1&#45;&gt;Node2</title>
<g id="a_edge1_Node000001_Node000002"><a xlink:title=" ">
<path fill="none" stroke="#63b8ff" d="M71.99,-169.88C41.91,-148.84 -21.19,-97.76 7.78,-56.75 27.96,-28.19 67.72,-17.49 97.6,-13.55"/>
<polygon fill="#63b8ff" stroke="#63b8ff" points="97.84,-17.04 107.4,-12.47 97.08,-10.08 97.84,-17.04"/>
</a>
</g>
</g>
<!-- Node3 -->
<g id="Node000003" class="node">
<title>Node3</title>
<g id="a_Node000003"><a xlink:href="vlcb__defs_8h.html" target="_top" xlink:title=" ">
<polygon fill="white" stroke="#666666" points="157.03,-77.5 16.53,-77.5 16.53,-56.75 157.03,-56.75 157.03,-77.5"/>
<text text-anchor="middle" x="86.78" y="-64" font-family="Helvetica,sans-Serif" font-size="10.00">vlcb/common/vlcb_defs.h</text>
</a>
</g>
</g>
<!-- Node1&#45;&gt;Node3 -->
<g id="edge2_Node000001_Node000003" class="edge">
<title>Node1&#45;&gt;Node3</title>
<g id="a_edge2_Node000001_Node000003"><a xlink:title=" ">
<path fill="none" stroke="#63b8ff" d="M86.78,-170.12C86.78,-152.35 86.78,-113.72 86.78,-89.43"/>
<polygon fill="#63b8ff" stroke="#63b8ff" points="90.28,-89.44 86.78,-79.44 83.28,-89.44 90.28,-89.44"/>
</a>
</g>
</g>
<!-- Node4 -->
<g id="Node000004" class="node">
<title>Node4</title>
<g id="a_Node000004"><a xlink:href="inc_2vlcb_2module_2param_8h.html" target="_top" xlink:title=" ">
<polygon fill="white" stroke="#666666" points="239.53,-134.25 120.03,-134.25 120.03,-113.5 239.53,-113.5 239.53,-134.25"/>
<text text-anchor="middle" x="179.78" y="-120.75" font-family="Helvetica,sans-Serif" font-size="10.00">vlcb/module/param.h</text>
</a>
</g>
</g>
<!-- Node1&#45;&gt;Node4 -->
<g id="edge4_Node000001_Node000004" class="edge">
<title>Node1&#45;&gt;Node4</title>
<g id="a_edge4_Node000001_Node000004"><a xlink:title=" ">
<path fill="none" stroke="#63b8ff" d="M103.41,-169.84C117.29,-161.66 137.34,-149.86 153.42,-140.4"/>
<polygon fill="#63b8ff" stroke="#63b8ff" points="155.15,-143.44 162,-135.35 151.6,-137.4 155.15,-143.44"/>
</a>
</g>
</g>
<!-- Node3&#45;&gt;Node2 -->
<g id="edge3_Node000003_Node000002" class="edge">
<title>Node3&#45;&gt;Node2</title>
<g id="a_edge3_Node000003_Node000002"><a xlink:title=" ">
<path fill="none" stroke="#63b8ff" d="M95.54,-56.34C102.23,-48.86 111.64,-38.36 119.67,-29.38"/>
<polygon fill="#63b8ff" stroke="#63b8ff" points="122.03,-31.99 126.09,-22.21 116.81,-27.32 122.03,-31.99"/>
</a>
</g>
</g>
<!-- Node4&#45;&gt;Node2 -->
<g id="edge5_Node000004_Node000002" class="edge">
<title>Node4&#45;&gt;Node2</title>
<g id="a_edge5_Node000004_Node000002"><a xlink:title=" ">
<path fill="none" stroke="#63b8ff" d="M178.87,-113.12C177.38,-99.91 173.76,-75.8 165.78,-56.75 161.93,-47.54 156.14,-38.2 150.68,-30.41"/>
<polygon fill="#63b8ff" stroke="#63b8ff" points="153.53,-28.38 144.77,-22.42 147.9,-32.54 153.53,-28.38"/>
</a>
</g>
</g>
<!-- Node4&#45;&gt;Node3 -->
<g id="edge8_Node000004_Node000003" class="edge">
<title>Node4&#45;&gt;Node3</title>
<g id="a_edge8_Node000004_Node000003"><a xlink:title=" ">
<path fill="none" stroke="#63b8ff" d="M163.16,-113.09C149.27,-104.91 129.22,-93.11 113.15,-83.65"/>
<polygon fill="#63b8ff" stroke="#63b8ff" points="114.96,-80.65 104.57,-78.6 111.41,-86.69 114.96,-80.65"/>
</a>
</g>
</g>
<!-- Node5 -->
<g id="Node000005" class="node">
<title>Node5</title>
<g id="a_Node000005"><a xlink:href="common_2inc_2vlcb_2common_2module_8h.html" target="_top" xlink:title=" ">
<polygon fill="white" stroke="#666666" points="343.16,-77.5 212.41,-77.5 212.41,-56.75 343.16,-56.75 343.16,-77.5"/>
<text text-anchor="middle" x="277.78" y="-64" font-family="Helvetica,sans-Serif" font-size="10.00">vlcb/common/module.h</text>
</a>
</g>
</g>
<!-- Node4&#45;&gt;Node5 -->
<g id="edge6_Node000004_Node000005" class="edge">
<title>Node4&#45;&gt;Node5</title>
<g id="a_edge6_Node000004_Node000005"><a xlink:title=" ">
<path fill="none" stroke="#63b8ff" d="M197.3,-113.09C212.07,-104.83 233.47,-92.88 250.48,-83.38"/>
<polygon fill="#63b8ff" stroke="#63b8ff" points="252.07,-86.5 259.09,-78.57 248.66,-80.39 252.07,-86.5"/>
</a>
</g>
</g>
<!-- Node5&#45;&gt;Node2 -->
<g id="edge7_Node000005_Node000002" class="edge">
<title>Node5&#45;&gt;Node2</title>
<g id="a_edge7_Node000005_Node000002"><a xlink:title=" ">
<path fill="none" stroke="#63b8ff" d="M252.4,-56.34C229.88,-47.66 196.75,-34.88 171.55,-25.17"/>
<polygon fill="#63b8ff" stroke="#63b8ff" points="172.95,-21.95 162.36,-21.62 170.43,-28.49 172.95,-21.95"/>
</a>
</g>
</g>
</g>
</svg>
