<?xml version="1.0" encoding="UTF-8" standalone="no"?>
<!DOCTYPE svg PUBLIC "-//W3C//DTD SVG 1.1//EN"
 "http://www.w3.org/Graphics/SVG/1.1/DTD/svg11.dtd">
<!-- Generated by graphviz version 12.1.2 (20240928.0832)
 -->
<!-- Title: HandleTransitionToSetup Pages: 1 -->
<svg width="697pt" height="68pt"
 viewBox="0.00 0.00 697.00 67.75" xmlns="http://www.w3.org/2000/svg" xmlns:xlink="http://www.w3.org/1999/xlink">
<g id="graph0" class="graph" transform="scale(1 1) rotate(0) translate(4 63.75)">
<title>HandleTransitionToSetup</title>
<!-- Node1 -->
<g id="Node000001" class="node">
<title>Node1</title>
<g id="a_Node000001"><a xlink:title=" ">
<polygon fill="#999999" stroke="#666666" points="689,-39.75 553,-39.75 553,-19 689,-19 689,-39.75"/>
<text text-anchor="middle" x="621" y="-26.25" font-family="Helvetica,sans-Serif" font-size="10.00">HandleTransitionToSetup</text>
</a>
</g>
</g>
<!-- Node2 -->
<g id="Node000002" class="node">
<title>Node2</title>
<g id="a_Node000002"><a xlink:href="state__machine_8c.html#a3d333fba19ed5ffbaabc4663ef9e2abc" target="_top" xlink:title=" ">
<polygon fill="white" stroke="#666666" points="517,-39.75 428.25,-39.75 428.25,-19 517,-19 517,-39.75"/>
<text text-anchor="middle" x="472.62" y="-26.25" font-family="Helvetica,sans-Serif" font-size="10.00">state_Dispatch</text>
</a>
</g>
</g>
<!-- Node1&#45;&gt;Node2 -->
<g id="edge1_Node000001_Node000002" class="edge">
<title>Node1&#45;&gt;Node2</title>
<g id="a_edge1_Node000001_Node000002"><a xlink:title=" ">
<path fill="none" stroke="#63b8ff" d="M541.51,-29.38C533.24,-29.38 525.06,-29.38 517.39,-29.38"/>
<polygon fill="#63b8ff" stroke="#63b8ff" points="541.3,-32.88 551.3,-29.38 541.3,-25.88 541.3,-32.88"/>
</a>
</g>
</g>
<!-- Node3 -->
<g id="Node000003" class="node">
<title>Node3</title>
<g id="a_Node000003"><a xlink:href="module_8c.html#abbdf441a7d8267aadf96102dc719cd2a" target="_top" xlink:title=" ">
<polygon fill="white" stroke="#666666" points="377.62,-59.75 307.62,-59.75 307.62,-39 377.62,-39 377.62,-59.75"/>
<text text-anchor="middle" x="342.62" y="-46.25" font-family="Helvetica,sans-Serif" font-size="10.00">AbortSetup</text>
</a>
</g>
</g>
<!-- Node2&#45;&gt;Node3 -->
<g id="edge2_Node000002_Node000003" class="edge">
<title>Node2&#45;&gt;Node3</title>
<g id="a_edge2_Node000002_Node000003"><a xlink:title=" ">
<path fill="none" stroke="#63b8ff" d="M416.56,-37.98C403.4,-40.03 389.73,-42.17 377.83,-44.03"/>
<polygon fill="#63b8ff" stroke="#63b8ff" points="417.1,-41.44 426.44,-36.44 416.02,-34.52 417.1,-41.44"/>
</a>
</g>
</g>
<!-- Node6 -->
<g id="Node000006" class="node">
<title>Node6</title>
<g id="a_Node000006"><a xlink:href="module_8c.html#a15ce5db19c8e79ec52bd78fc76940c33" target="_top" xlink:title=" ">
<polygon fill="white" stroke="#666666" points="392.25,-20.75 293,-20.75 293,0 392.25,0 392.25,-20.75"/>
<text text-anchor="middle" x="342.62" y="-7.25" font-family="Helvetica,sans-Serif" font-size="10.00">vlcb_module_Init</text>
</a>
</g>
</g>
<!-- Node2&#45;&gt;Node6 -->
<g id="edge5_Node000002_Node000006" class="edge">
<title>Node2&#45;&gt;Node6</title>
<g id="a_edge5_Node000002_Node000006"><a xlink:title=" ">
<path fill="none" stroke="#63b8ff" d="M416.69,-21.22C408.61,-20.02 400.34,-18.79 392.39,-17.61"/>
<polygon fill="#63b8ff" stroke="#63b8ff" points="416.03,-24.66 426.44,-22.67 417.06,-17.74 416.03,-24.66"/>
</a>
</g>
</g>
<!-- Node4 -->
<g id="Node000004" class="node">
<title>Node4</title>
<g id="a_Node000004"><a xlink:href="module_8c.html#a32ed02b26ffaed7947004cd1309f5847" target="_top" xlink:title=" ">
<polygon fill="white" stroke="#666666" points="257,-59.75 137.5,-59.75 137.5,-39 257,-39 257,-59.75"/>
<text text-anchor="middle" x="197.25" y="-46.25" font-family="Helvetica,sans-Serif" font-size="10.00">HandleMnsMessages</text>
</a>
</g>
</g>
<!-- Node3&#45;&gt;Node4 -->
<g id="edge3_Node000003_Node000004" class="edge">
<title>Node3&#45;&gt;Node4</title>
<g id="a_edge3_Node000003_Node000004"><a xlink:title=" ">
<path fill="none" stroke="#63b8ff" d="M295.91,-49.38C283.62,-49.38 270.14,-49.38 257.24,-49.38"/>
<polygon fill="#63b8ff" stroke="#63b8ff" points="295.77,-52.88 305.77,-49.38 295.77,-45.88 295.77,-52.88"/>
</a>
</g>
</g>
<!-- Node5 -->
<g id="Node000005" class="node">
<title>Node5</title>
<g id="a_Node000005"><a xlink:href="module_8c.html#a8e05ae271d378570de2cb6bbf3ca6b2d" target="_top" xlink:title=" ">
<polygon fill="white" stroke="#666666" points="101.5,-59.75 0,-59.75 0,-39 101.5,-39 101.5,-59.75"/>
<text text-anchor="middle" x="50.75" y="-46.25" font-family="Helvetica,sans-Serif" font-size="10.00">vlcb_module_Poll</text>
</a>
</g>
</g>
<!-- Node4&#45;&gt;Node5 -->
<g id="edge4_Node000004_Node000005" class="edge">
<title>Node4&#45;&gt;Node5</title>
<g id="a_edge4_Node000004_Node000005"><a xlink:title=" ">
<path fill="none" stroke="#63b8ff" d="M125.72,-49.38C117.66,-49.38 109.57,-49.38 101.85,-49.38"/>
<polygon fill="#63b8ff" stroke="#63b8ff" points="125.55,-52.88 135.55,-49.38 125.55,-45.88 125.55,-52.88"/>
</a>
</g>
</g>
</g>
</svg>
