<?xml version="1.0" encoding="UTF-8" standalone="no"?>
<!DOCTYPE svg PUBLIC "-//W3C//DTD SVG 1.1//EN"
 "http://www.w3.org/Graphics/SVG/1.1/DTD/svg11.dtd">
<!-- Generated by graphviz version 12.1.2 (20240928.0832)
 -->
<!-- Title: HandleTransitionToSetup Pages: 1 -->
<svg width="506pt" height="29pt"
 viewBox="0.00 0.00 506.00 28.75" xmlns="http://www.w3.org/2000/svg" xmlns:xlink="http://www.w3.org/1999/xlink">
<g id="graph0" class="graph" transform="scale(1 1) rotate(0) translate(4 24.75)">
<title>HandleTransitionToSetup</title>
<!-- Node1 -->
<g id="Node000001" class="node">
<title>Node1</title>
<g id="a_Node000001"><a xlink:title=" ">
<polygon fill="#999999" stroke="#666666" points="136,-20.75 0,-20.75 0,0 136,0 136,-20.75"/>
<text text-anchor="middle" x="68" y="-7.25" font-family="Helvetica,sans-Serif" font-size="10.00">HandleTransitionToSetup</text>
</a>
</g>
</g>
<!-- Node2 -->
<g id="Node000002" class="node">
<title>Node2</title>
<g id="a_Node000002"><a xlink:href="socket_2datagram_8c.html#a7da610c48db02cd38212ef1545d00f00" target="_top" xlink:title=" ">
<polygon fill="white" stroke="#666666" points="323,-20.75 172,-20.75 172,0 323,0 323,-20.75"/>
<text text-anchor="middle" x="247.5" y="-7.25" font-family="Helvetica,sans-Serif" font-size="10.00">vlcb_net_sock_dgram_Send</text>
</a>
</g>
</g>
<!-- Node1&#45;&gt;Node2 -->
<g id="edge1_Node000001_Node000002" class="edge">
<title>Node1&#45;&gt;Node2</title>
<g id="a_edge1_Node000001_Node000002"><a xlink:title=" ">
<path fill="none" stroke="#63b8ff" d="M136.36,-10.38C144.22,-10.38 152.33,-10.38 160.4,-10.38"/>
<polygon fill="#63b8ff" stroke="#63b8ff" points="160.26,-13.88 170.26,-10.38 160.26,-6.88 160.26,-13.88"/>
</a>
</g>
</g>
<!-- Node3 -->
<g id="Node000003" class="node">
<title>Node3</title>
<g id="a_Node000003"><a xlink:href="packet__buf_8c.html#afa80d4fb078473100610ba106bd5cb46" target="_top" xlink:title=" ">
<polygon fill="white" stroke="#666666" points="498,-20.75 359,-20.75 359,0 498,0 498,-20.75"/>
<text text-anchor="middle" x="428.5" y="-7.25" font-family="Helvetica,sans-Serif" font-size="10.00">vlcb_net_packetbuf_Push</text>
</a>
</g>
</g>
<!-- Node2&#45;&gt;Node3 -->
<g id="edge2_Node000002_Node000003" class="edge">
<title>Node2&#45;&gt;Node3</title>
<g id="a_edge2_Node000002_Node000003"><a xlink:title=" ">
<path fill="none" stroke="#63b8ff" d="M323.37,-10.38C331.23,-10.38 339.23,-10.38 347.15,-10.38"/>
<polygon fill="#63b8ff" stroke="#63b8ff" points="347.12,-13.88 357.12,-10.38 347.12,-6.88 347.12,-13.88"/>
</a>
</g>
</g>
</g>
</svg>
