<?xml version="1.0" encoding="UTF-8" standalone="no"?>
<!DOCTYPE svg PUBLIC "-//W3C//DTD SVG 1.1//EN"
 "http://www.w3.org/Graphics/SVG/1.1/DTD/svg11.dtd">
<!-- Generated by graphviz version 12.1.2 (20240928.0832)
 -->
<!-- Title: state_machine.h Pages: 1 -->
<svg width="1889pt" height="426pt"
 viewBox="0.00 0.00 1889.00 426.00" xmlns="http://www.w3.org/2000/svg" xmlns:xlink="http://www.w3.org/1999/xlink">
<g id="graph0" class="graph" transform="scale(1 1) rotate(0) translate(4 422)">
<title>state_machine.h</title>
<!-- Node1 -->
<g id="Node000001" class="node">
<title>Node1</title>
<g id="a_Node000001"><a xlink:title=" ">
<polygon fill="#999999" stroke="#666666" points="1678.75,-418 1581.75,-418 1581.75,-397.25 1678.75,-397.25 1678.75,-418"/>
<text text-anchor="middle" x="1630.25" y="-404.5" font-family="Helvetica,sans-Serif" font-size="10.00">state_machine.h</text>
</a>
</g>
</g>
<!-- Node2 -->
<g id="Node000002" class="node">
<title>Node2</title>
<g id="a_Node000002"><a xlink:href="node_8h.html" target="_top" xlink:title=" ">
<polygon fill="white" stroke="#666666" points="1759.25,-191 1641.25,-191 1641.25,-170.25 1759.25,-170.25 1759.25,-191"/>
<text text-anchor="middle" x="1700.25" y="-177.5" font-family="Helvetica,sans-Serif" font-size="10.00">vlcb/common/node.h</text>
</a>
</g>
</g>
<!-- Node1&#45;&gt;Node2 -->
<g id="edge1_Node000001_Node000002" class="edge">
<title>Node1&#45;&gt;Node2</title>
<g id="a_edge1_Node000001_Node000002"><a xlink:title=" ">
<path fill="none" stroke="#63b8ff" d="M1628.96,-396.98C1625.65,-368.92 1619.16,-285.58 1649.25,-227 1655.16,-215.5 1665.3,-205.56 1674.99,-197.93"/>
<polygon fill="#63b8ff" stroke="#63b8ff" points="1676.75,-200.98 1682.76,-192.26 1672.62,-195.33 1676.75,-200.98"/>
</a>
</g>
</g>
<!-- Node4 -->
<g id="Node000004" class="node">
<title>Node4</title>
<g id="a_Node000004"><a xlink:href="module_2inc_2vlcb_2module_8h.html" target="_top" xlink:title=" ">
<polygon fill="white" stroke="#666666" points="1209.75,-361.25 1124.75,-361.25 1124.75,-340.5 1209.75,-340.5 1209.75,-361.25"/>
<text text-anchor="middle" x="1167.25" y="-347.75" font-family="Helvetica,sans-Serif" font-size="10.00">vlcb/module.h</text>
</a>
</g>
</g>
<!-- Node1&#45;&gt;Node4 -->
<g id="edge3_Node000001_Node000004" class="edge">
<title>Node1&#45;&gt;Node4</title>
<g id="a_edge3_Node000001_Node000004"><a xlink:title=" ">
<path fill="none" stroke="#63b8ff" d="M1581.58,-400.87C1494.5,-390.57 1312.66,-369.07 1221.62,-358.3"/>
<polygon fill="#63b8ff" stroke="#63b8ff" points="1222.04,-354.83 1211.7,-357.13 1221.21,-361.78 1222.04,-354.83"/>
</a>
</g>
</g>
<!-- Node12 -->
<g id="Node000012" class="node">
<title>Node12</title>
<g id="a_Node000012"><a xlink:href="time_8h.html" target="_top" xlink:title=" ">
<polygon fill="white" stroke="#666666" points="1863,-191 1815.5,-191 1815.5,-170.25 1863,-170.25 1863,-191"/>
<text text-anchor="middle" x="1839.25" y="-177.5" font-family="Helvetica,sans-Serif" font-size="10.00">time.h</text>
</a>
</g>
</g>
<!-- Node1&#45;&gt;Node12 -->
<g id="edge62_Node000001_Node000012" class="edge">
<title>Node1&#45;&gt;Node12</title>
<g id="a_edge62_Node000001_Node000012"><a xlink:title=" ">
<path fill="none" stroke="#63b8ff" d="M1639.38,-397.01C1662.76,-372.33 1726.69,-304.73 1779.25,-247.75 1794.28,-231.46 1811.24,-212.73 1823.28,-199.38"/>
<polygon fill="#63b8ff" stroke="#63b8ff" points="1825.65,-201.98 1829.74,-192.21 1820.45,-197.3 1825.65,-201.98"/>
</a>
</g>
</g>
<!-- Node3 -->
<g id="Node000003" class="node">
<title>Node3</title>
<g id="a_Node000003"><a xlink:title=" ">
<polygon fill="#e0e0e0" stroke="#999999" points="1502.62,-77.5 1437.88,-77.5 1437.88,-56.75 1502.62,-56.75 1502.62,-77.5"/>
<text text-anchor="middle" x="1470.25" y="-64" font-family="Helvetica,sans-Serif" font-size="10.00">inttypes.h</text>
</a>
</g>
</g>
<!-- Node2&#45;&gt;Node3 -->
<g id="edge2_Node000002_Node000003" class="edge">
<title>Node2&#45;&gt;Node3</title>
<g id="a_edge2_Node000002_Node000003"><a xlink:title=" ">
<path fill="none" stroke="#63b8ff" d="M1688.21,-169.96C1670.33,-155.98 1635.32,-129.98 1602.25,-113.5 1573.88,-99.36 1540.04,-87.82 1513.72,-79.92"/>
<polygon fill="#63b8ff" stroke="#63b8ff" points="1514.98,-76.64 1504.39,-77.19 1513.01,-83.36 1514.98,-76.64"/>
</a>
</g>
</g>
<!-- Node4&#45;&gt;Node2 -->
<g id="edge4_Node000004_Node000002" class="edge">
<title>Node4&#45;&gt;Node2</title>
<g id="a_edge4_Node000004_Node000002"><a xlink:title=" ">
<path fill="none" stroke="#63b8ff" d="M1198.21,-340.1C1289.01,-311.44 1554.72,-227.56 1658.26,-194.88"/>
<polygon fill="#63b8ff" stroke="#63b8ff" points="1659.28,-198.23 1667.76,-191.88 1657.17,-191.55 1659.28,-198.23"/>
</a>
</g>
</g>
<!-- Node5 -->
<g id="Node000005" class="node">
<title>Node5</title>
<g id="a_Node000005"><a xlink:href="inc_2vlcb_2module_2param_8h.html" target="_top" xlink:title=" ">
<polygon fill="white" stroke="#666666" points="418,-134.25 298.5,-134.25 298.5,-113.5 418,-113.5 418,-134.25"/>
<text text-anchor="middle" x="358.25" y="-120.75" font-family="Helvetica,sans-Serif" font-size="10.00">vlcb/module/param.h</text>
</a>
</g>
</g>
<!-- Node4&#45;&gt;Node5 -->
<g id="edge5_Node000004_Node000005" class="edge">
<title>Node4&#45;&gt;Node5</title>
<g id="a_edge5_Node000004_Node000005"><a xlink:title=" ">
<path fill="none" stroke="#63b8ff" d="M1124.36,-348.71C1016.2,-345.37 734.63,-334.01 646.25,-304.5 534.81,-267.29 422.27,-179.09 377.93,-141.89"/>
<polygon fill="#63b8ff" stroke="#63b8ff" points="380.35,-139.35 370.46,-135.55 375.82,-144.69 380.35,-139.35"/>
</a>
</g>
</g>
<!-- Node6 -->
<g id="Node000006" class="node">
<title>Node6</title>
<g id="a_Node000006"><a xlink:title=" ">
<polygon fill="#e0e0e0" stroke="#999999" points="686.62,-20.75 633.88,-20.75 633.88,0 686.62,0 686.62,-20.75"/>
<text text-anchor="middle" x="660.25" y="-7.25" font-family="Helvetica,sans-Serif" font-size="10.00">stdint.h</text>
</a>
</g>
</g>
<!-- Node4&#45;&gt;Node6 -->
<g id="edge61_Node000004_Node000006" class="edge">
<title>Node4&#45;&gt;Node6</title>
<g id="a_edge61_Node000004_Node000006"><a xlink:title=" ">
<path fill="none" stroke="#63b8ff" d="M1124.46,-349.54C1002.23,-347.45 660.25,-333.12 660.25,-238.38 660.25,-238.38 660.25,-238.38 660.25,-122.88 660.25,-91.48 660.25,-55.12 660.25,-32.68"/>
<polygon fill="#63b8ff" stroke="#63b8ff" points="663.75,-32.73 660.25,-22.73 656.75,-32.73 663.75,-32.73"/>
</a>
</g>
</g>
<!-- Node11 -->
<g id="Node000011" class="node">
<title>Node11</title>
<g id="a_Node000011"><a xlink:href="state_8h.html" target="_top" xlink:title=" ">
<polygon fill="white" stroke="#666666" points="1770.62,-247.75 1657.88,-247.75 1657.88,-227 1770.62,-227 1770.62,-247.75"/>
<text text-anchor="middle" x="1714.25" y="-234.25" font-family="Helvetica,sans-Serif" font-size="10.00">vlcb/module/state.h</text>
</a>
</g>
</g>
<!-- Node4&#45;&gt;Node11 -->
<g id="edge15_Node000004_Node000011" class="edge">
<title>Node4&#45;&gt;Node11</title>
<g id="a_edge15_Node000004_Node000011"><a xlink:title=" ">
<path fill="none" stroke="#63b8ff" d="M1210.02,-345.69C1271.39,-339.25 1387.79,-325.42 1485.25,-304.5 1552.57,-290.05 1629.13,-266.45 1674.47,-251.7"/>
<polygon fill="#63b8ff" stroke="#63b8ff" points="1675.45,-255.06 1683.86,-248.62 1673.27,-248.41 1675.45,-255.06"/>
</a>
</g>
</g>
<!-- Node13 -->
<g id="Node000013" class="node">
<title>Node13</title>
<g id="a_Node000013"><a xlink:href="ui_8h.html" target="_top" xlink:title=" ">
<polygon fill="white" stroke="#666666" points="1271.75,-304.5 1174.75,-304.5 1174.75,-283.75 1271.75,-283.75 1271.75,-304.5"/>
<text text-anchor="middle" x="1223.25" y="-291" font-family="Helvetica,sans-Serif" font-size="10.00">vlcb/module/ui.h</text>
</a>
</g>
</g>
<!-- Node4&#45;&gt;Node13 -->
<g id="edge20_Node000004_Node000013" class="edge">
<title>Node4&#45;&gt;Node13</title>
<g id="a_edge20_Node000004_Node000013"><a xlink:title=" ">
<path fill="none" stroke="#63b8ff" d="M1177.26,-340.09C1184.99,-332.53 1195.88,-321.89 1205.12,-312.85"/>
<polygon fill="#63b8ff" stroke="#63b8ff" points="1207.54,-315.38 1212.24,-305.89 1202.65,-310.37 1207.54,-315.38"/>
</a>
</g>
</g>
<!-- Node16 -->
<g id="Node000016" class="node">
<title>Node16</title>
<g id="a_Node000016"><a xlink:href="iface_8h.html" target="_top" xlink:title=" ">
<polygon fill="white" stroke="#666666" points="1156.75,-304.5 1065.75,-304.5 1065.75,-283.75 1156.75,-283.75 1156.75,-304.5"/>
<text text-anchor="middle" x="1111.25" y="-291" font-family="Helvetica,sans-Serif" font-size="10.00">vlcb/net/iface.h</text>
</a>
</g>
</g>
<!-- Node4&#45;&gt;Node16 -->
<g id="edge24_Node000004_Node000016" class="edge">
<title>Node4&#45;&gt;Node16</title>
<g id="a_edge24_Node000004_Node000016"><a xlink:title=" ">
<path fill="none" stroke="#63b8ff" d="M1157.24,-340.09C1149.51,-332.53 1138.62,-321.89 1129.38,-312.85"/>
<polygon fill="#63b8ff" stroke="#63b8ff" points="1131.85,-310.37 1122.26,-305.89 1126.96,-315.38 1131.85,-310.37"/>
</a>
</g>
</g>
<!-- Node26 -->
<g id="Node000026" class="node">
<title>Node26</title>
<g id="a_Node000026"><a xlink:href="socket_2datagram_8h.html" target="_top" xlink:title=" ">
<polygon fill="white" stroke="#666666" points="997.62,-247.75 848.88,-247.75 848.88,-227 997.62,-227 997.62,-247.75"/>
<text text-anchor="middle" x="923.25" y="-234.25" font-family="Helvetica,sans-Serif" font-size="10.00">vlcb/net/socket/datagram.h</text>
</a>
</g>
</g>
<!-- Node4&#45;&gt;Node26 -->
<g id="edge49_Node000004_Node000026" class="edge">
<title>Node4&#45;&gt;Node26</title>
<g id="a_edge49_Node000004_Node000026"><a xlink:title=" ">
<path fill="none" stroke="#63b8ff" d="M1142.14,-340.08C1119.71,-331.19 1086.05,-317.53 1057.25,-304.5 1020.53,-287.89 979.02,-267.08 952.06,-253.29"/>
<polygon fill="#63b8ff" stroke="#63b8ff" points="953.98,-250.34 943.49,-248.89 950.78,-256.57 953.98,-250.34"/>
</a>
</g>
</g>
<!-- Node5&#45;&gt;Node6 -->
<g id="edge6_Node000005_Node000006" class="edge">
<title>Node5&#45;&gt;Node6</title>
<g id="a_edge6_Node000005_Node000006"><a xlink:title=" ">
<path fill="none" stroke="#63b8ff" d="M298.22,-118.78C235.67,-112.34 151.4,-96.21 187.25,-56.75 216.33,-24.75 514.98,-14.73 622.19,-12.15"/>
<polygon fill="#63b8ff" stroke="#63b8ff" points="621.99,-15.66 631.91,-11.93 621.83,-8.66 621.99,-15.66"/>
</a>
</g>
</g>
<!-- Node7 -->
<g id="Node000007" class="node">
<title>Node7</title>
<g id="a_Node000007"><a xlink:href="manufacturer_8h.html" target="_top" xlink:title=" ">
<polygon fill="white" stroke="#666666" points="355.88,-77.5 196.62,-77.5 196.62,-56.75 355.88,-56.75 355.88,-77.5"/>
<text text-anchor="middle" x="276.25" y="-64" font-family="Helvetica,sans-Serif" font-size="10.00">vlcb/common/manufacturer.h</text>
</a>
</g>
</g>
<!-- Node5&#45;&gt;Node7 -->
<g id="edge7_Node000005_Node000007" class="edge">
<title>Node5&#45;&gt;Node7</title>
<g id="a_edge7_Node000005_Node000007"><a xlink:title=" ">
<path fill="none" stroke="#63b8ff" d="M343.59,-113.09C331.58,-105.07 314.34,-93.56 300.31,-84.19"/>
<polygon fill="#63b8ff" stroke="#63b8ff" points="302.3,-81.31 292.04,-78.67 298.41,-87.13 302.3,-81.31"/>
</a>
</g>
</g>
<!-- Node8 -->
<g id="Node000008" class="node">
<title>Node8</title>
<g id="a_Node000008"><a xlink:href="common_2inc_2vlcb_2common_2module_8h.html" target="_top" xlink:title=" ">
<polygon fill="white" stroke="#666666" points="504.62,-77.5 373.88,-77.5 373.88,-56.75 504.62,-56.75 504.62,-77.5"/>
<text text-anchor="middle" x="439.25" y="-64" font-family="Helvetica,sans-Serif" font-size="10.00">vlcb/common/module.h</text>
</a>
</g>
</g>
<!-- Node5&#45;&gt;Node8 -->
<g id="edge9_Node000005_Node000008" class="edge">
<title>Node5&#45;&gt;Node8</title>
<g id="a_edge9_Node000005_Node000008"><a xlink:title=" ">
<path fill="none" stroke="#63b8ff" d="M372.73,-113.09C384.6,-105.07 401.62,-93.56 415.48,-84.19"/>
<polygon fill="#63b8ff" stroke="#63b8ff" points="417.32,-87.18 423.64,-78.68 413.4,-81.38 417.32,-87.18"/>
</a>
</g>
</g>
<!-- Node9 -->
<g id="Node000009" class="node">
<title>Node9</title>
<g id="a_Node000009"><a xlink:href="common_2inc_2vlcb_2common_2net_8h.html" target="_top" xlink:title=" ">
<polygon fill="white" stroke="#666666" points="632.12,-77.5 522.38,-77.5 522.38,-56.75 632.12,-56.75 632.12,-77.5"/>
<text text-anchor="middle" x="577.25" y="-64" font-family="Helvetica,sans-Serif" font-size="10.00">vlcb/common/net.h</text>
</a>
</g>
</g>
<!-- Node5&#45;&gt;Node9 -->
<g id="edge11_Node000005_Node000009" class="edge">
<title>Node5&#45;&gt;Node9</title>
<g id="a_edge11_Node000005_Node000009"><a xlink:title=" ">
<path fill="none" stroke="#63b8ff" d="M397.66,-113.02C433.82,-103.98 487.59,-90.54 526.87,-80.72"/>
<polygon fill="#63b8ff" stroke="#63b8ff" points="527.47,-84.18 536.32,-78.36 525.77,-77.39 527.47,-84.18"/>
</a>
</g>
</g>
<!-- Node10 -->
<g id="Node000010" class="node">
<title>Node10</title>
<g id="a_Node000010"><a xlink:href="processor_8h.html" target="_top" xlink:title=" ">
<polygon fill="white" stroke="#666666" points="140.5,-77.5 0,-77.5 0,-56.75 140.5,-56.75 140.5,-77.5"/>
<text text-anchor="middle" x="70.25" y="-64" font-family="Helvetica,sans-Serif" font-size="10.00">vlcb/common/processor.h</text>
</a>
</g>
</g>
<!-- Node5&#45;&gt;Node10 -->
<g id="edge13_Node000005_Node000010" class="edge">
<title>Node5&#45;&gt;Node10</title>
<g id="a_edge13_Node000005_Node000010"><a xlink:title=" ">
<path fill="none" stroke="#63b8ff" d="M306.43,-113.02C257.85,-103.79 185.12,-89.96 133.21,-80.09"/>
<polygon fill="#63b8ff" stroke="#63b8ff" points="134.1,-76.7 123.63,-78.27 132.8,-83.58 134.1,-76.7"/>
</a>
</g>
</g>
<!-- Node7&#45;&gt;Node6 -->
<g id="edge8_Node000007_Node000006" class="edge">
<title>Node7&#45;&gt;Node6</title>
<g id="a_edge8_Node000007_Node000006"><a xlink:title=" ">
<path fill="none" stroke="#63b8ff" d="M345.34,-56.27C426.45,-44.71 558.04,-25.95 622.39,-16.77"/>
<polygon fill="#63b8ff" stroke="#63b8ff" points="622.69,-20.27 632.1,-15.39 621.7,-13.34 622.69,-20.27"/>
</a>
</g>
</g>
<!-- Node8&#45;&gt;Node6 -->
<g id="edge10_Node000008_Node000006" class="edge">
<title>Node8&#45;&gt;Node6</title>
<g id="a_edge10_Node000008_Node000006"><a xlink:title=" ">
<path fill="none" stroke="#63b8ff" d="M479.02,-56.27C519.73,-46.19 582.56,-30.62 622.52,-20.72"/>
<polygon fill="#63b8ff" stroke="#63b8ff" points="623.31,-24.13 632.17,-18.33 621.63,-17.34 623.31,-24.13"/>
</a>
</g>
</g>
<!-- Node9&#45;&gt;Node6 -->
<g id="edge12_Node000009_Node000006" class="edge">
<title>Node9&#45;&gt;Node6</title>
<g id="a_edge12_Node000009_Node000006"><a xlink:title=" ">
<path fill="none" stroke="#63b8ff" d="M592.09,-56.34C604.36,-48.24 622.04,-36.58 636.31,-27.17"/>
<polygon fill="#63b8ff" stroke="#63b8ff" points="637.86,-30.34 644.28,-21.91 634,-24.5 637.86,-30.34"/>
</a>
</g>
</g>
<!-- Node10&#45;&gt;Node6 -->
<g id="edge14_Node000010_Node000006" class="edge">
<title>Node10&#45;&gt;Node6</title>
<g id="a_edge14_Node000010_Node000006"><a xlink:title=" ">
<path fill="none" stroke="#63b8ff" d="M140.82,-58.14C145.36,-57.66 149.87,-57.19 154.25,-56.75 329.03,-39.16 538.13,-21.48 622.35,-14.49"/>
<polygon fill="#63b8ff" stroke="#63b8ff" points="622.44,-18 632.11,-13.68 621.86,-11.02 622.44,-18"/>
</a>
</g>
</g>
<!-- Node11&#45;&gt;Node2 -->
<g id="edge16_Node000011_Node000002" class="edge">
<title>Node11&#45;&gt;Node2</title>
<g id="a_edge16_Node000011_Node000002"><a xlink:title=" ">
<path fill="none" stroke="#63b8ff" d="M1711.75,-226.59C1710.03,-219.89 1707.7,-210.76 1705.58,-202.48"/>
<polygon fill="#63b8ff" stroke="#63b8ff" points="1708.97,-201.62 1703.11,-192.79 1702.19,-203.35 1708.97,-201.62"/>
</a>
</g>
</g>
<!-- Node11&#45;&gt;Node6 -->
<g id="edge17_Node000011_Node000006" class="edge">
<title>Node11&#45;&gt;Node6</title>
<g id="a_edge17_Node000011_Node000006"><a xlink:title=" ">
<path fill="none" stroke="#63b8ff" d="M1732.2,-226.6C1751.55,-214.66 1778.3,-193.19 1768.25,-170.25 1738.41,-102.11 1713.89,-85.42 1645.25,-56.75 1556.74,-19.78 868.25,-12.77 698.15,-11.59"/>
<polygon fill="#63b8ff" stroke="#63b8ff" points="698.35,-8.09 688.33,-11.53 698.31,-15.09 698.35,-8.09"/>
</a>
</g>
</g>
<!-- Node11&#45;&gt;Node12 -->
<g id="edge18_Node000011_Node000012" class="edge">
<title>Node11&#45;&gt;Node12</title>
<g id="a_edge18_Node000011_Node000012"><a xlink:title=" ">
<path fill="none" stroke="#63b8ff" d="M1736.6,-226.59C1756.06,-218.06 1784.54,-205.59 1806.56,-195.94"/>
<polygon fill="#63b8ff" stroke="#63b8ff" points="1807.95,-199.15 1815.71,-191.94 1805.15,-192.74 1807.95,-199.15"/>
</a>
</g>
</g>
<!-- Node12&#45;&gt;Node12 -->
<g id="edge19_Node000012_Node000012" class="edge">
<title>Node12&#45;&gt;Node12</title>
<g id="a_edge19_Node000012_Node000012"><a xlink:title=" ">
<path fill="none" stroke="#63b8ff" d="M1863.28,-191.2C1872.91,-191.8 1881,-188.27 1881,-180.62 1881,-176.32 1878.44,-173.33 1874.49,-171.63"/>
<polygon fill="#63b8ff" stroke="#63b8ff" points="1875.17,-168.19 1864.77,-170.26 1874.19,-175.12 1875.17,-168.19"/>
</a>
</g>
</g>
<!-- Node13&#45;&gt;Node11 -->
<g id="edge21_Node000013_Node000011" class="edge">
<title>Node13&#45;&gt;Node11</title>
<g id="a_edge21_Node000013_Node000011"><a xlink:title=" ">
<path fill="none" stroke="#63b8ff" d="M1272.12,-287.68C1360.29,-277.84 1546.11,-257.12 1646.49,-245.93"/>
<polygon fill="#63b8ff" stroke="#63b8ff" points="1646.65,-249.43 1656.2,-244.85 1645.87,-242.48 1646.65,-249.43"/>
</a>
</g>
</g>
<!-- Node14 -->
<g id="Node000014" class="node">
<title>Node14</title>
<g id="a_Node000014"><a xlink:href="interface_8h.html" target="_top" xlink:title=" ">
<polygon fill="white" stroke="#666666" points="1007.62,-134.25 870.88,-134.25 870.88,-113.5 1007.62,-113.5 1007.62,-134.25"/>
<text text-anchor="middle" x="939.25" y="-120.75" font-family="Helvetica,sans-Serif" font-size="10.00">vlcb/platform/interface.h</text>
</a>
</g>
</g>
<!-- Node13&#45;&gt;Node14 -->
<g id="edge22_Node000013_Node000014" class="edge">
<title>Node13&#45;&gt;Node14</title>
<g id="a_edge22_Node000013_Node000014"><a xlink:title=" ">
<path fill="none" stroke="#63b8ff" d="M1181.6,-283.31C1130.4,-269.58 1043,-240.61 983.25,-191 968.03,-178.36 956.06,-159.13 948.46,-144.66"/>
<polygon fill="#63b8ff" stroke="#63b8ff" points="951.78,-143.47 944.2,-136.06 945.51,-146.58 951.78,-143.47"/>
</a>
</g>
</g>
<!-- Node15 -->
<g id="Node000015" class="node">
<title>Node15</title>
<g id="a_Node000015"><a xlink:title=" ">
<polygon fill="#e0e0e0" stroke="#999999" points="966.75,-77.5 911.75,-77.5 911.75,-56.75 966.75,-56.75 966.75,-77.5"/>
<text text-anchor="middle" x="939.25" y="-64" font-family="Helvetica,sans-Serif" font-size="10.00">stddef.h</text>
</a>
</g>
</g>
<!-- Node14&#45;&gt;Node15 -->
<g id="edge23_Node000014_Node000015" class="edge">
<title>Node14&#45;&gt;Node15</title>
<g id="a_edge23_Node000014_Node000015"><a xlink:title=" ">
<path fill="none" stroke="#63b8ff" d="M939.25,-113.09C939.25,-106.47 939.25,-97.47 939.25,-89.27"/>
<polygon fill="#63b8ff" stroke="#63b8ff" points="942.75,-89.34 939.25,-79.34 935.75,-89.34 942.75,-89.34"/>
</a>
</g>
</g>
<!-- Node17 -->
<g id="Node000017" class="node">
<title>Node17</title>
<g id="a_Node000017"><a xlink:title=" ">
<polygon fill="#e0e0e0" stroke="#999999" points="1160.75,-77.5 1099.75,-77.5 1099.75,-56.75 1160.75,-56.75 1160.75,-77.5"/>
<text text-anchor="middle" x="1130.25" y="-64" font-family="Helvetica,sans-Serif" font-size="10.00">stdbool.h</text>
</a>
</g>
</g>
<!-- Node16&#45;&gt;Node17 -->
<g id="edge25_Node000016_Node000017" class="edge">
<title>Node16&#45;&gt;Node17</title>
<g id="a_edge25_Node000016_Node000017"><a xlink:title=" ">
<path fill="none" stroke="#63b8ff" d="M1112.07,-283.46C1114.92,-249.63 1124.51,-136.11 1128.49,-88.94"/>
<polygon fill="#63b8ff" stroke="#63b8ff" points="1131.96,-89.52 1129.31,-79.27 1124.98,-88.94 1131.96,-89.52"/>
</a>
</g>
</g>
<!-- Node18 -->
<g id="Node000018" class="node">
<title>Node18</title>
<g id="a_Node000018"><a xlink:href="adapter_8h.html" target="_top" xlink:title=" ">
<polygon fill="white" stroke="#666666" points="1267.12,-247.75 1205.38,-247.75 1205.38,-227 1267.12,-227 1267.12,-247.75"/>
<text text-anchor="middle" x="1236.25" y="-234.25" font-family="Helvetica,sans-Serif" font-size="10.00">adapter.h</text>
</a>
</g>
</g>
<!-- Node16&#45;&gt;Node18 -->
<g id="edge26_Node000016_Node000018" class="edge">
<title>Node16&#45;&gt;Node18</title>
<g id="a_edge26_Node000016_Node000018"><a xlink:title=" ">
<path fill="none" stroke="#63b8ff" d="M1133.6,-283.34C1153.06,-274.81 1181.54,-262.34 1203.56,-252.69"/>
<polygon fill="#63b8ff" stroke="#63b8ff" points="1204.95,-255.9 1212.71,-248.69 1202.15,-249.49 1204.95,-255.9"/>
</a>
</g>
</g>
<!-- Node24 -->
<g id="Node000024" class="node">
<title>Node24</title>
<g id="a_Node000024"><a xlink:href="socket_8h.html" target="_top" xlink:title=" ">
<polygon fill="white" stroke="#666666" points="1083.5,-191 1027,-191 1027,-170.25 1083.5,-170.25 1083.5,-191"/>
<text text-anchor="middle" x="1055.25" y="-177.5" font-family="Helvetica,sans-Serif" font-size="10.00">socket.h</text>
</a>
</g>
</g>
<!-- Node16&#45;&gt;Node24 -->
<g id="edge41_Node000016_Node000024" class="edge">
<title>Node16&#45;&gt;Node24</title>
<g id="a_edge41_Node000016_Node000024"><a xlink:title=" ">
<path fill="none" stroke="#63b8ff" d="M1106.48,-283.62C1097.39,-265.52 1077.43,-225.78 1065.28,-201.6"/>
<polygon fill="#63b8ff" stroke="#63b8ff" points="1068.47,-200.14 1060.85,-192.78 1062.21,-203.28 1068.47,-200.14"/>
</a>
</g>
</g>
<!-- Node18&#45;&gt;Node3 -->
<g id="edge27_Node000018_Node000003" class="edge">
<title>Node18&#45;&gt;Node3</title>
<g id="a_edge27_Node000018_Node000003"><a xlink:title=" ">
<path fill="none" stroke="#63b8ff" d="M1267.51,-231.93C1343.88,-220.33 1536.13,-186.37 1569.25,-134.25 1586.21,-107.57 1547.56,-89.17 1513.7,-78.67"/>
<polygon fill="#63b8ff" stroke="#63b8ff" points="1514.99,-75.4 1504.41,-75.97 1513.03,-82.12 1514.99,-75.4"/>
</a>
</g>
</g>
<!-- Node18&#45;&gt;Node14 -->
<g id="edge30_Node000018_Node000014" class="edge">
<title>Node18&#45;&gt;Node14</title>
<g id="a_edge30_Node000018_Node000014"><a xlink:title=" ">
<path fill="none" stroke="#63b8ff" d="M1205.12,-234.66C1161.38,-231.22 1080.18,-221 1018.25,-191 993.76,-179.14 970.48,-158.02 955.62,-142.84"/>
<polygon fill="#63b8ff" stroke="#63b8ff" points="958.36,-140.64 948.93,-135.8 953.28,-145.46 958.36,-140.64"/>
</a>
</g>
</g>
<!-- Node18&#45;&gt;Node17 -->
<g id="edge28_Node000018_Node000017" class="edge">
<title>Node18&#45;&gt;Node17</title>
<g id="a_edge28_Node000018_Node000017"><a xlink:title=" ">
<path fill="none" stroke="#63b8ff" d="M1214.02,-226.51C1199.08,-218.83 1180.05,-206.81 1168.25,-191 1145.18,-160.09 1135.94,-114.95 1132.37,-88.86"/>
<polygon fill="#63b8ff" stroke="#63b8ff" points="1135.88,-88.74 1131.22,-79.22 1128.93,-89.57 1135.88,-88.74"/>
</a>
</g>
</g>
<!-- Node19 -->
<g id="Node000019" class="node">
<title>Node19</title>
<g id="a_Node000019"><a xlink:href="error_8h.html" target="_top" xlink:title=" ">
<polygon fill="white" stroke="#666666" points="1636.12,-77.5 1520.38,-77.5 1520.38,-56.75 1636.12,-56.75 1636.12,-77.5"/>
<text text-anchor="middle" x="1578.25" y="-64" font-family="Helvetica,sans-Serif" font-size="10.00">vlcb/platform/error.h</text>
</a>
</g>
</g>
<!-- Node18&#45;&gt;Node19 -->
<g id="edge29_Node000018_Node000019" class="edge">
<title>Node18&#45;&gt;Node19</title>
<g id="a_edge29_Node000018_Node000019"><a xlink:title=" ">
<path fill="none" stroke="#63b8ff" d="M1267.61,-235.51C1318.93,-233.13 1423.27,-224.23 1504.25,-191 1544.92,-174.31 1564.96,-173.24 1585.25,-134.25 1592.59,-120.15 1590.01,-102.09 1586.06,-88.41"/>
<polygon fill="#63b8ff" stroke="#63b8ff" points="1589.45,-87.51 1582.93,-79.16 1582.82,-89.75 1589.45,-87.51"/>
</a>
</g>
</g>
<!-- Node20 -->
<g id="Node000020" class="node">
<title>Node20</title>
<g id="a_Node000020"><a xlink:href="packet_8h.html" target="_top" xlink:title=" ">
<polygon fill="white" stroke="#666666" points="1295.25,-191 1177.25,-191 1177.25,-170.25 1295.25,-170.25 1295.25,-191"/>
<text text-anchor="middle" x="1236.25" y="-177.5" font-family="Helvetica,sans-Serif" font-size="10.00">adapter/can/packet.h</text>
</a>
</g>
</g>
<!-- Node18&#45;&gt;Node20 -->
<g id="edge31_Node000018_Node000020" class="edge">
<title>Node18&#45;&gt;Node20</title>
<g id="a_edge31_Node000018_Node000020"><a xlink:title=" ">
<path fill="none" stroke="#63b8ff" d="M1236.25,-226.59C1236.25,-219.97 1236.25,-210.97 1236.25,-202.77"/>
<polygon fill="#63b8ff" stroke="#63b8ff" points="1239.75,-202.84 1236.25,-192.84 1232.75,-202.84 1239.75,-202.84"/>
</a>
</g>
</g>
<!-- Node23 -->
<g id="Node000023" class="node">
<title>Node23</title>
<g id="a_Node000023"><a xlink:href="addr_8h.html" target="_top" xlink:title=" ">
<polygon fill="white" stroke="#666666" points="1439.25,-191 1351.25,-191 1351.25,-170.25 1439.25,-170.25 1439.25,-191"/>
<text text-anchor="middle" x="1395.25" y="-177.5" font-family="Helvetica,sans-Serif" font-size="10.00">vlcb/net/addr.h</text>
</a>
</g>
</g>
<!-- Node18&#45;&gt;Node23 -->
<g id="edge39_Node000018_Node000023" class="edge">
<title>Node18&#45;&gt;Node23</title>
<g id="a_edge39_Node000018_Node000023"><a xlink:title=" ">
<path fill="none" stroke="#63b8ff" d="M1264.68,-226.59C1290.15,-217.82 1327.75,-204.87 1356.07,-195.12"/>
<polygon fill="#63b8ff" stroke="#63b8ff" points="1357.06,-198.48 1365.37,-191.91 1354.78,-191.86 1357.06,-198.48"/>
</a>
</g>
</g>
<!-- Node20&#45;&gt;Node17 -->
<g id="edge32_Node000020_Node000017" class="edge">
<title>Node20&#45;&gt;Node17</title>
<g id="a_edge32_Node000020_Node000017"><a xlink:title=" ">
<path fill="none" stroke="#63b8ff" d="M1227.21,-170.12C1209.54,-151.53 1170.16,-110.11 1147.4,-86.16"/>
<polygon fill="#63b8ff" stroke="#63b8ff" points="1150.04,-83.86 1140.61,-79.02 1144.96,-88.68 1150.04,-83.86"/>
</a>
</g>
</g>
<!-- Node21 -->
<g id="Node000021" class="node">
<title>Node21</title>
<g id="a_Node000021"><a xlink:href="common_2inc_2vlcb_2common_2can_8h.html" target="_top" xlink:title=" ">
<polygon fill="white" stroke="#666666" points="1326.88,-134.25 1215.62,-134.25 1215.62,-113.5 1326.88,-113.5 1326.88,-134.25"/>
<text text-anchor="middle" x="1271.25" y="-120.75" font-family="Helvetica,sans-Serif" font-size="10.00">vlcb/common/can.h</text>
</a>
</g>
</g>
<!-- Node20&#45;&gt;Node21 -->
<g id="edge33_Node000020_Node000021" class="edge">
<title>Node20&#45;&gt;Node21</title>
<g id="a_edge33_Node000020_Node000021"><a xlink:title=" ">
<path fill="none" stroke="#63b8ff" d="M1242.51,-169.84C1247.09,-162.67 1253.45,-152.73 1259.02,-144.01"/>
<polygon fill="#63b8ff" stroke="#63b8ff" points="1261.79,-146.16 1264.23,-135.85 1255.9,-142.39 1261.79,-146.16"/>
</a>
</g>
</g>
<!-- Node21&#45;&gt;Node3 -->
<g id="edge34_Node000021_Node000003" class="edge">
<title>Node21&#45;&gt;Node3</title>
<g id="a_edge34_Node000021_Node000003"><a xlink:title=" ">
<path fill="none" stroke="#63b8ff" d="M1306.83,-113.09C1340.46,-103.83 1391,-89.93 1426.96,-80.03"/>
<polygon fill="#63b8ff" stroke="#63b8ff" points="1427.45,-83.53 1436.16,-77.5 1425.59,-76.78 1427.45,-83.53"/>
</a>
</g>
</g>
<!-- Node21&#45;&gt;Node6 -->
<g id="edge36_Node000021_Node000006" class="edge">
<title>Node21&#45;&gt;Node6</title>
<g id="a_edge36_Node000021_Node000006"><a xlink:title=" ">
<path fill="none" stroke="#63b8ff" d="M1260.42,-113.13C1242.92,-98.03 1206.68,-69.4 1170.25,-56.75 1083.01,-26.46 801.44,-15.45 698.44,-12.37"/>
<polygon fill="#63b8ff" stroke="#63b8ff" points="698.68,-8.88 688.58,-12.09 698.48,-15.88 698.68,-8.88"/>
</a>
</g>
</g>
<!-- Node21&#45;&gt;Node17 -->
<g id="edge35_Node000021_Node000017" class="edge">
<title>Node21&#45;&gt;Node17</title>
<g id="a_edge35_Node000021_Node000017"><a xlink:title=" ">
<path fill="none" stroke="#63b8ff" d="M1246.04,-113.09C1223.69,-104.41 1190.79,-91.63 1165.77,-81.92"/>
<polygon fill="#63b8ff" stroke="#63b8ff" points="1167.24,-78.73 1156.65,-78.38 1164.71,-85.26 1167.24,-78.73"/>
</a>
</g>
</g>
<!-- Node22 -->
<g id="Node000022" class="node">
<title>Node22</title>
<g id="a_Node000022"><a xlink:href="opcode_8h.html" target="_top" xlink:title=" ">
<polygon fill="white" stroke="#666666" points="1387.38,-77.5 1327.12,-77.5 1327.12,-56.75 1387.38,-56.75 1387.38,-77.5"/>
<text text-anchor="middle" x="1357.25" y="-64" font-family="Helvetica,sans-Serif" font-size="10.00">opcode.h</text>
</a>
</g>
</g>
<!-- Node21&#45;&gt;Node22 -->
<g id="edge37_Node000021_Node000022" class="edge">
<title>Node21&#45;&gt;Node22</title>
<g id="a_edge37_Node000021_Node000022"><a xlink:title=" ">
<path fill="none" stroke="#63b8ff" d="M1286.63,-113.09C1299.34,-104.99 1317.65,-93.33 1332.44,-83.92"/>
<polygon fill="#63b8ff" stroke="#63b8ff" points="1334.18,-86.96 1340.73,-78.64 1330.42,-81.06 1334.18,-86.96"/>
</a>
</g>
</g>
<!-- Node22&#45;&gt;Node6 -->
<g id="edge38_Node000022_Node000006" class="edge">
<title>Node22&#45;&gt;Node6</title>
<g id="a_edge38_Node000022_Node000006"><a xlink:title=" ">
<path fill="none" stroke="#63b8ff" d="M1327.04,-63.58C1304.28,-61.67 1272.31,-59 1244.25,-56.75 1038.37,-40.21 791.59,-21.36 698.39,-14.27"/>
<polygon fill="#63b8ff" stroke="#63b8ff" points="698.78,-10.79 688.54,-13.52 698.25,-17.77 698.78,-10.79"/>
</a>
</g>
</g>
<!-- Node23&#45;&gt;Node21 -->
<g id="edge40_Node000023_Node000021" class="edge">
<title>Node23&#45;&gt;Node21</title>
<g id="a_edge40_Node000023_Node000021"><a xlink:title=" ">
<path fill="none" stroke="#63b8ff" d="M1373.08,-169.84C1353.77,-161.31 1325.53,-148.84 1303.68,-139.19"/>
<polygon fill="#63b8ff" stroke="#63b8ff" points="1305.17,-136.03 1294.61,-135.19 1302.35,-142.43 1305.17,-136.03"/>
</a>
</g>
</g>
<!-- Node24&#45;&gt;Node14 -->
<g id="edge48_Node000024_Node000014" class="edge">
<title>Node24&#45;&gt;Node14</title>
<g id="a_edge48_Node000024_Node000014"><a xlink:title=" ">
<path fill="none" stroke="#63b8ff" d="M1034.51,-169.84C1016.61,-161.39 990.51,-149.07 970.15,-139.46"/>
<polygon fill="#63b8ff" stroke="#63b8ff" points="971.71,-136.33 961.18,-135.22 968.73,-142.66 971.71,-136.33"/>
</a>
</g>
</g>
<!-- Node24&#45;&gt;Node15 -->
<g id="edge43_Node000024_Node000015" class="edge">
<title>Node24&#45;&gt;Node15</title>
<g id="a_edge43_Node000024_Node000015"><a xlink:title=" ">
<path fill="none" stroke="#63b8ff" d="M1051.47,-170.09C1045.61,-156.26 1033.22,-130.46 1016.25,-113.5 1003.71,-100.97 987.02,-90.58 972.39,-82.92"/>
<polygon fill="#63b8ff" stroke="#63b8ff" points="974.05,-79.84 963.54,-78.51 970.93,-86.11 974.05,-79.84"/>
</a>
</g>
</g>
<!-- Node24&#45;&gt;Node17 -->
<g id="edge42_Node000024_Node000017" class="edge">
<title>Node24&#45;&gt;Node17</title>
<g id="a_edge42_Node000024_Node000017"><a xlink:title=" ">
<path fill="none" stroke="#63b8ff" d="M1061.05,-170.09C1068.98,-157.12 1083.79,-133.29 1097.25,-113.5 1103.33,-104.57 1110.33,-94.86 1116.32,-86.72"/>
<polygon fill="#63b8ff" stroke="#63b8ff" points="1118.94,-89.07 1122.09,-78.95 1113.32,-84.89 1118.94,-89.07"/>
</a>
</g>
</g>
<!-- Node25 -->
<g id="Node000025" class="node">
<title>Node25</title>
<g id="a_Node000025"><a xlink:href="vlcb_8h.html" target="_top" xlink:title=" ">
<polygon fill="white" stroke="#666666" points="1425.5,-134.25 1345,-134.25 1345,-113.5 1425.5,-113.5 1425.5,-134.25"/>
<text text-anchor="middle" x="1385.25" y="-120.75" font-family="Helvetica,sans-Serif" font-size="10.00">packet/vlcb.h</text>
</a>
</g>
</g>
<!-- Node24&#45;&gt;Node25 -->
<g id="edge44_Node000024_Node000025" class="edge">
<title>Node24&#45;&gt;Node25</title>
<g id="a_edge44_Node000024_Node000025"><a xlink:title=" ">
<path fill="none" stroke="#63b8ff" d="M1083.61,-175.32C1132.48,-167.85 1235.97,-151.77 1333.39,-134.72"/>
<polygon fill="#63b8ff" stroke="#63b8ff" points="1333.89,-138.18 1343.13,-133 1332.68,-131.29 1333.89,-138.18"/>
</a>
</g>
</g>
<!-- Node25&#45;&gt;Node3 -->
<g id="edge45_Node000025_Node000003" class="edge">
<title>Node25&#45;&gt;Node3</title>
<g id="a_edge45_Node000025_Node000003"><a xlink:title=" ">
<path fill="none" stroke="#63b8ff" d="M1400.45,-113.09C1413.02,-104.99 1431.11,-93.33 1445.73,-83.92"/>
<polygon fill="#63b8ff" stroke="#63b8ff" points="1447.4,-87.01 1453.91,-78.65 1443.61,-81.12 1447.4,-87.01"/>
</a>
</g>
</g>
<!-- Node25&#45;&gt;Node19 -->
<g id="edge47_Node000025_Node000019" class="edge">
<title>Node25&#45;&gt;Node19</title>
<g id="a_edge47_Node000025_Node000019"><a xlink:title=" ">
<path fill="none" stroke="#63b8ff" d="M1419.75,-113.09C1451.36,-104.12 1498.34,-90.79 1532.95,-80.98"/>
<polygon fill="#63b8ff" stroke="#63b8ff" points="1533.6,-84.43 1542.26,-78.33 1531.69,-77.7 1533.6,-84.43"/>
</a>
</g>
</g>
<!-- Node25&#45;&gt;Node22 -->
<g id="edge46_Node000025_Node000022" class="edge">
<title>Node25&#45;&gt;Node22</title>
<g id="a_edge46_Node000025_Node000022"><a xlink:title=" ">
<path fill="none" stroke="#63b8ff" d="M1380.24,-113.09C1376.66,-106.08 1371.71,-96.41 1367.33,-87.83"/>
<polygon fill="#63b8ff" stroke="#63b8ff" points="1370.57,-86.49 1362.9,-79.18 1364.34,-89.67 1370.57,-86.49"/>
</a>
</g>
</g>
<!-- Node26&#45;&gt;Node6 -->
<g id="edge60_Node000026_Node000006" class="edge">
<title>Node26&#45;&gt;Node6</title>
<g id="a_edge60_Node000026_Node000006"><a xlink:title=" ">
<path fill="none" stroke="#63b8ff" d="M887.14,-226.61C842.13,-212.79 765.31,-183.57 717.25,-134.25 702.19,-118.79 679.42,-62.33 667.74,-31.61"/>
<polygon fill="#63b8ff" stroke="#63b8ff" points="671.17,-30.79 664.38,-22.66 664.62,-33.25 671.17,-30.79"/>
</a>
</g>
</g>
<!-- Node26&#45;&gt;Node14 -->
<g id="edge59_Node000026_Node000014" class="edge">
<title>Node26&#45;&gt;Node14</title>
<g id="a_edge59_Node000026_Node000014"><a xlink:title=" ">
<path fill="none" stroke="#63b8ff" d="M924.61,-226.87C927.18,-209.02 932.76,-170.11 936.24,-145.84"/>
<polygon fill="#63b8ff" stroke="#63b8ff" points="939.67,-146.57 937.63,-136.17 932.74,-145.57 939.67,-146.57"/>
</a>
</g>
</g>
<!-- Node26&#45;&gt;Node24 -->
<g id="edge54_Node000026_Node000024" class="edge">
<title>Node26&#45;&gt;Node24</title>
<g id="a_edge54_Node000026_Node000024"><a xlink:title=" ">
<path fill="none" stroke="#63b8ff" d="M946.85,-226.59C967.59,-217.98 998.02,-205.36 1021.36,-195.68"/>
<polygon fill="#63b8ff" stroke="#63b8ff" points="1022.56,-198.97 1030.46,-191.91 1019.88,-192.51 1022.56,-198.97"/>
</a>
</g>
</g>
<!-- Node27 -->
<g id="Node000027" class="node">
<title>Node27</title>
<g id="a_Node000027"><a xlink:href="packet_2datagram_8h.html" target="_top" xlink:title=" ">
<polygon fill="white" stroke="#666666" points="1560.5,-134.25 1444,-134.25 1444,-113.5 1560.5,-113.5 1560.5,-134.25"/>
<text text-anchor="middle" x="1502.25" y="-120.75" font-family="Helvetica,sans-Serif" font-size="10.00">../packet/datagram.h</text>
</a>
</g>
</g>
<!-- Node26&#45;&gt;Node27 -->
<g id="edge50_Node000026_Node000027" class="edge">
<title>Node26&#45;&gt;Node27</title>
<g id="a_edge50_Node000026_Node000027"><a xlink:title=" ">
<path fill="none" stroke="#63b8ff" d="M998.05,-235.8C1076.19,-233.28 1201.45,-223.83 1304.25,-191 1322.58,-185.15 1324.44,-177.53 1342.25,-170.25 1375.93,-156.48 1415.23,-145.27 1446.44,-137.44"/>
<polygon fill="#63b8ff" stroke="#63b8ff" points="1447.21,-140.86 1456.09,-135.07 1445.54,-134.06 1447.21,-140.86"/>
</a>
</g>
</g>
<!-- Node28 -->
<g id="Node000028" class="node">
<title>Node28</title>
<g id="a_Node000028"><a xlink:href="packet__buf_8h.html" target="_top" xlink:title=" ">
<polygon fill="white" stroke="#666666" points="852.38,-134.25 726.12,-134.25 726.12,-113.5 852.38,-113.5 852.38,-134.25"/>
<text text-anchor="middle" x="789.25" y="-120.75" font-family="Helvetica,sans-Serif" font-size="10.00">../storage/packet_buf.h</text>
</a>
</g>
</g>
<!-- Node26&#45;&gt;Node28 -->
<g id="edge55_Node000026_Node000028" class="edge">
<title>Node26&#45;&gt;Node28</title>
<g id="a_edge55_Node000026_Node000028"><a xlink:title=" ">
<path fill="none" stroke="#63b8ff" d="M911.83,-226.87C889.19,-208.04 838.39,-165.76 809.8,-141.97"/>
<polygon fill="#63b8ff" stroke="#63b8ff" points="812.12,-139.35 802.19,-135.64 807.64,-144.73 812.12,-139.35"/>
</a>
</g>
</g>
<!-- Node27&#45;&gt;Node3 -->
<g id="edge51_Node000027_Node000003" class="edge">
<title>Node27&#45;&gt;Node3</title>
<g id="a_edge51_Node000027_Node000003"><a xlink:title=" ">
<path fill="none" stroke="#63b8ff" d="M1496.53,-113.09C1492.39,-106 1486.65,-96.19 1481.6,-87.54"/>
<polygon fill="#63b8ff" stroke="#63b8ff" points="1484.75,-86 1476.69,-79.14 1478.71,-89.53 1484.75,-86"/>
</a>
</g>
</g>
<!-- Node27&#45;&gt;Node19 -->
<g id="edge53_Node000027_Node000019" class="edge">
<title>Node27&#45;&gt;Node19</title>
<g id="a_edge53_Node000027_Node000019"><a xlink:title=" ">
<path fill="none" stroke="#63b8ff" d="M1515.84,-113.09C1526.86,-105.15 1542.64,-93.78 1555.57,-84.46"/>
<polygon fill="#63b8ff" stroke="#63b8ff" points="1557.48,-87.4 1563.55,-78.71 1553.39,-81.72 1557.48,-87.4"/>
</a>
</g>
</g>
<!-- Node27&#45;&gt;Node22 -->
<g id="edge52_Node000027_Node000022" class="edge">
<title>Node27&#45;&gt;Node22</title>
<g id="a_edge52_Node000027_Node000022"><a xlink:title=" ">
<path fill="none" stroke="#63b8ff" d="M1476.33,-113.09C1453.23,-104.37 1419.21,-91.52 1393.43,-81.79"/>
<polygon fill="#63b8ff" stroke="#63b8ff" points="1394.96,-78.62 1384.36,-78.36 1392.48,-85.17 1394.96,-78.62"/>
</a>
</g>
</g>
<!-- Node28&#45;&gt;Node6 -->
<g id="edge58_Node000028_Node000006" class="edge">
<title>Node28&#45;&gt;Node6</title>
<g id="a_edge58_Node000028_Node000006"><a xlink:title=" ">
<path fill="none" stroke="#63b8ff" d="M778.25,-113.37C756.46,-94.54 707.55,-52.26 680.03,-28.47"/>
<polygon fill="#63b8ff" stroke="#63b8ff" points="682.59,-26.06 672.73,-22.16 678.01,-31.35 682.59,-26.06"/>
</a>
</g>
</g>
<!-- Node28&#45;&gt;Node15 -->
<g id="edge57_Node000028_Node000015" class="edge">
<title>Node28&#45;&gt;Node15</title>
<g id="a_edge57_Node000028_Node000015"><a xlink:title=" ">
<path fill="none" stroke="#63b8ff" d="M816.07,-113.09C839.99,-104.36 875.25,-91.48 901.93,-81.75"/>
<polygon fill="#63b8ff" stroke="#63b8ff" points="902.8,-85.16 910.99,-78.44 900.4,-78.58 902.8,-85.16"/>
</a>
</g>
</g>
<!-- Node28&#45;&gt;Node17 -->
<g id="edge56_Node000028_Node000017" class="edge">
<title>Node28&#45;&gt;Node17</title>
<g id="a_edge56_Node000028_Node000017"><a xlink:title=" ">
<path fill="none" stroke="#63b8ff" d="M850.61,-113.02C919.28,-102 1028.7,-84.43 1088.27,-74.87"/>
<polygon fill="#63b8ff" stroke="#63b8ff" points="1088.67,-78.35 1097.99,-73.3 1087.56,-71.43 1088.67,-78.35"/>
</a>
</g>
</g>
</g>
</svg>
