<?xml version="1.0" encoding="UTF-8" standalone="no"?>
<!DOCTYPE svg PUBLIC "-//W3C//DTD SVG 1.1//EN"
 "http://www.w3.org/Graphics/SVG/1.1/DTD/svg11.dtd">
<!-- Generated by graphviz version 12.1.2 (20240928.0832)
 -->
<!-- Title: HandleTransitionToUninitialized Pages: 1 -->
<svg width="540pt" height="29pt"
 viewBox="0.00 0.00 539.75 28.75" xmlns="http://www.w3.org/2000/svg" xmlns:xlink="http://www.w3.org/1999/xlink">
<g id="graph0" class="graph" transform="scale(1 1) rotate(0) translate(4 24.75)">
<title>HandleTransitionToUninitialized</title>
<!-- Node1 -->
<g id="Node000001" class="node">
<title>Node1</title>
<g id="a_Node000001"><a xlink:title=" ">
<polygon fill="#999999" stroke="#666666" points="169.75,-20.75 0,-20.75 0,0 169.75,0 169.75,-20.75"/>
<text text-anchor="middle" x="84.88" y="-7.25" font-family="Helvetica,sans-Serif" font-size="10.00">HandleTransitionToUninitialized</text>
</a>
</g>
</g>
<!-- Node2 -->
<g id="Node000002" class="node">
<title>Node2</title>
<g id="a_Node000002"><a xlink:href="socket_2datagram_8c.html#a7da610c48db02cd38212ef1545d00f00" target="_top" xlink:title=" ">
<polygon fill="white" stroke="#666666" points="356.75,-20.75 205.75,-20.75 205.75,0 356.75,0 356.75,-20.75"/>
<text text-anchor="middle" x="281.25" y="-7.25" font-family="Helvetica,sans-Serif" font-size="10.00">vlcb_net_sock_dgram_Send</text>
</a>
</g>
</g>
<!-- Node1&#45;&gt;Node2 -->
<g id="edge1_Node000001_Node000002" class="edge">
<title>Node1&#45;&gt;Node2</title>
<g id="a_edge1_Node000001_Node000002"><a xlink:title=" ">
<path fill="none" stroke="#63b8ff" d="M170,-10.38C178.02,-10.38 186.16,-10.38 194.2,-10.38"/>
<polygon fill="#63b8ff" stroke="#63b8ff" points="193.96,-13.88 203.96,-10.38 193.96,-6.88 193.96,-13.88"/>
</a>
</g>
</g>
<!-- Node3 -->
<g id="Node000003" class="node">
<title>Node3</title>
<g id="a_Node000003"><a xlink:href="packet__buf_8c.html#afa80d4fb078473100610ba106bd5cb46" target="_top" xlink:title=" ">
<polygon fill="white" stroke="#666666" points="531.75,-20.75 392.75,-20.75 392.75,0 531.75,0 531.75,-20.75"/>
<text text-anchor="middle" x="462.25" y="-7.25" font-family="Helvetica,sans-Serif" font-size="10.00">vlcb_net_packetbuf_Push</text>
</a>
</g>
</g>
<!-- Node2&#45;&gt;Node3 -->
<g id="edge2_Node000002_Node000003" class="edge">
<title>Node2&#45;&gt;Node3</title>
<g id="a_edge2_Node000002_Node000003"><a xlink:title=" ">
<path fill="none" stroke="#63b8ff" d="M357.12,-10.38C364.98,-10.38 372.98,-10.38 380.9,-10.38"/>
<polygon fill="#63b8ff" stroke="#63b8ff" points="380.87,-13.88 390.87,-10.38 380.87,-6.88 380.87,-13.88"/>
</a>
</g>
</g>
</g>
</svg>
