<?xml version="1.0" encoding="UTF-8" standalone="no"?>
<!DOCTYPE svg PUBLIC "-//W3C//DTD SVG 1.1//EN"
 "http://www.w3.org/Graphics/SVG/1.1/DTD/svg11.dtd">
<!-- Generated by graphviz version 12.1.2 (20240928.0832)
 -->
<!-- Title: state_machine.c Pages: 1 -->
<svg width="1774pt" height="496pt"
 viewBox="0.00 0.00 1773.78 495.50" xmlns="http://www.w3.org/2000/svg" xmlns:xlink="http://www.w3.org/1999/xlink">
<g id="graph0" class="graph" transform="scale(1 1) rotate(0) translate(4 491.5)">
<title>state_machine.c</title>
<!-- Node1 -->
<g id="Node000001" class="node">
<title>Node1</title>
<g id="a_Node000001"><a xlink:title=" ">
<polygon fill="#999999" stroke="#666666" points="994.78,-487.5 898.53,-487.5 898.53,-466.75 994.78,-466.75 994.78,-487.5"/>
<text text-anchor="middle" x="946.65" y="-474" font-family="Helvetica,sans-Serif" font-size="10.00">state_machine.c</text>
</a>
</g>
</g>
<!-- Node2 -->
<g id="Node000002" class="node">
<title>Node2</title>
<g id="a_Node000002"><a xlink:href="state__machine_8h.html" target="_top" xlink:title=" ">
<polygon fill="white" stroke="#666666" points="560.15,-430.75 463.15,-430.75 463.15,-410 560.15,-410 560.15,-430.75"/>
<text text-anchor="middle" x="511.65" y="-417.25" font-family="Helvetica,sans-Serif" font-size="10.00">state_machine.h</text>
</a>
</g>
</g>
<!-- Node1&#45;&gt;Node2 -->
<g id="edge1_Node000001_Node000002" class="edge">
<title>Node1&#45;&gt;Node2</title>
<g id="a_edge1_Node000001_Node000002"><a xlink:title=" ">
<path fill="none" stroke="#63b8ff" d="M898.44,-470.06C818.52,-460 658.8,-439.9 571.7,-428.93"/>
<polygon fill="#63b8ff" stroke="#63b8ff" points="572.28,-425.48 561.92,-427.7 571.4,-432.42 572.28,-425.48"/>
</a>
</g>
</g>
<!-- Node3 -->
<g id="Node000003" class="node">
<title>Node3</title>
<g id="a_Node000003"><a xlink:href="node_8h.html" target="_top" xlink:title=" ">
<polygon fill="white" stroke="#666666" points="319.65,-191 201.65,-191 201.65,-170.25 319.65,-170.25 319.65,-191"/>
<text text-anchor="middle" x="260.65" y="-177.5" font-family="Helvetica,sans-Serif" font-size="10.00">vlcb/common/node.h</text>
</a>
</g>
</g>
<!-- Node1&#45;&gt;Node3 -->
<g id="edge62_Node000001_Node000003" class="edge">
<title>Node1&#45;&gt;Node3</title>
<g id="a_edge62_Node000001_Node000003"><a xlink:title=" ">
<path fill="none" stroke="#63b8ff" d="M898.17,-473.91C791.06,-468.64 537.2,-454.06 454.65,-430.75 390.74,-412.7 320.65,-431.04 320.65,-364.62 320.65,-364.62 320.65,-364.62 320.65,-305.88 320.65,-269.82 318.48,-258.89 301.65,-227 296.25,-216.77 288.02,-207.02 280.34,-199.21"/>
<polygon fill="#63b8ff" stroke="#63b8ff" points="282.82,-196.73 273.19,-192.33 277.97,-201.78 282.82,-196.73"/>
</a>
</g>
</g>
<!-- Node5 -->
<g id="Node000005" class="node">
<title>Node5</title>
<g id="a_Node000005"><a xlink:href="module_2inc_2vlcb_2module_8h.html" target="_top" xlink:title=" ">
<polygon fill="white" stroke="#666666" points="630.15,-374 545.15,-374 545.15,-353.25 630.15,-353.25 630.15,-374"/>
<text text-anchor="middle" x="587.65" y="-360.5" font-family="Helvetica,sans-Serif" font-size="10.00">vlcb/module.h</text>
</a>
</g>
</g>
<!-- Node1&#45;&gt;Node5 -->
<g id="edge63_Node000001_Node000005" class="edge">
<title>Node1&#45;&gt;Node5</title>
<g id="a_edge63_Node000001_Node000005"><a xlink:title=" ">
<path fill="none" stroke="#63b8ff" d="M915.11,-466.33C850.42,-446.24 702.7,-400.36 629.86,-377.73"/>
<polygon fill="#63b8ff" stroke="#63b8ff" points="631.29,-374.51 620.7,-374.89 629.21,-381.2 631.29,-374.51"/>
</a>
</g>
</g>
<!-- Node10 -->
<g id="Node000010" class="node">
<title>Node10</title>
<g id="a_Node000010"><a xlink:href="state_8h.html" target="_top" xlink:title=" ">
<polygon fill="white" stroke="#666666" points="293.03,-254.12 180.28,-254.12 180.28,-233.38 293.03,-233.38 293.03,-254.12"/>
<text text-anchor="middle" x="236.65" y="-240.62" font-family="Helvetica,sans-Serif" font-size="10.00">vlcb/module/state.h</text>
</a>
</g>
</g>
<!-- Node1&#45;&gt;Node10 -->
<g id="edge64_Node000001_Node000010" class="edge">
<title>Node1&#45;&gt;Node10</title>
<g id="a_edge64_Node000001_Node000010"><a xlink:title=" ">
<path fill="none" stroke="#63b8ff" d="M898.14,-475.66C757.03,-473.91 353.7,-465.84 306.65,-430.75 253.36,-391 240.63,-305.72 237.6,-265.96"/>
<polygon fill="#63b8ff" stroke="#63b8ff" points="241.1,-265.84 237,-256.07 234.11,-266.27 241.1,-265.84"/>
</a>
</g>
</g>
<!-- Node11 -->
<g id="Node000011" class="node">
<title>Node11</title>
<g id="a_Node000011"><a xlink:href="time_8h.html" target="_top" xlink:title=" ">
<polygon fill="white" stroke="#666666" points="127.53,-191 11.78,-191 11.78,-170.25 127.53,-170.25 127.53,-191"/>
<text text-anchor="middle" x="69.65" y="-177.5" font-family="Helvetica,sans-Serif" font-size="10.00">vlcb/platform/time.h</text>
</a>
</g>
</g>
<!-- Node1&#45;&gt;Node11 -->
<g id="edge76_Node000001_Node000011" class="edge">
<title>Node1&#45;&gt;Node11</title>
<g id="a_edge76_Node000001_Node000011"><a xlink:title=" ">
<path fill="none" stroke="#63b8ff" d="M898.18,-476.27C764.85,-476.14 395.04,-471.95 281.65,-430.75 169.05,-389.83 118.71,-371.1 72.65,-260.5 64.93,-241.95 65.07,-218.78 66.6,-202.36"/>
<polygon fill="#63b8ff" stroke="#63b8ff" points="70.03,-203.16 67.75,-192.81 63.08,-202.32 70.03,-203.16"/>
</a>
</g>
</g>
<!-- Node13 -->
<g id="Node000013" class="node">
<title>Node13</title>
<g id="a_Node000013"><a xlink:href="interface_8h.html" target="_top" xlink:title=" ">
<polygon fill="white" stroke="#666666" points="1262.03,-191 1125.28,-191 1125.28,-170.25 1262.03,-170.25 1262.03,-191"/>
<text text-anchor="middle" x="1193.65" y="-177.5" font-family="Helvetica,sans-Serif" font-size="10.00">vlcb/platform/interface.h</text>
</a>
</g>
</g>
<!-- Node1&#45;&gt;Node13 -->
<g id="edge75_Node000001_Node000013" class="edge">
<title>Node1&#45;&gt;Node13</title>
<g id="a_edge75_Node000001_Node000013"><a xlink:title=" ">
<path fill="none" stroke="#63b8ff" d="M995.04,-474.71C1065.66,-469.77 1188.65,-449.05 1188.65,-364.62 1188.65,-364.62 1188.65,-364.62 1188.65,-305.88 1188.65,-269.47 1190.82,-227.12 1192.3,-202.45"/>
<polygon fill="#63b8ff" stroke="#63b8ff" points="1195.77,-203 1192.9,-192.8 1188.79,-202.56 1195.77,-203"/>
</a>
</g>
</g>
<!-- Node14 -->
<g id="Node000014" class="node">
<title>Node14</title>
<g id="a_Node000014"><a xlink:title=" ">
<polygon fill="#e0e0e0" stroke="#999999" points="1124.15,-134.25 1069.15,-134.25 1069.15,-113.5 1124.15,-113.5 1124.15,-134.25"/>
<text text-anchor="middle" x="1096.65" y="-120.75" font-family="Helvetica,sans-Serif" font-size="10.00">stddef.h</text>
</a>
</g>
</g>
<!-- Node1&#45;&gt;Node14 -->
<g id="edge79_Node000001_Node000014" class="edge">
<title>Node1&#45;&gt;Node14</title>
<g id="a_edge79_Node000001_Node000014"><a xlink:title=" ">
<path fill="none" stroke="#63b8ff" d="M995.07,-470.64C1089.62,-458.58 1289.65,-425.83 1289.65,-364.62 1289.65,-364.62 1289.65,-364.62 1289.65,-242.75 1289.65,-209.44 1294.22,-193.79 1270.65,-170.25 1270.58,-170.17 1186.89,-148.37 1135.62,-135.02"/>
<polygon fill="#63b8ff" stroke="#63b8ff" points="1136.62,-131.66 1126.06,-132.53 1134.85,-138.44 1136.62,-131.66"/>
</a>
</g>
</g>
<!-- Node16 -->
<g id="Node000016" class="node">
<title>Node16</title>
<g id="a_Node000016"><a xlink:title=" ">
<polygon fill="#e0e0e0" stroke="#999999" points="490.15,-77.5 429.15,-77.5 429.15,-56.75 490.15,-56.75 490.15,-77.5"/>
<text text-anchor="middle" x="459.65" y="-64" font-family="Helvetica,sans-Serif" font-size="10.00">stdbool.h</text>
</a>
</g>
</g>
<!-- Node1&#45;&gt;Node16 -->
<g id="edge78_Node000001_Node000016" class="edge">
<title>Node1&#45;&gt;Node16</title>
<g id="a_edge78_Node000001_Node000016"><a xlink:title=" ">
<path fill="none" stroke="#63b8ff" d="M898.18,-476.27C764.85,-476.14 395.04,-471.95 281.65,-430.75 127.99,-374.91 64.23,-342.45 2.65,-191 -29.84,-111.08 298.52,-79.6 417.55,-70.86"/>
<polygon fill="#63b8ff" stroke="#63b8ff" points="417.49,-74.37 427.22,-70.17 416.99,-67.39 417.49,-74.37"/>
</a>
</g>
</g>
<!-- Node22 -->
<g id="Node000022" class="node">
<title>Node22</title>
<g id="a_Node000022"><a xlink:href="socket_8h.html" target="_top" xlink:title=" ">
<polygon fill="white" stroke="#666666" points="977.9,-254.12 921.4,-254.12 921.4,-233.38 977.9,-233.38 977.9,-254.12"/>
<text text-anchor="middle" x="949.65" y="-240.62" font-family="Helvetica,sans-Serif" font-size="10.00">socket.h</text>
</a>
</g>
</g>
<!-- Node1&#45;&gt;Node22 -->
<g id="edge73_Node000001_Node000022" class="edge">
<title>Node1&#45;&gt;Node22</title>
<g id="a_edge73_Node000001_Node000022"><a xlink:title=" ">
<path fill="none" stroke="#63b8ff" d="M947.56,-466.39C949.97,-439.41 956.16,-361.37 953.65,-296.5 953.26,-286.35 952.44,-275.1 951.64,-265.69"/>
<polygon fill="#63b8ff" stroke="#63b8ff" points="955.13,-265.43 950.75,-255.78 948.16,-266.06 955.13,-265.43"/>
</a>
</g>
</g>
<!-- Node24 -->
<g id="Node000024" class="node">
<title>Node24</title>
<g id="a_Node000024"><a xlink:href="socket_2datagram_8h.html" target="_top" xlink:title=" ">
<polygon fill="white" stroke="#666666" points="945.03,-317.25 796.28,-317.25 796.28,-296.5 945.03,-296.5 945.03,-317.25"/>
<text text-anchor="middle" x="870.65" y="-303.75" font-family="Helvetica,sans-Serif" font-size="10.00">vlcb/net/socket/datagram.h</text>
</a>
</g>
</g>
<!-- Node1&#45;&gt;Node24 -->
<g id="edge74_Node000001_Node000024" class="edge">
<title>Node1&#45;&gt;Node24</title>
<g id="a_edge74_Node000001_Node000024"><a xlink:title=" ">
<path fill="none" stroke="#63b8ff" d="M942.35,-466.6C930.33,-440 896.24,-364.52 879.77,-328.07"/>
<polygon fill="#63b8ff" stroke="#63b8ff" points="883.03,-326.77 875.72,-319.1 876.65,-329.65 883.03,-326.77"/>
</a>
</g>
</g>
<!-- Node25 -->
<g id="Node000025" class="node">
<title>Node25</title>
<g id="a_Node000025"><a xlink:href="packet_2datagram_8h.html" target="_top" xlink:title=" ">
<polygon fill="white" stroke="#666666" points="1433.9,-191 1317.4,-191 1317.4,-170.25 1433.9,-170.25 1433.9,-191"/>
<text text-anchor="middle" x="1375.65" y="-177.5" font-family="Helvetica,sans-Serif" font-size="10.00">../packet/datagram.h</text>
</a>
</g>
</g>
<!-- Node1&#45;&gt;Node25 -->
<g id="edge65_Node000001_Node000025" class="edge">
<title>Node1&#45;&gt;Node25</title>
<g id="a_edge65_Node000001_Node000025"><a xlink:title=" ">
<path fill="none" stroke="#63b8ff" d="M995.03,-476.07C1044.11,-473.94 1120.64,-464.76 1176.65,-430.75 1272.81,-372.35 1341.72,-249.66 1366.03,-201.56"/>
<polygon fill="#63b8ff" stroke="#63b8ff" points="1369.16,-203.14 1370.46,-192.63 1362.88,-200.04 1369.16,-203.14"/>
</a>
</g>
</g>
<!-- Node27 -->
<g id="Node000027" class="node">
<title>Node27</title>
<g id="a_Node000027"><a xlink:href="net_2inc_2vlcb_2net_2packet_2datagram_2module_8h.html" target="_top" xlink:title=" ">
<polygon fill="white" stroke="#666666" points="1531.9,-260.5 1391.4,-260.5 1391.4,-227 1531.9,-227 1531.9,-260.5"/>
<text text-anchor="start" x="1399.4" y="-247" font-family="Helvetica,sans-Serif" font-size="10.00">vlcb/net/packet/datagram</text>
<text text-anchor="middle" x="1461.65" y="-234.25" font-family="Helvetica,sans-Serif" font-size="10.00">/module.h</text>
</a>
</g>
</g>
<!-- Node1&#45;&gt;Node27 -->
<g id="edge66_Node000001_Node000027" class="edge">
<title>Node1&#45;&gt;Node27</title>
<g id="a_edge66_Node000001_Node000027"><a xlink:title=" ">
<path fill="none" stroke="#63b8ff" d="M995.2,-474.27C1080.09,-470.32 1251.47,-459.02 1303.65,-430.75 1372.71,-393.34 1424.6,-312.59 1447.98,-270.87"/>
<polygon fill="#63b8ff" stroke="#63b8ff" points="1450.96,-272.7 1452.7,-262.25 1444.82,-269.34 1450.96,-272.7"/>
</a>
</g>
</g>
<!-- Node29 -->
<g id="Node000029" class="node">
<title>Node29</title>
<g id="a_Node000029"><a xlink:title=" ">
<polygon fill="#e0e0e0" stroke="#999999" points="1449.15,-430.75 1394.15,-430.75 1394.15,-410 1449.15,-410 1449.15,-430.75"/>
<text text-anchor="middle" x="1421.65" y="-417.25" font-family="Helvetica,sans-Serif" font-size="10.00">assert.h</text>
</a>
</g>
</g>
<!-- Node1&#45;&gt;Node29 -->
<g id="edge77_Node000001_Node000029" class="edge">
<title>Node1&#45;&gt;Node29</title>
<g id="a_edge77_Node000001_Node000029"><a xlink:title=" ">
<path fill="none" stroke="#63b8ff" d="M995.27,-472.87C1075.64,-467.07 1241.09,-453.4 1379.65,-430.75 1380.65,-430.59 1381.66,-430.41 1382.68,-430.23"/>
<polygon fill="#63b8ff" stroke="#63b8ff" points="1383.1,-433.72 1392.24,-428.37 1381.75,-426.85 1383.1,-433.72"/>
</a>
</g>
</g>
<!-- Node30 -->
<g id="Node000030" class="node">
<title>Node30</title>
<g id="a_Node000030"><a xlink:title=" ">
<polygon fill="#e0e0e0" stroke="#999999" points="1520.03,-430.75 1467.28,-430.75 1467.28,-410 1520.03,-410 1520.03,-430.75"/>
<text text-anchor="middle" x="1493.65" y="-417.25" font-family="Helvetica,sans-Serif" font-size="10.00">string.h</text>
</a>
</g>
</g>
<!-- Node1&#45;&gt;Node30 -->
<g id="edge80_Node000001_Node000030" class="edge">
<title>Node1&#45;&gt;Node30</title>
<g id="a_edge80_Node000001_Node000030"><a xlink:title=" ">
<path fill="none" stroke="#63b8ff" d="M995.02,-474.63C1084.38,-471.27 1281.43,-461.03 1455.82,-430.98"/>
<polygon fill="#63b8ff" stroke="#63b8ff" points="1456.27,-434.46 1465.52,-429.28 1455.06,-427.56 1456.27,-434.46"/>
</a>
</g>
</g>
<!-- Node2&#45;&gt;Node3 -->
<g id="edge2_Node000002_Node000003" class="edge">
<title>Node2&#45;&gt;Node3</title>
<g id="a_edge2_Node000002_Node000003"><a xlink:title=" ">
<path fill="none" stroke="#63b8ff" d="M494.05,-409.53C466.42,-393.35 412.53,-358.74 378.65,-317.25 350.43,-282.69 364.65,-260.04 334.65,-227 323.16,-214.34 307.32,-203.99 293.24,-196.39"/>
<polygon fill="#63b8ff" stroke="#63b8ff" points="295.23,-193.48 284.73,-192.03 292.04,-199.71 295.23,-193.48"/>
</a>
</g>
</g>
<!-- Node2&#45;&gt;Node5 -->
<g id="edge4_Node000002_Node000005" class="edge">
<title>Node2&#45;&gt;Node5</title>
<g id="a_edge4_Node000002_Node000005"><a xlink:title=" ">
<path fill="none" stroke="#63b8ff" d="M525.24,-409.59C536.26,-401.65 552.04,-390.28 564.97,-380.96"/>
<polygon fill="#63b8ff" stroke="#63b8ff" points="566.89,-383.9 572.95,-375.21 562.79,-378.22 566.89,-383.9"/>
</a>
</g>
</g>
<!-- Node2&#45;&gt;Node11 -->
<g id="edge61_Node000002_Node000011" class="edge">
<title>Node2&#45;&gt;Node11</title>
<g id="a_edge61_Node000002_Node000011"><a xlink:title=" ">
<path fill="none" stroke="#63b8ff" d="M462.7,-416.27C373.68,-407.81 185.92,-376.43 92.65,-260.5 79.33,-243.95 73.73,-219.96 71.37,-202.78"/>
<polygon fill="#63b8ff" stroke="#63b8ff" points="74.86,-202.52 70.3,-192.96 67.9,-203.28 74.86,-202.52"/>
</a>
</g>
</g>
<!-- Node4 -->
<g id="Node000004" class="node">
<title>Node4</title>
<g id="a_Node000004"><a xlink:title=" ">
<polygon fill="#e0e0e0" stroke="#999999" points="714.03,-77.5 649.28,-77.5 649.28,-56.75 714.03,-56.75 714.03,-77.5"/>
<text text-anchor="middle" x="681.65" y="-64" font-family="Helvetica,sans-Serif" font-size="10.00">inttypes.h</text>
</a>
</g>
</g>
<!-- Node3&#45;&gt;Node4 -->
<g id="edge3_Node000003_Node000004" class="edge">
<title>Node3&#45;&gt;Node4</title>
<g id="a_edge3_Node000003_Node000004"><a xlink:title=" ">
<path fill="none" stroke="#63b8ff" d="M297.64,-169.83C375.26,-149.27 554.77,-101.73 637.92,-79.71"/>
<polygon fill="#63b8ff" stroke="#63b8ff" points="638.76,-83.11 647.53,-77.16 636.97,-76.34 638.76,-83.11"/>
</a>
</g>
</g>
<!-- Node5&#45;&gt;Node3 -->
<g id="edge5_Node000005_Node000003" class="edge">
<title>Node5&#45;&gt;Node3</title>
<g id="a_edge5_Node000005_Node000003"><a xlink:title=" ">
<path fill="none" stroke="#63b8ff" d="M580.59,-352.97C569.97,-338.99 548.67,-313 525.65,-296.5 456.07,-246.62 361.43,-212.17 306.1,-194.77"/>
<polygon fill="#63b8ff" stroke="#63b8ff" points="307.28,-191.47 296.7,-191.86 305.22,-198.15 307.28,-191.47"/>
</a>
</g>
</g>
<!-- Node6 -->
<g id="Node000006" class="node">
<title>Node6</title>
<g id="a_Node000006"><a xlink:href="inc_2vlcb_2module_2param_8h.html" target="_top" xlink:title=" ">
<polygon fill="white" stroke="#666666" points="1509.4,-134.25 1389.9,-134.25 1389.9,-113.5 1509.4,-113.5 1509.4,-134.25"/>
<text text-anchor="middle" x="1449.65" y="-120.75" font-family="Helvetica,sans-Serif" font-size="10.00">vlcb/module/param.h</text>
</a>
</g>
</g>
<!-- Node5&#45;&gt;Node6 -->
<g id="edge6_Node000005_Node000006" class="edge">
<title>Node5&#45;&gt;Node6</title>
<g id="a_edge6_Node000005_Node000006"><a xlink:title=" ">
<path fill="none" stroke="#63b8ff" d="M630.46,-359.06C699.07,-352.97 837.71,-339.04 953.65,-317.25 1008.8,-306.89 1406.08,-233.56 1442.65,-191 1453.13,-178.81 1454.28,-160.32 1453.15,-145.99"/>
<polygon fill="#63b8ff" stroke="#63b8ff" points="1456.64,-145.72 1451.94,-136.23 1449.7,-146.59 1456.64,-145.72"/>
</a>
</g>
</g>
<!-- Node7 -->
<g id="Node000007" class="node">
<title>Node7</title>
<g id="a_Node000007"><a xlink:title=" ">
<polygon fill="#e0e0e0" stroke="#999999" points="897.03,-20.75 844.28,-20.75 844.28,0 897.03,0 897.03,-20.75"/>
<text text-anchor="middle" x="870.65" y="-7.25" font-family="Helvetica,sans-Serif" font-size="10.00">stdint.h</text>
</a>
</g>
</g>
<!-- Node5&#45;&gt;Node7 -->
<g id="edge60_Node000005_Node000007" class="edge">
<title>Node5&#45;&gt;Node7</title>
<g id="a_edge60_Node000005_Node000007"><a xlink:title=" ">
<path fill="none" stroke="#63b8ff" d="M622.98,-352.78C668.45,-337.69 741.65,-304.18 741.65,-244.75 741.65,-244.75 741.65,-244.75 741.65,-122.88 741.65,-73.9 795.53,-41.66 833.65,-24.98"/>
<polygon fill="#63b8ff" stroke="#63b8ff" points="834.65,-28.35 842.53,-21.27 831.95,-21.89 834.65,-28.35"/>
</a>
</g>
</g>
<!-- Node5&#45;&gt;Node10 -->
<g id="edge12_Node000005_Node000010" class="edge">
<title>Node5&#45;&gt;Node10</title>
<g id="a_edge12_Node000005_Node000010"><a xlink:title=" ">
<path fill="none" stroke="#63b8ff" d="M576.99,-352.84C560.45,-338.21 527.02,-310.84 493.65,-296.5 432.68,-270.3 357.8,-257.16 304.63,-250.7"/>
<polygon fill="#63b8ff" stroke="#63b8ff" points="305.13,-247.23 294.79,-249.56 304.32,-254.19 305.13,-247.23"/>
</a>
</g>
</g>
<!-- Node5&#45;&gt;Node11 -->
<g id="edge59_Node000005_Node000011" class="edge">
<title>Node5&#45;&gt;Node11</title>
<g id="a_edge59_Node000005_Node000011"><a xlink:title=" ">
<path fill="none" stroke="#63b8ff" d="M544.96,-362.77C459.1,-361.1 262.34,-347.3 128.65,-260.5 106.2,-245.92 89.15,-219.69 79.29,-201.5"/>
<polygon fill="#63b8ff" stroke="#63b8ff" points="82.47,-200.03 74.78,-192.73 76.24,-203.23 82.47,-200.03"/>
</a>
</g>
</g>
<!-- Node12 -->
<g id="Node000012" class="node">
<title>Node12</title>
<g id="a_Node000012"><a xlink:href="ui_8h.html" target="_top" xlink:title=" ">
<polygon fill="white" stroke="#666666" points="484.15,-317.25 387.15,-317.25 387.15,-296.5 484.15,-296.5 484.15,-317.25"/>
<text text-anchor="middle" x="435.65" y="-303.75" font-family="Helvetica,sans-Serif" font-size="10.00">vlcb/module/ui.h</text>
</a>
</g>
</g>
<!-- Node5&#45;&gt;Node12 -->
<g id="edge17_Node000005_Node000012" class="edge">
<title>Node5&#45;&gt;Node12</title>
<g id="a_edge17_Node000005_Node000012"><a xlink:title=" ">
<path fill="none" stroke="#63b8ff" d="M560.48,-352.84C536.24,-344.11 500.5,-331.23 473.47,-321.5"/>
<polygon fill="#63b8ff" stroke="#63b8ff" points="474.87,-318.28 464.27,-318.18 472.49,-324.87 474.87,-318.28"/>
</a>
</g>
</g>
<!-- Node15 -->
<g id="Node000015" class="node">
<title>Node15</title>
<g id="a_Node000015"><a xlink:href="iface_8h.html" target="_top" xlink:title=" ">
<polygon fill="white" stroke="#666666" points="670.15,-317.25 579.15,-317.25 579.15,-296.5 670.15,-296.5 670.15,-317.25"/>
<text text-anchor="middle" x="624.65" y="-303.75" font-family="Helvetica,sans-Serif" font-size="10.00">vlcb/net/iface.h</text>
</a>
</g>
</g>
<!-- Node5&#45;&gt;Node15 -->
<g id="edge22_Node000005_Node000015" class="edge">
<title>Node5&#45;&gt;Node15</title>
<g id="a_edge22_Node000005_Node000015"><a xlink:title=" ">
<path fill="none" stroke="#63b8ff" d="M594.27,-352.84C599.11,-345.67 605.83,-335.73 611.72,-327.01"/>
<polygon fill="#63b8ff" stroke="#63b8ff" points="614.55,-329.08 617.25,-318.83 608.75,-325.16 614.55,-329.08"/>
</a>
</g>
</g>
<!-- Node5&#45;&gt;Node24 -->
<g id="edge47_Node000005_Node000024" class="edge">
<title>Node5&#45;&gt;Node24</title>
<g id="a_edge47_Node000005_Node000024"><a xlink:title=" ">
<path fill="none" stroke="#63b8ff" d="M630.63,-354.31C678.13,-345.12 755.02,-330.25 808.94,-319.81"/>
<polygon fill="#63b8ff" stroke="#63b8ff" points="809.44,-323.28 818.59,-317.95 808.11,-316.41 809.44,-323.28"/>
</a>
</g>
</g>
<!-- Node6&#45;&gt;Node7 -->
<g id="edge7_Node000006_Node000007" class="edge">
<title>Node6&#45;&gt;Node7</title>
<g id="a_edge7_Node000006_Node000007"><a xlink:title=" ">
<path fill="none" stroke="#63b8ff" d="M1413.4,-113.08C1361,-99.17 1260.93,-73.53 1174.65,-56.75 1079.34,-38.21 965.93,-23.1 908.31,-15.91"/>
<polygon fill="#63b8ff" stroke="#63b8ff" points="909.07,-12.48 898.72,-14.73 908.21,-19.43 909.07,-12.48"/>
</a>
</g>
</g>
<!-- Node8 -->
<g id="Node000008" class="node">
<title>Node8</title>
<g id="a_Node000008"><a xlink:href="common_2inc_2vlcb_2common_2module_8h.html" target="_top" xlink:title=" ">
<polygon fill="white" stroke="#666666" points="1515.03,-77.5 1384.28,-77.5 1384.28,-56.75 1515.03,-56.75 1515.03,-77.5"/>
<text text-anchor="middle" x="1449.65" y="-64" font-family="Helvetica,sans-Serif" font-size="10.00">vlcb/common/module.h</text>
</a>
</g>
</g>
<!-- Node6&#45;&gt;Node8 -->
<g id="edge8_Node000006_Node000008" class="edge">
<title>Node6&#45;&gt;Node8</title>
<g id="a_edge8_Node000006_Node000008"><a xlink:title=" ">
<path fill="none" stroke="#63b8ff" d="M1449.65,-113.09C1449.65,-106.47 1449.65,-97.47 1449.65,-89.27"/>
<polygon fill="#63b8ff" stroke="#63b8ff" points="1453.15,-89.34 1449.65,-79.34 1446.15,-89.34 1453.15,-89.34"/>
</a>
</g>
</g>
<!-- Node9 -->
<g id="Node000009" class="node">
<title>Node9</title>
<g id="a_Node000009"><a xlink:href="vlcb__defs_8h.html" target="_top" xlink:title=" ">
<polygon fill="white" stroke="#666666" points="1165.9,-77.5 1025.4,-77.5 1025.4,-56.75 1165.9,-56.75 1165.9,-77.5"/>
<text text-anchor="middle" x="1095.65" y="-64" font-family="Helvetica,sans-Serif" font-size="10.00">vlcb/common/vlcb_defs.h</text>
</a>
</g>
</g>
<!-- Node6&#45;&gt;Node9 -->
<g id="edge10_Node000006_Node000009" class="edge">
<title>Node6&#45;&gt;Node9</title>
<g id="a_edge10_Node000006_Node000009"><a xlink:title=" ">
<path fill="none" stroke="#63b8ff" d="M1389.6,-113.59C1329.09,-104.23 1235.57,-89.77 1170.32,-79.67"/>
<polygon fill="#63b8ff" stroke="#63b8ff" points="1171.2,-76.27 1160.79,-78.2 1170.13,-83.19 1171.2,-76.27"/>
</a>
</g>
</g>
<!-- Node8&#45;&gt;Node7 -->
<g id="edge9_Node000008_Node000007" class="edge">
<title>Node8&#45;&gt;Node7</title>
<g id="a_edge9_Node000008_Node000007"><a xlink:title=" ">
<path fill="none" stroke="#63b8ff" d="M1383.8,-59.9C1262.02,-48.38 1005.24,-24.1 908.55,-14.96"/>
<polygon fill="#63b8ff" stroke="#63b8ff" points="909.1,-11.5 898.82,-14.04 908.45,-18.46 909.1,-11.5"/>
</a>
</g>
</g>
<!-- Node9&#45;&gt;Node7 -->
<g id="edge11_Node000009_Node000007" class="edge">
<title>Node9&#45;&gt;Node7</title>
<g id="a_edge11_Node000009_Node000007"><a xlink:title=" ">
<path fill="none" stroke="#63b8ff" d="M1055.17,-56.27C1013.51,-46.14 949.12,-30.47 908.46,-20.58"/>
<polygon fill="#63b8ff" stroke="#63b8ff" points="909.43,-17.21 898.88,-18.25 907.77,-24.01 909.43,-17.21"/>
</a>
</g>
</g>
<!-- Node10&#45;&gt;Node3 -->
<g id="edge13_Node000010_Node000003" class="edge">
<title>Node10&#45;&gt;Node3</title>
<g id="a_edge13_Node000010_Node000003"><a xlink:title=" ">
<path fill="none" stroke="#63b8ff" d="M240.51,-232.93C243.78,-224.59 248.59,-212.36 252.68,-201.93"/>
<polygon fill="#63b8ff" stroke="#63b8ff" points="255.93,-203.22 256.33,-192.63 249.42,-200.66 255.93,-203.22"/>
</a>
</g>
</g>
<!-- Node10&#45;&gt;Node7 -->
<g id="edge16_Node000010_Node000007" class="edge">
<title>Node10&#45;&gt;Node7</title>
<g id="a_edge16_Node000010_Node000007"><a xlink:title=" ">
<path fill="none" stroke="#63b8ff" d="M223.34,-233.1C205.82,-219.17 178.78,-192.66 192.65,-170.25 252.25,-74.01 311.9,-88.16 420.65,-56.75 568.64,-14 754.08,-10.13 832.66,-10.65"/>
<polygon fill="#63b8ff" stroke="#63b8ff" points="832.35,-14.14 842.39,-10.74 832.42,-7.14 832.35,-14.14"/>
</a>
</g>
</g>
<!-- Node10&#45;&gt;Node11 -->
<g id="edge14_Node000010_Node000011" class="edge">
<title>Node10&#45;&gt;Node11</title>
<g id="a_edge14_Node000010_Node000011"><a xlink:title=" ">
<path fill="none" stroke="#63b8ff" d="M209.82,-232.93C181.94,-222.73 138.11,-206.68 106.89,-195.25"/>
<polygon fill="#63b8ff" stroke="#63b8ff" points="108.43,-192.09 97.84,-191.94 106.03,-198.67 108.43,-192.09"/>
</a>
</g>
</g>
<!-- Node11&#45;&gt;Node11 -->
<g id="edge15_Node000011_Node000011" class="edge">
<title>Node11&#45;&gt;Node11</title>
<g id="a_edge15_Node000011_Node000011"><a xlink:title=" ">
<path fill="none" stroke="#63b8ff" d="M127.87,-190.64C138.26,-189.34 145.53,-186 145.53,-180.62 145.53,-177.52 143.1,-175.09 139.04,-173.34"/>
<polygon fill="#63b8ff" stroke="#63b8ff" points="139.88,-169.95 129.34,-170.97 138.22,-176.75 139.88,-169.95"/>
</a>
</g>
</g>
<!-- Node12&#45;&gt;Node10 -->
<g id="edge18_Node000012_Node000010" class="edge">
<title>Node12&#45;&gt;Node10</title>
<g id="a_edge18_Node000012_Node000010"><a xlink:title=" ">
<path fill="none" stroke="#63b8ff" d="M403.68,-296.05C369.88,-285.67 316.4,-269.24 279.09,-257.78"/>
<polygon fill="#63b8ff" stroke="#63b8ff" points="280.58,-254.58 269.99,-254.99 278.52,-261.27 280.58,-254.58"/>
</a>
</g>
</g>
<!-- Node12&#45;&gt;Node11 -->
<g id="edge21_Node000012_Node000011" class="edge">
<title>Node12&#45;&gt;Node11</title>
<g id="a_edge21_Node000012_Node000011"><a xlink:title=" ">
<path fill="none" stroke="#63b8ff" d="M386.89,-304.56C332.31,-301.52 242.27,-291.7 171.65,-260.5 149.49,-250.71 147.81,-241.83 128.65,-227 116.32,-217.46 102.51,-206.83 91.35,-198.26"/>
<polygon fill="#63b8ff" stroke="#63b8ff" points="93.59,-195.57 83.53,-192.26 89.33,-201.12 93.59,-195.57"/>
</a>
</g>
</g>
<!-- Node12&#45;&gt;Node13 -->
<g id="edge19_Node000012_Node000013" class="edge">
<title>Node12&#45;&gt;Node13</title>
<g id="a_edge19_Node000012_Node000013"><a xlink:title=" ">
<path fill="none" stroke="#63b8ff" d="M484.43,-302.34C614.71,-292.84 962.59,-267.01 986.65,-260.5 1019.95,-251.49 1024.66,-239.89 1056.65,-227 1087.09,-214.74 1122.23,-203.14 1149.31,-194.75"/>
<polygon fill="#63b8ff" stroke="#63b8ff" points="1150.03,-198.19 1158.56,-191.91 1147.97,-191.5 1150.03,-198.19"/>
</a>
</g>
</g>
<!-- Node13&#45;&gt;Node14 -->
<g id="edge20_Node000013_Node000014" class="edge">
<title>Node13&#45;&gt;Node14</title>
<g id="a_edge20_Node000013_Node000014"><a xlink:title=" ">
<path fill="none" stroke="#63b8ff" d="M1176.31,-169.84C1161.69,-161.58 1140.52,-149.63 1123.67,-140.13"/>
<polygon fill="#63b8ff" stroke="#63b8ff" points="1125.59,-137.19 1115.16,-135.32 1122.15,-143.29 1125.59,-137.19"/>
</a>
</g>
</g>
<!-- Node15&#45;&gt;Node16 -->
<g id="edge23_Node000015_Node000016" class="edge">
<title>Node15&#45;&gt;Node16</title>
<g id="a_edge23_Node000015_Node000016"><a xlink:title=" ">
<path fill="none" stroke="#63b8ff" d="M601.73,-296.17C545.57,-272.16 404.77,-210.52 392.65,-191 383.33,-175.99 389.3,-134.49 401.65,-113.5 408.65,-101.61 420.06,-91.68 430.92,-84.17"/>
<polygon fill="#63b8ff" stroke="#63b8ff" points="432.79,-87.13 439.32,-78.78 429.01,-81.23 432.79,-87.13"/>
</a>
</g>
</g>
<!-- Node17 -->
<g id="Node000017" class="node">
<title>Node17</title>
<g id="a_Node000017"><a xlink:href="adapter_8h.html" target="_top" xlink:title=" ">
<polygon fill="white" stroke="#666666" points="655.53,-254.12 593.78,-254.12 593.78,-233.38 655.53,-233.38 655.53,-254.12"/>
<text text-anchor="middle" x="624.65" y="-240.62" font-family="Helvetica,sans-Serif" font-size="10.00">adapter.h</text>
</a>
</g>
</g>
<!-- Node15&#45;&gt;Node17 -->
<g id="edge24_Node000015_Node000017" class="edge">
<title>Node15&#45;&gt;Node17</title>
<g id="a_edge24_Node000015_Node000017"><a xlink:title=" ">
<path fill="none" stroke="#63b8ff" d="M624.65,-296.05C624.65,-287.9 624.65,-276.01 624.65,-265.73"/>
<polygon fill="#63b8ff" stroke="#63b8ff" points="628.15,-265.86 624.65,-255.86 621.15,-265.86 628.15,-265.86"/>
</a>
</g>
</g>
<!-- Node15&#45;&gt;Node22 -->
<g id="edge38_Node000015_Node000022" class="edge">
<title>Node15&#45;&gt;Node22</title>
<g id="a_edge38_Node000015_Node000022"><a xlink:title=" ">
<path fill="none" stroke="#63b8ff" d="M670.53,-297.25C734.64,-285.19 849.93,-263.51 910.32,-252.15"/>
<polygon fill="#63b8ff" stroke="#63b8ff" points="910.62,-255.65 919.8,-250.37 909.32,-248.77 910.62,-255.65"/>
</a>
</g>
</g>
<!-- Node17&#45;&gt;Node4 -->
<g id="edge25_Node000017_Node000004" class="edge">
<title>Node17&#45;&gt;Node4</title>
<g id="a_edge25_Node000017_Node000004"><a xlink:title=" ">
<path fill="none" stroke="#63b8ff" d="M610.45,-232.91C591.79,-218.74 563.11,-191.94 578.65,-170.25 607.63,-129.81 655.67,-174.69 684.65,-134.25 693.97,-121.24 692.27,-102.83 688.77,-88.73"/>
<polygon fill="#63b8ff" stroke="#63b8ff" points="692.13,-87.73 685.91,-79.15 685.42,-89.74 692.13,-87.73"/>
</a>
</g>
</g>
<!-- Node17&#45;&gt;Node13 -->
<g id="edge28_Node000017_Node000013" class="edge">
<title>Node17&#45;&gt;Node13</title>
<g id="a_edge28_Node000017_Node000013"><a xlink:title=" ">
<path fill="none" stroke="#63b8ff" d="M655.65,-239.42C741.75,-230.17 985.91,-203.94 1113.6,-190.22"/>
<polygon fill="#63b8ff" stroke="#63b8ff" points="1113.76,-193.73 1123.33,-189.18 1113.01,-186.77 1113.76,-193.73"/>
</a>
</g>
</g>
<!-- Node17&#45;&gt;Node16 -->
<g id="edge26_Node000017_Node000016" class="edge">
<title>Node17&#45;&gt;Node16</title>
<g id="a_edge26_Node000017_Node000016"><a xlink:title=" ">
<path fill="none" stroke="#63b8ff" d="M593.37,-237.59C535.48,-227.72 416.41,-205.84 404.65,-191 378.69,-158.22 415.88,-111.25 440.63,-85.93"/>
<polygon fill="#63b8ff" stroke="#63b8ff" points="443,-88.51 447.66,-78.99 438.08,-83.52 443,-88.51"/>
</a>
</g>
</g>
<!-- Node18 -->
<g id="Node000018" class="node">
<title>Node18</title>
<g id="a_Node000018"><a xlink:href="error_8h.html" target="_top" xlink:title=" ">
<polygon fill="white" stroke="#666666" points="1257.53,-134.25 1141.78,-134.25 1141.78,-113.5 1257.53,-113.5 1257.53,-134.25"/>
<text text-anchor="middle" x="1199.65" y="-120.75" font-family="Helvetica,sans-Serif" font-size="10.00">vlcb/platform/error.h</text>
</a>
</g>
</g>
<!-- Node17&#45;&gt;Node18 -->
<g id="edge27_Node000017_Node000018" class="edge">
<title>Node17&#45;&gt;Node18</title>
<g id="a_edge27_Node000017_Node000018"><a xlink:title=" ">
<path fill="none" stroke="#63b8ff" d="M655.99,-241.73C726.06,-238.84 900.3,-228.18 1040.65,-191 1087.96,-178.47 1139.78,-154.93 1171,-139.58"/>
<polygon fill="#63b8ff" stroke="#63b8ff" points="1172.4,-142.79 1179.79,-135.2 1169.27,-136.53 1172.4,-142.79"/>
</a>
</g>
</g>
<!-- Node19 -->
<g id="Node000019" class="node">
<title>Node19</title>
<g id="a_Node000019"><a xlink:href="packet_8h.html" target="_top" xlink:title=" ">
<polygon fill="white" stroke="#666666" points="531.65,-191 413.65,-191 413.65,-170.25 531.65,-170.25 531.65,-191"/>
<text text-anchor="middle" x="472.65" y="-177.5" font-family="Helvetica,sans-Serif" font-size="10.00">adapter/can/packet.h</text>
</a>
</g>
</g>
<!-- Node17&#45;&gt;Node19 -->
<g id="edge29_Node000017_Node000019" class="edge">
<title>Node17&#45;&gt;Node19</title>
<g id="a_edge29_Node000017_Node000019"><a xlink:title=" ">
<path fill="none" stroke="#63b8ff" d="M600.23,-232.93C575.19,-222.86 536,-207.1 507.67,-195.71"/>
<polygon fill="#63b8ff" stroke="#63b8ff" points="509,-192.47 498.42,-191.99 506.39,-198.96 509,-192.47"/>
</a>
</g>
</g>
<!-- Node21 -->
<g id="Node000021" class="node">
<title>Node21</title>
<g id="a_Node000021"><a xlink:href="addr_8h.html" target="_top" xlink:title=" ">
<polygon fill="white" stroke="#666666" points="675.65,-191 587.65,-191 587.65,-170.25 675.65,-170.25 675.65,-191"/>
<text text-anchor="middle" x="631.65" y="-177.5" font-family="Helvetica,sans-Serif" font-size="10.00">vlcb/net/addr.h</text>
</a>
</g>
</g>
<!-- Node17&#45;&gt;Node21 -->
<g id="edge36_Node000017_Node000021" class="edge">
<title>Node17&#45;&gt;Node21</title>
<g id="a_edge36_Node000017_Node000021"><a xlink:title=" ">
<path fill="none" stroke="#63b8ff" d="M625.78,-232.93C626.71,-224.77 628.07,-212.88 629.25,-202.6"/>
<polygon fill="#63b8ff" stroke="#63b8ff" points="632.72,-203.06 630.38,-192.72 625.77,-202.26 632.72,-203.06"/>
</a>
</g>
</g>
<!-- Node19&#45;&gt;Node16 -->
<g id="edge30_Node000019_Node000016" class="edge">
<title>Node19&#45;&gt;Node16</title>
<g id="a_edge30_Node000019_Node000016"><a xlink:title=" ">
<path fill="none" stroke="#63b8ff" d="M471.54,-170.12C469.46,-152.27 464.93,-113.36 462.1,-89.09"/>
<polygon fill="#63b8ff" stroke="#63b8ff" points="465.6,-88.96 460.97,-79.43 458.65,-89.77 465.6,-88.96"/>
</a>
</g>
</g>
<!-- Node20 -->
<g id="Node000020" class="node">
<title>Node20</title>
<g id="a_Node000020"><a xlink:href="common_2inc_2vlcb_2common_2can_8h.html" target="_top" xlink:title=" ">
<polygon fill="white" stroke="#666666" points="675.28,-134.25 564.03,-134.25 564.03,-113.5 675.28,-113.5 675.28,-134.25"/>
<text text-anchor="middle" x="619.65" y="-120.75" font-family="Helvetica,sans-Serif" font-size="10.00">vlcb/common/can.h</text>
</a>
</g>
</g>
<!-- Node19&#45;&gt;Node20 -->
<g id="edge31_Node000019_Node000020" class="edge">
<title>Node19&#45;&gt;Node20</title>
<g id="a_edge31_Node000019_Node000020"><a xlink:title=" ">
<path fill="none" stroke="#63b8ff" d="M498.93,-169.84C522.34,-161.12 556.84,-148.27 582.97,-138.54"/>
<polygon fill="#63b8ff" stroke="#63b8ff" points="584.03,-141.88 592.18,-135.11 581.59,-135.32 584.03,-141.88"/>
</a>
</g>
</g>
<!-- Node20&#45;&gt;Node4 -->
<g id="edge32_Node000020_Node000004" class="edge">
<title>Node20&#45;&gt;Node4</title>
<g id="a_edge32_Node000020_Node000004"><a xlink:title=" ">
<path fill="none" stroke="#63b8ff" d="M630.74,-113.09C639.46,-105.38 651.85,-94.45 662.21,-85.29"/>
<polygon fill="#63b8ff" stroke="#63b8ff" points="664.35,-88.07 669.53,-78.83 659.72,-82.83 664.35,-88.07"/>
</a>
</g>
</g>
<!-- Node20&#45;&gt;Node7 -->
<g id="edge34_Node000020_Node000007" class="edge">
<title>Node20&#45;&gt;Node7</title>
<g id="a_edge34_Node000020_Node000007"><a xlink:title=" ">
<path fill="none" stroke="#63b8ff" d="M619.8,-113.15C620.59,-98.61 624.3,-71.35 640.65,-56.75 668.55,-31.83 774.99,-19.3 832.78,-14.22"/>
<polygon fill="#63b8ff" stroke="#63b8ff" points="832.81,-17.73 842.48,-13.4 832.22,-10.75 832.81,-17.73"/>
</a>
</g>
</g>
<!-- Node20&#45;&gt;Node9 -->
<g id="edge35_Node000020_Node000009" class="edge">
<title>Node20&#45;&gt;Node9</title>
<g id="a_edge35_Node000020_Node000009"><a xlink:title=" ">
<path fill="none" stroke="#63b8ff" d="M675.66,-116.43C759.34,-106.81 917.49,-88.62 1014.03,-77.51"/>
<polygon fill="#63b8ff" stroke="#63b8ff" points="1014.16,-81.02 1023.7,-76.4 1013.36,-74.07 1014.16,-81.02"/>
</a>
</g>
</g>
<!-- Node20&#45;&gt;Node16 -->
<g id="edge33_Node000020_Node000016" class="edge">
<title>Node20&#45;&gt;Node16</title>
<g id="a_edge33_Node000020_Node000016"><a xlink:title=" ">
<path fill="none" stroke="#63b8ff" d="M591.05,-113.09C565.42,-104.32 527.58,-91.37 499.08,-81.62"/>
<polygon fill="#63b8ff" stroke="#63b8ff" points="500.31,-78.34 489.71,-78.41 498.04,-84.96 500.31,-78.34"/>
</a>
</g>
</g>
<!-- Node21&#45;&gt;Node20 -->
<g id="edge37_Node000021_Node000020" class="edge">
<title>Node21&#45;&gt;Node20</title>
<g id="a_edge37_Node000021_Node000020"><a xlink:title=" ">
<path fill="none" stroke="#63b8ff" d="M629.51,-169.84C628.04,-163.14 626.04,-154.01 624.22,-145.73"/>
<polygon fill="#63b8ff" stroke="#63b8ff" points="627.66,-145.08 622.1,-136.06 620.83,-146.57 627.66,-145.08"/>
</a>
</g>
</g>
<!-- Node22&#45;&gt;Node13 -->
<g id="edge46_Node000022_Node000013" class="edge">
<title>Node22&#45;&gt;Node13</title>
<g id="a_edge46_Node000022_Node000013"><a xlink:title=" ">
<path fill="none" stroke="#63b8ff" d="M978.12,-235.62C1018.67,-225.46 1093.69,-206.67 1143.64,-194.15"/>
<polygon fill="#63b8ff" stroke="#63b8ff" points="1144.2,-197.62 1153.05,-191.8 1142.5,-190.83 1144.2,-197.62"/>
</a>
</g>
</g>
<!-- Node22&#45;&gt;Node14 -->
<g id="edge40_Node000022_Node000014" class="edge">
<title>Node22&#45;&gt;Node14</title>
<g id="a_edge40_Node000022_Node000014"><a xlink:title=" ">
<path fill="none" stroke="#63b8ff" d="M971.6,-232.98C990.93,-223.77 1019.25,-208.76 1040.65,-191 1057.42,-177.09 1073.14,-157.75 1083.63,-143.58"/>
<polygon fill="#63b8ff" stroke="#63b8ff" points="1086.41,-145.72 1089.4,-135.56 1080.72,-141.63 1086.41,-145.72"/>
</a>
</g>
</g>
<!-- Node22&#45;&gt;Node16 -->
<g id="edge39_Node000022_Node000016" class="edge">
<title>Node22&#45;&gt;Node16</title>
<g id="a_edge39_Node000022_Node000016"><a xlink:title=" ">
<path fill="none" stroke="#63b8ff" d="M921.17,-234.37C872.78,-220.26 771.34,-191.27 684.65,-170.25 609.6,-152.05 580.78,-174.14 514.65,-134.25 495.75,-122.84 480.33,-102.55 470.68,-87.44"/>
<polygon fill="#63b8ff" stroke="#63b8ff" points="473.91,-86.02 465.73,-79.28 467.92,-89.65 473.91,-86.02"/>
</a>
</g>
</g>
<!-- Node22&#45;&gt;Node21 -->
<g id="edge45_Node000022_Node000021" class="edge">
<title>Node22&#45;&gt;Node21</title>
<g id="a_edge45_Node000022_Node000021"><a xlink:title=" ">
<path fill="none" stroke="#63b8ff" d="M921.15,-237.27C868.51,-227.15 755.21,-205.38 687.01,-192.27"/>
<polygon fill="#63b8ff" stroke="#63b8ff" points="688.02,-188.9 677.54,-190.45 686.7,-195.77 688.02,-188.9"/>
</a>
</g>
</g>
<!-- Node23 -->
<g id="Node000023" class="node">
<title>Node23</title>
<g id="a_Node000023"><a xlink:href="vlcb_8h.html" target="_top" xlink:title=" ">
<polygon fill="white" stroke="#666666" points="1031.9,-191 951.4,-191 951.4,-170.25 1031.9,-170.25 1031.9,-191"/>
<text text-anchor="middle" x="991.65" y="-177.5" font-family="Helvetica,sans-Serif" font-size="10.00">packet/vlcb.h</text>
</a>
</g>
</g>
<!-- Node22&#45;&gt;Node23 -->
<g id="edge41_Node000022_Node000023" class="edge">
<title>Node22&#45;&gt;Node23</title>
<g id="a_edge41_Node000022_Node000023"><a xlink:title=" ">
<path fill="none" stroke="#63b8ff" d="M956.4,-232.93C962.37,-224.23 971.26,-211.3 978.62,-200.59"/>
<polygon fill="#63b8ff" stroke="#63b8ff" points="981.42,-202.69 984.2,-192.47 975.65,-198.73 981.42,-202.69"/>
</a>
</g>
</g>
<!-- Node23&#45;&gt;Node4 -->
<g id="edge42_Node000023_Node000004" class="edge">
<title>Node23&#45;&gt;Node4</title>
<g id="a_edge42_Node000023_Node000004"><a xlink:title=" ">
<path fill="none" stroke="#63b8ff" d="M964.41,-169.83C908.94,-149.88 782.77,-104.5 719.42,-81.71"/>
<polygon fill="#63b8ff" stroke="#63b8ff" points="720.74,-78.46 710.14,-78.37 718.37,-85.05 720.74,-78.46"/>
</a>
</g>
</g>
<!-- Node23&#45;&gt;Node9 -->
<g id="edge43_Node000023_Node000009" class="edge">
<title>Node23&#45;&gt;Node9</title>
<g id="a_edge43_Node000023_Node000009"><a xlink:title=" ">
<path fill="none" stroke="#63b8ff" d="M1000.52,-170.12C1017.85,-151.53 1056.49,-110.11 1078.83,-86.16"/>
<polygon fill="#63b8ff" stroke="#63b8ff" points="1081.22,-88.73 1085.48,-79.03 1076.1,-83.96 1081.22,-88.73"/>
</a>
</g>
</g>
<!-- Node23&#45;&gt;Node18 -->
<g id="edge44_Node000023_Node000018" class="edge">
<title>Node23&#45;&gt;Node18</title>
<g id="a_edge44_Node000023_Node000018"><a xlink:title=" ">
<path fill="none" stroke="#63b8ff" d="M1028.84,-169.84C1063.04,-160.83 1113.97,-147.43 1151.32,-137.6"/>
<polygon fill="#63b8ff" stroke="#63b8ff" points="1152.19,-140.99 1160.97,-135.06 1150.41,-134.22 1152.19,-140.99"/>
</a>
</g>
</g>
<!-- Node24&#45;&gt;Node7 -->
<g id="edge58_Node000024_Node000007" class="edge">
<title>Node24&#45;&gt;Node7</title>
<g id="a_edge58_Node000024_Node000007"><a xlink:title=" ">
<path fill="none" stroke="#63b8ff" d="M856.43,-296.09C830.84,-277.18 779.65,-232.96 779.65,-181.62 779.65,-181.62 779.65,-181.62 779.65,-122.88 779.65,-81.26 818.17,-46.6 845.08,-27.46"/>
<polygon fill="#63b8ff" stroke="#63b8ff" points="846.84,-30.5 853.13,-21.98 842.9,-24.71 846.84,-30.5"/>
</a>
</g>
</g>
<!-- Node24&#45;&gt;Node13 -->
<g id="edge57_Node000024_Node000013" class="edge">
<title>Node24&#45;&gt;Node13</title>
<g id="a_edge57_Node000024_Node000013"><a xlink:title=" ">
<path fill="none" stroke="#63b8ff" d="M928.95,-296.06C966.28,-288.71 1015.3,-277.06 1056.65,-260.5 1098.94,-243.57 1143.98,-215.44 1170.43,-197.75"/>
<polygon fill="#63b8ff" stroke="#63b8ff" points="1172.36,-200.66 1178.67,-192.15 1168.43,-194.87 1172.36,-200.66"/>
</a>
</g>
</g>
<!-- Node24&#45;&gt;Node22 -->
<g id="edge52_Node000024_Node000022" class="edge">
<title>Node24&#45;&gt;Node22</title>
<g id="a_edge52_Node000024_Node000022"><a xlink:title=" ">
<path fill="none" stroke="#63b8ff" d="M883.34,-296.05C895.44,-286.7 913.88,-272.43 928.25,-261.31"/>
<polygon fill="#63b8ff" stroke="#63b8ff" points="930.03,-264.36 935.79,-255.47 925.74,-258.82 930.03,-264.36"/>
</a>
</g>
</g>
<!-- Node24&#45;&gt;Node25 -->
<g id="edge48_Node000024_Node000025" class="edge">
<title>Node24&#45;&gt;Node25</title>
<g id="a_edge48_Node000024_Node000025"><a xlink:title=" ">
<path fill="none" stroke="#63b8ff" d="M928.9,-296.03C976.22,-287.68 1044.57,-274.79 1103.65,-260.5 1186.24,-240.53 1281.28,-211.57 1334.32,-194.87"/>
<polygon fill="#63b8ff" stroke="#63b8ff" points="1335.38,-198.21 1343.86,-191.85 1333.27,-191.53 1335.38,-198.21"/>
</a>
</g>
</g>
<!-- Node26 -->
<g id="Node000026" class="node">
<title>Node26</title>
<g id="a_Node000026"><a xlink:href="packet__buf_8h.html" target="_top" xlink:title=" ">
<polygon fill="white" stroke="#666666" points="933.78,-191 807.53,-191 807.53,-170.25 933.78,-170.25 933.78,-191"/>
<text text-anchor="middle" x="870.65" y="-177.5" font-family="Helvetica,sans-Serif" font-size="10.00">../storage/packet_buf.h</text>
</a>
</g>
</g>
<!-- Node24&#45;&gt;Node26 -->
<g id="edge53_Node000024_Node000026" class="edge">
<title>Node24&#45;&gt;Node26</title>
<g id="a_edge53_Node000024_Node000026"><a xlink:title=" ">
<path fill="none" stroke="#63b8ff" d="M870.65,-296.13C870.65,-276.07 870.65,-229.82 870.65,-202.63"/>
<polygon fill="#63b8ff" stroke="#63b8ff" points="874.15,-202.84 870.65,-192.84 867.15,-202.84 874.15,-202.84"/>
</a>
</g>
</g>
<!-- Node25&#45;&gt;Node4 -->
<g id="edge49_Node000025_Node000004" class="edge">
<title>Node25&#45;&gt;Node4</title>
<g id="a_edge49_Node000025_Node000004"><a xlink:title=" ">
<path fill="none" stroke="#63b8ff" d="M1358.98,-169.82C1343.54,-160.7 1319.96,-146.7 1299.65,-134.25 1284.88,-125.2 1283.1,-118.94 1266.65,-113.5 1166.25,-80.3 843.92,-71.11 725.68,-68.82"/>
<polygon fill="#63b8ff" stroke="#63b8ff" points="725.81,-65.32 715.75,-68.63 725.68,-72.32 725.81,-65.32"/>
</a>
</g>
</g>
<!-- Node25&#45;&gt;Node9 -->
<g id="edge50_Node000025_Node000009" class="edge">
<title>Node25&#45;&gt;Node9</title>
<g id="a_edge50_Node000025_Node000009"><a xlink:title=" ">
<path fill="none" stroke="#63b8ff" d="M1367.4,-169.84C1354.49,-155.21 1328.07,-127.84 1299.65,-113.5 1261.77,-94.38 1215.92,-83.26 1177.3,-76.82"/>
<polygon fill="#63b8ff" stroke="#63b8ff" points="1178,-73.39 1167.58,-75.28 1176.91,-80.3 1178,-73.39"/>
</a>
</g>
</g>
<!-- Node25&#45;&gt;Node18 -->
<g id="edge51_Node000025_Node000018" class="edge">
<title>Node25&#45;&gt;Node18</title>
<g id="a_edge51_Node000025_Node000018"><a xlink:title=" ">
<path fill="none" stroke="#63b8ff" d="M1344.19,-169.84C1315.62,-160.95 1273.27,-147.77 1241.78,-137.98"/>
<polygon fill="#63b8ff" stroke="#63b8ff" points="1243.17,-134.75 1232.59,-135.12 1241.1,-141.43 1243.17,-134.75"/>
</a>
</g>
</g>
<!-- Node26&#45;&gt;Node7 -->
<g id="edge56_Node000026_Node000007" class="edge">
<title>Node26&#45;&gt;Node7</title>
<g id="a_edge56_Node000026_Node000007"><a xlink:title=" ">
<path fill="none" stroke="#63b8ff" d="M870.65,-170.1C870.65,-143.73 870.65,-69.33 870.65,-32.53"/>
<polygon fill="#63b8ff" stroke="#63b8ff" points="874.15,-32.73 870.65,-22.73 867.15,-32.73 874.15,-32.73"/>
</a>
</g>
</g>
<!-- Node26&#45;&gt;Node14 -->
<g id="edge55_Node000026_Node000014" class="edge">
<title>Node26&#45;&gt;Node14</title>
<g id="a_edge55_Node000026_Node000014"><a xlink:title=" ">
<path fill="none" stroke="#63b8ff" d="M911.32,-169.77C952.81,-159.72 1016.76,-144.23 1057.65,-134.32"/>
<polygon fill="#63b8ff" stroke="#63b8ff" points="1058.42,-137.74 1067.31,-131.98 1056.77,-130.94 1058.42,-137.74"/>
</a>
</g>
</g>
<!-- Node26&#45;&gt;Node16 -->
<g id="edge54_Node000026_Node000016" class="edge">
<title>Node26&#45;&gt;Node16</title>
<g id="a_edge54_Node000026_Node000016"><a xlink:title=" ">
<path fill="none" stroke="#63b8ff" d="M807.29,-174.02C728.63,-166.45 599.38,-151.88 554.65,-134.25 525.52,-122.77 496.65,-100.76 478.52,-85.3"/>
<polygon fill="#63b8ff" stroke="#63b8ff" points="481.04,-82.86 471.21,-78.9 476.43,-88.12 481.04,-82.86"/>
</a>
</g>
</g>
<!-- Node27&#45;&gt;Node3 -->
<g id="edge68_Node000027_Node000003" class="edge">
<title>Node27&#45;&gt;Node3</title>
<g id="a_edge68_Node000027_Node000003"><a xlink:title=" ">
<path fill="none" stroke="#63b8ff" d="M1391.12,-239.69C1221.27,-232.23 776.1,-212.18 404.65,-191 380.69,-189.63 354.49,-187.98 331.08,-186.44"/>
<polygon fill="#63b8ff" stroke="#63b8ff" points="331.56,-182.96 321.35,-185.79 331.1,-189.95 331.56,-182.96"/>
</a>
</g>
</g>
<!-- Node27&#45;&gt;Node7 -->
<g id="edge72_Node000027_Node000007" class="edge">
<title>Node27&#45;&gt;Node7</title>
<g id="a_edge72_Node000027_Node000007"><a xlink:title=" ">
<path fill="none" stroke="#63b8ff" d="M1495.18,-226.69C1509.23,-218.14 1524.23,-206.21 1532.65,-191 1561.62,-138.68 1569.1,-95.62 1523.65,-56.75 1476.86,-16.73 1041.25,-11.95 908.72,-11.43"/>
<polygon fill="#63b8ff" stroke="#63b8ff" points="908.74,-7.93 898.73,-11.39 908.72,-14.93 908.74,-7.93"/>
</a>
</g>
</g>
<!-- Node27&#45;&gt;Node8 -->
<g id="edge67_Node000027_Node000008" class="edge">
<title>Node27&#45;&gt;Node8</title>
<g id="a_edge67_Node000027_Node000008"><a xlink:title=" ">
<path fill="none" stroke="#63b8ff" d="M1484.06,-226.62C1494.95,-217.49 1507.06,-205.07 1513.65,-191 1528.29,-159.74 1535.03,-143.88 1518.65,-113.5 1511.51,-100.26 1498.63,-90.25 1485.91,-83.04"/>
<polygon fill="#63b8ff" stroke="#63b8ff" points="1487.7,-80.03 1477.21,-78.55 1484.49,-86.25 1487.7,-80.03"/>
</a>
</g>
</g>
<!-- Node27&#45;&gt;Node9 -->
<g id="edge69_Node000027_Node000009" class="edge">
<title>Node27&#45;&gt;Node9</title>
<g id="a_edge69_Node000027_Node000009"><a xlink:title=" ">
<path fill="none" stroke="#63b8ff" d="M1461.18,-226.63C1459.92,-210.69 1455.79,-186.4 1442.65,-170.25 1433.73,-159.27 1342.05,-118.05 1328.65,-113.5 1299.34,-103.55 1224.18,-89.65 1167.09,-79.87"/>
<polygon fill="#63b8ff" stroke="#63b8ff" points="1167.87,-76.45 1157.42,-78.22 1166.69,-83.35 1167.87,-76.45"/>
</a>
</g>
</g>
<!-- Node27&#45;&gt;Node25 -->
<g id="edge70_Node000027_Node000025" class="edge">
<title>Node27&#45;&gt;Node25</title>
<g id="a_edge70_Node000027_Node000025"><a xlink:title=" ">
<path fill="none" stroke="#63b8ff" d="M1439.06,-226.69C1426.65,-217.87 1411.29,-206.95 1398.79,-198.07"/>
<polygon fill="#63b8ff" stroke="#63b8ff" points="1400.91,-195.28 1390.73,-192.34 1396.86,-200.99 1400.91,-195.28"/>
</a>
</g>
</g>
<!-- Node28 -->
<g id="Node000028" class="node">
<title>Node28</title>
<g id="a_Node000028"><a xlink:href="serialization_8h.html" target="_top" xlink:title=" ">
<polygon fill="white" stroke="#666666" points="1765.78,-191 1603.53,-191 1603.53,-170.25 1765.78,-170.25 1765.78,-191"/>
<text text-anchor="middle" x="1684.65" y="-177.5" font-family="Helvetica,sans-Serif" font-size="10.00">vlcb/net/packet/serialization.h</text>
</a>
</g>
</g>
<!-- Node27&#45;&gt;Node28 -->
<g id="edge71_Node000027_Node000028" class="edge">
<title>Node27&#45;&gt;Node28</title>
<g id="a_edge71_Node000027_Node000028"><a xlink:title=" ">
<path fill="none" stroke="#63b8ff" d="M1520.83,-226.53C1557.46,-216.49 1603.84,-203.78 1637.89,-194.44"/>
<polygon fill="#63b8ff" stroke="#63b8ff" points="1638.76,-197.83 1647.48,-191.82 1636.91,-191.08 1638.76,-197.83"/>
</a>
</g>
</g>
</g>
</svg>
