<?xml version="1.0" encoding="UTF-8" standalone="no"?>
<!DOCTYPE svg PUBLIC "-//W3C//DTD SVG 1.1//EN"
 "http://www.w3.org/Graphics/SVG/1.1/DTD/svg11.dtd">
<!-- Generated by graphviz version 12.1.2 (20240928.0832)
 -->
<!-- Title: state.h Pages: 1 -->
<svg width="290pt" height="256pt"
 viewBox="0.00 0.00 289.62 255.75" xmlns="http://www.w3.org/2000/svg" xmlns:xlink="http://www.w3.org/1999/xlink">
<g id="graph0" class="graph" transform="scale(1 1) rotate(0) translate(4 251.75)">
<title>state.h</title>
<!-- Node1 -->
<g id="Node000001" class="node">
<title>Node1</title>
<g id="a_Node000001"><a xlink:title=" ">
<polygon fill="#999999" stroke="#666666" points="131.38,-247.75 81.62,-247.75 81.62,-227 131.38,-227 131.38,-247.75"/>
<text text-anchor="middle" x="106.5" y="-234.25" font-family="Helvetica,sans-Serif" font-size="10.00">state.h</text>
</a>
</g>
</g>
<!-- Node2 -->
<g id="Node000002" class="node">
<title>Node2</title>
<g id="a_Node000002"><a xlink:href="module_8c.html" target="_top" xlink:title=" ">
<polygon fill="white" stroke="#666666" points="61,-20.75 0,-20.75 0,0 61,0 61,-20.75"/>
<text text-anchor="middle" x="30.5" y="-7.25" font-family="Helvetica,sans-Serif" font-size="10.00">module.c</text>
</a>
</g>
</g>
<!-- Node1&#45;&gt;Node2 -->
<g id="edge1_Node000001_Node000002" class="edge">
<title>Node1&#45;&gt;Node2</title>
<g id="a_edge1_Node000001_Node000002"><a xlink:title=" ">
<path fill="none" stroke="#63b8ff" d="M90.52,-217.78C67.52,-189.66 26.13,-133.6 10.5,-77.5 4.9,-57.4 16.15,-34.07 23.93,-21.19"/>
<polygon fill="#63b8ff" stroke="#63b8ff" points="87.75,-219.93 96.85,-225.36 93.13,-215.44 87.75,-219.93"/>
</a>
</g>
</g>
<!-- Node3 -->
<g id="Node000003" class="node">
<title>Node3</title>
<g id="a_Node000003"><a xlink:href="module_2inc_2vlcb_2module_8h.html" target="_top" xlink:title=" ">
<polygon fill="white" stroke="#666666" points="138.38,-134.25 76.62,-134.25 76.62,-113.5 138.38,-113.5 138.38,-134.25"/>
<text text-anchor="middle" x="107.5" y="-120.75" font-family="Helvetica,sans-Serif" font-size="10.00">module.h</text>
</a>
</g>
</g>
<!-- Node1&#45;&gt;Node3 -->
<g id="edge2_Node000001_Node000003" class="edge">
<title>Node1&#45;&gt;Node3</title>
<g id="a_edge2_Node000001_Node000003"><a xlink:title=" ">
<path fill="none" stroke="#63b8ff" d="M104.57,-215.08C103.63,-202.12 102.84,-185.23 103.5,-170.25 104.04,-157.93 105.41,-143.77 106.39,-134.6"/>
<polygon fill="#63b8ff" stroke="#63b8ff" points="101.08,-215.33 105.38,-225.01 108.05,-214.76 101.08,-215.33"/>
</a>
</g>
</g>
<!-- Node5 -->
<g id="Node000005" class="node">
<title>Node5</title>
<g id="a_Node000005"><a xlink:href="state__machine_8c.html" target="_top" xlink:title=" ">
<polygon fill="white" stroke="#666666" points="281.62,-20.75 185.38,-20.75 185.38,0 281.62,0 281.62,-20.75"/>
<text text-anchor="middle" x="233.5" y="-7.25" font-family="Helvetica,sans-Serif" font-size="10.00">state_machine.c</text>
</a>
</g>
</g>
<!-- Node1&#45;&gt;Node5 -->
<g id="edge10_Node000001_Node000005" class="edge">
<title>Node1&#45;&gt;Node5</title>
<g id="a_edge10_Node000001_Node000005"><a xlink:title=" ">
<path fill="none" stroke="#63b8ff" d="M127.95,-219.32C159.11,-192.91 215.28,-138.76 234.5,-77.5 240.55,-58.22 237.81,-34.2 235.5,-21.06"/>
<polygon fill="#63b8ff" stroke="#63b8ff" points="125.79,-216.56 120.32,-225.63 130.25,-221.95 125.79,-216.56"/>
</a>
</g>
</g>
<!-- Node7 -->
<g id="Node000007" class="node">
<title>Node7</title>
<g id="a_Node000007"><a xlink:href="ui_8h.html" target="_top" xlink:title=" ">
<polygon fill="white" stroke="#666666" points="146.5,-191 112.5,-191 112.5,-170.25 146.5,-170.25 146.5,-191"/>
<text text-anchor="middle" x="129.5" y="-177.5" font-family="Helvetica,sans-Serif" font-size="10.00">ui.h</text>
</a>
</g>
</g>
<!-- Node1&#45;&gt;Node7 -->
<g id="edge11_Node000001_Node000007" class="edge">
<title>Node1&#45;&gt;Node7</title>
<g id="a_edge11_Node000001_Node000007"><a xlink:title=" ">
<path fill="none" stroke="#63b8ff" d="M115.06,-215.99C118.61,-207.55 122.55,-198.16 125.42,-191.33"/>
<polygon fill="#63b8ff" stroke="#63b8ff" points="111.84,-214.62 111.2,-225.19 118.3,-217.33 111.84,-214.62"/>
</a>
</g>
</g>
<!-- Node3&#45;&gt;Node2 -->
<g id="edge3_Node000003_Node000002" class="edge">
<title>Node3&#45;&gt;Node2</title>
<g id="a_edge3_Node000003_Node000002"><a xlink:title=" ">
<path fill="none" stroke="#63b8ff" d="M65.85,-111.98C48.36,-105.11 29.72,-94.27 19.5,-77.5 8.72,-59.81 18.25,-34.75 25.06,-21.12"/>
<polygon fill="#63b8ff" stroke="#63b8ff" points="64.49,-115.21 75.09,-115.25 66.83,-108.61 64.49,-115.21"/>
</a>
</g>
</g>
<!-- Node4 -->
<g id="Node000004" class="node">
<title>Node4</title>
<g id="a_Node000004"><a xlink:href="module_2src_2module_8h.html" target="_top" xlink:title=" ">
<polygon fill="white" stroke="#666666" points="90.38,-77.5 28.62,-77.5 28.62,-56.75 90.38,-56.75 90.38,-77.5"/>
<text text-anchor="middle" x="59.5" y="-64" font-family="Helvetica,sans-Serif" font-size="10.00">module.h</text>
</a>
</g>
</g>
<!-- Node3&#45;&gt;Node4 -->
<g id="edge4_Node000003_Node000004" class="edge">
<title>Node3&#45;&gt;Node4</title>
<g id="a_edge4_Node000003_Node000004"><a xlink:title=" ">
<path fill="none" stroke="#63b8ff" d="M91.38,-104.49C83.56,-95.56 74.47,-85.2 68.01,-77.83"/>
<polygon fill="#63b8ff" stroke="#63b8ff" points="88.7,-106.74 97.92,-111.95 93.96,-102.12 88.7,-106.74"/>
</a>
</g>
</g>
<!-- Node3&#45;&gt;Node5 -->
<g id="edge6_Node000003_Node000005" class="edge">
<title>Node3&#45;&gt;Node5</title>
<g id="a_edge6_Node000003_Node000005"><a xlink:title=" ">
<path fill="none" stroke="#63b8ff" d="M149.34,-114.34C171.56,-107.78 197.68,-96.5 214.5,-77.5 228.75,-61.4 232.36,-35.25 233.24,-21.14"/>
<polygon fill="#63b8ff" stroke="#63b8ff" points="148.68,-110.9 139.94,-116.88 150.51,-117.65 148.68,-110.9"/>
</a>
</g>
</g>
<!-- Node6 -->
<g id="Node000006" class="node">
<title>Node6</title>
<g id="a_Node000006"><a xlink:href="state__machine_8h.html" target="_top" xlink:title=" ">
<polygon fill="white" stroke="#666666" points="205,-77.5 108,-77.5 108,-56.75 205,-56.75 205,-77.5"/>
<text text-anchor="middle" x="156.5" y="-64" font-family="Helvetica,sans-Serif" font-size="10.00">state_machine.h</text>
</a>
</g>
</g>
<!-- Node3&#45;&gt;Node6 -->
<g id="edge7_Node000003_Node000006" class="edge">
<title>Node3&#45;&gt;Node6</title>
<g id="a_edge7_Node000003_Node000006"><a xlink:title=" ">
<path fill="none" stroke="#63b8ff" d="M123.7,-104.77C131.75,-95.78 141.15,-85.28 147.82,-77.83"/>
<polygon fill="#63b8ff" stroke="#63b8ff" points="121.33,-102.17 117.27,-111.96 126.55,-106.84 121.33,-102.17"/>
</a>
</g>
</g>
<!-- Node4&#45;&gt;Node2 -->
<g id="edge5_Node000004_Node000002" class="edge">
<title>Node4&#45;&gt;Node2</title>
<g id="a_edge5_Node000004_Node000002"><a xlink:title=" ">
<path fill="none" stroke="#63b8ff" d="M49.01,-46.32C44.46,-37.73 39.34,-28.06 35.64,-21.08"/>
<polygon fill="#63b8ff" stroke="#63b8ff" points="45.83,-47.8 53.61,-55 52.02,-44.52 45.83,-47.8"/>
</a>
</g>
</g>
<!-- Node6&#45;&gt;Node2 -->
<g id="edge8_Node000006_Node000002" class="edge">
<title>Node6&#45;&gt;Node2</title>
<g id="a_edge8_Node000006_Node000002"><a xlink:title=" ">
<path fill="none" stroke="#63b8ff" d="M123.63,-51.84C101.35,-42.16 72.48,-29.62 52.83,-21.08"/>
<polygon fill="#63b8ff" stroke="#63b8ff" points="122.02,-54.96 132.59,-55.73 124.81,-48.54 122.02,-54.96"/>
</a>
</g>
</g>
<!-- Node6&#45;&gt;Node5 -->
<g id="edge9_Node000006_Node000005" class="edge">
<title>Node6&#45;&gt;Node5</title>
<g id="a_edge9_Node000006_Node000005"><a xlink:title=" ">
<path fill="none" stroke="#63b8ff" d="M179.62,-49.69C192.74,-40.36 208.72,-29 219.85,-21.08"/>
<polygon fill="#63b8ff" stroke="#63b8ff" points="177.62,-46.81 171.5,-55.46 181.68,-52.52 177.62,-46.81"/>
</a>
</g>
</g>
<!-- Node7&#45;&gt;Node3 -->
<g id="edge12_Node000007_Node000003" class="edge">
<title>Node7&#45;&gt;Node3</title>
<g id="a_edge12_Node000007_Node000003"><a xlink:title=" ">
<path fill="none" stroke="#63b8ff" d="M121.31,-159.24C117.92,-150.8 114.14,-141.41 111.4,-134.58"/>
<polygon fill="#63b8ff" stroke="#63b8ff" points="118.03,-160.46 125,-168.43 124.52,-157.85 118.03,-160.46"/>
</a>
</g>
</g>
</g>
</svg>
