<?xml version="1.0" encoding="UTF-8" standalone="no"?>
<!DOCTYPE svg PUBLIC "-//W3C//DTD SVG 1.1//EN"
 "http://www.w3.org/Graphics/SVG/1.1/DTD/svg11.dtd">
<!-- Generated by graphviz version 12.1.2 (20240928.0832)
 -->
<!-- Title: state_Dispatch Pages: 1 -->
<svg width="665pt" height="152pt"
 viewBox="0.00 0.00 664.50 152.12" xmlns="http://www.w3.org/2000/svg" xmlns:xlink="http://www.w3.org/1999/xlink">
<g id="graph0" class="graph" transform="scale(1 1) rotate(0) translate(4 148.12)">
<title>state_Dispatch</title>
<!-- Node1 -->
<g id="Node000001" class="node">
<title>Node1</title>
<g id="a_Node000001"><a xlink:title=" ">
<polygon fill="#999999" stroke="#666666" points="88.75,-78.75 0,-78.75 0,-58 88.75,-58 88.75,-78.75"/>
<text text-anchor="middle" x="44.38" y="-65.25" font-family="Helvetica,sans-Serif" font-size="10.00">state_Dispatch</text>
</a>
</g>
</g>
<!-- Node2 -->
<g id="Node000002" class="node">
<title>Node2</title>
<g id="a_Node000002"><a xlink:href="state__machine_8c.html#a6c338e6311730773d98d58f8aa921012" target="_top" xlink:title=" ">
<polygon fill="white" stroke="#666666" points="274.25,-137.75 145,-137.75 145,-117 274.25,-117 274.25,-137.75"/>
<text text-anchor="middle" x="209.62" y="-124.25" font-family="Helvetica,sans-Serif" font-size="10.00">CheckForSetupTimeout</text>
</a>
</g>
</g>
<!-- Node1&#45;&gt;Node2 -->
<g id="edge1_Node000001_Node000002" class="edge">
<title>Node1&#45;&gt;Node2</title>
<g id="a_edge1_Node000001_Node000002"><a xlink:title=" ">
<path fill="none" stroke="#63b8ff" d="M64.42,-79.23C80.18,-87.85 103.37,-99.68 124.75,-107.38 131.13,-109.67 137.87,-111.78 144.66,-113.7"/>
<polygon fill="#63b8ff" stroke="#63b8ff" points="143.28,-116.95 153.84,-116.16 145.09,-110.19 143.28,-116.95"/>
</a>
</g>
</g>
<!-- Node4 -->
<g id="Node000004" class="node">
<title>Node4</title>
<g id="a_Node000004"><a xlink:href="state__machine_8c.html#a219b685fd854a0765878acc44e9f3111" target="_top" xlink:title=" ">
<polygon fill="white" stroke="#666666" points="281.75,-98.75 137.5,-98.75 137.5,-78 281.75,-78 281.75,-98.75"/>
<text text-anchor="middle" x="209.62" y="-85.25" font-family="Helvetica,sans-Serif" font-size="10.00">HandleTransitionToNormal</text>
</a>
</g>
</g>
<!-- Node1&#45;&gt;Node4 -->
<g id="edge3_Node000001_Node000004" class="edge">
<title>Node1&#45;&gt;Node4</title>
<g id="a_edge3_Node000001_Node000004"><a xlink:title=" ">
<path fill="none" stroke="#63b8ff" d="M89.12,-73.73C100.52,-75.13 113.18,-76.68 125.88,-78.24"/>
<polygon fill="#63b8ff" stroke="#63b8ff" points="125.16,-81.68 135.51,-79.42 126.01,-74.73 125.16,-81.68"/>
</a>
</g>
</g>
<!-- Node7 -->
<g id="Node000007" class="node">
<title>Node7</title>
<g id="a_Node000007"><a xlink:href="state__machine_8c.html#a454533bb18a4f7d35e37e49479a0be7a" target="_top" xlink:title=" ">
<polygon fill="white" stroke="#666666" points="277.62,-59.75 141.62,-59.75 141.62,-39 277.62,-39 277.62,-59.75"/>
<text text-anchor="middle" x="209.62" y="-46.25" font-family="Helvetica,sans-Serif" font-size="10.00">HandleTransitionToSetup</text>
</a>
</g>
</g>
<!-- Node1&#45;&gt;Node7 -->
<g id="edge6_Node000001_Node000007" class="edge">
<title>Node1&#45;&gt;Node7</title>
<g id="a_edge6_Node000001_Node000007"><a xlink:title=" ">
<path fill="none" stroke="#63b8ff" d="M89.12,-63.28C101.79,-61.81 116.03,-60.15 130.13,-58.51"/>
<polygon fill="#63b8ff" stroke="#63b8ff" points="130.36,-62.01 139.89,-57.38 129.55,-55.05 130.36,-62.01"/>
</a>
</g>
</g>
<!-- Node8 -->
<g id="Node000008" class="node">
<title>Node8</title>
<g id="a_Node000008"><a xlink:href="state__machine_8c.html#a33506340e66a1f297917a2be79b70b0e" target="_top" xlink:title=" ">
<polygon fill="white" stroke="#666666" points="294.5,-20.75 124.75,-20.75 124.75,0 294.5,0 294.5,-20.75"/>
<text text-anchor="middle" x="209.62" y="-7.25" font-family="Helvetica,sans-Serif" font-size="10.00">HandleTransitionToUninitialized</text>
</a>
</g>
</g>
<!-- Node1&#45;&gt;Node8 -->
<g id="edge8_Node000001_Node000008" class="edge">
<title>Node1&#45;&gt;Node8</title>
<g id="a_edge8_Node000001_Node000008"><a xlink:title=" ">
<path fill="none" stroke="#63b8ff" d="M64.78,-57.65C80.55,-49.29 103.58,-37.87 124.75,-30.38 131.23,-28.08 138.09,-25.96 144.98,-24.04"/>
<polygon fill="#63b8ff" stroke="#63b8ff" points="145.55,-27.51 154.31,-21.56 143.75,-20.74 145.55,-27.51"/>
</a>
</g>
</g>
<!-- Node3 -->
<g id="Node000003" class="node">
<title>Node3</title>
<g id="a_Node000003"><a xlink:href="time_8h.html#ab82b0190a9360bc97f1249408977c866" target="_top" xlink:title=" ">
<polygon fill="white" stroke="#666666" points="461.62,-144.12 350.38,-144.12 350.38,-110.62 461.62,-110.62 461.62,-144.12"/>
<text text-anchor="start" x="358.38" y="-130.62" font-family="Helvetica,sans-Serif" font-size="10.00">vlcb_platform_time</text>
<text text-anchor="middle" x="406" y="-117.88" font-family="Helvetica,sans-Serif" font-size="10.00">_DiffInMs</text>
</a>
</g>
</g>
<!-- Node2&#45;&gt;Node3 -->
<g id="edge2_Node000002_Node000003" class="edge">
<title>Node2&#45;&gt;Node3</title>
<g id="a_edge2_Node000002_Node000003"><a xlink:title=" ">
<path fill="none" stroke="#63b8ff" d="M274.54,-127.38C295.17,-127.38 318.08,-127.38 338.87,-127.38"/>
<polygon fill="#63b8ff" stroke="#63b8ff" points="338.66,-130.88 348.66,-127.38 338.66,-123.88 338.66,-130.88"/>
</a>
</g>
</g>
<!-- Node5 -->
<g id="Node000005" class="node">
<title>Node5</title>
<g id="a_Node000005"><a xlink:href="socket_2datagram_8c.html#a7da610c48db02cd38212ef1545d00f00" target="_top" xlink:title=" ">
<polygon fill="white" stroke="#666666" points="481.5,-59.75 330.5,-59.75 330.5,-39 481.5,-39 481.5,-59.75"/>
<text text-anchor="middle" x="406" y="-46.25" font-family="Helvetica,sans-Serif" font-size="10.00">vlcb_net_sock_dgram_Send</text>
</a>
</g>
</g>
<!-- Node4&#45;&gt;Node5 -->
<g id="edge4_Node000004_Node000005" class="edge">
<title>Node4&#45;&gt;Node5</title>
<g id="a_edge4_Node000004_Node000005"><a xlink:title=" ">
<path fill="none" stroke="#63b8ff" d="M264.77,-77.51C288.05,-72.84 315.46,-67.34 339.85,-62.45"/>
<polygon fill="#63b8ff" stroke="#63b8ff" points="340.21,-65.94 349.33,-60.55 338.83,-59.08 340.21,-65.94"/>
</a>
</g>
</g>
<!-- Node6 -->
<g id="Node000006" class="node">
<title>Node6</title>
<g id="a_Node000006"><a xlink:href="packet__buf_8c.html#afa80d4fb078473100610ba106bd5cb46" target="_top" xlink:title=" ">
<polygon fill="white" stroke="#666666" points="656.5,-59.75 517.5,-59.75 517.5,-39 656.5,-39 656.5,-59.75"/>
<text text-anchor="middle" x="587" y="-46.25" font-family="Helvetica,sans-Serif" font-size="10.00">vlcb_net_packetbuf_Push</text>
</a>
</g>
</g>
<!-- Node5&#45;&gt;Node6 -->
<g id="edge5_Node000005_Node000006" class="edge">
<title>Node5&#45;&gt;Node6</title>
<g id="a_edge5_Node000005_Node000006"><a xlink:title=" ">
<path fill="none" stroke="#63b8ff" d="M481.87,-49.38C489.73,-49.38 497.73,-49.38 505.65,-49.38"/>
<polygon fill="#63b8ff" stroke="#63b8ff" points="505.62,-52.88 515.62,-49.38 505.62,-45.88 505.62,-52.88"/>
</a>
</g>
</g>
<!-- Node7&#45;&gt;Node5 -->
<g id="edge7_Node000007_Node000005" class="edge">
<title>Node7&#45;&gt;Node5</title>
<g id="a_edge7_Node000007_Node000005"><a xlink:title=" ">
<path fill="none" stroke="#63b8ff" d="M278.06,-49.38C291.17,-49.38 305.07,-49.38 318.69,-49.38"/>
<polygon fill="#63b8ff" stroke="#63b8ff" points="318.52,-52.88 328.52,-49.38 318.52,-45.88 318.52,-52.88"/>
</a>
</g>
</g>
<!-- Node8&#45;&gt;Node5 -->
<g id="edge9_Node000008_Node000005" class="edge">
<title>Node8&#45;&gt;Node5</title>
<g id="a_edge9_Node000008_Node000005"><a xlink:title=" ">
<path fill="none" stroke="#63b8ff" d="M264.77,-21.24C288.05,-25.91 315.46,-31.41 339.85,-36.3"/>
<polygon fill="#63b8ff" stroke="#63b8ff" points="338.83,-39.67 349.33,-38.2 340.21,-32.81 338.83,-39.67"/>
</a>
</g>
</g>
</g>
</svg>
