<?xml version="1.0" encoding="UTF-8" standalone="no"?>
<!DOCTYPE svg PUBLIC "-//W3C//DTD SVG 1.1//EN"
 "http://www.w3.org/Graphics/SVG/1.1/DTD/svg11.dtd">
<!-- Generated by graphviz version 12.1.2 (20240928.0832)
 -->
<!-- Title: state_machine.h Pages: 1 -->
<svg width="1275pt" height="426pt"
 viewBox="0.00 0.00 1274.75 426.00" xmlns="http://www.w3.org/2000/svg" xmlns:xlink="http://www.w3.org/1999/xlink">
<g id="graph0" class="graph" transform="scale(1 1) rotate(0) translate(4 422)">
<title>state_machine.h</title>
<!-- Node1 -->
<g id="Node000001" class="node">
<title>Node1</title>
<g id="a_Node000001"><a xlink:title=" ">
<polygon fill="#999999" stroke="#666666" points="1030.5,-418 933.5,-418 933.5,-397.25 1030.5,-397.25 1030.5,-418"/>
<text text-anchor="middle" x="982" y="-404.5" font-family="Helvetica,sans-Serif" font-size="10.00">state_machine.h</text>
</a>
</g>
</g>
<!-- Node2 -->
<g id="Node000002" class="node">
<title>Node2</title>
<g id="a_Node000002"><a xlink:href="node_8h.html" target="_top" xlink:title=" ">
<polygon fill="white" stroke="#666666" points="1219,-191 1101,-191 1101,-170.25 1219,-170.25 1219,-191"/>
<text text-anchor="middle" x="1160" y="-177.5" font-family="Helvetica,sans-Serif" font-size="10.00">vlcb/common/node.h</text>
</a>
</g>
</g>
<!-- Node1&#45;&gt;Node2 -->
<g id="edge1_Node000001_Node000002" class="edge">
<title>Node1&#45;&gt;Node2</title>
<g id="a_edge1_Node000001_Node000002"><a xlink:title=" ">
<path fill="none" stroke="#63b8ff" d="M1005.13,-396.75C1048.9,-376.5 1141.97,-325.54 1170,-247.75 1175.3,-233.03 1172.25,-215.49 1168.17,-202.17"/>
<polygon fill="#63b8ff" stroke="#63b8ff" points="1171.48,-201.02 1164.85,-192.76 1164.88,-203.35 1171.48,-201.02"/>
</a>
</g>
</g>
<!-- Node4 -->
<g id="Node000004" class="node">
<title>Node4</title>
<g id="a_Node000004"><a xlink:href="module_2inc_2vlcb_2module_8h.html" target="_top" xlink:title=" ">
<polygon fill="white" stroke="#666666" points="1024.5,-361.25 939.5,-361.25 939.5,-340.5 1024.5,-340.5 1024.5,-361.25"/>
<text text-anchor="middle" x="982" y="-347.75" font-family="Helvetica,sans-Serif" font-size="10.00">vlcb/module.h</text>
</a>
</g>
</g>
<!-- Node1&#45;&gt;Node4 -->
<g id="edge3_Node000001_Node000004" class="edge">
<title>Node1&#45;&gt;Node4</title>
<g id="a_edge3_Node000001_Node000004"><a xlink:title=" ">
<path fill="none" stroke="#63b8ff" d="M982,-396.84C982,-390.22 982,-381.22 982,-373.02"/>
<polygon fill="#63b8ff" stroke="#63b8ff" points="985.5,-373.09 982,-363.09 978.5,-373.09 985.5,-373.09"/>
</a>
</g>
</g>
<!-- Node10 -->
<g id="Node000010" class="node">
<title>Node10</title>
<g id="a_Node000010"><a xlink:href="time_8h.html" target="_top" xlink:title=" ">
<polygon fill="white" stroke="#666666" points="1026.88,-191 911.12,-191 911.12,-170.25 1026.88,-170.25 1026.88,-191"/>
<text text-anchor="middle" x="969" y="-177.5" font-family="Helvetica,sans-Serif" font-size="10.00">vlcb/platform/time.h</text>
</a>
</g>
</g>
<!-- Node1&#45;&gt;Node10 -->
<g id="edge60_Node000001_Node000010" class="edge">
<title>Node1&#45;&gt;Node10</title>
<g id="a_edge60_Node000001_Node000010"><a xlink:title=" ">
<path fill="none" stroke="#63b8ff" d="M964.77,-396.78C952.83,-388.89 937.89,-376.6 931,-361.25 920.16,-337.09 895.61,-363.81 941,-227 944.08,-217.71 949.39,-208.36 954.56,-200.58"/>
<polygon fill="#63b8ff" stroke="#63b8ff" points="957.27,-202.81 960.21,-192.63 951.57,-198.76 957.27,-202.81"/>
</a>
</g>
</g>
<!-- Node3 -->
<g id="Node000003" class="node">
<title>Node3</title>
<g id="a_Node000003"><a xlink:title=" ">
<polygon fill="#e0e0e0" stroke="#999999" points="479.38,-77.5 414.62,-77.5 414.62,-56.75 479.38,-56.75 479.38,-77.5"/>
<text text-anchor="middle" x="447" y="-64" font-family="Helvetica,sans-Serif" font-size="10.00">inttypes.h</text>
</a>
</g>
</g>
<!-- Node2&#45;&gt;Node3 -->
<g id="edge2_Node000002_Node000003" class="edge">
<title>Node2&#45;&gt;Node3</title>
<g id="a_edge2_Node000002_Node000003"><a xlink:title=" ">
<path fill="none" stroke="#63b8ff" d="M1100.86,-174.39C980.76,-163.67 718.01,-139.79 699,-134.25 679.39,-128.54 677.26,-120.28 658,-113.5 588.43,-89 565.48,-93.61 490.59,-77.99"/>
<polygon fill="#63b8ff" stroke="#63b8ff" points="491.65,-74.64 481.14,-75.96 490.19,-81.48 491.65,-74.64"/>
</a>
</g>
</g>
<!-- Node4&#45;&gt;Node2 -->
<g id="edge4_Node000004_Node000002" class="edge">
<title>Node4&#45;&gt;Node2</title>
<g id="a_edge4_Node000004_Node000002"><a xlink:title=" ">
<path fill="none" stroke="#63b8ff" d="M1018.17,-340.03C1059.16,-326.7 1123.93,-298.52 1152,-247.75 1159.62,-233.96 1161.4,-216.11 1161.39,-202.43"/>
<polygon fill="#63b8ff" stroke="#63b8ff" points="1164.9,-202.67 1161.05,-192.8 1157.9,-202.91 1164.9,-202.67"/>
</a>
</g>
</g>
<!-- Node5 -->
<g id="Node000005" class="node">
<title>Node5</title>
<g id="a_Node000005"><a xlink:href="inc_2vlcb_2module_2param_8h.html" target="_top" xlink:title=" ">
<polygon fill="white" stroke="#666666" points="1266.75,-134.25 1147.25,-134.25 1147.25,-113.5 1266.75,-113.5 1266.75,-134.25"/>
<text text-anchor="middle" x="1207" y="-120.75" font-family="Helvetica,sans-Serif" font-size="10.00">vlcb/module/param.h</text>
</a>
</g>
</g>
<!-- Node4&#45;&gt;Node5 -->
<g id="edge5_Node000004_Node000005" class="edge">
<title>Node4&#45;&gt;Node5</title>
<g id="a_edge5_Node000004_Node000005"><a xlink:title=" ">
<path fill="none" stroke="#63b8ff" d="M1024.87,-342.08C1054.17,-335.36 1092.97,-323.65 1123,-304.5 1180.94,-267.54 1202.94,-254.99 1228,-191 1234.1,-175.42 1227.4,-157.29 1220,-143.95"/>
<polygon fill="#63b8ff" stroke="#63b8ff" points="1223.15,-142.4 1214.93,-135.72 1217.19,-146.07 1223.15,-142.4"/>
</a>
</g>
</g>
<!-- Node6 -->
<g id="Node000006" class="node">
<title>Node6</title>
<g id="a_Node000006"><a xlink:title=" ">
<polygon fill="#e0e0e0" stroke="#999999" points="897.38,-20.75 844.62,-20.75 844.62,0 897.38,0 897.38,-20.75"/>
<text text-anchor="middle" x="871" y="-7.25" font-family="Helvetica,sans-Serif" font-size="10.00">stdint.h</text>
</a>
</g>
</g>
<!-- Node4&#45;&gt;Node6 -->
<g id="edge59_Node000004_Node000006" class="edge">
<title>Node4&#45;&gt;Node6</title>
<g id="a_edge59_Node000004_Node000006"><a xlink:title=" ">
<path fill="none" stroke="#63b8ff" d="M939.17,-349.58C750.17,-347.73 0,-334.35 0,-238.38 0,-238.38 0,-238.38 0,-122.88 0,-45.11 86.21,-74.16 162,-56.75 291.41,-27.03 704.65,-15.21 832.76,-12.2"/>
<polygon fill="#63b8ff" stroke="#63b8ff" points="832.82,-15.7 842.73,-11.97 832.66,-8.7 832.82,-15.7"/>
</a>
</g>
</g>
<!-- Node9 -->
<g id="Node000009" class="node">
<title>Node9</title>
<g id="a_Node000009"><a xlink:href="state_8h.html" target="_top" xlink:title=" ">
<polygon fill="white" stroke="#666666" points="1143.38,-247.75 1030.62,-247.75 1030.62,-227 1143.38,-227 1143.38,-247.75"/>
<text text-anchor="middle" x="1087" y="-234.25" font-family="Helvetica,sans-Serif" font-size="10.00">vlcb/module/state.h</text>
</a>
</g>
</g>
<!-- Node4&#45;&gt;Node9 -->
<g id="edge11_Node000004_Node000009" class="edge">
<title>Node4&#45;&gt;Node9</title>
<g id="a_edge11_Node000004_Node000009"><a xlink:title=" ">
<path fill="none" stroke="#63b8ff" d="M1009.33,-340.02C1026.5,-332.6 1047.98,-320.87 1062,-304.5 1073.11,-291.52 1079.53,-273.1 1083.08,-259"/>
<polygon fill="#63b8ff" stroke="#63b8ff" points="1086.45,-259.96 1085.17,-249.44 1079.61,-258.46 1086.45,-259.96"/>
</a>
</g>
</g>
<!-- Node4&#45;&gt;Node10 -->
<g id="edge58_Node000004_Node000010" class="edge">
<title>Node4&#45;&gt;Node10</title>
<g id="a_edge58_Node000004_Node000010"><a xlink:title=" ">
<path fill="none" stroke="#63b8ff" d="M971.44,-340.24C963,-331.78 951.81,-318.63 947,-304.5 935.05,-269.44 948.86,-226.42 959.37,-201.7"/>
<polygon fill="#63b8ff" stroke="#63b8ff" points="962.45,-203.37 963.37,-192.81 956.07,-200.49 962.45,-203.37"/>
</a>
</g>
</g>
<!-- Node11 -->
<g id="Node000011" class="node">
<title>Node11</title>
<g id="a_Node000011"><a xlink:href="ui_8h.html" target="_top" xlink:title=" ">
<polygon fill="white" stroke="#666666" points="1052.5,-304.5 955.5,-304.5 955.5,-283.75 1052.5,-283.75 1052.5,-304.5"/>
<text text-anchor="middle" x="1004" y="-291" font-family="Helvetica,sans-Serif" font-size="10.00">vlcb/module/ui.h</text>
</a>
</g>
</g>
<!-- Node4&#45;&gt;Node11 -->
<g id="edge16_Node000004_Node000011" class="edge">
<title>Node4&#45;&gt;Node11</title>
<g id="a_edge16_Node000004_Node000011"><a xlink:title=" ">
<path fill="none" stroke="#63b8ff" d="M985.93,-340.09C988.69,-333.24 992.46,-323.84 995.85,-315.4"/>
<polygon fill="#63b8ff" stroke="#63b8ff" points="999.06,-316.82 999.54,-306.23 992.56,-314.21 999.06,-316.82"/>
</a>
</g>
</g>
<!-- Node14 -->
<g id="Node000014" class="node">
<title>Node14</title>
<g id="a_Node000014"><a xlink:href="iface_8h.html" target="_top" xlink:title=" ">
<polygon fill="white" stroke="#666666" points="478.5,-304.5 387.5,-304.5 387.5,-283.75 478.5,-283.75 478.5,-304.5"/>
<text text-anchor="middle" x="433" y="-291" font-family="Helvetica,sans-Serif" font-size="10.00">vlcb/net/iface.h</text>
</a>
</g>
</g>
<!-- Node4&#45;&gt;Node14 -->
<g id="edge21_Node000004_Node000014" class="edge">
<title>Node4&#45;&gt;Node14</title>
<g id="a_edge21_Node000004_Node000014"><a xlink:title=" ">
<path fill="none" stroke="#63b8ff" d="M939.38,-345.62C841.44,-335.86 600.31,-311.81 489.88,-300.8"/>
<polygon fill="#63b8ff" stroke="#63b8ff" points="490.47,-297.34 480.17,-299.83 489.77,-304.3 490.47,-297.34"/>
</a>
</g>
</g>
<!-- Node23 -->
<g id="Node000023" class="node">
<title>Node23</title>
<g id="a_Node000023"><a xlink:href="socket_2datagram_8h.html" target="_top" xlink:title=" ">
<polygon fill="white" stroke="#666666" points="845.38,-304.5 696.62,-304.5 696.62,-283.75 845.38,-283.75 845.38,-304.5"/>
<text text-anchor="middle" x="771" y="-291" font-family="Helvetica,sans-Serif" font-size="10.00">vlcb/net/socket/datagram.h</text>
</a>
</g>
</g>
<!-- Node4&#45;&gt;Node23 -->
<g id="edge46_Node000004_Node000023" class="edge">
<title>Node4&#45;&gt;Node23</title>
<g id="a_edge46_Node000004_Node000023"><a xlink:title=" ">
<path fill="none" stroke="#63b8ff" d="M944.28,-340.09C909.43,-331.04 857.47,-317.56 819.54,-307.72"/>
<polygon fill="#63b8ff" stroke="#63b8ff" points="820.77,-304.42 810.22,-305.3 819.02,-311.2 820.77,-304.42"/>
</a>
</g>
</g>
<!-- Node5&#45;&gt;Node6 -->
<g id="edge6_Node000005_Node000006" class="edge">
<title>Node5&#45;&gt;Node6</title>
<g id="a_edge6_Node000005_Node000006"><a xlink:title=" ">
<path fill="none" stroke="#63b8ff" d="M1218.04,-113.43C1232.77,-99.71 1255.3,-74.05 1240,-56.75 1218.28,-32.2 998.71,-18.04 908.94,-13.24"/>
<polygon fill="#63b8ff" stroke="#63b8ff" points="909.34,-9.76 899.17,-12.73 908.97,-16.75 909.34,-9.76"/>
</a>
</g>
</g>
<!-- Node7 -->
<g id="Node000007" class="node">
<title>Node7</title>
<g id="a_Node000007"><a xlink:href="common_2inc_2vlcb_2common_2module_8h.html" target="_top" xlink:title=" ">
<polygon fill="white" stroke="#666666" points="1231.38,-77.5 1100.62,-77.5 1100.62,-56.75 1231.38,-56.75 1231.38,-77.5"/>
<text text-anchor="middle" x="1166" y="-64" font-family="Helvetica,sans-Serif" font-size="10.00">vlcb/common/module.h</text>
</a>
</g>
</g>
<!-- Node5&#45;&gt;Node7 -->
<g id="edge7_Node000005_Node000007" class="edge">
<title>Node5&#45;&gt;Node7</title>
<g id="a_edge7_Node000005_Node000007"><a xlink:title=" ">
<path fill="none" stroke="#63b8ff" d="M1199.67,-113.09C1194.25,-105.85 1186.69,-95.76 1180.11,-86.97"/>
<polygon fill="#63b8ff" stroke="#63b8ff" points="1182.97,-84.95 1174.17,-79.04 1177.37,-89.14 1182.97,-84.95"/>
</a>
</g>
</g>
<!-- Node8 -->
<g id="Node000008" class="node">
<title>Node8</title>
<g id="a_Node000008"><a xlink:href="vlcb__defs_8h.html" target="_top" xlink:title=" ">
<polygon fill="white" stroke="#666666" points="824.25,-77.5 683.75,-77.5 683.75,-56.75 824.25,-56.75 824.25,-77.5"/>
<text text-anchor="middle" x="754" y="-64" font-family="Helvetica,sans-Serif" font-size="10.00">vlcb/common/vlcb_defs.h</text>
</a>
</g>
</g>
<!-- Node5&#45;&gt;Node8 -->
<g id="edge9_Node000005_Node000008" class="edge">
<title>Node5&#45;&gt;Node8</title>
<g id="a_edge9_Node000005_Node000008"><a xlink:title=" ">
<path fill="none" stroke="#63b8ff" d="M1146.85,-115.6C1066.87,-105.94 925.24,-88.82 835.66,-77.99"/>
<polygon fill="#63b8ff" stroke="#63b8ff" points="836.31,-74.55 825.97,-76.82 835.47,-81.5 836.31,-74.55"/>
</a>
</g>
</g>
<!-- Node7&#45;&gt;Node6 -->
<g id="edge8_Node000007_Node000006" class="edge">
<title>Node7&#45;&gt;Node6</title>
<g id="a_edge8_Node000007_Node000006"><a xlink:title=" ">
<path fill="none" stroke="#63b8ff" d="M1112.92,-56.27C1054.01,-45.34 960.43,-27.97 908.62,-18.36"/>
<polygon fill="#63b8ff" stroke="#63b8ff" points="909.57,-14.97 899.1,-16.59 908.29,-21.86 909.57,-14.97"/>
</a>
</g>
</g>
<!-- Node8&#45;&gt;Node6 -->
<g id="edge10_Node000008_Node000006" class="edge">
<title>Node8&#45;&gt;Node6</title>
<g id="a_edge10_Node000008_Node000006"><a xlink:title=" ">
<path fill="none" stroke="#63b8ff" d="M774.92,-56.34C792.97,-47.89 819.3,-35.57 839.84,-25.96"/>
<polygon fill="#63b8ff" stroke="#63b8ff" points="841.32,-29.13 848.89,-21.72 838.35,-22.79 841.32,-29.13"/>
</a>
</g>
</g>
<!-- Node9&#45;&gt;Node2 -->
<g id="edge12_Node000009_Node000002" class="edge">
<title>Node9&#45;&gt;Node2</title>
<g id="a_edge12_Node000009_Node000002"><a xlink:title=" ">
<path fill="none" stroke="#63b8ff" d="M1100.05,-226.59C1110.64,-218.65 1125.79,-207.28 1138.22,-197.96"/>
<polygon fill="#63b8ff" stroke="#63b8ff" points="1139.95,-201.04 1145.85,-192.24 1135.75,-195.44 1139.95,-201.04"/>
</a>
</g>
</g>
<!-- Node9&#45;&gt;Node6 -->
<g id="edge15_Node000009_Node000006" class="edge">
<title>Node9&#45;&gt;Node6</title>
<g id="a_edge15_Node000009_Node000006"><a xlink:title=" ">
<path fill="none" stroke="#63b8ff" d="M1083.57,-226.73C1078.48,-213.22 1067.99,-188.3 1054,-170.25 1006.44,-108.89 932.37,-53.45 894.72,-27.27"/>
<polygon fill="#63b8ff" stroke="#63b8ff" points="897.01,-24.6 886.78,-21.82 893.05,-30.37 897.01,-24.6"/>
</a>
</g>
</g>
<!-- Node9&#45;&gt;Node10 -->
<g id="edge13_Node000009_Node000010" class="edge">
<title>Node9&#45;&gt;Node10</title>
<g id="a_edge13_Node000009_Node000010"><a xlink:title=" ">
<path fill="none" stroke="#63b8ff" d="M1065.9,-226.59C1047.61,-218.1 1020.9,-205.7 1000.14,-196.08"/>
<polygon fill="#63b8ff" stroke="#63b8ff" points="1001.83,-193 991.29,-191.97 998.88,-199.35 1001.83,-193"/>
</a>
</g>
</g>
<!-- Node10&#45;&gt;Node10 -->
<g id="edge14_Node000010_Node000010" class="edge">
<title>Node10&#45;&gt;Node10</title>
<g id="a_edge14_Node000010_Node000010"><a xlink:title=" ">
<path fill="none" stroke="#63b8ff" d="M1027.22,-190.64C1037.61,-189.34 1044.88,-186 1044.88,-180.62 1044.88,-177.52 1042.45,-175.09 1038.39,-173.34"/>
<polygon fill="#63b8ff" stroke="#63b8ff" points="1039.23,-169.95 1028.69,-170.97 1037.57,-176.75 1039.23,-169.95"/>
</a>
</g>
</g>
<!-- Node11&#45;&gt;Node9 -->
<g id="edge17_Node000011_Node000009" class="edge">
<title>Node11&#45;&gt;Node9</title>
<g id="a_edge17_Node000011_Node000009"><a xlink:title=" ">
<path fill="none" stroke="#63b8ff" d="M1018.84,-283.34C1031.11,-275.24 1048.79,-263.58 1063.06,-254.17"/>
<polygon fill="#63b8ff" stroke="#63b8ff" points="1064.61,-257.34 1071.03,-248.91 1060.75,-251.5 1064.61,-257.34"/>
</a>
</g>
</g>
<!-- Node11&#45;&gt;Node10 -->
<g id="edge20_Node000011_Node000010" class="edge">
<title>Node11&#45;&gt;Node10</title>
<g id="a_edge20_Node000011_Node000010"><a xlink:title=" ">
<path fill="none" stroke="#63b8ff" d="M1001.02,-283.62C995.39,-265.69 983.09,-226.5 975.48,-202.26"/>
<polygon fill="#63b8ff" stroke="#63b8ff" points="978.86,-201.36 972.53,-192.87 972.19,-203.46 978.86,-201.36"/>
</a>
</g>
</g>
<!-- Node12 -->
<g id="Node000012" class="node">
<title>Node12</title>
<g id="a_Node000012"><a xlink:href="interface_8h.html" target="_top" xlink:title=" ">
<polygon fill="white" stroke="#666666" points="672.38,-191 535.62,-191 535.62,-170.25 672.38,-170.25 672.38,-191"/>
<text text-anchor="middle" x="604" y="-177.5" font-family="Helvetica,sans-Serif" font-size="10.00">vlcb/platform/interface.h</text>
</a>
</g>
</g>
<!-- Node11&#45;&gt;Node12 -->
<g id="edge18_Node000011_Node000012" class="edge">
<title>Node11&#45;&gt;Node12</title>
<g id="a_edge18_Node000011_Node000012"><a xlink:title=" ">
<path fill="none" stroke="#63b8ff" d="M968.85,-283.33C896.48,-263.15 730.83,-216.98 650.03,-194.46"/>
<polygon fill="#63b8ff" stroke="#63b8ff" points="651.24,-191.16 640.67,-191.85 649.36,-197.9 651.24,-191.16"/>
</a>
</g>
</g>
<!-- Node13 -->
<g id="Node000013" class="node">
<title>Node13</title>
<g id="a_Node000013"><a xlink:title=" ">
<polygon fill="#e0e0e0" stroke="#999999" points="613.5,-134.25 558.5,-134.25 558.5,-113.5 613.5,-113.5 613.5,-134.25"/>
<text text-anchor="middle" x="586" y="-120.75" font-family="Helvetica,sans-Serif" font-size="10.00">stddef.h</text>
</a>
</g>
</g>
<!-- Node12&#45;&gt;Node13 -->
<g id="edge19_Node000012_Node000013" class="edge">
<title>Node12&#45;&gt;Node13</title>
<g id="a_edge19_Node000012_Node000013"><a xlink:title=" ">
<path fill="none" stroke="#63b8ff" d="M600.78,-169.84C598.56,-163.06 595.51,-153.8 592.76,-145.44"/>
<polygon fill="#63b8ff" stroke="#63b8ff" points="596.11,-144.42 589.66,-136.02 589.46,-146.61 596.11,-144.42"/>
</a>
</g>
</g>
<!-- Node15 -->
<g id="Node000015" class="node">
<title>Node15</title>
<g id="a_Node000015"><a xlink:title=" ">
<polygon fill="#e0e0e0" stroke="#999999" points="231.5,-77.5 170.5,-77.5 170.5,-56.75 231.5,-56.75 231.5,-77.5"/>
<text text-anchor="middle" x="201" y="-64" font-family="Helvetica,sans-Serif" font-size="10.00">stdbool.h</text>
</a>
</g>
</g>
<!-- Node14&#45;&gt;Node15 -->
<g id="edge22_Node000014_Node000015" class="edge">
<title>Node14&#45;&gt;Node15</title>
<g id="a_edge22_Node000014_Node000015"><a xlink:title=" ">
<path fill="none" stroke="#63b8ff" d="M387.04,-286.62C300.53,-273.33 118.86,-240.11 82,-191 68.04,-172.39 84.45,-130.04 99,-113.5 114.63,-95.74 138.54,-84.6 159.29,-77.81"/>
<polygon fill="#63b8ff" stroke="#63b8ff" points="160.08,-81.22 168.65,-74.99 158.07,-74.52 160.08,-81.22"/>
</a>
</g>
</g>
<!-- Node16 -->
<g id="Node000016" class="node">
<title>Node16</title>
<g id="a_Node000016"><a xlink:href="adapter_8h.html" target="_top" xlink:title=" ">
<polygon fill="white" stroke="#666666" points="424.88,-247.75 363.12,-247.75 363.12,-227 424.88,-227 424.88,-247.75"/>
<text text-anchor="middle" x="394" y="-234.25" font-family="Helvetica,sans-Serif" font-size="10.00">adapter.h</text>
</a>
</g>
</g>
<!-- Node14&#45;&gt;Node16 -->
<g id="edge23_Node000014_Node000016" class="edge">
<title>Node14&#45;&gt;Node16</title>
<g id="a_edge23_Node000014_Node000016"><a xlink:title=" ">
<path fill="none" stroke="#63b8ff" d="M426.03,-283.34C420.87,-276.1 413.68,-266.01 407.43,-257.22"/>
<polygon fill="#63b8ff" stroke="#63b8ff" points="410.44,-255.43 401.79,-249.31 404.74,-259.49 410.44,-255.43"/>
</a>
</g>
</g>
<!-- Node21 -->
<g id="Node000021" class="node">
<title>Node21</title>
<g id="a_Node000021"><a xlink:href="socket_8h.html" target="_top" xlink:title=" ">
<polygon fill="white" stroke="#666666" points="499.25,-247.75 442.75,-247.75 442.75,-227 499.25,-227 499.25,-247.75"/>
<text text-anchor="middle" x="471" y="-234.25" font-family="Helvetica,sans-Serif" font-size="10.00">socket.h</text>
</a>
</g>
</g>
<!-- Node14&#45;&gt;Node21 -->
<g id="edge37_Node000014_Node000021" class="edge">
<title>Node14&#45;&gt;Node21</title>
<g id="a_edge37_Node000014_Node000021"><a xlink:title=" ">
<path fill="none" stroke="#63b8ff" d="M439.79,-283.34C444.77,-276.17 451.67,-266.23 457.72,-257.51"/>
<polygon fill="#63b8ff" stroke="#63b8ff" points="460.58,-259.53 463.4,-249.32 454.82,-255.54 460.58,-259.53"/>
</a>
</g>
</g>
<!-- Node16&#45;&gt;Node3 -->
<g id="edge24_Node000016_Node000003" class="edge">
<title>Node16&#45;&gt;Node3</title>
<g id="a_edge24_Node000016_Node000003"><a xlink:title=" ">
<path fill="none" stroke="#63b8ff" d="M394.65,-226.79C396.34,-205.63 401.92,-153.66 418,-113.5 421.67,-104.33 427.26,-94.99 432.55,-87.2"/>
<polygon fill="#63b8ff" stroke="#63b8ff" points="435.29,-89.37 438.26,-79.21 429.6,-85.3 435.29,-89.37"/>
</a>
</g>
</g>
<!-- Node16&#45;&gt;Node12 -->
<g id="edge27_Node000016_Node000012" class="edge">
<title>Node16&#45;&gt;Node12</title>
<g id="a_edge27_Node000016_Node000012"><a xlink:title=" ">
<path fill="none" stroke="#63b8ff" d="M424.99,-228.3C459.3,-219.35 515.06,-204.81 555.24,-194.34"/>
<polygon fill="#63b8ff" stroke="#63b8ff" points="555.87,-197.79 564.66,-191.88 554.1,-191.02 555.87,-197.79"/>
</a>
</g>
</g>
<!-- Node16&#45;&gt;Node15 -->
<g id="edge25_Node000016_Node000015" class="edge">
<title>Node16&#45;&gt;Node15</title>
<g id="a_edge25_Node000016_Node000015"><a xlink:title=" ">
<path fill="none" stroke="#63b8ff" d="M362.77,-236.53C293.29,-236.14 129.31,-230.91 95,-191 61.64,-152.2 128.96,-106.61 170.9,-83.39"/>
<polygon fill="#63b8ff" stroke="#63b8ff" points="172.46,-86.53 179.61,-78.71 169.14,-80.37 172.46,-86.53"/>
</a>
</g>
</g>
<!-- Node17 -->
<g id="Node000017" class="node">
<title>Node17</title>
<g id="a_Node000017"><a xlink:href="error_8h.html" target="_top" xlink:title=" ">
<polygon fill="white" stroke="#666666" points="612.88,-77.5 497.12,-77.5 497.12,-56.75 612.88,-56.75 612.88,-77.5"/>
<text text-anchor="middle" x="555" y="-64" font-family="Helvetica,sans-Serif" font-size="10.00">vlcb/platform/error.h</text>
</a>
</g>
</g>
<!-- Node16&#45;&gt;Node17 -->
<g id="edge26_Node000016_Node000017" class="edge">
<title>Node16&#45;&gt;Node17</title>
<g id="a_edge26_Node000016_Node000017"><a xlink:title=" ">
<path fill="none" stroke="#63b8ff" d="M398.25,-226.72C410.72,-198.5 446.56,-117.84 451,-113.5 465.84,-99 486.07,-88.75 504.75,-81.71"/>
<polygon fill="#63b8ff" stroke="#63b8ff" points="505.81,-85.04 514.09,-78.42 503.49,-78.44 505.81,-85.04"/>
</a>
</g>
</g>
<!-- Node18 -->
<g id="Node000018" class="node">
<title>Node18</title>
<g id="a_Node000018"><a xlink:href="packet_8h.html" target="_top" xlink:title=" ">
<polygon fill="white" stroke="#666666" points="222,-191 104,-191 104,-170.25 222,-170.25 222,-191"/>
<text text-anchor="middle" x="163" y="-177.5" font-family="Helvetica,sans-Serif" font-size="10.00">adapter/can/packet.h</text>
</a>
</g>
</g>
<!-- Node16&#45;&gt;Node18 -->
<g id="edge28_Node000016_Node000018" class="edge">
<title>Node16&#45;&gt;Node18</title>
<g id="a_edge28_Node000016_Node000018"><a xlink:title=" ">
<path fill="none" stroke="#63b8ff" d="M362.85,-228.99C325.15,-220.06 261.11,-204.88 215.69,-194.11"/>
<polygon fill="#63b8ff" stroke="#63b8ff" points="216.58,-190.73 206.05,-191.83 214.97,-197.54 216.58,-190.73"/>
</a>
</g>
</g>
<!-- Node20 -->
<g id="Node000020" class="node">
<title>Node20</title>
<g id="a_Node000020"><a xlink:href="addr_8h.html" target="_top" xlink:title=" ">
<polygon fill="white" stroke="#666666" points="328,-191 240,-191 240,-170.25 328,-170.25 328,-191"/>
<text text-anchor="middle" x="284" y="-177.5" font-family="Helvetica,sans-Serif" font-size="10.00">vlcb/net/addr.h</text>
</a>
</g>
</g>
<!-- Node16&#45;&gt;Node20 -->
<g id="edge35_Node000016_Node000020" class="edge">
<title>Node16&#45;&gt;Node20</title>
<g id="a_edge35_Node000016_Node000020"><a xlink:title=" ">
<path fill="none" stroke="#63b8ff" d="M374.33,-226.59C357.44,-218.18 332.83,-205.93 313.57,-196.34"/>
<polygon fill="#63b8ff" stroke="#63b8ff" points="315.36,-193.33 304.85,-192 312.24,-199.59 315.36,-193.33"/>
</a>
</g>
</g>
<!-- Node18&#45;&gt;Node15 -->
<g id="edge29_Node000018_Node000015" class="edge">
<title>Node18&#45;&gt;Node15</title>
<g id="a_edge29_Node000018_Node000015"><a xlink:title=" ">
<path fill="none" stroke="#63b8ff" d="M166.24,-170.12C172.35,-152.19 185.71,-113 193.97,-88.76"/>
<polygon fill="#63b8ff" stroke="#63b8ff" points="197.26,-89.95 197.17,-79.36 190.63,-87.69 197.26,-89.95"/>
</a>
</g>
</g>
<!-- Node19 -->
<g id="Node000019" class="node">
<title>Node19</title>
<g id="a_Node000019"><a xlink:href="common_2inc_2vlcb_2common_2can_8h.html" target="_top" xlink:title=" ">
<polygon fill="white" stroke="#666666" points="365.62,-134.25 254.38,-134.25 254.38,-113.5 365.62,-113.5 365.62,-134.25"/>
<text text-anchor="middle" x="310" y="-120.75" font-family="Helvetica,sans-Serif" font-size="10.00">vlcb/common/can.h</text>
</a>
</g>
</g>
<!-- Node18&#45;&gt;Node19 -->
<g id="edge30_Node000018_Node000019" class="edge">
<title>Node18&#45;&gt;Node19</title>
<g id="a_edge30_Node000018_Node000019"><a xlink:title=" ">
<path fill="none" stroke="#63b8ff" d="M189.28,-169.84C212.69,-161.12 247.19,-148.27 273.32,-138.54"/>
<polygon fill="#63b8ff" stroke="#63b8ff" points="274.38,-141.88 282.53,-135.11 271.94,-135.32 274.38,-141.88"/>
</a>
</g>
</g>
<!-- Node19&#45;&gt;Node3 -->
<g id="edge31_Node000019_Node000003" class="edge">
<title>Node19&#45;&gt;Node3</title>
<g id="a_edge31_Node000019_Node000003"><a xlink:title=" ">
<path fill="none" stroke="#63b8ff" d="M334.49,-113.09C356.12,-104.44 387.89,-91.75 412.16,-82.05"/>
<polygon fill="#63b8ff" stroke="#63b8ff" points="413.33,-85.35 421.31,-78.39 410.73,-78.85 413.33,-85.35"/>
</a>
</g>
</g>
<!-- Node19&#45;&gt;Node6 -->
<g id="edge33_Node000019_Node000006" class="edge">
<title>Node19&#45;&gt;Node6</title>
<g id="a_edge33_Node000019_Node000006"><a xlink:title=" ">
<path fill="none" stroke="#63b8ff" d="M320.21,-113.16C336.73,-98.1 371.02,-69.53 406,-56.75 484.26,-28.16 736.36,-16.24 832.9,-12.64"/>
<polygon fill="#63b8ff" stroke="#63b8ff" points="832.76,-16.15 842.63,-12.29 832.51,-9.15 832.76,-16.15"/>
</a>
</g>
</g>
<!-- Node19&#45;&gt;Node8 -->
<g id="edge34_Node000019_Node000008" class="edge">
<title>Node19&#45;&gt;Node8</title>
<g id="a_edge34_Node000019_Node000008"><a xlink:title=" ">
<path fill="none" stroke="#63b8ff" d="M365.78,-116C442.99,-106.48 582.94,-89.22 672.04,-78.23"/>
<polygon fill="#63b8ff" stroke="#63b8ff" points="672.45,-81.71 681.95,-77.01 671.59,-74.76 672.45,-81.71"/>
</a>
</g>
</g>
<!-- Node19&#45;&gt;Node15 -->
<g id="edge32_Node000019_Node000015" class="edge">
<title>Node19&#45;&gt;Node15</title>
<g id="a_edge32_Node000019_Node000015"><a xlink:title=" ">
<path fill="none" stroke="#63b8ff" d="M290.51,-113.09C273.85,-104.72 249.62,-92.54 230.56,-82.97"/>
<polygon fill="#63b8ff" stroke="#63b8ff" points="232.18,-79.87 221.67,-78.51 229.04,-86.12 232.18,-79.87"/>
</a>
</g>
</g>
<!-- Node20&#45;&gt;Node19 -->
<g id="edge36_Node000020_Node000019" class="edge">
<title>Node20&#45;&gt;Node19</title>
<g id="a_edge36_Node000020_Node000019"><a xlink:title=" ">
<path fill="none" stroke="#63b8ff" d="M288.65,-169.84C291.94,-162.91 296.47,-153.37 300.51,-144.86"/>
<polygon fill="#63b8ff" stroke="#63b8ff" points="303.61,-146.48 304.74,-135.95 297.29,-143.48 303.61,-146.48"/>
</a>
</g>
</g>
<!-- Node21&#45;&gt;Node12 -->
<g id="edge45_Node000021_Node000012" class="edge">
<title>Node21&#45;&gt;Node12</title>
<g id="a_edge45_Node000021_Node000012"><a xlink:title=" ">
<path fill="none" stroke="#63b8ff" d="M494.78,-226.59C515.68,-217.98 546.34,-205.36 569.86,-195.68"/>
<polygon fill="#63b8ff" stroke="#63b8ff" points="571.11,-198.95 579.03,-191.9 568.45,-192.47 571.11,-198.95"/>
</a>
</g>
</g>
<!-- Node21&#45;&gt;Node13 -->
<g id="edge39_Node000021_Node000013" class="edge">
<title>Node21&#45;&gt;Node13</title>
<g id="a_edge39_Node000021_Node000013"><a xlink:title=" ">
<path fill="none" stroke="#63b8ff" d="M478.03,-226.85C488.12,-213.48 507.62,-188.73 527,-170.25 537.99,-159.76 551.33,-149.34 562.54,-141.13"/>
<polygon fill="#63b8ff" stroke="#63b8ff" points="564.42,-144.1 570.51,-135.43 560.34,-138.41 564.42,-144.1"/>
</a>
</g>
</g>
<!-- Node21&#45;&gt;Node15 -->
<g id="edge38_Node000021_Node000015" class="edge">
<title>Node21&#45;&gt;Node15</title>
<g id="a_edge38_Node000021_Node000015"><a xlink:title=" ">
<path fill="none" stroke="#63b8ff" d="M452.59,-226.67C426.98,-213.31 379.01,-188.79 337,-170.25 296.83,-152.52 279.19,-161.8 245,-134.25 229.43,-121.7 217.38,-102.15 209.86,-87.55"/>
<polygon fill="#63b8ff" stroke="#63b8ff" points="213.18,-86.39 205.67,-78.92 206.88,-89.45 213.18,-86.39"/>
</a>
</g>
</g>
<!-- Node21&#45;&gt;Node20 -->
<g id="edge44_Node000021_Node000020" class="edge">
<title>Node21&#45;&gt;Node20</title>
<g id="a_edge44_Node000021_Node000020"><a xlink:title=" ">
<path fill="none" stroke="#63b8ff" d="M442.6,-228.06C412.27,-219.18 363.79,-204.99 328.41,-194.63"/>
<polygon fill="#63b8ff" stroke="#63b8ff" points="329.45,-191.28 318.87,-191.83 327.48,-198 329.45,-191.28"/>
</a>
</g>
</g>
<!-- Node22 -->
<g id="Node000022" class="node">
<title>Node22</title>
<g id="a_Node000022"><a xlink:href="vlcb_8h.html" target="_top" xlink:title=" ">
<polygon fill="white" stroke="#666666" points="540.25,-134.25 459.75,-134.25 459.75,-113.5 540.25,-113.5 540.25,-134.25"/>
<text text-anchor="middle" x="500" y="-120.75" font-family="Helvetica,sans-Serif" font-size="10.00">packet/vlcb.h</text>
</a>
</g>
</g>
<!-- Node21&#45;&gt;Node22 -->
<g id="edge40_Node000021_Node000022" class="edge">
<title>Node21&#45;&gt;Node22</title>
<g id="a_edge40_Node000021_Node000022"><a xlink:title=" ">
<path fill="none" stroke="#63b8ff" d="M473.47,-226.87C478.14,-208.94 488.33,-169.75 494.63,-145.51"/>
<polygon fill="#63b8ff" stroke="#63b8ff" points="497.94,-146.7 497.07,-136.14 491.17,-144.94 497.94,-146.7"/>
</a>
</g>
</g>
<!-- Node22&#45;&gt;Node3 -->
<g id="edge41_Node000022_Node000003" class="edge">
<title>Node22&#45;&gt;Node3</title>
<g id="a_edge41_Node000022_Node000003"><a xlink:title=" ">
<path fill="none" stroke="#63b8ff" d="M490.52,-113.09C483.21,-105.53 472.91,-94.89 464.16,-85.85"/>
<polygon fill="#63b8ff" stroke="#63b8ff" points="466.92,-83.67 457.45,-78.92 461.89,-88.54 466.92,-83.67"/>
</a>
</g>
</g>
<!-- Node22&#45;&gt;Node8 -->
<g id="edge42_Node000022_Node000008" class="edge">
<title>Node22&#45;&gt;Node8</title>
<g id="a_edge42_Node000022_Node000008"><a xlink:title=" ">
<path fill="none" stroke="#63b8ff" d="M540.53,-114.14C582.93,-105 649.82,-90.58 697.42,-80.32"/>
<polygon fill="#63b8ff" stroke="#63b8ff" points="697.95,-83.79 706.99,-78.26 696.48,-76.94 697.95,-83.79"/>
</a>
</g>
</g>
<!-- Node22&#45;&gt;Node17 -->
<g id="edge43_Node000022_Node000017" class="edge">
<title>Node22&#45;&gt;Node17</title>
<g id="a_edge43_Node000022_Node000017"><a xlink:title=" ">
<path fill="none" stroke="#63b8ff" d="M509.83,-113.09C517.42,-105.53 528.12,-94.89 537.2,-85.85"/>
<polygon fill="#63b8ff" stroke="#63b8ff" points="539.56,-88.43 544.18,-78.9 534.62,-83.47 539.56,-88.43"/>
</a>
</g>
</g>
<!-- Node23&#45;&gt;Node6 -->
<g id="edge57_Node000023_Node000006" class="edge">
<title>Node23&#45;&gt;Node6</title>
<g id="a_edge57_Node000023_Node000006"><a xlink:title=" ">
<path fill="none" stroke="#63b8ff" d="M789.95,-283.31C803.34,-275.43 820.67,-263.15 831,-247.75 874.6,-182.75 865.92,-155.11 876,-77.5 877.98,-62.27 876.54,-44.96 874.7,-31.87"/>
<polygon fill="#63b8ff" stroke="#63b8ff" points="878.21,-31.64 873.17,-22.32 871.3,-32.75 878.21,-31.64"/>
</a>
</g>
</g>
<!-- Node23&#45;&gt;Node12 -->
<g id="edge56_Node000023_Node000012" class="edge">
<title>Node23&#45;&gt;Node12</title>
<g id="a_edge56_Node000023_Node000012"><a xlink:title=" ">
<path fill="none" stroke="#63b8ff" d="M756.47,-283.43C727.73,-264.23 663.33,-221.24 628.12,-197.73"/>
<polygon fill="#63b8ff" stroke="#63b8ff" points="630.13,-194.86 619.87,-192.22 626.25,-200.69 630.13,-194.86"/>
</a>
</g>
</g>
<!-- Node23&#45;&gt;Node21 -->
<g id="edge51_Node000023_Node000021" class="edge">
<title>Node23&#45;&gt;Node21</title>
<g id="a_edge51_Node000023_Node000021"><a xlink:title=" ">
<path fill="none" stroke="#63b8ff" d="M717.02,-283.27C657.74,-272.45 563.93,-255.34 510.92,-245.66"/>
<polygon fill="#63b8ff" stroke="#63b8ff" points="511.59,-242.22 501.12,-243.87 510.33,-249.11 511.59,-242.22"/>
</a>
</g>
</g>
<!-- Node24 -->
<g id="Node000024" class="node">
<title>Node24</title>
<g id="a_Node000024"><a xlink:href="packet_2datagram_8h.html" target="_top" xlink:title=" ">
<polygon fill="white" stroke="#666666" points="824.25,-134.25 707.75,-134.25 707.75,-113.5 824.25,-113.5 824.25,-134.25"/>
<text text-anchor="middle" x="766" y="-120.75" font-family="Helvetica,sans-Serif" font-size="10.00">../packet/datagram.h</text>
</a>
</g>
</g>
<!-- Node23&#45;&gt;Node24 -->
<g id="edge47_Node000023_Node000024" class="edge">
<title>Node23&#45;&gt;Node24</title>
<g id="a_edge47_Node000023_Node000024"><a xlink:title=" ">
<path fill="none" stroke="#63b8ff" d="M781.36,-283.44C802.44,-262.53 846.61,-211.68 826,-170.25 819.79,-157.77 808.33,-147.81 797.07,-140.44"/>
<polygon fill="#63b8ff" stroke="#63b8ff" points="799.05,-137.54 788.67,-135.4 795.45,-143.54 799.05,-137.54"/>
</a>
</g>
</g>
<!-- Node25 -->
<g id="Node000025" class="node">
<title>Node25</title>
<g id="a_Node000025"><a xlink:href="packet__buf_8h.html" target="_top" xlink:title=" ">
<polygon fill="white" stroke="#666666" points="817.12,-191 690.88,-191 690.88,-170.25 817.12,-170.25 817.12,-191"/>
<text text-anchor="middle" x="754" y="-177.5" font-family="Helvetica,sans-Serif" font-size="10.00">../storage/packet_buf.h</text>
</a>
</g>
</g>
<!-- Node23&#45;&gt;Node25 -->
<g id="edge52_Node000023_Node000025" class="edge">
<title>Node23&#45;&gt;Node25</title>
<g id="a_edge52_Node000023_Node000025"><a xlink:title=" ">
<path fill="none" stroke="#63b8ff" d="M769.55,-283.62C766.83,-265.77 760.9,-226.86 757.2,-202.59"/>
<polygon fill="#63b8ff" stroke="#63b8ff" points="760.69,-202.28 755.72,-192.92 753.77,-203.33 760.69,-202.28"/>
</a>
</g>
</g>
<!-- Node24&#45;&gt;Node3 -->
<g id="edge48_Node000024_Node000003" class="edge">
<title>Node24&#45;&gt;Node3</title>
<g id="a_edge48_Node000024_Node000003"><a xlink:title=" ">
<path fill="none" stroke="#63b8ff" d="M707.5,-114.42C653.54,-106.38 570.94,-93.44 490.46,-77.89"/>
<polygon fill="#63b8ff" stroke="#63b8ff" points="491.6,-74.55 481.12,-76.07 490.27,-81.42 491.6,-74.55"/>
</a>
</g>
</g>
<!-- Node24&#45;&gt;Node8 -->
<g id="edge49_Node000024_Node000008" class="edge">
<title>Node24&#45;&gt;Node8</title>
<g id="a_edge49_Node000024_Node000008"><a xlink:title=" ">
<path fill="none" stroke="#63b8ff" d="M763.85,-113.09C762.39,-106.39 760.39,-97.26 758.57,-88.98"/>
<polygon fill="#63b8ff" stroke="#63b8ff" points="762.01,-88.33 756.45,-79.31 755.17,-89.82 762.01,-88.33"/>
</a>
</g>
</g>
<!-- Node24&#45;&gt;Node17 -->
<g id="edge50_Node000024_Node000017" class="edge">
<title>Node24&#45;&gt;Node17</title>
<g id="a_edge50_Node000024_Node000017"><a xlink:title=" ">
<path fill="none" stroke="#63b8ff" d="M728.28,-113.09C693.43,-104.04 641.47,-90.56 603.54,-80.72"/>
<polygon fill="#63b8ff" stroke="#63b8ff" points="604.77,-77.42 594.22,-78.3 603.02,-84.2 604.77,-77.42"/>
</a>
</g>
</g>
<!-- Node25&#45;&gt;Node6 -->
<g id="edge55_Node000025_Node000006" class="edge">
<title>Node25&#45;&gt;Node6</title>
<g id="a_edge55_Node000025_Node000006"><a xlink:title=" ">
<path fill="none" stroke="#63b8ff" d="M781.7,-169.81C798.74,-162.46 819.76,-150.8 833,-134.25 857.09,-104.13 865.97,-58.71 869.2,-32.36"/>
<polygon fill="#63b8ff" stroke="#63b8ff" points="872.66,-32.91 870.22,-22.61 865.7,-32.19 872.66,-32.91"/>
</a>
</g>
</g>
<!-- Node25&#45;&gt;Node13 -->
<g id="edge54_Node000025_Node000013" class="edge">
<title>Node25&#45;&gt;Node13</title>
<g id="a_edge54_Node000025_Node000013"><a xlink:title=" ">
<path fill="none" stroke="#63b8ff" d="M723.96,-169.84C696.14,-160.77 654.62,-147.24 624.4,-137.39"/>
<polygon fill="#63b8ff" stroke="#63b8ff" points="625.85,-134.18 615.26,-134.41 623.69,-140.84 625.85,-134.18"/>
</a>
</g>
</g>
<!-- Node25&#45;&gt;Node15 -->
<g id="edge53_Node000025_Node000015" class="edge">
<title>Node25&#45;&gt;Node15</title>
<g id="a_edge53_Node000025_Node000015"><a xlink:title=" ">
<path fill="none" stroke="#63b8ff" d="M734.9,-169.76C699.99,-151.75 628.88,-115.24 623,-113.5 552.51,-92.67 335.59,-76.75 243.29,-70.74"/>
<polygon fill="#63b8ff" stroke="#63b8ff" points="243.6,-67.25 233.4,-70.1 243.15,-74.24 243.6,-67.25"/>
</a>
</g>
</g>
</g>
</svg>
