<?xml version="1.0" encoding="UTF-8" standalone="no"?>
<!DOCTYPE svg PUBLIC "-//W3C//DTD SVG 1.1//EN"
 "http://www.w3.org/Graphics/SVG/1.1/DTD/svg11.dtd">
<!-- Generated by graphviz version 12.1.2 (20240928.0832)
 -->
<!-- Title: state_machine.c Pages: 1 -->
<svg width="1745pt" height="496pt"
 viewBox="0.00 0.00 1744.75 495.50" xmlns="http://www.w3.org/2000/svg" xmlns:xlink="http://www.w3.org/1999/xlink">
<g id="graph0" class="graph" transform="scale(1 1) rotate(0) translate(4 491.5)">
<title>state_machine.c</title>
<!-- Node1 -->
<g id="Node000001" class="node">
<title>Node1</title>
<g id="a_Node000001"><a xlink:title=" ">
<polygon fill="#999999" stroke="#666666" points="961.88,-487.5 865.62,-487.5 865.62,-466.75 961.88,-466.75 961.88,-487.5"/>
<text text-anchor="middle" x="913.75" y="-474" font-family="Helvetica,sans-Serif" font-size="10.00">state_machine.c</text>
</a>
</g>
</g>
<!-- Node2 -->
<g id="Node000002" class="node">
<title>Node2</title>
<g id="a_Node000002"><a xlink:href="state__machine_8h.html" target="_top" xlink:title=" ">
<polygon fill="white" stroke="#666666" points="476.25,-430.75 379.25,-430.75 379.25,-410 476.25,-410 476.25,-430.75"/>
<text text-anchor="middle" x="427.75" y="-417.25" font-family="Helvetica,sans-Serif" font-size="10.00">state_machine.h</text>
</a>
</g>
</g>
<!-- Node1&#45;&gt;Node2 -->
<g id="edge1_Node000001_Node000002" class="edge">
<title>Node1&#45;&gt;Node2</title>
<g id="a_edge1_Node000001_Node000002"><a xlink:title=" ">
<path fill="none" stroke="#63b8ff" d="M865.37,-470.68C776.09,-460.62 585.63,-439.16 488.08,-428.17"/>
<polygon fill="#63b8ff" stroke="#63b8ff" points="488.48,-424.7 478.16,-427.05 487.7,-431.65 488.48,-424.7"/>
</a>
</g>
</g>
<!-- Node3 -->
<g id="Node000003" class="node">
<title>Node3</title>
<g id="a_Node000003"><a xlink:href="node_8h.html" target="_top" xlink:title=" ">
<polygon fill="white" stroke="#666666" points="277.75,-191 159.75,-191 159.75,-170.25 277.75,-170.25 277.75,-191"/>
<text text-anchor="middle" x="218.75" y="-177.5" font-family="Helvetica,sans-Serif" font-size="10.00">vlcb/common/node.h</text>
</a>
</g>
</g>
<!-- Node1&#45;&gt;Node3 -->
<g id="edge64_Node000001_Node000003" class="edge">
<title>Node1&#45;&gt;Node3</title>
<g id="a_edge64_Node000001_Node000003"><a xlink:title=" ">
<path fill="none" stroke="#63b8ff" d="M865.26,-475.06C749.84,-472.05 461.68,-461.6 370.75,-430.75 319.23,-413.27 267.75,-419.02 267.75,-364.62 267.75,-364.62 267.75,-364.62 267.75,-305.88 267.75,-269.82 263.13,-260.07 248.75,-227 244.77,-217.85 238.96,-208.52 233.51,-200.72"/>
<polygon fill="#63b8ff" stroke="#63b8ff" points="236.38,-198.7 227.64,-192.71 230.73,-202.84 236.38,-198.7"/>
</a>
</g>
</g>
<!-- Node5 -->
<g id="Node000005" class="node">
<title>Node5</title>
<g id="a_Node000005"><a xlink:href="module_2inc_2vlcb_2module_8h.html" target="_top" xlink:title=" ">
<polygon fill="white" stroke="#666666" points="553.25,-374 468.25,-374 468.25,-353.25 553.25,-353.25 553.25,-374"/>
<text text-anchor="middle" x="510.75" y="-360.5" font-family="Helvetica,sans-Serif" font-size="10.00">vlcb/module.h</text>
</a>
</g>
</g>
<!-- Node1&#45;&gt;Node5 -->
<g id="edge65_Node000001_Node000005" class="edge">
<title>Node1&#45;&gt;Node5</title>
<g id="a_edge65_Node000001_Node000005"><a xlink:title=" ">
<path fill="none" stroke="#63b8ff" d="M878.34,-466.33C805.42,-446.15 638.54,-399.98 557.13,-377.46"/>
<polygon fill="#63b8ff" stroke="#63b8ff" points="558.25,-374.14 547.68,-374.84 556.39,-380.88 558.25,-374.14"/>
</a>
</g>
</g>
<!-- Node12 -->
<g id="Node000012" class="node">
<title>Node12</title>
<g id="a_Node000012"><a xlink:href="state_8h.html" target="_top" xlink:title=" ">
<polygon fill="white" stroke="#666666" points="240.12,-254.12 127.38,-254.12 127.38,-233.38 240.12,-233.38 240.12,-254.12"/>
<text text-anchor="middle" x="183.75" y="-240.62" font-family="Helvetica,sans-Serif" font-size="10.00">vlcb/module/state.h</text>
</a>
</g>
</g>
<!-- Node1&#45;&gt;Node12 -->
<g id="edge66_Node000001_Node000012" class="edge">
<title>Node1&#45;&gt;Node12</title>
<g id="a_edge66_Node000001_Node000012"><a xlink:title=" ">
<path fill="none" stroke="#63b8ff" d="M865.27,-475.77C721.18,-474.33 302.47,-467 253.75,-430.75 200.42,-391.06 187.71,-305.75 184.69,-265.97"/>
<polygon fill="#63b8ff" stroke="#63b8ff" points="188.19,-265.85 184.09,-256.08 181.2,-266.27 188.19,-265.85"/>
</a>
</g>
</g>
<!-- Node13 -->
<g id="Node000013" class="node">
<title>Node13</title>
<g id="a_Node000013"><a xlink:href="time_8h.html" target="_top" xlink:title=" ">
<polygon fill="white" stroke="#666666" points="47.5,-191 0,-191 0,-170.25 47.5,-170.25 47.5,-191"/>
<text text-anchor="middle" x="23.75" y="-177.5" font-family="Helvetica,sans-Serif" font-size="10.00">time.h</text>
</a>
</g>
</g>
<!-- Node1&#45;&gt;Node13 -->
<g id="edge78_Node000001_Node000013" class="edge">
<title>Node1&#45;&gt;Node13</title>
<g id="a_edge78_Node000001_Node000013"><a xlink:title=" ">
<path fill="none" stroke="#63b8ff" d="M865.27,-475.2C679.54,-471.01 23.75,-450.17 23.75,-364.62 23.75,-364.62 23.75,-364.62 23.75,-305.88 23.75,-269.67 23.75,-227.53 23.75,-202.8"/>
<polygon fill="#63b8ff" stroke="#63b8ff" points="27.25,-202.8 23.75,-192.8 20.25,-202.8 27.25,-202.8"/>
</a>
</g>
</g>
<!-- Node15 -->
<g id="Node000015" class="node">
<title>Node15</title>
<g id="a_Node000015"><a xlink:href="interface_8h.html" target="_top" xlink:title=" ">
<polygon fill="white" stroke="#666666" points="1000.12,-191 863.38,-191 863.38,-170.25 1000.12,-170.25 1000.12,-191"/>
<text text-anchor="middle" x="931.75" y="-177.5" font-family="Helvetica,sans-Serif" font-size="10.00">vlcb/platform/interface.h</text>
</a>
</g>
</g>
<!-- Node1&#45;&gt;Node15 -->
<g id="edge77_Node000001_Node000015" class="edge">
<title>Node1&#45;&gt;Node15</title>
<g id="a_edge77_Node000001_Node000015"><a xlink:title=" ">
<path fill="none" stroke="#63b8ff" d="M962.36,-468.41C1017.17,-456.63 1098.75,-428.38 1098.75,-364.62 1098.75,-364.62 1098.75,-364.62 1098.75,-305.88 1098.75,-246.24 1029.36,-211.86 980.04,-194.95"/>
<polygon fill="#63b8ff" stroke="#63b8ff" points="981.26,-191.67 970.67,-191.89 979.08,-198.32 981.26,-191.67"/>
</a>
</g>
</g>
<!-- Node16 -->
<g id="Node000016" class="node">
<title>Node16</title>
<g id="a_Node000016"><a xlink:title=" ">
<polygon fill="#e0e0e0" stroke="#999999" points="957.25,-134.25 902.25,-134.25 902.25,-113.5 957.25,-113.5 957.25,-134.25"/>
<text text-anchor="middle" x="929.75" y="-120.75" font-family="Helvetica,sans-Serif" font-size="10.00">stddef.h</text>
</a>
</g>
</g>
<!-- Node1&#45;&gt;Node16 -->
<g id="edge81_Node000001_Node000016" class="edge">
<title>Node1&#45;&gt;Node16</title>
<g id="a_edge81_Node000001_Node000016"><a xlink:title=" ">
<path fill="none" stroke="#63b8ff" d="M962.35,-475.27C1034.81,-471.14 1162.75,-451.54 1162.75,-364.62 1162.75,-364.62 1162.75,-364.62 1162.75,-242.75 1162.75,-209.44 1168,-193.09 1143.75,-170.25 1086.72,-116.54 1046.26,-150.12 968.64,-135.34"/>
<polygon fill="#63b8ff" stroke="#63b8ff" points="969.43,-131.93 958.91,-133.23 967.95,-138.77 969.43,-131.93"/>
</a>
</g>
</g>
<!-- Node18 -->
<g id="Node000018" class="node">
<title>Node18</title>
<g id="a_Node000018"><a xlink:title=" ">
<polygon fill="#e0e0e0" stroke="#999999" points="656.25,-77.5 595.25,-77.5 595.25,-56.75 656.25,-56.75 656.25,-77.5"/>
<text text-anchor="middle" x="625.75" y="-64" font-family="Helvetica,sans-Serif" font-size="10.00">stdbool.h</text>
</a>
</g>
</g>
<!-- Node1&#45;&gt;Node18 -->
<g id="edge80_Node000001_Node000018" class="edge">
<title>Node1&#45;&gt;Node18</title>
<g id="a_edge80_Node000001_Node000018"><a xlink:title=" ">
<path fill="none" stroke="#63b8ff" d="M962.17,-474.83C1082,-470.3 1382.75,-450.41 1382.75,-364.62 1382.75,-364.62 1382.75,-364.62 1382.75,-242.75 1382.75,-201.76 1360.81,-191.48 1325.75,-170.25 1213.58,-102.32 801.43,-76.66 667.85,-70.01"/>
<polygon fill="#63b8ff" stroke="#63b8ff" points="668.2,-66.53 658.04,-69.54 667.86,-73.52 668.2,-66.53"/>
</a>
</g>
</g>
<!-- Node25 -->
<g id="Node000025" class="node">
<title>Node25</title>
<g id="a_Node000025"><a xlink:href="socket_8h.html" target="_top" xlink:title=" ">
<polygon fill="white" stroke="#666666" points="829,-254.12 772.5,-254.12 772.5,-233.38 829,-233.38 829,-254.12"/>
<text text-anchor="middle" x="800.75" y="-240.62" font-family="Helvetica,sans-Serif" font-size="10.00">socket.h</text>
</a>
</g>
</g>
<!-- Node1&#45;&gt;Node25 -->
<g id="edge75_Node000001_Node000025" class="edge">
<title>Node1&#45;&gt;Node25</title>
<g id="a_edge75_Node000001_Node000025"><a xlink:title=" ">
<path fill="none" stroke="#63b8ff" d="M905.74,-466.46C898.61,-457.56 888.17,-443.79 880.75,-430.75 848.08,-373.36 820.28,-300.04 807.79,-265.07"/>
<polygon fill="#63b8ff" stroke="#63b8ff" points="811.16,-264.09 804.54,-255.82 804.56,-266.42 811.16,-264.09"/>
</a>
</g>
</g>
<!-- Node27 -->
<g id="Node000027" class="node">
<title>Node27</title>
<g id="a_Node000027"><a xlink:href="socket_2datagram_8h.html" target="_top" xlink:title=" ">
<polygon fill="white" stroke="#666666" points="1071.12,-317.25 922.38,-317.25 922.38,-296.5 1071.12,-296.5 1071.12,-317.25"/>
<text text-anchor="middle" x="996.75" y="-303.75" font-family="Helvetica,sans-Serif" font-size="10.00">vlcb/net/socket/datagram.h</text>
</a>
</g>
</g>
<!-- Node1&#45;&gt;Node27 -->
<g id="edge76_Node000001_Node000027" class="edge">
<title>Node1&#45;&gt;Node27</title>
<g id="a_edge76_Node000001_Node000027"><a xlink:title=" ">
<path fill="none" stroke="#63b8ff" d="M918.45,-466.6C931.63,-439.89 969.13,-363.87 987.02,-327.6"/>
<polygon fill="#63b8ff" stroke="#63b8ff" points="989.94,-329.59 991.22,-319.07 983.66,-326.49 989.94,-329.59"/>
</a>
</g>
</g>
<!-- Node28 -->
<g id="Node000028" class="node">
<title>Node28</title>
<g id="a_Node000028"><a xlink:href="packet_2datagram_8h.html" target="_top" xlink:title=" ">
<polygon fill="white" stroke="#666666" points="1135,-191 1018.5,-191 1018.5,-170.25 1135,-170.25 1135,-191"/>
<text text-anchor="middle" x="1076.75" y="-177.5" font-family="Helvetica,sans-Serif" font-size="10.00">../packet/datagram.h</text>
</a>
</g>
</g>
<!-- Node1&#45;&gt;Node28 -->
<g id="edge67_Node000001_Node000028" class="edge">
<title>Node1&#45;&gt;Node28</title>
<g id="a_edge67_Node000001_Node000028"><a xlink:title=" ">
<path fill="none" stroke="#63b8ff" d="M910.95,-466.38C905.66,-447.11 894.75,-402.72 894.75,-364.62 894.75,-364.62 894.75,-364.62 894.75,-305.88 894.75,-243.95 967.5,-210.67 1021.01,-194.56"/>
<polygon fill="#63b8ff" stroke="#63b8ff" points="1021.66,-198.01 1030.31,-191.88 1019.73,-191.28 1021.66,-198.01"/>
</a>
</g>
</g>
<!-- Node30 -->
<g id="Node000030" class="node">
<title>Node30</title>
<g id="a_Node000030"><a xlink:href="net_2inc_2vlcb_2net_2packet_2datagram_2module_8h.html" target="_top" xlink:title=" ">
<polygon fill="white" stroke="#666666" points="1551,-260.5 1410.5,-260.5 1410.5,-227 1551,-227 1551,-260.5"/>
<text text-anchor="start" x="1418.5" y="-247" font-family="Helvetica,sans-Serif" font-size="10.00">vlcb/net/packet/datagram</text>
<text text-anchor="middle" x="1480.75" y="-234.25" font-family="Helvetica,sans-Serif" font-size="10.00">/module.h</text>
</a>
</g>
</g>
<!-- Node1&#45;&gt;Node30 -->
<g id="edge68_Node000001_Node000030" class="edge">
<title>Node1&#45;&gt;Node30</title>
<g id="a_edge68_Node000001_Node000030"><a xlink:title=" ">
<path fill="none" stroke="#63b8ff" d="M961.96,-474.32C1077.24,-469.64 1361.88,-455.65 1396.75,-430.75 1449.63,-392.99 1469.86,-313.87 1477.07,-272.03"/>
<polygon fill="#63b8ff" stroke="#63b8ff" points="1480.51,-272.73 1478.61,-262.3 1473.59,-271.63 1480.51,-272.73"/>
</a>
</g>
</g>
<!-- Node32 -->
<g id="Node000032" class="node">
<title>Node32</title>
<g id="a_Node000032"><a xlink:title=" ">
<polygon fill="#e0e0e0" stroke="#999999" points="1504.25,-430.75 1449.25,-430.75 1449.25,-410 1504.25,-410 1504.25,-430.75"/>
<text text-anchor="middle" x="1476.75" y="-417.25" font-family="Helvetica,sans-Serif" font-size="10.00">assert.h</text>
</a>
</g>
</g>
<!-- Node1&#45;&gt;Node32 -->
<g id="edge79_Node000001_Node000032" class="edge">
<title>Node1&#45;&gt;Node32</title>
<g id="a_edge79_Node000001_Node000032"><a xlink:title=" ">
<path fill="none" stroke="#63b8ff" d="M962.13,-474.06C1054.47,-469.64 1262.02,-457.43 1434.75,-430.75 1435.75,-430.6 1436.76,-430.43 1437.79,-430.26"/>
<polygon fill="#63b8ff" stroke="#63b8ff" points="1438.18,-433.75 1447.35,-428.43 1436.87,-426.87 1438.18,-433.75"/>
</a>
</g>
</g>
<!-- Node33 -->
<g id="Node000033" class="node">
<title>Node33</title>
<g id="a_Node000033"><a xlink:title=" ">
<polygon fill="#e0e0e0" stroke="#999999" points="1575.12,-430.75 1522.38,-430.75 1522.38,-410 1575.12,-410 1575.12,-430.75"/>
<text text-anchor="middle" x="1548.75" y="-417.25" font-family="Helvetica,sans-Serif" font-size="10.00">string.h</text>
</a>
</g>
</g>
<!-- Node1&#45;&gt;Node33 -->
<g id="edge82_Node000001_Node000033" class="edge">
<title>Node1&#45;&gt;Node33</title>
<g id="a_edge82_Node000001_Node000033"><a xlink:title=" ">
<path fill="none" stroke="#63b8ff" d="M962.34,-475.51C1063.13,-473.57 1302.27,-465.57 1510.94,-430.94"/>
<polygon fill="#63b8ff" stroke="#63b8ff" points="1511.34,-434.43 1520.62,-429.31 1510.17,-427.52 1511.34,-434.43"/>
</a>
</g>
</g>
<!-- Node2&#45;&gt;Node3 -->
<g id="edge2_Node000002_Node000003" class="edge">
<title>Node2&#45;&gt;Node3</title>
<g id="a_edge2_Node000002_Node000003"><a xlink:title=" ">
<path fill="none" stroke="#63b8ff" d="M421.93,-409.78C403.75,-380.26 345.38,-289.06 281.75,-227 270.52,-216.04 256.47,-205.67 244.5,-197.61"/>
<polygon fill="#63b8ff" stroke="#63b8ff" points="246.59,-194.8 236.3,-192.26 242.76,-200.66 246.59,-194.8"/>
</a>
</g>
</g>
<!-- Node2&#45;&gt;Node5 -->
<g id="edge4_Node000002_Node000005" class="edge">
<title>Node2&#45;&gt;Node5</title>
<g id="a_edge4_Node000002_Node000005"><a xlink:title=" ">
<path fill="none" stroke="#63b8ff" d="M442.59,-409.59C454.86,-401.49 472.54,-389.83 486.81,-380.42"/>
<polygon fill="#63b8ff" stroke="#63b8ff" points="488.36,-383.59 494.78,-375.16 484.5,-377.75 488.36,-383.59"/>
</a>
</g>
</g>
<!-- Node2&#45;&gt;Node13 -->
<g id="edge63_Node000002_Node000013" class="edge">
<title>Node2&#45;&gt;Node13</title>
<g id="a_edge63_Node000002_Node000013"><a xlink:title=" ">
<path fill="none" stroke="#63b8ff" d="M378.97,-417.2C306.66,-411.5 170.48,-390.98 85.75,-317.25 67.41,-301.29 42.6,-235.72 30.69,-201.95"/>
<polygon fill="#63b8ff" stroke="#63b8ff" points="34.13,-201.19 27.55,-192.89 27.52,-203.48 34.13,-201.19"/>
</a>
</g>
</g>
<!-- Node4 -->
<g id="Node000004" class="node">
<title>Node4</title>
<g id="a_Node000004"><a xlink:title=" ">
<polygon fill="#e0e0e0" stroke="#999999" points="376.12,-77.5 311.38,-77.5 311.38,-56.75 376.12,-56.75 376.12,-77.5"/>
<text text-anchor="middle" x="343.75" y="-64" font-family="Helvetica,sans-Serif" font-size="10.00">inttypes.h</text>
</a>
</g>
</g>
<!-- Node3&#45;&gt;Node4 -->
<g id="edge3_Node000003_Node000004" class="edge">
<title>Node3&#45;&gt;Node4</title>
<g id="a_edge3_Node000003_Node000004"><a xlink:title=" ">
<path fill="none" stroke="#63b8ff" d="M229.09,-170.15C243.19,-157.25 269.26,-133.5 291.75,-113.5 302.34,-104.09 314.23,-93.69 323.97,-85.23"/>
<polygon fill="#63b8ff" stroke="#63b8ff" points="326.13,-87.99 331.4,-78.79 321.55,-82.7 326.13,-87.99"/>
</a>
</g>
</g>
<!-- Node5&#45;&gt;Node3 -->
<g id="edge5_Node000005_Node000003" class="edge">
<title>Node5&#45;&gt;Node3</title>
<g id="a_edge5_Node000005_Node000003"><a xlink:title=" ">
<path fill="none" stroke="#63b8ff" d="M497.81,-352.84C486.09,-343.86 468.44,-330.04 453.75,-317.25 409.82,-279.02 408.8,-256.77 358.75,-227 333.77,-212.14 303.35,-201.53 277.25,-194.32"/>
<polygon fill="#63b8ff" stroke="#63b8ff" points="278.39,-191 267.83,-191.83 276.6,-197.77 278.39,-191"/>
</a>
</g>
</g>
<!-- Node6 -->
<g id="Node000006" class="node">
<title>Node6</title>
<g id="a_Node000006"><a xlink:href="inc_2vlcb_2module_2param_8h.html" target="_top" xlink:title=" ">
<polygon fill="white" stroke="#666666" points="1414.5,-134.25 1295,-134.25 1295,-113.5 1414.5,-113.5 1414.5,-134.25"/>
<text text-anchor="middle" x="1354.75" y="-120.75" font-family="Helvetica,sans-Serif" font-size="10.00">vlcb/module/param.h</text>
</a>
</g>
</g>
<!-- Node5&#45;&gt;Node6 -->
<g id="edge6_Node000005_Node000006" class="edge">
<title>Node5&#45;&gt;Node6</title>
<g id="a_edge6_Node000005_Node000006"><a xlink:title=" ">
<path fill="none" stroke="#63b8ff" d="M553.63,-361.38C668.45,-357.71 980.85,-345.35 1079.75,-317.25 1197.96,-283.66 1241.54,-280.5 1325.75,-191 1337.83,-178.16 1345.39,-159.47 1349.75,-145.24"/>
<polygon fill="#63b8ff" stroke="#63b8ff" points="1353.01,-146.58 1352.29,-136.01 1346.26,-144.73 1353.01,-146.58"/>
</a>
</g>
</g>
<!-- Node7 -->
<g id="Node000007" class="node">
<title>Node7</title>
<g id="a_Node000007"><a xlink:title=" ">
<polygon fill="#e0e0e0" stroke="#999999" points="1191.12,-20.75 1138.38,-20.75 1138.38,0 1191.12,0 1191.12,-20.75"/>
<text text-anchor="middle" x="1164.75" y="-7.25" font-family="Helvetica,sans-Serif" font-size="10.00">stdint.h</text>
</a>
</g>
</g>
<!-- Node5&#45;&gt;Node7 -->
<g id="edge62_Node000005_Node000007" class="edge">
<title>Node5&#45;&gt;Node7</title>
<g id="a_edge62_Node000005_Node000007"><a xlink:title=" ">
<path fill="none" stroke="#63b8ff" d="M467.75,-358.01C375.02,-347.09 161.17,-316.26 118.75,-260.5 88.01,-220.09 125.53,-166.96 167.75,-113.5 193.88,-80.42 204.08,-71.02 243.75,-56.75 327.7,-26.55 963.81,-14.54 1126.8,-11.94"/>
<polygon fill="#63b8ff" stroke="#63b8ff" points="1126.67,-15.44 1136.62,-11.79 1126.56,-8.44 1126.67,-15.44"/>
</a>
</g>
</g>
<!-- Node5&#45;&gt;Node12 -->
<g id="edge16_Node000005_Node000012" class="edge">
<title>Node5&#45;&gt;Node12</title>
<g id="a_edge16_Node000005_Node000012"><a xlink:title=" ">
<path fill="none" stroke="#63b8ff" d="M483.43,-352.78C424.98,-331.71 287.7,-282.22 221.18,-258.24"/>
<polygon fill="#63b8ff" stroke="#63b8ff" points="222.78,-255.1 212.18,-255 220.4,-261.68 222.78,-255.1"/>
</a>
</g>
</g>
<!-- Node14 -->
<g id="Node000014" class="node">
<title>Node14</title>
<g id="a_Node000014"><a xlink:href="ui_8h.html" target="_top" xlink:title=" ">
<polygon fill="white" stroke="#666666" points="559.25,-317.25 462.25,-317.25 462.25,-296.5 559.25,-296.5 559.25,-317.25"/>
<text text-anchor="middle" x="510.75" y="-303.75" font-family="Helvetica,sans-Serif" font-size="10.00">vlcb/module/ui.h</text>
</a>
</g>
</g>
<!-- Node5&#45;&gt;Node14 -->
<g id="edge21_Node000005_Node000014" class="edge">
<title>Node5&#45;&gt;Node14</title>
<g id="a_edge21_Node000005_Node000014"><a xlink:title=" ">
<path fill="none" stroke="#63b8ff" d="M510.75,-352.84C510.75,-346.22 510.75,-337.22 510.75,-329.02"/>
<polygon fill="#63b8ff" stroke="#63b8ff" points="514.25,-329.09 510.75,-319.09 507.25,-329.09 514.25,-329.09"/>
</a>
</g>
</g>
<!-- Node17 -->
<g id="Node000017" class="node">
<title>Node17</title>
<g id="a_Node000017"><a xlink:href="iface_8h.html" target="_top" xlink:title=" ">
<polygon fill="white" stroke="#666666" points="669.25,-317.25 578.25,-317.25 578.25,-296.5 669.25,-296.5 669.25,-317.25"/>
<text text-anchor="middle" x="623.75" y="-303.75" font-family="Helvetica,sans-Serif" font-size="10.00">vlcb/net/iface.h</text>
</a>
</g>
</g>
<!-- Node5&#45;&gt;Node17 -->
<g id="edge25_Node000005_Node000017" class="edge">
<title>Node5&#45;&gt;Node17</title>
<g id="a_edge25_Node000005_Node000017"><a xlink:title=" ">
<path fill="none" stroke="#63b8ff" d="M530.95,-352.84C548.31,-344.43 573.58,-332.18 593.38,-322.59"/>
<polygon fill="#63b8ff" stroke="#63b8ff" points="594.89,-325.75 602.36,-318.24 591.84,-319.45 594.89,-325.75"/>
</a>
</g>
</g>
<!-- Node5&#45;&gt;Node27 -->
<g id="edge50_Node000005_Node000027" class="edge">
<title>Node5&#45;&gt;Node27</title>
<g id="a_edge50_Node000005_Node000027"><a xlink:title=" ">
<path fill="none" stroke="#63b8ff" d="M553.45,-357.81C633.24,-348.83 806.31,-329.33 911.03,-317.53"/>
<polygon fill="#63b8ff" stroke="#63b8ff" points="911.15,-321.04 920.7,-316.44 910.37,-314.08 911.15,-321.04"/>
</a>
</g>
</g>
<!-- Node6&#45;&gt;Node7 -->
<g id="edge7_Node000006_Node000007" class="edge">
<title>Node6&#45;&gt;Node7</title>
<g id="a_edge7_Node000006_Node000007"><a xlink:title=" ">
<path fill="none" stroke="#63b8ff" d="M1351.64,-113.25C1346.5,-98.82 1334.84,-71.72 1315.75,-56.75 1282.94,-31.03 1235.73,-19.85 1202.86,-15.02"/>
<polygon fill="#63b8ff" stroke="#63b8ff" points="1203.33,-11.55 1192.95,-13.71 1202.41,-18.49 1203.33,-11.55"/>
</a>
</g>
</g>
<!-- Node8 -->
<g id="Node000008" class="node">
<title>Node8</title>
<g id="a_Node000008"><a xlink:href="manufacturer_8h.html" target="_top" xlink:title=" ">
<polygon fill="white" stroke="#666666" points="1522.38,-77.5 1363.12,-77.5 1363.12,-56.75 1522.38,-56.75 1522.38,-77.5"/>
<text text-anchor="middle" x="1442.75" y="-64" font-family="Helvetica,sans-Serif" font-size="10.00">vlcb/common/manufacturer.h</text>
</a>
</g>
</g>
<!-- Node6&#45;&gt;Node8 -->
<g id="edge8_Node000006_Node000008" class="edge">
<title>Node6&#45;&gt;Node8</title>
<g id="a_edge8_Node000006_Node000008"><a xlink:title=" ">
<path fill="none" stroke="#63b8ff" d="M1370.48,-113.09C1383.62,-104.91 1402.59,-93.11 1417.8,-83.65"/>
<polygon fill="#63b8ff" stroke="#63b8ff" points="1419.23,-86.88 1425.87,-78.63 1415.53,-80.94 1419.23,-86.88"/>
</a>
</g>
</g>
<!-- Node9 -->
<g id="Node000009" class="node">
<title>Node9</title>
<g id="a_Node000009"><a xlink:href="common_2inc_2vlcb_2common_2module_8h.html" target="_top" xlink:title=" ">
<polygon fill="white" stroke="#666666" points="1671.12,-77.5 1540.38,-77.5 1540.38,-56.75 1671.12,-56.75 1671.12,-77.5"/>
<text text-anchor="middle" x="1605.75" y="-64" font-family="Helvetica,sans-Serif" font-size="10.00">vlcb/common/module.h</text>
</a>
</g>
</g>
<!-- Node6&#45;&gt;Node9 -->
<g id="edge10_Node000006_Node000009" class="edge">
<title>Node6&#45;&gt;Node9</title>
<g id="a_edge10_Node000006_Node000009"><a xlink:title=" ">
<path fill="none" stroke="#63b8ff" d="M1399.91,-113.02C1441.81,-103.88 1504.32,-90.25 1549.45,-80.41"/>
<polygon fill="#63b8ff" stroke="#63b8ff" points="1550.02,-83.86 1559.05,-78.31 1548.53,-77.02 1550.02,-83.86"/>
</a>
</g>
</g>
<!-- Node10 -->
<g id="Node000010" class="node">
<title>Node10</title>
<g id="a_Node000010"><a xlink:href="common_2inc_2vlcb_2common_2net_8h.html" target="_top" xlink:title=" ">
<polygon fill="white" stroke="#666666" points="1148.62,-77.5 1038.88,-77.5 1038.88,-56.75 1148.62,-56.75 1148.62,-77.5"/>
<text text-anchor="middle" x="1093.75" y="-64" font-family="Helvetica,sans-Serif" font-size="10.00">vlcb/common/net.h</text>
</a>
</g>
</g>
<!-- Node6&#45;&gt;Node10 -->
<g id="edge12_Node000006_Node000010" class="edge">
<title>Node6&#45;&gt;Node10</title>
<g id="a_edge12_Node000006_Node000010"><a xlink:title=" ">
<path fill="none" stroke="#63b8ff" d="M1307.79,-113.02C1264.13,-103.87 1198.95,-90.19 1152,-80.34"/>
<polygon fill="#63b8ff" stroke="#63b8ff" points="1152.76,-76.93 1142.26,-78.3 1151.33,-83.78 1152.76,-76.93"/>
</a>
</g>
</g>
<!-- Node11 -->
<g id="Node000011" class="node">
<title>Node11</title>
<g id="a_Node000011"><a xlink:href="processor_8h.html" target="_top" xlink:title=" ">
<polygon fill="white" stroke="#666666" points="1307,-77.5 1166.5,-77.5 1166.5,-56.75 1307,-56.75 1307,-77.5"/>
<text text-anchor="middle" x="1236.75" y="-64" font-family="Helvetica,sans-Serif" font-size="10.00">vlcb/common/processor.h</text>
</a>
</g>
</g>
<!-- Node6&#45;&gt;Node11 -->
<g id="edge14_Node000006_Node000011" class="edge">
<title>Node6&#45;&gt;Node11</title>
<g id="a_edge14_Node000006_Node000011"><a xlink:title=" ">
<path fill="none" stroke="#63b8ff" d="M1333.65,-113.09C1315.36,-104.6 1288.65,-92.2 1267.89,-82.58"/>
<polygon fill="#63b8ff" stroke="#63b8ff" points="1269.58,-79.5 1259.04,-78.47 1266.63,-85.85 1269.58,-79.5"/>
</a>
</g>
</g>
<!-- Node8&#45;&gt;Node7 -->
<g id="edge9_Node000008_Node000007" class="edge">
<title>Node8&#45;&gt;Node7</title>
<g id="a_edge9_Node000008_Node000007"><a xlink:title=" ">
<path fill="none" stroke="#63b8ff" d="M1392.73,-56.27C1338.02,-45.5 1251.6,-28.48 1202.37,-18.78"/>
<polygon fill="#63b8ff" stroke="#63b8ff" points="1203.25,-15.39 1192.77,-16.89 1201.9,-22.26 1203.25,-15.39"/>
</a>
</g>
</g>
<!-- Node9&#45;&gt;Node7 -->
<g id="edge11_Node000009_Node000007" class="edge">
<title>Node9&#45;&gt;Node7</title>
<g id="a_edge11_Node000009_Node000007"><a xlink:title=" ">
<path fill="none" stroke="#63b8ff" d="M1539.98,-57.78C1537.2,-57.43 1534.45,-57.09 1531.75,-56.75 1411.56,-41.71 1269.19,-24.19 1202.61,-16.02"/>
<polygon fill="#63b8ff" stroke="#63b8ff" points="1203.32,-12.58 1192.96,-14.83 1202.46,-19.53 1203.32,-12.58"/>
</a>
</g>
</g>
<!-- Node10&#45;&gt;Node7 -->
<g id="edge13_Node000010_Node000007" class="edge">
<title>Node10&#45;&gt;Node7</title>
<g id="a_edge13_Node000010_Node000007"><a xlink:title=" ">
<path fill="none" stroke="#63b8ff" d="M1106.44,-56.34C1116.64,-48.47 1131.19,-37.25 1143.21,-27.99"/>
<polygon fill="#63b8ff" stroke="#63b8ff" points="1145.19,-30.88 1150.97,-22 1140.91,-25.34 1145.19,-30.88"/>
</a>
</g>
</g>
<!-- Node11&#45;&gt;Node7 -->
<g id="edge15_Node000011_Node000007" class="edge">
<title>Node11&#45;&gt;Node7</title>
<g id="a_edge15_Node000011_Node000007"><a xlink:title=" ">
<path fill="none" stroke="#63b8ff" d="M1223.88,-56.34C1213.54,-48.47 1198.78,-37.25 1186.6,-27.99"/>
<polygon fill="#63b8ff" stroke="#63b8ff" points="1188.79,-25.26 1178.72,-21.99 1184.56,-30.83 1188.79,-25.26"/>
</a>
</g>
</g>
<!-- Node12&#45;&gt;Node3 -->
<g id="edge17_Node000012_Node000003" class="edge">
<title>Node12&#45;&gt;Node3</title>
<g id="a_edge17_Node000012_Node000003"><a xlink:title=" ">
<path fill="none" stroke="#63b8ff" d="M189.37,-232.93C194.3,-224.32 201.61,-211.56 207.7,-200.92"/>
<polygon fill="#63b8ff" stroke="#63b8ff" points="210.57,-202.95 212.5,-192.53 204.5,-199.47 210.57,-202.95"/>
</a>
</g>
</g>
<!-- Node12&#45;&gt;Node7 -->
<g id="edge18_Node000012_Node000007" class="edge">
<title>Node12&#45;&gt;Node7</title>
<g id="a_edge18_Node000012_Node000007"><a xlink:title=" ">
<path fill="none" stroke="#63b8ff" d="M173.8,-233.26C160.44,-219.31 139.59,-192.5 150.75,-170.25 188.53,-94.88 223.46,-85.42 302.75,-56.75 380.87,-28.5 970.29,-15.15 1126.73,-12.08"/>
<polygon fill="#63b8ff" stroke="#63b8ff" points="1126.61,-15.58 1136.54,-11.89 1126.48,-8.58 1126.61,-15.58"/>
</a>
</g>
</g>
<!-- Node12&#45;&gt;Node13 -->
<g id="edge19_Node000012_Node000013" class="edge">
<title>Node12&#45;&gt;Node13</title>
<g id="a_edge19_Node000012_Node000013"><a xlink:title=" ">
<path fill="none" stroke="#63b8ff" d="M158.04,-232.93C130.98,-222.59 88.22,-206.25 58.24,-194.8"/>
<polygon fill="#63b8ff" stroke="#63b8ff" points="59.83,-191.66 49.24,-191.36 57.33,-198.2 59.83,-191.66"/>
</a>
</g>
</g>
<!-- Node13&#45;&gt;Node13 -->
<g id="edge20_Node000013_Node000013" class="edge">
<title>Node13&#45;&gt;Node13</title>
<g id="a_edge20_Node000013_Node000013"><a xlink:title=" ">
<path fill="none" stroke="#63b8ff" d="M47.78,-191.2C57.41,-191.8 65.5,-188.27 65.5,-180.62 65.5,-176.32 62.94,-173.33 58.99,-171.63"/>
<polygon fill="#63b8ff" stroke="#63b8ff" points="59.67,-168.19 49.27,-170.26 58.69,-175.12 59.67,-168.19"/>
</a>
</g>
</g>
<!-- Node14&#45;&gt;Node12 -->
<g id="edge22_Node000014_Node000012" class="edge">
<title>Node14&#45;&gt;Node12</title>
<g id="a_edge22_Node000014_Node000012"><a xlink:title=" ">
<path fill="none" stroke="#63b8ff" d="M461.79,-296.72C404.73,-286.06 310.26,-268.4 247.51,-256.67"/>
<polygon fill="#63b8ff" stroke="#63b8ff" points="248.53,-253.3 238.06,-254.9 247.24,-260.18 248.53,-253.3"/>
</a>
</g>
</g>
<!-- Node14&#45;&gt;Node15 -->
<g id="edge23_Node000014_Node000015" class="edge">
<title>Node14&#45;&gt;Node15</title>
<g id="a_edge23_Node000014_Node000015"><a xlink:title=" ">
<path fill="none" stroke="#63b8ff" d="M559.67,-298.01C563.08,-297.49 566.47,-296.98 569.75,-296.5 688.66,-279.07 727.81,-309.05 837.75,-260.5 846.34,-256.71 887.7,-220.71 912.61,-198.68"/>
<polygon fill="#63b8ff" stroke="#63b8ff" points="914.66,-201.54 919.81,-192.29 910.01,-196.3 914.66,-201.54"/>
</a>
</g>
</g>
<!-- Node15&#45;&gt;Node16 -->
<g id="edge24_Node000015_Node000016" class="edge">
<title>Node15&#45;&gt;Node16</title>
<g id="a_edge24_Node000015_Node000016"><a xlink:title=" ">
<path fill="none" stroke="#63b8ff" d="M931.39,-169.84C931.15,-163.22 930.82,-154.22 930.52,-146.02"/>
<polygon fill="#63b8ff" stroke="#63b8ff" points="934.02,-145.96 930.16,-136.09 927.03,-146.21 934.02,-145.96"/>
</a>
</g>
</g>
<!-- Node17&#45;&gt;Node18 -->
<g id="edge26_Node000017_Node000018" class="edge">
<title>Node17&#45;&gt;Node18</title>
<g id="a_edge26_Node000017_Node000018"><a xlink:title=" ">
<path fill="none" stroke="#63b8ff" d="M623.83,-296.26C624.13,-261.09 625.15,-138.92 625.57,-89.31"/>
<polygon fill="#63b8ff" stroke="#63b8ff" points="629.07,-89.4 625.66,-79.37 622.07,-89.34 629.07,-89.4"/>
</a>
</g>
</g>
<!-- Node19 -->
<g id="Node000019" class="node">
<title>Node19</title>
<g id="a_Node000019"><a xlink:href="adapter_8h.html" target="_top" xlink:title=" ">
<polygon fill="white" stroke="#666666" points="595.62,-254.12 533.88,-254.12 533.88,-233.38 595.62,-233.38 595.62,-254.12"/>
<text text-anchor="middle" x="564.75" y="-240.62" font-family="Helvetica,sans-Serif" font-size="10.00">adapter.h</text>
</a>
</g>
</g>
<!-- Node17&#45;&gt;Node19 -->
<g id="edge27_Node000017_Node000019" class="edge">
<title>Node17&#45;&gt;Node19</title>
<g id="a_edge27_Node000017_Node000019"><a xlink:title=" ">
<path fill="none" stroke="#63b8ff" d="M614.27,-296.05C605.53,-287 592.35,-273.35 581.79,-262.4"/>
<polygon fill="#63b8ff" stroke="#63b8ff" points="584.53,-260.2 575.06,-255.43 579.49,-265.06 584.53,-260.2"/>
</a>
</g>
</g>
<!-- Node17&#45;&gt;Node25 -->
<g id="edge42_Node000017_Node000025" class="edge">
<title>Node17&#45;&gt;Node25</title>
<g id="a_edge42_Node000017_Node000025"><a xlink:title=" ">
<path fill="none" stroke="#63b8ff" d="M652.19,-296.05C681.86,-285.81 728.6,-269.67 761.72,-258.23"/>
<polygon fill="#63b8ff" stroke="#63b8ff" points="762.64,-261.61 770.95,-255.04 760.36,-255 762.64,-261.61"/>
</a>
</g>
</g>
<!-- Node19&#45;&gt;Node4 -->
<g id="edge28_Node000019_Node000004" class="edge">
<title>Node19&#45;&gt;Node4</title>
<g id="a_edge28_Node000019_Node000004"><a xlink:title=" ">
<path fill="none" stroke="#63b8ff" d="M533.54,-238.23C471.58,-228.95 337.87,-207.25 324.75,-191 300.78,-161.31 318.97,-114.05 332.52,-87.63"/>
<polygon fill="#63b8ff" stroke="#63b8ff" points="335.5,-89.48 337.19,-79.02 329.35,-86.14 335.5,-89.48"/>
</a>
</g>
</g>
<!-- Node19&#45;&gt;Node15 -->
<g id="edge31_Node000019_Node000015" class="edge">
<title>Node19&#45;&gt;Node15</title>
<g id="a_edge31_Node000019_Node000015"><a xlink:title=" ">
<path fill="none" stroke="#63b8ff" d="M596.04,-237.54C654.56,-227.79 781.88,-206.59 861.82,-193.27"/>
<polygon fill="#63b8ff" stroke="#63b8ff" points="861.99,-196.79 871.28,-191.7 860.84,-189.89 861.99,-196.79"/>
</a>
</g>
</g>
<!-- Node19&#45;&gt;Node18 -->
<g id="edge29_Node000019_Node000018" class="edge">
<title>Node19&#45;&gt;Node18</title>
<g id="a_edge29_Node000019_Node000018"><a xlink:title=" ">
<path fill="none" stroke="#63b8ff" d="M568.12,-233.11C577.72,-205.63 605.39,-126.41 618.58,-88.64"/>
<polygon fill="#63b8ff" stroke="#63b8ff" points="621.83,-89.97 621.82,-79.38 615.22,-87.66 621.83,-89.97"/>
</a>
</g>
</g>
<!-- Node20 -->
<g id="Node000020" class="node">
<title>Node20</title>
<g id="a_Node000020"><a xlink:href="error_8h.html" target="_top" xlink:title=" ">
<polygon fill="white" stroke="#666666" points="884.62,-134.25 768.88,-134.25 768.88,-113.5 884.62,-113.5 884.62,-134.25"/>
<text text-anchor="middle" x="826.75" y="-120.75" font-family="Helvetica,sans-Serif" font-size="10.00">vlcb/platform/error.h</text>
</a>
</g>
</g>
<!-- Node19&#45;&gt;Node20 -->
<g id="edge30_Node000019_Node000020" class="edge">
<title>Node19&#45;&gt;Node20</title>
<g id="a_edge30_Node000019_Node000020"><a xlink:title=" ">
<path fill="none" stroke="#63b8ff" d="M584.56,-233.09C613.76,-218.94 670.16,-191.88 718.75,-170.25 743.12,-159.4 770.86,-147.76 792.13,-138.99"/>
<polygon fill="#63b8ff" stroke="#63b8ff" points="793.29,-142.29 801.2,-135.25 790.62,-135.82 793.29,-142.29"/>
</a>
</g>
</g>
<!-- Node21 -->
<g id="Node000021" class="node">
<title>Node21</title>
<g id="a_Node000021"><a xlink:href="packet_8h.html" target="_top" xlink:title=" ">
<polygon fill="white" stroke="#666666" points="557.75,-191 439.75,-191 439.75,-170.25 557.75,-170.25 557.75,-191"/>
<text text-anchor="middle" x="498.75" y="-177.5" font-family="Helvetica,sans-Serif" font-size="10.00">adapter/can/packet.h</text>
</a>
</g>
</g>
<!-- Node19&#45;&gt;Node21 -->
<g id="edge32_Node000019_Node000021" class="edge">
<title>Node19&#45;&gt;Node21</title>
<g id="a_edge32_Node000019_Node000021"><a xlink:title=" ">
<path fill="none" stroke="#63b8ff" d="M554.15,-232.93C544.27,-223.79 529.34,-209.95 517.46,-198.95"/>
<polygon fill="#63b8ff" stroke="#63b8ff" points="519.94,-196.48 510.22,-192.25 515.18,-201.61 519.94,-196.48"/>
</a>
</g>
</g>
<!-- Node24 -->
<g id="Node000024" class="node">
<title>Node24</title>
<g id="a_Node000024"><a xlink:href="addr_8h.html" target="_top" xlink:title=" ">
<polygon fill="white" stroke="#666666" points="421.75,-191 333.75,-191 333.75,-170.25 421.75,-170.25 421.75,-191"/>
<text text-anchor="middle" x="377.75" y="-177.5" font-family="Helvetica,sans-Serif" font-size="10.00">vlcb/net/addr.h</text>
</a>
</g>
</g>
<!-- Node19&#45;&gt;Node24 -->
<g id="edge40_Node000019_Node000024" class="edge">
<title>Node19&#45;&gt;Node24</title>
<g id="a_edge40_Node000019_Node000024"><a xlink:title=" ">
<path fill="none" stroke="#63b8ff" d="M534.71,-232.93C503.22,-222.64 453.55,-206.4 418.53,-194.96"/>
<polygon fill="#63b8ff" stroke="#63b8ff" points="419.75,-191.67 409.16,-191.89 417.58,-198.33 419.75,-191.67"/>
</a>
</g>
</g>
<!-- Node21&#45;&gt;Node18 -->
<g id="edge33_Node000021_Node000018" class="edge">
<title>Node21&#45;&gt;Node18</title>
<g id="a_edge33_Node000021_Node000018"><a xlink:title=" ">
<path fill="none" stroke="#63b8ff" d="M509.66,-169.97C524.25,-157.08 550.91,-133.53 573.75,-113.5 584.4,-104.16 596.3,-93.77 606.03,-85.29"/>
<polygon fill="#63b8ff" stroke="#63b8ff" points="608.19,-88.05 613.44,-78.84 603.6,-82.77 608.19,-88.05"/>
</a>
</g>
</g>
<!-- Node22 -->
<g id="Node000022" class="node">
<title>Node22</title>
<g id="a_Node000022"><a xlink:href="common_2inc_2vlcb_2common_2can_8h.html" target="_top" xlink:title=" ">
<polygon fill="white" stroke="#666666" points="521.38,-134.25 410.12,-134.25 410.12,-113.5 521.38,-113.5 521.38,-134.25"/>
<text text-anchor="middle" x="465.75" y="-120.75" font-family="Helvetica,sans-Serif" font-size="10.00">vlcb/common/can.h</text>
</a>
</g>
</g>
<!-- Node21&#45;&gt;Node22 -->
<g id="edge34_Node000021_Node000022" class="edge">
<title>Node21&#45;&gt;Node22</title>
<g id="a_edge34_Node000021_Node000022"><a xlink:title=" ">
<path fill="none" stroke="#63b8ff" d="M492.85,-169.84C488.58,-162.75 482.67,-152.94 477.45,-144.29"/>
<polygon fill="#63b8ff" stroke="#63b8ff" points="480.54,-142.63 472.38,-135.87 474.54,-146.25 480.54,-142.63"/>
</a>
</g>
</g>
<!-- Node22&#45;&gt;Node4 -->
<g id="edge35_Node000022_Node000004" class="edge">
<title>Node22&#45;&gt;Node4</title>
<g id="a_edge35_Node000022_Node000004"><a xlink:title=" ">
<path fill="none" stroke="#63b8ff" d="M443.94,-113.09C424.94,-104.56 397.15,-92.09 375.66,-82.44"/>
<polygon fill="#63b8ff" stroke="#63b8ff" points="377.31,-79.35 366.75,-78.45 374.44,-85.74 377.31,-79.35"/>
</a>
</g>
</g>
<!-- Node22&#45;&gt;Node7 -->
<g id="edge37_Node000022_Node000007" class="edge">
<title>Node22&#45;&gt;Node7</title>
<g id="a_edge37_Node000022_Node000007"><a xlink:title=" ">
<path fill="none" stroke="#63b8ff" d="M479.06,-113.11C500.49,-97.98 544.53,-69.31 586.75,-56.75 688.44,-26.49 1014.63,-15.3 1126.6,-12.29"/>
<polygon fill="#63b8ff" stroke="#63b8ff" points="1126.54,-15.79 1136.45,-12.03 1126.36,-8.79 1126.54,-15.79"/>
</a>
</g>
</g>
<!-- Node22&#45;&gt;Node18 -->
<g id="edge36_Node000022_Node000018" class="edge">
<title>Node22&#45;&gt;Node18</title>
<g id="a_edge36_Node000022_Node000018"><a xlink:title=" ">
<path fill="none" stroke="#63b8ff" d="M494.35,-113.09C519.99,-104.32 557.82,-91.37 586.32,-81.62"/>
<polygon fill="#63b8ff" stroke="#63b8ff" points="587.36,-84.96 595.69,-78.41 585.1,-78.34 587.36,-84.96"/>
</a>
</g>
</g>
<!-- Node23 -->
<g id="Node000023" class="node">
<title>Node23</title>
<g id="a_Node000023"><a xlink:href="opcode_8h.html" target="_top" xlink:title=" ">
<polygon fill="white" stroke="#666666" points="876.88,-77.5 816.62,-77.5 816.62,-56.75 876.88,-56.75 876.88,-77.5"/>
<text text-anchor="middle" x="846.75" y="-64" font-family="Helvetica,sans-Serif" font-size="10.00">opcode.h</text>
</a>
</g>
</g>
<!-- Node22&#45;&gt;Node23 -->
<g id="edge38_Node000022_Node000023" class="edge">
<title>Node22&#45;&gt;Node23</title>
<g id="a_edge38_Node000022_Node000023"><a xlink:title=" ">
<path fill="none" stroke="#63b8ff" d="M521.56,-114.86C598.74,-103.76 736.3,-84 805.13,-74.11"/>
<polygon fill="#63b8ff" stroke="#63b8ff" points="805.46,-77.59 814.86,-72.71 804.46,-70.67 805.46,-77.59"/>
</a>
</g>
</g>
<!-- Node23&#45;&gt;Node7 -->
<g id="edge39_Node000023_Node000007" class="edge">
<title>Node23&#45;&gt;Node7</title>
<g id="a_edge39_Node000023_Node000007"><a xlink:title=" ">
<path fill="none" stroke="#63b8ff" d="M877.24,-60.88C935.63,-50.82 1063.09,-28.88 1126.85,-17.9"/>
<polygon fill="#63b8ff" stroke="#63b8ff" points="1127.23,-21.39 1136.49,-16.24 1126.04,-14.49 1127.23,-21.39"/>
</a>
</g>
</g>
<!-- Node24&#45;&gt;Node22 -->
<g id="edge41_Node000024_Node000022" class="edge">
<title>Node24&#45;&gt;Node22</title>
<g id="a_edge41_Node000024_Node000022"><a xlink:title=" ">
<path fill="none" stroke="#63b8ff" d="M393.48,-169.84C406.62,-161.66 425.59,-149.86 440.8,-140.4"/>
<polygon fill="#63b8ff" stroke="#63b8ff" points="442.23,-143.63 448.87,-135.38 438.53,-137.69 442.23,-143.63"/>
</a>
</g>
</g>
<!-- Node25&#45;&gt;Node15 -->
<g id="edge49_Node000025_Node000015" class="edge">
<title>Node25&#45;&gt;Node15</title>
<g id="a_edge49_Node000025_Node000015"><a xlink:title=" ">
<path fill="none" stroke="#63b8ff" d="M821.8,-232.93C843.09,-222.99 876.26,-207.52 900.6,-196.16"/>
<polygon fill="#63b8ff" stroke="#63b8ff" points="901.8,-199.46 909.38,-192.06 898.84,-193.12 901.8,-199.46"/>
</a>
</g>
</g>
<!-- Node25&#45;&gt;Node16 -->
<g id="edge44_Node000025_Node000016" class="edge">
<title>Node25&#45;&gt;Node16</title>
<g id="a_edge44_Node000025_Node000016"><a xlink:title=" ">
<path fill="none" stroke="#63b8ff" d="M806.38,-232.89C815.23,-218 833.61,-189.45 854.75,-170.25 867.89,-158.31 884.64,-147.83 898.97,-139.96"/>
<polygon fill="#63b8ff" stroke="#63b8ff" points="900.35,-143.18 907.55,-135.41 897.08,-137 900.35,-143.18"/>
</a>
</g>
</g>
<!-- Node25&#45;&gt;Node18 -->
<g id="edge43_Node000025_Node000018" class="edge">
<title>Node25&#45;&gt;Node18</title>
<g id="a_edge43_Node000025_Node000018"><a xlink:title=" ">
<path fill="none" stroke="#63b8ff" d="M781.16,-233C763.64,-223.7 737.84,-208.54 718.75,-191 684.27,-159.33 653.47,-113.54 637.43,-87.73"/>
<polygon fill="#63b8ff" stroke="#63b8ff" points="640.48,-86 632.28,-79.29 634.5,-89.65 640.48,-86"/>
</a>
</g>
</g>
<!-- Node26 -->
<g id="Node000026" class="node">
<title>Node26</title>
<g id="a_Node000026"><a xlink:href="vlcb_8h.html" target="_top" xlink:title=" ">
<polygon fill="white" stroke="#666666" points="808,-191 727.5,-191 727.5,-170.25 808,-170.25 808,-191"/>
<text text-anchor="middle" x="767.75" y="-177.5" font-family="Helvetica,sans-Serif" font-size="10.00">packet/vlcb.h</text>
</a>
</g>
</g>
<!-- Node25&#45;&gt;Node26 -->
<g id="edge45_Node000025_Node000026" class="edge">
<title>Node25&#45;&gt;Node26</title>
<g id="a_edge45_Node000025_Node000026"><a xlink:title=" ">
<path fill="none" stroke="#63b8ff" d="M795.45,-232.93C790.85,-224.41 784.06,-211.83 778.35,-201.26"/>
<polygon fill="#63b8ff" stroke="#63b8ff" points="781.48,-199.69 773.65,-192.55 775.32,-203.01 781.48,-199.69"/>
</a>
</g>
</g>
<!-- Node26&#45;&gt;Node4 -->
<g id="edge46_Node000026_Node000004" class="edge">
<title>Node26&#45;&gt;Node4</title>
<g id="a_edge46_Node000026_Node000004"><a xlink:title=" ">
<path fill="none" stroke="#63b8ff" d="M727.35,-177.44C631.38,-171.91 395.63,-156.24 367.75,-134.25 353.97,-123.38 348.09,-103.87 345.6,-88.85"/>
<polygon fill="#63b8ff" stroke="#63b8ff" points="349.09,-88.56 344.38,-79.07 342.14,-89.43 349.09,-88.56"/>
</a>
</g>
</g>
<!-- Node26&#45;&gt;Node20 -->
<g id="edge48_Node000026_Node000020" class="edge">
<title>Node26&#45;&gt;Node20</title>
<g id="a_edge48_Node000026_Node000020"><a xlink:title=" ">
<path fill="none" stroke="#63b8ff" d="M778.3,-169.84C786.52,-162.21 798.15,-151.42 807.95,-142.32"/>
<polygon fill="#63b8ff" stroke="#63b8ff" points="810.23,-144.98 815.18,-135.61 805.47,-139.84 810.23,-144.98"/>
</a>
</g>
</g>
<!-- Node26&#45;&gt;Node23 -->
<g id="edge47_Node000026_Node000023" class="edge">
<title>Node26&#45;&gt;Node23</title>
<g id="a_edge47_Node000026_Node000023"><a xlink:title=" ">
<path fill="none" stroke="#63b8ff" d="M763,-169.85C757.11,-156.19 749.08,-131.1 759.75,-113.5 769.92,-96.73 788.53,-85.87 805.94,-78.99"/>
<polygon fill="#63b8ff" stroke="#63b8ff" points="806.87,-82.38 815.11,-75.72 804.52,-75.78 806.87,-82.38"/>
</a>
</g>
</g>
<!-- Node27&#45;&gt;Node7 -->
<g id="edge61_Node000027_Node000007" class="edge">
<title>Node27&#45;&gt;Node7</title>
<g id="a_edge61_Node000027_Node000007"><a xlink:title=" ">
<path fill="none" stroke="#63b8ff" d="M1071.46,-302.99C1202.73,-297.39 1469.43,-283.55 1559.75,-260.5 1643.2,-239.21 1736.75,-267.75 1736.75,-181.62 1736.75,-181.62 1736.75,-181.62 1736.75,-122.88 1736.75,-89.62 1729.49,-75.09 1701.75,-56.75 1660.34,-29.37 1318.49,-16.2 1202.83,-12.5"/>
<polygon fill="#63b8ff" stroke="#63b8ff" points="1203.04,-9 1192.94,-12.19 1202.82,-16 1203.04,-9"/>
</a>
</g>
</g>
<!-- Node27&#45;&gt;Node15 -->
<g id="edge60_Node000027_Node000015" class="edge">
<title>Node27&#45;&gt;Node15</title>
<g id="a_edge60_Node000027_Node000015"><a xlink:title=" ">
<path fill="none" stroke="#63b8ff" d="M991.65,-296.13C980.97,-275.71 956.08,-228.14 941.98,-201.17"/>
<polygon fill="#63b8ff" stroke="#63b8ff" points="945.27,-199.91 937.53,-192.67 939.06,-203.15 945.27,-199.91"/>
</a>
</g>
</g>
<!-- Node27&#45;&gt;Node25 -->
<g id="edge55_Node000027_Node000025" class="edge">
<title>Node27&#45;&gt;Node25</title>
<g id="a_edge55_Node000027_Node000025"><a xlink:title=" ">
<path fill="none" stroke="#63b8ff" d="M965.26,-296.05C931.23,-285.44 876.94,-268.51 840.12,-257.03"/>
<polygon fill="#63b8ff" stroke="#63b8ff" points="841.33,-253.74 830.74,-254.1 839.24,-260.42 841.33,-253.74"/>
</a>
</g>
</g>
<!-- Node27&#45;&gt;Node28 -->
<g id="edge51_Node000027_Node000028" class="edge">
<title>Node27&#45;&gt;Node28</title>
<g id="a_edge51_Node000027_Node000028"><a xlink:title=" ">
<path fill="none" stroke="#63b8ff" d="M1003.03,-296.13C1016.23,-275.62 1047.08,-227.71 1064.39,-200.82"/>
<polygon fill="#63b8ff" stroke="#63b8ff" points="1067.21,-202.9 1069.68,-192.6 1061.33,-199.12 1067.21,-202.9"/>
</a>
</g>
</g>
<!-- Node29 -->
<g id="Node000029" class="node">
<title>Node29</title>
<g id="a_Node000029"><a xlink:href="packet__buf_8h.html" target="_top" xlink:title=" ">
<polygon fill="white" stroke="#666666" points="1316.88,-191 1190.62,-191 1190.62,-170.25 1316.88,-170.25 1316.88,-191"/>
<text text-anchor="middle" x="1253.75" y="-177.5" font-family="Helvetica,sans-Serif" font-size="10.00">../storage/packet_buf.h</text>
</a>
</g>
</g>
<!-- Node27&#45;&gt;Node29 -->
<g id="edge56_Node000027_Node000029" class="edge">
<title>Node27&#45;&gt;Node29</title>
<g id="a_edge56_Node000027_Node000029"><a xlink:title=" ">
<path fill="none" stroke="#63b8ff" d="M1016.92,-296.13C1061.86,-274.4 1170.46,-221.89 1223.54,-196.23"/>
<polygon fill="#63b8ff" stroke="#63b8ff" points="1224.84,-199.49 1232.31,-191.99 1221.79,-193.19 1224.84,-199.49"/>
</a>
</g>
</g>
<!-- Node28&#45;&gt;Node4 -->
<g id="edge52_Node000028_Node000004" class="edge">
<title>Node28&#45;&gt;Node4</title>
<g id="a_edge52_Node000028_Node000004"><a xlink:title=" ">
<path fill="none" stroke="#63b8ff" d="M1018.18,-171.26C1014.99,-170.89 1011.83,-170.55 1008.75,-170.25 874.05,-157 522.07,-194.25 400.75,-134.25 380.44,-124.21 364.41,-103.34 354.59,-87.72"/>
<polygon fill="#63b8ff" stroke="#63b8ff" points="357.68,-86.07 349.58,-79.24 351.66,-89.63 357.68,-86.07"/>
</a>
</g>
</g>
<!-- Node28&#45;&gt;Node20 -->
<g id="edge54_Node000028_Node000020" class="edge">
<title>Node28&#45;&gt;Node20</title>
<g id="a_edge54_Node000028_Node000020"><a xlink:title=" ">
<path fill="none" stroke="#63b8ff" d="M1031.77,-169.77C990.04,-160.63 927.78,-147 882.83,-137.16"/>
<polygon fill="#63b8ff" stroke="#63b8ff" points="883.79,-133.78 873.27,-135.06 882.29,-140.62 883.79,-133.78"/>
</a>
</g>
</g>
<!-- Node28&#45;&gt;Node23 -->
<g id="edge53_Node000028_Node000023" class="edge">
<title>Node28&#45;&gt;Node23</title>
<g id="a_edge53_Node000028_Node000023"><a xlink:title=" ">
<path fill="none" stroke="#63b8ff" d="M1062.28,-169.77C1041.68,-156.01 1002.44,-130.8 966.75,-113.5 941.23,-101.13 911.41,-89.84 887.88,-81.61"/>
<polygon fill="#63b8ff" stroke="#63b8ff" points="889.24,-78.38 878.65,-78.44 886.96,-85 889.24,-78.38"/>
</a>
</g>
</g>
<!-- Node29&#45;&gt;Node7 -->
<g id="edge59_Node000029_Node000007" class="edge">
<title>Node29&#45;&gt;Node7</title>
<g id="a_edge59_Node000029_Node000007"><a xlink:title=" ">
<path fill="none" stroke="#63b8ff" d="M1190.28,-169.81C1137.27,-157.9 1064.89,-132.14 1029.75,-77.5 1004.78,-38.67 1078.79,-21.93 1126.91,-15.29"/>
<polygon fill="#63b8ff" stroke="#63b8ff" points="1127.23,-18.78 1136.71,-14.04 1126.35,-11.83 1127.23,-18.78"/>
</a>
</g>
</g>
<!-- Node29&#45;&gt;Node16 -->
<g id="edge58_Node000029_Node000016" class="edge">
<title>Node29&#45;&gt;Node16</title>
<g id="a_edge58_Node000029_Node000016"><a xlink:title=" ">
<path fill="none" stroke="#63b8ff" d="M1195.45,-169.77C1129.97,-158.71 1025.48,-141.05 969.02,-131.51"/>
<polygon fill="#63b8ff" stroke="#63b8ff" points="969.67,-128.07 959.23,-129.86 968.51,-134.97 969.67,-128.07"/>
</a>
</g>
</g>
<!-- Node29&#45;&gt;Node18 -->
<g id="edge57_Node000029_Node000018" class="edge">
<title>Node29&#45;&gt;Node18</title>
<g id="a_edge57_Node000029_Node000018"><a xlink:title=" ">
<path fill="none" stroke="#63b8ff" d="M1207.01,-169.8C1165.19,-160.9 1102.26,-147.23 1047.75,-134.25 1011.6,-125.64 1003.23,-120.57 966.75,-113.5 859.95,-92.79 732.48,-78.58 667.83,-72.1"/>
<polygon fill="#63b8ff" stroke="#63b8ff" points="668.32,-68.63 658.02,-71.13 667.63,-75.6 668.32,-68.63"/>
</a>
</g>
</g>
<!-- Node30&#45;&gt;Node3 -->
<g id="edge71_Node000030_Node000003" class="edge">
<title>Node30&#45;&gt;Node3</title>
<g id="a_edge71_Node000030_Node000003"><a xlink:title=" ">
<path fill="none" stroke="#63b8ff" d="M1410.32,-240.66C1229.76,-235.08 735.68,-218.36 324.75,-191 313.3,-190.24 301.16,-189.29 289.34,-188.3"/>
<polygon fill="#63b8ff" stroke="#63b8ff" points="289.91,-184.84 279.65,-187.47 289.31,-191.81 289.91,-184.84"/>
</a>
</g>
</g>
<!-- Node30&#45;&gt;Node7 -->
<g id="edge74_Node000030_Node000007" class="edge">
<title>Node30&#45;&gt;Node7</title>
<g id="a_edge74_Node000030_Node000007"><a xlink:title=" ">
<path fill="none" stroke="#63b8ff" d="M1551.35,-233.59C1601.97,-225.41 1663.89,-211.51 1679.75,-191 1716.25,-143.8 1720.05,-100.75 1679.75,-56.75 1647.66,-21.71 1316.29,-13.59 1202.71,-11.83"/>
<polygon fill="#63b8ff" stroke="#63b8ff" points="1203.05,-8.34 1193,-11.69 1202.95,-15.34 1203.05,-8.34"/>
</a>
</g>
</g>
<!-- Node30&#45;&gt;Node8 -->
<g id="edge69_Node000030_Node000008" class="edge">
<title>Node30&#45;&gt;Node8</title>
<g id="a_edge69_Node000030_Node000008"><a xlink:title=" ">
<path fill="none" stroke="#63b8ff" d="M1476.04,-226.51C1473.17,-216.35 1469.53,-202.97 1466.75,-191 1458.45,-155.3 1450.67,-113.33 1446.33,-88.83"/>
<polygon fill="#63b8ff" stroke="#63b8ff" points="1449.82,-88.47 1444.65,-79.22 1442.92,-89.68 1449.82,-88.47"/>
</a>
</g>
</g>
<!-- Node30&#45;&gt;Node9 -->
<g id="edge70_Node000030_Node000009" class="edge">
<title>Node30&#45;&gt;Node9</title>
<g id="a_edge70_Node000030_Node000009"><a xlink:title=" ">
<path fill="none" stroke="#63b8ff" d="M1482.44,-226.52C1484.61,-211.15 1489.42,-187.87 1499.75,-170.25 1520.76,-134.4 1557.84,-102.89 1582.11,-84.67"/>
<polygon fill="#63b8ff" stroke="#63b8ff" points="1584.11,-87.55 1590.11,-78.82 1579.97,-81.9 1584.11,-87.55"/>
</a>
</g>
</g>
<!-- Node30&#45;&gt;Node28 -->
<g id="edge72_Node000030_Node000028" class="edge">
<title>Node30&#45;&gt;Node28</title>
<g id="a_edge72_Node000030_Node000028"><a xlink:title=" ">
<path fill="none" stroke="#63b8ff" d="M1410.38,-232.1C1336.19,-220.88 1220.05,-203.31 1146.21,-192.13"/>
<polygon fill="#63b8ff" stroke="#63b8ff" points="1147.09,-188.73 1136.68,-190.69 1146.05,-195.65 1147.09,-188.73"/>
</a>
</g>
</g>
<!-- Node31 -->
<g id="Node000031" class="node">
<title>Node31</title>
<g id="a_Node000031"><a xlink:href="serialization_8h.html" target="_top" xlink:title=" ">
<polygon fill="white" stroke="#666666" points="1670.88,-191 1508.62,-191 1508.62,-170.25 1670.88,-170.25 1670.88,-191"/>
<text text-anchor="middle" x="1589.75" y="-177.5" font-family="Helvetica,sans-Serif" font-size="10.00">vlcb/net/packet/serialization.h</text>
</a>
</g>
</g>
<!-- Node30&#45;&gt;Node31 -->
<g id="edge73_Node000030_Node000031" class="edge">
<title>Node30&#45;&gt;Node31</title>
<g id="a_edge73_Node000030_Node000031"><a xlink:title=" ">
<path fill="none" stroke="#63b8ff" d="M1509.67,-226.53C1526.02,-217.36 1546.34,-205.97 1562.42,-196.95"/>
<polygon fill="#63b8ff" stroke="#63b8ff" points="1563.96,-200.1 1570.97,-192.16 1560.54,-193.99 1563.96,-200.1"/>
</a>
</g>
</g>
</g>
</svg>
