<?xml version="1.0" encoding="UTF-8" standalone="no"?>
<!DOCTYPE svg PUBLIC "-//W3C//DTD SVG 1.1//EN"
 "http://www.w3.org/Graphics/SVG/1.1/DTD/svg11.dtd">
<!-- Generated by graphviz version 12.1.2 (20240928.0832)
 -->
<!-- Title: state_machine.h Pages: 1 -->
<svg width="1745pt" height="439pt"
 viewBox="0.00 0.00 1744.75 438.75" xmlns="http://www.w3.org/2000/svg" xmlns:xlink="http://www.w3.org/1999/xlink">
<g id="graph0" class="graph" transform="scale(1 1) rotate(0) translate(4 434.75)">
<title>state_machine.h</title>
<!-- Node1 -->
<g id="Node000001" class="node">
<title>Node1</title>
<g id="a_Node000001"><a xlink:title=" ">
<polygon fill="#999999" stroke="#666666" points="97,-430.75 0,-430.75 0,-410 97,-410 97,-430.75"/>
<text text-anchor="middle" x="48.5" y="-417.25" font-family="Helvetica,sans-Serif" font-size="10.00">state_machine.h</text>
</a>
</g>
</g>
<!-- Node2 -->
<g id="Node000002" class="node">
<title>Node2</title>
<g id="a_Node000002"><a xlink:href="node_8h.html" target="_top" xlink:title=" ">
<polygon fill="white" stroke="#666666" points="147.5,-197.38 29.5,-197.38 29.5,-176.62 147.5,-176.62 147.5,-197.38"/>
<text text-anchor="middle" x="88.5" y="-183.88" font-family="Helvetica,sans-Serif" font-size="10.00">vlcb/common/node.h</text>
</a>
</g>
</g>
<!-- Node1&#45;&gt;Node2 -->
<g id="edge1_Node000001_Node000002" class="edge">
<title>Node1&#45;&gt;Node2</title>
<g id="a_edge1_Node000001_Node000002"><a xlink:title=" ">
<path fill="none" stroke="#63b8ff" d="M50.17,-409.73C56.14,-375.18 76.54,-257.15 84.89,-208.86"/>
<polygon fill="#63b8ff" stroke="#63b8ff" points="88.31,-209.63 86.57,-199.18 81.41,-208.44 88.31,-209.63"/>
</a>
</g>
</g>
<!-- Node4 -->
<g id="Node000004" class="node">
<title>Node4</title>
<g id="a_Node000004"><a xlink:href="module_2inc_2vlcb_2module_8h.html" target="_top" xlink:title=" ">
<polygon fill="white" stroke="#666666" points="402,-374 317,-374 317,-353.25 402,-353.25 402,-374"/>
<text text-anchor="middle" x="359.5" y="-360.5" font-family="Helvetica,sans-Serif" font-size="10.00">vlcb/module.h</text>
</a>
</g>
</g>
<!-- Node1&#45;&gt;Node4 -->
<g id="edge3_Node000001_Node000004" class="edge">
<title>Node1&#45;&gt;Node4</title>
<g id="a_edge3_Node000001_Node000004"><a xlink:title=" ">
<path fill="none" stroke="#63b8ff" d="M97.44,-410.76C154.05,-400.79 246.96,-384.44 305.6,-374.11"/>
<polygon fill="#63b8ff" stroke="#63b8ff" points="306.11,-377.58 315.36,-372.4 304.9,-370.68 306.11,-377.58"/>
</a>
</g>
</g>
<!-- Node12 -->
<g id="Node000012" class="node">
<title>Node12</title>
<g id="a_Node000012"><a xlink:href="time_8h.html" target="_top" xlink:title=" ">
<polygon fill="white" stroke="#666666" points="187.25,-134.25 139.75,-134.25 139.75,-113.5 187.25,-113.5 187.25,-134.25"/>
<text text-anchor="middle" x="163.5" y="-120.75" font-family="Helvetica,sans-Serif" font-size="10.00">time.h</text>
</a>
</g>
</g>
<!-- Node1&#45;&gt;Node12 -->
<g id="edge67_Node000001_Node000012" class="edge">
<title>Node1&#45;&gt;Node12</title>
<g id="a_edge67_Node000001_Node000012"><a xlink:title=" ">
<path fill="none" stroke="#63b8ff" d="M41.16,-409.52C27.94,-390.76 1.5,-348.21 1.5,-307.88 1.5,-307.88 1.5,-307.88 1.5,-249.12 1.5,-213.07 -4.08,-196.63 20.5,-170.25 48.33,-140.38 95.69,-130.07 128.23,-126.58"/>
<polygon fill="#63b8ff" stroke="#63b8ff" points="128.33,-130.08 137.98,-125.71 127.71,-123.11 128.33,-130.08"/>
</a>
</g>
</g>
<!-- Node3 -->
<g id="Node000003" class="node">
<title>Node3</title>
<g id="a_Node000003"><a xlink:title=" ">
<polygon fill="#e0e0e0" stroke="#999999" points="718.88,-77.5 654.12,-77.5 654.12,-56.75 718.88,-56.75 718.88,-77.5"/>
<text text-anchor="middle" x="686.5" y="-64" font-family="Helvetica,sans-Serif" font-size="10.00">inttypes.h</text>
</a>
</g>
</g>
<!-- Node2&#45;&gt;Node3 -->
<g id="edge2_Node000002_Node000003" class="edge">
<title>Node2&#45;&gt;Node3</title>
<g id="a_edge2_Node000002_Node000003"><a xlink:title=" ">
<path fill="none" stroke="#63b8ff" d="M123.68,-176.23C178.75,-161.2 288.81,-132.18 383.5,-113.5 475.23,-95.4 583.85,-80.76 642.91,-73.37"/>
<polygon fill="#63b8ff" stroke="#63b8ff" points="643.05,-76.88 652.54,-72.17 642.19,-69.93 643.05,-76.88"/>
</a>
</g>
</g>
<!-- Node4&#45;&gt;Node2 -->
<g id="edge4_Node000004_Node000002" class="edge">
<title>Node4&#45;&gt;Node2</title>
<g id="a_edge4_Node000004_Node000002"><a xlink:title=" ">
<path fill="none" stroke="#63b8ff" d="M316.67,-358.82C258.43,-351.15 155.75,-328.26 105.5,-260.5 94.32,-245.42 90.35,-224.13 89.01,-208.52"/>
<polygon fill="#63b8ff" stroke="#63b8ff" points="92.53,-208.75 88.5,-198.96 85.54,-209.13 92.53,-208.75"/>
</a>
</g>
</g>
<!-- Node5 -->
<g id="Node000005" class="node">
<title>Node5</title>
<g id="a_Node000005"><a xlink:href="inc_2vlcb_2module_2param_8h.html" target="_top" xlink:title=" ">
<polygon fill="white" stroke="#666666" points="1394.25,-134.25 1274.75,-134.25 1274.75,-113.5 1394.25,-113.5 1394.25,-134.25"/>
<text text-anchor="middle" x="1334.5" y="-120.75" font-family="Helvetica,sans-Serif" font-size="10.00">vlcb/module/param.h</text>
</a>
</g>
</g>
<!-- Node4&#45;&gt;Node5 -->
<g id="edge5_Node000004_Node000005" class="edge">
<title>Node4&#45;&gt;Node5</title>
<g id="a_edge5_Node000004_Node000005"><a xlink:title=" ">
<path fill="none" stroke="#63b8ff" d="M402.45,-362.05C558.27,-359.72 1088.18,-349.46 1156.5,-317.25 1237.93,-278.86 1299.82,-184.9 1323.73,-144.2"/>
<polygon fill="#63b8ff" stroke="#63b8ff" points="1326.64,-146.16 1328.58,-135.74 1320.57,-142.67 1326.64,-146.16"/>
</a>
</g>
</g>
<!-- Node6 -->
<g id="Node000006" class="node">
<title>Node6</title>
<g id="a_Node000006"><a xlink:title=" ">
<polygon fill="#e0e0e0" stroke="#999999" points="984.88,-20.75 932.12,-20.75 932.12,0 984.88,0 984.88,-20.75"/>
<text text-anchor="middle" x="958.5" y="-7.25" font-family="Helvetica,sans-Serif" font-size="10.00">stdint.h</text>
</a>
</g>
</g>
<!-- Node4&#45;&gt;Node6 -->
<g id="edge66_Node000004_Node000006" class="edge">
<title>Node4&#45;&gt;Node6</title>
<g id="a_edge66_Node000004_Node000006"><a xlink:title=" ">
<path fill="none" stroke="#63b8ff" d="M402.43,-361.08C566.2,-354.61 1142.5,-326.52 1142.5,-251.12 1142.5,-251.12 1142.5,-251.12 1142.5,-186 1142.5,-117.25 1109.67,-101.54 1057.5,-56.75 1039.67,-41.44 1015.81,-30.3 995.99,-22.89"/>
<polygon fill="#63b8ff" stroke="#63b8ff" points="997.18,-19.6 986.58,-19.56 994.84,-26.2 997.18,-19.6"/>
</a>
</g>
</g>
<!-- Node11 -->
<g id="Node000011" class="node">
<title>Node11</title>
<g id="a_Node000011"><a xlink:href="state_8h.html" target="_top" xlink:title=" ">
<polygon fill="white" stroke="#666666" points="226.88,-260.5 114.12,-260.5 114.12,-239.75 226.88,-239.75 226.88,-260.5"/>
<text text-anchor="middle" x="170.5" y="-247" font-family="Helvetica,sans-Serif" font-size="10.00">vlcb/module/state.h</text>
</a>
</g>
</g>
<!-- Node4&#45;&gt;Node11 -->
<g id="edge15_Node000004_Node000011" class="edge">
<title>Node4&#45;&gt;Node11</title>
<g id="a_edge15_Node000004_Node000011"><a xlink:title=" ">
<path fill="none" stroke="#63b8ff" d="M316.58,-352.76C290.8,-345.56 258.15,-334.07 232.5,-317.25 213.04,-304.49 195.37,-284.41 183.92,-269.72"/>
<polygon fill="#63b8ff" stroke="#63b8ff" points="186.76,-267.67 177.95,-261.78 181.16,-271.88 186.76,-267.67"/>
</a>
</g>
</g>
<!-- Node13 -->
<g id="Node000013" class="node">
<title>Node13</title>
<g id="a_Node000013"><a xlink:href="ui_8h.html" target="_top" xlink:title=" ">
<polygon fill="white" stroke="#666666" points="338,-317.25 241,-317.25 241,-296.5 338,-296.5 338,-317.25"/>
<text text-anchor="middle" x="289.5" y="-303.75" font-family="Helvetica,sans-Serif" font-size="10.00">vlcb/module/ui.h</text>
</a>
</g>
</g>
<!-- Node4&#45;&gt;Node13 -->
<g id="edge20_Node000004_Node000013" class="edge">
<title>Node4&#45;&gt;Node13</title>
<g id="a_edge20_Node000004_Node000013"><a xlink:title=" ">
<path fill="none" stroke="#63b8ff" d="M346.99,-352.84C336.93,-344.97 322.59,-333.75 310.74,-324.49"/>
<polygon fill="#63b8ff" stroke="#63b8ff" points="313.13,-321.91 303.1,-318.51 308.82,-327.43 313.13,-321.91"/>
</a>
</g>
</g>
<!-- Node16 -->
<g id="Node000016" class="node">
<title>Node16</title>
<g id="a_Node000016"><a xlink:href="iface_8h.html" target="_top" xlink:title=" ">
<polygon fill="white" stroke="#666666" points="768,-317.25 677,-317.25 677,-296.5 768,-296.5 768,-317.25"/>
<text text-anchor="middle" x="722.5" y="-303.75" font-family="Helvetica,sans-Serif" font-size="10.00">vlcb/net/iface.h</text>
</a>
</g>
</g>
<!-- Node4&#45;&gt;Node16 -->
<g id="edge24_Node000004_Node000016" class="edge">
<title>Node4&#45;&gt;Node16</title>
<g id="a_edge24_Node000004_Node000016"><a xlink:title=" ">
<path fill="none" stroke="#63b8ff" d="M402.21,-356.18C467.5,-346.34 592.22,-327.53 665.27,-316.51"/>
<polygon fill="#63b8ff" stroke="#63b8ff" points="665.67,-319.99 675.04,-315.03 664.63,-313.06 665.67,-319.99"/>
</a>
</g>
</g>
<!-- Node27 -->
<g id="Node000027" class="node">
<title>Node27</title>
<g id="a_Node000027"><a xlink:href="socket_2datagram_8h.html" target="_top" xlink:title=" ">
<polygon fill="white" stroke="#666666" points="504.88,-317.25 356.12,-317.25 356.12,-296.5 504.88,-296.5 504.88,-317.25"/>
<text text-anchor="middle" x="430.5" y="-303.75" font-family="Helvetica,sans-Serif" font-size="10.00">vlcb/net/socket/datagram.h</text>
</a>
</g>
</g>
<!-- Node4&#45;&gt;Node27 -->
<g id="edge56_Node000004_Node000027" class="edge">
<title>Node4&#45;&gt;Node27</title>
<g id="a_edge56_Node000004_Node000027"><a xlink:title=" ">
<path fill="none" stroke="#63b8ff" d="M372.19,-352.84C382.39,-344.97 396.94,-333.75 408.96,-324.49"/>
<polygon fill="#63b8ff" stroke="#63b8ff" points="410.94,-327.38 416.72,-318.5 406.66,-321.84 410.94,-327.38"/>
</a>
</g>
</g>
<!-- Node5&#45;&gt;Node6 -->
<g id="edge6_Node000005_Node000006" class="edge">
<title>Node5&#45;&gt;Node6</title>
<g id="a_edge6_Node000005_Node000006"><a xlink:title=" ">
<path fill="none" stroke="#63b8ff" d="M1274.58,-113.05C1234.08,-105.51 1179.77,-93.65 1133.5,-77.5 1113.47,-70.51 1110.12,-64.82 1090.5,-56.75 1059.13,-43.84 1022.59,-31.48 995.92,-22.93"/>
<polygon fill="#63b8ff" stroke="#63b8ff" points="997.17,-19.65 986.58,-19.97 995.05,-26.33 997.17,-19.65"/>
</a>
</g>
</g>
<!-- Node7 -->
<g id="Node000007" class="node">
<title>Node7</title>
<g id="a_Node000007"><a xlink:href="manufacturer_8h.html" target="_top" xlink:title=" ">
<polygon fill="white" stroke="#666666" points="1302.12,-77.5 1142.88,-77.5 1142.88,-56.75 1302.12,-56.75 1302.12,-77.5"/>
<text text-anchor="middle" x="1222.5" y="-64" font-family="Helvetica,sans-Serif" font-size="10.00">vlcb/common/manufacturer.h</text>
</a>
</g>
</g>
<!-- Node5&#45;&gt;Node7 -->
<g id="edge7_Node000005_Node000007" class="edge">
<title>Node5&#45;&gt;Node7</title>
<g id="a_edge7_Node000005_Node000007"><a xlink:title=" ">
<path fill="none" stroke="#63b8ff" d="M1314.48,-113.09C1297.28,-104.68 1272.22,-92.43 1252.6,-82.84"/>
<polygon fill="#63b8ff" stroke="#63b8ff" points="1254.23,-79.74 1243.71,-78.49 1251.16,-86.03 1254.23,-79.74"/>
</a>
</g>
</g>
<!-- Node8 -->
<g id="Node000008" class="node">
<title>Node8</title>
<g id="a_Node000008"><a xlink:href="common_2inc_2vlcb_2common_2module_8h.html" target="_top" xlink:title=" ">
<polygon fill="white" stroke="#666666" points="1450.88,-77.5 1320.12,-77.5 1320.12,-56.75 1450.88,-56.75 1450.88,-77.5"/>
<text text-anchor="middle" x="1385.5" y="-64" font-family="Helvetica,sans-Serif" font-size="10.00">vlcb/common/module.h</text>
</a>
</g>
</g>
<!-- Node5&#45;&gt;Node8 -->
<g id="edge9_Node000005_Node000008" class="edge">
<title>Node5&#45;&gt;Node8</title>
<g id="a_edge9_Node000005_Node000008"><a xlink:title=" ">
<path fill="none" stroke="#63b8ff" d="M1343.62,-113.09C1350.58,-105.61 1360.37,-95.11 1368.73,-86.13"/>
<polygon fill="#63b8ff" stroke="#63b8ff" points="1371.17,-88.64 1375.43,-78.94 1366.05,-83.87 1371.17,-88.64"/>
</a>
</g>
</g>
<!-- Node9 -->
<g id="Node000009" class="node">
<title>Node9</title>
<g id="a_Node000009"><a xlink:href="common_2inc_2vlcb_2common_2net_8h.html" target="_top" xlink:title=" ">
<polygon fill="white" stroke="#666666" points="1578.38,-77.5 1468.62,-77.5 1468.62,-56.75 1578.38,-56.75 1578.38,-77.5"/>
<text text-anchor="middle" x="1523.5" y="-64" font-family="Helvetica,sans-Serif" font-size="10.00">vlcb/common/net.h</text>
</a>
</g>
</g>
<!-- Node5&#45;&gt;Node9 -->
<g id="edge11_Node000005_Node000009" class="edge">
<title>Node5&#45;&gt;Node9</title>
<g id="a_edge11_Node000005_Node000009"><a xlink:title=" ">
<path fill="none" stroke="#63b8ff" d="M1368.29,-113.09C1399.1,-104.16 1444.85,-90.91 1478.7,-81.1"/>
<polygon fill="#63b8ff" stroke="#63b8ff" points="1479.6,-84.49 1488.23,-78.34 1477.65,-77.76 1479.6,-84.49"/>
</a>
</g>
</g>
<!-- Node10 -->
<g id="Node000010" class="node">
<title>Node10</title>
<g id="a_Node000010"><a xlink:href="processor_8h.html" target="_top" xlink:title=" ">
<polygon fill="white" stroke="#666666" points="1736.75,-77.5 1596.25,-77.5 1596.25,-56.75 1736.75,-56.75 1736.75,-77.5"/>
<text text-anchor="middle" x="1666.5" y="-64" font-family="Helvetica,sans-Serif" font-size="10.00">vlcb/common/processor.h</text>
</a>
</g>
</g>
<!-- Node5&#45;&gt;Node10 -->
<g id="edge13_Node000005_Node000010" class="edge">
<title>Node5&#45;&gt;Node10</title>
<g id="a_edge13_Node000005_Node000010"><a xlink:title=" ">
<path fill="none" stroke="#63b8ff" d="M1394.24,-113.02C1450.71,-103.71 1535.49,-89.73 1595.42,-79.85"/>
<polygon fill="#63b8ff" stroke="#63b8ff" points="1595.89,-83.32 1605.19,-78.24 1594.75,-76.41 1595.89,-83.32"/>
</a>
</g>
</g>
<!-- Node7&#45;&gt;Node6 -->
<g id="edge8_Node000007_Node000006" class="edge">
<title>Node7&#45;&gt;Node6</title>
<g id="a_edge8_Node000007_Node000006"><a xlink:title=" ">
<path fill="none" stroke="#63b8ff" d="M1175,-56.27C1123.81,-45.66 1043.39,-28.98 996.32,-19.22"/>
<polygon fill="#63b8ff" stroke="#63b8ff" points="997.09,-15.8 986.59,-17.2 995.67,-22.66 997.09,-15.8"/>
</a>
</g>
</g>
<!-- Node8&#45;&gt;Node6 -->
<g id="edge10_Node000008_Node000006" class="edge">
<title>Node8&#45;&gt;Node6</title>
<g id="a_edge10_Node000008_Node000006"><a xlink:title=" ">
<path fill="none" stroke="#63b8ff" d="M1319.72,-57.69C1229.3,-46.1 1069.57,-25.62 996.68,-16.27"/>
<polygon fill="#63b8ff" stroke="#63b8ff" points="997.21,-12.81 986.84,-15.01 996.32,-19.75 997.21,-12.81"/>
</a>
</g>
</g>
<!-- Node9&#45;&gt;Node6 -->
<g id="edge12_Node000009_Node000006" class="edge">
<title>Node9&#45;&gt;Node6</title>
<g id="a_edge12_Node000009_Node000006"><a xlink:title=" ">
<path fill="none" stroke="#63b8ff" d="M1468.37,-57.85C1465.37,-57.46 1462.4,-57.09 1459.5,-56.75 1287.15,-36.34 1080.48,-20.27 996.63,-14.11"/>
<polygon fill="#63b8ff" stroke="#63b8ff" points="996.91,-10.62 986.68,-13.38 996.4,-17.6 996.91,-10.62"/>
</a>
</g>
</g>
<!-- Node10&#45;&gt;Node6 -->
<g id="edge14_Node000010_Node000006" class="edge">
<title>Node10&#45;&gt;Node6</title>
<g id="a_edge14_Node000010_Node000006"><a xlink:title=" ">
<path fill="none" stroke="#63b8ff" d="M1595.88,-57.58C1593.05,-57.29 1590.25,-57.01 1587.5,-56.75 1363.86,-35.43 1094.63,-19.13 996.57,-13.51"/>
<polygon fill="#63b8ff" stroke="#63b8ff" points="996.9,-10.02 986.72,-12.95 996.5,-17.01 996.9,-10.02"/>
</a>
</g>
</g>
<!-- Node11&#45;&gt;Node2 -->
<g id="edge16_Node000011_Node000002" class="edge">
<title>Node11&#45;&gt;Node2</title>
<g id="a_edge16_Node000011_Node000002"><a xlink:title=" ">
<path fill="none" stroke="#63b8ff" d="M157.33,-239.3C144.77,-229.95 125.63,-215.68 110.72,-204.56"/>
<polygon fill="#63b8ff" stroke="#63b8ff" points="112.96,-201.87 102.86,-198.7 108.78,-207.48 112.96,-201.87"/>
</a>
</g>
</g>
<!-- Node11&#45;&gt;Node6 -->
<g id="edge17_Node000011_Node000006" class="edge">
<title>Node11&#45;&gt;Node6</title>
<g id="a_edge17_Node000011_Node000006"><a xlink:title=" ">
<path fill="none" stroke="#63b8ff" d="M172.36,-239.3C179.14,-206.56 205.81,-100.85 274.5,-56.75 328.94,-21.8 784.35,-13.49 920.32,-11.77"/>
<polygon fill="#63b8ff" stroke="#63b8ff" points="920.27,-15.28 930.22,-11.66 920.18,-8.28 920.27,-15.28"/>
</a>
</g>
</g>
<!-- Node11&#45;&gt;Node12 -->
<g id="edge18_Node000011_Node000012" class="edge">
<title>Node11&#45;&gt;Node12</title>
<g id="a_edge18_Node000011_Node000012"><a xlink:title=" ">
<path fill="none" stroke="#63b8ff" d="M169.95,-239.38C168.82,-219.32 166.22,-173.07 164.68,-145.88"/>
<polygon fill="#63b8ff" stroke="#63b8ff" points="168.19,-145.88 164.13,-136.09 161.2,-146.27 168.19,-145.88"/>
</a>
</g>
</g>
<!-- Node12&#45;&gt;Node6 -->
<g id="edge19_Node000012_Node000006" class="edge">
<title>Node12&#45;&gt;Node6</title>
<g id="a_edge19_Node000012_Node000006"><a xlink:title=" ">
<path fill="none" stroke="#63b8ff" d="M165.91,-113.17C170.22,-98.13 180.79,-69.58 201.5,-56.75 262.94,-18.69 775.9,-12.54 920.62,-11.56"/>
<polygon fill="#63b8ff" stroke="#63b8ff" points="920.44,-15.06 930.42,-11.5 920.4,-8.06 920.44,-15.06"/>
</a>
</g>
</g>
<!-- Node13&#45;&gt;Node11 -->
<g id="edge21_Node000013_Node000011" class="edge">
<title>Node13&#45;&gt;Node11</title>
<g id="a_edge21_Node000013_Node000011"><a xlink:title=" ">
<path fill="none" stroke="#63b8ff" d="M268.23,-296.09C249.78,-287.6 222.84,-275.2 201.91,-265.58"/>
<polygon fill="#63b8ff" stroke="#63b8ff" points="203.51,-262.46 192.97,-261.46 200.59,-268.82 203.51,-262.46"/>
</a>
</g>
</g>
<!-- Node14 -->
<g id="Node000014" class="node">
<title>Node14</title>
<g id="a_Node000014"><a xlink:href="interface_8h.html" target="_top" xlink:title=" ">
<polygon fill="white" stroke="#666666" points="603.88,-197.38 467.12,-197.38 467.12,-176.62 603.88,-176.62 603.88,-197.38"/>
<text text-anchor="middle" x="535.5" y="-183.88" font-family="Helvetica,sans-Serif" font-size="10.00">vlcb/platform/interface.h</text>
</a>
</g>
</g>
<!-- Node13&#45;&gt;Node14 -->
<g id="edge22_Node000013_Node000014" class="edge">
<title>Node13&#45;&gt;Node14</title>
<g id="a_edge22_Node000013_Node000014"><a xlink:title=" ">
<path fill="none" stroke="#63b8ff" d="M310.05,-296.03C353.3,-275.3 453.91,-227.1 504.82,-202.7"/>
<polygon fill="#63b8ff" stroke="#63b8ff" points="506.31,-205.87 513.82,-198.39 503.29,-199.56 506.31,-205.87"/>
</a>
</g>
</g>
<!-- Node15 -->
<g id="Node000015" class="node">
<title>Node15</title>
<g id="a_Node000015"><a xlink:title=" ">
<polygon fill="#e0e0e0" stroke="#999999" points="620,-134.25 565,-134.25 565,-113.5 620,-113.5 620,-134.25"/>
<text text-anchor="middle" x="592.5" y="-120.75" font-family="Helvetica,sans-Serif" font-size="10.00">stddef.h</text>
</a>
</g>
</g>
<!-- Node14&#45;&gt;Node15 -->
<g id="edge23_Node000014_Node000015" class="edge">
<title>Node14&#45;&gt;Node15</title>
<g id="a_edge23_Node000014_Node000015"><a xlink:title=" ">
<path fill="none" stroke="#63b8ff" d="M544.66,-176.18C553.02,-167.22 565.58,-153.74 575.73,-142.85"/>
<polygon fill="#63b8ff" stroke="#63b8ff" points="578.26,-145.28 582.52,-135.58 573.14,-140.5 578.26,-145.28"/>
</a>
</g>
</g>
<!-- Node17 -->
<g id="Node000017" class="node">
<title>Node17</title>
<g id="a_Node000017"><a xlink:title=" ">
<polygon fill="#e0e0e0" stroke="#999999" points="1048,-77.5 987,-77.5 987,-56.75 1048,-56.75 1048,-77.5"/>
<text text-anchor="middle" x="1017.5" y="-64" font-family="Helvetica,sans-Serif" font-size="10.00">stdbool.h</text>
</a>
</g>
</g>
<!-- Node16&#45;&gt;Node17 -->
<g id="edge25_Node000016_Node000017" class="edge">
<title>Node16&#45;&gt;Node17</title>
<g id="a_edge25_Node000016_Node000017"><a xlink:title=" ">
<path fill="none" stroke="#63b8ff" d="M768.34,-299.14C853.66,-285.57 1031.43,-252.05 1067.5,-203.75 1074.57,-194.29 1069.12,-125.71 1063.5,-113.5 1058.42,-102.46 1049.4,-92.63 1040.68,-84.98"/>
<polygon fill="#63b8ff" stroke="#63b8ff" points="1043.03,-82.37 1033.06,-78.77 1038.61,-87.8 1043.03,-82.37"/>
</a>
</g>
</g>
<!-- Node18 -->
<g id="Node000018" class="node">
<title>Node18</title>
<g id="a_Node000018"><a xlink:href="adapter_8h.html" target="_top" xlink:title=" ">
<polygon fill="white" stroke="#666666" points="844.38,-260.5 782.62,-260.5 782.62,-239.75 844.38,-239.75 844.38,-260.5"/>
<text text-anchor="middle" x="813.5" y="-247" font-family="Helvetica,sans-Serif" font-size="10.00">adapter.h</text>
</a>
</g>
</g>
<!-- Node16&#45;&gt;Node18 -->
<g id="edge26_Node000016_Node000018" class="edge">
<title>Node16&#45;&gt;Node18</title>
<g id="a_edge26_Node000016_Node000018"><a xlink:title=" ">
<path fill="none" stroke="#63b8ff" d="M738.77,-296.09C752.36,-287.91 771.97,-276.11 787.7,-266.65"/>
<polygon fill="#63b8ff" stroke="#63b8ff" points="789.31,-269.76 796.07,-261.61 785.7,-263.77 789.31,-269.76"/>
</a>
</g>
</g>
<!-- Node24 -->
<g id="Node000024" class="node">
<title>Node24</title>
<g id="a_Node000024"><a xlink:href="socket_8h.html" target="_top" xlink:title=" ">
<polygon fill="white" stroke="#666666" points="672.75,-260.5 616.25,-260.5 616.25,-239.75 672.75,-239.75 672.75,-260.5"/>
<text text-anchor="middle" x="644.5" y="-247" font-family="Helvetica,sans-Serif" font-size="10.00">socket.h</text>
</a>
</g>
</g>
<!-- Node16&#45;&gt;Node24 -->
<g id="edge43_Node000016_Node000024" class="edge">
<title>Node16&#45;&gt;Node24</title>
<g id="a_edge43_Node000016_Node000024"><a xlink:title=" ">
<path fill="none" stroke="#63b8ff" d="M708.56,-296.09C697.13,-288.07 680.73,-276.56 667.39,-267.19"/>
<polygon fill="#63b8ff" stroke="#63b8ff" points="669.76,-264.58 659.56,-261.7 665.74,-270.31 669.76,-264.58"/>
</a>
</g>
</g>
<!-- Node18&#45;&gt;Node3 -->
<g id="edge27_Node000018_Node000003" class="edge">
<title>Node18&#45;&gt;Node3</title>
<g id="a_edge27_Node000018_Node000003"><a xlink:title=" ">
<path fill="none" stroke="#63b8ff" d="M813.85,-239.37C813.91,-223.09 811.7,-190.2 794.5,-170.25 766.64,-137.93 734.05,-165.96 705.5,-134.25 694.37,-121.89 689.73,-103.42 687.81,-89.14"/>
<polygon fill="#63b8ff" stroke="#63b8ff" points="691.31,-89.05 686.87,-79.43 684.35,-89.72 691.31,-89.05"/>
</a>
</g>
</g>
<!-- Node18&#45;&gt;Node14 -->
<g id="edge30_Node000018_Node000014" class="edge">
<title>Node18&#45;&gt;Node14</title>
<g id="a_edge30_Node000018_Node000014"><a xlink:title=" ">
<path fill="none" stroke="#63b8ff" d="M782.15,-242.23C735.82,-232.05 648.39,-212.82 591.04,-200.21"/>
<polygon fill="#63b8ff" stroke="#63b8ff" points="591.99,-196.84 581.48,-198.11 590.49,-203.67 591.99,-196.84"/>
</a>
</g>
</g>
<!-- Node18&#45;&gt;Node17 -->
<g id="edge28_Node000018_Node000017" class="edge">
<title>Node18&#45;&gt;Node17</title>
<g id="a_edge28_Node000018_Node000017"><a xlink:title=" ">
<path fill="none" stroke="#63b8ff" d="M844.87,-247.81C902.62,-244.65 1022.16,-234.48 1047.5,-203.75 1075.38,-169.95 1048.57,-115.81 1030.66,-87.23"/>
<polygon fill="#63b8ff" stroke="#63b8ff" points="1033.82,-85.66 1025.41,-79.21 1027.96,-89.49 1033.82,-85.66"/>
</a>
</g>
</g>
<!-- Node19 -->
<g id="Node000019" class="node">
<title>Node19</title>
<g id="a_Node000019"><a xlink:href="error_8h.html" target="_top" xlink:title=" ">
<polygon fill="white" stroke="#666666" points="852.38,-77.5 736.62,-77.5 736.62,-56.75 852.38,-56.75 852.38,-77.5"/>
<text text-anchor="middle" x="794.5" y="-64" font-family="Helvetica,sans-Serif" font-size="10.00">vlcb/platform/error.h</text>
</a>
</g>
</g>
<!-- Node18&#45;&gt;Node19 -->
<g id="edge29_Node000018_Node000019" class="edge">
<title>Node18&#45;&gt;Node19</title>
<g id="a_edge29_Node000018_Node000019"><a xlink:title=" ">
<path fill="none" stroke="#63b8ff" d="M817.36,-239.58C820.8,-230.53 825.58,-216.47 827.5,-203.75 833.79,-162 816.24,-114.26 804.38,-88.02"/>
<polygon fill="#63b8ff" stroke="#63b8ff" points="807.67,-86.79 800.23,-79.24 801.34,-89.78 807.67,-86.79"/>
</a>
</g>
</g>
<!-- Node20 -->
<g id="Node000020" class="node">
<title>Node20</title>
<g id="a_Node000020"><a xlink:href="packet_8h.html" target="_top" xlink:title=" ">
<polygon fill="white" stroke="#666666" points="1038.5,-197.38 920.5,-197.38 920.5,-176.62 1038.5,-176.62 1038.5,-197.38"/>
<text text-anchor="middle" x="979.5" y="-183.88" font-family="Helvetica,sans-Serif" font-size="10.00">adapter/can/packet.h</text>
</a>
</g>
</g>
<!-- Node18&#45;&gt;Node20 -->
<g id="edge31_Node000018_Node000020" class="edge">
<title>Node18&#45;&gt;Node20</title>
<g id="a_edge31_Node000018_Node000020"><a xlink:title=" ">
<path fill="none" stroke="#63b8ff" d="M840.17,-239.3C867.88,-229.1 911.45,-213.06 942.49,-201.63"/>
<polygon fill="#63b8ff" stroke="#63b8ff" points="943.3,-205.06 951.48,-198.32 940.88,-198.49 943.3,-205.06"/>
</a>
</g>
</g>
<!-- Node23 -->
<g id="Node000023" class="node">
<title>Node23</title>
<g id="a_Node000023"><a xlink:href="addr_8h.html" target="_top" xlink:title=" ">
<polygon fill="white" stroke="#666666" points="785.5,-197.38 697.5,-197.38 697.5,-176.62 785.5,-176.62 785.5,-197.38"/>
<text text-anchor="middle" x="741.5" y="-183.88" font-family="Helvetica,sans-Serif" font-size="10.00">vlcb/net/addr.h</text>
</a>
</g>
</g>
<!-- Node18&#45;&gt;Node23 -->
<g id="edge39_Node000018_Node000023" class="edge">
<title>Node18&#45;&gt;Node23</title>
<g id="a_edge39_Node000018_Node000023"><a xlink:title=" ">
<path fill="none" stroke="#63b8ff" d="M801.93,-239.3C791.06,-230.07 774.55,-216.06 761.53,-205.01"/>
<polygon fill="#63b8ff" stroke="#63b8ff" points="763.84,-202.38 753.96,-198.57 759.31,-207.71 763.84,-202.38"/>
</a>
</g>
</g>
<!-- Node20&#45;&gt;Node17 -->
<g id="edge32_Node000020_Node000017" class="edge">
<title>Node20&#45;&gt;Node17</title>
<g id="a_edge32_Node000020_Node000017"><a xlink:title=" ">
<path fill="none" stroke="#63b8ff" d="M985.07,-176.39C990.73,-166.23 999.38,-149.58 1004.5,-134.25 1009.44,-119.45 1012.76,-102.12 1014.81,-88.92"/>
<polygon fill="#63b8ff" stroke="#63b8ff" points="1018.24,-89.63 1016.18,-79.24 1011.31,-88.65 1018.24,-89.63"/>
</a>
</g>
</g>
<!-- Node21 -->
<g id="Node000021" class="node">
<title>Node21</title>
<g id="a_Node000021"><a xlink:href="common_2inc_2vlcb_2common_2can_8h.html" target="_top" xlink:title=" ">
<polygon fill="white" stroke="#666666" points="962.12,-134.25 850.88,-134.25 850.88,-113.5 962.12,-113.5 962.12,-134.25"/>
<text text-anchor="middle" x="906.5" y="-120.75" font-family="Helvetica,sans-Serif" font-size="10.00">vlcb/common/can.h</text>
</a>
</g>
</g>
<!-- Node20&#45;&gt;Node21 -->
<g id="edge33_Node000020_Node000021" class="edge">
<title>Node20&#45;&gt;Node21</title>
<g id="a_edge33_Node000020_Node000021"><a xlink:title=" ">
<path fill="none" stroke="#63b8ff" d="M967.77,-176.18C956.64,-166.86 939.68,-152.66 926.43,-141.56"/>
<polygon fill="#63b8ff" stroke="#63b8ff" points="929.03,-139.18 919.12,-135.44 924.54,-144.55 929.03,-139.18"/>
</a>
</g>
</g>
<!-- Node21&#45;&gt;Node3 -->
<g id="edge34_Node000021_Node000003" class="edge">
<title>Node21&#45;&gt;Node3</title>
<g id="a_edge34_Node000021_Node000003"><a xlink:title=" ">
<path fill="none" stroke="#63b8ff" d="M866.91,-113.02C828.44,-103.45 770.13,-88.94 730.28,-79.02"/>
<polygon fill="#63b8ff" stroke="#63b8ff" points="731.33,-75.68 720.78,-76.66 729.64,-82.47 731.33,-75.68"/>
</a>
</g>
</g>
<!-- Node21&#45;&gt;Node6 -->
<g id="edge36_Node000021_Node000006" class="edge">
<title>Node21&#45;&gt;Node6</title>
<g id="a_edge36_Node000021_Node000006"><a xlink:title=" ">
<path fill="none" stroke="#63b8ff" d="M915.2,-113.08C922.59,-104.31 933,-90.8 939.5,-77.5 946.56,-63.04 951.45,-45.48 954.5,-32.09"/>
<polygon fill="#63b8ff" stroke="#63b8ff" points="957.86,-33.16 956.48,-22.66 951,-31.73 957.86,-33.16"/>
</a>
</g>
</g>
<!-- Node21&#45;&gt;Node17 -->
<g id="edge35_Node000021_Node000017" class="edge">
<title>Node21&#45;&gt;Node17</title>
<g id="a_edge35_Node000021_Node000017"><a xlink:title=" ">
<path fill="none" stroke="#63b8ff" d="M926.34,-113.09C943.39,-104.68 968.22,-92.43 987.66,-82.84"/>
<polygon fill="#63b8ff" stroke="#63b8ff" points="989.05,-86.06 996.47,-78.5 985.95,-79.78 989.05,-86.06"/>
</a>
</g>
</g>
<!-- Node22 -->
<g id="Node000022" class="node">
<title>Node22</title>
<g id="a_Node000022"><a xlink:href="opcode_8h.html" target="_top" xlink:title=" ">
<polygon fill="white" stroke="#666666" points="930.62,-77.5 870.38,-77.5 870.38,-56.75 930.62,-56.75 930.62,-77.5"/>
<text text-anchor="middle" x="900.5" y="-64" font-family="Helvetica,sans-Serif" font-size="10.00">opcode.h</text>
</a>
</g>
</g>
<!-- Node21&#45;&gt;Node22 -->
<g id="edge37_Node000021_Node000022" class="edge">
<title>Node21&#45;&gt;Node22</title>
<g id="a_edge37_Node000021_Node000022"><a xlink:title=" ">
<path fill="none" stroke="#63b8ff" d="M905.43,-113.09C904.7,-106.47 903.72,-97.47 902.82,-89.27"/>
<polygon fill="#63b8ff" stroke="#63b8ff" points="906.3,-88.89 901.73,-79.33 899.34,-89.65 906.3,-88.89"/>
</a>
</g>
</g>
<!-- Node22&#45;&gt;Node6 -->
<g id="edge38_Node000022_Node000006" class="edge">
<title>Node22&#45;&gt;Node6</title>
<g id="a_edge38_Node000022_Node000006"><a xlink:title=" ">
<path fill="none" stroke="#63b8ff" d="M910.87,-56.34C918.95,-48.71 930.38,-37.92 940.02,-28.82"/>
<polygon fill="#63b8ff" stroke="#63b8ff" points="942.25,-31.53 947.12,-22.12 937.45,-26.44 942.25,-31.53"/>
</a>
</g>
</g>
<!-- Node23&#45;&gt;Node6 -->
<g id="edge42_Node000023_Node000006" class="edge">
<title>Node23&#45;&gt;Node6</title>
<g id="a_edge42_Node000023_Node000006"><a xlink:title=" ">
<path fill="none" stroke="#63b8ff" d="M724.48,-176.22C688.09,-154.13 608.92,-99.02 645.5,-56.75 680.72,-16.06 845.5,-11.08 920.8,-10.98"/>
<polygon fill="#63b8ff" stroke="#63b8ff" points="920.56,-14.48 930.57,-11 920.57,-7.48 920.56,-14.48"/>
</a>
</g>
</g>
<!-- Node23&#45;&gt;Node12 -->
<g id="edge41_Node000023_Node000012" class="edge">
<title>Node23&#45;&gt;Node12</title>
<g id="a_edge41_Node000023_Node000012"><a xlink:title=" ">
<path fill="none" stroke="#63b8ff" d="M697.05,-180.34C672.19,-177.24 640.64,-173.39 612.5,-170.25 458.4,-153.06 274.21,-135.33 198.56,-128.17"/>
<polygon fill="#63b8ff" stroke="#63b8ff" points="199.16,-124.71 188.88,-127.25 198.5,-131.68 199.16,-124.71"/>
</a>
</g>
</g>
<!-- Node23&#45;&gt;Node21 -->
<g id="edge40_Node000023_Node000021" class="edge">
<title>Node23&#45;&gt;Node21</title>
<g id="a_edge40_Node000023_Node000021"><a xlink:title=" ">
<path fill="none" stroke="#63b8ff" d="M768.01,-176.18C795.43,-166.02 838.48,-150.07 869.31,-138.65"/>
<polygon fill="#63b8ff" stroke="#63b8ff" points="870.48,-141.95 878.64,-135.2 868.04,-135.39 870.48,-141.95"/>
</a>
</g>
</g>
<!-- Node24&#45;&gt;Node14 -->
<g id="edge55_Node000024_Node000014" class="edge">
<title>Node24&#45;&gt;Node14</title>
<g id="a_edge55_Node000024_Node000014"><a xlink:title=" ">
<path fill="none" stroke="#63b8ff" d="M626.99,-239.3C609.67,-229.59 582.91,-214.58 562.8,-203.31"/>
<polygon fill="#63b8ff" stroke="#63b8ff" points="564.72,-200.38 554.29,-198.54 561.3,-206.48 564.72,-200.38"/>
</a>
</g>
</g>
<!-- Node24&#45;&gt;Node15 -->
<g id="edge45_Node000024_Node000015" class="edge">
<title>Node24&#45;&gt;Node15</title>
<g id="a_edge45_Node000024_Node000015"><a xlink:title=" ">
<path fill="none" stroke="#63b8ff" d="M640.65,-239.37C634.73,-224.44 622.98,-195.02 612.5,-170.25 608.98,-161.94 604.99,-152.83 601.51,-144.96"/>
<polygon fill="#63b8ff" stroke="#63b8ff" points="604.76,-143.67 597.49,-135.96 598.37,-146.52 604.76,-143.67"/>
</a>
</g>
</g>
<!-- Node24&#45;&gt;Node17 -->
<g id="edge44_Node000024_Node000017" class="edge">
<title>Node24&#45;&gt;Node17</title>
<g id="a_edge44_Node000024_Node000017"><a xlink:title=" ">
<path fill="none" stroke="#63b8ff" d="M673.02,-241.68C743.41,-222.9 923.22,-172.39 971.5,-134.25 987.42,-121.68 1000.06,-102.13 1008.03,-87.54"/>
<polygon fill="#63b8ff" stroke="#63b8ff" points="1011.02,-89.39 1012.5,-78.9 1004.8,-86.17 1011.02,-89.39"/>
</a>
</g>
</g>
<!-- Node24&#45;&gt;Node23 -->
<g id="edge50_Node000024_Node000023" class="edge">
<title>Node24&#45;&gt;Node23</title>
<g id="a_edge50_Node000024_Node000023"><a xlink:title=" ">
<path fill="none" stroke="#63b8ff" d="M660.08,-239.3C675.22,-229.77 698.44,-215.13 716.22,-203.93"/>
<polygon fill="#63b8ff" stroke="#63b8ff" points="718.08,-206.9 724.67,-198.6 714.35,-200.97 718.08,-206.9"/>
</a>
</g>
</g>
<!-- Node25 -->
<g id="Node000025" class="node">
<title>Node25</title>
<g id="a_Node000025"><a xlink:href="vlcb_8h.html" target="_top" xlink:title=" ">
<polygon fill="white" stroke="#666666" points="794.75,-134.25 714.25,-134.25 714.25,-113.5 794.75,-113.5 794.75,-134.25"/>
<text text-anchor="middle" x="754.5" y="-120.75" font-family="Helvetica,sans-Serif" font-size="10.00">packet/vlcb.h</text>
</a>
</g>
</g>
<!-- Node24&#45;&gt;Node25 -->
<g id="edge46_Node000024_Node000025" class="edge">
<title>Node24&#45;&gt;Node25</title>
<g id="a_edge46_Node000024_Node000025"><a xlink:title=" ">
<path fill="none" stroke="#63b8ff" d="M648.17,-239.49C654.53,-223.68 668.86,-191.81 688.5,-170.25 699.21,-158.49 713.53,-148.18 726.1,-140.37"/>
<polygon fill="#63b8ff" stroke="#63b8ff" points="727.58,-143.55 734.39,-135.43 724.01,-137.54 727.58,-143.55"/>
</a>
</g>
</g>
<!-- Node26 -->
<g id="Node000026" class="node">
<title>Node26</title>
<g id="a_Node000026"><a xlink:href="packet__buf_8h.html" target="_top" xlink:title=" ">
<polygon fill="white" stroke="#666666" points="449.5,-203.75 319.5,-203.75 319.5,-170.25 449.5,-170.25 449.5,-203.75"/>
<text text-anchor="start" x="327.5" y="-190.25" font-family="Helvetica,sans-Serif" font-size="10.00">vlcb/net/storage/packet</text>
<text text-anchor="middle" x="384.5" y="-177.5" font-family="Helvetica,sans-Serif" font-size="10.00">_buf.h</text>
</a>
</g>
</g>
<!-- Node24&#45;&gt;Node26 -->
<g id="edge51_Node000024_Node000026" class="edge">
<title>Node24&#45;&gt;Node26</title>
<g id="a_edge51_Node000024_Node000026"><a xlink:title=" ">
<path fill="none" stroke="#63b8ff" d="M616.18,-242.47C579.2,-233.77 513.02,-218.21 460.83,-205.95"/>
<polygon fill="#63b8ff" stroke="#63b8ff" points="461.94,-202.61 451.4,-203.73 460.33,-209.42 461.94,-202.61"/>
</a>
</g>
</g>
<!-- Node25&#45;&gt;Node3 -->
<g id="edge47_Node000025_Node000003" class="edge">
<title>Node25&#45;&gt;Node3</title>
<g id="a_edge47_Node000025_Node000003"><a xlink:title=" ">
<path fill="none" stroke="#63b8ff" d="M742.34,-113.09C732.67,-105.3 718.92,-94.22 707.48,-85.01"/>
<polygon fill="#63b8ff" stroke="#63b8ff" points="709.71,-82.32 699.73,-78.78 705.32,-87.78 709.71,-82.32"/>
</a>
</g>
</g>
<!-- Node25&#45;&gt;Node19 -->
<g id="edge49_Node000025_Node000019" class="edge">
<title>Node25&#45;&gt;Node19</title>
<g id="a_edge49_Node000025_Node000019"><a xlink:title=" ">
<path fill="none" stroke="#63b8ff" d="M761.65,-113.09C766.94,-105.85 774.31,-95.76 780.73,-86.97"/>
<polygon fill="#63b8ff" stroke="#63b8ff" points="783.44,-89.19 786.52,-79.05 777.79,-85.06 783.44,-89.19"/>
</a>
</g>
</g>
<!-- Node25&#45;&gt;Node22 -->
<g id="edge48_Node000025_Node000022" class="edge">
<title>Node25&#45;&gt;Node22</title>
<g id="a_edge48_Node000025_Node000022"><a xlink:title=" ">
<path fill="none" stroke="#63b8ff" d="M780.6,-113.09C803.85,-104.37 838.12,-91.52 864.07,-81.79"/>
<polygon fill="#63b8ff" stroke="#63b8ff" points="865.07,-85.15 873.21,-78.36 862.61,-78.59 865.07,-85.15"/>
</a>
</g>
</g>
<!-- Node26&#45;&gt;Node6 -->
<g id="edge54_Node000026_Node000006" class="edge">
<title>Node26&#45;&gt;Node6</title>
<g id="a_edge54_Node000026_Node000006"><a xlink:title=" ">
<path fill="none" stroke="#63b8ff" d="M378.97,-170C374.52,-153.93 370.86,-129.34 383.5,-113.5 450.74,-29.21 803.17,-14.49 920.48,-11.92"/>
<polygon fill="#63b8ff" stroke="#63b8ff" points="920.27,-15.42 930.2,-11.72 920.13,-8.42 920.27,-15.42"/>
</a>
</g>
</g>
<!-- Node26&#45;&gt;Node15 -->
<g id="edge53_Node000026_Node000015" class="edge">
<title>Node26&#45;&gt;Node15</title>
<g id="a_edge53_Node000026_Node000015"><a xlink:title=" ">
<path fill="none" stroke="#63b8ff" d="M439.69,-169.78C475.65,-159.21 521.68,-145.69 553.78,-136.25"/>
<polygon fill="#63b8ff" stroke="#63b8ff" points="554.45,-139.7 563.06,-133.53 552.48,-132.99 554.45,-139.7"/>
</a>
</g>
</g>
<!-- Node26&#45;&gt;Node17 -->
<g id="edge52_Node000026_Node000017" class="edge">
<title>Node26&#45;&gt;Node17</title>
<g id="a_edge52_Node000026_Node000017"><a xlink:title=" ">
<path fill="none" stroke="#63b8ff" d="M429.99,-169.81C455.94,-160.21 488.9,-147.37 517.5,-134.25 535.35,-126.06 537.69,-119.14 556.5,-113.5 720.27,-64.39 769.5,-95.7 939.5,-77.5 951.2,-76.25 963.87,-74.77 975.52,-73.37"/>
<polygon fill="#63b8ff" stroke="#63b8ff" points="975.77,-76.87 985.27,-72.19 974.92,-69.92 975.77,-76.87"/>
</a>
</g>
</g>
<!-- Node27&#45;&gt;Node6 -->
<g id="edge65_Node000027_Node000006" class="edge">
<title>Node27&#45;&gt;Node6</title>
<g id="a_edge65_Node000027_Node000006"><a xlink:title=" ">
<path fill="none" stroke="#63b8ff" d="M410.51,-296.04C382.09,-280.78 331.15,-248.45 310.5,-203.75 274.41,-125.64 357.32,-90.44 436.5,-56.75 523.85,-19.59 815.72,-12.86 920.58,-11.64"/>
<polygon fill="#63b8ff" stroke="#63b8ff" points="920.37,-15.15 930.33,-11.54 920.3,-8.15 920.37,-15.15"/>
</a>
</g>
</g>
<!-- Node27&#45;&gt;Node14 -->
<g id="edge64_Node000027_Node000014" class="edge">
<title>Node27&#45;&gt;Node14</title>
<g id="a_edge64_Node000027_Node000014"><a xlink:title=" ">
<path fill="none" stroke="#63b8ff" d="M439.09,-296.23C456.63,-276.54 496.78,-231.47 519.35,-206.13"/>
<polygon fill="#63b8ff" stroke="#63b8ff" points="521.74,-208.7 525.78,-198.91 516.52,-204.05 521.74,-208.7"/>
</a>
</g>
</g>
<!-- Node27&#45;&gt;Node23 -->
<g id="edge63_Node000027_Node000023" class="edge">
<title>Node27&#45;&gt;Node23</title>
<g id="a_edge63_Node000027_Node000023"><a xlink:title=" ">
<path fill="none" stroke="#63b8ff" d="M505.19,-298.09C568.04,-290.51 652.21,-277.63 681.5,-260.5 703.02,-247.92 720.2,-224.58 730.57,-207.78"/>
<polygon fill="#63b8ff" stroke="#63b8ff" points="733.58,-209.56 735.61,-199.16 727.54,-206.02 733.58,-209.56"/>
</a>
</g>
</g>
<!-- Node27&#45;&gt;Node24 -->
<g id="edge61_Node000027_Node000024" class="edge">
<title>Node27&#45;&gt;Node24</title>
<g id="a_edge61_Node000027_Node000024"><a xlink:title=" ">
<path fill="none" stroke="#63b8ff" d="M468.76,-296.09C507.17,-286.26 566.06,-271.19 604.93,-261.25"/>
<polygon fill="#63b8ff" stroke="#63b8ff" points="605.53,-264.71 614.35,-258.84 603.79,-257.93 605.53,-264.71"/>
</a>
</g>
</g>
<!-- Node27&#45;&gt;Node26 -->
<g id="edge62_Node000027_Node000026" class="edge">
<title>Node27&#45;&gt;Node26</title>
<g id="a_edge62_Node000027_Node000026"><a xlink:title=" ">
<path fill="none" stroke="#63b8ff" d="M426.74,-296.23C419.86,-278.6 405.04,-240.62 394.91,-214.68"/>
<polygon fill="#63b8ff" stroke="#63b8ff" points="398.22,-213.52 391.32,-205.48 391.69,-216.06 398.22,-213.52"/>
</a>
</g>
</g>
<!-- Node28 -->
<g id="Node000028" class="node">
<title>Node28</title>
<g id="a_Node000028"><a xlink:href="packet_2datagram_8h.html" target="_top" xlink:title=" ">
<polygon fill="white" stroke="#666666" points="508.75,-134.25 392.25,-134.25 392.25,-113.5 508.75,-113.5 508.75,-134.25"/>
<text text-anchor="middle" x="450.5" y="-120.75" font-family="Helvetica,sans-Serif" font-size="10.00">../packet/datagram.h</text>
</a>
</g>
</g>
<!-- Node27&#45;&gt;Node28 -->
<g id="edge57_Node000027_Node000028" class="edge">
<title>Node27&#45;&gt;Node28</title>
<g id="a_edge57_Node000027_Node000028"><a xlink:title=" ">
<path fill="none" stroke="#63b8ff" d="M409.5,-296.06C366.16,-274.47 273.8,-220.73 310.5,-170.25 326.8,-147.83 354.43,-136.26 380.86,-130.38"/>
<polygon fill="#63b8ff" stroke="#63b8ff" points="381.45,-133.83 390.6,-128.48 380.11,-126.96 381.45,-133.83"/>
</a>
</g>
</g>
<!-- Node28&#45;&gt;Node3 -->
<g id="edge58_Node000028_Node000003" class="edge">
<title>Node28&#45;&gt;Node3</title>
<g id="a_edge58_Node000028_Node000003"><a xlink:title=" ">
<path fill="none" stroke="#63b8ff" d="M492.96,-113.02C535.27,-103.21 599.92,-88.21 642.69,-78.29"/>
<polygon fill="#63b8ff" stroke="#63b8ff" points="643.44,-81.71 652.39,-76.04 641.86,-74.89 643.44,-81.71"/>
</a>
</g>
</g>
<!-- Node28&#45;&gt;Node19 -->
<g id="edge60_Node000028_Node000019" class="edge">
<title>Node28&#45;&gt;Node19</title>
<g id="a_edge60_Node000028_Node000019"><a xlink:title=" ">
<path fill="none" stroke="#63b8ff" d="M509.24,-113.53C569.07,-104 661.81,-89.24 725.2,-79.15"/>
<polygon fill="#63b8ff" stroke="#63b8ff" points="725.46,-82.66 734.79,-77.63 724.36,-75.74 725.46,-82.66"/>
</a>
</g>
</g>
<!-- Node28&#45;&gt;Node22 -->
<g id="edge59_Node000028_Node000022" class="edge">
<title>Node28&#45;&gt;Node22</title>
<g id="a_edge59_Node000028_Node000022"><a xlink:title=" ">
<path fill="none" stroke="#63b8ff" d="M509.03,-115.14C513.59,-114.57 518.12,-114.02 522.5,-113.5 669.29,-96.15 710.21,-102.91 858.58,-77.82"/>
<polygon fill="#63b8ff" stroke="#63b8ff" points="859.16,-81.27 868.43,-76.13 857.98,-74.37 859.16,-81.27"/>
</a>
</g>
</g>
</g>
</svg>
