<?xml version="1.0" encoding="UTF-8" standalone="no"?>
<!DOCTYPE svg PUBLIC "-//W3C//DTD SVG 1.1//EN"
 "http://www.w3.org/Graphics/SVG/1.1/DTD/svg11.dtd">
<!-- Generated by graphviz version 12.1.2 (20240928.0832)
 -->
<!-- Title: state.h Pages: 1 -->
<svg width="280pt" height="142pt"
 viewBox="0.00 0.00 279.75 142.25" xmlns="http://www.w3.org/2000/svg" xmlns:xlink="http://www.w3.org/1999/xlink">
<g id="graph0" class="graph" transform="scale(1 1) rotate(0) translate(4 138.25)">
<title>state.h</title>
<!-- Node1 -->
<g id="Node000001" class="node">
<title>Node1</title>
<g id="a_Node000001"><a xlink:title=" ">
<polygon fill="#999999" stroke="#666666" points="186.88,-134.25 137.12,-134.25 137.12,-113.5 186.88,-113.5 186.88,-134.25"/>
<text text-anchor="middle" x="162" y="-120.75" font-family="Helvetica,sans-Serif" font-size="10.00">state.h</text>
</a>
</g>
</g>
<!-- Node2 -->
<g id="Node000002" class="node">
<title>Node2</title>
<g id="a_Node000002"><a xlink:href="node_8h.html" target="_top" xlink:title=" ">
<polygon fill="white" stroke="#666666" points="118,-77.5 0,-77.5 0,-56.75 118,-56.75 118,-77.5"/>
<text text-anchor="middle" x="59" y="-64" font-family="Helvetica,sans-Serif" font-size="10.00">vlcb/common/node.h</text>
</a>
</g>
</g>
<!-- Node1&#45;&gt;Node2 -->
<g id="edge1_Node000001_Node000002" class="edge">
<title>Node1&#45;&gt;Node2</title>
<g id="a_edge1_Node000001_Node000002"><a xlink:title=" ">
<path fill="none" stroke="#63b8ff" d="M143.59,-113.09C127.91,-104.76 105.15,-92.66 87.19,-83.11"/>
<polygon fill="#63b8ff" stroke="#63b8ff" points="89.06,-80.14 78.59,-78.54 85.78,-86.32 89.06,-80.14"/>
</a>
</g>
</g>
<!-- Node4 -->
<g id="Node000004" class="node">
<title>Node4</title>
<g id="a_Node000004"><a xlink:title=" ">
<polygon fill="#e0e0e0" stroke="#999999" points="188.38,-77.5 135.62,-77.5 135.62,-56.75 188.38,-56.75 188.38,-77.5"/>
<text text-anchor="middle" x="162" y="-64" font-family="Helvetica,sans-Serif" font-size="10.00">stdint.h</text>
</a>
</g>
</g>
<!-- Node1&#45;&gt;Node4 -->
<g id="edge3_Node000001_Node000004" class="edge">
<title>Node1&#45;&gt;Node4</title>
<g id="a_edge3_Node000001_Node000004"><a xlink:title=" ">
<path fill="none" stroke="#63b8ff" d="M162,-113.09C162,-106.47 162,-97.47 162,-89.27"/>
<polygon fill="#63b8ff" stroke="#63b8ff" points="165.5,-89.34 162,-79.34 158.5,-89.34 165.5,-89.34"/>
</a>
</g>
</g>
<!-- Node5 -->
<g id="Node000005" class="node">
<title>Node5</title>
<g id="a_Node000005"><a xlink:href="time_8h.html" target="_top" xlink:title=" ">
<polygon fill="white" stroke="#666666" points="253.75,-77.5 206.25,-77.5 206.25,-56.75 253.75,-56.75 253.75,-77.5"/>
<text text-anchor="middle" x="230" y="-64" font-family="Helvetica,sans-Serif" font-size="10.00">time.h</text>
</a>
</g>
</g>
<!-- Node1&#45;&gt;Node5 -->
<g id="edge4_Node000001_Node000005" class="edge">
<title>Node1&#45;&gt;Node5</title>
<g id="a_edge4_Node000001_Node000005"><a xlink:title=" ">
<path fill="none" stroke="#63b8ff" d="M174.16,-113.09C183.83,-105.3 197.58,-94.22 209.02,-85.01"/>
<polygon fill="#63b8ff" stroke="#63b8ff" points="211.18,-87.78 216.77,-78.78 206.79,-82.32 211.18,-87.78"/>
</a>
</g>
</g>
<!-- Node3 -->
<g id="Node000003" class="node">
<title>Node3</title>
<g id="a_Node000003"><a xlink:title=" ">
<polygon fill="#e0e0e0" stroke="#999999" points="91.38,-20.75 26.62,-20.75 26.62,0 91.38,0 91.38,-20.75"/>
<text text-anchor="middle" x="59" y="-7.25" font-family="Helvetica,sans-Serif" font-size="10.00">inttypes.h</text>
</a>
</g>
</g>
<!-- Node2&#45;&gt;Node3 -->
<g id="edge2_Node000002_Node000003" class="edge">
<title>Node2&#45;&gt;Node3</title>
<g id="a_edge2_Node000002_Node000003"><a xlink:title=" ">
<path fill="none" stroke="#63b8ff" d="M59,-56.34C59,-49.72 59,-40.72 59,-32.52"/>
<polygon fill="#63b8ff" stroke="#63b8ff" points="62.5,-32.59 59,-22.59 55.5,-32.59 62.5,-32.59"/>
</a>
</g>
</g>
<!-- Node5&#45;&gt;Node5 -->
<g id="edge5_Node000005_Node000005" class="edge">
<title>Node5&#45;&gt;Node5</title>
<g id="a_edge5_Node000005_Node000005"><a xlink:title=" ">
<path fill="none" stroke="#63b8ff" d="M254.03,-77.7C263.66,-78.3 271.75,-74.77 271.75,-67.12 271.75,-62.82 269.19,-59.83 265.24,-58.13"/>
<polygon fill="#63b8ff" stroke="#63b8ff" points="265.92,-54.69 255.52,-56.76 264.94,-61.62 265.92,-54.69"/>
</a>
</g>
</g>
</g>
</svg>
