<?xml version="1.0" encoding="UTF-8" standalone="no"?>
<!DOCTYPE svg PUBLIC "-//W3C//DTD SVG 1.1//EN"
 "http://www.w3.org/Graphics/SVG/1.1/DTD/svg11.dtd">
<!-- Generated by graphviz version 12.1.2 (20240928.0832)
 -->
<!-- Title: state.h Pages: 1 -->
<svg width="348pt" height="142pt"
 viewBox="0.00 0.00 348.38 142.25" xmlns="http://www.w3.org/2000/svg" xmlns:xlink="http://www.w3.org/1999/xlink">
<g id="graph0" class="graph" transform="scale(1 1) rotate(0) translate(4 138.25)">
<title>state.h</title>
<!-- Node1 -->
<g id="Node000001" class="node">
<title>Node1</title>
<g id="a_Node000001"><a xlink:title=" ">
<polygon fill="#999999" stroke="#666666" points="218.88,-134.25 169.12,-134.25 169.12,-113.5 218.88,-113.5 218.88,-134.25"/>
<text text-anchor="middle" x="194" y="-120.75" font-family="Helvetica,sans-Serif" font-size="10.00">state.h</text>
</a>
</g>
</g>
<!-- Node2 -->
<g id="Node000002" class="node">
<title>Node2</title>
<g id="a_Node000002"><a xlink:href="node_8h.html" target="_top" xlink:title=" ">
<polygon fill="white" stroke="#666666" points="118,-77.5 0,-77.5 0,-56.75 118,-56.75 118,-77.5"/>
<text text-anchor="middle" x="59" y="-64" font-family="Helvetica,sans-Serif" font-size="10.00">vlcb/common/node.h</text>
</a>
</g>
</g>
<!-- Node1&#45;&gt;Node2 -->
<g id="edge1_Node000001_Node000002" class="edge">
<title>Node1&#45;&gt;Node2</title>
<g id="a_edge1_Node000001_Node000002"><a xlink:title=" ">
<path fill="none" stroke="#63b8ff" d="M169.86,-113.09C148.56,-104.44 117.25,-91.75 93.33,-82.05"/>
<polygon fill="#63b8ff" stroke="#63b8ff" points="94.91,-78.91 84.33,-78.4 92.28,-85.4 94.91,-78.91"/>
</a>
</g>
</g>
<!-- Node4 -->
<g id="Node000004" class="node">
<title>Node4</title>
<g id="a_Node000004"><a xlink:href="time_8h.html" target="_top" xlink:title=" ">
<polygon fill="white" stroke="#666666" points="251.88,-77.5 136.12,-77.5 136.12,-56.75 251.88,-56.75 251.88,-77.5"/>
<text text-anchor="middle" x="194" y="-64" font-family="Helvetica,sans-Serif" font-size="10.00">vlcb/platform/time.h</text>
</a>
</g>
</g>
<!-- Node1&#45;&gt;Node4 -->
<g id="edge3_Node000001_Node000004" class="edge">
<title>Node1&#45;&gt;Node4</title>
<g id="a_edge3_Node000001_Node000004"><a xlink:title=" ">
<path fill="none" stroke="#63b8ff" d="M194,-113.09C194,-106.47 194,-97.47 194,-89.27"/>
<polygon fill="#63b8ff" stroke="#63b8ff" points="197.5,-89.34 194,-79.34 190.5,-89.34 197.5,-89.34"/>
</a>
</g>
</g>
<!-- Node5 -->
<g id="Node000005" class="node">
<title>Node5</title>
<g id="a_Node000005"><a xlink:title=" ">
<polygon fill="#e0e0e0" stroke="#999999" points="340.38,-77.5 287.62,-77.5 287.62,-56.75 340.38,-56.75 340.38,-77.5"/>
<text text-anchor="middle" x="314" y="-64" font-family="Helvetica,sans-Serif" font-size="10.00">stdint.h</text>
</a>
</g>
</g>
<!-- Node1&#45;&gt;Node5 -->
<g id="edge5_Node000001_Node000005" class="edge">
<title>Node1&#45;&gt;Node5</title>
<g id="a_edge5_Node000001_Node000005"><a xlink:title=" ">
<path fill="none" stroke="#63b8ff" d="M215.45,-113.09C234.05,-104.6 261.22,-92.2 282.33,-82.58"/>
<polygon fill="#63b8ff" stroke="#63b8ff" points="283.71,-85.79 291.36,-78.46 280.8,-79.42 283.71,-85.79"/>
</a>
</g>
</g>
<!-- Node3 -->
<g id="Node000003" class="node">
<title>Node3</title>
<g id="a_Node000003"><a xlink:title=" ">
<polygon fill="#e0e0e0" stroke="#999999" points="91.38,-20.75 26.62,-20.75 26.62,0 91.38,0 91.38,-20.75"/>
<text text-anchor="middle" x="59" y="-7.25" font-family="Helvetica,sans-Serif" font-size="10.00">inttypes.h</text>
</a>
</g>
</g>
<!-- Node2&#45;&gt;Node3 -->
<g id="edge2_Node000002_Node000003" class="edge">
<title>Node2&#45;&gt;Node3</title>
<g id="a_edge2_Node000002_Node000003"><a xlink:title=" ">
<path fill="none" stroke="#63b8ff" d="M59,-56.34C59,-49.72 59,-40.72 59,-32.52"/>
<polygon fill="#63b8ff" stroke="#63b8ff" points="62.5,-32.59 59,-22.59 55.5,-32.59 62.5,-32.59"/>
</a>
</g>
</g>
<!-- Node4&#45;&gt;Node4 -->
<g id="edge4_Node000004_Node000004" class="edge">
<title>Node4&#45;&gt;Node4</title>
<g id="a_edge4_Node000004_Node000004"><a xlink:title=" ">
<path fill="none" stroke="#63b8ff" d="M252.22,-77.14C262.61,-75.84 269.88,-72.5 269.88,-67.12 269.88,-64.02 267.45,-61.59 263.39,-59.84"/>
<polygon fill="#63b8ff" stroke="#63b8ff" points="264.23,-56.45 253.69,-57.47 262.57,-63.25 264.23,-56.45"/>
</a>
</g>
</g>
</g>
</svg>
