<?xml version="1.0" encoding="UTF-8" standalone="no"?>
<!DOCTYPE svg PUBLIC "-//W3C//DTD SVG 1.1//EN"
 "http://www.w3.org/Graphics/SVG/1.1/DTD/svg11.dtd">
<!-- Generated by graphviz version 12.1.2 (20240928.0832)
 -->
<!-- Title: VlcbPlatformLedEffect Pages: 1 -->
<svg width="320pt" height="181pt"
 viewBox="0.00 0.00 320.25 180.50" xmlns="http://www.w3.org/2000/svg" xmlns:xlink="http://www.w3.org/1999/xlink">
<g id="graph0" class="graph" transform="scale(1 1) rotate(0) translate(4 176.5)">
<title>VlcbPlatformLedEffect</title>
<!-- Node1 -->
<g id="Node000001" class="node">
<title>Node1</title>
<g id="a_Node000001"><a xlink:title=" ">
<polygon fill="#999999" stroke="#666666" points="217.62,-20.75 93.62,-20.75 93.62,0 217.62,0 217.62,-20.75"/>
<text text-anchor="middle" x="155.62" y="-7.25" font-family="Helvetica,sans-Serif" font-size="10.00">VlcbPlatformLedEffect</text>
</a>
</g>
</g>
<!-- Node2 -->
<g id="Node000002" class="node">
<title>Node2</title>
<g id="a_Node000002"><a xlink:href="unionVlcbPlatformLedEffectData.html" target="_top" xlink:title=" ">
<polygon fill="white" stroke="#666666" points="229.25,-90.25 82,-90.25 82,-69.5 229.25,-69.5 229.25,-90.25"/>
<text text-anchor="middle" x="155.62" y="-76.75" font-family="Helvetica,sans-Serif" font-size="10.00">VlcbPlatformLedEffectData</text>
</a>
</g>
</g>
<!-- Node2&#45;&gt;Node1 -->
<g id="edge1_Node000001_Node000002" class="edge">
<title>Node2&#45;&gt;Node1</title>
<g id="a_edge1_Node000001_Node000002"><a xlink:title=" ">
<path fill="none" stroke="#9a32cd" stroke-dasharray="5,2" d="M155.62,-58.07C155.62,-45.72 155.62,-30.65 155.62,-21.03"/>
<polygon fill="#9a32cd" stroke="#9a32cd" points="152.13,-57.69 155.63,-67.69 159.13,-57.69 152.13,-57.69"/>
</a>
</g>
<text text-anchor="middle" x="168" y="-42" font-family="Helvetica,sans-Serif" font-size="10.00" fill="grey"> data</text>
</g>
<!-- Node3 -->
<g id="Node000003" class="node">
<title>Node3</title>
<g id="a_Node000003"><a xlink:href="structVlcbPlatformLedEffectDataPulse.html" target="_top" xlink:title=" ">
<polygon fill="white" stroke="#666666" points="147.25,-172.5 0,-172.5 0,-139 147.25,-139 147.25,-172.5"/>
<text text-anchor="start" x="8" y="-159" font-family="Helvetica,sans-Serif" font-size="10.00">VlcbPlatformLedEffectData</text>
<text text-anchor="middle" x="73.62" y="-146.25" font-family="Helvetica,sans-Serif" font-size="10.00">Pulse</text>
</a>
</g>
</g>
<!-- Node3&#45;&gt;Node2 -->
<g id="edge2_Node000002_Node000003" class="edge">
<title>Node3&#45;&gt;Node2</title>
<g id="a_edge2_Node000002_Node000003"><a xlink:title=" ">
<path fill="none" stroke="#9a32cd" stroke-dasharray="5,2" d="M99.57,-131.37C114.99,-117.48 133.7,-100.63 145.13,-90.33"/>
<polygon fill="#9a32cd" stroke="#9a32cd" points="97.63,-128.41 92.54,-137.71 102.31,-133.61 97.63,-128.41"/>
</a>
</g>
<text text-anchor="middle" x="139.01" y="-111.5" font-family="Helvetica,sans-Serif" font-size="10.00" fill="grey"> pulse</text>
</g>
<!-- Node4 -->
<g id="Node000004" class="node">
<title>Node4</title>
<g id="a_Node000004"><a xlink:href="structVlcbPlatformLedEffectDataBlink.html" target="_top" xlink:title=" ">
<polygon fill="white" stroke="#666666" points="312.25,-172.5 165,-172.5 165,-139 312.25,-139 312.25,-172.5"/>
<text text-anchor="start" x="173" y="-159" font-family="Helvetica,sans-Serif" font-size="10.00">VlcbPlatformLedEffectData</text>
<text text-anchor="middle" x="238.62" y="-146.25" font-family="Helvetica,sans-Serif" font-size="10.00">Blink</text>
</a>
</g>
</g>
<!-- Node4&#45;&gt;Node2 -->
<g id="edge3_Node000002_Node000004" class="edge">
<title>Node4&#45;&gt;Node2</title>
<g id="a_edge3_Node000002_Node000004"><a xlink:title=" ">
<path fill="none" stroke="#9a32cd" stroke-dasharray="5,2" d="M212.36,-131.37C196.76,-117.48 177.82,-100.63 166.25,-90.33"/>
<polygon fill="#9a32cd" stroke="#9a32cd" points="209.69,-133.68 219.48,-137.71 214.34,-128.45 209.69,-133.68"/>
</a>
</g>
<text text-anchor="middle" x="213.11" y="-111.5" font-family="Helvetica,sans-Serif" font-size="10.00" fill="grey"> blink</text>
</g>
</g>
</svg>
