<?xml version="1.0" encoding="UTF-8" standalone="no"?>
<!DOCTYPE svg PUBLIC "-//W3C//DTD SVG 1.1//EN"
 "http://www.w3.org/Graphics/SVG/1.1/DTD/svg11.dtd">
<!-- Generated by graphviz version 12.1.2 (20240928.0832)
 -->
<!-- Title: VlcbNetAdptPkt Pages: 1 -->
<svg width="245pt" height="168pt"
 viewBox="0.00 0.00 245.25 167.75" xmlns="http://www.w3.org/2000/svg" xmlns:xlink="http://www.w3.org/1999/xlink">
<g id="graph0" class="graph" transform="scale(1 1) rotate(0) translate(4 163.75)">
<title>VlcbNetAdptPkt</title>
<!-- Node1 -->
<g id="Node000001" class="node">
<title>Node1</title>
<g id="a_Node000001"><a xlink:title=" ">
<polygon fill="#999999" stroke="#666666" points="125.5,-20.75 33,-20.75 33,0 125.5,0 125.5,-20.75"/>
<text text-anchor="middle" x="79.25" y="-7.25" font-family="Helvetica,sans-Serif" font-size="10.00">VlcbNetAdptPkt</text>
</a>
</g>
</g>
<!-- Node2 -->
<g id="Node000002" class="node">
<title>Node2</title>
<g id="a_Node000002"><a xlink:href="unionVlcbNetHwAddr.html" target="_top" xlink:title=" ">
<polygon fill="white" stroke="#666666" points="92.5,-90.25 0,-90.25 0,-69.5 92.5,-69.5 92.5,-90.25"/>
<text text-anchor="middle" x="46.25" y="-76.75" font-family="Helvetica,sans-Serif" font-size="10.00">VlcbNetHwAddr</text>
</a>
</g>
</g>
<!-- Node2&#45;&gt;Node1 -->
<g id="edge1_Node000001_Node000002" class="edge">
<title>Node2&#45;&gt;Node1</title>
<g id="a_edge1_Node000001_Node000002"><a xlink:title=" ">
<path fill="none" stroke="#9a32cd" stroke-dasharray="5,2" d="M55.86,-59.22C62,-46.67 69.68,-30.95 74.53,-21.03"/>
<polygon fill="#9a32cd" stroke="#9a32cd" points="52.89,-57.32 51.64,-67.84 59.18,-60.4 52.89,-57.32"/>
</a>
</g>
<text text-anchor="middle" x="87.83" y="-42" font-family="Helvetica,sans-Serif" font-size="10.00" fill="grey"> src_addr</text>
</g>
<!-- Node3 -->
<g id="Node000003" class="node">
<title>Node3</title>
<g id="a_Node000003"><a xlink:href="unionVlcbNetAdptPktMeta.html" target="_top" xlink:title=" ">
<polygon fill="white" stroke="#666666" points="227.88,-90.25 110.62,-90.25 110.62,-69.5 227.88,-69.5 227.88,-90.25"/>
<text text-anchor="middle" x="169.25" y="-76.75" font-family="Helvetica,sans-Serif" font-size="10.00">VlcbNetAdptPktMeta</text>
</a>
</g>
</g>
<!-- Node3&#45;&gt;Node1 -->
<g id="edge2_Node000001_Node000003" class="edge">
<title>Node3&#45;&gt;Node1</title>
<g id="a_edge2_Node000001_Node000003"><a xlink:title=" ">
<path fill="none" stroke="#9a32cd" stroke-dasharray="5,2" d="M147.54,-62.59C130.34,-49.7 106.88,-32.1 92.41,-21.25"/>
<polygon fill="#9a32cd" stroke="#9a32cd" points="145.04,-65.1 155.14,-68.3 149.24,-59.5 145.04,-65.1"/>
</a>
</g>
<text text-anchor="middle" x="146.56" y="-42" font-family="Helvetica,sans-Serif" font-size="10.00" fill="grey"> meta</text>
</g>
<!-- Node4 -->
<g id="Node000004" class="node">
<title>Node4</title>
<g id="a_Node000004"><a xlink:href="structVlcbNetAdptCanPktMeta.html" target="_top" xlink:title=" ">
<polygon fill="white" stroke="#666666" points="237.25,-159.75 101.25,-159.75 101.25,-139 237.25,-139 237.25,-159.75"/>
<text text-anchor="middle" x="169.25" y="-146.25" font-family="Helvetica,sans-Serif" font-size="10.00">VlcbNetAdptCanPktMeta</text>
</a>
</g>
</g>
<!-- Node4&#45;&gt;Node3 -->
<g id="edge3_Node000003_Node000004" class="edge">
<title>Node4&#45;&gt;Node3</title>
<g id="a_edge3_Node000003_Node000004"><a xlink:title=" ">
<path fill="none" stroke="#9a32cd" stroke-dasharray="5,2" d="M169.25,-127.57C169.25,-115.22 169.25,-100.15 169.25,-90.53"/>
<polygon fill="#9a32cd" stroke="#9a32cd" points="165.75,-127.19 169.25,-137.19 172.75,-127.19 165.75,-127.19"/>
</a>
</g>
<text text-anchor="middle" x="179.38" y="-111.5" font-family="Helvetica,sans-Serif" font-size="10.00" fill="grey"> can</text>
</g>
</g>
</svg>
