<?xml version="1.0" encoding="UTF-8" standalone="no"?>
<!DOCTYPE svg PUBLIC "-//W3C//DTD SVG 1.1//EN"
 "http://www.w3.org/Graphics/SVG/1.1/DTD/svg11.dtd">
<!-- Generated by graphviz version 12.1.2 (20240928.0832)
 -->
<!-- Title: VlcbNetSocketPacketToken Pages: 1 -->
<svg width="224pt" height="168pt"
 viewBox="0.00 0.00 224.25 167.75" xmlns="http://www.w3.org/2000/svg" xmlns:xlink="http://www.w3.org/1999/xlink">
<g id="graph0" class="graph" transform="scale(1 1) rotate(0) translate(4 163.75)">
<title>VlcbNetSocketPacketToken</title>
<!-- Node1 -->
<g id="Node000001" class="node">
<title>Node1</title>
<g id="a_Node000001"><a xlink:title=" ">
<polygon fill="#999999" stroke="#666666" points="216.25,-20.75 70.5,-20.75 70.5,0 216.25,0 216.25,-20.75"/>
<text text-anchor="middle" x="143.38" y="-7.25" font-family="Helvetica,sans-Serif" font-size="10.00">VlcbNetSocketPacketToken</text>
</a>
</g>
</g>
<!-- Node2 -->
<g id="Node000002" class="node">
<title>Node2</title>
<g id="a_Node000002"><a xlink:href="structVlcbPacketBufToken.html" target="_top" xlink:title=" ">
<polygon fill="white" stroke="#666666" points="112.75,-90.25 0,-90.25 0,-69.5 112.75,-69.5 112.75,-90.25"/>
<text text-anchor="middle" x="56.38" y="-76.75" font-family="Helvetica,sans-Serif" font-size="10.00">VlcbPacketBufToken</text>
</a>
</g>
</g>
<!-- Node2&#45;&gt;Node1 -->
<g id="edge1_Node000001_Node000002" class="edge">
<title>Node2&#45;&gt;Node1</title>
<g id="a_edge1_Node000001_Node000002"><a xlink:title=" ">
<path fill="none" stroke="#9a32cd" stroke-dasharray="5,2" d="M77.82,-62.23C94.4,-49.37 116.8,-32 130.65,-21.25"/>
<polygon fill="#9a32cd" stroke="#9a32cd" points="75.79,-59.38 70.04,-68.28 80.08,-64.91 75.79,-59.38"/>
</a>
</g>
<text text-anchor="middle" x="113.67" y="-42" font-family="Helvetica,sans-Serif" font-size="10.00" fill="grey"> _t</text>
</g>
<!-- Node3 -->
<g id="Node000003" class="node">
<title>Node3</title>
<g id="a_Node000003"><a xlink:href="structVlcbPacketBuf.html" target="_top" xlink:title=" ">
<polygon fill="white" stroke="#666666" points="98.88,-159.75 13.88,-159.75 13.88,-139 98.88,-139 98.88,-159.75"/>
<text text-anchor="middle" x="56.38" y="-146.25" font-family="Helvetica,sans-Serif" font-size="10.00">VlcbPacketBuf</text>
</a>
</g>
</g>
<!-- Node3&#45;&gt;Node2 -->
<g id="edge2_Node000002_Node000003" class="edge">
<title>Node3&#45;&gt;Node2</title>
<g id="a_edge2_Node000002_Node000003"><a xlink:title=" ">
<path fill="none" stroke="#9a32cd" stroke-dasharray="5,2" d="M56.38,-127.57C56.38,-115.22 56.38,-100.15 56.38,-90.53"/>
<polygon fill="#9a32cd" stroke="#9a32cd" points="52.88,-127.19 56.38,-137.19 59.88,-127.19 52.88,-127.19"/>
</a>
</g>
<text text-anchor="middle" x="65.75" y="-111.5" font-family="Helvetica,sans-Serif" font-size="10.00" fill="grey"> buf</text>
</g>
<!-- Node4 -->
<g id="Node000004" class="node">
<title>Node4</title>
<g id="a_Node000004"><a xlink:href="structVlcbNetPacket.html" target="_top" xlink:title=" ">
<polygon fill="white" stroke="#666666" points="216.25,-90.25 130.5,-90.25 130.5,-69.5 216.25,-69.5 216.25,-90.25"/>
<text text-anchor="middle" x="173.38" y="-76.75" font-family="Helvetica,sans-Serif" font-size="10.00">VlcbNetPacket</text>
</a>
</g>
</g>
<!-- Node4&#45;&gt;Node1 -->
<g id="edge3_Node000001_Node000004" class="edge">
<title>Node4&#45;&gt;Node1</title>
<g id="a_edge3_Node000001_Node000004"><a xlink:title=" ">
<path fill="none" stroke="#9a32cd" stroke-dasharray="5,2" d="M164.47,-58.83C158.92,-46.35 152.03,-30.85 147.67,-21.03"/>
<polygon fill="#9a32cd" stroke="#9a32cd" points="161.2,-60.1 168.46,-67.82 167.6,-57.26 161.2,-60.1"/>
</a>
</g>
<text text-anchor="middle" x="178.69" y="-42" font-family="Helvetica,sans-Serif" font-size="10.00" fill="grey"> packet</text>
</g>
</g>
</svg>
