<?xml version="1.0" encoding="UTF-8" standalone="no"?>
<!DOCTYPE svg PUBLIC "-//W3C//DTD SVG 1.1//EN"
 "http://www.w3.org/Graphics/SVG/1.1/DTD/svg11.dtd">
<!-- Generated by graphviz version 12.1.2 (20240928.0832)
 -->
<!-- Title: VlcbNetAdptPkt Pages: 1 -->
<svg width="252pt" height="168pt"
 viewBox="0.00 0.00 251.62 167.75" xmlns="http://www.w3.org/2000/svg" xmlns:xlink="http://www.w3.org/1999/xlink">
<g id="graph0" class="graph" transform="scale(1 1) rotate(0) translate(4 163.75)">
<title>VlcbNetAdptPkt</title>
<!-- Node1 -->
<g id="Node000001" class="node">
<title>Node1</title>
<g id="a_Node000001"><a xlink:title=" ">
<polygon fill="#999999" stroke="#666666" points="126.88,-20.75 34.38,-20.75 34.38,0 126.88,0 126.88,-20.75"/>
<text text-anchor="middle" x="80.62" y="-7.25" font-family="Helvetica,sans-Serif" font-size="10.00">VlcbNetAdptPkt</text>
</a>
</g>
</g>
<!-- Node2 -->
<g id="Node000002" class="node">
<title>Node2</title>
<g id="a_Node000002"><a xlink:href="unionVlcbNetWireAddr.html" target="_top" xlink:title=" ">
<polygon fill="white" stroke="#666666" points="99.25,-90.25 0,-90.25 0,-69.5 99.25,-69.5 99.25,-90.25"/>
<text text-anchor="middle" x="49.62" y="-76.75" font-family="Helvetica,sans-Serif" font-size="10.00">VlcbNetWireAddr</text>
</a>
</g>
</g>
<!-- Node2&#45;&gt;Node1 -->
<g id="edge1_Node000001_Node000002" class="edge">
<title>Node2&#45;&gt;Node1</title>
<g id="a_edge1_Node000001_Node000002"><a xlink:title=" ">
<path fill="none" stroke="#9a32cd" stroke-dasharray="5,2" d="M58.83,-58.83C64.56,-46.35 71.68,-30.85 76.19,-21.03"/>
<polygon fill="#9a32cd" stroke="#9a32cd" points="55.69,-57.28 54.7,-67.83 62.05,-60.2 55.69,-57.28"/>
</a>
</g>
<text text-anchor="middle" x="87.78" y="-42" font-family="Helvetica,sans-Serif" font-size="10.00" fill="grey"> srcAddr</text>
</g>
<!-- Node3 -->
<g id="Node000003" class="node">
<title>Node3</title>
<g id="a_Node000003"><a xlink:href="unionVlcbNetAdptPktMeta.html" target="_top" xlink:title=" ">
<polygon fill="white" stroke="#666666" points="234.25,-90.25 117,-90.25 117,-69.5 234.25,-69.5 234.25,-90.25"/>
<text text-anchor="middle" x="175.62" y="-76.75" font-family="Helvetica,sans-Serif" font-size="10.00">VlcbNetAdptPktMeta</text>
</a>
</g>
</g>
<!-- Node3&#45;&gt;Node1 -->
<g id="edge2_Node000001_Node000003" class="edge">
<title>Node3&#45;&gt;Node1</title>
<g id="a_edge2_Node000001_Node000003"><a xlink:title=" ">
<path fill="none" stroke="#9a32cd" stroke-dasharray="5,2" d="M152.71,-62.59C134.56,-49.7 109.79,-32.1 94.52,-21.25"/>
<polygon fill="#9a32cd" stroke="#9a32cd" points="150.6,-65.39 160.78,-68.33 154.66,-59.68 150.6,-65.39"/>
</a>
</g>
<text text-anchor="middle" x="150.88" y="-42" font-family="Helvetica,sans-Serif" font-size="10.00" fill="grey"> meta</text>
</g>
<!-- Node4 -->
<g id="Node000004" class="node">
<title>Node4</title>
<g id="a_Node000004"><a xlink:href="structVlcbNetAdptCanPktMeta.html" target="_top" xlink:title=" ">
<polygon fill="white" stroke="#666666" points="243.62,-159.75 107.62,-159.75 107.62,-139 243.62,-139 243.62,-159.75"/>
<text text-anchor="middle" x="175.62" y="-146.25" font-family="Helvetica,sans-Serif" font-size="10.00">VlcbNetAdptCanPktMeta</text>
</a>
</g>
</g>
<!-- Node4&#45;&gt;Node3 -->
<g id="edge3_Node000003_Node000004" class="edge">
<title>Node4&#45;&gt;Node3</title>
<g id="a_edge3_Node000003_Node000004"><a xlink:title=" ">
<path fill="none" stroke="#9a32cd" stroke-dasharray="5,2" d="M175.62,-127.57C175.62,-115.22 175.62,-100.15 175.62,-90.53"/>
<polygon fill="#9a32cd" stroke="#9a32cd" points="172.13,-127.19 175.63,-137.19 179.13,-127.19 172.13,-127.19"/>
</a>
</g>
<text text-anchor="middle" x="185.75" y="-111.5" font-family="Helvetica,sans-Serif" font-size="10.00" fill="grey"> can</text>
</g>
</g>
</svg>
