<?xml version="1.0" encoding="UTF-8" standalone="no"?>
<!DOCTYPE svg PUBLIC "-//W3C//DTD SVG 1.1//EN"
 "http://www.w3.org/Graphics/SVG/1.1/DTD/svg11.dtd">
<!-- Generated by graphviz version 12.1.2 (20240928.0832)
 -->
<!-- Title: VlcbNetSocketDatagram Pages: 1 -->
<svg width="230pt" height="181pt"
 viewBox="0.00 0.00 230.25 180.50" xmlns="http://www.w3.org/2000/svg" xmlns:xlink="http://www.w3.org/1999/xlink">
<g id="graph0" class="graph" transform="scale(1 1) rotate(0) translate(4 176.5)">
<title>VlcbNetSocketDatagram</title>
<!-- Node1 -->
<g id="Node000001" class="node">
<title>Node1</title>
<g id="a_Node000001"><a xlink:title=" ">
<polygon fill="#999999" stroke="#666666" points="153.12,-20.75 17.88,-20.75 17.88,0 153.12,0 153.12,-20.75"/>
<text text-anchor="middle" x="85.5" y="-7.25" font-family="Helvetica,sans-Serif" font-size="10.00">VlcbNetSocketDatagram</text>
</a>
</g>
</g>
<!-- Node2 -->
<g id="Node000002" class="node">
<title>Node2</title>
<g id="a_Node000002"><a xlink:href="structVlcbPacketBuf.html" target="_top" xlink:title=" ">
<polygon fill="white" stroke="#666666" points="85,-103 0,-103 0,-82.25 85,-82.25 85,-103"/>
<text text-anchor="middle" x="42.5" y="-89.5" font-family="Helvetica,sans-Serif" font-size="10.00">VlcbPacketBuf</text>
</a>
</g>
</g>
<!-- Node2&#45;&gt;Node1 -->
<g id="edge1_Node000001_Node000002" class="edge">
<title>Node2&#45;&gt;Node1</title>
<g id="a_edge1_Node000001_Node000002"><a xlink:title=" ">
<path fill="none" stroke="#9a32cd" stroke-dasharray="5,2" d="M53.18,-71.69C61.89,-55.44 73.79,-33.23 80.45,-20.8"/>
<polygon fill="#9a32cd" stroke="#9a32cd" points="50.13,-69.98 48.49,-80.45 56.3,-73.29 50.13,-69.98"/>
</a>
</g>
<text text-anchor="middle" x="84.99" y="-54.75" font-family="Helvetica,sans-Serif" font-size="10.00" fill="grey"> rxBuf</text>
<text text-anchor="middle" x="84.99" y="-42" font-family="Helvetica,sans-Serif" font-size="10.00" fill="grey">txBuf</text>
</g>
<!-- Node3 -->
<g id="Node000003" class="node">
<title>Node3</title>
<g id="a_Node000003"><a xlink:href="structVlcbNetWireEndpoint.html" target="_top" xlink:title=" ">
<polygon fill="white" stroke="#666666" points="222.25,-103 102.75,-103 102.75,-82.25 222.25,-82.25 222.25,-103"/>
<text text-anchor="middle" x="162.5" y="-89.5" font-family="Helvetica,sans-Serif" font-size="10.00">VlcbNetWireEndpoint</text>
</a>
</g>
</g>
<!-- Node3&#45;&gt;Node1 -->
<g id="edge2_Node000001_Node000003" class="edge">
<title>Node3&#45;&gt;Node1</title>
<g id="a_edge2_Node000001_Node000003"><a xlink:title=" ">
<path fill="none" stroke="#9a32cd" stroke-dasharray="5,2" d="M145.14,-73.53C129.44,-57.17 106.93,-33.71 94.54,-20.8"/>
<polygon fill="#9a32cd" stroke="#9a32cd" points="142.56,-75.9 152.01,-80.69 147.61,-71.05 142.56,-75.9"/>
</a>
</g>
<text text-anchor="middle" x="158.27" y="-48.38" font-family="Helvetica,sans-Serif" font-size="10.00" fill="grey"> endpoint</text>
</g>
<!-- Node4 -->
<g id="Node000004" class="node">
<title>Node4</title>
<g id="a_Node000004"><a xlink:href="unionVlcbNetWireAddr.html" target="_top" xlink:title=" ">
<polygon fill="white" stroke="#666666" points="212.12,-172.5 112.88,-172.5 112.88,-151.75 212.12,-151.75 212.12,-172.5"/>
<text text-anchor="middle" x="162.5" y="-159" font-family="Helvetica,sans-Serif" font-size="10.00">VlcbNetWireAddr</text>
</a>
</g>
</g>
<!-- Node4&#45;&gt;Node3 -->
<g id="edge3_Node000003_Node000004" class="edge">
<title>Node4&#45;&gt;Node3</title>
<g id="a_edge3_Node000003_Node000004"><a xlink:title=" ">
<path fill="none" stroke="#9a32cd" stroke-dasharray="5,2" d="M162.5,-140.32C162.5,-127.97 162.5,-112.9 162.5,-103.28"/>
<polygon fill="#9a32cd" stroke="#9a32cd" points="159,-139.94 162.5,-149.94 166,-139.94 159,-139.94"/>
</a>
</g>
<text text-anchor="middle" x="174.88" y="-124.25" font-family="Helvetica,sans-Serif" font-size="10.00" fill="grey"> addr</text>
</g>
</g>
</svg>
