<?xml version="1.0" encoding="UTF-8" standalone="no"?>
<!DOCTYPE svg PUBLIC "-//W3C//DTD SVG 1.1//EN"
 "http://www.w3.org/Graphics/SVG/1.1/DTD/svg11.dtd">
<!-- Generated by graphviz version 12.1.2 (20240928.0832)
 -->
<!-- Title: CanSvcEvent Pages: 1 -->
<svg width="252pt" height="237pt"
 viewBox="0.00 0.00 251.62 237.25" xmlns="http://www.w3.org/2000/svg" xmlns:xlink="http://www.w3.org/1999/xlink">
<g id="graph0" class="graph" transform="scale(1 1) rotate(0) translate(4 233.25)">
<title>CanSvcEvent</title>
<!-- Node1 -->
<g id="Node000001" class="node">
<title>Node1</title>
<g id="a_Node000001"><a xlink:title=" ">
<polygon fill="#999999" stroke="#666666" points="120.5,-20.75 40.75,-20.75 40.75,0 120.5,0 120.5,-20.75"/>
<text text-anchor="middle" x="80.62" y="-7.25" font-family="Helvetica,sans-Serif" font-size="10.00">CanSvcEvent</text>
</a>
</g>
</g>
<!-- Node2 -->
<g id="Node000002" class="node">
<title>Node2</title>
<g id="a_Node000002"><a xlink:href="structVlcbNetAdptPkt.html" target="_top" xlink:title=" ">
<polygon fill="white" stroke="#666666" points="126.88,-90.25 34.38,-90.25 34.38,-69.5 126.88,-69.5 126.88,-90.25"/>
<text text-anchor="middle" x="80.62" y="-76.75" font-family="Helvetica,sans-Serif" font-size="10.00">VlcbNetAdptPkt</text>
</a>
</g>
</g>
<!-- Node2&#45;&gt;Node1 -->
<g id="edge1_Node000001_Node000002" class="edge">
<title>Node2&#45;&gt;Node1</title>
<g id="a_edge1_Node000001_Node000002"><a xlink:title=" ">
<path fill="none" stroke="#9a32cd" stroke-dasharray="5,2" d="M80.62,-58.07C80.62,-45.72 80.62,-30.65 80.62,-21.03"/>
<polygon fill="#9a32cd" stroke="#9a32cd" points="77.13,-57.69 80.63,-67.69 84.13,-57.69 77.13,-57.69"/>
</a>
</g>
<text text-anchor="middle" x="90" y="-42" font-family="Helvetica,sans-Serif" font-size="10.00" fill="grey"> pkt</text>
</g>
<!-- Node3 -->
<g id="Node000003" class="node">
<title>Node3</title>
<g id="a_Node000003"><a xlink:href="unionVlcbNetWireAddr.html" target="_top" xlink:title=" ">
<polygon fill="white" stroke="#666666" points="99.25,-159.75 0,-159.75 0,-139 99.25,-139 99.25,-159.75"/>
<text text-anchor="middle" x="49.62" y="-146.25" font-family="Helvetica,sans-Serif" font-size="10.00">VlcbNetWireAddr</text>
</a>
</g>
</g>
<!-- Node3&#45;&gt;Node2 -->
<g id="edge2_Node000002_Node000003" class="edge">
<title>Node3&#45;&gt;Node2</title>
<g id="a_edge2_Node000002_Node000003"><a xlink:title=" ">
<path fill="none" stroke="#9a32cd" stroke-dasharray="5,2" d="M58.83,-128.33C64.56,-115.85 71.68,-100.35 76.19,-90.53"/>
<polygon fill="#9a32cd" stroke="#9a32cd" points="55.69,-126.78 54.7,-137.33 62.05,-129.7 55.69,-126.78"/>
</a>
</g>
<text text-anchor="middle" x="87.78" y="-111.5" font-family="Helvetica,sans-Serif" font-size="10.00" fill="grey"> srcAddr</text>
</g>
<!-- Node4 -->
<g id="Node000004" class="node">
<title>Node4</title>
<g id="a_Node000004"><a xlink:href="unionVlcbNetAdptPktMeta.html" target="_top" xlink:title=" ">
<polygon fill="white" stroke="#666666" points="234.25,-159.75 117,-159.75 117,-139 234.25,-139 234.25,-159.75"/>
<text text-anchor="middle" x="175.62" y="-146.25" font-family="Helvetica,sans-Serif" font-size="10.00">VlcbNetAdptPktMeta</text>
</a>
</g>
</g>
<!-- Node4&#45;&gt;Node2 -->
<g id="edge3_Node000002_Node000004" class="edge">
<title>Node4&#45;&gt;Node2</title>
<g id="a_edge3_Node000002_Node000004"><a xlink:title=" ">
<path fill="none" stroke="#9a32cd" stroke-dasharray="5,2" d="M152.71,-132.09C134.56,-119.2 109.79,-101.6 94.52,-90.75"/>
<polygon fill="#9a32cd" stroke="#9a32cd" points="150.6,-134.89 160.78,-137.83 154.66,-129.18 150.6,-134.89"/>
</a>
</g>
<text text-anchor="middle" x="150.88" y="-111.5" font-family="Helvetica,sans-Serif" font-size="10.00" fill="grey"> meta</text>
</g>
<!-- Node5 -->
<g id="Node000005" class="node">
<title>Node5</title>
<g id="a_Node000005"><a xlink:href="structVlcbNetAdptCanPktMeta.html" target="_top" xlink:title=" ">
<polygon fill="white" stroke="#666666" points="243.62,-229.25 107.62,-229.25 107.62,-208.5 243.62,-208.5 243.62,-229.25"/>
<text text-anchor="middle" x="175.62" y="-215.75" font-family="Helvetica,sans-Serif" font-size="10.00">VlcbNetAdptCanPktMeta</text>
</a>
</g>
</g>
<!-- Node5&#45;&gt;Node4 -->
<g id="edge4_Node000004_Node000005" class="edge">
<title>Node5&#45;&gt;Node4</title>
<g id="a_edge4_Node000004_Node000005"><a xlink:title=" ">
<path fill="none" stroke="#9a32cd" stroke-dasharray="5,2" d="M175.62,-197.07C175.62,-184.72 175.62,-169.65 175.62,-160.03"/>
<polygon fill="#9a32cd" stroke="#9a32cd" points="172.13,-196.69 175.63,-206.69 179.13,-196.69 172.13,-196.69"/>
</a>
</g>
<text text-anchor="middle" x="185.75" y="-181" font-family="Helvetica,sans-Serif" font-size="10.00" fill="grey"> can</text>
</g>
</g>
</svg>
