<?xml version="1.0" encoding="UTF-8" standalone="no"?>
<!DOCTYPE svg PUBLIC "-//W3C//DTD SVG 1.1//EN"
 "http://www.w3.org/Graphics/SVG/1.1/DTD/svg11.dtd">
<!-- Generated by graphviz version 12.1.2 (20240928.0832)
 -->
<!-- Title: VlcbPlatformLedDriver Pages: 1 -->
<svg width="320pt" height="250pt"
 viewBox="0.00 0.00 320.25 250.00" xmlns="http://www.w3.org/2000/svg" xmlns:xlink="http://www.w3.org/1999/xlink">
<g id="graph0" class="graph" transform="scale(1 1) rotate(0) translate(4 246)">
<title>VlcbPlatformLedDriver</title>
<!-- Node1 -->
<g id="Node000001" class="node">
<title>Node1</title>
<g id="a_Node000001"><a xlink:title=" ">
<polygon fill="#999999" stroke="#666666" points="218.75,-20.75 92.5,-20.75 92.5,0 218.75,0 218.75,-20.75"/>
<text text-anchor="middle" x="155.62" y="-7.25" font-family="Helvetica,sans-Serif" font-size="10.00">VlcbPlatformLedDriver</text>
</a>
</g>
</g>
<!-- Node2 -->
<g id="Node000002" class="node">
<title>Node2</title>
<g id="a_Node000002"><a xlink:href="structVlcbPlatformLedEffect.html" target="_top" xlink:title=" ">
<polygon fill="white" stroke="#666666" points="217.62,-90.25 93.62,-90.25 93.62,-69.5 217.62,-69.5 217.62,-90.25"/>
<text text-anchor="middle" x="155.62" y="-76.75" font-family="Helvetica,sans-Serif" font-size="10.00">VlcbPlatformLedEffect</text>
</a>
</g>
</g>
<!-- Node2&#45;&gt;Node1 -->
<g id="edge1_Node000001_Node000002" class="edge">
<title>Node2&#45;&gt;Node1</title>
<g id="a_edge1_Node000001_Node000002"><a xlink:title=" ">
<path fill="none" stroke="#9a32cd" stroke-dasharray="5,2" d="M155.62,-58.07C155.62,-45.72 155.62,-30.65 155.62,-21.03"/>
<polygon fill="#9a32cd" stroke="#9a32cd" points="152.13,-57.69 155.63,-67.69 159.13,-57.69 152.13,-57.69"/>
</a>
</g>
<text text-anchor="middle" x="171" y="-42" font-family="Helvetica,sans-Serif" font-size="10.00" fill="grey"> effect</text>
</g>
<!-- Node3 -->
<g id="Node000003" class="node">
<title>Node3</title>
<g id="a_Node000003"><a xlink:href="unionVlcbPlatformLedEffectData.html" target="_top" xlink:title=" ">
<polygon fill="white" stroke="#666666" points="229.25,-159.75 82,-159.75 82,-139 229.25,-139 229.25,-159.75"/>
<text text-anchor="middle" x="155.62" y="-146.25" font-family="Helvetica,sans-Serif" font-size="10.00">VlcbPlatformLedEffectData</text>
</a>
</g>
</g>
<!-- Node3&#45;&gt;Node2 -->
<g id="edge2_Node000002_Node000003" class="edge">
<title>Node3&#45;&gt;Node2</title>
<g id="a_edge2_Node000002_Node000003"><a xlink:title=" ">
<path fill="none" stroke="#9a32cd" stroke-dasharray="5,2" d="M155.62,-127.57C155.62,-115.22 155.62,-100.15 155.62,-90.53"/>
<polygon fill="#9a32cd" stroke="#9a32cd" points="152.13,-127.19 155.63,-137.19 159.13,-127.19 152.13,-127.19"/>
</a>
</g>
<text text-anchor="middle" x="168" y="-111.5" font-family="Helvetica,sans-Serif" font-size="10.00" fill="grey"> data</text>
</g>
<!-- Node4 -->
<g id="Node000004" class="node">
<title>Node4</title>
<g id="a_Node000004"><a xlink:href="structVlcbPlatformLedEffectDataPulse.html" target="_top" xlink:title=" ">
<polygon fill="white" stroke="#666666" points="147.25,-242 0,-242 0,-208.5 147.25,-208.5 147.25,-242"/>
<text text-anchor="start" x="8" y="-228.5" font-family="Helvetica,sans-Serif" font-size="10.00">VlcbPlatformLedEffectData</text>
<text text-anchor="middle" x="73.62" y="-215.75" font-family="Helvetica,sans-Serif" font-size="10.00">Pulse</text>
</a>
</g>
</g>
<!-- Node4&#45;&gt;Node3 -->
<g id="edge3_Node000003_Node000004" class="edge">
<title>Node4&#45;&gt;Node3</title>
<g id="a_edge3_Node000003_Node000004"><a xlink:title=" ">
<path fill="none" stroke="#9a32cd" stroke-dasharray="5,2" d="M99.57,-200.87C114.99,-186.98 133.7,-170.13 145.13,-159.83"/>
<polygon fill="#9a32cd" stroke="#9a32cd" points="97.63,-197.91 92.54,-207.21 102.31,-203.11 97.63,-197.91"/>
</a>
</g>
<text text-anchor="middle" x="139.01" y="-181" font-family="Helvetica,sans-Serif" font-size="10.00" fill="grey"> pulse</text>
</g>
<!-- Node5 -->
<g id="Node000005" class="node">
<title>Node5</title>
<g id="a_Node000005"><a xlink:href="structVlcbPlatformLedEffectDataBlink.html" target="_top" xlink:title=" ">
<polygon fill="white" stroke="#666666" points="312.25,-242 165,-242 165,-208.5 312.25,-208.5 312.25,-242"/>
<text text-anchor="start" x="173" y="-228.5" font-family="Helvetica,sans-Serif" font-size="10.00">VlcbPlatformLedEffectData</text>
<text text-anchor="middle" x="238.62" y="-215.75" font-family="Helvetica,sans-Serif" font-size="10.00">Blink</text>
</a>
</g>
</g>
<!-- Node5&#45;&gt;Node3 -->
<g id="edge4_Node000003_Node000005" class="edge">
<title>Node5&#45;&gt;Node3</title>
<g id="a_edge4_Node000003_Node000005"><a xlink:title=" ">
<path fill="none" stroke="#9a32cd" stroke-dasharray="5,2" d="M212.36,-200.87C196.76,-186.98 177.82,-170.13 166.25,-159.83"/>
<polygon fill="#9a32cd" stroke="#9a32cd" points="209.69,-203.18 219.48,-207.21 214.34,-197.95 209.69,-203.18"/>
</a>
</g>
<text text-anchor="middle" x="213.11" y="-181" font-family="Helvetica,sans-Serif" font-size="10.00" fill="grey"> blink</text>
</g>
</g>
</svg>
