<?xml version="1.0" encoding="UTF-8" standalone="no"?>
<!DOCTYPE svg PUBLIC "-//W3C//DTD SVG 1.1//EN"
 "http://www.w3.org/Graphics/SVG/1.1/DTD/svg11.dtd">
<!-- Generated by graphviz version 12.1.2 (20240928.0832)
 -->
<!-- Title: VlcbModule Pages: 1 -->
<svg width="866pt" height="221pt"
 viewBox="0.00 0.00 865.75 220.75" xmlns="http://www.w3.org/2000/svg" xmlns:xlink="http://www.w3.org/1999/xlink">
<g id="graph0" class="graph" transform="scale(1 1) rotate(0) translate(4 216.75)">
<title>VlcbModule</title>
<!-- Node1 -->
<g id="Node000001" class="node">
<title>Node1</title>
<g id="a_Node000001"><a xlink:title=" ">
<polygon fill="#999999" stroke="#666666" points="857.75,-105.75 784.75,-105.75 784.75,-85 857.75,-85 857.75,-105.75"/>
<text text-anchor="middle" x="821.25" y="-92.25" font-family="Helvetica,sans-Serif" font-size="10.00">VlcbModule</text>
</a>
</g>
</g>
<!-- Node2 -->
<g id="Node000002" class="node">
<title>Node2</title>
<g id="a_Node000002"><a xlink:href="structVlcbNetIface.html" target="_top" xlink:title=" ">
<polygon fill="white" stroke="#666666" points="678.25,-199.75 600,-199.75 600,-179 678.25,-179 678.25,-199.75"/>
<text text-anchor="middle" x="639.12" y="-186.25" font-family="Helvetica,sans-Serif" font-size="10.00">VlcbNetIface</text>
</a>
</g>
</g>
<!-- Node2&#45;&gt;Node1 -->
<g id="edge1_Node000001_Node000002" class="edge">
<title>Node2&#45;&gt;Node1</title>
<g id="a_edge1_Node000001_Node000002"><a xlink:title=" ">
<path fill="none" stroke="#9a32cd" stroke-dasharray="5,2" d="M680.66,-174.42C706.07,-164.4 739.12,-150.19 766.75,-134.38 781.31,-126.04 796.67,-114.53 807.17,-106.17"/>
<polygon fill="#9a32cd" stroke="#9a32cd" points="679.4,-171.15 671.34,-178.03 681.93,-177.68 679.4,-171.15"/>
</a>
</g>
<text text-anchor="middle" x="746.88" y="-156.68" font-family="Helvetica,sans-Serif" font-size="10.00" fill="grey"> iface</text>
</g>
<!-- Node3 -->
<g id="Node000003" class="node">
<title>Node3</title>
<g id="a_Node000003"><a xlink:href="structVlcbNetSocketList.html" target="_top" xlink:title=" ">
<polygon fill="white" stroke="#666666" points="399.88,-212.75 296.12,-212.75 296.12,-192 399.88,-192 399.88,-212.75"/>
<text text-anchor="middle" x="348" y="-199.25" font-family="Helvetica,sans-Serif" font-size="10.00">VlcbNetSocketList</text>
</a>
</g>
</g>
<!-- Node3&#45;&gt;Node2 -->
<g id="edge2_Node000002_Node000003" class="edge">
<title>Node3&#45;&gt;Node2</title>
<g id="a_edge2_Node000002_Node000003"><a xlink:title=" ">
<path fill="none" stroke="#9a32cd" stroke-dasharray="5,2" d="M411.8,-199.55C469.04,-196.98 551.74,-193.26 599.71,-191.1"/>
<polygon fill="#9a32cd" stroke="#9a32cd" points="411.7,-196.05 401.87,-200 412.02,-203.05 411.7,-196.05"/>
</a>
</g>
<text text-anchor="middle" x="499.38" y="-201.05" font-family="Helvetica,sans-Serif" font-size="10.00" fill="grey"> sockets</text>
</g>
<!-- Node4 -->
<g id="Node000004" class="node">
<title>Node4</title>
<g id="a_Node000004"><a xlink:href="structVlcbNetSocketDatagram.html" target="_top" xlink:title=" ">
<polygon fill="white" stroke="#666666" points="706.75,-146.75 571.5,-146.75 571.5,-126 706.75,-126 706.75,-146.75"/>
<text text-anchor="middle" x="639.12" y="-133.25" font-family="Helvetica,sans-Serif" font-size="10.00">VlcbNetSocketDatagram</text>
</a>
</g>
</g>
<!-- Node4&#45;&gt;Node1 -->
<g id="edge3_Node000001_Node000004" class="edge">
<title>Node4&#45;&gt;Node1</title>
<g id="a_edge3_Node000001_Node000004"><a xlink:title=" ">
<path fill="none" stroke="#9a32cd" stroke-dasharray="5,2" d="M704.69,-123.2C724.63,-118.98 746.64,-114.15 766.75,-109.38 772.45,-108.02 778.47,-106.52 784.33,-105.02"/>
<polygon fill="#9a32cd" stroke="#9a32cd" points="704.09,-119.76 695.02,-125.24 705.53,-126.61 704.09,-119.76"/>
</a>
</g>
<text text-anchor="middle" x="746.88" y="-121.31" font-family="Helvetica,sans-Serif" font-size="10.00" fill="grey"> socket</text>
</g>
<!-- Node5 -->
<g id="Node000005" class="node">
<title>Node5</title>
<g id="a_Node000005"><a xlink:href="structVlcbPacketBuf.html" target="_top" xlink:title=" ">
<polygon fill="white" stroke="#666666" points="390.5,-164.75 305.5,-164.75 305.5,-144 390.5,-144 390.5,-164.75"/>
<text text-anchor="middle" x="348" y="-151.25" font-family="Helvetica,sans-Serif" font-size="10.00">VlcbPacketBuf</text>
</a>
</g>
</g>
<!-- Node5&#45;&gt;Node4 -->
<g id="edge4_Node000004_Node000005" class="edge">
<title>Node5&#45;&gt;Node4</title>
<g id="a_edge4_Node000004_Node000005"><a xlink:title=" ">
<path fill="none" stroke="#9a32cd" stroke-dasharray="5,2" d="M402.03,-151.07C449.65,-148.11 519.79,-143.74 571.24,-140.54"/>
<polygon fill="#9a32cd" stroke="#9a32cd" points="402.01,-147.57 392.24,-151.68 402.44,-154.55 402.01,-147.57"/>
</a>
</g>
<text text-anchor="middle" x="499.38" y="-164.04" font-family="Helvetica,sans-Serif" font-size="10.00" fill="grey"> rxBuf</text>
<text text-anchor="middle" x="499.38" y="-151.29" font-family="Helvetica,sans-Serif" font-size="10.00" fill="grey">txBuf</text>
</g>
<!-- Node6 -->
<g id="Node000006" class="node">
<title>Node6</title>
<g id="a_Node000006"><a xlink:href="structVlcbNetWireEndpoint.html" target="_top" xlink:title=" ">
<polygon fill="white" stroke="#666666" points="407.75,-125.75 288.25,-125.75 288.25,-105 407.75,-105 407.75,-125.75"/>
<text text-anchor="middle" x="348" y="-112.25" font-family="Helvetica,sans-Serif" font-size="10.00">VlcbNetWireEndpoint</text>
</a>
</g>
</g>
<!-- Node6&#45;&gt;Node4 -->
<g id="edge5_Node000004_Node000006" class="edge">
<title>Node6&#45;&gt;Node4</title>
<g id="a_edge5_Node000004_Node000006"><a xlink:title=" ">
<path fill="none" stroke="#9a32cd" stroke-dasharray="5,2" d="M419.4,-117.69C458.32,-119.28 507.51,-121.82 551.25,-125.62 557.76,-126.19 564.53,-126.87 571.3,-127.61"/>
<polygon fill="#9a32cd" stroke="#9a32cd" points="419.57,-114.19 409.44,-117.29 419.3,-121.19 419.57,-114.19"/>
</a>
</g>
<text text-anchor="middle" x="499.38" y="-128.88" font-family="Helvetica,sans-Serif" font-size="10.00" fill="grey"> endpoint</text>
</g>
<!-- Node7 -->
<g id="Node000007" class="node">
<title>Node7</title>
<g id="a_Node000007"><a xlink:href="unionVlcbNetWireAddr.html" target="_top" xlink:title=" ">
<polygon fill="white" stroke="#666666" points="145,-105.75 45.75,-105.75 45.75,-85 145,-85 145,-105.75"/>
<text text-anchor="middle" x="95.38" y="-92.25" font-family="Helvetica,sans-Serif" font-size="10.00">VlcbNetWireAddr</text>
</a>
</g>
</g>
<!-- Node7&#45;&gt;Node6 -->
<g id="edge6_Node000006_Node000007" class="edge">
<title>Node7&#45;&gt;Node6</title>
<g id="a_edge6_Node000006_Node000007"><a xlink:title=" ">
<path fill="none" stroke="#9a32cd" stroke-dasharray="5,2" d="M156.71,-100.19C196.56,-103.37 248.51,-107.52 288.06,-110.67"/>
<polygon fill="#9a32cd" stroke="#9a32cd" points="157.05,-96.71 146.8,-99.4 156.49,-103.68 157.05,-96.71"/>
</a>
</g>
<text text-anchor="middle" x="228.62" y="-110.42" font-family="Helvetica,sans-Serif" font-size="10.00" fill="grey"> addr</text>
</g>
<!-- Node8 -->
<g id="Node000008" class="node">
<title>Node8</title>
<g id="a_Node000008"><a xlink:href="structVlcbModuleConfig.html" target="_top" xlink:title=" ">
<polygon fill="white" stroke="#666666" points="551.25,-90.75 447.5,-90.75 447.5,-70 551.25,-70 551.25,-90.75"/>
<text text-anchor="middle" x="499.38" y="-77.25" font-family="Helvetica,sans-Serif" font-size="10.00">VlcbModuleConfig</text>
</a>
</g>
</g>
<!-- Node7&#45;&gt;Node8 -->
<g id="edge8_Node000008_Node000007" class="edge">
<title>Node7&#45;&gt;Node8</title>
<g id="a_edge8_Node000008_Node000007"><a xlink:title=" ">
<path fill="none" stroke="#9a32cd" stroke-dasharray="5,2" d="M156.69,-90.73C173.53,-89.56 191.85,-88.42 208.75,-87.62 292.15,-83.71 389.17,-81.82 447.08,-80.98"/>
<polygon fill="#9a32cd" stroke="#9a32cd" points="156.54,-87.23 146.81,-91.43 157.03,-94.21 156.54,-87.23"/>
</a>
</g>
<text text-anchor="middle" x="228.62" y="-90.88" font-family="Helvetica,sans-Serif" font-size="10.00" fill="grey"> hwAddr</text>
</g>
<!-- Node8&#45;&gt;Node1 -->
<g id="edge7_Node000001_Node000008" class="edge">
<title>Node8&#45;&gt;Node1</title>
<g id="a_edge7_Node000001_Node000008"><a xlink:title=" ">
<path fill="none" stroke="#9a32cd" stroke-dasharray="5,2" d="M562.9,-83.31C628.89,-86.4 730.63,-91.17 784.28,-93.69"/>
<polygon fill="#9a32cd" stroke="#9a32cd" points="563.08,-79.81 552.93,-82.84 562.75,-86.8 563.08,-79.81"/>
</a>
</g>
<text text-anchor="middle" x="639.12" y="-93.34" font-family="Helvetica,sans-Serif" font-size="10.00" fill="grey"> config</text>
</g>
<!-- Node9 -->
<g id="Node000009" class="node">
<title>Node9</title>
<g id="a_Node000009"><a xlink:href="structVlcbModuleParams.html" target="_top" xlink:title=" ">
<polygon fill="white" stroke="#666666" points="693.62,-59.75 584.62,-59.75 584.62,-39 693.62,-39 693.62,-59.75"/>
<text text-anchor="middle" x="639.12" y="-46.25" font-family="Helvetica,sans-Serif" font-size="10.00">VlcbModuleParams</text>
</a>
</g>
</g>
<!-- Node9&#45;&gt;Node1 -->
<g id="edge9_Node000001_Node000009" class="edge">
<title>Node9&#45;&gt;Node1</title>
<g id="a_edge9_Node000001_Node000009"><a xlink:title=" ">
<path fill="none" stroke="#9a32cd" stroke-dasharray="5,2" d="M705.19,-55.3C725.23,-58.18 747.17,-62.41 766.75,-68.62 779.22,-72.58 792.38,-79.12 802.52,-84.75"/>
<polygon fill="#9a32cd" stroke="#9a32cd" points="705.83,-51.86 695.46,-54 704.9,-58.79 705.83,-51.86"/>
</a>
</g>
<text text-anchor="middle" x="746.88" y="-71.88" font-family="Helvetica,sans-Serif" font-size="10.00" fill="grey"> params</text>
</g>
<!-- Node10 -->
<g id="Node000010" class="node">
<title>Node10</title>
<g id="a_Node000010"><a xlink:href="structVlcbModuleStateMachine.html" target="_top" xlink:title=" ">
<polygon fill="white" stroke="#666666" points="709,-20.75 569.25,-20.75 569.25,0 709,0 709,-20.75"/>
<text text-anchor="middle" x="639.12" y="-7.25" font-family="Helvetica,sans-Serif" font-size="10.00">VlcbModuleStateMachine</text>
</a>
</g>
</g>
<!-- Node10&#45;&gt;Node1 -->
<g id="edge10_Node000001_Node000010" class="edge">
<title>Node10&#45;&gt;Node1</title>
<g id="a_edge10_Node000001_Node000010"><a xlink:title=" ">
<path fill="none" stroke="#9a32cd" stroke-dasharray="5,2" d="M720.35,-23.98C736.33,-28.55 752.54,-34.61 766.75,-42.62 785.83,-53.4 802.91,-72.75 812.4,-84.78"/>
<polygon fill="#9a32cd" stroke="#9a32cd" points="721.39,-20.64 710.82,-21.44 719.58,-27.4 721.39,-20.64"/>
</a>
</g>
<text text-anchor="middle" x="746.88" y="-45.88" font-family="Helvetica,sans-Serif" font-size="10.00" fill="grey"> sm</text>
</g>
<!-- Node11 -->
<g id="Node000011" class="node">
<title>Node11</title>
<g id="a_Node000011"><a xlink:href="unionVlcbModuleStateMachineData.html" target="_top" xlink:title=" ">
<polygon fill="white" stroke="#666666" points="429.5,-20.75 266.5,-20.75 266.5,0 429.5,0 429.5,-20.75"/>
<text text-anchor="middle" x="348" y="-7.25" font-family="Helvetica,sans-Serif" font-size="10.00">VlcbModuleStateMachineData</text>
</a>
</g>
</g>
<!-- Node11&#45;&gt;Node10 -->
<g id="edge11_Node000010_Node000011" class="edge">
<title>Node11&#45;&gt;Node10</title>
<g id="a_edge11_Node000010_Node000011"><a xlink:title=" ">
<path fill="none" stroke="#9a32cd" stroke-dasharray="5,2" d="M441.41,-10.38C482.8,-10.38 530.78,-10.38 568.99,-10.38"/>
<polygon fill="#9a32cd" stroke="#9a32cd" points="441.44,-6.88 431.44,-10.38 441.44,-13.88 441.44,-6.88"/>
</a>
</g>
<text text-anchor="middle" x="499.38" y="-13.62" font-family="Helvetica,sans-Serif" font-size="10.00" fill="grey"> data</text>
</g>
<!-- Node12 -->
<g id="Node000012" class="node">
<title>Node12</title>
<g id="a_Node000012"><a xlink:href="structVlcbModuleStateMachineSetupData.html" target="_top" xlink:title=" ">
<polygon fill="white" stroke="#666666" points="190.75,-20.75 0,-20.75 0,0 190.75,0 190.75,-20.75"/>
<text text-anchor="middle" x="95.38" y="-7.25" font-family="Helvetica,sans-Serif" font-size="10.00">VlcbModuleStateMachineSetupData</text>
</a>
</g>
</g>
<!-- Node12&#45;&gt;Node11 -->
<g id="edge12_Node000011_Node000012" class="edge">
<title>Node12&#45;&gt;Node11</title>
<g id="a_edge12_Node000011_Node000012"><a xlink:title=" ">
<path fill="none" stroke="#9a32cd" stroke-dasharray="5,2" d="M202.5,-10.38C223.77,-10.38 245.8,-10.38 266.05,-10.38"/>
<polygon fill="#9a32cd" stroke="#9a32cd" points="202.64,-6.88 192.64,-10.38 202.64,-13.88 202.64,-6.88"/>
</a>
</g>
<text text-anchor="middle" x="228.62" y="-13.62" font-family="Helvetica,sans-Serif" font-size="10.00" fill="grey"> setup</text>
</g>
</g>
</svg>
