<?xml version="1.0" encoding="UTF-8" standalone="no"?>
<!DOCTYPE svg PUBLIC "-//W3C//DTD SVG 1.1//EN"
 "http://www.w3.org/Graphics/SVG/1.1/DTD/svg11.dtd">
<!-- Generated by graphviz version 12.1.2 (20240928.0832)
 -->
<!-- Title: VlcbModule Pages: 1 -->
<svg width="792pt" height="195pt"
 viewBox="0.00 0.00 792.00 195.36" xmlns="http://www.w3.org/2000/svg" xmlns:xlink="http://www.w3.org/1999/xlink">
<g id="graph0" class="graph" transform="scale(1 1) rotate(0) translate(4 191.36)">
<title>VlcbModule</title>
<!-- Node1 -->
<g id="Node000001" class="node">
<title>Node1</title>
<g id="a_Node000001"><a xlink:title=" ">
<polygon fill="#999999" stroke="#666666" points="784,-98.75 711,-98.75 711,-78 784,-78 784,-98.75"/>
<text text-anchor="middle" x="747.5" y="-85.25" font-family="Helvetica,sans-Serif" font-size="10.00">VlcbModule</text>
</a>
</g>
</g>
<!-- Node2 -->
<g id="Node000002" class="node">
<title>Node2</title>
<g id="a_Node000002"><a xlink:href="structVlcbNetIface.html" target="_top" xlink:title=" ">
<polygon fill="white" stroke="#666666" points="604.5,-182.75 526.25,-182.75 526.25,-162 604.5,-162 604.5,-182.75"/>
<text text-anchor="middle" x="565.38" y="-169.25" font-family="Helvetica,sans-Serif" font-size="10.00">VlcbNetIface</text>
</a>
</g>
</g>
<!-- Node2&#45;&gt;Node1 -->
<g id="edge1_Node000001_Node000002" class="edge">
<title>Node2&#45;&gt;Node1</title>
<g id="a_edge1_Node000001_Node000002"><a xlink:title=" ">
<path fill="none" stroke="#9a32cd" stroke-dasharray="5,2" d="M615.78,-159.08C639.82,-151.66 668.69,-141.29 693,-128.38 708.36,-120.22 724.09,-107.88 734.48,-99.07"/>
<polygon fill="#9a32cd" stroke="#9a32cd" points="614.79,-155.73 606.22,-161.95 616.8,-162.43 614.79,-155.73"/>
</a>
</g>
<text text-anchor="middle" x="673.12" y="-148.3" font-family="Helvetica,sans-Serif" font-size="10.00" fill="grey"> iface</text>
</g>
<!-- Node3 -->
<g id="Node000003" class="node">
<title>Node3</title>
<g id="a_Node000003"><a xlink:href="structVlcbNetSocketList.html" target="_top" xlink:title=" ">
<polygon fill="white" stroke="#666666" points="390.12,-186.75 286.38,-186.75 286.38,-166 390.12,-166 390.12,-186.75"/>
<text text-anchor="middle" x="338.25" y="-173.25" font-family="Helvetica,sans-Serif" font-size="10.00">VlcbNetSocketList</text>
</a>
</g>
</g>
<!-- Node3&#45;&gt;Node2 -->
<g id="edge2_Node000002_Node000003" class="edge">
<title>Node3&#45;&gt;Node2</title>
<g id="a_edge2_Node000002_Node000003"><a xlink:title=" ">
<path fill="none" stroke="#9a32cd" stroke-dasharray="5,2" d="M402.06,-175.26C441.8,-174.55 491.91,-173.66 525.86,-173.06"/>
<polygon fill="#9a32cd" stroke="#9a32cd" points="402.07,-171.76 392.13,-175.44 402.19,-178.76 402.07,-171.76"/>
</a>
</g>
<text text-anchor="middle" x="457.62" y="-177.86" font-family="Helvetica,sans-Serif" font-size="10.00" fill="grey"> sockets</text>
</g>
<!-- Node4 -->
<g id="Node000004" class="node">
<title>Node4</title>
<g id="a_Node000004"><a xlink:href="structVlcbNetSocketDatagram.html" target="_top" xlink:title=" ">
<polygon fill="white" stroke="#666666" points="633,-137.75 497.75,-137.75 497.75,-117 633,-117 633,-137.75"/>
<text text-anchor="middle" x="565.38" y="-124.25" font-family="Helvetica,sans-Serif" font-size="10.00">VlcbNetSocketDatagram</text>
</a>
</g>
</g>
<!-- Node4&#45;&gt;Node1 -->
<g id="edge3_Node000001_Node000004" class="edge">
<title>Node4&#45;&gt;Node1</title>
<g id="a_edge3_Node000001_Node000004"><a xlink:title=" ">
<path fill="none" stroke="#9a32cd" stroke-dasharray="5,2" d="M640.57,-114.42C657.84,-111.1 676.11,-107.33 693,-103.38 698.73,-102.03 704.77,-100.48 710.64,-98.89"/>
<polygon fill="#9a32cd" stroke="#9a32cd" points="640.06,-110.95 630.88,-116.25 641.36,-117.83 640.06,-110.95"/>
</a>
</g>
<text text-anchor="middle" x="673.12" y="-114.85" font-family="Helvetica,sans-Serif" font-size="10.00" fill="grey"> socket</text>
</g>
<!-- Node5 -->
<g id="Node000005" class="node">
<title>Node5</title>
<g id="a_Node000005"><a xlink:href="structVlcbPacketBuf.html" target="_top" xlink:title=" ">
<polygon fill="white" stroke="#666666" points="380.75,-137.75 295.75,-137.75 295.75,-117 380.75,-117 380.75,-137.75"/>
<text text-anchor="middle" x="338.25" y="-124.25" font-family="Helvetica,sans-Serif" font-size="10.00">VlcbPacketBuf</text>
</a>
</g>
</g>
<!-- Node5&#45;&gt;Node4 -->
<g id="edge4_Node000004_Node000005" class="edge">
<title>Node5&#45;&gt;Node4</title>
<g id="a_edge4_Node000004_Node000005"><a xlink:title=" ">
<path fill="none" stroke="#9a32cd" stroke-dasharray="5,2" d="M392.24,-127.38C423.72,-127.38 463.94,-127.38 497.58,-127.38"/>
<polygon fill="#9a32cd" stroke="#9a32cd" points="392.58,-123.88 382.58,-127.38 392.58,-130.88 392.58,-123.88"/>
</a>
</g>
<text text-anchor="middle" x="457.62" y="-143.38" font-family="Helvetica,sans-Serif" font-size="10.00" fill="grey"> rxBuf</text>
<text text-anchor="middle" x="457.62" y="-130.62" font-family="Helvetica,sans-Serif" font-size="10.00" fill="grey">txBuf</text>
</g>
<!-- Node6 -->
<g id="Node000006" class="node">
<title>Node6</title>
<g id="a_Node000006"><a xlink:href="structVlcbModuleConfig.html" target="_top" xlink:title=" ">
<polygon fill="white" stroke="#666666" points="617.25,-98.75 513.5,-98.75 513.5,-78 617.25,-78 617.25,-98.75"/>
<text text-anchor="middle" x="565.38" y="-85.25" font-family="Helvetica,sans-Serif" font-size="10.00">VlcbModuleConfig</text>
</a>
</g>
</g>
<!-- Node6&#45;&gt;Node1 -->
<g id="edge5_Node000001_Node000006" class="edge">
<title>Node6&#45;&gt;Node1</title>
<g id="a_edge5_Node000001_Node000006"><a xlink:title=" ">
<path fill="none" stroke="#9a32cd" stroke-dasharray="5,2" d="M628.96,-88.38C656.29,-88.38 687.35,-88.38 710.68,-88.38"/>
<polygon fill="#9a32cd" stroke="#9a32cd" points="629.02,-84.88 619.02,-88.38 629.02,-91.88 629.02,-84.88"/>
</a>
</g>
<text text-anchor="middle" x="673.12" y="-91.62" font-family="Helvetica,sans-Serif" font-size="10.00" fill="grey"> config</text>
</g>
<!-- Node7 -->
<g id="Node000007" class="node">
<title>Node7</title>
<g id="a_Node000007"><a xlink:href="unionVlcbNetHwAddr.html" target="_top" xlink:title=" ">
<polygon fill="white" stroke="#666666" points="384.5,-98.75 292,-98.75 292,-78 384.5,-78 384.5,-98.75"/>
<text text-anchor="middle" x="338.25" y="-85.25" font-family="Helvetica,sans-Serif" font-size="10.00">VlcbNetHwAddr</text>
</a>
</g>
</g>
<!-- Node7&#45;&gt;Node6 -->
<g id="edge6_Node000006_Node000007" class="edge">
<title>Node7&#45;&gt;Node6</title>
<g id="a_edge6_Node000006_Node000007"><a xlink:title=" ">
<path fill="none" stroke="#9a32cd" stroke-dasharray="5,2" d="M396.14,-88.38C432.22,-88.38 478.5,-88.38 513.39,-88.38"/>
<polygon fill="#9a32cd" stroke="#9a32cd" points="396.32,-84.88 386.32,-88.38 396.32,-91.88 396.32,-84.88"/>
</a>
</g>
<text text-anchor="middle" x="457.62" y="-91.62" font-family="Helvetica,sans-Serif" font-size="10.00" fill="grey"> hwAddr</text>
</g>
<!-- Node8 -->
<g id="Node000008" class="node">
<title>Node8</title>
<g id="a_Node000008"><a xlink:href="structVlcbModuleParams.html" target="_top" xlink:title=" ">
<polygon fill="white" stroke="#666666" points="619.88,-59.75 510.88,-59.75 510.88,-39 619.88,-39 619.88,-59.75"/>
<text text-anchor="middle" x="565.38" y="-46.25" font-family="Helvetica,sans-Serif" font-size="10.00">VlcbModuleParams</text>
</a>
</g>
</g>
<!-- Node8&#45;&gt;Node1 -->
<g id="edge7_Node000001_Node000008" class="edge">
<title>Node8&#45;&gt;Node1</title>
<g id="a_edge7_Node000001_Node000008"><a xlink:title=" ">
<path fill="none" stroke="#9a32cd" stroke-dasharray="5,2" d="M631.43,-59.14C651.3,-62.57 673.15,-66.79 693,-71.62 699.9,-73.3 707.22,-75.39 714.15,-77.51"/>
<polygon fill="#9a32cd" stroke="#9a32cd" points="632.23,-55.73 621.79,-57.52 631.07,-62.63 632.23,-55.73"/>
</a>
</g>
<text text-anchor="middle" x="673.12" y="-74.88" font-family="Helvetica,sans-Serif" font-size="10.00" fill="grey"> params</text>
</g>
<!-- Node9 -->
<g id="Node000009" class="node">
<title>Node9</title>
<g id="a_Node000009"><a xlink:href="structVlcbModuleStateMachine.html" target="_top" xlink:title=" ">
<polygon fill="white" stroke="#666666" points="635.25,-20.75 495.5,-20.75 495.5,0 635.25,0 635.25,-20.75"/>
<text text-anchor="middle" x="565.38" y="-7.25" font-family="Helvetica,sans-Serif" font-size="10.00">VlcbModuleStateMachine</text>
</a>
</g>
</g>
<!-- Node9&#45;&gt;Node1 -->
<g id="edge8_Node000001_Node000009" class="edge">
<title>Node9&#45;&gt;Node1</title>
<g id="a_edge8_Node000001_Node000009"><a xlink:title=" ">
<path fill="none" stroke="#9a32cd" stroke-dasharray="5,2" d="M632.35,-24.13C652.44,-29.66 674.17,-37.04 693,-46.62 709.17,-54.85 725.25,-68.29 735.49,-77.69"/>
<polygon fill="#9a32cd" stroke="#9a32cd" points="633.42,-20.79 622.86,-21.63 631.64,-27.56 633.42,-20.79"/>
</a>
</g>
<text text-anchor="middle" x="673.12" y="-49.88" font-family="Helvetica,sans-Serif" font-size="10.00" fill="grey"> sm</text>
</g>
<!-- Node10 -->
<g id="Node000010" class="node">
<title>Node10</title>
<g id="a_Node000010"><a xlink:href="unionVlcbModuleStateMachineData.html" target="_top" xlink:title=" ">
<polygon fill="white" stroke="#666666" points="419.75,-20.75 256.75,-20.75 256.75,0 419.75,0 419.75,-20.75"/>
<text text-anchor="middle" x="338.25" y="-7.25" font-family="Helvetica,sans-Serif" font-size="10.00">VlcbModuleStateMachineData</text>
</a>
</g>
</g>
<!-- Node10&#45;&gt;Node9 -->
<g id="edge9_Node000009_Node000010" class="edge">
<title>Node10&#45;&gt;Node9</title>
<g id="a_edge9_Node000009_Node000010"><a xlink:title=" ">
<path fill="none" stroke="#9a32cd" stroke-dasharray="5,2" d="M431.58,-10.38C452.87,-10.38 475.17,-10.38 495.28,-10.38"/>
<polygon fill="#9a32cd" stroke="#9a32cd" points="431.72,-6.88 421.72,-10.38 431.72,-13.88 431.72,-6.88"/>
</a>
</g>
<text text-anchor="middle" x="457.62" y="-13.62" font-family="Helvetica,sans-Serif" font-size="10.00" fill="grey"> data</text>
</g>
<!-- Node11 -->
<g id="Node000011" class="node">
<title>Node11</title>
<g id="a_Node000011"><a xlink:href="structVlcbModuleStateMachineSetupData.html" target="_top" xlink:title=" ">
<polygon fill="white" stroke="#666666" points="190.75,-20.75 0,-20.75 0,0 190.75,0 190.75,-20.75"/>
<text text-anchor="middle" x="95.38" y="-7.25" font-family="Helvetica,sans-Serif" font-size="10.00">VlcbModuleStateMachineSetupData</text>
</a>
</g>
</g>
<!-- Node11&#45;&gt;Node10 -->
<g id="edge10_Node000010_Node000011" class="edge">
<title>Node11&#45;&gt;Node10</title>
<g id="a_edge10_Node000010_Node000011"><a xlink:title=" ">
<path fill="none" stroke="#9a32cd" stroke-dasharray="5,2" d="M202.71,-10.38C220.76,-10.38 239.24,-10.38 256.5,-10.38"/>
<polygon fill="#9a32cd" stroke="#9a32cd" points="202.74,-6.88 192.74,-10.38 202.74,-13.88 202.74,-6.88"/>
</a>
</g>
<text text-anchor="middle" x="223.75" y="-13.62" font-family="Helvetica,sans-Serif" font-size="10.00" fill="grey"> setup</text>
</g>
</g>
</svg>
