<?xml version="1.0" encoding="UTF-8" standalone="no"?>
<!DOCTYPE svg PUBLIC "-//W3C//DTD SVG 1.1//EN"
 "http://www.w3.org/Graphics/SVG/1.1/DTD/svg11.dtd">
<!-- Generated by graphviz version 12.1.2 (20240928.0832)
 -->
<!-- Title: switch.h Pages: 1 -->
<svg width="241pt" height="142pt"
 viewBox="0.00 0.00 241.38 142.25" xmlns="http://www.w3.org/2000/svg" xmlns:xlink="http://www.w3.org/1999/xlink">
<g id="graph0" class="graph" transform="scale(1 1) rotate(0) translate(4 138.25)">
<title>switch.h</title>
<!-- Node1 -->
<g id="Node000001" class="node">
<title>Node1</title>
<g id="a_Node000001"><a xlink:title=" ">
<polygon fill="#999999" stroke="#666666" points="172.12,-134.25 115.62,-134.25 115.62,-113.5 172.12,-113.5 172.12,-134.25"/>
<text text-anchor="middle" x="143.88" y="-120.75" font-family="Helvetica,sans-Serif" font-size="10.00">switch.h</text>
</a>
</g>
</g>
<!-- Node2 -->
<g id="Node000002" class="node">
<title>Node2</title>
<g id="a_Node000002"><a xlink:href="time_8h.html" target="_top" xlink:title=" ">
<polygon fill="white" stroke="#666666" points="115.75,-77.5 0,-77.5 0,-56.75 115.75,-56.75 115.75,-77.5"/>
<text text-anchor="middle" x="57.88" y="-64" font-family="Helvetica,sans-Serif" font-size="10.00">vlcb/platform/time.h</text>
</a>
</g>
</g>
<!-- Node1&#45;&gt;Node2 -->
<g id="edge1_Node000001_Node000002" class="edge">
<title>Node1&#45;&gt;Node2</title>
<g id="a_edge1_Node000001_Node000002"><a xlink:title=" ">
<path fill="none" stroke="#63b8ff" d="M128.5,-113.09C115.78,-104.99 97.47,-93.33 82.68,-83.92"/>
<polygon fill="#63b8ff" stroke="#63b8ff" points="84.71,-81.06 74.39,-78.64 80.95,-86.96 84.71,-81.06"/>
</a>
</g>
</g>
<!-- Node3 -->
<g id="Node000003" class="node">
<title>Node3</title>
<g id="a_Node000003"><a xlink:title=" ">
<polygon fill="#e0e0e0" stroke="#999999" points="127.25,-20.75 74.5,-20.75 74.5,0 127.25,0 127.25,-20.75"/>
<text text-anchor="middle" x="100.88" y="-7.25" font-family="Helvetica,sans-Serif" font-size="10.00">stdint.h</text>
</a>
</g>
</g>
<!-- Node1&#45;&gt;Node3 -->
<g id="edge4_Node000001_Node000003" class="edge">
<title>Node1&#45;&gt;Node3</title>
<g id="a_edge4_Node000001_Node000003"><a xlink:title=" ">
<path fill="none" stroke="#63b8ff" d="M141.77,-113.25C138.77,-100.19 132.73,-76.25 124.88,-56.75 121.39,-48.1 116.74,-38.94 112.46,-31.13"/>
<polygon fill="#63b8ff" stroke="#63b8ff" points="115.55,-29.47 107.57,-22.5 109.46,-32.92 115.55,-29.47"/>
</a>
</g>
</g>
<!-- Node4 -->
<g id="Node000004" class="node">
<title>Node4</title>
<g id="a_Node000004"><a xlink:title=" ">
<polygon fill="#e0e0e0" stroke="#999999" points="233.38,-77.5 172.38,-77.5 172.38,-56.75 233.38,-56.75 233.38,-77.5"/>
<text text-anchor="middle" x="202.88" y="-64" font-family="Helvetica,sans-Serif" font-size="10.00">stdbool.h</text>
</a>
</g>
</g>
<!-- Node1&#45;&gt;Node4 -->
<g id="edge3_Node000001_Node000004" class="edge">
<title>Node1&#45;&gt;Node4</title>
<g id="a_edge3_Node000001_Node000004"><a xlink:title=" ">
<path fill="none" stroke="#63b8ff" d="M154.42,-113.09C162.65,-105.46 174.27,-94.67 184.08,-85.57"/>
<polygon fill="#63b8ff" stroke="#63b8ff" points="186.36,-88.23 191.31,-78.86 181.6,-83.09 186.36,-88.23"/>
</a>
</g>
</g>
<!-- Node2&#45;&gt;Node3 -->
<g id="edge2_Node000002_Node000003" class="edge">
<title>Node2&#45;&gt;Node3</title>
<g id="a_edge2_Node000002_Node000003"><a xlink:title=" ">
<path fill="none" stroke="#63b8ff" d="M65.56,-56.34C71.31,-49.02 79.34,-38.79 86.29,-29.94"/>
<polygon fill="#63b8ff" stroke="#63b8ff" points="88.9,-32.3 92.32,-22.27 83.39,-27.97 88.9,-32.3"/>
</a>
</g>
</g>
</g>
</svg>
