<?xml version="1.0" encoding="UTF-8" standalone="no"?>
<!DOCTYPE svg PUBLIC "-//W3C//DTD SVG 1.1//EN"
 "http://www.w3.org/Graphics/SVG/1.1/DTD/svg11.dtd">
<!-- Generated by graphviz version 12.1.2 (20240928.0832)
 -->
<!-- Title: switch.h Pages: 1 -->
<svg width="291pt" height="86pt"
 viewBox="0.00 0.00 291.25 85.50" xmlns="http://www.w3.org/2000/svg" xmlns:xlink="http://www.w3.org/1999/xlink">
<g id="graph0" class="graph" transform="scale(1 1) rotate(0) translate(4 81.5)">
<title>switch.h</title>
<!-- Node1 -->
<g id="Node000001" class="node">
<title>Node1</title>
<g id="a_Node000001"><a xlink:title=" ">
<polygon fill="#999999" stroke="#666666" points="210.12,-77.5 153.62,-77.5 153.62,-56.75 210.12,-56.75 210.12,-77.5"/>
<text text-anchor="middle" x="181.88" y="-64" font-family="Helvetica,sans-Serif" font-size="10.00">switch.h</text>
</a>
</g>
</g>
<!-- Node2 -->
<g id="Node000002" class="node">
<title>Node2</title>
<g id="a_Node000002"><a xlink:href="time_8h.html" target="_top" xlink:title=" ">
<polygon fill="white" stroke="#666666" points="115.75,-20.75 0,-20.75 0,0 115.75,0 115.75,-20.75"/>
<text text-anchor="middle" x="57.88" y="-7.25" font-family="Helvetica,sans-Serif" font-size="10.00">vlcb/platform/time.h</text>
</a>
</g>
</g>
<!-- Node1&#45;&gt;Node2 -->
<g id="edge1_Node000001_Node000002" class="edge">
<title>Node1&#45;&gt;Node2</title>
<g id="a_edge1_Node000001_Node000002"><a xlink:title=" ">
<path fill="none" stroke="#63b8ff" d="M159.71,-56.34C140.4,-47.81 112.15,-35.34 90.3,-25.69"/>
<polygon fill="#63b8ff" stroke="#63b8ff" points="91.8,-22.53 81.24,-21.69 88.97,-28.93 91.8,-22.53"/>
</a>
</g>
</g>
<!-- Node3 -->
<g id="Node000003" class="node">
<title>Node3</title>
<g id="a_Node000003"><a xlink:title=" ">
<polygon fill="#e0e0e0" stroke="#999999" points="212.38,-20.75 151.38,-20.75 151.38,0 212.38,0 212.38,-20.75"/>
<text text-anchor="middle" x="181.88" y="-7.25" font-family="Helvetica,sans-Serif" font-size="10.00">stdbool.h</text>
</a>
</g>
</g>
<!-- Node1&#45;&gt;Node3 -->
<g id="edge3_Node000001_Node000003" class="edge">
<title>Node1&#45;&gt;Node3</title>
<g id="a_edge3_Node000001_Node000003"><a xlink:title=" ">
<path fill="none" stroke="#63b8ff" d="M181.88,-56.34C181.88,-49.72 181.88,-40.72 181.88,-32.52"/>
<polygon fill="#63b8ff" stroke="#63b8ff" points="185.38,-32.59 181.88,-22.59 178.38,-32.59 185.38,-32.59"/>
</a>
</g>
</g>
<!-- Node4 -->
<g id="Node000004" class="node">
<title>Node4</title>
<g id="a_Node000004"><a xlink:title=" ">
<polygon fill="#e0e0e0" stroke="#999999" points="283.25,-20.75 230.5,-20.75 230.5,0 283.25,0 283.25,-20.75"/>
<text text-anchor="middle" x="256.88" y="-7.25" font-family="Helvetica,sans-Serif" font-size="10.00">stdint.h</text>
</a>
</g>
</g>
<!-- Node1&#45;&gt;Node4 -->
<g id="edge4_Node000001_Node000004" class="edge">
<title>Node1&#45;&gt;Node4</title>
<g id="a_edge4_Node000001_Node000004"><a xlink:title=" ">
<path fill="none" stroke="#63b8ff" d="M195.28,-56.34C206.16,-48.4 221.73,-37.03 234.49,-27.71"/>
<polygon fill="#63b8ff" stroke="#63b8ff" points="236.35,-30.69 242.36,-21.97 232.22,-25.04 236.35,-30.69"/>
</a>
</g>
</g>
<!-- Node2&#45;&gt;Node2 -->
<g id="edge2_Node000002_Node000002" class="edge">
<title>Node2&#45;&gt;Node2</title>
<g id="a_edge2_Node000002_Node000002"><a xlink:title=" ">
<path fill="none" stroke="#63b8ff" d="M116.09,-20.39C126.49,-19.09 133.75,-15.75 133.75,-10.38 133.75,-7.27 131.32,-4.84 127.27,-3.09"/>
<polygon fill="#63b8ff" stroke="#63b8ff" points="128.11,0.3 117.56,-0.72 126.44,-6.5 128.11,0.3"/>
</a>
</g>
</g>
</g>
</svg>
