<?xml version="1.0" encoding="UTF-8" standalone="no"?>
<!DOCTYPE svg PUBLIC "-//W3C//DTD SVG 1.1//EN"
 "http://www.w3.org/Graphics/SVG/1.1/DTD/svg11.dtd">
<!-- Generated by graphviz version 12.1.2 (20240928.0832)
 -->
<!-- Title: time.h Pages: 1 -->
<svg width="584pt" height="313pt"
 viewBox="0.00 0.00 584.25 312.50" xmlns="http://www.w3.org/2000/svg" xmlns:xlink="http://www.w3.org/1999/xlink">
<g id="graph0" class="graph" transform="scale(1 1) rotate(0) translate(4 308.5)">
<title>time.h</title>
<!-- Node1 -->
<g id="Node000001" class="node">
<title>Node1</title>
<g id="a_Node000001"><a xlink:title=" ">
<polygon fill="#999999" stroke="#666666" points="344.75,-304.5 297.25,-304.5 297.25,-283.75 344.75,-283.75 344.75,-304.5"/>
<text text-anchor="middle" x="321" y="-291" font-family="Helvetica,sans-Serif" font-size="10.00">time.h</text>
</a>
</g>
</g>
<!-- Node1&#45;&gt;Node1 -->
<g id="edge21_Node000001_Node000001" class="edge">
<title>Node1&#45;&gt;Node1</title>
<g id="a_edge21_Node000001_Node000001"><a xlink:title=" ">
<path fill="none" stroke="#63b8ff" d="M356.24,-303.12C360.19,-301.42 362.75,-298.43 362.75,-294.12 362.75,-286.48 354.66,-282.95 345.03,-283.55"/>
<polygon fill="#63b8ff" stroke="#63b8ff" points="355.94,-299.63 346.52,-304.49 356.92,-306.56 355.94,-299.63"/>
</a>
</g>
</g>
<!-- Node2 -->
<g id="Node000002" class="node">
<title>Node2</title>
<g id="a_Node000002"><a xlink:href="inc_2vlcb_2platform_2driver_2led_8h.html" target="_top" xlink:title=" ">
<polygon fill="white" stroke="#666666" points="40,-247.75 0,-247.75 0,-227 40,-227 40,-247.75"/>
<text text-anchor="middle" x="20" y="-234.25" font-family="Helvetica,sans-Serif" font-size="10.00">led.h</text>
</a>
</g>
</g>
<!-- Node1&#45;&gt;Node2 -->
<g id="edge1_Node000001_Node000002" class="edge">
<title>Node1&#45;&gt;Node2</title>
<g id="a_edge1_Node000001_Node000002"><a xlink:title=" ">
<path fill="none" stroke="#63b8ff" d="M285.81,-288.3C234.53,-281 136.4,-266.06 54,-247.75 49.58,-246.77 44.87,-245.57 40.41,-244.36"/>
<polygon fill="#63b8ff" stroke="#63b8ff" points="285.02,-291.72 295.41,-289.65 286,-284.79 285.02,-291.72"/>
</a>
</g>
</g>
<!-- Node4 -->
<g id="Node000004" class="node">
<title>Node4</title>
<g id="a_Node000004"><a xlink:href="module_8c.html" target="_top" xlink:title=" ">
<polygon fill="white" stroke="#666666" points="195.5,-20.75 134.5,-20.75 134.5,0 195.5,0 195.5,-20.75"/>
<text text-anchor="middle" x="165" y="-7.25" font-family="Helvetica,sans-Serif" font-size="10.00">module.c</text>
</a>
</g>
</g>
<!-- Node1&#45;&gt;Node4 -->
<g id="edge3_Node000001_Node000004" class="edge">
<title>Node1&#45;&gt;Node4</title>
<g id="a_edge3_Node000001_Node000004"><a xlink:title=" ">
<path fill="none" stroke="#63b8ff" d="M285.98,-293.13C216.53,-291.11 68,-275.78 68,-181.62 68,-181.62 68,-181.62 68,-122.88 68,-75.15 119.21,-37.92 147.21,-21.12"/>
<polygon fill="#63b8ff" stroke="#63b8ff" points="285.62,-296.62 295.69,-293.33 285.76,-289.62 285.62,-296.62"/>
</a>
</g>
</g>
<!-- Node5 -->
<g id="Node000005" class="node">
<title>Node5</title>
<g id="a_Node000005"><a xlink:href="module_2inc_2vlcb_2module_8h.html" target="_top" xlink:title=" ">
<polygon fill="white" stroke="#666666" points="280.88,-134.25 219.12,-134.25 219.12,-113.5 280.88,-113.5 280.88,-134.25"/>
<text text-anchor="middle" x="250" y="-120.75" font-family="Helvetica,sans-Serif" font-size="10.00">module.h</text>
</a>
</g>
</g>
<!-- Node1&#45;&gt;Node5 -->
<g id="edge4_Node000001_Node000005" class="edge">
<title>Node1&#45;&gt;Node5</title>
<g id="a_edge4_Node000001_Node000005"><a xlink:title=" ">
<path fill="none" stroke="#63b8ff" d="M309.54,-273.42C298.13,-253.23 280.69,-220.67 269,-191 261.29,-171.44 255.2,-147.52 252.15,-134.48"/>
<polygon fill="#63b8ff" stroke="#63b8ff" points="306.42,-275.02 314.42,-281.96 312.49,-271.54 306.42,-275.02"/>
</a>
</g>
</g>
<!-- Node7 -->
<g id="Node000007" class="node">
<title>Node7</title>
<g id="a_Node000007"><a xlink:href="state__machine_8c.html" target="_top" xlink:title=" ">
<polygon fill="white" stroke="#666666" points="387.12,-20.75 290.88,-20.75 290.88,0 387.12,0 387.12,-20.75"/>
<text text-anchor="middle" x="339" y="-7.25" font-family="Helvetica,sans-Serif" font-size="10.00">state_machine.c</text>
</a>
</g>
</g>
<!-- Node1&#45;&gt;Node7 -->
<g id="edge18_Node000001_Node000007" class="edge">
<title>Node1&#45;&gt;Node7</title>
<g id="a_edge18_Node000001_Node000007"><a xlink:title=" ">
<path fill="none" stroke="#63b8ff" d="M356.12,-286.61C406.17,-275.07 492,-245.91 492,-181.62 492,-181.62 492,-181.62 492,-122.88 492,-66.18 422.53,-35.26 377.21,-21.13"/>
<polygon fill="#63b8ff" stroke="#63b8ff" points="355.65,-283.13 346.62,-288.67 357.13,-289.97 355.65,-283.13"/>
</a>
</g>
</g>
<!-- Node8 -->
<g id="Node000008" class="node">
<title>Node8</title>
<g id="a_Node000008"><a xlink:href="state__machine_8h.html" target="_top" xlink:title=" ">
<polygon fill="white" stroke="#666666" points="349.5,-77.5 252.5,-77.5 252.5,-56.75 349.5,-56.75 349.5,-77.5"/>
<text text-anchor="middle" x="301" y="-64" font-family="Helvetica,sans-Serif" font-size="10.00">state_machine.h</text>
</a>
</g>
</g>
<!-- Node1&#45;&gt;Node8 -->
<g id="edge19_Node000001_Node000008" class="edge">
<title>Node1&#45;&gt;Node8</title>
<g id="a_edge19_Node000001_Node000008"><a xlink:title=" ">
<path fill="none" stroke="#63b8ff" d="M352.83,-277.51C364.19,-270.17 375.72,-260.25 382,-247.75 386.14,-239.51 384.15,-235.97 382,-227 367.32,-165.89 324.99,-101.8 308.09,-77.88"/>
<polygon fill="#63b8ff" stroke="#63b8ff" points="351.16,-274.43 344.33,-282.53 354.72,-280.46 351.16,-274.43"/>
</a>
</g>
</g>
<!-- Node9 -->
<g id="Node000009" class="node">
<title>Node9</title>
<g id="a_Node000009"><a xlink:href="state_8h.html" target="_top" xlink:title=" ">
<polygon fill="white" stroke="#666666" points="372.88,-247.75 323.12,-247.75 323.12,-227 372.88,-227 372.88,-247.75"/>
<text text-anchor="middle" x="348" y="-234.25" font-family="Helvetica,sans-Serif" font-size="10.00">state.h</text>
</a>
</g>
</g>
<!-- Node1&#45;&gt;Node9 -->
<g id="edge12_Node000001_Node000009" class="edge">
<title>Node1&#45;&gt;Node9</title>
<g id="a_edge12_Node000001_Node000009"><a xlink:title=" ">
<path fill="none" stroke="#63b8ff" d="M330.91,-273.03C335.11,-264.52 339.81,-254.99 343.21,-248.08"/>
<polygon fill="#63b8ff" stroke="#63b8ff" points="327.78,-271.46 326.5,-281.98 334.06,-274.56 327.78,-271.46"/>
</a>
</g>
</g>
<!-- Node10 -->
<g id="Node000010" class="node">
<title>Node10</title>
<g id="a_Node000010"><a xlink:href="ui_8h.html" target="_top" xlink:title=" ">
<polygon fill="white" stroke="#666666" points="312,-191 278,-191 278,-170.25 312,-170.25 312,-191"/>
<text text-anchor="middle" x="295" y="-177.5" font-family="Helvetica,sans-Serif" font-size="10.00">ui.h</text>
</a>
</g>
</g>
<!-- Node1&#45;&gt;Node10 -->
<g id="edge22_Node000001_Node000010" class="edge">
<title>Node1&#45;&gt;Node10</title>
<g id="a_edge22_Node000001_Node000010"><a xlink:title=" ">
<path fill="none" stroke="#63b8ff" d="M316.2,-272.55C310.58,-248.45 301.5,-209.5 297.29,-191.43"/>
<polygon fill="#63b8ff" stroke="#63b8ff" points="312.76,-273.2 318.44,-282.14 319.58,-271.61 312.76,-273.2"/>
</a>
</g>
</g>
<!-- Node11 -->
<g id="Node000011" class="node">
<title>Node11</title>
<g id="a_Node000011"><a xlink:href="switch_8h.html" target="_top" xlink:title=" ">
<polygon fill="white" stroke="#666666" points="576.25,-247.75 519.75,-247.75 519.75,-227 576.25,-227 576.25,-247.75"/>
<text text-anchor="middle" x="548" y="-234.25" font-family="Helvetica,sans-Serif" font-size="10.00">switch.h</text>
</a>
</g>
</g>
<!-- Node1&#45;&gt;Node11 -->
<g id="edge20_Node000001_Node000011" class="edge">
<title>Node1&#45;&gt;Node11</title>
<g id="a_edge20_Node000001_Node000011"><a xlink:title=" ">
<path fill="none" stroke="#63b8ff" d="M355.81,-284.73C400.7,-273.9 477.93,-255.28 519.51,-245.25"/>
<polygon fill="#63b8ff" stroke="#63b8ff" points="355.24,-281.27 346.34,-287.01 356.88,-288.07 355.24,-281.27"/>
</a>
</g>
</g>
<!-- Node3 -->
<g id="Node000003" class="node">
<title>Node3</title>
<g id="a_Node000003"><a xlink:href="led_8c.html" target="_top" xlink:title=" ">
<polygon fill="white" stroke="#666666" points="39.62,-191 0.38,-191 0.38,-170.25 39.62,-170.25 39.62,-191"/>
<text text-anchor="middle" x="20" y="-177.5" font-family="Helvetica,sans-Serif" font-size="10.00">led.c</text>
</a>
</g>
</g>
<!-- Node2&#45;&gt;Node3 -->
<g id="edge2_Node000002_Node000003" class="edge">
<title>Node2&#45;&gt;Node3</title>
<g id="a_edge2_Node000002_Node000003"><a xlink:title=" ">
<path fill="none" stroke="#63b8ff" d="M20,-215.13C20,-206.91 20,-197.93 20,-191.33"/>
<polygon fill="#63b8ff" stroke="#63b8ff" points="16.5,-215.07 20,-225.07 23.5,-215.07 16.5,-215.07"/>
</a>
</g>
</g>
<!-- Node5&#45;&gt;Node4 -->
<g id="edge5_Node000005_Node000004" class="edge">
<title>Node5&#45;&gt;Node4</title>
<g id="a_edge5_Node000005_Node000004"><a xlink:title=" ">
<path fill="none" stroke="#63b8ff" d="M207.53,-119.65C179.07,-115.02 143.52,-103.92 125,-77.5 111.45,-58.16 135.44,-34.16 151.75,-21.05"/>
<polygon fill="#63b8ff" stroke="#63b8ff" points="206.95,-123.1 217.34,-121.01 207.91,-116.17 206.95,-123.1"/>
</a>
</g>
</g>
<!-- Node6 -->
<g id="Node000006" class="node">
<title>Node6</title>
<g id="a_Node000006"><a xlink:href="module_2src_2module_8h.html" target="_top" xlink:title=" ">
<polygon fill="white" stroke="#666666" points="195.88,-77.5 134.12,-77.5 134.12,-56.75 195.88,-56.75 195.88,-77.5"/>
<text text-anchor="middle" x="165" y="-64" font-family="Helvetica,sans-Serif" font-size="10.00">module.h</text>
</a>
</g>
</g>
<!-- Node5&#45;&gt;Node6 -->
<g id="edge6_Node000005_Node000006" class="edge">
<title>Node5&#45;&gt;Node6</title>
<g id="a_edge6_Node000005_Node000006"><a xlink:title=" ">
<path fill="none" stroke="#63b8ff" d="M225.33,-106.98C210.69,-97.55 192.6,-85.9 180.06,-77.83"/>
<polygon fill="#63b8ff" stroke="#63b8ff" points="223.23,-109.79 233.53,-112.27 227.02,-103.91 223.23,-109.79"/>
</a>
</g>
</g>
<!-- Node5&#45;&gt;Node7 -->
<g id="edge8_Node000005_Node000007" class="edge">
<title>Node5&#45;&gt;Node7</title>
<g id="a_edge8_Node000005_Node000007"><a xlink:title=" ">
<path fill="none" stroke="#63b8ff" d="M241.91,-102.16C237.91,-88.28 235.54,-70.17 244,-56.75 255.31,-38.82 275.87,-27.82 294.99,-21.15"/>
<polygon fill="#63b8ff" stroke="#63b8ff" points="238.59,-103.26 245.13,-111.6 245.22,-101.01 238.59,-103.26"/>
</a>
</g>
</g>
<!-- Node5&#45;&gt;Node8 -->
<g id="edge9_Node000005_Node000008" class="edge">
<title>Node5&#45;&gt;Node8</title>
<g id="a_edge9_Node000005_Node000008"><a xlink:title=" ">
<path fill="none" stroke="#63b8ff" d="M266.86,-104.77C275.24,-95.78 285.02,-85.28 291.96,-77.83"/>
<polygon fill="#63b8ff" stroke="#63b8ff" points="264.4,-102.28 260.15,-111.98 269.53,-107.05 264.4,-102.28"/>
</a>
</g>
</g>
<!-- Node6&#45;&gt;Node4 -->
<g id="edge7_Node000006_Node000004" class="edge">
<title>Node6&#45;&gt;Node4</title>
<g id="a_edge7_Node000006_Node000004"><a xlink:title=" ">
<path fill="none" stroke="#63b8ff" d="M165,-44.88C165,-36.66 165,-27.68 165,-21.08"/>
<polygon fill="#63b8ff" stroke="#63b8ff" points="161.5,-44.82 165,-54.82 168.5,-44.82 161.5,-44.82"/>
</a>
</g>
</g>
<!-- Node8&#45;&gt;Node4 -->
<g id="edge10_Node000008_Node000004" class="edge">
<title>Node8&#45;&gt;Node4</title>
<g id="a_edge10_Node000008_Node000004"><a xlink:title=" ">
<path fill="none" stroke="#63b8ff" d="M266.18,-52.11C242.04,-42.39 210.5,-29.69 189.1,-21.08"/>
<polygon fill="#63b8ff" stroke="#63b8ff" points="264.7,-55.28 275.28,-55.77 267.31,-48.79 264.7,-55.28"/>
</a>
</g>
</g>
<!-- Node8&#45;&gt;Node7 -->
<g id="edge11_Node000008_Node000007" class="edge">
<title>Node8&#45;&gt;Node7</title>
<g id="a_edge11_Node000008_Node000007"><a xlink:title=" ">
<path fill="none" stroke="#63b8ff" d="M314.35,-46.89C320.41,-38.16 327.31,-28.22 332.27,-21.08"/>
<polygon fill="#63b8ff" stroke="#63b8ff" points="311.48,-44.88 308.66,-55.09 317.23,-48.87 311.48,-44.88"/>
</a>
</g>
</g>
<!-- Node9&#45;&gt;Node4 -->
<g id="edge13_Node000009_Node000004" class="edge">
<title>Node9&#45;&gt;Node4</title>
<g id="a_edge13_Node000009_Node000004"><a xlink:title=" ">
<path fill="none" stroke="#63b8ff" d="M361.44,-217.07C366.06,-209.33 370.66,-200.1 373,-191 383.67,-149.51 398.03,-100.2 359,-56.75 337.5,-32.82 244.83,-19.71 195.76,-14.33"/>
<polygon fill="#63b8ff" stroke="#63b8ff" points="358.63,-214.97 356.16,-225.28 364.52,-218.77 358.63,-214.97"/>
</a>
</g>
</g>
<!-- Node9&#45;&gt;Node5 -->
<g id="edge14_Node000009_Node000005" class="edge">
<title>Node9&#45;&gt;Node5</title>
<g id="a_edge14_Node000009_Node000005"><a xlink:title=" ">
<path fill="none" stroke="#63b8ff" d="M343.17,-215.93C339.07,-201.9 332.05,-183.51 321,-170.25 307.89,-154.52 287.88,-142.42 272.44,-134.69"/>
<polygon fill="#63b8ff" stroke="#63b8ff" points="339.74,-216.64 345.67,-225.42 346.51,-214.86 339.74,-216.64"/>
</a>
</g>
</g>
<!-- Node9&#45;&gt;Node7 -->
<g id="edge15_Node000009_Node000007" class="edge">
<title>Node9&#45;&gt;Node7</title>
<g id="a_edge15_Node000009_Node000007"><a xlink:title=" ">
<path fill="none" stroke="#63b8ff" d="M352.88,-215.33C359.93,-181.51 370.88,-113.14 359,-56.75 356.27,-43.78 349.59,-29.99 344.69,-21.07"/>
<polygon fill="#63b8ff" stroke="#63b8ff" points="349.48,-214.51 350.75,-225.03 356.32,-216.01 349.48,-214.51"/>
</a>
</g>
</g>
<!-- Node9&#45;&gt;Node10 -->
<g id="edge16_Node000009_Node000010" class="edge">
<title>Node9&#45;&gt;Node10</title>
<g id="a_edge16_Node000009_Node000010"><a xlink:title=" ">
<path fill="none" stroke="#63b8ff" d="M330.75,-218.55C321.98,-209.5 311.68,-198.86 304.39,-191.33"/>
<polygon fill="#63b8ff" stroke="#63b8ff" points="328,-220.75 337.47,-225.5 333.03,-215.88 328,-220.75"/>
</a>
</g>
</g>
<!-- Node10&#45;&gt;Node5 -->
<g id="edge17_Node000010_Node000005" class="edge">
<title>Node10&#45;&gt;Node5</title>
<g id="a_edge17_Node000010_Node000005"><a xlink:title=" ">
<path fill="none" stroke="#63b8ff" d="M279.66,-160.96C272.37,-152.09 263.97,-141.87 257.98,-134.58"/>
<polygon fill="#63b8ff" stroke="#63b8ff" points="276.94,-163.16 285.99,-168.67 282.35,-158.72 276.94,-163.16"/>
</a>
</g>
</g>
</g>
</svg>
