<?xml version="1.0" encoding="UTF-8" standalone="no"?>
<!DOCTYPE svg PUBLIC "-//W3C//DTD SVG 1.1//EN"
 "http://www.w3.org/Graphics/SVG/1.1/DTD/svg11.dtd">
<!-- Generated by graphviz version 12.1.2 (20240928.0832)
 -->
<!-- Title: vlcb_platform_time_DiffInMs Pages: 1 -->
<svg width="848pt" height="106pt"
 viewBox="0.00 0.00 848.00 105.75" xmlns="http://www.w3.org/2000/svg" xmlns:xlink="http://www.w3.org/1999/xlink">
<g id="graph0" class="graph" transform="scale(1 1) rotate(0) translate(4 101.75)">
<title>vlcb_platform_time_DiffInMs</title>
<!-- Node1 -->
<g id="Node000001" class="node">
<title>Node1</title>
<g id="a_Node000001"><a xlink:title=" ">
<polygon fill="#999999" stroke="#666666" points="840,-46.12 728.75,-46.12 728.75,-12.62 840,-12.62 840,-46.12"/>
<text text-anchor="start" x="736.75" y="-32.62" font-family="Helvetica,sans-Serif" font-size="10.00">vlcb_platform_time</text>
<text text-anchor="middle" x="784.38" y="-19.88" font-family="Helvetica,sans-Serif" font-size="10.00">_DiffInMs</text>
</a>
</g>
</g>
<!-- Node2 -->
<g id="Node000002" class="node">
<title>Node2</title>
<g id="a_Node000002"><a xlink:href="state__machine_8c.html#a6c338e6311730773d98d58f8aa921012" target="_top" xlink:title=" ">
<polygon fill="white" stroke="#666666" points="692.75,-58.75 563.5,-58.75 563.5,-38 692.75,-38 692.75,-58.75"/>
<text text-anchor="middle" x="628.12" y="-45.25" font-family="Helvetica,sans-Serif" font-size="10.00">CheckForSetupTimeout</text>
</a>
</g>
</g>
<!-- Node1&#45;&gt;Node2 -->
<g id="edge1_Node000001_Node000002" class="edge">
<title>Node1&#45;&gt;Node2</title>
<g id="a_edge1_Node000001_Node000002"><a xlink:title=" ">
<path fill="none" stroke="#63b8ff" d="M717.39,-37.5C709.39,-38.49 701.22,-39.49 693.25,-40.48"/>
<polygon fill="#63b8ff" stroke="#63b8ff" points="717.56,-41.01 727.06,-36.31 716.7,-34.06 717.56,-41.01"/>
</a>
</g>
</g>
<!-- Node8 -->
<g id="Node000008" class="node">
<title>Node8</title>
<g id="a_Node000008"><a xlink:href="module_8c.html#a7619749367a14232feaf0513698c63d8" target="_top" xlink:title=" ">
<polygon fill="white" stroke="#666666" points="527.5,-20.75 428.25,-20.75 428.25,0 527.5,0 527.5,-20.75"/>
<text text-anchor="middle" x="477.88" y="-7.25" font-family="Helvetica,sans-Serif" font-size="10.00">HandleHeartbeat</text>
</a>
</g>
</g>
<!-- Node1&#45;&gt;Node8 -->
<g id="edge7_Node000001_Node000008" class="edge">
<title>Node1&#45;&gt;Node8</title>
<g id="a_edge7_Node000001_Node000008"><a xlink:title=" ">
<path fill="none" stroke="#63b8ff" d="M717.15,-25.24C660.08,-21.68 579.02,-16.62 527.7,-13.42"/>
<polygon fill="#63b8ff" stroke="#63b8ff" points="716.88,-28.73 727.07,-25.86 717.31,-21.75 716.88,-28.73"/>
</a>
</g>
</g>
<!-- Node3 -->
<g id="Node000003" class="node">
<title>Node3</title>
<g id="a_Node000003"><a xlink:href="state__machine_8c.html#a3d333fba19ed5ffbaabc4663ef9e2abc" target="_top" xlink:title=" ">
<polygon fill="white" stroke="#666666" points="522.25,-59.75 433.5,-59.75 433.5,-39 522.25,-39 522.25,-59.75"/>
<text text-anchor="middle" x="477.88" y="-46.25" font-family="Helvetica,sans-Serif" font-size="10.00">state_Dispatch</text>
</a>
</g>
</g>
<!-- Node2&#45;&gt;Node3 -->
<g id="edge2_Node000002_Node000003" class="edge">
<title>Node2&#45;&gt;Node3</title>
<g id="a_edge2_Node000002_Node000003"><a xlink:title=" ">
<path fill="none" stroke="#63b8ff" d="M551.99,-48.88C541.87,-48.95 531.77,-49.02 522.45,-49.08"/>
<polygon fill="#63b8ff" stroke="#63b8ff" points="551.9,-52.38 561.88,-48.82 551.86,-45.38 551.9,-52.38"/>
</a>
</g>
</g>
<!-- Node4 -->
<g id="Node000004" class="node">
<title>Node4</title>
<g id="a_Node000004"><a xlink:href="module_8c.html#abbdf441a7d8267aadf96102dc719cd2a" target="_top" xlink:title=" ">
<polygon fill="white" stroke="#666666" points="377.62,-97.75 307.62,-97.75 307.62,-77 377.62,-77 377.62,-97.75"/>
<text text-anchor="middle" x="342.62" y="-84.25" font-family="Helvetica,sans-Serif" font-size="10.00">AbortSetup</text>
</a>
</g>
</g>
<!-- Node3&#45;&gt;Node4 -->
<g id="edge3_Node000003_Node000004" class="edge">
<title>Node3&#45;&gt;Node4</title>
<g id="a_edge3_Node000003_Node000004"><a xlink:title=" ">
<path fill="none" stroke="#63b8ff" d="M428.34,-63.22C411.62,-67.98 393.25,-73.22 377.9,-77.6"/>
<polygon fill="#63b8ff" stroke="#63b8ff" points="428.94,-66.69 437.59,-60.58 427.02,-59.95 428.94,-66.69"/>
</a>
</g>
</g>
<!-- Node7 -->
<g id="Node000007" class="node">
<title>Node7</title>
<g id="a_Node000007"><a xlink:href="module_8c.html#a15ce5db19c8e79ec52bd78fc76940c33" target="_top" xlink:title=" ">
<polygon fill="white" stroke="#666666" points="392.25,-58.75 293,-58.75 293,-38 392.25,-38 392.25,-58.75"/>
<text text-anchor="middle" x="342.62" y="-45.25" font-family="Helvetica,sans-Serif" font-size="10.00">vlcb_module_Init</text>
</a>
</g>
</g>
<!-- Node3&#45;&gt;Node7 -->
<g id="edge6_Node000003_Node000007" class="edge">
<title>Node3&#45;&gt;Node7</title>
<g id="a_edge6_Node000003_Node000007"><a xlink:title=" ">
<path fill="none" stroke="#63b8ff" d="M421.96,-48.96C412.17,-48.89 402.03,-48.81 392.43,-48.74"/>
<polygon fill="#63b8ff" stroke="#63b8ff" points="421.7,-52.46 431.73,-49.04 421.76,-45.46 421.7,-52.46"/>
</a>
</g>
</g>
<!-- Node5 -->
<g id="Node000005" class="node">
<title>Node5</title>
<g id="a_Node000005"><a xlink:href="module_8c.html#a32ed02b26ffaed7947004cd1309f5847" target="_top" xlink:title=" ">
<polygon fill="white" stroke="#666666" points="257,-77.75 137.5,-77.75 137.5,-57 257,-57 257,-77.75"/>
<text text-anchor="middle" x="197.25" y="-64.25" font-family="Helvetica,sans-Serif" font-size="10.00">HandleMnsMessages</text>
</a>
</g>
</g>
<!-- Node4&#45;&gt;Node5 -->
<g id="edge4_Node000004_Node000005" class="edge">
<title>Node4&#45;&gt;Node5</title>
<g id="a_edge4_Node000004_Node000005"><a xlink:title=" ">
<path fill="none" stroke="#63b8ff" d="M295.91,-81C283.62,-79.28 270.14,-77.4 257.24,-75.6"/>
<polygon fill="#63b8ff" stroke="#63b8ff" points="295.4,-84.46 305.78,-82.38 296.36,-77.53 295.4,-84.46"/>
</a>
</g>
</g>
<!-- Node6 -->
<g id="Node000006" class="node">
<title>Node6</title>
<g id="a_Node000006"><a xlink:href="module_8c.html#a8e05ae271d378570de2cb6bbf3ca6b2d" target="_top" xlink:title=" ">
<polygon fill="white" stroke="#666666" points="101.5,-39.75 0,-39.75 0,-19 101.5,-19 101.5,-39.75"/>
<text text-anchor="middle" x="50.75" y="-26.25" font-family="Helvetica,sans-Serif" font-size="10.00">vlcb_module_Poll</text>
</a>
</g>
</g>
<!-- Node5&#45;&gt;Node6 -->
<g id="edge5_Node000005_Node000006" class="edge">
<title>Node5&#45;&gt;Node6</title>
<g id="a_edge5_Node000005_Node000006"><a xlink:title=" ">
<path fill="none" stroke="#63b8ff" d="M144.38,-53.74C127.45,-49.28 108.9,-44.4 92.87,-40.19"/>
<polygon fill="#63b8ff" stroke="#63b8ff" points="143.2,-57.04 153.76,-56.2 144.98,-50.27 143.2,-57.04"/>
</a>
</g>
</g>
<!-- Node8&#45;&gt;Node6 -->
<g id="edge8_Node000008_Node000006" class="edge">
<title>Node8&#45;&gt;Node6</title>
<g id="a_edge8_Node000008_Node000006"><a xlink:title=" ">
<path fill="none" stroke="#63b8ff" d="M416.67,-13.07C332.31,-16.84 180.49,-23.62 101.92,-27.13"/>
<polygon fill="#63b8ff" stroke="#63b8ff" points="416.76,-16.57 426.6,-12.62 416.45,-9.57 416.76,-16.57"/>
</a>
</g>
</g>
</g>
</svg>
