<?xml version="1.0" encoding="UTF-8" standalone="no"?>
<!DOCTYPE svg PUBLIC "-//W3C//DTD SVG 1.1//EN"
 "http://www.w3.org/Graphics/SVG/1.1/DTD/svg11.dtd">
<!-- Generated by graphviz version 12.1.2 (20240928.0832)
 -->
<!-- Title: time.h Pages: 1 -->
<svg width="546pt" height="313pt"
 viewBox="0.00 0.00 546.25 312.50" xmlns="http://www.w3.org/2000/svg" xmlns:xlink="http://www.w3.org/1999/xlink">
<g id="graph0" class="graph" transform="scale(1 1) rotate(0) translate(4 308.5)">
<title>time.h</title>
<!-- Node1 -->
<g id="Node000001" class="node">
<title>Node1</title>
<g id="a_Node000001"><a xlink:title=" ">
<polygon fill="#999999" stroke="#666666" points="384.75,-304.5 337.25,-304.5 337.25,-283.75 384.75,-283.75 384.75,-304.5"/>
<text text-anchor="middle" x="361" y="-291" font-family="Helvetica,sans-Serif" font-size="10.00">time.h</text>
</a>
</g>
</g>
<!-- Node1&#45;&gt;Node1 -->
<g id="edge20_Node000001_Node000001" class="edge">
<title>Node1&#45;&gt;Node1</title>
<g id="a_edge20_Node000001_Node000001"><a xlink:title=" ">
<path fill="none" stroke="#63b8ff" d="M396.24,-303.12C400.19,-301.42 402.75,-298.43 402.75,-294.12 402.75,-286.48 394.66,-282.95 385.03,-283.55"/>
<polygon fill="#63b8ff" stroke="#63b8ff" points="395.94,-299.63 386.52,-304.49 396.92,-306.56 395.94,-299.63"/>
</a>
</g>
</g>
<!-- Node2 -->
<g id="Node000002" class="node">
<title>Node2</title>
<g id="a_Node000002"><a xlink:href="inc_2vlcb_2platform_2driver_2led_8h.html" target="_top" xlink:title=" ">
<polygon fill="white" stroke="#666666" points="40,-247.75 0,-247.75 0,-227 40,-227 40,-247.75"/>
<text text-anchor="middle" x="20" y="-234.25" font-family="Helvetica,sans-Serif" font-size="10.00">led.h</text>
</a>
</g>
</g>
<!-- Node1&#45;&gt;Node2 -->
<g id="edge1_Node000001_Node000002" class="edge">
<title>Node1&#45;&gt;Node2</title>
<g id="a_edge1_Node000001_Node000002"><a xlink:title=" ">
<path fill="none" stroke="#63b8ff" d="M325.62,-289.32C268.23,-282.83 151.45,-268.31 54,-247.75 49.57,-246.81 44.86,-245.64 40.4,-244.43"/>
<polygon fill="#63b8ff" stroke="#63b8ff" points="325.11,-292.79 335.43,-290.42 325.88,-285.83 325.11,-292.79"/>
</a>
</g>
</g>
<!-- Node4 -->
<g id="Node000004" class="node">
<title>Node4</title>
<g id="a_Node000004"><a xlink:href="module_8c.html" target="_top" xlink:title=" ">
<polygon fill="white" stroke="#666666" points="195.5,-20.75 134.5,-20.75 134.5,0 195.5,0 195.5,-20.75"/>
<text text-anchor="middle" x="165" y="-7.25" font-family="Helvetica,sans-Serif" font-size="10.00">module.c</text>
</a>
</g>
</g>
<!-- Node1&#45;&gt;Node4 -->
<g id="edge3_Node000001_Node000004" class="edge">
<title>Node1&#45;&gt;Node4</title>
<g id="a_edge3_Node000001_Node000004"><a xlink:title=" ">
<path fill="none" stroke="#63b8ff" d="M325.89,-287.41C248.08,-273.75 68,-236.24 68,-181.62 68,-181.62 68,-181.62 68,-122.88 68,-75.15 119.21,-37.92 147.21,-21.12"/>
<polygon fill="#63b8ff" stroke="#63b8ff" points="325.08,-290.82 335.53,-289.07 326.27,-283.92 325.08,-290.82"/>
</a>
</g>
</g>
<!-- Node5 -->
<g id="Node000005" class="node">
<title>Node5</title>
<g id="a_Node000005"><a xlink:href="state_8h.html" target="_top" xlink:title=" ">
<polygon fill="white" stroke="#666666" points="331.88,-247.75 282.12,-247.75 282.12,-227 331.88,-227 331.88,-247.75"/>
<text text-anchor="middle" x="307" y="-234.25" font-family="Helvetica,sans-Serif" font-size="10.00">state.h</text>
</a>
</g>
</g>
<!-- Node1&#45;&gt;Node5 -->
<g id="edge4_Node000001_Node000005" class="edge">
<title>Node1&#45;&gt;Node5</title>
<g id="a_edge4_Node000001_Node000005"><a xlink:title=" ">
<path fill="none" stroke="#63b8ff" d="M343.42,-275.3C334.49,-266.25 324,-255.61 316.57,-248.08"/>
<polygon fill="#63b8ff" stroke="#63b8ff" points="340.77,-277.6 350.28,-282.26 345.75,-272.68 340.77,-277.6"/>
</a>
</g>
</g>
<!-- Node8 -->
<g id="Node000008" class="node">
<title>Node8</title>
<g id="a_Node000008"><a xlink:href="state__machine_8c.html" target="_top" xlink:title=" ">
<polygon fill="white" stroke="#666666" points="425.12,-20.75 328.88,-20.75 328.88,0 425.12,0 425.12,-20.75"/>
<text text-anchor="middle" x="377" y="-7.25" font-family="Helvetica,sans-Serif" font-size="10.00">state_machine.c</text>
</a>
</g>
</g>
<!-- Node1&#45;&gt;Node8 -->
<g id="edge17_Node000001_Node000008" class="edge">
<title>Node1&#45;&gt;Node8</title>
<g id="a_edge17_Node000001_Node000008"><a xlink:title=" ">
<path fill="none" stroke="#63b8ff" d="M387.13,-277.17C414.64,-258.16 454,-223.61 454,-181.62 454,-181.62 454,-181.62 454,-122.88 454,-78.41 412.03,-38.83 390.06,-21.15"/>
<polygon fill="#63b8ff" stroke="#63b8ff" points="385.3,-274.19 378.89,-282.63 389.16,-280.03 385.3,-274.19"/>
</a>
</g>
</g>
<!-- Node9 -->
<g id="Node000009" class="node">
<title>Node9</title>
<g id="a_Node000009"><a xlink:href="state__machine_8h.html" target="_top" xlink:title=" ">
<polygon fill="white" stroke="#666666" points="387.5,-77.5 290.5,-77.5 290.5,-56.75 387.5,-56.75 387.5,-77.5"/>
<text text-anchor="middle" x="339" y="-64" font-family="Helvetica,sans-Serif" font-size="10.00">state_machine.h</text>
</a>
</g>
</g>
<!-- Node1&#45;&gt;Node9 -->
<g id="edge18_Node000001_Node000009" class="edge">
<title>Node1&#45;&gt;Node9</title>
<g id="a_edge18_Node000001_Node000009"><a xlink:title=" ">
<path fill="none" stroke="#63b8ff" d="M358.96,-272.26C354.34,-225.04 343.24,-111.53 339.94,-77.76"/>
<polygon fill="#63b8ff" stroke="#63b8ff" points="355.45,-272.34 359.91,-281.95 362.42,-271.66 355.45,-272.34"/>
</a>
</g>
</g>
<!-- Node11 -->
<g id="Node000011" class="node">
<title>Node11</title>
<g id="a_Node000011"><a xlink:href="switch_8h.html" target="_top" xlink:title=" ">
<polygon fill="white" stroke="#666666" points="538.25,-247.75 481.75,-247.75 481.75,-227 538.25,-227 538.25,-247.75"/>
<text text-anchor="middle" x="510" y="-234.25" font-family="Helvetica,sans-Serif" font-size="10.00">switch.h</text>
</a>
</g>
</g>
<!-- Node1&#45;&gt;Node11 -->
<g id="edge19_Node000001_Node000011" class="edge">
<title>Node1&#45;&gt;Node11</title>
<g id="a_edge19_Node000001_Node000011"><a xlink:title=" ">
<path fill="none" stroke="#63b8ff" d="M395.74,-280.36C422.48,-270.53 458.89,-257.16 483.35,-248.17"/>
<polygon fill="#63b8ff" stroke="#63b8ff" points="394.54,-277.07 386.36,-283.81 396.95,-283.64 394.54,-277.07"/>
</a>
</g>
</g>
<!-- Node3 -->
<g id="Node000003" class="node">
<title>Node3</title>
<g id="a_Node000003"><a xlink:href="led_8c.html" target="_top" xlink:title=" ">
<polygon fill="white" stroke="#666666" points="39.62,-191 0.38,-191 0.38,-170.25 39.62,-170.25 39.62,-191"/>
<text text-anchor="middle" x="20" y="-177.5" font-family="Helvetica,sans-Serif" font-size="10.00">led.c</text>
</a>
</g>
</g>
<!-- Node2&#45;&gt;Node3 -->
<g id="edge2_Node000002_Node000003" class="edge">
<title>Node2&#45;&gt;Node3</title>
<g id="a_edge2_Node000002_Node000003"><a xlink:title=" ">
<path fill="none" stroke="#63b8ff" d="M20,-215.13C20,-206.91 20,-197.93 20,-191.33"/>
<polygon fill="#63b8ff" stroke="#63b8ff" points="16.5,-215.07 20,-225.07 23.5,-215.07 16.5,-215.07"/>
</a>
</g>
</g>
<!-- Node5&#45;&gt;Node4 -->
<g id="edge5_Node000005_Node000004" class="edge">
<title>Node5&#45;&gt;Node4</title>
<g id="a_edge5_Node000005_Node000004"><a xlink:title=" ">
<path fill="none" stroke="#63b8ff" d="M276.05,-221.22C232.03,-197.64 153.53,-147.47 125,-77.5 116.29,-56.13 137.34,-33.63 152.09,-21.16"/>
<polygon fill="#63b8ff" stroke="#63b8ff" points="274.36,-224.29 284.84,-225.81 277.59,-218.08 274.36,-224.29"/>
</a>
</g>
</g>
<!-- Node6 -->
<g id="Node000006" class="node">
<title>Node6</title>
<g id="a_Node000006"><a xlink:href="module_2inc_2vlcb_2module_8h.html" target="_top" xlink:title=" ">
<polygon fill="white" stroke="#666666" points="292.88,-134.25 231.12,-134.25 231.12,-113.5 292.88,-113.5 292.88,-134.25"/>
<text text-anchor="middle" x="262" y="-120.75" font-family="Helvetica,sans-Serif" font-size="10.00">module.h</text>
</a>
</g>
</g>
<!-- Node5&#45;&gt;Node6 -->
<g id="edge6_Node000005_Node000006" class="edge">
<title>Node5&#45;&gt;Node6</title>
<g id="a_edge6_Node000005_Node000006"><a xlink:title=" ">
<path fill="none" stroke="#63b8ff" d="M302.47,-215.9C299.2,-202.61 294.27,-185.07 288,-170.25 282.55,-157.37 274.25,-143.57 268.5,-134.61"/>
<polygon fill="#63b8ff" stroke="#63b8ff" points="298.97,-216.29 304.65,-225.24 305.78,-214.7 298.97,-216.29"/>
</a>
</g>
</g>
<!-- Node5&#45;&gt;Node8 -->
<g id="edge14_Node000005_Node000008" class="edge">
<title>Node5&#45;&gt;Node8</title>
<g id="a_edge14_Node000005_Node000008"><a xlink:title=" ">
<path fill="none" stroke="#63b8ff" d="M321.67,-218.02C343.19,-189.8 382.33,-133.16 397,-77.5 402.32,-57.32 391.17,-34.02 383.48,-21.17"/>
<polygon fill="#63b8ff" stroke="#63b8ff" points="319.17,-215.53 315.8,-225.57 324.7,-219.83 319.17,-215.53"/>
</a>
</g>
</g>
<!-- Node10 -->
<g id="Node000010" class="node">
<title>Node10</title>
<g id="a_Node000010"><a xlink:href="ui_8h.html" target="_top" xlink:title=" ">
<polygon fill="white" stroke="#666666" points="279,-191 245,-191 245,-170.25 279,-170.25 279,-191"/>
<text text-anchor="middle" x="262" y="-177.5" font-family="Helvetica,sans-Serif" font-size="10.00">ui.h</text>
</a>
</g>
</g>
<!-- Node5&#45;&gt;Node10 -->
<g id="edge15_Node000005_Node000010" class="edge">
<title>Node5&#45;&gt;Node10</title>
<g id="a_edge15_Node000005_Node000010"><a xlink:title=" ">
<path fill="none" stroke="#63b8ff" d="M291.66,-217.71C284.37,-208.84 275.97,-198.62 269.98,-191.33"/>
<polygon fill="#63b8ff" stroke="#63b8ff" points="288.94,-219.91 297.99,-225.42 294.35,-215.47 288.94,-219.91"/>
</a>
</g>
</g>
<!-- Node6&#45;&gt;Node4 -->
<g id="edge7_Node000006_Node000004" class="edge">
<title>Node6&#45;&gt;Node4</title>
<g id="a_edge7_Node000006_Node000004"><a xlink:title=" ">
<path fill="none" stroke="#63b8ff" d="M246.48,-104.76C235.05,-91.45 219.11,-72.93 205,-56.75 194.24,-44.4 181.74,-30.25 173.61,-21.08"/>
<polygon fill="#63b8ff" stroke="#63b8ff" points="243.76,-106.97 252.93,-112.28 249.08,-102.41 243.76,-106.97"/>
</a>
</g>
</g>
<!-- Node7 -->
<g id="Node000007" class="node">
<title>Node7</title>
<g id="a_Node000007"><a xlink:href="module_2src_2module_8h.html" target="_top" xlink:title=" ">
<polygon fill="white" stroke="#666666" points="195.88,-77.5 134.12,-77.5 134.12,-56.75 195.88,-56.75 195.88,-77.5"/>
<text text-anchor="middle" x="165" y="-64" font-family="Helvetica,sans-Serif" font-size="10.00">module.h</text>
</a>
</g>
</g>
<!-- Node6&#45;&gt;Node7 -->
<g id="edge8_Node000006_Node000007" class="edge">
<title>Node6&#45;&gt;Node7</title>
<g id="a_edge8_Node000006_Node000007"><a xlink:title=" ">
<path fill="none" stroke="#63b8ff" d="M234.81,-107.53C217.93,-98 196.77,-86.06 182.19,-77.83"/>
<polygon fill="#63b8ff" stroke="#63b8ff" points="232.91,-110.48 243.34,-112.34 236.35,-104.38 232.91,-110.48"/>
</a>
</g>
</g>
<!-- Node6&#45;&gt;Node8 -->
<g id="edge10_Node000006_Node000008" class="edge">
<title>Node6&#45;&gt;Node8</title>
<g id="a_edge10_Node000006_Node000008"><a xlink:title=" ">
<path fill="none" stroke="#63b8ff" d="M263.9,-102.06C266.16,-87.86 271.12,-69.42 282,-56.75 296.88,-39.42 319.88,-28.19 339.52,-21.24"/>
<polygon fill="#63b8ff" stroke="#63b8ff" points="260.46,-101.33 262.71,-111.68 267.41,-102.19 260.46,-101.33"/>
</a>
</g>
</g>
<!-- Node6&#45;&gt;Node9 -->
<g id="edge11_Node000006_Node000009" class="edge">
<title>Node6&#45;&gt;Node9</title>
<g id="a_edge11_Node000006_Node000009"><a xlink:title=" ">
<path fill="none" stroke="#63b8ff" d="M285.12,-106.44C298.24,-97.11 314.22,-85.75 325.35,-77.83"/>
<polygon fill="#63b8ff" stroke="#63b8ff" points="283.12,-103.56 277,-112.21 287.18,-109.27 283.12,-103.56"/>
</a>
</g>
</g>
<!-- Node7&#45;&gt;Node4 -->
<g id="edge9_Node000007_Node000004" class="edge">
<title>Node7&#45;&gt;Node4</title>
<g id="a_edge9_Node000007_Node000004"><a xlink:title=" ">
<path fill="none" stroke="#63b8ff" d="M165,-44.88C165,-36.66 165,-27.68 165,-21.08"/>
<polygon fill="#63b8ff" stroke="#63b8ff" points="161.5,-44.82 165,-54.82 168.5,-44.82 161.5,-44.82"/>
</a>
</g>
</g>
<!-- Node9&#45;&gt;Node4 -->
<g id="edge12_Node000009_Node000004" class="edge">
<title>Node9&#45;&gt;Node4</title>
<g id="a_edge12_Node000009_Node000004"><a xlink:title=" ">
<path fill="none" stroke="#63b8ff" d="M296.93,-52.89C265.75,-43.08 223.96,-29.93 195.84,-21.08"/>
<polygon fill="#63b8ff" stroke="#63b8ff" points="295.86,-56.22 306.45,-55.88 297.96,-49.54 295.86,-56.22"/>
</a>
</g>
</g>
<!-- Node9&#45;&gt;Node8 -->
<g id="edge13_Node000009_Node000008" class="edge">
<title>Node9&#45;&gt;Node8</title>
<g id="a_edge13_Node000009_Node000008"><a xlink:title=" ">
<path fill="none" stroke="#63b8ff" d="M352.35,-46.89C358.41,-38.16 365.31,-28.22 370.27,-21.08"/>
<polygon fill="#63b8ff" stroke="#63b8ff" points="349.48,-44.88 346.66,-55.09 355.23,-48.87 349.48,-44.88"/>
</a>
</g>
</g>
<!-- Node10&#45;&gt;Node6 -->
<g id="edge16_Node000010_Node000006" class="edge">
<title>Node10&#45;&gt;Node6</title>
<g id="a_edge16_Node000010_Node000006"><a xlink:title=" ">
<path fill="none" stroke="#63b8ff" d="M262,-158.38C262,-150.16 262,-141.18 262,-134.58"/>
<polygon fill="#63b8ff" stroke="#63b8ff" points="258.5,-158.32 262,-168.32 265.5,-158.32 258.5,-158.32"/>
</a>
</g>
</g>
</g>
</svg>
