<?xml version="1.0" encoding="UTF-8" standalone="no"?>
<!DOCTYPE svg PUBLIC "-//W3C//DTD SVG 1.1//EN"
 "http://www.w3.org/Graphics/SVG/1.1/DTD/svg11.dtd">
<!-- Generated by graphviz version 12.1.2 (20240928.0832)
 -->
<!-- Title: time.h Pages: 1 -->
<svg width="1509pt" height="369pt"
 viewBox="0.00 0.00 1509.12 369.25" xmlns="http://www.w3.org/2000/svg" xmlns:xlink="http://www.w3.org/1999/xlink">
<g id="graph0" class="graph" transform="scale(1 1) rotate(0) translate(4 365.25)">
<title>time.h</title>
<!-- Node1 -->
<g id="Node000001" class="node">
<title>Node1</title>
<g id="a_Node000001"><a xlink:title=" ">
<polygon fill="#999999" stroke="#666666" points="1157.5,-361.25 1110,-361.25 1110,-340.5 1157.5,-340.5 1157.5,-361.25"/>
<text text-anchor="middle" x="1133.75" y="-347.75" font-family="Helvetica,sans-Serif" font-size="10.00">time.h</text>
</a>
</g>
</g>
<!-- Node2 -->
<g id="Node000002" class="node">
<title>Node2</title>
<g id="a_Node000002"><a xlink:href="addr_8h.html" target="_top" xlink:title=" ">
<polygon fill="white" stroke="#666666" points="791.75,-304.5 745.75,-304.5 745.75,-283.75 791.75,-283.75 791.75,-304.5"/>
<text text-anchor="middle" x="768.75" y="-291" font-family="Helvetica,sans-Serif" font-size="10.00">addr.h</text>
</a>
</g>
</g>
<!-- Node1&#45;&gt;Node2 -->
<g id="edge1_Node000001_Node000002" class="edge">
<title>Node1&#45;&gt;Node2</title>
<g id="a_edge1_Node000001_Node000002"><a xlink:title=" ">
<path fill="none" stroke="#63b8ff" d="M1098.47,-344.58C1024.25,-333.45 853.75,-307.88 791.79,-298.58"/>
<polygon fill="#63b8ff" stroke="#63b8ff" points="1097.61,-347.99 1108.02,-346.02 1098.65,-341.07 1097.61,-347.99"/>
</a>
</g>
</g>
<!-- Node10 -->
<g id="Node000010" class="node">
<title>Node10</title>
<g id="a_Node000010"><a xlink:href="iface__can__svc_8c.html" target="_top" xlink:title=" ">
<polygon fill="white" stroke="#666666" points="432,-134.25 339.5,-134.25 339.5,-113.5 432,-113.5 432,-134.25"/>
<text text-anchor="middle" x="385.75" y="-120.75" font-family="Helvetica,sans-Serif" font-size="10.00">iface_can_svc.c</text>
</a>
</g>
</g>
<!-- Node1&#45;&gt;Node10 -->
<g id="edge48_Node000001_Node000010" class="edge">
<title>Node1&#45;&gt;Node10</title>
<g id="a_edge48_Node000001_Node000010"><a xlink:title=" ">
<path fill="none" stroke="#63b8ff" d="M1098.59,-348.24C1028.87,-344.47 868.42,-333.19 736.75,-304.5 657.27,-287.18 638.08,-278.44 562.75,-247.75 509.97,-226.25 493.53,-224.95 447.75,-191 425,-174.13 403.59,-148.29 392.88,-134.44"/>
<polygon fill="#63b8ff" stroke="#63b8ff" points="1098.08,-351.71 1108.25,-348.74 1098.44,-344.72 1098.08,-351.71"/>
</a>
</g>
</g>
<!-- Node13 -->
<g id="Node000013" class="node">
<title>Node13</title>
<g id="a_Node000013"><a xlink:href="module_8c.html" target="_top" xlink:title=" ">
<polygon fill="white" stroke="#666666" points="1276.25,-20.75 1215.25,-20.75 1215.25,0 1276.25,0 1276.25,-20.75"/>
<text text-anchor="middle" x="1245.75" y="-7.25" font-family="Helvetica,sans-Serif" font-size="10.00">module.c</text>
</a>
</g>
</g>
<!-- Node1&#45;&gt;Node13 -->
<g id="edge51_Node000001_Node000013" class="edge">
<title>Node1&#45;&gt;Node13</title>
<g id="a_edge51_Node000001_Node000013"><a xlink:title=" ">
<path fill="none" stroke="#63b8ff" d="M1169.06,-347.64C1230.77,-341.61 1351.75,-319.45 1351.75,-238.38 1351.75,-238.38 1351.75,-238.38 1351.75,-122.88 1351.75,-73.73 1296.99,-37.63 1266.19,-21.21"/>
<polygon fill="#63b8ff" stroke="#63b8ff" points="1169.08,-344.12 1159.42,-348.48 1169.69,-351.09 1169.08,-344.12"/>
</a>
</g>
</g>
<!-- Node15 -->
<g id="Node000015" class="node">
<title>Node15</title>
<g id="a_Node000015"><a xlink:href="state__machine_8c.html" target="_top" xlink:title=" ">
<polygon fill="white" stroke="#666666" points="1013.88,-20.75 917.62,-20.75 917.62,0 1013.88,0 1013.88,-20.75"/>
<text text-anchor="middle" x="965.75" y="-7.25" font-family="Helvetica,sans-Serif" font-size="10.00">state_machine.c</text>
</a>
</g>
</g>
<!-- Node1&#45;&gt;Node15 -->
<g id="edge58_Node000001_Node000015" class="edge">
<title>Node1&#45;&gt;Node15</title>
<g id="a_edge58_Node000001_Node000015"><a xlink:title=" ">
<path fill="none" stroke="#63b8ff" d="M1098.55,-342.99C1049.29,-331.08 965.75,-301.57 965.75,-238.38 965.75,-238.38 965.75,-238.38 965.75,-179.62 965.75,-119.45 965.75,-47.17 965.75,-21.24"/>
<polygon fill="#63b8ff" stroke="#63b8ff" points="1097.68,-346.38 1108.2,-345.19 1099.23,-339.56 1097.68,-346.38"/>
</a>
</g>
</g>
<!-- Node16 -->
<g id="Node000016" class="node">
<title>Node16</title>
<g id="a_Node000016"><a xlink:href="state__machine_8h.html" target="_top" xlink:title=" ">
<polygon fill="white" stroke="#666666" points="1129.25,-77.5 1032.25,-77.5 1032.25,-56.75 1129.25,-56.75 1129.25,-77.5"/>
<text text-anchor="middle" x="1080.75" y="-64" font-family="Helvetica,sans-Serif" font-size="10.00">state_machine.h</text>
</a>
</g>
</g>
<!-- Node1&#45;&gt;Node16 -->
<g id="edge59_Node000001_Node000016" class="edge">
<title>Node1&#45;&gt;Node16</title>
<g id="a_edge59_Node000001_Node000016"><a xlink:title=" ">
<path fill="none" stroke="#63b8ff" d="M1118.63,-331.32C1102.97,-310.16 1080.75,-273.9 1080.75,-238.38 1080.75,-238.38 1080.75,-238.38 1080.75,-179.62 1080.75,-142.07 1080.75,-97.4 1080.75,-77.97"/>
<polygon fill="#63b8ff" stroke="#63b8ff" points="1115.66,-333.2 1124.54,-338.97 1121.2,-328.92 1115.66,-333.2"/>
</a>
</g>
</g>
<!-- Node25 -->
<g id="Node000025" class="node">
<title>Node25</title>
<g id="a_Node000025"><a xlink:href="inc_2vlcb_2platform_2driver_2led_8h.html" target="_top" xlink:title=" ">
<polygon fill="white" stroke="#666666" points="1209.75,-304.5 1169.75,-304.5 1169.75,-283.75 1209.75,-283.75 1209.75,-304.5"/>
<text text-anchor="middle" x="1189.75" y="-291" font-family="Helvetica,sans-Serif" font-size="10.00">led.h</text>
</a>
</g>
</g>
<!-- Node1&#45;&gt;Node25 -->
<g id="edge49_Node000001_Node000025" class="edge">
<title>Node1&#45;&gt;Node25</title>
<g id="a_edge49_Node000001_Node000025"><a xlink:title=" ">
<path fill="none" stroke="#63b8ff" d="M1151.98,-332.05C1161.24,-323 1172.12,-312.36 1179.82,-304.83"/>
<polygon fill="#63b8ff" stroke="#63b8ff" points="1149.55,-329.54 1144.84,-339.03 1154.44,-334.54 1149.55,-329.54"/>
</a>
</g>
</g>
<!-- Node27 -->
<g id="Node000027" class="node">
<title>Node27</title>
<g id="a_Node000027"><a xlink:href="state_8h.html" target="_top" xlink:title=" ">
<polygon fill="white" stroke="#666666" points="1158.62,-247.75 1108.88,-247.75 1108.88,-227 1158.62,-227 1158.62,-247.75"/>
<text text-anchor="middle" x="1133.75" y="-234.25" font-family="Helvetica,sans-Serif" font-size="10.00">state.h</text>
</a>
</g>
</g>
<!-- Node1&#45;&gt;Node27 -->
<g id="edge52_Node000001_Node000027" class="edge">
<title>Node1&#45;&gt;Node27</title>
<g id="a_edge52_Node000001_Node000027"><a xlink:title=" ">
<path fill="none" stroke="#63b8ff" d="M1133.75,-328.97C1133.75,-304.84 1133.75,-266.17 1133.75,-248.18"/>
<polygon fill="#63b8ff" stroke="#63b8ff" points="1130.25,-328.85 1133.75,-338.86 1137.25,-328.86 1130.25,-328.85"/>
</a>
</g>
</g>
<!-- Node29 -->
<g id="Node000029" class="node">
<title>Node29</title>
<g id="a_Node000029"><a xlink:href="switch_8h.html" target="_top" xlink:title=" ">
<polygon fill="white" stroke="#666666" points="1436,-304.5 1379.5,-304.5 1379.5,-283.75 1436,-283.75 1436,-304.5"/>
<text text-anchor="middle" x="1407.75" y="-291" font-family="Helvetica,sans-Serif" font-size="10.00">switch.h</text>
</a>
</g>
</g>
<!-- Node1&#45;&gt;Node29 -->
<g id="edge60_Node000001_Node000029" class="edge">
<title>Node1&#45;&gt;Node29</title>
<g id="a_edge60_Node000001_Node000029"><a xlink:title=" ">
<path fill="none" stroke="#63b8ff" d="M1169.15,-343.25C1214.7,-334.66 1296.24,-319.05 1365.75,-304.5 1370.14,-303.58 1374.78,-302.58 1379.31,-301.58"/>
<polygon fill="#63b8ff" stroke="#63b8ff" points="1168.51,-339.81 1159.33,-345.1 1169.8,-346.69 1168.51,-339.81"/>
</a>
</g>
</g>
<!-- Node30 -->
<g id="Node000030" class="node">
<title>Node30</title>
<g id="a_Node000030"><a xlink:href="time_8c.html" target="_top" xlink:title=" ">
<polygon fill="white" stroke="#666666" points="1501.12,-304.5 1454.38,-304.5 1454.38,-283.75 1501.12,-283.75 1501.12,-304.5"/>
<text text-anchor="middle" x="1477.75" y="-291" font-family="Helvetica,sans-Serif" font-size="10.00">time.c</text>
</a>
</g>
</g>
<!-- Node1&#45;&gt;Node30 -->
<g id="edge61_Node000001_Node000030" class="edge">
<title>Node1&#45;&gt;Node30</title>
<g id="a_edge61_Node000001_Node000030"><a xlink:title=" ">
<path fill="none" stroke="#63b8ff" d="M1169.17,-346.25C1227.18,-339.96 1345.87,-325.66 1444.75,-304.5 1447.78,-303.85 1450.94,-303.08 1454.05,-302.26"/>
<polygon fill="#63b8ff" stroke="#63b8ff" points="1168.82,-342.77 1159.25,-347.31 1169.56,-349.73 1168.82,-342.77"/>
</a>
</g>
</g>
<!-- Node3 -->
<g id="Node000003" class="node">
<title>Node3</title>
<g id="a_Node000003"><a xlink:href="adapter_8h.html" target="_top" xlink:title=" ">
<polygon fill="white" stroke="#666666" points="285.62,-247.75 223.88,-247.75 223.88,-227 285.62,-227 285.62,-247.75"/>
<text text-anchor="middle" x="254.75" y="-234.25" font-family="Helvetica,sans-Serif" font-size="10.00">adapter.h</text>
</a>
</g>
</g>
<!-- Node2&#45;&gt;Node3 -->
<g id="edge2_Node000002_Node000003" class="edge">
<title>Node2&#45;&gt;Node3</title>
<g id="a_edge2_Node000002_Node000003"><a xlink:title=" ">
<path fill="none" stroke="#63b8ff" d="M734.11,-289.43C639.26,-279.33 376.4,-251.33 285.87,-241.69"/>
<polygon fill="#63b8ff" stroke="#63b8ff" points="733.51,-292.89 743.82,-290.47 734.25,-285.93 733.51,-292.89"/>
</a>
</g>
</g>
<!-- Node7 -->
<g id="Node000007" class="node">
<title>Node7</title>
<g id="a_Node000007"><a xlink:href="iface__can_8c.html" target="_top" xlink:title=" ">
<polygon fill="white" stroke="#666666" points="592.12,-77.5 521.38,-77.5 521.38,-56.75 592.12,-56.75 592.12,-77.5"/>
<text text-anchor="middle" x="556.75" y="-64" font-family="Helvetica,sans-Serif" font-size="10.00">iface_can.c</text>
</a>
</g>
</g>
<!-- Node2&#45;&gt;Node7 -->
<g id="edge37_Node000002_Node000007" class="edge">
<title>Node2&#45;&gt;Node7</title>
<g id="a_edge37_Node000002_Node000007"><a xlink:title=" ">
<path fill="none" stroke="#63b8ff" d="M764.6,-272.5C756.11,-235.5 733.3,-157.57 684.75,-113.5 659,-90.13 620.43,-78.62 592.36,-73.07"/>
<polygon fill="#63b8ff" stroke="#63b8ff" points="761.1,-272.86 766.63,-281.9 767.94,-271.38 761.1,-272.86"/>
</a>
</g>
</g>
<!-- Node2&#45;&gt;Node10 -->
<g id="edge38_Node000002_Node000010" class="edge">
<title>Node2&#45;&gt;Node10</title>
<g id="a_edge38_Node000002_Node000010"><a xlink:title=" ">
<path fill="none" stroke="#63b8ff" d="M734.57,-283.88C680.29,-268.53 571.84,-235.03 486.75,-191 453.43,-173.76 417.33,-148.3 398.62,-134.54"/>
<polygon fill="#63b8ff" stroke="#63b8ff" points="733.58,-287.24 744.15,-286.56 735.46,-280.5 733.58,-287.24"/>
</a>
</g>
</g>
<!-- Node20 -->
<g id="Node000020" class="node">
<title>Node20</title>
<g id="a_Node000020"><a xlink:href="addr_8c.html" target="_top" xlink:title=" ">
<polygon fill="white" stroke="#666666" points="886.38,-247.75 841.12,-247.75 841.12,-227 886.38,-227 886.38,-247.75"/>
<text text-anchor="middle" x="863.75" y="-234.25" font-family="Helvetica,sans-Serif" font-size="10.00">addr.c</text>
</a>
</g>
</g>
<!-- Node2&#45;&gt;Node20 -->
<g id="edge30_Node000002_Node000020" class="edge">
<title>Node2&#45;&gt;Node20</title>
<g id="a_edge30_Node000002_Node000020"><a xlink:title=" ">
<path fill="none" stroke="#63b8ff" d="M795.38,-277.78C811.91,-268.25 832.64,-256.31 846.91,-248.08"/>
<polygon fill="#63b8ff" stroke="#63b8ff" points="793.96,-274.56 787.05,-282.58 797.46,-280.62 793.96,-274.56"/>
</a>
</g>
</g>
<!-- Node21 -->
<g id="Node000021" class="node">
<title>Node21</title>
<g id="a_Node000021"><a xlink:href="socket_2datagram_8c.html" target="_top" xlink:title=" ">
<polygon fill="white" stroke="#666666" points="861.5,-134.25 790,-134.25 790,-113.5 861.5,-113.5 861.5,-134.25"/>
<text text-anchor="middle" x="825.75" y="-120.75" font-family="Helvetica,sans-Serif" font-size="10.00">datagram.c</text>
</a>
</g>
</g>
<!-- Node2&#45;&gt;Node21 -->
<g id="edge31_Node000002_Node000021" class="edge">
<title>Node2&#45;&gt;Node21</title>
<g id="a_edge31_Node000002_Node000021"><a xlink:title=" ">
<path fill="none" stroke="#63b8ff" d="M775.61,-272.88C787.91,-236.56 813.32,-161.58 822.42,-134.72"/>
<polygon fill="#63b8ff" stroke="#63b8ff" points="772.36,-271.57 772.46,-282.16 778.99,-273.82 772.36,-271.57"/>
</a>
</g>
</g>
<!-- Node22 -->
<g id="Node000022" class="node">
<title>Node22</title>
<g id="a_Node000022"><a xlink:href="socket_2datagram_8h.html" target="_top" xlink:title=" ">
<polygon fill="white" stroke="#666666" points="937.88,-191 865.62,-191 865.62,-170.25 937.88,-170.25 937.88,-191"/>
<text text-anchor="middle" x="901.75" y="-177.5" font-family="Helvetica,sans-Serif" font-size="10.00">datagram.h</text>
</a>
</g>
</g>
<!-- Node2&#45;&gt;Node22 -->
<g id="edge32_Node000002_Node000022" class="edge">
<title>Node2&#45;&gt;Node22</title>
<g id="a_edge32_Node000002_Node000022"><a xlink:title=" ">
<path fill="none" stroke="#63b8ff" d="M803.13,-290.77C832.64,-286.77 873.79,-276.1 895.75,-247.75 908.46,-231.35 906.26,-205.32 903.84,-191.31"/>
<polygon fill="#63b8ff" stroke="#63b8ff" points="803.11,-287.25 793.57,-291.86 803.9,-294.2 803.11,-287.25"/>
</a>
</g>
</g>
<!-- Node23 -->
<g id="Node000023" class="node">
<title>Node23</title>
<g id="a_Node000023"><a xlink:href="socket_8h.html" target="_top" xlink:title=" ">
<polygon fill="white" stroke="#666666" points="696,-247.75 639.5,-247.75 639.5,-227 696,-227 696,-247.75"/>
<text text-anchor="middle" x="667.75" y="-234.25" font-family="Helvetica,sans-Serif" font-size="10.00">socket.h</text>
</a>
</g>
</g>
<!-- Node2&#45;&gt;Node23 -->
<g id="edge39_Node000002_Node000023" class="edge">
<title>Node2&#45;&gt;Node23</title>
<g id="a_edge39_Node000002_Node000023"><a xlink:title=" ">
<path fill="none" stroke="#63b8ff" d="M740.93,-278.04C723.28,-268.48 700.97,-256.38 685.65,-248.08"/>
<polygon fill="#63b8ff" stroke="#63b8ff" points="738.9,-280.93 749.36,-282.62 742.24,-274.77 738.9,-280.93"/>
</a>
</g>
</g>
<!-- Node4 -->
<g id="Node000004" class="node">
<title>Node4</title>
<g id="a_Node000004"><a xlink:href="adapter_8c.html" target="_top" xlink:title=" ">
<polygon fill="white" stroke="#666666" points="207.25,-191 146.25,-191 146.25,-170.25 207.25,-170.25 207.25,-191"/>
<text text-anchor="middle" x="176.75" y="-177.5" font-family="Helvetica,sans-Serif" font-size="10.00">adapter.c</text>
</a>
</g>
</g>
<!-- Node3&#45;&gt;Node4 -->
<g id="edge3_Node000003_Node000004" class="edge">
<title>Node3&#45;&gt;Node4</title>
<g id="a_edge3_Node000003_Node000004"><a xlink:title=" ">
<path fill="none" stroke="#63b8ff" d="M231.72,-220.21C218.36,-210.83 201.96,-199.32 190.57,-191.33"/>
<polygon fill="#63b8ff" stroke="#63b8ff" points="229.37,-222.84 239.57,-225.72 233.39,-217.11 229.37,-222.84"/>
</a>
</g>
</g>
<!-- Node5 -->
<g id="Node000005" class="node">
<title>Node5</title>
<g id="a_Node000005"><a xlink:href="iface_8c.html" target="_top" xlink:title=" ">
<polygon fill="white" stroke="#666666" points="335.88,-77.5 287.62,-77.5 287.62,-56.75 335.88,-56.75 335.88,-77.5"/>
<text text-anchor="middle" x="311.75" y="-64" font-family="Helvetica,sans-Serif" font-size="10.00">iface.c</text>
</a>
</g>
</g>
<!-- Node3&#45;&gt;Node5 -->
<g id="edge4_Node000003_Node000005" class="edge">
<title>Node3&#45;&gt;Node5</title>
<g id="a_edge4_Node000003_Node000005"><a xlink:title=" ">
<path fill="none" stroke="#63b8ff" d="M250.77,-215.28C247.01,-189.8 244.04,-146.28 259.75,-113.5 267.1,-98.16 282.3,-85.87 294.37,-77.98"/>
<polygon fill="#63b8ff" stroke="#63b8ff" points="247.3,-215.74 252.4,-225.02 254.2,-214.58 247.3,-215.74"/>
</a>
</g>
</g>
<!-- Node6 -->
<g id="Node000006" class="node">
<title>Node6</title>
<g id="a_Node000006"><a xlink:href="iface_8h.html" target="_top" xlink:title=" ">
<polygon fill="white" stroke="#666666" points="545.25,-191 496.25,-191 496.25,-170.25 545.25,-170.25 545.25,-191"/>
<text text-anchor="middle" x="520.75" y="-177.5" font-family="Helvetica,sans-Serif" font-size="10.00">iface.h</text>
</a>
</g>
</g>
<!-- Node3&#45;&gt;Node6 -->
<g id="edge5_Node000003_Node000006" class="edge">
<title>Node3&#45;&gt;Node6</title>
<g id="a_edge5_Node000003_Node000006"><a xlink:title=" ">
<path fill="none" stroke="#63b8ff" d="M297.02,-227.67C353.11,-216.13 450.33,-196.12 495.87,-186.75"/>
<polygon fill="#63b8ff" stroke="#63b8ff" points="296.62,-224.18 287.53,-229.63 298.03,-231.04 296.62,-224.18"/>
</a>
</g>
</g>
<!-- Node3&#45;&gt;Node7 -->
<g id="edge25_Node000003_Node000007" class="edge">
<title>Node3&#45;&gt;Node7</title>
<g id="a_edge25_Node000003_Node000007"><a xlink:title=" ">
<path fill="none" stroke="#63b8ff" d="M261.46,-216.06C271.74,-188.27 294.15,-138.94 330.75,-113.5 361.14,-92.37 465.63,-78.08 521.25,-71.78"/>
<polygon fill="#63b8ff" stroke="#63b8ff" points="258.19,-214.82 258.18,-225.41 264.79,-217.13 258.19,-214.82"/>
</a>
</g>
</g>
<!-- Node8 -->
<g id="Node000008" class="node">
<title>Node8</title>
<g id="a_Node000008"><a xlink:href="iface__can_8h.html" target="_top" xlink:title=" ">
<polygon fill="white" stroke="#666666" points="207.5,-134.25 136,-134.25 136,-113.5 207.5,-113.5 207.5,-134.25"/>
<text text-anchor="middle" x="171.75" y="-120.75" font-family="Helvetica,sans-Serif" font-size="10.00">iface_can.h</text>
</a>
</g>
</g>
<!-- Node3&#45;&gt;Node8 -->
<g id="edge26_Node000003_Node000008" class="edge">
<title>Node3&#45;&gt;Node8</title>
<g id="a_edge26_Node000003_Node000008"><a xlink:title=" ">
<path fill="none" stroke="#63b8ff" d="M212.1,-231.97C185.64,-226.78 153.58,-215.51 136.75,-191 123.81,-172.16 145.2,-147.97 159.84,-134.69"/>
<polygon fill="#63b8ff" stroke="#63b8ff" points="211.47,-235.41 221.91,-233.64 212.64,-228.51 211.47,-235.41"/>
</a>
</g>
</g>
<!-- Node3&#45;&gt;Node10 -->
<g id="edge27_Node000003_Node000010" class="edge">
<title>Node3&#45;&gt;Node10</title>
<g id="a_edge27_Node000003_Node000010"><a xlink:title=" ">
<path fill="none" stroke="#63b8ff" d="M274.41,-219.64C302.13,-196.05 351.83,-153.75 374.24,-134.68"/>
<polygon fill="#63b8ff" stroke="#63b8ff" points="272.42,-216.74 267.07,-225.89 276.96,-222.07 272.42,-216.74"/>
</a>
</g>
</g>
<!-- Node18 -->
<g id="Node000018" class="node">
<title>Node18</title>
<g id="a_Node000018"><a xlink:href="packet__parse_8h.html" target="_top" xlink:title=" ">
<polygon fill="white" stroke="#666666" points="89.5,-191 0,-191 0,-170.25 89.5,-170.25 89.5,-191"/>
<text text-anchor="middle" x="44.75" y="-177.5" font-family="Helvetica,sans-Serif" font-size="10.00">packet_parse.h</text>
</a>
</g>
</g>
<!-- Node3&#45;&gt;Node18 -->
<g id="edge28_Node000003_Node000018" class="edge">
<title>Node3&#45;&gt;Node18</title>
<g id="a_edge28_Node000003_Node000018"><a xlink:title=" ">
<path fill="none" stroke="#63b8ff" d="M213.06,-225.51C175.05,-215.6 119.39,-201.08 82.62,-191.5"/>
<polygon fill="#63b8ff" stroke="#63b8ff" points="211.74,-228.78 222.3,-227.91 213.51,-222 211.74,-228.78"/>
</a>
</g>
</g>
<!-- Node6&#45;&gt;Node5 -->
<g id="edge6_Node000006_Node000005" class="edge">
<title>Node6&#45;&gt;Node5</title>
<g id="a_edge6_Node000006_Node000005"><a xlink:title=" ">
<path fill="none" stroke="#63b8ff" d="M503.21,-161.98C487.85,-147.34 464.35,-126.84 440.75,-113.5 406.65,-94.22 362.92,-80.95 336.14,-73.94"/>
<polygon fill="#63b8ff" stroke="#63b8ff" points="500.56,-164.29 510.17,-168.77 505.45,-159.28 500.56,-164.29"/>
</a>
</g>
</g>
<!-- Node6&#45;&gt;Node7 -->
<g id="edge7_Node000006_Node000007" class="edge">
<title>Node6&#45;&gt;Node7</title>
<g id="a_edge7_Node000006_Node000007"><a xlink:title=" ">
<path fill="none" stroke="#63b8ff" d="M546.42,-163.27C555.92,-155.71 565.62,-145.83 570.75,-134.25 579.11,-115.37 569.36,-91.19 562.45,-77.93"/>
<polygon fill="#63b8ff" stroke="#63b8ff" points="544.4,-160.42 538.38,-169.14 548.52,-166.07 544.4,-160.42"/>
</a>
</g>
</g>
<!-- Node6&#45;&gt;Node8 -->
<g id="edge8_Node000006_Node000008" class="edge">
<title>Node6&#45;&gt;Node8</title>
<g id="a_edge8_Node000006_Node000008"><a xlink:title=" ">
<path fill="none" stroke="#63b8ff" d="M484.72,-173.97C417.76,-163.47 274.87,-141.05 207.85,-130.54"/>
<polygon fill="#63b8ff" stroke="#63b8ff" points="484.01,-177.4 494.44,-175.5 485.1,-170.49 484.01,-177.4"/>
</a>
</g>
</g>
<!-- Node6&#45;&gt;Node10 -->
<g id="edge11_Node000006_Node000010" class="edge">
<title>Node6&#45;&gt;Node10</title>
<g id="a_edge11_Node000006_Node000010"><a xlink:title=" ">
<path fill="none" stroke="#63b8ff" d="M486.18,-165.61C462.22,-155.89 430.92,-143.19 409.68,-134.58"/>
<polygon fill="#63b8ff" stroke="#63b8ff" points="484.63,-168.75 495.21,-169.27 487.26,-162.27 484.63,-168.75"/>
</a>
</g>
</g>
<!-- Node11 -->
<g id="Node000011" class="node">
<title>Node11</title>
<g id="a_Node000011"><a xlink:href="iface__vlcb_8h.html" target="_top" xlink:title=" ">
<polygon fill="white" stroke="#666666" points="562,-134.25 487.5,-134.25 487.5,-113.5 562,-113.5 562,-134.25"/>
<text text-anchor="middle" x="524.75" y="-120.75" font-family="Helvetica,sans-Serif" font-size="10.00">iface_vlcb.h</text>
</a>
</g>
</g>
<!-- Node6&#45;&gt;Node11 -->
<g id="edge13_Node000006_Node000011" class="edge">
<title>Node6&#45;&gt;Node11</title>
<g id="a_edge13_Node000006_Node000011"><a xlink:title=" ">
<path fill="none" stroke="#63b8ff" d="M522.3,-158.38C522.9,-150.16 523.56,-141.18 524.04,-134.58"/>
<polygon fill="#63b8ff" stroke="#63b8ff" points="518.81,-158.1 521.58,-168.33 525.79,-158.61 518.81,-158.1"/>
</a>
</g>
</g>
<!-- Node12 -->
<g id="Node000012" class="node">
<title>Node12</title>
<g id="a_Node000012"><a xlink:href="module_2inc_2vlcb_2module_8h.html" target="_top" xlink:title=" ">
<polygon fill="white" stroke="#666666" points="1179.62,-134.25 1117.88,-134.25 1117.88,-113.5 1179.62,-113.5 1179.62,-134.25"/>
<text text-anchor="middle" x="1148.75" y="-120.75" font-family="Helvetica,sans-Serif" font-size="10.00">module.h</text>
</a>
</g>
</g>
<!-- Node6&#45;&gt;Node12 -->
<g id="edge16_Node000006_Node000012" class="edge">
<title>Node6&#45;&gt;Node12</title>
<g id="a_edge16_Node000006_Node000012"><a xlink:title=" ">
<path fill="none" stroke="#63b8ff" d="M557.05,-174.55C568.46,-173.05 581.12,-171.48 592.75,-170.25 792.35,-149.12 1033.18,-132.46 1117.66,-126.89"/>
<polygon fill="#63b8ff" stroke="#63b8ff" points="556.65,-171.07 547.21,-175.87 557.58,-178.01 556.65,-171.07"/>
</a>
</g>
</g>
<!-- Node17 -->
<g id="Node000017" class="node">
<title>Node17</title>
<g id="a_Node000017"><a xlink:href="net_2inc_2vlcb_2net_8h.html" target="_top" xlink:title=" ">
<polygon fill="white" stroke="#666666" points="658.12,-134.25 617.38,-134.25 617.38,-113.5 658.12,-113.5 658.12,-134.25"/>
<text text-anchor="middle" x="637.75" y="-120.75" font-family="Helvetica,sans-Serif" font-size="10.00">net.h</text>
</a>
</g>
</g>
<!-- Node6&#45;&gt;Node17 -->
<g id="edge24_Node000006_Node000017" class="edge">
<title>Node6&#45;&gt;Node17</title>
<g id="a_edge24_Node000006_Node000017"><a xlink:title=" ">
<path fill="none" stroke="#63b8ff" d="M551.84,-165.08C572.45,-155.43 598.93,-143.04 617.01,-134.58"/>
<polygon fill="#63b8ff" stroke="#63b8ff" points="550.61,-161.79 543.04,-169.2 553.58,-168.13 550.61,-161.79"/>
</a>
</g>
</g>
<!-- Node8&#45;&gt;Node5 -->
<g id="edge9_Node000008_Node000005" class="edge">
<title>Node8&#45;&gt;Node5</title>
<g id="a_edge9_Node000008_Node000005"><a xlink:title=" ">
<path fill="none" stroke="#63b8ff" d="M207.33,-108.96C232.39,-99.16 265.29,-86.29 287.41,-77.65"/>
<polygon fill="#63b8ff" stroke="#63b8ff" points="206.23,-105.63 198.19,-112.54 208.78,-112.15 206.23,-105.63"/>
</a>
</g>
</g>
<!-- Node9 -->
<g id="Node000009" class="node">
<title>Node9</title>
<g id="a_Node000009"><a xlink:href="iface__vlcb_8c.html" target="_top" xlink:title=" ">
<polygon fill="white" stroke="#666666" points="208.62,-77.5 134.88,-77.5 134.88,-56.75 208.62,-56.75 208.62,-77.5"/>
<text text-anchor="middle" x="171.75" y="-64" font-family="Helvetica,sans-Serif" font-size="10.00">iface_vlcb.c</text>
</a>
</g>
</g>
<!-- Node8&#45;&gt;Node9 -->
<g id="edge10_Node000008_Node000009" class="edge">
<title>Node8&#45;&gt;Node9</title>
<g id="a_edge10_Node000008_Node000009"><a xlink:title=" ">
<path fill="none" stroke="#63b8ff" d="M171.75,-101.63C171.75,-93.41 171.75,-84.43 171.75,-77.83"/>
<polygon fill="#63b8ff" stroke="#63b8ff" points="168.25,-101.57 171.75,-111.57 175.25,-101.57 168.25,-101.57"/>
</a>
</g>
</g>
<!-- Node10&#45;&gt;Node7 -->
<g id="edge12_Node000010_Node000007" class="edge">
<title>Node10&#45;&gt;Node7</title>
<g id="a_edge12_Node000010_Node000007"><a xlink:title=" ">
<path fill="none" stroke="#63b8ff" d="M427.06,-109.65C457.6,-99.87 498.51,-86.77 526.16,-77.92"/>
<polygon fill="#63b8ff" stroke="#63b8ff" points="426.22,-106.24 417.76,-112.63 428.35,-112.91 426.22,-106.24"/>
</a>
</g>
</g>
<!-- Node11&#45;&gt;Node5 -->
<g id="edge14_Node000011_Node000005" class="edge">
<title>Node11&#45;&gt;Node5</title>
<g id="a_edge14_Node000011_Node000005"><a xlink:title=" ">
<path fill="none" stroke="#63b8ff" d="M476.23,-110.4C432.64,-99.2 370.41,-83.2 336.35,-74.45"/>
<polygon fill="#63b8ff" stroke="#63b8ff" points="475.14,-113.74 485.69,-112.84 476.88,-106.96 475.14,-113.74"/>
</a>
</g>
</g>
<!-- Node11&#45;&gt;Node7 -->
<g id="edge15_Node000011_Node000007" class="edge">
<title>Node11&#45;&gt;Node7</title>
<g id="a_edge15_Node000011_Node000007"><a xlink:title=" ">
<path fill="none" stroke="#63b8ff" d="M536.16,-103.35C541.22,-94.7 546.95,-84.89 551.08,-77.83"/>
<polygon fill="#63b8ff" stroke="#63b8ff" points="533.26,-101.38 531.23,-111.78 539.3,-104.91 533.26,-101.38"/>
</a>
</g>
</g>
<!-- Node12&#45;&gt;Node13 -->
<g id="edge17_Node000012_Node000013" class="edge">
<title>Node12&#45;&gt;Node13</title>
<g id="a_edge17_Node000012_Node000013"><a xlink:title=" ">
<path fill="none" stroke="#63b8ff" d="M1191.21,-116.63C1214.78,-110.76 1242.19,-99.41 1256.75,-77.5 1268.22,-60.25 1258.42,-35.02 1251.38,-21.25"/>
<polygon fill="#63b8ff" stroke="#63b8ff" points="1190.52,-113.2 1181.51,-118.77 1192.02,-120.04 1190.52,-113.2"/>
</a>
</g>
</g>
<!-- Node14 -->
<g id="Node000014" class="node">
<title>Node14</title>
<g id="a_Node000014"><a xlink:href="module_2src_2module_8h.html" target="_top" xlink:title=" ">
<polygon fill="white" stroke="#666666" points="1247.62,-77.5 1185.88,-77.5 1185.88,-56.75 1247.62,-56.75 1247.62,-77.5"/>
<text text-anchor="middle" x="1216.75" y="-64" font-family="Helvetica,sans-Serif" font-size="10.00">module.h</text>
</a>
</g>
</g>
<!-- Node12&#45;&gt;Node14 -->
<g id="edge18_Node000012_Node000014" class="edge">
<title>Node12&#45;&gt;Node14</title>
<g id="a_edge18_Node000012_Node000014"><a xlink:title=" ">
<path fill="none" stroke="#63b8ff" d="M1169.85,-105.89C1181.31,-96.66 1195.06,-85.59 1204.7,-77.83"/>
<polygon fill="#63b8ff" stroke="#63b8ff" points="1167.68,-103.14 1162.09,-112.14 1172.07,-108.59 1167.68,-103.14"/>
</a>
</g>
</g>
<!-- Node12&#45;&gt;Node15 -->
<g id="edge20_Node000012_Node000015" class="edge">
<title>Node12&#45;&gt;Node15</title>
<g id="a_edge20_Node000012_Node000015"><a xlink:title=" ">
<path fill="none" stroke="#63b8ff" d="M1151.14,-102.13C1151.61,-87.69 1149.68,-68.9 1138.75,-56.75 1122.25,-38.39 1059.51,-25.33 1014.33,-18.07"/>
<polygon fill="#63b8ff" stroke="#63b8ff" points="1147.66,-101.68 1150.38,-111.92 1154.64,-102.22 1147.66,-101.68"/>
</a>
</g>
</g>
<!-- Node12&#45;&gt;Node16 -->
<g id="edge21_Node000012_Node000016" class="edge">
<title>Node12&#45;&gt;Node16</title>
<g id="a_edge21_Node000012_Node000016"><a xlink:title=" ">
<path fill="none" stroke="#63b8ff" d="M1127.65,-105.89C1116.19,-96.66 1102.44,-85.59 1092.8,-77.83"/>
<polygon fill="#63b8ff" stroke="#63b8ff" points="1125.43,-108.59 1135.41,-112.14 1129.82,-103.14 1125.43,-108.59"/>
</a>
</g>
</g>
<!-- Node14&#45;&gt;Node13 -->
<g id="edge19_Node000014_Node000013" class="edge">
<title>Node14&#45;&gt;Node13</title>
<g id="a_edge19_Node000014_Node000013"><a xlink:title=" ">
<path fill="none" stroke="#63b8ff" d="M1227.24,-46.32C1231.79,-37.73 1236.91,-28.06 1240.61,-21.08"/>
<polygon fill="#63b8ff" stroke="#63b8ff" points="1224.23,-44.52 1222.64,-55 1230.42,-47.8 1224.23,-44.52"/>
</a>
</g>
</g>
<!-- Node16&#45;&gt;Node13 -->
<g id="edge22_Node000016_Node000013" class="edge">
<title>Node16&#45;&gt;Node13</title>
<g id="a_edge22_Node000016_Node000013"><a xlink:title=" ">
<path fill="none" stroke="#63b8ff" d="M1121,-52.77C1150.42,-43.01 1189.67,-29.98 1216.23,-21.17"/>
<polygon fill="#63b8ff" stroke="#63b8ff" points="1120.07,-49.39 1111.69,-55.86 1122.28,-56.03 1120.07,-49.39"/>
</a>
</g>
</g>
<!-- Node16&#45;&gt;Node15 -->
<g id="edge23_Node000016_Node000015" class="edge">
<title>Node16&#45;&gt;Node15</title>
<g id="a_edge23_Node000016_Node000015"><a xlink:title=" ">
<path fill="none" stroke="#63b8ff" d="M1049.92,-51.45C1029.69,-41.82 1003.82,-29.5 986.13,-21.08"/>
<polygon fill="#63b8ff" stroke="#63b8ff" points="1048.29,-54.55 1058.82,-55.69 1051.3,-48.23 1048.29,-54.55"/>
</a>
</g>
</g>
<!-- Node19 -->
<g id="Node000019" class="node">
<title>Node19</title>
<g id="a_Node000019"><a xlink:href="packet__parse_8c.html" target="_top" xlink:title=" ">
<polygon fill="white" stroke="#666666" points="89.12,-134.25 0.38,-134.25 0.38,-113.5 89.12,-113.5 89.12,-134.25"/>
<text text-anchor="middle" x="44.75" y="-120.75" font-family="Helvetica,sans-Serif" font-size="10.00">packet_parse.c</text>
</a>
</g>
</g>
<!-- Node18&#45;&gt;Node19 -->
<g id="edge29_Node000018_Node000019" class="edge">
<title>Node18&#45;&gt;Node19</title>
<g id="a_edge29_Node000018_Node000019"><a xlink:title=" ">
<path fill="none" stroke="#63b8ff" d="M44.75,-158.38C44.75,-150.16 44.75,-141.18 44.75,-134.58"/>
<polygon fill="#63b8ff" stroke="#63b8ff" points="41.25,-158.32 44.75,-168.32 48.25,-158.32 41.25,-158.32"/>
</a>
</g>
</g>
<!-- Node22&#45;&gt;Node12 -->
<g id="edge35_Node000022_Node000012" class="edge">
<title>Node22&#45;&gt;Node12</title>
<g id="a_edge35_Node000022_Node000012"><a xlink:title=" ">
<path fill="none" stroke="#63b8ff" d="M949.27,-169.09C998.87,-158.1 1075.22,-141.17 1117.63,-131.77"/>
<polygon fill="#63b8ff" stroke="#63b8ff" points="948.68,-165.64 939.67,-171.22 950.19,-172.47 948.68,-165.64"/>
</a>
</g>
</g>
<!-- Node22&#45;&gt;Node13 -->
<g id="edge34_Node000022_Node000013" class="edge">
<title>Node22&#45;&gt;Node13</title>
<g id="a_edge34_Node000022_Node000013"><a xlink:title=" ">
<path fill="none" stroke="#63b8ff" d="M914.74,-160.77C934.76,-133.27 975.91,-82.6 1023.75,-56.75 1085.88,-23.19 1170.03,-14.38 1214.77,-12.12"/>
<polygon fill="#63b8ff" stroke="#63b8ff" points="911.94,-158.67 909,-168.85 917.65,-162.72 911.94,-158.67"/>
</a>
</g>
</g>
<!-- Node22&#45;&gt;Node15 -->
<g id="edge36_Node000022_Node000015" class="edge">
<title>Node22&#45;&gt;Node15</title>
<g id="a_edge36_Node000022_Node000015"><a xlink:title=" ">
<path fill="none" stroke="#63b8ff" d="M899.3,-158.8C897.26,-133.26 896.97,-89.36 913.75,-56.75 921.59,-41.52 936.9,-29.14 948.88,-21.19"/>
<polygon fill="#63b8ff" stroke="#63b8ff" points="895.79,-158.92 900.26,-168.52 902.76,-158.23 895.79,-158.92"/>
</a>
</g>
</g>
<!-- Node22&#45;&gt;Node21 -->
<g id="edge33_Node000022_Node000021" class="edge">
<title>Node22&#45;&gt;Node21</title>
<g id="a_edge33_Node000022_Node000021"><a xlink:title=" ">
<path fill="none" stroke="#63b8ff" d="M878.93,-163.19C865.98,-153.86 850.21,-142.5 839.22,-134.58"/>
<polygon fill="#63b8ff" stroke="#63b8ff" points="876.78,-165.95 886.93,-168.95 880.87,-160.27 876.78,-165.95"/>
</a>
</g>
</g>
<!-- Node23&#45;&gt;Node5 -->
<g id="edge42_Node000023_Node000005" class="edge">
<title>Node23&#45;&gt;Node5</title>
<g id="a_edge42_Node000023_Node000005"><a xlink:title=" ">
<path fill="none" stroke="#63b8ff" d="M627.91,-236.45C557.26,-234.29 410,-219.18 330.75,-134.25 316.08,-118.53 312.65,-92.23 311.9,-77.99"/>
<polygon fill="#63b8ff" stroke="#63b8ff" points="627.79,-239.94 637.86,-236.67 627.94,-232.94 627.79,-239.94"/>
</a>
</g>
</g>
<!-- Node23&#45;&gt;Node6 -->
<g id="edge43_Node000023_Node000006" class="edge">
<title>Node23&#45;&gt;Node6</title>
<g id="a_edge43_Node000023_Node000006"><a xlink:title=" ">
<path fill="none" stroke="#63b8ff" d="M630.96,-222.67C604.21,-212.71 568.72,-199.49 545.34,-190.78"/>
<polygon fill="#63b8ff" stroke="#63b8ff" points="629.46,-225.85 640.05,-226.06 631.9,-219.29 629.46,-225.85"/>
</a>
</g>
</g>
<!-- Node23&#45;&gt;Node7 -->
<g id="edge44_Node000023_Node000007" class="edge">
<title>Node23&#45;&gt;Node7</title>
<g id="a_edge44_Node000023_Node000007"><a xlink:title=" ">
<path fill="none" stroke="#63b8ff" d="M673.96,-215.88C680.56,-189.72 687.46,-144.18 666.75,-113.5 650.22,-89.02 617.83,-77.73 592.46,-72.53"/>
<polygon fill="#63b8ff" stroke="#63b8ff" points="670.66,-214.69 671.36,-225.26 677.4,-216.56 670.66,-214.69"/>
</a>
</g>
</g>
<!-- Node23&#45;&gt;Node15 -->
<g id="edge47_Node000023_Node000015" class="edge">
<title>Node23&#45;&gt;Node15</title>
<g id="a_edge47_Node000023_Node000015"><a xlink:title=" ">
<path fill="none" stroke="#63b8ff" d="M681.72,-217.74C701.64,-192.03 740.31,-145.27 780.75,-113.5 833.84,-71.8 906.18,-37.29 942.68,-21.17"/>
<polygon fill="#63b8ff" stroke="#63b8ff" points="679.02,-215.5 675.73,-225.58 684.58,-219.75 679.02,-215.5"/>
</a>
</g>
</g>
<!-- Node23&#45;&gt;Node17 -->
<g id="edge45_Node000023_Node000017" class="edge">
<title>Node23&#45;&gt;Node17</title>
<g id="a_edge45_Node000023_Node000017"><a xlink:title=" ">
<path fill="none" stroke="#63b8ff" d="M629.24,-222.57C615.17,-215.44 600.75,-205.19 592.75,-191 580.95,-170.07 605.65,-147.23 622.91,-134.62"/>
<polygon fill="#63b8ff" stroke="#63b8ff" points="627.41,-225.58 637.96,-226.59 630.34,-219.23 627.41,-225.58"/>
</a>
</g>
</g>
<!-- Node23&#45;&gt;Node21 -->
<g id="edge40_Node000023_Node000021" class="edge">
<title>Node23&#45;&gt;Node21</title>
<g id="a_edge40_Node000023_Node000021"><a xlink:title=" ">
<path fill="none" stroke="#63b8ff" d="M706.91,-225.47C728.66,-218.12 755.37,-206.83 775.75,-191 796.21,-175.1 812.62,-148.87 820.56,-134.7"/>
<polygon fill="#63b8ff" stroke="#63b8ff" points="705.93,-222.11 697.48,-228.5 708.07,-228.78 705.93,-222.11"/>
</a>
</g>
</g>
<!-- Node23&#45;&gt;Node22 -->
<g id="edge41_Node000023_Node000022" class="edge">
<title>Node23&#45;&gt;Node22</title>
<g id="a_edge41_Node000023_Node000022"><a xlink:title=" ">
<path fill="none" stroke="#63b8ff" d="M707.64,-227.04C751.92,-216.68 822.77,-200.1 865.52,-190.1"/>
<polygon fill="#63b8ff" stroke="#63b8ff" points="706.86,-223.63 697.92,-229.32 708.45,-230.45 706.86,-223.63"/>
</a>
</g>
</g>
<!-- Node24 -->
<g id="Node000024" class="node">
<title>Node24</title>
<g id="a_Node000024"><a xlink:href="socket_8c.html" target="_top" xlink:title=" ">
<polygon fill="white" stroke="#666666" points="657.62,-191 601.88,-191 601.88,-170.25 657.62,-170.25 657.62,-191"/>
<text text-anchor="middle" x="629.75" y="-177.5" font-family="Helvetica,sans-Serif" font-size="10.00">socket.c</text>
</a>
</g>
</g>
<!-- Node23&#45;&gt;Node24 -->
<g id="edge46_Node000023_Node000024" class="edge">
<title>Node23&#45;&gt;Node24</title>
<g id="a_edge46_Node000023_Node000024"><a xlink:title=" ">
<path fill="none" stroke="#63b8ff" d="M654.4,-217.14C648.34,-208.41 641.44,-198.47 636.48,-191.33"/>
<polygon fill="#63b8ff" stroke="#63b8ff" points="651.52,-219.12 660.09,-225.34 657.27,-215.13 651.52,-219.12"/>
</a>
</g>
</g>
<!-- Node26 -->
<g id="Node000026" class="node">
<title>Node26</title>
<g id="a_Node000026"><a xlink:href="led_8c.html" target="_top" xlink:title=" ">
<polygon fill="white" stroke="#666666" points="1216.38,-247.75 1177.12,-247.75 1177.12,-227 1216.38,-227 1216.38,-247.75"/>
<text text-anchor="middle" x="1196.75" y="-234.25" font-family="Helvetica,sans-Serif" font-size="10.00">led.c</text>
</a>
</g>
</g>
<!-- Node25&#45;&gt;Node26 -->
<g id="edge50_Node000025_Node000026" class="edge">
<title>Node25&#45;&gt;Node26</title>
<g id="a_edge50_Node000025_Node000026"><a xlink:title=" ">
<path fill="none" stroke="#63b8ff" d="M1192.43,-272.17C1193.49,-263.88 1194.66,-254.75 1195.51,-248.08"/>
<polygon fill="#63b8ff" stroke="#63b8ff" points="1188.99,-271.47 1191.19,-281.84 1195.93,-272.36 1188.99,-271.47"/>
</a>
</g>
</g>
<!-- Node27&#45;&gt;Node12 -->
<g id="edge54_Node000027_Node000012" class="edge">
<title>Node27&#45;&gt;Node12</title>
<g id="a_edge54_Node000027_Node000012"><a xlink:title=" ">
<path fill="none" stroke="#63b8ff" d="M1145.57,-216.92C1149.65,-209.14 1153.7,-199.93 1155.75,-191 1160.3,-171.2 1155.28,-147.37 1151.71,-134.41"/>
<polygon fill="#63b8ff" stroke="#63b8ff" points="1142.63,-215.02 1140.75,-225.45 1148.72,-218.46 1142.63,-215.02"/>
</a>
</g>
</g>
<!-- Node27&#45;&gt;Node13 -->
<g id="edge53_Node000027_Node000013" class="edge">
<title>Node27&#45;&gt;Node13</title>
<g id="a_edge53_Node000027_Node000013"><a xlink:title=" ">
<path fill="none" stroke="#63b8ff" d="M1156.14,-219.93C1189.3,-194.01 1250.1,-140.1 1273.75,-77.5 1281.42,-57.21 1265.73,-33.95 1254.89,-21.14"/>
<polygon fill="#63b8ff" stroke="#63b8ff" points="1154.21,-217 1148.39,-225.85 1158.46,-222.56 1154.21,-217"/>
</a>
</g>
</g>
<!-- Node27&#45;&gt;Node15 -->
<g id="edge55_Node000027_Node000015" class="edge">
<title>Node27&#45;&gt;Node15</title>
<g id="a_edge55_Node000027_Node000015"><a xlink:title=" ">
<path fill="none" stroke="#63b8ff" d="M1119.71,-217.58C1085.46,-171.7 998.53,-55.28 972.94,-21.01"/>
<polygon fill="#63b8ff" stroke="#63b8ff" points="1116.84,-219.58 1125.63,-225.49 1122.45,-215.39 1116.84,-219.58"/>
</a>
</g>
</g>
<!-- Node28 -->
<g id="Node000028" class="node">
<title>Node28</title>
<g id="a_Node000028"><a xlink:href="ui_8h.html" target="_top" xlink:title=" ">
<polygon fill="white" stroke="#666666" points="1146.75,-191 1112.75,-191 1112.75,-170.25 1146.75,-170.25 1146.75,-191"/>
<text text-anchor="middle" x="1129.75" y="-177.5" font-family="Helvetica,sans-Serif" font-size="10.00">ui.h</text>
</a>
</g>
</g>
<!-- Node27&#45;&gt;Node28 -->
<g id="edge56_Node000027_Node000028" class="edge">
<title>Node27&#45;&gt;Node28</title>
<g id="a_edge56_Node000027_Node000028"><a xlink:title=" ">
<path fill="none" stroke="#63b8ff" d="M1132.2,-215.13C1131.6,-206.91 1130.94,-197.93 1130.46,-191.33"/>
<polygon fill="#63b8ff" stroke="#63b8ff" points="1128.71,-215.36 1132.92,-225.08 1135.69,-214.85 1128.71,-215.36"/>
</a>
</g>
</g>
<!-- Node28&#45;&gt;Node12 -->
<g id="edge57_Node000028_Node000012" class="edge">
<title>Node28&#45;&gt;Node12</title>
<g id="a_edge57_Node000028_Node000012"><a xlink:title=" ">
<path fill="none" stroke="#63b8ff" d="M1136.82,-159.24C1139.75,-150.8 1143.01,-141.41 1145.38,-134.58"/>
<polygon fill="#63b8ff" stroke="#63b8ff" points="1133.62,-157.81 1133.64,-168.41 1140.23,-160.11 1133.62,-157.81"/>
</a>
</g>
</g>
</g>
</svg>
