<?xml version="1.0" encoding="UTF-8" standalone="no"?>
<!DOCTYPE svg PUBLIC "-//W3C//DTD SVG 1.1//EN"
 "http://www.w3.org/Graphics/SVG/1.1/DTD/svg11.dtd">
<!-- Generated by graphviz version 12.1.2 (20240928.0832)
 -->
<!-- Title: time.c Pages: 1 -->
<svg width="135pt" height="142pt"
 viewBox="0.00 0.00 135.25 142.25" xmlns="http://www.w3.org/2000/svg" xmlns:xlink="http://www.w3.org/1999/xlink">
<g id="graph0" class="graph" transform="scale(1 1) rotate(0) translate(4 138.25)">
<title>time.c</title>
<!-- Node1 -->
<g id="Node000001" class="node">
<title>Node1</title>
<g id="a_Node000001"><a xlink:title=" ">
<polygon fill="#999999" stroke="#666666" points="124.25,-134.25 77.5,-134.25 77.5,-113.5 124.25,-113.5 124.25,-134.25"/>
<text text-anchor="middle" x="100.88" y="-120.75" font-family="Helvetica,sans-Serif" font-size="10.00">time.c</text>
</a>
</g>
</g>
<!-- Node2 -->
<g id="Node000002" class="node">
<title>Node2</title>
<g id="a_Node000002"><a xlink:href="time_8h.html" target="_top" xlink:title=" ">
<polygon fill="white" stroke="#666666" points="115.75,-77.5 0,-77.5 0,-56.75 115.75,-56.75 115.75,-77.5"/>
<text text-anchor="middle" x="57.88" y="-64" font-family="Helvetica,sans-Serif" font-size="10.00">vlcb/platform/time.h</text>
</a>
</g>
</g>
<!-- Node1&#45;&gt;Node2 -->
<g id="edge1_Node000001_Node000002" class="edge">
<title>Node1&#45;&gt;Node2</title>
<g id="a_edge1_Node000001_Node000002"><a xlink:title=" ">
<path fill="none" stroke="#63b8ff" d="M93.19,-113.09C87.44,-105.77 79.41,-95.54 72.46,-86.69"/>
<polygon fill="#63b8ff" stroke="#63b8ff" points="75.36,-84.72 66.43,-79.02 69.85,-89.05 75.36,-84.72"/>
</a>
</g>
</g>
<!-- Node3 -->
<g id="Node000003" class="node">
<title>Node3</title>
<g id="a_Node000003"><a xlink:title=" ">
<polygon fill="#e0e0e0" stroke="#999999" points="127.25,-20.75 74.5,-20.75 74.5,0 127.25,0 127.25,-20.75"/>
<text text-anchor="middle" x="100.88" y="-7.25" font-family="Helvetica,sans-Serif" font-size="10.00">stdint.h</text>
</a>
</g>
</g>
<!-- Node1&#45;&gt;Node3 -->
<g id="edge3_Node000001_Node000003" class="edge">
<title>Node1&#45;&gt;Node3</title>
<g id="a_edge3_Node000001_Node000003"><a xlink:title=" ">
<path fill="none" stroke="#63b8ff" d="M107.92,-113C113.76,-104.18 121.61,-90.65 124.88,-77.5 127.1,-68.55 127.1,-65.7 124.88,-56.75 122.66,-47.81 118.32,-38.7 113.94,-31.01"/>
<polygon fill="#63b8ff" stroke="#63b8ff" points="116.94,-29.21 108.72,-22.54 110.98,-32.89 116.94,-29.21"/>
</a>
</g>
</g>
<!-- Node2&#45;&gt;Node3 -->
<g id="edge2_Node000002_Node000003" class="edge">
<title>Node2&#45;&gt;Node3</title>
<g id="a_edge2_Node000002_Node000003"><a xlink:title=" ">
<path fill="none" stroke="#63b8ff" d="M65.56,-56.34C71.31,-49.02 79.34,-38.79 86.29,-29.94"/>
<polygon fill="#63b8ff" stroke="#63b8ff" points="88.9,-32.3 92.32,-22.27 83.39,-27.97 88.9,-32.3"/>
</a>
</g>
</g>
</g>
</svg>
