<?xml version="1.0" encoding="UTF-8" standalone="no"?>
<!DOCTYPE svg PUBLIC "-//W3C//DTD SVG 1.1//EN"
 "http://www.w3.org/Graphics/SVG/1.1/DTD/svg11.dtd">
<!-- Generated by graphviz version 12.1.2 (20240928.0832)
 -->
<!-- Title: ui.h Pages: 1 -->
<svg width="235pt" height="199pt"
 viewBox="0.00 0.00 235.01 199.00" xmlns="http://www.w3.org/2000/svg" xmlns:xlink="http://www.w3.org/1999/xlink">
<g id="graph0" class="graph" transform="scale(1 1) rotate(0) translate(4 195)">
<title>ui.h</title>
<!-- Node1 -->
<g id="Node000001" class="node">
<title>Node1</title>
<g id="a_Node000001"><a xlink:title=" ">
<polygon fill="#999999" stroke="#666666" points="108.89,-191 74.89,-191 74.89,-170.25 108.89,-170.25 108.89,-191"/>
<text text-anchor="middle" x="91.89" y="-177.5" font-family="Helvetica,sans-Serif" font-size="10.00">ui.h</text>
</a>
</g>
</g>
<!-- Node2 -->
<g id="Node000002" class="node">
<title>Node2</title>
<g id="a_Node000002"><a xlink:href="module_2inc_2vlcb_2module_8h.html" target="_top" xlink:title=" ">
<polygon fill="white" stroke="#666666" points="122.76,-134.25 61.01,-134.25 61.01,-113.5 122.76,-113.5 122.76,-134.25"/>
<text text-anchor="middle" x="91.89" y="-120.75" font-family="Helvetica,sans-Serif" font-size="10.00">module.h</text>
</a>
</g>
</g>
<!-- Node1&#45;&gt;Node2 -->
<g id="edge1_Node000001_Node000002" class="edge">
<title>Node1&#45;&gt;Node2</title>
<g id="a_edge1_Node000001_Node000002"><a xlink:title=" ">
<path fill="none" stroke="#63b8ff" d="M91.89,-158.38C91.89,-150.16 91.89,-141.18 91.89,-134.58"/>
<polygon fill="#63b8ff" stroke="#63b8ff" points="88.39,-158.32 91.89,-168.32 95.39,-158.32 88.39,-158.32"/>
</a>
</g>
</g>
<!-- Node3 -->
<g id="Node000003" class="node">
<title>Node3</title>
<g id="a_Node000003"><a xlink:href="module_8c.html" target="_top" xlink:title=" ">
<polygon fill="white" stroke="#666666" points="74.39,-20.75 13.39,-20.75 13.39,0 74.39,0 74.39,-20.75"/>
<text text-anchor="middle" x="43.89" y="-7.25" font-family="Helvetica,sans-Serif" font-size="10.00">module.c</text>
</a>
</g>
</g>
<!-- Node2&#45;&gt;Node3 -->
<g id="edge2_Node000002_Node000003" class="edge">
<title>Node2&#45;&gt;Node3</title>
<g id="a_edge2_Node000002_Node000003"><a xlink:title=" ">
<path fill="none" stroke="#63b8ff" d="M50.24,-111.98C32.74,-105.11 14.11,-94.27 3.89,-77.5 -8.26,-57.57 14.58,-34.18 30.47,-21.25"/>
<polygon fill="#63b8ff" stroke="#63b8ff" points="48.88,-115.21 59.48,-115.25 51.22,-108.61 48.88,-115.21"/>
</a>
</g>
</g>
<!-- Node4 -->
<g id="Node000004" class="node">
<title>Node4</title>
<g id="a_Node000004"><a xlink:href="module_2src_2module_8h.html" target="_top" xlink:title=" ">
<polygon fill="white" stroke="#666666" points="74.76,-77.5 13.01,-77.5 13.01,-56.75 74.76,-56.75 74.76,-77.5"/>
<text text-anchor="middle" x="43.89" y="-64" font-family="Helvetica,sans-Serif" font-size="10.00">module.h</text>
</a>
</g>
</g>
<!-- Node2&#45;&gt;Node4 -->
<g id="edge3_Node000002_Node000004" class="edge">
<title>Node2&#45;&gt;Node4</title>
<g id="a_edge3_Node000002_Node000004"><a xlink:title=" ">
<path fill="none" stroke="#63b8ff" d="M75.77,-104.49C67.94,-95.56 58.86,-85.2 52.39,-77.83"/>
<polygon fill="#63b8ff" stroke="#63b8ff" points="73.08,-106.74 82.31,-111.95 78.35,-102.12 73.08,-106.74"/>
</a>
</g>
</g>
<!-- Node5 -->
<g id="Node000005" class="node">
<title>Node5</title>
<g id="a_Node000005"><a xlink:href="state__machine_8c.html" target="_top" xlink:title=" ">
<polygon fill="white" stroke="#666666" points="227.01,-20.75 130.76,-20.75 130.76,0 227.01,0 227.01,-20.75"/>
<text text-anchor="middle" x="178.89" y="-7.25" font-family="Helvetica,sans-Serif" font-size="10.00">state_machine.c</text>
</a>
</g>
</g>
<!-- Node2&#45;&gt;Node5 -->
<g id="edge5_Node000002_Node000005" class="edge">
<title>Node2&#45;&gt;Node5</title>
<g id="a_edge5_Node000002_Node000005"><a xlink:title=" ">
<path fill="none" stroke="#63b8ff" d="M134.2,-116.46C157.5,-110.54 184.53,-99.19 198.89,-77.5 210.67,-59.7 196.4,-34.68 186.61,-21.09"/>
<polygon fill="#63b8ff" stroke="#63b8ff" points="133.6,-113.01 124.61,-118.63 135.14,-119.84 133.6,-113.01"/>
</a>
</g>
</g>
<!-- Node6 -->
<g id="Node000006" class="node">
<title>Node6</title>
<g id="a_Node000006"><a xlink:href="state__machine_8h.html" target="_top" xlink:title=" ">
<polygon fill="white" stroke="#666666" points="189.39,-77.5 92.39,-77.5 92.39,-56.75 189.39,-56.75 189.39,-77.5"/>
<text text-anchor="middle" x="140.89" y="-64" font-family="Helvetica,sans-Serif" font-size="10.00">state_machine.h</text>
</a>
</g>
</g>
<!-- Node2&#45;&gt;Node6 -->
<g id="edge6_Node000002_Node000006" class="edge">
<title>Node2&#45;&gt;Node6</title>
<g id="a_edge6_Node000002_Node000006"><a xlink:title=" ">
<path fill="none" stroke="#63b8ff" d="M108.09,-104.77C116.14,-95.78 125.53,-85.28 132.2,-77.83"/>
<polygon fill="#63b8ff" stroke="#63b8ff" points="105.72,-102.17 101.66,-111.96 110.93,-106.84 105.72,-102.17"/>
</a>
</g>
</g>
<!-- Node4&#45;&gt;Node3 -->
<g id="edge4_Node000004_Node000003" class="edge">
<title>Node4&#45;&gt;Node3</title>
<g id="a_edge4_Node000004_Node000003"><a xlink:title=" ">
<path fill="none" stroke="#63b8ff" d="M43.89,-44.88C43.89,-36.66 43.89,-27.68 43.89,-21.08"/>
<polygon fill="#63b8ff" stroke="#63b8ff" points="40.39,-44.82 43.89,-54.82 47.39,-44.82 40.39,-44.82"/>
</a>
</g>
</g>
<!-- Node6&#45;&gt;Node3 -->
<g id="edge7_Node000006_Node000003" class="edge">
<title>Node6&#45;&gt;Node3</title>
<g id="a_edge7_Node000006_Node000003"><a xlink:title=" ">
<path fill="none" stroke="#63b8ff" d="M113.69,-50.78C96.82,-41.25 75.66,-29.31 61.08,-21.08"/>
<polygon fill="#63b8ff" stroke="#63b8ff" points="111.8,-53.73 122.23,-55.59 115.24,-47.63 111.8,-53.73"/>
</a>
</g>
</g>
<!-- Node6&#45;&gt;Node5 -->
<g id="edge8_Node000006_Node000005" class="edge">
<title>Node6&#45;&gt;Node5</title>
<g id="a_edge8_Node000006_Node000005"><a xlink:title=" ">
<path fill="none" stroke="#63b8ff" d="M154.24,-46.89C160.3,-38.16 167.2,-28.22 172.15,-21.08"/>
<polygon fill="#63b8ff" stroke="#63b8ff" points="151.37,-44.88 148.54,-55.09 157.12,-48.87 151.37,-44.88"/>
</a>
</g>
</g>
</g>
</svg>
