<?xml version="1.0" encoding="UTF-8" standalone="no"?>
<!DOCTYPE svg PUBLIC "-//W3C//DTD SVG 1.1//EN"
 "http://www.w3.org/Graphics/SVG/1.1/DTD/svg11.dtd">
<!-- Generated by graphviz version 12.1.2 (20240928.0832)
 -->
<!-- Title: ui.h Pages: 1 -->
<svg width="390pt" height="199pt"
 viewBox="0.00 0.00 390.38 199.00" xmlns="http://www.w3.org/2000/svg" xmlns:xlink="http://www.w3.org/1999/xlink">
<g id="graph0" class="graph" transform="scale(1 1) rotate(0) translate(4 195)">
<title>ui.h</title>
<!-- Node1 -->
<g id="Node000001" class="node">
<title>Node1</title>
<g id="a_Node000001"><a xlink:title=" ">
<polygon fill="#999999" stroke="#666666" points="256,-191 222,-191 222,-170.25 256,-170.25 256,-191"/>
<text text-anchor="middle" x="239" y="-177.5" font-family="Helvetica,sans-Serif" font-size="10.00">ui.h</text>
</a>
</g>
</g>
<!-- Node2 -->
<g id="Node000002" class="node">
<title>Node2</title>
<g id="a_Node000002"><a xlink:href="state_8h.html" target="_top" xlink:title=" ">
<polygon fill="white" stroke="#666666" points="224.38,-134.25 111.62,-134.25 111.62,-113.5 224.38,-113.5 224.38,-134.25"/>
<text text-anchor="middle" x="168" y="-120.75" font-family="Helvetica,sans-Serif" font-size="10.00">vlcb/module/state.h</text>
</a>
</g>
</g>
<!-- Node1&#45;&gt;Node2 -->
<g id="edge1_Node000001_Node000002" class="edge">
<title>Node1&#45;&gt;Node2</title>
<g id="a_edge1_Node000001_Node000002"><a xlink:title=" ">
<path fill="none" stroke="#63b8ff" d="M226.31,-169.84C216.11,-161.97 201.56,-150.75 189.54,-141.49"/>
<polygon fill="#63b8ff" stroke="#63b8ff" points="191.84,-138.84 181.78,-135.5 187.56,-144.38 191.84,-138.84"/>
</a>
</g>
</g>
<!-- Node7 -->
<g id="Node000007" class="node">
<title>Node7</title>
<g id="a_Node000007"><a xlink:href="interface_8h.html" target="_top" xlink:title=" ">
<polygon fill="white" stroke="#666666" points="382.38,-134.25 245.62,-134.25 245.62,-113.5 382.38,-113.5 382.38,-134.25"/>
<text text-anchor="middle" x="314" y="-120.75" font-family="Helvetica,sans-Serif" font-size="10.00">vlcb/platform/interface.h</text>
</a>
</g>
</g>
<!-- Node1&#45;&gt;Node7 -->
<g id="edge7_Node000001_Node000007" class="edge">
<title>Node1&#45;&gt;Node7</title>
<g id="a_edge7_Node000001_Node000007"><a xlink:title=" ">
<path fill="none" stroke="#63b8ff" d="M252.41,-169.84C263.29,-161.9 278.86,-150.53 291.62,-141.21"/>
<polygon fill="#63b8ff" stroke="#63b8ff" points="293.47,-144.19 299.49,-135.47 289.34,-138.54 293.47,-144.19"/>
</a>
</g>
</g>
<!-- Node3 -->
<g id="Node000003" class="node">
<title>Node3</title>
<g id="a_Node000003"><a xlink:href="node_8h.html" target="_top" xlink:title=" ">
<polygon fill="white" stroke="#666666" points="118,-77.5 0,-77.5 0,-56.75 118,-56.75 118,-77.5"/>
<text text-anchor="middle" x="59" y="-64" font-family="Helvetica,sans-Serif" font-size="10.00">vlcb/common/node.h</text>
</a>
</g>
</g>
<!-- Node2&#45;&gt;Node3 -->
<g id="edge2_Node000002_Node000003" class="edge">
<title>Node2&#45;&gt;Node3</title>
<g id="a_edge2_Node000002_Node000003"><a xlink:title=" ">
<path fill="none" stroke="#63b8ff" d="M148.51,-113.09C131.85,-104.72 107.62,-92.54 88.56,-82.97"/>
<polygon fill="#63b8ff" stroke="#63b8ff" points="90.18,-79.87 79.67,-78.51 87.04,-86.12 90.18,-79.87"/>
</a>
</g>
</g>
<!-- Node5 -->
<g id="Node000005" class="node">
<title>Node5</title>
<g id="a_Node000005"><a xlink:title=" ">
<polygon fill="#e0e0e0" stroke="#999999" points="188.38,-77.5 135.62,-77.5 135.62,-56.75 188.38,-56.75 188.38,-77.5"/>
<text text-anchor="middle" x="162" y="-64" font-family="Helvetica,sans-Serif" font-size="10.00">stdint.h</text>
</a>
</g>
</g>
<!-- Node2&#45;&gt;Node5 -->
<g id="edge4_Node000002_Node000005" class="edge">
<title>Node2&#45;&gt;Node5</title>
<g id="a_edge4_Node000002_Node000005"><a xlink:title=" ">
<path fill="none" stroke="#63b8ff" d="M166.93,-113.09C166.2,-106.47 165.22,-97.47 164.32,-89.27"/>
<polygon fill="#63b8ff" stroke="#63b8ff" points="167.8,-88.89 163.23,-79.33 160.84,-89.65 167.8,-88.89"/>
</a>
</g>
</g>
<!-- Node6 -->
<g id="Node000006" class="node">
<title>Node6</title>
<g id="a_Node000006"><a xlink:href="time_8h.html" target="_top" xlink:title=" ">
<polygon fill="white" stroke="#666666" points="253.75,-77.5 206.25,-77.5 206.25,-56.75 253.75,-56.75 253.75,-77.5"/>
<text text-anchor="middle" x="230" y="-64" font-family="Helvetica,sans-Serif" font-size="10.00">time.h</text>
</a>
</g>
</g>
<!-- Node2&#45;&gt;Node6 -->
<g id="edge5_Node000002_Node000006" class="edge">
<title>Node2&#45;&gt;Node6</title>
<g id="a_edge5_Node000002_Node000006"><a xlink:title=" ">
<path fill="none" stroke="#63b8ff" d="M179.08,-113.09C187.81,-105.38 200.19,-94.45 210.56,-85.29"/>
<polygon fill="#63b8ff" stroke="#63b8ff" points="212.7,-88.07 217.88,-78.83 208.06,-82.83 212.7,-88.07"/>
</a>
</g>
</g>
<!-- Node4 -->
<g id="Node000004" class="node">
<title>Node4</title>
<g id="a_Node000004"><a xlink:title=" ">
<polygon fill="#e0e0e0" stroke="#999999" points="91.38,-20.75 26.62,-20.75 26.62,0 91.38,0 91.38,-20.75"/>
<text text-anchor="middle" x="59" y="-7.25" font-family="Helvetica,sans-Serif" font-size="10.00">inttypes.h</text>
</a>
</g>
</g>
<!-- Node3&#45;&gt;Node4 -->
<g id="edge3_Node000003_Node000004" class="edge">
<title>Node3&#45;&gt;Node4</title>
<g id="a_edge3_Node000003_Node000004"><a xlink:title=" ">
<path fill="none" stroke="#63b8ff" d="M59,-56.34C59,-49.72 59,-40.72 59,-32.52"/>
<polygon fill="#63b8ff" stroke="#63b8ff" points="62.5,-32.59 59,-22.59 55.5,-32.59 62.5,-32.59"/>
</a>
</g>
</g>
<!-- Node6&#45;&gt;Node6 -->
<g id="edge6_Node000006_Node000006" class="edge">
<title>Node6&#45;&gt;Node6</title>
<g id="a_edge6_Node000006_Node000006"><a xlink:title=" ">
<path fill="none" stroke="#63b8ff" d="M254.03,-77.7C263.66,-78.3 271.75,-74.77 271.75,-67.12 271.75,-62.82 269.19,-59.83 265.24,-58.13"/>
<polygon fill="#63b8ff" stroke="#63b8ff" points="265.92,-54.69 255.52,-56.76 264.94,-61.62 265.92,-54.69"/>
</a>
</g>
</g>
<!-- Node8 -->
<g id="Node000008" class="node">
<title>Node8</title>
<g id="a_Node000008"><a xlink:title=" ">
<polygon fill="#e0e0e0" stroke="#999999" points="344.5,-77.5 289.5,-77.5 289.5,-56.75 344.5,-56.75 344.5,-77.5"/>
<text text-anchor="middle" x="317" y="-64" font-family="Helvetica,sans-Serif" font-size="10.00">stddef.h</text>
</a>
</g>
</g>
<!-- Node7&#45;&gt;Node8 -->
<g id="edge8_Node000007_Node000008" class="edge">
<title>Node7&#45;&gt;Node8</title>
<g id="a_edge8_Node000007_Node000008"><a xlink:title=" ">
<path fill="none" stroke="#63b8ff" d="M314.54,-113.09C314.9,-106.47 315.39,-97.47 315.84,-89.27"/>
<polygon fill="#63b8ff" stroke="#63b8ff" points="319.33,-89.52 316.39,-79.34 312.34,-89.13 319.33,-89.52"/>
</a>
</g>
</g>
</g>
</svg>
