<?xml version="1.0" encoding="UTF-8" standalone="no"?>
<!DOCTYPE svg PUBLIC "-//W3C//DTD SVG 1.1//EN"
 "http://www.w3.org/Graphics/SVG/1.1/DTD/svg11.dtd">
<!-- Generated by graphviz version 12.1.2 (20240928.0832)
 -->
<!-- Title: VlcbPlatformLedEffectData Pages: 1 -->
<svg width="320pt" height="111pt"
 viewBox="0.00 0.00 320.25 111.00" xmlns="http://www.w3.org/2000/svg" xmlns:xlink="http://www.w3.org/1999/xlink">
<g id="graph0" class="graph" transform="scale(1 1) rotate(0) translate(4 107)">
<title>VlcbPlatformLedEffectData</title>
<!-- Node1 -->
<g id="Node000001" class="node">
<title>Node1</title>
<g id="a_Node000001"><a xlink:title=" ">
<polygon fill="#999999" stroke="#666666" points="229.25,-20.75 82,-20.75 82,0 229.25,0 229.25,-20.75"/>
<text text-anchor="middle" x="155.62" y="-7.25" font-family="Helvetica,sans-Serif" font-size="10.00">VlcbPlatformLedEffectData</text>
</a>
</g>
</g>
<!-- Node2 -->
<g id="Node000002" class="node">
<title>Node2</title>
<g id="a_Node000002"><a xlink:href="structVlcbPlatformLedEffectDataPulse.html" target="_top" xlink:title=" ">
<polygon fill="white" stroke="#666666" points="147.25,-103 0,-103 0,-69.5 147.25,-69.5 147.25,-103"/>
<text text-anchor="start" x="8" y="-89.5" font-family="Helvetica,sans-Serif" font-size="10.00">VlcbPlatformLedEffectData</text>
<text text-anchor="middle" x="73.62" y="-76.75" font-family="Helvetica,sans-Serif" font-size="10.00">Pulse</text>
</a>
</g>
</g>
<!-- Node2&#45;&gt;Node1 -->
<g id="edge1_Node000001_Node000002" class="edge">
<title>Node2&#45;&gt;Node1</title>
<g id="a_edge1_Node000001_Node000002"><a xlink:title=" ">
<path fill="none" stroke="#9a32cd" stroke-dasharray="5,2" d="M99.57,-61.87C114.99,-47.98 133.7,-31.13 145.13,-20.83"/>
<polygon fill="#9a32cd" stroke="#9a32cd" points="97.63,-58.91 92.54,-68.21 102.31,-64.11 97.63,-58.91"/>
</a>
</g>
<text text-anchor="middle" x="139.01" y="-42" font-family="Helvetica,sans-Serif" font-size="10.00" fill="grey"> pulse</text>
</g>
<!-- Node3 -->
<g id="Node000003" class="node">
<title>Node3</title>
<g id="a_Node000003"><a xlink:href="structVlcbPlatformLedEffectDataBlink.html" target="_top" xlink:title=" ">
<polygon fill="white" stroke="#666666" points="312.25,-103 165,-103 165,-69.5 312.25,-69.5 312.25,-103"/>
<text text-anchor="start" x="173" y="-89.5" font-family="Helvetica,sans-Serif" font-size="10.00">VlcbPlatformLedEffectData</text>
<text text-anchor="middle" x="238.62" y="-76.75" font-family="Helvetica,sans-Serif" font-size="10.00">Blink</text>
</a>
</g>
</g>
<!-- Node3&#45;&gt;Node1 -->
<g id="edge2_Node000001_Node000003" class="edge">
<title>Node3&#45;&gt;Node1</title>
<g id="a_edge2_Node000001_Node000003"><a xlink:title=" ">
<path fill="none" stroke="#9a32cd" stroke-dasharray="5,2" d="M212.36,-61.87C196.76,-47.98 177.82,-31.13 166.25,-20.83"/>
<polygon fill="#9a32cd" stroke="#9a32cd" points="209.69,-64.18 219.48,-68.21 214.34,-58.95 209.69,-64.18"/>
</a>
</g>
<text text-anchor="middle" x="213.11" y="-42" font-family="Helvetica,sans-Serif" font-size="10.00" fill="grey"> blink</text>
</g>
</g>
</svg>
