<?xml version="1.0" encoding="UTF-8" standalone="no"?>
<!DOCTYPE svg PUBLIC "-//W3C//DTD SVG 1.1//EN"
 "http://www.w3.org/Graphics/SVG/1.1/DTD/svg11.dtd">
<!-- Generated by graphviz version 12.1.2 (20240928.0832)
 -->
<!-- Title: vlcb.h Pages: 1 -->
<svg width="968pt" height="313pt"
 viewBox="0.00 0.00 968.00 312.50" xmlns="http://www.w3.org/2000/svg" xmlns:xlink="http://www.w3.org/1999/xlink">
<g id="graph0" class="graph" transform="scale(1 1) rotate(0) translate(4 308.5)">
<title>vlcb.h</title>
<!-- Node1 -->
<g id="Node000001" class="node">
<title>Node1</title>
<g id="a_Node000001"><a xlink:title=" ">
<polygon fill="#999999" stroke="#666666" points="872.38,-304.5 827.12,-304.5 827.12,-283.75 872.38,-283.75 872.38,-304.5"/>
<text text-anchor="middle" x="849.75" y="-291" font-family="Helvetica,sans-Serif" font-size="10.00">vlcb.h</text>
</a>
</g>
</g>
<!-- Node2 -->
<g id="Node000002" class="node">
<title>Node2</title>
<g id="a_Node000002"><a xlink:href="socket_2datagram_8c.html" target="_top" xlink:title=" ">
<polygon fill="white" stroke="#666666" points="71.5,-134.25 0,-134.25 0,-113.5 71.5,-113.5 71.5,-134.25"/>
<text text-anchor="middle" x="35.75" y="-120.75" font-family="Helvetica,sans-Serif" font-size="10.00">datagram.c</text>
</a>
</g>
</g>
<!-- Node1&#45;&gt;Node2 -->
<g id="edge1_Node000001_Node000002" class="edge">
<title>Node1&#45;&gt;Node2</title>
<g id="a_edge1_Node000001_Node000002"><a xlink:title=" ">
<path fill="none" stroke="#63b8ff" d="M815.26,-293.38C678.47,-293.72 175.79,-288.21 57.75,-191 40.75,-177 36.8,-149.49 35.94,-134.75"/>
<polygon fill="#63b8ff" stroke="#63b8ff" points="815.13,-296.88 825.11,-293.35 815.1,-289.88 815.13,-296.88"/>
</a>
</g>
</g>
<!-- Node3 -->
<g id="Node000003" class="node">
<title>Node3</title>
<g id="a_Node000003"><a xlink:href="iface__can_8c.html" target="_top" xlink:title=" ">
<polygon fill="white" stroke="#666666" points="849.12,-77.5 778.38,-77.5 778.38,-56.75 849.12,-56.75 849.12,-77.5"/>
<text text-anchor="middle" x="813.75" y="-64" font-family="Helvetica,sans-Serif" font-size="10.00">iface_can.c</text>
</a>
</g>
</g>
<!-- Node1&#45;&gt;Node3 -->
<g id="edge2_Node000001_Node000003" class="edge">
<title>Node1&#45;&gt;Node3</title>
<g id="a_edge2_Node000001_Node000003"><a xlink:title=" ">
<path fill="none" stroke="#63b8ff" d="M856.59,-272.28C866.71,-237.74 882.18,-167.14 859.75,-113.5 853.43,-98.39 839.36,-85.76 828.43,-77.69"/>
<polygon fill="#63b8ff" stroke="#63b8ff" points="853.25,-271.24 853.63,-281.83 859.93,-273.31 853.25,-271.24"/>
</a>
</g>
</g>
<!-- Node4 -->
<g id="Node000004" class="node">
<title>Node4</title>
<g id="a_Node000004"><a xlink:href="iface__vlcb_8h.html" target="_top" xlink:title=" ">
<polygon fill="white" stroke="#666666" points="851,-134.25 776.5,-134.25 776.5,-113.5 851,-113.5 851,-134.25"/>
<text text-anchor="middle" x="813.75" y="-120.75" font-family="Helvetica,sans-Serif" font-size="10.00">iface_vlcb.h</text>
</a>
</g>
</g>
<!-- Node1&#45;&gt;Node4 -->
<g id="edge3_Node000001_Node000004" class="edge">
<title>Node1&#45;&gt;Node4</title>
<g id="a_edge3_Node000001_Node000004"><a xlink:title=" ">
<path fill="none" stroke="#63b8ff" d="M845.32,-272.41C837.51,-235.9 821.58,-161.46 815.86,-134.72"/>
<polygon fill="#63b8ff" stroke="#63b8ff" points="841.88,-273.07 847.39,-282.12 848.72,-271.61 841.88,-273.07"/>
</a>
</g>
</g>
<!-- Node6 -->
<g id="Node000006" class="node">
<title>Node6</title>
<g id="a_Node000006"><a xlink:href="socket_8h.html" target="_top" xlink:title=" ">
<polygon fill="white" stroke="#666666" points="622,-247.75 565.5,-247.75 565.5,-227 622,-227 622,-247.75"/>
<text text-anchor="middle" x="593.75" y="-234.25" font-family="Helvetica,sans-Serif" font-size="10.00">socket.h</text>
</a>
</g>
</g>
<!-- Node1&#45;&gt;Node6 -->
<g id="edge6_Node000001_Node000006" class="edge">
<title>Node1&#45;&gt;Node6</title>
<g id="a_edge6_Node000001_Node000006"><a xlink:title=" ">
<path fill="none" stroke="#63b8ff" d="M816,-285.91C765.13,-275.03 669.73,-254.63 622.19,-244.46"/>
<polygon fill="#63b8ff" stroke="#63b8ff" points="815.04,-289.28 825.55,-287.95 816.5,-282.44 815.04,-289.28"/>
</a>
</g>
</g>
<!-- Node18 -->
<g id="Node000018" class="node">
<title>Node18</title>
<g id="a_Node000018"><a xlink:href="vlcb_8c.html" target="_top" xlink:title=" ">
<polygon fill="white" stroke="#666666" points="960,-247.75 915.5,-247.75 915.5,-227 960,-227 960,-247.75"/>
<text text-anchor="middle" x="937.75" y="-234.25" font-family="Helvetica,sans-Serif" font-size="10.00">vlcb.c</text>
</a>
</g>
</g>
<!-- Node1&#45;&gt;Node18 -->
<g id="edge36_Node000001_Node000018" class="edge">
<title>Node1&#45;&gt;Node18</title>
<g id="a_edge36_Node000001_Node000018"><a xlink:title=" ">
<path fill="none" stroke="#63b8ff" d="M874.86,-277.51C890.09,-268.03 909.05,-256.23 922.15,-248.08"/>
<polygon fill="#63b8ff" stroke="#63b8ff" points="873.41,-274.28 866.77,-282.54 877.11,-280.23 873.41,-274.28"/>
</a>
</g>
</g>
<!-- Node4&#45;&gt;Node3 -->
<g id="edge5_Node000004_Node000003" class="edge">
<title>Node4&#45;&gt;Node3</title>
<g id="a_edge5_Node000004_Node000003"><a xlink:title=" ">
<path fill="none" stroke="#63b8ff" d="M813.75,-101.63C813.75,-93.41 813.75,-84.43 813.75,-77.83"/>
<polygon fill="#63b8ff" stroke="#63b8ff" points="810.25,-101.57 813.75,-111.57 817.25,-101.57 810.25,-101.57"/>
</a>
</g>
</g>
<!-- Node5 -->
<g id="Node000005" class="node">
<title>Node5</title>
<g id="a_Node000005"><a xlink:href="iface_8c.html" target="_top" xlink:title=" ">
<polygon fill="white" stroke="#666666" points="664.88,-77.5 616.62,-77.5 616.62,-56.75 664.88,-56.75 664.88,-77.5"/>
<text text-anchor="middle" x="640.75" y="-64" font-family="Helvetica,sans-Serif" font-size="10.00">iface.c</text>
</a>
</g>
</g>
<!-- Node4&#45;&gt;Node5 -->
<g id="edge4_Node000004_Node000005" class="edge">
<title>Node4&#45;&gt;Node5</title>
<g id="a_edge4_Node000004_Node000005"><a xlink:title=" ">
<path fill="none" stroke="#63b8ff" d="M772.02,-109.67C738.64,-99.11 693,-84.66 665.26,-75.88"/>
<polygon fill="#63b8ff" stroke="#63b8ff" points="770.79,-112.95 781.38,-112.63 772.9,-106.28 770.79,-112.95"/>
</a>
</g>
</g>
<!-- Node6&#45;&gt;Node2 -->
<g id="edge7_Node000006_Node000002" class="edge">
<title>Node6&#45;&gt;Node2</title>
<g id="a_edge7_Node000006_Node000002"><a xlink:title=" ">
<path fill="none" stroke="#63b8ff" d="M553.88,-236.91C448.63,-237.68 165.91,-235.44 85.75,-191 62.59,-178.16 46.89,-149.62 39.89,-134.58"/>
<polygon fill="#63b8ff" stroke="#63b8ff" points="553.76,-240.41 563.73,-236.82 553.7,-233.41 553.76,-240.41"/>
</a>
</g>
</g>
<!-- Node6&#45;&gt;Node4 -->
<g id="edge31_Node000006_Node000004" class="edge">
<title>Node6&#45;&gt;Node4</title>
<g id="a_edge31_Node000006_Node000004"><a xlink:title=" ">
<path fill="none" stroke="#63b8ff" d="M633.76,-231.96C684.99,-225.54 769.89,-212.03 792.75,-191 808.88,-176.16 812.69,-149 813.54,-134.54"/>
<polygon fill="#63b8ff" stroke="#63b8ff" points="633.45,-228.48 623.95,-233.15 634.29,-235.42 633.45,-228.48"/>
</a>
</g>
</g>
<!-- Node6&#45;&gt;Node5 -->
<g id="edge20_Node000006_Node000005" class="edge">
<title>Node6&#45;&gt;Node5</title>
<g id="a_edge20_Node000006_Node000005"><a xlink:title=" ">
<path fill="none" stroke="#63b8ff" d="M599.4,-216.13C609.55,-179.81 630.5,-104.83 638,-77.97"/>
<polygon fill="#63b8ff" stroke="#63b8ff" points="596.14,-214.82 596.82,-225.39 602.88,-216.7 596.14,-214.82"/>
</a>
</g>
</g>
<!-- Node7 -->
<g id="Node000007" class="node">
<title>Node7</title>
<g id="a_Node000007"><a xlink:href="socket_2datagram_8h.html" target="_top" xlink:title=" ">
<polygon fill="white" stroke="#666666" points="368.88,-191 296.62,-191 296.62,-170.25 368.88,-170.25 368.88,-191"/>
<text text-anchor="middle" x="332.75" y="-177.5" font-family="Helvetica,sans-Serif" font-size="10.00">datagram.h</text>
</a>
</g>
</g>
<!-- Node6&#45;&gt;Node7 -->
<g id="edge8_Node000006_Node000007" class="edge">
<title>Node6&#45;&gt;Node7</title>
<g id="a_edge8_Node000006_Node000007"><a xlink:title=" ">
<path fill="none" stroke="#63b8ff" d="M553.99,-228.03C503.64,-217.47 417.59,-199.42 368.98,-189.22"/>
<polygon fill="#63b8ff" stroke="#63b8ff" points="553.08,-231.42 563.59,-230.05 554.52,-224.57 553.08,-231.42"/>
</a>
</g>
</g>
<!-- Node8 -->
<g id="Node000008" class="node">
<title>Node8</title>
<g id="a_Node000008"><a xlink:href="module_8c.html" target="_top" xlink:title=" ">
<polygon fill="white" stroke="#666666" points="227.25,-20.75 166.25,-20.75 166.25,0 227.25,0 227.25,-20.75"/>
<text text-anchor="middle" x="196.75" y="-7.25" font-family="Helvetica,sans-Serif" font-size="10.00">module.c</text>
</a>
</g>
</g>
<!-- Node6&#45;&gt;Node8 -->
<g id="edge32_Node000006_Node000008" class="edge">
<title>Node6&#45;&gt;Node8</title>
<g id="a_edge32_Node000006_Node000008"><a xlink:title=" ">
<path fill="none" stroke="#63b8ff" d="M553.61,-235C494.09,-231.96 379.57,-222.19 287.75,-191 212.56,-165.46 171.9,-153.76 149.75,-77.5 147.18,-68.64 146.15,-65.24 149.75,-56.75 156.13,-41.72 170.21,-29.24 181.3,-21.2"/>
<polygon fill="#63b8ff" stroke="#63b8ff" points="553.44,-238.5 563.59,-235.47 553.77,-231.51 553.44,-238.5"/>
</a>
</g>
</g>
<!-- Node11 -->
<g id="Node000011" class="node">
<title>Node11</title>
<g id="a_Node000011"><a xlink:href="state__machine_8c.html" target="_top" xlink:title=" ">
<polygon fill="white" stroke="#666666" points="476.88,-20.75 380.62,-20.75 380.62,0 476.88,0 476.88,-20.75"/>
<text text-anchor="middle" x="428.75" y="-7.25" font-family="Helvetica,sans-Serif" font-size="10.00">state_machine.c</text>
</a>
</g>
</g>
<!-- Node6&#45;&gt;Node11 -->
<g id="edge35_Node000006_Node000011" class="edge">
<title>Node6&#45;&gt;Node11</title>
<g id="a_edge35_Node000006_Node000011"><a xlink:title=" ">
<path fill="none" stroke="#63b8ff" d="M576.66,-218.59C558.01,-198.78 527.75,-165.44 504.75,-134.25 475.13,-94.08 445.63,-42.11 433.97,-20.96"/>
<polygon fill="#63b8ff" stroke="#63b8ff" points="573.88,-220.74 583.3,-225.58 578.95,-215.92 573.88,-220.74"/>
</a>
</g>
</g>
<!-- Node13 -->
<g id="Node000013" class="node">
<title>Node13</title>
<g id="a_Node000013"><a xlink:href="iface_8h.html" target="_top" xlink:title=" ">
<polygon fill="white" stroke="#666666" points="671.25,-191 622.25,-191 622.25,-170.25 671.25,-170.25 671.25,-191"/>
<text text-anchor="middle" x="646.75" y="-177.5" font-family="Helvetica,sans-Serif" font-size="10.00">iface.h</text>
</a>
</g>
</g>
<!-- Node6&#45;&gt;Node13 -->
<g id="edge21_Node000006_Node000013" class="edge">
<title>Node6&#45;&gt;Node13</title>
<g id="a_edge21_Node000006_Node000013"><a xlink:title=" ">
<path fill="none" stroke="#63b8ff" d="M611,-218.55C619.77,-209.5 630.07,-198.86 637.36,-191.33"/>
<polygon fill="#63b8ff" stroke="#63b8ff" points="608.72,-215.88 604.28,-225.5 613.75,-220.75 608.72,-215.88"/>
</a>
</g>
</g>
<!-- Node14 -->
<g id="Node000014" class="node">
<title>Node14</title>
<g id="a_Node000014"><a xlink:href="iface__can_8h.html" target="_top" xlink:title=" ">
<polygon fill="white" stroke="#666666" points="585.5,-134.25 514,-134.25 514,-113.5 585.5,-113.5 585.5,-134.25"/>
<text text-anchor="middle" x="549.75" y="-120.75" font-family="Helvetica,sans-Serif" font-size="10.00">iface_can.h</text>
</a>
</g>
</g>
<!-- Node6&#45;&gt;Node14 -->
<g id="edge30_Node000006_Node000014" class="edge">
<title>Node6&#45;&gt;Node14</title>
<g id="a_edge30_Node000006_Node000014"><a xlink:title=" ">
<path fill="none" stroke="#63b8ff" d="M585.89,-216.46C576.4,-192.41 560.82,-152.92 553.62,-134.68"/>
<polygon fill="#63b8ff" stroke="#63b8ff" points="582.52,-217.44 589.44,-225.46 589.03,-214.87 582.52,-217.44"/>
</a>
</g>
</g>
<!-- Node16 -->
<g id="Node000016" class="node">
<title>Node16</title>
<g id="a_Node000016"><a xlink:href="net_2inc_2vlcb_2net_8h.html" target="_top" xlink:title=" ">
<polygon fill="white" stroke="#666666" points="758.12,-134.25 717.38,-134.25 717.38,-113.5 758.12,-113.5 758.12,-134.25"/>
<text text-anchor="middle" x="737.75" y="-120.75" font-family="Helvetica,sans-Serif" font-size="10.00">net.h</text>
</a>
</g>
</g>
<!-- Node6&#45;&gt;Node16 -->
<g id="edge33_Node000006_Node000016" class="edge">
<title>Node6&#45;&gt;Node16</title>
<g id="a_edge33_Node000006_Node000016"><a xlink:title=" ">
<path fill="none" stroke="#63b8ff" d="M628.09,-221.82C644.58,-213.97 664.1,-203.35 679.75,-191 701.33,-173.97 721.24,-148.2 731.15,-134.4"/>
<polygon fill="#63b8ff" stroke="#63b8ff" points="626.77,-218.57 619.15,-225.93 629.69,-224.93 626.77,-218.57"/>
</a>
</g>
</g>
<!-- Node17 -->
<g id="Node000017" class="node">
<title>Node17</title>
<g id="a_Node000017"><a xlink:href="socket_8c.html" target="_top" xlink:title=" ">
<polygon fill="white" stroke="#666666" points="783.62,-191 727.88,-191 727.88,-170.25 783.62,-170.25 783.62,-191"/>
<text text-anchor="middle" x="755.75" y="-177.5" font-family="Helvetica,sans-Serif" font-size="10.00">socket.c</text>
</a>
</g>
</g>
<!-- Node6&#45;&gt;Node17 -->
<g id="edge34_Node000006_Node000017" class="edge">
<title>Node6&#45;&gt;Node17</title>
<g id="a_edge34_Node000006_Node000017"><a xlink:title=" ">
<path fill="none" stroke="#63b8ff" d="M632.99,-223.11C662.16,-213.26 701.28,-200.03 727.45,-191.19"/>
<polygon fill="#63b8ff" stroke="#63b8ff" points="632.13,-219.71 623.77,-226.23 634.37,-226.34 632.13,-219.71"/>
</a>
</g>
</g>
<!-- Node7&#45;&gt;Node2 -->
<g id="edge9_Node000007_Node000002" class="edge">
<title>Node7&#45;&gt;Node2</title>
<g id="a_edge9_Node000007_Node000002"><a xlink:title=" ">
<path fill="none" stroke="#63b8ff" d="M285.36,-170.89C225.83,-159.91 125.01,-141.33 71.54,-131.47"/>
<polygon fill="#63b8ff" stroke="#63b8ff" points="284.37,-174.27 294.84,-172.64 285.64,-167.38 284.37,-174.27"/>
</a>
</g>
</g>
<!-- Node7&#45;&gt;Node8 -->
<g id="edge10_Node000007_Node000008" class="edge">
<title>Node7&#45;&gt;Node8</title>
<g id="a_edge10_Node000007_Node000008"><a xlink:title=" ">
<path fill="none" stroke="#63b8ff" d="M285.43,-166.8C243.28,-152.59 184.18,-125.13 156.75,-77.5 145.1,-57.27 167.77,-33.99 183.48,-21.16"/>
<polygon fill="#63b8ff" stroke="#63b8ff" points="284.25,-170.1 294.84,-169.83 286.4,-163.44 284.25,-170.1"/>
</a>
</g>
</g>
<!-- Node9 -->
<g id="Node000009" class="node">
<title>Node9</title>
<g id="a_Node000009"><a xlink:href="module_2inc_2vlcb_2module_8h.html" target="_top" xlink:title=" ">
<polygon fill="white" stroke="#666666" points="363.62,-134.25 301.88,-134.25 301.88,-113.5 363.62,-113.5 363.62,-134.25"/>
<text text-anchor="middle" x="332.75" y="-120.75" font-family="Helvetica,sans-Serif" font-size="10.00">module.h</text>
</a>
</g>
</g>
<!-- Node7&#45;&gt;Node9 -->
<g id="edge11_Node000007_Node000009" class="edge">
<title>Node7&#45;&gt;Node9</title>
<g id="a_edge11_Node000007_Node000009"><a xlink:title=" ">
<path fill="none" stroke="#63b8ff" d="M332.75,-158.38C332.75,-150.16 332.75,-141.18 332.75,-134.58"/>
<polygon fill="#63b8ff" stroke="#63b8ff" points="329.25,-158.32 332.75,-168.32 336.25,-158.32 329.25,-158.32"/>
</a>
</g>
</g>
<!-- Node7&#45;&gt;Node11 -->
<g id="edge19_Node000007_Node000011" class="edge">
<title>Node7&#45;&gt;Node11</title>
<g id="a_edge19_Node000007_Node000011"><a xlink:title=" ">
<path fill="none" stroke="#63b8ff" d="M350.41,-161.84C368.4,-142.66 395.72,-110.44 410.75,-77.5 419.44,-58.45 424.69,-34.34 427.12,-21.13"/>
<polygon fill="#63b8ff" stroke="#63b8ff" points="348.1,-159.19 343.7,-168.82 353.15,-164.03 348.1,-159.19"/>
</a>
</g>
</g>
<!-- Node9&#45;&gt;Node8 -->
<g id="edge12_Node000009_Node000008" class="edge">
<title>Node9&#45;&gt;Node8</title>
<g id="a_edge12_Node000009_Node000008"><a xlink:title=" ">
<path fill="none" stroke="#63b8ff" d="M311.29,-106.41C300.28,-97.88 286.71,-87.24 274.75,-77.5 250.66,-57.88 223.06,-34.18 208,-21.15"/>
<polygon fill="#63b8ff" stroke="#63b8ff" points="308.94,-109.02 318.99,-112.35 313.22,-103.47 308.94,-109.02"/>
</a>
</g>
</g>
<!-- Node10 -->
<g id="Node000010" class="node">
<title>Node10</title>
<g id="a_Node000010"><a xlink:href="module_2src_2module_8h.html" target="_top" xlink:title=" ">
<polygon fill="white" stroke="#666666" points="227.62,-77.5 165.88,-77.5 165.88,-56.75 227.62,-56.75 227.62,-77.5"/>
<text text-anchor="middle" x="196.75" y="-64" font-family="Helvetica,sans-Serif" font-size="10.00">module.h</text>
</a>
</g>
</g>
<!-- Node9&#45;&gt;Node10 -->
<g id="edge13_Node000009_Node000010" class="edge">
<title>Node9&#45;&gt;Node10</title>
<g id="a_edge13_Node000009_Node000010"><a xlink:title=" ">
<path fill="none" stroke="#63b8ff" d="M297.93,-108.86C273.79,-99.14 242.25,-86.44 220.85,-77.83"/>
<polygon fill="#63b8ff" stroke="#63b8ff" points="296.45,-112.03 307.03,-112.52 299.06,-105.54 296.45,-112.03"/>
</a>
</g>
</g>
<!-- Node9&#45;&gt;Node11 -->
<g id="edge15_Node000009_Node000011" class="edge">
<title>Node9&#45;&gt;Node11</title>
<g id="a_edge15_Node000009_Node000011"><a xlink:title=" ">
<path fill="none" stroke="#63b8ff" d="M357.37,-106.38C368.1,-98.45 380.35,-88.32 389.75,-77.5 405.32,-59.6 418.09,-34.62 424.43,-21.06"/>
<polygon fill="#63b8ff" stroke="#63b8ff" points="355.42,-103.47 349.3,-112.13 359.48,-109.18 355.42,-103.47"/>
</a>
</g>
</g>
<!-- Node12 -->
<g id="Node000012" class="node">
<title>Node12</title>
<g id="a_Node000012"><a xlink:href="state__machine_8h.html" target="_top" xlink:title=" ">
<polygon fill="white" stroke="#666666" points="381.25,-77.5 284.25,-77.5 284.25,-56.75 381.25,-56.75 381.25,-77.5"/>
<text text-anchor="middle" x="332.75" y="-64" font-family="Helvetica,sans-Serif" font-size="10.00">state_machine.h</text>
</a>
</g>
</g>
<!-- Node9&#45;&gt;Node12 -->
<g id="edge16_Node000009_Node000012" class="edge">
<title>Node9&#45;&gt;Node12</title>
<g id="a_edge16_Node000009_Node000012"><a xlink:title=" ">
<path fill="none" stroke="#63b8ff" d="M332.75,-101.63C332.75,-93.41 332.75,-84.43 332.75,-77.83"/>
<polygon fill="#63b8ff" stroke="#63b8ff" points="329.25,-101.57 332.75,-111.57 336.25,-101.57 329.25,-101.57"/>
</a>
</g>
</g>
<!-- Node10&#45;&gt;Node8 -->
<g id="edge14_Node000010_Node000008" class="edge">
<title>Node10&#45;&gt;Node8</title>
<g id="a_edge14_Node000010_Node000008"><a xlink:title=" ">
<path fill="none" stroke="#63b8ff" d="M196.75,-44.88C196.75,-36.66 196.75,-27.68 196.75,-21.08"/>
<polygon fill="#63b8ff" stroke="#63b8ff" points="193.25,-44.82 196.75,-54.82 200.25,-44.82 193.25,-44.82"/>
</a>
</g>
</g>
<!-- Node12&#45;&gt;Node8 -->
<g id="edge17_Node000012_Node000008" class="edge">
<title>Node12&#45;&gt;Node8</title>
<g id="a_edge17_Node000012_Node000008"><a xlink:title=" ">
<path fill="none" stroke="#63b8ff" d="M297.93,-52.11C273.79,-42.39 242.25,-29.69 220.85,-21.08"/>
<polygon fill="#63b8ff" stroke="#63b8ff" points="296.45,-55.28 307.03,-55.77 299.06,-48.79 296.45,-55.28"/>
</a>
</g>
</g>
<!-- Node12&#45;&gt;Node11 -->
<g id="edge18_Node000012_Node000011" class="edge">
<title>Node12&#45;&gt;Node11</title>
<g id="a_edge18_Node000012_Node000011"><a xlink:title=" ">
<path fill="none" stroke="#63b8ff" d="M359.66,-50.78C376.36,-41.25 397.31,-29.31 411.74,-21.08"/>
<polygon fill="#63b8ff" stroke="#63b8ff" points="358.18,-47.59 351.23,-55.59 361.65,-53.67 358.18,-47.59"/>
</a>
</g>
</g>
<!-- Node13&#45;&gt;Node3 -->
<g id="edge23_Node000013_Node000003" class="edge">
<title>Node13&#45;&gt;Node3</title>
<g id="a_edge23_Node000013_Node000003"><a xlink:title=" ">
<path fill="none" stroke="#63b8ff" d="M660.78,-160.88C672.37,-146.43 689.92,-126.74 708.75,-113.5 731.33,-97.62 760.35,-85.61 782.15,-77.95"/>
<polygon fill="#63b8ff" stroke="#63b8ff" points="658.07,-158.67 654.7,-168.71 663.6,-162.96 658.07,-158.67"/>
</a>
</g>
</g>
<!-- Node13&#45;&gt;Node4 -->
<g id="edge27_Node000013_Node000004" class="edge">
<title>Node13&#45;&gt;Node4</title>
<g id="a_edge27_Node000013_Node000004"><a xlink:title=" ">
<path fill="none" stroke="#63b8ff" d="M682.27,-167.98C712.4,-158.1 755.15,-144.09 783.63,-134.75"/>
<polygon fill="#63b8ff" stroke="#63b8ff" points="681.24,-164.63 672.83,-171.07 683.42,-171.29 681.24,-164.63"/>
</a>
</g>
</g>
<!-- Node13&#45;&gt;Node5 -->
<g id="edge22_Node000013_Node000005" class="edge">
<title>Node13&#45;&gt;Node5</title>
<g id="a_edge22_Node000013_Node000005"><a xlink:title=" ">
<path fill="none" stroke="#63b8ff" d="M645.63,-158.72C644.33,-134.59 642.25,-95.92 641.28,-77.93"/>
<polygon fill="#63b8ff" stroke="#63b8ff" points="642.12,-158.81 646.16,-168.61 649.11,-158.43 642.12,-158.81"/>
</a>
</g>
</g>
<!-- Node13&#45;&gt;Node9 -->
<g id="edge28_Node000013_Node000009" class="edge">
<title>Node13&#45;&gt;Node9</title>
<g id="a_edge28_Node000013_Node000009"><a xlink:title=" ">
<path fill="none" stroke="#63b8ff" d="M610.68,-173.34C548.62,-162.51 422.66,-140.55 364.05,-130.33"/>
<polygon fill="#63b8ff" stroke="#63b8ff" points="609.9,-176.75 620.36,-175.02 611.11,-169.86 609.9,-176.75"/>
</a>
</g>
</g>
<!-- Node13&#45;&gt;Node14 -->
<g id="edge24_Node000013_Node000014" class="edge">
<title>Node13&#45;&gt;Node14</title>
<g id="a_edge24_Node000013_Node000014"><a xlink:title=" ">
<path fill="none" stroke="#63b8ff" d="M619.56,-164.28C602.68,-154.75 581.52,-142.81 566.94,-134.58"/>
<polygon fill="#63b8ff" stroke="#63b8ff" points="617.66,-167.23 628.09,-169.09 621.1,-161.13 617.66,-167.23"/>
</a>
</g>
</g>
<!-- Node13&#45;&gt;Node16 -->
<g id="edge29_Node000013_Node000016" class="edge">
<title>Node13&#45;&gt;Node16</title>
<g id="a_edge29_Node000013_Node000016"><a xlink:title=" ">
<path fill="none" stroke="#63b8ff" d="M672.71,-164.01C688.47,-154.53 708.08,-142.73 721.62,-134.58"/>
<polygon fill="#63b8ff" stroke="#63b8ff" points="671.08,-160.9 664.32,-169.06 674.69,-166.9 671.08,-160.9"/>
</a>
</g>
</g>
<!-- Node14&#45;&gt;Node5 -->
<g id="edge25_Node000014_Node000005" class="edge">
<title>Node14&#45;&gt;Node5</title>
<g id="a_edge25_Node000014_Node000005"><a xlink:title=" ">
<path fill="none" stroke="#63b8ff" d="M575.71,-107.26C591.47,-97.78 611.08,-85.98 624.62,-77.83"/>
<polygon fill="#63b8ff" stroke="#63b8ff" points="574.08,-104.15 567.32,-112.31 577.69,-110.15 574.08,-104.15"/>
</a>
</g>
</g>
<!-- Node15 -->
<g id="Node000015" class="node">
<title>Node15</title>
<g id="a_Node000015"><a xlink:href="iface__vlcb_8c.html" target="_top" xlink:title=" ">
<polygon fill="white" stroke="#666666" points="587.62,-77.5 513.88,-77.5 513.88,-56.75 587.62,-56.75 587.62,-77.5"/>
<text text-anchor="middle" x="550.75" y="-64" font-family="Helvetica,sans-Serif" font-size="10.00">iface_vlcb.c</text>
</a>
</g>
</g>
<!-- Node14&#45;&gt;Node15 -->
<g id="edge26_Node000014_Node000015" class="edge">
<title>Node14&#45;&gt;Node15</title>
<g id="a_edge26_Node000014_Node000015"><a xlink:title=" ">
<path fill="none" stroke="#63b8ff" d="M550.14,-101.63C550.29,-93.41 550.45,-84.43 550.57,-77.83"/>
<polygon fill="#63b8ff" stroke="#63b8ff" points="546.64,-101.51 549.96,-111.57 553.64,-101.64 546.64,-101.51"/>
</a>
</g>
</g>
</g>
</svg>
