<?xml version="1.0" encoding="UTF-8" standalone="no"?>
<!DOCTYPE svg PUBLIC "-//W3C//DTD SVG 1.1//EN"
 "http://www.w3.org/Graphics/SVG/1.1/DTD/svg11.dtd">
<!-- Generated by graphviz version 12.1.2 (20240928.0832)
 -->
<!-- Title: vlcb.h Pages: 1 -->
<svg width="872pt" height="313pt"
 viewBox="0.00 0.00 872.00 312.50" xmlns="http://www.w3.org/2000/svg" xmlns:xlink="http://www.w3.org/1999/xlink">
<g id="graph0" class="graph" transform="scale(1 1) rotate(0) translate(4 308.5)">
<title>vlcb.h</title>
<!-- Node1 -->
<g id="Node000001" class="node">
<title>Node1</title>
<g id="a_Node000001"><a xlink:title=" ">
<polygon fill="#999999" stroke="#666666" points="749.38,-304.5 704.12,-304.5 704.12,-283.75 749.38,-283.75 749.38,-304.5"/>
<text text-anchor="middle" x="726.75" y="-291" font-family="Helvetica,sans-Serif" font-size="10.00">vlcb.h</text>
</a>
</g>
</g>
<!-- Node2 -->
<g id="Node000002" class="node">
<title>Node2</title>
<g id="a_Node000002"><a xlink:href="socket_2datagram_8c.html" target="_top" xlink:title=" ">
<polygon fill="white" stroke="#666666" points="71.5,-134.25 0,-134.25 0,-113.5 71.5,-113.5 71.5,-134.25"/>
<text text-anchor="middle" x="35.75" y="-120.75" font-family="Helvetica,sans-Serif" font-size="10.00">datagram.c</text>
</a>
</g>
</g>
<!-- Node1&#45;&gt;Node2 -->
<g id="edge1_Node000001_Node000002" class="edge">
<title>Node1&#45;&gt;Node2</title>
<g id="a_edge1_Node000001_Node000002"><a xlink:title=" ">
<path fill="none" stroke="#63b8ff" d="M692.63,-292.43C570.45,-289.27 156.8,-272.64 58.75,-191 41.75,-176.85 37.3,-149.4 36.14,-134.71"/>
<polygon fill="#63b8ff" stroke="#63b8ff" points="692.25,-295.92 702.33,-292.67 692.42,-288.92 692.25,-295.92"/>
</a>
</g>
</g>
<!-- Node3 -->
<g id="Node000003" class="node">
<title>Node3</title>
<g id="a_Node000003"><a xlink:href="iface__can_8c.html" target="_top" xlink:title=" ">
<polygon fill="white" stroke="#666666" points="762.12,-77.5 691.38,-77.5 691.38,-56.75 762.12,-56.75 762.12,-77.5"/>
<text text-anchor="middle" x="726.75" y="-64" font-family="Helvetica,sans-Serif" font-size="10.00">iface_can.c</text>
</a>
</g>
</g>
<!-- Node1&#45;&gt;Node3 -->
<g id="edge2_Node000001_Node000003" class="edge">
<title>Node1&#45;&gt;Node3</title>
<g id="a_edge2_Node000001_Node000003"><a xlink:title=" ">
<path fill="none" stroke="#63b8ff" d="M739.51,-273.97C760.12,-240.48 796.17,-169.51 772.75,-113.5 766.43,-98.39 752.36,-85.76 741.43,-77.69"/>
<polygon fill="#63b8ff" stroke="#63b8ff" points="736.7,-271.87 734.27,-282.18 742.6,-275.64 736.7,-271.87"/>
</a>
</g>
</g>
<!-- Node4 -->
<g id="Node000004" class="node">
<title>Node4</title>
<g id="a_Node000004"><a xlink:href="iface__vlcb_8h.html" target="_top" xlink:title=" ">
<polygon fill="white" stroke="#666666" points="764,-134.25 689.5,-134.25 689.5,-113.5 764,-113.5 764,-134.25"/>
<text text-anchor="middle" x="726.75" y="-120.75" font-family="Helvetica,sans-Serif" font-size="10.00">iface_vlcb.h</text>
</a>
</g>
</g>
<!-- Node1&#45;&gt;Node4 -->
<g id="edge3_Node000001_Node000004" class="edge">
<title>Node1&#45;&gt;Node4</title>
<g id="a_edge3_Node000001_Node000004"><a xlink:title=" ">
<path fill="none" stroke="#63b8ff" d="M726.75,-272.41C726.75,-235.9 726.75,-161.46 726.75,-134.72"/>
<polygon fill="#63b8ff" stroke="#63b8ff" points="723.25,-272.08 726.75,-282.08 730.25,-272.08 723.25,-272.08"/>
</a>
</g>
</g>
<!-- Node6 -->
<g id="Node000006" class="node">
<title>Node6</title>
<g id="a_Node000006"><a xlink:href="socket_8h.html" target="_top" xlink:title=" ">
<polygon fill="white" stroke="#666666" points="493,-247.75 436.5,-247.75 436.5,-227 493,-227 493,-247.75"/>
<text text-anchor="middle" x="464.75" y="-234.25" font-family="Helvetica,sans-Serif" font-size="10.00">socket.h</text>
</a>
</g>
</g>
<!-- Node1&#45;&gt;Node6 -->
<g id="edge6_Node000001_Node000006" class="edge">
<title>Node1&#45;&gt;Node6</title>
<g id="a_edge6_Node000001_Node000006"><a xlink:title=" ">
<path fill="none" stroke="#63b8ff" d="M692.98,-286.07C640.88,-275.18 541.82,-254.48 493.16,-244.31"/>
<polygon fill="#63b8ff" stroke="#63b8ff" points="691.97,-289.43 702.48,-288.05 693.4,-282.58 691.97,-289.43"/>
</a>
</g>
</g>
<!-- Node18 -->
<g id="Node000018" class="node">
<title>Node18</title>
<g id="a_Node000018"><a xlink:href="vlcb_8c.html" target="_top" xlink:title=" ">
<polygon fill="white" stroke="#666666" points="864,-247.75 819.5,-247.75 819.5,-227 864,-227 864,-247.75"/>
<text text-anchor="middle" x="841.75" y="-234.25" font-family="Helvetica,sans-Serif" font-size="10.00">vlcb.c</text>
</a>
</g>
</g>
<!-- Node1&#45;&gt;Node18 -->
<g id="edge33_Node000001_Node000018" class="edge">
<title>Node1&#45;&gt;Node18</title>
<g id="a_edge33_Node000001_Node000018"><a xlink:title=" ">
<path fill="none" stroke="#63b8ff" d="M757.58,-278.45C777.81,-268.82 803.68,-256.5 821.37,-248.08"/>
<polygon fill="#63b8ff" stroke="#63b8ff" points="756.2,-275.23 748.68,-282.69 759.21,-281.55 756.2,-275.23"/>
</a>
</g>
</g>
<!-- Node4&#45;&gt;Node3 -->
<g id="edge5_Node000004_Node000003" class="edge">
<title>Node4&#45;&gt;Node3</title>
<g id="a_edge5_Node000004_Node000003"><a xlink:title=" ">
<path fill="none" stroke="#63b8ff" d="M726.75,-101.63C726.75,-93.41 726.75,-84.43 726.75,-77.83"/>
<polygon fill="#63b8ff" stroke="#63b8ff" points="723.25,-101.57 726.75,-111.57 730.25,-101.57 723.25,-101.57"/>
</a>
</g>
</g>
<!-- Node5 -->
<g id="Node000005" class="node">
<title>Node5</title>
<g id="a_Node000005"><a xlink:href="iface_8c.html" target="_top" xlink:title=" ">
<polygon fill="white" stroke="#666666" points="615.88,-77.5 567.62,-77.5 567.62,-56.75 615.88,-56.75 615.88,-77.5"/>
<text text-anchor="middle" x="591.75" y="-64" font-family="Helvetica,sans-Serif" font-size="10.00">iface.c</text>
</a>
</g>
</g>
<!-- Node4&#45;&gt;Node5 -->
<g id="edge4_Node000004_Node000005" class="edge">
<title>Node4&#45;&gt;Node5</title>
<g id="a_edge4_Node000004_Node000005"><a xlink:title=" ">
<path fill="none" stroke="#63b8ff" d="M692.18,-108.86C668.22,-99.14 636.92,-86.44 615.68,-77.83"/>
<polygon fill="#63b8ff" stroke="#63b8ff" points="690.63,-112 701.21,-112.52 693.26,-105.52 690.63,-112"/>
</a>
</g>
</g>
<!-- Node6&#45;&gt;Node2 -->
<g id="edge7_Node000006_Node000002" class="edge">
<title>Node6&#45;&gt;Node2</title>
<g id="a_edge7_Node000006_Node000002"><a xlink:title=" ">
<path fill="none" stroke="#63b8ff" d="M424.81,-235.5C339.55,-233.01 142.83,-223.78 85.75,-191 62.91,-177.88 47.17,-149.73 40.06,-134.74"/>
<polygon fill="#63b8ff" stroke="#63b8ff" points="424.47,-238.99 434.56,-235.77 424.66,-231.99 424.47,-238.99"/>
</a>
</g>
</g>
<!-- Node6&#45;&gt;Node5 -->
<g id="edge20_Node000006_Node000005" class="edge">
<title>Node6&#45;&gt;Node5</title>
<g id="a_edge20_Node000006_Node000005"><a xlink:title=" ">
<path fill="none" stroke="#63b8ff" d="M455.93,-216.06C446.01,-189.77 433.95,-143.75 455.75,-113.5 459.12,-108.82 529.02,-87.1 567.26,-75.49"/>
<polygon fill="#63b8ff" stroke="#63b8ff" points="452.64,-217.27 459.63,-225.22 459.13,-214.64 452.64,-217.27"/>
</a>
</g>
</g>
<!-- Node7 -->
<g id="Node000007" class="node">
<title>Node7</title>
<g id="a_Node000007"><a xlink:href="socket_2datagram_8h.html" target="_top" xlink:title=" ">
<polygon fill="white" stroke="#666666" points="354.88,-191 282.62,-191 282.62,-170.25 354.88,-170.25 354.88,-191"/>
<text text-anchor="middle" x="318.75" y="-177.5" font-family="Helvetica,sans-Serif" font-size="10.00">datagram.h</text>
</a>
</g>
</g>
<!-- Node6&#45;&gt;Node7 -->
<g id="edge8_Node000006_Node000007" class="edge">
<title>Node6&#45;&gt;Node7</title>
<g id="a_edge8_Node000006_Node000007"><a xlink:title=" ">
<path fill="none" stroke="#63b8ff" d="M428.06,-222.62C402.06,-212.87 367.81,-200.02 344.63,-191.33"/>
<polygon fill="#63b8ff" stroke="#63b8ff" points="426.64,-225.82 437.23,-226.06 429.1,-219.27 426.64,-225.82"/>
</a>
</g>
</g>
<!-- Node11 -->
<g id="Node000011" class="node">
<title>Node11</title>
<g id="a_Node000011"><a xlink:href="state__machine_8c.html" target="_top" xlink:title=" ">
<polygon fill="white" stroke="#666666" points="204.88,-20.75 108.62,-20.75 108.62,0 204.88,0 204.88,-20.75"/>
<text text-anchor="middle" x="156.75" y="-7.25" font-family="Helvetica,sans-Serif" font-size="10.00">state_machine.c</text>
</a>
</g>
</g>
<!-- Node6&#45;&gt;Node11 -->
<g id="edge32_Node000006_Node000011" class="edge">
<title>Node6&#45;&gt;Node11</title>
<g id="a_edge32_Node000006_Node000011"><a xlink:title=" ">
<path fill="none" stroke="#63b8ff" d="M424.84,-232.16C384.94,-226.76 322.63,-215.05 273.75,-191 209.6,-159.44 184.43,-144.6 159.75,-77.5 152.77,-58.52 153.97,-34.38 155.4,-21.15"/>
<polygon fill="#63b8ff" stroke="#63b8ff" points="424.36,-235.62 434.72,-233.42 425.24,-228.68 424.36,-235.62"/>
</a>
</g>
</g>
<!-- Node13 -->
<g id="Node000013" class="node">
<title>Node13</title>
<g id="a_Node000013"><a xlink:href="iface_8h.html" target="_top" xlink:title=" ">
<polygon fill="white" stroke="#666666" points="589.25,-191 540.25,-191 540.25,-170.25 589.25,-170.25 589.25,-191"/>
<text text-anchor="middle" x="564.75" y="-177.5" font-family="Helvetica,sans-Serif" font-size="10.00">iface.h</text>
</a>
</g>
</g>
<!-- Node6&#45;&gt;Node13 -->
<g id="edge21_Node000006_Node000013" class="edge">
<title>Node6&#45;&gt;Node13</title>
<g id="a_edge21_Node000006_Node000013"><a xlink:title=" ">
<path fill="none" stroke="#63b8ff" d="M492.29,-221.29C509.77,-211.73 531.86,-199.63 547.03,-191.33"/>
<polygon fill="#63b8ff" stroke="#63b8ff" points="491.05,-217.99 483.96,-225.86 494.41,-224.13 491.05,-217.99"/>
</a>
</g>
</g>
<!-- Node16 -->
<g id="Node000016" class="node">
<title>Node16</title>
<g id="a_Node000016"><a xlink:href="net_2inc_2vlcb_2net_8h.html" target="_top" xlink:title=" ">
<polygon fill="white" stroke="#666666" points="671.12,-134.25 630.38,-134.25 630.38,-113.5 671.12,-113.5 671.12,-134.25"/>
<text text-anchor="middle" x="650.75" y="-120.75" font-family="Helvetica,sans-Serif" font-size="10.00">net.h</text>
</a>
</g>
</g>
<!-- Node6&#45;&gt;Node16 -->
<g id="edge30_Node000006_Node000016" class="edge">
<title>Node6&#45;&gt;Node16</title>
<g id="a_edge30_Node000006_Node000016"><a xlink:title=" ">
<path fill="none" stroke="#63b8ff" d="M504.33,-229.04C532.31,-222.46 569.67,-210.71 597.75,-191 619.67,-175.62 637.21,-148.69 645.52,-134.4"/>
<polygon fill="#63b8ff" stroke="#63b8ff" points="503.83,-225.57 494.83,-231.15 505.35,-232.4 503.83,-225.57"/>
</a>
</g>
</g>
<!-- Node17 -->
<g id="Node000017" class="node">
<title>Node17</title>
<g id="a_Node000017"><a xlink:href="socket_8c.html" target="_top" xlink:title=" ">
<polygon fill="white" stroke="#666666" points="520.62,-191 464.88,-191 464.88,-170.25 520.62,-170.25 520.62,-191"/>
<text text-anchor="middle" x="492.75" y="-177.5" font-family="Helvetica,sans-Serif" font-size="10.00">socket.c</text>
</a>
</g>
</g>
<!-- Node6&#45;&gt;Node17 -->
<g id="edge31_Node000006_Node000017" class="edge">
<title>Node6&#45;&gt;Node17</title>
<g id="a_edge31_Node000006_Node000017"><a xlink:title=" ">
<path fill="none" stroke="#63b8ff" d="M474.88,-216.57C479.27,-207.98 484.22,-198.31 487.79,-191.33"/>
<polygon fill="#63b8ff" stroke="#63b8ff" points="471.88,-214.74 470.45,-225.24 478.11,-217.93 471.88,-214.74"/>
</a>
</g>
</g>
<!-- Node7&#45;&gt;Node2 -->
<g id="edge9_Node000007_Node000002" class="edge">
<title>Node7&#45;&gt;Node2</title>
<g id="a_edge9_Node000007_Node000002"><a xlink:title=" ">
<path fill="none" stroke="#63b8ff" d="M271.23,-170.43C214.88,-159.53 122.24,-141.61 71.58,-131.81"/>
<polygon fill="#63b8ff" stroke="#63b8ff" points="270.36,-173.83 280.85,-172.29 271.69,-166.96 270.36,-173.83"/>
</a>
</g>
</g>
<!-- Node8 -->
<g id="Node000008" class="node">
<title>Node8</title>
<g id="a_Node000008"><a xlink:href="module_8c.html" target="_top" xlink:title=" ">
<polygon fill="white" stroke="#666666" points="379.25,-20.75 318.25,-20.75 318.25,0 379.25,0 379.25,-20.75"/>
<text text-anchor="middle" x="348.75" y="-7.25" font-family="Helvetica,sans-Serif" font-size="10.00">module.c</text>
</a>
</g>
</g>
<!-- Node7&#45;&gt;Node8 -->
<g id="edge10_Node000007_Node000008" class="edge">
<title>Node7&#45;&gt;Node8</title>
<g id="a_edge10_Node000007_Node000008"><a xlink:title=" ">
<path fill="none" stroke="#63b8ff" d="M322.44,-158.91C328.95,-122.4 342.23,-47.96 347,-21.22"/>
<polygon fill="#63b8ff" stroke="#63b8ff" points="319.02,-158.15 320.71,-168.61 325.92,-159.38 319.02,-158.15"/>
</a>
</g>
</g>
<!-- Node9 -->
<g id="Node000009" class="node">
<title>Node9</title>
<g id="a_Node000009"><a xlink:href="module_2inc_2vlcb_2module_8h.html" target="_top" xlink:title=" ">
<polygon fill="white" stroke="#666666" points="408.62,-134.25 346.88,-134.25 346.88,-113.5 408.62,-113.5 408.62,-134.25"/>
<text text-anchor="middle" x="377.75" y="-120.75" font-family="Helvetica,sans-Serif" font-size="10.00">module.h</text>
</a>
</g>
</g>
<!-- Node7&#45;&gt;Node9 -->
<g id="edge11_Node000007_Node000009" class="edge">
<title>Node7&#45;&gt;Node9</title>
<g id="a_edge11_Node000007_Node000009"><a xlink:title=" ">
<path fill="none" stroke="#63b8ff" d="M337.66,-162.08C347.47,-152.97 359.1,-142.18 367.29,-134.58"/>
<polygon fill="#63b8ff" stroke="#63b8ff" points="335.36,-159.44 330.41,-168.81 340.12,-164.57 335.36,-159.44"/>
</a>
</g>
</g>
<!-- Node7&#45;&gt;Node11 -->
<g id="edge19_Node000007_Node000011" class="edge">
<title>Node7&#45;&gt;Node11</title>
<g id="a_edge19_Node000007_Node000011"><a xlink:title=" ">
<path fill="none" stroke="#63b8ff" d="M285,-164.89C251.38,-148.45 200.84,-118.65 172.75,-77.5 160.9,-60.14 157.79,-34.95 157,-21.21"/>
<polygon fill="#63b8ff" stroke="#63b8ff" points="283.36,-167.99 293.9,-169.1 286.36,-161.66 283.36,-167.99"/>
</a>
</g>
</g>
<!-- Node9&#45;&gt;Node8 -->
<g id="edge12_Node000009_Node000008" class="edge">
<title>Node9&#45;&gt;Node8</title>
<g id="a_edge12_Node000009_Node000008"><a xlink:title=" ">
<path fill="none" stroke="#63b8ff" d="M372.4,-102.3C366.13,-78.2 356,-39.25 351.3,-21.18"/>
<polygon fill="#63b8ff" stroke="#63b8ff" points="368.99,-103.11 374.9,-111.9 375.77,-101.34 368.99,-103.11"/>
</a>
</g>
</g>
<!-- Node10 -->
<g id="Node000010" class="node">
<title>Node10</title>
<g id="a_Node000010"><a xlink:href="module_2src_2module_8h.html" target="_top" xlink:title=" ">
<polygon fill="white" stroke="#666666" points="457.62,-77.5 395.88,-77.5 395.88,-56.75 457.62,-56.75 457.62,-77.5"/>
<text text-anchor="middle" x="426.75" y="-64" font-family="Helvetica,sans-Serif" font-size="10.00">module.h</text>
</a>
</g>
</g>
<!-- Node9&#45;&gt;Node10 -->
<g id="edge13_Node000009_Node000010" class="edge">
<title>Node9&#45;&gt;Node10</title>
<g id="a_edge13_Node000009_Node000010"><a xlink:title=" ">
<path fill="none" stroke="#63b8ff" d="M393.95,-104.77C402,-95.78 411.4,-85.28 418.07,-77.83"/>
<polygon fill="#63b8ff" stroke="#63b8ff" points="391.58,-102.17 387.52,-111.96 396.8,-106.84 391.58,-102.17"/>
</a>
</g>
</g>
<!-- Node9&#45;&gt;Node11 -->
<g id="edge15_Node000009_Node000011" class="edge">
<title>Node9&#45;&gt;Node11</title>
<g id="a_edge15_Node000009_Node000011"><a xlink:title=" ">
<path fill="none" stroke="#63b8ff" d="M334.97,-121.63C295.06,-118.46 235.69,-108.38 194.75,-77.5 175.51,-62.99 164.42,-35.69 159.62,-21.12"/>
<polygon fill="#63b8ff" stroke="#63b8ff" points="334.71,-125.12 344.92,-122.29 335.18,-118.13 334.71,-125.12"/>
</a>
</g>
</g>
<!-- Node12 -->
<g id="Node000012" class="node">
<title>Node12</title>
<g id="a_Node000012"><a xlink:href="state__machine_8h.html" target="_top" xlink:title=" ">
<polygon fill="white" stroke="#666666" points="301.25,-77.5 204.25,-77.5 204.25,-56.75 301.25,-56.75 301.25,-77.5"/>
<text text-anchor="middle" x="252.75" y="-64" font-family="Helvetica,sans-Serif" font-size="10.00">state_machine.h</text>
</a>
</g>
</g>
<!-- Node9&#45;&gt;Node12 -->
<g id="edge16_Node000009_Node000012" class="edge">
<title>Node9&#45;&gt;Node12</title>
<g id="a_edge16_Node000009_Node000012"><a xlink:title=" ">
<path fill="none" stroke="#63b8ff" d="M345.14,-108.59C323.03,-98.91 294.4,-86.37 274.9,-77.83"/>
<polygon fill="#63b8ff" stroke="#63b8ff" points="343.45,-111.67 354.02,-112.48 346.26,-105.26 343.45,-111.67"/>
</a>
</g>
</g>
<!-- Node10&#45;&gt;Node8 -->
<g id="edge14_Node000010_Node000008" class="edge">
<title>Node10&#45;&gt;Node8</title>
<g id="a_edge14_Node000010_Node000008"><a xlink:title=" ">
<path fill="none" stroke="#63b8ff" d="M403.72,-49.96C390.36,-40.58 373.96,-29.07 362.57,-21.08"/>
<polygon fill="#63b8ff" stroke="#63b8ff" points="401.37,-52.59 411.57,-55.47 405.39,-46.86 401.37,-52.59"/>
</a>
</g>
</g>
<!-- Node12&#45;&gt;Node8 -->
<g id="edge17_Node000012_Node000008" class="edge">
<title>Node12&#45;&gt;Node8</title>
<g id="a_edge17_Node000012_Node000008"><a xlink:title=" ">
<path fill="none" stroke="#63b8ff" d="M279.66,-50.78C296.36,-41.25 317.31,-29.31 331.74,-21.08"/>
<polygon fill="#63b8ff" stroke="#63b8ff" points="278.18,-47.59 271.23,-55.59 281.65,-53.67 278.18,-47.59"/>
</a>
</g>
</g>
<!-- Node12&#45;&gt;Node11 -->
<g id="edge18_Node000012_Node000011" class="edge">
<title>Node12&#45;&gt;Node11</title>
<g id="a_edge18_Node000012_Node000011"><a xlink:title=" ">
<path fill="none" stroke="#63b8ff" d="M225.84,-50.78C209.14,-41.25 188.19,-29.31 173.76,-21.08"/>
<polygon fill="#63b8ff" stroke="#63b8ff" points="223.85,-53.67 234.27,-55.59 227.32,-47.59 223.85,-53.67"/>
</a>
</g>
</g>
<!-- Node13&#45;&gt;Node3 -->
<g id="edge23_Node000013_Node000003" class="edge">
<title>Node13&#45;&gt;Node3</title>
<g id="a_edge23_Node000013_Node000003"><a xlink:title=" ">
<path fill="none" stroke="#63b8ff" d="M577.35,-160.82C587.83,-146.33 603.89,-126.62 621.75,-113.5 643.67,-97.39 672.2,-85.53 693.99,-77.98"/>
<polygon fill="#63b8ff" stroke="#63b8ff" points="574.75,-158.43 571.89,-168.63 580.49,-162.44 574.75,-158.43"/>
</a>
</g>
</g>
<!-- Node13&#45;&gt;Node4 -->
<g id="edge27_Node000013_Node000004" class="edge">
<title>Node13&#45;&gt;Node4</title>
<g id="a_edge27_Node000013_Node000004"><a xlink:title=" ">
<path fill="none" stroke="#63b8ff" d="M600.28,-167.62C629.48,-157.75 670.36,-143.93 697.65,-134.71"/>
<polygon fill="#63b8ff" stroke="#63b8ff" points="599.49,-164.19 591.14,-170.71 601.74,-170.82 599.49,-164.19"/>
</a>
</g>
</g>
<!-- Node13&#45;&gt;Node5 -->
<g id="edge22_Node000013_Node000005" class="edge">
<title>Node13&#45;&gt;Node5</title>
<g id="a_edge22_Node000013_Node000005"><a xlink:title=" ">
<path fill="none" stroke="#63b8ff" d="M569.73,-159.05C575.57,-134.95 585,-96 589.38,-77.93"/>
<polygon fill="#63b8ff" stroke="#63b8ff" points="566.36,-158.1 567.41,-168.65 573.16,-159.75 566.36,-158.1"/>
</a>
</g>
</g>
<!-- Node13&#45;&gt;Node9 -->
<g id="edge28_Node000013_Node000009" class="edge">
<title>Node13&#45;&gt;Node9</title>
<g id="a_edge28_Node000013_Node000009"><a xlink:title=" ">
<path fill="none" stroke="#63b8ff" d="M529.31,-169.25C494.56,-159.08 442.12,-143.72 408.92,-134"/>
<polygon fill="#63b8ff" stroke="#63b8ff" points="527.88,-172.48 538.47,-171.93 529.85,-165.76 527.88,-172.48"/>
</a>
</g>
</g>
<!-- Node14 -->
<g id="Node000014" class="node">
<title>Node14</title>
<g id="a_Node000014"><a xlink:href="iface__can_8h.html" target="_top" xlink:title=" ">
<polygon fill="white" stroke="#666666" points="536.5,-134.25 465,-134.25 465,-113.5 536.5,-113.5 536.5,-134.25"/>
<text text-anchor="middle" x="500.75" y="-120.75" font-family="Helvetica,sans-Serif" font-size="10.00">iface_can.h</text>
</a>
</g>
</g>
<!-- Node13&#45;&gt;Node14 -->
<g id="edge24_Node000013_Node000014" class="edge">
<title>Node13&#45;&gt;Node14</title>
<g id="a_edge24_Node000013_Node000014"><a xlink:title=" ">
<path fill="none" stroke="#63b8ff" d="M544.57,-162.36C533.85,-153.19 521.08,-142.26 512.09,-134.58"/>
<polygon fill="#63b8ff" stroke="#63b8ff" points="542.28,-165.01 552.16,-168.85 546.83,-159.69 542.28,-165.01"/>
</a>
</g>
</g>
<!-- Node13&#45;&gt;Node16 -->
<g id="edge29_Node000013_Node000016" class="edge">
<title>Node13&#45;&gt;Node16</title>
<g id="a_edge29_Node000013_Node000016"><a xlink:title=" ">
<path fill="none" stroke="#63b8ff" d="M589.71,-163.73C604.53,-154.3 622.83,-142.65 635.51,-134.58"/>
<polygon fill="#63b8ff" stroke="#63b8ff" points="587.96,-160.7 581.4,-169.02 591.72,-166.61 587.96,-160.7"/>
</a>
</g>
</g>
<!-- Node14&#45;&gt;Node5 -->
<g id="edge25_Node000014_Node000005" class="edge">
<title>Node14&#45;&gt;Node5</title>
<g id="a_edge25_Node000014_Node000005"><a xlink:title=" ">
<path fill="none" stroke="#63b8ff" d="M526.71,-107.26C542.47,-97.78 562.08,-85.98 575.62,-77.83"/>
<polygon fill="#63b8ff" stroke="#63b8ff" points="525.08,-104.15 518.32,-112.31 528.69,-110.15 525.08,-104.15"/>
</a>
</g>
</g>
<!-- Node15 -->
<g id="Node000015" class="node">
<title>Node15</title>
<g id="a_Node000015"><a xlink:href="iface__vlcb_8c.html" target="_top" xlink:title=" ">
<polygon fill="white" stroke="#666666" points="549.62,-77.5 475.88,-77.5 475.88,-56.75 549.62,-56.75 549.62,-77.5"/>
<text text-anchor="middle" x="512.75" y="-64" font-family="Helvetica,sans-Serif" font-size="10.00">iface_vlcb.c</text>
</a>
</g>
</g>
<!-- Node14&#45;&gt;Node15 -->
<g id="edge26_Node000014_Node000015" class="edge">
<title>Node14&#45;&gt;Node15</title>
<g id="a_edge26_Node000014_Node000015"><a xlink:title=" ">
<path fill="none" stroke="#63b8ff" d="M505.34,-101.92C507.16,-93.63 509.16,-84.5 510.62,-77.83"/>
<polygon fill="#63b8ff" stroke="#63b8ff" points="501.94,-101.09 503.22,-111.61 508.78,-102.59 501.94,-101.09"/>
</a>
</g>
</g>
</g>
</svg>
