<?xml version="1.0" encoding="UTF-8" standalone="no"?>
<!DOCTYPE svg PUBLIC "-//W3C//DTD SVG 1.1//EN"
 "http://www.w3.org/Graphics/SVG/1.1/DTD/svg11.dtd">
<!-- Generated by graphviz version 12.1.2 (20240928.0832)
 -->
<!-- Title: vlcb.c Pages: 1 -->
<svg width="369pt" height="199pt"
 viewBox="0.00 0.00 368.88 199.00" xmlns="http://www.w3.org/2000/svg" xmlns:xlink="http://www.w3.org/1999/xlink">
<g id="graph0" class="graph" transform="scale(1 1) rotate(0) translate(4 195)">
<title>vlcb.c</title>
<!-- Node1 -->
<g id="Node000001" class="node">
<title>Node1</title>
<g id="a_Node000001"><a xlink:title=" ">
<polygon fill="#999999" stroke="#666666" points="276.62,-191 232.12,-191 232.12,-170.25 276.62,-170.25 276.62,-191"/>
<text text-anchor="middle" x="254.38" y="-177.5" font-family="Helvetica,sans-Serif" font-size="10.00">vlcb.c</text>
</a>
</g>
</g>
<!-- Node2 -->
<g id="Node000002" class="node">
<title>Node2</title>
<g id="a_Node000002"><a xlink:href="vlcb_8h.html" target="_top" xlink:title=" ">
<polygon fill="white" stroke="#666666" points="208.62,-134.25 86.12,-134.25 86.12,-113.5 208.62,-113.5 208.62,-134.25"/>
<text text-anchor="middle" x="147.38" y="-120.75" font-family="Helvetica,sans-Serif" font-size="10.00">vlcb/net/packet/vlcb.h</text>
</a>
</g>
</g>
<!-- Node1&#45;&gt;Node2 -->
<g id="edge1_Node000001_Node000002" class="edge">
<title>Node1&#45;&gt;Node2</title>
<g id="a_edge1_Node000001_Node000002"><a xlink:title=" ">
<path fill="none" stroke="#63b8ff" d="M235.25,-169.84C218.89,-161.47 195.1,-149.29 176.4,-139.72"/>
<polygon fill="#63b8ff" stroke="#63b8ff" points="178.18,-136.71 167.69,-135.27 174.99,-142.94 178.18,-136.71"/>
</a>
</g>
</g>
<!-- Node7 -->
<g id="Node000007" class="node">
<title>Node7</title>
<g id="a_Node000007"><a xlink:title=" ">
<polygon fill="#e0e0e0" stroke="#999999" points="281.88,-134.25 226.88,-134.25 226.88,-113.5 281.88,-113.5 281.88,-134.25"/>
<text text-anchor="middle" x="254.38" y="-120.75" font-family="Helvetica,sans-Serif" font-size="10.00">assert.h</text>
</a>
</g>
</g>
<!-- Node1&#45;&gt;Node7 -->
<g id="edge6_Node000001_Node000007" class="edge">
<title>Node1&#45;&gt;Node7</title>
<g id="a_edge6_Node000001_Node000007"><a xlink:title=" ">
<path fill="none" stroke="#63b8ff" d="M254.38,-169.84C254.38,-163.22 254.38,-154.22 254.38,-146.02"/>
<polygon fill="#63b8ff" stroke="#63b8ff" points="257.88,-146.09 254.38,-136.09 250.88,-146.09 257.88,-146.09"/>
</a>
</g>
</g>
<!-- Node8 -->
<g id="Node000008" class="node">
<title>Node8</title>
<g id="a_Node000008"><a xlink:title=" ">
<polygon fill="#e0e0e0" stroke="#999999" points="360.88,-134.25 299.88,-134.25 299.88,-113.5 360.88,-113.5 360.88,-134.25"/>
<text text-anchor="middle" x="330.38" y="-120.75" font-family="Helvetica,sans-Serif" font-size="10.00">stdbool.h</text>
</a>
</g>
</g>
<!-- Node1&#45;&gt;Node8 -->
<g id="edge7_Node000001_Node000008" class="edge">
<title>Node1&#45;&gt;Node8</title>
<g id="a_edge7_Node000001_Node000008"><a xlink:title=" ">
<path fill="none" stroke="#63b8ff" d="M267.96,-169.84C278.99,-161.9 294.76,-150.53 307.7,-141.21"/>
<polygon fill="#63b8ff" stroke="#63b8ff" points="309.61,-144.15 315.68,-135.46 305.52,-138.47 309.61,-144.15"/>
</a>
</g>
</g>
<!-- Node3 -->
<g id="Node000003" class="node">
<title>Node3</title>
<g id="a_Node000003"><a xlink:title=" ">
<polygon fill="#e0e0e0" stroke="#999999" points="64.75,-77.5 0,-77.5 0,-56.75 64.75,-56.75 64.75,-77.5"/>
<text text-anchor="middle" x="32.38" y="-64" font-family="Helvetica,sans-Serif" font-size="10.00">inttypes.h</text>
</a>
</g>
</g>
<!-- Node2&#45;&gt;Node3 -->
<g id="edge2_Node000002_Node000003" class="edge">
<title>Node2&#45;&gt;Node3</title>
<g id="a_edge2_Node000002_Node000003"><a xlink:title=" ">
<path fill="none" stroke="#63b8ff" d="M126.82,-113.09C109.07,-104.64 83.19,-92.32 63.01,-82.71"/>
<polygon fill="#63b8ff" stroke="#63b8ff" points="64.66,-79.62 54.12,-78.48 61.65,-85.94 64.66,-79.62"/>
</a>
</g>
</g>
<!-- Node4 -->
<g id="Node000004" class="node">
<title>Node4</title>
<g id="a_Node000004"><a xlink:href="opcode_8h.html" target="_top" xlink:title=" ">
<polygon fill="white" stroke="#666666" points="212,-77.5 82.75,-77.5 82.75,-56.75 212,-56.75 212,-77.5"/>
<text text-anchor="middle" x="147.38" y="-64" font-family="Helvetica,sans-Serif" font-size="10.00">vlcb/common/opcode.h</text>
</a>
</g>
</g>
<!-- Node2&#45;&gt;Node4 -->
<g id="edge3_Node000002_Node000004" class="edge">
<title>Node2&#45;&gt;Node4</title>
<g id="a_edge3_Node000002_Node000004"><a xlink:title=" ">
<path fill="none" stroke="#63b8ff" d="M147.38,-113.09C147.38,-106.47 147.38,-97.47 147.38,-89.27"/>
<polygon fill="#63b8ff" stroke="#63b8ff" points="150.88,-89.34 147.38,-79.34 143.88,-89.34 150.88,-89.34"/>
</a>
</g>
</g>
<!-- Node6 -->
<g id="Node000006" class="node">
<title>Node6</title>
<g id="a_Node000006"><a xlink:href="error_8h.html" target="_top" xlink:title=" ">
<polygon fill="white" stroke="#666666" points="346.25,-77.5 230.5,-77.5 230.5,-56.75 346.25,-56.75 346.25,-77.5"/>
<text text-anchor="middle" x="288.38" y="-64" font-family="Helvetica,sans-Serif" font-size="10.00">vlcb/platform/error.h</text>
</a>
</g>
</g>
<!-- Node2&#45;&gt;Node6 -->
<g id="edge5_Node000002_Node000006" class="edge">
<title>Node2&#45;&gt;Node6</title>
<g id="a_edge5_Node000002_Node000006"><a xlink:title=" ">
<path fill="none" stroke="#63b8ff" d="M172.58,-113.09C194.94,-104.41 227.83,-91.63 252.85,-81.92"/>
<polygon fill="#63b8ff" stroke="#63b8ff" points="253.92,-85.26 261.97,-78.38 251.39,-78.73 253.92,-85.26"/>
</a>
</g>
</g>
<!-- Node5 -->
<g id="Node000005" class="node">
<title>Node5</title>
<g id="a_Node000005"><a xlink:title=" ">
<polygon fill="#e0e0e0" stroke="#999999" points="173.75,-20.75 121,-20.75 121,0 173.75,0 173.75,-20.75"/>
<text text-anchor="middle" x="147.38" y="-7.25" font-family="Helvetica,sans-Serif" font-size="10.00">stdint.h</text>
</a>
</g>
</g>
<!-- Node4&#45;&gt;Node5 -->
<g id="edge4_Node000004_Node000005" class="edge">
<title>Node4&#45;&gt;Node5</title>
<g id="a_edge4_Node000004_Node000005"><a xlink:title=" ">
<path fill="none" stroke="#63b8ff" d="M147.38,-56.34C147.38,-49.72 147.38,-40.72 147.38,-32.52"/>
<polygon fill="#63b8ff" stroke="#63b8ff" points="150.88,-32.59 147.38,-22.59 143.88,-32.59 150.88,-32.59"/>
</a>
</g>
</g>
</g>
</svg>
