<?xml version="1.0" encoding="UTF-8" standalone="no"?>
<!DOCTYPE svg PUBLIC "-//W3C//DTD SVG 1.1//EN"
 "http://www.w3.org/Graphics/SVG/1.1/DTD/svg11.dtd">
<!-- Generated by graphviz version 12.1.2 (20240928.0832)
 -->
<!-- Title: vlcb.h Pages: 1 -->
<svg width="874pt" height="313pt"
 viewBox="0.00 0.00 873.62 312.50" xmlns="http://www.w3.org/2000/svg" xmlns:xlink="http://www.w3.org/1999/xlink">
<g id="graph0" class="graph" transform="scale(1 1) rotate(0) translate(4 308.5)">
<title>vlcb.h</title>
<!-- Node1 -->
<g id="Node000001" class="node">
<title>Node1</title>
<g id="a_Node000001"><a xlink:title=" ">
<polygon fill="#999999" stroke="#666666" points="430.5,-304.5 385.25,-304.5 385.25,-283.75 430.5,-283.75 430.5,-304.5"/>
<text text-anchor="middle" x="407.87" y="-291" font-family="Helvetica,sans-Serif" font-size="10.00">vlcb.h</text>
</a>
</g>
</g>
<!-- Node2 -->
<g id="Node000002" class="node">
<title>Node2</title>
<g id="a_Node000002"><a xlink:href="socket_2datagram_8c.html" target="_top" xlink:title=" ">
<polygon fill="white" stroke="#666666" points="865.62,-134.25 794.12,-134.25 794.12,-113.5 865.62,-113.5 865.62,-134.25"/>
<text text-anchor="middle" x="829.87" y="-120.75" font-family="Helvetica,sans-Serif" font-size="10.00">datagram.c</text>
</a>
</g>
</g>
<!-- Node1&#45;&gt;Node2 -->
<g id="edge1_Node000001_Node000002" class="edge">
<title>Node1&#45;&gt;Node2</title>
<g id="a_edge1_Node000001_Node000002"><a xlink:title=" ">
<path fill="none" stroke="#63b8ff" d="M441.52,-281.72C494.13,-263.68 598.86,-226.9 685.87,-191 730.88,-172.43 782.49,-147.93 810.05,-134.57"/>
<polygon fill="#63b8ff" stroke="#63b8ff" points="440.57,-278.35 432.24,-284.89 442.83,-284.97 440.57,-278.35"/>
</a>
</g>
</g>
<!-- Node3 -->
<g id="Node000003" class="node">
<title>Node3</title>
<g id="a_Node000003"><a xlink:href="iface__can_8c.html" target="_top" xlink:title=" ">
<polygon fill="white" stroke="#666666" points="93.25,-77.5 22.5,-77.5 22.5,-56.75 93.25,-56.75 93.25,-77.5"/>
<text text-anchor="middle" x="57.87" y="-64" font-family="Helvetica,sans-Serif" font-size="10.00">iface_can.c</text>
</a>
</g>
</g>
<!-- Node1&#45;&gt;Node3 -->
<g id="edge2_Node000001_Node000003" class="edge">
<title>Node1&#45;&gt;Node3</title>
<g id="a_edge2_Node000001_Node000003"><a xlink:title=" ">
<path fill="none" stroke="#63b8ff" d="M373.46,-291.87C292.1,-286.81 88.36,-261.41 3.87,-134.25 -10.24,-113.02 18.99,-90.47 39.69,-77.95"/>
<polygon fill="#63b8ff" stroke="#63b8ff" points="373.08,-295.35 383.26,-292.41 373.47,-288.36 373.08,-295.35"/>
</a>
</g>
</g>
<!-- Node4 -->
<g id="Node000004" class="node">
<title>Node4</title>
<g id="a_Node000004"><a xlink:href="iface__vlcb_8h.html" target="_top" xlink:title=" ">
<polygon fill="white" stroke="#666666" points="95.12,-134.25 20.62,-134.25 20.62,-113.5 95.12,-113.5 95.12,-134.25"/>
<text text-anchor="middle" x="57.87" y="-120.75" font-family="Helvetica,sans-Serif" font-size="10.00">iface_vlcb.h</text>
</a>
</g>
</g>
<!-- Node1&#45;&gt;Node4 -->
<g id="edge3_Node000001_Node000004" class="edge">
<title>Node1&#45;&gt;Node4</title>
<g id="a_edge3_Node000001_Node000004"><a xlink:title=" ">
<path fill="none" stroke="#63b8ff" d="M377.19,-278.38C307.16,-244.71 137.05,-162.94 78.26,-134.68"/>
<polygon fill="#63b8ff" stroke="#63b8ff" points="375.65,-281.52 386.18,-282.7 378.68,-275.21 375.65,-281.52"/>
</a>
</g>
</g>
<!-- Node6 -->
<g id="Node000006" class="node">
<title>Node6</title>
<g id="a_Node000006"><a xlink:href="socket_8h.html" target="_top" xlink:title=" ">
<polygon fill="white" stroke="#666666" points="436.12,-247.75 379.62,-247.75 379.62,-227 436.12,-227 436.12,-247.75"/>
<text text-anchor="middle" x="407.87" y="-234.25" font-family="Helvetica,sans-Serif" font-size="10.00">socket.h</text>
</a>
</g>
</g>
<!-- Node1&#45;&gt;Node6 -->
<g id="edge6_Node000001_Node000006" class="edge">
<title>Node1&#45;&gt;Node6</title>
<g id="a_edge6_Node000001_Node000006"><a xlink:title=" ">
<path fill="none" stroke="#63b8ff" d="M407.87,-271.88C407.87,-263.66 407.87,-254.68 407.87,-248.08"/>
<polygon fill="#63b8ff" stroke="#63b8ff" points="404.37,-271.82 407.87,-281.82 411.37,-271.82 404.37,-271.82"/>
</a>
</g>
</g>
<!-- Node19 -->
<g id="Node000019" class="node">
<title>Node19</title>
<g id="a_Node000019"><a xlink:href="vlcb_8c.html" target="_top" xlink:title=" ">
<polygon fill="white" stroke="#666666" points="779.12,-247.75 734.62,-247.75 734.62,-227 779.12,-227 779.12,-247.75"/>
<text text-anchor="middle" x="756.87" y="-234.25" font-family="Helvetica,sans-Serif" font-size="10.00">vlcb.c</text>
</a>
</g>
</g>
<!-- Node1&#45;&gt;Node19 -->
<g id="edge36_Node000001_Node000019" class="edge">
<title>Node1&#45;&gt;Node19</title>
<g id="a_edge36_Node000001_Node000019"><a xlink:title=" ">
<path fill="none" stroke="#63b8ff" d="M442.16,-289.42C499.97,-282.88 620.38,-268.05 720.87,-247.75 725.3,-246.85 730,-245.75 734.49,-244.61"/>
<polygon fill="#63b8ff" stroke="#63b8ff" points="441.85,-285.93 432.3,-290.52 442.63,-292.88 441.85,-285.93"/>
</a>
</g>
</g>
<!-- Node4&#45;&gt;Node3 -->
<g id="edge5_Node000004_Node000003" class="edge">
<title>Node4&#45;&gt;Node3</title>
<g id="a_edge5_Node000004_Node000003"><a xlink:title=" ">
<path fill="none" stroke="#63b8ff" d="M57.87,-101.63C57.87,-93.41 57.87,-84.43 57.87,-77.83"/>
<polygon fill="#63b8ff" stroke="#63b8ff" points="54.37,-101.57 57.87,-111.57 61.37,-101.57 54.37,-101.57"/>
</a>
</g>
</g>
<!-- Node5 -->
<g id="Node000005" class="node">
<title>Node5</title>
<g id="a_Node000005"><a xlink:href="iface_8c.html" target="_top" xlink:title=" ">
<polygon fill="white" stroke="#666666" points="445,-77.5 396.75,-77.5 396.75,-56.75 445,-56.75 445,-77.5"/>
<text text-anchor="middle" x="420.87" y="-64" font-family="Helvetica,sans-Serif" font-size="10.00">iface.c</text>
</a>
</g>
</g>
<!-- Node4&#45;&gt;Node5 -->
<g id="edge4_Node000004_Node000005" class="edge">
<title>Node4&#45;&gt;Node5</title>
<g id="a_edge4_Node000004_Node000005"><a xlink:title=" ">
<path fill="none" stroke="#63b8ff" d="M106.73,-113.32C231.99,-93.61 267.17,-102.18 387.87,-77.5 390.67,-76.93 393.58,-76.24 396.46,-75.5"/>
<polygon fill="#63b8ff" stroke="#63b8ff" points="106.35,-109.84 97.03,-114.88 107.46,-116.75 106.35,-109.84"/>
</a>
</g>
</g>
<!-- Node6&#45;&gt;Node2 -->
<g id="edge7_Node000006_Node000002" class="edge">
<title>Node6&#45;&gt;Node2</title>
<g id="a_edge7_Node000006_Node000002"><a xlink:title=" ">
<path fill="none" stroke="#63b8ff" d="M447.7,-232.18C496.33,-226.32 580.65,-213.74 649.87,-191 670.03,-184.38 673.2,-178.21 692.87,-170.25 727.47,-156.24 768.21,-143.17 796.21,-134.69"/>
<polygon fill="#63b8ff" stroke="#63b8ff" points="447.46,-228.68 437.93,-233.32 448.27,-235.64 447.46,-228.68"/>
</a>
</g>
</g>
<!-- Node6&#45;&gt;Node3 -->
<g id="edge32_Node000006_Node000003" class="edge">
<title>Node6&#45;&gt;Node3</title>
<g id="a_edge32_Node000006_Node000003"><a xlink:title=" ">
<path fill="none" stroke="#63b8ff" d="M368.05,-232.3C276.35,-222.01 54.85,-191.61 11.87,-134.25 -2.81,-114.67 24.08,-90.96 42.56,-77.91"/>
<polygon fill="#63b8ff" stroke="#63b8ff" points="367.51,-235.77 377.83,-233.38 368.27,-228.81 367.51,-235.77"/>
</a>
</g>
</g>
<!-- Node6&#45;&gt;Node5 -->
<g id="edge20_Node000006_Node000005" class="edge">
<title>Node6&#45;&gt;Node5</title>
<g id="a_edge20_Node000006_Node000005"><a xlink:title=" ">
<path fill="none" stroke="#63b8ff" d="M411.33,-215.39C414.54,-194.8 419.08,-162.46 420.87,-134.25 422.13,-114.31 421.68,-90.93 421.26,-78"/>
<polygon fill="#63b8ff" stroke="#63b8ff" points="407.91,-214.63 409.78,-225.06 414.82,-215.74 407.91,-214.63"/>
</a>
</g>
</g>
<!-- Node7 -->
<g id="Node000007" class="node">
<title>Node7</title>
<g id="a_Node000007"><a xlink:href="socket_2datagram_8h.html" target="_top" xlink:title=" ">
<polygon fill="white" stroke="#666666" points="641,-191 568.75,-191 568.75,-170.25 641,-170.25 641,-191"/>
<text text-anchor="middle" x="604.87" y="-177.5" font-family="Helvetica,sans-Serif" font-size="10.00">datagram.h</text>
</a>
</g>
</g>
<!-- Node6&#45;&gt;Node7 -->
<g id="edge8_Node000006_Node000007" class="edge">
<title>Node6&#45;&gt;Node7</title>
<g id="a_edge8_Node000006_Node000007"><a xlink:title=" ">
<path fill="none" stroke="#63b8ff" d="M447.49,-225.36C483.2,-215.44 535.2,-200.99 569.53,-191.45"/>
<polygon fill="#63b8ff" stroke="#63b8ff" points="446.67,-221.96 437.97,-228.01 448.55,-228.7 446.67,-221.96"/>
</a>
</g>
</g>
<!-- Node11 -->
<g id="Node000011" class="node">
<title>Node11</title>
<g id="a_Node000011"><a xlink:href="state__machine_8c.html" target="_top" xlink:title=" ">
<polygon fill="white" stroke="#666666" points="602,-20.75 505.75,-20.75 505.75,0 602,0 602,-20.75"/>
<text text-anchor="middle" x="553.87" y="-7.25" font-family="Helvetica,sans-Serif" font-size="10.00">state_machine.c</text>
</a>
</g>
</g>
<!-- Node6&#45;&gt;Node11 -->
<g id="edge35_Node000006_Node000011" class="edge">
<title>Node6&#45;&gt;Node11</title>
<g id="a_edge35_Node000006_Node000011"><a xlink:title=" ">
<path fill="none" stroke="#63b8ff" d="M420.26,-217.29C450.15,-171.21 525.43,-55.21 547.62,-21.01"/>
<polygon fill="#63b8ff" stroke="#63b8ff" points="417.48,-215.14 414.97,-225.44 423.35,-218.95 417.48,-215.14"/>
</a>
</g>
</g>
<!-- Node13 -->
<g id="Node000013" class="node">
<title>Node13</title>
<g id="a_Node000013"><a xlink:href="iface_8h.html" target="_top" xlink:title=" ">
<polygon fill="white" stroke="#666666" points="381.37,-191 332.37,-191 332.37,-170.25 381.37,-170.25 381.37,-191"/>
<text text-anchor="middle" x="356.87" y="-177.5" font-family="Helvetica,sans-Serif" font-size="10.00">iface.h</text>
</a>
</g>
</g>
<!-- Node6&#45;&gt;Node13 -->
<g id="edge21_Node000006_Node000013" class="edge">
<title>Node6&#45;&gt;Node13</title>
<g id="a_edge21_Node000006_Node000013"><a xlink:title=" ">
<path fill="none" stroke="#63b8ff" d="M391.01,-218.27C382.63,-209.28 372.85,-198.78 365.91,-191.33"/>
<polygon fill="#63b8ff" stroke="#63b8ff" points="388.34,-220.55 397.72,-225.48 393.47,-215.78 388.34,-220.55"/>
</a>
</g>
</g>
<!-- Node17 -->
<g id="Node000017" class="node">
<title>Node17</title>
<g id="a_Node000017"><a xlink:href="net_2inc_2vlcb_2net_8h.html" target="_top" xlink:title=" ">
<polygon fill="white" stroke="#666666" points="154.25,-134.25 113.5,-134.25 113.5,-113.5 154.25,-113.5 154.25,-134.25"/>
<text text-anchor="middle" x="133.87" y="-120.75" font-family="Helvetica,sans-Serif" font-size="10.00">net.h</text>
</a>
</g>
</g>
<!-- Node6&#45;&gt;Node17 -->
<g id="edge33_Node000006_Node000017" class="edge">
<title>Node6&#45;&gt;Node17</title>
<g id="a_edge33_Node000006_Node000017"><a xlink:title=" ">
<path fill="none" stroke="#63b8ff" d="M368.34,-227.8C335.83,-220.09 288.92,-207.46 249.87,-191 211.42,-174.79 169.69,-148.69 148.31,-134.61"/>
<polygon fill="#63b8ff" stroke="#63b8ff" points="367.2,-231.12 377.73,-229.97 368.78,-224.31 367.2,-231.12"/>
</a>
</g>
</g>
<!-- Node18 -->
<g id="Node000018" class="node">
<title>Node18</title>
<g id="a_Node000018"><a xlink:href="socket_8c.html" target="_top" xlink:title=" ">
<polygon fill="white" stroke="#666666" points="314.75,-191 259,-191 259,-170.25 314.75,-170.25 314.75,-191"/>
<text text-anchor="middle" x="286.87" y="-177.5" font-family="Helvetica,sans-Serif" font-size="10.00">socket.c</text>
</a>
</g>
</g>
<!-- Node6&#45;&gt;Node18 -->
<g id="edge34_Node000006_Node000018" class="edge">
<title>Node6&#45;&gt;Node18</title>
<g id="a_edge34_Node000006_Node000018"><a xlink:title=" ">
<path fill="none" stroke="#63b8ff" d="M376.01,-221.96C354.65,-212.3 327.1,-199.83 308.32,-191.33"/>
<polygon fill="#63b8ff" stroke="#63b8ff" points="374.31,-225.03 384.86,-225.96 377.19,-218.65 374.31,-225.03"/>
</a>
</g>
</g>
<!-- Node7&#45;&gt;Node2 -->
<g id="edge9_Node000007_Node000002" class="edge">
<title>Node7&#45;&gt;Node2</title>
<g id="a_edge9_Node000007_Node000002"><a xlink:title=" ">
<path fill="none" stroke="#63b8ff" d="M652.4,-168.06C694.66,-157.78 755.55,-142.96 793.9,-133.63"/>
<polygon fill="#63b8ff" stroke="#63b8ff" points="651.63,-164.64 642.74,-170.41 653.29,-171.45 651.63,-164.64"/>
</a>
</g>
</g>
<!-- Node8 -->
<g id="Node000008" class="node">
<title>Node8</title>
<g id="a_Node000008"><a xlink:href="module_8c.html" target="_top" xlink:title=" ">
<polygon fill="white" stroke="#666666" points="786.37,-20.75 725.37,-20.75 725.37,0 786.37,0 786.37,-20.75"/>
<text text-anchor="middle" x="755.87" y="-7.25" font-family="Helvetica,sans-Serif" font-size="10.00">module.c</text>
</a>
</g>
</g>
<!-- Node7&#45;&gt;Node8 -->
<g id="edge10_Node000007_Node000008" class="edge">
<title>Node7&#45;&gt;Node8</title>
<g id="a_edge10_Node000007_Node000008"><a xlink:title=" ">
<path fill="none" stroke="#63b8ff" d="M646.87,-166.26C705.08,-146.78 805.44,-109.45 825.87,-77.5 841,-53.84 806.13,-32.76 780.36,-21.06"/>
<polygon fill="#63b8ff" stroke="#63b8ff" points="646.01,-162.86 637.61,-169.32 648.2,-169.5 646.01,-162.86"/>
</a>
</g>
</g>
<!-- Node9 -->
<g id="Node000009" class="node">
<title>Node9</title>
<g id="a_Node000009"><a xlink:href="module_2inc_2vlcb_2module_8h.html" target="_top" xlink:title=" ">
<polygon fill="white" stroke="#666666" points="658.75,-134.25 597,-134.25 597,-113.5 658.75,-113.5 658.75,-134.25"/>
<text text-anchor="middle" x="627.87" y="-120.75" font-family="Helvetica,sans-Serif" font-size="10.00">module.h</text>
</a>
</g>
</g>
<!-- Node7&#45;&gt;Node9 -->
<g id="edge11_Node000007_Node000009" class="edge">
<title>Node7&#45;&gt;Node9</title>
<g id="a_edge11_Node000007_Node000009"><a xlink:title=" ">
<path fill="none" stroke="#63b8ff" d="M613.43,-159.24C616.98,-150.8 620.93,-141.41 623.79,-134.58"/>
<polygon fill="#63b8ff" stroke="#63b8ff" points="610.22,-157.87 609.57,-168.44 616.67,-160.58 610.22,-157.87"/>
</a>
</g>
</g>
<!-- Node7&#45;&gt;Node11 -->
<g id="edge19_Node000007_Node000011" class="edge">
<title>Node7&#45;&gt;Node11</title>
<g id="a_edge19_Node000007_Node000011"><a xlink:title=" ">
<path fill="none" stroke="#63b8ff" d="M596.83,-159.34C593.86,-151.55 590.56,-142.54 587.87,-134.25 574.33,-92.57 561.39,-41.86 556.23,-21.02"/>
<polygon fill="#63b8ff" stroke="#63b8ff" points="593.54,-160.52 600.42,-168.57 600.06,-157.98 593.54,-160.52"/>
</a>
</g>
</g>
<!-- Node9&#45;&gt;Node8 -->
<g id="edge12_Node000009_Node000008" class="edge">
<title>Node9&#45;&gt;Node8</title>
<g id="a_edge12_Node000009_Node000008"><a xlink:title=" ">
<path fill="none" stroke="#63b8ff" d="M661.02,-108.12C676.28,-100.35 694.04,-89.86 707.87,-77.5 726.91,-60.48 742.9,-34.7 750.72,-20.9"/>
<polygon fill="#63b8ff" stroke="#63b8ff" points="659.73,-104.85 652.28,-112.39 662.8,-111.14 659.73,-104.85"/>
</a>
</g>
</g>
<!-- Node10 -->
<g id="Node000010" class="node">
<title>Node10</title>
<g id="a_Node000010"><a xlink:href="module_2src_2module_8h.html" target="_top" xlink:title=" ">
<polygon fill="white" stroke="#666666" points="816.75,-77.5 755,-77.5 755,-56.75 816.75,-56.75 816.75,-77.5"/>
<text text-anchor="middle" x="785.87" y="-64" font-family="Helvetica,sans-Serif" font-size="10.00">module.h</text>
</a>
</g>
</g>
<!-- Node9&#45;&gt;Node10 -->
<g id="edge13_Node000009_Node000010" class="edge">
<title>Node9&#45;&gt;Node10</title>
<g id="a_edge13_Node000009_Node000010"><a xlink:title=" ">
<path fill="none" stroke="#63b8ff" d="M666.79,-109.39C694.92,-99.64 732.29,-86.69 757.6,-77.92"/>
<polygon fill="#63b8ff" stroke="#63b8ff" points="665.85,-106.01 657.55,-112.59 668.14,-112.62 665.85,-106.01"/>
</a>
</g>
</g>
<!-- Node9&#45;&gt;Node11 -->
<g id="edge15_Node000009_Node000011" class="edge">
<title>Node9&#45;&gt;Node11</title>
<g id="a_edge15_Node000009_Node000011"><a xlink:title=" ">
<path fill="none" stroke="#63b8ff" d="M612.6,-104.16C606.26,-96.13 598.98,-86.52 592.87,-77.5 579.72,-58.07 566.22,-34.1 559.06,-21.02"/>
<polygon fill="#63b8ff" stroke="#63b8ff" points="609.79,-106.25 618.77,-111.87 615.25,-101.87 609.79,-106.25"/>
</a>
</g>
</g>
<!-- Node12 -->
<g id="Node000012" class="node">
<title>Node12</title>
<g id="a_Node000012"><a xlink:href="state__machine_8h.html" target="_top" xlink:title=" ">
<polygon fill="white" stroke="#666666" points="698.37,-77.5 601.37,-77.5 601.37,-56.75 698.37,-56.75 698.37,-77.5"/>
<text text-anchor="middle" x="649.87" y="-64" font-family="Helvetica,sans-Serif" font-size="10.00">state_machine.h</text>
</a>
</g>
</g>
<!-- Node9&#45;&gt;Node12 -->
<g id="edge16_Node000009_Node000012" class="edge">
<title>Node9&#45;&gt;Node12</title>
<g id="a_edge16_Node000009_Node000012"><a xlink:title=" ">
<path fill="none" stroke="#63b8ff" d="M636.06,-102.49C639.45,-94.05 643.23,-84.66 645.97,-77.83"/>
<polygon fill="#63b8ff" stroke="#63b8ff" points="632.85,-101.1 632.37,-111.68 639.34,-103.71 632.85,-101.1"/>
</a>
</g>
</g>
<!-- Node10&#45;&gt;Node8 -->
<g id="edge14_Node000010_Node000008" class="edge">
<title>Node10&#45;&gt;Node8</title>
<g id="a_edge14_Node000010_Node000008"><a xlink:title=" ">
<path fill="none" stroke="#63b8ff" d="M775.02,-46.32C770.31,-37.73 765.02,-28.06 761.19,-21.08"/>
<polygon fill="#63b8ff" stroke="#63b8ff" points="771.91,-47.92 779.78,-55.01 778.04,-44.56 771.91,-47.92"/>
</a>
</g>
</g>
<!-- Node12&#45;&gt;Node8 -->
<g id="edge17_Node000012_Node000008" class="edge">
<title>Node12&#45;&gt;Node8</title>
<g id="a_edge17_Node000012_Node000008"><a xlink:title=" ">
<path fill="none" stroke="#63b8ff" d="M678.81,-51.18C697.37,-41.59 720.93,-29.42 737.08,-21.08"/>
<polygon fill="#63b8ff" stroke="#63b8ff" points="677.45,-47.94 670.17,-55.64 680.66,-54.16 677.45,-47.94"/>
</a>
</g>
</g>
<!-- Node12&#45;&gt;Node11 -->
<g id="edge18_Node000012_Node000011" class="edge">
<title>Node12&#45;&gt;Node11</title>
<g id="a_edge18_Node000012_Node000011"><a xlink:title=" ">
<path fill="none" stroke="#63b8ff" d="M622.96,-50.78C606.26,-41.25 585.31,-29.31 570.89,-21.08"/>
<polygon fill="#63b8ff" stroke="#63b8ff" points="620.97,-53.67 631.39,-55.59 624.44,-47.59 620.97,-53.67"/>
</a>
</g>
</g>
<!-- Node13&#45;&gt;Node3 -->
<g id="edge23_Node000013_Node000003" class="edge">
<title>Node13&#45;&gt;Node3</title>
<g id="a_edge23_Node000013_Node000003"><a xlink:title=" ">
<path fill="none" stroke="#63b8ff" d="M339.93,-162.12C324.22,-146.94 299.47,-125.55 273.87,-113.5 214.41,-85.52 137.68,-74.66 93.5,-70.55"/>
<polygon fill="#63b8ff" stroke="#63b8ff" points="337.05,-164.19 346.61,-168.76 341.98,-159.22 337.05,-164.19"/>
</a>
</g>
</g>
<!-- Node13&#45;&gt;Node4 -->
<g id="edge29_Node000013_Node000004" class="edge">
<title>Node13&#45;&gt;Node4</title>
<g id="a_edge29_Node000013_Node000004"><a xlink:title=" ">
<path fill="none" stroke="#63b8ff" d="M321.06,-169.81C225.66,-148.94 198.41,-151.26 104.87,-134.25 101.84,-133.7 98.71,-133.11 95.56,-132.51"/>
<polygon fill="#63b8ff" stroke="#63b8ff" points="320.08,-173.18 330.6,-171.93 321.6,-166.34 320.08,-173.18"/>
</a>
</g>
</g>
<!-- Node13&#45;&gt;Node5 -->
<g id="edge22_Node000013_Node000005" class="edge">
<title>Node13&#45;&gt;Node5</title>
<g id="a_edge22_Node000013_Node000005"><a xlink:title=" ">
<path fill="none" stroke="#63b8ff" d="M378.1,-162.42C386.55,-154.61 395.7,-144.76 401.87,-134.25 412.63,-115.91 417.61,-91.11 419.65,-77.69"/>
<polygon fill="#63b8ff" stroke="#63b8ff" points="376.06,-159.55 370.84,-168.78 380.67,-164.82 376.06,-159.55"/>
</a>
</g>
</g>
<!-- Node13&#45;&gt;Node9 -->
<g id="edge30_Node000013_Node000009" class="edge">
<title>Node13&#45;&gt;Node9</title>
<g id="a_edge30_Node000013_Node000009"><a xlink:title=" ">
<path fill="none" stroke="#63b8ff" d="M392.36,-172.46C445.73,-161.67 545.83,-141.45 596.61,-131.19"/>
<polygon fill="#63b8ff" stroke="#63b8ff" points="391.99,-168.96 382.88,-174.37 393.38,-175.82 391.99,-168.96"/>
</a>
</g>
</g>
<!-- Node14 -->
<g id="Node000014" class="node">
<title>Node14</title>
<g id="a_Node000014"><a xlink:href="iface__can_8h.html" target="_top" xlink:title=" ">
<polygon fill="white" stroke="#666666" points="392.62,-134.25 321.12,-134.25 321.12,-113.5 392.62,-113.5 392.62,-134.25"/>
<text text-anchor="middle" x="356.87" y="-120.75" font-family="Helvetica,sans-Serif" font-size="10.00">iface_can.h</text>
</a>
</g>
</g>
<!-- Node13&#45;&gt;Node14 -->
<g id="edge24_Node000013_Node000014" class="edge">
<title>Node13&#45;&gt;Node14</title>
<g id="a_edge24_Node000013_Node000014"><a xlink:title=" ">
<path fill="none" stroke="#63b8ff" d="M356.87,-158.38C356.87,-150.16 356.87,-141.18 356.87,-134.58"/>
<polygon fill="#63b8ff" stroke="#63b8ff" points="353.37,-158.32 356.87,-168.32 360.37,-158.32 353.37,-158.32"/>
</a>
</g>
</g>
<!-- Node16 -->
<g id="Node000016" class="node">
<title>Node16</title>
<g id="a_Node000016"><a xlink:href="iface__can__svc_8c.html" target="_top" xlink:title=" ">
<polygon fill="white" stroke="#666666" points="265.12,-134.25 172.62,-134.25 172.62,-113.5 265.12,-113.5 265.12,-134.25"/>
<text text-anchor="middle" x="218.87" y="-120.75" font-family="Helvetica,sans-Serif" font-size="10.00">iface_can_svc.c</text>
</a>
</g>
</g>
<!-- Node13&#45;&gt;Node16 -->
<g id="edge27_Node000013_Node000016" class="edge">
<title>Node13&#45;&gt;Node16</title>
<g id="a_edge27_Node000013_Node000016"><a xlink:title=" ">
<path fill="none" stroke="#63b8ff" d="M321.54,-165.61C297.04,-155.89 265.04,-143.19 243.33,-134.58"/>
<polygon fill="#63b8ff" stroke="#63b8ff" points="320.21,-168.84 330.79,-169.28 322.79,-162.34 320.21,-168.84"/>
</a>
</g>
</g>
<!-- Node13&#45;&gt;Node17 -->
<g id="edge31_Node000013_Node000017" class="edge">
<title>Node13&#45;&gt;Node17</title>
<g id="a_edge31_Node000013_Node000017"><a xlink:title=" ">
<path fill="none" stroke="#63b8ff" d="M320.91,-169.61C251.26,-152.32 230.83,-152.21 163.87,-134.25 160.81,-133.43 157.6,-132.5 154.46,-131.55"/>
<polygon fill="#63b8ff" stroke="#63b8ff" points="320.02,-172.99 330.58,-172.04 321.73,-166.21 320.02,-172.99"/>
</a>
</g>
</g>
<!-- Node14&#45;&gt;Node5 -->
<g id="edge25_Node000014_Node000005" class="edge">
<title>Node14&#45;&gt;Node5</title>
<g id="a_edge25_Node000014_Node000005"><a xlink:title=" ">
<path fill="none" stroke="#63b8ff" d="M377.05,-105.61C387.77,-96.44 400.55,-85.51 409.53,-77.83"/>
<polygon fill="#63b8ff" stroke="#63b8ff" points="374.79,-102.94 369.46,-112.1 379.34,-108.26 374.79,-102.94"/>
</a>
</g>
</g>
<!-- Node15 -->
<g id="Node000015" class="node">
<title>Node15</title>
<g id="a_Node000015"><a xlink:href="iface__vlcb_8c.html" target="_top" xlink:title=" ">
<polygon fill="white" stroke="#666666" points="378.75,-77.5 305,-77.5 305,-56.75 378.75,-56.75 378.75,-77.5"/>
<text text-anchor="middle" x="341.87" y="-64" font-family="Helvetica,sans-Serif" font-size="10.00">iface_vlcb.c</text>
</a>
</g>
</g>
<!-- Node14&#45;&gt;Node15 -->
<g id="edge26_Node000014_Node000015" class="edge">
<title>Node14&#45;&gt;Node15</title>
<g id="a_edge26_Node000014_Node000015"><a xlink:title=" ">
<path fill="none" stroke="#63b8ff" d="M351.21,-102.21C348.92,-93.84 346.38,-84.58 344.53,-77.83"/>
<polygon fill="#63b8ff" stroke="#63b8ff" points="347.77,-102.91 353.79,-111.63 354.52,-101.06 347.77,-102.91"/>
</a>
</g>
</g>
<!-- Node16&#45;&gt;Node3 -->
<g id="edge28_Node000016_Node000003" class="edge">
<title>Node16&#45;&gt;Node3</title>
<g id="a_edge28_Node000016_Node000003"><a xlink:title=" ">
<path fill="none" stroke="#63b8ff" d="M179.22,-109.39C150.55,-99.64 112.47,-86.69 86.68,-77.92"/>
<polygon fill="#63b8ff" stroke="#63b8ff" points="178.06,-112.69 188.65,-112.6 180.31,-106.07 178.06,-112.69"/>
</a>
</g>
</g>
</g>
</svg>
