<?xml version="1.0" encoding="UTF-8" standalone="no"?>
<!DOCTYPE svg PUBLIC "-//W3C//DTD SVG 1.1//EN"
 "http://www.w3.org/Graphics/SVG/1.1/DTD/svg11.dtd">
<!-- Generated by graphviz version 12.1.2 (20240928.0832)
 -->
<!-- Title: vlcb_net_pkt_ConstructErrToStr Pages: 1 -->
<svg width="561pt" height="42pt"
 viewBox="0.00 0.00 561.00 41.50" xmlns="http://www.w3.org/2000/svg" xmlns:xlink="http://www.w3.org/1999/xlink">
<g id="graph0" class="graph" transform="scale(1 1) rotate(0) translate(4 37.5)">
<title>vlcb_net_pkt_ConstructErrToStr</title>
<!-- Node1 -->
<g id="Node000001" class="node">
<title>Node1</title>
<g id="a_Node000001"><a xlink:title=" ">
<polygon fill="#999999" stroke="#666666" points="553,-33.5 409.5,-33.5 409.5,0 553,0 553,-33.5"/>
<text text-anchor="start" x="417.5" y="-20" font-family="Helvetica,sans-Serif" font-size="10.00">vlcb_net_pkt_ConstructErr</text>
<text text-anchor="middle" x="481.25" y="-7.25" font-family="Helvetica,sans-Serif" font-size="10.00">ToStr</text>
</a>
</g>
</g>
<!-- Node2 -->
<g id="Node000002" class="node">
<title>Node2</title>
<g id="a_Node000002"><a xlink:href="iface__can_8c.html#a96e0054424451b9fdc03c51cd74b9cb8" target="_top" xlink:title=" ">
<polygon fill="white" stroke="#666666" points="373.5,-27.12 269.75,-27.12 269.75,-6.38 373.5,-6.38 373.5,-27.12"/>
<text text-anchor="middle" x="321.62" y="-13.62" font-family="Helvetica,sans-Serif" font-size="10.00">ProcessCanPacket</text>
</a>
</g>
</g>
<!-- Node1&#45;&gt;Node2 -->
<g id="edge1_Node000001_Node000002" class="edge">
<title>Node1&#45;&gt;Node2</title>
<g id="a_edge1_Node000001_Node000002"><a xlink:title=" ">
<path fill="none" stroke="#63b8ff" d="M397.77,-16.75C389.64,-16.75 381.55,-16.75 373.87,-16.75"/>
<polygon fill="#63b8ff" stroke="#63b8ff" points="397.76,-20.25 407.76,-16.75 397.76,-13.25 397.76,-20.25"/>
</a>
</g>
</g>
<!-- Node3 -->
<g id="Node000003" class="node">
<title>Node3</title>
<g id="a_Node000003"><a xlink:href="iface_8c.html#af59bb4e147a7f433c74828ae07108404" target="_top" xlink:title=" ">
<polygon fill="white" stroke="#666666" points="233.75,-27.12 145.75,-27.12 145.75,-6.38 233.75,-6.38 233.75,-27.12"/>
<text text-anchor="middle" x="189.75" y="-13.62" font-family="Helvetica,sans-Serif" font-size="10.00">IngressPackets</text>
</a>
</g>
</g>
<!-- Node2&#45;&gt;Node3 -->
<g id="edge2_Node000002_Node000003" class="edge">
<title>Node2&#45;&gt;Node3</title>
<g id="a_edge2_Node000002_Node000003"><a xlink:title=" ">
<path fill="none" stroke="#63b8ff" d="M257.99,-16.75C249.93,-16.75 241.82,-16.75 234.17,-16.75"/>
<polygon fill="#63b8ff" stroke="#63b8ff" points="257.78,-20.25 267.78,-16.75 257.78,-13.25 257.78,-20.25"/>
</a>
</g>
</g>
<!-- Node4 -->
<g id="Node000004" class="node">
<title>Node4</title>
<g id="a_Node000004"><a xlink:href="iface_8c.html#ac759fac91807dd30f90627e4c7a6dce2" target="_top" xlink:title=" ">
<polygon fill="white" stroke="#666666" points="109.75,-27.12 0,-27.12 0,-6.38 109.75,-6.38 109.75,-27.12"/>
<text text-anchor="middle" x="54.88" y="-13.62" font-family="Helvetica,sans-Serif" font-size="10.00">vlcb_net_iface_Poll</text>
</a>
</g>
</g>
<!-- Node3&#45;&gt;Node4 -->
<g id="edge3_Node000003_Node000004" class="edge">
<title>Node3&#45;&gt;Node4</title>
<g id="a_edge3_Node000003_Node000004"><a xlink:title=" ">
<path fill="none" stroke="#63b8ff" d="M134.14,-16.75C126.16,-16.75 117.94,-16.75 109.97,-16.75"/>
<polygon fill="#63b8ff" stroke="#63b8ff" points="134.1,-20.25 144.1,-16.75 134.1,-13.25 134.1,-20.25"/>
</a>
</g>
</g>
</g>
</svg>
